<svg xmlns="http://www.w3.org/2000/svg" width="75" height="75" viewBox="0 0 75 75"><g fill-rule="evenodd"><path fill="#5E9C43" d="M20.67 54.76h33.27V25.72H20.67v29.04zm0-30.85h5.8v-2.4h-5.8v2.4zm8.83 0h15.76v-2.4H29.5v2.4zm18.8 0h5.64v-2.4H48.3v2.4zm7.15-5.43H48.3v-1.52c0-.83-.7-1.5-1.52-1.5-.84 0-1.52.67-1.52 1.5v1.52H29.5v-1.52c0-.83-.68-1.5-1.52-1.5-.83 0-1.5.67-1.5 1.5v1.52h-7.32c-.84 0-1.5.67-1.5 1.5v36.3c0 .83.66 1.5 1.5 1.5h36.3c.82 0 1.5-.67 1.5-1.5v-36.3c0-.83-.68-1.5-1.5-1.5z"/><path fill="#5E9C43" d="M29.05 40.24l-2.58 2.6 6.26 6.24 15.8-15.6-2.6-2.6-13.2 13.04-3.68-3.68"/><path fill="#D9E1DE" d="M37.57 75h-.15C17.22 74.96.72 58.87.02 38.83v-2.65C.72 16.1 17.26 0 37.5 0 58.17 0 75 16.83 75 37.5 75 58.15 58.22 74.96 37.57 75M37.5 3.85c-18.56 0-33.65 15.1-33.65 33.65 0 18.56 15.1 33.65 33.65 33.65 18.55 0 33.65-15.1 33.65-33.65 0-18.55-15.1-33.65-33.65-33.65"/></g></svg>