<svg width="124" height="124" viewBox="0 0 124 124" xmlns="http://www.w3.org/2000/svg"><title>boundaries</title><g fill-rule="evenodd"><path d="M62 6.3C31.32 6.3 6.36 31.08 6.36 61.5c0 30.45 24.96 55.2 55.64 55.2s55.64-24.75 55.64-55.2c0-30.43-24.96-55.2-55.64-55.2zm0 116.72c-34.2 0-62-27.6-62-61.5C0 27.6 27.8 0 62 0c34.18 0 62 27.58 62 61.5 0 33.9-27.82 61.5-62 61.5z"/><path d="M89.64 43.08l5.45 5.45V29.38H75.94l5.45 5.45L62 54.23l-19.4-19.4 5.44-5.45H28.9v19.15l5.45-5.45 19.4 19.4-19.4 19.4-5.45-5.45v19.14h19.14l-5.45-5.45L62 70.72l19.4 19.4-5.45 5.46H95.1V76.42l-5.46 5.45-19.4-19.4 19.4-19.4" fill="currentColor"/></g></svg>