<svg width="124" height="124" viewBox="0 0 124 124" xmlns="http://www.w3.org/2000/svg"><title>boundaries</title><g fill-rule="evenodd"><path d="M61.997 6.314c-30.68 0-55.638 24.76-55.638 55.197 0 30.436 24.958 55.197 55.637 55.197 30.68 0 55.638-24.76 55.638-55.196 0-30.435-24.96-55.196-55.638-55.196zm0 116.702C27.812 123.016 0 95.426 0 61.51 0 27.598 27.812.007 61.997.007s61.997 27.59 61.997 61.505c0 33.915-27.812 61.506-61.997 61.506z"/><path d="M89.643 43.075l5.45 5.45v-19.14l-19.144-.004 5.45 5.453-19.403 19.403-19.403-19.403 5.45-5.452-19.142.004-.002 19.143 5.45-5.452 19.404 19.403L34.35 81.882l-5.45-5.45.002 19.14 19.143.004-5.45-5.452L61.996 70.72 81.4 90.125l-5.45 5.452 19.142-.003.003-19.143-5.452 5.452L70.24 62.48l19.403-19.405" fill="currentColor"/></g></svg>