<svg width="62" height="62" viewBox="0 0 62 62" xmlns="http://www.w3.org/2000/svg"><title>icon-choose</title><g fill-rule="evenodd"><path d="M31.056 59.706c15.904 0 28.842-12.94 28.842-28.843C59.898 14.96 46.96 2.02 31.056 2.02c-15.904 0-28.843 12.94-28.843 28.843 0 15.904 12.94 28.843 28.843 28.843"/><path d="M31.056 59.706c15.904 0 28.842-12.94 28.842-28.843C59.898 14.96 46.96 2.02 31.056 2.02c-15.904 0-28.843 12.94-28.843 28.843 0 15.904 12.94 28.843 28.843 28.843z" stroke="currentColor" stroke-width="3"/><path d="M31.018 21.01c-2.292-.015-4.115-1.85-4.098-4.128.017-2.244 1.926-4.112 4.172-4.084 2.265.028 4.12 1.91 4.1 4.157-.022 2.275-1.87 4.07-4.174 4.055M31.056 21.993c-.16 0-3.95.047-5.54 4.11-1.81 4.627-.662 16.8 5.54 23.45 6.2-6.65 7.35-18.823 5.54-23.45-1.592-4.063-5.38-4.11-5.54-4.11M44.453 24.106c-1.69-.01-3.036-1.366-3.024-3.045.012-1.655 1.42-3.033 3.077-3.012 1.67.02 3.04 1.408 3.024 3.067-.014 1.678-1.377 3.002-3.077 2.99M44.48 25.063c-.118 0-2.913.035-4.086 3.032-1.336 3.414-.49 12.395 4.087 17.3 4.576-4.905 5.423-13.886 4.087-17.3-1.173-2.997-3.968-3.032-4.087-3.032M17.604 24.106c-1.69-.01-3.037-1.366-3.024-3.045.012-1.655 1.42-3.033 3.078-3.012 1.67.02 3.04 1.408 3.024 3.067-.016 1.678-1.378 3.002-3.078 2.99M17.63 25.063c-.117 0-2.912.035-4.086 3.032-1.335 3.414-.488 12.395 4.087 17.3 4.576-4.905 5.423-13.886 4.087-17.3-1.173-2.997-3.968-3.032-4.086-3.032" fill="currentColor"/></g></svg>