<svg width="62" height="62" viewBox="0 0 62 62" xmlns="http://www.w3.org/2000/svg"><title>icon-choose</title><g fill-rule="evenodd"><path d="M31.06 59.7c15.9 0 28.84-12.93 28.84-28.84 0-15.9-12.94-28.84-28.84-28.84S2.2 14.96 2.2 30.86 15.16 59.7 31.07 59.7"/><path d="M31.06 59.7c15.9 0 28.84-12.93 28.84-28.84 0-15.9-12.94-28.84-28.84-28.84S2.2 14.96 2.2 30.86 15.16 59.7 31.07 59.7z" stroke="currentColor" stroke-width="3"/><path d="M31.02 21c-2.3 0-4.12-1.84-4.1-4.12.02-2.24 1.93-4.1 4.17-4.08 2.26.03 4.1 1.9 4.1 4.16-.03 2.27-1.88 4.06-4.18 4.05M31.06 22c-.16 0-3.95.04-5.54 4.1-1.8 4.63-.67 16.8 5.54 23.45 6.2-6.65 7.34-18.82 5.53-23.45C35 22.04 31.2 22 31.05 22M44.45 24.1c-1.7 0-3.03-1.36-3.02-3.04 0-1.66 1.42-3.03 3.08-3 1.68 0 3.05 1.4 3.03 3.06 0 1.67-1.38 3-3.08 3M44.48 25.06c-.12 0-2.9.04-4.1 3.04-1.32 3.4-.47 12.4 4.1 17.3 4.58-4.9 5.42-13.9 4.1-17.3-1.2-3-3.98-3.04-4.1-3.04M17.6 24.1c-1.7 0-3.03-1.36-3.02-3.04 0-1.66 1.42-3.03 3.08-3 1.67 0 3.04 1.4 3.02 3.06 0 1.67-1.38 3-3.08 3M17.63 25.06c-.12 0-2.9.04-4.1 3.04-1.32 3.4-.47 12.4 4.1 17.3 4.58-4.9 5.42-13.9 4.1-17.3-1.2-3-3.98-3.04-4.1-3.04" fill="currentColor"/></g></svg>