<svg xmlns="http://www.w3.org/2000/svg" width="61" height="56" viewBox="0 0 61 56" xmlns:xlink="http://www.w3.org/1999/xlink"><defs><path id="a" d="M29.48 22.76V.5H.28v22.26h29.2z"/></defs><g fill="none" fill-rule="evenodd"><path fill="#FFF" d="M19.87 13.66l-6.9 1.72V14.2l6.9-1.7M19.87 16.5l-6.9 1.73v-1.17l6.9-1.72M19.87 19.36l-6.9 1.72V19.9l6.9-1.7M19.87 22.22l-6.9 1.7v-1.16l6.9-1.7M19.87 25.07l-6.9 1.7v-1.15l6.9-1.72M19.87 27.92l-6.9 1.72v-1.17l6.9-1.72M19.87 30.77l-6.9 1.72V31.3l6.9-1.72M19.87 33.62l-6.9 1.72v-1.17l6.9-1.72M19.87 36.47l-6.9 1.72V37l6.9-1.72"/><path fill="#236133" d="M11.53 13.87l7.32 3.28v34.17H4.63V17.05"/><path fill="#63A541" d="M11.46 51.32h-6.9V17.05l6.9-3.18"/><path fill="#FFF" d="M10.55 19.5l-5.1 1.9v-.86l5.1-1.9M10.55 22.44l-5.1 1.9v-.86l5.1-1.9M10.45 25.7l-5.1 1.7v-.87l5.1-1.68M10.55 28.74l-5.1 1.5v-.87l5.1-1.5M10.55 31.9l-5.1 1.28v-.87l5.1-1.26M10.55 35.54l-5.1 1.27v-.85l5.1-1.27M10.55 39.2l-5.1 1.1v-.85l5.1-1.1"/><path fill="#236133" d="M0 55.38h42.3v-2.4H0M27.4.8l9.9 4.42v46.1H18.1V5.08"/><path fill="#63A541" d="M27.3 51.32H18V5.08L27.3.8"/><path fill="#FFF" d="M25.95 8.25l-6.9 2.57V9.65l6.9-2.57M25.95 12.23l-6.9 2.58v-1.16l6.9-2.58M25.8 16.66l-6.9 2.27v-1.17l6.9-2.27M25.95 20.76l-6.9 2.02V21.6l6.9-2M25.95 25.04l-6.9 1.72V25.6l6.9-1.73M25.95 29.97l-6.9 1.7v-1.15l6.9-1.72M25.95 34.92l-6.9 1.5v-1.17l6.9-1.5M24.33 51.9l-3.98.42v-4.44l3.98-.43"/><g transform="translate(31.3 15.38)"><path fill="#63A541" d="M6.4 22.36c-2.2 0-4.08-1.65-4.36-3.84L.7 8.2C.4 5.8 2.1 3.58 4.52 3.27L22.77.93l.56-.03c2.22 0 4.1 1.65 4.38 3.84l1.34 10.32c.15 1.16-.16 2.32-.9 3.25-.7.94-1.75 1.54-2.9 1.7L6.97 22.3c-.2.03-.38.04-.57.04z"/><mask id="b" fill="#fff"><use xlink:href="#a"/></mask><path fill="#FFF" d="M23.33.5c-.2 0-.4 0-.6.04L4.46 2.87C1.84 3.2-.03 5.62.3 8.25l1.34 10.32c.3 2.4 2.36 4.2 4.77 4.2.22 0 .43-.02.63-.05l18.25-2.34c1.27-.16 2.4-.8 3.2-1.83.78-1 1.12-2.27.96-3.54L28.1 4.7C27.8 2.3 25.76.5 23.34.5m0 .8c2 0 3.73 1.48 3.98 3.5l1.34 10.3c.3 2.2-1.27 4.2-3.46 4.5L6.93 21.92l-.52.03c-1.97 0-3.7-1.48-3.97-3.5L1.1 8.15c-.28-2.18 1.28-4.2 3.47-4.47l18.25-2.34.5-.03" mask="url(#b)"/><path fill="#FFF" d="M15 13.53c.1.6 1.24 3.97 5.62 3.4l.35-.03c-.08-.62-1.23-3.98-5.6-3.42l-.36.05zm.22-1.16c4.06-.52 4.58-4.02 4.5-4.6l-.35.04c-4.06.54-4.58 4.04-4.5 4.62l.35-.05zm-2.3-6.54l-2.55.33 1.54 11.9 2.54-.32-1.53-11.9z"/></g></g></svg>