<!DOCTYPE svg PUBLIC "-//W3C//DTD SVG 1.1//EN" "http://www.w3.org/Graphics/SVG/1.1/DTD/svg11.dtd" [
	<!ENTITY ns_flows "http://ns.adobe.com/Flows/1.0/">
]><svg xmlns="http://www.w3.org/2000/svg" width="76" height="70" viewBox="0 0 76 70" overflow="visible"><path fill="#63A544" d="M54.07 0C47.72 0 42 2.83 38 7.35c0 0 0 .02 0 0-.73.98-1.42 2.04-1.96 3.28-.45 1.1-.8 2.2-1.1 3.3-.08.36-.18.72-.25 1.1-.02.03-.03.06-.03.1-.13.68-.28 1.38-.36 2.13-1.05 8.5 2 15.65 2 15.65-.82-15.97 3.18-21.5 3.18-21.5l5.3 5.08c13.22 12.65.37 26.08.37 26.08l-7.7 8.06-7.95-7.6c-13.22-12.65-.37-26.08-.37-26.08l3.93-4.1c.7-2.87 1.75-5.3 3.07-7.35C32.3 2.06 27.35 0 21.93 0 9.83 0 0 10.3 0 22.98c0 3.4.57 6.7 1.58 9.83 0 0 .92 2.83 1.72 4.4C12.55 57.1 38 70 38 70s25.45-12.9 34.7-32.8c0 0 1.2-2.66 1.72-4.4C75.38 29.67 76 26.4 76 23 76 10.28 66.18 0 54.07 0z"/></svg>