<svg xmlns="http://www.w3.org/2000/svg" width="46" height="31" viewBox="0 0 46 31"><path fill="#5E9C43" d="M16.9 16.47l4.8 4.08c.3.23.63.35.98.35s.7-.12.98-.35l4.73-4L40.05 27.6H5.13L16.9 16.48zm-2.34-1.96L3.02 25.46V4.77l11.54 9.74zm27.78-9.73V25.6l-11.63-11 11.64-9.83zM22.68 17.4L5.65 3.03h34.07l-17.04 14.4zm22.6 12.2l.02-.08c.04-.13.06-.26.06-.4V1.45l-.02-.16-.03-.14-.03-.15-.06-.14-.06-.13-.1-.13-.03-.06-.04-.04-.1-.12-.12-.1-.13-.07-.1-.05-.15-.06-.14-.05-.13-.03h-.16L43.86 0H1.46c-.05 0-.1 0-.16.02l-.14.03L1 .1.9.13.75.2.62.3l-.1.08-.12.1-.04.06L.3.6.23.73.16.86.1 1l-.05.14-.03.14v.16L0 1.5V29.14c0 .83.68 1.5 1.5 1.5h42.35c.1 0 .2 0 .3-.02.1 0 .2-.04.3-.08.12-.06.23-.13.33-.2l.07-.07c.1-.1.2-.18.26-.3h.02c.07-.1.12-.22.16-.34z"/></svg>