<svg width="46" height="46" viewBox="0 0 46 46" xmlns="http://www.w3.org/2000/svg"><title>Facebook</title><g fill-rule="evenodd"><circle stroke="currentColor" cx="22.8" cy="22.55" r="22"/><path d="M30.74 9.77H14.86c-2.24 0-4.06 1.93-4.06 4.32V31c0 2.38 1.82 4.32 4.06 4.32h7.78V24.92h-2.57v-3.5h2.57V18.6c0-.52-.1-3.96 4.03-3.96h3.06v3.58h-2.3c-.4 0-.84.47-.84.82v2.35h2.98c-.12 1.8-.36 3.52-.36 3.52h-2.65v10.42h4.17c2.24 0 4.06-1.94 4.06-4.32V14.1c0-2.4-1.82-4.33-4.06-4.33" fill="currentColor"/></g></svg>