<svg width="26" height="26" viewBox="0 0 26 26" xmlns="http://www.w3.org/2000/svg"><title>Slice 1 Copy 4</title><path d="M25 13c0-6.63-5.37-12-12-12S1 6.37 1 13s5.37 12 12 12 12-5.37 12-12zm-6.56.54c-.1 1.44-.52 2.88-1.27 4.3-1.3-.26-2.5-.4-3.6-.42v-3.88h4.87zm-4.88-1.1v-3.9c1.13-.02 2.37-.16 3.68-.44.64 1.26 1.13 2.7 1.2 4.3v.03h-4.88zm3.02 6.43c-.77 1.2-1.78 2.4-3.02 3.6v-3.94c.95.03 1.96.13 3.02.34zm1.15.25c.77.2 1.57.45 2.4.77-1.4 1.43-3.22 2.44-5.25 2.83 1.16-1.18 2.1-2.4 2.85-3.6zM13.56 3.5c.7.6 2 1.86 3.1 3.6-1.1.2-2.14.3-3.1.34V3.5zm6.54 2.6c-.78.3-1.54.53-2.28.72-.9-1.53-2-2.73-2.83-3.53 1.97.4 3.74 1.4 5.1 2.8zm.77.88c1.17 1.53 1.9 3.4 2.03 5.45h-3.33v-.1c-.1-1.67-.57-3.18-1.2-4.5.8-.22 1.64-.5 2.5-.85zm2.03 6.56c-.1 2.05-.85 3.93-2 5.46-.9-.37-1.77-.66-2.62-.88.76-1.5 1.18-3.04 1.28-4.58h3.34zM5.12 19c-1.17-1.53-1.9-3.4-2.02-5.46h3.34c.1 1.53.52 3.05 1.27 4.55-1.4.37-2.32.78-2.58.9zm3.14.1c.74 1.23 1.7 2.44 2.9 3.64-2.06-.4-3.9-1.4-5.28-2.85.42-.2 1.24-.52 2.38-.8zM3.1 12.43c.12-2.05.86-3.93 2.04-5.46.27.13 1.15.53 2.5.9-.65 1.3-1.1 2.8-1.2 4.46v.1H3.1zM5.9 6.1c1.36-1.4 3.14-2.4 5.13-2.82-.84.8-1.94 2.02-2.86 3.58-1.07-.28-1.86-.6-2.27-.77zm6.54-2.6v3.95c-.93-.03-1.77-.1-2.5-.23l-.6-.1c1.08-1.73 2.38-3 3.1-3.6zm0 5.06v3.87h-4.9v-.03c.1-1.58.57-3.02 1.2-4.27.32.07.64.13.98.18.8.14 1.7.24 2.72.26zm0 4.98v3.87c-1.02.04-1.93.13-2.72.26l-.9.16c-.74-1.42-1.16-2.85-1.26-4.28h4.88zm0 5v3.92c-1.24-1.2-2.25-2.4-3.02-3.6.9-.18 1.9-.3 3.02-.33z" fill-rule="evenodd"/></svg>