<svg width="26" height="26" viewBox="0 0 26 26" xmlns="http://www.w3.org/2000/svg"><title>Slice 1 Copy 4</title><path d="M25 13c0-6.627-5.372-12-12-12C6.373 1 1 6.373 1 13c0 6.628 5.373 12 12 12 6.628 0 12-5.372 12-12zm-6.558.542c-.098 1.442-.523 2.88-1.274 4.31-1.285-.27-2.498-.4-3.612-.434v-3.876h4.886zm-4.886-1.113V8.55c1.135-.035 2.372-.167 3.684-.448.645 1.254 1.128 2.7 1.212 4.294v.03h-4.896zm3.022 6.435c-.772 1.214-1.78 2.42-3.022 3.61v-3.944c.952.03 1.964.133 3.022.335zm1.15.256c.777.198 1.575.454 2.39.772-1.39 1.433-3.206 2.45-5.242 2.84 1.167-1.187 2.12-2.393 2.853-3.61zM13.557 3.497c.71.613 2.016 1.865 3.104 3.592-1.1.215-2.14.32-3.104.352V3.496zm6.54 2.59c-.778.302-1.54.545-2.28.736-.907-1.535-1.996-2.737-2.828-3.535 1.98.404 3.747 1.404 5.108 2.8zm.77.892c1.175 1.53 1.914 3.408 2.03 5.45h-3.33l-.004-.098c-.09-1.673-.562-3.184-1.202-4.5.815-.22 1.653-.502 2.507-.852zm2.032 6.564c-.11 2.044-.844 3.925-2.013 5.458-.888-.366-1.758-.656-2.602-.882.757-1.51 1.182-3.037 1.274-4.576h3.34zM5.122 19.01c-1.173-1.535-1.91-3.42-2.02-5.468h3.34c.093 1.528.515 3.046 1.265 4.544-1.415.38-2.327.798-2.585.923zm3.142.086c.74 1.23 1.7 2.444 2.882 3.64-2.047-.388-3.873-1.408-5.267-2.85.42-.18 1.245-.503 2.384-.79zm-5.16-6.667c.117-2.048.858-3.93 2.035-5.46.272.13 1.147.527 2.49.893-.635 1.308-1.103 2.808-1.192 4.47l-.003.096h-3.33zM5.9 6.092c1.365-1.405 3.14-2.407 5.133-2.81-.842.804-1.946 2.02-2.863 3.572-1.072-.277-1.855-.583-2.27-.762zm6.544-2.58v3.933c-.936-.023-1.777-.11-2.5-.223-.212-.034-.414-.07-.613-.108 1.086-1.725 2.394-2.98 3.114-3.602zm0 5.045v3.87H7.547V12.4c.084-1.582.563-3.02 1.203-4.267.31.066.633.126.974.18.785.126 1.7.223 2.72.245zm0 4.984v3.87c-1.02.024-1.936.12-2.72.244-.315.05-.614.107-.9.166-.746-1.42-1.168-2.848-1.266-4.28h4.886zm0 4.987v3.926c-1.245-1.192-2.254-2.397-3.027-3.61.89-.166 1.907-.288 3.027-.317z" fill-rule="evenodd"/></svg>