<svg xmlns="http://www.w3.org/2000/svg" width="75" height="75" viewBox="0 0 75 75"><g fill-rule="nonzero" fill="none"><path fill="#D9E1DE" d="M37.57 75h-.15C17.22 74.96.72 58.87.02 38.83v-2.65C.72 16.1 17.26 0 37.5 0 58.17 0 75 16.83 75 37.5 75 58.15 58.22 74.96 37.57 75M37.5 3.85c-18.56 0-33.65 15.1-33.65 33.65 0 18.56 15.1 33.65 33.65 33.65 18.55 0 33.65-15.1 33.65-33.65 0-18.55-15.1-33.65-33.65-33.65"/><path fill="#5E9C43" d="M28.26 55.34h7.26V37.9h-7.26M17.93 55.34h7.26V43.72h-7.27M38.6 55.34h7.25v-22.6H38.6M48.92 55.34h7.26V26.28h-7.26M48.46 16.83l-8.55-2.58L42 18.1 15.32 30.5l1.63 3.5 26.86-12.47 2.07 3.85 2.6-8.55"/></g></svg>