<svg xmlns="http://www.w3.org/2000/svg" width="59" height="56" viewBox="0 0 59 56" xmlns:xlink="http://www.w3.org/1999/xlink"><defs><path id="a" d="M0 55.88h58.8V0H0z"/></defs><g fill="none" fill-rule="evenodd"><path fill="#236133" d="M11.13 44.23s4.68-6.6 6.96-6.76c2.27-.15 9.4-.03 9.4-.03s2.48-.52 4.6-1.84c3.03-1.92 5.66-5.48 7.7-3.05 2.52 2.83-3.8 7.9-5.33 9.42-1.52 1.52 7.68.77 10.04.12 2.36-.67 13.43-9.42 14.3-2.98-1.38 2.68-17.95 13.76-26.92 13.76H11.2l-.07-8.65z"/><mask id="b" fill="#fff"><use xlink:href="#a"/></mask><path fill="#236133" mask="url(#b)" d="M0 55.88h10v-15H0"/><path fill="#63A541" d="M40.24 1.75L30.4 0l-1.77 9.98S25.67 26.6 42.05 29.53l6.56 1.17s.26-6.2-8.4-17.87c0 0 10.3 6.76 11.68 18.45l1.78-9.98S56.63 4.68 40.24 1.75" mask="url(#b)"/></g></svg>