<svg width="26" height="17" viewBox="0 0 26 17" xmlns="http://www.w3.org/2000/svg"><title>Slice 1 Copy 3</title><g fill-rule="evenodd"><path d="M7.058 8.54l-.016-.015c-.19-.185-.44-.286-.704-.286-.274 0-.53.106-.72.3l-1.665 1.69c-.388.397-.38 1.036.017 1.424l.016.015c.19.184.438.285.704.285.274 0 .53-.107.72-.302l1.664-1.69c.388-.395.38-1.034-.016-1.423zM8.962 10.064l-.016-.015c-.188-.185-.438-.287-.704-.287-.274 0-.53.107-.72.302l-1.664 1.69c-.388.396-.38 1.035.017 1.423l.016.016c.19.184.44.286.705.286.274 0 .53-.107.72-.302l1.664-1.69c.387-.396.38-1.035-.018-1.424zM11.25 11.207l-.017-.016c-.19-.183-.44-.284-.705-.284-.274 0-.53.107-.72.302l-1.664 1.69c-.388.396-.38 1.035.017 1.423l.017.017c.188.184.438.285.704.285.275 0 .53-.107.72-.3l1.665-1.69c.388-.398.38-1.037-.016-1.425zM13.154 12.73l-.017-.015c-.188-.184-.437-.285-.703-.285-.275 0-.53.107-.72.302l-1.665 1.69c-.39.396-.38 1.035.016 1.423l.016.016c.188.185.438.286.704.286.274 0 .53-.107.72-.3l1.664-1.69c.388-.398.38-1.037-.016-1.425z"/><path d="M15.01 5.35c-1.764 1.666-3.128 2.29-3.186 2.316l-.012.004c-.262.084-.575.127-.905.127-.418 0-.764-.07-.933-.128-.34-.12-.924-.682-1.175-1.134-.26-.467-.035-1.173-.025-1.203l.008-.026 3.87-3.648c-.186-.186-.554-.28-1.096-.28-1.477 0-3.714.715-3.84.756-.168.074-.412.113-.725.113-.56 0-1.167-.12-1.264-.14h-.003c-.328 0-1.188-.514-1.326-.6-.142-.05-.275-.074-.397-.074-.33 0-.486.184-.515.222L1.623 5.912C1.038 7.012.995 7.334 1 7.416c1.024.248 2.38 1.72 2.718 2.1l1.94-1.898.032-.006c.165-.035.324-.053.473-.053 1.194 0 1.528 1.1 1.604 1.45.097-.01.193-.014.285-.014 1.412 0 1.706 1.13 1.765 1.517.197-.04.384-.06.557-.06 1.295 0 1.594 1.088 1.657 1.454.683-.103 1.207.043 1.558.43.56.613.472 1.608.468 1.65l-.003.038-1.922 1.952c.27.143.525.215.762.215.95 0 1.364-1.17 1.37-1.183l.03-.088.09.017c.16.027.31.04.45.04 1.284 0 1.35-1.212 1.352-1.263l.006-.134.13.034c.258.066.5.1.716.1 1.338 0 1.47-1.26 1.476-1.313l.01-.118.118.022c.198.037.384.055.55.055.448 0 .784-.133.998-.394.413-.506.264-1.335.256-1.382-.35-1.395-4.808-4.77-5.435-5.24z"/><path d="M22.512 1.848l-.002-.013c-.11-.53-.434-.61-.617-.61h-.047c-.982.767-2.054.882-2.608.882-.212 0-.345-.017-.366-.02-.98-.095-2.195-.513-2.246-.53l-.013-.006c-.748-.364-1.39-.55-1.906-.55-.518 0-.716.195-.718.197-2.22 2.38-4.286 3.952-4.523 4.13-.375.83.604 1.514.733 1.6.267.064.518.097.745.097.377 0 .56-.093.562-.093l.025-.012h.036c.58 0 2.664-1.74 3.42-2.412l.053-.048.067.032c2.512 1.233 5.69 4.928 5.87 5.14.177.133.34.2.487.2.17 0 .26-.094.264-.097l.01-.01 2.57-2.146.016-.006c.286-.104.47-.25.542-.432.084-.207-.003-.397-.004-.4l-2.35-4.89z"/></g></svg>