<svg width="124" height="124" viewBox="0 0 124 124" xmlns="http://www.w3.org/2000/svg"><title>hand_up</title><g fill-rule="evenodd"><path d="M62 6.3C31.32 6.3 6.36 31.08 6.36 61.5c0 30.45 24.96 55.2 55.64 55.2s55.64-24.75 55.64-55.2c0-30.43-24.96-55.2-55.64-55.2zm0 116.72c-34.2 0-62-27.6-62-61.5C0 27.6 27.8 0 62 0c34.18 0 62 27.58 62 61.5 0 33.9-27.82 61.5-62 61.5z"/><path d="M94.76 65.73c-2.05-2.1-5.05-2.07-7.06.07-2.52 2.7-5.02 6.58-7.54 9.28-.22.24-.48.44-.87.8v-1.5c0-13.45 0-28.1-.03-41.54 0-.7-.07-1.45-.34-2.07-.86-1.96-2.96-2.9-5.15-2.42-2.1.46-3.38 2.05-3.38 4.27v27.22h-2.78v-1.4c0-11.5 0-23-.02-34.5 0-.76-.15-1.6-.5-2.27-.95-1.87-3.04-2.65-5.2-2.1-2 .53-3.17 2.1-3.17 4.3v35.98h-2.2V58.4c0-9.72-.07-19.44.02-29.16.03-2.34-1.7-4.6-4.53-4.58-2.62.03-4.4 1.88-4.4 4.57v30.64h-1.86v-1.44c0-6.94.02-13.88 0-20.82-.02-.72-.13-1.52-.44-2.16-.96-1.96-3.1-2.78-5.36-2.2-1.83.46-3.08 2.2-3.08 4.28 0 15.3-.04 30.62.04 45.93 0 3.4.23 4.12.75 7.47 1.18 7.68 5.54 12.5 13.06 13.95.7.14 1.42.25 2.13.34V83.44h-8.03l14.1-13.48 14.1 13.48h-8.02v21.5C71.36 103.7 75.85 100.2 80 94.4c3.83-5.22 7.1-9.4 10.65-15.44 1.56-2.67 3.14-5.33 4.68-8 1.16-2 .96-3.7-.54-5.2" fill="currentColor"/></g></svg>