<svg width="26" height="17" viewBox="0 0 26 17" xmlns="http://www.w3.org/2000/svg"><title>Slice 1 Copy 3</title><g fill-rule="evenodd"><path d="M7.06 8.54l-.02-.02c-.2-.18-.44-.28-.7-.28-.28 0-.53.1-.72.3l-1.67 1.7c-.38.4-.38 1.03.02 1.4l.02.03c.17.18.42.28.7.28.26 0 .52-.1.7-.3l1.67-1.7c.4-.38.38-1.02 0-1.4zM8.96 10.06c-.2-.2-.45-.3-.72-.3-.27 0-.53.1-.72.3l-1.66 1.7c-.4.4-.38 1.03 0 1.42h.03c.18.2.43.3.7.3.27 0 .53-.1.72-.3l1.66-1.7c.4-.4.38-1.03-.02-1.42zM11.25 11.2h-.02c-.2-.2-.44-.3-.7-.3-.28 0-.53.1-.72.3l-1.66 1.7c-.38.4-.38 1.03.02 1.42l.02.02c.2.18.44.28.7.28.28 0 .53-.1.72-.3l1.67-1.7c.38-.4.38-1.02-.02-1.4zM13.15 12.73v-.02c-.2-.17-.45-.27-.72-.27-.27 0-.53.1-.72.3l-1.65 1.7c-.4.4-.38 1.03.02 1.4v.03c.2.18.45.3.72.3.26 0 .52-.12.7-.32l1.67-1.7c.4-.38.38-1.02-.02-1.4z"/><path d="M15 5.35c-1.75 1.67-3.12 2.3-3.18 2.32-.27.08-.58.13-.9.13-.43 0-.78-.07-.95-.13-.34-.12-.92-.68-1.17-1.13-.26-.47-.03-1.18-.02-1.2V5.3l3.87-3.64c-.18-.2-.55-.28-1.1-.28-1.47 0-3.7.72-3.83.76-.17.07-.4.1-.73.1-.57 0-1.18-.1-1.27-.13-.33 0-1.2-.5-1.33-.6-.14-.04-.28-.06-.4-.06-.33 0-.48.18-.5.22L1.6 5.9C1.04 7 1 7.34 1 7.43c1.02.24 2.38 1.7 2.72 2.1l1.94-1.9h.03c.16-.04.3-.06.46-.06 1.2 0 1.53 1.1 1.6 1.45h.3c1.4 0 1.7 1.13 1.76 1.5.2-.03.38-.05.55-.05 1.3 0 1.6 1.1 1.66 1.46.68-.1 1.2.05 1.56.44.55.6.46 1.6.46 1.65v.03l-1.93 1.95c.27.14.52.2.76.2.94 0 1.36-1.16 1.36-1.17l.03-.08.08.02c.16.03.3.04.45.04 1.3 0 1.35-1.2 1.35-1.26v-.14l.14.04c.26.06.5.1.72.1 1.33 0 1.47-1.26 1.47-1.32l.02-.1h.12c.2.05.38.06.55.06.44 0 .77-.13 1-.4.4-.5.25-1.32.24-1.37-.35-1.4-4.8-4.78-5.43-5.25z"/><path d="M22.5 1.85v-.02c-.1-.53-.42-.6-.6-.6h-.05c-1 .76-2.06.88-2.6.88h-.38c-.98-.1-2.2-.53-2.24-.54h-.02c-.74-.37-1.38-.56-1.9-.56-.5 0-.7.2-.7.2-2.23 2.38-4.3 3.95-4.53 4.13-.38.83.6 1.5.73 1.6.27.06.52.1.75.1.37 0 .55-.1.56-.1h.07c.58 0 2.66-1.75 3.42-2.42l.04-.04.07.03C17.63 5.7 20.8 9.4 21 9.62c.17.13.34.2.48.2.17 0 .26-.1.27-.1l2.58-2.15h.02c.3-.1.47-.26.55-.44.08-.2 0-.4 0-.4l-2.36-4.9z"/></g></svg>