<svg width="124" height="124" viewBox="0 0 124 124" xmlns="http://www.w3.org/2000/svg"><title>hand_up</title><g fill-rule="evenodd"><path d="M61.997 6.314c-30.68 0-55.638 24.76-55.638 55.197 0 30.436 24.958 55.197 55.637 55.197 30.68 0 55.638-24.76 55.638-55.196 0-30.435-24.96-55.196-55.638-55.196zm0 116.702C27.812 123.016 0 95.426 0 61.51 0 27.598 27.812.007 61.997.007s61.997 27.59 61.997 61.505c0 33.915-27.812 61.506-61.997 61.506z"/><path d="M94.76 65.728c-2.05-2.084-5.05-2.066-7.055.07-2.524 2.688-5.028 6.587-7.546 9.283-.223.24-.48.444-.87.797V74.37c0-13.445.003-28.08-.016-41.526 0-.696-.074-1.45-.347-2.077-.853-1.96-2.958-2.898-5.15-2.416-2.102.463-3.376 2.052-3.377 4.267-.007 8.607-.003 17.214-.002 25.82v1.396h-2.775v-1.38c0-11.504.01-23.006-.02-34.508-.003-.763-.157-1.6-.5-2.272-.957-1.87-3.047-2.656-5.188-2.1-2.015.523-3.188 2.086-3.19 4.298-.003 11.503 0 23.005 0 34.508v1.472h-2.21v-1.456c.002-9.717-.05-19.435.04-29.152.02-2.34-1.712-4.602-4.538-4.577-2.617.022-4.398 1.878-4.398 4.564-.003 9.757-.002 19.514-.002 29.27v1.37h-1.855v-1.437c0-6.942.013-13.883-.018-20.823-.003-.73-.11-1.53-.425-2.173-.96-1.956-3.098-2.78-5.364-2.203-1.826.465-3.07 2.194-3.072 4.288-.002 15.31-.045 30.62.032 45.93.018 3.396.238 4.116.754 7.47 1.18 7.68 5.54 12.484 13.064 13.947.71.138 1.418.246 2.128.34V83.43h-8.034l14.108-13.482L73.044 83.43H65.01v21.508c6.336-1.247 10.833-4.754 14.974-10.557 3.825-5.22 7.095-9.392 10.643-15.442 1.562-2.667 3.14-5.325 4.683-8.002 1.145-1.99.945-3.69-.55-5.208" fill="currentColor"/></g></svg>