<svg width="124" height="123" viewBox="0 0 124 123" xmlns="http://www.w3.org/2000/svg"><title>about_impact</title><g fill-rule="evenodd"><path d="M61.997 6.314c-30.68 0-55.638 24.76-55.638 55.197 0 30.436 24.958 55.197 55.637 55.197 30.68 0 55.638-24.76 55.638-55.196 0-30.435-24.96-55.196-55.638-55.196zm0 116.702C27.812 123.016 0 95.426 0 61.51 0 27.598 27.812.007 61.997.007s61.997 27.59 61.997 61.505c0 33.915-27.812 61.506-61.997 61.506z"/><path d="M61.998 20.818c-14.852 0-27.885 7.87-35.085 19.63 2.716-.733 4.84-.752 5.036-.752.414 0 9.437.09 14.47 6.812.27-.588.55-1.167.844-1.733 1.07.223 2.195.433 3.376.62 2.72.43 5.894.762 9.43.84V59.55H49.414c-.134 1.225-.355 2.5-.66 3.823h11.315v13.317c-3.535.078-6.71.406-9.43.836-1.092.172-2.128.365-3.123.57-.863-1.63-1.59-3.264-2.202-4.9-1.583 3.5-3.607 7.246-6.07 11.23 1.57-.586 3.703-1.293 6.333-1.948 2.563 4.224 5.897 8.4 9.99 12.52-6.665-1.257-12.653-4.43-17.36-8.918-.977 1.53-2.01 3.09-3.11 4.687l-.62.896c7.283 6.548 16.94 10.543 27.52 10.543 22.616 0 41.017-18.254 41.017-40.692 0-22.437-18.4-40.692-41.017-40.692zm-1.93 73.21c-4.313-4.1-7.813-8.243-10.492-12.417 3.08-.565 6.612-.986 10.493-1.085V94.03zM45.254 40.382c-3.715-.952-6.43-2.006-7.87-2.624 4.733-4.828 10.89-8.276 17.795-9.66-2.918 2.764-6.745 6.942-9.925 12.285zm14.816 2.03c-3.244-.076-6.162-.375-8.667-.767-.732-.114-1.435-.24-2.124-.37 3.758-5.932 8.293-10.25 10.79-12.39V42.41zM96.3 59.548H84.754c-.006-.115-.007-.228-.012-.34-.312-5.755-1.947-10.95-4.164-15.472 2.822-.763 5.727-1.73 8.69-2.936 4.067 5.26 6.628 11.72 7.032 18.748zm-9.707-21.813c-2.694 1.04-5.333 1.874-7.9 2.53-3.147-5.28-6.92-9.412-9.804-12.157 6.865 1.392 12.987 4.828 17.703 9.627zm-22.67-8.908c2.462 2.11 6.992 6.416 10.76 12.355-3.813.738-7.42 1.098-10.76 1.21V28.826zm0 17.39c3.937-.123 8.226-.577 12.77-1.54 2.235 4.31 3.91 9.282 4.202 14.762l.004.11H63.923V46.215zm0 17.154H80.86c-.338 4.964-1.812 9.91-4.416 14.82-4.453-.93-8.656-1.367-12.52-1.488v-13.33zm0 30.727V80.53c3.298.105 6.807.454 10.478 1.15-2.676 4.174-6.17 8.316-10.476 12.417zm4.575.885c4.047-4.088 7.346-8.233 9.89-12.424 2.69.678 5.457 1.56 8.276 2.652-4.813 4.93-11.107 8.425-18.166 9.772zm20.832-12.84c-3.08-1.257-6.094-2.254-9.02-3.032 2.622-5.19 4.096-10.442 4.415-15.738H96.31c-.384 7.032-2.927 13.5-6.98 18.77z" fill="currentColor"/><path d="M44.28 50.213c-3.54-6.655-11.974-6.73-12.332-6.73-.358 0-8.792.075-12.332 6.73-4.03 7.58.233 20.863 12.332 38.414 12.1-17.55 16.363-30.834 12.33-38.414zm-12.33 13.14c-3.88 0-7.027-3.12-7.027-6.97 0-3.85 3.146-6.97 7.026-6.97s7.025 3.12 7.025 6.97c0 3.85-3.146 6.97-7.026 6.97z" fill="currentColor"/></g></svg>