<svg width="124" height="123" viewBox="0 0 124 123" xmlns="http://www.w3.org/2000/svg"><title>about_impact</title><g fill-rule="evenodd"><path d="M62 6.3C31.32 6.3 6.36 31.08 6.36 61.5c0 30.45 24.96 55.2 55.64 55.2s55.64-24.75 55.64-55.2c0-30.43-24.96-55.2-55.64-55.2zm0 116.72c-34.2 0-62-27.6-62-61.5C0 27.6 27.8 0 62 0c34.18 0 62 27.58 62 61.5 0 33.9-27.82 61.5-62 61.5z"/><path d="M62 20.82c-14.85 0-27.9 7.87-35.1 19.63 2.73-.73 4.85-.75 5.05-.75.4 0 9.44.08 14.47 6.8.27-.58.55-1.16.84-1.73 1.08.23 2.2.44 3.38.63 2.72.43 5.9.76 9.43.84v13.3H49.4c-.12 1.23-.34 2.5-.65 3.83h11.32V76.7c-3.54.06-6.7.4-9.43.82-1.1.17-2.13.37-3.12.57-.87-1.64-1.6-3.27-2.2-4.9-1.6 3.5-3.6 7.24-6.08 11.22 1.58-.58 3.7-1.3 6.34-1.95 2.56 4.23 5.9 8.4 10 12.52-6.68-1.26-12.66-4.43-17.37-8.92-.97 1.53-2 3.1-3.1 4.68l-.62.9C41.76 98.2 51.42 102.2 62 102.2c22.6 0 41.02-18.25 41.02-40.7 0-22.43-18.4-40.68-41.02-40.68zm-1.93 73.2c-4.3-4.1-7.8-8.23-10.5-12.4 3.1-.58 6.62-1 10.5-1.1v13.5zM45.25 40.4c-3.7-.95-6.43-2-7.87-2.62 4.74-4.83 10.9-8.28 17.8-9.66-2.92 2.76-6.75 6.94-9.93 12.28zm14.82 2.03c-3.24-.07-6.16-.37-8.67-.76-.73-.1-1.43-.24-2.12-.37 3.76-5.93 8.3-10.25 10.8-12.4v13.54zM96.3 59.56H84.75v-.34c-.32-5.75-1.95-10.94-4.17-15.46 2.82-.77 5.73-1.73 8.7-2.94 4.05 5.26 6.62 11.72 7.02 18.75zm-9.7-21.8c-2.7 1.02-5.34 1.86-7.9 2.52-3.15-5.28-6.93-9.42-9.8-12.16 6.85 1.4 12.98 4.84 17.7 9.63zM63.9 28.8c2.47 2.1 7 6.4 10.76 12.35-3.8.74-7.42 1.1-10.76 1.2V28.84zm0 17.4c3.94-.14 8.23-.6 12.77-1.55 2.23 4.3 3.9 9.28 4.2 14.76v.1H63.92V46.23zm0 17.14h16.94c-.34 4.96-1.8 9.9-4.42 14.82-4.45-.94-8.65-1.38-12.52-1.5V63.37zm0 30.73V80.53c3.3.1 6.8.45 10.48 1.15-2.68 4.17-6.17 8.32-10.48 12.42zm4.58.88c4.05-4.1 7.34-8.23 9.9-12.42 2.68.68 5.44 1.56 8.26 2.65-4.8 4.94-11.1 8.44-18.16 9.78zm20.83-12.84c-3.08-1.25-6.1-2.25-9.02-3.03 2.63-5.18 4.1-10.43 4.42-15.73h11.6c-.4 7.03-2.94 13.5-7 18.77z" fill="currentColor"/><path d="M44.28 50.2c-3.54-6.64-11.97-6.72-12.33-6.72-.36 0-8.8.08-12.33 6.73-4.03 7.6.23 20.88 12.33 38.43C44.05 71.08 48.3 57.8 44.28 50.2zM31.95 63.36c-3.88 0-7.03-3.12-7.03-6.97 0-3.85 3.15-6.97 7.03-6.97 3.88 0 7.03 3.13 7.03 6.98 0 3.85-3.15 6.97-7.03 6.97z" fill="currentColor"/></g></svg>