<svg width="90" height="90" viewBox="0 0 90 90" xmlns="http://www.w3.org/2000/svg" xmlns:xlink="http://www.w3.org/1999/xlink"><title>Instagram</title><defs><path id="a" d="M0 45h45V0H0z"/></defs><g stroke-width="2" fill="none" fill-rule="evenodd"><circle stroke="currentColor" cx="42.64" cy="44.73" r="44"/><g transform="translate(21 24)"><mask id="b"><use xlink:href="#a"/></mask><path d="M22.5 0c-6.12 0-6.88.04-9.28.15-2.4.1-4.03.5-5.46 1.05-1.48.57-2.73 1.34-3.98 2.6-1.26 1.24-2.02 2.5-2.6 3.97C.62 9.2.24 10.84.14 13.23.04 15.63 0 16.4 0 22.5c0 6.12.03 6.88.14 9.28.1 2.4.48 4.03 1.04 5.46.58 1.48 1.34 2.73 2.6 3.98 1.25 1.26 2.5 2.02 3.98 2.6 1.43.56 3.06.94 5.46 1.04 2.4.1 3.16.14 9.27.14 6.1 0 6.87-.03 9.27-.14 2.4-.1 4.03-.48 5.46-1.04 1.48-.58 2.73-1.34 3.98-2.6 1.26-1.25 2.03-2.5 2.6-3.98.56-1.43.94-3.07 1.05-5.46.1-2.4.14-3.16.14-9.27 0-6.1-.04-6.87-.15-9.27-.1-2.4-.5-4.03-1.05-5.46-.57-1.48-1.34-2.73-2.6-3.98-1.24-1.26-2.5-2.03-3.97-2.6C35.8.64 34.16.26 31.77.15 29.37.05 28.6 0 22.5 0zm0 4.07c6 0 6.7.02 9.08.13 2.2.1 3.4.46 4.18.77 1.05.4 1.8.9 2.58 1.7.8.77 1.28 1.52 1.7 2.57.3.8.66 1.98.76 4.18.1 2.37.13 3.08.13 9.1 0 6-.02 6.7-.13 9.08-.1 2.2-.46 3.38-.77 4.17-.4 1.05-.9 1.8-1.7 2.6-.77.78-1.52 1.26-2.57 1.67-.8.3-1.98.68-4.18.78-2.37.1-3.08.13-9.1.13-6 0-6.7-.03-9.08-.13-2.2-.1-3.38-.47-4.17-.78-1.05-.4-1.8-.9-2.6-1.68-.78-.8-1.26-1.54-1.67-2.6-.3-.78-.68-1.97-.78-4.16-.1-2.38-.13-3.1-.13-9.1s.03-6.7.13-9.08c.1-2.2.47-3.4.78-4.18.4-1.05.9-1.8 1.68-2.58.8-.8 1.54-1.28 2.6-1.7.78-.3 1.97-.66 4.16-.76 2.38-.1 3.1-.13 9.1-.13z" fill="currentColor" mask="url(#b)"/></g><path d="M43.5 54c-4.15 0-7.5-3.35-7.5-7.5 0-4.13 3.35-7.5 7.5-7.5 4.13 0 7.5 3.37 7.5 7.5 0 4.15-3.37 7.5-7.5 7.5zm0-19.04c-6.4 0-11.56 5.17-11.56 11.55 0 6.4 5.17 11.56 11.55 11.56 6.37 0 11.54-5.17 11.54-11.55 0-6.37-5.17-11.54-11.55-11.54zM58.2 34.5c0 1.5-1.2 2.7-2.7 2.7-1.5 0-2.7-1.2-2.7-2.7 0-1.5 1.2-2.7 2.7-2.7 1.5 0 2.7 1.2 2.7 2.7" fill="currentColor"/></g></svg>