<svg width="47" height="47" viewBox="0 0 47 47" xmlns="http://www.w3.org/2000/svg"><title>social_instagram</title><g transform="translate(1 1)" fill-rule="evenodd"><g fill="currentColor"><path d="M22.38 11.6c-2.96 0-3.33.02-4.5.07-1.14.06-1.94.24-2.63.5-.7.3-1.32.66-1.92 1.26-.6.6-.98 1.2-1.26 1.93-.27.7-.45 1.48-.5 2.64-.06 1.16-.07 1.53-.07 4.5 0 2.94 0 3.3.07 4.47.05 1.16.23 1.95.5 2.64.28.73.65 1.33 1.26 1.94.6.6 1.2.97 1.92 1.25.7.26 1.5.45 2.64.5 1.15.05 1.52.06 4.48.06 2.95 0 3.32 0 4.48-.06 1.16-.05 1.95-.24 2.64-.5.72-.3 1.33-.66 1.93-1.26.6-.6.98-1.2 1.26-1.93.25-.68.44-1.47.5-2.63.04-1.16.06-1.53.06-4.48 0-2.97-.02-3.34-.07-4.5-.06-1.16-.25-1.95-.5-2.64-.3-.72-.66-1.32-1.27-1.93-.6-.6-1.2-.97-1.93-1.25-.7-.27-1.48-.45-2.64-.5-1.16-.06-1.53-.07-4.48-.07zm0 1.97c2.9 0 3.25 0 4.4.06 1.05.05 1.63.23 2 .37.52.2.88.44 1.26.82.4.38.62.74.82 1.25.15.38.32.96.37 2.02.06 1.14.07 1.48.07 4.4 0 2.9 0 3.23-.07 4.38-.05 1.06-.22 1.64-.37 2.02-.2.5-.43.87-.82 1.25-.38.38-.74.62-1.25.82-.4.14-.97.32-2.03.37-1.14.05-1.5.06-4.4.06-2.9 0-3.24 0-4.4-.06-1.05-.05-1.62-.23-2-.37-.52-.2-.88-.44-1.26-.82-.37-.38-.6-.74-.8-1.25-.15-.38-.33-.96-.38-2.02-.05-1.15-.06-1.5-.06-4.4 0-2.9 0-3.24.06-4.4.05-1.05.23-1.63.38-2 .2-.52.43-.88.8-1.26.4-.38.75-.62 1.26-.82.4-.14.96-.32 2.02-.37 1.15-.05 1.5-.06 4.4-.06z"/><path d="M22.38 26.1c-2 0-3.63-1.6-3.63-3.6 0-2.02 1.63-3.64 3.63-3.64S26 20.48 26 22.5c0 2-1.62 3.6-3.62 3.6zm0-9.2c-3.1 0-5.6 2.5-5.6 5.6 0 3.07 2.5 5.57 5.6 5.57 3.08 0 5.58-2.5 5.58-5.58 0-3.1-2.5-5.6-5.58-5.6zM29.5 16.68c0 .72-.6 1.3-1.3 1.3-.74 0-1.32-.58-1.32-1.3 0-.72.58-1.3 1.3-1.3.73 0 1.3.58 1.3 1.3"/></g><circle stroke="currentColor" cx="22.5" cy="22.5" r="22.5"/></g></svg>