<svg width="90" height="90" viewBox="0 0 90 90" xmlns="http://www.w3.org/2000/svg"><title>Instagram</title><g stroke-width="2" fill-rule="evenodd"><circle stroke="currentColor" cx="44.64" cy="44.73" r="44"/><path d="M60.96 62.6c0 .7-.56 1.26-1.25 1.26H27.4c-.7 0-1.26-.56-1.26-1.26V43.03h4.2c-.3 1.15-.48 2.36-.48 3.6 0 7.54 6.14 13.67 13.7 13.67 7.54 0 13.68-6.13 13.68-13.66 0-1.25-.17-2.46-.5-3.6h4.22V62.6zM43.56 38c4.77 0 8.65 3.87 8.65 8.64 0 4.77-3.87 8.64-8.65 8.64s-8.65-3.87-8.65-8.64c0-4.77 3.87-8.63 8.65-8.63zm8.7-7.53c0-.7.56-1.25 1.26-1.25h6.08c.7 0 1.26.56 1.26 1.25v6.07c0 .7-.56 1.26-1.26 1.26h-6.08c-.7 0-1.26-.56-1.26-1.26v-6.07zm8.4-6.38h-34.3c-2.96 0-5.36 2.38-5.36 5.33v34.32c0 2.95 2.4 5.34 5.35 5.34h34.3c2.96 0 5.35-2.4 5.35-5.35V29.43c0-2.95-2.4-5.34-5.35-5.34z" fill="currentColor"/></g></svg>