<svg xmlns="http://www.w3.org/2000/svg" width="62" height="62" viewBox="0 0 62 62"><g fill-rule="evenodd"><path d="M11.9 51.32h5.9c1.78 0 3.24-1.45 3.24-3.24v-10.5h5.6c1.78 0 3.23-1.44 3.23-3.23v-.25l-8.85-20.47c-.14-1.65-1.53-2.95-3.22-2.95h-5.9c5-4.7 11.72-7.58 19.1-7.58 7.38 0 14.1 2.88 19.1 7.58h-6.3c-1.77 0-3.23 1.45-3.23 3.24v13.4h-4.6c-.7 0-1.25.57-1.25 1.25v7.72c0 .67.55 1.23 1.24 1.23h4.6v10.55c0 1.8 1.47 3.24 3.25 3.24h6.3c-5 4.7-11.72 7.58-19.1 7.58-7.38 0-14.1-2.88-19.1-7.58zM9.58 13.16h8.23c.42 0 .76.34.76.76v.26l8.8 20.37c-.08.33-.38.56-.73.56h-8.07v6.2c-.66.28-1.52.42-2.53.36-1.96-.1-4.22-.85-6.36-2.1-.3-.17-.68-.07-.85.22-.17.3-.07.68.22.85 2.32 1.35 4.77 2.15 6.92 2.27l.53.02c.76 0 1.45-.1 2.06-.3v5.46c0 .42-.34.76-.76.76H9.57C5.53 44 3.1 37.78 3.1 31c0-6.78 2.43-13 6.47-17.84zM43.8 48.84c-.4 0-.75-.34-.75-.76v-5.45c.6.2 1.3.3 2.07.3.18 0 .35-.02.53-.03 2.15-.12 4.6-.92 6.92-2.27.3-.17.4-.55.22-.85-.18-.3-.56-.4-.86-.22-2.14 1.25-4.4 2-6.36 2.1-1 .06-1.87-.08-2.53-.37v-5c0-.7-.55-1.25-1.24-1.25h-4.6V29.8h4.6c.7 0 1.25-.54 1.25-1.23V13.92c0-.42.34-.76.76-.76h8.63C56.47 18 58.9 24.22 58.9 31c0 6.78-2.43 13-6.47 17.84H43.8zM31 0C13.88 0 0 13.88 0 31c0 17.12 13.88 31 31 31 17.12 0 31-13.88 31-31C62 13.88 48.12 0 31 0z"/><path d="M11.47 31.5c1.38 0 2.5-1.12 2.5-2.5s-1.12-2.5-2.5-2.5c-1.4 0-2.5 1.12-2.5 2.5s1.1 2.5 2.5 2.5m38.68-5c-1.38 0-2.5 1.12-2.5 2.5s1.12 2.5 2.5 2.5 2.5-1.12 2.5-2.5-1.12-2.5-2.5-2.5"/></g></svg>