<svg xmlns="http://www.w3.org/2000/svg" viewBox="0 0 118.63 100.67"><defs><style>.cls-1{fill:#fab532;}.cls-2{fill:#dd812a;}.cls-3{fill:#75284c;}.cls-4{fill:#8ed2c8;}.cls-5{fill:#11afb9;}</style></defs><title>Asset 1</title><g id="Layer_2" data-name="Layer 2"><g id="Layer_1-2" data-name="Layer 1"><path class="cls-1" d="M28.3 85c-8.7-2-16.48-5.67-22.2-12.72C1.95 67.14.25 61 0 54.4c-.46-13.7 13.25-17.5 14.6-18.87C12.55 22.7 16.87 15.1 28.4 10.4c9.9-4 20.27-1.06 27.28 6.67 1-1.93 1.9-3.72 2.88-5.44 3.22-5.53 7.74-9.5 14-11.12C78.6-1 86 1 89.76 5.9c6.5 8.5 3.3 32.78 3 34.12a11.6 11.6 0 0 1-.95-.75c-4.8-4.6-9.35-4.47-14.2 0-4.1 3.73-6 8.46-7.2 13.76-6.72-2.87-13.07-2-19 1.32s-10 8.3-11.18 15.07a27.85 27.85 0 0 0-6.93 1.27c-4.56 3.9-7.6 8.15-5 14.3z"/><path class="cls-2" d="M90.48 55c1.08-3.88 2.8-10.34 2.26-15a11.6 11.6 0 0 1-.95-.75c-4.8-4.6-9.37-4.47-14.2 0-4.1 3.73-6 8.46-7.22 13.76-6.72-2.86-13.07-2-19 1.33s-10 8.3-11.18 15.07c-2.75 0-17.27 0-12 15.63 7.6 4.1 28.14 3.97 33.8 1.14 0-2.46 5.06-2.17 3.68-4.76a8.93 8.93 0 0 1 2.54-2.2c2-1.64-1.46-3.7.74-4.7 1.36-.3 2.07 1.13 3 1.58 1.12-.3 1-2.3 2-2.3 2 .05 1 2.8 2.3 2.86s1.65-1.54 2.33-2.1c1-.1 1.37.6 1.85 1 3.3-4.3 8.97-16.74 10.03-20.54z"/><path class="cls-3" d="M60.88 86.57c-.7-2.73 3.53-4.75 3.53-4.75a10.4 10.4 0 0 1-.62-2.32c-.57-4.3 4-2.47 4-2.47s-1.58-4.34.36-5.77 4 1.6 4 1.6.8-2.75 2.7-2.76S77 73.73 77 73.73a6.2 6.2 0 0 1 2.63-2.44 1.8 1.8 0 0 1 2.6 1.5c-1 2.18-3.64 5-3.76 5.24s0 .5.1.78c1.8 9.7 5.5 11.24 11.2 17.62a19.4 19.4 0 0 1 2.4 4.23c-5.58-.4-10.94-5.48-13.6-9s-4.88-8-6.38-9.13c-2.43-.98-6.33 3.62-11.32 4.03z"/><path class="cls-4" d="M94.43 97.57s13.5-1.63 19-10.94 5.15-33.9 5.15-33.9a38.4 38.4 0 0 1-8.64 8c-6 4-12.6 8.2-16.37 13.83-6.57 9.85-.72 19.82.86 23z"/><path class="cls-5" d="M94.43 97.57s13.5-1.63 19-10.94 5-29.6 5-29.6-4.28 18.2-9 25a78.26 78.26 0 0 1-15 15.54z"/></g></g></svg>