<svg xmlns="http://www.w3.org/2000/svg" width="360" height="360" viewBox="0 0 360 360" xmlns:xlink="http://www.w3.org/1999/xlink"><title>Kiva 100% promise logo</title><defs><path id="a" d="M.15.77V46.4h185.4V.77H.15z"/><path id="c" d="M.4 26.23h68.7V.54H.4v25.7z"/></defs><g fill="none" fill-rule="evenodd" transform="rotate(-13 201.05 155.56)"><path fill="#333" d="M38.56 209.14h50.16V196.6H72.44v-63.36h-14.4c-3.64 4.4-10.68 7.04-18.5 7.92l2.87 12.87c5.73-.22 11-1.87 13.98-4.07v46.64H38.56v12.54zm119.02-37.73c0-22.1-8.14-39.26-29.15-39.26-21 0-29.15 17.16-29.15 39.27 0 22.12 8.14 39.28 29.15 39.28 21 0 29.15-17.16 29.15-39.27zm-16.17 0c0 15.08-3.62 26.74-12.97 26.74-9.35 0-12.98-11.66-12.98-26.73 0-15.06 3.63-26.72 12.98-26.72 9.35 0 12.98 11.66 12.98 26.73zm82.18 0c0-22.1-8.14-39.26-29.15-39.26-21 0-29.15 17.16-29.15 39.27 0 22.12 8.14 39.28 29.15 39.28 21 0 29.15-17.16 29.15-39.27zm-16.17 0c0 15.08-3.62 26.74-12.97 26.74-9.35 0-12.98-11.66-12.98-26.73 0-15.06 3.63-26.72 12.98-26.72 9.35 0 12.98 11.66 12.98 26.73zm53.47 39.28l48.18-80.08h-12.87L248 210.68h12.87zm8.25-57.86c0-10-4.73-20.68-18.8-20.68-14.1 0-18.82 10.67-18.82 20.68 0 10 4.73 20.68 18.8 20.68 14.1 0 18.82-10.67 18.82-20.68zm-26.07 0c0-6.38 2.2-11.1 7.26-11.1 5.07 0 7.27 4.72 7.27 11.1s-2.2 11.1-7.26 11.1c-5.05 0-7.25-4.72-7.25-11.1zm81.4 37.18c0-10-4.73-20.68-18.8-20.68-14.1 0-18.82 10.67-18.82 20.68 0 10 4.73 20.68 18.8 20.68 14.1 0 18.82-10.67 18.82-20.68zm-26.07 0c0-6.38 2.2-11.1 7.26-11.1s7.26 4.72 7.26 11.1-2.2 11.1-7.26 11.1-7.26-4.72-7.26-11.1zM43.96 237.44H310.3v5.16H43.95zM43.96 105.82H310.3v5.16H43.95zM118.94 258.1H235.3v5.15H118.94zM118.94 85.17H235.3v5.16H118.94z"/><ellipse cx="175.83" cy="175.5" stroke="#333" stroke-width="3" rx="175.83" ry="175.5"/><path fill="#333" d="M262.77 67.06c-2.87 3.65-6.46 3.6-8.7 1.84-2.46-1.9-2.1-5.64.56-9 2.6-3.33 6.25-4.57 8.83-2.55 2.13 1.66 2.92 5.1.1 8.7l-.8 1zm14.1-5.74l-5.8-4.52-2.1 2.7c.62-2.86-.8-5.84-3.5-7.96-4.9-3.83-11.9-2.87-16.96 3.57-5.08 6.5-4.43 13.37.32 17.07 3.33 2.6 6.6 2.55 9 1.54l-2.25 2.88 5.8 4.52 15.5-19.78z"/><g fill="#333"><path d="M185.3 12.78l-7.6-.46-2.17 35.76 7.6.46 2.17-35.76M185.88 35.5c12.2.73 15.65-9.26 15.76-11l-1.05-.06c-12.2-.74-15.67 9.25-15.78 11l1.06.05m-1.12.88c-.1 1.84 1.37 12.34 14.5 13.14l1.07.06c.1-1.84-1.37-12.34-14.5-13.14l-1.07-.06"/></g><path fill="#333" d="M206.7 51.66l7.44 1.57 5.22-24.57-7.44-1.57-5.23 24.55M221.53 22.05c.5-2.32-.8-4.7-3.53-5.28-2.74-.58-4.88 1.08-5.37 3.4-.5 2.32.8 4.7 3.53 5.28 2.74.58 4.87-1.07 5.37-3.4"/><g transform="translate(65.93 30.42)"><mask id="b" fill="#fff"><use xlink:href="#a"/></mask><path fill="#333" d="M159.08 27.28l7.98 3.67 18.5-19.15-6.88-3.16s-9.47 10.7-12.38 14.12l-.1-.05c.7-4.42 2.64-18.58 2.64-18.58l-7.3-3.35-2.46 26.5M0 23L22.93 7.98l3.4 5.15-8.35 5.47 15.6 23.7-6.25 4.1-15.6-23.7-8.34 5.45L0 23" mask="url(#b)"/></g><path fill="#333" d="M96.47 33.32l6.47-2.96 5.95 12.96c.1-2.12 1.33-4.9 4.83-6.5 4.18-1.92 8.66-1.04 10.9 3.8l6.74 14.7-6.46 2.97-5.87-12.8c-1.34-2.9-3.32-3.2-5.16-2.35-2.1.97-3.37 3.67-1.56 7.6l5.06 11-6.47 2.96-14.43-31.38m42.8 4.37l9.02-2.02c-.82-3.15-3.02-4.4-5.53-3.83-2.84.63-3.96 2.9-3.5 5.84zm17.13 5.73c-1.08 3.77-4.14 6.63-9.06 7.72-7.14 1.6-12.94-1.92-14.64-9.53-1.68-7.5 2.22-13.18 8.98-14.68 7.7-1.72 12.63 3.05 14.1 9.7l.4 1.68-16.02 3.56c.68 2.63 2.42 4.97 5.94 4.2 2.4-.54 3.4-2.18 3.78-3.73l6.52 1.08zM89.4 308.06c4.76 3.08 11.02 1.65 15.1-4.63 4.05-6.24 2.84-12.57-1.9-15.66-2.8-1.8-6-2-8.35-.72l1.77-2.74-5.6-3.63-17.67 27.22 5.8 3.75 6.75-10.38c0 2.1.9 4.7 4.1 6.8zm.9-14.6c2.38-3.65 5.76-3.57 7.78-2.27 2.57 1.67 2.6 5.17.5 8.4-2.12 3.25-5.3 4.62-7.88 2.95-1.97-1.28-3.48-4.33-1.1-8l.7-1.08zM128.08 308.8c-.5-.8-1.46-1.37-2.25-1.7-2.05-.8-5.55-.52-7.45 4.32l-3.88 9.87-6.4-2.52 8.3-21.15 6 2.35-1.38 3.55c2.4-2.3 4.9-2.9 8-1.68.8.32 1.75.8 2.53 1.55l-3.47 5.4"/><g transform="translate(133 305.85)"><mask id="d" fill="#fff"><use xlink:href="#c"/></mask><path fill="#333" d="M17.18 13.44c.66-3.8-.3-7.02-3.68-7.6-3.34-.6-5.32 2.12-5.98 5.93-.66 3.8.28 7.03 3.63 7.6 3.4.6 5.37-2.12 6.03-5.93zm6.88 1.2c-1.28 7.33-6.77 11.03-13.8 9.8C3.3 23.25-.63 17.93.65 10.6 1.9 3.25 7.4-.45 14.38.75c7.03 1.22 10.95 6.55 9.68 13.88zm9-10.95l6.65-.26.14 3.43c1-2.23 3.14-4.22 6.58-4.35 3.16-.1 5.74 1.22 7.08 3.7 1.26-2 3.67-4.1 7.1-4.23 4.17-.16 7.7 2.3 7.9 7.4l.6 15.68-6.9.26-.5-13.64c-.12-3-1.6-4.05-3.3-4-2.16.1-4.06 1.98-3.9 6.22l.44 11.7-6.88.24-.5-13.6c-.12-3.1-1.64-4.08-3.37-4.02-2.06.08-4 2-3.84 6.2l.44 11.7-6.9.25-.83-22.7" mask="url(#d)"/></g><path fill="#333" d="M209.3 307.2l6.77-1.32 4.32 22.3-6.77 1.32-4.32-22.3zm1.23-11.82c2.4-.46 4.35.8 4.8 3.2.43 2.16-.74 4.18-3.27 4.68-2.54.48-4.37-.96-4.8-3.12-.46-2.4.88-4.3 3.27-4.76zm26.37 12.34c4.62-1 9.44-1.23 11.2 3.46 1.7 4.52-1.37 8.6-7.06 10.73-5.28 2-10.16 1.37-12.25-2.44l5.86-3.26c.9 1.8 2.86 1.88 4.78 1.17 1.7-.64 2.94-1.7 2.35-3.28-.5-1.34-1.62-1.44-4.8-.77-4.52.98-9.3 1.34-11.1-3.5-1.84-4.9 2-8.7 6.8-10.48 4.78-1.8 9.45-1.2 11.48 2.2l-5.7 3.54c-.82-1.5-2.35-1.9-4.1-1.23-1.6.6-2.64 1.8-2.2 3 .63 1.66 2.74 1.28 4.72.85m20.33-11.9l7.45-4.93c-1.83-2.58-4.24-2.93-6.3-1.56-2.36 1.56-2.58 4-1.15 6.5zm17.47-.75c.34 3.8-1.43 7.43-5.5 10.12-5.9 3.9-12.35 2.74-16.53-3.54-4.13-6.2-2.58-12.67 3-16.37 6.37-4.24 12.47-1.64 16.12 3.85l.9 1.4-13.2 8.76c1.53 2.15 3.9 3.66 6.82 1.73 2-1.32 2.33-3.15 2.12-4.67l6.26-1.3z"/></g></svg>