<svg xmlns="http://www.w3.org/2000/svg" width="243" height="153" viewBox="0 0 243 153"><g fill-rule="evenodd"><path d="M22.38 30.86c-2.1-3.82-1.95-7.95.4-11.62 2.2-3.42 5.58-5.3 9.56-5.3 9.3 0 21.02 10.52 27.4 20.2 6.35-9.68 18.08-20.2 27.37-20.2 4 0 7.38 1.88 9.57 5.3 2.35 3.67 2.5 7.8.4 11.62-1.93 3.54-5.77 6.64-10.38 9.16H243V9c0-4.97-4.03-9-9-9H9C4.03 0 0 4.03 0 9v31.02h32.76c-4.6-2.52-8.45-5.62-10.38-9.16"/><path d="M90.06 27.02c.7-1.27.66-2.24-.13-3.47-.73-1.14-1.55-1.6-2.82-1.6-5.82 0-15.57 8.74-20.75 16.64 9.24-1.46 20.92-6.47 23.7-11.58m-57.7-5.08c-1.28 0-2.1.47-2.83 1.6-.8 1.24-.82 2.2-.13 3.48 2.8 5.1 14.46 10.1 23.7 11.57-5.17-7.9-14.93-16.66-20.76-16.66m54.2 42.96c1.94.23 2.8-.46 3.52-1.57 1.2-1.86 3.67-2.4 5.53-1.2 1.85 1.18 2.4 3.65 1.2 5.5-2.2 3.47-5.57 5.3-9.56 5.3-.54 0-1.1-.02-1.66-.1-9.05-1.1-19.9-11.23-25.85-20.34-5.95 9.1-16.8 19.24-25.85 20.34-.57.07-1.12.1-1.66.1-4 0-7.35-1.84-9.57-5.3-1.2-1.86-.65-4.33 1.2-5.52 1.88-1.2 4.35-.65 5.54 1.2.7 1.12 1.58 1.8 3.5 1.58 6.1-.74 15.35-9.3 20.24-16.88H0V144c0 4.97 4.03 9 9 9h225c4.97 0 9-4.03 9-9V48.02H66.3c4.9 7.6 14.16 16.14 20.24 16.88zm84.42 62.5h14.6V58.64h-14.6v68.76zm45.17-48.2h2.03c0 3.34-5.47 22.88-28.87 22.88h-2.03c0-3.34 5.47-22.9 28.86-22.9zm-26.84 24.7c25.2 0 29.26 19.96 29.26 23.5h-2.03c-25.2 0-29.26-19.95-29.26-23.5h2.02z"/></g></svg>