<svg width="85" height="73" viewBox="0 0 85 73" xmlns="http://www.w3.org/2000/svg"><title>about_leaves</title><g fill-rule="evenodd"><path d="M45.42 29.43V18.4S45.42 0 64.1 0h11.2v11.04s0 18.4-18.68 18.4h-7.47M39.4 72.77V58.22s0-24.26-24.62-24.26H0v14.56s0 24.25 24.63 24.25h9.85M84.83 48.52V33.96H70.05s-24.63 0-24.63 24.26v9.7s8.95-1.22 23.5-16.65c0 0-7.07 16.53-23.5 21.5H60.2s24.63 0 24.63-24.25M9.54 11.04V0h11.2S39.4 0 39.4 18.4v7.35s-6.78-.92-17.8-12.62c0 0 5.35 12.53 17.8 16.3H28.2s-18.66 0-18.66-18.4"/></g></svg>