<svg width="85" height="73" viewBox="0 0 85 73" xmlns="http://www.w3.org/2000/svg"><title>about_leaves</title><g fill-rule="evenodd"><path d="M45.42 29.427v-11.03S45.42.012 64.085.012h11.2v11.03s0 18.385-18.668 18.385h-7.466M39.407 72.774V58.22s0-24.26-24.63-24.26H0v14.556s0 24.258 24.63 24.258h9.85M84.825 48.516V33.962H70.048s-24.63 0-24.63 24.258v9.703s8.953-1.22 23.5-16.65c0 0-7.064 16.532-23.5 21.5h14.778s24.63 0 24.63-24.257M9.54 11.043V.013h11.2s18.667 0 18.667 18.384v7.353s-6.784-.925-17.81-12.618c0 0 5.355 12.53 17.81 16.296h-11.2s-18.667 0-18.667-18.385"/></g></svg>