<svg width="62" height="62" viewBox="0 0 62 62" xmlns="http://www.w3.org/2000/svg"><title>2lend</title><g fill-rule="evenodd"><circle cx="31" cy="31" r="29"/><path d="M31.94 12.694c-6.01 0-10.883 4.873-10.883 10.884 0 2.555.882 4.9 2.355 6.758h7.547v-.604c-1.19-.224-2.29-.81-3.238-1.687l1.515-1.584c.688.758 1.74 1.327 2.84 1.327 1.034 0 1.758-.637 1.758-1.515 0-1.55-2.238-1.74-3.857-2.686-.947-.55-1.704-1.377-1.704-2.738 0-1.67 1.205-2.807 2.686-3.22v-1.98h2.066v1.86c.93.103 1.825.43 2.72 1.083l-1.205 1.723c-.48-.448-1.29-.792-2.082-.792-.878 0-1.86.38-1.86 1.31 0 1.946 5.563 1.343 5.563 5.407 0 1.825-1.394 3.167-3.133 3.512v.586h1.832s2.625.022 3.84 1.77c2.513-1.993 4.127-5.07 4.127-8.528 0-6.01-4.874-10.884-10.886-10.884z" fill="currentColor"/><path d="M31.03.625C14.3.625.687 14.235.687 30.967.687 47.697 14.3 61.31 31.03 61.31c16.73 0 30.343-13.61 30.343-30.342C61.373 14.238 47.76.625 31.03.625zm0 57.686c-7.296 0-13.93-2.878-18.837-7.552 1.506-1.505 3.01-3.014 4.5-4.533.553-.562 1.106-.78 1.897-.77 3.357.046 6.715.02 10.073.02 3.488 0 6.98-.006 10.467.004 1.005.002 1.846-.287 2.555-1.046 1.012-1.082 2.086-2.104 3.133-3.15 2.305-2.305 4.608-4.61 6.913-6.913.78-.777 1.198-1.66.743-2.758-.687-1.653-2.636-2-3.976-.676-2.555 2.52-5.066 5.083-7.635 7.588-.33.322-.893.56-1.354.567-2.6.055-5.2.027-7.8.027-1.317 0-2.637.04-3.95-.037-.284-.017-.543-.463-.814-.712.264-.216.5-.5.8-.626.254-.105.585-.024.88-.025 2.14-.008 4.28.04 6.418-.042 1.45-.056 2.377-1.108 2.332-2.413-.046-1.312-1.04-2.246-2.504-2.25-6.09-.016-12.18-.028-18.27.027-.62.005-1.388.323-1.833.758-2.895 2.818-5.755 5.673-8.585 8.558-1.597-3.47-2.494-7.325-2.494-11.388 0-15.077 12.266-27.342 27.343-27.342 15.078 0 27.344 12.266 27.344 27.342 0 15.076-12.268 27.343-27.344 27.343z" fill="currentColor"/></g></svg>