<svg width="124" height="124" viewBox="0 0 124 124" xmlns="http://www.w3.org/2000/svg"><title>lifting</title><g fill-rule="evenodd"><path d="M62 6.3C31.32 6.3 6.36 31.08 6.36 61.5c0 30.45 24.96 55.2 55.64 55.2s55.64-24.75 55.64-55.2c0-30.43-24.96-55.2-55.64-55.2zm0 116.72c-34.2 0-62-27.6-62-61.5C0 27.6 27.8 0 62 0c34.18 0 62 27.58 62 61.5 0 33.9-27.82 61.5-62 61.5z"/><path d="M33.53 90.47c-.82-.82-2.14-.8-2.96 0-.82.82-.82 2.15 0 2.96.8.82 2.14.82 2.96 0 .8-.82.82-2.14 0-2.96M66.8 66.82c2.68-2.67 2.7-7 .03-9.65-2.66-2.66-6.98-2.65-9.65.02-2.67 2.65-2.67 6.97 0 9.63 2.65 2.66 6.97 2.66 9.63 0M53.9 53.9c2.38-2.38 2.38-6.24 0-8.62-2.37-2.37-6.23-2.37-8.6.02-2.4 2.38-2.4 6.24-.02 8.6 2.37 2.4 6.23 2.4 8.62 0M50.9 65c-.86-3.26-4.2-5.18-7.45-4.3-3.25.87-5.18 4.2-4.32 7.46.87 3.25 4.2 5.17 7.46 4.3 3.24-.88 5.18-4.22 4.3-7.47M59 73.1c-3.24-.88-6.58 1.06-7.46 4.3-.87 3.26 1.05 6.6 4.3 7.47 3.25.86 6.6-1.07 7.47-4.32.88-3.25-1.04-6.6-4.3-7.46M70.1 70.1c-2.38 2.4-2.4 6.25 0 8.62 2.36 2.38 6.22 2.37 8.6 0 2.4-2.4 2.4-6.25.02-8.63-2.38-2.38-6.24-2.38-8.62 0M73.08 59.02c.87 3.25 4.2 5.17 7.46 4.3 3.25-.88 5.2-4.22 4.32-7.47-.87-3.25-4.2-5.18-7.46-4.3-3.25.87-5.18 4.22-4.32 7.47M64.98 50.92c3.25.86 6.6-1.07 7.47-4.32.88-3.26-1.05-6.6-4.3-7.46-3.25-.87-6.6 1.07-7.47 4.32-.87 3.25 1.05 6.6 4.3 7.46M38.85 55.83c.68-2.5-.8-5.06-3.3-5.73-2.5-.66-5.07.82-5.74 3.32-.66 2.5.82 5.07 3.3 5.73 2.5.67 5.08-.82 5.75-3.32M68.17 85.15c-2.5.67-4 3.24-3.32 5.74.66 2.48 3.23 3.96 5.73 3.3 2.5-.68 3.98-3.25 3.32-5.75-.67-2.5-3.23-3.98-5.73-3.3M85.14 68.17c-.67 2.5.8 5.07 3.3 5.73 2.5.67 5.07-.82 5.74-3.32.68-2.5-.8-5.06-3.3-5.73-2.5-.66-5.07.82-5.74 3.32M78.97 45.03c1.83 1.82 4.8 1.82 6.62 0 1.82-1.84 1.83-4.8 0-6.63-1.82-1.83-4.8-1.82-6.62 0-1.83 1.84-1.83 4.8 0 6.63M55.83 38.86c2.5-.67 3.98-3.24 3.32-5.74-.67-2.5-3.23-3.98-5.73-3.3-2.5.67-4 3.24-3.32 5.74.66 2.5 3.23 3.97 5.73 3.3M45.02 78.98c-1.82-1.83-4.8-1.82-6.62 0-1.83 1.84-1.83 4.8 0 6.63 1.82 1.83 4.78 1.83 6.6 0 1.84-1.83 1.85-4.8.02-6.62M30.28 43.72c.84-1.44.33-3.28-1.13-4.12-1.45-.84-3.3-.35-4.14 1.1-.82 1.43-.32 3.27 1.14 4.1 1.45.85 3.3.36 4.14-1.08M25.34 62.05c0-1.66-1.36-3-3.04-3s-3.05 1.35-3.05 3c0 1.67 1.36 3.02 3.04 3.02 1.67 0 3.04-1.35 3.04-3.02M30.22 80.37c-.83-1.43-2.68-1.92-4.14-1.07-1.46.84-1.97 2.7-1.14 4.13.83 1.43 2.68 1.92 4.14 1.07 1.46-.84 1.97-2.7 1.14-4.13M43.6 93.77c-1.42-.83-3.27-.32-4.12 1.14-.84 1.47-.36 3.32 1.08 4.15 1.44.83 3.3.32 4.13-1.14.83-1.45.35-3.3-1.1-4.13M61.93 98.66c-1.66 0-3 1.37-3 3.05-.02 1.7 1.33 3.05 3 3.05 1.65 0 3-1.37 3-3.05 0-1.68-1.34-3.04-3-3.04M80.26 93.73c-1.44.83-1.93 2.68-1.1 4.14.85 1.46 2.7 1.96 4.14 1.13 1.44-.84 1.93-2.7 1.1-4.15-.85-1.45-2.7-1.96-4.14-1.12M93.7 80.3c-.83 1.44-.33 3.28 1.13 4.12 1.45.84 3.3.35 4.14-1.1.83-1.43.33-3.27-1.13-4.1-1.45-.85-3.3-.36-4.14 1.08M98.64 61.96c0 1.67 1.36 3 3.04 3s3.05-1.34 3.05-3-1.36-3-3.04-3c-1.7 0-3.06 1.34-3.06 3M93.76 43.65c.83 1.43 2.68 1.92 4.14 1.07 1.46-.84 1.97-2.7 1.14-4.13-.83-1.45-2.68-1.93-4.14-1.08-1.46.84-1.97 2.7-1.14 4.13M80.37 30.25c1.44.83 3.3.32 4.13-1.14.84-1.45.36-3.3-1.08-4.13-1.43-.83-3.28-.32-4.13 1.14-.85 1.46-.37 3.32 1.07 4.15M62.05 25.36c1.66 0 3-1.37 3.02-3.05 0-1.67-1.35-3.03-3-3.03-1.67 0-3.02 1.37-3.02 3.05 0 1.68 1.34 3.04 3 3.04M43.72 30.3c1.44-.84 1.93-2.7 1.1-4.15-.85-1.46-2.7-1.96-4.14-1.13-1.44.83-1.93 2.7-1.1 4.14.85 1.46 2.7 1.97 4.14 1.13M33.6 33.62c.83-.82.83-2.14.02-2.96-.82-.82-2.14-.8-2.96 0-.82.82-.82 2.15 0 2.96.8.82 2.13.82 2.95 0M23.18 51.66c.3-1.12-.36-2.27-1.47-2.57-1.1-.3-2.26.36-2.56 1.48-.3 1.1.36 2.26 1.48 2.56 1.1.3 2.26-.37 2.56-1.48M23.15 72.46c-.3-1.1-1.44-1.77-2.56-1.47-1.13.3-1.8 1.44-1.5 2.55.3 1.12 1.45 1.78 2.57 1.48 1.1-.3 1.78-1.45 1.48-2.57M51.54 100.85c-1.12-.3-2.27.37-2.57 1.48-.3 1.12.36 2.27 1.48 2.56 1.1.3 2.26-.37 2.56-1.5.3-1.1-.35-2.25-1.46-2.55M72.35 100.82c-1.12.3-1.8 1.45-1.5 2.56.3 1.12 1.46 1.78 2.57 1.48 1.12-.3 1.78-1.45 1.5-2.57-.3-1.12-1.46-1.78-2.57-1.48M90.38 90.4c-.82.8-.82 2.13 0 2.95.8.8 2.14.8 2.96 0 .8-.83.82-2.15 0-2.97-.82-.8-2.14-.8-2.96 0M100.8 72.35c-.3 1.12.37 2.26 1.5 2.56 1.1.3 2.25-.36 2.55-1.47.3-1.12-.36-2.26-1.47-2.56-1.12-.3-2.27.36-2.57 1.48M100.84 51.54c.3 1.12 1.45 1.78 2.56 1.48 1.12-.3 1.78-1.45 1.5-2.57-.3-1.1-1.46-1.77-2.57-1.47-1.12.3-1.8 1.45-1.5 2.56M90.46 33.54c.82.8 2.15.8 2.96 0 .82-.83.82-2.15 0-2.97-.8-.8-2.13-.8-2.95 0-.82.82-.82 2.15 0 2.97M72.46 23.16c1.1.3 2.26-.37 2.56-1.5.3-1.1-.36-2.25-1.47-2.55-1.12-.28-2.27.38-2.57 1.5-.3 1.1.36 2.26 1.48 2.56M51.65 23.2c1.12-.3 1.78-1.46 1.48-2.58-.3-1.1-1.44-1.77-2.56-1.47-1.1.3-1.78 1.45-1.48 2.56.3 1.13 1.43 1.8 2.55 1.5M42.18 42.2c1.46-1.47 1.46-3.83 0-5.3-1.44-1.44-3.8-1.44-5.26.02s-1.47 3.82 0 5.28c1.44 1.45 3.8 1.45 5.26 0M34.93 69.26c-.53-2-2.58-3.18-4.56-2.65-2 .54-3.17 2.6-2.63 4.58.53 2 2.57 3.18 4.56 2.65 2-.54 3.16-2.58 2.63-4.57M54.74 89.07c-2-.53-4.03.64-4.57 2.63-.53 2 .65 4.03 2.65 4.56 2 .54 4.04-.64 4.57-2.63.52-1.98-.66-4.03-2.66-4.56M81.8 81.82c-1.45 1.46-1.45 3.82 0 5.27 1.46 1.45 3.82 1.44 5.28-.02 1.46-1.45 1.46-3.82 0-5.27-1.45-1.44-3.8-1.44-5.27.02M89.06 54.75c.54 2 2.58 3.18 4.57 2.64 1.98-.54 3.16-2.6 2.63-4.58-.54-2-2.58-3.17-4.57-2.64-2 .53-3.17 2.58-2.64 4.57M69.25 34.94c2 .53 4.04-.65 4.57-2.63.53-1.98-.65-4.02-2.64-4.56-2-.53-4.04.65-4.57 2.63-.53 2 .66 4.03 2.65 4.57" fill="currentColor"/></g></svg>