<svg width="124" height="124" viewBox="0 0 124 124" xmlns="http://www.w3.org/2000/svg"><title>lifting</title><g fill-rule="evenodd"><path d="M61.997 6.314c-30.68 0-55.638 24.76-55.638 55.197 0 30.436 24.958 55.197 55.637 55.197 30.68 0 55.638-24.76 55.638-55.196 0-30.435-24.96-55.196-55.638-55.196zm0 116.702C27.812 123.016 0 95.426 0 61.51 0 27.598 27.812.007 61.997.007s61.997 27.59 61.997 61.505c0 33.915-27.812 61.506-61.997 61.506z"/><path d="M33.53 90.47c-.816-.815-2.14-.814-2.96.005-.818.82-.82 2.143-.004 2.96.816.815 2.14.813 2.96-.005.818-.818.82-2.143.004-2.96M66.814 66.82c2.667-2.668 2.674-6.988.014-9.648-2.66-2.66-6.98-2.653-9.647.015-2.667 2.667-2.673 6.986-.013 9.647 2.66 2.66 6.98 2.654 9.647-.015M53.895 53.902c2.384-2.383 2.39-6.242.013-8.618-2.376-2.376-6.234-2.37-8.617.013-2.383 2.383-2.39 6.24-.012 8.617 2.376 2.377 6.234 2.37 8.617-.012M50.91 64.99c-.867-3.25-4.205-5.174-7.457-4.3-3.252.877-5.186 4.22-4.32 7.47.866 3.25 4.205 5.174 7.457 4.3 3.252-.877 5.185-4.22 4.32-7.47M59.01 73.09c-3.248-.865-6.592 1.068-7.468 4.32-.876 3.252 1.05 6.59 4.298 7.458 3.25.866 6.594-1.07 7.47-4.32.875-3.253-1.05-6.59-4.3-7.457M70.1 70.105c-2.385 2.383-2.39 6.24-.014 8.617 2.376 2.377 6.234 2.37 8.618-.012 2.383-2.383 2.39-6.242.012-8.618-2.376-2.377-6.234-2.37-8.617.013M73.085 59.018c.865 3.248 4.204 5.173 7.456 4.298 3.253-.876 5.187-4.22 4.32-7.47-.866-3.25-4.204-5.173-7.455-4.298-3.253.876-5.187 4.22-4.32 7.47M64.983 50.916c3.25.866 6.594-1.068 7.47-4.32.875-3.252-1.05-6.59-4.3-7.457-3.248-.867-6.592 1.067-7.468 4.32-.876 3.25 1.05 6.59 4.298 7.456M38.853 55.833c.672-2.5-.806-5.064-3.303-5.73-2.497-.666-5.066.82-5.74 3.32-.673 2.498.806 5.064 3.303 5.73 2.497.665 5.067-.82 5.74-3.32M68.168 85.148c-2.5.672-3.986 3.242-3.32 5.74.665 2.497 3.23 3.975 5.73 3.302 2.5-.673 3.985-3.243 3.32-5.74-.667-2.497-3.23-3.975-5.73-3.302M85.142 68.173c-.673 2.5.805 5.065 3.302 5.73 2.497.666 5.067-.82 5.74-3.32.673-2.497-.806-5.063-3.303-5.73-2.497-.665-5.066.822-5.738 3.32M78.97 45.03c1.827 1.825 4.792 1.82 6.624-.01 1.83-1.832 1.834-4.796.01-6.623-1.827-1.825-4.792-1.82-6.624.01-1.83 1.83-1.834 4.797-.01 6.622M55.827 38.86c2.5-.674 3.986-3.243 3.32-5.74-.667-2.498-3.23-3.976-5.73-3.303-2.5.673-3.986 3.243-3.32 5.74.666 2.496 3.23 3.975 5.73 3.302M45.023 78.977c-1.826-1.825-4.79-1.822-6.622.01-1.83 1.83-1.835 4.796-.01 6.622 1.827 1.825 4.792 1.82 6.623-.01 1.832-1.83 1.835-4.797.01-6.623M30.283 43.724c.832-1.44.327-3.287-1.128-4.127-1.456-.84-3.31-.352-4.143 1.088-.833 1.44-.328 3.288 1.127 4.127 1.455.838 3.31.35 4.143-1.088M25.34 62.054c.004-1.66-1.358-3.005-3.04-3.003-1.682.003-3.048 1.353-3.05 3.013-.003 1.66 1.36 3.006 3.04 3.003 1.683-.002 3.05-1.35 3.05-3.012M30.22 80.373c-.828-1.437-2.682-1.92-4.14-1.076-1.458.844-1.968 2.692-1.14 4.13.828 1.437 2.682 1.92 4.14 1.076 1.458-.844 1.97-2.692 1.14-4.13M43.612 93.77c-1.437-.827-3.286-.317-4.13 1.142-.842 1.458-.36 3.31 1.077 4.14 1.436.828 3.285.318 4.128-1.14.844-1.458.362-3.312-1.076-4.14M61.93 98.66c-1.662.002-3.01 1.367-3.013 3.05-.003 1.68 1.342 3.044 3.003 3.04 1.66 0 3.01-1.368 3.012-3.05.003-1.682-1.342-3.043-3.003-3.04M80.262 93.727c-1.44.832-1.927 2.687-1.088 4.143.838 1.455 2.686 1.96 4.126 1.128 1.44-.833 1.927-2.688 1.088-4.144-.84-1.455-2.687-1.96-4.126-1.127M93.7 80.295c-.834 1.44-.328 3.287 1.128 4.127 1.455.838 3.31.35 4.142-1.088.833-1.44.328-3.288-1.128-4.127-1.455-.838-3.31-.35-4.143 1.088M98.64 61.964c-.002 1.66 1.36 3.006 3.042 3.004 1.682-.003 3.048-1.352 3.05-3.013.003-1.66-1.36-3.005-3.04-3.003-1.684.003-3.048 1.35-3.052 3.012M93.76 43.646c.83 1.437 2.684 1.92 4.142 1.075 1.458-.842 1.968-2.69 1.14-4.127-.828-1.438-2.683-1.92-4.14-1.077-1.46.844-1.97 2.693-1.14 4.13M80.37 30.248c1.436.828 3.286.318 4.13-1.14.842-1.46.36-3.312-1.077-4.14-1.437-.83-3.287-.32-4.13 1.14-.843 1.457-.36 3.31 1.077 4.14M62.053 25.36c1.66-.003 3.01-1.368 3.012-3.05.003-1.683-1.342-3.045-3.003-3.042-1.66.002-3.01 1.368-3.013 3.05-.003 1.682 1.342 3.044 3.003 3.042M43.72 30.292c1.44-.832 1.927-2.688 1.088-4.143-.84-1.457-2.687-1.962-4.126-1.13-1.44.834-1.927 2.69-1.088 4.144.84 1.456 2.686 1.96 4.126 1.128M33.612 33.62c.82-.82.82-2.144.005-2.96-.816-.817-2.14-.815-2.96.004-.818.818-.82 2.143-.004 2.96.817.815 2.142.814 2.96-.005M23.182 51.656c.3-1.117-.36-2.264-1.476-2.562-1.116-.297-2.265.367-2.565 1.484-.3 1.117.36 2.263 1.476 2.56 1.116.298 2.265-.366 2.566-1.482M23.15 72.464c-.296-1.116-1.443-1.776-2.56-1.476-1.116.302-1.78 1.45-1.483 2.566.298 1.115 1.444 1.776 2.56 1.476 1.118-.3 1.782-1.45 1.484-2.566M51.536 100.85c-1.116-.3-2.265.366-2.566 1.482-.3 1.117.36 2.264 1.476 2.56 1.116.298 2.265-.366 2.566-1.482.3-1.117-.36-2.264-1.476-2.56M72.345 100.818c-1.117.302-1.78 1.45-1.483 2.566.297 1.115 1.444 1.776 2.56 1.475 1.117-.3 1.782-1.45 1.484-2.566-.297-1.115-1.445-1.776-2.56-1.476M90.382 90.388c-.818.818-.82 2.143-.005 2.96.816.815 2.14.813 2.96-.005.818-.82.82-2.144.004-2.96-.816-.816-2.14-.814-2.958.005M100.812 72.352c-.3 1.116.36 2.262 1.477 2.56 1.114.297 2.263-.367 2.563-1.484.3-1.116-.36-2.263-1.475-2.56-1.117-.298-2.265.367-2.566 1.484M100.843 51.542c.297 1.116 1.444 1.777 2.56 1.476 1.118-.3 1.78-1.45 1.483-2.565-.296-1.116-1.443-1.777-2.56-1.476-1.117.3-1.78 1.45-1.483 2.565M90.465 33.536c.816.816 2.14.814 2.96-.004.817-.82.82-2.143.003-2.96-.816-.816-2.14-.814-2.96.004-.818.82-.82 2.144-.003 2.96M72.46 23.157c1.114.298 2.263-.366 2.563-1.483.3-1.117-.36-2.263-1.475-2.56-1.117-.298-2.265.366-2.566 1.483-.3 1.116.36 2.263 1.477 2.56M51.65 23.188c1.116-.3 1.78-1.45 1.483-2.565-.298-1.116-1.444-1.776-2.56-1.475-1.117.3-1.782 1.448-1.485 2.564.298 1.116 1.444 1.777 2.56 1.476M42.182 42.19c1.46-1.46 1.463-3.82.01-5.276-1.456-1.454-3.817-1.45-5.276.008-1.458 1.46-1.462 3.82-.007 5.274 1.453 1.455 3.814 1.45 5.272-.007M34.93 69.256c-.534-1.992-2.577-3.177-4.564-2.644-1.987.532-3.164 2.58-2.63 4.572.533 1.992 2.577 3.176 4.564 2.644 1.987-.533 3.165-2.58 2.63-4.572M54.744 89.07c-1.992-.533-4.04.644-4.57 2.63-.533 1.987.65 4.03 2.643 4.564 1.992.534 4.04-.643 4.57-2.63.534-1.987-.65-4.03-2.643-4.563M81.81 81.818c-1.457 1.458-1.46 3.82-.006 5.274 1.454 1.454 3.815 1.45 5.275-.008 1.456-1.46 1.46-3.82.006-5.274-1.455-1.455-3.816-1.45-5.275.008M89.064 54.75c.534 1.993 2.577 3.177 4.564 2.644 1.986-.532 3.164-2.58 2.63-4.57-.533-1.994-2.577-3.177-4.563-2.645-1.988.532-3.165 2.58-2.63 4.57M69.25 34.936c1.99.534 4.04-.643 4.57-2.63.534-1.987-.65-4.03-2.643-4.564-1.992-.534-4.04.644-4.57 2.63-.533 1.987.65 4.03 2.642 4.564" fill="currentColor"/></g></svg>