<svg width="46" height="46" viewBox="0 0 46 46" xmlns="http://www.w3.org/2000/svg"><title>LinkedIn</title><g transform="translate(0 1)" fill-rule="evenodd"><circle stroke="currentColor" cx="22.971" cy="22.329" r="22"/><path d="M34.234 30.273V14.385c0-2.24-1.705-4.056-3.807-4.056h-14.91c-2.104 0-3.808 1.815-3.808 4.055v15.888c0 2.24 1.703 4.056 3.806 4.056h14.91c2.103 0 3.808-1.817 3.808-4.057zM14.952 19.537h3.437v11.06H14.95v-11.06zm3.71-3.506c0 1.1-.892 1.995-1.99 1.995-1.102 0-1.995-.894-1.995-1.994 0-1.098.893-1.99 1.994-1.99 1.1 0 1.993.892 1.993 1.99zM31.266 30.6H27.83v-5.38c0-1.282-.024-2.932-1.787-2.932-1.788 0-2.063 1.397-2.063 2.84v5.472h-3.435v-11.06h3.298v1.51h.046c.458-.87 1.58-1.786 3.25-1.786 3.482 0 4.125 2.29 4.125 5.27v6.066z" fill="currentColor"/></g></svg>