<svg width="46" height="46" viewBox="0 0 46 46" xmlns="http://www.w3.org/2000/svg"><title>LinkedIn</title><g transform="translate(0 1)" fill-rule="evenodd"><circle stroke="currentColor" cx="22.97" cy="22.33" r="22"/><path d="M34.23 30.27v-15.9c0-2.22-1.7-4.04-3.8-4.04h-14.9c-2.12 0-3.82 1.82-3.82 4.05v15.9c0 2.23 1.7 4.05 3.82 4.05h14.9c2.1 0 3.8-1.82 3.8-4.06zM14.95 19.54h3.44V30.6h-3.45V19.54zm3.7-3.5c0 1.1-.88 1.98-1.98 1.98s-2-.9-2-2 .9-1.98 2-1.98 2 .9 2 2zM31.28 30.6h-3.44v-5.38c0-1.28-.02-2.93-1.8-2.93S24 23.67 24 25.12v5.47h-3.43V19.54h3.3v1.5h.04c.45-.86 1.57-1.78 3.24-1.78 3.48 0 4.13 2.3 4.13 5.27v6.07z" fill="currentColor"/></g></svg>