<svg width="22" height="22" viewBox="0 0 22 22" xmlns="http://www.w3.org/2000/svg"><title>Magnify Glass</title><desc>Magnifying glass icon.</desc><path d="M8 16.3c1.45 1 3.16 1.5 4.95 1.5 2.38 0 4.62-.92 6.3-2.6 1.7-1.7 2.62-3.93 2.62-6.3 0-2.4-.93-4.63-2.6-6.3-1.7-1.7-3.94-2.62-6.32-2.62-2.38 0-4.62.93-6.3 2.6-1.7 1.7-2.6 3.93-2.6 6.3 0 1.82.52 3.55 1.52 5l-5.4 5.4c-.24.26-.2.73.13 1.05l1.26 1.26c.33.3.8.36 1.04.1L8 16.3zM6.45 8.9c0-3.6 2.92-6.5 6.5-6.5 3.6 0 6.5 2.9 6.5 6.5 0 3.58-2.9 6.5-6.5 6.5-3.58 0-6.5-2.92-6.5-6.5z" fill-rule="evenodd"/></svg>