<svg width="22" height="22" viewBox="0 0 22 22" xmlns="http://www.w3.org/2000/svg"><title>Magnify Glass</title><desc>Magnifying glass icon.</desc><path d="M8 16.31c1.454.975 3.163 1.5 4.953 1.5 2.382 0 4.62-.928 6.305-2.612 1.683-1.684 2.61-3.923 2.61-6.305 0-2.38-.927-4.62-2.61-6.304C17.574.904 15.335-.023 12.953-.023c-2.38 0-4.62.927-6.304 2.61-1.685 1.685-2.613 3.924-2.613 6.306 0 1.81.537 3.537 1.533 5L.18 19.288c-.252.253-.197.72.124 1.04l1.26 1.26c.32.32.787.376 1.04.123L8 16.31zM6.454 8.893c0-3.584 2.916-6.5 6.5-6.5s6.5 2.916 6.5 6.5c0 3.585-2.916 6.5-6.5 6.5s-6.5-2.915-6.5-6.5z" fill-rule="evenodd"/></svg>