<!DOCTYPE svg PUBLIC "-//W3C//DTD SVG 1.1//EN" "http://www.w3.org/Graphics/SVG/1.1/DTD/svg11.dtd" [
	<!ENTITY ns_flows "http://ns.adobe.com/Flows/1.0/">
]><svg xmlns="http://www.w3.org/2000/svg" width="27" height="25" viewBox="0 0 27 25" overflow="visible"><path fill="#333" d="M24.86 9.4c1.02-2.76 1.1-4.98.22-6.64C23.64.03 20.3 0 20.16 0s-3.48.03-4.93 2.76c-.7 1.36-.78 3.1-.23 5.2L8.65 9.64 0 7.06v15.02l8.6 2.57 8.67-2.28 9.45 2.55v-15l-1.86-.5zM7.63 22.28L2 20.6V9.73l5.63 1.68v10.85zM17 3.7c.86-1.66 3.14-1.7 3.16-1.7.02 0 2.3.05 3.15 1.7.63 1.15.97 4.02-3.14 10.44C16.06 7.74 16.4 4.87 17 3.7zM9.63 22.32V11.45l6-1.6c.2.48.4.97.64 1.46v9.27l-6.64 1.75zm15.1 0l-6.46-1.75V14.9l1.06 1.6.83 1.22.83-1.2c1.28-1.9 2.3-3.65 3.07-5.25l.65.17V22.3z"/><circle fill="#333" cx="20.16" cy="5.68" r="2"/></svg>