<svg width="26" height="26" viewBox="0 0 26 26" xmlns="http://www.w3.org/2000/svg"><title>Slice 1 Copy 2</title><g fill-rule="evenodd"><path d="M13.04 1.7l2.94 2.7 4.06-.55.7 3.82 3.63 1.82-1.8 3.48 1.8 3.5-3.62 1.8-.7 3.83-4.07-.53-2.94 2.7-2.95-2.7-4.07.54-.7-3.8-3.63-1.83 1.8-3.5L1.7 9.5l3.62-1.83.7-3.82 4.07.54 2.94-2.7"/><path d="M13.04 1.7l2.94 2.7 4.06-.55.7 3.82 3.63 1.82-1.8 3.48 1.8 3.5-3.62 1.8-.7 3.83-4.07-.53-2.94 2.7-2.95-2.7-4.07.54-.7-3.8-3.63-1.83 1.8-3.5L1.7 9.5l3.62-1.83.7-3.82 4.07.54 2.94-2.7z" stroke="currentColor" stroke-width=".97"/><path d="M13.04 3.38l2.5 2.3L19 5.2l.6 3.27L22.66 10 21.14 13l1.53 2.96-3.08 1.55-.6 3.24-3.46-.46-2.5 2.3-2.5-2.3-3.46.46-.6-3.25-3.08-1.56 1.53-2.96L3.4 10l3.08-1.53.6-3.26 3.45.48 2.5-2.3" fill="currentColor"/><text font-family="PostGrotesk" font-size="14.9" font-weight="420"><tspan x="10.57" y="17.97">2</tspan></text><text font-family="PostGrotesk" font-size="8.65" font-weight="420"><tspan x="6.01" y="15">x</tspan></text></g></svg>