<svg width="26" height="26" viewBox="0 0 26 26" xmlns="http://www.w3.org/2000/svg"><title>Slice 1 Copy 2</title><g fill-rule="evenodd"><path d="M13.035 1.69l2.946 2.7 4.06-.545.707 3.825 3.62 1.82-1.8 3.488 1.8 3.488-3.62 1.82-.708 3.826-4.06-.544-2.945 2.7-2.946-2.7-4.06.544-.708-3.825-3.62-1.82 1.8-3.49-1.8-3.487 3.62-1.82.71-3.825 4.057.545 2.945-2.7"/><path d="M13.035 1.69l2.946 2.7 4.06-.545.707 3.825 3.62 1.82-1.8 3.488 1.8 3.488-3.62 1.82-.708 3.826-4.06-.544-2.945 2.7-2.946-2.7-4.06.544-.708-3.825-3.62-1.82 1.8-3.49-1.8-3.487 3.62-1.82.71-3.825 4.057.545 2.945-2.7z" stroke="currentColor" stroke-width=".967"/><path d="M13.035 3.38l2.504 2.296 3.45-.462.602 3.25 3.078 1.55-1.53 2.964 1.53 2.967-3.078 1.547-.602 3.25-3.45-.46-2.505 2.295-2.506-2.296-3.45.463-.603-3.25L3.4 15.944l1.53-2.967-1.53-2.965 3.077-1.548.603-3.25 3.45.46 2.505-2.294" fill="currentColor"/><text font-family="PostGrotesk" font-size="14.897" font-weight="420"><tspan x="10.575" y="17.966">2</tspan></text><text font-family="PostGrotesk" font-size="8.647" font-weight="420"><tspan x="6.009" y="15">x</tspan></text></g></svg>