<svg width="15" height="16" viewBox="0 0 15 16" xmlns="http://www.w3.org/2000/svg"><title>outlined</title><path d="M10.9 0h.1c.25 0 .45.18.5.4V2H14c.55 0 1 .45 1 1v12c0 .55-.45 1-1 1H1c-.55 0-1-.45-1-1V3c0-.55.45-1 1-1h2.5V.5c0-.25.18-.45.4-.5H4c.25 0 .45.18.5.4V2h6V.5c0-.25.18-.45.4-.5h.1zM4 6H1v9h13V6H4zm-.5-3H1v2h2.5V3zm7 0h-6v2h6V3zM14 3h-2.5v2H14V3z"/><path d="M4.36 9.66c-.2-.2-.5-.2-.7 0-.2.18-.2.5-.02.7l2.66 2.72c.2.2.53.2.72 0l4.35-4.74c.2-.2.17-.52-.03-.7-.2-.2-.52-.18-.7.02l-4 4.35-2.28-2.34z"/></svg>