<!DOCTYPE svg PUBLIC "-//W3C//DTD SVG 1.1//EN" "http://www.w3.org/Graphics/SVG/1.1/DTD/svg11.dtd" [
	<!ENTITY ns_flows "http://ns.adobe.com/Flows/1.0/">
]><svg xmlns="http://www.w3.org/2000/svg" width="166" height="71" viewBox="-10.522 -4.245 166 71" overflow="visible"><path d="M146.62 58.74h-11.28v-5.6c-1.94 3.5-5.84 6.74-12.33 6.74-9.24 0-16.54-7.8-16.54-20.45 0-12.58 7.54-20.45 17.12-20.45 5.27 0 9.8 2.36 11.76 6.4v-5.26h11.28v38.62zm-11.6-20.3c0-7.04-4.22-10.45-8.36-10.45-5.03 0-8.27 4.94-8.27 11.43-.02 6.57 3.07 11.44 7.86 11.44 4.38 0 8.76-3.33 8.76-10.47v-1.95zM12.76 38.65S34.12 34.92 40 59.35c0 0-28.8-2.72-27.24-20.7"/><path d="M12.76 37.36S34.12 41.1 40 16.66c0 0-28.8 2.73-27.24 20.7M0 1.94h11.66v56.8H0zM47.6 20.25h11.14V58.7H47.6zM76.9 20.04H64.3l13.54 39h13.22l13.5-39H93.02L85 47.64M60.4 7.22c0 4-3.24 7.23-7.23 7.23-4 0-7.23-3.23-7.23-7.22 0-4 3.24-7.23 7.23-7.23 4 0 7.22 3.23 7.22 7.22"/></svg>