<!DOCTYPE svg PUBLIC "-//W3C//DTD SVG 1.1//EN" "http://www.w3.org/Graphics/SVG/1.1/DTD/svg11.dtd" [
		<!ENTITY ns_flows "http://ns.adobe.com/Flows/1.0/">
		]><svg xmlns="http://www.w3.org/2000/svg" width="57" height="23" viewBox="0 0 57 23" overflow="visible"><path d="M4.7.4H0v22.13h4.7V.4zm12.9 22.13h4.7V7h-4.7v15.53zm12.15 0h5.42L40.57 7h-4.65s-2.55 8.46-3.3 11.13h-.06C31.8 15.46 29.23 7 29.23 7h-4.95l5.47 15.53zm-23.53-8.3c7.37 0 9.1-6.17 9.1-7.22h-.65c-7.37 0-9.1 6.17-9.1 7.22h.65zm-.64.96c0 1.1 1.27 7.4 9.22 7.4h.64c0-1.13-1.28-7.4-9.22-7.4h-.64zM22.75 2.73c0-1.47-1.08-2.74-2.8-2.74-1.74 0-2.8 1.27-2.8 2.74 0 1.47 1.06 2.74 2.8 2.74 1.72 0 2.8-1.27 2.8-2.74M57 7h-4.53v2.13c-.78-1.63-2.6-2.54-4.73-2.54-3.85 0-6.88 3.12-6.88 8.17 0 5.1 2.93 8.2 6.65 8.2 2.62 0 4.18-1.3 4.97-2.7v2.26H57V7zm-4.66 8.16c0 2.87-1.76 4.2-3.52 4.2-1.93 0-3.17-1.95-3.17-4.6 0-2.6 1.3-4.6 3.33-4.6 1.66 0 3.36 1.38 3.36 4.22v.78z"/></svg>