<svg width="201" height="200" viewBox="0 0 201 200" xmlns="http://www.w3.org/2000/svg"><title>1m_paypal</title><g fill="none" fill-rule="evenodd"><path fill="#FFF" d="M1 0h200v200H1z"/><path d="M37.2 88.37c.6-3.8 0-6.36-2.06-8.7C32.88 77.1 28.8 76 23.6 76H8.45c-1.07 0-1.98.78-2.14 1.83L.02 117.8c-.13.78.48 1.5 1.28 1.5h9.34l-.64 4.1c-.1.68.42 1.3 1.12 1.3H19c.93 0 1.72-.68 1.87-1.6l.08-.4 1.48-9.4.1-.53c.14-.92.93-1.6 1.87-1.6h1.18c7.63 0 13.6-3.1 15.35-12.06.73-3.74.35-6.86-1.58-9.06-.58-.67-1.3-1.22-2.16-1.67" fill="#159BD7"/><path d="M37.2 88.37c.6-3.8 0-6.36-2.06-8.7C32.88 77.1 28.8 76 23.6 76H8.45c-1.07 0-1.98.78-2.14 1.83L.02 117.8c-.13.78.48 1.5 1.28 1.5h9.34L13 104.4l-.08.48c.16-1.05 1.06-1.83 2.13-1.83h4.44c8.7 0 15.54-3.54 17.54-13.8l.15-.88" fill="#232C65"/><path d="M15.5 88.42c.1-.63.52-1.15 1.07-1.4.25-.13.52-.2.8-.2h11.88c1.4 0 2.7.1 3.9.3.36.04.7.1 1 .18.34.07.65.15.95.24l.45.14c.6.2 1.14.43 1.64.7.6-3.8 0-6.37-2.06-8.7C32.88 77.1 28.8 76 23.6 76H8.45c-1.07 0-1.98.78-2.14 1.83L.02 117.8c-.13.78.48 1.5 1.28 1.5h9.34l4.87-30.88" fill="#263B80"/><g><path d="M153.98 86.8h-11c-.76 0-1.4.55-1.52 1.3L137 116.32c-.08.56.35 1.06.92 1.06h5.64c.53 0 .98-.38 1.06-.9l1.26-8c.12-.74.76-1.3 1.5-1.3h3.5c7.25 0 11.43-3.5 12.53-10.46.5-3.04.02-5.43-1.4-7.1-1.56-1.84-4.34-2.8-8.02-2.8zm1.27 10.32c-.6 3.95-3.62 3.95-6.54 3.95h-1.65l1.16-7.38c.08-.46.47-.78.92-.78h.76c2 0 3.87 0 4.83 1.13.6.68.77 1.68.55 3.07z" fill="#159BD7"/><path d="M75.47 86.8h-11c-.76 0-1.4.55-1.52 1.3l-4.45 28.22c-.1.56.34 1.06.9 1.06h5.26c.76 0 1.4-.54 1.5-1.3l1.2-7.6c.13-.75.77-1.3 1.53-1.3h3.47c7.25 0 11.43-3.5 12.53-10.46.5-3.04.02-5.43-1.4-7.1-1.57-1.84-4.35-2.8-8.03-2.8zm1.27 10.32c-.6 3.95-3.62 3.95-6.54 3.95h-1.66l1.17-7.38c.08-.46.46-.78.9-.78h.77c2 0 3.87 0 4.83 1.13.58.68.76 1.68.54 3.07zM108.37 97h-5.27c-.45 0-.84.32-.9.76l-.24 1.48-.37-.54c-1.15-1.65-3.7-2.2-6.23-2.2-5.83 0-10.8 4.4-11.77 10.6-.5 3.08.2 6.03 1.96 8.1 1.6 1.9 3.9 2.67 6.64 2.67 4.7 0 7.3-3 7.3-3l-.24 1.45c-.08.56.35 1.06.9 1.06h4.76c.75 0 1.4-.54 1.5-1.3l2.86-18.03c.08-.56-.35-1.06-.9-1.06zm-7.35 10.25c-.5 3-2.9 5.03-5.95 5.03-1.52 0-2.75-.5-3.54-1.42-.77-.92-1.07-2.24-.82-3.7.48-3 2.9-5.07 5.92-5.07 1.5 0 2.7.48 3.5 1.42.82.95 1.13 2.27.9 3.73z" fill="#263B80"/><path d="M186.88 97h-5.27c-.44 0-.83.32-.9.76l-.23 1.48-.37-.54c-1.14-1.65-3.68-2.2-6.22-2.2-5.83 0-10.8 4.4-11.77 10.6-.5 3.08.22 6.03 1.97 8.1 1.6 1.9 3.9 2.67 6.64 2.67 4.7 0 7.3-3 7.3-3l-.23 1.45c-.1.56.34 1.06.9 1.06h4.76c.75 0 1.4-.54 1.5-1.3l2.86-18.03c.07-.56-.36-1.06-.92-1.06zm-7.35 10.25c-.5 3-2.9 5.03-5.95 5.03-1.53 0-2.75-.5-3.54-1.42-.77-.92-1.07-2.24-.82-3.7.47-3 2.9-5.07 5.9-5.07 1.5 0 2.72.48 3.52 1.42.8.95 1.13 2.27.9 3.73z" fill="#159BD7"/><path d="M136.44 97h-5.3c-.5 0-.98.24-1.26.66l-7.3 10.76-3.1-10.34c-.2-.65-.8-1.1-1.47-1.1h-5.2c-.63 0-1.07.63-.87 1.22l5.83 17.13-5.48 7.74c-.43.6 0 1.45.75 1.45h5.3c.5 0 .96-.25 1.25-.66l17.6-25.43c.44-.6 0-1.44-.74-1.44" fill="#263B80"/><path d="M193.1 87.58l-4.53 28.74c-.08.56.35 1.06.9 1.06h4.55c.76 0 1.4-.54 1.5-1.3L200 87.9c.08-.57-.35-1.07-.92-1.07H194c-.45 0-.84.34-.9.78" fill="#159BD7"/></g></g></svg>