<svg width="68" height="90" viewBox="0 0 68 90" xmlns="http://www.w3.org/2000/svg"><title>Slice 1</title><path d="M43 28c-1.66 0-3-1.34-3-3V0H3.67C1.64 0 0 1.64 0 3.67v82.66C0 88.36 1.65 90 3.68 90h60.64c2.03 0 3.68-1.65 3.68-3.68V28H43zm6.9 35.4c-.53.28-1.35.55-2.44.55-2.17 0-5.44-.55-8.16-1.92-4.62.55-8.16 1.1-10.88 2.2-.27 0-.27 0-.54.27-3.26 5.76-5.98 8.5-8.16 8.5-.54 0-.82 0-1.1-.27l-1.35-.83v-.27c-.27-.55-.27-.82-.27-1.37.27-1.37 1.9-3.84 5.17-5.76.54-.27 1.36-.82 2.45-1.37.8-1.37 1.63-3.02 2.72-4.94 1.36-2.75 2.17-5.5 3-7.96-1.1-3.3-1.64-5.2-.56-9.05.28-1.1 1.1-2.2 2.18-2.2h.54c.55 0 1.1.27 1.64.55 1.9 1.92 1.08 6.3 0 9.87v.27c1.08 3 2.72 5.48 4.35 7.12.8.55 1.35 1.1 2.44 1.65 1.36 0 2.44-.28 3.53-.28 3.27 0 5.44.54 6.26 1.9.27.56.27 1.1.27 1.66-.27.27-.54 1.1-1.1 1.64zM32.24 52.7c-.54 1.93-1.63 4.12-2.72 6.6-.53 1.1-1.08 1.9-1.62 3h.54c3.54-1.36 6.8-2.2 8.98-2.46-.54-.28-.82-.55-1.1-.82-1.35-1.65-2.98-3.84-4.07-6.3zm16.6 8.5c-.28-.26-1.37-1.1-5.17-1.1h-.55v.3c1.92.8 3.82 1.36 5.18 1.36H49.1v-.28s-.28 0-.28-.27zM23.8 65.33c-.54.28-1.1.55-1.36.83-1.9 1.64-3.26 3.56-3.54 4.38 1.64-.27 3.27-1.92 4.9-5.2zm8.16-18.92c.27-1.1.54-1.64.54-2.46v-.55c.28-1.38.28-2.48 0-2.75v-.28l-.27-.27s0 .27-.27.27c-.54 1.65-.54 3.57 0 6.03zM68 24H46c-1.1 0-2-.9-2-2V0l24 24z" fill="#C31B00" fill-rule="evenodd"/></svg>