<svg width="46" height="46" viewBox="0 0 46 46" xmlns="http://www.w3.org/2000/svg"><title>Pinterest</title><g fill-rule="evenodd"><circle stroke="currentColor" cx="22.82" cy="22.865" r="22"/><path d="M22.82 10.865c-6.627 0-12 5.372-12 12 0 4.913 2.955 9.134 7.183 10.99-.034-.838-.006-1.844.21-2.755l1.543-6.54s-.383-.765-.383-1.898c0-1.778 1.03-3.106 2.314-3.106 1.09 0 1.618.82 1.618 1.8 0 1.1-.7 2.74-1.06 4.26-.3 1.273.64 2.31 1.895 2.31 2.273 0 3.805-2.92 3.805-6.38 0-2.63-1.77-4.597-4.993-4.597-3.64 0-5.908 2.713-5.908 5.746 0 1.045.308 1.782.79 2.353.223.262.254.367.174.668-.058.22-.19.752-.245.963-.08.305-.326.414-.6.3-1.677-.683-2.458-2.52-2.458-4.583 0-3.41 2.875-7.496 8.576-7.496 4.582 0 7.597 3.316 7.597 6.875 0 4.707-2.616 8.224-6.474 8.224-1.296 0-2.514-.702-2.932-1.497 0 0-.695 2.765-.843 3.3-.254.924-.752 1.85-1.208 2.57 1.08.318 2.22.492 3.4.492 6.627 0 12-5.373 12-12 0-6.628-5.373-12-12-12" fill="currentColor"/></g></svg>