<svg width="46" height="46" viewBox="0 0 46 46" xmlns="http://www.w3.org/2000/svg"><title>Pinterest</title><g fill-rule="evenodd"><circle stroke="currentColor" cx="22.82" cy="22.86" r="22"/><path d="M22.82 10.86c-6.63 0-12 5.38-12 12 0 4.92 2.95 9.14 7.18 11-.03-.84 0-1.85.2-2.76l1.56-6.54s-.4-.77-.4-1.9c0-1.78 1.04-3.1 2.33-3.1 1.08 0 1.6.82 1.6 1.8 0 1.1-.7 2.74-1.05 4.26-.3 1.27.63 2.3 1.9 2.3 2.26 0 3.8-2.9 3.8-6.37 0-2.63-1.78-4.6-5-4.6-3.64 0-5.9 2.7-5.9 5.75 0 1.04.3 1.78.8 2.35.2.26.24.37.16.67l-.24.96c-.08.3-.32.4-.6.3-1.67-.68-2.46-2.52-2.46-4.58 0-3.4 2.88-7.5 8.58-7.5 4.58 0 7.6 3.32 7.6 6.87 0 4.7-2.62 8.23-6.48 8.23-1.3 0-2.5-.7-2.93-1.5l-.84 3.3c-.26.93-.76 1.85-1.2 2.57 1.07.32 2.2.5 3.4.5 6.62 0 12-5.38 12-12 0-6.63-5.38-12-12-12" fill="currentColor"/></g></svg>