<svg width="28" height="28" viewBox="0 0 28 28" xmlns="http://www.w3.org/2000/svg"><title>Question icon</title><path d="M14 0C6.27 0 0 6.27 0 14s6.27 14 14 14 14-6.27 14-14S21.73 0 14 0zm1.75 16.7v-.66c0-1.22 1.5-1.82 2.64-2.95.74-.76 1.36-1.7 1.36-3.16 0-2.42-1.8-4.94-5.66-4.94-3.72 0-5.57 2.35-6.1 5.35l3.46.58c.16-1.54.9-3.17 2.64-3.17 1.3 0 2.1.94 2.1 2.06 0 1.18-.83 1.78-1.53 2.28-1.2.87-2.42 2.02-2.42 3.77v.82h3.5zm-3.77 4.6c0 1.16.84 2.08 2.07 2.08 1.22 0 2.06-.92 2.06-2.07 0-1.2-.83-2.03-2.05-2.03-1.23 0-2.07.82-2.07 2.04z" fill-rule="evenodd"/></svg>