<svg width="124" height="124" viewBox="0 0 124 124" xmlns="http://www.w3.org/2000/svg"><title>recycle</title><g fill-rule="evenodd"><path d="M61.997 6.314c-30.68 0-55.638 24.76-55.638 55.197 0 30.436 24.958 55.197 55.637 55.197 30.68 0 55.638-24.76 55.638-55.196 0-30.435-24.96-55.196-55.638-55.196zm0 116.702C27.812 123.016 0 95.426 0 61.51 0 27.598 27.812.007 61.997.007s61.997 27.59 61.997 61.505c0 33.915-27.812 61.506-61.997 61.506z"/><path d="M48.592 75.463c3.01 2.79 6.507 4.652 10.288 5.363v6.13h6.56V80.88c5.532-1.094 9.96-5.362 9.96-11.162 0-12.914-17.676-11-17.676-17.182 0-2.955 3.125-4.16 5.912-4.16 2.518 0 5.094 1.096 6.626 2.518l3.826-5.472c-2.843-2.08-5.686-3.12-8.647-3.447v-5.91h-6.56v6.293c-4.71 1.313-8.537 4.925-8.537 10.233 0 4.323 2.405 6.95 5.412 8.7 5.148 3.01 12.265 3.613 12.265 8.537 0 2.79-2.305 4.815-5.586 4.815-3.5 0-6.843-1.805-9.03-4.213l-4.812 5.033" fill="currentColor"/><path d="M62.18 102.806l.048.003c1.075-.006 2.116-.14 3.17-.226.667-.056 1.35-.053 2.008-.142 12.044-1.586 22.353-8.465 28.71-18.173l4.28 3.08-1.7-14.483-14.273 2.983 4.16 2.996c-.11.174-.208.355-.322.528-.448.677-.927 1.33-1.424 1.97-.32.414-.645.82-.983 1.215-.54.63-1.106 1.242-1.693 1.828-.346.345-.7.68-1.062 1.007-.636.58-1.29 1.142-1.97 1.668-.36.278-.732.536-1.102.798-.73.516-1.47 1.016-2.242 1.47-.367.215-.75.403-1.127.604-.81.433-1.626.852-2.476 1.212-.392.166-.803.297-1.204.448-.862.324-1.726.644-2.62.893-.482.133-.983.214-1.473.324-.845.192-1.683.397-2.55.517-.967.133-1.96.18-2.953.222-.417.018-.82.083-1.24.085-.1 0-.2-.018-.3-.02-1.79-.005-3.53-.212-5.237-.504-.633-.11-1.258-.237-1.876-.384-1.256-.294-2.47-.68-3.662-1.12-.852-.315-1.687-.654-2.502-1.04-1.094-.515-2.157-1.076-3.178-1.707-.78-.487-1.53-1.016-2.26-1.565-.6-.45-1.17-.932-1.738-1.42-1.535-1.332-2.95-2.793-4.204-4.395-.187-.238-.4-.453-.58-.696-.677-.917-1.28-1.89-1.858-2.88-2.724-4.65-4.41-9.986-4.436-15.763l-9.17.04c.08 18.676 12.706 34.33 29.85 39.103.115.032.232.056.348.088 1.518.41 3.07.724 4.653.957.313.046.62.1.936.138 1.707.21 3.433.353 5.196.344.02 0 .038-.004.058-.004m31.505-40.94l9.17-.042c-.08-18.674-12.707-34.327-29.85-39.1-.115-.033-.234-.057-.35-.09-1.518-.407-3.07-.723-4.653-.955-.313-.047-.62-.1-.936-.14-1.705-.21-3.43-.35-5.194-.343-.02 0-.037.004-.056.004l-.05-.002c-14.23.06-26.656 7.45-33.907 18.527l-4.263-3.07L25.3 51.14l14.27-2.98-4.198-3.025c.318-.497.605-1.018.948-1.498.1-.142.2-.286.305-.426.713-.965 1.484-1.883 2.3-2.76.158-.17.32-.336.482-.502.805-.827 1.653-1.61 2.544-2.347.216-.175.438-.34.656-.512.882-.69 1.792-1.34 2.744-1.934.278-.173.567-.326.85-.49.935-.543 1.888-1.058 2.88-1.505.36-.163.735-.29 1.1-.437.956-.388 1.92-.763 2.92-1.057.503-.147 1.03-.237 1.543-.36.9-.218 1.797-.447 2.726-.586 1.072-.156 2.175-.215 3.28-.26.406-.018.797-.086 1.206-.09.1 0 .196.02.297.02 1.79.007 3.53.213 5.24.505.63.11 1.257.24 1.875.386 1.252.295 2.466.68 3.657 1.118.856.32 1.698.66 2.52 1.05 1.087.512 2.147 1.07 3.164 1.7.78.486 1.528 1.015 2.26 1.565.6.448 1.17.93 1.736 1.42 1.53 1.326 2.94 2.782 4.193 4.378.19.244.408.465.592.713.676.917 1.278 1.89 1.855 2.877 2.726 4.65 4.414 9.986 4.438 15.765" fill="currentColor"/></g></svg>