<svg width="124" height="124" viewBox="0 0 124 124" xmlns="http://www.w3.org/2000/svg"><title>recycle</title><g fill-rule="evenodd"><path d="M62 6.3C31.32 6.3 6.36 31.08 6.36 61.5c0 30.45 24.96 55.2 55.64 55.2s55.64-24.75 55.64-55.2c0-30.43-24.96-55.2-55.64-55.2zm0 116.72c-34.2 0-62-27.6-62-61.5C0 27.6 27.8 0 62 0c34.18 0 62 27.58 62 61.5 0 33.9-27.82 61.5-62 61.5z"/><path d="M48.6 75.46c3 2.8 6.5 4.65 10.28 5.37v6.12h6.56v-6.07c5.53-1.1 9.96-5.36 9.96-11.16 0-12.92-17.68-11-17.68-17.18 0-2.96 3.13-4.16 5.92-4.16 2.5 0 5.1 1.1 6.62 2.5l3.83-5.46c-2.85-2.08-5.7-3.12-8.66-3.45v-5.9h-6.56v6.3c-4.7 1.3-8.54 4.9-8.54 10.22 0 4.3 2.4 6.94 5.42 8.7 5.14 3 12.26 3.6 12.26 8.53 0 2.8-2.3 4.8-5.6 4.8-3.5 0-6.83-1.8-9.02-4.2l-4.8 5.03" fill="currentColor"/><path d="M62.18 102.8h.05c1.07 0 2.1-.13 3.17-.22.67-.05 1.35-.05 2-.14 12.05-1.58 22.36-8.46 28.72-18.17l4.28 3.08-1.7-14.48-14.28 2.98 4.16 3c-.1.17-.2.35-.32.52-.45.68-.93 1.33-1.42 1.98-.32.4-.65.8-1 1.2-.53.64-1.1 1.25-1.68 1.84l-1.06 1c-.64.57-1.3 1.14-1.97 1.66-.36.28-.73.54-1.1.8-.73.52-1.47 1.02-2.25 1.47l-1.12.6c-.8.44-1.63.86-2.48 1.22-.4.16-.8.3-1.2.44-.87.32-1.73.64-2.62.9-.5.12-1 .2-1.48.3-.84.2-1.68.4-2.55.53-.96.13-1.96.18-2.95.22-.42.02-.82.08-1.24.1l-.3-.03c-1.8 0-3.53-.22-5.24-.5-.63-.12-1.25-.25-1.87-.4-1.26-.3-2.47-.68-3.66-1.1-.86-.33-1.7-.67-2.5-1.05-1.1-.52-2.16-1.08-3.2-1.7-.76-.5-1.5-1.03-2.25-1.57-.6-.45-1.17-.94-1.73-1.43-1.55-1.33-2.96-2.8-4.22-4.4-.18-.23-.4-.44-.58-.7-.67-.9-1.28-1.88-1.85-2.87-2.73-4.65-4.42-9.98-4.44-15.76l-9.16.04c.08 18.68 12.7 34.33 29.85 39.1l.34.1c1.52.4 3.07.7 4.65.95l.93.14c1.7.2 3.43.35 5.2.34h.05m31.5-40.94l9.18-.04c-.1-18.67-12.7-34.32-29.85-39.1-.1-.03-.23-.05-.34-.1-1.52-.4-3.08-.7-4.66-.94l-.93-.14c-1.7-.2-3.44-.35-5.2-.34h-.11c-14.23.06-26.65 7.45-33.9 18.52l-4.26-3.06 1.7 14.48 14.27-2.98-4.2-3.03c.32-.5.6-1.02.95-1.5l.3-.42c.72-.95 1.5-1.87 2.3-2.75.16-.17.32-.34.5-.5.8-.83 1.64-1.6 2.53-2.35l.66-.5c.9-.7 1.8-1.35 2.75-1.95.28-.17.57-.32.85-.5.93-.53 1.9-1.04 2.88-1.5l1.1-.43c.96-.4 1.92-.76 2.92-1.05.5-.15 1.03-.24 1.54-.36.9-.2 1.8-.44 2.73-.58 1.07-.16 2.18-.22 3.28-.26.4-.02.8-.1 1.2-.1l.3.03c1.8 0 3.53.2 5.24.5.62.1 1.25.23 1.87.38 1.25.3 2.46.68 3.65 1.12.86.32 1.7.66 2.52 1.05 1.1.5 2.15 1.07 3.17 1.7.8.48 1.54 1 2.27 1.56.6.46 1.17.94 1.74 1.43 1.54 1.33 2.95 2.78 4.2 4.38l.6.72c.67.92 1.27 1.9 1.85 2.88 2.72 4.65 4.4 10 4.44 15.76" fill="currentColor"/></g></svg>