<svg width="62" height="60" viewBox="0 0 62 60" xmlns="http://www.w3.org/2000/svg"><title>icon-repaid</title><g fill-rule="evenodd"><path d="M30.8 58.4c15.86 0 28.76-12.7 28.76-28.3 0-15.58-12.9-28.27-28.77-28.27S2 14.53 2 30.1c0 15.6 12.9 28.3 28.77 28.3"/><path d="M30.8 58.4c15.86 0 28.76-12.7 28.76-28.3 0-15.58-12.9-28.27-28.77-28.27S2 14.53 2 30.1c0 15.6 12.9 28.3 28.77 28.3z" stroke="currentColor" stroke-width="3"/><path d="M42.48 46.02V19.1s0-3.37-3.43-3.37h-.1L35.8 19.1h3.25v23.55H22.27V19.1h3.27l-3.16-3.37h-.1s-3.43 0-3.43 3.36V46s0 3.36 3.42 3.36h16.78s3.43 0 3.43-3.36zm-10.62 0c0 .74-.6 1.34-1.37 1.34-.76 0-1.38-.6-1.38-1.34 0-.75.62-1.35 1.37-1.35.75 0 1.36.6 1.36 1.35z" fill="currentColor"/><path d="M34.6 10.82V1.18h-7.9v9.64h-5.2l9.16 9.8 9.18-9.8H34.6" fill="currentColor"/></g></svg>