<svg width="62" height="60" viewBox="0 0 62 60" xmlns="http://www.w3.org/2000/svg"><title>icon-repaid</title><g fill-rule="evenodd"><path d="M30.79 58.387c15.867 0 28.774-12.685 28.774-28.277S46.657 1.833 30.79 1.833c-15.864 0-28.77 12.685-28.77 28.277s12.906 28.277 28.77 28.277"/><path d="M30.79 58.387c15.867 0 28.774-12.685 28.774-28.277S46.657 1.833 30.79 1.833c-15.864 0-28.77 12.685-28.77 28.277s12.906 28.277 28.77 28.277z" stroke="currentColor" stroke-width="3"/><path d="M42.48 46.018V19.093s0-3.365-3.426-3.365h-.108l-3.154 3.365h3.262v23.56h-16.78v-23.56h3.26l-3.152-3.365h-.11s-3.423 0-3.423 3.365v26.925s0 3.366 3.423 3.366h16.78s3.426 0 3.426-3.366zm-10.618 0c0 .744-.613 1.347-1.37 1.347-.756 0-1.37-.603-1.37-1.347 0-.743.614-1.346 1.37-1.346.757 0 1.37.603 1.37 1.346z" fill="currentColor"/><path d="M34.613 10.823V1.176h-7.898v9.647h-5.223l9.172 9.792 9.172-9.792h-5.223" fill="currentColor"/></g></svg>