<svg width="62" height="62" viewBox="0 0 62 62" xmlns="http://www.w3.org/2000/svg"><title>Repeat</title><g fill-rule="evenodd"><path d="M30.86 59.9c15.9 0 28.84-12.93 28.84-28.83 0-15.9-12.93-28.84-28.84-28.84-15.9 0-28.84 12.94-28.84 28.84S14.96 59.9 30.86 59.9"/><path d="M30.86 59.9c15.9 0 28.84-12.93 28.84-28.83 0-15.9-12.93-28.84-28.84-28.84-15.9 0-28.84 12.94-28.84 28.84S14.96 59.9 30.86 59.9z" stroke="currentColor" stroke-width="3"/><path d="M24.3 37.67c1.46 1.37 3.18 2.28 5.03 2.63v3h3.22v-2.97c2.7-.54 4.88-2.63 4.88-5.48 0-6.33-8.66-5.4-8.66-8.42 0-1.45 1.53-2.04 2.9-2.04 1.23 0 2.5.52 3.24 1.22l1.9-2.68c-1.4-1.02-2.8-1.53-4.25-1.7v-2.9h-3.22v3.1c-2.3.64-4.18 2.4-4.18 5 0 2.13 1.18 3.42 2.65 4.28 2.52 1.48 6 1.77 6 4.2 0 1.35-1.12 2.35-2.72 2.35-1.72 0-3.36-.9-4.43-2.07l-2.36 2.47" fill="currentColor"/><path d="M30.95 51.08h.02c.53 0 1.04-.07 1.56-.1.33-.04.66-.04.98-.08 5.92-.78 10.98-4.15 14.1-8.9l2.1 1.5-.84-7.1-7 1.46 2.04 1.47-.16.26c-.22.32-.45.64-.7.95-.15.2-.3.4-.48.6l-.83.9-.52.5c-.3.27-.62.55-.96.8-.17.14-.36.27-.54.4-.36.25-.72.5-1.1.72l-.55.3-1.2.6-.6.2c-.43.17-.85.33-1.3.45l-.7.16c-.43.1-.84.2-1.26.25-.5.07-.97.1-1.46.1-.2.02-.4.05-.6.05h-.16c-.87 0-1.73-.1-2.56-.26-.3-.05-.62-.1-.92-.2-.62-.13-1.22-.32-1.8-.53-.42-.17-.83-.34-1.23-.52-.53-.26-1.05-.53-1.56-.84-.37-.24-.73-.5-1.1-.77-.3-.22-.57-.46-.84-.7-.76-.65-1.45-1.36-2.07-2.15l-.3-.34c-.32-.45-.62-.93-.9-1.4-1.34-2.3-2.17-4.9-2.18-7.74l-4.5.02c.05 9.15 6.24 16.83 14.64 19.17l.17.04c.75.2 1.5.36 2.3.47l.44.07c.84.1 1.7.18 2.55.18h.03zM46.4 31l4.5-.02c-.04-9.16-6.23-16.83-14.64-19.17-.06 0-.12-.02-.17-.04-.76-.2-1.52-.35-2.3-.46l-.45-.07c-.84-.1-1.7-.18-2.55-.17h-.03-.02c-6.98.03-13.07 3.65-16.63 9.08l-2.1-1.5.85 7.1 7-1.46-2.07-1.48c.16-.25.3-.5.47-.74l.15-.2c.35-.48.73-.93 1.13-1.36l.23-.25c.4-.4.8-.8 1.25-1.15l.32-.25c.43-.34.88-.66 1.35-.95l.4-.24c.47-.26.94-.52 1.43-.74l.54-.2c.47-.2.94-.38 1.43-.53.25-.08.5-.12.75-.18.45-.1.9-.22 1.34-.3.52-.07 1.06-.1 1.6-.12.2 0 .4-.04.6-.04h.14c.88 0 1.73.1 2.57.25l.93.2c.6.15 1.2.34 1.8.55.4.16.82.33 1.22.52.54.25 1.06.52 1.56.83.4.24.76.5 1.12.77.3.22.57.45.85.7.75.64 1.44 1.36 2.05 2.14l.3.36c.33.45.62.93.9 1.4 1.34 2.3 2.17 4.9 2.18 7.74z" fill="currentColor"/></g></svg>