<svg width="62" height="62" viewBox="0 0 62 62" xmlns="http://www.w3.org/2000/svg"><title>icon-repeat</title><g fill-rule="evenodd"><path d="M30.86 59.91c15.905 0 28.844-12.937 28.844-28.84 0-15.905-12.94-28.844-28.843-28.844S2.02 15.166 2.02 31.07s12.937 28.84 28.84 28.84"/><path d="M30.86 59.91c15.905 0 28.844-12.937 28.844-28.84 0-15.905-12.94-28.844-28.843-28.844S2.02 15.166 2.02 31.07s12.937 28.84 28.84 28.84z" stroke="currentColor" stroke-width="3"/><path d="M24.288 37.67c1.475 1.368 3.19 2.28 5.045 2.63v3.004h3.217v-2.978c2.712-.537 4.884-2.63 4.884-5.474 0-6.333-8.668-5.393-8.668-8.426 0-1.45 1.532-2.04 2.9-2.04 1.234 0 2.497.538 3.248 1.236l1.877-2.684c-1.394-1.02-2.788-1.53-4.24-1.69V18.35h-3.217v3.086c-2.31.644-4.187 2.414-4.187 5.017 0 2.12 1.18 3.408 2.655 4.267 2.525 1.476 6.015 1.77 6.015 4.186 0 1.368-1.13 2.36-2.74 2.36-1.715 0-3.355-.884-4.427-2.065l-2.36 2.47" fill="currentColor"/><path d="M30.95 51.078h.024c.528-.002 1.038-.067 1.555-.11.326-.027.662-.025.984-.07 5.906-.777 10.96-4.15 14.078-8.91l2.1 1.51-.835-7.1-7 1.46 2.042 1.47c-.055.086-.104.175-.16.26-.22.33-.455.652-.698.966-.157.202-.316.4-.483.595-.266.31-.542.608-.83.896-.17.17-.345.333-.52.494-.314.284-.634.56-.968.818-.176.136-.358.263-.54.39-.357.254-.72.498-1.1.72-.18.106-.367.2-.552.298-.397.21-.797.417-1.214.594-.193.082-.395.146-.59.22-.424.16-.847.315-1.286.438-.236.065-.482.104-.722.158-.414.094-.825.194-1.25.254-.475.065-.96.088-1.45.108-.203.01-.4.04-.607.042-.048 0-.096-.01-.145-.01-.88-.002-1.73-.103-2.57-.246-.31-.054-.616-.117-.92-.19-.614-.144-1.21-.333-1.795-.548-.417-.155-.827-.32-1.226-.51-.537-.253-1.058-.528-1.56-.838-.382-.238-.748-.497-1.108-.767-.294-.22-.573-.456-.85-.695-.754-.653-1.447-1.37-2.063-2.155-.092-.116-.196-.222-.284-.34-.334-.45-.63-.93-.912-1.414-1.337-2.28-2.164-4.896-2.176-7.73l-4.497.02c.04 9.158 6.232 16.834 14.638 19.175.057.017.114.03.17.044.746.2 1.507.355 2.283.47.153.02.304.047.46.067.835.103 1.682.173 2.547.17l.028-.002zM46.4 31l4.497-.018c-.04-9.158-6.23-16.834-14.638-19.175-.057-.016-.115-.027-.172-.043-.745-.2-1.506-.355-2.282-.47-.153-.02-.305-.047-.46-.067-.835-.103-1.68-.172-2.546-.168H30.748c-6.98.03-13.07 3.653-16.627 9.084l-2.09-1.504.835 7.1 7-1.46-2.06-1.484c.156-.244.296-.5.465-.734.05-.07.098-.14.15-.21.35-.472.727-.922 1.127-1.35.078-.085.157-.167.237-.25.395-.404.81-.788 1.247-1.15.106-.085.215-.167.322-.25.433-.34.88-.658 1.346-.95.136-.084.278-.16.417-.24.458-.266.925-.518 1.412-.738.176-.078.36-.14.54-.213.468-.19.94-.373 1.43-.518.248-.072.506-.116.758-.176.44-.107.88-.22 1.337-.287.526-.078 1.067-.107 1.61-.13.198-.008.39-.04.59-.043.05 0 .096.01.146.01.878.003 1.73.104 2.57.248.31.054.616.116.92.19.613.143 1.208.332 1.792.546.42.158.832.325 1.235.516.534.25 1.054.525 1.552.834.383.238.75.498 1.11.768.294.22.572.455.85.695.75.65 1.442 1.365 2.056 2.148.095.12.2.228.29.35.333.45.628.926.91 1.41C45.56 25.55 46.39 28.168 46.4 31z" fill="currentColor"/></g></svg>