<svg xmlns="http://www.w3.org/2000/svg" width="62" height="62" viewBox="0 0 62 62"><g fill="none" fill-rule="evenodd"><path fill="#000" d="M31 61c16.54 0 30-13.46 30-30S47.54 1 31 1 1 14.46 1 31s13.46 30 30 30"/><path fill="#FFF" d="M54.25 46.4c-1.27-2.6-3.62-4.56-6.42-5.32 1-.8 1.67-2.03 1.67-3.4 0-2.4-1.95-4.35-4.34-4.35-2.4 0-4.34 1.94-4.34 4.34 0 1.38.65 2.6 1.66 3.4-3.23.9-5.86 3.35-6.93 6.58-1.3-1.88-2.07-4.17-2.07-6.63 0-6.44 5.24-11.67 11.68-11.67 6.43 0 11.67 5.23 11.67 11.67 0 .2-.02.4-.03.58-.7 1.68-1.55 3.3-2.55 4.8zm-9.1-4.4c.17 0 .33 0 .5-.02 3.5.2 6.52 2.4 7.77 5.6-1.15 1.55-2.46 2.98-3.9 4.27-1.35.54-2.82.85-4.36.85-3.44 0-6.52-1.5-8.66-3.86.9-3.85 4.23-6.65 8.17-6.86.16 0 .32.03.5.03zm-3.1-4.34c0-1.7 1.4-3.1 3.1-3.1 1.7 0 3.1 1.4 3.1 3.1 0 1.6-1.2 2.9-2.74 3.07l-.34-.02c-.12 0-.24.03-.35.03-1.54-.18-2.74-1.48-2.74-3.06zm-13.74 21.1V19.75h28.22C58.04 23.18 58.9 27 58.9 31c0 2.64-.38 5.2-1.06 7.6-1.14-5.96-6.4-10.5-12.68-10.5-7.13 0-12.92 5.8-12.92 12.92 0 7.13 5.8 12.92 12.92 12.92.65 0 1.3-.06 1.92-.16C42.53 57 36.98 58.9 31 58.9c-.9 0-1.8-.05-2.7-.13zM3.1 31C3.1 15.62 15.62 3.1 31 3.1c8.24 0 15.66 3.6 20.77 9.3H29.64c-2.1 0-3.8 1.67-3.8 3.72v42.3C12.9 55.97 3.1 44.6 3.1 31zm36.24-14.98c0 .5-.4.93-.93.93-.5 0-.92-.42-.92-.93 0-.52.42-.93.93-.93.53 0 .94.4.94.92zm10.47 0c0 .5-.4.93-.92.93h-7.44c-.52 0-.93-.42-.93-.93 0-.52.42-.93.94-.93h7.44c.5 0 .93.4.93.92zM31 0C13.88 0 0 13.88 0 31c0 17.12 13.88 31 31 31 17.12 0 31-13.88 31-31C62 13.88 48.12 0 31 0z"/><path fill="#FFF" d="M20.87 26c-.34 0-.62.27-.62.6v7.45c0 .34.28.62.62.62.35 0 .62-.28.62-.62V26.6c0-.33-.28-.6-.63-.6m-5.58-1.87c-.35 0-.63.28-.63.62V35.9c0 .35.28.63.62.63.34 0 .6-.28.6-.62V24.76c0-.34-.26-.62-.6-.62m-5.6-1.86c-.33 0-.6.28-.6.62v14.87c0 .34.27.62.6.62.36 0 .63-.3.63-.63V22.9c0-.35-.27-.63-.62-.63m40.73 3.37c.85 0 1.55-.7 1.55-1.55 0-.87-.7-1.56-1.55-1.56-.86 0-1.55.7-1.55 1.55 0 .85.7 1.54 1.55 1.54m4.23 0c.86 0 1.55-.7 1.55-1.55 0-.87-.68-1.56-1.54-1.56-.85 0-1.55.7-1.55 1.55 0 .85.7 1.54 1.56 1.54M32.9 24.7h7.44c.34 0 .62-.27.62-.6 0-.35-.28-.63-.62-.63H32.9c-.34 0-.62.28-.62.62 0 .33.28.6.62.6"/></g></svg>