<!DOCTYPE svg PUBLIC "-//W3C//DTD SVG 1.1//EN" "http://www.w3.org/Graphics/SVG/1.1/DTD/svg11.dtd" [
	<!ENTITY ns_flows "http://ns.adobe.com/Flows/1.0/">
]><svg xmlns="http://www.w3.org/2000/svg" width="16" height="16" viewBox="0 0 16 16" overflow="visible"><path d="M9.3 8.35c-.2-.38-.44-.74-.7-1.05-.42-.5-.9-.9-1.42-1.2.73-.6 1.2-1.48 1.2-2.5C8.38 1.8 6.93.37 5.15.37S1.9 1.8 1.9 3.6c0 1 .5 1.9 1.22 2.5-.5.3-1 .7-1.4 1.18C.67 8.53 0 10.35 0 12.38c0 .16 0 .3.04.46.3 1.76 2.48 2.4 5.1 2.4.78 0 1.5-.04 2.16-.13-.1-.23-.17-.46-.2-.7-.05-.16-.06-.36-.06-.56 0-1.85.6-3.62 1.66-4.87.2-.23.4-.43.6-.62zM14.74 10.05c-.38-.45-.8-.77-1.27-.97.89-.43 1.5-1.32 1.5-2.37 0-1.44-1.18-2.6-2.62-2.6-1.45 0-2.63 1.16-2.63 2.6 0 1.06.62 1.95 1.5 2.38-.45.2-.88.52-1.25.96-.8.95-1.28 2.34-1.28 3.8v.27c.25 1.34 2.4 1.54 3.65 1.54 2.43 0 3.5-.44 3.63-1.5l.02-.3c0-1.45-.46-2.83-1.26-3.8z"/></svg>