<!DOCTYPE svg PUBLIC "-//W3C//DTD SVG 1.1//EN" "http://www.w3.org/Graphics/SVG/1.1/DTD/svg11.dtd" [
	<!ENTITY ns_flows "http://ns.adobe.com/Flows/1.0/">
]><svg xmlns="http://www.w3.org/2000/svg" width="16" height="16" viewBox="0 0 16 16" overflow="visible"><path d="M2.46 8.7l3.72-1.92c-.02-.06-.04-.12-.04-.18 0-.48.67-.87 1.5-.87s1.5.4 1.5.87-.67.86-1.5.86c-.17 0-.33-.02-.48-.05l-4.1 2.12 3.1 3.44c.07.07.17.1.28.1.1 0 .2-.02.27-.1l9.16-5.2.02-.03c.08-.07.12-.17.12-.28s-.04-.2-.12-.28L9.1 1.92c-.13-.14-.38-.15-.53 0L.15 5.65H.13v.02c-.17.15-.17.4-.02.56l1.53 1.68v4.37h.03L.64 14.2h2.98l-1-1.9h.02V9.04l-.18-.36z"/></svg>