<!DOCTYPE svg PUBLIC "-//W3C//DTD SVG 1.1//EN" "http://www.w3.org/Graphics/SVG/1.1/DTD/svg11.dtd" [
	<!ENTITY ns_flows "http://ns.adobe.com/Flows/1.0/">
]><svg xmlns="http://www.w3.org/2000/svg" width="16" height="16" viewBox="0 0 16 16" overflow="visible"><path d="M10 3.68l.15-.2c-2.2-.93-4.84-.8-6.84 1.33-1 1.1-1.67 3.3-.43 4.53.47.46 1.14.63 1.82.73.6-.84 4.32-5.7 5.3-6.38zM13.1 5.7c-.22-.27-.45-.5-.7-.74-.08.07-.27.26-.4.42-.46 1-4 4.92-4.9 5.9-.18.5-1.15.9-1.3 1.98-.3 2.33 2.7 3.62 5.4 2.05 3.96-2.3 4.34-6.55 1.9-9.6zm-4.04 8.68c-.73.5-1.62.45-1.98-.08-.35-.54-.05-1.37.68-1.86.74-.5 1.62-.45 1.98.08.35.54.05 1.37-.68 1.86zM14.5.1c-.08.23-.5.73-.9.8-1.75.42-2.64 2.1-2.46 2.9l-.32.4c-.5.26-1.23.98-2.2 2.2-1.5 1.88-7.44 9.25-7.23 9.56C1.7 16.1 7.97 9 9.55 7.2c1-1.1 1.58-1.94 1.8-2.47l.4-.48C12.9 4.2 14.68 1.77 14.62.2c0-.2-.05-.28-.12-.1z"/></svg>