<!DOCTYPE svg PUBLIC "-//W3C//DTD SVG 1.1//EN" "http://www.w3.org/Graphics/SVG/1.1/DTD/svg11.dtd" [
	<!ENTITY ns_flows "http://ns.adobe.com/Flows/1.0/">
]><svg xmlns="http://www.w3.org/2000/svg" width="16" height="16" viewBox="0 0 16 16" overflow="visible"><path d="M15.4 4.08h-1.85L12.8 2.3c-.28-.65-.63-1.47-1.45-1.47H4.42c-1.07 0-1.4.9-1.66 1.64-.1.27-.2.57-.37.9l-.33.7H.6c-.33 0-.6.3-.6.63v9.86c0 .34.27.6.6.6H15.4c.32 0 .6-.26.6-.6V4.7c0-.34-.28-.62-.6-.62zm-11.5 0c.17-.4.3-.76.42-1.07l.2-.52h6.54l.2.46c.15.33.3.76.5 1.14H3.9zm7.2 6.47H8.9v2.18H7.03v-2.18H4.9V8.7h2.14V6.52H8.9V8.7h2.2v1.85z"/></svg>