<!DOCTYPE svg PUBLIC "-//W3C//DTD SVG 1.1//EN" "http://www.w3.org/Graphics/SVG/1.1/DTD/svg11.dtd" [
	<!ENTITY ns_flows "http://ns.adobe.com/Flows/1.0/">
]><svg xmlns="http://www.w3.org/2000/svg" width="16" height="16" viewBox="0 0 16 16" overflow="visible"><path d="M16 5.23l-.98-1.06c-.62.58-2.47.97-3.05.35-.58-.62-.45-2.67.17-3.25L11.26.2c-.26.23-.66.2-.9-.04L.03 9.88c.24.25.23.65-.03.9l.88 1.08c.62-.58 2.75-1 3.33-.4.6.62.18 2.7-.44 3.3l.98 1.05c.26-.22.66-.2.9.04l10.33-9.72c-.24-.25-.23-.65.03-.9zm-7.83 6.82l-4.1-4.1.72-.7 4.07 4.1-.7.7zm3.46-3.47L7.55 4.5l.7-.7 4.1 4.08-.72.7z"/></svg>