<!DOCTYPE svg PUBLIC "-//W3C//DTD SVG 1.1//EN" "http://www.w3.org/Graphics/SVG/1.1/DTD/svg11.dtd" [
	<!ENTITY ns_flows "http://ns.adobe.com/Flows/1.0/">
]><svg xmlns="http://www.w3.org/2000/svg" width="16" height="16" viewBox="0 0 16 16" overflow="visible"><path d="M14.08 15.05C8.54 9.9 6.53 6.25 4.9 1.65c-.1-.27-.3-.3-.38-.3-.1 0-.2.04-.25.12-.08.1-.1.25-.05.42 1.63 5.74 5.3 11.38 9.14 14 .1.06.2.1.3.1.2 0 .42-.13.52-.33.1-.2.07-.4-.1-.62z"/><path d="M10.7 9.8c-.17.12-1.62-1.6.15-3.08.12-.1.24-.12.3-.05.26.15 1.33 1.63-.46 3.12zM8.97 7.37c-.16.12-1.43-1.53.28-2.83.1-.1.22-.1.28-.04.23.15 1.17 1.57-.56 2.87zM7.5 4.95c-.15.1-1.2-1.4.33-2.47.1-.08.2-.08.25-.02.2.14.97 1.42-.6 2.5zM6.37 2.27c-.1.1-1.23-1.04-.04-2.2.08-.08.17-.1.2-.04.2.1 1.04 1.1-.17 2.24zM6.36 10.18c.23-.1-.7-2.5-3.17-1.53-.2.06-.27.18-.24.28.02.34.92 2.24 3.4 1.25zM4.72 7.48c.2-.1-.73-2.3-3-1.32-.16.06-.23.17-.2.26.03.32.93 2.05 3.2 1.06zM3.27 5.06C3.45 5 2.77 3 .74 3.7c-.14.05-.2.14-.2.22 0 .28.67 1.85 2.73 1.14zM2.62 2.46c.15 0 .03-1.6-1.6-1.46-.12 0-.18.06-.18.12-.05.2.14 1.48 1.78 1.34z"/></svg>