<!DOCTYPE svg PUBLIC "-//W3C//DTD SVG 1.1//EN" "http://www.w3.org/Graphics/SVG/1.1/DTD/svg11.dtd" [
	<!ENTITY ns_flows "http://ns.adobe.com/Flows/1.0/">
]><svg xmlns="http://www.w3.org/2000/svg" width="16" height="16" viewBox="0 0 16 16" overflow="visible"><path d="M14.63 11.77H1.33c-.1 0-.2.1-.2.2v.74c0 .13.1.22.2.22h.46v.9c0 .37.26.65.58.65h1.24c.32 0 .6-.28.6-.64v-.9h7.57v.9c0 .36.26.64.6.64h1.22c.32 0 .6-.28.6-.64v-.9h.4c.1 0 .2-.1.2-.22V12c0-.12-.1-.2-.2-.2zM14.36 6.57h-.62c-.07-.27-.14-.73-.2-1.1-.23-1.45-.44-2.82-1.34-2.82H9.92l.02-.17v-.5c0-.24-.1-.45-.24-.45H6.13c-.14 0-.24.2-.24.46v.65H3.8c-.83 0-1.13 1.38-1.47 3.34-.03.2-.06.4-.1.57h-.6c-.26 0-.46.2-.46.45v3.42c0 .25.2.45.45.45h12.76c.24 0 .45-.2.45-.46V7.02c0-.25-.2-.45-.44-.45zM3.1 6.13c.1-.6.4-2.4.73-2.68h8.35c.26.18.48 1.56.57 2.15.06.4.1.7.17.97h-9.9l.08-.44zM2.92 10c-.63 0-1.14-.52-1.14-1.15 0-.63.5-1.14 1.14-1.14s1.14.52 1.14 1.15c0 .63-.5 1.14-1.14 1.14zm7.86-.76H5.04v-.77h5.74v.77zm2.3.75c-.63 0-1.14-.52-1.14-1.15 0-.63.5-1.14 1.14-1.14s1.14.52 1.14 1.15c0 .63-.5 1.14-1.14 1.14z"/><path d="M1.8 5.78v-.5c0-.1-.1-.17-.23-.17H.22c-.12 0-.22.1-.22.2v.48c0 .1.1.18.22.18h1.35c.12 0 .22-.08.22-.18zM15.78 5.1h-1.35c-.12 0-.23.1-.23.2v.48c0 .1.1.18.23.18h1.35c.12 0 .22-.08.22-.18v-.5c0-.1-.1-.17-.22-.17z"/></svg>