<!DOCTYPE svg PUBLIC "-//W3C//DTD SVG 1.1//EN" "http://www.w3.org/Graphics/SVG/1.1/DTD/svg11.dtd" [
	<!ENTITY ns_flows "http://ns.adobe.com/Flows/1.0/">
]><svg xmlns="http://www.w3.org/2000/svg" width="16" height="16" viewBox="0 0 16 16" overflow="visible"><path d="M6.15 1c0 .22.08.37.24.55.3.33.82.58 1 1 .05.13.07.28.1.42l.05.2h.35c.5 0 .92-.03 1.35-.1.05-.02.12-.05.2-.16.17-.2.4-.6.5-.85.37-.88.68-1.44.67-2.04-.37-.03-.78.05-1.16.05-.2 0-.38 0-.56.1-.2.1-.2.33-.35.44-.28.16-1.08 0-1.37-.04C6.82.5 6.53.43 6.28.2c-.06.03-.08.05-.17.07.06.07.07.25.06.33.02.13 0 .24 0 .4zM12.97 11.98c.22-.38.44-2.1.27-2.44-.17-.34-.55-.33-.36-1.28.1-.53.18-3.33-.9-3.98-.3-.17-.7-.34-1.16-.5-.95.35-1.88.45-2.92.45h-.1c-.72 0-1.4-.03-2.05-.33l-.16-.1c-.58.28-1.05.6-1.2.97-.37.95-1 2.8-.85 3.36.14.57.2.67-.02.93s-1.08 2.46-.76 3.9c.1.63.17.9.48 1.06.3.17 6.15 3.07 9.36 1.53.47-.17.54-1.85.3-2.57-.24-.72-.16-.62.07-1zm-4.32.68L7.4 10.28l-.84 1.35-.9-.56 1.2-1.88-1.22-2.35.94-.5.93 1.8 1.17-1.83.9.57-1.5 2.35 1.5 2.93-.92.48z"/></svg>