<!DOCTYPE svg PUBLIC "-//W3C//DTD SVG 1.1//EN" "http://www.w3.org/Graphics/SVG/1.1/DTD/svg11.dtd" [
	<!ENTITY ns_flows "http://ns.adobe.com/Flows/1.0/">
]><svg xmlns="http://www.w3.org/2000/svg" width="16" height="16" viewBox="0 0 16 16" overflow="visible"><path d="M5.5 10.7l1.18-1.16c-.52-.4-.65-.42-.65-.42-.1-.18.95-1.47.74-3.15C6.47 3.6 4.05.4 2.55.12.9-.18-.77 3.56.38 6.88c.96 2.76 2.75 2.64 5 3.73l.12.1zM10.76 14.23c-.48-.68-1.05-1.42-1.6-2.1-.43.47-.85 1.02-1.22 1.6.4.72.8 1.47 1.13 2.17h2.76c-.37-.62-.73-1.18-1.07-1.67z"/><path d="M15.58.93c-.1.15-2.4 5.58-2.4 5.58l-1.13-.02S13.65.72 13.58.6c-.07-.1-.23-.06-.4.1-.14.13-1.95 4.95-2.18 5.55-.3-.07-.6-.12-.88-.14.1-.6.8-5.66.7-5.9-.06-.25-.34.05-.34.05l-1.8 6.52c-.72 1.56.2 2.44.1 2.62 0 0-.22 0-1.3.85-.73.6-2.47 2.5-3.65 4.05-.36.47-.74 1-1.13 1.6h2.82c1.08-2.05 2.64-4.47 3.84-5 2.3-1 4.05-1.1 4.74-3.35 0 0 1.94-6.6 1.9-6.7-.04-.14-.32-.1-.42.08z"/></svg>