<!DOCTYPE svg PUBLIC "-//W3C//DTD SVG 1.1//EN" "http://www.w3.org/Graphics/SVG/1.1/DTD/svg11.dtd" [
	<!ENTITY ns_flows "http://ns.adobe.com/Flows/1.0/">
]><svg xmlns="http://www.w3.org/2000/svg" width="16" height="16" viewBox="0 0 16 16" overflow="visible"><path d="M15.25 1.22c-1.58-.36-2.76.32-3.5.84-.3.24-1.95 2.7-2.5 3.47.7-.2 1.45-.1 2.1.2-.46.62-.93 1.28-1.4 1.95l.76.88c.54-.74 1.07-1.48 1.57-2.2.52.53.87 1.2.86 1.93.54-.77 2.35-3.12 2.47-3.5.25-.87.5-2.2-.35-3.58zM4.7 15.04c-.4.57.5 1.27.92.66l3.34-4.68-.78-.87-3.5 4.9z"/><path d="M15.02 15.08c-.37-.44-6.77-8.02-9.6-11.4l.22-.18-.14-.97S6.78.9 10.13.38c.02 0 0-.33 0-.33C7.27-.17 6.18.38 5.7.77L4.07 2.1c-.36-.43-1.17.4-.92.67l.05.07C2.9 3.1 2 3.9 1.6 4.22c-.46.4-1.18 1.4-1.44 4.26 0 0 .32.06.32.04 1.1-3.2 2.9-4.2 2.9-4.2l.94.3.22-.2c2.87 3.4 9.25 10.96 9.6 11.4.46.52 1.36-.17.88-.74z"/></svg>