<!DOCTYPE svg PUBLIC "-//W3C//DTD SVG 1.1//EN" "http://www.w3.org/Graphics/SVG/1.1/DTD/svg11.dtd" [
	<!ENTITY ns_flows "http://ns.adobe.com/Flows/1.0/">
]><svg xmlns="http://www.w3.org/2000/svg" width="16" height="16" viewBox="0 0 16 16" overflow="visible"><path d="M2.25 14.28c0 .2-.1.38-.25.38H.25c-.14 0-.25-.17-.25-.38v-4.25c0-.2.1-.38.25-.38H2c.14 0 .25.17.25.38v4.25zM15.75 8.3c-.57 0-1.6.8-2.3 1.32-.47.36-.76.6-1 .67-.46.17-1.55.32-2.3.32-.66 0-1.13-.1-1.27-.56-.04-.1-.1-.4.13-.7l.26-.32c.42-.52 1.7-2.1 1.3-2.7l-.1-.1c-.13 0-.54.44-.78.7-.24.27-.47.5-.72.72-.63.54-1.36.78-1.5.83H6.3c-.82 0-1.42 0-1.7.04-.2.07-.93 1.07-1.6 2.3l.03 2.78h5.6c2.24 0 6.67-3.9 7.37-5.05-.06-.28-.16-.28-.25-.28z"/><path d="M6.3 7.4h.96c.12-.04.67-.23 1.13-.62.2-.18.4-.4.6-.62.5-.54.95-1.02 1.48-1.02.23 0 .56.1.84.55.8 1.2-.37 2.85-1.13 3.82.72 0 1.67-.17 1.97-.28.1-.04.48-.34.74-.53l.63-.46V1.7c0-.2-.12-.36-.27-.36H6.23c-.15 0-.27.16-.27.35v5.7h.35z"/></svg>