<!DOCTYPE svg PUBLIC "-//W3C//DTD SVG 1.1//EN" "http://www.w3.org/Graphics/SVG/1.1/DTD/svg11.dtd" [
	<!ENTITY ns_flows "http://ns.adobe.com/Flows/1.0/">
]><svg xmlns="http://www.w3.org/2000/svg" width="16" height="16" viewBox="0 0 16 16" overflow="visible"><path d="M3.12 4.16l.7.68C4.35 3.04 6 1.72 8 1.72c1.96 0 3.6 1.3 4.18 3.07l.64-.65.62.63C12.84 2.33 10.64.5 8 .5 5.4.5 3.22 2.3 2.6 4.7l.52-.54zM14.02 7.55l-1.2-1.08-1.2 1.08-1.2-1.08L9.2 7.54 8 6.47 6.8 7.54 5.6 6.47 4.4 7.54 3.2 6.47 1.97 7.54.78 6.47v8.7c0 .2.17.33.38.33h13.68c.2 0 .38-.15.38-.33V6.46l-1.2 1.1z"/></svg>