<!DOCTYPE svg PUBLIC "-//W3C//DTD SVG 1.1//EN" "http://www.w3.org/Graphics/SVG/1.1/DTD/svg11.dtd" [
	<!ENTITY ns_flows "http://ns.adobe.com/Flows/1.0/">
]><svg xmlns="http://www.w3.org/2000/svg" width="16" height="16" viewBox="0 0 16 16" overflow="visible"><path d="M15.95 5.57c-.12-.15-1.94-.8-2.95-1.15 0 0-.55 1.1-1.55.73-.78-.27-.86-1.54-1.23-2.23l.15-.42c.2-.53-.08-1.12-.62-1.3L7.68.44c-.53-.2-1.12.08-1.3.62l-.13.3c-.8.06-1.4.66-1.53.73-.15.1-.47.9-1.08.72-.6-.17-.48-1.13-.54-1.33-.06-.22.08-.22-.38-.42C1.78.75.42 1.44.1 2.38c-.34.94.28 2.33 1.22 2.66.48.14.37.04.55-.08.18-.12.8-.98 1.37-.73.58.24.2 1.1.27 1.27.06.15.16 1.02.8 1.56L1.2 15.6l4.52.02 2.63-7.3c.74-.35 1.64-1.27 2.4-1 1 .36.64 1.6.64 1.6 1.02.35 2.84 1 3.02.95.4-.1.9-1.75 1-2.06.12-.3.77-1.9.53-2.23z"/></svg>