<svg width="18" height="18" viewBox="0 0 18 18" xmlns="http://www.w3.org/2000/svg"><title>Group</title><g fill="#90918D" fill-rule="evenodd"><path d="M16.8 8.6c-.24-3.97-3.43-7.15-7.4-7.4v1.5c0 .26-.2.5-.5.5-.27 0-.5-.24-.5-.5V1.2c-3.95.25-7.14 3.43-7.38 7.4H2.5c.26 0 .5.2.5.5 0 .27-.24.5-.5.5H1c.24 3.95 3.43 7.14 7.4 7.38v-1.5c0-.27.2-.5.5-.5.27 0 .5.23.5.5V17c3.95-.24 7.14-3.43 7.38-7.4h-1.47c-.28 0-.5-.2-.5-.5 0-.27.22-.5.5-.5h1.47zM8.9 18C4 18 0 14 0 9.1 0 4.17 4 .17 8.9.17c4.92 0 8.92 4 8.92 8.9 0 4.92-4 8.92-8.9 8.92z"/><path d="M7.72 7.93l-1.92 4.3 4.3-1.93L12.02 6l-4.3 1.93zm-2.9 5.78c-.14 0-.26-.04-.36-.14-.15-.15-.2-.37-.1-.56L6.9 7.34c.04-.1.13-.2.24-.25l5.66-2.54c.2-.08.4-.04.56.1.15.15.2.37.1.56l-2.53 5.66c-.05.1-.14.2-.25.25l-5.66 2.53c-.07.03-.14.05-.2.05z"/><path d="M8.16 9.1c0 .43.34.76.75.76.42 0 .76-.33.76-.75 0-.4-.34-.74-.75-.74-.4 0-.74.34-.74.75"/></g></svg>