<svg width="20" height="18" viewBox="0 0 20 18" xmlns="http://www.w3.org/2000/svg"><title>filters</title><g fill="#90918D" fill-rule="evenodd"><path d="M5.75 4.8c-1 0-1.8-.8-1.8-1.8s.8-1.82 1.8-1.82 1.8.8 1.8 1.8-.8 1.82-1.8 1.82zM19.5 2.5h-11C8.28 1.17 7.14.17 5.76.17c-1.37 0-2.52 1-2.75 2.3H.5c-.28 0-.5.23-.5.5 0 .3.22.5.5.5H3C3.23 4.8 4.38 5.8 5.75 5.8c1.38 0 2.52-1 2.76-2.3h11c.28 0 .5-.23.5-.5 0-.3-.22-.5-.5-.5zM14.83 10.92c-1 0-1.8-.8-1.8-1.8s.8-1.8 1.8-1.8c1-.02 1.8.8 1.8 1.8s-.8 1.8-1.8 1.8zm4.67-2.3h-1.9c-.25-1.32-1.4-2.3-2.77-2.3-1.38-.02-2.52.98-2.76 2.3H.5c-.28 0-.5.22-.5.5 0 .27.22.5.5.5h11.57c.24 1.3 1.38 2.3 2.76 2.3s2.52-1 2.76-2.3h1.9c.28 0 .5-.23.5-.5 0-.28-.22-.5-.5-.5zM9.21 17c-.98 0-1.8-.8-1.8-1.8s.82-1.8 1.8-1.8c1-.02 1.82.8 1.82 1.8s-.8 1.8-1.8 1.8zm10.3-2.3h-7.53c-.24-1.32-1.38-2.3-2.76-2.3-1.36-.02-2.5.98-2.74 2.3H.5c-.28 0-.5.22-.5.5 0 .27.22.5.5.5h5.96C6.7 17 7.84 18 9.2 18c1.4 0 2.54-1 2.77-2.3h7.53c.28 0 .5-.23.5-.5 0-.28-.22-.5-.5-.5z"/></g></svg>