<svg xmlns="http://www.w3.org/2000/svg" width="18" height="14" viewBox="0 0 18 14"><path d="M17.23 1.66c-.64.28-1.32.47-2.03.55.73-.42 1.3-1.12 1.55-1.94-.68.4-1.44.7-2.24.86C13.87.42 12.95 0 11.94 0 9.97 0 8.4 1.58 8.4 3.53c0 .28.02.55.08.8C5.55 4.2 2.94 2.8 1.2.66.9 1.17.72 1.78.72 2.42c0 1.23.62 2.3 1.57 2.95-.6-.02-1.13-.18-1.6-.45v.05c0 1.7 1.2 3.14 2.83 3.46-.3.08-.6.13-.93.13-.23 0-.45-.02-.67-.07.45 1.4 1.76 2.42 3.3 2.45-1.2.95-2.73 1.5-4.4 1.5-.27 0-.55 0-.83-.04 1.56 1 3.42 1.6 5.42 1.6 6.5 0 10.05-5.4 10.05-10.06V3.5c.68-.5 1.28-1.13 1.76-1.84"/></svg>