<svg width="46" height="46" viewBox="0 0 46 46" xmlns="http://www.w3.org/2000/svg"><title>Twitter</title><g fill-rule="evenodd"><circle stroke="currentColor" cx="22.845" cy="22.792" r="22"/><path d="M34.842 15.35c-.883.392-1.83.656-2.827.775 1.016-.61 1.797-1.574 2.165-2.723-.952.564-2.005.974-3.127 1.194-.898-.956-2.177-1.554-3.593-1.554-2.718 0-4.922 2.204-4.922 4.923 0 .385.043.76.127 1.12-4.09-.204-7.72-2.164-10.146-5.142-.425.727-.668 1.573-.668 2.475 0 1.708.87 3.215 2.19 4.097-.807-.025-1.566-.247-2.23-.616v.06c0 2.387 1.697 4.376 3.95 4.828-.414.113-.85.173-1.298.173-.317 0-.626-.03-.927-.087.627 1.955 2.445 3.38 4.6 3.418-1.686 1.322-3.808 2.11-6.115 2.11-.397 0-.79-.025-1.174-.07 2.18 1.396 4.766 2.212 7.546 2.212 9.055 0 14.006-7.5 14.006-14.007 0-.213-.004-.425-.014-.637.962-.694 1.796-1.56 2.456-2.548" fill="currentColor"/></g></svg>