<svg width="46" height="46" viewBox="0 0 46 46" xmlns="http://www.w3.org/2000/svg"><title>Twitter</title><g fill-rule="evenodd"><circle stroke="currentColor" cx="22.85" cy="22.79" r="22"/><path d="M34.84 15.35c-.88.4-1.83.66-2.82.78 1-.6 1.8-1.58 2.16-2.73-.95.57-2 .98-3.13 1.2-.9-.96-2.17-1.56-3.6-1.56-2.7 0-4.9 2.2-4.9 4.92 0 .4.03.77.1 1.13-4.08-.22-7.7-2.18-10.13-5.16-.43.73-.67 1.58-.67 2.48 0 1.7.87 3.2 2.2 4.1-.82-.03-1.57-.25-2.24-.62v.06c0 2.4 1.7 4.38 3.96 4.83-.4.1-.85.16-1.3.16-.3 0-.62-.03-.92-.1.62 1.97 2.44 3.4 4.6 3.43-1.7 1.3-3.8 2.1-6.12 2.1-.4 0-.8-.02-1.17-.07 2.18 1.4 4.76 2.2 7.54 2.2 9.05 0 14-7.5 14-14v-.63c.95-.7 1.78-1.56 2.44-2.55" fill="currentColor"/></g></svg>