<svg xmlns="http://www.w3.org/2000/svg" width="24" height="24" viewBox="0 0 24 24"><path d="M22.46 6c-.77.35-1.6.58-2.46.7.88-.54 1.56-1.38 1.88-2.4-.83.5-1.75.86-2.72 1.06C18.36 4.5 17.26 4 16 4c-2.35 0-4.27 1.92-4.27 4.3 0 .33.04.66.1.97C8.3 9.1 5.12 7.37 3 4.8c-.37.62-.58 1.36-.58 2.14 0 1.5.75 2.8 1.9 3.56-.7 0-1.36-.2-1.94-.5v.03c0 2.08 1.48 3.82 3.44 4.2-.36.1-.74.16-1.13.16-.28 0-.55-.04-.8-.1.53 1.7 2.1 2.96 4 3-1.47 1.15-3.32 1.83-5.34 1.83-.34 0-.68-.02-1.02-.06C3.44 20.3 5.7 21 8.12 21c7.88 0 12.2-6.54 12.2-12.2v-.57c.84-.6 1.56-1.36 2.14-2.23z"/></svg>