<svg xmlns="http://www.w3.org/2000/svg" width="75" height="75" viewBox="0 0 75 75"><g fill="none"><path fill="#5E9C43" d="M31.9 38.47l4.8 4.08c.3.23.63.35.98.35s.7-.12.98-.35l4.73-4L55.05 49.6H20.13L31.9 38.48zm-2.34-1.96L18.02 47.46V26.77l11.54 9.74zm27.78-9.73V47.6l-11.63-11 11.64-9.83zM37.68 39.4L20.65 25.03h34.07l-17.04 14.4zm22.6 12.2l.02-.08c.04-.13.06-.26.06-.4V23.45l-.02-.16-.03-.14-.03-.15-.06-.14-.06-.13-.1-.13-.03-.06-.04-.04-.1-.12-.12-.1-.13-.07-.1-.05-.15-.06-.14-.05-.13-.03h-.16l-.05-.02H16.46c-.05 0-.1 0-.16.02l-.14.03-.15.04-.12.04-.13.07-.13.1-.1.08-.12.1-.04.06-.05.06-.08.13-.06.13-.06.13-.05.14-.03.14v.16l-.02.07V51.14c0 .83.68 1.5 1.5 1.5h42.35c.1 0 .2 0 .3-.02.1 0 .2-.04.3-.08.12-.06.23-.13.33-.2l.07-.07c.1-.1.2-.18.26-.3h.02c.07-.1.12-.22.16-.34z"/><path fill="#D9E1DE" d="M37.57 75h-.15C17.22 74.96.72 58.87.02 38.83v-2.65C.72 16.1 17.26 0 37.5 0 58.17 0 75 16.83 75 37.5 75 58.15 58.22 74.96 37.57 75M37.5 3.85c-18.56 0-33.65 15.1-33.65 33.65 0 18.56 15.1 33.65 33.65 33.65 18.55 0 33.65-15.1 33.65-33.65 0-18.55-15.1-33.65-33.65-33.65"/></g></svg>