<svg width="46" height="46" viewBox="0 0 46 46" xmlns="http://www.w3.org/2000/svg"><title>You Tube</title><g transform="translate(0 1)" fill-rule="evenodd"><circle stroke="currentColor" cx="22.889" cy="22.329" r="22"/><path d="M34.152 30.273V14.385c0-2.24-1.704-4.056-3.807-4.056h-14.91c-2.104 0-3.808 1.815-3.808 4.055v15.888c0 2.24 1.704 4.056 3.807 4.056h14.91c2.104 0 3.808-1.817 3.808-4.057zm-12.61-16.838l-1.27 4.137v2.934H19.18v-2.802l-1.3-4.27h1.1l.71 2.828h.067l.676-2.827h1.11zm2.766 5.77c0 .447-.126.797-.377 1.05-.25.255-.596.382-1.037.382-.424 0-.764-.13-1.018-.393-.255-.262-.382-.615-.382-1.058v-2.703c0-.404.13-.726.392-.965.26-.24.61-.36 1.052-.36.4 0 .73.127.986.38.257.25.385.576.385.974v2.694zm3.59 1.3h-.97v-.575c-.178.212-.364.374-.557.485-.192.11-.38.166-.562.166-.224 0-.393-.077-.507-.232-.112-.155-.17-.388-.17-.698v-4.36h.97v3.998c0 .124.02.213.06.27.042.054.108.082.2.082.07 0 .16-.037.27-.11.108-.073.208-.167.3-.28v-3.96h.97v5.216zm2.982 6.113c.003.997-.03 1.995-.106 2.992 0 1.26-1.034 2.282-2.308 2.282-1.818.076-3.68.11-5.576.106-1.898.003-3.76-.03-5.577-.106-1.274 0-2.308-1.022-2.308-2.282-.077-.997-.11-1.995-.107-2.992-.003-.998.03-1.995.107-2.993 0-1.26 1.034-2.28 2.308-2.28 1.818-.077 3.68-.11 5.577-.107 1.897-.004 3.758.03 5.576.106 1.274 0 2.308 1.022 2.308 2.28.076 1 .11 1.996.106 2.994zm-1.685 3.168c.243-.27.364-.672.364-1.207v-.393h-1v.363c0 .307-.03.505-.095.595-.064.09-.176.135-.337.135-.154 0-.263-.054-.327-.16-.063-.106-.095-.296-.095-.57v-.984h1.854v-1.328c0-.495-.12-.874-.358-1.138-.238-.264-.58-.396-1.022-.396-.434 0-.788.143-1.062.428-.274.285-.41.653-.41 1.106v2.34c0 .503.124.898.373 1.184.25.287.592.43 1.026.43.483 0 .846-.135 1.09-.406zm-1.49-3.03v-.528c0-.218.033-.374.1-.47.068-.093.178-.14.333-.14.147 0 .255.047.322.14.068.096.1.252.1.47v.528h-.855zm-1.958 3.066c.152-.197.228-.48.228-.85v-2.895c0-.426-.08-.75-.242-.973-.162-.222-.396-.334-.703-.334-.15 0-.3.04-.446.124-.147.083-.286.204-.416.363v-2.275h-.98v7.07h.98v-.402c.127.16.265.277.414.353.148.076.317.114.507.114.286 0 .505-.098.657-.295zm-.77-.993c0 .165-.028.285-.084.358-.056.074-.143.11-.26.11-.083 0-.162-.018-.236-.056-.074-.037-.15-.098-.23-.183v-3.252c.067-.07.133-.124.2-.158.068-.034.136-.052.206-.052.13 0 .232.046.3.137.07.09.104.225.104.4v2.694zm-3.704 1.22h.97v-5.214h-.97v3.96c-.09.113-.19.206-.3.28-.11.073-.2.11-.27.11-.09 0-.157-.028-.197-.084-.04-.055-.06-.144-.06-.268v-3.998h-.97v4.36c0 .31.056.542.17.698.113.155.282.233.506.233.182 0 .37-.056.563-.167.194-.11.38-.272.558-.484v.575zM18.36 24.01h1.128v-1.026h-3.35v1.026h1.128v6.043h1.093V24.01zm4.843-4.394c.078-.08.116-.19.116-.33v-2.84c0-.114-.04-.207-.12-.277-.078-.07-.182-.105-.31-.105-.118 0-.214.035-.288.105-.074.07-.11.163-.11.276v2.84c0 .144.033.255.102.334.07.078.168.116.296.116.132 0 .236-.04.313-.12z" fill="currentColor"/></g></svg>