<svg width="46" height="46" viewBox="0 0 46 46" xmlns="http://www.w3.org/2000/svg"><title>You Tube</title><g transform="translate(0 1)" fill-rule="evenodd"><circle stroke="currentColor" cx="22.89" cy="22.33" r="22"/><path d="M34.15 30.27v-15.9c0-2.22-1.7-4.04-3.8-4.04H15.43c-2.1 0-3.8 1.82-3.8 4.05v15.9c0 2.23 1.7 4.05 3.8 4.05h14.92c2.1 0 3.8-1.82 3.8-4.06zm-12.6-16.83l-1.28 4.13v2.94h-1.1v-2.8l-1.3-4.26h1.1l.72 2.82h.06l.67-2.82h1.1zm2.76 5.77c0 .45-.12.8-.37 1.06-.25.25-.6.38-1.04.38-.43 0-.77-.13-1.03-.4-.25-.26-.38-.6-.38-1.05v-2.72c0-.4.12-.72.38-.96.27-.24.62-.36 1.06-.36.4 0 .73.12.98.38.26.25.4.57.4.97v2.7zm3.6 1.3h-.97v-.57c-.18.2-.37.37-.56.48-.2.13-.38.18-.56.18-.22 0-.38-.08-.5-.23-.1-.16-.17-.4-.17-.7V15.3h.97v4c0 .1.02.2.06.26.04.05.1.08.2.08.07 0 .16-.04.27-.1.1-.08.2-.18.3-.3V15.3h.97v5.2zm2.98 6.12c0 1-.03 2-.1 3 0 1.25-1.04 2.27-2.3 2.27-1.83.07-3.7.1-5.6.1-1.9 0-3.75-.03-5.57-.1-1.26 0-2.3-1.03-2.3-2.3-.07-1-.1-1.98-.1-2.98s.03-2 .1-3c0-1.25 1.04-2.28 2.3-2.28 1.83-.07 3.7-.1 5.6-.1 1.9 0 3.75.03 5.57.1 1.27 0 2.3 1.03 2.3 2.3.08.98.1 1.98.1 2.98zm-1.7 3.17c.26-.28.38-.7.38-1.22v-.4h-1v.37c0 .3-.03.5-.1.6-.06.08-.17.13-.33.13s-.27-.05-.33-.16c-.06-.1-.1-.3-.1-.57v-.98h1.86v-1.33c0-.5-.12-.88-.36-1.14-.24-.26-.58-.4-1.02-.4-.43 0-.8.15-1.06.43-.28.3-.4.66-.4 1.1v2.35c0 .5.1.9.36 1.18.25.3.6.43 1.03.43.5 0 .85-.14 1.1-.4zm-1.48-3.04v-.53c0-.22.04-.38.1-.47.07-.1.18-.14.34-.14.15 0 .25.04.32.14s.1.25.1.47v.53h-.86zm-1.95 3.06c.15-.2.23-.48.23-.85v-2.9c0-.42-.1-.74-.25-.97-.16-.22-.4-.33-.7-.33-.15 0-.3.04-.45.12-.14.08-.28.2-.4.36v-2.28h-1v7.07h1v-.4c.12.16.25.28.4.35.15.08.32.12.5.12.3 0 .52-.1.67-.3zm-.77-1c0 .18-.03.3-.1.37-.04.06-.13.1-.25.1-.08 0-.16-.02-.23-.06-.08-.04-.15-.1-.23-.18V25.8c.06-.06.13-.12.2-.15s.13-.05.2-.05c.13 0 .23.04.3.14.07.1.1.22.1.4v2.7zm-3.7 1.23h.96v-5.2h-.97v3.94l-.3.28c-.1.07-.2.1-.27.1-.1 0-.15-.02-.2-.08-.04-.05-.06-.14-.06-.27v-4h-.97v4.37c0 .3.06.54.18.7.1.15.28.23.5.23.18 0 .37-.06.57-.17.2-.1.37-.27.55-.48v.57zM18.35 24h1.13V23h-3.36V24h1.13v6.05h1.1V24zm4.84-4.4c.08-.07.12-.18.12-.32v-2.84c0-.1-.04-.2-.12-.27-.08-.07-.18-.1-.3-.1-.13 0-.22.03-.3.1-.07.07-.1.16-.1.27v2.84c0 .15.03.26.1.34.06.07.16.1.3.1.12 0 .23-.03.3-.1z" fill="currentColor"/></g></svg>