<svg xmlns="http://www.w3.org/2000/svg" xmlns:xlink="http://www.w3.org/1999/xlink" xmlns:sketch="http://www.bohemiancoding.com/sketch/ns" style="display:none;"><symbol viewBox="0 0 124 124" id="icon-boundaries"><title>boundaries</title> <!-- Generator: Sketch 3.3.3 (12081) - http://www.bohemiancoding.com/sketch -->    <g id="boundaries-Page-1" stroke-width="1" fill-rule="evenodd" sketch:type="MSPage"> <g id="boundaries-boundaries" sketch:type="MSLayerGroup"> <path d="M61.997,6.314 C31.318,6.314 6.359,31.075 6.359,61.511 C6.359,91.946 31.318,116.707 61.997,116.707 C92.676,116.707 117.635,91.946 117.635,61.511 C117.635,31.075 92.676,6.314 61.997,6.314 L61.997,6.314 L61.997,6.314 Z M61.997,123.016 C27.812,123.016 0,95.425 0,61.511 C0,27.597 27.812,0.006 61.997,0.006 C96.182,0.006 123.994,27.597 123.994,61.511 C123.994,95.425 96.182,123.016 61.997,123.016 L61.997,123.016 L61.997,123.016 Z" id="boundaries-Fill-1" sketch:type="MSShapeGroup"/> <path d="M89.6430974,43.0750564 L95.0940103,48.5259692 L95.0921026,29.3835487 L75.9490462,29.3810051 L81.4012308,34.8325538 L61.9968205,54.2356923 L42.5936821,34.8325538 L48.0445949,29.3810051 L28.9021744,29.3835487 L28.8996308,48.5266051 L34.3505436,43.0750564 L53.7543179,62.4781949 L34.3505436,81.8819692 L28.8996308,76.4310564 L28.9021744,95.5734769 L48.0445949,95.5760205 L42.5936821,90.1244718 L61.9968205,70.7213333 L81.4012308,90.1244718 L75.9490462,95.5760205 L95.0921026,95.5734769 L95.0946462,76.4304205 L89.6430974,81.8819692 L70.2393231,62.4788308 L89.6430974,43.0750564" id="boundaries-Fill-4" fill="currentColor" sketch:type="MSShapeGroup"/> </g> </g> </symbol><symbol viewBox="0 0 16 16" id="icon-checkmark"><title>Shape 2 Copy</title> <!-- Generator: Sketch 3.3.3 (12081) - http://www.bohemiancoding.com/sketch -->    <g id="checkmark-Page-1" stroke-width="1" fill-rule="evenodd" sketch:type="MSPage"> <path d="M8,0 C3.582,0 0,3.582 0,8 C0,12.418 3.582,16 8,16 C12.418,16 16,12.418 16,8 C16,3.582 12.418,0 8,0 L8,0 Z M11,4.594 L12.406,6 L7,11.406 L3.594,8 L5,6.594 L7,8.594 L11,4.594 L11,4.594 Z" id="checkmark-Shape-2-Copy" sketch:type="MSShapeGroup"/> </g> </symbol><symbol viewBox="0 0 62 62" id="icon-choose"><title>icon-choose</title> <!-- Generator: Sketch 3.3.3 (12081) - http://www.bohemiancoding.com/sketch -->    <g id="choose-Page-1" stroke-width="1" fill-rule="evenodd" sketch:type="MSPage"> <g id="choose-icon-choose" sketch:type="MSLayerGroup" transform="translate(2.000000, 2.000000)"> <path d="M29.0558172,57.7056344 C44.9596667,57.7056344 57.8983441,44.766957 57.8983441,28.8631075 C57.8983441,12.9592581 44.9596667,0.0205806452 29.0558172,0.0205806452 C13.1516559,0.0205806452 0.212978495,12.9592581 0.212978495,28.8631075 C0.212978495,44.766957 13.1516559,57.7056344 29.0558172,57.7056344" id="choose-Fill-1" sketch:type="MSShapeGroup"/> <path d="M29.0558172,57.7056344 C44.9596667,57.7056344 57.8983441,44.766957 57.8983441,28.8631075 C57.8983441,12.9592581 44.9596667,0.0205806452 29.0558172,0.0205806452 C13.1516559,0.0205806452 0.212978495,12.9592581 0.212978495,28.8631075 C0.212978495,44.766957 13.1516559,57.7056344 29.0558172,57.7056344 L29.0558172,57.7056344 Z" id="choose-Stroke-2" stroke="currentColor" stroke-width="3" sketch:type="MSShapeGroup"/> <path d="M29.0183978,19.0099677 C26.7264624,18.9953118 24.9028925,17.1586452 24.920043,14.8819892 C24.9371935,12.6377634 26.8455806,10.7696022 29.0923011,10.7979785 C31.3567957,10.8263548 33.2115484,12.7076129 33.1906559,14.9552688 C33.1697634,17.2297419 31.3228065,19.0249355 29.0183978,19.0099677" id="choose-Fill-3" fill="currentColor" sketch:type="MSShapeGroup"/> <path d="M29.0555054,19.9934731 C28.8952258,19.9934731 25.106828,20.0402473 23.517129,24.1027419 C21.7063441,28.7296452 22.8541828,40.9018495 29.0558172,47.5522043 C35.2571398,40.9018495 36.4049785,28.7296452 34.5945054,24.1027419 C33.0044946,20.0402473 29.2160968,19.9934731 29.0555054,19.9934731" id="choose-Fill-4" fill="currentColor" sketch:type="MSShapeGroup"/> <path d="M42.4531935,22.1064194 C40.7621505,22.0955054 39.4166129,20.7403011 39.4293978,19.0607957 C39.441871,17.4049892 40.8497742,16.0267097 42.5074516,16.0476022 C44.1782258,16.0684946 45.5465269,17.4564409 45.5312473,19.1150538 C45.5159677,20.793 44.1532796,22.1173333 42.4531935,22.1064194" id="choose-Fill-5" fill="currentColor" sketch:type="MSShapeGroup"/> <path d="M42.4803226,23.0634194 C42.3621398,23.0634194 39.5672258,23.0977204 38.394129,26.0953226 C37.0582581,29.5089032 37.9051828,38.4895484 42.4806344,43.3961613 C47.056086,38.4895484 47.9026989,29.5089032 46.566828,26.0953226 C45.394043,23.0977204 42.5988172,23.0634194 42.4803226,23.0634194" id="choose-Fill-6" fill="currentColor" sketch:type="MSShapeGroup"/> <path d="M15.6035591,22.1064194 C13.9125161,22.0955054 12.5669785,20.7403011 12.5797634,19.0607957 C12.5922366,17.4049892 14.0001398,16.0267097 15.6578172,16.0476022 C17.3285914,16.0684946 18.6968925,17.4564409 18.6816129,19.1150538 C18.6663333,20.793 17.3036452,22.1173333 15.6035591,22.1064194" id="choose-Fill-7" fill="currentColor" sketch:type="MSShapeGroup"/> <path d="M15.6306882,23.0634194 C15.5125054,23.0634194 12.7175914,23.0977204 11.5444946,26.0953226 C10.2086237,29.5089032 11.0555484,38.4895484 15.631,43.3961613 C20.2064516,38.4895484 21.0530645,29.5089032 19.7171935,26.0953226 C18.5444086,23.0977204 15.7491828,23.0634194 15.6306882,23.0634194" id="choose-Fill-8" fill="currentColor" sketch:type="MSShapeGroup"/> </g> </g> </symbol><symbol viewBox="0 0 31 15" id="icon-distribution"><title>Distribution</title> <!-- Generator: Sketch 3.3.3 (12072) - http://www.bohemiancoding.com/sketch -->    <g id="distribution-Page-1" stroke-width="1" fill-rule="evenodd" sketch:type="MSPage"> <g id="distribution-distribution" sketch:type="MSLayerGroup" transform="translate(0.000000, -3.000000)"> <g id="distribution-lines" transform="translate(20.000000, 4.000000)" stroke="currentColor" stroke-width="2" stroke-linecap="square" sketch:type="MSShapeGroup"> <path d="M1,0.5 L1,12.5" id="distribution-Line"/> <path d="M5,0.5 L5,12.5" id="distribution-Line-Copy-4"/> <path d="M9,0.5 L9,12.5" id="distribution-Line-Copy-3"/> </g> <text id="distribution-Type-something" sketch:type="MSTextLayer" font-family="PostGrotesk" font-size="18" font-weight="normal" fill="currentColor"> <tspan x="0" y="17">%</tspan> </text> </g> </g> </symbol><symbol viewBox="0 0 46 46" id="icon-facebook"><title>Facebook</title> <!-- Generator: Sketch 3.3.3 (12081) - http://www.bohemiancoding.com/sketch -->    <g id="facebook-Page-1" stroke-width="1" fill-rule="evenodd" sketch:type="MSPage"> <g id="facebook-Facebook" sketch:type="MSLayerGroup"> <circle id="facebook-Oval-1" stroke="currentColor" sketch:type="MSShapeGroup" cx="22.7991621" cy="22.5525" r="22"/> <path d="M30.7424276,9.76750015 L14.8558965,9.76750015 C12.6159364,9.76750015 10.8,11.7024462 10.8,14.0888796 L10.8,31.0161204 C10.8,33.4025538 12.6159364,35.3374998 14.8558965,35.3374998 L22.6352118,35.3374998 L22.6352118,24.9220807 L20.0698479,24.9220807 L20.0698479,21.4071368 L22.6352118,21.4071368 L22.6352118,18.5950152 C22.6352118,18.0806941 22.5378403,14.639403 26.6711347,14.639403 L29.7329268,14.639403 L29.7329268,18.2188451 L27.4422003,18.2188451 C27.0181767,18.2188451 26.5887435,18.6919706 26.5887435,19.0431737 L26.5887435,21.3934049 L29.5839567,21.3934049 C29.4641149,23.1964417 29.2169411,24.9220807 29.2169411,24.9220807 L26.5737633,24.9220807 L26.5737633,35.3374998 L30.7424276,35.3374998 C32.9823877,35.3374998 34.7983242,33.4025538 34.7983242,31.0161204 L34.7983242,14.0888796 C34.7983242,11.7024462 32.9823877,9.76750015 30.7424276,9.76750015" id="facebook-Fill-2" fill="currentColor" sketch:type="MSShapeGroup"/> </g> </g> </symbol><symbol viewBox="0 0 17 17" id="icon-filter"><title>Slice 1 Copy 6</title> <!-- Generator: Sketch 3.3.3 (12072) - http://www.bohemiancoding.com/sketch -->    <g id="filter-Page-1" stroke-width="1" fill-rule="evenodd" sketch:type="MSPage"> <g id="filter-filters" sketch:type="MSLayerGroup" stroke-width="2"> <path d="M15.5,4 L1.4375,4" id="filter-Line" stroke-linecap="square" sketch:type="MSShapeGroup"/> <path d="M15.5,12 L1.4375,12" id="filter-Line-2" stroke-linecap="square" sketch:type="MSShapeGroup"/> <circle id="filter-Oval-138" fill="#FFFFFF" sketch:type="MSShapeGroup" cx="10.5" cy="4.5" r="2.5"/> <circle id="filter-Oval-139" fill="#FFFFFF" sketch:type="MSShapeGroup" cx="6.5" cy="12.5" r="2.5"/> </g> </g> </symbol><symbol viewBox="0 0 26 26" id="icon-globe"><title>Slice 1 Copy 4</title> <!-- Generator: Sketch 3.3.3 (12072) - http://www.bohemiancoding.com/sketch -->    <g id="globe-Page-1" stroke-width="1" fill-rule="evenodd" sketch:type="MSPage"> <g id="globe-globe" sketch:type="MSLayerGroup"> <path d="M25,13.0002759 C25,6.37281317 19.6277386,1 13.0002759,1 C6.37281317,1 1,6.37281317 1,13.0002759 C1,19.6277386 6.37281317,25 13.0002759,25 C19.6277386,25 25,19.6277386 25,13.0002759 L25,13.0002759 Z M18.4420561,13.5415297 C18.3443987,14.9843215 17.9190096,16.4226994 17.1675441,17.8505943 C15.8831008,17.580795 14.6703832,17.452792 13.5558748,17.4180326 L13.5558748,13.5415297 L18.4420561,13.5415297 L18.4420561,13.5415297 Z M13.5558748,12.4292283 L13.5558748,8.55217361 C14.6913492,8.51686246 15.9283432,8.38499736 17.2398216,8.10416331 C17.8848019,9.35770937 18.3675717,10.8043633 18.4519874,12.3977793 C18.4525391,12.4082623 18.4525391,12.4187453 18.4530909,12.4292283 L13.5558748,12.4292283 L13.5558748,12.4292283 Z M16.5782892,18.8652383 C15.8058576,20.0790593 14.7983862,21.2840525 13.5558748,22.475804 L13.5558748,18.5314375 C14.5076209,18.5612313 15.5195062,18.6633026 16.5782892,18.8652383 L16.5782892,18.8652383 Z M17.7286604,19.1206924 C18.5049541,19.3176625 19.3027656,19.5742201 20.1165774,19.8920205 C18.7278558,21.3254328 16.9120899,22.341732 14.8756293,22.7334651 C16.0425527,21.545024 16.9948505,20.3394791 17.7286604,19.1206924 L17.7286604,19.1206924 Z M13.5558748,3.49550564 C14.2659601,4.10903699 15.5724729,5.36092784 16.6599462,7.08841583 C15.559783,7.30304145 14.5192073,7.40787145 13.5558748,7.43987218 L13.5558748,3.49550564 L13.5558748,3.49550564 Z M20.0956114,6.08646176 C19.3182142,6.3882618 18.5568174,6.631026 17.8169383,6.82247868 C16.9087795,5.2869951 15.8202028,4.08531231 14.9881836,3.28694913 C16.9689188,3.69137222 18.7350284,4.6905676 20.0956114,6.08646176 L20.0956114,6.08646176 Z M20.8674912,6.97751672 C22.0410354,8.50693119 22.779811,10.3855951 22.8962275,12.4292283 L19.5653923,12.4292283 C19.5637371,12.396124 19.5637371,12.3630198 19.5620819,12.3299156 C19.4721488,10.6570496 19.0004138,9.14639417 18.3603991,7.83105359 C19.1747626,7.60925539 20.0128509,7.32842134 20.8674912,6.97751672 L20.8674912,6.97751672 Z M22.8984344,13.5415297 C22.7880871,15.5862664 22.0542771,17.4671372 20.8851468,18.9998621 C19.9968505,18.6340606 19.1273133,18.3443987 18.2826042,18.1176349 C19.0395871,16.6086347 19.4649762,15.0814272 19.5571163,13.5415297 L22.8984344,13.5415297 L22.8984344,13.5415297 Z M5.12202579,19.0092416 C3.94903331,17.4748615 3.21246465,15.5901285 3.10156555,13.5415297 L6.44343548,13.5415297 C6.53502379,15.0703924 6.95710246,16.5876687 7.7069128,18.0861859 C6.29225959,18.4657808 5.37968689,18.8839973 5.12202579,19.0092416 L5.12202579,19.0092416 Z M8.26361526,19.096416 C9.0029426,20.3251339 9.96517161,21.5395067 11.1458884,22.7373273 C9.0989448,22.3483528 7.27324766,21.3281915 5.87900871,19.8870549 C6.30053564,19.7049817 7.12483046,19.3827674 8.26361526,19.096416 L8.26361526,19.096416 Z M3.1037725,12.4292283 C3.22074071,10.3822847 3.96172326,8.50031035 5.13912964,6.96924067 C5.41168763,7.10055404 6.28674222,7.49670107 7.62911791,7.86305432 C6.99462057,9.17122233 6.52729948,10.6713947 6.43791811,12.3326743 C6.4362629,12.3646751 6.43571117,12.3972275 6.43460769,12.4292283 L3.1037725,12.4292283 L3.1037725,12.4292283 Z M5.89887124,6.09253086 C7.26497161,4.68836065 9.04101244,3.68585485 11.0327824,3.28308697 C10.190832,4.08696752 9.08680659,5.301892 8.16982,6.85503115 C7.09779535,6.57805927 6.3148808,6.27184533 5.89887124,6.09253086 L5.89887124,6.09253086 Z M12.4441252,3.51260949 L12.4441252,7.44594129 C11.5083795,7.42332008 10.6669809,7.33614566 9.94420561,7.22303961 C9.73233867,7.18938366 9.52985126,7.15296903 9.33067427,7.11489919 C10.4159406,5.39016989 11.7235569,4.13496862 12.4441252,3.51260949 L12.4441252,3.51260949 Z M12.4441252,8.55824272 L12.4441252,12.4292283 L7.54690912,12.4292283 C7.54746086,12.419297 7.54746086,12.4099175 7.5480126,12.3999862 C7.63132486,10.8181567 8.10968068,9.38088232 8.7496954,8.13340537 C9.05866802,8.19851031 9.38253753,8.25920136 9.72351089,8.31382331 C10.5086324,8.43906756 11.4239638,8.53562151 12.4441252,8.55824272 L12.4441252,8.55824272 Z M12.4441252,13.5415297 L12.4441252,17.413067 C11.4245155,17.4362399 10.5080806,17.5316904 9.72351089,17.6563829 C9.4090209,17.706591 9.10997954,17.7628681 8.82252466,17.8224557 C8.07767995,16.4033886 7.65560128,14.9743902 7.55794386,13.5415297 L12.4441252,13.5415297 L12.4441252,13.5415297 Z M12.4441252,18.5292306 L12.4441252,22.4564933 C11.1994069,21.26419 10.1897285,20.0591968 9.41674521,18.8453758 C10.3055932,18.6804064 11.3240994,18.5584726 12.4441252,18.5292306 L12.4441252,18.5292306 Z" sketch:type="MSShapeGroup"/> </g> </g> </symbol><symbol viewBox="0 0 24 24" id="icon-half-star"><title>Half-star Icon</title> <rect width="24" height="24"/>  <g id="half-star-Page-1" sketch:type="MSPage"> <g id="half-star-half-star" sketch:type="MSLayerGroup"> <path id="half-star-Shape-Copy-4" sketch:type="MSShapeGroup" fill="#EFEFEF" d="M12,0l2.832,9.168H24l-7.416,5.665L19.416,24L12,18.335L4.583,24l2.833-9.167L0,9.168h9.167L12,0z"/> <path id="half-star-Shape-Copy-3" sketch:type="MSShapeGroup" fill="currentColor" d="M12,0v18.335L4.583,24l2.833-9.167L0,9.168h9.167L12,0z"/> </g> </g> </symbol><symbol viewBox="0 0 124 124" id="icon-hand-up"><title>hand_up</title> <!-- Generator: Sketch 3.3.3 (12081) - http://www.bohemiancoding.com/sketch -->    <g id="hand-up-Page-1" stroke-width="1" fill-rule="evenodd" sketch:type="MSPage"> <g id="hand-up-hand_up" sketch:type="MSLayerGroup"> <path d="M61.997,6.314 C31.318,6.314 6.359,31.075 6.359,61.511 C6.359,91.946 31.318,116.707 61.997,116.707 C92.676,116.707 117.635,91.946 117.635,61.511 C117.635,31.075 92.676,6.314 61.997,6.314 L61.997,6.314 L61.997,6.314 Z M61.997,123.016 C27.812,123.016 0,95.425 0,61.511 C0,27.597 27.812,0.006 61.997,0.006 C96.182,0.006 123.994,27.597 123.994,61.511 C123.994,95.425 96.182,123.016 61.997,123.016 L61.997,123.016 L61.997,123.016 Z" id="hand-up-Fill-1" sketch:type="MSShapeGroup"/> <path d="M94.7601641,65.7276308 C92.708759,63.6444308 89.7085949,63.6622359 87.7048821,65.7975795 C85.1810051,68.4861538 82.676841,72.384841 80.1593231,75.0810462 C79.936759,75.3195077 79.6785846,75.5236308 79.2887795,75.8765538 L79.2887795,74.3707487 C79.2887795,60.9253333 79.2932308,46.2901538 79.2741538,32.8441026 C79.2735179,32.1484308 79.2003897,31.3936205 78.9269538,30.7672615 C78.0735795,28.8080615 75.968759,27.8694769 73.7755487,28.3514872 C71.6751795,28.8131487 70.4014769,30.4022564 70.4002051,32.6170872 C70.3932103,41.223959 70.3970256,49.8314667 70.3976615,58.4383385 L70.3976615,59.8334974 L67.6226051,59.8334974 L67.6226051,58.4523282 C67.6226051,46.9489436 67.6321436,35.4474667 67.6016205,23.9453538 C67.6003487,23.1822769 67.4458256,22.3435282 67.1030769,21.6732923 C66.1460513,19.8037538 64.0564923,19.0165128 61.9147897,19.5729231 C59.9002667,20.0956308 58.7270359,21.6593026 58.7264,23.8709538 C58.7219487,35.3730667 58.7244923,46.8751795 58.7244923,58.3779282 L58.7244923,59.8500308 L56.5160205,59.8500308 L56.5160205,58.3938256 C56.5166564,48.6766769 56.4645128,38.9588923 56.5541744,29.2423795 C56.5764308,26.9029128 54.8429744,24.6397538 52.0170462,24.6645538 C49.4003282,24.6874462 47.6191795,26.5429949 47.6185436,29.2290256 C47.6166359,38.9868718 47.6179077,48.7440821 47.6179077,58.5006564 L47.6179077,59.8710154 L45.7629949,59.8710154 L45.7629949,58.4326154 C45.7629949,51.491159 45.7757128,44.5503385 45.7451897,37.6095179 C45.7420103,36.8801436 45.6345436,36.0795487 45.3197744,35.4372923 C44.3595692,33.4812718 42.2216821,32.6565128 39.9559795,33.2339077 C38.1303179,33.6987487 36.8845949,35.4277538 36.883959,37.5224 C36.8820513,52.8316308 36.8394462,68.1414974 36.9163897,83.452 C36.933559,86.8476923 37.1542154,87.5675282 37.6699282,90.9218872 C38.8514256,98.6016205 43.2092308,103.405826 50.734441,104.869026 C51.4434667,105.007651 52.1524923,105.115754 52.8621538,105.210503 L52.8621538,83.4297436 L44.8275897,83.4297436 L58.9362462,69.9480821 L73.0442667,83.4297436 L65.0090667,83.4297436 L65.0090667,104.937703 C71.3457846,103.690708 75.8434872,100.183733 79.9844513,94.3805333 C83.8087385,89.1598154 87.079159,84.9883282 90.6268308,78.9377641 C92.1892308,76.2714462 93.7668923,73.6133949 95.3102154,70.9356308 C96.4554667,68.9452718 96.255159,67.2467897 94.7601641,65.7276308" id="hand-up-Fill-4" fill="currentColor" sketch:type="MSShapeGroup"/> </g> </g> </symbol><symbol viewBox="0 0 26 17" id="icon-handshake"><title>Slice 1 Copy 3</title> <!-- Generator: Sketch 3.3.3 (12072) - http://www.bohemiancoding.com/sketch -->    <g id="handshake-Page-1" stroke-width="1" fill-rule="evenodd" sketch:type="MSPage"> <g id="handshake-handshake" sketch:type="MSLayerGroup"> <g id="handshake-Group" transform="translate(1.000000, 1.000000)" sketch:type="MSShapeGroup"> <path d="M6.05754007,7.54037089 L6.04191907,7.52474989 C5.85332407,7.34034589 5.60338807,7.23899989 5.33783108,7.23899989 C5.06351108,7.23899989 4.80747909,7.34606089 4.61736009,7.54075189 L2.95315211,9.22972486 C2.56529412,9.62672686 2.57253312,10.2656638 2.96991611,10.6535218 L2.98591811,10.6691428 C3.17451311,10.8535468 3.42406811,10.9548928 3.6900061,10.9548928 C3.9643261,10.9548928 4.2199771,10.8478318 4.41009609,10.6531408 L6.07430407,8.96378687 C6.46178106,8.56754687 6.45492306,7.92860988 6.05754007,7.54037089 L6.05754007,7.54037089 Z" id="handshake-Shape"/> <path d="M7.96220453,9.06437086 L7.94620253,9.04874986 C7.75760753,8.86472687 7.50805254,8.76299987 7.24249554,8.76299987 C6.96779454,8.76299987 6.71214355,8.87006087 6.52164355,9.06475186 L4.85819758,10.7544868 C4.47033958,11.1511078 4.47757858,11.7900448 4.87458058,12.1782838 L4.89058258,12.1935238 C5.07917757,12.3779278 5.32911357,12.4796548 5.59467057,12.4796548 C5.86899056,12.4796548 6.12502256,12.3725938 6.31514155,12.1779028 L7.97896853,10.4881678 C8.36682652,10.0915468 8.35920652,9.45260986 7.96220453,9.06437086 L7.96220453,9.06437086 Z" id="handshake-Shape"/> <path d="M10.248921,10.2073708 L10.232538,10.1913688 C10.044324,10.0073458 9.79438801,9.90599985 9.52845002,9.90599985 C9.25413002,9.90599985 8.99847902,10.0130608 8.80836003,10.2077518 L7.14415205,11.8971058 C6.75629406,12.2941078 6.76353306,12.9330448 7.16091605,13.3209028 L7.17691805,13.3365238 C7.36513205,13.5205468 7.61506804,13.6222738 7.88100604,13.6222738 C8.15532604,13.6222738 8.41097703,13.5152128 8.60147703,13.3205218 L10.265304,11.6307868 C10.653162,11.2341658 10.645542,10.5952288 10.248921,10.2073708 L10.248921,10.2073708 Z" id="handshake-Shape"/> <path d="M12.1537305,11.7313708 L12.1373475,11.7149878 C11.9491335,11.5313458 11.6995785,11.4299998 11.4336405,11.4299998 C11.1593205,11.4299998 10.9036695,11.5370608 10.7131695,11.7317518 L9.04934252,13.4211058 C8.66110353,13.8177268 8.66872353,14.4566638 9.06572552,14.8449028 L9.08210852,14.8605238 C9.27032252,15.0445468 9.52025852,15.1462738 9.78581551,15.1462738 C10.0601355,15.1462738 10.3161675,15.0392128 10.5062865,14.8445218 L12.1701135,13.1547868 C12.5583525,12.7581658 12.5507325,12.1192288 12.1537305,11.7313708 L12.1537305,11.7313708 Z" id="handshake-Shape"/> <path d="M14.0085622,4.34873393 C12.2460563,6.01637091 10.8816953,6.6396869 10.8237833,6.6659759 L10.8123533,6.6701669 C10.5498443,6.7536059 10.2366623,6.7974209 9.9070973,6.7974209 C9.48875931,6.7974209 9.14319231,6.7284599 8.97402831,6.6694049 C8.63265232,6.5501519 8.05048433,5.98817691 7.79902433,5.53554892 C7.53994433,5.06920492 7.76511533,4.36321193 7.77540233,4.33349393 L7.78340333,4.30720494 L11.6516963,0.65912999 C11.4665303,0.474344993 11.0988653,0.380999994 10.5570833,0.380999994 C9.07956531,0.380999994 6.84309535,1.09537498 6.71774635,1.13576098 C6.54934435,1.21043698 6.30512335,1.24853698 5.99194136,1.24853698 C5.43225237,1.24853698 4.82493838,1.13080798 4.72778338,1.11137698 L4.72473538,1.11137698 C4.39669438,1.11137698 3.53715839,0.595502991 3.3988554,0.510920992 C3.2582664,0.461390993 3.1249164,0.435863993 3.0033774,0.435863993 C2.67266941,0.435863993 2.51684041,0.620267991 2.48788441,0.65798699 L0.623270439,4.91223293 C0.0380544475,6.01332291 -0.00461755186,6.3337439 0.000335448064,6.4156589 C1.02408243,6.6644519 2.38120441,8.13473088 2.71838941,8.51458787 L4.65920338,6.6183509 L4.69006438,6.6118739 C4.85503738,6.5772029 5.01429537,6.5592959 5.16326637,6.5592959 C6.35655835,6.5592959 6.69069535,7.66076688 6.76651435,8.01090588 C6.86443134,8.00138088 6.96006234,7.99642788 7.05150234,7.99642788 C8.46386932,7.99642788 8.75800132,9.12723586 8.81705632,9.51318886 C9.01403331,9.47356486 9.20072331,9.45375286 9.37445931,9.45375286 C10.6694783,9.45375286 10.9678013,10.5411268 11.0314283,10.9065058 C11.7126563,10.8036358 12.2369123,10.9499398 12.5881943,11.3366548 C13.1471213,11.9504458 13.0598723,12.9448558 13.0560623,12.9867658 L13.0526333,13.0252468 L11.1312503,14.9771098 C11.3994743,15.1199848 11.6547443,15.1919938 11.8917263,15.1919938 C12.8427023,15.1919938 13.2564682,14.0215618 13.2606592,14.0093698 L13.2907582,13.9221208 L13.3818172,13.9385038 C13.5406942,13.9666978 13.6919512,13.9811758 13.8317782,13.9811758 C15.1157482,13.9811758 15.1816612,12.7684528 15.1839472,12.7173988 L15.1896622,12.5832868 L15.3195832,12.6168148 C15.5775202,12.6834898 15.8186932,12.7173988 16.0358632,12.7173988 C17.3735542,12.7173988 17.5072852,11.4574318 17.5122382,11.4040918 L17.5232872,11.2859818 L17.6398732,11.3076988 C17.8383742,11.3450368 18.0235402,11.3633248 18.1907992,11.3633248 C18.6380932,11.3633248 18.9737542,11.2303558 19.1878762,10.9686088 C19.6012612,10.4637838 19.4522902,9.63548986 19.4435272,9.58786486 C19.0930072,8.19302388 14.6356882,4.81812593 14.0085622,4.34873393 L14.0085622,4.34873393 Z" id="handshake-Shape"/> <path d="M21.5124346,0.847724987 L21.5097676,0.834770987 C21.4004206,0.303656995 21.0761896,0.224408997 20.8929286,0.224408997 C20.8738786,0.224408997 20.8578766,0.225170997 20.8460656,0.226313997 C19.8638477,0.992123985 18.7917137,1.10718598 18.2377397,1.10718598 C18.0259037,1.10718598 17.8929347,1.09042198 17.8723607,1.08775498 C16.8905237,0.991742985 15.6766577,0.574166991 15.6256037,0.556259992 L15.6134117,0.551306992 C14.8647467,0.185546997 14.2239047,-1.77635684e-15 13.7072687,-1.77635684e-15 C13.1887278,-1.77635684e-15 12.9909888,0.195071997 12.9890838,0.197357997 C10.7701398,2.57632196 8.70359582,4.14947094 8.46699483,4.32701694 C8.09209083,5.15721592 9.07126082,5.84072991 9.19965781,5.92569291 C9.46711981,5.99084391 9.71781781,6.02360991 9.9452748,6.02360991 C10.3217028,6.02360991 10.5049638,5.93140791 10.5068688,5.93064591 L10.5316338,5.91769191 L10.5678288,5.91845391 C11.1473298,5.91845391 13.2321618,4.17728394 13.9869227,3.50634295 L14.0414057,3.45795595 L14.1069377,3.48995995 C16.6192517,4.72287593 19.7983157,8.41819487 19.9781477,8.62926887 C20.1541696,8.76261887 20.3179996,8.82967487 20.4643036,8.82967487 C20.6349916,8.82967487 20.7241456,8.73632987 20.7275746,8.73251987 L20.7382426,8.72223287 L23.3065636,6.5772029 L23.3244706,6.5707259 C23.6102206,6.4655699 23.7927196,6.31964691 23.8662526,6.13790991 C23.9500726,5.93140791 23.8632046,5.74090791 23.8620616,5.73900291 L21.5124346,0.847724987 L21.5124346,0.847724987 Z" id="handshake-Shape"/> </g> </g> </g> </symbol><symbol viewBox="0 0 124 123" id="icon-impact"><title>about_impact</title> <!-- Generator: Sketch 3.3.3 (12081) - http://www.bohemiancoding.com/sketch -->    <g id="impact-Page-1" stroke-width="1" fill-rule="evenodd" sketch:type="MSPage"> <g id="impact-about_impact" sketch:type="MSLayerGroup"> <path d="M61.997,6.314 C31.318,6.314 6.359,31.075 6.359,61.511 C6.359,91.946 31.318,116.707 61.997,116.707 C92.676,116.707 117.635,91.946 117.635,61.511 C117.635,31.075 92.676,6.314 61.997,6.314 L61.997,6.314 L61.997,6.314 Z M61.997,123.016 C27.812,123.016 0,95.425 0,61.511 C0,27.597 27.812,0.006 61.997,0.006 C96.182,0.006 123.994,27.597 123.994,61.511 C123.994,95.425 96.182,123.016 61.997,123.016 L61.997,123.016 L61.997,123.016 Z" id="impact-Fill-1" sketch:type="MSShapeGroup"/> <path d="M61.998,20.818 C47.146,20.818 34.113,28.689 26.913,40.447 C29.629,39.715 31.753,39.696 31.949,39.696 C32.364,39.696 41.387,39.785 46.419,46.508 C46.69,45.92 46.971,45.341 47.264,44.775 C48.335,44.998 49.459,45.208 50.64,45.395 C53.361,45.825 56.534,46.157 60.07,46.236 L60.07,59.548 L49.414,59.548 C49.28,60.773 49.059,62.049 48.753,63.371 L60.069,63.371 L60.069,76.687 C56.535,76.765 53.359,77.093 50.639,77.523 C49.548,77.695 48.512,77.888 47.517,78.092 C46.654,76.462 45.928,74.829 45.315,73.193 C43.732,76.693 41.708,80.439 39.244,84.423 C40.816,83.837 42.948,83.13 45.578,82.475 C48.141,86.699 51.475,90.875 55.569,94.994 C48.903,93.738 42.915,90.566 38.207,86.077 C37.231,87.606 36.197,89.167 35.097,90.764 L34.479,91.66 C41.761,98.208 51.417,102.203 61.997,102.203 C84.614,102.203 103.015,83.949 103.015,61.511 C103.015,39.073 84.614,20.818 61.998,20.818 L61.998,20.818 L61.998,20.818 Z M60.069,94.029 C55.755,89.928 52.255,85.785 49.576,81.611 C52.657,81.045 56.188,80.624 60.069,80.525 L60.069,94.029 L60.069,94.029 Z M45.253,40.381 C41.538,39.428 38.822,38.374 37.382,37.756 C42.116,32.928 48.274,29.48 55.178,28.095 C52.26,30.86 48.433,35.038 45.253,40.381 L45.253,40.381 L45.253,40.381 Z M60.069,42.41 C56.826,42.334 53.908,42.035 51.403,41.643 C50.671,41.529 49.968,41.403 49.279,41.272 C53.038,35.341 57.573,31.023 60.069,28.884 L60.069,42.41 L60.069,42.41 Z M96.3,59.548 L84.754,59.548 C84.748,59.433 84.747,59.32 84.742,59.207 C84.43,53.453 82.795,48.258 80.578,43.736 C83.4,42.973 86.305,42.007 89.267,40.8 C93.335,46.06 95.896,52.521 96.3,59.548 L96.3,59.548 L96.3,59.548 Z M86.593,37.735 C83.899,38.774 81.26,39.609 78.694,40.266 C75.546,34.986 71.774,30.853 68.889,28.108 C75.755,29.5 81.877,32.936 86.593,37.735 L86.593,37.735 L86.593,37.735 Z M63.924,28.827 C66.385,30.936 70.915,35.243 74.684,41.182 C70.87,41.92 67.262,42.28 63.924,42.391 L63.924,28.827 L63.924,28.827 Z M63.924,46.216 C67.86,46.094 72.149,45.64 76.694,44.676 C78.928,48.987 80.604,53.959 80.895,59.439 C80.897,59.477 80.897,59.512 80.899,59.549 L63.924,59.549 L63.924,46.216 L63.924,46.216 Z M63.924,63.371 L80.86,63.371 C80.522,68.334 79.048,73.28 76.444,78.191 C71.991,77.261 67.788,76.823 63.924,76.702 L63.924,63.371 L63.924,63.371 L63.924,63.371 Z M63.924,94.097 L63.924,80.531 C67.221,80.635 70.73,80.984 74.401,81.679 C71.724,85.854 68.23,89.996 63.924,94.097 L63.924,94.097 L63.924,94.097 Z M68.498,94.982 C72.545,90.894 75.844,86.749 78.388,82.558 C81.078,83.236 83.845,84.117 86.664,85.21 C81.851,90.141 75.557,93.635 68.498,94.982 L68.498,94.982 L68.498,94.982 Z M89.33,82.143 C86.25,80.885 83.236,79.888 80.309,79.11 C82.932,73.921 84.406,68.668 84.725,63.372 L96.309,63.372 C95.926,70.404 93.383,76.873 89.33,82.143 L89.33,82.143 L89.33,82.143 Z" id="impact-Fill-4" fill="currentColor" sketch:type="MSShapeGroup"/> <path d="M44.279,50.213 C40.74,43.558 32.306,43.482 31.948,43.482 C31.59,43.482 23.156,43.558 19.616,50.213 C15.586,57.793 19.849,71.076 31.948,88.627 C44.047,71.076 48.311,57.793 44.279,50.213 Z M31.949,63.354 C28.069,63.354 24.923,60.232 24.923,56.382 C24.923,52.534 28.069,49.413 31.949,49.413 C35.829,49.413 38.975,52.534 38.975,56.382 C38.975,60.232 35.829,63.354 31.949,63.354 Z" id="impact-Shape" fill="currentColor" sketch:type="MSShapeGroup"/> </g> </g> </symbol><symbol viewBox="0 0 67 29" id="icon-large-chevron-mobile"><title>Large Chevron Mobile</title> <!-- Generator: Sketch 3.3.3 (12081) - http://www.bohemiancoding.com/sketch -->    <g id="large-chevron-mobile-Page-1" stroke-width="1" fill-rule="evenodd" sketch:type="MSPage"> <path d="M1,1.02821532 L33.5194474,27 L66,1" id="large-chevron-mobile-Path-5-Copy-3" stroke-width="2" sketch:type="MSShapeGroup"/> </g> </symbol><symbol viewBox="0 0 102 43" id="icon-large-chevron"><title>Large Chevron</title> <!-- Generator: Sketch 3.3.3 (12081) - http://www.bohemiancoding.com/sketch -->    <g id="large-chevron-Page-1" stroke-width="1" fill-rule="evenodd" sketch:type="MSPage"> <path d="M1,1.04340818 L51.0299191,41 L101,1" id="large-chevron-Path-5-Copy" stroke-width="2" sketch:type="MSShapeGroup"/> </g> </symbol><symbol viewBox="0 0 50 50" id="icon-leaf"><title>Fill 4 Copy</title> <!-- Generator: Sketch 3.3.3 (12081) - http://www.bohemiancoding.com/sketch -->    <g id="leaf-Page-1" stroke-width="1" fill-rule="evenodd" sketch:type="MSPage"> <path d="M50,18.75 L50,0 L31.2499061,0 C31.2499061,0 0,0 0,31.25 L0,43.75 C0,43.75 11.358685,42.1773904 29.8150458,22.3018512 C29.8150458,22.3018512 20.8528029,43.5979811 0,50 L18.7500939,50 C18.7500939,50 50,50 50,18.75" id="leaf-Fill-4-Copy" sketch:type="MSShapeGroup"/> </g> </symbol><symbol viewBox="0 0 85 73" id="icon-leaves"><title>about_leaves</title> <!-- Generator: Sketch 3.3.3 (12081) - http://www.bohemiancoding.com/sketch -->    <g id="leaves-Page-1" stroke-width="1" fill-rule="evenodd" sketch:type="MSPage"> <g id="leaves-about_leaves" sketch:type="MSLayerGroup"> <path d="M45.418807,29.4269469 L45.418807,18.3966376 C45.418807,18.3966376 45.418807,0.0116261495 64.085651,0.0116261495 L75.2852837,0.0116261495 L75.2852837,11.0425168 C75.2852837,11.0425168 75.2852837,29.4269469 56.6184397,29.4269469 L49.1518205,29.4269469" id="leaves-Fill-1" sketch:type="MSShapeGroup"/> <path d="M39.4071239,72.7737336 L39.4071239,58.218957 C39.4071239,58.218957 39.4071239,33.9609962 14.7769314,33.9609962 L0,33.9609962 L0,48.5157727 C0,48.5157727 0,72.7737336 24.6296004,72.7737336 L34.4810854,72.7737336" id="leaves-Fill-3" sketch:type="MSShapeGroup"/> <path d="M84.8253388,48.516354 L84.8253388,33.9615775 L70.0478153,33.9615775 C70.0478153,33.9615775 45.418807,33.9615775 45.418807,58.2195383 L45.418807,67.9227227 C45.418807,67.9227227 54.3709347,66.701977 68.916958,51.2734953 C68.916958,51.2734953 61.8535398,67.8047173 45.418807,72.7743149 L60.1963304,72.7743149 C60.1963304,72.7743149 84.8253388,72.7743149 84.8253388,48.516354" id="leaves-Fill-4" sketch:type="MSShapeGroup"/> <path d="M9.54005509,11.0425168 L9.54005509,0.0116261495 L20.7396878,0.0116261495 C20.7396878,0.0116261495 39.4071239,0.0116261495 39.4071239,18.3966376 L39.4071239,25.7501772 C39.4071239,25.7501772 32.6225716,24.825317 21.5976001,13.1317358 C21.5976001,13.1317358 26.9517066,25.6606558 39.4071239,29.4275282 L28.2068991,29.4275282 C28.2068991,29.4275282 9.54005509,29.4275282 9.54005509,11.0425168" id="leaves-Fill-6" sketch:type="MSShapeGroup"/> </g> </g> </symbol><symbol viewBox="0 0 62 62" id="icon-lend"><title>2lend</title> <!-- Generator: Sketch 3.3.3 (12081) - http://www.bohemiancoding.com/sketch -->    <g id="lend-Page-1" stroke-width="1" fill-rule="evenodd" sketch:type="MSPage"> <g id="lend-2lend" sketch:type="MSLayerGroup"> <circle id="lend-Oval-1" sketch:type="MSShapeGroup" cx="31" cy="31" r="29"/> <path d="M31.941,12.694 C25.93,12.694 21.057,17.567 21.057,23.578 C21.057,26.133 21.939,28.479 23.412,30.336 L30.959,30.336 L30.959,29.732 C29.771,29.508 28.669,28.923 27.722,28.045 L29.237,26.461 C29.925,27.218 30.976,27.787 32.078,27.787 C33.111,27.787 33.835,27.15 33.835,26.272 C33.835,24.722 31.597,24.533 29.978,23.586 C29.031,23.035 28.274,22.209 28.274,20.848 C28.274,19.178 29.479,18.041 30.96,17.628 L30.96,15.648 L33.026,15.648 L33.026,17.507 C33.956,17.611 34.851,17.937 35.746,18.591 L34.541,20.313 C34.06,19.865 33.25,19.521 32.458,19.521 C31.58,19.521 30.599,19.9 30.599,20.83 C30.599,22.776 36.161,22.173 36.161,26.237 C36.161,28.062 34.766,29.404 33.027,29.749 L33.027,30.336 L34.859,30.336 C34.859,30.336 37.485,30.358 38.7,32.107 C41.213,30.113 42.827,27.035 42.827,23.578 C42.826,17.567 37.953,12.694 31.941,12.694 L31.941,12.694 L31.941,12.694 Z" id="lend-Shape" fill="currentColor" sketch:type="MSShapeGroup"/> <path d="M31.03,0.625 C14.299,0.625 0.687,14.236 0.687,30.967 C0.687,47.698 14.299,61.311 31.03,61.311 C47.761,61.311 61.373,47.699 61.373,30.968 C61.373,14.237 47.761,0.625 31.03,0.625 L31.03,0.625 L31.03,0.625 Z M31.03,58.311 C23.734,58.311 17.101,55.432 12.193,50.758 C13.699,49.253 15.202,47.744 16.694,46.225 C17.246,45.663 17.799,45.445 18.59,45.455 C21.947,45.501 25.305,45.475 28.663,45.475 C32.151,45.475 35.642,45.469 39.13,45.479 C40.135,45.482 40.976,45.193 41.685,44.434 C42.697,43.352 43.771,42.33 44.818,41.283 C47.123,38.979 49.426,36.675 51.731,34.371 C52.509,33.593 52.928,32.709 52.473,31.612 C51.786,29.959 49.837,29.613 48.497,30.936 C45.942,33.456 43.431,36.019 40.862,38.524 C40.532,38.846 39.969,39.083 39.508,39.091 C36.908,39.145 34.307,39.117 31.707,39.117 C30.391,39.116 29.071,39.158 27.759,39.08 C27.474,39.063 27.215,38.617 26.944,38.368 C27.208,38.152 27.444,37.867 27.745,37.742 C27.998,37.637 28.329,37.718 28.625,37.717 C30.764,37.709 32.905,37.758 35.042,37.675 C36.492,37.619 37.419,36.567 37.374,35.262 C37.328,33.95 36.335,33.016 34.87,33.012 C28.781,32.996 22.691,32.984 16.601,33.039 C15.98,33.045 15.212,33.363 14.767,33.798 C11.872,36.616 9.012,39.471 6.182,42.356 C4.585,38.886 3.688,35.031 3.688,30.968 C3.688,15.891 15.954,3.626 31.031,3.626 C46.108,3.626 58.374,15.892 58.374,30.968 C58.374,46.044 46.106,58.311 31.03,58.311 L31.03,58.311 L31.03,58.311 Z" id="lend-Shape" fill="currentColor" sketch:type="MSShapeGroup"/> </g> </g> </symbol><symbol viewBox="0 0 124 124" id="icon-lifting"><title>lifting</title> <!-- Generator: Sketch 3.3.3 (12081) - http://www.bohemiancoding.com/sketch -->    <g id="lifting-Page-1" stroke-width="1" fill-rule="evenodd" sketch:type="MSPage"> <g id="lifting-lifting" sketch:type="MSLayerGroup"> <path d="M61.997,6.314 C31.318,6.314 6.359,31.075 6.359,61.511 C6.359,91.946 31.318,116.707 61.997,116.707 C92.676,116.707 117.635,91.946 117.635,61.511 C117.635,31.075 92.676,6.314 61.997,6.314 L61.997,6.314 L61.997,6.314 Z M61.997,123.016 C27.812,123.016 0,95.425 0,61.511 C0,27.597 27.812,0.006 61.997,0.006 C96.182,0.006 123.994,27.597 123.994,61.511 C123.994,95.425 96.182,123.016 61.997,123.016 L61.997,123.016 L61.997,123.016 Z" id="lifting-Fill-1" sketch:type="MSShapeGroup"/> <path d="M33.5296,90.4710359 C32.7137436,89.6545436 31.3885333,89.6564513 30.5701333,90.4754872 C29.7517333,91.2938872 29.7498256,92.6184615 30.5663179,93.4343179 C31.3821744,94.2501744 32.7067487,94.2482667 33.5251487,93.4298667 C34.3435487,92.6121026 34.3454564,91.2868923 33.5296,90.4710359" id="lifting-Fill-4" fill="currentColor" sketch:type="MSShapeGroup"/> <path d="M66.8137436,66.8194667 C69.4813333,64.1518769 69.4876923,59.8322256 66.8277333,57.1722667 C64.1671385,54.5129436 59.848759,54.5193026 57.1805333,57.1868923 C54.5129436,59.8544821 54.5065846,64.1734974 57.1665436,66.8340923 C59.8265026,69.4934154 64.1461538,69.4876923 66.8137436,66.8194667" id="lifting-Fill-5" fill="currentColor" sketch:type="MSShapeGroup"/> <path d="M53.8954872,53.9018462 C56.2788308,51.5185026 56.2845538,47.6598769 53.9082051,45.2841641 C51.5318564,42.9078154 47.6738667,42.9135385 45.2905231,45.2968821 C42.9071795,47.6802256 42.9014564,51.5382154 45.2778051,53.9139282 C47.6541538,56.2909128 51.5121436,56.2851897 53.8954872,53.9018462" id="lifting-Fill-6" fill="currentColor" sketch:type="MSShapeGroup"/> <path d="M50.9099487,64.9887179 C50.0432205,61.7399179 46.704759,59.8156923 43.4534154,60.6913231 C40.2014359,61.5669538 38.2670359,64.9105026 39.1331282,68.1605744 C39.9992205,71.4100103 43.3376821,73.3336 46.5902974,72.4586051 C49.841641,71.5829744 51.7754051,68.2387897 50.9099487,64.9887179" id="lifting-Fill-7" fill="currentColor" sketch:type="MSShapeGroup"/> <path d="M59.0112821,73.0906872 C55.7618462,72.2245949 52.4176615,74.158359 51.5420308,77.4109744 C50.6664,80.6623179 52.5906256,84.0007795 55.8400615,84.8675077 C59.0894974,85.7336 62.4336821,83.7992 63.3093128,80.5472205 C64.1849436,77.295241 62.2607179,73.9567795 59.0112821,73.0906872" id="lifting-Fill-8" fill="currentColor" sketch:type="MSShapeGroup"/> <path d="M70.0987897,70.1045128 C67.7154462,72.4878564 67.7097231,76.3464821 70.0860718,78.7221949 C72.4624205,81.0985436 76.3204103,81.0934564 78.7037538,78.7101128 C81.0870974,76.3267692 81.0928205,72.4681436 78.7158359,70.0924308 C76.3401231,67.7154462 72.4821333,67.7211692 70.0987897,70.1045128" id="lifting-Fill-9" fill="currentColor" sketch:type="MSShapeGroup"/> <path d="M73.0849641,59.017641 C73.9504205,62.266441 77.2888821,64.1913026 80.5408615,63.3156718 C83.792841,62.440041 85.727241,59.0958564 84.8611487,55.8457846 C83.9944205,52.5963487 80.655959,50.672759 77.4046154,51.5483897 C74.152,52.4240205 72.2182359,55.7675692 73.0849641,59.017641" id="lifting-Fill-10" fill="currentColor" sketch:type="MSShapeGroup"/> <path d="M64.9829949,50.9163077 C68.2324308,51.7817641 71.5772513,49.848 72.4528821,46.5966564 C73.3278769,43.344041 71.4036513,40.0055795 68.1542154,39.1388513 C64.9047795,38.272759 61.5605949,40.207159 60.6849641,43.4591385 C59.8093333,46.7111179 61.733559,50.0495795 64.9829949,50.9163077" id="lifting-Fill-11" fill="currentColor" sketch:type="MSShapeGroup"/> <path d="M38.8526974,55.8330667 C39.5254769,53.3339897 38.0470154,50.7687795 35.5498462,50.1029949 C33.0533128,49.4372103 30.4836513,50.9233026 29.8102359,53.4223795 C29.1374564,55.9214564 30.6159179,58.4866667 33.1130872,59.1524513 C35.6102564,59.8182359 38.1799179,58.3321436 38.8526974,55.8330667" id="lifting-Fill-12" fill="currentColor" sketch:type="MSShapeGroup"/> <path d="M68.1675692,85.1479385 C65.6684923,85.8200821 64.1824,88.3897436 64.8481846,90.8869128 C65.5133333,93.3847179 68.0791795,94.8631795 70.5776205,94.1897641 C73.0773333,93.5169846 74.5627897,90.9473231 73.8970051,88.4501538 C73.2312205,85.9529846 70.6666462,84.4745231 68.1675692,85.1479385" id="lifting-Fill-13" fill="currentColor" sketch:type="MSShapeGroup"/> <path d="M85.1415795,68.1732923 C84.4688,70.6723692 85.9466256,73.2375795 88.4444308,73.9033641 C90.9409641,74.5691487 93.5106256,73.0830564 94.1834051,70.5839795 C94.8568205,68.0855385 93.378359,65.5196923 90.8811897,64.8539077 C88.3833846,64.1881231 85.8137231,65.6748513 85.1415795,68.1732923" id="lifting-Fill-14" fill="currentColor" sketch:type="MSShapeGroup"/> <path d="M78.9708308,45.0291692 C80.7971282,46.8548308 83.7623179,46.8510154 85.5937026,45.0196308 C87.4238154,43.1882462 87.4282667,40.2236923 85.6026051,38.3973949 C83.7769436,36.5717333 80.8123897,36.5755487 78.9803692,38.4069333 C77.1496205,40.2383179 77.1458051,43.2035077 78.9708308,45.0291692" id="lifting-Fill-15" fill="currentColor" sketch:type="MSShapeGroup"/> <path d="M55.8273436,38.8590564 C58.3257846,38.1862769 59.8125128,35.6166154 59.1460923,33.1194462 C58.4803077,30.6222769 55.9157333,29.1438154 53.4166564,29.8165949 C50.9169436,30.4900103 49.4308513,33.0596718 50.0966359,35.5562051 C50.7630564,38.0533744 53.3276308,39.5318359 55.8273436,38.8590564" id="lifting-Fill-16" fill="currentColor" sketch:type="MSShapeGroup"/> <path d="M45.0228103,78.9771897 C43.1971487,77.1515282 40.231959,77.1553436 38.4005744,78.9867282 C36.5691897,80.8181128 36.5653744,83.7826667 38.3910359,85.6089641 C40.2173333,87.4346256 43.1818872,87.4308103 45.0132718,85.6000615 C46.8446564,83.7686769 46.8484718,80.8034872 45.0228103,78.9771897" id="lifting-Fill-17" fill="currentColor" sketch:type="MSShapeGroup"/> <path d="M30.2827077,43.7236718 C31.1150974,42.284 30.6101949,40.4367179 29.1546256,39.5973333 C27.6990564,38.7579487 25.8441436,39.2450462 25.0117538,40.6853538 C24.1787282,42.1250256 24.6836308,43.9729436 26.1392,44.8116923 C27.5947692,45.6498051 29.4496821,45.1633436 30.2827077,43.7236718" id="lifting-Fill-18" fill="currentColor" sketch:type="MSShapeGroup"/> <path d="M25.3411487,62.0540513 C25.3443282,60.3930872 23.9816,59.0488 22.2996513,59.0507077 C20.6177026,59.0532513 19.2517949,60.4026256 19.2492513,62.0629538 C19.2467077,63.7239179 20.6088,65.068841 22.2907487,65.0662974 C23.9733333,65.0643897 25.3386051,63.7150154 25.3411487,62.0540513" id="lifting-Fill-19" fill="currentColor" sketch:type="MSShapeGroup"/> <path d="M30.2203897,80.3729846 C29.3918154,78.9358564 27.5381744,78.4538462 26.0800615,79.2970462 C24.6219487,80.1408821 24.111959,81.9894359 24.9405333,83.4272 C25.7684718,84.8643282 27.6221128,85.3457026 29.0802256,84.5025026 C30.5383385,83.6593026 31.0489641,81.8107487 30.2203897,80.3729846" id="lifting-Fill-20" fill="currentColor" sketch:type="MSShapeGroup"/> <path d="M43.6123897,93.7713436 C42.1752615,92.9427692 40.3260718,93.4533949 39.4828718,94.9115077 C38.6396718,96.3696205 39.1210462,98.2226256 40.5588103,99.0512 C41.9959385,99.8797744 43.8451282,99.3697846 44.6883282,97.9116718 C45.5315282,96.453559 45.0495179,94.5999179 43.6123897,93.7713436" id="lifting-Fill-21" fill="currentColor" sketch:type="MSShapeGroup"/> <path d="M61.9287795,98.6594872 C60.2678154,98.6620308 58.9190769,100.026667 58.9165333,101.709887 C58.9139897,103.3912 60.2589128,104.753928 61.9198769,104.751385 C63.580841,104.748841 64.9295795,103.382297 64.9321231,101.700349 C64.9346667,100.0184 63.5897436,98.6569436 61.9287795,98.6594872" id="lifting-Fill-22" fill="currentColor" sketch:type="MSShapeGroup"/> <path d="M80.2623385,93.7268308 C78.8220308,94.5585846 78.3349333,96.4141333 79.1743179,97.8697026 C80.0124308,99.3252718 81.8603487,99.8301744 83.3000205,98.9977846 C84.7396923,98.164759 85.2267897,96.3098462 84.388041,94.8542769 C83.5486564,93.3987077 81.7013744,92.8938051 80.2623385,93.7268308" id="lifting-Fill-23" fill="currentColor" sketch:type="MSShapeGroup"/> <path d="M93.6994872,80.2954051 C92.8658256,81.7350769 93.372,83.582359 94.8275692,84.4217436 C96.2825026,85.2604923 98.1380513,84.7733949 98.970441,83.3337231 C99.8034667,81.8940513 99.2979282,80.0461333 97.842359,79.2073846 C96.3867897,78.3686359 94.5325128,78.8557333 93.6994872,80.2954051" id="lifting-Fill-24" fill="currentColor" sketch:type="MSShapeGroup"/> <path d="M98.6404103,61.9643897 C98.6378667,63.6253538 99.999959,64.9702769 101.681908,64.9677333 C103.364492,64.9651897 104.729764,63.6164513 104.732308,61.9554872 C104.734851,60.295159 103.373395,58.9496 101.691446,58.9521436 C100.008226,58.9546872 98.6435897,60.3034256 98.6404103,61.9643897" id="lifting-Fill-25" fill="currentColor" sketch:type="MSShapeGroup"/> <path d="M93.7611692,43.6460923 C94.5897436,45.0832205 96.4440205,45.5652308 97.9021333,44.7213949 C99.3602462,43.8781949 99.8702359,42.0290051 99.0410256,40.5925128 C98.2137231,39.1547487 96.3594462,38.6733744 94.9013333,39.5159385 C93.4432205,40.3597744 92.9332308,42.2089641 93.7611692,43.6460923" id="lifting-Fill-26" fill="currentColor" sketch:type="MSShapeGroup"/> <path d="M80.3698051,30.2477333 C81.8062974,31.0756718 83.6561231,30.5656821 84.4993231,29.1075692 C85.3418872,27.6494564 84.8611487,25.7964513 83.4227487,24.967241 C81.9862564,24.1393026 80.1364308,24.6486564 79.2932308,26.1067692 C78.4500308,27.5648821 78.9326769,29.4185231 80.3698051,30.2477333" id="lifting-Fill-27" fill="currentColor" sketch:type="MSShapeGroup"/> <path d="M62.0534154,25.3595897 C63.7137436,25.3570462 65.0624821,23.9917744 65.0650256,22.3091897 C65.0675692,20.627241 63.7226462,19.2651487 62.0623179,19.2676923 C60.4007179,19.2702359 59.0526154,20.6361436 59.0494359,22.3180923 C59.0468923,24.000041 60.3924513,25.3621333 62.0534154,25.3595897" id="lifting-Fill-28" fill="currentColor" sketch:type="MSShapeGroup"/> <path d="M43.7198564,30.2922462 C45.1595282,29.4598564 45.6466256,27.6043077 44.8078769,26.1487385 C43.9691282,24.6931692 42.1212103,24.1882667 40.6815385,25.0212923 C39.2418667,25.8536821 38.7547692,27.7085949 39.5935179,29.1641641 C40.4329026,30.6197333 42.2801846,31.1252718 43.7198564,30.2922462" id="lifting-Fill-29" fill="currentColor" sketch:type="MSShapeGroup"/> <path d="M33.6122667,33.6186256 C34.4313026,32.8002256 34.4325744,31.4756513 33.6173538,30.659159 C32.8014974,29.8433026 31.4762872,29.8452103 30.6572513,30.6636103 C29.8394872,31.4820103 29.8369436,32.8072205 30.6534359,33.6230769 C31.4699282,34.4389333 32.7945026,34.4376615 33.6122667,33.6186256" id="lifting-Fill-30" fill="currentColor" sketch:type="MSShapeGroup"/> <path d="M23.181641,51.6558564 C23.4824205,50.5385846 22.8217231,49.3920615 21.7057231,49.0944615 C20.5897231,48.7974974 19.4412923,49.4613744 19.1411487,50.5780103 C18.8403692,51.6946462 19.5010667,52.8411692 20.6164308,53.1394051 C21.7324308,53.4357333 22.8808615,52.7718564 23.181641,51.6558564" id="lifting-Fill-31" fill="currentColor" sketch:type="MSShapeGroup"/> <path d="M23.1511179,72.4643282 C22.8541538,71.3483282 21.7069949,70.6876308 20.590359,70.9884103 C19.474359,71.2898256 18.8104821,72.4376205 19.1074462,73.5536205 C19.4050462,74.6689846 20.5509333,75.3296821 21.6675692,75.0295385 C22.784841,74.7293949 23.4493538,73.5803282 23.1511179,72.4643282" id="lifting-Fill-32" fill="currentColor" sketch:type="MSShapeGroup"/> <path d="M51.5356718,100.848882 C50.4196718,100.551282 49.271241,101.215795 48.9704615,102.332431 C48.6703179,103.449067 49.3310154,104.596226 50.4463795,104.892554 C51.5623795,105.190154 52.7108103,104.526277 53.0115897,103.409641 C53.3123692,102.293005 52.6516718,101.146482 51.5356718,100.848882" id="lifting-Fill-33" fill="currentColor" sketch:type="MSShapeGroup"/> <path d="M72.3454154,100.818359 C71.2281436,101.119774 70.5636308,102.267569 70.8618667,103.383569 C71.1588308,104.498933 72.3059897,105.159631 73.4226256,104.859487 C74.5392615,104.558708 75.2037744,103.410277 74.9055385,102.294277 C74.6085744,101.178913 73.4614154,100.517579 72.3454154,100.818359" id="lifting-Fill-34" fill="currentColor" sketch:type="MSShapeGroup"/> <path d="M90.3820103,90.3877333 C89.5636103,91.2061333 89.5610667,92.5307077 90.3769231,93.3472 C91.1927795,94.1630564 92.5179897,94.1611487 93.3363897,93.3427487 C94.1547897,92.5243487 94.1566974,91.1991385 93.340841,90.3832821 C92.5243487,89.5674256 91.2004103,89.5693333 90.3820103,90.3877333" id="lifting-Fill-35" fill="currentColor" sketch:type="MSShapeGroup"/> <path d="M100.812,72.3517744 C100.511856,73.4677744 101.172554,74.6142974 102.288554,74.9118974 C103.403918,75.2094974 104.552985,74.5449846 104.853128,73.4283487 C105.153908,72.3117128 104.49321,71.1651897 103.377846,70.8682256 C102.26121,70.5699897 101.113415,71.2345026 100.812,72.3517744" id="lifting-Fill-36" fill="currentColor" sketch:type="MSShapeGroup"/> <path d="M100.843159,51.5420308 C101.140123,52.6580308 102.286646,53.3187282 103.403282,53.0179487 C104.520554,52.7171692 105.183795,51.5687385 104.886195,50.4527385 C104.589867,49.3373744 103.442708,48.676041 102.326072,48.9768205 C101.209436,49.2776 100.544923,50.4260308 100.843159,51.5420308" id="lifting-Fill-37" fill="currentColor" sketch:type="MSShapeGroup"/> <path d="M90.4646769,33.535959 C91.2805333,34.3518154 92.6057436,34.3499077 93.4241436,33.5315077 C94.2419077,32.7131077 94.2444513,31.3885333 93.427959,30.5726769 C92.6121026,29.7561846 91.2875282,29.7580923 90.4691282,30.5764923 C89.6500923,31.3948923 89.6488205,32.7201026 90.4646769,33.535959" id="lifting-Fill-38" fill="currentColor" sketch:type="MSShapeGroup"/> <path d="M72.4586051,23.1574769 C73.5739692,23.4550769 74.7230359,22.7905641 75.0231795,21.6739282 C75.323959,20.5572923 74.6632615,19.4107692 73.5478974,19.1138051 C72.4312615,18.8162051 71.2834667,19.4800821 70.9820513,20.5967179 C70.6812718,21.7133538 71.3419692,22.8598769 72.4586051,23.1574769" id="lifting-Fill-39" fill="currentColor" sketch:type="MSShapeGroup"/> <path d="M51.6494974,23.188 C52.7661333,22.8872205 53.4293744,21.7387897 53.1330462,20.6227897 C52.8348103,19.5074256 51.6889231,18.8467282 50.5716513,19.1475077 C49.4556513,19.4476513 48.7911385,20.5960821 49.0881026,21.7120821 C49.3863385,22.8280821 50.5322256,23.4887795 51.6494974,23.188" id="lifting-Fill-40" fill="currentColor" sketch:type="MSShapeGroup"/> <path d="M42.1822564,42.1886154 C43.6410051,40.7298667 43.6448205,38.3687795 42.1905231,36.9144821 C40.7362256,35.4601846 38.3751385,35.464 36.9163897,36.9221128 C35.4582769,38.3808615 35.4538256,40.7419487 36.908759,42.1962462 C38.3630564,43.6511795 40.7241436,43.6473641 42.1822564,42.1886154" id="lifting-Fill-41" fill="currentColor" sketch:type="MSShapeGroup"/> <path d="M34.9298462,69.2555897 C34.3956923,67.263959 32.3525538,66.0792821 30.3660103,66.6121641 C28.3794667,67.1444103 27.2017846,69.1913641 27.7359385,71.1836308 C28.2694564,73.1758974 30.3125949,74.3599385 32.2997744,73.8276923 C34.2869538,73.2948103 35.4646359,71.2478564 34.9298462,69.2555897" id="lifting-Fill-42" fill="currentColor" sketch:type="MSShapeGroup"/> <path d="M54.7444103,89.0707897 C52.7521436,88.5366359 50.7051897,89.7136821 50.1729436,91.7002256 C49.6406974,93.6867692 50.8241026,95.7305436 52.8170051,96.2640615 C54.8092718,96.7982154 56.8555897,95.6205333 57.3878359,93.6339897 C57.9207179,91.6474462 56.7366769,89.6043077 54.7444103,89.0707897" id="lifting-Fill-43" fill="currentColor" sketch:type="MSShapeGroup"/> <path d="M81.8113846,81.8177436 C80.3526359,83.2764923 80.3494564,85.6375795 81.8037538,87.0918769 C83.2580513,88.5461744 85.6191385,88.5417231 87.0785231,87.0842462 C88.536,85.6254974 88.5398154,83.2644103 87.0855179,81.8101128 C85.6312205,80.3551795 83.2701333,80.3589949 81.8113846,81.8177436" id="lifting-Fill-44" fill="currentColor" sketch:type="MSShapeGroup"/> <path d="M89.0644308,54.7507692 C89.5979487,56.7430359 91.6410872,57.9270769 93.6276308,57.3941949 C95.6141744,56.8619487 96.7918564,54.8149949 96.2577026,52.8233641 C95.7248205,50.8304615 93.6810462,49.6470564 91.6945026,50.1786667 C89.7073231,50.7115487 88.5302769,52.7585026 89.0644308,54.7507692" id="lifting-Fill-45" fill="currentColor" sketch:type="MSShapeGroup"/> <path d="M69.2492308,34.9362051 C71.2414974,35.470359 73.2890872,34.2926769 73.8213333,32.3054974 C74.3535795,30.3189538 73.1701744,28.2758154 71.1772718,27.7422974 C69.1850051,27.2081436 67.1380513,28.3858256 66.606441,30.3723692 C66.073559,32.3589128 67.2576,34.4020513 69.2492308,34.9362051" id="lifting-Fill-46" fill="currentColor" sketch:type="MSShapeGroup"/> </g> </g> </symbol><symbol viewBox="0 0 46 46" id="icon-linkedIn"><title>LinkedIn</title> <!-- Generator: Sketch 3.3.3 (12081) - http://www.bohemiancoding.com/sketch -->    <g id="linkedIn-Page-1" stroke-width="1" fill-rule="evenodd" sketch:type="MSPage"> <g id="linkedIn-LinkedIn" sketch:type="MSLayerGroup" transform="translate(0.000000, 1.000000)"> <circle id="linkedIn-Oval-1" stroke="currentColor" sketch:type="MSShapeGroup" cx="22.9712822" cy="22.32925" r="22"/> <path d="M34.2338782,30.2731375 L34.2338782,14.3849719 C34.2338782,12.1450292 32.5294126,10.32925 30.426952,10.32925 L15.5156124,10.32925 C13.4131517,10.32925 11.7086862,12.1450292 11.7086862,14.3849719 L11.7086862,30.2731375 C11.7086862,32.5130802 13.4131517,34.32925 15.5156124,34.32925 L30.426952,34.32925 C32.5294126,34.32925 34.2338782,32.5130802 34.2338782,30.2731375 L34.2338782,30.2731375 Z M14.9516233,19.5366449 L18.3894569,19.5366449 L18.3894569,30.5977046 L14.9516233,30.5977046 L14.9516233,19.5366449 Z M18.6632494,16.0312419 C18.6632494,17.1314893 17.7700063,18.0247324 16.6713212,18.0247324 C15.5695116,18.0247324 14.6774402,17.1314893 14.6774402,16.0312419 C14.6774402,14.9317757 15.5695116,14.0389232 16.6713212,14.0389232 C17.7700063,14.0389232 18.6632494,14.9317757 18.6632494,16.0312419 L18.6632494,16.0312419 Z M31.2651241,30.5977046 L27.829634,30.5977046 L27.829634,25.2187175 C27.829634,23.936072 27.8061995,22.2858963 26.0431478,22.2858963 C24.2547088,22.2858963 23.9801352,23.6833706 23.9801352,25.1257609 L23.9801352,30.5977046 L20.5454262,30.5977046 L20.5454262,19.5366449 L23.8426531,19.5366449 L23.8426531,21.0481668 L23.8887409,21.0481668 C24.3476655,20.1783582 25.4690038,19.2616807 27.1410518,19.2616807 C30.6222391,19.2616807 31.2651241,21.5527886 31.2651241,24.5305259 L31.2651241,30.5977046 L31.2651241,30.5977046 Z" id="linkedIn-Fill-4" fill="currentColor" sketch:type="MSShapeGroup"/> </g> </g> </symbol><symbol viewBox="0 0 22 22" id="icon-magnify-glass"><title>Magnify Glass</title> <!-- Generator: Sketch 3.3.3 (12081) - http://www.bohemiancoding.com/sketch -->    <g id="magnify-glass-Page-1" stroke-width="1" fill-rule="evenodd" sketch:type="MSPage"> <path d="M16.3323674,13.8683044 C17.3074807,12.4146344 17.8313971,10.7053662 17.8313971,8.91569853 C17.8313971,6.53419495 16.9040434,4.29525038 15.2199751,2.611182 C13.5359067,0.927353606 11.2972021,3.55271368e-14 8.91569853,3.55271368e-14 C6.53419495,3.55271368e-14 4.29525038,0.927353606 2.611182,2.611182 C0.927353606,4.29525038 -1.77635684e-15,6.53419495 -1.77635684e-15,8.91569853 C-1.77635684e-15,11.2972021 0.927353606,13.5359067 2.61142199,15.2199751 C4.29549038,16.9040434 6.53419495,17.8313971 8.91593853,17.8313971 C10.725766,17.8313971 12.4527941,17.2952408 13.917024,16.2990076 L19.3092309,21.6873726 C19.5624291,21.9408109 20.0280259,21.8856113 20.3489037,21.5647335 L21.609375,20.3042622 C21.9302528,19.9833844 21.9852124,19.5177876 21.7317742,19.2645893 L16.3323674,13.8683044 Z M8.91569853,15.4160537 C5.33108324,15.4160537 2.41510335,12.5000738 2.41510335,8.91569853 C2.41510335,5.33132324 5.33132324,2.41510335 8.91569853,2.41510335 C12.5000738,2.41510335 15.4160537,5.33132324 15.4160537,8.91569853 C15.4160537,12.5000738 12.5000738,15.4160537 8.91569853,15.4160537 Z" id="magnify-glass-Shape" sketch:type="MSShapeGroup" transform="translate(10.945529, 10.923282) rotate(-270.000000) translate(-10.945529, -10.923282) "/> </g> </symbol><symbol viewBox="0 0 26 26" id="icon-match"><title>Slice 1 Copy 2</title> <!-- Generator: Sketch 3.3.3 (12072) - http://www.bohemiancoding.com/sketch -->    <g id="match-Page-1" stroke-width="1" fill-rule="evenodd" sketch:type="MSPage"> <g id="match-match" sketch:type="MSLayerGroup"> <path d="M13.0350769,1.68987854 L15.9809231,4.38973279 L20.0387692,3.84521457 L20.7470769,7.66966802 L24.3673846,9.49036437 L22.5667692,12.9784291 L24.3673846,16.4664939 L20.7470769,18.2871903 L20.0387692,22.1116437 L15.9809231,21.5677085 L13.0350769,24.2675628 L10.0886154,21.5677085 L6.03076923,22.1116437 L5.32184615,18.2871903 L1.70153846,16.4664939 L3.50215385,12.9784291 L1.70153846,9.49036437 L5.32184615,7.66966802 L6.03076923,3.84521457 L10.0886154,4.38973279 L13.0350769,1.68987854" id="match-Fill-1" sketch:type="MSShapeGroup"/> <path d="M13.0350769,1.68987854 L15.9809231,4.38973279 L20.0387692,3.84521457 L20.7470769,7.66966802 L24.3673846,9.49036437 L22.5667692,12.9784291 L24.3673846,16.4664939 L20.7470769,18.2871903 L20.0387692,22.1116437 L15.9809231,21.5677085 L13.0350769,24.2675628 L10.0886154,21.5677085 L6.03076923,22.1116437 L5.32184615,18.2871903 L1.70153846,16.4664939 L3.50215385,12.9784291 L1.70153846,9.49036437 L5.32184615,7.66966802 L6.03076923,3.84521457 L10.0886154,4.38973279 L13.0350769,1.68987854 L13.0350769,1.68987854 Z" id="match-Stroke-2" stroke="currentColor" stroke-width="0.967" sketch:type="MSShapeGroup"/> <path d="M13.0350769,3.3805668 L15.5390769,5.67640486 L18.9895385,5.21408907 L19.592,8.46545749 L22.6695385,10.0127287 L21.1396923,12.9784291 L22.6695385,15.9447126 L19.592,17.4919838 L18.9895385,20.7433522 L15.5390769,20.2810364 L13.0350769,22.5768745 L10.5292308,20.2810364 L7.08,20.7433522 L6.47692308,17.4919838 L3.39938462,15.9447126 L4.93046154,12.9784291 L3.39938462,10.0127287 L6.47692308,8.46545749 L7.08,5.21408907 L10.5292308,5.67640486 L13.0350769,3.3805668" id="match-Fill-4" fill="currentColor" sketch:type="MSShapeGroup"/> <text id="match-2" sketch:type="MSTextLayer" font-family="PostGrotesk" font-size="14.8965517" font-weight="420"> <tspan x="10.5745231" y="17.9657441">2</tspan> </text> <text id="match-x" sketch:type="MSTextLayer" font-family="PostGrotesk" font-size="8.64705882" font-weight="420"> <tspan x="6.00898462" y="15">x</tspan> </text> </g> </g> </symbol><symbol viewBox="0 0 52 23" id="icon-medium-chevron"><title>Medium Chevron</title> <!-- Generator: Sketch 3.3.3 (12081) - http://www.bohemiancoding.com/sketch -->    <g id="medium-chevron-Page-1" stroke-width="1" fill-rule="evenodd" sketch:type="MSPage"> <path d="M1,1.02170409 L26.0149596,21 L51,1" id="medium-chevron-Path-5" stroke-width="2" sketch:type="MSShapeGroup"/> </g> </symbol><symbol viewBox="0 0 36 60" id="icon-nearme"><title>icon-nearme</title> <!-- Generator: Sketch 3.3.3 (12081) - http://www.bohemiancoding.com/sketch -->    <g id="nearme-Page-1" stroke-width="1" fill-rule="evenodd" sketch:type="MSPage"> <path d="M18.0001165,0 C18.0001165,0 -22.5001456,0 18.0001165,59.3540658 C58.4998544,0 18.0001165,0 18.0001165,0 L18.0001165,0 Z M27.143375,16.9663369 C27.143375,22.0272838 23.0499343,26.1297459 18.0001165,26.1297459 C12.9497744,26.1297459 8.85633371,22.0272838 8.85633371,16.9663369 C8.85633371,11.9053901 12.9497744,7.80240254 18.0001165,7.80240254 C23.0499343,7.80240254 27.143375,11.9053901 27.143375,16.9663369 L27.143375,16.9663369 Z" id="nearme-icon-nearme" sketch:type="MSShapeGroup"/> </g> </symbol><symbol viewBox="0 0 46 46" id="icon-pinterest"><title>Pinterest</title> <!-- Generator: Sketch 3.3.3 (12081) - http://www.bohemiancoding.com/sketch -->    <g id="pinterest-Page-1" stroke-width="1" fill-rule="evenodd" sketch:type="MSPage"> <g id="pinterest-Pinterest" sketch:type="MSLayerGroup"> <circle id="pinterest-Oval-1" stroke="currentColor" sketch:type="MSShapeGroup" cx="22.8198062" cy="22.864625" r="22"/> <path d="M22.8201862,10.864625 C16.1933375,10.864625 10.8201862,16.2370163 10.8201862,22.864625 C10.8201862,27.777948 13.7748684,31.9992483 18.0030091,33.8552828 C17.969187,33.0173311 17.9969287,32.0114091 18.212022,31.0997328 C18.4426962,30.1253527 19.7560572,24.5610496 19.7560572,24.5610496 C19.7560572,24.5610496 19.3726136,23.7949224 19.3726136,22.6624525 C19.3726136,20.8843229 20.4032371,19.556141 21.6869563,19.556141 C22.7783836,19.556141 23.3054761,20.3758515 23.3054761,21.3574521 C23.3054761,22.4549597 22.605853,24.096281 22.2459708,25.6163747 C21.9453722,26.8890732 22.8840301,27.9272972 24.1400076,27.9272972 C26.4133077,27.9272972 27.9448022,25.0071971 27.9448022,21.5474638 C27.9448022,18.9173216 26.173513,16.9488002 22.9516743,16.9488002 C19.3114298,16.9488002 17.04383,19.6633076 17.04383,22.6955146 C17.04383,23.740959 17.352029,24.4782045 17.8350388,25.0489997 C18.0569724,25.3115959 18.0877543,25.4168624 18.0075694,25.7178409 C17.9498058,25.9386346 17.8175577,26.4702873 17.7628343,26.6808203 C17.6830294,26.9848391 17.4367742,27.0935258 17.1620173,26.9814189 C15.4857339,26.2969967 14.7047857,24.4607234 14.7047857,22.3968162 C14.7047857,18.9880059 17.579663,14.9008539 23.2811546,14.9008539 C27.8623371,14.9008539 30.877443,18.2161783 30.877443,21.7747178 C30.877443,26.4820681 28.2606017,29.9988049 24.4029838,29.9988049 C23.1074839,29.9988049 21.8887487,29.2984218 21.471483,28.5030327 C21.471483,28.5030327 20.7749,31.2680832 20.6270709,31.8016361 C20.3728353,32.7269932 19.8746245,33.6515902 19.4193565,34.3724947 C20.498623,34.6909543 21.6386933,34.864625 22.8201862,34.864625 C29.4466548,34.864625 34.8194261,29.4918537 34.8194261,22.864625 C34.8194261,16.2370163 29.4466548,10.864625 22.8201862,10.864625" id="pinterest-Fill-1" fill="currentColor" sketch:type="MSShapeGroup"/> </g> </g> </symbol><symbol viewBox="0 0 124 124" id="icon-recycle"><title>recycle</title> <!-- Generator: Sketch 3.3.3 (12081) - http://www.bohemiancoding.com/sketch -->    <g id="recycle-Page-1" stroke-width="1" fill-rule="evenodd" sketch:type="MSPage"> <g id="recycle-recycle" sketch:type="MSLayerGroup"> <path d="M61.997,6.314 C31.318,6.314 6.359,31.075 6.359,61.511 C6.359,91.946 31.318,116.707 61.997,116.707 C92.676,116.707 117.635,91.946 117.635,61.511 C117.635,31.075 92.676,6.314 61.997,6.314 L61.997,6.314 L61.997,6.314 Z M61.997,123.016 C27.812,123.016 0,95.425 0,61.511 C0,27.597 27.812,0.006 61.997,0.006 C96.182,0.006 123.994,27.597 123.994,61.511 C123.994,95.425 96.182,123.016 61.997,123.016 L61.997,123.016 L61.997,123.016 Z" id="recycle-Fill-1" sketch:type="MSShapeGroup"/> <path d="M48.5921026,75.4632205 C51.6011692,78.2541744 55.099241,80.1148103 58.8802872,80.8263795 L58.8802872,86.9545231 L65.4414769,86.9545231 L65.4414769,80.8810667 C70.9718769,79.7860513 75.4009026,75.5179077 75.4009026,69.7178872 C75.4009026,56.8040821 57.7242256,58.7187692 57.7242256,52.5359385 C57.7242256,49.5809231 60.8490256,48.3771692 63.6361641,48.3771692 C66.1536821,48.3771692 68.7303385,49.4715487 70.2615795,50.8940513 L74.0884103,45.4221538 C71.2453128,43.3427692 68.4022154,42.3030769 65.4414769,41.9749538 L65.4414769,36.0649231 L58.8802872,36.0649231 L58.8802872,42.3577641 C54.1708308,43.6708923 50.3433641,47.2834256 50.3433641,52.5906256 C50.3433641,56.9134564 52.7483282,59.5397128 55.7554872,61.2909744 C60.9030769,64.3006769 68.020041,64.9028718 68.020041,69.8272615 C68.020041,72.6175795 65.7149128,74.6422769 62.4343179,74.6422769 C58.9349744,74.6422769 55.5914256,72.8369641 53.4045744,70.4288205 L48.5921026,75.4632205" id="recycle-Fill-4" fill="currentColor" sketch:type="MSShapeGroup"/> <path d="M62.179959,102.805538 C62.1964923,102.805538 62.2111179,102.808082 62.2276513,102.808718 C63.3029538,102.803631 64.3439179,102.670728 65.3982359,102.584246 C66.0652923,102.527651 66.7482462,102.530831 67.4064,102.441805 C79.4496615,100.855877 89.7588308,93.9773744 96.1158974,84.2691282 L100.396123,87.3494154 L98.6957333,72.8674872 L84.4230154,75.8498462 L88.5843282,78.8461949 C88.4743179,79.0197949 88.3751179,79.2010256 88.2606564,79.3739897 C87.8123487,80.0512205 87.3328821,80.7042872 86.8362462,81.3452718 C86.5163897,81.7579692 86.1914462,82.1636718 85.8531487,82.5585641 C85.312,83.1900103 84.7473231,83.8017436 84.1597538,84.388041 C83.8144615,84.7333333 83.4589949,85.0665436 83.098441,85.3946667 C82.4619077,85.9746051 81.8082051,86.5367385 81.1265231,87.0632615 C80.7691487,87.3411487 80.3958769,87.5993231 80.0257846,87.8613128 C79.2970462,88.3763897 78.5568615,88.8755692 77.7836103,89.3289641 C77.4166974,89.5445333 77.0338872,89.7333949 76.6568,89.9343385 C75.8473026,90.3667487 75.0308103,90.7858051 74.1806154,91.1457231 C73.7876308,91.3123282 73.376841,91.4433231 72.9755897,91.5940308 C72.1139487,91.9177026 71.2504,92.2381949 70.3563282,92.4874667 C69.8743179,92.6203692 69.3732308,92.7011282 68.8829538,92.8105026 C68.0384821,93.0019077 67.2003692,93.2066667 66.3317333,93.3274872 C65.3658051,93.4603897 64.3731692,93.5068103 63.3798974,93.5487795 C62.9633846,93.5684923 62.5589538,93.6327179 62.1398974,93.6352615 C62.0387897,93.6352615 61.9414974,93.6168205 61.8403897,93.6161846 C60.0503385,93.6098256 58.311159,93.403159 56.6025026,93.1106462 C55.9704205,93.0006359 55.3453333,92.8728205 54.7266051,92.7259282 C53.4713436,92.4321436 52.2574154,92.0448821 51.0651077,91.6073846 C50.2130051,91.2907077 49.3780718,90.9517744 48.5634872,90.5651487 C47.4691077,90.0513436 46.4058872,89.4898462 45.3846359,88.8590359 C44.6050256,88.3732103 43.8559385,87.8435077 43.1240205,87.2953641 C42.5237333,86.8464205 41.9546051,86.3631385 41.3873846,85.8741333 C39.8516923,84.5425641 38.4374564,83.0819077 37.1828308,81.4800821 C36.9958769,81.2422564 36.7841231,81.0273231 36.6028923,80.7844103 C35.9256615,79.8668103 35.3221949,78.8932513 34.7454359,77.9037949 C32.0206154,73.2541128 30.3335795,67.9182974 30.3087795,62.1411692 L21.1391385,62.1812308 C21.2205333,80.8562667 33.8462769,96.5095179 50.9888,101.2832 C51.1045333,101.314995 51.2215385,101.339159 51.3379077,101.370954 C52.8564308,101.7792 54.4080205,102.093969 55.9907692,102.326708 C56.3029949,102.373128 56.6114051,102.425908 56.9261744,102.465333 C58.6329231,102.675179 60.3587487,102.817621 62.1220923,102.808718 C62.1418051,102.808718 62.1602462,102.805538 62.179959,102.805538 M93.6854974,61.8645538 L102.855138,61.8244923 C102.774379,43.1500923 90.148,27.4974769 73.0054769,22.723159 C72.8897436,22.6907282 72.7708308,22.6665641 72.6550974,22.6347692 C71.1372103,22.2265231 69.5849846,21.9111179 68.0022359,21.6790154 C67.6893744,21.6325949 67.3816,21.5804513 67.0661949,21.5403897 C65.3607179,21.3305436 63.6348923,21.1893744 61.8715487,21.1970051 C61.8524718,21.1970051 61.8353026,21.2008205 61.8155897,21.2008205 C61.7990564,21.2008205 61.783159,21.197641 61.7647179,21.197641 C47.5346051,21.2593231 35.110441,28.6478154 27.8593026,39.7245128 L23.5968821,36.6563077 L25.2985436,51.1382359 L39.5712615,48.1565128 L35.3717949,45.1334564 C35.6903795,44.6361846 35.9765333,44.1147487 36.3199179,43.6346462 C36.4210256,43.4934769 36.5202256,43.3491282 36.6245128,43.2092308 C37.3379897,42.2452103 38.1086974,41.3269744 38.9251897,40.4513436 C39.0828923,40.2809231 39.2444103,40.1136821 39.4072,39.9483487 C40.2122462,39.1210462 41.0598974,38.3369846 41.9514256,37.6012513 C42.1657231,37.4251077 42.3876513,37.2585026 42.6064,37.0880821 C43.4877538,36.3987692 44.3977231,35.7476103 45.3496615,35.1536821 C45.6275487,34.9813538 45.9168821,34.8281026 46.1998564,34.664041 C47.1346256,34.1209846 48.0878359,33.6059077 49.0804718,33.1588718 C49.4391179,32.9973538 49.8149333,32.8708103 50.1805744,32.7226462 C51.1356923,32.3347487 52.0990769,31.9602051 53.0987077,31.6657846 C53.6029744,31.5188923 54.1294974,31.4285949 54.6433026,31.3052308 C55.5437333,31.0883897 56.4397128,30.8588308 57.368759,30.7202051 C58.4421538,30.5637744 59.5454359,30.5046359 60.6506256,30.4594872 C61.0563282,30.4416821 61.4467692,30.373641 61.8562872,30.3710974 C61.9573949,30.3704615 62.0521436,30.3895385 62.1532513,30.3901744 C63.9439385,30.3965333 65.6824821,30.6032 67.3917744,30.8950769 C68.0244923,31.0057231 68.6495795,31.1335385 69.2676718,31.2810667 C70.5203897,31.5748513 71.7343179,31.9602051 72.9247179,32.3983385 C73.7812718,32.7169231 74.6225641,33.0577641 75.4435077,33.4469333 C76.5321641,33.9601026 77.5922051,34.5190564 78.6090051,35.1473231 C79.3892513,35.6337846 80.1377026,36.1634872 80.8708923,36.7129026 C81.4705436,37.1605744 82.0396718,37.6438564 82.6056205,38.1315897 C84.1374974,39.4587077 85.5460103,40.9149128 86.7987282,42.5110154 C86.9914051,42.7539282 87.2076103,42.9752205 87.3920205,43.2232205 C88.0679795,44.1395487 88.6695385,45.1124718 89.2469333,46.1000205 C91.9730256,50.7503385 93.6606974,56.0861538 93.6854974,61.8645538" id="recycle-Fill-5" fill="currentColor" sketch:type="MSShapeGroup"/> </g> </g> </symbol><symbol viewBox="0 0 62 60" id="icon-repaid"><title>icon-repaid</title> <!-- Generator: Sketch 3.3.3 (12081) - http://www.bohemiancoding.com/sketch -->    <g id="repaid-Page-1" stroke-width="1" fill-rule="evenodd" sketch:type="MSPage"> <g id="repaid-icon-repaid" sketch:type="MSLayerGroup" transform="translate(2.000000, 1.000000)"> <path d="M28.7913475,57.3865688 C44.6566849,57.3865688 57.5640305,44.7017636 57.5640305,29.1099665 C57.5640305,13.5181694 44.6566849,0.83336416 28.7913475,0.83336416 C12.9260101,0.83336416 0.0186643709,13.5181694 0.0186643709,29.1099665 C0.0186643709,44.7017636 12.9260101,57.3865688 28.7913475,57.3865688" id="repaid-Fill-1" sketch:type="MSShapeGroup"/> <path d="M28.7913475,57.3865688 C44.6566849,57.3865688 57.5640305,44.7017636 57.5640305,29.1099665 C57.5640305,13.5181694 44.6566849,0.83336416 28.7913475,0.83336416 C12.9260101,0.83336416 0.0186643709,13.5181694 0.0186643709,29.1099665 C0.0186643709,44.7017636 12.9260101,57.3865688 28.7913475,57.3865688 L28.7913475,57.3865688 Z" id="repaid-Stroke-2" stroke="currentColor" stroke-width="3" sketch:type="MSShapeGroup"/> <path d="M40.4792876,45.0184787 L40.4792876,18.0934181 C40.4792876,18.0934181 40.4792876,14.727862 37.0543755,14.727862 L36.9455,14.727862 L33.7924656,18.0934181 L37.0543755,18.0934181 L37.0543755,41.6529225 L20.2732397,41.6529225 L20.2732397,18.0934181 L23.5351495,18.0934181 L20.3821152,14.727862 L20.2732397,14.727862 C20.2732397,14.727862 16.8486387,14.727862 16.8486387,18.0934181 L16.8486387,45.0184787 C16.8486387,45.0184787 16.8486387,48.3843405 20.2732397,48.3843405 L37.0543755,48.3843405 C37.0543755,48.3843405 40.4792876,48.3843405 40.4792876,45.0184787 L40.4792876,45.0184787 Z M29.8623713,45.0184787 C29.8623713,45.7619642 29.2492467,46.3648234 28.4927175,46.3648234 C27.7361884,46.3648234 27.1227527,45.7619642 27.1227527,45.0184787 C27.1227527,44.2749931 27.7361884,43.6721339 28.4927175,43.6721339 C29.2492467,43.6721339 29.8623713,44.2749931 29.8623713,45.0184787 L29.8623713,45.0184787 Z" id="repaid-Fill-3" fill="currentColor" sketch:type="MSShapeGroup"/> <path d="M32.6128774,9.8230584 L32.6128774,0.176088685 L24.7147378,0.176088685 L24.7147378,9.8230584 L19.4915136,9.8230584 L28.6638076,19.6146287 L37.8361016,9.8230584 L32.6128774,9.8230584" id="repaid-Fill-4" fill="currentColor" sketch:type="MSShapeGroup"/> </g> </g> </symbol><symbol viewBox="0 0 62 62" id="icon-repeat"><title>icon-repeat</title> <!-- Generator: Sketch 3.3.3 (12081) - http://www.bohemiancoding.com/sketch -->    <g id="repeat-Page-1" stroke-width="1" fill-rule="evenodd" sketch:type="MSPage"> <g id="repeat-icon-repeat" sketch:type="MSLayerGroup" transform="translate(2.000000, 2.000000)"> <path d="M28.8612366,57.9114409 C44.765086,57.9114409 57.7037634,44.9727634 57.7037634,29.068914 C57.7037634,13.1650645 44.765086,0.226387097 28.8612366,0.226387097 C12.9573871,0.226387097 0.0187096774,13.1650645 0.0187096774,29.068914 C0.0187096774,44.9727634 12.9573871,57.9114409 28.8612366,57.9114409" id="repeat-Fill-1" sketch:type="MSShapeGroup"/> <path d="M28.8612366,57.9114409 C44.765086,57.9114409 57.7037634,44.9727634 57.7037634,29.068914 C57.7037634,13.1650645 44.765086,0.226387097 28.8612366,0.226387097 C12.9573871,0.226387097 0.0187096774,13.1650645 0.0187096774,29.068914 C0.0187096774,44.9727634 12.9573871,57.9114409 28.8612366,57.9114409 L28.8612366,57.9114409 Z" id="repeat-Stroke-2" stroke="currentColor" stroke-width="3" sketch:type="MSShapeGroup"/> <path d="M22.2875914,35.6696882 C23.7631613,37.0379892 25.4791505,37.9503978 27.3329677,38.2993333 L27.3329677,41.3044194 L30.5500968,41.3044194 L30.5500968,38.3261505 C33.2623763,37.7894946 35.4342581,35.6965054 35.4342581,32.8520108 C35.4342581,26.5194086 26.7660645,27.4586344 26.7660645,24.4264194 C26.7660645,22.9773548 28.2980753,22.3870645 29.6654409,22.3870645 C30.8996559,22.3870645 32.1631828,22.9237204 32.9140645,23.6215914 L34.7906452,20.9383118 C33.3964624,19.9186344 32.0022796,19.4087957 30.5500968,19.2475806 L30.5500968,16.3497634 L27.3329677,16.3497634 L27.3329677,19.4356129 C25.0232581,20.0795376 23.1463656,21.8504086 23.1463656,24.4532366 C23.1463656,26.573043 24.3260108,27.8612043 25.8006452,28.7196667 C28.3248925,30.1955484 31.8145591,30.4908495 31.8145591,32.9056452 C31.8145591,34.2742581 30.6844946,35.2671183 29.0754624,35.2671183 C27.3597849,35.2671183 25.7201935,34.3815269 24.6478172,33.2009462 L22.2875914,35.6696882" id="repeat-Fill-3" fill="currentColor" sketch:type="MSShapeGroup"/> <path d="M28.9507312,49.0776667 C28.9588387,49.0776667 28.9663226,49.078914 28.9744301,49.078914 C29.5017312,49.0764194 30.0121935,49.0112473 30.5288925,48.9691505 C30.856,48.941086 31.1915269,48.9426452 31.513957,48.8993011 C37.4199785,48.1212903 42.4753333,44.7482473 45.5923656,39.9875699 L47.6909677,41.4980645 L46.8571398,34.3968065 L39.8581613,35.8592796 L41.8987634,37.3283011 C41.8448172,37.4137419 41.796172,37.5026129 41.7403548,37.5868065 C41.5205161,37.9192151 41.2853978,38.2397742 41.0415484,38.5540968 C40.8850108,38.7561613 40.7256667,38.9554194 40.5594624,39.1490645 C40.2940968,39.4587097 40.0175054,39.7583763 39.7290645,40.0458817 C39.5597419,40.2155161 39.3854301,40.3786022 39.2086237,40.5398172 C38.8964839,40.8238925 38.5762366,41.0995484 38.2416452,41.3580538 C38.0663978,41.4940108 37.8836667,41.6209247 37.701871,41.749086 C37.344828,42.0016667 36.9818602,42.2464516 36.6029892,42.4687849 C36.4227527,42.5741828 36.2347204,42.6674194 36.0501183,42.7656452 C35.6531613,42.9773763 35.2527742,43.182871 34.836172,43.3596774 C34.6431505,43.4416882 34.4413978,43.5056129 34.2446344,43.5795161 C33.8224194,43.7385484 33.398957,43.8953978 32.9602151,44.0176344 C32.7244731,44.0828065 32.4784409,44.1224086 32.2380215,44.1763548 C31.823914,44.2699032 31.4126129,44.3703118 30.9869677,44.429871 C30.5129892,44.495043 30.0265376,44.5178065 29.5394624,44.5383871 C29.3352151,44.5477419 29.1368925,44.5792366 28.931086,44.5804839 C28.8815054,44.5807957 28.8341075,44.5714409 28.7845269,44.571129 C27.9064194,44.5683226 27.0535699,44.4666667 26.2156882,44.3235376 C25.9057312,44.2695914 25.5992043,44.206914 25.2957957,44.1345699 C24.6805591,43.9901935 24.0849677,43.800914 23.5002903,43.5857527 C23.0830645,43.4307742 22.6733226,43.2645699 22.2735591,43.0752903 C21.7372151,42.8233333 21.2155269,42.5476774 20.7147312,42.2380323 C20.3324301,42.0001075 19.9657204,41.7406667 19.6064946,41.4712473 C19.3118172,41.2514086 19.0327312,41.0144194 18.7552043,40.7749355 C18.001828,40.1216559 17.3086344,39.4053871 16.6927742,38.6202043 C16.6010968,38.5035806 16.4972581,38.397871 16.4086989,38.2790645 C16.0762903,37.8287849 15.7806774,37.3513763 15.4975376,36.866172 C14.1613548,34.586086 13.3343871,31.9698495 13.321914,29.1368925 L8.82535484,29.1565376 C8.86526882,38.3139892 15.0566129,45.9899462 23.462871,48.3305269 C23.5196237,48.3467419 23.5773118,48.3585914 23.6343763,48.373871 C24.3787097,48.5740645 25.1395699,48.7287312 25.9160215,48.8425484 C26.069129,48.8653118 26.2203656,48.8911935 26.3747204,48.9105269 C27.2113548,49.0134301 28.0576559,49.0829677 28.9226667,49.0792258 C28.9320215,49.0792258 28.9410645,49.0776667 28.9507312,49.0776667 L28.9507312,49.0776667 Z M44.4002473,29.0009355 L48.8968065,28.9816022 C48.8572043,19.8241505 42.6655484,12.1481935 34.2592903,9.80730108 C34.2028495,9.79139785 34.1445376,9.77954839 34.0877849,9.76395699 C33.3431398,9.56376344 32.5819677,9.40909677 31.8061398,9.29527957 C31.6527204,9.27251613 31.5014839,9.24694624 31.347129,9.22730108 C30.5108065,9.12439785 29.6645054,9.05486022 28.7998065,9.05860215 C28.7904516,9.05860215 28.7817204,9.06047312 28.7723656,9.06078495 C28.7639462,9.06078495 28.7561505,9.05891398 28.7477312,9.05891398 C21.7693333,9.08947312 15.6768387,12.7126022 12.1207527,18.1440215 L10.0311935,16.6397634 L10.8650215,23.7410215 L17.864,22.2788602 L15.8046882,20.7964301 C15.9612258,20.5522688 16.1012366,20.2968817 16.2696237,20.0617634 C16.3195161,19.991914 16.3678495,19.9217527 16.4189892,19.8528387 C16.769172,19.3801075 17.1471075,18.9301398 17.5474946,18.5007527 C17.6251398,18.4171828 17.7040323,18.335172 17.7838602,18.2534731 C18.1786344,17.8480968 18.5946129,17.4636129 19.031172,17.1031398 C19.1362581,17.0167634 19.245086,16.9347527 19.3523548,16.8511828 C19.7845484,16.5131613 20.231086,16.1941613 20.6978925,15.902914 C20.8341613,15.8184086 20.9757312,15.7432581 21.1148065,15.6628065 C21.5728817,15.3961935 22.0403118,15.1439247 22.5270753,14.9243978 C22.7029462,14.8455054 22.8875484,14.7831398 23.0665376,14.7107957 C23.5352151,14.5202688 24.0076344,14.3366022 24.497828,14.1922258 C24.7451075,14.1201935 25.0029892,14.0756022 25.2549462,14.0157312 C25.6964946,13.9093978 26.136172,13.7962043 26.5917527,13.7288495 C27.1184301,13.6521398 27.658828,13.6231398 28.2014086,13.601 C28.3997312,13.591957 28.5915054,13.5585914 28.7923226,13.5573441 C28.8415914,13.5573441 28.8883656,13.5663871 28.9376344,13.5670108 C29.8157419,13.5698172 30.6689032,13.6711613 31.5070968,13.8146022 C31.8167419,13.8685484 32.1235806,13.9312258 32.4266774,14.0035699 C33.0409785,14.1476344 33.6359462,14.336914 34.2196882,14.5514516 C34.6403441,14.7076774 35.0522688,14.875129 35.4548387,15.0659677 C35.989,15.3169892 36.5085054,15.5913978 37.0074301,15.8997957 C37.390043,16.1383441 37.7570645,16.3977849 38.1162903,16.6675161 C38.4106559,16.8867312 38.6894301,17.1234086 38.9672688,17.3632043 C39.7181505,18.0139892 40.4091613,18.7280753 41.0234624,19.5107634 C41.1176344,19.6298817 41.2236559,19.738086 41.314086,19.8600108 C41.645871,20.309043 41.9408602,20.7861398 42.224,21.2704086 C43.5604946,23.5508065 44.388086,26.1676667 44.4002473,29.0009355 L44.4002473,29.0009355 Z" id="repeat-Fill-4" fill="currentColor" sketch:type="MSShapeGroup"/> </g> </g> </symbol><symbol viewBox="0 0 18 18" id="icon-slideshow-dot"><title>Oval 11 Copy</title> <!-- Generator: Sketch 3.3.3 (12081) - http://www.bohemiancoding.com/sketch -->    <g id="slideshow-dot-Page-1" stroke-width="1" fill-rule="evenodd" sketch:type="MSPage"> <circle id="slideshow-dot-Oval-11-Copy" sketch:type="MSShapeGroup" cx="9" cy="9" r="8"/> </g> </symbol><symbol viewBox="0 0 50 22" id="icon-small-chevron-mobile"><title>Small Chevron Mobile</title> <!-- Generator: Sketch 3.3.3 (12081) - http://www.bohemiancoding.com/sketch -->    <g id="small-chevron-mobile-Page-1" stroke-width="1" fill-rule="evenodd" sketch:type="MSPage"> <path d="M0,1.02170409 L25.0149596,21 L50,1" id="small-chevron-mobile-Path-5-Copy-5" sketch:type="MSShapeGroup"/> </g> </symbol><symbol viewBox="0 0 32 15" id="icon-small-chevron"><title>Small Chevron</title> <!-- Generator: Sketch 3.3.3 (12081) - http://www.bohemiancoding.com/sketch -->    <g id="small-chevron-Page-1" stroke-width="1" fill-rule="evenodd" sketch:type="MSPage"> <path d="M1,1.01302246 L16.0089757,13 L31,1" id="small-chevron-Path-5-Copy-4" stroke-width="2" sketch:type="MSShapeGroup"/> </g> </symbol><symbol viewBox="0 0 19 20" id="icon-sort"><title>sort</title> <!-- Generator: Sketch 3.3.3 (12072) - http://www.bohemiancoding.com/sketch -->    <g id="sort-Page-1" stroke-width="1" fill-rule="evenodd" sketch:type="MSPage"> <g id="sort-sort" sketch:type="MSLayerGroup"> <text id="sort-A" sketch:type="MSTextLayer" font-family="PostGrotesk" font-size="9" font-weight="bold" line-spacing="9"> <tspan x="10.8181818" y="7">A</tspan> <tspan x="10.8181818" y="17">Z</tspan> </text> <path d="M3.33315548,16.016026 L1,16.016026 L4.05089415,19 L7.10268575,16.0162454 L4.76953027,16.016026 L4.76953027,1.45396078 L3.33315548,1.45396078 L3.33315548,16.016026 Z" id="sort-Shape" sketch:type="MSShapeGroup"/> </g> </g> </symbol><symbol viewBox="0 0 24 24" id="icon-star"><title>Star Icon</title> <rect width="24" height="24"/>  <g id="star-Page-1" sketch:type="MSPage"> <g id="star-star" sketch:type="MSLayerGroup"> <path id="star-Shape-Copy-3" sketch:type="MSShapeGroup" fill="currentColor" d="M12,0l2.832,9.168H24l-7.416,5.665L19.416,24L12,18.335L4.583,24l2.833-9.167L0,9.168h9.167L12,0z"/> </g> </g> </symbol><symbol viewBox="0 0 12 7" id="icon-triangle"><title>Triangle</title> <!-- Generator: Sketch 3.3.3 (12081) - http://www.bohemiancoding.com/sketch -->    <g id="triangle-Page-1" stroke-width="1" fill-rule="evenodd" sketch:type="MSPage"> <polygon id="triangle-Triangle-1" sketch:type="MSShapeGroup" points="6 0 12 6.85714286 0 6.85714286 "/> </g> </symbol><symbol viewBox="0 0 46 46" id="icon-twitter"><title>Twitter</title> <!-- Generator: Sketch 3.3.3 (12081) - http://www.bohemiancoding.com/sketch -->    <g id="twitter-Page-1" stroke-width="1" fill-rule="evenodd" sketch:type="MSPage"> <g id="twitter-Twitter" sketch:type="MSLayerGroup"> <circle id="twitter-Oval-1" stroke="currentColor" sketch:type="MSShapeGroup" cx="22.8452141" cy="22.79175" r="22"/> <path d="M34.8423472,15.3503244 C33.9594001,15.7417404 33.0106452,16.0062191 32.0151076,16.1253592 C33.0312296,15.5159355 33.8118784,14.5512745 34.179591,13.4016656 C33.2283411,13.9658659 32.1747928,14.3756831 31.0532535,14.5964979 C30.155336,13.639634 28.8759828,13.04175 27.4603357,13.04175 C24.7416322,13.04175 22.5375393,15.2458429 22.5375393,17.9645464 C22.5375393,18.3503484 22.5808914,18.7261701 22.6647885,19.0863976 C18.57379,18.8811771 14.9462529,16.9212903 12.5185383,13.9427864 C12.0946863,14.6701028 11.8520396,15.5156236 11.8520396,16.4179076 C11.8520396,18.1257911 12.7209518,19.6325086 14.0417858,20.5151438 C13.2349387,20.4895692 12.47581,20.2681307 11.8121183,19.8994824 C11.8118064,19.9200668 11.8118064,19.9406512 11.8118064,19.9612356 C11.8118064,22.3465338 13.5087739,24.3360497 15.7605852,24.7882833 C15.3476492,24.9008738 14.9125693,24.9610677 14.4637665,24.9610677 C14.1465792,24.9610677 13.8381247,24.9301911 13.5374674,24.8728042 C14.1640448,26.8283245 15.9820238,28.2517687 18.1359031,28.2913781 C16.451411,29.6115883 14.3287202,30.3987866 12.0223289,30.3987866 C11.6249871,30.3987866 11.2332593,30.3753952 10.848081,30.32986 C13.0265993,31.726482 15.6139992,32.54175 18.3941441,32.54175 C27.448796,32.54175 32.4002858,25.0405984 32.4002858,18.5352964 C32.4002858,18.3219669 32.3956076,18.109573 32.3859391,17.8984267 C33.3477932,17.2044821 34.182398,16.3374412 34.8423472,15.3503244" id="twitter-Fill-3" fill="currentColor" sketch:type="MSShapeGroup"/> </g> </g> </symbol><symbol viewBox="0 0 29 29" id="icon-x"><title>X</title> <!-- Generator: Sketch 3.3.3 (12081) - http://www.bohemiancoding.com/sketch -->    <g id="x-Page-1" stroke-width="1" fill-rule="evenodd" sketch:type="MSPage"> <g id="x-X-Copy" sketch:type="MSLayerGroup" transform="translate(1.000000, 1.000000)" stroke-width="2"> <path d="M27,27.0967742 L13.4735085,13.5483871 L0,27.0437053" id="x-Path-22" sketch:type="MSShapeGroup"/> <path d="M0,2.3279586e-15 L13.5264915,13.5483871 L27,0.0530688439" id="x-Path-22" sketch:type="MSShapeGroup"/> </g> </g> </symbol><symbol viewBox="0 0 46 46" id="icon-youtube"><title>You Tube</title> <!-- Generator: Sketch 3.3.3 (12081) - http://www.bohemiancoding.com/sketch -->    <g id="youtube-Page-1" stroke-width="1" fill-rule="evenodd" sketch:type="MSPage"> <g id="youtube-You-Tube" sketch:type="MSLayerGroup" transform="translate(0.000000, 1.000000)"> <circle id="youtube-Oval-1" stroke="currentColor" sketch:type="MSShapeGroup" cx="22.8893723" cy="22.32925" r="22"/> <path d="M34.1521637,30.2731375 L34.1521637,14.3849719 C34.1521637,12.1450292 32.4476981,10.32925 30.3452375,10.32925 L15.4335072,10.32925 C13.3310466,10.32925 11.626581,12.1450292 11.626581,14.3849719 L11.626581,30.2731375 C11.626581,32.5130802 13.3310466,34.32925 15.4335072,34.32925 L30.3452375,34.32925 C32.4476981,34.32925 34.1521637,32.5130802 34.1521637,30.2731375 L34.1521637,30.2731375 Z M21.5424774,13.4354862 L20.2715491,17.5720569 L20.2715491,20.5056593 L19.1795038,20.5056593 L19.1795038,17.704071 L17.8800637,13.4354862 L18.9799205,13.4354862 L19.6888125,16.2616807 L19.757163,16.2616807 L20.4328563,13.4354862 L21.5424774,13.4354862 L21.5424774,13.4354862 Z M24.3077424,19.2058286 C24.3077424,19.6522548 24.1819775,20.0022093 23.9308383,20.2560824 C23.6793086,20.5103462 23.3336504,20.6372828 22.8930828,20.6372828 C22.4685287,20.6372828 22.1291198,20.5060499 21.874856,20.2439746 C21.6202017,19.9818994 21.4928745,19.6292109 21.4928745,19.1862999 L21.4928745,16.4827456 C21.4928745,16.0785014 21.6233263,15.7570589 21.8846204,15.5176369 C22.1455239,15.278215 22.4962595,15.1583087 22.9372177,15.1583087 C23.3383373,15.1583087 23.6672008,15.2848547 23.9234174,15.5371656 C24.179634,15.7894765 24.3077424,16.1144342 24.3077424,16.5120387 L24.3077424,19.2058286 L24.3077424,19.2058286 Z M27.898681,20.5056593 L26.9288854,20.5056593 L26.9288854,19.929953 C26.7500025,20.1420348 26.5640892,20.3037325 26.3711456,20.4146555 C26.1778114,20.525188 25.9899452,20.5810401 25.8083282,20.5810401 C25.5841387,20.5810401 25.41502,20.5033159 25.301363,20.3482579 C25.1877059,20.1928094 25.1306821,19.9600272 25.1306821,19.6495208 L25.1306821,15.2903228 L26.1004777,15.2903228 L26.1004777,19.2882397 C26.1004777,19.4120517 26.1207875,19.5011026 26.1614072,19.5565642 C26.2020269,19.6120257 26.2676434,19.6397564 26.3586472,19.6397564 C26.4301223,19.6397564 26.5203449,19.6030425 26.6293151,19.5300051 C26.7378947,19.4565772 26.8378817,19.3628394 26.9288854,19.2491823 L26.9288854,15.2903228 L27.898681,15.2903228 L27.898681,20.5056593 L27.898681,20.5056593 Z M30.880324,26.6177541 C30.8834486,27.6152805 30.8502498,28.6128068 30.7736973,29.6103332 C30.7736973,30.8699348 29.7398475,31.8916768 28.4657947,31.8916768 C26.647672,31.9678387 24.7869768,32.0014281 22.8895676,31.9979129 C20.9917679,32.0014281 19.1314632,31.9678387 17.31295,31.8916768 C16.0388971,31.8916768 15.0050474,30.8699348 15.0050474,29.6103332 C14.9284949,28.6128068 14.8952961,27.6152805 14.8984206,26.6177541 C14.8952961,25.6202277 14.9284949,24.6227014 15.0050474,23.625175 C15.0050474,22.3655734 16.0388971,21.3438314 17.31295,21.3438314 C19.1314632,21.2676695 20.9917679,21.2340801 22.8895676,21.2375953 C24.7869768,21.2340801 26.647672,21.2676695 28.4657947,21.3438314 C29.7398475,21.3438314 30.7736973,22.3655734 30.7736973,23.625175 C30.8502498,24.6227014 30.8834486,25.6202277 30.880324,26.6177541 L30.880324,26.6177541 Z M29.194606,29.7864821 C29.4375432,29.5162048 29.5594023,29.1135229 29.5594023,28.5788269 L29.5594023,28.187081 L28.5614854,28.187081 L28.5614854,28.5499244 C28.5614854,28.8565251 28.5290677,29.0549368 28.4654041,29.1447688 C28.40135,29.2346009 28.2888646,29.2795169 28.1279481,29.2795169 C27.9736713,29.2795169 27.8647011,29.2263988 27.8006469,29.1201626 C27.7365928,29.0139265 27.7045657,28.8237169 27.7045657,28.5499244 L27.7045657,27.5660681 L29.5594023,27.5660681 L29.5594023,26.238116 C29.5594023,25.7432586 29.4398866,25.3636205 29.2020269,25.099983 C28.9637767,24.8359549 28.6231961,24.7039408 28.1795038,24.7039408 C27.745576,24.7039408 27.3917158,24.8465004 27.1179233,25.1316195 C26.8437403,25.4167386 26.7066487,25.7854406 26.7066487,26.238116 L26.7066487,28.5788269 C26.7066487,29.0811052 26.8316325,29.4755851 27.0808188,29.7622665 C27.3303957,30.048948 27.672148,30.1922887 28.1060759,30.1922887 C28.5888255,30.1922887 28.9516689,30.05715 29.194606,29.7864821 L29.194606,29.7864821 Z M27.7045657,26.7564079 L27.7045657,26.2283517 C27.7045657,26.0100207 27.7381551,25.8537911 27.8057244,25.7588816 C27.8729031,25.6647532 27.9834356,25.6171031 28.1377124,25.6171031 C28.2853494,25.6171031 28.3931479,25.6647532 28.4603267,25.7588816 C28.5275054,25.8537911 28.5614854,26.0100207 28.5614854,26.2283517 L28.5614854,26.7564079 L27.7045657,26.7564079 L27.7045657,26.7564079 Z M25.7473986,29.8220244 C25.899332,29.625175 25.9754939,29.3416182 25.9754939,28.9705727 L25.9754939,26.0771995 C25.9754939,25.6514737 25.8942545,25.3269066 25.7325568,25.1042793 C25.5712497,24.881652 25.3369052,24.7699478 25.0299139,24.7699478 C24.8795429,24.7699478 24.7311247,24.8113487 24.5838783,24.8941504 C24.4370224,24.9773427 24.2983686,25.0980301 24.1679168,25.2573844 L24.1679168,22.9815088 L23.1887474,22.9815088 L23.1887474,30.0512914 L24.1679168,30.0512914 L24.1679168,29.6501718 C24.295244,29.8091354 24.4331167,29.9266982 24.5815348,30.0028602 C24.7303436,30.0790222 24.8990716,30.1172984 25.0888906,30.1172984 C25.3759626,30.1172984 25.5954653,30.0188737 25.7473986,29.8220244 L25.7473986,29.8220244 Z M24.9771864,28.8287943 C24.9771864,28.9951789 24.9494557,29.1150852 24.893213,29.1881225 C24.8373609,29.2615505 24.7502629,29.2982645 24.6319189,29.2982645 C24.5495077,29.2982645 24.4713929,29.2795169 24.3971838,29.2420218 C24.3229747,29.2045267 24.2468128,29.1435971 24.1679168,29.0588425 L24.1679168,25.8084845 C24.2335333,25.7370094 24.3003214,25.6838913 24.3675002,25.6499114 C24.4350695,25.6155408 24.50342,25.5983556 24.5725516,25.5983556 C24.7041751,25.5983556 24.8045527,25.6440528 24.8736843,25.7354471 C24.9428159,25.8264509 24.9771864,25.9600272 24.9771864,26.1361762 L24.9771864,28.8287943 L24.9771864,28.8287943 Z M21.2729813,30.0512914 L22.2427769,30.0512914 L22.2427769,24.8359549 L21.2729813,24.8359549 L21.2729813,28.7948144 C21.1819775,28.908862 21.0819905,29.0022093 20.9734109,29.0756372 C20.8644407,29.1486746 20.7742181,29.1853885 20.702743,29.1853885 C20.6117392,29.1853885 20.5461228,29.1576578 20.5055031,29.1021962 C20.4648833,29.0467347 20.4445735,28.9576838 20.4445735,28.8338718 L20.4445735,24.8359549 L19.4747779,24.8359549 L19.4747779,29.1951529 C19.4747779,29.5056593 19.5318017,29.7384415 19.6454588,29.89389 C19.7591159,30.048948 19.9282345,30.1266722 20.152424,30.1266722 C20.334041,30.1266722 20.5219072,30.0708201 20.7152414,29.9602876 C20.9085756,29.8493646 21.0940983,29.6876669 21.2729813,29.4755851 L21.2729813,30.0512914 L21.2729813,30.0512914 Z M18.358517,24.0075471 L19.4880574,24.0075471 L19.4880574,22.9815088 L16.1365407,22.9815088 L16.1365407,24.0075471 L17.2664717,24.0075471 L17.2664717,30.0512914 L18.358517,30.0512914 L18.358517,24.0075471 L18.358517,24.0075471 Z M23.2031987,19.6139786 C23.2805324,19.5339109 23.3191992,19.4241595 23.3191992,19.2839434 L23.3191992,16.4432977 C23.3191992,16.3296406 23.2797512,16.2374651 23.2008552,16.1671617 C23.1219593,16.097249 23.0184571,16.0620973 22.8903488,16.0620973 C22.7720048,16.0620973 22.675533,16.097249 22.6017145,16.1671617 C22.527896,16.2374651 22.4907914,16.3296406 22.4907914,16.4432977 L22.4907914,19.2839434 C22.4907914,19.4272841 22.525162,19.5382072 22.5942936,19.6167126 C22.6634252,19.6948274 22.7618499,19.7334942 22.8903488,19.7334942 C23.0215817,19.7334942 23.125865,19.6940463 23.2031987,19.6139786 L23.2031987,19.6139786 Z" id="youtube-Fill-5" fill="currentColor" sketch:type="MSShapeGroup"/> </g> </g> </symbol></svg>