<svg xmlns="http://www.w3.org/2000/svg" xmlns:xlink="http://www.w3.org/1999/xlink" xmlns:sketch="http://www.bohemiancoding.com/sketch/ns" style="display:none;"><defs><path id="corporate-engagement-a" d="M29.48 22.76V.5H.28v22.26h29.2z"/><path id="grants-a" d="M0 55.88h58.8V0H0z"/><path id="kiva-promise-a" d="M.15.77V46.4h185.4V.77H.15z"/><path id="kiva-promise-c" d="M.4 26.23h68.7V.54H.4v25.7z"/></defs><symbol viewBox="0 0 100 100" id="icon-apply-circle"><title>Apply</title><circle cx="50" cy="50" r="49"/><g fill="currentColor"><path d="M50 0C22.4 0 0 22.4 0 50s22.4 50 50 50 50-22.4 50-50S77.6 0 50 0zM22.8 85.8V31.5c0-1.1.9-2 2-2h36.8v13.4c0 3.5 2.9 6.4 6.4 6.4h13.2v33C73.1 90.2 62.1 95 50 95c-10.2 0-19.7-3.4-27.2-9.2zm42.8-55.6l14.9 15.2H68c-1.3 0-2.4-1.1-2.4-2.4V30.2zm19.6 47.7V44.4L66.6 25.5H24.8c-3.3 0-6 2.7-6 6v50.8C10.3 74.1 5 62.7 5 50 5 25.2 25.2 5 50 5s45 20.2 45 45c0 10.5-3.7 20.2-9.8 27.9z"/><path d="M28 38.3h16.3c.6 0 1-.4 1-1s-.4-1-1-1H28c-.6 0-1 .4-1 1 0 .5.4 1 1 1zM28 64h16.3c.6 0 1-.4 1-1s-.4-1-1-1H28c-.6 0-1 .4-1 1s.4 1 1 1zM75.2 68.3H28c-.6 0-1 .4-1 1s.4 1 1 1h47.2c.6 0 1-.4 1-1 0-.5-.5-1-1-1zM70.7 74.7H28c-.6 0-1 .4-1 1s.4 1 1 1h42.7c.6 0 1-.4 1-1s-.5-1-1-1zM28 44.8h20.2c.6 0 1-.4 1-1s-.4-1-1-1H28c-.6 0-1 .4-1 1 0 .5.4 1 1 1zM28 51.3h11c.6 0 1-.4 1-1s-.4-1-1-1H28c-.6 0-1 .4-1 1 0 .5.4 1 1 1z"/></g></symbol><symbol viewBox="0 0 62 62" id="icon-apply"><title>apply</title><style>.st0{fill:#FFFFFF;}</style><path d="M31 61c16.5 0 30-13.5 30-30S47.5 1 31 1 1 14.5 1 31s13.5 30 30 30"/><path class="st0" d="M52.9 48.3V27.5L41.3 15.8h-26c-2.1 0-3.7 1.7-3.7 3.7V51c-5.2-5-8.5-12.1-8.5-20C3.1 15.6 15.6 3.1 31 3.1S58.9 15.6 58.9 31c0 6.5-2.3 12.6-6 17.3zM40.7 18.7l9.3 9.4h-7.8c-.8 0-1.5-.7-1.5-1.5v-7.9zM14.1 53.2V19.5c0-.7.6-1.2 1.2-1.2h22.8v8.3c0 2.2 1.8 4 4 4h8.2V51c-5 4.9-11.9 7.9-19.4 7.9-6.2 0-12.1-2.1-16.8-5.7zM31 0C13.9 0 0 13.9 0 31s13.9 31 31 31 31-13.9 31-31S48.1 0 31 0z"/><path class="st0" d="M17.4 23.7h10.1c.3 0 .6-.3.6-.6s-.3-.6-.6-.6H17.4c-.3 0-.6.3-.6.6-.1.3.2.6.6.6m0 16h10.1c.3 0 .6-.3.6-.6s-.3-.6-.6-.6H17.4c-.3 0-.6.3-.6.6-.1.3.2.6.6.6m29.2 2.7H17.4c-.3 0-.6.3-.6.6s.3.6.6.6h29.2c.3 0 .6-.3.6-.6 0-.4-.3-.6-.6-.6m-2.8 3.9H17.4c-.3 0-.6.3-.6.6s.3.6.6.6h26.5c.3 0 .6-.3.6-.6s-.3-.6-.7-.6M17.4 27.7h12.5c.3 0 .6-.3.6-.6s-.3-.6-.6-.6H17.4c-.3 0-.6.3-.6.6s.2.6.6.6m0 4.1h6.8c.3 0 .6-.3.6-.6s-.3-.6-.6-.6h-6.8c-.3 0-.6.3-.6.6-.1.3.2.6.6.6"/></symbol><symbol viewBox="0 0 75 75" id="icon-auto-deposit"><title>auto-deposit</title><g fill-rule="evenodd"><path fill="#5E9C43" d="M20.67 54.76h33.27V25.72H20.67v29.04zm0-30.85h5.8v-2.4h-5.8v2.4zm8.83 0h15.76v-2.4H29.5v2.4zm18.8 0h5.64v-2.4H48.3v2.4zm7.15-5.43H48.3v-1.52c0-.83-.7-1.5-1.52-1.5-.84 0-1.52.67-1.52 1.5v1.52H29.5v-1.52c0-.83-.68-1.5-1.52-1.5-.83 0-1.5.67-1.5 1.5v1.52h-7.32c-.84 0-1.5.67-1.5 1.5v36.3c0 .83.66 1.5 1.5 1.5h36.3c.82 0 1.5-.67 1.5-1.5v-36.3c0-.83-.68-1.5-1.5-1.5z"/><path fill="#5E9C43" d="M29.05 40.24l-2.58 2.6 6.26 6.24 15.8-15.6-2.6-2.6-13.2 13.04-3.68-3.68"/><path fill="#D9E1DE" d="M37.57 75h-.15C17.22 74.96.72 58.87.02 38.83v-2.65C.72 16.1 17.26 0 37.5 0 58.17 0 75 16.83 75 37.5 75 58.15 58.22 74.96 37.57 75M37.5 3.85c-18.56 0-33.65 15.1-33.65 33.65 0 18.56 15.1 33.65 33.65 33.65 18.55 0 33.65-15.1 33.65-33.65 0-18.55-15.1-33.65-33.65-33.65"/></g></symbol><symbol viewBox="0 0 124 124" id="icon-boundaries"><title>boundaries</title><g fill-rule="evenodd"><path d="M62 6.3C31.32 6.3 6.36 31.08 6.36 61.5c0 30.45 24.96 55.2 55.64 55.2s55.64-24.75 55.64-55.2c0-30.43-24.96-55.2-55.64-55.2zm0 116.72c-34.2 0-62-27.6-62-61.5C0 27.6 27.8 0 62 0c34.18 0 62 27.58 62 61.5 0 33.9-27.82 61.5-62 61.5z"/><path d="M89.64 43.08l5.45 5.45V29.38H75.94l5.45 5.45L62 54.23l-19.4-19.4 5.44-5.45H28.9v19.15l5.45-5.45 19.4 19.4-19.4 19.4-5.45-5.45v19.14h19.14l-5.45-5.45L62 70.72l19.4 19.4-5.45 5.46H95.1V76.42l-5.46 5.45-19.4-19.4 19.4-19.4" fill="currentColor"/></g></symbol><symbol viewBox="0 0 16 16" id="icon-checkbox-bad"><title>Delinquent Icon</title><path d="M5.17 12.24L8 9.4l2.83 2.84 1.4-1.4L9.42 8l2.84-2.83-1.4-1.4L8 6.58 5.17 3.75l-1.4 1.4L6.58 8l-2.84 2.83"/><path d="M14 2v12H2V2h12m2-2H0v16h16V0z"/></symbol><symbol viewBox="-1 -3 27 22" id="icon-checkbox-checked"><title>checkbox-checked</title><g fill="none" fill-rule="evenodd"><path stroke="#333" d="M0 0h18v18H0z"/><path fill="#5E9C43" fill-rule="nonzero" d="M5.58 6.36L3 8.94l6.26 6.26L25.06-.42 22.48-3 9.26 10.03 5.58 6.36"/></g></symbol><symbol viewBox="0 0 16 16" id="icon-checkbox-good"><title>Repayment Received Icon</title><path d="M12.4 6L11 4.6l-4 4-2-2L3.6 8 7 11.4"/><path d="M14 2v12H2V2h12m2-2H0v16h16V0z"/></symbol><symbol viewBox="-1 -3 27 22" id="icon-checkbox-unchecked"><title>checkbox-unchecked</title><path stroke="#333" d="M0 0h18v18H0z" fill="none" fill-rule="evenodd"/></symbol><symbol viewBox="0 0 16 16" id="icon-checkmark"><title>Shape 2 Copy</title><path d="M8 0C3.58 0 0 3.58 0 8s3.58 8 8 8 8-3.58 8-8-3.58-8-8-8zm3 4.6L12.4 6 7 11.4 3.6 8 5 6.6l2 2 4-4z" fill-rule="evenodd"/></symbol><symbol viewBox="0 0 62 62" id="icon-choose"><title>icon-choose</title><g fill-rule="evenodd"><path d="M31.06 59.7c15.9 0 28.84-12.93 28.84-28.84 0-15.9-12.94-28.84-28.84-28.84S2.2 14.96 2.2 30.86 15.16 59.7 31.07 59.7"/><path d="M31.06 59.7c15.9 0 28.84-12.93 28.84-28.84 0-15.9-12.94-28.84-28.84-28.84S2.2 14.96 2.2 30.86 15.16 59.7 31.07 59.7z" stroke="currentColor" stroke-width="3"/><path d="M31.02 21c-2.3 0-4.12-1.84-4.1-4.12.02-2.24 1.93-4.1 4.17-4.08 2.26.03 4.1 1.9 4.1 4.16-.03 2.27-1.88 4.06-4.18 4.05M31.06 22c-.16 0-3.95.04-5.54 4.1-1.8 4.63-.67 16.8 5.54 23.45 6.2-6.65 7.34-18.82 5.53-23.45C35 22.04 31.2 22 31.05 22M44.45 24.1c-1.7 0-3.03-1.36-3.02-3.04 0-1.66 1.42-3.03 3.08-3 1.68 0 3.05 1.4 3.03 3.06 0 1.67-1.38 3-3.08 3M44.48 25.06c-.12 0-2.9.04-4.1 3.04-1.32 3.4-.47 12.4 4.1 17.3 4.58-4.9 5.42-13.9 4.1-17.3-1.2-3-3.98-3.04-4.1-3.04M17.6 24.1c-1.7 0-3.03-1.36-3.02-3.04 0-1.66 1.42-3.03 3.08-3 1.67 0 3.04 1.4 3.02 3.06 0 1.67-1.38 3-3.08 3M17.63 25.06c-.12 0-2.9.04-4.1 3.04-1.32 3.4-.47 12.4 4.1 17.3 4.58-4.9 5.42-13.9 4.1-17.3-1.2-3-3.98-3.04-4.1-3.04" fill="currentColor"/></g></symbol><symbol viewBox="0 0 16 16" id="icon-confirmation"><title>Shape 2 Copy</title><path d="M8 0C3.58 0 0 3.58 0 8s3.58 8 8 8 8-3.58 8-8-3.58-8-8-8zm3 4.6L12.4 6 7 11.4 3.6 8 5 6.6l2 2 4-4z" fill-rule="evenodd"/></symbol><symbol viewBox="0 0 61 56" id="icon-corporate-engagement"><title>corporate-engagement</title><g fill="none" fill-rule="evenodd"><path fill="#FFF" d="M19.87 13.66l-6.9 1.72V14.2l6.9-1.7M19.87 16.5l-6.9 1.73v-1.17l6.9-1.72M19.87 19.36l-6.9 1.72V19.9l6.9-1.7M19.87 22.22l-6.9 1.7v-1.16l6.9-1.7M19.87 25.07l-6.9 1.7v-1.15l6.9-1.72M19.87 27.92l-6.9 1.72v-1.17l6.9-1.72M19.87 30.77l-6.9 1.72V31.3l6.9-1.72M19.87 33.62l-6.9 1.72v-1.17l6.9-1.72M19.87 36.47l-6.9 1.72V37l6.9-1.72"/><path fill="#236133" d="M11.53 13.87l7.32 3.28v34.17H4.63V17.05"/><path fill="#63A541" d="M11.46 51.32h-6.9V17.05l6.9-3.18"/><path fill="#FFF" d="M10.55 19.5l-5.1 1.9v-.86l5.1-1.9M10.55 22.44l-5.1 1.9v-.86l5.1-1.9M10.45 25.7l-5.1 1.7v-.87l5.1-1.68M10.55 28.74l-5.1 1.5v-.87l5.1-1.5M10.55 31.9l-5.1 1.28v-.87l5.1-1.26M10.55 35.54l-5.1 1.27v-.85l5.1-1.27M10.55 39.2l-5.1 1.1v-.85l5.1-1.1"/><path fill="#236133" d="M0 55.38h42.3v-2.4H0M27.4.8l9.9 4.42v46.1H18.1V5.08"/><path fill="#63A541" d="M27.3 51.32H18V5.08L27.3.8"/><path fill="#FFF" d="M25.95 8.25l-6.9 2.57V9.65l6.9-2.57M25.95 12.23l-6.9 2.58v-1.16l6.9-2.58M25.8 16.66l-6.9 2.27v-1.17l6.9-2.27M25.95 20.76l-6.9 2.02V21.6l6.9-2M25.95 25.04l-6.9 1.72V25.6l6.9-1.73M25.95 29.97l-6.9 1.7v-1.15l6.9-1.72M25.95 34.92l-6.9 1.5v-1.17l6.9-1.5M24.33 51.9l-3.98.42v-4.44l3.98-.43"/><g transform="translate(31.3 15.38)"><path fill="#63A541" d="M6.4 22.36c-2.2 0-4.08-1.65-4.36-3.84L.7 8.2C.4 5.8 2.1 3.58 4.52 3.27L22.77.93l.56-.03c2.22 0 4.1 1.65 4.38 3.84l1.34 10.32c.15 1.16-.16 2.32-.9 3.25-.7.94-1.75 1.54-2.9 1.7L6.97 22.3c-.2.03-.38.04-.57.04z"/><mask id="corporate-engagement-b" fill="#fff"><use xlink:href="#corporate-engagement-a"/></mask><path fill="#FFF" d="M23.33.5c-.2 0-.4 0-.6.04L4.46 2.87C1.84 3.2-.03 5.62.3 8.25l1.34 10.32c.3 2.4 2.36 4.2 4.77 4.2.22 0 .43-.02.63-.05l18.25-2.34c1.27-.16 2.4-.8 3.2-1.83.78-1 1.12-2.27.96-3.54L28.1 4.7C27.8 2.3 25.76.5 23.34.5m0 .8c2 0 3.73 1.48 3.98 3.5l1.34 10.3c.3 2.2-1.27 4.2-3.46 4.5L6.93 21.92l-.52.03c-1.97 0-3.7-1.48-3.97-3.5L1.1 8.15c-.28-2.18 1.28-4.2 3.47-4.47l18.25-2.34.5-.03" mask="url(#corporate-engagement-b)"/><path fill="#FFF" d="M15 13.53c.1.6 1.24 3.97 5.62 3.4l.35-.03c-.08-.62-1.23-3.98-5.6-3.42l-.36.05zm.22-1.16c4.06-.52 4.58-4.02 4.5-4.6l-.35.04c-4.06.54-4.58 4.04-4.5 4.62l.35-.05zm-2.3-6.54l-2.55.33 1.54 11.9 2.54-.32-1.53-11.9z"/></g></g></symbol><symbol viewBox="0 0 71 119" id="icon-curved-arrow-large"><title>Curved arrow</title><path d="M70.05 0h-5c0 47.2-21.54 86.8-59.23 109.25L3.45 105 0 115.67l10.9 2.67-2.64-4.73C47.56 90.27 70.06 49.07 70.06 0z"/></symbol><symbol viewBox="0 0 92 157" id="icon-curved-arrow-small"><title>Stroke 7 + Fill 8</title><g fill="none" fill-rule="evenodd"><path d="M5.78 149.5C59.12 119.72 89.7 65.23 89.7 0" stroke="#488443" stroke-width="4"/><path d="M0 152.72l14.4 3.52-9.84-17.6L0 152.7" fill="#488443"/></g></symbol><symbol viewBox="0 0 71 119" id="icon-curved-arrow"><title>Curved arrow</title><path d="M70.05 0h-5c0 47.2-21.54 86.8-59.23 109.25L3.45 105 0 115.67l10.9 2.67-2.64-4.73C47.56 90.27 70.06 49.07 70.06 0z"/></symbol><symbol viewBox="0 0 76 70" id="icon-dedicate-heart"><title>dedicate-heart</title><path fill="#63A544" d="M54.07 0C47.72 0 42 2.83 38 7.35c0 0 0 .02 0 0-.73.98-1.42 2.04-1.96 3.28-.45 1.1-.8 2.2-1.1 3.3-.08.36-.18.72-.25 1.1-.02.03-.03.06-.03.1-.13.68-.28 1.38-.36 2.13-1.05 8.5 2 15.65 2 15.65-.82-15.97 3.18-21.5 3.18-21.5l5.3 5.08c13.22 12.65.37 26.08.37 26.08l-7.7 8.06-7.95-7.6c-13.22-12.65-.37-26.08-.37-26.08l3.93-4.1c.7-2.87 1.75-5.3 3.07-7.35C32.3 2.06 27.35 0 21.93 0 9.83 0 0 10.3 0 22.98c0 3.4.57 6.7 1.58 9.83 0 0 .92 2.83 1.72 4.4C12.55 57.1 38 70 38 70s25.45-12.9 34.7-32.8c0 0 1.2-2.66 1.72-4.4C75.38 29.67 76 26.4 76 23 76 10.28 66.18 0 54.07 0z"/></symbol><symbol viewBox="0 0 31 15" id="icon-distribution"><title>Distribution</title><g fill-rule="evenodd"><g stroke="currentColor" stroke-width="2" stroke-linecap="square"><path d="M21 1.5v12M25 1.5v12M29 1.5v12"/></g><text font-family="PostGrotesk" font-size="18" fill="currentColor" transform="translate(0 -3)"><tspan x="0" y="17">%</tspan></text></g></symbol><symbol viewBox="0 0 24 24" id="icon-edit"><title>edit</title><path d="M7 22v-2h6v2H7zm7.3-7.66l9.7-9.8L19.46 0l-9.7 9.8 4.55 4.54zM7 8h1.74l1.98-2H7v2zm11 8h2v-4.57l-2 2.02V16zm-9.58-4.72L7 17l5.83-1.32-4.4-4.4zM2 10V8h3V6H0v4h2zm16 8v2h-3v2h5v-4h-2zM5 20H2v-2H0v4h5v-2zm-5-4h2v-4H0v4z"/></symbol><symbol viewBox="0 0 46 31" id="icon-email"><title>email</title><path fill="#5E9C43" d="M16.9 16.47l4.8 4.08c.3.23.63.35.98.35s.7-.12.98-.35l4.73-4L40.05 27.6H5.13L16.9 16.48zm-2.34-1.96L3.02 25.46V4.77l11.54 9.74zm27.78-9.73V25.6l-11.63-11 11.64-9.83zM22.68 17.4L5.65 3.03h34.07l-17.04 14.4zm22.6 12.2l.02-.08c.04-.13.06-.26.06-.4V1.45l-.02-.16-.03-.14-.03-.15-.06-.14-.06-.13-.1-.13-.03-.06-.04-.04-.1-.12-.12-.1-.13-.07-.1-.05-.15-.06-.14-.05-.13-.03h-.16L43.86 0H1.46c-.05 0-.1 0-.16.02l-.14.03L1 .1.9.13.75.2.62.3l-.1.08-.12.1-.04.06L.3.6.23.73.16.86.1 1l-.05.14-.03.14v.16L0 1.5V29.14c0 .83.68 1.5 1.5 1.5h42.35c.1 0 .2 0 .3-.02.1 0 .2-.04.3-.08.12-.06.23-.13.33-.2l.07-.07c.1-.1.2-.18.26-.3h.02c.07-.1.12-.22.16-.34z"/></symbol><symbol viewBox="0 0 28 28" id="icon-error"><title>Error icon</title><path d="M14 0C6.27 0 0 6.27 0 14s6.27 14 14 14 14-6.27 14-14S21.73 0 14 0zm1.63 5.25h-4l.38 10.5h3.26l.37-10.5zm-4.26 15.5c0 1.27.92 2.26 2.26 2.26 1.34 0 2.26-.98 2.26-2.25 0-1.33-.93-2.23-2.27-2.23-1.34 0-2.26.9-2.26 2.23z" fill-rule="evenodd"/></symbol><symbol viewBox="0 0 46 46" id="icon-facebook"><title>Facebook</title><g fill-rule="evenodd"><circle stroke="currentColor" cx="22.8" cy="22.55" r="22"/><path d="M30.74 9.77H14.86c-2.24 0-4.06 1.93-4.06 4.32V31c0 2.38 1.82 4.32 4.06 4.32h7.78V24.92h-2.57v-3.5h2.57V18.6c0-.52-.1-3.96 4.03-3.96h3.06v3.58h-2.3c-.4 0-.84.47-.84.82v2.35h2.98c-.12 1.8-.36 3.52-.36 3.52h-2.65v10.42h4.17c2.24 0 4.06-1.94 4.06-4.32V14.1c0-2.4-1.82-4.33-4.06-4.33" fill="currentColor"/></g></symbol><symbol viewBox="0 0 17 17" id="icon-filter"><title>Filters</title><g fill-rule="evenodd"><path d="M15.5 3.5H1.44M15.5 11.5H1.44" stroke-linecap="square"/><circle fill="#FFF" cx="10.5" cy="3.5" r="2.5"/><circle fill="#FFF" cx="6.5" cy="11.5" r="2.5"/></g></symbol><symbol viewBox="0 0 100 100" id="icon-fundraise"><title>Fundraise</title><circle cx="50" cy="50" r="49"/><g fill="currentColor"><path d="M50 5c24.8 0 45 20.2 45 45S74.8 95 50 95 5 74.8 5 50 25.2 5 50 5m0-5C22.4 0 0 22.4 0 50s22.4 50 50 50 50-22.4 50-50S77.6 0 50 0z"/><circle cx="58.3" cy="39.9" r="2.5"/><circle cx="65.2" cy="39.9" r="2.5"/><path d="M24 23v9.8h52V23H24zm18.3 5.3c-.8 0-1.5-.7-1.5-1.5s.7-1.5 1.5-1.5 1.5.7 1.5 1.5-.7 1.5-1.5 1.5zm16.9 0h-12c-.8 0-1.5-.7-1.5-1.5s.7-1.5 1.5-1.5h12c.8 0 1.5.7 1.5 1.5s-.7 1.5-1.5 1.5zM29.5 37.4h2.1v9.7h-2.1zM32.3 43.1c3.3 0 4.1-2.8 4.1-3.2h-.3c-3.3 0-4.1 2.8-4.1 3.2h.3zM32 43.7c0 .5.6 3.3 4.1 3.3h.3c0-.5-.6-3.3-4.1-3.3H32z"/></g><g fill="none" stroke="currentColor"><g stroke-width="2"><circle cx="49.8" cy="70.2" r="19.8"/><circle cx="49.8" cy="64.8" r="6"/><path d="M64.9 83.1c-1.4-7.1-7.6-12.4-15.1-12.4S36.1 76 34.7 83.1"/></g><path stroke-width="4" d="M24 89.9V27c0-2.2 1.5-4 3.3-4h45.3c1.8 0 3.3 1.8 3.3 4v62.9"/></g></symbol><symbol viewBox="0 0 26 26" id="icon-globe"><title>Slice 1 Copy 4</title><path d="M25 13c0-6.63-5.37-12-12-12S1 6.37 1 13s5.37 12 12 12 12-5.37 12-12zm-6.56.54c-.1 1.44-.52 2.88-1.27 4.3-1.3-.26-2.5-.4-3.6-.42v-3.88h4.87zm-4.88-1.1v-3.9c1.13-.02 2.37-.16 3.68-.44.64 1.26 1.13 2.7 1.2 4.3v.03h-4.88zm3.02 6.43c-.77 1.2-1.78 2.4-3.02 3.6v-3.94c.95.03 1.96.13 3.02.34zm1.15.25c.77.2 1.57.45 2.4.77-1.4 1.43-3.22 2.44-5.25 2.83 1.16-1.18 2.1-2.4 2.85-3.6zM13.56 3.5c.7.6 2 1.86 3.1 3.6-1.1.2-2.14.3-3.1.34V3.5zm6.54 2.6c-.78.3-1.54.53-2.28.72-.9-1.53-2-2.73-2.83-3.53 1.97.4 3.74 1.4 5.1 2.8zm.77.88c1.17 1.53 1.9 3.4 2.03 5.45h-3.33v-.1c-.1-1.67-.57-3.18-1.2-4.5.8-.22 1.64-.5 2.5-.85zm2.03 6.56c-.1 2.05-.85 3.93-2 5.46-.9-.37-1.77-.66-2.62-.88.76-1.5 1.18-3.04 1.28-4.58h3.34zM5.12 19c-1.17-1.53-1.9-3.4-2.02-5.46h3.34c.1 1.53.52 3.05 1.27 4.55-1.4.37-2.32.78-2.58.9zm3.14.1c.74 1.23 1.7 2.44 2.9 3.64-2.06-.4-3.9-1.4-5.28-2.85.42-.2 1.24-.52 2.38-.8zM3.1 12.43c.12-2.05.86-3.93 2.04-5.46.27.13 1.15.53 2.5.9-.65 1.3-1.1 2.8-1.2 4.46v.1H3.1zM5.9 6.1c1.36-1.4 3.14-2.4 5.13-2.82-.84.8-1.94 2.02-2.86 3.58-1.07-.28-1.86-.6-2.27-.77zm6.54-2.6v3.95c-.93-.03-1.77-.1-2.5-.23l-.6-.1c1.08-1.73 2.38-3 3.1-3.6zm0 5.06v3.87h-4.9v-.03c.1-1.58.57-3.02 1.2-4.27.32.07.64.13.98.18.8.14 1.7.24 2.72.26zm0 4.98v3.87c-1.02.04-1.93.13-2.72.26l-.9.16c-.74-1.42-1.16-2.85-1.26-4.28h4.88zm0 5v3.92c-1.24-1.2-2.25-2.4-3.02-3.6.9-.18 1.9-.3 3.02-.33z" fill-rule="evenodd"/></symbol><symbol viewBox="0 0 75 75" id="icon-goals"><title>goals</title><g fill-rule="nonzero" fill="none"><path fill="#D9E1DE" d="M37.57 75h-.15C17.22 74.96.72 58.87.02 38.83v-2.65C.72 16.1 17.26 0 37.5 0 58.17 0 75 16.83 75 37.5 75 58.15 58.22 74.96 37.57 75M37.5 3.85c-18.56 0-33.65 15.1-33.65 33.65 0 18.56 15.1 33.65 33.65 33.65 18.55 0 33.65-15.1 33.65-33.65 0-18.55-15.1-33.65-33.65-33.65"/><path fill="#5E9C43" d="M28.26 55.34h7.26V37.9h-7.26M17.93 55.34h7.26V43.72h-7.27M38.6 55.34h7.25v-22.6H38.6M48.92 55.34h7.26V26.28h-7.26M48.46 16.83l-8.55-2.58L42 18.1 15.32 30.5l1.63 3.5 26.86-12.47 2.07 3.85 2.6-8.55"/></g></symbol><symbol viewBox="0 0 59 56" id="icon-grants"><title>grants</title><g fill="none" fill-rule="evenodd"><path fill="#236133" d="M11.13 44.23s4.68-6.6 6.96-6.76c2.27-.15 9.4-.03 9.4-.03s2.48-.52 4.6-1.84c3.03-1.92 5.66-5.48 7.7-3.05 2.52 2.83-3.8 7.9-5.33 9.42-1.52 1.52 7.68.77 10.04.12 2.36-.67 13.43-9.42 14.3-2.98-1.38 2.68-17.95 13.76-26.92 13.76H11.2l-.07-8.65z"/><mask id="grants-b" fill="#fff"><use xlink:href="#grants-a"/></mask><path fill="#236133" mask="url(#grants-b)" d="M0 55.88h10v-15H0"/><path fill="#63A541" d="M40.24 1.75L30.4 0l-1.77 9.98S25.67 26.6 42.05 29.53l6.56 1.17s.26-6.2-8.4-17.87c0 0 10.3 6.76 11.68 18.45l1.78-9.98S56.63 4.68 40.24 1.75" mask="url(#grants-b)"/></g></symbol><symbol viewBox="0 0 19 19" id="icon-grid"><title>Grid Icon</title><g fill-rule="evenodd"><path d="M0 0h9v9H0zM10 0h9v9h-9zM10 10h9v9h-9zM0 10h9v9H0z"/></g></symbol><symbol viewBox="0 0 24 24" id="icon-half-star"><title>Half-star Icon</title><path d="M0 0h24v24H0z"/><path fill="#EFEFEF" d="M12 0l2.83 9.17H24l-7.42 5.66L19.42 24 12 18.34 4.58 24l2.84-9.17L0 9.17h9.17L12 0z"/><path fill="currentColor" d="M12 0v18.34L4.58 24l2.84-9.17L0 9.17h9.17L12 0z"/></symbol><symbol viewBox="0 0 124 124" id="icon-hand-up"><title>hand_up</title><g fill-rule="evenodd"><path d="M62 6.3C31.32 6.3 6.36 31.08 6.36 61.5c0 30.45 24.96 55.2 55.64 55.2s55.64-24.75 55.64-55.2c0-30.43-24.96-55.2-55.64-55.2zm0 116.72c-34.2 0-62-27.6-62-61.5C0 27.6 27.8 0 62 0c34.18 0 62 27.58 62 61.5 0 33.9-27.82 61.5-62 61.5z"/><path d="M94.76 65.73c-2.05-2.1-5.05-2.07-7.06.07-2.52 2.7-5.02 6.58-7.54 9.28-.22.24-.48.44-.87.8v-1.5c0-13.45 0-28.1-.03-41.54 0-.7-.07-1.45-.34-2.07-.86-1.96-2.96-2.9-5.15-2.42-2.1.46-3.38 2.05-3.38 4.27v27.22h-2.78v-1.4c0-11.5 0-23-.02-34.5 0-.76-.15-1.6-.5-2.27-.95-1.87-3.04-2.65-5.2-2.1-2 .53-3.17 2.1-3.17 4.3v35.98h-2.2V58.4c0-9.72-.07-19.44.02-29.16.03-2.34-1.7-4.6-4.53-4.58-2.62.03-4.4 1.88-4.4 4.57v30.64h-1.86v-1.44c0-6.94.02-13.88 0-20.82-.02-.72-.13-1.52-.44-2.16-.96-1.96-3.1-2.78-5.36-2.2-1.83.46-3.08 2.2-3.08 4.28 0 15.3-.04 30.62.04 45.93 0 3.4.23 4.12.75 7.47 1.18 7.68 5.54 12.5 13.06 13.95.7.14 1.42.25 2.13.34V83.44h-8.03l14.1-13.48 14.1 13.48h-8.02v21.5C71.36 103.7 75.85 100.2 80 94.4c3.83-5.22 7.1-9.4 10.65-15.44 1.56-2.67 3.14-5.33 4.68-8 1.16-2 .96-3.7-.54-5.2" fill="currentColor"/></g></symbol><symbol viewBox="0 0 26 17" id="icon-handshake"><title>Slice 1 Copy 3</title><g fill-rule="evenodd"><path d="M7.06 8.54l-.02-.02c-.2-.18-.44-.28-.7-.28-.28 0-.53.1-.72.3l-1.67 1.7c-.38.4-.38 1.03.02 1.4l.02.03c.17.18.42.28.7.28.26 0 .52-.1.7-.3l1.67-1.7c.4-.38.38-1.02 0-1.4zM8.96 10.06c-.2-.2-.45-.3-.72-.3-.27 0-.53.1-.72.3l-1.66 1.7c-.4.4-.38 1.03 0 1.42h.03c.18.2.43.3.7.3.27 0 .53-.1.72-.3l1.66-1.7c.4-.4.38-1.03-.02-1.42zM11.25 11.2h-.02c-.2-.2-.44-.3-.7-.3-.28 0-.53.1-.72.3l-1.66 1.7c-.38.4-.38 1.03.02 1.42l.02.02c.2.18.44.28.7.28.28 0 .53-.1.72-.3l1.67-1.7c.38-.4.38-1.02-.02-1.4zM13.15 12.73v-.02c-.2-.17-.45-.27-.72-.27-.27 0-.53.1-.72.3l-1.65 1.7c-.4.4-.38 1.03.02 1.4v.03c.2.18.45.3.72.3.26 0 .52-.12.7-.32l1.67-1.7c.4-.38.38-1.02-.02-1.4z"/><path d="M15 5.35c-1.75 1.67-3.12 2.3-3.18 2.32-.27.08-.58.13-.9.13-.43 0-.78-.07-.95-.13-.34-.12-.92-.68-1.17-1.13-.26-.47-.03-1.18-.02-1.2V5.3l3.87-3.64c-.18-.2-.55-.28-1.1-.28-1.47 0-3.7.72-3.83.76-.17.07-.4.1-.73.1-.57 0-1.18-.1-1.27-.13-.33 0-1.2-.5-1.33-.6-.14-.04-.28-.06-.4-.06-.33 0-.48.18-.5.22L1.6 5.9C1.04 7 1 7.34 1 7.43c1.02.24 2.38 1.7 2.72 2.1l1.94-1.9h.03c.16-.04.3-.06.46-.06 1.2 0 1.53 1.1 1.6 1.45h.3c1.4 0 1.7 1.13 1.76 1.5.2-.03.38-.05.55-.05 1.3 0 1.6 1.1 1.66 1.46.68-.1 1.2.05 1.56.44.55.6.46 1.6.46 1.65v.03l-1.93 1.95c.27.14.52.2.76.2.94 0 1.36-1.16 1.36-1.17l.03-.08.08.02c.16.03.3.04.45.04 1.3 0 1.35-1.2 1.35-1.26v-.14l.14.04c.26.06.5.1.72.1 1.33 0 1.47-1.26 1.47-1.32l.02-.1h.12c.2.05.38.06.55.06.44 0 .77-.13 1-.4.4-.5.25-1.32.24-1.37-.35-1.4-4.8-4.78-5.43-5.25z"/><path d="M22.5 1.85v-.02c-.1-.53-.42-.6-.6-.6h-.05c-1 .76-2.06.88-2.6.88h-.38c-.98-.1-2.2-.53-2.24-.54h-.02c-.74-.37-1.38-.56-1.9-.56-.5 0-.7.2-.7.2-2.23 2.38-4.3 3.95-4.53 4.13-.38.83.6 1.5.73 1.6.27.06.52.1.75.1.37 0 .55-.1.56-.1h.07c.58 0 2.66-1.75 3.42-2.42l.04-.04.07.03C17.63 5.7 20.8 9.4 21 9.62c.17.13.34.2.48.2.17 0 .26-.1.27-.1l2.58-2.15h.02c.3-.1.47-.26.55-.44.08-.2 0-.4 0-.4l-2.36-4.9z"/></g></symbol><symbol viewBox="0 0 124 124" id="icon-high-five"><title>high-five</title><g fill="currentColor"><path d="M62 1C27.8 1 1 27.8 1 62s26.8 61 61 61 61-26.8 61-61S96.2 1 62 1zM28.2 95.2c-.5-1-.8-2.2-1-3.5-.3-2.1-.5-2.5-.5-4.6V58.5c0-1.3.8-2.4 1.9-2.7.3-.1.6-.1.9-.1.8 0 1.5.3 2 .8v16.2c-1.5.9-2.9 3-3 5.1 0 .7.5 1.3 1.2 1.3h.1c.7 0 1.2-.5 1.2-1.2.1-1.5 1.3-3 1.9-3.1.7 0 1.2-.6 1.2-1.2 0-.1 0-.2-.1-.2 0-.1.1-.2.1-.2V51.6c.5-.6 1.2-1 2.2-1.1 1 0 1.8.5 2.3 1.2v21c-1.5.9-2.9 3-3 5.1 0 .7.5 1.3 1.2 1.3h.1c.7 0 1.2-.5 1.2-1.2.1-1.5 1.3-3 1.9-3.1.7 0 1.2-.6 1.2-1.2 0-.1 0-.2-.1-.2 0-.1.1-.2.1-.2v-25c.3-.4.8-.7 1.4-.9.3-.1.6-.1.8-.1 1 0 1.9.5 2.4 1.4 0 .1 0 .1.1.2v23.9c-1.5.9-2.9 3-3 5.1 0 .7.5 1.3 1.2 1.3h.1c.7 0 1.2-.5 1.2-1.2.1-1.5 1.3-3 1.9-3.1.7 0 1.2-.6 1.2-1.2 0-.1 0-.2-.1-.2 0-.1.1-.2.1-.2V53.9c.4-.5.9-.9 1.6-1 .2-.1.5-.1.7-.1 1.1 0 2.1.6 2.5 1.6.2.4.2.9.2 1.3v26.7c.2-.2.4-.3.5-.5 1.6-1.7 3.1-4.1 4.7-5.8.6-.7 1.4-1 2.2-1 .8 0 1.5.3 2.2 1 .9.9 1.1 2 .3 3.2-1 1.7-1.9 3.3-2.9 5-2.2 3.8-4.2 6.4-6.6 9.6L50.4 98c-1.6 3.5-7.1 10.4-11.7 15.7-6.1-2.7-11.7-6.6-16.4-11.2 2.4-2.3 5.1-5.1 6.2-6.7l-.3-.6zM62 118.6c-6.2 0-13-1-18.6-2.9 3.9-4.6 9.3-11.2 11.3-15.2l2.8-3.6c.4-.5.8-1.1 1.2-1.6 1.9-2.6 3.8-5.1 5.7-8.5l.8-1.4 2.1-3.6c1.8-3.1 1.4-6.7-1.1-9.2-1.6-1.6-3.6-2.4-5.7-2.4-.9 0-1.7.1-2.5.4v-15c0-1.2-.2-2.3-.6-3.3-1.2-2.7-3.9-4.5-7-4.6-.1-.4-.3-.9-.5-1.4-1.3-2.6-3.9-4.1-6.8-4.1-.7 0-1.4.1-2.1.3-1.9.5-3.4 1.6-4.4 3H36c-3.5 0-6.3 2.2-7.3 5.2-.5 0-1 .1-1.4.2-3.3.8-5.6 3.9-5.6 7.5V87c0 2 .1 2.9.4 4.5l.1.9c.1.8.3 1.6.5 2.3-.7.8-2.3 2.4-3.8 3.8C10.7 88.9 5.2 75.8 5.2 62c0-30.8 26-56.8 56.8-56.8s56.8 26 56.8 56.8c0 4.4-.4 9-1.4 13.1-6.2-2.7-12-5.5-14.5-7.2 1.5-2.1 3-4.1 4.5-6.8l.9-1.5c.7-1.2 1.4-2.3 2-3.5 1-1.7.8-3.4-.5-4.7-.8-.9-1.9-1.3-3.1-1.3-1.1 0-2.2.5-3.1 1.4-.8.9-1.7 2-2.4 3-.2.3-.4.6-.7.8V31.8c0-.7-.1-1.3-.3-1.8-.8-1.7-2.6-2.7-4.6-2.2-1 .2-1.8.7-2.3 1.5v-3c0-.7-.2-1.4-.4-2-.9-1.7-2.7-2.4-4.6-1.9-1.8.5-2.9 2-2.9 3.9v.5l-.1-.1c-.8-.8-1.8-1.2-2.9-1.2-2.3 0-4 1.7-4 4.1v2.1c-1-.9-2.4-1.2-3.8-.8-1.7.4-2.8 2-2.8 3.9v28.6c0 1.9.1 2.5.3 3.9l.1.9c.5 2.9 1.6 5.2 3.4 6.9 3.9 4.3 22.5 16 31.7 21.5-10.3 13.2-27.3 22-45.3 22zm28.4-43.2l-7.4.2c-.4-.1-.8-.1-1.2-.2-4.1-.8-6.5-3.3-7.1-7.6l-.1-.9c-.2-1.3-.3-1.9-.3-3.5V34.9c0-.7.4-1.3 1-1.5.7-.2 1.5-.1 1.9.7.1.2.1.5.1.8v13.9h3.6V29.7c0-1 .6-1.6 1.5-1.6.4 0 .8.1 1.1.4.3.3.5.7.5 1.2v19.1h3.9V26.4c0-.8.3-1.3 1.1-1.5.6-.2 1.4-.1 1.8.7.1.2.2.5.2.9v22.4h4V46 31.9c0-.8.4-1.3 1.1-1.4.9-.5 1.6-.2 1.9.5.1.1.1.4.1.8v27.7c-.1-.1-.3-.2-.4-.3-1.9-.8-8.4-3-15.3 0-.6.3-.9 1-.6 1.6.3.6 1 .9 1.6.6 6-2.6 11.8-.6 13.4 0 .2.1.3.1.5.1.3 0 .6-.1.9-.4v.1l2.3-2.1c.2-.1.3-.3.4-.4.8-.9 1.6-1.9 2.4-3 .8-1 1.5-2 2.3-2.8.4-.4.8-.6 1.3-.6s.9.2 1.3.6c.5.5.6.9.2 1.7-.7 1.2-1.4 2.3-2 3.5l-.9 1.5c-1.8 3.1-3.5 5.3-5.4 7.9l-1.2 1.6c-.4.6-.3 1.3.3 1.7.2.2.5.2.7.2.4 0 .8-.2 1-.5l.7-1c3.4 2.3 10.9 5.6 15.5 7.6-1.7 6.1-4.6 12.1-8.1 17.1-6.7-4-18.8-11.6-25.7-16.6l7.3-.2c.7 0 1.2-.6 1.2-1.3-.1-.2-.7-.7-1.4-.7z"/><path d="M42.1 17c-.4-.6-1.2-.7-1.7-.3-.6.4-.7 1.2-.3 1.7l8.8 12c.2.3.6.5 1 .5.3 0 .5-.1.7-.2.6-.4.7-1.2.3-1.7l-8.8-12zM55.2 14.1c-.2-.7-.8-1.1-1.5-.9-.7.2-1.1.8-.9 1.5L56.4 29c.1.6.6.9 1.2.9h.3c.7-.2 1.1-.8.9-1.5l-3.6-14.3zM66 16.4c-.7-.2-1.3.2-1.5.9l-2.9 11.3c-.2.7.2 1.3.9 1.5h.3c.6 0 1.1-.4 1.2-.9l2.9-11.3c.2-.6-.2-1.3-.9-1.5zM46.1 33.5l-10.5-5.1c-.6-.3-1.4 0-1.7.6-.3.6 0 1.4.6 1.7L45 35.8c.2.1.4.1.5.1.5 0 .9-.3 1.1-.7.3-.6.1-1.4-.5-1.7z"/></g><path d="M62 6.4C31.3 6.4 6.4 31.3 6.4 62s25 55.6 55.6 55.6c30.7 0 55.6-25 55.6-55.6S92.7 6.4 62 6.4zM62 124C27.8 124 0 96.2 0 62S27.8 0 62 0s62 27.8 62 62-27.8 62-62 62z"/></symbol><symbol viewBox="0 0 124 123" id="icon-impact"><title>about_impact</title><g fill-rule="evenodd"><path d="M62 6.3C31.32 6.3 6.36 31.08 6.36 61.5c0 30.45 24.96 55.2 55.64 55.2s55.64-24.75 55.64-55.2c0-30.43-24.96-55.2-55.64-55.2zm0 116.72c-34.2 0-62-27.6-62-61.5C0 27.6 27.8 0 62 0c34.18 0 62 27.58 62 61.5 0 33.9-27.82 61.5-62 61.5z"/><path d="M62 20.82c-14.85 0-27.9 7.87-35.1 19.63 2.73-.73 4.85-.75 5.05-.75.4 0 9.44.08 14.47 6.8.27-.58.55-1.16.84-1.73 1.08.23 2.2.44 3.38.63 2.72.43 5.9.76 9.43.84v13.3H49.4c-.12 1.23-.34 2.5-.65 3.83h11.32V76.7c-3.54.06-6.7.4-9.43.82-1.1.17-2.13.37-3.12.57-.87-1.64-1.6-3.27-2.2-4.9-1.6 3.5-3.6 7.24-6.08 11.22 1.58-.58 3.7-1.3 6.34-1.95 2.56 4.23 5.9 8.4 10 12.52-6.68-1.26-12.66-4.43-17.37-8.92-.97 1.53-2 3.1-3.1 4.68l-.62.9C41.76 98.2 51.42 102.2 62 102.2c22.6 0 41.02-18.25 41.02-40.7 0-22.43-18.4-40.68-41.02-40.68zm-1.93 73.2c-4.3-4.1-7.8-8.23-10.5-12.4 3.1-.58 6.62-1 10.5-1.1v13.5zM45.25 40.4c-3.7-.95-6.43-2-7.87-2.62 4.74-4.83 10.9-8.28 17.8-9.66-2.92 2.76-6.75 6.94-9.93 12.28zm14.82 2.03c-3.24-.07-6.16-.37-8.67-.76-.73-.1-1.43-.24-2.12-.37 3.76-5.93 8.3-10.25 10.8-12.4v13.54zM96.3 59.56H84.75v-.34c-.32-5.75-1.95-10.94-4.17-15.46 2.82-.77 5.73-1.73 8.7-2.94 4.05 5.26 6.62 11.72 7.02 18.75zm-9.7-21.8c-2.7 1.02-5.34 1.86-7.9 2.52-3.15-5.28-6.93-9.42-9.8-12.16 6.85 1.4 12.98 4.84 17.7 9.63zM63.9 28.8c2.47 2.1 7 6.4 10.76 12.35-3.8.74-7.42 1.1-10.76 1.2V28.84zm0 17.4c3.94-.14 8.23-.6 12.77-1.55 2.23 4.3 3.9 9.28 4.2 14.76v.1H63.92V46.23zm0 17.14h16.94c-.34 4.96-1.8 9.9-4.42 14.82-4.45-.94-8.65-1.38-12.52-1.5V63.37zm0 30.73V80.53c3.3.1 6.8.45 10.48 1.15-2.68 4.17-6.17 8.32-10.48 12.42zm4.58.88c4.05-4.1 7.34-8.23 9.9-12.42 2.68.68 5.44 1.56 8.26 2.65-4.8 4.94-11.1 8.44-18.16 9.78zm20.83-12.84c-3.08-1.25-6.1-2.25-9.02-3.03 2.63-5.18 4.1-10.43 4.42-15.73h11.6c-.4 7.03-2.94 13.5-7 18.77z" fill="currentColor"/><path d="M44.28 50.2c-3.54-6.64-11.97-6.72-12.33-6.72-.36 0-8.8.08-12.33 6.73-4.03 7.6.23 20.88 12.33 38.43C44.05 71.08 48.3 57.8 44.28 50.2zM31.95 63.36c-3.88 0-7.03-3.12-7.03-6.97 0-3.85 3.15-6.97 7.03-6.97 3.88 0 7.03 3.13 7.03 6.98 0 3.85-3.15 6.97-7.03 6.97z" fill="currentColor"/></g></symbol><symbol viewBox="0 0 28 28" id="icon-info"><title>Info icon</title><path d="M14 0C6.27 0 0 6.27 0 14s6.27 14 14 14 14-6.27 14-14S21.73 0 14 0zm-2.63 7.48c0 1.2.85 2.18 2.26 2.18 1.42 0 2.26-.97 2.26-2.18 0-1.34-.93-2.23-2.27-2.23-1.34 0-2.26.9-2.26 2.23zm.37 15.27h3.78v-10.5h-3.78v10.5z" fill-rule="evenodd"/></symbol><symbol viewBox="0 0 47 47" id="icon-instagram"><title>social_instagram</title><g transform="translate(1 1)" fill-rule="evenodd"><g fill="currentColor"><path d="M22.38 11.6c-2.96 0-3.33.02-4.5.07-1.14.06-1.94.24-2.63.5-.7.3-1.32.66-1.92 1.26-.6.6-.98 1.2-1.26 1.93-.27.7-.45 1.48-.5 2.64-.06 1.16-.07 1.53-.07 4.5 0 2.94 0 3.3.07 4.47.05 1.16.23 1.95.5 2.64.28.73.65 1.33 1.26 1.94.6.6 1.2.97 1.92 1.25.7.26 1.5.45 2.64.5 1.15.05 1.52.06 4.48.06 2.95 0 3.32 0 4.48-.06 1.16-.05 1.95-.24 2.64-.5.72-.3 1.33-.66 1.93-1.26.6-.6.98-1.2 1.26-1.93.25-.68.44-1.47.5-2.63.04-1.16.06-1.53.06-4.48 0-2.97-.02-3.34-.07-4.5-.06-1.16-.25-1.95-.5-2.64-.3-.72-.66-1.32-1.27-1.93-.6-.6-1.2-.97-1.93-1.25-.7-.27-1.48-.45-2.64-.5-1.16-.06-1.53-.07-4.48-.07zm0 1.97c2.9 0 3.25 0 4.4.06 1.05.05 1.63.23 2 .37.52.2.88.44 1.26.82.4.38.62.74.82 1.25.15.38.32.96.37 2.02.06 1.14.07 1.48.07 4.4 0 2.9 0 3.23-.07 4.38-.05 1.06-.22 1.64-.37 2.02-.2.5-.43.87-.82 1.25-.38.38-.74.62-1.25.82-.4.14-.97.32-2.03.37-1.14.05-1.5.06-4.4.06-2.9 0-3.24 0-4.4-.06-1.05-.05-1.62-.23-2-.37-.52-.2-.88-.44-1.26-.82-.37-.38-.6-.74-.8-1.25-.15-.38-.33-.96-.38-2.02-.05-1.15-.06-1.5-.06-4.4 0-2.9 0-3.24.06-4.4.05-1.05.23-1.63.38-2 .2-.52.43-.88.8-1.26.4-.38.75-.62 1.26-.82.4-.14.96-.32 2.02-.37 1.15-.05 1.5-.06 4.4-.06z"/><path d="M22.38 26.1c-2 0-3.63-1.6-3.63-3.6 0-2.02 1.63-3.64 3.63-3.64S26 20.48 26 22.5c0 2-1.62 3.6-3.62 3.6zm0-9.2c-3.1 0-5.6 2.5-5.6 5.6 0 3.07 2.5 5.57 5.6 5.57 3.08 0 5.58-2.5 5.58-5.58 0-3.1-2.5-5.6-5.58-5.6zM29.5 16.68c0 .72-.6 1.3-1.3 1.3-.74 0-1.32-.58-1.32-1.3 0-.72.58-1.3 1.3-1.3.73 0 1.3.58 1.3 1.3"/></g><circle stroke="currentColor" cx="22.5" cy="22.5" r="22.5"/></g></symbol><symbol viewBox="0 0 62 62" id="icon-interveiw"><title>interveiw</title><g fill-rule="evenodd"><path d="M11.9 51.32h5.9c1.78 0 3.24-1.45 3.24-3.24v-10.5h5.6c1.78 0 3.23-1.44 3.23-3.23v-.25l-8.85-20.47c-.14-1.65-1.53-2.95-3.22-2.95h-5.9c5-4.7 11.72-7.58 19.1-7.58 7.38 0 14.1 2.88 19.1 7.58h-6.3c-1.77 0-3.23 1.45-3.23 3.24v13.4h-4.6c-.7 0-1.25.57-1.25 1.25v7.72c0 .67.55 1.23 1.24 1.23h4.6v10.55c0 1.8 1.47 3.24 3.25 3.24h6.3c-5 4.7-11.72 7.58-19.1 7.58-7.38 0-14.1-2.88-19.1-7.58zM9.58 13.16h8.23c.42 0 .76.34.76.76v.26l8.8 20.37c-.08.33-.38.56-.73.56h-8.07v6.2c-.66.28-1.52.42-2.53.36-1.96-.1-4.22-.85-6.36-2.1-.3-.17-.68-.07-.85.22-.17.3-.07.68.22.85 2.32 1.35 4.77 2.15 6.92 2.27l.53.02c.76 0 1.45-.1 2.06-.3v5.46c0 .42-.34.76-.76.76H9.57C5.53 44 3.1 37.78 3.1 31c0-6.78 2.43-13 6.47-17.84zM43.8 48.84c-.4 0-.75-.34-.75-.76v-5.45c.6.2 1.3.3 2.07.3.18 0 .35-.02.53-.03 2.15-.12 4.6-.92 6.92-2.27.3-.17.4-.55.22-.85-.18-.3-.56-.4-.86-.22-2.14 1.25-4.4 2-6.36 2.1-1 .06-1.87-.08-2.53-.37v-5c0-.7-.55-1.25-1.24-1.25h-4.6V29.8h4.6c.7 0 1.25-.54 1.25-1.23V13.92c0-.42.34-.76.76-.76h8.63C56.47 18 58.9 24.22 58.9 31c0 6.78-2.43 13-6.47 17.84H43.8zM31 0C13.88 0 0 13.88 0 31c0 17.12 13.88 31 31 31 17.12 0 31-13.88 31-31C62 13.88 48.12 0 31 0z"/><path d="M11.47 31.5c1.38 0 2.5-1.12 2.5-2.5s-1.12-2.5-2.5-2.5c-1.4 0-2.5 1.12-2.5 2.5s1.1 2.5 2.5 2.5m38.68-5c-1.38 0-2.5 1.12-2.5 2.5s1.12 2.5 2.5 2.5 2.5-1.12 2.5-2.5-1.12-2.5-2.5-2.5"/></g></symbol><symbol viewBox="0 0 62 62" id="icon-interview"><title>interview</title><style>.st0{fill:#FFFFFF;}</style><path d="M31 61c16.5 0 30-13.5 30-30S47.5 1 31 1 1 14.5 1 31s13.5 30 30 30"/><path class="st0" d="M11.9 51.3h5.9c1.8 0 3.2-1.5 3.2-3.2V37.6h5.6c1.8 0 3.2-1.5 3.2-3.2v-.3L21 13.6c-.1-1.7-1.5-3-3.2-3h-5.9C16.9 6 23.6 3.1 31 3.1S45.1 6 50.1 10.7h-6.3c-1.8 0-3.2 1.5-3.2 3.2v13.4H36c-.7 0-1.2.6-1.2 1.2v7.7c0 .7.6 1.2 1.2 1.2h4.6V48c0 1.8 1.5 3.2 3.2 3.2h6.3c-5 4.7-11.7 7.6-19.1 7.6S16.9 56 11.9 51.3zM9.6 13.2h8.2c.4 0 .8.3.8.8v.3l8.8 20.4c-.1.3-.4.6-.7.6h-8.1v6.2c-.7.3-1.5.4-2.5.4-2-.1-4.2-.9-6.4-2.1-.3-.2-.7-.1-.8.2-.2.3-.1.7.2.8 2.3 1.3 4.8 2.2 6.9 2.3h.5c.8 0 1.5-.1 2.1-.3v5.5c0 .4-.3.8-.8.8H9.6C5.5 44 3.1 37.8 3.1 31s2.4-13 6.5-17.8zm34.2 35.6c-.4 0-.8-.3-.8-.8v-5.5c.6.2 1.3.3 2.1.3h.5c2.1-.1 4.6-.9 6.9-2.3.3-.2.4-.6.2-.8-.2-.3-.6-.4-.8-.2-2.1 1.3-4.4 2-6.4 2.1-1 .1-1.9-.1-2.5-.4v-5c0-.7-.6-1.2-1.2-1.2h-4.6v-5.2h4.6c.7 0 1.2-.6 1.2-1.2V13.9c0-.4.3-.8.8-.8h8.6c4 4.8 6.5 11.1 6.5 17.8s-2.4 13-6.5 17.8h-8.6v.1zM31 0C13.9 0 0 13.9 0 31s13.9 31 31 31 31-13.9 31-31S48.1 0 31 0z"/><path class="st0" d="M11.5 31.5c1.4 0 2.5-1.1 2.5-2.5s-1.1-2.5-2.5-2.5S9 27.6 9 29s1.1 2.5 2.5 2.5m38.6-5c-1.4 0-2.5 1.1-2.5 2.5s1.1 2.5 2.5 2.5 2.5-1.1 2.5-2.5-1.1-2.5-2.5-2.5"/></symbol><symbol viewBox="0 0 100 100" id="icon-invite"><title>Invite</title><circle cx="50" cy="50" r="49"/><g fill="currentColor"><path d="M50 5c24.8 0 45 20.2 45 45S74.8 95 50 95 5 74.8 5 50 25.2 5 50 5m0-5C22.4 0 0 22.4 0 50s22.4 50 50 50 50-22.4 50-50S77.6 0 50 0z"/><circle cx="18.5" cy="47.8" r="4"/><circle cx="81.9" cy="47.8" r="4"/></g><g fill="none" stroke="currentColor" stroke-miterlimit="10"><g stroke-width="2" stroke-linecap="round"><path class="st3" d="M32.6 65.6c-2.2 3.8-10 3.4-17.5-1M66.8 65.6c2.2 3.8 10 3.4 17.5-1"/><g stroke-linejoin="round"><path class="st5" d="M59.7 76.4l-9.9 7.3M58.7 69l-13.9 3.5M58.9 63.9l-11-2.9"/></g></g><g stroke-width="4"><path d="M14.3 19.2h14.4c1.8 0 3.2 1.4 3.2 3.2l14.2 27c0 1.8-1.4 3.2-3.2 3.2h-11v24.9c0 1.8-1.4 3.2-3.2 3.2H14.8"/><path stroke-linejoin="round" d="M86 19.2H70.7c-1.8 0-3.2 1.4-3.2 3.2V40H58v12.4h9.4v25c0 1.8 1.4 3.2 3.2 3.2h15.5"/></g></g></symbol><symbol viewBox="0 0 243 153" id="icon-kiva-card"><title>kiva-card</title><g fill-rule="evenodd"><path d="M22.38 30.86c-2.1-3.82-1.95-7.95.4-11.62 2.2-3.42 5.58-5.3 9.56-5.3 9.3 0 21.02 10.52 27.4 20.2 6.35-9.68 18.08-20.2 27.37-20.2 4 0 7.38 1.88 9.57 5.3 2.35 3.67 2.5 7.8.4 11.62-1.93 3.54-5.77 6.64-10.38 9.16H243V9c0-4.97-4.03-9-9-9H9C4.03 0 0 4.03 0 9v31.02h32.76c-4.6-2.52-8.45-5.62-10.38-9.16"/><path d="M90.06 27.02c.7-1.27.66-2.24-.13-3.47-.73-1.14-1.55-1.6-2.82-1.6-5.82 0-15.57 8.74-20.75 16.64 9.24-1.46 20.92-6.47 23.7-11.58m-57.7-5.08c-1.28 0-2.1.47-2.83 1.6-.8 1.24-.82 2.2-.13 3.48 2.8 5.1 14.46 10.1 23.7 11.57-5.17-7.9-14.93-16.66-20.76-16.66m54.2 42.96c1.94.23 2.8-.46 3.52-1.57 1.2-1.86 3.67-2.4 5.53-1.2 1.85 1.18 2.4 3.65 1.2 5.5-2.2 3.47-5.57 5.3-9.56 5.3-.54 0-1.1-.02-1.66-.1-9.05-1.1-19.9-11.23-25.85-20.34-5.95 9.1-16.8 19.24-25.85 20.34-.57.07-1.12.1-1.66.1-4 0-7.35-1.84-9.57-5.3-1.2-1.86-.65-4.33 1.2-5.52 1.88-1.2 4.35-.65 5.54 1.2.7 1.12 1.58 1.8 3.5 1.58 6.1-.74 15.35-9.3 20.24-16.88H0V144c0 4.97 4.03 9 9 9h225c4.97 0 9-4.03 9-9V48.02H66.3c4.9 7.6 14.16 16.14 20.24 16.88zm84.42 62.5h14.6V58.64h-14.6v68.76zm45.17-48.2h2.03c0 3.34-5.47 22.88-28.87 22.88h-2.03c0-3.34 5.47-22.9 28.86-22.9zm-26.84 24.7c25.2 0 29.26 19.96 29.26 23.5h-2.03c-25.2 0-29.26-19.95-29.26-23.5h2.02z"/></g></symbol><symbol viewBox="0 0 360 360" id="icon-kiva-promise"><title>Kiva 100% promise logo</title><g fill-rule="evenodd" transform="rotate(-13 201.05 155.56)"><path fill="currentColor" d="M38.56 209.14h50.16V196.6H72.44v-63.36h-14.4c-3.64 4.4-10.68 7.04-18.5 7.92l2.87 12.87c5.73-.22 11-1.87 13.98-4.07v46.64H38.56v12.54zm119.02-37.73c0-22.1-8.14-39.26-29.15-39.26-21 0-29.15 17.16-29.15 39.27 0 22.12 8.14 39.28 29.15 39.28 21 0 29.15-17.16 29.15-39.27zm-16.17 0c0 15.08-3.62 26.74-12.97 26.74-9.35 0-12.98-11.66-12.98-26.73 0-15.06 3.63-26.72 12.98-26.72 9.35 0 12.98 11.66 12.98 26.73zm82.18 0c0-22.1-8.14-39.26-29.15-39.26-21 0-29.15 17.16-29.15 39.27 0 22.12 8.14 39.28 29.15 39.28 21 0 29.15-17.16 29.15-39.27zm-16.17 0c0 15.08-3.62 26.74-12.97 26.74-9.35 0-12.98-11.66-12.98-26.73 0-15.06 3.63-26.72 12.98-26.72 9.35 0 12.98 11.66 12.98 26.73zm53.47 39.28l48.18-80.08h-12.87L248 210.68h12.87zm8.25-57.86c0-10-4.73-20.68-18.8-20.68-14.1 0-18.82 10.67-18.82 20.68 0 10 4.73 20.68 18.8 20.68 14.1 0 18.82-10.67 18.82-20.68zm-26.07 0c0-6.38 2.2-11.1 7.26-11.1 5.07 0 7.27 4.72 7.27 11.1s-2.2 11.1-7.26 11.1c-5.05 0-7.25-4.72-7.25-11.1zm81.4 37.18c0-10-4.73-20.68-18.8-20.68-14.1 0-18.82 10.67-18.82 20.68 0 10 4.73 20.68 18.8 20.68 14.1 0 18.82-10.67 18.82-20.68zm-26.07 0c0-6.38 2.2-11.1 7.26-11.1s7.26 4.72 7.26 11.1-2.2 11.1-7.26 11.1-7.26-4.72-7.26-11.1zM43.96 237.44H310.3v5.16H43.95zM43.96 105.82H310.3v5.16H43.95zM118.94 258.1H235.3v5.15H118.94zM118.94 85.17H235.3v5.16H118.94z"/><ellipse cx="175.83" cy="175.5" stroke="currentColor" stroke-width="3" rx="175.83" ry="175.5"/><path fill="currentColor" d="M262.77 67.06c-2.87 3.65-6.46 3.6-8.7 1.84-2.46-1.9-2.1-5.64.56-9 2.6-3.33 6.25-4.57 8.83-2.55 2.13 1.66 2.92 5.1.1 8.7l-.8 1zm14.1-5.74l-5.8-4.52-2.1 2.7c.62-2.86-.8-5.84-3.5-7.96-4.9-3.83-11.9-2.87-16.96 3.57-5.08 6.5-4.43 13.37.32 17.07 3.33 2.6 6.6 2.55 9 1.54l-2.25 2.88 5.8 4.52 15.5-19.78z"/><g fill="currentColor"><path d="M185.3 12.78l-7.6-.46-2.17 35.76 7.6.46 2.17-35.76M185.88 35.5c12.2.73 15.65-9.26 15.76-11l-1.05-.06c-12.2-.74-15.67 9.25-15.78 11l1.06.05m-1.12.88c-.1 1.84 1.37 12.34 14.5 13.14l1.07.06c.1-1.84-1.37-12.34-14.5-13.14l-1.07-.06"/></g><path fill="currentColor" d="M206.7 51.66l7.44 1.57 5.22-24.57-7.44-1.57-5.23 24.55M221.53 22.05c.5-2.32-.8-4.7-3.53-5.28-2.74-.58-4.88 1.08-5.37 3.4-.5 2.32.8 4.7 3.53 5.28 2.74.58 4.87-1.07 5.37-3.4"/><g transform="translate(65.93 30.42)"><mask id="kiva-promise-b" fill="#fff"><use xlink:href="#kiva-promise-a"/></mask><path fill="currentColor" d="M159.08 27.28l7.98 3.67 18.5-19.15-6.88-3.16s-9.47 10.7-12.38 14.12l-.1-.05c.7-4.42 2.64-18.58 2.64-18.58l-7.3-3.35-2.46 26.5M0 23L22.93 7.98l3.4 5.15-8.35 5.47 15.6 23.7-6.25 4.1-15.6-23.7-8.34 5.45L0 23" mask="url(#kiva-promise-b)"/></g><path fill="currentColor" d="M96.47 33.32l6.47-2.96 5.95 12.96c.1-2.12 1.33-4.9 4.83-6.5 4.18-1.92 8.66-1.04 10.9 3.8l6.74 14.7-6.46 2.97-5.87-12.8c-1.34-2.9-3.32-3.2-5.16-2.35-2.1.97-3.37 3.67-1.56 7.6l5.06 11-6.47 2.96-14.43-31.38m42.8 4.37l9.02-2.02c-.82-3.15-3.02-4.4-5.53-3.83-2.84.63-3.96 2.9-3.5 5.84zm17.13 5.73c-1.08 3.77-4.14 6.63-9.06 7.72-7.14 1.6-12.94-1.92-14.64-9.53-1.68-7.5 2.22-13.18 8.98-14.68 7.7-1.72 12.63 3.05 14.1 9.7l.4 1.68-16.02 3.56c.68 2.63 2.42 4.97 5.94 4.2 2.4-.54 3.4-2.18 3.78-3.73l6.52 1.08zM89.4 308.06c4.76 3.08 11.02 1.65 15.1-4.63 4.05-6.24 2.84-12.57-1.9-15.66-2.8-1.8-6-2-8.35-.72l1.77-2.74-5.6-3.63-17.67 27.22 5.8 3.75 6.75-10.38c0 2.1.9 4.7 4.1 6.8zm.9-14.6c2.38-3.65 5.76-3.57 7.78-2.27 2.57 1.67 2.6 5.17.5 8.4-2.12 3.25-5.3 4.62-7.88 2.95-1.97-1.28-3.48-4.33-1.1-8l.7-1.08zM128.08 308.8c-.5-.8-1.46-1.37-2.25-1.7-2.05-.8-5.55-.52-7.45 4.32l-3.88 9.87-6.4-2.52 8.3-21.15 6 2.35-1.38 3.55c2.4-2.3 4.9-2.9 8-1.68.8.32 1.75.8 2.53 1.55l-3.47 5.4"/><g transform="translate(133 305.85)"><mask id="kiva-promise-d" fill="#fff"><use xlink:href="#kiva-promise-c"/></mask><path fill="currentColor" d="M17.18 13.44c.66-3.8-.3-7.02-3.68-7.6-3.34-.6-5.32 2.12-5.98 5.93-.66 3.8.28 7.03 3.63 7.6 3.4.6 5.37-2.12 6.03-5.93zm6.88 1.2c-1.28 7.33-6.77 11.03-13.8 9.8C3.3 23.25-.63 17.93.65 10.6 1.9 3.25 7.4-.45 14.38.75c7.03 1.22 10.95 6.55 9.68 13.88zm9-10.95l6.65-.26.14 3.43c1-2.23 3.14-4.22 6.58-4.35 3.16-.1 5.74 1.22 7.08 3.7 1.26-2 3.67-4.1 7.1-4.23 4.17-.16 7.7 2.3 7.9 7.4l.6 15.68-6.9.26-.5-13.64c-.12-3-1.6-4.05-3.3-4-2.16.1-4.06 1.98-3.9 6.22l.44 11.7-6.88.24-.5-13.6c-.12-3.1-1.64-4.08-3.37-4.02-2.06.08-4 2-3.84 6.2l.44 11.7-6.9.25-.83-22.7" mask="url(#kiva-promise-d)"/></g><path fill="currentColor" d="M209.3 307.2l6.77-1.32 4.32 22.3-6.77 1.32-4.32-22.3zm1.23-11.82c2.4-.46 4.35.8 4.8 3.2.43 2.16-.74 4.18-3.27 4.68-2.54.48-4.37-.96-4.8-3.12-.46-2.4.88-4.3 3.27-4.76zm26.37 12.34c4.62-1 9.44-1.23 11.2 3.46 1.7 4.52-1.37 8.6-7.06 10.73-5.28 2-10.16 1.37-12.25-2.44l5.86-3.26c.9 1.8 2.86 1.88 4.78 1.17 1.7-.64 2.94-1.7 2.35-3.28-.5-1.34-1.62-1.44-4.8-.77-4.52.98-9.3 1.34-11.1-3.5-1.84-4.9 2-8.7 6.8-10.48 4.78-1.8 9.45-1.2 11.48 2.2l-5.7 3.54c-.82-1.5-2.35-1.9-4.1-1.23-1.6.6-2.64 1.8-2.2 3 .63 1.66 2.74 1.28 4.72.85m20.33-11.9l7.45-4.93c-1.83-2.58-4.24-2.93-6.3-1.56-2.36 1.56-2.58 4-1.15 6.5zm17.47-.75c.34 3.8-1.43 7.43-5.5 10.12-5.9 3.9-12.35 2.74-16.53-3.54-4.13-6.2-2.58-12.67 3-16.37 6.37-4.24 12.47-1.64 16.12 3.85l.9 1.4-13.2 8.76c1.53 2.15 3.9 3.66 6.82 1.73 2-1.32 2.33-3.15 2.12-4.67l6.26-1.3z"/></g></symbol><symbol viewBox="0 0 67 29" id="icon-large-chevron-mobile"><title>Large Chevron Mobile</title><path d="M1 1.03L33.52 27 66 1" stroke-width="2" fill-rule="evenodd"/></symbol><symbol viewBox="0 0 102 43" id="icon-large-chevron"><title>Large Chevron</title><path d="M1 1.04L51.03 41 101 1" stroke-width="2" fill-rule="evenodd"/></symbol><symbol viewBox="0 0 50 50" id="icon-leaf"><title>Fill 4 Copy</title><path d="M50 18.75V0H31.25S0 0 0 31.25v12.5s11.36-1.57 29.82-21.45c0 0-8.97 21.3-29.82 27.7h18.75S50 50 50 18.75" fill-rule="evenodd"/></symbol><symbol viewBox="0 0 85 73" id="icon-leaves"><title>about_leaves</title><g fill-rule="evenodd"><path d="M45.42 29.43V18.4S45.42 0 64.1 0h11.2v11.04s0 18.4-18.68 18.4h-7.47M39.4 72.77V58.22s0-24.26-24.62-24.26H0v14.56s0 24.25 24.63 24.25h9.85M84.83 48.52V33.96H70.05s-24.63 0-24.63 24.26v9.7s8.95-1.22 23.5-16.65c0 0-7.07 16.53-23.5 21.5H60.2s24.63 0 24.63-24.25M9.54 11.04V0h11.2S39.4 0 39.4 18.4v7.35s-6.78-.92-17.8-12.62c0 0 5.35 12.53 17.8 16.3H28.2s-18.66 0-18.66-18.4"/></g></symbol><symbol viewBox="0 0 62 62" id="icon-lend"><title>2lend</title><g fill-rule="evenodd"><circle cx="31" cy="31" r="29"/><path d="M31.94 12.7c-6 0-10.88 4.87-10.88 10.88 0 2.55.88 4.9 2.35 6.76h7.56v-.6c-1.2-.23-2.3-.82-3.24-1.7l1.52-1.58c.7.76 1.74 1.33 2.84 1.33 1.03 0 1.76-.65 1.76-1.53 0-1.55-2.24-1.74-3.86-2.68-.95-.57-1.7-1.4-1.7-2.75 0-1.67 1.2-2.8 2.68-3.22v-1.98h2.07v1.86c.93.1 1.82.44 2.72 1.1l-1.2 1.7c-.5-.44-1.3-.78-2.1-.78-.87 0-1.85.38-1.85 1.3 0 1.96 5.56 1.35 5.56 5.42 0 1.82-1.4 3.16-3.13 3.5v.6h1.83s2.63.02 3.84 1.77c2.5-2 4.13-5.07 4.13-8.52 0-6-4.88-10.9-10.9-10.9z" fill="currentColor"/><path d="M31.03.63C14.3.63.7 14.22.7 30.96.7 47.7 14.3 61.3 31.02 61.3c16.73 0 30.34-13.6 30.34-30.33C61.37 14.24 47.77.63 31.03.63zm0 57.68c-7.3 0-13.93-2.87-18.84-7.54l4.5-4.53c.55-.57 1.1-.78 1.9-.77 3.35.04 6.7.02 10.06.02h10.47c1 0 1.85-.3 2.55-1.05 1.02-1.08 2.1-2.1 3.14-3.15l6.9-6.9c.8-.8 1.2-1.67.75-2.77-.68-1.64-2.63-2-3.97-.66-2.56 2.52-5.07 5.08-7.64 7.58-.33.33-.9.56-1.35.57-2.6.05-5.2.02-7.8.02-1.3 0-2.63.04-3.94-.04-.3-.02-.55-.46-.82-.7.27-.23.5-.5.8-.64.26-.1.6-.02.9-.02 2.12 0 4.27.04 6.4-.05 1.45-.05 2.38-1.1 2.33-2.4-.04-1.32-1.03-2.25-2.5-2.26-6.1 0-12.18-.02-18.27.04-.62 0-1.4.32-1.83.76-2.9 2.82-5.76 5.67-8.6 8.56C4.6 38.9 3.7 35.03 3.7 30.96 3.7 15.9 15.94 3.64 31.02 3.64c15.08 0 27.34 12.26 27.34 27.34 0 15.07-12.26 27.34-27.34 27.34z" fill="currentColor"/></g></symbol><symbol viewBox="0 0 124 124" id="icon-lifting"><title>lifting</title><g fill-rule="evenodd"><path d="M62 6.3C31.32 6.3 6.36 31.08 6.36 61.5c0 30.45 24.96 55.2 55.64 55.2s55.64-24.75 55.64-55.2c0-30.43-24.96-55.2-55.64-55.2zm0 116.72c-34.2 0-62-27.6-62-61.5C0 27.6 27.8 0 62 0c34.18 0 62 27.58 62 61.5 0 33.9-27.82 61.5-62 61.5z"/><path d="M33.53 90.47c-.82-.82-2.14-.8-2.96 0-.82.82-.82 2.15 0 2.96.8.82 2.14.82 2.96 0 .8-.82.82-2.14 0-2.96M66.8 66.82c2.68-2.67 2.7-7 .03-9.65-2.66-2.66-6.98-2.65-9.65.02-2.67 2.65-2.67 6.97 0 9.63 2.65 2.66 6.97 2.66 9.63 0M53.9 53.9c2.38-2.38 2.38-6.24 0-8.62-2.37-2.37-6.23-2.37-8.6.02-2.4 2.38-2.4 6.24-.02 8.6 2.37 2.4 6.23 2.4 8.62 0M50.9 65c-.86-3.26-4.2-5.18-7.45-4.3-3.25.87-5.18 4.2-4.32 7.46.87 3.25 4.2 5.17 7.46 4.3 3.24-.88 5.18-4.22 4.3-7.47M59 73.1c-3.24-.88-6.58 1.06-7.46 4.3-.87 3.26 1.05 6.6 4.3 7.47 3.25.86 6.6-1.07 7.47-4.32.88-3.25-1.04-6.6-4.3-7.46M70.1 70.1c-2.38 2.4-2.4 6.25 0 8.62 2.36 2.38 6.22 2.37 8.6 0 2.4-2.4 2.4-6.25.02-8.63-2.38-2.38-6.24-2.38-8.62 0M73.08 59.02c.87 3.25 4.2 5.17 7.46 4.3 3.25-.88 5.2-4.22 4.32-7.47-.87-3.25-4.2-5.18-7.46-4.3-3.25.87-5.18 4.22-4.32 7.47M64.98 50.92c3.25.86 6.6-1.07 7.47-4.32.88-3.26-1.05-6.6-4.3-7.46-3.25-.87-6.6 1.07-7.47 4.32-.87 3.25 1.05 6.6 4.3 7.46M38.85 55.83c.68-2.5-.8-5.06-3.3-5.73-2.5-.66-5.07.82-5.74 3.32-.66 2.5.82 5.07 3.3 5.73 2.5.67 5.08-.82 5.75-3.32M68.17 85.15c-2.5.67-4 3.24-3.32 5.74.66 2.48 3.23 3.96 5.73 3.3 2.5-.68 3.98-3.25 3.32-5.75-.67-2.5-3.23-3.98-5.73-3.3M85.14 68.17c-.67 2.5.8 5.07 3.3 5.73 2.5.67 5.07-.82 5.74-3.32.68-2.5-.8-5.06-3.3-5.73-2.5-.66-5.07.82-5.74 3.32M78.97 45.03c1.83 1.82 4.8 1.82 6.62 0 1.82-1.84 1.83-4.8 0-6.63-1.82-1.83-4.8-1.82-6.62 0-1.83 1.84-1.83 4.8 0 6.63M55.83 38.86c2.5-.67 3.98-3.24 3.32-5.74-.67-2.5-3.23-3.98-5.73-3.3-2.5.67-4 3.24-3.32 5.74.66 2.5 3.23 3.97 5.73 3.3M45.02 78.98c-1.82-1.83-4.8-1.82-6.62 0-1.83 1.84-1.83 4.8 0 6.63 1.82 1.83 4.78 1.83 6.6 0 1.84-1.83 1.85-4.8.02-6.62M30.28 43.72c.84-1.44.33-3.28-1.13-4.12-1.45-.84-3.3-.35-4.14 1.1-.82 1.43-.32 3.27 1.14 4.1 1.45.85 3.3.36 4.14-1.08M25.34 62.05c0-1.66-1.36-3-3.04-3s-3.05 1.35-3.05 3c0 1.67 1.36 3.02 3.04 3.02 1.67 0 3.04-1.35 3.04-3.02M30.22 80.37c-.83-1.43-2.68-1.92-4.14-1.07-1.46.84-1.97 2.7-1.14 4.13.83 1.43 2.68 1.92 4.14 1.07 1.46-.84 1.97-2.7 1.14-4.13M43.6 93.77c-1.42-.83-3.27-.32-4.12 1.14-.84 1.47-.36 3.32 1.08 4.15 1.44.83 3.3.32 4.13-1.14.83-1.45.35-3.3-1.1-4.13M61.93 98.66c-1.66 0-3 1.37-3 3.05-.02 1.7 1.33 3.05 3 3.05 1.65 0 3-1.37 3-3.05 0-1.68-1.34-3.04-3-3.04M80.26 93.73c-1.44.83-1.93 2.68-1.1 4.14.85 1.46 2.7 1.96 4.14 1.13 1.44-.84 1.93-2.7 1.1-4.15-.85-1.45-2.7-1.96-4.14-1.12M93.7 80.3c-.83 1.44-.33 3.28 1.13 4.12 1.45.84 3.3.35 4.14-1.1.83-1.43.33-3.27-1.13-4.1-1.45-.85-3.3-.36-4.14 1.08M98.64 61.96c0 1.67 1.36 3 3.04 3s3.05-1.34 3.05-3-1.36-3-3.04-3c-1.7 0-3.06 1.34-3.06 3M93.76 43.65c.83 1.43 2.68 1.92 4.14 1.07 1.46-.84 1.97-2.7 1.14-4.13-.83-1.45-2.68-1.93-4.14-1.08-1.46.84-1.97 2.7-1.14 4.13M80.37 30.25c1.44.83 3.3.32 4.13-1.14.84-1.45.36-3.3-1.08-4.13-1.43-.83-3.28-.32-4.13 1.14-.85 1.46-.37 3.32 1.07 4.15M62.05 25.36c1.66 0 3-1.37 3.02-3.05 0-1.67-1.35-3.03-3-3.03-1.67 0-3.02 1.37-3.02 3.05 0 1.68 1.34 3.04 3 3.04M43.72 30.3c1.44-.84 1.93-2.7 1.1-4.15-.85-1.46-2.7-1.96-4.14-1.13-1.44.83-1.93 2.7-1.1 4.14.85 1.46 2.7 1.97 4.14 1.13M33.6 33.62c.83-.82.83-2.14.02-2.96-.82-.82-2.14-.8-2.96 0-.82.82-.82 2.15 0 2.96.8.82 2.13.82 2.95 0M23.18 51.66c.3-1.12-.36-2.27-1.47-2.57-1.1-.3-2.26.36-2.56 1.48-.3 1.1.36 2.26 1.48 2.56 1.1.3 2.26-.37 2.56-1.48M23.15 72.46c-.3-1.1-1.44-1.77-2.56-1.47-1.13.3-1.8 1.44-1.5 2.55.3 1.12 1.45 1.78 2.57 1.48 1.1-.3 1.78-1.45 1.48-2.57M51.54 100.85c-1.12-.3-2.27.37-2.57 1.48-.3 1.12.36 2.27 1.48 2.56 1.1.3 2.26-.37 2.56-1.5.3-1.1-.35-2.25-1.46-2.55M72.35 100.82c-1.12.3-1.8 1.45-1.5 2.56.3 1.12 1.46 1.78 2.57 1.48 1.12-.3 1.78-1.45 1.5-2.57-.3-1.12-1.46-1.78-2.57-1.48M90.38 90.4c-.82.8-.82 2.13 0 2.95.8.8 2.14.8 2.96 0 .8-.83.82-2.15 0-2.97-.82-.8-2.14-.8-2.96 0M100.8 72.35c-.3 1.12.37 2.26 1.5 2.56 1.1.3 2.25-.36 2.55-1.47.3-1.12-.36-2.26-1.47-2.56-1.12-.3-2.27.36-2.57 1.48M100.84 51.54c.3 1.12 1.45 1.78 2.56 1.48 1.12-.3 1.78-1.45 1.5-2.57-.3-1.1-1.46-1.77-2.57-1.47-1.12.3-1.8 1.45-1.5 2.56M90.46 33.54c.82.8 2.15.8 2.96 0 .82-.83.82-2.15 0-2.97-.8-.8-2.13-.8-2.95 0-.82.82-.82 2.15 0 2.97M72.46 23.16c1.1.3 2.26-.37 2.56-1.5.3-1.1-.36-2.25-1.47-2.55-1.12-.28-2.27.38-2.57 1.5-.3 1.1.36 2.26 1.48 2.56M51.65 23.2c1.12-.3 1.78-1.46 1.48-2.58-.3-1.1-1.44-1.77-2.56-1.47-1.1.3-1.78 1.45-1.48 2.56.3 1.13 1.43 1.8 2.55 1.5M42.18 42.2c1.46-1.47 1.46-3.83 0-5.3-1.44-1.44-3.8-1.44-5.26.02s-1.47 3.82 0 5.28c1.44 1.45 3.8 1.45 5.26 0M34.93 69.26c-.53-2-2.58-3.18-4.56-2.65-2 .54-3.17 2.6-2.63 4.58.53 2 2.57 3.18 4.56 2.65 2-.54 3.16-2.58 2.63-4.57M54.74 89.07c-2-.53-4.03.64-4.57 2.63-.53 2 .65 4.03 2.65 4.56 2 .54 4.04-.64 4.57-2.63.52-1.98-.66-4.03-2.66-4.56M81.8 81.82c-1.45 1.46-1.45 3.82 0 5.27 1.46 1.45 3.82 1.44 5.28-.02 1.46-1.45 1.46-3.82 0-5.27-1.45-1.44-3.8-1.44-5.27.02M89.06 54.75c.54 2 2.58 3.18 4.57 2.64 1.98-.54 3.16-2.6 2.63-4.58-.54-2-2.58-3.17-4.57-2.64-2 .53-3.17 2.58-2.64 4.57M69.25 34.94c2 .53 4.04-.65 4.57-2.63.53-1.98-.65-4.02-2.64-4.56-2-.53-4.04.65-4.57 2.63-.53 2 .66 4.03 2.65 4.57" fill="currentColor"/></g></symbol><symbol viewBox="0 0 17 15" id="icon-line-graph"><title>line-graph</title><path fill="#B0AFB0" d="M0 0v15h17V0H0zm10.75 1v13h-4.5V1h4.5zM1 1h4.25v13H1V1zm15 13h-4.25V1H16v13z"/><path fill="#63A544" d="M3.8 13.04l-1.84-.83 3.5-7.73L9.3 8.6l3.82-6.37 1.72 1.04-5.18 8.63-3.63-3.87"/></symbol><symbol viewBox="0 0 46 46" id="icon-linkedIn"><title>LinkedIn</title><g transform="translate(0 1)" fill-rule="evenodd"><circle stroke="currentColor" cx="22.97" cy="22.33" r="22"/><path d="M34.23 30.27v-15.9c0-2.22-1.7-4.04-3.8-4.04h-14.9c-2.12 0-3.82 1.82-3.82 4.05v15.9c0 2.23 1.7 4.05 3.82 4.05h14.9c2.1 0 3.8-1.82 3.8-4.06zM14.95 19.54h3.44V30.6h-3.45V19.54zm3.7-3.5c0 1.1-.88 1.98-1.98 1.98s-2-.9-2-2 .9-1.98 2-1.98 2 .9 2 2zM31.28 30.6h-3.44v-5.38c0-1.28-.02-2.93-1.8-2.93S24 23.67 24 25.12v5.47h-3.43V19.54h3.3v1.5h.04c.45-.86 1.57-1.78 3.24-1.78 3.48 0 4.13 2.3 4.13 5.27v6.07z" fill="currentColor"/></g></symbol><symbol viewBox="0 0 20 18" id="icon-list"><title>List Icon</title><g stroke-width="2" fill-rule="evenodd" stroke-linecap="square"><path d="M18.5 1h-17M18.5 5h-17M18.5 9h-17M18.5 13h-17M18.5 17h-17"/></g></symbol><symbol viewBox="0 0 22 22" id="icon-magnify-glass"><title>Magnify Glass</title><path d="M8 16.3c1.45 1 3.16 1.5 4.95 1.5 2.38 0 4.62-.92 6.3-2.6 1.7-1.7 2.62-3.93 2.62-6.3 0-2.4-.93-4.63-2.6-6.3-1.7-1.7-3.94-2.62-6.32-2.62-2.38 0-4.62.93-6.3 2.6-1.7 1.7-2.6 3.93-2.6 6.3 0 1.82.52 3.55 1.52 5l-5.4 5.4c-.24.26-.2.73.13 1.05l1.26 1.26c.33.3.8.36 1.04.1L8 16.3zM6.45 8.9c0-3.6 2.92-6.5 6.5-6.5 3.6 0 6.5 2.9 6.5 6.5 0 3.58-2.9 6.5-6.5 6.5-3.58 0-6.5-2.92-6.5-6.5z" fill-rule="evenodd"/></symbol><symbol viewBox="0 0 27 25" id="icon-map"><title>map</title><path d="M24.86 9.4c1.02-2.76 1.1-4.98.22-6.64C23.64.03 20.3 0 20.16 0s-3.48.03-4.93 2.76c-.7 1.36-.78 3.1-.23 5.2L8.65 9.64 0 7.06v15.02l8.6 2.57 8.67-2.28 9.45 2.55v-15l-1.86-.5zM7.63 22.28L2 20.6V9.73l5.63 1.68v10.85zM17 3.7c.86-1.66 3.14-1.7 3.16-1.7.02 0 2.3.05 3.15 1.7.63 1.15.97 4.02-3.14 10.44C16.06 7.74 16.4 4.87 17 3.7zM9.63 22.32V11.45l6-1.6c.2.48.4.97.64 1.46v9.27l-6.64 1.75zm15.1 0l-6.46-1.75V14.9l1.06 1.6.83 1.22.83-1.2c1.28-1.9 2.3-3.65 3.07-5.25l.65.17V22.3z"/><circle cx="20.16" cy="5.68" r="2"/></symbol><symbol viewBox="0 0 26 26" id="icon-match"><title>Slice 1 Copy 2</title><g fill-rule="evenodd"><path d="M13.04 1.7l2.94 2.7 4.06-.55.7 3.82 3.63 1.82-1.8 3.48 1.8 3.5-3.62 1.8-.7 3.83-4.07-.53-2.94 2.7-2.95-2.7-4.07.54-.7-3.8-3.63-1.83 1.8-3.5L1.7 9.5l3.62-1.83.7-3.82 4.07.54 2.94-2.7"/><path d="M13.04 1.7l2.94 2.7 4.06-.55.7 3.82 3.63 1.82-1.8 3.48 1.8 3.5-3.62 1.8-.7 3.83-4.07-.53-2.94 2.7-2.95-2.7-4.07.54-.7-3.8-3.63-1.83 1.8-3.5L1.7 9.5l3.62-1.83.7-3.82 4.07.54 2.94-2.7z" stroke="currentColor" stroke-width=".97"/><path d="M13.04 3.38l2.5 2.3L19 5.2l.6 3.27L22.66 10 21.14 13l1.53 2.96-3.08 1.55-.6 3.24-3.46-.46-2.5 2.3-2.5-2.3-3.46.46-.6-3.25-3.08-1.56 1.53-2.96L3.4 10l3.08-1.53.6-3.26 3.45.48 2.5-2.3" fill="currentColor"/><text font-family="PostGrotesk" font-size="14.9" font-weight="420"><tspan x="10.57" y="17.97">2</tspan></text><text font-family="PostGrotesk" font-size="8.65" font-weight="420"><tspan x="6.01" y="15">x</tspan></text></g></symbol><symbol viewBox="0 0 62 62" id="icon-matchmaking"><title>matchmaking</title><style>.st0{fill:#FFFFFF;}</style><path d="M31 61c16.5 0 30-13.5 30-30S47.5 1 31 1 1 14.5 1 31s13.5 30 30 30"/><path class="st0" d="M41.9 56.7L27.6 42.4c-.2-.2-.2-.6 0-.9l8.5-8.5c.3-.3.7-.3.9 0l15.6 15.6c-2.8 3.5-6.5 6.3-10.7 8.1zM10.6 50l14.1-14.1c1.2-1.2 1.2-3.2 0-4.4L16.2 23c-1.2-1.2-3.2-1.2-4.4 0l-8.6 8.6v-.5c-.1-15.5 12.4-28 27.8-28h.5L18.8 15.8c-.6.6-.9 1.4-.9 2.2 0 .8.3 1.6.9 2.2l8.5 8.5c.6.6 1.4.9 2.2.9.8 0 1.6-.3 2.2-.9L50 10.6c5.5 5.1 8.9 12.4 8.9 20.4 0 5.7-1.7 11.1-4.7 15.5L38.8 31.2c-1.2-1.2-3.2-1.2-4.4 0l-8.5 8.5c-1.2 1.2-1.2 3.2 0 4.4l13.5 13.5c-2.6.8-5.4 1.3-8.3 1.3-8.2 0-15.4-3.4-20.5-8.9zM3.4 34.8l10.1-10.1c.2-.2.6-.2.9 0l8.5 8.5c.3.3.3.7 0 .9l-14 14C6 44.3 4 39.8 3.4 34.8zm39.3-26c.7.7 1.9.7 2.6 0 .4-.4.6-.9.5-1.4.8.5 1.5 1 2.3 1.6l-18 18c-.2.2-.6.2-.9 0l-8.5-8.5c-.1-.1-.2-.3-.2-.5 0-.1 0-.3.2-.4L34.8 3.4c3 .4 5.8 1.3 8.4 2.5-.2.1-.3.2-.5.3-.7.7-.7 1.9 0 2.6zM31 0C13.9 0 0 13.9 0 31s13.9 31 31 31 31-13.9 31-31S48.1 0 31 0z"/><path class="st0" d="M31.4 10.2c-.2-.2-.6-.2-.9 0-.2.2-.2.6 0 .9l6.2 6.2c.1.1.3.2.4.2.2 0 .3-.1.4-.2.2-.2.2-.6 0-.9l-6.1-6.2m-3.5 6.6c-.7.7-.7 1.9 0 2.6.7.7 1.9.7 2.6 0 .7-.7.7-1.9 0-2.6-.7-.7-1.8-.7-2.6 0m7.4-10.6c-.7.7-.7 1.9 0 2.6.7.7 1.9.7 2.6 0 .7-.7.7-1.9 0-2.6-.8-.7-1.9-.7-2.6 0m9.2 36.5c-.2-.2-.6-.2-.9 0l-6.2 6.2c-.2.2-.2.6 0 .9.1.1.3.2.4.2.2 0 .3-.1.4-.2l6.2-6.2c.3-.3.3-.6.1-.9m-7.2-2.3c-.7-.7-1.9-.7-2.6 0-.7.7-.7 1.9 0 2.6.7.7 1.9.7 2.6 0 .7-.8.7-1.9 0-2.6m9.2 7c-.7.7-.7 1.9 0 2.6.7.7 1.9.7 2.6 0 .7-.7.7-1.9 0-2.6-.7-.7-1.9-.7-2.6 0m-4.4 4.3c-.7.7-.7 1.9 0 2.6.7.7 1.9.7 2.6 0 .7-.7.7-1.9 0-2.6-.8-.7-1.9-.7-2.6 0M12.6 41.5c.1.1.3.2.4.2s.3-.1.4-.2c.2-.2.2-.6 0-.9l-6.2-6.2c-.2-.2-.6-.2-.9 0-.2.2-.2.6 0 .9l6.3 6.2m3-6.6c.7-.7.7-1.9 0-2.6-.7-.7-1.9-.7-2.6 0-.7.7-.7 1.9 0 2.6.8.7 1.9.7 2.6 0"/></symbol><symbol viewBox="0 0 52 23" id="icon-medium-chevron"><title>Medium Chevron</title><path d="M1 1.02L26 21 51 1" stroke-width="2" fill-rule="evenodd"/></symbol><symbol viewBox="0 0 124 124" id="icon-megaphone"><title>megaphone</title><g fill-rule="evenodd"><path d="M62 6.4C31.3 6.4 6.4 31.3 6.4 62c0 30.7 25 55.6 55.6 55.6 30.7 0 55.6-25 55.6-55.6S92.7 6.4 62 6.4zM62 124C27.8 124 0 96.2 0 62S27.8 0 62 0s62 27.8 62 62-27.8 62-62 62z"/><path fill="currentColor" d="M83.1 40.2c-.3 0-.5-.1-.8-.3-.5-.4-.6-1.2-.2-1.8l8.2-10.3c.4-.5 1.2-.6 1.8-.2.5.4.6 1.2.2 1.8l-8.2 10.3c-.2.3-.6.5-1 .5zm22.8 30.4h-.2L93.1 68c-.7-.1-1.1-.8-1-1.5.1-.7.8-1.1 1.5-1l12.6 2.6c.7.1 1.1.8 1 1.5-.2.6-.7 1-1.3 1zM88.2 54c-.5 0-1-.3-1.2-.8-.2-.6.1-1.4.7-1.6l14.9-5.4c.6-.2 1.4.1 1.6.7.2.6-.1 1.4-.7 1.6L88.6 54h-.4zm3.1 28.3l-1.4-3.9-17-46.7-1.3-3.6c-.4-1-1.5-1.6-2.6-1.2-1 .4-1.6 1.5-1.2 2.6l.8 2.3-40.9 33.5-7.8-.9c-.7-.1-1.4.2-1.8.7-.4.5-.5 1.3-.3 1.9l7.4 20.2c.2.7.8 1.1 1.5 1.3h.4c.5 0 1.1-.2 1.5-.6l5.4-5.7 12.2-.3v.3l.1 4c.1 3.3 2.8 5.9 6 5.9h.1l12-.3c3.3-.1 5.9-2.8 5.9-6.1l-.1-4v-.3l16.6-.3.9 2.6c.3.8 1.1 1.3 1.9 1.3.2 0 .5 0 .7-.1.9-.4 1.4-1.6 1-2.6zm-63.5.5l-5.1-14.1 5 .6 3.6 9.8-3.5 3.7zm38.3 3c0 1.1-.9 2-2 2l-12 .3c-1.1 0-2-.9-2-2l-.1-4v-.3l16.1-.3v4.3zm-32.5-7.6l-3.5-9.7 32.6-26.7 6.5 17.9c.2.5.7.8 1.2.8.1 0 .3 0 .4-.1.6-.2 1-1 .7-1.6l-6.8-18.7 5.4-4.4 15.1 41.4-51.6 1.1z"/></g></symbol><symbol viewBox="0 0 124 124" id="icon-money-muscle"><title>money-muscle</title><g fill-rule="evenodd"><path d="M62 6.4C31.3 6.4 6.4 31.3 6.4 62c0 30.7 25 55.6 55.6 55.6 30.7 0 55.6-25 55.6-55.6S92.7 6.4 62 6.4zM62 124C27.8 124 0 96.2 0 62S27.8 0 62 0s62 27.8 62 62-27.8 62-62 62z"/><path fill="currentColor" d="M99.6 57.6l-.3-.2c-5.9-2.9-13.4-2.2-18.8 1.8-3.2-1.6-6.8-2.4-10.6-2.3-5.1.1-9.8 1.9-13.3 4.9-1.9-1.2-4-2.1-6.3-2.6-.2 0-.4-.1-.5-.1.4-1.4.7-2.8.9-4.2.2-1.3.1-2.2.1-3.1 0-.6-.1-1.2-.1-1.9 0-1.6 0-2.3.2-4 .1-1.2.3-2.4.6-3.6l9.9 2.5h.2c.4.1.8 0 1.2-.3l10.5-7c.7-.5 1-1.5.6-2.2L72 31.6c.5-.7.8-1.5.9-2.4.2-1.6-.4-3.1-1.5-4.3l-7.3-7.5c-1.7-1.8-4.4-2.1-6.6-.9l-16.9 10-.5.3c-.7.2-1.7.6-2.5 1.2-1.7 1.1-2.5 2.9-3.2 4.5-.2.4-.4.9-.6 1.2L23 53.7c-.9 1.7-2 5.3-3.1 8.8-.6 1.9-1.1 3.7-1.5 4.7-.2.4-.3.8-.4 1.2-.6 1.5-1.1 3-2 4.2-.6.8-.4 1.9.3 2.4l4.5 3.4c12 9.3 27.5 16.5 41.5 19.5 1.1.2 2.5.5 4.1.6 1.4.2 5.1.6 9.6.6 6 0 13.3-.7 17.9-3.7.1 0 .2-.1.2-.1l.1-.1c.4-.3.6-.8.6-1.3 0-1-.8-1.7-1.7-1.7-.3 0-.5.1-.7.2l-.3.2c-4.5 2.8-12.7 3.4-19.8 3.1V91c3.9-.9 6.6-4.1 6.6-7.8 0-5.4-4.3-7.1-7.7-8.4-2.4-1-3.9-1.6-3.9-2.9 0-1.8 2.1-2.2 3.4-2.2 1.4 0 3 .6 4 1.5.1.1.2.1.3.1h.1c.1 0 .3-.1.4-.2l2.5-3.6c.2-.2.1-.5-.1-.7-1.7-1.3-3.5-2-5.5-2.3v-4c2.3.2 4.4.8 6.4 1.7 2.4 1.5 5.2 4.5 6.4 7.8.2.5.7.8 1.2.8.1 0 .3 0 .4-.1.6-.2 1-.9.8-1.6-1-2.8-2.9-5.2-4.9-7.1l.8-.5c4.3-2.8 10-3.2 14.5-1l.2.1c.3.2.6.3 1 .3 1 0 1.7-.8 1.7-1.7-.2-.7-.7-1.3-1.3-1.6zM61.2 71.9c0 2.7 1.2 4.7 3.8 6.2 1.1.6 2.3 1.1 3.4 1.5 2.4.9 4.4 1.7 4.4 3.6 0 1.6-1.3 2.7-3.2 2.7-2 0-4.1-1-5.6-2.6-.1-.1-.2-.2-.4-.2-.1 0-.3.1-.4.2L60 86.6c.1.1 0 .3 0 .4 0 .1.1.3.2.4 2 1.8 4.2 3 6.6 3.6v4.2c-1.4-.2-2.8-.4-3.8-.6-13.5-2.8-28.5-9.9-40.1-18.8l-3.2-2.5c.6-1.2 1.1-2.4 1.5-3.6.1-.4.3-.8.4-1.1.4-1.1 1-2.9 1.6-5 .9-3 2-6.7 2.8-8.1l10.7-19.9c.2-.4.5-.9.7-1.4.6-1.2 1.2-2.5 2.1-3.1.5-.3 1.1-.6 1.7-.8.1 0 .2-.1.3-.1l17.7-10.4c.7-.4 1.7-.3 2.3.3l7.3 7.5c.4.4.6.9.5 1.5 0 .4-.2.8-.5 1.1-3.4 1.6-7.3 3.4-8.2 3.5-.4 0-.4-.1-1.1-1.1l-.1-.6c0-.4 1.1-1.2 3.1-2.4.6-.3.8-1.1.4-1.7-.3-.6-1.1-.8-1.7-.4-2.1 1.2-3.8 2.4-4.2 3.9-.2.7 0 1.4.3 2l.2.3c.8 1.3 1.3 2.1 3 2.3h.1c1 0 3.7-1 8.1-3.1l.4.8.9 1.9-8.6 5.7-9.4-2.5-.6-.1c.5-1.2 1.1-2.3 1.8-3.2.4-.5.4-1.3-.2-1.8-.5-.4-1.3-.4-1.8.2-1.1 1.4-1.8 2.9-2.3 4.2l-.1.3c-.8 2.3-1.3 4.7-1.5 7.1-.2 1.8-.2 2.6-.2 4.3 0 .8 0 1.4.1 2 .1.8.1 1.5 0 2.6-.3 1.9-.8 3.8-1.5 5.6-.8 2-2.9 5-4.8 7.2-.5.5-.4 1.3.1 1.8.2.2.5.3.8.3.3 0 .7-.1.9-.4 1.8-2 3.6-4.6 4.7-6.7.3-.1 1.4.2 1.9.3l.3.1c1.7.4 3.3 1 4.9 2l.5.4c-1.5 1.8-2.7 3.7-3 4.6-.3.6 0 1.4.7 1.6.2.1.3.1.5.1.5 0 1-.3 1.2-.8.3-.8 1.8-3.1 3.6-5l.3-.3c.2-.2.5-.5.8-.7.1 0 .1-.1.1-.2 2.2-1.8 4.9-3.1 7.9-3.6v4.1c-3.8 1.1-5.9 3.8-5.9 7.1z"/></g></symbol><symbol viewBox="0 0 36 60" id="icon-nearme"><title>icon-nearme</title><path d="M18 0s-40.5 0 0 59.35C58.5 0 18 0 18 0zm9.14 16.97c0 5.06-4.1 9.16-9.14 9.16-5.05 0-9.14-4.1-9.14-9.16 0-5.06 4.1-9.17 9.14-9.17 5.05 0 9.14 4.1 9.14 9.17z" fill-rule="evenodd"/></symbol><symbol viewBox="0 0 57 23" id="icon-new-kiva-logo"><title>new-kiva-logo</title><path d="M4.7.4H0v22.13h4.7V.4zm12.9 22.13h4.7V7h-4.7v15.53zm12.15 0h5.42L40.57 7h-4.65s-2.55 8.46-3.3 11.13h-.06C31.8 15.46 29.23 7 29.23 7h-4.95l5.47 15.53zm-23.53-8.3c7.37 0 9.1-6.17 9.1-7.22h-.65c-7.37 0-9.1 6.17-9.1 7.22h.65zm-.64.96c0 1.1 1.27 7.4 9.22 7.4h.64c0-1.13-1.28-7.4-9.22-7.4h-.64zM22.75 2.73c0-1.47-1.08-2.74-2.8-2.74-1.74 0-2.8 1.27-2.8 2.74 0 1.47 1.06 2.74 2.8 2.74 1.72 0 2.8-1.27 2.8-2.74M57 7h-4.53v2.13c-.78-1.63-2.6-2.54-4.73-2.54-3.85 0-6.88 3.12-6.88 8.17 0 5.1 2.93 8.2 6.65 8.2 2.62 0 4.18-1.3 4.97-2.7v2.26H57V7zm-4.66 8.16c0 2.87-1.76 4.2-3.52 4.2-1.93 0-3.17-1.95-3.17-4.6 0-2.6 1.3-4.6 3.33-4.6 1.66 0 3.36 1.38 3.36 4.22v.78z"/></symbol><symbol viewBox="0 0 62 62" id="icon-offer"><title>offer</title><style>.st0{fill:#FFFFFF;}</style><path d="M31 61c16.5 0 30-13.5 30-30S47.5 1 31 1 1 14.5 1 31s13.5 30 30 30"/><path class="st0" d="M45.2 37.7l-3.7.1c-.2 0-.4-.1-.6-.1-2.1-.4-3.2-1.7-3.6-3.8l-.1-.5c-.1-.7-.1-.9-.2-1.8V17.3c0-.4.2-.7.5-.7.3-.1.8 0 1 .4 0 .1.1.2.1.4v7h1.8v-9.6c0-.5.3-.8.8-.8.2 0 .4.1.5.2.1.2.2.4.2.6v9.5h1.9V13.1c0-.4.2-.6.5-.7.3-.1.7 0 .9.3.1.1.1.3.1.4v11.2h2.1v-1.5-7c0-.4.2-.6.6-.7.4-.1.8.1.9.4 0 .1.1.2.1.4v13.9c-.1-.1-.1-.1-.2-.1-.9-.4-4.2-1.5-7.7 0-.3.1-.5.5-.3.8.1.3.5.5.8.3 3-1.3 5.9-.3 6.7 0h.2c.2 0 .3-.1.4-.2v.1l1.1-1 .2-.2c.4-.4.8-1 1.2-1.5.4-.5.8-1 1.1-1.4.2-.2.4-.3.6-.3.2 0 .5.1.7.3.2.2.3.5.1.9-.3.6-.7 1.2-1 1.7l-.4.7c-.9 1.5-1.7 2.7-2.7 4l-.6.8c-.2.3-.1.7.1.9.1.1.2.1.4.1s.4-.1.5-.3l.4-.5c1.7 1.2 4.8 2.6 7.1 3.6-.9 3-2.2 5.9-4 8.4-3.4-2-8.8-5.4-12.3-7.9l3.7-.1c.3 0 .6-.3.6-.6.1-.3-.1-.6-.5-.6zM31 58.9c-3.1 0-6.1-.5-8.9-1.5 2-2.3 4.2-5.1 5.2-7.1l1.4-1.8c.2-.3.4-.5.6-.8 1-1.3 1.9-2.6 2.9-4.2l.4-.7c.4-.6.7-1.2 1-1.8.9-1.6.7-3.3-.6-4.6-.8-.8-1.8-1.2-2.9-1.2-.4 0-.8.1-1.2.2v-7.5c0-.6-.1-1.1-.3-1.6-.6-1.4-2-2.3-3.5-2.3-.1-.2-.1-.5-.3-.7-.7-1.3-2-2.1-3.4-2.1-.3 0-.7 0-1 .1-.9.2-1.7.8-2.2 1.5h-.3c-1.7 0-3.1 1.1-3.6 2.6-.2 0-.5.1-.7.1-1.7.4-2.8 2-2.8 3.7v14.3c0 1 .1 1.4.2 2.2l.1.4c.1.4.1.8.3 1.2-.4.4-.9 1-1.6 1.7-4.2-4.8-6.7-11.1-6.7-18C3.1 15.6 15.6 3.1 31 3.1S58.9 15.6 58.9 31c0 2.2-.3 4.3-.7 6.3-3.1-1.4-5.5-2.5-6.7-3.4.8-1 1.5-2.1 2.3-3.4l.4-.7c.3-.6.7-1.2 1-1.7.5-.9.4-1.7-.3-2.4-.4-.4-1-.7-1.5-.7-.6 0-1.1.3-1.5.7-.4.4-.8 1-1.2 1.5-.1.1-.2.3-.3.4V15.8c0-.4-.1-.6-.2-.9-.4-.9-1.3-1.3-2.3-1.1-.5.1-.9.4-1.2.7V13c0-.4-.1-.7-.2-1-.4-.8-1.4-1.2-2.3-1-.9.2-1.5 1-1.5 1.9v.2c-.4-.4-.9-.6-1.4-.6-1.1 0-2 .9-2 2v1.1c-.5-.4-1.2-.6-1.9-.4-.9.2-1.4 1-1.4 1.9v14.3c0 .9.1 1.3.2 2l.1.5c.2 1.5.8 2.6 1.7 3.5 2 2.2 10.8 7.7 15.3 10.4C48 54.6 40 58.9 31 58.9zM14.1 47.6c-.2-.5-.4-1.1-.5-1.7-.2-1-.2-1.3-.2-2.3V29.3c0-.7.4-1.2 1-1.3.1 0 .3-.1.4-.1.4 0 .7.1 1 .4v8.1c-.8.4-1.5 1.5-1.5 2.6 0 .3.2.6.6.7.3 0 .6-.3.6-.6 0-.8.7-1.5.9-1.6.3 0 .6-.3.6-.6v-.1-11c.2-.3.6-.5 1.1-.5.5 0 .9.2 1.1.6v10.5c-.8.4-1.5 1.5-1.5 2.6 0 .3.2.6.6.7.3 0 .6-.3.6-.6 0-.8.7-1.5.9-1.6.3 0 .6-.3.6-.6v-.1-12.7c.2-.2.4-.4.7-.4.1 0 .3-.1.4-.1.5 0 1 .2 1.2.7v12.1c-.8.4-1.5 1.5-1.5 2.6 0 .3.2.6.6.7.3 0 .6-.3.6-.6 0-.8.7-1.5.9-1.6.3 0 .6-.3.6-.6v-.1-9.7c.2-.3.5-.4.8-.5h.4c.5 0 1 .3 1.3.8.1.2.1.4.1.6v13.4c.1-.1.2-.2.3-.2.8-.8 1.6-2.1 2.3-2.9.3-.3.7-.5 1.1-.5.4 0 .8.2 1.1.5.5.5.5 1 .2 1.6-.5.8-1 1.7-1.5 2.5-1 1.6-2 2.9-3.2 4.6l-1.6 2c-.8 1.8-3.2 4.8-5.6 7.5-3-1.4-5.8-3.3-8.2-5.6 1.2-1.2 2.2-2.2 2.7-3v-.3zM31 0C13.9 0 0 13.9 0 31s13.9 31 31 31 31-13.9 31-31S48.1 0 31 0z"/><path class="st0" d="M21.1 8.5c-.2-.3-.6-.3-.9-.1s-.3.6-.1.9l4.4 6c.1.2.3.3.5.3.1 0 .3 0 .4-.1.3-.2.3-.6.1-.9l-4.4-6.1m6.5-1.4c-.1-.3-.4-.5-.8-.4-.3.1-.5.4-.5.8l1.8 7.1c.1.3.3.5.6.5h.2c.3-.1.5-.4.4-.8l-1.7-7.2M33 8.2c-.3-.1-.7.1-.8.4l-1.5 5.7c-.1.3.1.7.4.8h.2c.3 0 .5-.2.6-.5L33.5 9c.1-.4-.1-.7-.5-.8m-10 8.6l-5.3-2.6c-.3-.2-.7 0-.8.3-.1.3 0 .7.3.8l5.3 2.6c.1 0 .2.1.3.1.2 0 .5-.1.6-.3.1-.4-.1-.8-.4-.9"/></symbol><symbol viewBox="0 0 205 51" id="icon-paypal"><title>paypal</title><g fill="none"><path fill="#FFF" d="M3-75h200v200H3z"/><path fill="#159BD7" d="M39.2 13.37c.6-3.8 0-6.36-2.06-8.7C34.88 2.1 30.8 1 25.6 1H10.45c-1.07 0-1.98.78-2.14 1.83L2.02 42.8c-.13.78.48 1.5 1.28 1.5h9.34L12 48.4c-.1.68.42 1.3 1.12 1.3H21c.93 0 1.72-.68 1.87-1.6l.08-.4 1.48-9.4.1-.53c.14-.92.93-1.6 1.87-1.6h1.18c7.63 0 13.6-3.1 15.35-12.06.73-3.74.35-6.87-1.58-9.06-.58-.67-1.3-1.22-2.16-1.67"/><path fill="#232C65" d="M39.2 13.37c.6-3.8 0-6.36-2.06-8.7C34.88 2.1 30.8 1 25.6 1H10.45c-1.07 0-1.98.78-2.14 1.83L2.02 42.8c-.13.78.48 1.5 1.28 1.5h9.34L15 29.4l-.08.48c.16-1.05 1.06-1.83 2.13-1.83h4.44c8.7 0 15.54-3.54 17.54-13.8l.15-.88"/><path fill="#263B80" d="M17.5 13.42c.1-.63.52-1.15 1.07-1.4.24-.13.52-.2.8-.2h11.88c1.4 0 2.7.1 3.9.3.36.04.7.1 1 .18.34.07.65.15.95.24l.45.14c.6.2 1.14.43 1.64.7.6-3.8 0-6.37-2.06-8.7C34.88 2.1 30.8 1 25.6 1H10.45c-1.07 0-1.98.78-2.14 1.83L2.02 42.8c-.13.78.48 1.5 1.28 1.5h9.34l4.87-30.88"/><path fill="#159BD7" d="M155.98 11.8h-11c-.76 0-1.4.55-1.52 1.3L139 41.32c-.08.56.35 1.06.92 1.06h5.64c.53 0 .98-.38 1.06-.9l1.26-8c.12-.74.76-1.3 1.5-1.3h3.5c7.25 0 11.43-3.5 12.53-10.46.5-3.04.02-5.43-1.4-7.1-1.56-1.84-4.34-2.8-8.02-2.8zm1.27 10.32c-.6 3.95-3.62 3.95-6.54 3.95h-1.65l1.16-7.38c.08-.46.47-.78.92-.78h.76c2 0 3.87 0 4.83 1.13.6.68.77 1.68.55 3.07z"/><path fill="#263B80" d="M77.47 11.8h-11c-.76 0-1.4.55-1.52 1.3L60.5 41.32c-.1.56.34 1.06.9 1.06h5.26c.75 0 1.4-.55 1.5-1.3l1.2-7.6c.13-.75.77-1.3 1.52-1.3h3.5c7.24 0 11.42-3.5 12.52-10.46.5-3.04.02-5.43-1.4-7.1-1.57-1.84-4.35-2.8-8.03-2.8zm1.27 10.32c-.6 3.95-3.62 3.95-6.54 3.95h-1.66l1.17-7.38c.08-.46.46-.78.9-.78h.77c2 0 3.87 0 4.83 1.13.58.68.76 1.68.54 3.07zm31.63-.13h-5.27c-.45 0-.84.32-.9.76l-.24 1.48-.37-.54c-1.15-1.65-3.7-2.2-6.23-2.2-5.83 0-10.8 4.4-11.77 10.6-.5 3.08.2 6.03 1.96 8.1 1.6 1.9 3.9 2.67 6.64 2.67 4.7 0 7.3-3 7.3-3l-.24 1.45c-.08.56.35 1.06.9 1.06h4.76c.75 0 1.4-.54 1.5-1.3l2.86-18.03c.08-.56-.35-1.06-.9-1.06zm-7.35 10.25c-.5 3-2.9 5.03-5.95 5.03-1.52 0-2.75-.5-3.54-1.42-.77-.92-1.07-2.24-.82-3.7.48-3 2.9-5.07 5.92-5.07 1.5 0 2.7.48 3.5 1.42.82.95 1.13 2.27.9 3.73z"/><path fill="#159BD7" d="M188.88 22h-5.27c-.44 0-.83.32-.9.76l-.23 1.48-.37-.54c-1.14-1.65-3.68-2.2-6.22-2.2-5.83 0-10.8 4.4-11.77 10.6-.5 3.08.22 6.03 1.97 8.1 1.6 1.9 3.9 2.67 6.64 2.67 4.7 0 7.3-3 7.3-3l-.23 1.45c-.1.56.34 1.06.9 1.06h4.76c.75 0 1.4-.54 1.5-1.3l2.86-18.03c.07-.56-.36-1.06-.92-1.06zm-7.35 10.25c-.5 3-2.9 5.03-5.95 5.03-1.53 0-2.75-.5-3.54-1.42-.77-.92-1.07-2.24-.82-3.7.47-3 2.9-5.07 5.9-5.07 1.5 0 2.72.48 3.52 1.42.8.95 1.13 2.27.9 3.73z"/><path fill="#263B80" d="M138.44 22h-5.3c-.5 0-.98.24-1.26.66l-7.3 10.76-3.1-10.34c-.2-.65-.8-1.1-1.47-1.1h-5.2c-.63 0-1.07.63-.87 1.22l5.83 17.13-5.48 7.74c-.43.6 0 1.45.75 1.45h5.3c.5 0 .96-.25 1.25-.66l17.6-25.43c.44-.6 0-1.44-.74-1.44"/><path fill="#159BD7" d="M195.1 12.58l-4.53 28.74c-.08.56.35 1.06.9 1.06h4.55c.76 0 1.4-.54 1.5-1.3L202 12.9c.08-.57-.35-1.07-.92-1.07H196c-.45 0-.84.34-.9.78"/></g></symbol><symbol viewBox="0 0 68 90" id="icon-pdf"><title>Slice 1</title><path d="M43 28c-1.66 0-3-1.34-3-3V0H3.67C1.64 0 0 1.64 0 3.67v82.66C0 88.36 1.65 90 3.68 90h60.64c2.03 0 3.68-1.65 3.68-3.68V28H43zm6.9 35.4c-.53.28-1.35.55-2.44.55-2.17 0-5.44-.55-8.16-1.92-4.62.55-8.16 1.1-10.88 2.2-.27 0-.27 0-.54.27-3.26 5.76-5.98 8.5-8.16 8.5-.54 0-.82 0-1.1-.27l-1.35-.83v-.27c-.27-.55-.27-.82-.27-1.37.27-1.37 1.9-3.84 5.17-5.76.54-.27 1.36-.82 2.45-1.37.8-1.37 1.63-3.02 2.72-4.94 1.36-2.75 2.17-5.5 3-7.96-1.1-3.3-1.64-5.2-.56-9.05.28-1.1 1.1-2.2 2.18-2.2h.54c.55 0 1.1.27 1.64.55 1.9 1.92 1.08 6.3 0 9.87v.27c1.08 3 2.72 5.48 4.35 7.12.8.55 1.35 1.1 2.44 1.65 1.36 0 2.44-.28 3.53-.28 3.27 0 5.44.54 6.26 1.9.27.56.27 1.1.27 1.66-.27.27-.54 1.1-1.1 1.64zM32.24 52.7c-.54 1.93-1.63 4.12-2.72 6.6-.53 1.1-1.08 1.9-1.62 3h.54c3.54-1.36 6.8-2.2 8.98-2.46-.54-.28-.82-.55-1.1-.82-1.35-1.65-2.98-3.84-4.07-6.3zm16.6 8.5c-.28-.26-1.37-1.1-5.17-1.1h-.55v.3c1.92.8 3.82 1.36 5.18 1.36H49.1v-.28s-.28 0-.28-.27zM23.8 65.33c-.54.28-1.1.55-1.36.83-1.9 1.64-3.26 3.56-3.54 4.38 1.64-.27 3.27-1.92 4.9-5.2zm8.16-18.92c.27-1.1.54-1.64.54-2.46v-.55c.28-1.38.28-2.48 0-2.75v-.28l-.27-.27s0 .27-.27.27c-.54 1.65-.54 3.57 0 6.03zM68 24H46c-1.1 0-2-.9-2-2V0l24 24z" fill-rule="evenodd"/></symbol><symbol viewBox="0 0 20 20" id="icon-pencil"><title>pencil</title><path d="M15.4 0L1.75 13.67l4.6 4.6L20 4.58 15.4 0zM1.2 14.67L0 20l5.33-1.2-4.12-4.13z" fill="#26B6E8"/></symbol><symbol viewBox="0 0 46 46" id="icon-pinterest"><title>Pinterest</title><g fill-rule="evenodd"><circle stroke="currentColor" cx="22.82" cy="22.86" r="22"/><path d="M22.82 10.86c-6.63 0-12 5.38-12 12 0 4.92 2.95 9.14 7.18 11-.03-.84 0-1.85.2-2.76l1.56-6.54s-.4-.77-.4-1.9c0-1.78 1.04-3.1 2.33-3.1 1.08 0 1.6.82 1.6 1.8 0 1.1-.7 2.74-1.05 4.26-.3 1.27.63 2.3 1.9 2.3 2.26 0 3.8-2.9 3.8-6.37 0-2.63-1.78-4.6-5-4.6-3.64 0-5.9 2.7-5.9 5.75 0 1.04.3 1.78.8 2.35.2.26.24.37.16.67l-.24.96c-.08.3-.32.4-.6.3-1.67-.68-2.46-2.52-2.46-4.58 0-3.4 2.88-7.5 8.58-7.5 4.58 0 7.6 3.32 7.6 6.87 0 4.7-2.62 8.23-6.48 8.23-1.3 0-2.5-.7-2.93-1.5l-.84 3.3c-.26.93-.76 1.85-1.2 2.57 1.07.32 2.2.5 3.4.5 6.62 0 12-5.38 12-12 0-6.63-5.38-12-12-12" fill="currentColor"/></g></symbol><symbol viewBox="0 0 28 28" id="icon-question"><title>Question icon</title><path d="M14 0C6.27 0 0 6.27 0 14s6.27 14 14 14 14-6.27 14-14S21.73 0 14 0zm1.75 16.7v-.66c0-1.22 1.5-1.82 2.64-2.95.74-.76 1.36-1.7 1.36-3.16 0-2.42-1.8-4.94-5.66-4.94-3.72 0-5.57 2.35-6.1 5.35l3.46.58c.16-1.54.9-3.17 2.64-3.17 1.3 0 2.1.94 2.1 2.06 0 1.18-.83 1.78-1.53 2.28-1.2.87-2.42 2.02-2.42 3.77v.82h3.5zm-3.77 4.6c0 1.16.84 2.08 2.07 2.08 1.22 0 2.06-.92 2.06-2.07 0-1.2-.83-2.03-2.05-2.03-1.23 0-2.07.82-2.07 2.04z" fill-rule="evenodd"/></symbol><symbol viewBox="0 0 124 124" id="icon-recycle"><title>recycle</title><g fill-rule="evenodd"><path d="M62 6.3C31.32 6.3 6.36 31.08 6.36 61.5c0 30.45 24.96 55.2 55.64 55.2s55.64-24.75 55.64-55.2c0-30.43-24.96-55.2-55.64-55.2zm0 116.72c-34.2 0-62-27.6-62-61.5C0 27.6 27.8 0 62 0c34.18 0 62 27.58 62 61.5 0 33.9-27.82 61.5-62 61.5z"/><path d="M48.6 75.46c3 2.8 6.5 4.65 10.28 5.37v6.12h6.56v-6.07c5.53-1.1 9.96-5.36 9.96-11.16 0-12.92-17.68-11-17.68-17.18 0-2.96 3.13-4.16 5.92-4.16 2.5 0 5.1 1.1 6.62 2.5l3.83-5.46c-2.85-2.08-5.7-3.12-8.66-3.45v-5.9h-6.56v6.3c-4.7 1.3-8.54 4.9-8.54 10.22 0 4.3 2.4 6.94 5.42 8.7 5.14 3 12.26 3.6 12.26 8.53 0 2.8-2.3 4.8-5.6 4.8-3.5 0-6.83-1.8-9.02-4.2l-4.8 5.03" fill="currentColor"/><path d="M62.18 102.8h.05c1.07 0 2.1-.13 3.17-.22.67-.05 1.35-.05 2-.14 12.05-1.58 22.36-8.46 28.72-18.17l4.28 3.08-1.7-14.48-14.28 2.98 4.16 3c-.1.17-.2.35-.32.52-.45.68-.93 1.33-1.42 1.98-.32.4-.65.8-1 1.2-.53.64-1.1 1.25-1.68 1.84l-1.06 1c-.64.57-1.3 1.14-1.97 1.66-.36.28-.73.54-1.1.8-.73.52-1.47 1.02-2.25 1.47l-1.12.6c-.8.44-1.63.86-2.48 1.22-.4.16-.8.3-1.2.44-.87.32-1.73.64-2.62.9-.5.12-1 .2-1.48.3-.84.2-1.68.4-2.55.53-.96.13-1.96.18-2.95.22-.42.02-.82.08-1.24.1l-.3-.03c-1.8 0-3.53-.22-5.24-.5-.63-.12-1.25-.25-1.87-.4-1.26-.3-2.47-.68-3.66-1.1-.86-.33-1.7-.67-2.5-1.05-1.1-.52-2.16-1.08-3.2-1.7-.76-.5-1.5-1.03-2.25-1.57-.6-.45-1.17-.94-1.73-1.43-1.55-1.33-2.96-2.8-4.22-4.4-.18-.23-.4-.44-.58-.7-.67-.9-1.28-1.88-1.85-2.87-2.73-4.65-4.42-9.98-4.44-15.76l-9.16.04c.08 18.68 12.7 34.33 29.85 39.1l.34.1c1.52.4 3.07.7 4.65.95l.93.14c1.7.2 3.43.35 5.2.34h.05m31.5-40.94l9.18-.04c-.1-18.67-12.7-34.32-29.85-39.1-.1-.03-.23-.05-.34-.1-1.52-.4-3.08-.7-4.66-.94l-.93-.14c-1.7-.2-3.44-.35-5.2-.34h-.11c-14.23.06-26.65 7.45-33.9 18.52l-4.26-3.06 1.7 14.48 14.27-2.98-4.2-3.03c.32-.5.6-1.02.95-1.5l.3-.42c.72-.95 1.5-1.87 2.3-2.75.16-.17.32-.34.5-.5.8-.83 1.64-1.6 2.53-2.35l.66-.5c.9-.7 1.8-1.35 2.75-1.95.28-.17.57-.32.85-.5.93-.53 1.9-1.04 2.88-1.5l1.1-.43c.96-.4 1.92-.76 2.92-1.05.5-.15 1.03-.24 1.54-.36.9-.2 1.8-.44 2.73-.58 1.07-.16 2.18-.22 3.28-.26.4-.02.8-.1 1.2-.1l.3.03c1.8 0 3.53.2 5.24.5.62.1 1.25.23 1.87.38 1.25.3 2.46.68 3.65 1.12.86.32 1.7.66 2.52 1.05 1.1.5 2.15 1.07 3.17 1.7.8.48 1.54 1 2.27 1.56.6.46 1.17.94 1.74 1.43 1.54 1.33 2.95 2.78 4.2 4.38l.6.72c.67.92 1.27 1.9 1.85 2.88 2.72 4.65 4.4 10 4.44 15.76" fill="currentColor"/></g></symbol><symbol viewBox="0 0 24 24" id="icon-refresh"><title>refresh</title><path d="M9 12l-4.46 4.97L0 12h3c0-4.97 4.03-9 9-9 2.4 0 4.57.94 6.18 2.47l-2 2.23C15.08 6.65 13.62 6 12 6c-3.3 0-6 2.7-6 6h3zm10.46-4.97L15 12h3c0 3.3-2.7 6-6 6-1.62 0-3.1-.65-4.17-1.7l-2 2.23C7.42 20.06 9.6 21 12 21c4.97 0 9-4.03 9-9h3l-4.54-4.97z"/></symbol><symbol viewBox="0 0 62 60" id="icon-repaid"><title>icon-repaid</title><g fill-rule="evenodd"><path d="M30.8 58.4c15.86 0 28.76-12.7 28.76-28.3 0-15.58-12.9-28.27-28.77-28.27S2 14.53 2 30.1c0 15.6 12.9 28.3 28.77 28.3"/><path d="M30.8 58.4c15.86 0 28.76-12.7 28.76-28.3 0-15.58-12.9-28.27-28.77-28.27S2 14.53 2 30.1c0 15.6 12.9 28.3 28.77 28.3z" stroke="currentColor" stroke-width="3"/><path d="M42.48 46.02V19.1s0-3.37-3.43-3.37h-.1L35.8 19.1h3.25v23.55H22.27V19.1h3.27l-3.16-3.37h-.1s-3.43 0-3.43 3.36V46s0 3.36 3.42 3.36h16.78s3.43 0 3.43-3.36zm-10.62 0c0 .74-.6 1.34-1.37 1.34-.76 0-1.38-.6-1.38-1.34 0-.75.62-1.35 1.37-1.35.75 0 1.36.6 1.36 1.35z" fill="currentColor"/><path d="M34.6 10.82V1.18h-7.9v9.64h-5.2l9.16 9.8 9.18-9.8H34.6" fill="currentColor"/></g></symbol><symbol viewBox="0 0 62 62" id="icon-repeat"><title>Repeat</title><g fill-rule="evenodd"><path d="M30.86 59.9c15.9 0 28.84-12.93 28.84-28.83 0-15.9-12.93-28.84-28.84-28.84-15.9 0-28.84 12.94-28.84 28.84S14.96 59.9 30.86 59.9"/><path d="M30.86 59.9c15.9 0 28.84-12.93 28.84-28.83 0-15.9-12.93-28.84-28.84-28.84-15.9 0-28.84 12.94-28.84 28.84S14.96 59.9 30.86 59.9z" stroke="currentColor" stroke-width="3"/><path d="M24.3 37.67c1.46 1.37 3.18 2.28 5.03 2.63v3h3.22v-2.97c2.7-.54 4.88-2.63 4.88-5.48 0-6.33-8.66-5.4-8.66-8.42 0-1.45 1.53-2.04 2.9-2.04 1.23 0 2.5.52 3.24 1.22l1.9-2.68c-1.4-1.02-2.8-1.53-4.25-1.7v-2.9h-3.22v3.1c-2.3.64-4.18 2.4-4.18 5 0 2.13 1.18 3.42 2.65 4.28 2.52 1.48 6 1.77 6 4.2 0 1.35-1.12 2.35-2.72 2.35-1.72 0-3.36-.9-4.43-2.07l-2.36 2.47" fill="currentColor"/><path d="M30.95 51.08h.02c.53 0 1.04-.07 1.56-.1.33-.04.66-.04.98-.08 5.92-.78 10.98-4.15 14.1-8.9l2.1 1.5-.84-7.1-7 1.46 2.04 1.47-.16.26c-.22.32-.45.64-.7.95-.15.2-.3.4-.48.6l-.83.9-.52.5c-.3.27-.62.55-.96.8-.17.14-.36.27-.54.4-.36.25-.72.5-1.1.72l-.55.3-1.2.6-.6.2c-.43.17-.85.33-1.3.45l-.7.16c-.43.1-.84.2-1.26.25-.5.07-.97.1-1.46.1-.2.02-.4.05-.6.05h-.16c-.87 0-1.73-.1-2.56-.26-.3-.05-.62-.1-.92-.2-.62-.13-1.22-.32-1.8-.53-.42-.17-.83-.34-1.23-.52-.53-.26-1.05-.53-1.56-.84-.37-.24-.73-.5-1.1-.77-.3-.22-.57-.46-.84-.7-.76-.65-1.45-1.36-2.07-2.15l-.3-.34c-.32-.45-.62-.93-.9-1.4-1.34-2.3-2.17-4.9-2.18-7.74l-4.5.02c.05 9.15 6.24 16.83 14.64 19.17l.17.04c.75.2 1.5.36 2.3.47l.44.07c.84.1 1.7.18 2.55.18h.03zM46.4 31l4.5-.02c-.04-9.16-6.23-16.83-14.64-19.17-.06 0-.12-.02-.17-.04-.76-.2-1.52-.35-2.3-.46l-.45-.07c-.84-.1-1.7-.18-2.55-.17h-.03-.02c-6.98.03-13.07 3.65-16.63 9.08l-2.1-1.5.85 7.1 7-1.46-2.07-1.48c.16-.25.3-.5.47-.74l.15-.2c.35-.48.73-.93 1.13-1.36l.23-.25c.4-.4.8-.8 1.25-1.15l.32-.25c.43-.34.88-.66 1.35-.95l.4-.24c.47-.26.94-.52 1.43-.74l.54-.2c.47-.2.94-.38 1.43-.53.25-.08.5-.12.75-.18.45-.1.9-.22 1.34-.3.52-.07 1.06-.1 1.6-.12.2 0 .4-.04.6-.04h.14c.88 0 1.73.1 2.57.25l.93.2c.6.15 1.2.34 1.8.55.4.16.82.33 1.22.52.54.25 1.06.52 1.56.83.4.24.76.5 1.12.77.3.22.57.45.85.7.75.64 1.44 1.36 2.05 2.14l.3.36c.33.45.62.93.9 1.4 1.34 2.3 2.17 4.9 2.18 7.74z" fill="currentColor"/></g></symbol><symbol viewBox="0 0 62 62" id="icon-screen"><title>screen</title><g fill="none" fill-rule="evenodd"><path fill="#000" d="M31 61c16.54 0 30-13.46 30-30S47.54 1 31 1 1 14.46 1 31s13.46 30 30 30"/><path fill="#FFF" d="M54.25 46.4c-1.27-2.6-3.62-4.56-6.42-5.32 1-.8 1.67-2.03 1.67-3.4 0-2.4-1.95-4.35-4.34-4.35-2.4 0-4.34 1.94-4.34 4.34 0 1.38.65 2.6 1.66 3.4-3.23.9-5.86 3.35-6.93 6.58-1.3-1.88-2.07-4.17-2.07-6.63 0-6.44 5.24-11.67 11.68-11.67 6.43 0 11.67 5.23 11.67 11.67 0 .2-.02.4-.03.58-.7 1.68-1.55 3.3-2.55 4.8zm-9.1-4.4c.17 0 .33 0 .5-.02 3.5.2 6.52 2.4 7.77 5.6-1.15 1.55-2.46 2.98-3.9 4.27-1.35.54-2.82.85-4.36.85-3.44 0-6.52-1.5-8.66-3.86.9-3.85 4.23-6.65 8.17-6.86.16 0 .32.03.5.03zm-3.1-4.34c0-1.7 1.4-3.1 3.1-3.1 1.7 0 3.1 1.4 3.1 3.1 0 1.6-1.2 2.9-2.74 3.07l-.34-.02c-.12 0-.24.03-.35.03-1.54-.18-2.74-1.48-2.74-3.06zm-13.74 21.1V19.75h28.22C58.04 23.18 58.9 27 58.9 31c0 2.64-.38 5.2-1.06 7.6-1.14-5.96-6.4-10.5-12.68-10.5-7.13 0-12.92 5.8-12.92 12.92 0 7.13 5.8 12.92 12.92 12.92.65 0 1.3-.06 1.92-.16C42.53 57 36.98 58.9 31 58.9c-.9 0-1.8-.05-2.7-.13zM3.1 31C3.1 15.62 15.62 3.1 31 3.1c8.24 0 15.66 3.6 20.77 9.3H29.64c-2.1 0-3.8 1.67-3.8 3.72v42.3C12.9 55.97 3.1 44.6 3.1 31zm36.24-14.98c0 .5-.4.93-.93.93-.5 0-.92-.42-.92-.93 0-.52.42-.93.93-.93.53 0 .94.4.94.92zm10.47 0c0 .5-.4.93-.92.93h-7.44c-.52 0-.93-.42-.93-.93 0-.52.42-.93.94-.93h7.44c.5 0 .93.4.93.92zM31 0C13.88 0 0 13.88 0 31c0 17.12 13.88 31 31 31 17.12 0 31-13.88 31-31C62 13.88 48.12 0 31 0z"/><path fill="#FFF" d="M20.87 26c-.34 0-.62.27-.62.6v7.45c0 .34.28.62.62.62.35 0 .62-.28.62-.62V26.6c0-.33-.28-.6-.63-.6m-5.58-1.87c-.35 0-.63.28-.63.62V35.9c0 .35.28.63.62.63.34 0 .6-.28.6-.62V24.76c0-.34-.26-.62-.6-.62m-5.6-1.86c-.33 0-.6.28-.6.62v14.87c0 .34.27.62.6.62.36 0 .63-.3.63-.63V22.9c0-.35-.27-.63-.62-.63m40.73 3.37c.85 0 1.55-.7 1.55-1.55 0-.87-.7-1.56-1.55-1.56-.86 0-1.55.7-1.55 1.55 0 .85.7 1.54 1.55 1.54m4.23 0c.86 0 1.55-.7 1.55-1.55 0-.87-.68-1.56-1.54-1.56-.85 0-1.55.7-1.55 1.55 0 .85.7 1.54 1.56 1.54M32.9 24.7h7.44c.34 0 .62-.27.62-.6 0-.35-.28-.63-.62-.63H32.9c-.34 0-.62.28-.62.62 0 .33.28.6.62.6"/></g></symbol><symbol viewBox="0 0 16 16" id="icon-sector-agriculture"><title>sector-agriculture</title><path d="M14.08 15.05C8.54 9.9 6.53 6.25 4.9 1.65c-.1-.27-.3-.3-.38-.3-.1 0-.2.04-.25.12-.08.1-.1.25-.05.42 1.63 5.74 5.3 11.38 9.14 14 .1.06.2.1.3.1.2 0 .42-.13.52-.33.1-.2.07-.4-.1-.62z"/><path d="M10.7 9.8c-.17.12-1.62-1.6.15-3.08.12-.1.24-.12.3-.05.26.15 1.33 1.63-.46 3.12zM8.97 7.37c-.16.12-1.43-1.53.28-2.83.1-.1.22-.1.28-.04.23.15 1.17 1.57-.56 2.87zM7.5 4.95c-.15.1-1.2-1.4.33-2.47.1-.08.2-.08.25-.02.2.14.97 1.42-.6 2.5zM6.37 2.27c-.1.1-1.23-1.04-.04-2.2.08-.08.17-.1.2-.04.2.1 1.04 1.1-.17 2.24zM6.36 10.18c.23-.1-.7-2.5-3.17-1.53-.2.06-.27.18-.24.28.02.34.92 2.24 3.4 1.25zM4.72 7.48c.2-.1-.73-2.3-3-1.32-.16.06-.23.17-.2.26.03.32.93 2.05 3.2 1.06zM3.27 5.06C3.45 5 2.77 3 .74 3.7c-.14.05-.2.14-.2.22 0 .28.67 1.85 2.73 1.14zM2.62 2.46c.15 0 .03-1.6-1.6-1.46-.12 0-.18.06-.18.12-.05.2.14 1.48 1.78 1.34z"/></symbol><symbol viewBox="0 0 16 16" id="icon-sector-arts"><title>sector-arts</title><path d="M10 3.68l.15-.2c-2.2-.93-4.84-.8-6.84 1.33-1 1.1-1.67 3.3-.43 4.53.47.46 1.14.63 1.82.73.6-.84 4.32-5.7 5.3-6.38zM13.1 5.7c-.22-.27-.45-.5-.7-.74-.08.07-.27.26-.4.42-.46 1-4 4.92-4.9 5.9-.18.5-1.15.9-1.3 1.98-.3 2.33 2.7 3.62 5.4 2.05 3.96-2.3 4.34-6.55 1.9-9.6zm-4.04 8.68c-.73.5-1.62.45-1.98-.08-.35-.54-.05-1.37.68-1.86.74-.5 1.62-.45 1.98.08.35.54.05 1.37-.68 1.86zM14.5.1c-.08.23-.5.73-.9.8-1.75.42-2.64 2.1-2.46 2.9l-.32.4c-.5.26-1.23.98-2.2 2.2-1.5 1.88-7.44 9.25-7.23 9.56C1.7 16.1 7.97 9 9.55 7.2c1-1.1 1.58-1.94 1.8-2.47l.4-.48C12.9 4.2 14.68 1.77 14.62.2c0-.2-.05-.28-.12-.1z"/></symbol><symbol viewBox="0 0 16 16" id="icon-sector-clothing"><title>sector-clothing</title><path d="M15.74 1.83h-5.6C10.14 3 9.18 3.97 8 3.97c-1.18 0-2.14-.96-2.14-2.14H.36c-.32 0-.36-.07-.36.34v3.06c0 .6.04.6.37.6H3.4v7.83c0 .5 0 .5.32.5h8.45c.44 0 .44 0 .44-.43v-7.9h3s.4 0 .4-.35V2.2c0-.3 0-.37-.26-.37z"/></symbol><symbol viewBox="0 0 16 16" id="icon-sector-construction"><title>sector-construction</title><path d="M15.25 1.22c-1.58-.36-2.76.32-3.5.84-.3.24-1.95 2.7-2.5 3.47.7-.2 1.45-.1 2.1.2-.46.62-.93 1.28-1.4 1.95l.76.88c.54-.74 1.07-1.48 1.57-2.2.52.53.87 1.2.86 1.93.54-.77 2.35-3.12 2.47-3.5.25-.87.5-2.2-.35-3.58zM4.7 15.04c-.4.57.5 1.27.92.66l3.34-4.68-.78-.87-3.5 4.9z"/><path d="M15.02 15.08c-.37-.44-6.77-8.02-9.6-11.4l.22-.18-.14-.97S6.78.9 10.13.38c.02 0 0-.33 0-.33C7.27-.17 6.18.38 5.7.77L4.07 2.1c-.36-.43-1.17.4-.92.67l.05.07C2.9 3.1 2 3.9 1.6 4.22c-.46.4-1.18 1.4-1.44 4.26 0 0 .32.06.32.04 1.1-3.2 2.9-4.2 2.9-4.2l.94.3.22-.2c2.87 3.4 9.25 10.96 9.6 11.4.46.52 1.36-.17.88-.74z"/></symbol><symbol viewBox="0 0 16 16" id="icon-sector-education"><title>sector-education</title><path d="M2.46 8.7l3.72-1.92c-.02-.06-.04-.12-.04-.18 0-.48.67-.87 1.5-.87s1.5.4 1.5.87-.67.86-1.5.86c-.17 0-.33-.02-.48-.05l-4.1 2.12 3.1 3.44c.07.07.17.1.28.1.1 0 .2-.02.27-.1l9.16-5.2.02-.03c.08-.07.12-.17.12-.28s-.04-.2-.12-.28L9.1 1.92c-.13-.14-.38-.15-.53 0L.15 5.65H.13v.02c-.17.15-.17.4-.02.56l1.53 1.68v4.37h.03L.64 14.2h2.98l-1-1.9h.02V9.04l-.18-.36z"/></symbol><symbol viewBox="0 0 16 16" id="icon-sector-entertainment"><title>sector-entertainment</title><path d="M16 5.23l-.98-1.06c-.62.58-2.47.97-3.05.35-.58-.62-.45-2.67.17-3.25L11.26.2c-.26.23-.66.2-.9-.04L.03 9.88c.24.25.23.65-.03.9l.88 1.08c.62-.58 2.75-1 3.33-.4.6.62.18 2.7-.44 3.3l.98 1.05c.26-.22.66-.2.9.04l10.33-9.72c-.24-.25-.23-.65.03-.9zm-7.83 6.82l-4.1-4.1.72-.7 4.07 4.1-.7.7zm3.46-3.47L7.55 4.5l.7-.7 4.1 4.08-.72.7z"/></symbol><symbol viewBox="0 0 16 16" id="icon-sector-food"><title>sector-food</title><path d="M5.5 10.7l1.18-1.16c-.52-.4-.65-.42-.65-.42-.1-.18.95-1.47.74-3.15C6.47 3.6 4.05.4 2.55.12.9-.18-.77 3.56.38 6.88c.96 2.76 2.75 2.64 5 3.73l.12.1zM10.76 14.23c-.48-.68-1.05-1.42-1.6-2.1-.43.47-.85 1.02-1.22 1.6.4.72.8 1.47 1.13 2.17h2.76c-.37-.62-.73-1.18-1.07-1.67z"/><path d="M15.58.93c-.1.15-2.4 5.58-2.4 5.58l-1.13-.02S13.65.72 13.58.6c-.07-.1-.23-.06-.4.1-.14.13-1.95 4.95-2.18 5.55-.3-.07-.6-.12-.88-.14.1-.6.8-5.66.7-5.9-.06-.25-.34.05-.34.05l-1.8 6.52c-.72 1.56.2 2.44.1 2.62 0 0-.22 0-1.3.85-.73.6-2.47 2.5-3.65 4.05-.36.47-.74 1-1.13 1.6h2.82c1.08-2.05 2.64-4.47 3.84-5 2.3-1 4.05-1.1 4.74-3.35 0 0 1.94-6.6 1.9-6.7-.04-.14-.32-.1-.42.08z"/></symbol><symbol viewBox="0 0 16 16" id="icon-sector-health"><title>sector-health</title><path d="M15.4 4.08h-1.85L12.8 2.3c-.28-.65-.63-1.47-1.45-1.47H4.42c-1.07 0-1.4.9-1.66 1.64-.1.27-.2.57-.37.9l-.33.7H.6c-.33 0-.6.3-.6.63v9.86c0 .34.27.6.6.6H15.4c.32 0 .6-.26.6-.6V4.7c0-.34-.28-.62-.6-.62zm-11.5 0c.17-.4.3-.76.42-1.07l.2-.52h6.54l.2.46c.15.33.3.76.5 1.14H3.9zm7.2 6.47H8.9v2.18H7.03v-2.18H4.9V8.7h2.14V6.52H8.9V8.7h2.2v1.85z"/></symbol><symbol viewBox="0 0 16 16" id="icon-sector-housing"><title>sector-housing</title><path d="M12.86 4.66V2.58c0-.15-.1-.27-.26-.27h-1.47c-.14 0-.26.13-.26.28v.92L8 1.84 0 6.48h16l-3.14-1.82zM2.57 13.9c0 .15.12.26.26.26H4.6v-4.7h2.7v4.7h5.95c.14 0 .26-.1.26-.26V7.8H2.58v6.1zm6.87-4.2c0-.15.14-.27.32-.27h1.3c.18 0 .32.12.32.28v1.88c0 .15-.15.28-.32.28h-1.3c-.18 0-.33-.13-.33-.28V9.7z"/></symbol><symbol viewBox="0 0 16 16" id="icon-sector-manufacturing"><title>sector-manufacturing</title><path d="M15.95 5.57c-.12-.15-1.94-.8-2.95-1.15 0 0-.55 1.1-1.55.73-.78-.27-.86-1.54-1.23-2.23l.15-.42c.2-.53-.08-1.12-.62-1.3L7.68.44c-.53-.2-1.12.08-1.3.62l-.13.3c-.8.06-1.4.66-1.53.73-.15.1-.47.9-1.08.72-.6-.17-.48-1.13-.54-1.33-.06-.22.08-.22-.38-.42C1.78.75.42 1.44.1 2.38c-.34.94.28 2.33 1.22 2.66.48.14.37.04.55-.08.18-.12.8-.98 1.37-.73.58.24.2 1.1.27 1.27.06.15.16 1.02.8 1.56L1.2 15.6l4.52.02 2.63-7.3c.74-.35 1.64-1.27 2.4-1 1 .36.64 1.6.64 1.6 1.02.35 2.84 1 3.02.95.4-.1.9-1.75 1-2.06.12-.3.77-1.9.53-2.23z"/></symbol><symbol viewBox="0 0 16 16" id="icon-sector-personal-use"><title>sector-personal-use</title><path d="M9.3 8.35c-.2-.38-.44-.74-.7-1.05-.42-.5-.9-.9-1.42-1.2.73-.6 1.2-1.48 1.2-2.5C8.38 1.8 6.93.37 5.15.37S1.9 1.8 1.9 3.6c0 1 .5 1.9 1.22 2.5-.5.3-1 .7-1.4 1.18C.67 8.53 0 10.35 0 12.38c0 .16 0 .3.04.46.3 1.76 2.48 2.4 5.1 2.4.78 0 1.5-.04 2.16-.13-.1-.23-.17-.46-.2-.7-.05-.16-.06-.36-.06-.56 0-1.85.6-3.62 1.66-4.87.2-.23.4-.43.6-.62zM14.74 10.05c-.38-.45-.8-.77-1.27-.97.89-.43 1.5-1.32 1.5-2.37 0-1.44-1.18-2.6-2.62-2.6-1.45 0-2.63 1.16-2.63 2.6 0 1.06.62 1.95 1.5 2.38-.45.2-.88.52-1.25.96-.8.95-1.28 2.34-1.28 3.8v.27c.25 1.34 2.4 1.54 3.65 1.54 2.43 0 3.5-.44 3.63-1.5l.02-.3c0-1.45-.46-2.83-1.26-3.8z"/></symbol><symbol viewBox="0 0 16 16" id="icon-sector-retail"><title>sector-retail</title><path d="M3.12 4.16l.7.68C4.35 3.04 6 1.72 8 1.72c1.96 0 3.6 1.3 4.18 3.07l.64-.65.62.63C12.84 2.33 10.64.5 8 .5 5.4.5 3.22 2.3 2.6 4.7l.52-.54zM14.02 7.55l-1.2-1.08-1.2 1.08-1.2-1.08L9.2 7.54 8 6.47 6.8 7.54 5.6 6.47 4.4 7.54 3.2 6.47 1.97 7.54.78 6.47v8.7c0 .2.17.33.38.33h13.68c.2 0 .38-.15.38-.33V6.46l-1.2 1.1z"/></symbol><symbol viewBox="0 0 16 16" id="icon-sector-services"><title>sector-services</title><path d="M2.25 14.28c0 .2-.1.38-.25.38H.25c-.14 0-.25-.17-.25-.38v-4.25c0-.2.1-.38.25-.38H2c.14 0 .25.17.25.38v4.25zM15.75 8.3c-.57 0-1.6.8-2.3 1.32-.47.36-.76.6-1 .67-.46.17-1.55.32-2.3.32-.66 0-1.13-.1-1.27-.56-.04-.1-.1-.4.13-.7l.26-.32c.42-.52 1.7-2.1 1.3-2.7l-.1-.1c-.13 0-.54.44-.78.7-.24.27-.47.5-.72.72-.63.54-1.36.78-1.5.83H6.3c-.82 0-1.42 0-1.7.04-.2.07-.93 1.07-1.6 2.3l.03 2.78h5.6c2.24 0 6.67-3.9 7.37-5.05-.06-.28-.16-.28-.25-.28z"/><path d="M6.3 7.4h.96c.12-.04.67-.23 1.13-.62.2-.18.4-.4.6-.62.5-.54.95-1.02 1.48-1.02.23 0 .56.1.84.55.8 1.2-.37 2.85-1.13 3.82.72 0 1.67-.17 1.97-.28.1-.04.48-.34.74-.53l.63-.46V1.7c0-.2-.12-.36-.27-.36H6.23c-.15 0-.27.16-.27.35v5.7h.35z"/></symbol><symbol viewBox="0 0 16 16" id="icon-sector-transportation"><title>sector-transportation</title><path d="M14.63 11.77H1.33c-.1 0-.2.1-.2.2v.74c0 .13.1.22.2.22h.46v.9c0 .37.26.65.58.65h1.24c.32 0 .6-.28.6-.64v-.9h7.57v.9c0 .36.26.64.6.64h1.22c.32 0 .6-.28.6-.64v-.9h.4c.1 0 .2-.1.2-.22V12c0-.12-.1-.2-.2-.2zM14.36 6.57h-.62c-.07-.27-.14-.73-.2-1.1-.23-1.45-.44-2.82-1.34-2.82H9.92l.02-.17v-.5c0-.24-.1-.45-.24-.45H6.13c-.14 0-.24.2-.24.46v.65H3.8c-.83 0-1.13 1.38-1.47 3.34-.03.2-.06.4-.1.57h-.6c-.26 0-.46.2-.46.45v3.42c0 .25.2.45.45.45h12.76c.24 0 .45-.2.45-.46V7.02c0-.25-.2-.45-.44-.45zM3.1 6.13c.1-.6.4-2.4.73-2.68h8.35c.26.18.48 1.56.57 2.15.06.4.1.7.17.97h-9.9l.08-.44zM2.92 10c-.63 0-1.14-.52-1.14-1.15 0-.63.5-1.14 1.14-1.14s1.14.52 1.14 1.15c0 .63-.5 1.14-1.14 1.14zm7.86-.76H5.04v-.77h5.74v.77zm2.3.75c-.63 0-1.14-.52-1.14-1.15 0-.63.5-1.14 1.14-1.14s1.14.52 1.14 1.15c0 .63-.5 1.14-1.14 1.14z"/><path d="M1.8 5.78v-.5c0-.1-.1-.17-.23-.17H.22c-.12 0-.22.1-.22.2v.48c0 .1.1.18.22.18h1.35c.12 0 .22-.08.22-.18zM15.78 5.1h-1.35c-.12 0-.23.1-.23.2v.48c0 .1.1.18.23.18h1.35c.12 0 .22-.08.22-.18v-.5c0-.1-.1-.17-.22-.17z"/></symbol><symbol viewBox="0 0 16 16" id="icon-sector-wholesale"><title>sector-wholesale</title><path d="M6.15 1c0 .22.08.37.24.55.3.33.82.58 1 1 .05.13.07.28.1.42l.05.2h.35c.5 0 .92-.03 1.35-.1.05-.02.12-.05.2-.16.17-.2.4-.6.5-.85.37-.88.68-1.44.67-2.04-.37-.03-.78.05-1.16.05-.2 0-.38 0-.56.1-.2.1-.2.33-.35.44-.28.16-1.08 0-1.37-.04C6.82.5 6.53.43 6.28.2c-.06.03-.08.05-.17.07.06.07.07.25.06.33.02.13 0 .24 0 .4zM12.97 11.98c.22-.38.44-2.1.27-2.44-.17-.34-.55-.33-.36-1.28.1-.53.18-3.33-.9-3.98-.3-.17-.7-.34-1.16-.5-.95.35-1.88.45-2.92.45h-.1c-.72 0-1.4-.03-2.05-.33l-.16-.1c-.58.28-1.05.6-1.2.97-.37.95-1 2.8-.85 3.36.14.57.2.67-.02.93s-1.08 2.46-.76 3.9c.1.63.17.9.48 1.06.3.17 6.15 3.07 9.36 1.53.47-.17.54-1.85.3-2.57-.24-.72-.16-.62.07-1zm-4.32.68L7.4 10.28l-.84 1.35-.9-.56 1.2-1.88-1.22-2.35.94-.5.93 1.8 1.17-1.83.9.57-1.5 2.35 1.5 2.93-.92.48z"/></symbol><symbol viewBox="0 0 50 50" id="icon-secure-lock"><title>Lock icon</title><g fill-rule="evenodd" transform="translate(3 3)"><circle cx="22" cy="22" r="22" stroke="currentColor"/><path fill="currentColor" d="M28 17c0-3.3-2.7-6-6-6s-6 2.7-6 6v4h-2v12h16V21h-2v-4zm-2 4h-8v-4c0-2.2 1.8-4 4-4s4 1.8 4 4v4z"/></g></symbol><symbol viewBox="0 0 18 18" id="icon-slideshow-dot"><title>Oval 11 Copy</title><circle cx="9" cy="9" r="8" fill-rule="evenodd"/></symbol><symbol viewBox="0 0 50 22" id="icon-small-chevron-mobile"><title>Small Chevron Mobile</title><path d="M0 1.02L25 21 50 1" fill-rule="evenodd"/></symbol><symbol viewBox="0 0 32 15" id="icon-small-chevron"><title>Small Chevron</title><path d="M1 1l15 12L31 1" stroke-width="2" fill-rule="evenodd"/></symbol><symbol viewBox="0 0 19 20" id="icon-sort"><title>sort</title><g fill-rule="evenodd"><text font-family="PostGrotesk" font-size="9" font-weight="bold"><tspan x="10.82" y="7">A</tspan> <tspan x="10.82" y="17">Z</tspan></text><path d="M3.33 16.02H1L4.05 19l3.05-2.98H4.77V1.45H3.33v14.57z"/></g></symbol><symbol viewBox="0 0 24 24" id="icon-star"><title>Star Icon</title><path d="M0 0h24v24H0z"/><path fill="currentColor" d="M12 0l2.83 9.17H24l-7.42 5.66L19.42 24 12 18.34 4.58 24l2.84-9.17L0 9.17h9.17L12 0z"/></symbol><symbol viewBox="0 0 50 38" id="icon-tags-checkmark"><title>tags-checkmark</title><path d="M19.87 37.4l.15.14L50 7.56 42.45 0l-22.8 22.8-12.1-12.12L0 18.24l19.5 19.5.37-.35z"/></symbol><symbol viewBox="0 0 12 7" id="icon-triangle"><title>Triangle</title><path d="M6 0l6 6.86H0" fill-rule="evenodd"/></symbol><symbol viewBox="0 0 46 46" id="icon-twitter"><title>Twitter</title><g fill-rule="evenodd"><circle stroke="currentColor" cx="22.85" cy="22.79" r="22"/><path d="M34.84 15.35c-.88.4-1.83.66-2.82.78 1-.6 1.8-1.58 2.16-2.73-.95.57-2 .98-3.13 1.2-.9-.96-2.17-1.56-3.6-1.56-2.7 0-4.9 2.2-4.9 4.92 0 .4.03.77.1 1.13-4.08-.22-7.7-2.18-10.13-5.16-.43.73-.67 1.58-.67 2.48 0 1.7.87 3.2 2.2 4.1-.82-.03-1.57-.25-2.24-.62v.06c0 2.4 1.7 4.38 3.96 4.83-.4.1-.85.16-1.3.16-.3 0-.62-.03-.92-.1.62 1.97 2.44 3.4 4.6 3.43-1.7 1.3-3.8 2.1-6.12 2.1-.4 0-.8-.02-1.17-.07 2.18 1.4 4.76 2.2 7.54 2.2 9.05 0 14-7.5 14-14v-.63c.95-.7 1.78-1.56 2.44-2.55" fill="currentColor"/></g></symbol><symbol viewBox="0 0 75 75" id="icon-updates"><title>updates</title><g fill="none"><path fill="#5E9C43" d="M31.9 38.47l4.8 4.08c.3.23.63.35.98.35s.7-.12.98-.35l4.73-4L55.05 49.6H20.13L31.9 38.48zm-2.34-1.96L18.02 47.46V26.77l11.54 9.74zm27.78-9.73V47.6l-11.63-11 11.64-9.83zM37.68 39.4L20.65 25.03h34.07l-17.04 14.4zm22.6 12.2l.02-.08c.04-.13.06-.26.06-.4V23.45l-.02-.16-.03-.14-.03-.15-.06-.14-.06-.13-.1-.13-.03-.06-.04-.04-.1-.12-.12-.1-.13-.07-.1-.05-.15-.06-.14-.05-.13-.03h-.16l-.05-.02H16.46c-.05 0-.1 0-.16.02l-.14.03-.15.04-.12.04-.13.07-.13.1-.1.08-.12.1-.04.06-.05.06-.08.13-.06.13-.06.13-.05.14-.03.14v.16l-.02.07V51.14c0 .83.68 1.5 1.5 1.5h42.35c.1 0 .2 0 .3-.02.1 0 .2-.04.3-.08.12-.06.23-.13.33-.2l.07-.07c.1-.1.2-.18.26-.3h.02c.07-.1.12-.22.16-.34z"/><path fill="#D9E1DE" d="M37.57 75h-.15C17.22 74.96.72 58.87.02 38.83v-2.65C.72 16.1 17.26 0 37.5 0 58.17 0 75 16.83 75 37.5 75 58.15 58.22 74.96 37.57 75M37.5 3.85c-18.56 0-33.65 15.1-33.65 33.65 0 18.56 15.1 33.65 33.65 33.65 18.55 0 33.65-15.1 33.65-33.65 0-18.55-15.1-33.65-33.65-33.65"/></g></symbol><symbol viewBox="0 0 28 28" id="icon-warning"><title>Warning icon</title><path d="M14 0C6.27 0 0 6.27 0 14s6.27 14 14 14 14-6.27 14-14S21.73 0 14 0zm-2.63 7.48c0 1.2.85 2.18 2.26 2.18 1.42 0 2.26-.97 2.26-2.18 0-1.34-.93-2.23-2.27-2.23-1.34 0-2.26.9-2.26 2.23zm.37 15.27h3.78v-10.5h-3.78v10.5z" fill-rule="evenodd"/></symbol><symbol viewBox="0 0 24 35" id="icon-woman"><title>Female symbol</title><g fill="none" fill-rule="evenodd" stroke-width="4"><circle cx="12" cy="12" r="10"/><path d="M12 23v10m5-4H7" stroke-linecap="square"/></g></symbol><symbol viewBox="0 0 29 29" id="icon-x"><title>X</title><g stroke-width="2" fill-rule="evenodd"><path d="M28 28.1L14.47 14.55 1 28.05M1 1l13.53 13.55L28 1.05"/></g></symbol><symbol viewBox="0 0 46 46" id="icon-yelp"><title>Yelp</title><circle stroke="currentColor" class="st0" cx="22.8" cy="22.6" r="22" fill-rule="evenodd"/><g fill="currentColor"><path class="st1" d="M12 22c-.5.8-.7 3.2-.5 4.9.1.5.2 1 .3 1.3.2.4.5.6.9.6.2 0 .4 0 4.9-1.5l2-.6c.5-.1.8-.6.9-1.2 0-.6-.3-1.1-.8-1.3l-1.4-.6c-4.8-2-5.1-2.1-5.3-2.1-.5-.1-.8.1-1 .5zM22.8 36.9c.1-.2.1-.4.1-5.1v-2.1c0-.5-.3-1-.8-1.2-.6-.2-1.2-.1-1.5.3l-1 1.2c-3.4 4-3.5 4.2-3.6 4.4-.1.1-.1.3-.1.4 0 .2.1.4.3.6.8.9 4.6 2.3 5.8 2.1.3 0 .6-.3.8-.6zM30.4 35.2c1.1-.5 3.6-3.6 3.8-4.8.1-.4-.1-.8-.4-1-.2-.1-.3-.2-4.8-1.7l-2-.7c-.5-.2-1 0-1.4.4-.4.5-.4 1.1-.1 1.5l.8 1.3c2.7 4.3 2.9 4.6 3.1 4.8.3.3.6.4 1 .2zM28.1 24.1c5.1-1.2 5.3-1.3 5.5-1.4.3-.2.5-.6.4-1-.1-1.3-2.3-4.5-3.4-5.1-.4-.2-.8-.2-1.1 0-.2.1-.3.3-3.1 4.1 0 0-1.2 1.7-1.3 1.7-.3.4-.3 1 0 1.5s.9.8 1.4.6c.3-.1.8-.3 1.6-.4zM23 19.8c-.1-2-.7-11.1-.8-11.5-.1-.4-.4-.6-.8-.8-1.3-.3-6.3 1.1-7.2 2-.3.3-.4.7-.3 1 .1.3 6.3 10 6.3 10 .9 1.5 1.7 1.3 1.9 1.2.2.1.9-.1.9-1.9z"/></g></symbol><symbol viewBox="0 0 46 46" id="icon-youtube"><title>You Tube</title><g transform="translate(0 1)" fill-rule="evenodd"><circle stroke="currentColor" cx="22.89" cy="22.33" r="22"/><path d="M34.15 30.27v-15.9c0-2.22-1.7-4.04-3.8-4.04H15.43c-2.1 0-3.8 1.82-3.8 4.05v15.9c0 2.23 1.7 4.05 3.8 4.05h14.92c2.1 0 3.8-1.82 3.8-4.06zm-12.6-16.83l-1.28 4.13v2.94h-1.1v-2.8l-1.3-4.26h1.1l.72 2.82h.06l.67-2.82h1.1zm2.76 5.77c0 .45-.12.8-.37 1.06-.25.25-.6.38-1.04.38-.43 0-.77-.13-1.03-.4-.25-.26-.38-.6-.38-1.05v-2.72c0-.4.12-.72.38-.96.27-.24.62-.36 1.06-.36.4 0 .73.12.98.38.26.25.4.57.4.97v2.7zm3.6 1.3h-.97v-.57c-.18.2-.37.37-.56.48-.2.13-.38.18-.56.18-.22 0-.38-.08-.5-.23-.1-.16-.17-.4-.17-.7V15.3h.97v4c0 .1.02.2.06.26.04.05.1.08.2.08.07 0 .16-.04.27-.1.1-.08.2-.18.3-.3V15.3h.97v5.2zm2.98 6.12c0 1-.03 2-.1 3 0 1.25-1.04 2.27-2.3 2.27-1.83.07-3.7.1-5.6.1-1.9 0-3.75-.03-5.57-.1-1.26 0-2.3-1.03-2.3-2.3-.07-1-.1-1.98-.1-2.98s.03-2 .1-3c0-1.25 1.04-2.28 2.3-2.28 1.83-.07 3.7-.1 5.6-.1 1.9 0 3.75.03 5.57.1 1.27 0 2.3 1.03 2.3 2.3.08.98.1 1.98.1 2.98zm-1.7 3.17c.26-.28.38-.7.38-1.22v-.4h-1v.37c0 .3-.03.5-.1.6-.06.08-.17.13-.33.13s-.27-.05-.33-.16c-.06-.1-.1-.3-.1-.57v-.98h1.86v-1.33c0-.5-.12-.88-.36-1.14-.24-.26-.58-.4-1.02-.4-.43 0-.8.15-1.06.43-.28.3-.4.66-.4 1.1v2.35c0 .5.1.9.36 1.18.25.3.6.43 1.03.43.5 0 .85-.14 1.1-.4zm-1.48-3.04v-.53c0-.22.04-.38.1-.47.07-.1.18-.14.34-.14.15 0 .25.04.32.14s.1.25.1.47v.53h-.86zm-1.95 3.06c.15-.2.23-.48.23-.85v-2.9c0-.42-.1-.74-.25-.97-.16-.22-.4-.33-.7-.33-.15 0-.3.04-.45.12-.14.08-.28.2-.4.36v-2.28h-1v7.07h1v-.4c.12.16.25.28.4.35.15.08.32.12.5.12.3 0 .52-.1.67-.3zm-.77-1c0 .18-.03.3-.1.37-.04.06-.13.1-.25.1-.08 0-.16-.02-.23-.06-.08-.04-.15-.1-.23-.18V25.8c.06-.06.13-.12.2-.15s.13-.05.2-.05c.13 0 .23.04.3.14.07.1.1.22.1.4v2.7zm-3.7 1.23h.96v-5.2h-.97v3.94l-.3.28c-.1.07-.2.1-.27.1-.1 0-.15-.02-.2-.08-.04-.05-.06-.14-.06-.27v-4h-.97v4.37c0 .3.06.54.18.7.1.15.28.23.5.23.18 0 .37-.06.57-.17.2-.1.37-.27.55-.48v.57zM18.35 24h1.13V23h-3.36V24h1.13v6.05h1.1V24zm4.84-4.4c.08-.07.12-.18.12-.32v-2.84c0-.1-.04-.2-.12-.27-.08-.07-.18-.1-.3-.1-.13 0-.22.03-.3.1-.07.07-.1.16-.1.27v2.84c0 .15.03.26.1.34.06.07.16.1.3.1.12 0 .23-.03.3-.1z" fill="currentColor"/></g></symbol></svg>