<svg xmlns="http://www.w3.org/2000/svg" xmlns:xlink="http://www.w3.org/1999/xlink" xmlns:sketch="http://www.bohemiancoding.com/sketch/ns" style="display:none;"><symbol viewBox="0 0 124 124" id="icon-boundaries"><title>boundaries</title><g fill-rule="evenodd"><path d="M62 6.3C31.32 6.3 6.36 31.08 6.36 61.5c0 30.45 24.96 55.2 55.64 55.2s55.64-24.75 55.64-55.2c0-30.43-24.96-55.2-55.64-55.2zm0 116.72c-34.2 0-62-27.6-62-61.5C0 27.6 27.8 0 62 0c34.18 0 62 27.58 62 61.5 0 33.9-27.82 61.5-62 61.5z"/><path d="M89.64 43.08l5.45 5.45V29.38H75.94l5.45 5.45L62 54.23l-19.4-19.4 5.44-5.45H28.9v19.15l5.45-5.45 19.4 19.4-19.4 19.4-5.45-5.45v19.14h19.14l-5.45-5.45L62 70.72l19.4 19.4-5.45 5.46H95.1V76.42l-5.46 5.45-19.4-19.4 19.4-19.4" fill="currentColor"/></g></symbol><symbol viewBox="0 0 16 16" id="icon-checkmark"><title>Shape 2 Copy</title><path d="M8 0C3.58 0 0 3.58 0 8s3.58 8 8 8 8-3.58 8-8-3.58-8-8-8zm3 4.6L12.4 6 7 11.4 3.6 8 5 6.6l2 2 4-4z" fill-rule="evenodd"/></symbol><symbol viewBox="0 0 62 62" id="icon-choose"><title>icon-choose</title><g fill-rule="evenodd"><path d="M31.06 59.7c15.9 0 28.84-12.93 28.84-28.84 0-15.9-12.94-28.84-28.84-28.84S2.2 14.96 2.2 30.86 15.16 59.7 31.07 59.7"/><path d="M31.06 59.7c15.9 0 28.84-12.93 28.84-28.84 0-15.9-12.94-28.84-28.84-28.84S2.2 14.96 2.2 30.86 15.16 59.7 31.07 59.7z" stroke="currentColor" stroke-width="3"/><path d="M31.02 21c-2.3 0-4.12-1.84-4.1-4.12.02-2.24 1.93-4.1 4.17-4.08 2.26.03 4.1 1.9 4.1 4.16-.03 2.27-1.88 4.06-4.18 4.05M31.06 22c-.16 0-3.95.04-5.54 4.1-1.8 4.63-.67 16.8 5.54 23.45 6.2-6.65 7.34-18.82 5.53-23.45C35 22.04 31.2 22 31.05 22M44.45 24.1c-1.7 0-3.03-1.36-3.02-3.04 0-1.66 1.42-3.03 3.08-3 1.68 0 3.05 1.4 3.03 3.06 0 1.67-1.38 3-3.08 3M44.48 25.06c-.12 0-2.9.04-4.1 3.04-1.32 3.4-.47 12.4 4.1 17.3 4.58-4.9 5.42-13.9 4.1-17.3-1.2-3-3.98-3.04-4.1-3.04M17.6 24.1c-1.7 0-3.03-1.36-3.02-3.04 0-1.66 1.42-3.03 3.08-3 1.67 0 3.04 1.4 3.02 3.06 0 1.67-1.38 3-3.08 3M17.63 25.06c-.12 0-2.9.04-4.1 3.04-1.32 3.4-.47 12.4 4.1 17.3 4.58-4.9 5.42-13.9 4.1-17.3-1.2-3-3.98-3.04-4.1-3.04" fill="currentColor"/></g></symbol><symbol viewBox="0 0 16 16" id="icon-confirmation"><title>Shape 2 Copy</title><path d="M8 0C3.58 0 0 3.58 0 8s3.58 8 8 8 8-3.58 8-8-3.58-8-8-8zm3 4.6L12.4 6 7 11.4 3.6 8 5 6.6l2 2 4-4z" fill-rule="evenodd"/></symbol><symbol viewBox="0 0 31 15" id="icon-distribution"><title>Distribution</title><g fill-rule="evenodd"><g stroke="currentColor" stroke-width="2" stroke-linecap="square"><path d="M21 1.5v12M25 1.5v12M29 1.5v12"/></g><text font-family="PostGrotesk" font-size="18" fill="currentColor" transform="translate(0 -3)"><tspan x="0" y="17">%</tspan></text></g></symbol><symbol viewBox="0 0 28 28" id="icon-error"><title>Error icon</title><path d="M14 0C6.27 0 0 6.27 0 14s6.27 14 14 14 14-6.27 14-14S21.73 0 14 0zm1.63 5.25h-4l.38 10.5h3.26l.37-10.5zm-4.26 15.5c0 1.27.92 2.26 2.26 2.26 1.34 0 2.26-.98 2.26-2.25 0-1.33-.93-2.23-2.27-2.23-1.34 0-2.26.9-2.26 2.23z" fill-rule="evenodd"/></symbol><symbol viewBox="0 0 46 46" id="icon-facebook"><title>Facebook</title><g fill-rule="evenodd"><circle stroke="currentColor" cx="22.8" cy="22.55" r="22"/><path d="M30.74 9.77H14.86c-2.24 0-4.06 1.93-4.06 4.32V31c0 2.38 1.82 4.32 4.06 4.32h7.78V24.92h-2.57v-3.5h2.57V18.6c0-.52-.1-3.96 4.03-3.96h3.06v3.58h-2.3c-.4 0-.84.47-.84.82v2.35h2.98c-.12 1.8-.36 3.52-.36 3.52h-2.65v10.42h4.17c2.24 0 4.06-1.94 4.06-4.32V14.1c0-2.4-1.82-4.33-4.06-4.33" fill="currentColor"/></g></symbol><symbol viewBox="0 0 17 17" id="icon-filter"><title>Filters</title><g fill-rule="evenodd"><path d="M15.5 3.5H1.44M15.5 11.5H1.44"/><circle fill="#FFF" cx="10.5" cy="3.5" r="2.5"/><circle fill="#FFF" cx="6.5" cy="11.5" r="2.5"/></g></symbol><symbol viewBox="0 0 26 26" id="icon-globe"><title>Slice 1 Copy 4</title><path d="M25 13c0-6.63-5.37-12-12-12S1 6.37 1 13s5.37 12 12 12 12-5.37 12-12zm-6.56.54c-.1 1.44-.52 2.88-1.27 4.3-1.3-.26-2.5-.4-3.6-.42v-3.88h4.87zm-4.88-1.1v-3.9c1.13-.02 2.37-.16 3.68-.44.64 1.26 1.13 2.7 1.2 4.3v.03h-4.88zm3.02 6.43c-.77 1.2-1.78 2.4-3.02 3.6v-3.94c.95.03 1.96.13 3.02.34zm1.15.25c.77.2 1.57.45 2.4.77-1.4 1.43-3.22 2.44-5.25 2.83 1.16-1.18 2.1-2.4 2.85-3.6zM13.56 3.5c.7.6 2 1.86 3.1 3.6-1.1.2-2.14.3-3.1.34V3.5zm6.54 2.6c-.78.3-1.54.53-2.28.72-.9-1.53-2-2.73-2.83-3.53 1.97.4 3.74 1.4 5.1 2.8zm.77.88c1.17 1.53 1.9 3.4 2.03 5.45h-3.33v-.1c-.1-1.67-.57-3.18-1.2-4.5.8-.22 1.64-.5 2.5-.85zm2.03 6.56c-.1 2.05-.85 3.93-2 5.46-.9-.37-1.77-.66-2.62-.88.76-1.5 1.18-3.04 1.28-4.58h3.34zM5.12 19c-1.17-1.53-1.9-3.4-2.02-5.46h3.34c.1 1.53.52 3.05 1.27 4.55-1.4.37-2.32.78-2.58.9zm3.14.1c.74 1.23 1.7 2.44 2.9 3.64-2.06-.4-3.9-1.4-5.28-2.85.42-.2 1.24-.52 2.38-.8zM3.1 12.43c.12-2.05.86-3.93 2.04-5.46.27.13 1.15.53 2.5.9-.65 1.3-1.1 2.8-1.2 4.46v.1H3.1zM5.9 6.1c1.36-1.4 3.14-2.4 5.13-2.82-.84.8-1.94 2.02-2.86 3.58-1.07-.28-1.86-.6-2.27-.77zm6.54-2.6v3.95c-.93-.03-1.77-.1-2.5-.23l-.6-.1c1.08-1.73 2.38-3 3.1-3.6zm0 5.06v3.87h-4.9v-.03c.1-1.58.57-3.02 1.2-4.27.32.07.64.13.98.18.8.14 1.7.24 2.72.26zm0 4.98v3.87c-1.02.04-1.93.13-2.72.26l-.9.16c-.74-1.42-1.16-2.85-1.26-4.28h4.88zm0 5v3.92c-1.24-1.2-2.25-2.4-3.02-3.6.9-.18 1.9-.3 3.02-.33z" fill-rule="evenodd"/></symbol><symbol viewBox="0 0 24 24" id="icon-half-star"><title>Half-star Icon</title><path d="M0 0h24v24H0z"/><path fill="#EFEFEF" d="M12 0l2.83 9.17H24l-7.42 5.66L19.42 24 12 18.34 4.58 24l2.84-9.17L0 9.17h9.17L12 0z"/><path fill="currentColor" d="M12 0v18.34L4.58 24l2.84-9.17L0 9.17h9.17L12 0z"/></symbol><symbol viewBox="0 0 124 124" id="icon-hand-up"><title>hand_up</title><g fill-rule="evenodd"><path d="M62 6.3C31.32 6.3 6.36 31.08 6.36 61.5c0 30.45 24.96 55.2 55.64 55.2s55.64-24.75 55.64-55.2c0-30.43-24.96-55.2-55.64-55.2zm0 116.72c-34.2 0-62-27.6-62-61.5C0 27.6 27.8 0 62 0c34.18 0 62 27.58 62 61.5 0 33.9-27.82 61.5-62 61.5z"/><path d="M94.76 65.73c-2.05-2.1-5.05-2.07-7.06.07-2.52 2.7-5.02 6.58-7.54 9.28-.22.24-.48.44-.87.8v-1.5c0-13.45 0-28.1-.03-41.54 0-.7-.07-1.45-.34-2.07-.86-1.96-2.96-2.9-5.15-2.42-2.1.46-3.38 2.05-3.38 4.27v27.22h-2.78v-1.4c0-11.5 0-23-.02-34.5 0-.76-.15-1.6-.5-2.27-.95-1.87-3.04-2.65-5.2-2.1-2 .53-3.17 2.1-3.17 4.3v35.98h-2.2V58.4c0-9.72-.07-19.44.02-29.16.03-2.34-1.7-4.6-4.53-4.58-2.62.03-4.4 1.88-4.4 4.57v30.64h-1.86v-1.44c0-6.94.02-13.88 0-20.82-.02-.72-.13-1.52-.44-2.16-.96-1.96-3.1-2.78-5.36-2.2-1.83.46-3.08 2.2-3.08 4.28 0 15.3-.04 30.62.04 45.93 0 3.4.23 4.12.75 7.47 1.18 7.68 5.54 12.5 13.06 13.95.7.14 1.42.25 2.13.34V83.44h-8.03l14.1-13.48 14.1 13.48h-8.02v21.5C71.36 103.7 75.85 100.2 80 94.4c3.83-5.22 7.1-9.4 10.65-15.44 1.56-2.67 3.14-5.33 4.68-8 1.16-2 .96-3.7-.54-5.2" fill="currentColor"/></g></symbol><symbol viewBox="0 0 26 17" id="icon-handshake"><title>Slice 1 Copy 3</title><g fill-rule="evenodd"><path d="M7.06 8.54l-.02-.02c-.2-.18-.44-.28-.7-.28-.28 0-.53.1-.72.3l-1.67 1.7c-.38.4-.38 1.03.02 1.4l.02.03c.17.18.42.28.7.28.26 0 .52-.1.7-.3l1.67-1.7c.4-.38.38-1.02 0-1.4zM8.96 10.06c-.2-.2-.45-.3-.72-.3-.27 0-.53.1-.72.3l-1.66 1.7c-.4.4-.38 1.03 0 1.42h.03c.18.2.43.3.7.3.27 0 .53-.1.72-.3l1.66-1.7c.4-.4.38-1.03-.02-1.42zM11.25 11.2h-.02c-.2-.2-.44-.3-.7-.3-.28 0-.53.1-.72.3l-1.66 1.7c-.38.4-.38 1.03.02 1.42l.02.02c.2.18.44.28.7.28.28 0 .53-.1.72-.3l1.67-1.7c.38-.4.38-1.02-.02-1.4zM13.15 12.73v-.02c-.2-.17-.45-.27-.72-.27-.27 0-.53.1-.72.3l-1.65 1.7c-.4.4-.38 1.03.02 1.4v.03c.2.18.45.3.72.3.26 0 .52-.12.7-.32l1.67-1.7c.4-.38.38-1.02-.02-1.4z"/><path d="M15 5.35c-1.75 1.67-3.12 2.3-3.18 2.32-.27.08-.58.13-.9.13-.43 0-.78-.07-.95-.13-.34-.12-.92-.68-1.17-1.13-.26-.47-.03-1.18-.02-1.2V5.3l3.87-3.64c-.18-.2-.55-.28-1.1-.28-1.47 0-3.7.72-3.83.76-.17.07-.4.1-.73.1-.57 0-1.18-.1-1.27-.13-.33 0-1.2-.5-1.33-.6-.14-.04-.28-.06-.4-.06-.33 0-.48.18-.5.22L1.6 5.9C1.04 7 1 7.34 1 7.43c1.02.24 2.38 1.7 2.72 2.1l1.94-1.9h.03c.16-.04.3-.06.46-.06 1.2 0 1.53 1.1 1.6 1.45h.3c1.4 0 1.7 1.13 1.76 1.5.2-.03.38-.05.55-.05 1.3 0 1.6 1.1 1.66 1.46.68-.1 1.2.05 1.56.44.55.6.46 1.6.46 1.65v.03l-1.93 1.95c.27.14.52.2.76.2.94 0 1.36-1.16 1.36-1.17l.03-.08.08.02c.16.03.3.04.45.04 1.3 0 1.35-1.2 1.35-1.26v-.14l.14.04c.26.06.5.1.72.1 1.33 0 1.47-1.26 1.47-1.32l.02-.1h.12c.2.05.38.06.55.06.44 0 .77-.13 1-.4.4-.5.25-1.32.24-1.37-.35-1.4-4.8-4.78-5.43-5.25z"/><path d="M22.5 1.85v-.02c-.1-.53-.42-.6-.6-.6h-.05c-1 .76-2.06.88-2.6.88h-.38c-.98-.1-2.2-.53-2.24-.54h-.02c-.74-.37-1.38-.56-1.9-.56-.5 0-.7.2-.7.2-2.23 2.38-4.3 3.95-4.53 4.13-.38.83.6 1.5.73 1.6.27.06.52.1.75.1.37 0 .55-.1.56-.1h.07c.58 0 2.66-1.75 3.42-2.42l.04-.04.07.03C17.63 5.7 20.8 9.4 21 9.62c.17.13.34.2.48.2.17 0 .26-.1.27-.1l2.58-2.15h.02c.3-.1.47-.26.55-.44.08-.2 0-.4 0-.4l-2.36-4.9z"/></g></symbol><symbol viewBox="0 0 124 123" id="icon-impact"><title>about_impact</title><g fill-rule="evenodd"><path d="M62 6.3C31.32 6.3 6.36 31.08 6.36 61.5c0 30.45 24.96 55.2 55.64 55.2s55.64-24.75 55.64-55.2c0-30.43-24.96-55.2-55.64-55.2zm0 116.72c-34.2 0-62-27.6-62-61.5C0 27.6 27.8 0 62 0c34.18 0 62 27.58 62 61.5 0 33.9-27.82 61.5-62 61.5z"/><path d="M62 20.82c-14.85 0-27.9 7.87-35.1 19.63 2.73-.73 4.85-.75 5.05-.75.4 0 9.44.08 14.47 6.8.27-.58.55-1.16.84-1.73 1.08.23 2.2.44 3.38.63 2.72.43 5.9.76 9.43.84v13.3H49.4c-.12 1.23-.34 2.5-.65 3.83h11.32V76.7c-3.54.06-6.7.4-9.43.82-1.1.17-2.13.37-3.12.57-.87-1.64-1.6-3.27-2.2-4.9-1.6 3.5-3.6 7.24-6.08 11.22 1.58-.58 3.7-1.3 6.34-1.95 2.56 4.23 5.9 8.4 10 12.52-6.68-1.26-12.66-4.43-17.37-8.92-.97 1.53-2 3.1-3.1 4.68l-.62.9C41.76 98.2 51.42 102.2 62 102.2c22.6 0 41.02-18.25 41.02-40.7 0-22.43-18.4-40.68-41.02-40.68zm-1.93 73.2c-4.3-4.1-7.8-8.23-10.5-12.4 3.1-.58 6.62-1 10.5-1.1v13.5zM45.25 40.4c-3.7-.95-6.43-2-7.87-2.62 4.74-4.83 10.9-8.28 17.8-9.66-2.92 2.76-6.75 6.94-9.93 12.28zm14.82 2.03c-3.24-.07-6.16-.37-8.67-.76-.73-.1-1.43-.24-2.12-.37 3.76-5.93 8.3-10.25 10.8-12.4v13.54zM96.3 59.56H84.75v-.34c-.32-5.75-1.95-10.94-4.17-15.46 2.82-.77 5.73-1.73 8.7-2.94 4.05 5.26 6.62 11.72 7.02 18.75zm-9.7-21.8c-2.7 1.02-5.34 1.86-7.9 2.52-3.15-5.28-6.93-9.42-9.8-12.16 6.85 1.4 12.98 4.84 17.7 9.63zM63.9 28.8c2.47 2.1 7 6.4 10.76 12.35-3.8.74-7.42 1.1-10.76 1.2V28.84zm0 17.4c3.94-.14 8.23-.6 12.77-1.55 2.23 4.3 3.9 9.28 4.2 14.76v.1H63.92V46.23zm0 17.14h16.94c-.34 4.96-1.8 9.9-4.42 14.82-4.45-.94-8.65-1.38-12.52-1.5V63.37zm0 30.73V80.53c3.3.1 6.8.45 10.48 1.15-2.68 4.17-6.17 8.32-10.48 12.42zm4.58.88c4.05-4.1 7.34-8.23 9.9-12.42 2.68.68 5.44 1.56 8.26 2.65-4.8 4.94-11.1 8.44-18.16 9.78zm20.83-12.84c-3.08-1.25-6.1-2.25-9.02-3.03 2.63-5.18 4.1-10.43 4.42-15.73h11.6c-.4 7.03-2.94 13.5-7 18.77z" fill="currentColor"/><path d="M44.28 50.2c-3.54-6.64-11.97-6.72-12.33-6.72-.36 0-8.8.08-12.33 6.73-4.03 7.6.23 20.88 12.33 38.43C44.05 71.08 48.3 57.8 44.28 50.2zM31.95 63.36c-3.88 0-7.03-3.12-7.03-6.97 0-3.85 3.15-6.97 7.03-6.97 3.88 0 7.03 3.13 7.03 6.98 0 3.85-3.15 6.97-7.03 6.97z" fill="currentColor"/></g></symbol><symbol viewBox="0 0 28 28" id="icon-info"><title>Info icon</title><path d="M14 0C6.27 0 0 6.27 0 14s6.27 14 14 14 14-6.27 14-14S21.73 0 14 0zm-2.63 7.48c0 1.2.85 2.18 2.26 2.18 1.42 0 2.26-.97 2.26-2.18 0-1.34-.93-2.23-2.27-2.23-1.34 0-2.26.9-2.26 2.23zm.37 15.27h3.78v-10.5h-3.78v10.5z" fill-rule="evenodd"/></symbol><symbol viewBox="0 0 67 29" id="icon-large-chevron-mobile"><title>Large Chevron Mobile</title><path d="M1 1.03L33.52 27 66 1" fill-rule="evenodd"/></symbol><symbol viewBox="0 0 102 43" id="icon-large-chevron"><title>Large Chevron</title><path d="M1 1.04L51.03 41 101 1" fill-rule="evenodd"/></symbol><symbol viewBox="0 0 50 50" id="icon-leaf"><title>Fill 4 Copy</title><path d="M50 18.75V0H31.25S0 0 0 31.25v12.5s11.36-1.57 29.82-21.45c0 0-8.97 21.3-29.82 27.7h18.75S50 50 50 18.75" fill-rule="evenodd"/></symbol><symbol viewBox="0 0 85 73" id="icon-leaves"><title>about_leaves</title><g fill-rule="evenodd"><path d="M45.42 29.43V18.4S45.42 0 64.1 0h11.2v11.04s0 18.4-18.68 18.4h-7.47M39.4 72.77V58.22s0-24.26-24.62-24.26H0v14.56s0 24.25 24.63 24.25h9.85M84.83 48.52V33.96H70.05s-24.63 0-24.63 24.26v9.7s8.95-1.22 23.5-16.65c0 0-7.07 16.53-23.5 21.5H60.2s24.63 0 24.63-24.25M9.54 11.04V0h11.2S39.4 0 39.4 18.4v7.35s-6.78-.92-17.8-12.62c0 0 5.35 12.53 17.8 16.3H28.2s-18.66 0-18.66-18.4"/></g></symbol><symbol viewBox="0 0 62 62" id="icon-lend"><title>2lend</title><g fill-rule="evenodd"><circle cx="31" cy="31" r="29"/><path d="M31.94 12.7c-6 0-10.88 4.87-10.88 10.88 0 2.55.88 4.9 2.35 6.76h7.56v-.6c-1.2-.23-2.3-.82-3.24-1.7l1.52-1.58c.7.76 1.74 1.33 2.84 1.33 1.03 0 1.76-.65 1.76-1.53 0-1.55-2.24-1.74-3.86-2.68-.95-.57-1.7-1.4-1.7-2.75 0-1.67 1.2-2.8 2.68-3.22v-1.98h2.07v1.86c.93.1 1.82.44 2.72 1.1l-1.2 1.7c-.5-.44-1.3-.78-2.1-.78-.87 0-1.85.38-1.85 1.3 0 1.96 5.56 1.35 5.56 5.42 0 1.82-1.4 3.16-3.13 3.5v.6h1.83s2.63.02 3.84 1.77c2.5-2 4.13-5.07 4.13-8.52 0-6-4.88-10.9-10.9-10.9z" fill="currentColor"/><path d="M31.03.63C14.3.63.7 14.22.7 30.96.7 47.7 14.3 61.3 31.02 61.3c16.73 0 30.34-13.6 30.34-30.33C61.37 14.24 47.77.63 31.03.63zm0 57.68c-7.3 0-13.93-2.87-18.84-7.54l4.5-4.53c.55-.57 1.1-.78 1.9-.77 3.35.04 6.7.02 10.06.02h10.47c1 0 1.85-.3 2.55-1.05 1.02-1.08 2.1-2.1 3.14-3.15l6.9-6.9c.8-.8 1.2-1.67.75-2.77-.68-1.64-2.63-2-3.97-.66-2.56 2.52-5.07 5.08-7.64 7.58-.33.33-.9.56-1.35.57-2.6.05-5.2.02-7.8.02-1.3 0-2.63.04-3.94-.04-.3-.02-.55-.46-.82-.7.27-.23.5-.5.8-.64.26-.1.6-.02.9-.02 2.12 0 4.27.04 6.4-.05 1.45-.05 2.38-1.1 2.33-2.4-.04-1.32-1.03-2.25-2.5-2.26-6.1 0-12.18-.02-18.27.04-.62 0-1.4.32-1.83.76-2.9 2.82-5.76 5.67-8.6 8.56C4.6 38.9 3.7 35.03 3.7 30.96 3.7 15.9 15.94 3.64 31.02 3.64c15.08 0 27.34 12.26 27.34 27.34 0 15.07-12.26 27.34-27.34 27.34z" fill="currentColor"/></g></symbol><symbol viewBox="0 0 124 124" id="icon-lifting"><title>lifting</title><g fill-rule="evenodd"><path d="M62 6.3C31.32 6.3 6.36 31.08 6.36 61.5c0 30.45 24.96 55.2 55.64 55.2s55.64-24.75 55.64-55.2c0-30.43-24.96-55.2-55.64-55.2zm0 116.72c-34.2 0-62-27.6-62-61.5C0 27.6 27.8 0 62 0c34.18 0 62 27.58 62 61.5 0 33.9-27.82 61.5-62 61.5z"/><path d="M33.53 90.47c-.82-.82-2.14-.8-2.96 0-.82.82-.82 2.15 0 2.96.8.82 2.14.82 2.96 0 .8-.82.82-2.14 0-2.96M66.8 66.82c2.68-2.67 2.7-7 .03-9.65-2.66-2.66-6.98-2.65-9.65.02-2.67 2.65-2.67 6.97 0 9.63 2.65 2.66 6.97 2.66 9.63 0M53.9 53.9c2.38-2.38 2.38-6.24 0-8.62-2.37-2.37-6.23-2.37-8.6.02-2.4 2.38-2.4 6.24-.02 8.6 2.37 2.4 6.23 2.4 8.62 0M50.9 65c-.86-3.26-4.2-5.18-7.45-4.3-3.25.87-5.18 4.2-4.32 7.46.87 3.25 4.2 5.17 7.46 4.3 3.24-.88 5.18-4.22 4.3-7.47M59 73.1c-3.24-.88-6.58 1.06-7.46 4.3-.87 3.26 1.05 6.6 4.3 7.47 3.25.86 6.6-1.07 7.47-4.32.88-3.25-1.04-6.6-4.3-7.46M70.1 70.1c-2.38 2.4-2.4 6.25 0 8.62 2.36 2.38 6.22 2.37 8.6 0 2.4-2.4 2.4-6.25.02-8.63-2.38-2.38-6.24-2.38-8.62 0M73.08 59.02c.87 3.25 4.2 5.17 7.46 4.3 3.25-.88 5.2-4.22 4.32-7.47-.87-3.25-4.2-5.18-7.46-4.3-3.25.87-5.18 4.22-4.32 7.47M64.98 50.92c3.25.86 6.6-1.07 7.47-4.32.88-3.26-1.05-6.6-4.3-7.46-3.25-.87-6.6 1.07-7.47 4.32-.87 3.25 1.05 6.6 4.3 7.46M38.85 55.83c.68-2.5-.8-5.06-3.3-5.73-2.5-.66-5.07.82-5.74 3.32-.66 2.5.82 5.07 3.3 5.73 2.5.67 5.08-.82 5.75-3.32M68.17 85.15c-2.5.67-4 3.24-3.32 5.74.66 2.48 3.23 3.96 5.73 3.3 2.5-.68 3.98-3.25 3.32-5.75-.67-2.5-3.23-3.98-5.73-3.3M85.14 68.17c-.67 2.5.8 5.07 3.3 5.73 2.5.67 5.07-.82 5.74-3.32.68-2.5-.8-5.06-3.3-5.73-2.5-.66-5.07.82-5.74 3.32M78.97 45.03c1.83 1.82 4.8 1.82 6.62 0 1.82-1.84 1.83-4.8 0-6.63-1.82-1.83-4.8-1.82-6.62 0-1.83 1.84-1.83 4.8 0 6.63M55.83 38.86c2.5-.67 3.98-3.24 3.32-5.74-.67-2.5-3.23-3.98-5.73-3.3-2.5.67-4 3.24-3.32 5.74.66 2.5 3.23 3.97 5.73 3.3M45.02 78.98c-1.82-1.83-4.8-1.82-6.62 0-1.83 1.84-1.83 4.8 0 6.63 1.82 1.83 4.78 1.83 6.6 0 1.84-1.83 1.85-4.8.02-6.62M30.28 43.72c.84-1.44.33-3.28-1.13-4.12-1.45-.84-3.3-.35-4.14 1.1-.82 1.43-.32 3.27 1.14 4.1 1.45.85 3.3.36 4.14-1.08M25.34 62.05c0-1.66-1.36-3-3.04-3s-3.05 1.35-3.05 3c0 1.67 1.36 3.02 3.04 3.02 1.67 0 3.04-1.35 3.04-3.02M30.22 80.37c-.83-1.43-2.68-1.92-4.14-1.07-1.46.84-1.97 2.7-1.14 4.13.83 1.43 2.68 1.92 4.14 1.07 1.46-.84 1.97-2.7 1.14-4.13M43.6 93.77c-1.42-.83-3.27-.32-4.12 1.14-.84 1.47-.36 3.32 1.08 4.15 1.44.83 3.3.32 4.13-1.14.83-1.45.35-3.3-1.1-4.13M61.93 98.66c-1.66 0-3 1.37-3 3.05-.02 1.7 1.33 3.05 3 3.05 1.65 0 3-1.37 3-3.05 0-1.68-1.34-3.04-3-3.04M80.26 93.73c-1.44.83-1.93 2.68-1.1 4.14.85 1.46 2.7 1.96 4.14 1.13 1.44-.84 1.93-2.7 1.1-4.15-.85-1.45-2.7-1.96-4.14-1.12M93.7 80.3c-.83 1.44-.33 3.28 1.13 4.12 1.45.84 3.3.35 4.14-1.1.83-1.43.33-3.27-1.13-4.1-1.45-.85-3.3-.36-4.14 1.08M98.64 61.96c0 1.67 1.36 3 3.04 3s3.05-1.34 3.05-3-1.36-3-3.04-3c-1.7 0-3.06 1.34-3.06 3M93.76 43.65c.83 1.43 2.68 1.92 4.14 1.07 1.46-.84 1.97-2.7 1.14-4.13-.83-1.45-2.68-1.93-4.14-1.08-1.46.84-1.97 2.7-1.14 4.13M80.37 30.25c1.44.83 3.3.32 4.13-1.14.84-1.45.36-3.3-1.08-4.13-1.43-.83-3.28-.32-4.13 1.14-.85 1.46-.37 3.32 1.07 4.15M62.05 25.36c1.66 0 3-1.37 3.02-3.05 0-1.67-1.35-3.03-3-3.03-1.67 0-3.02 1.37-3.02 3.05 0 1.68 1.34 3.04 3 3.04M43.72 30.3c1.44-.84 1.93-2.7 1.1-4.15-.85-1.46-2.7-1.96-4.14-1.13-1.44.83-1.93 2.7-1.1 4.14.85 1.46 2.7 1.97 4.14 1.13M33.6 33.62c.83-.82.83-2.14.02-2.96-.82-.82-2.14-.8-2.96 0-.82.82-.82 2.15 0 2.96.8.82 2.13.82 2.95 0M23.18 51.66c.3-1.12-.36-2.27-1.47-2.57-1.1-.3-2.26.36-2.56 1.48-.3 1.1.36 2.26 1.48 2.56 1.1.3 2.26-.37 2.56-1.48M23.15 72.46c-.3-1.1-1.44-1.77-2.56-1.47-1.13.3-1.8 1.44-1.5 2.55.3 1.12 1.45 1.78 2.57 1.48 1.1-.3 1.78-1.45 1.48-2.57M51.54 100.85c-1.12-.3-2.27.37-2.57 1.48-.3 1.12.36 2.27 1.48 2.56 1.1.3 2.26-.37 2.56-1.5.3-1.1-.35-2.25-1.46-2.55M72.35 100.82c-1.12.3-1.8 1.45-1.5 2.56.3 1.12 1.46 1.78 2.57 1.48 1.12-.3 1.78-1.45 1.5-2.57-.3-1.12-1.46-1.78-2.57-1.48M90.38 90.4c-.82.8-.82 2.13 0 2.95.8.8 2.14.8 2.96 0 .8-.83.82-2.15 0-2.97-.82-.8-2.14-.8-2.96 0M100.8 72.35c-.3 1.12.37 2.26 1.5 2.56 1.1.3 2.25-.36 2.55-1.47.3-1.12-.36-2.26-1.47-2.56-1.12-.3-2.27.36-2.57 1.48M100.84 51.54c.3 1.12 1.45 1.78 2.56 1.48 1.12-.3 1.78-1.45 1.5-2.57-.3-1.1-1.46-1.77-2.57-1.47-1.12.3-1.8 1.45-1.5 2.56M90.46 33.54c.82.8 2.15.8 2.96 0 .82-.83.82-2.15 0-2.97-.8-.8-2.13-.8-2.95 0-.82.82-.82 2.15 0 2.97M72.46 23.16c1.1.3 2.26-.37 2.56-1.5.3-1.1-.36-2.25-1.47-2.55-1.12-.28-2.27.38-2.57 1.5-.3 1.1.36 2.26 1.48 2.56M51.65 23.2c1.12-.3 1.78-1.46 1.48-2.58-.3-1.1-1.44-1.77-2.56-1.47-1.1.3-1.78 1.45-1.48 2.56.3 1.13 1.43 1.8 2.55 1.5M42.18 42.2c1.46-1.47 1.46-3.83 0-5.3-1.44-1.44-3.8-1.44-5.26.02s-1.47 3.82 0 5.28c1.44 1.45 3.8 1.45 5.26 0M34.93 69.26c-.53-2-2.58-3.18-4.56-2.65-2 .54-3.17 2.6-2.63 4.58.53 2 2.57 3.18 4.56 2.65 2-.54 3.16-2.58 2.63-4.57M54.74 89.07c-2-.53-4.03.64-4.57 2.63-.53 2 .65 4.03 2.65 4.56 2 .54 4.04-.64 4.57-2.63.52-1.98-.66-4.03-2.66-4.56M81.8 81.82c-1.45 1.46-1.45 3.82 0 5.27 1.46 1.45 3.82 1.44 5.28-.02 1.46-1.45 1.46-3.82 0-5.27-1.45-1.44-3.8-1.44-5.27.02M89.06 54.75c.54 2 2.58 3.18 4.57 2.64 1.98-.54 3.16-2.6 2.63-4.58-.54-2-2.58-3.17-4.57-2.64-2 .53-3.17 2.58-2.64 4.57M69.25 34.94c2 .53 4.04-.65 4.57-2.63.53-1.98-.65-4.02-2.64-4.56-2-.53-4.04.65-4.57 2.63-.53 2 .66 4.03 2.65 4.57" fill="currentColor"/></g></symbol><symbol viewBox="0 0 46 46" id="icon-linkedIn"><title>LinkedIn</title><g transform="translate(0 1)" fill-rule="evenodd"><circle stroke="currentColor" cx="22.97" cy="22.33" r="22"/><path d="M34.23 30.27v-15.9c0-2.22-1.7-4.04-3.8-4.04h-14.9c-2.12 0-3.82 1.82-3.82 4.05v15.9c0 2.23 1.7 4.05 3.82 4.05h14.9c2.1 0 3.8-1.82 3.8-4.06zM14.95 19.54h3.44V30.6h-3.45V19.54zm3.7-3.5c0 1.1-.88 1.98-1.98 1.98s-2-.9-2-2 .9-1.98 2-1.98 2 .9 2 2zM31.28 30.6h-3.44v-5.38c0-1.28-.02-2.93-1.8-2.93S24 23.67 24 25.12v5.47h-3.43V19.54h3.3v1.5h.04c.45-.86 1.57-1.78 3.24-1.78 3.48 0 4.13 2.3 4.13 5.27v6.07z" fill="currentColor"/></g></symbol><symbol viewBox="0 0 22 22" id="icon-magnify-glass"><title>Magnify Glass</title><path d="M8 16.3c1.45 1 3.16 1.5 4.95 1.5 2.38 0 4.62-.92 6.3-2.6 1.7-1.7 2.62-3.93 2.62-6.3 0-2.4-.93-4.63-2.6-6.3-1.7-1.7-3.94-2.62-6.32-2.62-2.38 0-4.62.93-6.3 2.6-1.7 1.7-2.6 3.93-2.6 6.3 0 1.82.52 3.55 1.52 5l-5.4 5.4c-.24.26-.2.73.13 1.05l1.26 1.26c.33.3.8.36 1.04.1L8 16.3zM6.45 8.9c0-3.6 2.92-6.5 6.5-6.5 3.6 0 6.5 2.9 6.5 6.5 0 3.58-2.9 6.5-6.5 6.5-3.58 0-6.5-2.92-6.5-6.5z" fill-rule="evenodd"/></symbol><symbol viewBox="0 0 26 26" id="icon-match"><title>Slice 1 Copy 2</title><g fill-rule="evenodd"><path d="M13.04 1.7l2.94 2.7 4.06-.55.7 3.82 3.63 1.82-1.8 3.48 1.8 3.5-3.62 1.8-.7 3.83-4.07-.53-2.94 2.7-2.95-2.7-4.07.54-.7-3.8-3.63-1.83 1.8-3.5L1.7 9.5l3.62-1.83.7-3.82 4.07.54 2.94-2.7"/><path d="M13.04 1.7l2.94 2.7 4.06-.55.7 3.82 3.63 1.82-1.8 3.48 1.8 3.5-3.62 1.8-.7 3.83-4.07-.53-2.94 2.7-2.95-2.7-4.07.54-.7-3.8-3.63-1.83 1.8-3.5L1.7 9.5l3.62-1.83.7-3.82 4.07.54 2.94-2.7z" stroke="currentColor" stroke-width=".97"/><path d="M13.04 3.38l2.5 2.3L19 5.2l.6 3.27L22.66 10 21.14 13l1.53 2.96-3.08 1.55-.6 3.24-3.46-.46-2.5 2.3-2.5-2.3-3.46.46-.6-3.25-3.08-1.56 1.53-2.96L3.4 10l3.08-1.53.6-3.26 3.45.48 2.5-2.3" fill="currentColor"/><text font-family="PostGrotesk" font-size="14.9" font-weight="420"><tspan x="10.57" y="17.97">2</tspan></text><text font-family="PostGrotesk" font-size="8.65" font-weight="420"><tspan x="6.01" y="15">x</tspan></text></g></symbol><symbol viewBox="0 0 52 23" id="icon-medium-chevron"><title>Medium Chevron</title><path d="M1 1.02L26 21 51 1" fill-rule="evenodd"/></symbol><symbol viewBox="0 0 36 60" id="icon-nearme"><title>icon-nearme</title><path d="M18 0s-40.5 0 0 59.35C58.5 0 18 0 18 0zm9.14 16.97c0 5.06-4.1 9.16-9.14 9.16-5.05 0-9.14-4.1-9.14-9.16 0-5.06 4.1-9.17 9.14-9.17 5.05 0 9.14 4.1 9.14 9.17z" fill-rule="evenodd"/></symbol><symbol viewBox="0 0 46 46" id="icon-pinterest"><title>Pinterest</title><g fill-rule="evenodd"><circle stroke="currentColor" cx="22.82" cy="22.86" r="22"/><path d="M22.82 10.86c-6.63 0-12 5.38-12 12 0 4.92 2.95 9.14 7.18 11-.03-.84 0-1.85.2-2.76l1.56-6.54s-.4-.77-.4-1.9c0-1.78 1.04-3.1 2.33-3.1 1.08 0 1.6.82 1.6 1.8 0 1.1-.7 2.74-1.05 4.26-.3 1.27.63 2.3 1.9 2.3 2.26 0 3.8-2.9 3.8-6.37 0-2.63-1.78-4.6-5-4.6-3.64 0-5.9 2.7-5.9 5.75 0 1.04.3 1.78.8 2.35.2.26.24.37.16.67l-.24.96c-.08.3-.32.4-.6.3-1.67-.68-2.46-2.52-2.46-4.58 0-3.4 2.88-7.5 8.58-7.5 4.58 0 7.6 3.32 7.6 6.87 0 4.7-2.62 8.23-6.48 8.23-1.3 0-2.5-.7-2.93-1.5l-.84 3.3c-.26.93-.76 1.85-1.2 2.57 1.07.32 2.2.5 3.4.5 6.62 0 12-5.38 12-12 0-6.63-5.38-12-12-12" fill="currentColor"/></g></symbol><symbol viewBox="0 0 28 28" id="icon-question"><title>Question icon</title><path d="M14 0C6.27 0 0 6.27 0 14s6.27 14 14 14 14-6.27 14-14S21.73 0 14 0zm1.75 16.7v-.66c0-1.22 1.5-1.82 2.64-2.95.74-.76 1.36-1.7 1.36-3.16 0-2.42-1.8-4.94-5.66-4.94-3.72 0-5.57 2.35-6.1 5.35l3.46.58c.16-1.54.9-3.17 2.64-3.17 1.3 0 2.1.94 2.1 2.06 0 1.18-.83 1.78-1.53 2.28-1.2.87-2.42 2.02-2.42 3.77v.82h3.5zm-3.77 4.6c0 1.16.84 2.08 2.07 2.08 1.22 0 2.06-.92 2.06-2.07 0-1.2-.83-2.03-2.05-2.03-1.23 0-2.07.82-2.07 2.04z" fill-rule="evenodd"/></symbol><symbol viewBox="0 0 124 124" id="icon-recycle"><title>recycle</title><g fill-rule="evenodd"><path d="M62 6.3C31.32 6.3 6.36 31.08 6.36 61.5c0 30.45 24.96 55.2 55.64 55.2s55.64-24.75 55.64-55.2c0-30.43-24.96-55.2-55.64-55.2zm0 116.72c-34.2 0-62-27.6-62-61.5C0 27.6 27.8 0 62 0c34.18 0 62 27.58 62 61.5 0 33.9-27.82 61.5-62 61.5z"/><path d="M48.6 75.46c3 2.8 6.5 4.65 10.28 5.37v6.12h6.56v-6.07c5.53-1.1 9.96-5.36 9.96-11.16 0-12.92-17.68-11-17.68-17.18 0-2.96 3.13-4.16 5.92-4.16 2.5 0 5.1 1.1 6.62 2.5l3.83-5.46c-2.85-2.08-5.7-3.12-8.66-3.45v-5.9h-6.56v6.3c-4.7 1.3-8.54 4.9-8.54 10.22 0 4.3 2.4 6.94 5.42 8.7 5.14 3 12.26 3.6 12.26 8.53 0 2.8-2.3 4.8-5.6 4.8-3.5 0-6.83-1.8-9.02-4.2l-4.8 5.03" fill="currentColor"/><path d="M62.18 102.8h.05c1.07 0 2.1-.13 3.17-.22.67-.05 1.35-.05 2-.14 12.05-1.58 22.36-8.46 28.72-18.17l4.28 3.08-1.7-14.48-14.28 2.98 4.16 3c-.1.17-.2.35-.32.52-.45.68-.93 1.33-1.42 1.98-.32.4-.65.8-1 1.2-.53.64-1.1 1.25-1.68 1.84l-1.06 1c-.64.57-1.3 1.14-1.97 1.66-.36.28-.73.54-1.1.8-.73.52-1.47 1.02-2.25 1.47l-1.12.6c-.8.44-1.63.86-2.48 1.22-.4.16-.8.3-1.2.44-.87.32-1.73.64-2.62.9-.5.12-1 .2-1.48.3-.84.2-1.68.4-2.55.53-.96.13-1.96.18-2.95.22-.42.02-.82.08-1.24.1l-.3-.03c-1.8 0-3.53-.22-5.24-.5-.63-.12-1.25-.25-1.87-.4-1.26-.3-2.47-.68-3.66-1.1-.86-.33-1.7-.67-2.5-1.05-1.1-.52-2.16-1.08-3.2-1.7-.76-.5-1.5-1.03-2.25-1.57-.6-.45-1.17-.94-1.73-1.43-1.55-1.33-2.96-2.8-4.22-4.4-.18-.23-.4-.44-.58-.7-.67-.9-1.28-1.88-1.85-2.87-2.73-4.65-4.42-9.98-4.44-15.76l-9.16.04c.08 18.68 12.7 34.33 29.85 39.1l.34.1c1.52.4 3.07.7 4.65.95l.93.14c1.7.2 3.43.35 5.2.34h.05m31.5-40.94l9.18-.04c-.1-18.67-12.7-34.32-29.85-39.1-.1-.03-.23-.05-.34-.1-1.52-.4-3.08-.7-4.66-.94l-.93-.14c-1.7-.2-3.44-.35-5.2-.34h-.11c-14.23.06-26.65 7.45-33.9 18.52l-4.26-3.06 1.7 14.48 14.27-2.98-4.2-3.03c.32-.5.6-1.02.95-1.5l.3-.42c.72-.95 1.5-1.87 2.3-2.75.16-.17.32-.34.5-.5.8-.83 1.64-1.6 2.53-2.35l.66-.5c.9-.7 1.8-1.35 2.75-1.95.28-.17.57-.32.85-.5.93-.53 1.9-1.04 2.88-1.5l1.1-.43c.96-.4 1.92-.76 2.92-1.05.5-.15 1.03-.24 1.54-.36.9-.2 1.8-.44 2.73-.58 1.07-.16 2.18-.22 3.28-.26.4-.02.8-.1 1.2-.1l.3.03c1.8 0 3.53.2 5.24.5.62.1 1.25.23 1.87.38 1.25.3 2.46.68 3.65 1.12.86.32 1.7.66 2.52 1.05 1.1.5 2.15 1.07 3.17 1.7.8.48 1.54 1 2.27 1.56.6.46 1.17.94 1.74 1.43 1.54 1.33 2.95 2.78 4.2 4.38l.6.72c.67.92 1.27 1.9 1.85 2.88 2.72 4.65 4.4 10 4.44 15.76" fill="currentColor"/></g></symbol><symbol viewBox="0 0 62 60" id="icon-repaid"><title>icon-repaid</title><g fill-rule="evenodd"><path d="M30.8 58.4c15.86 0 28.76-12.7 28.76-28.3 0-15.58-12.9-28.27-28.77-28.27S2 14.53 2 30.1c0 15.6 12.9 28.3 28.77 28.3"/><path d="M30.8 58.4c15.86 0 28.76-12.7 28.76-28.3 0-15.58-12.9-28.27-28.77-28.27S2 14.53 2 30.1c0 15.6 12.9 28.3 28.77 28.3z" stroke="currentColor" stroke-width="3"/><path d="M42.48 46.02V19.1s0-3.37-3.43-3.37h-.1L35.8 19.1h3.25v23.55H22.27V19.1h3.27l-3.16-3.37h-.1s-3.43 0-3.43 3.36V46s0 3.36 3.42 3.36h16.78s3.43 0 3.43-3.36zm-10.62 0c0 .74-.6 1.34-1.37 1.34-.76 0-1.38-.6-1.38-1.34 0-.75.62-1.35 1.37-1.35.75 0 1.36.6 1.36 1.35z" fill="currentColor"/><path d="M34.6 10.82V1.18h-7.9v9.64h-5.2l9.16 9.8 9.18-9.8H34.6" fill="currentColor"/></g></symbol><symbol viewBox="0 0 62 62" id="icon-repeat"><title>icon-repeat</title><g fill-rule="evenodd"><path d="M30.86 59.9c15.9 0 28.84-12.93 28.84-28.83 0-15.9-12.93-28.84-28.84-28.84-15.9 0-28.84 12.94-28.84 28.84S14.96 59.9 30.86 59.9"/><path d="M30.86 59.9c15.9 0 28.84-12.93 28.84-28.83 0-15.9-12.93-28.84-28.84-28.84-15.9 0-28.84 12.94-28.84 28.84S14.96 59.9 30.86 59.9z" stroke="currentColor" stroke-width="3"/><path d="M24.3 37.67c1.46 1.37 3.18 2.28 5.03 2.63v3h3.22v-2.97c2.7-.54 4.88-2.63 4.88-5.48 0-6.33-8.66-5.4-8.66-8.42 0-1.45 1.53-2.04 2.9-2.04 1.23 0 2.5.52 3.24 1.22l1.9-2.68c-1.4-1.02-2.8-1.53-4.25-1.7v-2.9h-3.22v3.1c-2.3.64-4.18 2.4-4.18 5 0 2.13 1.18 3.42 2.65 4.28 2.52 1.48 6 1.77 6 4.2 0 1.35-1.12 2.35-2.72 2.35-1.72 0-3.36-.9-4.43-2.07l-2.36 2.47" fill="currentColor"/><path d="M30.95 51.08h.02c.53 0 1.04-.07 1.56-.1.33-.04.66-.04.98-.08 5.92-.78 10.98-4.15 14.1-8.9l2.1 1.5-.84-7.1-7 1.46 2.04 1.47-.16.26c-.22.32-.45.64-.7.95-.15.2-.3.4-.48.6l-.83.9-.52.5c-.3.27-.62.55-.96.8-.17.14-.36.27-.54.4-.36.25-.72.5-1.1.72l-.55.3-1.2.6-.6.2c-.43.17-.85.33-1.3.45l-.7.16c-.43.1-.84.2-1.26.25-.5.07-.97.1-1.46.1-.2.02-.4.05-.6.05h-.16c-.87 0-1.73-.1-2.56-.26-.3-.05-.62-.1-.92-.2-.62-.13-1.22-.32-1.8-.53-.42-.17-.83-.34-1.23-.52-.53-.26-1.05-.53-1.56-.84-.37-.24-.73-.5-1.1-.77-.3-.22-.57-.46-.84-.7-.76-.65-1.45-1.36-2.07-2.15l-.3-.34c-.32-.45-.62-.93-.9-1.4-1.34-2.3-2.17-4.9-2.18-7.74l-4.5.02c.05 9.15 6.24 16.83 14.64 19.17l.17.04c.75.2 1.5.36 2.3.47l.44.07c.84.1 1.7.18 2.55.18h.03zM46.4 31l4.5-.02c-.04-9.16-6.23-16.83-14.64-19.17-.06 0-.12-.02-.17-.04-.76-.2-1.52-.35-2.3-.46l-.45-.07c-.84-.1-1.7-.18-2.55-.17h-.03-.02c-6.98.03-13.07 3.65-16.63 9.08l-2.1-1.5.85 7.1 7-1.46-2.07-1.48c.16-.25.3-.5.47-.74l.15-.2c.35-.48.73-.93 1.13-1.36l.23-.25c.4-.4.8-.8 1.25-1.15l.32-.25c.43-.34.88-.66 1.35-.95l.4-.24c.47-.26.94-.52 1.43-.74l.54-.2c.47-.2.94-.38 1.43-.53.25-.08.5-.12.75-.18.45-.1.9-.22 1.34-.3.52-.07 1.06-.1 1.6-.12.2 0 .4-.04.6-.04h.14c.88 0 1.73.1 2.57.25l.93.2c.6.15 1.2.34 1.8.55.4.16.82.33 1.22.52.54.25 1.06.52 1.56.83.4.24.76.5 1.12.77.3.22.57.45.85.7.75.64 1.44 1.36 2.05 2.14l.3.36c.33.45.62.93.9 1.4 1.34 2.3 2.17 4.9 2.18 7.74z" fill="currentColor"/></g></symbol><symbol viewBox="0 0 18 18" id="icon-slideshow-dot"><title>Oval 11 Copy</title><circle cx="9" cy="9" r="8" fill-rule="evenodd"/></symbol><symbol viewBox="0 0 50 22" id="icon-small-chevron-mobile"><title>Small Chevron Mobile</title><path d="M0 1.02L25 21 50 1" fill-rule="evenodd"/></symbol><symbol viewBox="0 0 32 15" id="icon-small-chevron"><title>Small Chevron</title><path d="M1 1l15 12L31 1" fill-rule="evenodd"/></symbol><symbol viewBox="0 0 19 20" id="icon-sort"><title>sort</title><g fill-rule="evenodd"><text font-family="PostGrotesk" font-size="9" font-weight="bold"><tspan x="10.82" y="7">A</tspan> <tspan x="10.82" y="17">Z</tspan></text><path d="M3.33 16.02H1L4.05 19l3.05-2.98H4.77V1.45H3.33v14.57z"/></g></symbol><symbol viewBox="0 0 24 24" id="icon-star"><title>Star Icon</title><path d="M0 0h24v24H0z"/><path fill="currentColor" d="M12 0l2.83 9.17H24l-7.42 5.66L19.42 24 12 18.34 4.58 24l2.84-9.17L0 9.17h9.17L12 0z"/></symbol><symbol viewBox="0 0 12 7" id="icon-triangle"><title>Triangle</title><path d="M6 0l6 6.86H0" fill-rule="evenodd"/></symbol><symbol viewBox="0 0 46 46" id="icon-twitter"><title>Twitter</title><g fill-rule="evenodd"><circle stroke="currentColor" cx="22.85" cy="22.79" r="22"/><path d="M34.84 15.35c-.88.4-1.83.66-2.82.78 1-.6 1.8-1.58 2.16-2.73-.95.57-2 .98-3.13 1.2-.9-.96-2.17-1.56-3.6-1.56-2.7 0-4.9 2.2-4.9 4.92 0 .4.03.77.1 1.13-4.08-.22-7.7-2.18-10.13-5.16-.43.73-.67 1.58-.67 2.48 0 1.7.87 3.2 2.2 4.1-.82-.03-1.57-.25-2.24-.62v.06c0 2.4 1.7 4.38 3.96 4.83-.4.1-.85.16-1.3.16-.3 0-.62-.03-.92-.1.62 1.97 2.44 3.4 4.6 3.43-1.7 1.3-3.8 2.1-6.12 2.1-.4 0-.8-.02-1.17-.07 2.18 1.4 4.76 2.2 7.54 2.2 9.05 0 14-7.5 14-14v-.63c.95-.7 1.78-1.56 2.44-2.55" fill="currentColor"/></g></symbol><symbol viewBox="0 0 28 28" id="icon-warning"><title>Warning icon</title><path d="M14 0C6.27 0 0 6.27 0 14s6.27 14 14 14 14-6.27 14-14S21.73 0 14 0zm-2.63 7.48c0 1.2.85 2.18 2.26 2.18 1.42 0 2.26-.97 2.26-2.18 0-1.34-.93-2.23-2.27-2.23-1.34 0-2.26.9-2.26 2.23zm.37 15.27h3.78v-10.5h-3.78v10.5z" fill-rule="evenodd"/></symbol><symbol viewBox="0 0 29 29" id="icon-x"><title>X</title><g stroke-width="2" fill-rule="evenodd"><path d="M28 28.1L14.47 14.55 1 28.05M1 1l13.53 13.55L28 1.05"/></g></symbol><symbol viewBox="0 0 46 46" id="icon-youtube"><title>You Tube</title><g transform="translate(0 1)" fill-rule="evenodd"><circle stroke="currentColor" cx="22.89" cy="22.33" r="22"/><path d="M34.15 30.27v-15.9c0-2.22-1.7-4.04-3.8-4.04H15.43c-2.1 0-3.8 1.82-3.8 4.05v15.9c0 2.23 1.7 4.05 3.8 4.05h14.92c2.1 0 3.8-1.82 3.8-4.06zm-12.6-16.83l-1.28 4.13v2.94h-1.1v-2.8l-1.3-4.26h1.1l.72 2.82h.06l.67-2.82h1.1zm2.76 5.77c0 .45-.12.8-.37 1.06-.25.25-.6.38-1.04.38-.43 0-.77-.13-1.03-.4-.25-.26-.38-.6-.38-1.05v-2.72c0-.4.12-.72.38-.96.27-.24.62-.36 1.06-.36.4 0 .73.12.98.38.26.25.4.57.4.97v2.7zm3.6 1.3h-.97v-.57c-.18.2-.37.37-.56.48-.2.13-.38.18-.56.18-.22 0-.38-.08-.5-.23-.1-.16-.17-.4-.17-.7V15.3h.97v4c0 .1.02.2.06.26.04.05.1.08.2.08.07 0 .16-.04.27-.1.1-.08.2-.18.3-.3V15.3h.97v5.2zm2.98 6.12c0 1-.03 2-.1 3 0 1.25-1.04 2.27-2.3 2.27-1.83.07-3.7.1-5.6.1-1.9 0-3.75-.03-5.57-.1-1.26 0-2.3-1.03-2.3-2.3-.07-1-.1-1.98-.1-2.98s.03-2 .1-3c0-1.25 1.04-2.28 2.3-2.28 1.83-.07 3.7-.1 5.6-.1 1.9 0 3.75.03 5.57.1 1.27 0 2.3 1.03 2.3 2.3.08.98.1 1.98.1 2.98zm-1.7 3.17c.26-.28.38-.7.38-1.22v-.4h-1v.37c0 .3-.03.5-.1.6-.06.08-.17.13-.33.13s-.27-.05-.33-.16c-.06-.1-.1-.3-.1-.57v-.98h1.86v-1.33c0-.5-.12-.88-.36-1.14-.24-.26-.58-.4-1.02-.4-.43 0-.8.15-1.06.43-.28.3-.4.66-.4 1.1v2.35c0 .5.1.9.36 1.18.25.3.6.43 1.03.43.5 0 .85-.14 1.1-.4zm-1.48-3.04v-.53c0-.22.04-.38.1-.47.07-.1.18-.14.34-.14.15 0 .25.04.32.14s.1.25.1.47v.53h-.86zm-1.95 3.06c.15-.2.23-.48.23-.85v-2.9c0-.42-.1-.74-.25-.97-.16-.22-.4-.33-.7-.33-.15 0-.3.04-.45.12-.14.08-.28.2-.4.36v-2.28h-1v7.07h1v-.4c.12.16.25.28.4.35.15.08.32.12.5.12.3 0 .52-.1.67-.3zm-.77-1c0 .18-.03.3-.1.37-.04.06-.13.1-.25.1-.08 0-.16-.02-.23-.06-.08-.04-.15-.1-.23-.18V25.8c.06-.06.13-.12.2-.15s.13-.05.2-.05c.13 0 .23.04.3.14.07.1.1.22.1.4v2.7zm-3.7 1.23h.96v-5.2h-.97v3.94l-.3.28c-.1.07-.2.1-.27.1-.1 0-.15-.02-.2-.08-.04-.05-.06-.14-.06-.27v-4h-.97v4.37c0 .3.06.54.18.7.1.15.28.23.5.23.18 0 .37-.06.57-.17.2-.1.37-.27.55-.48v.57zM18.35 24h1.13V23h-3.36V24h1.13v6.05h1.1V24zm4.84-4.4c.08-.07.12-.18.12-.32v-2.84c0-.1-.04-.2-.12-.27-.08-.07-.18-.1-.3-.1-.13 0-.22.03-.3.1-.07.07-.1.16-.1.27v2.84c0 .15.03.26.1.34.06.07.16.1.3.1.12 0 .23-.03.3-.1z" fill="currentColor"/></g></symbol></svg>