<svg xmlns="http://www.w3.org/2000/svg" xmlns:xlink="http://www.w3.org/1999/xlink" xmlns:sketch="http://www.bohemiancoding.com/sketch/ns" style="display:none;"><symbol viewBox="0 0 124 124" id="icon-boundaries"><title>boundaries</title><g fill-rule="evenodd"><path d="M61.997 6.314c-30.68 0-55.638 24.76-55.638 55.197 0 30.436 24.958 55.197 55.637 55.197 30.68 0 55.638-24.76 55.638-55.196 0-30.435-24.96-55.196-55.638-55.196zm0 116.702C27.812 123.016 0 95.426 0 61.51 0 27.598 27.812.007 61.997.007s61.997 27.59 61.997 61.505c0 33.915-27.812 61.506-61.997 61.506z"/><path d="M89.643 43.075l5.45 5.45v-19.14l-19.144-.004 5.45 5.453-19.403 19.403-19.403-19.403 5.45-5.452-19.142.004-.002 19.143 5.45-5.452 19.404 19.403L34.35 81.882l-5.45-5.45.002 19.14 19.143.004-5.45-5.452L61.996 70.72 81.4 90.125l-5.45 5.452 19.142-.003.003-19.143-5.452 5.452L70.24 62.48l19.403-19.405" fill="currentColor"/></g></symbol><symbol viewBox="0 0 16 16" id="icon-checkmark"><title>Shape 2 Copy</title><path d="M8 0C3.582 0 0 3.582 0 8s3.582 8 8 8 8-3.582 8-8-3.582-8-8-8zm3 4.594L12.406 6 7 11.406 3.594 8 5 6.594l2 2 4-4z" fill-rule="evenodd"/></symbol><symbol viewBox="0 0 62 62" id="icon-choose"><title>icon-choose</title><g fill-rule="evenodd"><path d="M31.056 59.706c15.904 0 28.842-12.94 28.842-28.843C59.898 14.96 46.96 2.02 31.056 2.02c-15.904 0-28.843 12.94-28.843 28.843 0 15.904 12.94 28.843 28.843 28.843"/><path d="M31.056 59.706c15.904 0 28.842-12.94 28.842-28.843C59.898 14.96 46.96 2.02 31.056 2.02c-15.904 0-28.843 12.94-28.843 28.843 0 15.904 12.94 28.843 28.843 28.843z" stroke="currentColor" stroke-width="3"/><path d="M31.018 21.01c-2.292-.015-4.115-1.85-4.098-4.128.017-2.244 1.926-4.112 4.172-4.084 2.265.028 4.12 1.91 4.1 4.157-.022 2.275-1.87 4.07-4.174 4.055M31.056 21.993c-.16 0-3.95.047-5.54 4.11-1.81 4.627-.662 16.8 5.54 23.45 6.2-6.65 7.35-18.823 5.54-23.45-1.592-4.063-5.38-4.11-5.54-4.11M44.453 24.106c-1.69-.01-3.036-1.366-3.024-3.045.012-1.655 1.42-3.033 3.077-3.012 1.67.02 3.04 1.408 3.024 3.067-.014 1.678-1.377 3.002-3.077 2.99M44.48 25.063c-.118 0-2.913.035-4.086 3.032-1.336 3.414-.49 12.395 4.087 17.3 4.576-4.905 5.423-13.886 4.087-17.3-1.173-2.997-3.968-3.032-4.087-3.032M17.604 24.106c-1.69-.01-3.037-1.366-3.024-3.045.012-1.655 1.42-3.033 3.078-3.012 1.67.02 3.04 1.408 3.024 3.067-.016 1.678-1.378 3.002-3.078 2.99M17.63 25.063c-.117 0-2.912.035-4.086 3.032-1.335 3.414-.488 12.395 4.087 17.3 4.576-4.905 5.423-13.886 4.087-17.3-1.173-2.997-3.968-3.032-4.086-3.032" fill="currentColor"/></g></symbol><symbol viewBox="0 0 31 15" id="icon-distribution"><title>Distribution</title><g fill-rule="evenodd"><g stroke="currentColor" stroke-width="2" stroke-linecap="square"><path d="M21 1.5v12M25 1.5v12M29 1.5v12"/></g><text font-family="PostGrotesk" font-size="18" fill="currentColor" transform="translate(0 -3)"><tspan x="0" y="17">%</tspan></text></g></symbol><symbol viewBox="0 0 46 46" id="icon-facebook"><title>Facebook</title><g fill-rule="evenodd"><circle stroke="currentColor" cx="22.799" cy="22.552" r="22"/><path d="M30.742 9.768H14.856c-2.24 0-4.056 1.934-4.056 4.32v16.928c0 2.387 1.816 4.32 4.056 4.32h7.78V24.923H20.07v-3.515h2.565v-2.812c0-.514-.097-3.956 4.036-3.956h3.063v3.58h-2.29c-.425 0-.854.472-.854.823v2.35h2.994c-.12 1.803-.367 3.53-.367 3.53h-2.643v10.414h4.168c2.24 0 4.056-1.934 4.056-4.32V14.088c0-2.388-1.816-4.322-4.056-4.322" fill="currentColor"/></g></symbol><symbol viewBox="0 0 17 17" id="icon-filter"><title>Slice 1 Copy 6</title><g stroke-width="2" fill-rule="evenodd"><path d="M15.5 4H1.437M15.5 12H1.437"/><circle fill="#FFF" cx="10.5" cy="4.5" r="2.5"/><circle fill="#FFF" cx="6.5" cy="12.5" r="2.5"/></g></symbol><symbol viewBox="0 0 26 26" id="icon-globe"><title>Slice 1 Copy 4</title><path d="M25 13c0-6.627-5.372-12-12-12C6.373 1 1 6.373 1 13c0 6.628 5.373 12 12 12 6.628 0 12-5.372 12-12zm-6.558.542c-.098 1.442-.523 2.88-1.274 4.31-1.285-.27-2.498-.4-3.612-.434v-3.876h4.886zm-4.886-1.113V8.55c1.135-.035 2.372-.167 3.684-.448.645 1.254 1.128 2.7 1.212 4.294v.03h-4.896zm3.022 6.435c-.772 1.214-1.78 2.42-3.022 3.61v-3.944c.952.03 1.964.133 3.022.335zm1.15.256c.777.198 1.575.454 2.39.772-1.39 1.433-3.206 2.45-5.242 2.84 1.167-1.187 2.12-2.393 2.853-3.61zM13.557 3.497c.71.613 2.016 1.865 3.104 3.592-1.1.215-2.14.32-3.104.352V3.496zm6.54 2.59c-.778.302-1.54.545-2.28.736-.907-1.535-1.996-2.737-2.828-3.535 1.98.404 3.747 1.404 5.108 2.8zm.77.892c1.175 1.53 1.914 3.408 2.03 5.45h-3.33l-.004-.098c-.09-1.673-.562-3.184-1.202-4.5.815-.22 1.653-.502 2.507-.852zm2.032 6.564c-.11 2.044-.844 3.925-2.013 5.458-.888-.366-1.758-.656-2.602-.882.757-1.51 1.182-3.037 1.274-4.576h3.34zM5.122 19.01c-1.173-1.535-1.91-3.42-2.02-5.468h3.34c.093 1.528.515 3.046 1.265 4.544-1.415.38-2.327.798-2.585.923zm3.142.086c.74 1.23 1.7 2.444 2.882 3.64-2.047-.388-3.873-1.408-5.267-2.85.42-.18 1.245-.503 2.384-.79zm-5.16-6.667c.117-2.048.858-3.93 2.035-5.46.272.13 1.147.527 2.49.893-.635 1.308-1.103 2.808-1.192 4.47l-.003.096h-3.33zM5.9 6.092c1.365-1.405 3.14-2.407 5.133-2.81-.842.804-1.946 2.02-2.863 3.572-1.072-.277-1.855-.583-2.27-.762zm6.544-2.58v3.933c-.936-.023-1.777-.11-2.5-.223-.212-.034-.414-.07-.613-.108 1.086-1.725 2.394-2.98 3.114-3.602zm0 5.045v3.87H7.547V12.4c.084-1.582.563-3.02 1.203-4.267.31.066.633.126.974.18.785.126 1.7.223 2.72.245zm0 4.984v3.87c-1.02.024-1.936.12-2.72.244-.315.05-.614.107-.9.166-.746-1.42-1.168-2.848-1.266-4.28h4.886zm0 4.987v3.926c-1.245-1.192-2.254-2.397-3.027-3.61.89-.166 1.907-.288 3.027-.317z" fill-rule="evenodd"/></symbol><symbol viewBox="0 0 24 24" id="icon-half-star"><title>Half-star Icon</title><path d="M0 0h24v24H0z"/><path fill="#EFEFEF" d="M12 0l2.832 9.168H24l-7.416 5.665L19.416 24 12 18.335 4.583 24l2.833-9.167L0 9.168h9.167L12 0z"/><path fill="currentColor" d="M12 0v18.335L4.583 24l2.833-9.167L0 9.168h9.167L12 0z"/></symbol><symbol viewBox="0 0 124 124" id="icon-hand-up"><title>hand_up</title><g fill-rule="evenodd"><path d="M61.997 6.314c-30.68 0-55.638 24.76-55.638 55.197 0 30.436 24.958 55.197 55.637 55.197 30.68 0 55.638-24.76 55.638-55.196 0-30.435-24.96-55.196-55.638-55.196zm0 116.702C27.812 123.016 0 95.426 0 61.51 0 27.598 27.812.007 61.997.007s61.997 27.59 61.997 61.505c0 33.915-27.812 61.506-61.997 61.506z"/><path d="M94.76 65.728c-2.05-2.084-5.05-2.066-7.055.07-2.524 2.688-5.028 6.587-7.546 9.283-.223.24-.48.444-.87.797V74.37c0-13.445.003-28.08-.016-41.526 0-.696-.074-1.45-.347-2.077-.853-1.96-2.958-2.898-5.15-2.416-2.102.463-3.376 2.052-3.377 4.267-.007 8.607-.003 17.214-.002 25.82v1.396h-2.775v-1.38c0-11.504.01-23.006-.02-34.508-.003-.763-.157-1.6-.5-2.272-.957-1.87-3.047-2.656-5.188-2.1-2.015.523-3.188 2.086-3.19 4.298-.003 11.503 0 23.005 0 34.508v1.472h-2.21v-1.456c.002-9.717-.05-19.435.04-29.152.02-2.34-1.712-4.602-4.538-4.577-2.617.022-4.398 1.878-4.398 4.564-.003 9.757-.002 19.514-.002 29.27v1.37h-1.855v-1.437c0-6.942.013-13.883-.018-20.823-.003-.73-.11-1.53-.425-2.173-.96-1.956-3.098-2.78-5.364-2.203-1.826.465-3.07 2.194-3.072 4.288-.002 15.31-.045 30.62.032 45.93.018 3.396.238 4.116.754 7.47 1.18 7.68 5.54 12.484 13.064 13.947.71.138 1.418.246 2.128.34V83.43h-8.034l14.108-13.482L73.044 83.43H65.01v21.508c6.336-1.247 10.833-4.754 14.974-10.557 3.825-5.22 7.095-9.392 10.643-15.442 1.562-2.667 3.14-5.325 4.683-8.002 1.145-1.99.945-3.69-.55-5.208" fill="currentColor"/></g></symbol><symbol viewBox="0 0 26 17" id="icon-handshake"><title>Slice 1 Copy 3</title><g fill-rule="evenodd"><path d="M7.058 8.54l-.016-.015c-.19-.185-.44-.286-.704-.286-.274 0-.53.106-.72.3l-1.665 1.69c-.388.397-.38 1.036.017 1.424l.016.015c.19.184.438.285.704.285.274 0 .53-.107.72-.302l1.664-1.69c.388-.395.38-1.034-.016-1.423zM8.962 10.064l-.016-.015c-.188-.185-.438-.287-.704-.287-.274 0-.53.107-.72.302l-1.664 1.69c-.388.396-.38 1.035.017 1.423l.016.016c.19.184.44.286.705.286.274 0 .53-.107.72-.302l1.664-1.69c.387-.396.38-1.035-.018-1.424zM11.25 11.207l-.017-.016c-.19-.183-.44-.284-.705-.284-.274 0-.53.107-.72.302l-1.664 1.69c-.388.396-.38 1.035.017 1.423l.017.017c.188.184.438.285.704.285.275 0 .53-.107.72-.3l1.665-1.69c.388-.398.38-1.037-.016-1.425zM13.154 12.73l-.017-.015c-.188-.184-.437-.285-.703-.285-.275 0-.53.107-.72.302l-1.665 1.69c-.39.396-.38 1.035.016 1.423l.016.016c.188.185.438.286.704.286.274 0 .53-.107.72-.3l1.664-1.69c.388-.398.38-1.037-.016-1.425z"/><path d="M15.01 5.35c-1.764 1.666-3.128 2.29-3.186 2.316l-.012.004c-.262.084-.575.127-.905.127-.418 0-.764-.07-.933-.128-.34-.12-.924-.682-1.175-1.134-.26-.467-.035-1.173-.025-1.203l.008-.026 3.87-3.648c-.186-.186-.554-.28-1.096-.28-1.477 0-3.714.715-3.84.756-.168.074-.412.113-.725.113-.56 0-1.167-.12-1.264-.14h-.003c-.328 0-1.188-.514-1.326-.6-.142-.05-.275-.074-.397-.074-.33 0-.486.184-.515.222L1.623 5.912C1.038 7.012.995 7.334 1 7.416c1.024.248 2.38 1.72 2.718 2.1l1.94-1.898.032-.006c.165-.035.324-.053.473-.053 1.194 0 1.528 1.1 1.604 1.45.097-.01.193-.014.285-.014 1.412 0 1.706 1.13 1.765 1.517.197-.04.384-.06.557-.06 1.295 0 1.594 1.088 1.657 1.454.683-.103 1.207.043 1.558.43.56.613.472 1.608.468 1.65l-.003.038-1.922 1.952c.27.143.525.215.762.215.95 0 1.364-1.17 1.37-1.183l.03-.088.09.017c.16.027.31.04.45.04 1.284 0 1.35-1.212 1.352-1.263l.006-.134.13.034c.258.066.5.1.716.1 1.338 0 1.47-1.26 1.476-1.313l.01-.118.118.022c.198.037.384.055.55.055.448 0 .784-.133.998-.394.413-.506.264-1.335.256-1.382-.35-1.395-4.808-4.77-5.435-5.24z"/><path d="M22.512 1.848l-.002-.013c-.11-.53-.434-.61-.617-.61h-.047c-.982.767-2.054.882-2.608.882-.212 0-.345-.017-.366-.02-.98-.095-2.195-.513-2.246-.53l-.013-.006c-.748-.364-1.39-.55-1.906-.55-.518 0-.716.195-.718.197-2.22 2.38-4.286 3.952-4.523 4.13-.375.83.604 1.514.733 1.6.267.064.518.097.745.097.377 0 .56-.093.562-.093l.025-.012h.036c.58 0 2.664-1.74 3.42-2.412l.053-.048.067.032c2.512 1.233 5.69 4.928 5.87 5.14.177.133.34.2.487.2.17 0 .26-.094.264-.097l.01-.01 2.57-2.146.016-.006c.286-.104.47-.25.542-.432.084-.207-.003-.397-.004-.4l-2.35-4.89z"/></g></symbol><symbol viewBox="0 0 124 123" id="icon-impact"><title>about_impact</title><g fill-rule="evenodd"><path d="M61.997 6.314c-30.68 0-55.638 24.76-55.638 55.197 0 30.436 24.958 55.197 55.637 55.197 30.68 0 55.638-24.76 55.638-55.196 0-30.435-24.96-55.196-55.638-55.196zm0 116.702C27.812 123.016 0 95.426 0 61.51 0 27.598 27.812.007 61.997.007s61.997 27.59 61.997 61.505c0 33.915-27.812 61.506-61.997 61.506z"/><path d="M61.998 20.818c-14.852 0-27.885 7.87-35.085 19.63 2.716-.733 4.84-.752 5.036-.752.414 0 9.437.09 14.47 6.812.27-.588.55-1.167.844-1.733 1.07.223 2.195.433 3.376.62 2.72.43 5.894.762 9.43.84V59.55H49.414c-.134 1.225-.355 2.5-.66 3.823h11.315v13.317c-3.535.078-6.71.406-9.43.836-1.092.172-2.128.365-3.123.57-.863-1.63-1.59-3.264-2.202-4.9-1.583 3.5-3.607 7.246-6.07 11.23 1.57-.586 3.703-1.293 6.333-1.948 2.563 4.224 5.897 8.4 9.99 12.52-6.665-1.257-12.653-4.43-17.36-8.918-.977 1.53-2.01 3.09-3.11 4.687l-.62.896c7.283 6.548 16.94 10.543 27.52 10.543 22.616 0 41.017-18.254 41.017-40.692 0-22.437-18.4-40.692-41.017-40.692zm-1.93 73.21c-4.313-4.1-7.813-8.243-10.492-12.417 3.08-.565 6.612-.986 10.493-1.085V94.03zM45.254 40.382c-3.715-.952-6.43-2.006-7.87-2.624 4.733-4.828 10.89-8.276 17.795-9.66-2.918 2.764-6.745 6.942-9.925 12.285zm14.816 2.03c-3.244-.076-6.162-.375-8.667-.767-.732-.114-1.435-.24-2.124-.37 3.758-5.932 8.293-10.25 10.79-12.39V42.41zM96.3 59.548H84.754c-.006-.115-.007-.228-.012-.34-.312-5.755-1.947-10.95-4.164-15.472 2.822-.763 5.727-1.73 8.69-2.936 4.067 5.26 6.628 11.72 7.032 18.748zm-9.707-21.813c-2.694 1.04-5.333 1.874-7.9 2.53-3.147-5.28-6.92-9.412-9.804-12.157 6.865 1.392 12.987 4.828 17.703 9.627zm-22.67-8.908c2.462 2.11 6.992 6.416 10.76 12.355-3.813.738-7.42 1.098-10.76 1.21V28.826zm0 17.39c3.937-.123 8.226-.577 12.77-1.54 2.235 4.31 3.91 9.282 4.202 14.762l.004.11H63.923V46.215zm0 17.154H80.86c-.338 4.964-1.812 9.91-4.416 14.82-4.453-.93-8.656-1.367-12.52-1.488v-13.33zm0 30.727V80.53c3.298.105 6.807.454 10.478 1.15-2.676 4.174-6.17 8.316-10.476 12.417zm4.575.885c4.047-4.088 7.346-8.233 9.89-12.424 2.69.678 5.457 1.56 8.276 2.652-4.813 4.93-11.107 8.425-18.166 9.772zm20.832-12.84c-3.08-1.257-6.094-2.254-9.02-3.032 2.622-5.19 4.096-10.442 4.415-15.738H96.31c-.384 7.032-2.927 13.5-6.98 18.77z" fill="currentColor"/><path d="M44.28 50.213c-3.54-6.655-11.974-6.73-12.332-6.73-.358 0-8.792.075-12.332 6.73-4.03 7.58.233 20.863 12.332 38.414 12.1-17.55 16.363-30.834 12.33-38.414zm-12.33 13.14c-3.88 0-7.027-3.12-7.027-6.97 0-3.85 3.146-6.97 7.026-6.97s7.025 3.12 7.025 6.97c0 3.85-3.146 6.97-7.026 6.97z" fill="currentColor"/></g></symbol><symbol viewBox="0 0 67 29" id="icon-large-chevron-mobile"><title>Large Chevron Mobile</title><path d="M1 1.028L33.52 27 66 1" fill-rule="evenodd"/></symbol><symbol viewBox="0 0 102 43" id="icon-large-chevron"><title>Large Chevron</title><path d="M1 1.043L51.03 41 101 1" fill-rule="evenodd"/></symbol><symbol viewBox="0 0 50 50" id="icon-leaf"><title>Fill 4 Copy</title><path d="M50 18.75V0H31.25S0 0 0 31.25v12.5s11.36-1.573 29.815-21.448c0 0-8.962 21.296-29.815 27.698h18.75S50 50 50 18.75" fill-rule="evenodd"/></symbol><symbol viewBox="0 0 85 73" id="icon-leaves"><title>about_leaves</title><g fill-rule="evenodd"><path d="M45.42 29.427v-11.03S45.42.012 64.085.012h11.2v11.03s0 18.385-18.668 18.385h-7.466M39.407 72.774V58.22s0-24.26-24.63-24.26H0v14.556s0 24.258 24.63 24.258h9.85M84.825 48.516V33.962H70.048s-24.63 0-24.63 24.258v9.703s8.953-1.22 23.5-16.65c0 0-7.064 16.532-23.5 21.5h14.778s24.63 0 24.63-24.257M9.54 11.043V.013h11.2s18.667 0 18.667 18.384v7.353s-6.784-.925-17.81-12.618c0 0 5.355 12.53 17.81 16.296h-11.2s-18.667 0-18.667-18.385"/></g></symbol><symbol viewBox="0 0 62 62" id="icon-lend"><title>2lend</title><g fill-rule="evenodd"><circle cx="31" cy="31" r="29"/><path d="M31.94 12.694c-6.01 0-10.883 4.873-10.883 10.884 0 2.555.882 4.9 2.355 6.758h7.547v-.604c-1.19-.224-2.29-.81-3.238-1.687l1.515-1.584c.688.758 1.74 1.327 2.84 1.327 1.034 0 1.758-.637 1.758-1.515 0-1.55-2.238-1.74-3.857-2.686-.947-.55-1.704-1.377-1.704-2.738 0-1.67 1.205-2.807 2.686-3.22v-1.98h2.066v1.86c.93.103 1.825.43 2.72 1.083l-1.205 1.723c-.48-.448-1.29-.792-2.082-.792-.878 0-1.86.38-1.86 1.31 0 1.946 5.563 1.343 5.563 5.407 0 1.825-1.394 3.167-3.133 3.512v.586h1.832s2.625.022 3.84 1.77c2.513-1.993 4.127-5.07 4.127-8.528 0-6.01-4.874-10.884-10.886-10.884z" fill="currentColor"/><path d="M31.03.625C14.3.625.687 14.235.687 30.967.687 47.697 14.3 61.31 31.03 61.31c16.73 0 30.343-13.61 30.343-30.342C61.373 14.238 47.76.625 31.03.625zm0 57.686c-7.296 0-13.93-2.878-18.837-7.552 1.506-1.505 3.01-3.014 4.5-4.533.553-.562 1.106-.78 1.897-.77 3.357.046 6.715.02 10.073.02 3.488 0 6.98-.006 10.467.004 1.005.002 1.846-.287 2.555-1.046 1.012-1.082 2.086-2.104 3.133-3.15 2.305-2.305 4.608-4.61 6.913-6.913.78-.777 1.198-1.66.743-2.758-.687-1.653-2.636-2-3.976-.676-2.555 2.52-5.066 5.083-7.635 7.588-.33.322-.893.56-1.354.567-2.6.055-5.2.027-7.8.027-1.317 0-2.637.04-3.95-.037-.284-.017-.543-.463-.814-.712.264-.216.5-.5.8-.626.254-.105.585-.024.88-.025 2.14-.008 4.28.04 6.418-.042 1.45-.056 2.377-1.108 2.332-2.413-.046-1.312-1.04-2.246-2.504-2.25-6.09-.016-12.18-.028-18.27.027-.62.005-1.388.323-1.833.758-2.895 2.818-5.755 5.673-8.585 8.558-1.597-3.47-2.494-7.325-2.494-11.388 0-15.077 12.266-27.342 27.343-27.342 15.078 0 27.344 12.266 27.344 27.342 0 15.076-12.268 27.343-27.344 27.343z" fill="currentColor"/></g></symbol><symbol viewBox="0 0 124 124" id="icon-lifting"><title>lifting</title><g fill-rule="evenodd"><path d="M61.997 6.314c-30.68 0-55.638 24.76-55.638 55.197 0 30.436 24.958 55.197 55.637 55.197 30.68 0 55.638-24.76 55.638-55.196 0-30.435-24.96-55.196-55.638-55.196zm0 116.702C27.812 123.016 0 95.426 0 61.51 0 27.598 27.812.007 61.997.007s61.997 27.59 61.997 61.505c0 33.915-27.812 61.506-61.997 61.506z"/><path d="M33.53 90.47c-.816-.815-2.14-.814-2.96.005-.818.82-.82 2.143-.004 2.96.816.815 2.14.813 2.96-.005.818-.818.82-2.143.004-2.96M66.814 66.82c2.667-2.668 2.674-6.988.014-9.648-2.66-2.66-6.98-2.653-9.647.015-2.667 2.667-2.673 6.986-.013 9.647 2.66 2.66 6.98 2.654 9.647-.015M53.895 53.902c2.384-2.383 2.39-6.242.013-8.618-2.376-2.376-6.234-2.37-8.617.013-2.383 2.383-2.39 6.24-.012 8.617 2.376 2.377 6.234 2.37 8.617-.012M50.91 64.99c-.867-3.25-4.205-5.174-7.457-4.3-3.252.877-5.186 4.22-4.32 7.47.866 3.25 4.205 5.174 7.457 4.3 3.252-.877 5.185-4.22 4.32-7.47M59.01 73.09c-3.248-.865-6.592 1.068-7.468 4.32-.876 3.252 1.05 6.59 4.298 7.458 3.25.866 6.594-1.07 7.47-4.32.875-3.253-1.05-6.59-4.3-7.457M70.1 70.105c-2.385 2.383-2.39 6.24-.014 8.617 2.376 2.377 6.234 2.37 8.618-.012 2.383-2.383 2.39-6.242.012-8.618-2.376-2.377-6.234-2.37-8.617.013M73.085 59.018c.865 3.248 4.204 5.173 7.456 4.298 3.253-.876 5.187-4.22 4.32-7.47-.866-3.25-4.204-5.173-7.455-4.298-3.253.876-5.187 4.22-4.32 7.47M64.983 50.916c3.25.866 6.594-1.068 7.47-4.32.875-3.252-1.05-6.59-4.3-7.457-3.248-.867-6.592 1.067-7.468 4.32-.876 3.25 1.05 6.59 4.298 7.456M38.853 55.833c.672-2.5-.806-5.064-3.303-5.73-2.497-.666-5.066.82-5.74 3.32-.673 2.498.806 5.064 3.303 5.73 2.497.665 5.067-.82 5.74-3.32M68.168 85.148c-2.5.672-3.986 3.242-3.32 5.74.665 2.497 3.23 3.975 5.73 3.302 2.5-.673 3.985-3.243 3.32-5.74-.667-2.497-3.23-3.975-5.73-3.302M85.142 68.173c-.673 2.5.805 5.065 3.302 5.73 2.497.666 5.067-.82 5.74-3.32.673-2.497-.806-5.063-3.303-5.73-2.497-.665-5.066.822-5.738 3.32M78.97 45.03c1.827 1.825 4.792 1.82 6.624-.01 1.83-1.832 1.834-4.796.01-6.623-1.827-1.825-4.792-1.82-6.624.01-1.83 1.83-1.834 4.797-.01 6.622M55.827 38.86c2.5-.674 3.986-3.243 3.32-5.74-.667-2.498-3.23-3.976-5.73-3.303-2.5.673-3.986 3.243-3.32 5.74.666 2.496 3.23 3.975 5.73 3.302M45.023 78.977c-1.826-1.825-4.79-1.822-6.622.01-1.83 1.83-1.835 4.796-.01 6.622 1.827 1.825 4.792 1.82 6.623-.01 1.832-1.83 1.835-4.797.01-6.623M30.283 43.724c.832-1.44.327-3.287-1.128-4.127-1.456-.84-3.31-.352-4.143 1.088-.833 1.44-.328 3.288 1.127 4.127 1.455.838 3.31.35 4.143-1.088M25.34 62.054c.004-1.66-1.358-3.005-3.04-3.003-1.682.003-3.048 1.353-3.05 3.013-.003 1.66 1.36 3.006 3.04 3.003 1.683-.002 3.05-1.35 3.05-3.012M30.22 80.373c-.828-1.437-2.682-1.92-4.14-1.076-1.458.844-1.968 2.692-1.14 4.13.828 1.437 2.682 1.92 4.14 1.076 1.458-.844 1.97-2.692 1.14-4.13M43.612 93.77c-1.437-.827-3.286-.317-4.13 1.142-.842 1.458-.36 3.31 1.077 4.14 1.436.828 3.285.318 4.128-1.14.844-1.458.362-3.312-1.076-4.14M61.93 98.66c-1.662.002-3.01 1.367-3.013 3.05-.003 1.68 1.342 3.044 3.003 3.04 1.66 0 3.01-1.368 3.012-3.05.003-1.682-1.342-3.043-3.003-3.04M80.262 93.727c-1.44.832-1.927 2.687-1.088 4.143.838 1.455 2.686 1.96 4.126 1.128 1.44-.833 1.927-2.688 1.088-4.144-.84-1.455-2.687-1.96-4.126-1.127M93.7 80.295c-.834 1.44-.328 3.287 1.128 4.127 1.455.838 3.31.35 4.142-1.088.833-1.44.328-3.288-1.128-4.127-1.455-.838-3.31-.35-4.143 1.088M98.64 61.964c-.002 1.66 1.36 3.006 3.042 3.004 1.682-.003 3.048-1.352 3.05-3.013.003-1.66-1.36-3.005-3.04-3.003-1.684.003-3.048 1.35-3.052 3.012M93.76 43.646c.83 1.437 2.684 1.92 4.142 1.075 1.458-.842 1.968-2.69 1.14-4.127-.828-1.438-2.683-1.92-4.14-1.077-1.46.844-1.97 2.693-1.14 4.13M80.37 30.248c1.436.828 3.286.318 4.13-1.14.842-1.46.36-3.312-1.077-4.14-1.437-.83-3.287-.32-4.13 1.14-.843 1.457-.36 3.31 1.077 4.14M62.053 25.36c1.66-.003 3.01-1.368 3.012-3.05.003-1.683-1.342-3.045-3.003-3.042-1.66.002-3.01 1.368-3.013 3.05-.003 1.682 1.342 3.044 3.003 3.042M43.72 30.292c1.44-.832 1.927-2.688 1.088-4.143-.84-1.457-2.687-1.962-4.126-1.13-1.44.834-1.927 2.69-1.088 4.144.84 1.456 2.686 1.96 4.126 1.128M33.612 33.62c.82-.82.82-2.144.005-2.96-.816-.817-2.14-.815-2.96.004-.818.818-.82 2.143-.004 2.96.817.815 2.142.814 2.96-.005M23.182 51.656c.3-1.117-.36-2.264-1.476-2.562-1.116-.297-2.265.367-2.565 1.484-.3 1.117.36 2.263 1.476 2.56 1.116.298 2.265-.366 2.566-1.482M23.15 72.464c-.296-1.116-1.443-1.776-2.56-1.476-1.116.302-1.78 1.45-1.483 2.566.298 1.115 1.444 1.776 2.56 1.476 1.118-.3 1.782-1.45 1.484-2.566M51.536 100.85c-1.116-.3-2.265.366-2.566 1.482-.3 1.117.36 2.264 1.476 2.56 1.116.298 2.265-.366 2.566-1.482.3-1.117-.36-2.264-1.476-2.56M72.345 100.818c-1.117.302-1.78 1.45-1.483 2.566.297 1.115 1.444 1.776 2.56 1.475 1.117-.3 1.782-1.45 1.484-2.566-.297-1.115-1.445-1.776-2.56-1.476M90.382 90.388c-.818.818-.82 2.143-.005 2.96.816.815 2.14.813 2.96-.005.818-.82.82-2.144.004-2.96-.816-.816-2.14-.814-2.958.005M100.812 72.352c-.3 1.116.36 2.262 1.477 2.56 1.114.297 2.263-.367 2.563-1.484.3-1.116-.36-2.263-1.475-2.56-1.117-.298-2.265.367-2.566 1.484M100.843 51.542c.297 1.116 1.444 1.777 2.56 1.476 1.118-.3 1.78-1.45 1.483-2.565-.296-1.116-1.443-1.777-2.56-1.476-1.117.3-1.78 1.45-1.483 2.565M90.465 33.536c.816.816 2.14.814 2.96-.004.817-.82.82-2.143.003-2.96-.816-.816-2.14-.814-2.96.004-.818.82-.82 2.144-.003 2.96M72.46 23.157c1.114.298 2.263-.366 2.563-1.483.3-1.117-.36-2.263-1.475-2.56-1.117-.298-2.265.366-2.566 1.483-.3 1.116.36 2.263 1.477 2.56M51.65 23.188c1.116-.3 1.78-1.45 1.483-2.565-.298-1.116-1.444-1.776-2.56-1.475-1.117.3-1.782 1.448-1.485 2.564.298 1.116 1.444 1.777 2.56 1.476M42.182 42.19c1.46-1.46 1.463-3.82.01-5.276-1.456-1.454-3.817-1.45-5.276.008-1.458 1.46-1.462 3.82-.007 5.274 1.453 1.455 3.814 1.45 5.272-.007M34.93 69.256c-.534-1.992-2.577-3.177-4.564-2.644-1.987.532-3.164 2.58-2.63 4.572.533 1.992 2.577 3.176 4.564 2.644 1.987-.533 3.165-2.58 2.63-4.572M54.744 89.07c-1.992-.533-4.04.644-4.57 2.63-.533 1.987.65 4.03 2.643 4.564 1.992.534 4.04-.643 4.57-2.63.534-1.987-.65-4.03-2.643-4.563M81.81 81.818c-1.457 1.458-1.46 3.82-.006 5.274 1.454 1.454 3.815 1.45 5.275-.008 1.456-1.46 1.46-3.82.006-5.274-1.455-1.455-3.816-1.45-5.275.008M89.064 54.75c.534 1.993 2.577 3.177 4.564 2.644 1.986-.532 3.164-2.58 2.63-4.57-.533-1.994-2.577-3.177-4.563-2.645-1.988.532-3.165 2.58-2.63 4.57M69.25 34.936c1.99.534 4.04-.643 4.57-2.63.534-1.987-.65-4.03-2.643-4.564-1.992-.534-4.04.644-4.57 2.63-.533 1.987.65 4.03 2.642 4.564" fill="currentColor"/></g></symbol><symbol viewBox="0 0 46 46" id="icon-linkedIn"><title>LinkedIn</title><g transform="translate(0 1)" fill-rule="evenodd"><circle stroke="currentColor" cx="22.971" cy="22.329" r="22"/><path d="M34.234 30.273V14.385c0-2.24-1.705-4.056-3.807-4.056h-14.91c-2.104 0-3.808 1.815-3.808 4.055v15.888c0 2.24 1.703 4.056 3.806 4.056h14.91c2.103 0 3.808-1.817 3.808-4.057zM14.952 19.537h3.437v11.06H14.95v-11.06zm3.71-3.506c0 1.1-.892 1.995-1.99 1.995-1.102 0-1.995-.894-1.995-1.994 0-1.098.893-1.99 1.994-1.99 1.1 0 1.993.892 1.993 1.99zM31.266 30.6H27.83v-5.38c0-1.282-.024-2.932-1.787-2.932-1.788 0-2.063 1.397-2.063 2.84v5.472h-3.435v-11.06h3.298v1.51h.046c.458-.87 1.58-1.786 3.25-1.786 3.482 0 4.125 2.29 4.125 5.27v6.066z" fill="currentColor"/></g></symbol><symbol viewBox="0 0 22 22" id="icon-magnify-glass"><title>Magnify Glass</title><path d="M8 16.31c1.454.975 3.163 1.5 4.953 1.5 2.382 0 4.62-.928 6.305-2.612 1.683-1.684 2.61-3.923 2.61-6.305 0-2.38-.927-4.62-2.61-6.304C17.574.904 15.335-.023 12.953-.023c-2.38 0-4.62.927-6.304 2.61-1.685 1.685-2.613 3.924-2.613 6.306 0 1.81.537 3.537 1.533 5L.18 19.288c-.252.253-.197.72.124 1.04l1.26 1.26c.32.32.787.376 1.04.123L8 16.31zM6.454 8.893c0-3.584 2.916-6.5 6.5-6.5s6.5 2.916 6.5 6.5c0 3.585-2.916 6.5-6.5 6.5s-6.5-2.915-6.5-6.5z" fill-rule="evenodd"/></symbol><symbol viewBox="0 0 26 26" id="icon-match"><title>Slice 1 Copy 2</title><g fill-rule="evenodd"><path d="M13.035 1.69l2.946 2.7 4.06-.545.707 3.825 3.62 1.82-1.8 3.488 1.8 3.488-3.62 1.82-.708 3.826-4.06-.544-2.945 2.7-2.946-2.7-4.06.544-.708-3.825-3.62-1.82 1.8-3.49-1.8-3.487 3.62-1.82.71-3.825 4.057.545 2.945-2.7"/><path d="M13.035 1.69l2.946 2.7 4.06-.545.707 3.825 3.62 1.82-1.8 3.488 1.8 3.488-3.62 1.82-.708 3.826-4.06-.544-2.945 2.7-2.946-2.7-4.06.544-.708-3.825-3.62-1.82 1.8-3.49-1.8-3.487 3.62-1.82.71-3.825 4.057.545 2.945-2.7z" stroke="currentColor" stroke-width=".967"/><path d="M13.035 3.38l2.504 2.296 3.45-.462.602 3.25 3.078 1.55-1.53 2.964 1.53 2.967-3.078 1.547-.602 3.25-3.45-.46-2.505 2.295-2.506-2.296-3.45.463-.603-3.25L3.4 15.944l1.53-2.967-1.53-2.965 3.077-1.548.603-3.25 3.45.46 2.505-2.294" fill="currentColor"/><text font-family="PostGrotesk" font-size="14.897" font-weight="420"><tspan x="10.575" y="17.966">2</tspan></text><text font-family="PostGrotesk" font-size="8.647" font-weight="420"><tspan x="6.009" y="15">x</tspan></text></g></symbol><symbol viewBox="0 0 52 23" id="icon-medium-chevron"><title>Medium Chevron</title><path d="M1 1.022L26.015 21 51 1" fill-rule="evenodd"/></symbol><symbol viewBox="0 0 36 60" id="icon-nearme"><title>icon-nearme</title><path d="M18 0s-40.5 0 0 59.354C58.5 0 18 0 18 0zm9.143 16.966c0 5.06-4.093 9.164-9.143 9.164-5.05 0-9.144-4.103-9.144-9.164 0-5.06 4.094-9.164 9.144-9.164s9.143 4.103 9.143 9.164z" fill-rule="evenodd"/></symbol><symbol viewBox="0 0 46 46" id="icon-pinterest"><title>Pinterest</title><g fill-rule="evenodd"><circle stroke="currentColor" cx="22.82" cy="22.865" r="22"/><path d="M22.82 10.865c-6.627 0-12 5.372-12 12 0 4.913 2.955 9.134 7.183 10.99-.034-.838-.006-1.844.21-2.755l1.543-6.54s-.383-.765-.383-1.898c0-1.778 1.03-3.106 2.314-3.106 1.09 0 1.618.82 1.618 1.8 0 1.1-.7 2.74-1.06 4.26-.3 1.273.64 2.31 1.895 2.31 2.273 0 3.805-2.92 3.805-6.38 0-2.63-1.77-4.597-4.993-4.597-3.64 0-5.908 2.713-5.908 5.746 0 1.045.308 1.782.79 2.353.223.262.254.367.174.668-.058.22-.19.752-.245.963-.08.305-.326.414-.6.3-1.677-.683-2.458-2.52-2.458-4.583 0-3.41 2.875-7.496 8.576-7.496 4.582 0 7.597 3.316 7.597 6.875 0 4.707-2.616 8.224-6.474 8.224-1.296 0-2.514-.702-2.932-1.497 0 0-.695 2.765-.843 3.3-.254.924-.752 1.85-1.208 2.57 1.08.318 2.22.492 3.4.492 6.627 0 12-5.373 12-12 0-6.628-5.373-12-12-12" fill="currentColor"/></g></symbol><symbol viewBox="0 0 124 124" id="icon-recycle"><title>recycle</title><g fill-rule="evenodd"><path d="M61.997 6.314c-30.68 0-55.638 24.76-55.638 55.197 0 30.436 24.958 55.197 55.637 55.197 30.68 0 55.638-24.76 55.638-55.196 0-30.435-24.96-55.196-55.638-55.196zm0 116.702C27.812 123.016 0 95.426 0 61.51 0 27.598 27.812.007 61.997.007s61.997 27.59 61.997 61.505c0 33.915-27.812 61.506-61.997 61.506z"/><path d="M48.592 75.463c3.01 2.79 6.507 4.652 10.288 5.363v6.13h6.56V80.88c5.532-1.094 9.96-5.362 9.96-11.162 0-12.914-17.676-11-17.676-17.182 0-2.955 3.125-4.16 5.912-4.16 2.518 0 5.094 1.096 6.626 2.518l3.826-5.472c-2.843-2.08-5.686-3.12-8.647-3.447v-5.91h-6.56v6.293c-4.71 1.313-8.537 4.925-8.537 10.233 0 4.323 2.405 6.95 5.412 8.7 5.148 3.01 12.265 3.613 12.265 8.537 0 2.79-2.305 4.815-5.586 4.815-3.5 0-6.843-1.805-9.03-4.213l-4.812 5.033" fill="currentColor"/><path d="M62.18 102.806l.048.003c1.075-.006 2.116-.14 3.17-.226.667-.056 1.35-.053 2.008-.142 12.044-1.586 22.353-8.465 28.71-18.173l4.28 3.08-1.7-14.483-14.273 2.983 4.16 2.996c-.11.174-.208.355-.322.528-.448.677-.927 1.33-1.424 1.97-.32.414-.645.82-.983 1.215-.54.63-1.106 1.242-1.693 1.828-.346.345-.7.68-1.062 1.007-.636.58-1.29 1.142-1.97 1.668-.36.278-.732.536-1.102.798-.73.516-1.47 1.016-2.242 1.47-.367.215-.75.403-1.127.604-.81.433-1.626.852-2.476 1.212-.392.166-.803.297-1.204.448-.862.324-1.726.644-2.62.893-.482.133-.983.214-1.473.324-.845.192-1.683.397-2.55.517-.967.133-1.96.18-2.953.222-.417.018-.82.083-1.24.085-.1 0-.2-.018-.3-.02-1.79-.005-3.53-.212-5.237-.504-.633-.11-1.258-.237-1.876-.384-1.256-.294-2.47-.68-3.662-1.12-.852-.315-1.687-.654-2.502-1.04-1.094-.515-2.157-1.076-3.178-1.707-.78-.487-1.53-1.016-2.26-1.565-.6-.45-1.17-.932-1.738-1.42-1.535-1.332-2.95-2.793-4.204-4.395-.187-.238-.4-.453-.58-.696-.677-.917-1.28-1.89-1.858-2.88-2.724-4.65-4.41-9.986-4.436-15.763l-9.17.04c.08 18.676 12.706 34.33 29.85 39.103.115.032.232.056.348.088 1.518.41 3.07.724 4.653.957.313.046.62.1.936.138 1.707.21 3.433.353 5.196.344.02 0 .038-.004.058-.004m31.505-40.94l9.17-.042c-.08-18.674-12.707-34.327-29.85-39.1-.115-.033-.234-.057-.35-.09-1.518-.407-3.07-.723-4.653-.955-.313-.047-.62-.1-.936-.14-1.705-.21-3.43-.35-5.194-.343-.02 0-.037.004-.056.004l-.05-.002c-14.23.06-26.656 7.45-33.907 18.527l-4.263-3.07L25.3 51.14l14.27-2.98-4.198-3.025c.318-.497.605-1.018.948-1.498.1-.142.2-.286.305-.426.713-.965 1.484-1.883 2.3-2.76.158-.17.32-.336.482-.502.805-.827 1.653-1.61 2.544-2.347.216-.175.438-.34.656-.512.882-.69 1.792-1.34 2.744-1.934.278-.173.567-.326.85-.49.935-.543 1.888-1.058 2.88-1.505.36-.163.735-.29 1.1-.437.956-.388 1.92-.763 2.92-1.057.503-.147 1.03-.237 1.543-.36.9-.218 1.797-.447 2.726-.586 1.072-.156 2.175-.215 3.28-.26.406-.018.797-.086 1.206-.09.1 0 .196.02.297.02 1.79.007 3.53.213 5.24.505.63.11 1.257.24 1.875.386 1.252.295 2.466.68 3.657 1.118.856.32 1.698.66 2.52 1.05 1.087.512 2.147 1.07 3.164 1.7.78.486 1.528 1.015 2.26 1.565.6.448 1.17.93 1.736 1.42 1.53 1.326 2.94 2.782 4.193 4.378.19.244.408.465.592.713.676.917 1.278 1.89 1.855 2.877 2.726 4.65 4.414 9.986 4.438 15.765" fill="currentColor"/></g></symbol><symbol viewBox="0 0 62 60" id="icon-repaid"><title>icon-repaid</title><g fill-rule="evenodd"><path d="M30.79 58.387c15.867 0 28.774-12.685 28.774-28.277S46.657 1.833 30.79 1.833c-15.864 0-28.77 12.685-28.77 28.277s12.906 28.277 28.77 28.277"/><path d="M30.79 58.387c15.867 0 28.774-12.685 28.774-28.277S46.657 1.833 30.79 1.833c-15.864 0-28.77 12.685-28.77 28.277s12.906 28.277 28.77 28.277z" stroke="currentColor" stroke-width="3"/><path d="M42.48 46.018V19.093s0-3.365-3.426-3.365h-.108l-3.154 3.365h3.262v23.56h-16.78v-23.56h3.26l-3.152-3.365h-.11s-3.423 0-3.423 3.365v26.925s0 3.366 3.423 3.366h16.78s3.426 0 3.426-3.366zm-10.618 0c0 .744-.613 1.347-1.37 1.347-.756 0-1.37-.603-1.37-1.347 0-.743.614-1.346 1.37-1.346.757 0 1.37.603 1.37 1.346z" fill="currentColor"/><path d="M34.613 10.823V1.176h-7.898v9.647h-5.223l9.172 9.792 9.172-9.792h-5.223" fill="currentColor"/></g></symbol><symbol viewBox="0 0 62 62" id="icon-repeat"><title>icon-repeat</title><g fill-rule="evenodd"><path d="M30.86 59.91c15.905 0 28.844-12.937 28.844-28.84 0-15.905-12.94-28.844-28.843-28.844S2.02 15.166 2.02 31.07s12.937 28.84 28.84 28.84"/><path d="M30.86 59.91c15.905 0 28.844-12.937 28.844-28.84 0-15.905-12.94-28.844-28.843-28.844S2.02 15.166 2.02 31.07s12.937 28.84 28.84 28.84z" stroke="currentColor" stroke-width="3"/><path d="M24.288 37.67c1.475 1.368 3.19 2.28 5.045 2.63v3.004h3.217v-2.978c2.712-.537 4.884-2.63 4.884-5.474 0-6.333-8.668-5.393-8.668-8.426 0-1.45 1.532-2.04 2.9-2.04 1.234 0 2.497.538 3.248 1.236l1.877-2.684c-1.394-1.02-2.788-1.53-4.24-1.69V18.35h-3.217v3.086c-2.31.644-4.187 2.414-4.187 5.017 0 2.12 1.18 3.408 2.655 4.267 2.525 1.476 6.015 1.77 6.015 4.186 0 1.368-1.13 2.36-2.74 2.36-1.715 0-3.355-.884-4.427-2.065l-2.36 2.47" fill="currentColor"/><path d="M30.95 51.078h.024c.528-.002 1.038-.067 1.555-.11.326-.027.662-.025.984-.07 5.906-.777 10.96-4.15 14.078-8.91l2.1 1.51-.835-7.1-7 1.46 2.042 1.47c-.055.086-.104.175-.16.26-.22.33-.455.652-.698.966-.157.202-.316.4-.483.595-.266.31-.542.608-.83.896-.17.17-.345.333-.52.494-.314.284-.634.56-.968.818-.176.136-.358.263-.54.39-.357.254-.72.498-1.1.72-.18.106-.367.2-.552.298-.397.21-.797.417-1.214.594-.193.082-.395.146-.59.22-.424.16-.847.315-1.286.438-.236.065-.482.104-.722.158-.414.094-.825.194-1.25.254-.475.065-.96.088-1.45.108-.203.01-.4.04-.607.042-.048 0-.096-.01-.145-.01-.88-.002-1.73-.103-2.57-.246-.31-.054-.616-.117-.92-.19-.614-.144-1.21-.333-1.795-.548-.417-.155-.827-.32-1.226-.51-.537-.253-1.058-.528-1.56-.838-.382-.238-.748-.497-1.108-.767-.294-.22-.573-.456-.85-.695-.754-.653-1.447-1.37-2.063-2.155-.092-.116-.196-.222-.284-.34-.334-.45-.63-.93-.912-1.414-1.337-2.28-2.164-4.896-2.176-7.73l-4.497.02c.04 9.158 6.232 16.834 14.638 19.175.057.017.114.03.17.044.746.2 1.507.355 2.283.47.153.02.304.047.46.067.835.103 1.682.173 2.547.17l.028-.002zM46.4 31l4.497-.018c-.04-9.158-6.23-16.834-14.638-19.175-.057-.016-.115-.027-.172-.043-.745-.2-1.506-.355-2.282-.47-.153-.02-.305-.047-.46-.067-.835-.103-1.68-.172-2.546-.168H30.748c-6.98.03-13.07 3.653-16.627 9.084l-2.09-1.504.835 7.1 7-1.46-2.06-1.484c.156-.244.296-.5.465-.734.05-.07.098-.14.15-.21.35-.472.727-.922 1.127-1.35.078-.085.157-.167.237-.25.395-.404.81-.788 1.247-1.15.106-.085.215-.167.322-.25.433-.34.88-.658 1.346-.95.136-.084.278-.16.417-.24.458-.266.925-.518 1.412-.738.176-.078.36-.14.54-.213.468-.19.94-.373 1.43-.518.248-.072.506-.116.758-.176.44-.107.88-.22 1.337-.287.526-.078 1.067-.107 1.61-.13.198-.008.39-.04.59-.043.05 0 .096.01.146.01.878.003 1.73.104 2.57.248.31.054.616.116.92.19.613.143 1.208.332 1.792.546.42.158.832.325 1.235.516.534.25 1.054.525 1.552.834.383.238.75.498 1.11.768.294.22.572.455.85.695.75.65 1.442 1.365 2.056 2.148.095.12.2.228.29.35.333.45.628.926.91 1.41C45.56 25.55 46.39 28.168 46.4 31z" fill="currentColor"/></g></symbol><symbol viewBox="0 0 18 18" id="icon-slideshow-dot"><title>Oval 11 Copy</title><circle cx="9" cy="9" r="8" fill-rule="evenodd"/></symbol><symbol viewBox="0 0 50 22" id="icon-small-chevron-mobile"><title>Small Chevron Mobile</title><path d="M0 1.022L25.015 21 50 1" fill-rule="evenodd"/></symbol><symbol viewBox="0 0 32 15" id="icon-small-chevron"><title>Small Chevron</title><path d="M1 1.013L16.01 13 31 1" fill-rule="evenodd"/></symbol><symbol viewBox="0 0 19 20" id="icon-sort"><title>sort</title><g fill-rule="evenodd"><text font-family="PostGrotesk" font-size="9" font-weight="bold"><tspan x="10.818" y="7">A</tspan> <tspan x="10.818" y="17">Z</tspan></text><path d="M3.333 16.016H1L4.05 19l3.053-2.984H4.77V1.454H3.333v14.562z"/></g></symbol><symbol viewBox="0 0 24 24" id="icon-star"><title>Star Icon</title><path d="M0 0h24v24H0z"/><path fill="currentColor" d="M12 0l2.832 9.168H24l-7.416 5.665L19.416 24 12 18.335 4.583 24l2.833-9.167L0 9.168h9.167L12 0z"/></symbol><symbol viewBox="0 0 12 7" id="icon-triangle"><title>Triangle</title><path d="M6 0l6 6.857H0" fill-rule="evenodd"/></symbol><symbol viewBox="0 0 46 46" id="icon-twitter"><title>Twitter</title><g fill-rule="evenodd"><circle stroke="currentColor" cx="22.845" cy="22.792" r="22"/><path d="M34.842 15.35c-.883.392-1.83.656-2.827.775 1.016-.61 1.797-1.574 2.165-2.723-.952.564-2.005.974-3.127 1.194-.898-.956-2.177-1.554-3.593-1.554-2.718 0-4.922 2.204-4.922 4.923 0 .385.043.76.127 1.12-4.09-.204-7.72-2.164-10.146-5.142-.425.727-.668 1.573-.668 2.475 0 1.708.87 3.215 2.19 4.097-.807-.025-1.566-.247-2.23-.616v.06c0 2.387 1.697 4.376 3.95 4.828-.414.113-.85.173-1.298.173-.317 0-.626-.03-.927-.087.627 1.955 2.445 3.38 4.6 3.418-1.686 1.322-3.808 2.11-6.115 2.11-.397 0-.79-.025-1.174-.07 2.18 1.396 4.766 2.212 7.546 2.212 9.055 0 14.006-7.5 14.006-14.007 0-.213-.004-.425-.014-.637.962-.694 1.796-1.56 2.456-2.548" fill="currentColor"/></g></symbol><symbol viewBox="0 0 29 29" id="icon-x"><title>X</title><g stroke-width="2" fill-rule="evenodd"><path d="M28 28.097l-13.526-13.55L1 28.045M1 1l13.526 13.548L28 1.053"/></g></symbol><symbol viewBox="0 0 46 46" id="icon-youtube"><title>You Tube</title><g transform="translate(0 1)" fill-rule="evenodd"><circle stroke="currentColor" cx="22.889" cy="22.329" r="22"/><path d="M34.152 30.273V14.385c0-2.24-1.704-4.056-3.807-4.056h-14.91c-2.104 0-3.808 1.815-3.808 4.055v15.888c0 2.24 1.704 4.056 3.807 4.056h14.91c2.104 0 3.808-1.817 3.808-4.057zm-12.61-16.838l-1.27 4.137v2.934H19.18v-2.802l-1.3-4.27h1.1l.71 2.828h.067l.676-2.827h1.11zm2.766 5.77c0 .447-.126.797-.377 1.05-.25.255-.596.382-1.037.382-.424 0-.764-.13-1.018-.393-.255-.262-.382-.615-.382-1.058v-2.703c0-.404.13-.726.392-.965.26-.24.61-.36 1.052-.36.4 0 .73.127.986.38.257.25.385.576.385.974v2.694zm3.59 1.3h-.97v-.575c-.178.212-.364.374-.557.485-.192.11-.38.166-.562.166-.224 0-.393-.077-.507-.232-.112-.155-.17-.388-.17-.698v-4.36h.97v3.998c0 .124.02.213.06.27.042.054.108.082.2.082.07 0 .16-.037.27-.11.108-.073.208-.167.3-.28v-3.96h.97v5.216zm2.982 6.113c.003.997-.03 1.995-.106 2.992 0 1.26-1.034 2.282-2.308 2.282-1.818.076-3.68.11-5.576.106-1.898.003-3.76-.03-5.577-.106-1.274 0-2.308-1.022-2.308-2.282-.077-.997-.11-1.995-.107-2.992-.003-.998.03-1.995.107-2.993 0-1.26 1.034-2.28 2.308-2.28 1.818-.077 3.68-.11 5.577-.107 1.897-.004 3.758.03 5.576.106 1.274 0 2.308 1.022 2.308 2.28.076 1 .11 1.996.106 2.994zm-1.685 3.168c.243-.27.364-.672.364-1.207v-.393h-1v.363c0 .307-.03.505-.095.595-.064.09-.176.135-.337.135-.154 0-.263-.054-.327-.16-.063-.106-.095-.296-.095-.57v-.984h1.854v-1.328c0-.495-.12-.874-.358-1.138-.238-.264-.58-.396-1.022-.396-.434 0-.788.143-1.062.428-.274.285-.41.653-.41 1.106v2.34c0 .503.124.898.373 1.184.25.287.592.43 1.026.43.483 0 .846-.135 1.09-.406zm-1.49-3.03v-.528c0-.218.033-.374.1-.47.068-.093.178-.14.333-.14.147 0 .255.047.322.14.068.096.1.252.1.47v.528h-.855zm-1.958 3.066c.152-.197.228-.48.228-.85v-2.895c0-.426-.08-.75-.242-.973-.162-.222-.396-.334-.703-.334-.15 0-.3.04-.446.124-.147.083-.286.204-.416.363v-2.275h-.98v7.07h.98v-.402c.127.16.265.277.414.353.148.076.317.114.507.114.286 0 .505-.098.657-.295zm-.77-.993c0 .165-.028.285-.084.358-.056.074-.143.11-.26.11-.083 0-.162-.018-.236-.056-.074-.037-.15-.098-.23-.183v-3.252c.067-.07.133-.124.2-.158.068-.034.136-.052.206-.052.13 0 .232.046.3.137.07.09.104.225.104.4v2.694zm-3.704 1.22h.97v-5.214h-.97v3.96c-.09.113-.19.206-.3.28-.11.073-.2.11-.27.11-.09 0-.157-.028-.197-.084-.04-.055-.06-.144-.06-.268v-3.998h-.97v4.36c0 .31.056.542.17.698.113.155.282.233.506.233.182 0 .37-.056.563-.167.194-.11.38-.272.558-.484v.575zM18.36 24.01h1.128v-1.026h-3.35v1.026h1.128v6.043h1.093V24.01zm4.843-4.394c.078-.08.116-.19.116-.33v-2.84c0-.114-.04-.207-.12-.277-.078-.07-.182-.105-.31-.105-.118 0-.214.035-.288.105-.074.07-.11.163-.11.276v2.84c0 .144.033.255.102.334.07.078.168.116.296.116.132 0 .236-.04.313-.12z" fill="currentColor"/></g></symbol></svg>