<svg xmlns="http://www.w3.org/2000/svg" viewBox="0 0 512 512"><g fill-rule="evenodd" stroke-width="1pt"><path d="M-85.33 0h682.65v512H-85.33z"/><path fill="#090" d="M369.76 0h227.56v512H369.76z"/><path fill="#bf0000" d="M142.22 0h227.56v512H142.22z"/></g><path d="M398.35 265.18c-.1.58 1.46 1.44 1.83 1 1.68-2.02 3.88-5.98 4.33-8.37.15-.7-2.1-1.48-2.57-.9-1.58 1.88-3.1 5.77-3.58 8.28zM188.02 387.84c-1.68 5.92-26.38-5.58-29.14-11.53 14.13 7.5 29.47 5.93 29.14 11.54zm-78.1-120.87c1.23 1.47 3.3.5 1.4-1.5-1.54-1.6-1.03-2.12-1.98-4.08-.93-2.2-.88-3.4-2-4.97-1-1.48-2.5.03-1.5 1.28 1.25 1.5.9 2.58 1.68 4 1.42 2.45 1.08 3.73 2.4 5.27zm33.2 40.12c4 1.94 7 6.82 7.2 10.8.34 4.57 1 8.44 3.05 11.7-3.27-.92-4.83-6.14-5.3-11.13-.47-5.17-3.25-7.4-4.94-11.38zm8.3 9.56c2.75 5.08 6.6 7.02 6.8 10.78.33 4.34.66 4.56 1.83 8.82-3.23-.86-4.05-1.14-4.92-7.63-.54-4.56-4.2-7.78-3.7-11.97z" fill-rule="evenodd" stroke="#000" stroke-width=".97" fill="#fff"/><path stroke-linejoin="round" d="M215.67 343.95c4.2 3.45 6.94 7.38 8.2 12.47 1.34 4.73 3.2 8.5 5.95 12.77-4.46-3.05-7.27-7.2-8.67-12.17-1.23-4.9-2.7-8.57-5.48-13.08zm78.77 0c-4.3 3.47-7.1 7.42-8.4 12.54-1.35 4.76-3.26 8.56-6.06 12.84 4.56-3.06 7.43-7.22 8.86-12.24 1.26-4.93 2.75-8.6 5.6-13.15zm-5.3 0c-4.6 3.62-8.95 7.73-10.26 12.85-1.35 4.76-2.17 8.4-5.28 13.15 4.87-3.06 6.8-7.68 8.24-12.7 1.26-4.92 4.14-8.6 7.3-13.3zm-52.12 19.68c1.55 2.9 3.32 7.35 6.54 6.53.05-2.23-3.47-3.77-6.53-6.53zm4.8 1c6.26 2.55 11.65 1.92 12.33 5.85-5.86.63-8-1.78-12.32-5.86zm30.65-.6c-1.57 2.73-3.37 6.9-6.63 6.15-.05-2.1 3.52-3.56 6.62-6.17zm-4.38.82c-6.35 2.43-11.83 1.83-12.5 5.56 5.94.6 8.1-1.67 12.5-5.55z" fill-rule="evenodd" stroke="#000" stroke-width=".97" fill="#fff"/><path d="M273.87 355.96c.12-.9-.48-1.67-1.2-1.9-1.43-.53-2.84-.97-4.25-1.37-1.6-.4-2.5.76-2.5 1.5 0 1.26-.07 2.33 0 3.28.1 1.18.3 1.27 1.06 1.44 1.2.2 2.73.4 3.94 1.22.95.6 1.87.12 2.34-.9.3-.8.48-2.35.6-3.28zm-17.23 0c-.1-.9.36-1.74 1-1.98 1.27-.53 2.54-.66 3.87-.6 1.5-.03 1.86.3 1.86 1.06 0 1.25.06 2.47 0 3.42-.08 1.18-.05 1.27-.72 1.44-1.07.2-2.9.26-3.97 1.07-.85.6-1.82.12-1.87-1 .03-.82-.04-2.47-.16-3.4zm-20.9-.24c-.13-.9.48-1.66 1.22-1.9 1.42-.53 2.84-.96 4.25-1.36 1.62-.38 2.52.76 2.52 1.52 0 1.25.07 2.32 0 3.26-.08 1.2-.3 1.27-1.06 1.45-1.2.2-2.75.4-3.95 1.2-.95.6-1.87.13-2.35-.9-.3-.8-.48-2.34-.6-3.28zm17.3 0c.1-.9-.36-1.74-1-1.97-1.28-.54-2.55-.67-3.9-.6-1.47-.04-1.85.3-1.85 1.05-.02 1.26-.07 2.47 0 3.42.07 1.2.04 1.27.7 1.45 1.1.2 2.92.25 4 1.06.85.6 1.83.12 1.87-.98-.02-.84.05-2.5.17-3.43zm-67.57-117.2c-2-3.23-4.42 4.48-12.7 10.2-3.84 2.63-6.52 9.6-6.55 14.2-.12 3.16.35 6.3 0 9.36-.22 1.93-2.23 6.22-.86 7.3 3.64 2.72 8.35 8.86 10.54 10.98 1.9 1.66 3.53-8.55 4.95-13.12 1.52-4.9.84-10.74 5.05-15.27 3-3.05 10.53-6.05 9.68-7.42l-10.1-16.23z" fill-rule="evenodd" stroke="#000" stroke-width=".97" fill="#fff"/><path d="M185.47 238.52c-2-3.23-4.42 4.48-12.7 10.2-3.84 2.63-6.52 9.6-6.55 14.2-.12 3.16.35 6.3 0 9.36-.22 1.93-2.23 6.22-.86 7.3 3.64 2.72 8.35 8.86 10.54 10.98 1.9 1.66 3.53-8.55 4.95-13.12 1.52-4.9.84-10.74 5.05-15.27 3-3.05 10.53-6.05 9.68-7.42l-10.1-16.23z" fill-rule="evenodd" fill="#fff"/><path d="M173.25 248.07c-.8 5.47 2.25 7.3 5.13 8.35 2.97 1.06 5.4 4.25 6.66 7.13m-19.15 2.53c1.24 4.7 4.54 4.12 7.42 5.18 2.97 1.06 6.1 4.82 7.36 7.7" stroke="#000" stroke-width=".49" fill="none"/><path d="M182.7 235.2l1.5-.98 28.9 48.7-1.5.98-28.9-48.7z" fill-rule="evenodd" stroke="#000" stroke-width=".97" fill="#fff"/><path d="M182.7 235.2l1.5-.98 28.9 48.7-1.5.98-28.9-48.7z" fill-rule="evenodd" fill="#fff"/><path d="M185.8 233.26c0 1.84-1.5 3.34-3.33 3.34s-3.34-1.5-3.34-3.34 1.5-3.33 3.34-3.33c1.84 0 3.33 1.5 3.33 3.33z" fill-rule="evenodd" stroke="#000" stroke-width=".97" fill="#fff"/><path d="M185.8 233.26c0 1.84-1.5 3.34-3.33 3.34s-3.34-1.5-3.34-3.34 1.5-3.33 3.34-3.33c1.84 0 3.33 1.5 3.33 3.33z" fill-rule="evenodd" fill="#fff"/><path d="M274.8 144.77c-1.04-1.66-2.28 2.3-6.53 5.25-1.98 1.34-3.35 4.93-3.37 7.3-.06 1.6.18 3.23 0 4.8-.1 1-1.15 3.2-.44 3.76 1.87 1.4 4.3 4.54 5.4 5.63.98.86 1.83-4.38 2.55-6.73.8-2.52.45-5.52 2.6-7.84 1.55-1.57 5.42-3.12 4.98-3.82l-5.2-8.33z" fill-rule="evenodd" transform="matrix(-1.9453 0 0 2.0144 859.5 -52.13)" stroke="#000" stroke-width=".49" fill="#fff"/><path d="M324.94 239.5c2-3.35 4.42 4.63 12.68 10.57 3.85 2.7 6.53 9.93 6.56 14.7.12 3.25-.35 6.5 0 9.67.22 2 2.23 6.43.86 7.57-3.64 2.8-8.35 9.17-10.53 11.36-1.88 1.7-3.52-8.85-4.94-13.58-1.52-5.06-.84-11.12-5.05-15.8-2.97-3.16-10.5-6.27-9.66-7.68l10.1-16.8z" fill-rule="evenodd" fill="#fff"/><path d="M273.36 143.06l.77-.5L289 167.6l-.78.5-14.86-25.04z" fill-rule="evenodd" transform="matrix(-1.9453 0 0 2.0144 859.5 -52.13)" stroke="#000" stroke-width=".49" fill="#fff"/><path d="M268.43 149.76c-.4 2.8 1.24 3.67 2.7 4.2 1.54.55 2.87 2.07 3.52 3.56" transform="matrix(-1.9453 0 0 2.0144 859.5 -52.13)" stroke="#000" stroke-width=".25" fill="none"/><path d="M267.35 151.26c.65 2.42 2.26 2 3.74 2.55 1.52.55 3.13 2.33 3.77 3.8" transform="matrix(-1.9453 0 0 2.0144 864.43 -36.44)" stroke="#000" stroke-width=".25" fill="none"/><path d="M327.73 236.05l-1.5-1-28.92 50.4 1.52 1 28.9-50.4z" fill-rule="evenodd" fill="#fff"/><path d="M274.96 142.07c0 .95-.77 1.7-1.7 1.7-.96 0-1.73-.75-1.73-1.7s.77-1.7 1.72-1.7c.94 0 1.7.75 1.7 1.7z" fill-rule="evenodd" transform="matrix(-1.9453 0 0 2.0144 859.5 -52.13)" stroke="#000" stroke-width=".49" fill="#fff"/><path d="M324.6 234.06c0 1.9 1.5 3.45 3.34 3.45s3.34-1.54 3.34-3.44-1.5-3.45-3.34-3.45c-1.84 0-3.33 1.55-3.33 3.46z" fill-rule="evenodd" fill="#fff"/><g fill-rule="evenodd" fill="#fff"><path stroke="#000" stroke-width=".97" d="M210.5 194.12h11.73v2.7H210.5zm0 5.08h11.73v22.46H210.5zm-.7-8.15l13 .07c.52-4.4-3.88-9.17-6.45-9.12-2.54.13-6.64 4.82-6.54 9.05zm77.7 3.13h11.73v2.7H287.5zm0 5.1h11.73v22.46H287.5zm-.7-8.16l13 .08c.5-4.4-3.9-9.17-6.46-9.12-2.54.12-6.64 4.8-6.54 9.04z"/><path d="M210.5 194.12h11.73v2.7H210.5zm0 5.08h11.73v22.46H210.5zm-.7-8.15l13 .07c.52-4.4-3.88-9.17-6.45-9.12-2.54.13-6.64 4.82-6.54 9.05zm77.7 3.13h11.73v2.7H287.5zm0 5.1h11.73v22.46H287.5zm-.7-8.16l13 .08c.5-4.4-3.9-9.17-6.46-9.12-2.54.12-6.64 4.8-6.54 9.04z"/></g><path fill-rule="evenodd" fill="#fff" d="M287.5 199.28h11.73v22.46H287.5zm0-5.1h11.73v2.7H287.5zm-.7-3.05l13 .07c.52-4.4-3.88-9.17-6.45-9.12-2.54.12-6.64 4.8-6.54 9.04zm-76.3 8.07h11.73v22.46H210.5zm0-5.08h11.73v2.7H210.5zm-.7-3.07l13 .07c.52-4.4-3.88-9.17-6.45-9.12-2.54.13-6.64 4.82-6.54 9.05z"/><g fill-rule="evenodd" fill="#fff"><path d="M200.76 225.48l7.46 8.2 92.75.16 7.6-8.2-23.7-.3-11.57-8.07-37.26-.15-10.8 8.36h-24.48z" stroke="#000" stroke-width=".97"/><path d="M200.76 225.48l7.46 8.2 92.75.16 7.6-8.2-23.7-.3-11.57-8.07-37.26-.15-10.8 8.36h-24.48z"/></g><path d="M238.74 212.8l32.03-.03c4.33-2.3 5.7-9.6 5.66-13.7-.06-12.1-8.52-17.9-17.02-18.22-1.26-.07-2.74-1.06-3.07-2.22-.84-2.63-.62-9.47-1.54-9.37-.83-.02-.6 6.7-1.32 9.16-.4 1.22-1.77 2.43-3.15 2.5-10.57.53-17.4 8.25-17.12 18.14.2 6.54.95 10.45 5.53 13.75z" stroke="#000" stroke-width=".97" fill="none"/><path d="M238.74 212.8l32.03-.03c4.33-2.3 5.7-9.6 5.66-13.7-.06-12.1-8.52-17.9-17.02-18.22-1.26-.07-2.74-1.06-3.07-2.22-.84-2.63-.62-9.3-1.54-9.37-.67.06-.6 6.7-1.32 9.16-.4 1.22-1.77 2.43-3.15 2.5-10.57.53-17.4 8.25-17.12 18.14.2 6.54.95 10.45 5.53 13.75z" fill-rule="evenodd" fill="#fff"/><path d="M236.73 202.14c.8 4 2.73 3.38 2.6 1.45-.5-6.17 0-12.24 5.46-16.28 1.72-1.27-.2-2.44-1.68-1.83-4.63 1.94-7.44 10.87-6.4 16.64z" stroke="#000" stroke-width=".49" fill="none"/><path d="M242.12 204.65c.8 4 4.1 3.82 3.5 1.22-1.24-4.97-1.04-12.22 3.34-15.36 1.73-1.25-.2-2.42-1.67-1.8-4.64 1.94-6.24 10.18-5.18 15.95z" stroke="#000" stroke-width=".49" fill="none"/><path d="M301.46 125.42c.4 2.05 1.4 1.74 1.33.74-.25-3.16 0-6.28 2.8-8.36.9-.65-.1-1.25-.86-.93-2.38 1-3.82 5.6-3.28 8.55z" transform="matrix(-1.9484 0 0 1.9463 860.37 -41.8)" stroke="#000" stroke-width=".25" fill="none"/><path d="M302.08 125.07c.4 2.05 2.1 1.96 1.8.63-.64-2.56-.54-6.3 1.72-7.9.9-.64-.1-1.24-.86-.93-2.38 1-3.2 5.24-2.66 8.2z" transform="matrix(-1.9484 0 0 1.9463 856.18 -38.62)" stroke="#000" stroke-width=".25" fill="none"/><g fill-rule="evenodd" fill="#fff"><path d="M186 330.25h137.63L311.3 320.2H198.34L186 330.26z" stroke="#000" stroke-width=".97"/><path d="M186 330.25h137.63L311.3 320.2H198.34L186 330.26z"/></g><g fill="#fff" fill-rule="evenodd"><g stroke="#000" stroke-width=".5"><path d="M209.9 239.94h13.07v18.1H209.9zm.75 28.43h12.62v3.8h-12.62zm-.3 6.68h12.94v14.14h-12.94zm-.9 17.03h14.14v7.9h-14.16zm1.73-27.1h11.4l2.25-3.77h-15.7l2.05 3.77zm15.37-13.87l.1-9.88h7.86c-3.08 2.54-5.94 5.63-7.95 9.9zm72.9-11.16h-12.87v18.1h12.86zm-.22 28.43h-12.4v3.8h12.4zm.23 6.68h-12.63v14.14h12.63zm.82 17.03h-13.9v7.9h13.9z" stroke-width=".97"/><path d="M288.44 157.7h5.86l1.16-1.93h-8.07l1.04 1.93z" transform="matrix(-1.9134 0 0 1.9463 850.1 -41.96)"/><path d="M296.23 150.58l.06-5.08h4.02c-1.6 1.3-3.06 2.9-4.1 5.08z" transform="matrix(-1.9134 0 0 1.9463 849.9 -41.96)"/></g><path d="M209.9 239.94h13.07v18.1H209.9zm.75 28.43h12.62v3.8h-12.62zm-.3 6.68h12.94v14.14h-12.94zm-.9 17.03h14.14v7.9h-14.16zm1.73-27.1h11.4l2.25-3.77h-15.7l2.05 3.77zm15.37-13.87l.1-9.88h7.86c-3.08 2.54-5.94 5.63-7.95 9.9zm72.9-11.16h-12.87v18.1h12.86zm-.22 28.43h-12.4v3.8h12.4zm.23 6.68h-12.63v14.14h12.63zm.82 17.03h-13.9v7.9h13.9zm-2.1-27.1H287l-2.2-3.77h15.42l-2 3.77zm-15.1-13.87l-.1-9.88h-7.73c3.03 2.54 5.85 5.63 7.82 9.9z"/></g><path d="M211.92 255.16c.07 2.12 2.47 1.17 2.47.1 0-3.26.03-6.8-.1-9.1 0-1.7 4.06-1.27 4.04-.23 0 2.76.04 6.54.06 9.76-.03 1.57 2.63 1.43 2.6 0-.02-3.6-.03-8.84 0-11.5 0-3.4-8.97-3.33-9.04-.07 0 2.68-.05 7.48-.05 11.03zm76.94.38c.08 2.12 2.47 1.17 2.47.1 0-3.26.05-6.8-.08-9.1-.02-1.7 4.05-1.27 4.03-.22l.06 9.76c-.03 1.57 2.56 1.43 2.52 0 0-3.68.06-8.84.08-11.5.02-3.4-8.97-3.33-9.04-.07 0 2.7-.05 7.5-.04 11.04zm-76.9 21.18h9.27v11.56h-9.28z" stroke="#000" stroke-width=".49" fill="none"/><path fill-rule="evenodd" d="M217.9 281.5h3.26v1.9h-3.27zm-5.72 0h3.2v1.9h-3.2zM215.38 276.88h2.5v4.7h-2.5zm0 6.46h2.5v5.02h-2.5z"/><path stroke="#000" stroke-width=".49" fill="none" d="M288.6 276.65h9.26v11.56h-9.27z"/><path fill-rule="evenodd" d="M294.52 281.44h3.27v1.9h-3.28zm-5.7 0h3.2v1.9h-3.2z"/><path fill-rule="evenodd" d="M292 276.8h2.52v4.72h-2.5zm0 6.46h2.52v5.02h-2.5z"/><path fill-rule="evenodd" stroke="#000" stroke-width=".97" fill="#fff" d="M280.15 277.33h1.6v11.48h-1.6z"/><path d="M249.13 292.55l2.5 7.52h5.7l-4.55-7.53h-3.65zm-3.2 7.52l1.45 7.45 6.7.08-2.44-7.53h-5.7zm11.33.08l4.64 7.37h9.5l-7.44-7.45-6.7.08zm-56.1 16.88c5.04-4.7 8.25-8.7 8.28-14.45h12.32c.02 3.22 1.2 5.15 2.97 5.02l12.47-.08-.08-7.37h-9.05v-40.22c-.33-14.22 17.28-22.5 24.48-22.43l-42.8-.08v-1.3h90.02l.08 1.3-43.42.08c12.88.02 25.3 12.2 25.4 22.5v11.4h-1.68l-.07-11.25c0-11.25-14.18-21.77-25.55-21.44-9.83.3-25.1 9.67-24.94 21.38v3.5l23.33.15-.22 4.03 3.67 2.34 7.3 2.33-.1 6.04 5.24 1.54.06 6.05 6.28 2.7V295l3.98 2.45-.18 6.35 5.4 3.8h-12.78l7.98 8.9h-11.78l-5.86-8.9h-7.75l3.5 8.82-8.3-.08-1.97-8.74h-10.1l.06 9.42h-36.2zm36.1-24.4v7.44h8.68l-1.76-7.45h-6.9z" fill-rule="evenodd" stroke="#000" stroke-width=".97" fill="#fff"/><path d="M249.13 292.55l2.5 7.52h5.7l-4.55-7.53h-3.65zm-3.2 7.52l1.45 7.45 6.7.08-2.44-7.53h-5.7zm11.33.08l4.64 7.37h9.5l-7.44-7.45-6.7.08zm-56.1 16.88c5.04-4.7 8.25-8.7 8.28-14.45h12.32c.02 3.22 1.2 5.15 2.97 5.02l12.47-.08-.08-7.37h-9.05v-40.22c-.33-14.22 17.28-22.5 24.48-22.43l-42.8-.08v-1.3h90.02l.08 1.3-43.42.08c12.88.02 25.3 12.2 25.4 22.5v11.4h-1.68l-.07-11.25c0-11.25-14.18-21.77-25.55-21.44-9.83.3-25.1 9.67-24.94 21.38v3.5l23.33.15-.22 4.03 3.67 2.34 7.3 2.33-.1 6.04 5.24 1.54.06 6.05 6.28 2.7V295l3.98 2.45-.18 6.35 5.4 3.8h-12.78l7.98 8.9h-11.78l-5.86-8.9h-7.75l3.5 8.82-8.3-.08-1.97-8.74h-10.1l.06 9.42h-36.2zm36.1-24.4v7.44h8.68l-1.76-7.45h-6.9z" fill-rule="evenodd" fill="#fff"/><path stroke="#000" stroke-width=".48" fill="none" d="M237.72 279.47h5.4v12.4h-5.4z"/><path d="M298.05 171.73h2.7v-4.6c-.04-2 1.78-4 2.66-4.07.98-.04 2.4 1.88 2.46 3.92l.04 4.76h2.87V159.9l-10.72.06v11.77z" transform="matrix(1.9463 0 0 1.9848 -350 -48.13)" stroke="#000" stroke-width=".25" fill="none"/><path stroke="#000" stroke-width=".48" fill="none" d="M271.78 298.17h6.54v5.1h-6.54zm-3.87-8.76h6.55v5.1h-6.54zm-6.3-8.73h6.54v5.1h-6.54zm-5.4-7.37h6.53v5.1h-6.54z"/><path d="M251.87 292.76l6.7.23 11.93 10.56v-6.24l-4.03-2.9v-4.93l-5.85-3.35v-5.33l-5.7-1.9v-7.22l-2.9-2.36-.15 23.42z" stroke="#000" stroke-width=".49" fill="none"/><path fill-rule="evenodd" fill="#fff" d="M280.15 277.33h1.6v11.48h-1.6z"/><g stroke-linejoin="round" fill-rule="evenodd" stroke="#000" stroke-width=".97" fill="#fff"><path d="M163.75 161.05c.58 9.07-2.23 14.05-7.03 13.3-1.33-5.04 1.68-8.42 7.03-13.3zm-10.56 20.1c-4.27-2.2-1.2-18.77.45-25.72 1.2 8.95 3.23 21.68-.46 25.7z"/><path d="M154.72 181.93c7.18 2.5 12.86-5.23 14.8-14.2-5.94 8.2-15.58 8.2-14.8 14.2zm-5.44 8.36c-5.62-1.5-2.24-19.1-1.22-26.13 1.24 7.27 5.1 23.7 1.22 26.12zm1.9-.55c.33-6.07 6.38-4.3 10.55-7.55-.68 3.03-3.25 8.4-10.53 7.55zm-6.86 8.13c-5.56-1.5-2.22-20.44-2.53-28.23 1.62 6.73 6.78 26.4 2.52 28.23zm2.6-.83c4.57 1.48 10.6-1.48 11.08-6.9-3.93 2.66-10.2.62-11.07 6.9z"/><path d="M140.17 206.24c-5.32.42-2.94-15.7-2.94-30.73 1.96 14.05 7.28 26.9 2.94 30.74z"/><path d="M142.02 205.5c3.6 1.8 10.03-1.07 11.86-7.14-6.5 2.82-10.83.07-11.86 7.15z"/></g><g fill-rule="evenodd" fill="#fff"><path d="M163.75 161.05c.58 9.07-2.23 14.05-7.03 13.3-1.33-5.04 1.68-8.42 7.03-13.3zm-10.56 20.1c-4.27-2.2-1.2-18.77.45-25.72 1.2 8.95 3.23 21.68-.46 25.7z"/><path d="M154.72 181.93c7.18 2.5 12.86-5.23 14.8-14.2-5.94 8.2-15.58 8.2-14.8 14.2zm-5.44 8.36c-5.62-1.5-2.24-19.1-1.22-26.13 1.24 7.27 5.1 23.7 1.22 26.12zm1.9-.55c.33-6.07 6.38-4.3 10.55-7.55-.68 3.03-3.25 8.4-10.53 7.55zm-6.86 8.13c-5.56-1.5-2.22-20.44-2.53-28.23 1.62 6.73 6.78 26.4 2.52 28.23zm2.6-.83c4.57 1.48 10.6-1.48 11.08-6.9-3.93 2.66-10.2.62-11.07 6.9z"/><path d="M140.17 206.24c-5.32.42-2.94-15.7-2.94-30.73 1.96 14.05 7.28 26.9 2.94 30.74z"/><path d="M142.02 205.5c3.6 1.8 10.03-1.07 11.86-7.14-6.5 2.82-10.83.07-11.86 7.15z"/></g><g stroke-linejoin="round" fill-rule="evenodd" stroke="#000" stroke-width=".97" fill="#fff"><path d="M183.77 169.44c-.94 7.87-4.16 12.45-8.96 11.7-1.32-5.04 2.58-8.25 8.97-11.7zm-12.7 20.2c7.97 1.14 10.85-5 16.22-12.82-7.54 5.45-16.54 6.58-16.24 12.83z"/><path d="M168.8 188.73c-4.34-5.22-.14-11.77 3.18-17.36-.7 8.3 2.12 12.93-3.17 17.36zm-1.92 8.62c-.5-5.1 8.2-6.24 12.14-9.07-1.32 2.95-3.33 10.9-12.14 9.07z"/><path d="M165.05 197.47c-6-.68-3.52-10.9.8-16.57-1.82 7.83 3.17 13.28-.8 16.57z"/><path d="M160.5 205.98c-6.83-3.03-2.44-11.62.13-16.68-1.1 6.65 4.38 11.72-.12 16.68z"/><path d="M161.88 205.18c3.6 4.7 10.6-1.4 12.03-8.5-6.1 5.06-10.6 4.22-12.02 8.5z"/></g><g fill-rule="evenodd" fill="#fff"><path d="M183.77 169.44c-.94 7.87-4.16 12.45-8.96 11.7-1.32-5.04 2.58-8.25 8.97-11.7zm-12.7 20.2c7.97 1.14 10.85-5 16.22-12.82-7.54 5.45-16.54 6.58-16.24 12.83z"/><path d="M168.8 188.73c-4.34-5.22-.14-11.77 3.18-17.36-.7 8.3 2.12 12.93-3.17 17.36zm-1.92 8.62c-.5-5.1 8.2-6.24 12.14-9.07-1.32 2.95-3.33 10.9-12.14 9.07z"/><path d="M165.05 197.47c-6-.68-3.52-10.9.8-16.57-1.82 7.83 3.17 13.28-.8 16.57z"/><path d="M160.5 205.98c-6.83-3.03-2.44-11.62.13-16.68-1.1 6.65 4.38 11.72-.12 16.68z"/><path d="M161.88 205.18c3.6 4.7 10.6-1.4 12.03-8.5-6.1 5.06-10.6 4.22-12.02 8.5z"/></g><g stroke-linejoin="round" fill-rule="evenodd" stroke="#000" stroke-width=".97" fill="#fff"><path d="M326.65 170.22c.9 4.1 1.14 12.15 8.4 10.56 1.06-7.5-5.03-7.83-8.4-10.56z"/><path d="M339 189.53c-.25-7.72-8.58-6.02-15.76-12.37 1.97 6.7 8.93 14.87 15.77 12.37z"/><path d="M340.72 188.62c4.88-3.37 1.14-10.7-3.4-17.14 1.7 7-2.04 13.43 3.4 17.14zm2.14 8.74c-7.86.6-9.26-3.33-12.37-8.4 5.36 3.48 12.55 1.28 12.36 8.4zm1.95.23c-3.74-3.08.92-9.66-.67-16.24 2.95 4.16 7.5 14.1.68 16.23z"/><path d="M348.1 205.74c-7.87 1.85-10.4-2.3-12.37-9.3 6.4 5.86 9.95 3.1 12.37 9.3z"/><path d="M349.23 205.65c5.48-.08 3.02-10.93.22-15.9.76 6-4.04 12.87-.22 15.9z"/></g><g fill-rule="evenodd" fill="#fff"><path d="M326.65 170.22c.9 4.1 1.14 12.15 8.4 10.56 1.06-7.5-5.03-7.83-8.4-10.56z"/><path d="M339 189.53c-.25-7.72-8.58-6.02-15.76-12.37 1.97 6.7 8.93 14.87 15.77 12.37z"/><path d="M340.72 188.62c4.88-3.37 1.14-10.7-3.4-17.14 1.7 7-2.04 13.43 3.4 17.14zm2.14 8.74c-7.86.6-9.26-3.33-12.37-8.4 5.36 3.48 12.55 1.28 12.36 8.4zm1.95.23c-3.74-3.08.92-9.66-.67-16.24 2.95 4.16 7.5 14.1.68 16.23z"/><path d="M348.1 205.74c-7.87 1.85-10.4-2.3-12.37-9.3 6.4 5.86 9.95 3.1 12.37 9.3z"/><path d="M349.23 205.65c5.48-.08 3.02-10.93.22-15.9.76 6-4.04 12.87-.22 15.9z"/></g><g stroke-linejoin="round" fill-rule="evenodd" stroke="#000" stroke-width=".97" fill="#fff"><path d="M345.87 161.1c1 4.54-.9 13.5 6.35 13.44 3.03-5.13-3.44-9.96-6.35-13.44z"/><path d="M356.78 181.37c4.57-3.14.45-13.44-.97-25.04-1.1 10.34-3.56 21.63.98 25.04z"/><path d="M354.32 182.16c.57-5.67-8.36-6.93-14.48-14.42 1.6 6 6.1 14.8 14.48 14.42zm6.1 8.83c-4.8-4.37.9-16.88 1.14-26.58.75 8.95 4.68 24.98-1.14 26.57zm-2.73-1.27c-7.04.45-8.9-4.7-9.72-7.64 3.78 2.7 9.74 1.43 9.7 7.63zm7.05 7.76c5.4-.24 3.4-20.75 2.66-27.23-.53 6.9-6.17 24.72-2.65 27.22zm-2.38-.38c-4.67.72-9.4-2-10.7-6.64 4.04 1.76 10.7.37 10.7 6.64z"/><path d="M369.1 206c5.78 2.37 3.7-24.38 2.96-30.55-.54 7.88-7.4 27.23-2.97 30.56z"/><path d="M367.74 206c-5.82.87-10.1-2.68-11.76-7.55 5.93 2.22 10.55 1.43 11.76 7.56z"/></g><g fill-rule="evenodd" fill="#fff"><path d="M363.55 237.72c.72-7-4.63-19.7-.83-26.46.5-.93-1.14-3.4-2.2-1.9-1.68 2.4-3.4 9.2-4.1 6.7-.77-2.74-.9-7.6-3.36-8.53-1.57-.55-3.8-.9-3.2 1.53.6 2.34 1.96 5.57.46 5.78-.87.12-3.37-3.2-5.47-4.72-1.7-1.36-4.23.77-1.75 2.8 8.06 6.6 15.88 9.55 20.45 24.8z" stroke="#000" stroke-width=".97"/><path d="M363.55 237.72c.72-7-4.63-19.7-.83-26.46.5-.93-1.14-3.4-2.2-1.9-1.68 2.4-3.4 9.2-4.1 6.7-.77-2.74-.9-7.6-3.36-8.53-1.57-.55-3.8-.9-3.2 1.53.6 2.34 1.96 5.57.46 5.78-.87.12-3.37-3.2-5.47-4.72-1.7-1.36-4.23.77-1.75 2.8 8.06 6.6 15.88 9.55 20.45 24.8z"/></g><g fill-rule="evenodd" fill="#fff"><path d="M345.87 161.1c1 4.54-.9 13.5 6.35 13.44 3.03-5.13-3.44-9.96-6.35-13.44z"/><path d="M356.78 181.37c4.57-3.14.45-13.44-.97-25.04-1.1 10.34-3.56 21.63.98 25.04z"/><path d="M354.32 182.16c.57-5.67-8.36-6.93-14.48-14.42 1.6 6 6.1 14.8 14.48 14.42zm6.1 8.83c-4.8-4.37.9-16.88 1.14-26.58.75 8.95 4.68 24.98-1.14 26.57zm-2.73-1.27c-7.04.45-8.9-4.7-9.72-7.64 3.78 2.7 9.74 1.43 9.7 7.63zm7.05 7.76c5.4-.24 3.4-20.75 2.66-27.23-.53 6.9-6.17 24.72-2.65 27.22zm-2.38-.38c-4.67.72-9.4-2-10.7-6.64 4.04 1.76 10.7.37 10.7 6.64z"/><path d="M369.1 206c5.78 2.37 3.7-24.38 2.96-30.55-.54 7.88-7.4 27.23-2.97 30.56z"/><path d="M367.74 206c-5.82.87-10.1-2.68-11.76-7.55 5.93 2.22 10.55 1.43 11.76 7.56z"/></g><g fill-rule="evenodd" fill="#fff"><path d="M244.38 141.1c-1.02-1.07-.72-1.48.78-1.5 1.2-.07 3.56.73 4.46.08.82-.6.5-3.13.86-4.3.16-.64.6-1.67 1.64-.07 3.03 4.87 6.82 10.7 8.43 16.4.9 3.22.45 8.38-2.97 11.1l-2.42-7.03c-1.15-3.34-7.35-11.36-10.78-14.68z" transform="matrix(-1.937 0 0 1.9463 857.17 -41.53)" stroke="#000" stroke-width=".5"/><path d="M383.8 233.07c1.97-2.07 1.4-2.86-1.5-2.9-2.32-.14-6.9 1.43-8.63.16-1.6-1.16-.96-6.1-1.67-8.36-.3-1.27-1.2-3.26-3.18-.16-5.87 9.47-13.2 20.82-16.34 31.95-1.72 6.23-.86 16.27 5.75 21.6l4.7-13.7c2.22-6.5 14.22-22.12 20.87-28.58z"/></g><g stroke-linejoin="round" fill-rule="evenodd" stroke="#000" stroke-width=".97" fill="#fff"><path d="M390.38 216.06c-2.65 8.5-4.24 15.48-.42 16.3 4.1-.7 2.3-8.93.42-16.3zm-.27 23.9c4.36 2.3 9.05-8.8 8.08-17.54-2.2 7.5-9.58 12.12-8.07 17.53zm-1.6-.24c.67-6.05-1.82-5.9-5.07-11.68.34 6.54 1.97 12 5.06 11.68z"/><path d="M389.93 248.6c5.08 1.44 10.9-10.66 10.7-19.6-2.13 9.9-13.16 13.85-10.7 19.6z"/><path d="M388.27 248.37c2.04-4.7-2.12-4.12-4.87-12.52-.92 8.7.4 12.66 4.87 12.52zm1.48 9.12c6.6 1.12 10-13.43 13.27-20.4-6.5 9.13-14.26 14.22-13.27 20.4z"/><path d="M388.2 257c1.94-5.38-3.5-5.08-6.38-13.1.46 10.18 1.78 13.85 6.4 13.1zm1.9 9.24c4.18.3 11.68-11.34 11.84-18.54-3.56 7.92-14.74 13.17-11.82 18.54z"/><path d="M387 264.9c1.74-5.6-3.1-5.64-5.25-11.9-.15 9.44 1.33 12.65 5.26 11.9zm.17 10.1c7.35 1.27 9.23-8.42 13.57-18.28-4.28 7.84-13.95 12.25-13.57 18.26z"/><path d="M386.65 273.64c2.38-5.07-3.14-5.07-6.1-12.64-.14 10.7 1.7 13.85 6.1 12.64z"/></g><g fill-rule="evenodd" fill="#fff"><path d="M390.38 216.06c-2.65 8.5-4.24 15.48-.42 16.3 4.1-.7 2.3-8.93.42-16.3zm-.27 23.9c4.36 2.3 9.05-8.8 8.08-17.54-2.2 7.5-9.58 12.12-8.07 17.53zm-1.6-.24c.67-6.05-1.82-5.9-5.07-11.68.34 6.54 1.97 12 5.06 11.68z"/><path d="M389.93 248.6c5.08 1.44 10.9-10.66 10.7-19.6-2.13 9.9-13.16 13.85-10.7 19.6z"/><path d="M388.27 248.37c2.04-4.7-2.12-4.12-4.87-12.52-.92 8.7.4 12.66 4.87 12.52zm1.48 9.12c6.6 1.12 10-13.43 13.27-20.4-6.5 9.13-14.26 14.22-13.27 20.4z"/><path d="M388.2 257c1.94-5.38-3.5-5.08-6.38-13.1.46 10.18 1.78 13.85 6.4 13.1zm1.9 9.24c4.18.3 11.68-11.34 11.84-18.54-3.56 7.92-14.74 13.17-11.82 18.54z"/><path d="M387 264.9c1.74-5.6-3.1-5.64-5.25-11.9-.15 9.44 1.33 12.65 5.26 11.9zm.17 10.1c7.35 1.27 9.23-8.42 13.57-18.28-4.28 7.84-13.95 12.25-13.57 18.26z"/><path d="M386.65 273.64c2.38-5.07-3.14-5.07-6.1-12.64-.14 10.7 1.7 13.85 6.1 12.64z"/></g><g fill-rule="evenodd" fill="#fff"><path d="M256.8 166.87c3.34.02 4-4.7 4-5.94-1.64.3-4.6 3.28-4 5.94z" transform="matrix(-1.937 0 0 1.9463 857.4 -41.8)" stroke="#000" stroke-width=".5"/><path d="M359.93 282.97c-6.46.03-7.72-9.12-7.72-11.56 3.2.62 8.94 6.4 7.73 11.57z"/></g><g stroke-linejoin="round" fill-rule="evenodd" stroke="#000" stroke-width=".97" fill="#fff"><path d="M372.84 241.38c-2.65 8.5-3.7 12.6-.12 15.32 4.7-2.6 2-7.94.12-15.32zm-1.48 22.25c1.97-6.28-2.88-7.8-5.45-14.87-.25 9.34 1.07 16.2 5.46 14.87z"/><path d="M373.3 264.98c3.43 1.32 7.67-6.66 5.32-14.64-2.42 7.2-8.36 8.93-5.33 14.64zm-3.65 7.16c3.33-5.15-1.96-5.4-4.65-12.6-.15 9.46.72 13.35 4.65 12.6z"/><path d="M369.66 281c2.54-5.84-3-5.08-6.24-12.27-.15 10.7 1.63 13 6.24 12.26zm2.5-8.53c2.87.08 8.47-4.95 6.8-11.23-2.4 5.26-9.26 4.72-6.8 11.23z"/><path d="M371.36 280.07c4.7.98 8.25-6.2 7.72-11.12-3.67 4.58-8.7 4.95-7.72 11.12z"/></g><g fill-rule="evenodd" fill="#fff"><path d="M372.84 241.38c-2.65 8.5-3.7 12.6-.12 15.32 4.7-2.6 2-7.94.12-15.32zm-1.48 22.25c1.97-6.28-2.88-7.8-5.45-14.87-.25 9.34 1.07 16.2 5.46 14.87z"/><path d="M373.3 264.98c3.43 1.32 7.67-6.66 5.32-14.64-2.42 7.2-8.36 8.93-5.33 14.64zm-3.65 7.16c3.33-5.15-1.96-5.4-4.65-12.6-.15 9.46.72 13.35 4.65 12.6z"/><path d="M369.66 281c2.54-5.84-3-5.08-6.24-12.27-.15 10.7 1.63 13 6.24 12.26zm2.5-8.53c2.87.08 8.47-4.95 6.8-11.23-2.4 5.26-9.26 4.72-6.8 11.23z"/><path d="M371.36 280.07c4.7.98 8.25-6.2 7.72-11.12-3.67 4.58-8.7 4.95-7.72 11.12z"/></g><g fill-rule="evenodd" fill="#fff"><path d="M235.63 159.06c-.3-.39-1.15 0-.94.94.2 1.25 2.04 7.7 5.23 9.92 2.27 1.64 14.2 4.27 19.6 5.4 2.98.6 5.48 2.07 7.43 4.44-.8-3.1-1.46-5.4-2.5-8.2-1.02-2.47-3.7-5.17-6.5-5.3-5.16-.2-11.85-.64-16.7-2.75-2.52-1.03-4.02-2.45-5.63-4.44z" transform="matrix(-1.937 0 0 1.9463 857.17 -41.53)" stroke="#000" stroke-width=".5"/><path d="M400.75 268.05c.58-.75 2.23.02 1.82 1.82-.4 2.45-3.97 15-10.14 19.3-4.4 3.2-27.5 8.33-37.98 10.5-5.77 1.17-10.6 4.06-14.38 8.67 1.56-6.03 2.82-10.5 4.84-15.96 1.98-4.8 7.18-10.06 12.57-10.34 10-.36 22.97-1.22 32.4-5.33 4.85-2.03 7.76-4.78 10.88-8.65z"/></g><g stroke-linejoin="round" fill-rule="evenodd" stroke="#000" stroke-width=".97" fill="#fff"><path d="M386.6 297.65c1.05-4.22-.3-5.58.86-12.2-6.34 8.5-3.96 12.54-.86 12.2z"/><path d="M387.3 298.7c4.2 1.17 15.13-8.4 15.45-15.55-2.96 5.14-17.72 10.68-15.45 15.55zm-6.87 6.3c2.87-1.56 2.06-8.2-.54-10.45-.55 6.5-4.47 10.3.53 10.46z"/><path d="M383.4 306.83c5.08 1.6 10.82-7.62 15-11.6-4.76 4.1-19.2 6.08-15 11.6zm-7 4.57c3.56-2.33.24-6.93 0-16-3.58 6.55-4.3 15.54 0 16z"/><path d="M377.08 313.74c1.82 2.43 15.24-5.94 18.6-12.15-11.47 8.52-21.6 7.38-18.6 12.14zm-1.34 7.58c3.3-2.4-2.83-8.72-4.1-17.2.07 10.33-1.35 18.18 4.1 17.2z"/><path d="M379.32 318.47c1.66 2.65 11.9-4.38 16.32-12.03-6.8 5.94-18.2 7.54-16.32 12.03zm-10.46 11.57c3.7-.66 3.2-10.05.37-17.7-3.2 9.24-4.6 18.6-.37 17.7z"/><path d="M378.16 324.92c1.28 1.52 16.38-9.06 16.16-13.36-4.78 6.85-20.74 8.22-16.16 13.36zm-17.52 13.88c5.12-2.1 2.7-10.4 3.72-19.32-4.03 8.73-8.8 17.5-3.72 19.32z"/><path d="M370.22 331.63c.8 2.8 13.1-2.4 19.05-10.97-7.17 5.57-21.1 6.32-19.05 10.97z"/><path d="M362.28 340.13c2.65 4.4 17.9-3.67 20.1-11.24-4.92 6.54-21.95 5.56-20.1 11.23z"/><path d="M369.27 343.56c2.8.3 9.3-5.03 11.14-7.8-5.22 2.58-12.3 6.16-11.13 7.8z"/></g><g stroke-linejoin="round" fill-rule="evenodd" stroke="#000" stroke-width=".97" fill="#fff"><path d="M346.3 310.78c3.34.5 7.7-5.63 4.78-11.83-1.44 6.2-11.14 10.7-4.78 11.84zm7.14-3.65c2.57 1.44 9.08-5.48 8.25-10.02-3.64 5.8-10.95 7.48-8.26 10.03z"/><path d="M345.84 317.3c2.5 2.44 14.78-10.04 18.44-15.7-10.63 9.05-21.5 11.33-18.44 15.7zm-2.94 7.48c1.96 2.96 10.15-5.97 15.32-13.4-6.56 6.48-17.68 9.45-15.32 13.4z"/><path d="M343.74 317.67c2-5.3-1.32-6.13-2.82-12.7-2.97 3.62-2.63 13.68 2.8 12.7zm-3.27 7.3c3.98-1.1-2.46-7.88-3.8-12.7-.62 8.87-.5 13.3 3.8 12.7zm-3.9 6.38c3.68-1.34-2.07-4.7-2.66-12.1-1.8 2.72-2.77 13.08 2.68 12.1z"/><path d="M331.1 332.9c2.33-1.25 1.36-7.3-2.23-8.1-.84 4.75-.73 8.18 2.2 8.1z"/></g><g fill-rule="evenodd" fill="#fff"><path d="M346.3 310.78c3.34.5 7.7-5.63 4.78-11.83-1.44 6.2-11.14 10.7-4.78 11.84zm7.14-3.65c2.57 1.44 9.08-5.48 8.25-10.02-3.64 5.8-10.95 7.48-8.26 10.03z"/><path d="M345.84 317.3c2.5 2.44 14.78-10.04 18.44-15.7-10.63 9.05-21.5 11.33-18.44 15.7zm-2.94 7.48c1.96 2.96 10.15-5.97 15.32-13.4-6.56 6.48-17.68 9.45-15.32 13.4z"/><path d="M343.74 317.67c2-5.3-1.32-6.13-2.82-12.7-2.97 3.62-2.63 13.68 2.8 12.7zm-3.27 7.3c3.98-1.1-2.46-7.88-3.8-12.7-.62 8.87-.5 13.3 3.8 12.7zm-3.9 6.38c3.68-1.34-2.07-4.7-2.66-12.1-1.8 2.72-2.77 13.08 2.68 12.1z"/><path d="M331.1 332.9c2.33-1.25 1.36-7.3-2.23-8.1-.84 4.75-.73 8.18 2.2 8.1z"/></g><g fill-rule="evenodd" fill="#fff"><path d="M386.6 297.65c1.05-4.22-.3-5.58.86-12.2-6.34 8.5-3.96 12.54-.86 12.2z"/><path d="M387.3 298.7c4.2 1.17 15.13-8.4 15.45-15.55-2.96 5.14-17.72 10.68-15.45 15.55zm-6.87 6.3c2.87-1.56 2.06-8.2-.54-10.45-.55 6.5-4.47 10.3.53 10.46z"/><path d="M383.4 306.83c5.08 1.6 10.82-7.62 15-11.6-4.76 4.1-19.2 6.08-15 11.6zm-7 4.57c3.56-2.33.24-6.93 0-16-3.58 6.55-4.3 15.54 0 16z"/><path d="M377.08 313.74c1.82 2.43 15.24-5.94 18.6-12.15-11.47 8.52-21.6 7.38-18.6 12.14zm-1.34 7.58c3.3-2.4-2.83-8.72-4.1-17.2.07 10.33-1.35 18.18 4.1 17.2z"/><path d="M379.32 318.47c1.66 2.65 11.9-4.38 16.32-12.03-6.8 5.94-18.2 7.54-16.32 12.03zm-10.46 11.57c3.7-.66 3.2-10.05.37-17.7-3.2 9.24-4.6 18.6-.37 17.7z"/><path d="M378.16 324.92c1.28 1.52 16.38-9.06 16.16-13.36-4.78 6.85-20.74 8.22-16.16 13.36zm-17.52 13.88c5.12-2.1 2.7-10.4 3.72-19.32-4.03 8.73-8.8 17.5-3.72 19.32z"/><path d="M370.22 331.63c.8 2.8 13.1-2.4 19.05-10.97-7.17 5.57-21.1 6.32-19.05 10.97z"/><path d="M362.28 340.13c2.65 4.4 17.9-3.67 20.1-11.24-4.92 6.54-21.95 5.56-20.1 11.23z"/><path d="M369.27 343.56c2.8.3 9.3-5.03 11.14-7.8-5.22 2.58-12.3 6.16-11.13 7.8z"/></g><g fill-rule="evenodd" fill="#fff"><path d="M235.83 159.52c-.38-.3-.88-.76-.7.18 1.4 7.4 1.85 9.48 8.35 12.04 6.6 2.5 8.96 1.63 14.58 1.53 3.04-.1 6.57 1.4 8.67 3.62.98 1.02 1.7 1.43 1.3.12-.4-1.3-.78-3-1.4-4.38-1.35-3-4.83-5.86-8.32-7-4.87-1.73-10.13-.86-15.15-2.17-2.62-.73-5.14-2.2-7.32-3.95z" transform="matrix(-1.7055 -.9227 -.9183 1.7137 926.17 288)" stroke="#000" stroke-width=".5"/><path d="M377.47 343.75c.93-.18 2.2-.5 1.04.95-9.2 11.4-11.86 14.54-25.3 12.93-13.55-1.8-16.78-5.48-26.28-10.83-5.07-3-12.5-3.66-18.1-1.8-2.63.86-4.2.9-2.33-.98 1.86-1.88 4.08-4.45 6.4-6.2 5.04-3.9 13.62-5.6 20.62-4.35 9.9 1.56 18.07 7.9 27.85 10.28 5.13 1.18 10.76 1 16.1 0z"/></g><g fill-rule="evenodd" fill="#fff"><path d="M287.66 208.42c.88.1 1.44 1.82 1.88.66.74-1.87.22-3.37-.6-3.2-1 .26-2.64 2.45-1.28 2.54z" transform="matrix(-1.9235 0 0 1.9463 853.24 -41.86)" stroke="#000" stroke-width=".5"/><path d="M299.92 363.8c-1.7.2-2.78 3.54-3.62 1.28-1.42-3.65-.42-6.56 1.17-6.23 1.9.5 5.07 4.77 2.45 4.94z"/></g><g stroke-linejoin="round" fill-rule="evenodd" stroke="#000" stroke-width=".97" fill="#fff"><path d="M318.54 348.93c4.8 1.25 6.06-4.3 6.53-8.32-4.34.94-8.9 3.45-6.53 8.33zm-1.94 4.93c.85 3.84 10.26-.12 12.1-5.5-6.7 3.9-13.3-.34-12.1 5.5z"/><path d="M313.23 353.67c4.3.7 1.9-6.03 1.66-12.67-2.42 5.42-5.85 12.1-1.67 12.67zm-5.43 6.37c4.68.6 1.7-8.45.44-14.52-1.54 5.63-4.92 14.03-.44 14.52z"/><path d="M310.6 360.24c.56 5.1 10.24-.6 15.87-3.75-7.44 1.14-16.72-1.27-15.88 3.74zm-5.34 7.15c.57 5.1 10.25-.62 15.9-3.76-7.45 1.15-16.73-1.26-15.9 3.75z"/><path d="M302.8 367.18c4.44.13 1.17-9.58-.1-15.65-1.54 5.62-4.47 15.46.1 15.65zm-3.85 6.22c.57 5.1 9.4.07 14.9-3.45-7.52 1.6-15.74-1.57-14.9 3.45z"/></g><g fill-rule="evenodd" fill="#fff"><path d="M318.54 348.93c4.8 1.25 6.06-4.3 6.53-8.32-4.34.94-8.9 3.45-6.53 8.33zm-1.94 4.93c.85 3.84 10.26-.12 12.1-5.5-6.7 3.9-13.3-.34-12.1 5.5z"/><path d="M313.23 353.67c4.3.7 1.9-6.03 1.66-12.67-2.42 5.42-5.85 12.1-1.67 12.67zm-5.43 6.37c4.68.6 1.7-8.45.44-14.52-1.54 5.63-4.92 14.03-.44 14.52z"/><path d="M310.6 360.24c.56 5.1 10.24-.6 15.87-3.75-7.44 1.14-16.72-1.27-15.88 3.74zm-5.34 7.15c.57 5.1 10.25-.62 15.9-3.76-7.45 1.15-16.73-1.26-15.9 3.75z"/><path d="M302.8 367.18c4.44.13 1.17-9.58-.1-15.65-1.54 5.62-4.47 15.46.1 15.65zm-3.85 6.22c.57 5.1 9.4.07 14.9-3.45-7.52 1.6-15.74-1.57-14.9 3.45z"/></g><g stroke-linejoin="round" fill-rule="evenodd" stroke="#000" stroke-width=".97" fill="#fff"><path d="M348.73 364.83c2.65 4.4 12.43-3.2 17.76-7.13-7.68 2.37-19.62 1.46-17.77 7.13z"/><path d="M338.75 369.4c.95 5.06 17.45.9 19.8-2.85-7.6 3.2-20.7-1.5-19.8 2.86z"/><path d="M330.98 373.26c.5 2.77 13.12 1.72 19.5-.43-6.9.86-20.78-4-19.5.43z"/><path d="M324.4 376.56c.04 2.54 14.7 4 19.64-.13-9.86 1.47-20.63-6-19.65.13z"/><path d="M312.8 378.94c-.58 3.53 15.4 2.78 20.4 1-8.57-.65-19.64-6.2-20.4-1z"/><path d="M312.56 375.72c3.6 3.3 12.85-11.44 15.86-17.93-7.12 7.4-19.97 15.04-15.86 17.92z"/><path d="M323.04 373.22c4.3 2.85 8.22-7.56 10.4-15.2-4.1 6.6-14.5 10.87-10.4 15.2z"/><path d="M331.33 370.4c4.3 2.83 6.7-6.6 7.73-12.48-2.93 5.07-11.83 8.14-7.73 12.47z"/><path d="M339.35 365.37c4.28 2.85 9.66-5.05 8.4-12.84-1.63 8.03-12.5 8.5-8.4 12.84zm-16.26 22.17c2.1 5.38 24.3-4.7 28-11.4-7.12 6.02-30.07 5.2-28 11.4z"/></g><g fill-rule="evenodd" fill="#fff"><path d="M348.73 364.83c2.65 4.4 12.43-3.2 17.76-7.13-7.68 2.37-19.62 1.46-17.77 7.13z"/><path d="M338.75 369.4c.95 5.06 17.45.9 19.8-2.85-7.6 3.2-20.7-1.5-19.8 2.86z"/><path d="M330.98 373.26c.5 2.77 13.12 1.72 19.5-.43-6.9.86-20.78-4-19.5.43z"/><path d="M324.4 376.56c.04 2.54 14.7 4 19.64-.13-9.86 1.47-20.63-6-19.65.13z"/><path d="M312.8 378.94c-.58 3.53 15.4 2.78 20.4 1-8.57-.65-19.64-6.2-20.4-1z"/><path d="M312.56 375.72c3.6 3.3 12.85-11.44 15.86-17.93-7.12 7.4-19.97 15.04-15.86 17.92z"/><path d="M323.04 373.22c4.3 2.85 8.22-7.56 10.4-15.2-4.1 6.6-14.5 10.87-10.4 15.2z"/><path d="M331.33 370.4c4.3 2.83 6.7-6.6 7.73-12.48-2.93 5.07-11.83 8.14-7.73 12.47z"/><path d="M339.35 365.37c4.28 2.85 9.66-5.05 8.4-12.84-1.63 8.03-12.5 8.5-8.4 12.84zm-16.26 22.17c2.1 5.38 24.3-4.7 28-11.4-7.12 6.02-30.07 5.2-28 11.4z"/></g><g fill-rule="evenodd" fill="#fff"><path d="M366.62 143.7c.37-3.6-2.38-10.12-.43-13.6.26-.47-.6-1.74-1.14-.97-.86 1.23-1.74 4.73-2.1 3.43-.4-1.4-.46-3.9-1.73-4.37-.8-.3-1.96-.48-1.64.77.3 1.2 1 2.86.22 2.97-.44.07-1.73-1.64-2.8-2.42-.88-.7-2.2.4-.9 1.44 4.13 3.38 8.15 4.9 10.5 12.74z" transform="matrix(-1.911 0 0 1.9463 846.86 -41.5)" stroke="#000" stroke-width=".5"/><path d="M146.24 238.18c-.7-7 4.55-19.7.82-26.46-.5-.93 1.1-3.4 2.16-1.9 1.64 2.4 3.33 9.2 4.03 6.7.75-2.75.86-7.6 3.3-8.53 1.53-.56 3.72-.92 3.12 1.5-.6 2.35-1.92 5.58-.45 5.8.86.12 3.3-3.2 5.38-4.72 1.67-1.37 4.15.77 1.72 2.8-7.92 6.6-15.6 9.55-20.08 24.8z"/></g><g fill-rule="evenodd" fill="#fff"><path d="M132 343.32c-.92-.18-2.2-.5-1.03.95 9.25 11.4 11.93 14.54 25.42 12.93 13.62-1.8 16.86-5.48 26.4-10.83 5.1-3 12.55-3.65 18.2-1.8 2.63.86 4.22.9 2.33-.98-1.88-1.9-4.1-4.46-6.43-6.22-5.08-3.9-13.7-5.6-20.73-4.34-9.94 1.56-18.16 7.9-27.98 10.3-5.17 1.16-10.83 1-16.2-.02z" stroke="#000" stroke-width=".97"/><path d="M132 343.32c-.92-.18-2.2-.5-1.03.95 9.25 11.4 11.93 14.54 25.42 12.93 13.62-1.8 16.86-5.48 26.4-10.83 5.1-3 12.55-3.65 18.2-1.8 2.63.86 4.22.9 2.33-.98-1.88-1.9-4.1-4.46-6.43-6.22-5.08-3.9-13.7-5.6-20.73-4.34-9.94 1.56-18.16 7.9-27.98 10.3-5.17 1.16-10.83 1-16.2-.02z"/></g><g fill-rule="evenodd" fill="#fff"><path d="M209.87 363.7c1.72.2 2.8 3.53 3.66 1.28 1.44-3.66.43-6.56-1.18-6.24-1.9.5-5.13 4.78-2.48 4.95z" stroke="#000" stroke-width=".97"/><path d="M209.87 363.7c1.72.2 2.8 3.53 3.66 1.28 1.44-3.66.43-6.56-1.18-6.24-1.9.5-5.13 4.78-2.48 4.95z"/></g><path d="M206.04 366.8c4.6 1.04 4.55-10.08-.16-14.8 2.07 7.15-3.47 13.68.16 14.8zm-1.8-.1c.3 5.28-12.96-.7-16.37-4.8 7.84 3.32 16 .57 16.38 4.8zm-5.8-7.56c.47 5.12-11.52.62-15.06-3.38 7.87 2.54 14.53-.83 15.05 3.38zm2.2.73c4.6 1.05 3.87-10.45-.62-14.4 2.15 7.68-3 13.3.62 14.4zm-4.86-7c4.6 1.05 1.97-8.85-1.46-12.8.56 7.2-1.72 12.22 1.46 12.8zm-2.44-.03c.48 5.27-8.84 1.22-12.46-3.76 7.8 2.54 11.94-.45 12.46 3.76zm-2.54-4c3.02-2.18-.2-7.93-5.94-7.57.56 3.47 2.55 9.58 5.94 7.56zm22.72 23.84c.3 5.28-12.97 2.65-17.14-2.98 8.38 1.6 16.75-1.25 17.14 2.98z" fill-rule="evenodd" stroke="#000" stroke-width=".97" fill="#fff"/><g fill-rule="evenodd" fill="#fff"><g stroke="#000" stroke-width=".97"><path d="M125.64 232.64c-1.98-2.07-1.4-2.86 1.52-2.9 2.32-.14 6.92 1.43 8.67.16 1.6-1.16.96-6.1 1.67-8.36.3-1.27 1.2-3.26 3.2-.16 5.9 9.46 13.26 20.8 16.4 31.94 1.74 6.23.1 15.96-5.6 22.5.2-5.57-1.9-9.32-4.42-14-3.13-6.12-14.76-22.72-21.44-29.18z"/><path d="M149.97 282.37c6.5.03 7.6-8.67 7.6-11.1-3.2.6-8.82 5.93-7.6 11.1z"/></g><path d="M125.64 232.64c-1.98-2.07-1.4-2.86 1.52-2.9 2.32-.14 6.92 1.43 8.67.16 1.6-1.16.96-6.1 1.67-8.36.3-1.27 1.2-3.26 3.2-.16 5.9 9.46 13.26 20.8 16.4 31.94 1.74 6.23.1 15.96-5.6 22.5.2-5.57-1.9-9.32-4.42-14-3.13-6.12-14.76-22.72-21.44-29.18z"/><path d="M149.97 282.37c6.5.03 7.6-8.67 7.6-11.1-3.2.6-8.82 5.93-7.6 11.1z"/></g><path d="M206.04 366.8c4.6 1.04 4.55-10.08-.16-14.8 2.07 7.15-3.47 13.68.16 14.8zm-1.8-.1c.3 5.28-12.96-.7-16.37-4.8 7.84 3.32 16 .57 16.38 4.8zm-5.8-7.56c.47 5.12-11.52.62-15.06-3.38 7.87 2.54 14.53-.83 15.05 3.38zm2.2.73c4.6 1.05 3.87-10.45-.62-14.4 2.15 7.68-3 13.3.62 14.4zm-4.86-7c4.6 1.05 1.97-8.85-1.46-12.8.56 7.2-1.72 12.22 1.46 12.8zm-2.44-.03c.48 5.27-8.84 1.22-12.46-3.76 7.8 2.54 11.94-.45 12.46 3.76zm-2.54-4c3.02-2.18-.2-7.93-5.94-7.57.56 3.47 2.55 9.58 5.94 7.56zm22.72 23.84c.3 5.28-12.97 2.65-17.14-2.98 8.38 1.6 16.75-1.25 17.14 2.98z" fill-rule="evenodd" fill="#fff"/><g stroke-linejoin="round" fill-rule="evenodd" stroke="#000" stroke-width=".97" fill="#fff"><path d="M160.8 363.22c.48 5.27-14-.52-17.63-5.5 7.8 2.54 17.1 1.3 17.64 5.5zm8.88 2.26c3.03-2.18-3.15-7.77-8.06-9.1.56 3.48 4.68 11.1 8.06 9.1zm.94 3.65c.32 4.73-15.54 2.14-19.7-2.24 13.66 2.45 19.25-1.83 19.7 2.23z"/><path d="M178.04 372.3c1.76 4.4-13.47 3.32-18.8.76 8.62-.08 17.6-3.83 18.8-.77z"/><path d="M185.15 375.5c1.7 3.94-12.4 3.86-19.26 1.68 9.08-.08 17.58-5.58 19.25-1.68zm10.25 2.12c2.5 4.67-12.36 5.12-17.18 2.82 8.6-1.18 15.05-6.5 17.18-2.82z"/><path d="M178 369.63c-4.73 2.98-4.48-5.8-8.24-11.9 5.9 5.38 11.44 9.05 8.23 11.9zm8.38 3.15c-3.96 3.5-7.13-8.55-10.74-15.3 5.84 6.43 14.4 12.38 10.75 15.3zm11.07 3.37c-3.36 3.9-13.06-11.43-16.6-19.42 5.38 6.22 19.27 16.12 16.6 19.42z"/></g><g fill-rule="evenodd" fill="#fff"><path d="M160.8 363.22c.48 5.27-14-.52-17.63-5.5 7.8 2.54 17.1 1.3 17.64 5.5zm8.88 2.26c3.03-2.18-3.15-7.77-8.06-9.1.56 3.48 4.68 11.1 8.06 9.1zm.94 3.65c.32 4.73-15.54 2.14-19.7-2.24 13.66 2.45 19.25-1.83 19.7 2.23z"/><path d="M178.04 372.3c1.76 4.4-13.47 3.32-18.8.76 8.62-.08 17.6-3.83 18.8-.77z"/><path d="M185.15 375.5c1.7 3.94-12.4 3.86-19.26 1.68 9.08-.08 17.58-5.58 19.25-1.68zm10.25 2.12c2.5 4.67-12.36 5.12-17.18 2.82 8.6-1.18 15.05-6.5 17.18-2.82zm-17.4-8c-4.73 3-4.48-5.8-8.24-11.9 5.9 5.4 11.44 9.06 8.23 11.9z"/><path d="M186.38 372.78c-3.96 3.5-7.13-8.55-10.74-15.3 5.84 6.43 14.4 12.38 10.75 15.3zm11.07 3.37c-3.36 3.9-13.06-11.43-16.6-19.42 5.38 6.22 19.27 16.12 16.6 19.42z"/></g><path d="M188.02 387.84c-1.68 5.92-26.38-5.58-29.14-11.53 14.13 7.5 29.47 5.93 29.14 11.54z" fill-rule="evenodd" fill="#fff"/><g fill-rule="evenodd" fill="#fff"><path d="M108.6 267.6c-.57-.74-2.23.03-1.82 1.84.4 2.45 4 15 10.2 19.3 4.4 3.2 27.63 8.33 38.16 10.5 5.8 1.17 10.64 4.06 14.44 8.67-1.57-6.02-2.83-10.5-4.86-15.95-1.98-4.8-7.2-10.06-12.62-10.34-10.06-.35-23.08-1.2-32.55-5.32-4.88-2.04-7.8-4.8-10.94-8.66z" stroke="#000" stroke-width=".97"/><path d="M108.6 267.6c-.57-.74-2.23.03-1.82 1.84.4 2.45 4 15 10.2 19.3 4.4 3.2 27.63 8.33 38.16 10.5 5.8 1.17 10.64 4.06 14.44 8.67-1.57-6.02-2.83-10.5-4.86-15.95-1.98-4.8-7.2-10.06-12.62-10.34-10.06-.35-23.08-1.2-32.55-5.32-4.88-2.04-7.8-4.8-10.94-8.66z"/></g><g stroke-linejoin="round" fill-rule="evenodd" stroke="#000" stroke-width=".97" fill="#fff"><path d="M166.28 317.26c3.17 2.34 6.67-6.03 2.64-14-.12 7.67-6.2 10.24-2.64 14z"/><path d="M169.33 324.95c4.38 1.35 5.76-6.4 2.87-12.62.48 6.67-6.9 10.7-2.87 12.62z"/><path d="M172.66 331.1c4.24 2.12 5.84-5.72 2.8-11.54.33 7.43-6.06 9.62-2.8 11.55z"/><path d="M170.9 331.6c-1.67 5-11.4-4.34-13.05-9.42 6.05 6 14.27 5.34 13.06 9.4z"/><path d="M166.5 323.9c-1.9 5.02-14.15-7.9-16.86-14.12 6.05 6 18.22 10.6 16.86 14.12z"/><path d="M164.06 316.4c-1.9 5.7-15.2-9.5-18.98-14.9 6.35 5.93 20.42 10.74 18.98 14.9z"/><path d="M163.65 310.74c4.7-.9-.26-4.8-6-11.16-.28 6.68.82 11.35 6 11.16zm-7.9-3.78c2-2.2-1.95-3.14-6.86-8.65-.73 3.72 4.54 10.52 6.84 8.66zm22.7 24.77c2.55 1.5 4.3-3.75 1.1-8.5-.72 5.13-3.46 6.56-1.1 8.5z"/></g><g fill-rule="evenodd" fill="#fff"><path d="M166.28 317.26c3.17 2.34 6.67-6.03 2.64-14-.12 7.67-6.2 10.24-2.64 14z"/><path d="M169.33 324.95c4.38 1.35 5.76-6.4 2.87-12.62.48 6.67-6.9 10.7-2.87 12.62z"/><path d="M172.66 331.1c4.24 2.12 5.84-5.72 2.8-11.54.33 7.43-6.06 9.62-2.8 11.55z"/><path d="M170.9 331.6c-1.67 5-11.4-4.34-13.05-9.42 6.05 6 14.27 5.34 13.06 9.4z"/><path d="M166.5 323.9c-1.9 5.02-14.15-7.9-16.86-14.12 6.05 6 18.22 10.6 16.86 14.12z"/><path d="M164.06 316.4c-1.9 5.7-15.2-9.5-18.98-14.9 6.35 5.93 20.42 10.74 18.98 14.9zm-.4-5.66c4.68-.9-.27-4.8-6.02-11.16-.27 6.68.83 11.35 6 11.16z"/><path d="M155.74 306.96c2.02-2.2-1.94-3.14-6.85-8.65-.73 3.72 4.54 10.52 6.84 8.66zm22.7 24.77c2.56 1.5 4.32-3.75 1.12-8.5-.73 5.13-3.47 6.56-1.12 8.5z"/></g><g stroke-linejoin="round" fill-rule="evenodd" stroke="#000" stroke-width=".97" fill="#fff"><path d="M122.72 298.56c-5.45 3.27-14.1-9.76-16.4-15.12 4.77 6.15 17.43 11.77 16.4 15.12z"/><path d="M127.36 306.14c-3 3.34-12.5-5.73-15.8-10.33 5.1 4.4 17.13 4.94 15.8 10.34z"/><path d="M132.53 312.96c-1 4.56-14.84-5.7-18.08-10.55 5.97 5.63 18.98 5.12 18.08 10.56z"/><path d="M130.4 317.9c-2.14 4.12-13.4-6.06-16.1-11.37 6.87 6 17.83 7.32 16.1 11.38zm-5.78-20.02c3.55-3.74 2.04-5.5-.55-11.4-1.42 6.06-3.55 8.48.55 11.4zm4.7 7.07c6.46.28.07-7.55-1.45-14.14.56 7.5-1.65 13.43 1.46 14.15z"/><path d="M133.43 311.2c4.46-1 3.17-7.33-.25-14.98.7 8.27-3.78 13.04.25 14.98zm-1.5 12.5c-1.7 5-14.4-6.6-16.4-11 6.4 5.38 17.52 7.23 16.4 11z"/><path d="M139.5 331.52c-1.9 5.02-15.2-5.16-19.27-10.7 8.02 6.3 20.27 5.72 19.28 10.7z"/><path d="M147.26 339.42c-2.13 7-16.05-4.17-20.2-9.63 8.86 6.75 21.34 4.64 20.2 9.62zm-13.07-17.96c3.77 1.96 5.3-8.77 3.16-16.35.03 8.28-7.58 14.42-3.17 16.36z"/><path d="M140.66 329.96c4.54 1.35 3.1-10.2-.78-17.7-.5 7.42-3.85 14.48.78 17.7zm8.06 8c5.08.28 1.6-9.92-2.6-15.67.7 7.5-1.65 14.78 2.6 15.65zm-8.9 4.35c-1.53 2.6-5.26-2.2-11.38-5.68 5.5 1.44 12.06 3.3 11.38 5.7z"/></g><g fill-rule="evenodd" fill="#fff"><path d="M122.72 298.56c-5.45 3.27-14.1-9.76-16.4-15.12 4.77 6.15 17.43 11.77 16.4 15.12z"/><path d="M127.36 306.14c-3 3.34-12.5-5.73-15.8-10.33 5.1 4.4 17.13 4.94 15.8 10.34z"/><path d="M132.53 312.96c-1 4.56-14.84-5.7-18.08-10.55 5.97 5.63 18.98 5.12 18.08 10.56z"/><path d="M130.4 317.9c-2.14 4.12-13.4-6.06-16.1-11.37 6.87 6 17.83 7.32 16.1 11.38zm-5.78-20.02c3.55-3.74 2.04-5.5-.55-11.4-1.42 6.06-3.55 8.48.55 11.4zm4.7 7.07c6.46.28.07-7.55-1.45-14.14.56 7.5-1.65 13.43 1.46 14.15z"/><path d="M133.43 311.2c4.46-1 3.17-7.33-.25-14.98.7 8.27-3.78 13.04.25 14.98zm-1.5 12.5c-1.7 5-14.4-6.6-16.4-11 6.4 5.38 17.52 7.23 16.4 11z"/><path d="M139.5 331.52c-1.9 5.02-15.2-5.16-19.27-10.7 8.02 6.3 20.27 5.72 19.28 10.7z"/><path d="M147.26 339.42c-2.13 7-16.05-4.17-20.2-9.63 8.86 6.75 21.34 4.64 20.2 9.62zm-13.07-17.96c3.77 1.96 5.3-8.77 3.16-16.35.03 8.28-7.58 14.42-3.17 16.36z"/><path d="M140.66 329.96c4.54 1.35 3.1-10.2-.78-17.7-.5 7.42-3.85 14.48.78 17.7zm8.06 8c5.08.28 1.6-9.92-2.6-15.67.7 7.5-1.65 14.78 2.6 15.65zm-8.9 4.35c-1.53 2.6-5.26-2.2-11.38-5.68 5.5 1.44 12.06 3.3 11.38 5.7z"/></g><g stroke-linejoin="round" fill-rule="evenodd" stroke="#000" stroke-width=".97" fill="#fff"><path d="M136.9 256.37c4.74-3.5 1.13-10.06 0-16.3-1.52 5.92-5.53 13.67 0 16.3zm-.15 8.75c-7.12-.85-6.04-10.05-6.26-15.88 2.13 7.9 7.96 9.25 6.25 15.88zm1.13-1.2c6.02-.35 5.7-7.2 6.02-14.13-3.05 6.36-6.66 7.35-6.02 14.12z"/><path d="M137.65 272.42c-4.68.38-7.12-4.22-8.2-11.4 4.45 6.6 8.5 4.55 8.2 11.4zm1.67-.56c6.02.77 5.06-6.23 4.8-11.4-1.83 4.93-6.73 6.48-4.8 11.4z"/><path d="M129.94 268.9c.48 4.57 3.37 12.44 8.02 10.67 1.93-5.62-4.1-6.74-8.02-10.67z"/><path d="M139.4 280.05c-2.1-4 4.73-6.02 6.17-11.23.83 7.46.14 12.36-6.17 11.23z"/></g><g fill-rule="evenodd" fill="#fff"><path d="M136.9 256.37c4.74-3.5 1.13-10.06 0-16.3-1.52 5.92-5.53 13.67 0 16.3zm-.15 8.75c-7.12-.85-6.04-10.05-6.26-15.88 2.13 7.9 7.96 9.25 6.25 15.88zm1.13-1.2c6.02-.35 5.7-7.2 6.02-14.13-3.05 6.36-6.66 7.35-6.02 14.12z"/><path d="M137.65 272.42c-4.68.38-7.12-4.22-8.2-11.4 4.45 6.6 8.5 4.55 8.2 11.4zm1.67-.56c6.02.77 5.06-6.23 4.8-11.4-1.83 4.93-6.73 6.48-4.8 11.4z"/><path d="M129.94 268.9c.48 4.57 3.37 12.44 8.02 10.67 1.93-5.62-4.1-6.74-8.02-10.67z"/><path d="M139.4 280.05c-2.1-4 4.73-6.02 6.17-11.23.83 7.46.14 12.36-6.17 11.23z"/></g><g stroke-linejoin="round" fill-rule="evenodd" stroke="#000" stroke-width=".97" fill="#fff"><path d="M119.98 232.5c3.75-4.04.44-10.44-.68-16.67-1.53 5.9-4.17 13.74.68 16.67zm-.12 7.5c-6.58.68-8.17-12.7-8.84-18.46 2.14 7.92 9.72 11.54 8.84 18.47zm1.37-.1c4.65-2.4 3.57-7.58 5.03-11.47-3.12 4.77-5.97 5.46-5.03 11.46z"/><path d="M119.93 248.65c-6.88.6-10.98-14.23-11.2-20.07 2.14 7.92 12 12.22 11.2 20.07zm1.3-.22c6.48-1.5 5.7-5.68 4.74-12.45-2.06 6.82-5.67 5.38-4.73 12.45z"/><path d="M119.84 257.2c-7.57 1.3-7.03-10.68-13.04-19.37 5.2 6.46 14.56 14.6 13.04 19.38zm1.7-.4c5.73.17 6.28-8.44 5.97-11.93-1.3 3.48-8.02 6.78-5.95 11.93z"/><path d="M108.02 248c2.84 9.2 6.87 18.43 11.83 17.73 2.38-5.23-4.7-5.9-11.83-17.74z"/><path d="M121.63 264.4c-2.1-4.02 4.73-6.03 6.18-11.24.84 7.46.14 12.35-6.17 11.23zm-11.65-5.88c4.05 8.3 5.88 17.83 11.44 16.45 2.08-6.46-6.14-7.8-11.44-16.45z"/><path d="M122.56 273.4c-2.4-4.4 4.43-5.95 6.1-12 .9 7.92.06 13.58-6.1 12z"/></g><g fill-rule="evenodd" fill="#fff"><path d="M119.98 232.5c3.75-4.04.44-10.44-.68-16.67-1.53 5.9-4.17 13.74.68 16.67zm-.12 7.5c-6.58.68-8.17-12.7-8.84-18.46 2.14 7.92 9.72 11.54 8.84 18.47zm1.37-.1c4.65-2.4 3.57-7.58 5.03-11.47-3.12 4.77-5.97 5.46-5.03 11.46z"/><path d="M119.93 248.65c-6.88.6-10.98-14.23-11.2-20.07 2.14 7.92 12 12.22 11.2 20.07zm1.3-.22c6.48-1.5 5.7-5.68 4.74-12.45-2.06 6.82-5.67 5.38-4.73 12.45z"/><path d="M119.84 257.2c-7.57 1.3-7.03-10.68-13.04-19.37 5.2 6.46 14.56 14.6 13.04 19.38zm1.7-.4c5.73.17 6.28-8.44 5.97-11.93-1.3 3.48-8.02 6.78-5.95 11.93z"/><path d="M108.02 248c2.84 9.2 6.87 18.43 11.83 17.73 2.38-5.23-4.7-5.9-11.83-17.74z"/><path d="M121.63 264.4c-2.1-4.02 4.73-6.03 6.18-11.24.84 7.46.14 12.35-6.17 11.23zm-11.65-5.88c4.05 8.3 5.88 17.83 11.44 16.45 2.08-6.46-6.14-7.8-11.44-16.45z"/><path d="M122.56 273.4c-2.4-4.4 4.43-5.95 6.1-12 .9 7.92.06 13.58-6.1 12z"/></g><path d="M134.24 217.23c4 1.08 8.18-3.4 6.73-10.12-4.56 1.15-6.66 5.3-6.73 10.13zm-12.8-3.37c.36 1.9 2.66 2.06 2-.6-.57-2.17-.66-3.8 0-5.56.88-2.2.6-5.96-.1-7.53-.66-1.65-2.9-.68-1.96.6 1.04 1.5 1.1 4.64.38 6.1-.94 2.15-.7 5-.3 7z" fill-rule="evenodd" stroke="#000" stroke-width=".97" fill="#fff"/><path d="M134.24 217.23c4 1.08 8.18-3.4 6.73-10.12-4.56 1.15-6.66 5.3-6.73 10.13zm-12.8-3.37c.36 1.9 2.66 2.06 2-.6-.57-2.17-.66-3.8 0-5.56.88-2.2.6-5.96-.1-7.53-.66-1.65-2.9-.68-1.96.6 1.04 1.5 1.1 4.64.38 6.1-.94 2.15-.7 5-.3 7z" fill-rule="evenodd" fill="#fff"/><path d="M135.27 206.68c-.38 2.94-2.87 3.2-2.15-.95.6-3.38.7-5.92 0-8.67-.97-3.45-.64-9.3.1-11.76.72-2.58 3.16-1.07 2.14.95-1.13 2.35-1.2 7.22-.42 9.5 1.03 3.36.75 7.82.33 10.93zm18.6 29.46c-1.56 2.27-4 .96-2.62-2.7 1.18-2.5 1.3-5.64 2.6-7.48 1.85-2.8 4.95-5.13 6.7-6.82 1.83-1.8 3.35-.07 1.68 1.48-2.03 2.03-4.23 4.55-5.45 6.46-2.28 3.72-1.28 6.68-2.92 9.06z" fill-rule="evenodd" stroke="#000" stroke-width=".97" fill="#fff"/><g fill-rule="evenodd" fill="#fff"><path d="M242.54 131.62c.18.97 1.48.93 1.14-.44-.3-1.12-.93-2.18-.6-3.1.46-1.12.57-3.07.23-3.87-.34-.84-1.46-.27-.98.4.54.76.12 2.92-.25 3.67-.48 1.1.27 2.33.47 3.35z" transform="matrix(-2.453 -.9787 -1.138 2.5207 903.45 145.4)" stroke="#000" stroke-width=".36"/><path d="M158.7 239.8c-1.56 2.27-4.7.9-2.3-2.23 1.96-2.52 4.76-4.6 4.97-7.2.16-3.3 2.1-8.3 3.87-10 1.82-1.8 3.92.73 1.98 1.93-2.2 1.42-3.6 7.26-3.56 9.5-.08 3.27-3.33 5.63-4.97 8z"/></g><path d="M153.86 236.14c-1.55 2.27-4 .96-2.6-2.7 1.17-2.5 1.3-5.64 2.6-7.48 1.84-2.8 4.94-5.13 6.7-6.82 1.82-1.8 3.34-.07 1.67 1.48-2.03 2.03-4.23 4.55-5.45 6.46-2.28 3.72-1.28 6.68-2.92 9.06z" fill-rule="evenodd" fill="#fff"/><g fill-rule="evenodd" fill="#fff"><path d="M242.23 131.78c-.1.78 1.23.97 1.17-.16-.06-1.2-1.82-2.28-.74-4.08.57-.9.58-2.5.23-3.37-.3-.85-1.6-.3-1.1.37.53.77-.1 2.25-.5 3-1.23 2.16 1 3.2.93 4.24z" transform="matrix(1.9463 0 0 4.087 -343.23 -314.15)" stroke="#000" stroke-width=".34"/><path d="M128.22 224.44c-.18 3.2 2.4 3.98 2.28-.67-.12-4.85-3.55-9.3-1.44-16.68 1.1-3.62 1.12-10.24.45-13.76-.58-3.5-3.06-1.2-2.12 1.5 1.04 3.16-.2 9.2-1 12.25-2.37 8.84 1.98 13.15 1.84 17.34z"/></g><path d="M135.27 206.68c-.38 2.94-2.87 3.2-2.15-.95.6-3.38.7-5.92 0-8.67-.97-3.45-.64-9.3.1-11.76.72-2.58 3.16-1.07 2.14.95-1.13 2.35-1.2 7.22-.42 9.5 1.03 3.36.75 7.82.33 10.93zm-25.36 60.3c1.25 1.46 3.33.48 1.43-1.5-1.55-1.62-1.04-2.13-2-4.1-.92-2.17-.87-3.38-2-4.95-1-1.48-2.5.03-1.5 1.28 1.27 1.5.92 2.58 1.7 4 1.42 2.45 1.07 3.73 2.38 5.27zm33.23 40.1c3.98 1.96 7 6.84 7.2 10.82.33 4.57 1 8.44 3.04 11.7-3.27-.92-4.83-6.14-5.3-11.13-.47-5.17-3.25-7.4-4.94-11.38zm8.3 9.58c2.74 5.08 6.6 7.02 6.8 10.78.32 4.34.65 4.56 1.83 8.82-3.24-.86-4.06-1.14-4.93-7.63-.54-4.56-4.2-7.78-3.7-11.97z" fill-rule="evenodd" fill="#fff"/><path d="M301.5 401.66c.08 1.92.3 3.47 1.45 5-6.64-2.65-16-1.22-22.43 1.76-2.86 1.37-6.32-1.56-2.96-4.33 4.77-3.88 15.8-1.68 23.95-2.44zm-93.68-.1c.1 1.8-.12 3.47-.8 5.06 7.23-3 14.98-.5 22.28 2.43 5 2.08 5.4-1.5 4.53-2.76-1.52-2.2-4.47-4.63-8.2-4.68-2.47-.04-12.02-.12-17.8-.06zm6.1-35.26c-2.02-.87-4.36-.04-6.46 2.17-7.05 6.9-15.32 13.64-22 18.88-2.5 2.16-5.03 6.04 5.6 9.92.38.15 8.13 3.02 13.03 3.2 2-.05 2 2.94 1.62 3.74-.85 1.6-.23 2.2-1.94 3.74-1.8 1.5.2 3.46 1.6 2.13 5.97-5.2 15.67-1.87 25.02 1.17 2.2.6 6.26.44 6.22-2.6.04-3.33 2.44-5.67 3.9-5.76 3.83.66 22.7.87 28.5.17 3.4-.44 3.6 4.64 5.4 6.64 1.25 1.32 6.06 1.67 9.36.2 6.52-3.02 16.45-3.02 20.5-.12 1.66 1.26 2.98.24 2.03-1.05-1.2-1.76-1.18-2.57-1.8-3.96-1.5-3.1-.3-3.85 1.3-4.08 18-2.33 23.76-8.48 18.25-13.5-7.1-6.22-15.03-12.5-21.85-19.86-1.85-1.95-3.07-2.74-6.92-1.14-11.76 5.36-26.7 9.27-41.3 9.55-13.6.12-32.3-6.17-40.07-9.46z" fill-rule="evenodd" fill-opacity=".18" stroke="#000" stroke-width=".97"/><path d="M301.5 401.66c.08 1.92.3 3.47 1.45 5-6.64-2.65-16-1.22-22.43 1.76-2.86 1.37-6.32-1.56-2.96-4.33 4.77-3.88 15.8-1.68 23.95-2.44zm-93.68-.1c.1 1.8-.12 3.47-.8 5.06 7.23-3 14.98-.5 22.28 2.43 5 2.08 5.4-1.5 4.53-2.76-1.52-2.2-4.47-4.63-8.2-4.68-2.47-.04-12.02-.12-17.8-.06zm6.1-35.26c-2.02-.87-4.36-.04-6.46 2.17-7.05 6.9-15.32 13.64-22 18.88-2.5 2.16-5.03 6.04 5.6 9.92.38.15 8.13 3.02 13.03 3.2 2-.05 2 2.94 1.62 3.74-.85 1.6-.23 2.2-1.94 3.74-1.8 1.5.2 3.46 1.6 2.13 5.97-5.2 15.67-1.87 25.02 1.17 2.2.6 6.26.44 6.22-2.6.04-3.33 2.44-5.67 3.9-5.76 3.83.66 22.7.87 28.5.17 3.4-.44 3.6 4.64 5.4 6.64 1.25 1.32 6.06 1.67 9.36.2 6.52-3.02 16.45-3.02 20.5-.12 1.66 1.26 2.98.24 2.03-1.05-1.2-1.76-1.18-2.57-1.8-3.96-1.5-3.1-.3-3.85 1.3-4.08 18-2.33 23.76-8.48 18.25-13.5-7.1-6.22-15.03-12.5-21.85-19.86-1.85-1.95-3.07-2.74-6.92-1.14-11.76 5.36-26.7 9.27-41.3 9.55-13.6.12-32.3-6.17-40.07-9.46z" fill-rule="evenodd" fill="#fff"/><g fill-rule="evenodd" fill="#fff"><path d="M338.58 332c.82 2.82 12.05-2.3 17.76-13.54-7.48 8.15-19.58 8.07-17.76 13.55z" stroke="#000" stroke-width=".97"/><path d="M338.58 332c.82 2.82 12.05-2.3 17.76-13.54-7.48 8.15-19.58 8.07-17.76 13.55z"/></g><g fill-rule="evenodd" fill="#fff"><path d="M253.45 178.87c1.7 2.58 3.96 4.44 4.06 6.5.18 2.34.35 2.46.96 4.77-1.68-.47-2.1-.62-2.55-4.14-.27-2.47-2.7-4.86-2.45-7.13z" transform="matrix(-2.0175 0 0 1.844 868.64 -14.9)" stroke="#000" stroke-width=".51"/><path d="M357.3 314.93c-3.43 4.75-8 8.2-8.2 11.96-.35 4.33-.7 4.55-1.92 8.8 3.4-.85 4.24-1.13 5.16-7.62.57-4.56 5.46-8.95 4.96-13.15z"/></g><g fill-rule="evenodd" fill="#fff"><path d="M254.38 180.28c2.04 1 2.5 2.67 2.6 4.73.03 2.4.6 4.23 1.66 5.9-2.1.3-2.5-3.14-2.73-5.7-.23-2.67-.66-2.88-1.52-4.92z" transform="matrix(-2.039 0 0 1.9463 881.5 -42.5)" stroke="#000" stroke-width=".49"/><path d="M362.83 308.38c-4.16 1.96-5.1 5.2-5.27 9.2-.08 4.64-1.26 8.22-3.4 11.48 4.28.6 5.06-6.13 5.55-11.12.5-5.17 1.38-5.6 3.14-9.56z"/></g><g fill-rule="evenodd" fill="#fff"><path d="M242.23 131.44c.18.97 1.36 1.06 1.02-.3-.3-1.12-.34-1.96 0-2.86.46-1.14.3-3.07-.04-3.87-.34-.84-1.5-.35-1 .32.53.77.56 2.37.2 3.12-.5 1.1-.36 2.58-.17 3.6z" transform="matrix(2.0818 0 0 3.0397 -129.8 -193.1)" stroke="#000" stroke-width=".39"/><path d="M374.47 206.46c.37 2.94 2.83 3.2 2.12-.95-.6-3.37-.7-5.9 0-8.66.94-3.45.62-9.3-.1-11.76-.72-2.58-3.12-1.07-2.1.95 1.1 2.35 1.16 7.22.4 9.5-1 3.36-.74 7.83-.33 10.93z"/></g><g fill-rule="evenodd" fill="#fff"><path d="M242.23 131.78c-.1.78 1.23.97 1.17-.16-.06-1.2-1.82-2.28-.74-4.08.57-.9.58-2.5.23-3.37-.3-.85-1.6-.3-1.1.37.53.77-.1 2.25-.5 3-1.23 2.16 1 3.2.93 4.24z" transform="matrix(-1.9157 0 0 4.087 845.48 -314.37)" stroke="#000" stroke-width=".35"/><path d="M381.43 224.22c.18 3.2-2.36 3.98-2.25-.66.12-4.85 3.5-9.3 1.42-16.68-1.1-3.6-1.1-10.23-.44-13.75.58-3.5 3.02-1.2 2.1 1.5-1.03 3.16.18 9.2.97 12.25 2.34 8.85-1.94 13.16-1.8 17.35z"/></g><g fill-rule="evenodd" fill="#fff"><path d="M242.23 131.44c.18.97 1.36 1.06 1.02-.3-.3-1.12-.34-1.96 0-2.86.46-1.14.3-3.07-.04-3.87-.34-.84-1.5-.35-1 .32.53.77.56 2.37.2 3.12-.5 1.1-.36 2.58-.17 3.6z" transform="matrix(-1.9157 0 0 1.9463 852.13 -42.18)" stroke="#000" stroke-width=".5"/><path d="M388.1 213.64c-.36 1.9-2.62 2.06-1.96-.6.55-2.17.64-3.8 0-5.55-.88-2.22-.6-5.97.07-7.54.68-1.66 2.9-.7 1.96.6-1.02 1.5-1.07 4.63-.37 6.1.9 2.14.66 5 .3 6.98z"/></g><g fill-rule="evenodd" fill="#fff"><path d="M374.24 217.33c-3.33 1.4-7.62-8.03-4.45-9.8 2.45-.62 8.1 8 4.44 9.8z" stroke="#000" stroke-width=".97"/><path d="M374.24 217.33c-3.33 1.4-7.62-8.03-4.45-9.8 2.45-.62 8.1 8 4.44 9.8z"/></g><g fill-rule="evenodd" fill="#fff"><path d="M242.22 131.74c.18.97 1.23.86 1.32-.56 0-1 .43-2.07.27-2.87-.2-1.17-.9-2.37-1.24-3.18-.35-.85-1.15-.47-.8.28.38.95.74 2.1.87 2.9.2 1.56-.6 2.42-.4 3.44z" transform="matrix(2.367 -.9787 1.098 2.5207 -362.4 141.04)" stroke="#000" stroke-width=".37"/><path d="M355.57 236.05c1.5 2.27 3.86.95 2.52-2.7-1.15-2.5-1.27-5.64-2.54-7.5-1.77-2.78-4.76-5.1-6.46-6.8-1.76-1.8-3.22-.07-1.6 1.47 1.95 2.03 4.08 4.56 5.26 6.47 2.2 3.7 1.23 6.67 2.8 9.05z"/></g><g fill-rule="evenodd" fill="#fff"><path d="M242.54 131.62c.18.97 1.48.93 1.14-.44-.3-1.12-.93-2.18-.6-3.1.46-1.12.57-3.07.23-3.87-.34-.84-1.46-.27-.98.4.54.76.12 2.92-.25 3.67-.48 1.1.27 2.33.47 3.35z" transform="matrix(2.367 -.9787 1.098 2.5207 -367.1 144.1)" stroke="#000" stroke-width=".37"/><path d="M351.48 238.48c1.5 2.27 4.53.88 2.2-2.24-1.88-2.52-4.6-4.58-4.8-7.2-.14-3.3-2.02-8.3-3.72-10-1.75-1.8-3.78.73-1.9 1.93 2.1 1.42 3.48 7.26 3.43 9.5.06 3.27 3.2 5.63 4.78 8z"/></g><path stroke-linejoin="round" d="M220.83 343.95c4.5 3.6 8.77 7.7 10.04 12.77 1.33 4.74 2.13 8.37 5.17 13.08-4.77-3.04-6.66-7.64-8.06-12.62-1.23-4.9-4.06-8.57-7.15-13.23z" fill-rule="evenodd" stroke="#000" stroke-width=".97" fill="#fff"/><path d="M220.83 343.95c4.5 3.6 8.77 7.7 10.04 12.77 1.33 4.74 2.13 8.37 5.17 13.08-4.77-3.04-6.66-7.64-8.06-12.62-1.23-4.9-4.06-8.57-7.15-13.23zm-5.16 0c4.2 3.45 6.94 7.38 8.2 12.47 1.34 4.73 3.2 8.5 5.95 12.77-4.46-3.05-7.27-7.2-8.67-12.17-1.23-4.9-2.7-8.57-5.48-13.08zm78.77 0c-4.3 3.47-7.1 7.42-8.4 12.54-1.35 4.76-3.26 8.56-6.06 12.84 4.56-3.06 7.43-7.22 8.86-12.24 1.26-4.93 2.75-8.6 5.6-13.15zm-5.3 0c-4.6 3.62-8.95 7.73-10.26 12.85-1.35 4.76-2.17 8.4-5.28 13.15 4.87-3.06 6.8-7.68 8.24-12.7 1.26-4.92 4.14-8.6 7.3-13.3zm-15.27 12c.12-.88-.5-1.66-1.2-1.9-1.43-.53-2.84-.96-4.25-1.36-1.6-.4-2.5.76-2.5 1.5 0 1.26-.07 2.33 0 3.28.1 1.18.3 1.27 1.06 1.44 1.2.2 2.73.4 3.93 1.22.97.6 1.88.12 2.36-.9.3-.8.48-2.35.6-3.28zm-17.23 0c-.1-.88.36-1.73 1-1.97 1.27-.53 2.54-.66 3.87-.6 1.48-.03 1.86.3 1.86 1.06 0 1.25.06 2.47 0 3.42-.08 1.18-.05 1.27-.72 1.44-1.07.2-2.9.26-3.97 1.07-.85.6-1.82.12-1.87-1 .03-.82-.04-2.47-.16-3.4zm-20.9-.23c-.13-.9.48-1.66 1.2-1.9 1.44-.53 2.86-.96 4.27-1.36 1.62-.38 2.52.76 2.52 1.52 0 1.25.07 2.32 0 3.26-.1 1.2-.3 1.27-1.06 1.45-1.2.2-2.75.4-3.96 1.2-.95.6-1.87.13-2.35-.9-.3-.8-.48-2.34-.6-3.28zm17.3 0c.1-.9-.36-1.74-1-1.97-1.28-.54-2.55-.67-3.9-.6-1.47-.04-1.85.3-1.85 1.05-.02 1.26-.07 2.47 0 3.42.07 1.18.04 1.27.7 1.45 1.1.2 2.92.25 4 1.06.85.6 1.83.12 1.87-.98-.02-.84.05-2.5.17-3.43zm-16.02 7.9c1.55 2.92 3.32 7.36 6.54 6.54.05-2.23-3.47-3.77-6.53-6.53zm4.8 1c6.26 2.56 11.65 1.93 12.33 5.86-5.86.63-8-1.78-12.32-5.86zm30.65-.6c-1.57 2.74-3.37 6.92-6.63 6.16-.06-2.1 3.52-3.56 6.62-6.17zm-4.38.83c-6.35 2.43-11.83 1.83-12.5 5.56 5.94.6 8.1-1.67 12.5-5.55z" fill-rule="evenodd" fill="#fff"/><path d="M286.8 302.57h13.6c.05 5.15 3.07 10.67 7.3 13.84h-26.08c4.08-3.7 5.2-8.08 5.17-13.83z" fill-opacity=".53" fill-rule="evenodd" stroke="#000" stroke-width=".97" fill="#fff"/><path d="M286.8 302.57h13.6c.05 5.15 3.07 10.67 7.3 13.84h-26.08c4.08-3.7 5.2-8.08 5.17-13.83z" fill-rule="evenodd" fill="#fff"/><path d="M189.7 385.76c-.76.57-.7 2.3.75 2.88 13.6 4.88 26.72 13.9 64.48 13.54 38.12-.36 51.5-9.16 63.7-13.23 1.64-.62 3.17-1.88 1.08-3.65-6.85-5.6-14.26-10.1-19.15-17.03-.87-1.25-3.25-.54-4.72 0-14.55 5.1-28 8.7-41.97 8.66-13.64-.02-27.87-3.78-40.67-9.04-1.24-.54-3.25.05-4.2.97-5.94 5.92-12.4 11.66-19.3 16.88z" stroke="#000" stroke-width=".49" fill="none"/><path d="M208 376.4c-1.63-1.06-2.37.3-1.2 1.74 1.5 1.65 3.92 2.64 6.45 3.35 1.47.4 4.52-.12 6.08.06 1.22.16 1.9 2.6 4.1 2.5 2.23-.08 3.66-6 3.74-8.96.1-1.97-2.62-.7-2.36.08.72 1.95-.6 6.3-1.97 6.3-1.02-.05-2.12-2.17-3.65-2.42-1.2-.2-3.02.14-4.26.15-3.6.04-5.17-1.76-6.92-2.8z" fill-rule="evenodd"/><path d="M211.06 374.8c1.93.96 3.6-.76 4.72.45 2.8 3.2 6.43-1.53 2.2-1.36-1.7.05-1.97-1.3-4.94-1-1.58.2-2.9 1.36-1.98 1.9zm.45 14c-1.52-.67-2.03.77-1.13 1.67 1.25 1.14 6.48 1.6 7.75.68 2.12-1.6.57-5.8-.38-7-.6-.72-2.37-.77-1.67 1.15.3.9 1.6 3.1.53 4.1-.96.93-3.63 0-5.1-.6zm11.72 1.28c.34-.86-.56-2.34-2.13-.6-1.3 1.35-.25 7.1 3.87 8.12 4.03 1 7.05-.46 7.6-2.66.4-1.46-1.82-2.74-.68-4.03.95-1 2.78.03 3.57-1.58.46-.9.5-2.75-1.98-3.96-1.08-.53-2.94.7-2.9 1.6.06 1.25 2 .44 1.3 1.52-.52.83-2.8.48-3.5 2.43-.42 1.25 2.58 3.54.98 4.12-1.42.5-3.28.8-5.17-.23-1.16-.62-1.65-3.2-.97-4.72zm-14.52-7.9c-.95.14-2.28.83-2.35 1.97-.06.92.7 2.5 1.98 1.44 1.32-1.03.3-1.52.6-1.15.66.66-.3.72-1.52 2.36-.83 1.26-2.64 1.06-3.56.62-1.6-.82-1-1.35-2.74-2.13-1.73-.86-2.8 1.14-1.14 2.04 1.83 1.05 4.8 3.14 7.76 1.6 1.75-1 3.8-1.9 3.72-4.1-.1-1.44-.74-2.94-2.73-2.66zm94.58-.76c-1.35-.96-.53-2.7 1.44-2.06 1.68.62 4.46 2.6 4.64 5.17.2 2.83-4.34 4.9-6.08 4.8-2.98-.24-2.45-2.6-.23-2.44 1.72.12 3.83-.5 3.95-2.3.1-1.55-2.75-2.45-3.72-3.18zm-9.8-6.9c-1.75-1.77 1.9-3.66 2.95-1.53 1.4 2.7 3.07 5.36 4.33 8.35 1 2.45-.3 2.78-1.14 1.44-1.38-2.34-3.48-5.47-6.16-8.3zm-8.52 5.22c1.87-.8 1.83 1.52 1.14 1.98-1.23.68-2.9-1.14-1.14-1.98zm5.55-2.04c1.88-.8 1.83 1.52 1.15 1.98-1.24.68-2.9-1.14-1.14-1.98z" fill-rule="evenodd"/><path d="M232.5 380.97c-2.82-1.8.56-4.47 2.5-2.44 2.78 2.84 5.43 9.06 7.53 11.4 2 2.32.38-6.27.98-8.8.42-1.42 1.53-1.23 1.53.14 0 3.5-.53 10.62.38 11.18 1.7.97 1.4 2.54 2.83 2.28 1.52-.36 1.3-.76 2.66-.84 1.34 0 1.4 1.35 2.95 1.13 1-.13 1.3-1.26 2.5-1.3 1.1-.1.64 2.35-.06 2.75-1.16.64-4.73-.7-5.8-.6-1.26.02-3.53 1.2-4.93.67-1.7-.6-1.33-2.78-2.5-2.43-1.35.3-1.1 2.74-4.27 3.5-1.5.34-2-1-1.22-1.9 1.38-1.48 4.16-2.65 3.73-4.03-1.28-3.84-5.17-8.46-8.8-10.73zm24.4.52c1.35 4.43 1.28 10.33 2.05 14.36.38 1.6 1.9.18 1.75-1.06-.6-4.33-.86-9.65-1.98-13.76-.46-1.43-2.34-1.15-1.83.45zm3.73 1.14c-.35-1.85 1.42-2.02 1.68-.9.92 3.56.8 11.73 2.6 12 3.08.36 7.4-.28 11.25-1.06 1.88-.38 2.27-1.74 2.2-2.28-.36-2.2 1.7-2.03 2.2.3.28 1.2-.27 3.4-2.58 3.88-4.52.87-10.74 2.2-14.3 1.44-3.1-.66-2.1-8.7-3.04-13.38z" fill-rule="evenodd"/><path d="M265.65 385.83c.08-2.34 1.84-2.68 1.83-.68.05 4.8 5.65 3.55 6.84 1.75.88-1.4.24-2-.6-3.57-1.06-2.03 1.17-2.6 2.12-.84.72 1.25 1.2 5.28-.07 6.3-1.78 1.4-6.6 2.1-8.67.53-1.1-.76-1.53-2.2-1.45-3.5zm-2.43-6.24c.25 1.5 4.33.98 4.18-.17-.14-.98-4.4-.76-4.18.16zm5.3 1.2c.17 1.52 2.82 1.08 2.67-.06-.15-1.2-2.82-1.45-2.67.07zm8-1.82c-1.35-1.85 1.26-1.97 2.12-.6 2.23 3.33 3.7 8.7 5.86 12.3.92 1.68 2.07.2 2.2-.22.15-.43-.7-1.1-.76-2.58-.1-1.16 2.27-2.6 3.96-1.52 1.57 1.06.28 2 1.06 2.58.75.56 2.62.2 2.9-.15.82-1.3-.3-.55-1.45-1.3-1.32-.95-.52-5.06 2.2-3.35 1.64.94 2.12 3.96 1.53 5.63-.5 1.55-3.24 2.08-4.7 1.75-1.67-.5-3-2.5-2.67-1.98.82 1.35-.2 2.68-1 3.2-1.93 1.2-3.3 1.85-4.7-.16-2.5-3.77-3.9-10.1-6.54-13.62z" fill-rule="evenodd"/><path d="M205.65 121.27c-.1-2.24 3.37-2.42 2.97.67-.5 3.85 7.26 13.6 7.9 19.6.44 4.03-2.36 7.56-5.13 9.75-3.4 2.62-8.63 2.26-11.08.75-1.48-1.2-2.83-5.27-1.72-6.88.4-.54 2.16 6 6.06 5.96 5.3-.03 9.6-4.02 9.77-7.57.27-6.2-8.68-16-8.78-22.28zm15.55 15.3c.88-.63 2.28 2.1 1.3 2.8-.83.54-2.44-2.04-1.3-2.8zm2.34-5.55c-.45.22-1.33-.1-1.07-.46 1.25-1.78 3.9-4.45 5.8-5.38.6-.3 1.63.75 1.28 1.26-1.15 1.64-3.94 3.58-6 4.58zm20.53-16.3c.5-1 3.45-2.18 4.2-2.87.7-.72 1.03.6.73 1.22-.5 1.03-3.04 2.76-4.16 2.8-.6.04-1.07-.52-.77-1.14zm7 .34c.65-1.8 2.7-4.54 4.13-5.44.73-.46 2.04-.1 1.8.6-.55 1.53-3.07 4.2-4.77 5.46-.52.46-1.3-.2-1.15-.62zm-6 4.52c-.44.2-.2 1.13.2 1.26.9.3 2.48.35 3.2-.05 1.06-.65.58-4.64-.83-2.5-.94 1.3-1.63.88-2.58 1.28zm-11.88 9.15c-2.16-1.67.57-4.02 2.8-2.38 4.38 3.3-6.5 15.93-12.44 21.83-1.08 1.16-2.03-1.75-.64-3 4.25-3.6 8.22-7.92 11-12.37.52-.84 1.03-2.7-.73-4.07zm24.86-10.86c.27-1.6-2.6.03-2.64-2.1-.02-1.1 3.12-1.9 4.44-.6 2.22 2.24.56 6.05-3.14 6.3-3.08.12-8.22 4.36-7.44 5.25.9 1.1 8.88 1.83 13.53 1.1 2.88-.4 2.28 2.17-.67 2.52-2.84.32-5.16.02-7.82.86-3.13.9-4.5 5.1-6.23 6.66-.4.28-1.44-1.37-1.04-2 1.25-1.96 3.25-4.96 5.45-5.8 1.4-.58-3.82-.75-5.5-1.23-1.3-.4-.92-2.07-.42-3 .67-1.47 5.6-6.4 7.57-6.3 1.86.07 3.75-.47 3.93-1.67zm8.3.42c.92-.82 1.4-2.18 2.36-3 .53-.55 1.38.1 1.24 1.37-.12 1-1.48 1.9-2.4 2.65-.73.56-1.6-.65-1.2-1.02zm10.52-3.76c1.38-.15 1.72 2.5.22 2.93-.92.3-1.7-2.77-.22-2.93zm-3.46 8.2c-.02 2.3 1.1 2.1 3.26 2 2.1-.07 3.93.07 3.92-2 0-2.14-1.18-4.02-1.53-2.56-.3 1.37-.54 3.6-1.34 2.63-.75-.83-.45-1-1.74.37-.73.75-.8-.37-1.24-1.08-.3-.43-1.34.33-1.34.65zm-15.03 11.7c-.52 3.02-.05 7.25 1.5 7.3 1.92.06 5.88-6.6 7.75-10.08 1.13-1.93 3.06-2.27 2.26-.25-1.2 3.12-1.1 9.78-.03 11.73.57 1.06 4.83-.96 5.5-2.46 1.26-2.73.25-7.76.68-10.83.22-2.02 2.06-2.44 1.96-.57-.17 3.34-.5 9.47-.25 12.25.14 1.6 4.72 3.97 5.45-.88.4-3.05 1.96-6.06-.07-9.44-1.27-2.1 1.85-1.85 3.52 1.04 1.18 1.97-1 5.22-.9 7.73.2 3.87-2.82 6.06-5 6.1-1.95.05-3.22-2.35-4.82-2.38-1.77-.13-3.6 2.75-5.06 2.64-5.68-.38-2.67-8.7-4.4-8.8-1.93-.1-4.2 8.15-6.57 7.85-2.33-.3-4.75-6.73-3.78-9.45.88-2.54 2.54-3.14 2.28-1.52zM285.9 121.33c-2.77-1.7.17-6.1 1.53-4.54 2.6 3.12 5.25 10.56 7.1 11.17 1.16.4 1.1-5.5 1.93-8.17.53-1.98 2.92-1.33 2.46 1.2-.15.85-3.12 10.46-2.9 10.84 2.06 4.1 4.1 8.28 5.38 12.7.54 1.9-1.75.6-2.02.22-1.46-2.18-4-10.5-4-10.13-1.18 5.86-1.46 7.6-2.7 12.57-.4 1.6-2.74 1.3-2.2-1.5.5-2.32 3.86-13.68 3.67-14-2.64-4.67-5.05-8.36-8.26-10.37z" fill-rule="evenodd" stroke="#000" stroke-width=".97" fill="#fff"/><path d="M290.9 148.37c-.78-.1-1.97 1.7 1.87 2.42 5.14.92 10.77-.8 12.5-5.85 1.97-6 3.28-11.7 4.3-13.83 1.3-2.5 2.95-2.3 1.73-5.95-.86-2.63-2.46-1.84-2.8-.43-.9 3.83-4.3 16.2-5.37 18.5-2 4.15-6.06 5.8-12.24 5.13z" fill-rule="evenodd" stroke="#000" stroke-width=".97" fill="#fff"/><path d="M301.2 128.6c-.56-1.17-1.84-.26-1.6 1.04.12 1.16 1.07 1.8 2.02 1.77 1.13-.03 3.5.04 3.52-1.83 0-1.3-1.03-2.4-1.8-.96-.73 1.33-1.67 1.2-2.15 0zm1.28-4.93c-.4.27-.04 1.73.43 1.72 1.7-.07 4.07-.6 5.34-1.5.38-.25.22-1.13-.3-1.12-1.63.06-4.2 0-5.46.9zm14.26 3.68c1.22-1.9 4.58-2.1 3.37.62-.85 1.87-9.2 18-10.34 20.06-1.24 2.3-2.26 1.16-1.38-.63 1.2-2.32 7.98-19.5 8.36-20.05z" fill-rule="evenodd" stroke="#000" stroke-width=".97" fill="#fff"/><path d="M304.17 151.38c-.35-1.28-2.35-3.18-2.12.25.4 6.24 8.96 4.27 11.56 2.05 2.36-2.08.32 7.04 3.45 8.02 1.72.56 4.97-1.8 6.56-3.87 4.44-5.74 7.26-13.97 11.5-19.64 1.62-2.23-.87-3.8-1.87-2.05-3.7 6.2-8.3 18.87-13.32 22.16-4.1 2.63-2.87-3.36-3.02-5.16-.18-1.32-1.8-3.26-3.93-1.48-1.5 1.18-3.84 2.13-5.95 1.94-1.22-.07-2.26-.05-2.83-2.2z" fill-rule="evenodd" stroke="#000" stroke-width=".97" fill="#fff"/><path d="M319.47 139.8c.04-.35-1.8-.5-1.72 1.3.06 1.33 1.66 1.7 1.93 1.5 2.5-1.83-.53-.92-.2-2.8zm-3.66 7.3c-.5.12-.94 1.7.23 1.78 1.06.08 5.23-.37 6.38-.3.76-.03 1.04-1.45-.56-1.38-1.93.1-4.48-.4-6.03-.1zm27.63-1.85c1.7-6.4 5.85 1 2.2 4.64-5.63 5.5-7.33 16.04-16.27 17.63-2.4.52-6.65-1.08-7.9-1.98-.5-.35.3-2.64 1.82-1.52 2.18 1.7 6.67 2.1 9.05.15 5.08-4.98 9.2-11.6 11.1-18.93zm-92.88 14.25c-.4.46-1.64.4-1.75 1.04-.48 2.4 0 3.63-.53 5.95-.5 2.22-2.05 2.3-1.94.5.14-2.36 2.07-5.68.7-5.9-.9-.22-1.6-1.44-.67-2.04 1.78-1.23 2.74-1.05 3.96-.67.43.12.54.74.23 1.1z" fill-rule="evenodd" stroke="#000" stroke-width=".97" fill="#fff"/><path d="M249.3 156.34c-2.36 2.07-4.54 2.9-6.7 5.52-.9 1.07-.87 2.55-1.4 3.92-.53 1.44-2.24 1.73-2.77 1.43-.9-.58-.76-3.26-1.75-1.8-.84 1.32-1.38 3.15-2.62 3.12-1.12-.02-3.23-2.3-2.16-2.42 3.67-.38 3.62-3.32 5-3.5 1.54-.2 1.64 2.42 2.6 1.9.74-.4 1.1-3.46 1.9-4.3 2.5-2.53 4.46-3.87 7-5.74 1.28-1.02 2.2.83.9 1.9zm8.6 7.9c-1.88.4-1.56 2.82-1 3.12.9.42 2.33.6 2.86-2.2.24-1.13.47 5.7 2.98 3.07 1.44-1.6 5.03.3 6.53-1.72 1.07-1.33 1.4-2.26.57-4.24-.25-.6-1.72-.3-1.63 1.16.08 1.23-.87 2.74-2.1 2.5-.6-.12.34-3.02-.26-3.8-.33-.44-.83-.4-1.16.05-.46.63.46 3.4-1.05 3.78-1.92.44-.9-1.86-1.72-2.28-2.6-1.32-2.85.34-4 .58zm14.74-4.66c1.4-.4.95-.4 3.13-2.18.85-.64 1.02 1.24.93 1.98-.16 1.27-1.66.37-2.13 1.5-.68 1.43-.4 4.8-.63 6.16-.15.7-1.28.64-1.4.1-.3-1.68.24-3.32.2-5.4-.03-.7-1.04-1.82-.1-2.17zm-6.5-7.52c-.34 1.5-.3 2.76-.3 3.8.07.83 1.6.3 1.6.18-.08-1.32.22-3.16-.17-3.67-.22-.27-1.05-.6-1.13-.3z" fill-rule="evenodd" stroke="#000" stroke-width=".97" fill="#fff"/><path d="M205.65 121.27c-.1-2.24 3.37-2.42 2.97.67-.5 3.85 7.26 13.6 7.9 19.6.44 4.03-2.36 7.56-5.13 9.75-3.4 2.62-8.63 2.26-11.08.75-1.48-1.2-2.83-5.27-1.72-6.88.4-.54 2.16 6 6.06 5.96 5.3-.03 9.6-4.02 9.77-7.57.27-6.2-8.68-16-8.78-22.28z" fill-rule="evenodd" fill="#fff"/><path d="M214.9 119.97c.66.03 2.47 2.38 2.35 3.12-.08.33-1.94-.06-2.5-.55-.43-.35-.26-2.6.15-2.58zM206.14 137c-1.66.9.26 2.7 1.5 1.93 4.66-3 11.66-6.2 13.12-12.16.47-2.03 2.35-5.13 4.14-5.83 1.73-.67 4.24 3.13 5.88.14.96-1.7 4.32 1.12 5.13-.7 1-2.2.53-3.42.57-5.53-.07-1.4-1.13-1.8-1.9.44-.4 1 .07 2.03-.25 2.56-.25.4-1.02.8-1.47.45-.4-.3-.12-1.16-1.1-1.54-.4-.2-1-.35-1.28.14-1.17 2.1-1.82 4.04-3.46 1.82-1.46-1.92-2.2-5.23-3.27-.7-.4 1.6-2.82 3.92-4.25 3.92-1.8 0-1.34-4.7-5.28-4-2.02.44-1.88 4.3-1.58 5.74.5 1.98 6.4.56 6.1 1.86-1 4.5-7.26 8.8-12.58 11.46z" fill-rule="evenodd" stroke="#000" stroke-width=".97" fill="#fff"/><path d="M169.16 158.5c-.25.76.75 2.8 1.8 2.96 1 .08 1.54-2.2 1.2-2.95-.24-.54-2.82-.53-3 0zm5.4 7.97c-.65-.7-2.58 1.2-1.02 2.53.88.7 4.1 1.74 4.98.24 1.2-1.93-1.18-8.94-.13-9.87.8-.72 4.6 4.68 6.47 5.07 4.4.6 3.34-7.52 8.07-6.97 3.23.43 3.58-3.6 3.13-6.12-.36-2.42-4.27-5.9-6.07-7.46-2.36-1.98-3.42 1.44-1.93 2.57 1.9 1.53 5.27 4.62 5.8 6.66.26.97-2.33 2.9-3.3 2.37-2.2-1.2-4.23-6.35-6.16-7.53-.65-.4-2.26.5-1.48 2.1.87 1.73 4.73 4.4 4.96 6.24.2 1.68-1.72 5.3-3 5.3-1.38 0-4.92-4.37-6.02-6.43-.56-1-2.47-.9-2.67.47-.33 2.04.28 6.37.77 9.05.4 2.53-1.43 2.66-2.4 1.76zm-6.63-13.97c-.55.63 1.3 1.85 1.66 1.53.7-.6 3.46-3.76 2.92-4.86-.47-.98-4.26-3.12-4.88-2.06-1.14 1.85 3.58 2.67 2.84 3.2-.37.22-1.67 1.12-2.55 2.2zm6.8-13.78s1.2 4.06 2.16 2.37c.77-1.18-2.16-2.38-2.16-2.38zm1.94 6.45c-.43.24-1.66 1.2-.86 1.72 1.27.74 4.7 1.33 3.95-1.1-.45-1.44 5.17.03 3.8-3.85-.36-1.08-2.05-2.63-2.88-2.85-.53-.14-2.33.85-1.2 1.4.82.42 3.3 1.87 2.37 2.83-1.04 1-1.77-.45-3.07-.22-.65.14-.23 2-.6 2.5-.2.3-1.15-.62-1.5-.43zm8.9-15.42c-.7.36-1.96 2.28-2 3.17-.04.47.48 1.12.9.92.73-.37 1.88-2.2 1.92-3.03.02-.5-.38-1.27-.82-1.05zm4.65-.5c-1.37-1.66 1.45-4.14 2.72-.8.76 2.1 8.94 12.86 10.6 16.5 1.2 2.48-.04 3.5-1.5 1.73-4.14-5.28-7.53-11.86-11.83-17.42zm8.4.23c1.44-1.58 4.42-4.8 3.62-6.6-.62-1.55-2.43-1.4-2.73-1.04-1.76 2.1 1.26 1.58.83 2.3-.9 1.7-1.8 2.62-2.27 4.25-.1.37.28 1.36.55 1.08z" stroke-width=".97" stroke-linejoin="round" fill-rule="evenodd" stroke="#000" fill="#fff"/><path d="M169.16 158.5c-.25.76.75 2.8 1.8 2.96 1 .08 1.54-2.2 1.2-2.95-.24-.54-2.82-.53-3 0zm5.4 7.97c-.65-.7-2.58 1.2-1.02 2.53.88.7 4.1 1.74 4.98.24 1.2-1.93-1.18-8.94-.13-9.87.8-.72 4.6 4.68 6.47 5.07 4.4.6 3.34-7.52 8.07-6.97 3.23.43 3.58-3.6 3.13-6.12-.36-2.42-4.27-5.9-6.07-7.46-2.36-1.98-3.42 1.44-1.93 2.57 1.9 1.53 5.27 4.62 5.8 6.66.26.97-2.33 2.9-3.3 2.37-2.2-1.2-4.23-6.35-6.16-7.53-.65-.4-2.26.5-1.48 2.1.87 1.73 4.73 4.4 4.96 6.24.2 1.68-1.72 5.3-3 5.3-1.38 0-4.92-4.37-6.02-6.43-.56-1-2.47-.9-2.67.47-.33 2.04.28 6.37.77 9.05.4 2.53-1.43 2.66-2.4 1.76zm-6.63-13.97c-.55.63 1.3 1.85 1.66 1.53.7-.6 3.46-3.76 2.92-4.86-.47-.98-4.26-3.12-4.88-2.06-1.14 1.85 3.58 2.67 2.84 3.2-.37.22-1.67 1.12-2.55 2.2zm6.8-13.78s1.2 4.06 2.16 2.37c.77-1.18-2.16-2.38-2.16-2.38zm1.94 6.45c-.43.24-1.66 1.2-.86 1.72 1.27.74 4.7 1.33 3.95-1.1-.45-1.44 5.17.03 3.8-3.85-.36-1.08-2.05-2.63-2.88-2.85-.53-.14-2.33.85-1.2 1.4.82.42 3.3 1.87 2.37 2.83-1.04 1-1.77-.45-3.07-.22-.65.14-.23 2-.6 2.5-.2.3-1.15-.62-1.5-.43zm8.9-15.42c-.7.36-1.96 2.28-2 3.17-.04.47.48 1.12.9.92.73-.37 1.88-2.2 1.92-3.03.02-.5-.38-1.27-.82-1.05zm4.65-.5c-1.37-1.66 1.45-4.14 2.72-.8.76 2.1 8.94 12.86 10.6 16.5 1.2 2.48-.04 3.5-1.5 1.73-4.14-5.28-7.53-11.86-11.83-17.42zm8.4.23c1.44-1.58 4.42-4.8 3.62-6.6-.62-1.55-2.43-1.4-2.73-1.04-1.76 2.1 1.26 1.58.83 2.3-.9 1.7-1.8 2.62-2.27 4.25-.1.37.28 1.36.55 1.08zm105.55 21.9c-.35-1.28-2.35-3.18-2.12.25.4 6.24 8.96 4.27 11.56 2.05 2.36-2.08.32 7.04 3.45 8.02 1.72.56 4.97-1.8 6.56-3.87 4.44-5.74 7.26-13.97 11.5-19.64 1.62-2.23-.87-3.8-1.87-2.05-3.7 6.2-8.3 18.87-13.32 22.16-4.1 2.63-2.87-3.36-3.02-5.16-.18-1.32-1.8-3.26-3.93-1.48-1.5 1.18-3.84 2.13-5.95 1.94-1.22-.07-2.26-.05-2.83-2.2zm-82.97-14.8c.88-.64 2.28 2.1 1.3 2.8-.83.53-2.44-2.05-1.3-2.8z" fill-rule="evenodd" fill="#fff"/><path d="M325.33 134.76c-1.05-.85 1.03-4.96 2.43-3.35 3.86 4.48 5.65 18.97 6.77 29.82 0 0-1.74 1.45-1.75 1.22 0-5.78-2.32-23.46-7.45-27.68z" fill-rule="evenodd" stroke="#000" stroke-width=".97" fill="#fff"/><path d="M223.54 131.02c-.45.22-1.33-.1-1.07-.46 1.25-1.78 3.9-4.45 5.8-5.38.6-.3 1.63.75 1.28 1.26-1.15 1.64-3.95 3.58-6 4.58zm101.8 3.74c-1.06-.85 1.02-4.96 2.42-3.35 3.86 4.48 5.65 18.97 6.77 29.82 0 0-1.74 1.45-1.75 1.22 0-5.78-2.32-23.46-7.45-27.68z" fill-rule="evenodd" fill="#fff"/><path d="M327.7 160.08c.7-1.94 9.96-17.5 11.18-20.9.62-1.66 3.28 2.82.68 5.24-2.28 2.05-9 13.1-10.26 16.95-.58 1.75-2.34.92-1.6-1.3z" fill-rule="evenodd" stroke="#000" stroke-width=".97" fill="#fff"/><path d="M258.06 117.87c.27-1.6-2.6.03-2.64-2.1-.02-1.1 3.12-1.9 4.44-.6 2.22 2.24.56 6.05-3.14 6.3-3.08.12-8.22 4.36-7.44 5.25.9 1.1 8.88 1.83 13.53 1.1 2.88-.4 2.28 2.17-.67 2.52-2.84.32-5.16.02-7.82.86-3.13.9-4.5 5.1-6.23 6.66-.4.28-1.44-1.37-1.04-2 1.25-1.96 3.25-4.96 5.45-5.8 1.4-.58-3.82-.75-5.5-1.23-1.3-.4-.92-2.07-.42-3 .67-1.47 5.6-6.4 7.57-6.3 1.86.07 3.75-.47 3.93-1.67zm-24.87 10.86c-2.16-1.67.57-4.02 2.8-2.38 4.38 3.3-6.5 15.93-12.44 21.83-1.08 1.16-2.03-1.75-.64-3 4.25-3.6 8.22-7.92 11-12.37.52-.84 1.03-2.7-.73-4.07z" fill-rule="evenodd" fill="#fff"/><path d="M238.83 120.65c-1.24-2.87 1.88-3.93 2.34-1.9 2.17 9.44 7.36 16.57 11.3 22.98 1.2 2 .25 3.2-2.64 1.35-2-1.38-4.04-6.38-5.02-6.58-1.78-.33-6.04 8.13-14.77 5.72-2.26-.63-2.1-7.35-2.15-10.3-.1-1.4 1.44-1.77 1.5.13.07 2.73 0 8.4 3.48 8.6 2.86.16 9.17-3.87 10.5-7.02 1.2-3.24-3.18-9.68-4.53-12.98z" fill-rule="evenodd" stroke="#000" stroke-width=".97" fill="#fff"/><path d="M214.9 119.97c.66.03 2.47 2.38 2.35 3.12-.08.33-1.94-.06-2.5-.55-.43-.35-.26-2.6.15-2.58zM206.14 137c-1.66.9.26 2.7 1.5 1.93 4.66-3 11.66-6.2 13.12-12.16.47-2.03 2.35-5.13 4.14-5.83 1.73-.67 4.24 3.13 5.88.14.96-1.7 4.32 1.12 5.13-.7 1-2.2.53-3.42.57-5.53-.07-1.4-1.13-1.8-1.9.44-.4 1 .07 2.03-.25 2.56-.25.4-1.02.8-1.47.45-.4-.3-.12-1.16-1.1-1.54-.4-.2-1-.35-1.28.14-1.17 2.1-1.82 4.04-3.46 1.82-1.46-1.92-2.2-5.23-3.27-.7-.4 1.6-2.82 3.92-4.25 3.92-1.8 0-1.34-4.7-5.28-4-2.02.44-1.88 4.3-1.58 5.74.5 1.98 6.4.56 6.1 1.86-1 4.5-7.26 8.8-12.58 11.46zm32.68-16.35c-1.24-2.87 1.88-3.93 2.34-1.9 2.17 9.44 7.36 16.57 11.3 22.98 1.2 2 .25 3.2-2.64 1.35-2-1.38-4.04-6.38-5.02-6.58-1.78-.33-6.04 8.13-14.77 5.72-2.26-.63-2.1-7.35-2.15-10.3-.1-1.4 1.44-1.77 1.5.13.07 2.73 0 8.4 3.48 8.6 2.86.16 9.17-3.87 10.5-7.02 1.2-3.24-3.18-9.68-4.53-12.98zm5.24-5.92c.5-1.02 3.45-2.2 4.2-2.88.7-.72 1.03.6.73 1.22-.5 1.03-3.04 2.76-4.16 2.8-.6.04-1.07-.52-.77-1.14zm7 .33c.65-1.8 2.7-4.54 4.13-5.44.73-.46 2.04-.1 1.8.6-.55 1.53-3.07 4.2-4.77 5.46-.52.46-1.3-.2-1.15-.62zm-6 4.52c-.44.2-.2 1.13.2 1.26.9.3 2.48.35 3.2-.05 1.06-.65.58-4.64-.83-2.5-.94 1.3-1.63.88-2.58 1.28zm21.28-1.28c.93-.82 1.4-2.18 2.37-3 .53-.55 1.38.1 1.24 1.37-.12 1-1.48 1.9-2.4 2.65-.73.56-1.6-.65-1.2-1.02zm10.53-3.76c1.38-.15 1.72 2.5.22 2.93-.92.3-1.7-2.77-.22-2.93zm-3.46 8.2c-.02 2.3 1.1 2.1 3.26 2 2.1-.07 3.93.07 3.92-2 0-2.14-1.18-4.02-1.53-2.56-.3 1.37-.54 3.6-1.34 2.63-.75-.83-.45-1-1.74.37-.73.75-.8-.37-1.24-1.08-.3-.43-1.34.33-1.34.65zm-15.03 11.7c-.52 3.02-.05 7.25 1.5 7.3 1.92.06 5.88-6.6 7.75-10.08 1.13-1.93 3.06-2.27 2.26-.25-1.2 3.12-1.1 9.78-.03 11.73.57 1.06 4.83-.96 5.5-2.46 1.26-2.73.25-7.76.68-10.83.22-2.02 2.06-2.44 1.96-.57-.17 3.34-.5 9.47-.25 12.25.14 1.6 4.72 3.97 5.45-.88.4-3.05 1.96-6.06-.07-9.44-1.27-2.1 1.85-1.85 3.52 1.04 1.18 1.97-1 5.22-.9 7.73.2 3.87-2.82 6.06-5 6.1-1.95.05-3.22-2.35-4.82-2.38-1.77-.13-3.6 2.75-5.06 2.64-5.68-.38-2.67-8.7-4.4-8.8-1.93-.1-4.2 8.15-6.57 7.85-2.33-.3-4.75-6.73-3.78-9.45.88-2.54 2.54-3.14 2.28-1.52zM285.9 121.33c-2.77-1.7.17-6.1 1.53-4.54 2.6 3.12 5.25 10.56 7.1 11.17 1.16.4 1.1-5.5 1.93-8.17.53-1.98 2.92-1.33 2.46 1.2-.15.85-3.12 10.46-2.9 10.84 2.06 4.1 4.1 8.28 5.38 12.7.54 1.9-1.75.6-2.02.22-1.46-2.18-4-10.5-4-10.13-1.18 5.86-1.46 7.6-2.7 12.57-.4 1.6-2.74 1.3-2.2-1.5.5-2.32 3.86-13.68 3.67-14-2.64-4.67-5.05-8.36-8.26-10.37z" fill-rule="evenodd" fill="#fff"/><path d="M290.9 148.37c-.78-.1-1.97 1.7 1.87 2.42 5.14.92 10.77-.8 12.5-5.85 1.97-6 3.28-11.7 4.3-13.83 1.3-2.5 2.95-2.3 1.73-5.95-.86-2.63-2.46-1.84-2.8-.43-.9 3.83-4.3 16.2-5.37 18.5-2 4.15-6.06 5.8-12.24 5.13z" fill-rule="evenodd" fill="#fff"/><path d="M301.2 128.6c-.56-1.17-1.84-.26-1.6 1.04.12 1.16 1.07 1.8 2.02 1.77 1.13-.03 3.5.04 3.52-1.83 0-1.3-1.03-2.4-1.8-.96-.73 1.33-1.67 1.2-2.15 0zm1.28-4.93c-.4.27-.04 1.73.43 1.72 1.7-.07 4.07-.6 5.34-1.5.38-.25.22-1.13-.3-1.12-1.63.06-4.2 0-5.46.9zm14.26 3.68c1.22-1.9 4.58-2.1 3.37.62-.85 1.87-9.2 18-10.34 20.06-1.24 2.3-2.26 1.16-1.38-.63 1.2-2.32 7.98-19.5 8.36-20.05zm2.73 12.45c.04-.35-1.8-.5-1.72 1.3.06 1.33 1.66 1.7 1.93 1.5 2.5-1.83-.53-.92-.2-2.8z" fill-rule="evenodd" fill="#fff"/><path d="M327.7 160.08c.7-1.94 9.96-17.5 11.18-20.9.62-1.66 3.28 2.82.68 5.24-2.28 2.05-9 13.1-10.26 16.95-.58 1.75-2.34.92-1.6-1.3z" fill-rule="evenodd" stroke="#000" stroke-width=".97" fill="#fff"/><path d="M315.8 147.1c-.5.12-.94 1.7.23 1.78 1.06.08 5.23-.37 6.38-.3.76-.03 1.04-1.45-.56-1.38-1.93.1-4.48-.4-6.03-.1zm11.9 12.98c.7-1.94 9.96-17.5 11.18-20.9.62-1.66 3.28 2.82.68 5.24-2.28 2.05-9 13.1-10.26 16.95-.58 1.75-2.34.92-1.6-1.3z" fill-rule="evenodd" fill="#fff"/><path d="M343.43 145.25c1.7-6.4 5.85 1 2.2 4.64-5.63 5.5-7.33 16.04-16.27 17.63-2.4.52-6.65-1.08-7.9-1.98-.5-.35.3-2.64 1.82-1.52 2.18 1.7 6.67 2.1 9.05.15 5.08-4.98 9.2-11.6 11.1-18.93z" fill-rule="evenodd" stroke="#000" stroke-width=".97" fill="#fff"/><path d="M343.43 145.25c1.7-6.4 5.85 1 2.2 4.64-5.63 5.5-7.33 16.04-16.27 17.63-2.4.52-6.65-1.08-7.9-1.98-.5-.35.3-2.64 1.82-1.52 2.18 1.7 6.67 2.1 9.05.15 5.08-4.98 9.2-11.6 11.1-18.93zm-85.52 19c-1.88.38-1.56 2.8-1 3.1.9.43 2.33.6 2.86-2.18.24-1.14.47 5.7 2.98 3.06 1.44-1.6 5.03.3 6.53-1.72 1.07-1.33 1.4-2.26.57-4.24-.25-.6-1.72-.3-1.63 1.16.08 1.23-.87 2.74-2.1 2.5-.6-.12.34-3.02-.26-3.8-.33-.44-.83-.4-1.16.05-.46.63.46 3.4-1.05 3.78-1.92.44-.9-1.86-1.72-2.28-2.6-1.32-2.85.34-4 .58zm14.74-4.67c1.4-.4.95-.4 3.13-2.18.85-.64 1.02 1.24.93 1.98-.16 1.27-1.66.37-2.13 1.5-.68 1.43-.4 4.8-.63 6.16-.15.7-1.28.64-1.4.1-.3-1.68.24-3.3.2-5.4-.03-.7-1.04-1.82-.1-2.17zm-6.5-7.52c-.34 1.5-.3 2.76-.3 3.8.07.83 1.6.3 1.6.18-.08-1.32.22-3.16-.17-3.67-.22-.27-1.05-.6-1.13-.3zm-16.84 4.3c-2.36 2.05-4.54 2.9-6.7 5.5-.9 1.07-.87 2.56-1.4 3.92-.53 1.44-2.24 1.73-2.77 1.43-.9-.58-.76-3.26-1.75-1.8-.84 1.32-1.38 3.15-2.62 3.12-1.12-.02-3.23-2.3-2.16-2.42 3.67-.38 3.62-3.32 5-3.5 1.54-.2 1.64 2.42 2.6 1.9.74-.4 1.1-3.46 1.9-4.3 2.5-2.53 4.46-3.87 7-5.74 1.28-1.02 2.2.83.9 1.9z" fill-rule="evenodd" fill="#fff"/><path d="M250.55 159.5c-.4.46-1.64.4-1.75 1.04-.48 2.4 0 3.63-.53 5.95-.5 2.22-2.05 2.3-1.94.5.14-2.36 2.07-5.68.7-5.9-.9-.22-1.6-1.44-.67-2.04 1.78-1.23 2.74-1.05 3.96-.67.43.12.54.74.23 1.1z" fill-rule="evenodd" fill="#fff"/><path d="M238.13 347.45c.82 1.8 2 1.73 1.83 0-.34-2.22-1-5.3-1.4-7.95-.2-2.26-2.54-1.83-1.93.53.78 2.55.6 5.34 1.5 7.43zm7 .12c-.02.92 1.4.83 1.4.1-.16-2.3-.33-5.42.3-6.55.5-.88 2.54-.26 4.42-.43.75-.12.6-2.18-.97-2.05-1.84.16-6.7-.44-7 1.3-.4 3.08 1.93-.2 1.84 7.62zm14.08-8.93c1.2.84 1.02 1.95-.42 1.6-1.72-.42-2.88-.28-2.86.66.03.93.75 1.1 1.8 2.14 1.02 1.06-.6.88-1.86 3.06-1.07 1.8 1.1 2.03 3.67 1.35.66-.2 1.52.94-.1 1.86-1.14.62-4.32 1.37-5.1-.94-1.5-4 2.5-4.54.8-5.6-.9-.56-1.25-1.4-1.08-2.5.36-2.58 4.2-2.24 5.16-1.63zm5.3 8.8c1.55-2.83 2.62-4.95 3.05-7.34.38-2.17 1.93-2.38 2.26-.54.43 2.43 1.83 4.85 3.52 7.06 1 1.38-1 2.58-1.8 1.52-1.43-1.83-1.5-4.37-2.34-4.36-.98.02-2.1 2.84-3.13 4.92-.3.6-2.16 0-1.54-1.27z" stroke-width=".97" fill-rule="evenodd" stroke="#000" fill="#fff"/><path d="M238.13 347.45c.82 1.8 2 1.73 1.83 0-.34-2.22-1-5.3-1.4-7.95-.2-2.26-2.54-1.83-1.93.53.78 2.55.6 5.34 1.5 7.43zm7 .12c-.02.92 1.4.83 1.4.1-.16-2.3-.33-5.42.3-6.55.5-.88 2.54-.26 4.42-.43.75-.12.6-2.18-.97-2.05-1.84.16-6.7-.44-7 1.3-.4 3.08 1.93-.2 1.84 7.62zm14.08-8.93c1.2.84 1.02 1.95-.42 1.6-1.72-.42-2.88-.28-2.86.66.03.93.75 1.1 1.8 2.14 1.02 1.06-.6.88-1.86 3.06-1.07 1.8 1.1 2.03 3.67 1.35.66-.2 1.52.94-.1 1.86-1.14.62-4.32 1.37-5.1-.94-1.5-4 2.5-4.54.8-5.6-.9-.56-1.25-1.4-1.08-2.5.36-2.58 4.2-2.24 5.16-1.63zm5.3 8.8c1.55-2.83 2.62-4.95 3.05-7.34.38-2.17 1.93-2.38 2.26-.54.43 2.43 1.83 4.85 3.52 7.06 1 1.38-1 2.58-1.8 1.52-1.43-1.83-1.5-4.37-2.34-4.36-.98.02-2.1 2.84-3.13 4.92-.3.6-2.16 0-1.54-1.27zm133.85-82.26c-.1.58 1.46 1.44 1.83 1 1.68-2.02 3.88-5.98 4.33-8.37.15-.7-2.1-1.48-2.57-.9-1.58 1.88-3.1 5.77-3.58 8.28z" fill-rule="evenodd" fill="#fff"/></svg>