<svg xmlns="http://www.w3.org/2000/svg" height="480" width="640"><path fill-rule="evenodd" fill="#de2110" d="M0 0h640v480H0z"/><path d="M229.27 120.15c7.43-.72 8.94-.63 14.4.78-7 3.2-15.3 1.6-20.43-2.95-7.77-7.05-26.26-19.24-19.65-8.85 34.3 38.02 63.85 12.3 81.82 34.2 6.12 7.46 11.53 17.47 8.3 27.3-1.1 3.37-5.07 11.3-9.88 9.28-6.3-2.63 1.2-23.32-3.4-30.06-10.4-15.3-29.26-11.2-44.74-12.85-4.5 12.17-15.3 10.33-25.25 4.2-12.7-7.85-12.3-27.13-23.66-33.5-11.83-6.63-9.9 15.6-8 20.87 8.26 22.88 32.56 31.43 54.8 27.37-16.46 25.5-42.55-16.5-55.48-6.22-8.2 6.53 6.3 18.4 11.3 21.12 13.9 7.54 30.57 3.75 44.18-2.27-7.77 8.44-22.07 13.62-33.68 11.9-6-.88-18-8.42-23.47-3.4-8.43 7.76 12.15 16.95 17.15 18.04 16.85 3.68 28.8-5.22 42.1-13.9-8.36 8.35-17.28 19.8-29.47 22.3-7.6 1.55-24.38-6.2-29.3 1.85-5.86 9.63 9.7 15.72 16.67 15.12 16.5-1.43 31.8-14.7 44.2-24.54-8.52 12.1-21.7 24.9-35.78 30.37-7.4 2.87-20.1-1.57-25.68 4.88-8.58 9.92 10.3 15.78 17.26 14.1 20.3-4.94 31.12-27.15 50.52-34.6-13.16 12.1-27.1 30.9-42.3 39.88-7.53 4.47-19.84-1-25.8 5.58-13.5 14.9 20.3 18.08 29.84 10.2 16-13.22 23.66-32.16 42.47-43.04-12.55 17.06-28.44 42.55-44.4 56.32-7.6 6.56-24.28.8-29.1 8.1-9.66 14.64 21.52 17.16 29.3 11.98 25.5-16.98 26.9-56.36 58.94-65.88-9.08 19.45-18.14 45.77-40 52.63 3.28 9.88 14.88 10.74 22.33 3.54 12.8-12.36 10.15-40.5 32.4-41.44l-16.05 22.5c.86 9.2 17.33-3.14 22.37-11.98h2.1c-8.77 20.92-24.25 32.6-44.2 42.1.4 12.48-7.96 18.9-18.95 23.16-5.9-10.87-21.68-18.96-29.47-6.3 6.18.82 11.7 1.98 12.63 8.4-9.8-3.53-17.55-5.2-21.05 6.32 11.5-1.88 15.4-1.46 17.37 3.56-7.86 9.04-6.58 22.8 7.9 24.14-4.05-2.92-6.77-4.85-4.55-8.75 3.2-4.25 7 .06 8.87-2.48 3.47-5.07.34-3.3 4.77-1.26 3.63 2.6 9.53-8.27 17.94 10.06 10.1-7.27.38-18.76-3.88-27.36l31.57-6.32 35.8-33.68 2.1 2.1c-11.57 18.2-28.22 33.83-50.53 35.8 7.47 13.53 22.12 6.55 33.68 2.1-5.03 9.8-18.08 9.86-22.46 17.98-9 16.65 28.56-.5 30.88-1.14-3 10.56-14.82 12.68-17.9 21.64-2.38 6.95 7.36 7.64 11.5 5.62 8-3.9 13.2-14.48 19.03-20.95-2.72 12.64 2.44 22.64-11.47 37.24l21.34 26.25L341.5 391c-13.44-11.62-5.2-25.23-7.78-37.85 5.7 6.68 7.64 17.65 15.73 21.6 3.77 1.86 11.57 1.92 10.62-4.3-1.34-8.8-14.27-13.32-17-22.95 2.7.9 39.08 17.96 30.7 1.14-3.96-7.97-17.4-8.42-22.3-17.98 11.7 4.5 23.72 10.18 33.7 0-18.55-6.45-46.12-17.42-48.42-40L373.13 322l30.98 10.76v2.1c-7.54 7.87-11.9 13.36-5.65 22.96l7.7 2.3c-4.94-5.43-3.3-8.24 0-10.4 5.57-2.64 8.92 2.5 11.08-2.8.97-2.6 1.32-3.8 1.8-.65.56 5.58 8.3 1.3 11 2.02 4.23 4.15-2.06 8.32-2.77 11.83 11.96-4.2 14.23-11.53 10.53-23.16.78-4.4 3.54-6.5 6.3-6.3 3.14.36 5.62 1.4 8.43 2.1-4.1-10.74-11.36-10.33-21.05-6.32.87-6.43 4.05-9.56 10.52-8.42-4.86-14.6-22.44-2.88-27.37 6.3-11.44-3.8-22.4-10-18.94-23.15-19.35-9.2-37.36-20.6-44.22-42.1h2.1c5.05 8.84 21.2 14.92 20.07 6.7l-13.75-17.22c29.6 1.27 17.8 55.1 54.73 44.2v-4.2c-21.24-11.84-29.97-33.27-40-54.74 31.5 9.36 32.56 48.45 57.04 65.5 7.83 5.47 40.78 4 31.1-11.6-4.37-7.03-21.75-1.96-29.1-8.1-16-13.34-32.08-39.27-44.3-56.32 19.34 12.3 28.6 37.04 48.42 46.96 8.36 4.2 28.2 3.57 25.36-10.88-2.03-10.28-18.52-4.54-25.34-7.47-15.32-6.56-31.97-29.5-44.24-41.23 18.38 8.07 29.28 28.63 48.4 34.4 7.06 2.13 25.25-1.03 20.2-12.44-3.57-8.1-19.6-3.74-26.5-6.22-15.17-5.45-26.82-19.4-37.9-30.47 14.86 8.54 28.3 23 46.32 24.53 6.96.6 25-7.66 15.53-16.47-6.17-5.73-18.63.66-26.06-.18-11.95-1.36-22-11.9-29.47-20.52 17.4 10.68 71.36 15.23 61.9-7.1-6.56-5.47-13.73 4.04-26.64 4.4-13.53.03-26.94-3.18-38.02-11.7 14.1 4.75 30.3 9.8 44.83 3 5.17-2.43 23.68-17.76 11.72-23.03-9.33-4.1-18.95 9.1-26.43 12.46-9.28 4.14-20.1 1.12-29.47-1.2v-2.1c19.23-1 38.31-2.1 50.97-19.02 4.15-5.55 14.98-28.3 2.88-32-4.82-1.5-8.57 3.33-10.58 6.95-5.9 10.65-32.24 52.94-43.27 23.04-15.5 1.64-34.3-2.44-44.75 12.84-4.64 6.78 2.53 27.58-3.73 30.06-17.7 7.02-5.88-31.64-1.6-36.56 19.07-21.92 70.62-3.05 79.55-33.72.97-8.13-10.62 6.42-16.08 9.95-5.92 3.64-13.42 3.88-19.72 2.68 6.68-3.5 12.04-2.4 16.25-3.1-3.95-6.93-13-6.05-15.33-9.9-3.02-5.46-15.08-7.05-21.92-5.96-13.03 2.87-18.04 6.75-42.15 0l10.53 12.64-15.1 6.3 6.68 4.22-12.63 8.42c2.1.7 7.13.7 6.8 2.7l-10.2 17.3c-2.1-3.63-9.04-13.13-10.02-16.78-.5-1.62 2.44-2.38 6.42-3.1l-11.94-8.54 7.72-4.5-16.14-6.02 8.42-12.63c-13.42 8.96-24.94-3.55-40.5.1-6.6 1.5-11.96 8.9-18.2 7.66-5.27-.9-11.4 2.23-15.1 9.1z"/><path d="M132.34 331.3c.65.3 1.85.16 2.03.86-1.22.44-2.68.5-3.9.4.57-1.3 1.22-.82 1.87-1.26zm55.86.23c-.65.3-1.85.16-2.03.86 1.23.43 2.68.48 3.9.38-.57-1.3-1.22-.8-1.87-1.25z" fill-rule="evenodd" fill="#de2110"/></svg>