<svg xmlns="http://www.w3.org/2000/svg" viewBox="0 0 512 512"><path fill-rule="evenodd" fill="#3a7dce" d="M-85.33 0h682.67v512H-85.33z"/><path d="M111.82 240.35c-3.08-6.3-3.08-6.3-3.08-12.6-1.54 0-1.83.3-2.72.05-.9-.24-1.23 5.8-4.1 4.63-.5-.6 2.06-4.97-.7-6.8-.9-.58.2-4.17-.18-5.75 0 0-3.5 1.87-6.16-4.72-1.3-1.73-3.08 1.57-3.08 1.57s.77 2.02-.62 2.5c-1.98-1.46-3.42-.7-5.92-2.72-2.5-2.02.53-4.34-4.24-6.07 3.08-7.87 3.08-6.3 10.78-9.44-4.62-3.16-4.62-3.16-7.7-7.9-4.62-1.56-6.16-3.13-10.78-6.28-6.16-7.88-9.24-23.62-9.24-34.64 3.9-3.7 9.24 12.6 16.94 17.32l10.78 4.72c6.16 3.15 7.7 6.3 12.32 9.44l13.86 4.73c6.16 4.7 9.24 11 13.86 12.58 5 0 5.97-2.94 7.58-3.13 9.05-.47 13.67-1.66 15.47-4.44 1.82-2.2 6.2 1.3 18.52-3.44l-1.54-6.3s3.28-2.75 7.7-1.57c-.12-2.9-.4-10.56 3.95-14.03-2.64-2.84-.87-4.87-.87-4.87s2.46-2.42 2.75-3.7c-1.3-6.93 1.13-7.04 1.67-9.08.55-2.04-2.1-1.34-1.35-4.16.75-2.8 5.2-3.48 5.8-5.8.6-2.32-1.27-3.48-1.16-4.03.96-2.22.15-7.43 0-9.45 8.28-2.26 10.98-9.15 13.86-6.3 1.54-9.45 3.08-12.6 12.32-12.6 1.3-2.9-3.37-5.36-1.54-6.3 3.08-.4 5.44-.2 9.05 4.58 1.14 1.52 1.35-2.2 2.5-2.6 1.16-.4 3.92-.4 4.33-2.27.44-1.93 1.06-4.44 2.6-7.6 1.3-2.55 2.3 1 3.47 6.02 6.5.24 21.17 1.72 27.33 3.44 4.62 1.23 7.7-1.23 12.13-1.72 3.28 3.35 6.36.84 8.1 7.97 2.44 3.86 6.44.36 7.3 1.5 5.16 14.5 22.87 4.7 24.2 4.96 2.27 0 5.04 6.5 6.82 6.32 2.9-.5 2.07-2.5 4.6-1.7-.68 5.46 4.96 11.76 4.96 15.84 0 0 1.37.7 2.64-.52 1.27-1.2 2.43-4.32 3.56-4.25 2.7.4 3.8.75 6.9 1.3 8.35 2.92 12.6 3.58 15.84 5.07 1.5 2.83 2.97 4.27 6.03 3.74 2.53 1.74.7 4 2.18 4.16 3.08-1.57 4.1-3.3 7.17-1.72 3.08 1.57 6.16 4.72 7.7 7.87 0 1.58-1.54 7.87 0 17.32.77 3.14 1.14 5.64 4.45 11.04-.88 5.55 4.16 14.88 4.16 17.24 0 3.15-2.44 4.78-3.98 7.92 6.16 4.73 0 12.6-3.08 17.32 23.1 4.73 12.32 14.18 30.8 9.45-4.62 11.02-3 10.14 1.63 21.16-9.24 6.3-.2 8.22-6.35 16.1-.38.48 3.66 6.83 9.34 6.83-1.54 12.6-6.16 7.87-4.62 26.77-12.13-.25-7.22 14.12-15.4 12.6.48 9 4.66 9.8 3.08 18.9-6.16 1.56-6.16 1.56-9.24 6.3l-4.62-1.6c-1.54 7.9-4.62 9.46 0 17.33 0 0-5.97.2-7.7 0-.15 2.7 2.64 3.45 3.08 6.3-.24 1.13-8.76 6.1-15.4 6.3-1.73 3.9 4.62 8.02 4.23 10-7.22 1.42-10.4 10.47-10.4 10.47s3.7 1.52 3.1 3.15c-2-1.48-3.1-1.58-6.17-1.58-1.54.4-5.3-.1-8.9 6.12-3.95 1.33-5.8.85-8.8 4.9-1.33-3.86-3.24.03-5.57 1.53s-5.47 5.23-5.9 5.07c.1-1.08 1.45-5.02 1.45-5.02l-7.7 1.57-.95.1c-.6.06-.44-4.6-1.9-4.43-1.46.17-5.64 5.86-7.06 6.04-1.42.18-1.87-1.8-3.1-1.64-1.22.18-3.6 6-4.47 6.16-.87.15-4.3-3.54-7.26-3.03-15.16 5.47-17.56-10.77-19.92-1.62-3.18-1.72-2.63-.72-5.85.14-2.06.54-2.25-2.8-4.08-2.74-3.68.1-3.48 3.65-5.48 2.6-1.64-7.4-11.5-6.06-12.46-9.2-.8-3.3 4.27-3.28 5.9-5.5 1.26-3.2-1.3-4.43 3.78-7.53 6.6-4.58 2.8-6.3 3.97-9.74 2.08-4.97 2.1-6.18.36-10.56 0 0-5.15-14.17-6.16-14.17-3.08-.9-3.08 5.2-7.6 6.9-9.24 3.13-25.56-8-28.4-8-2.6.06-14.63 2.93-14.17-3.2-1.8 5.96-8.42 1.4-8.83 1.4-6.16 0-3.8 4.86-7.94 4.67-1.88-.64-20.84-1.77-20.84-1.77v3.15l-12.32-6.3-10.78-3.15c-9.24-3.15-4.62-11.02-20.02-6.3v-9.45h-7.7c3.08-18.9 0-9.44-1.54-26.76l-6.16 1.57c-6.16-8.5 8.57-6.9-4.62-12.6 0 0 .25-9.4-3.08-6.3-.67.4 1.54 4.73 1.54 4.73-12.32-1.57-15.4-4.72-15.4-17.32 0 0 10.16 1.48 9.24 0-1.44-2.36-3.32-17.7-2.98-18.75-.14-2.07 9.43-7.3 7.58-12.26 1.18-.44 4.64-.5 4.64-.5" fill="#fff"/><path stroke-linejoin="round" d="M527.55 303.26c-.5 1.1-.4 2.2.1 3 .92-1.37.15-2-.1-3z" stroke="#fff" stroke-linecap="round" stroke-width="2.25" fill="none"/><path stroke-linejoin="round" d="M131.5 178.94s-2.57-.32-2 1.95c.85-1.75 1.96-1.85 2-1.96zm.6-5.27c-1.43.05-3.17-.2-2.6 2.06.85-1.74 2.54-1.95 2.6-2.06zm9.7 30.2s2.22-.16 1.64 2.1c-.84-1.73-1.58-2-1.63-2.1z" stroke="#fff" stroke-width="2.11" fill="none"/></svg>