<svg xmlns="http://www.w3.org/2000/svg" height="480" width="640"><path d="M0 0v480L640 0H0z" fill-rule="evenodd" fill="#ffca00"/><path d="M0 480h640V0L0 480z" fill-rule="evenodd" fill="#ff6500"/><g stroke="#000" stroke-width=".99"><path stroke-linejoin="round" d="M222.4 340.58s-18.32-.63-25.9 8.63c-7.57 9.27-36.74 35.23-39.14 37.05-1.08.73-24.4 5.47-24.4 5.47 11.44-11.43 24.25-15.6 34.76-35.63-5.24 10.04-9.25 14.43-15.4 19.96-5.32-2.48-19.15 8.28-30.74 13.35.2-.4 12.7-10.5 19.48-23.4-3.86 3.37-12.67 11.83-16.53 15.2-9.18.88-13.33 11.04-16.84 12.42-21.5 6.98-15.13 2.73-20 7.36-1.97 3.85-6.16 6.9-8.72 7.17-20.17 2-20.75 8.62-31.06 12.4-6.6 1.93-10.78.07-14.52-2.52 5.05-1.82 11.34-1.4 15.15-5.47 0 0 18.47-22 35.36-24.4 9.7-1.7 11.16-7.38 11.16-7.38s-28.62 8-33.46 12.2c-4.55 1.3-12.3 2.42-19.15 1.7 12.66-4.67 20.5-11.07 24-14.95 2-2.22 13.88-2.32 13.88-2.32s20-8.62 20.42-8.62 15.15-8.63 15.15-8.63-17.68 4.63-18.1 4.63-20.65.84-20.65.64c5.4-6.9 24.8-7.38 27.6-9.05 6.5-6.5 26.72-4 27.57-4.85.84-.84-21.26-7.57-30.52-5.68-9.26 1.9-23.36-9.68-23.36-9.68s19.36-2.95 25.67-.2 29.06 8.62 30.32 7.57c1.26-1.05 26.2-9.9 29.05-6.74-2.46-5.26-5.56-5.12-5.48-9.7l13.9.64s7.14-9.47 6.93-9.9c-6.5-2.37-7.96-8.96-7.96-8.96 8.32 1.4 11.12.34 11.12.55 0 .2 7.35-8.2 7.35-8.2l5.06-8 3.8-17.26c-7.66 4.14-22.32-.2-22.1-.42 15.93-5.6 20.75-13.7 28-14.1-3.12-15.73 6.1-21.05 6.1-20.84 0 .22 6.3-13.67 6.3-13.67s-6.74-2.27-19.36 0c11.96-14.2 30.94-9.05 30.94-9.05 3.92-12.6 16-8 16-8.42-3.08-6.86 6.15-10.33 12.15-10.13-.86-5.1-6.34-10.5-8.44-14.78 10.02 6.45 20.47 3.95 25.74 13.33l9.47 1.06s10.53 1.9 10.74 1.9c.2 0 10.95 1.04 10.95 1.04 1.87-5.33-4.77-4.65-3.17-17.68 12.82 6.37 11.94 19.03 22.1 26.24 8-.55 10.43 2.25 14.38 5.9 4.63-.98 10.27 1.06 13.2 5.75-.14-4.98 1.3-11.98 7.58-3.17l11.57-.42s-15.2-22.14-28.62-9.67c3.92-13.54 17.68-12.2 17.68-12.2s-3.57-6.2-3.36-13.06c-7.34-2.94-9.68-15.36-9.9-15.15-.2.2-12.5 2.43-18.1 17.04-10.48-11.4 3.73-25.55 4.57-28.07l4.34-16.18c-1.13-5.32-.7-7.95 4.16-12.16-3.23-3.35-1.74-6.54 2.1-8.63-1.3-2.3-.23-4.58.36-6.87l51.42-2.94 11.58 15.9 1.9 8.64-4.43 11.37 13.26 15.78 4.83 5.06 10.1 5.9s9.48 4 9.7 4.2c.2.22 11.35 2.95 11.77 3.16.43.2 9.27 5.26 10.74 5.7s28.62 0 28.62 0l15.16-1.28-.2 24.84-8 1.9c-3.46 2.95-4.46 4.68-10.35 8.88-8.16 2.28-14.08 1.85-14.3 1.85-.2 0-8.2-2.1-8.4-2.3-.22-.22-9.06-2.95-9.06-2.95l-13.88-3.37c-5.7-.9-8 2.94-8.4 3.58-.43.63-2.75 28-2.75 28s-4.84 12.4-4.84 12.62c0 .2-4.5 8.3-8 11.15-.65 3.35-1.18 6.92-9.26 12.84-1.7 5.35-.32 10.5 5.47 11.58l8.42 3.36c4.2 1 8.42 1.98 12.63 2.96l13.88 2.95-9.9 21.68-24.4-4s-16.2-4.2-16.42-4.2c-.2 0-17.9-9.48-17.9-9.48s-5.68-12.83-5.68-13.05c0-.2-5.05-10.73-4.84-11.36.2-.64.2-6.74.2-6.95 0-.2-17.03-3.58-17.03-3.58l-17.88-1.9-19.58-5.26-14.94-4.4-9.68-3.37-10.74-.85s-14.1 2.1-14.1 2.32c0 .2-12.4 3.57-12.4 3.8-.02.2-8 18.72-8 18.72l-3.8 14.3 5.9 10.95 2.1 30.52-5.48 11.36 3.8 8.42 7.57 12.42 4.42 8.62-27.6 8.75-3.56-14.22s-9.47-23.36-9.26-23.57c.2-.2.42-7.8.42-8z" fill-rule="evenodd" stroke-linecap="round" fill="#fff"/><path stroke-linejoin="round" d="M250.3 307c5.72 1.7 5.83-9.56 10.4-13.76 3.63-15.2 23.28-14.66 29.5-4.47-20.82-1.56-12.8 10.14-19.2 15.2 16.37-7.74 31.46-6.4 34.86 4.47l-19.33 36.7c-10.5 5.23-15.22-1.93-26.72-8.53l-8.04-1.33c-.3-9.1-1.17-19.2-1.47-28.28zm12.8 70.46s28.04-.88 28.14 12.6c2.56 7.76 10.68 7.16-1.75 27.63.48-26.34-16.4-26.98-28.25-26.37 14.78 2.07 17.4 24.18 10.93 32.63-16.74-.6-30.73-4.23-47.47-4.83-5.83-6.46-12.75-21.57 9.8-32.28l28.6-9.4zm187.62-74.66l8.04-3.12s24.74-30.04 43.82-13.42c-13.1 1.97-23.77 17.8-23.77 17.8 7.1-5.3 33.78-3.63 30.9 19.78-28.54 8.45-29.35 23.43-27.7 41.26-19-.32-39.96-10.16-40.84-40.7 2.53-7.3 7.03-14.3 9.56-21.6zm102.3-127.22c0 10.35-8.38 18.74-18.72 18.74s-18.74-8.4-18.74-18.74 8.4-18.73 18.74-18.73 18.73 8.4 18.73 18.73z" fill-rule="evenodd" stroke-linecap="round" fill="#fff"/><path stroke-linejoin="round" d="M508.13 209.68c6.9 5.3 15.1 7.26 30.25 9 7.97-4.67 22.7-4.48 23.83-14.9 7.96-2.83 9.73-12.4 3.15-15.06-.28-2.82.17-13.73-12.06-14 1.63 4.07 3.1 15.2 3.1 15.2-6.38-.74-10.73 10.3-10.73 9.85 0-.22 3.5-17.5-13.5-18.02 5.85 9.8-1.7 17.57-1.7 17.57-1.8-2.23-1.8-6.15-5.1-7.36-8.44-3.55-10.05-13.86-9.7-19.4-4.42 3.75-7.72 7.5-7.56 12.46.08 8.16-.32 16.03.02 24.66z" fill-rule="evenodd" stroke-linecap="round" fill="#fff"/><path d="M533 110.03c14.4-2 27.32-5.77 35.82-12.1 2.74-2.04 25.88 1.83 37.8-5.28-18.07-1.04-30.03-3.6-33.24-2.55-10.12 2.95-33.68 9.5-35.52 8.67-.17 1.67-3.03 8.94-4.86 11.26z" fill-rule="evenodd" stroke-linecap="round" fill="#fff"/><path stroke-linejoin="round" d="M537.9 98.63c10.3-2.4 12.67-7.4 18.76-11.07 9.32-3.73 14.5-3.87 23.8-13.47-24.17 3.28-26.9 4.13-26.9 4.13-5 3.05-11.9 7.73-17.32 14.83 1.64 1.75 1.54 3.55 1.66 5.57z" fill-rule="evenodd" stroke-linecap="round" fill="#fff"/><path stroke-linejoin="round" d="M536.18 93c0-.1 9.43-10.6 9.52-15.07.4-1.5 4.8-4 6.47-9.9 1.07-16.07 2.57-16.42 2.57-16.42 7.57-4.25 5.96-13.47 9.47-20.37 0 0-11.1 12.4-17.3 19.22-1.67 3.57-2.1 12.74-2.2 12.74-1.76 4.13-6.28 4.67-9.76 11.54-1.96 5.2-.32 9.98-3.28 16.77 2.02.04 3.1.54 4.52 1.5zm-20.8 247.4c0 13.94-11.32 25.25-25.26 25.25s-25.26-11.3-25.26-25.26 11.3-25.27 25.26-25.27 25.25 11.3 25.25 25.26zM270.8 425.8c0 12.67-10.28 22.94-22.95 22.94s-22.94-10.27-22.94-22.94 10.28-22.94 22.95-22.94 22.94 10.27 22.94 22.94zM312.25 325.64c0 10.93-8.86 19.78-19.78 19.78s-19.8-8.85-19.8-19.78 8.87-19.78 19.8-19.78 19.78 8.85 19.78 19.78zm-90.36 23c-7.17.4-14.45 2.9-14.24 3.1.2.22 7.8 4.22 6.73 5.48-1.06 1.26-11.22 12.58-10.6 12.58 7.64 2.2 17.75-2.48 17.75-2.48s-4.12 6.64-4.8 8.68c6.8-3.66 13.18 1.12 14.73-2.54l-9.6-24.83zm150.2-65.73c-4.33 2.68-18.88-.32-18.88-.32 4.28 4.44 7 7.6 16.9 8.6-7.08 3.2-11.67 7.76-19.94 10.5 12.93 5.54 21.58-3.54 21.58-3.2s2.5 5.9.55 13.87c5.12-1.35 6.32-6.56 10.14-5.47-3.2-7.62-7.14-16.36-10.35-23.97zm81.06-66.7c-.37 2.4-.84 6.7-10.7 11.7 6.46 2.8 17.23-3.3 17.23-2.98s-8.77 15.6 6.28 22.2c-.4-11.8 1.66-21.2 1.66-21.2s5.53 7.6 9.6 16.55c6.5-7-2.32-20.2-2.32-20.2-7.17-1.65-14.83-4.4-21.76-6.06zm9.27-69.22s19.48 13.24 19.57 15c.08 1.78-1.78 9.12-8.1 12.4 15.18 1.78 16.78-7.75 16.78-7.75s-3.12 10.8-.6 14c8.36-5.15 8.1-13.33 8.1-13.33s5.58 8.44 4.3 13c1.78-.94 11.4-10.97 2.7-15.86 2.03-6.58 2.8-10.7-4.54-13.67-.8-3.96 1.3-5.23 1.94-7.84 0 0-7.26-2.2-8.1 4.05-.68 1.26-23.32-13.3-23.57-13.4-.06.4-8.47 13.48-8.47 13.4z" fill-rule="evenodd" stroke-linecap="round" fill="#fff"/><path stroke-linejoin="round" d="M467.65 139s18.04 9.58 19.22 11.86" fill-rule="evenodd" fill-opacity=".3" stroke-linecap="round" fill="#fff"/><path stroke-linejoin="round" d="M530.72 91.47c-2.4 0-11.92-2.98-18.2 1.66-2.88-4.62-5.97-8.24-15.08-6.3.08-4.12-1.56-3.6-3.74-4.9-2.3-5-5.97-7.2-13.08-4.03-6.18-6.37-16.18-6.65-23.2-1.72-10.62-3.15-24.67.52-50.96.23-1.8-.05-10.88 3.2-5.2 10.77-10.93-6.75-15.5 5.66-4.65 7.6 2.66 2.66 5.64 8.3 5.64 8.3s-18.98-13.58-29.4 1.6c-3.38 15.35 12.9 4.36 21 10.15 4.87 4.3 9.5 8.77 14.36 13.08 8.06-1.66 14.95-1.7 23-2.13-7.28 2.1-13.4 1.36-20.68 3.45 1.76 2.42 4.68 3.22 11 2.98l-13.45 4.7c8.24 6.37 18.63 2.2 26.56 3.3-5.03 7.55-15.36 15.5-28.4 11.87 5.6 8.95 16.78 7.8 28.17-3.8 9.53 1.65 15.7 2.82 27.9-1.3.58-.77 9.54-14.1 9.16-15.25 1.64.5 26.3 9.33 27.8 12.07.2-3.4 4.92-6.9-23.84-14.9-5.42-4.42 13.9-9.94 13.9-9.94l-.32 7.94c5.44-3.3 5.73-4.64 6.96-6.62 1.98-1.32 6.3 2.65 6.3 2.65l.23 7c2.38-.87 3.72-1.04 5.38-3.36s4.83 2.77 4.83 2.77c4.96.5 13.32-1.85 17.48-8.77-1.88-7.02-1-8.98 2.75-10.38 6.13-10 7.54-18.67-2.2-18.73z" fill-rule="evenodd" stroke-linecap="round" fill="#fff"/><path stroke-linejoin="round" d="M494.46 147.15s-3.04 3.8-2.45 11.13" fill-rule="evenodd" fill-opacity=".3" stroke-linecap="round" fill="#fff"/><path stroke-linejoin="round" d="M406.64 139.7s7.78 11.86 10.43 12.6c2.66.74 21 19.38 21.98 20.18 1.17.5 11.42.25 11.42.25-7.53-6.5-13.83-13.37-20.74-20.06 0 0-10.62-5.25-10.68-5.37s-5.68-7.66-5.68-7.66c-1.8-.57-3.7-1.46-5.37-2.84l-1.36 2.9z" fill-rule="evenodd" stroke-linecap="round" fill="#fff"/><path stroke-linejoin="round" d="M481.98 162.07c3.46-.84 8.26 2.03 8.6 4.47 1.86-1.1 6-1.1 7.5.34.68-1 3.72-3.7 6.84-2.53m-10.36-17.2s2.53 2.02 5.9 1" fill-rule="evenodd" fill-opacity=".3" stroke-linecap="round" fill="#fff"/><path stroke-linejoin="round" d="M535.8 156.75c4.2-.6 38.46-20.62 46.82 4.68C579.74 140 564 140.4 564 140.4s-.7-10.25-15.14-8.56c9.46 6.98 1.5 12.55.8 13.55-2.46-6.62-3.52-10.04-11.06-12.96 3.02 11.62-3.32 13.18-4.98 18.73-3.35-2.4-5.9-6.77-7.87-10.06-2.66 7.7-.33 12.33 2.7 16.34 2.65-.66 5.1-.83 7.36-.7z" fill-rule="evenodd" stroke-linecap="round" fill="#fff"/><path stroke-linejoin="round" d="M530.25 120.66c1.32 2.42 6.88 9.36-2.88 22.6-3.08-4.28-4.74-6.9-4.74-6.9s-8.3 5.4-7.36 23.97c-3.1-7.46-7.74-16.86 1.85-31-6.92 11.15-9.18 12.4-14.47 12.23 8.1-5.78 9.9-12.05 10.04-12.05 1.47.5 10.63.04 17.54-8.84z" fill-rule="evenodd" stroke-linecap="round" fill="#fff"/><path d="M524.02 90.52c1.82 6.8-3.18 11.5-7.03 15.12 8.34 16.37-18.46 15.05-8.8-.22" fill-rule="evenodd" stroke-linecap="round" fill="#fff"/><path d="M497.87 107.84s-1.97 2.52-.33 6.04M486.52 108c2.4.6 4.4 3.7.52 6.02-1.55.92-9.32-2.7-13.34 4.9" fill-rule="evenodd" fill-opacity=".3" stroke-linecap="round" fill="#fff"/><path d="M413.3 92.78c-3.13-.25-4.68 1.34-.9 5M416.3 82c-3.65-1.6-5.35 2.23-.97 5.27m11.5-4.95c-3.2-2.9-6 2.32-.88 4.28m16.8-4.28c-3.35-2.83-4.5 1.3-3.46 2.68" fill-rule="evenodd" stroke-linecap="round" fill="#fff"/><path d="M462.5 125.58c0 8.6-6.96 15.56-15.56 15.56s-15.56-6.96-15.56-15.56 6.97-15.56 15.56-15.56 15.57 6.96 15.57 15.56z" fill-rule="evenodd" fill-opacity=".3" stroke-linecap="round" fill="#fff"/><path stroke-linejoin="round" d="M461.6 130.68c-.42-.9-9.98-10.36-13-9.07-2.47.1-10.04 16.6-9.7 17.27 7.83 5.52 19.9.65 22.7-8.2z" fill-rule="evenodd" fill-opacity=".3" stroke-linecap="round" fill="#fff"/><path stroke-linejoin="round" d="M456.52 125.7c-1.18-.75-2.08-1.45-3.12.08s-6.73 15.34-6.73 15.34m27.57-46.6c-10.4-5.84-29.73 2.8-16.9 8.84-10.95-3.33-10.47 6.1-10.47 6.1m5.07-24.73c4.12-6.13 9.82-8.23 13.55-.54 4.96 6.6 14.3 1.66 14.3 1.66" fill-rule="evenodd" fill-opacity=".3" stroke-linecap="round" fill="#fff"/><path d="M423.6 89.82s-4.64 2.15-.34 5.46M447.12 87s-4.47.67-3 5.47" fill-rule="evenodd" stroke-linecap="round" fill="#fff"/><path d="M442.14 95.28c-.17 0-4.64.17-3.15 4.97m-2 3.14c-.17.16-5.63-2.33-2.82 4.63" fill-rule="evenodd" fill-opacity=".3" stroke-linecap="round" fill="#fff"/><path stroke-linejoin="round" d="M457.6 76.24c-19.4-11.84-40-35.68-68.26-26.6 28.67 5.1 46.18 21 46.76 25.93 10.6-.83 13.5-.58 21.5.67z" fill-rule="evenodd" stroke-linecap="round" fill="#fff"/><path stroke-linejoin="round" d="M429.34 75.74c-2.58-3.17-12.34-20.76-32.17-20.42 15.17 7.75 24.25 18.34 25.1 21 2.82-.16 4.82-.4 7.07-.58z" fill-rule="evenodd" stroke-linecap="round" fill="#fff"/><path d="M412.33 76.5s2.26-16.52 5.5-18.52-10.83-4.5-10.66 10c-11.84-9.66-23-8-24.84-7.33-1.84.67-27.84-.58-30.92 5.25 19.18-.4 24.68.84 26.43 2.75 11.75-3 18.42-1.25 26.26 8.1 3.57-.68 8.24 0 8.24-.26z" fill-rule="evenodd" stroke-linecap="round" fill="#fff"/><path stroke-linejoin="round" d="M393.84 85.16c-4.75-4.67-8.7-7.57-22.96-8.77-2.08-.27-7.57-1.43-10.96-2.58 9.07-6.28 36.6 2.6 39.68 6.67-.92 2.82.2 4.72 1.7 6.55-2.55-1.5-4.78-2.13-7.45-1.9z" fill-rule="evenodd" stroke-linecap="round" fill="#fff"/><path d="M403.67 77s-7.1-6.5-12.56-6.38c3.18 1.9 6.78 7.37 8.97 9.34 1.53-1.75 1.14-1.64 3.6-2.95z" fill-rule="evenodd" stroke-linecap="round" fill="#fff"/><path stroke-linejoin="round" d="M389.23 70.94c-.27.1-11.96 7.32 1.2 16.94-.87 6.17 6.45 7.04 6.45 7.04s5.4 8.2 5.4 8.14c-11.62-7.73-21.42-5.85-25.03-2.68-7.05-10.33-19-12-23.35-13.27-5.47-1.2-20.6-2.45-21.63 11.26-14.53-14.25 8.46-20.37 12.4-19.93 3.93-.7 26 3.55 27.4 6.33-1.24-13.05 10.6-20 17.16-13.82zm43.5 47.5s-38.78-7.23-51.43 1.4c-12.65 8.6-14.32 21.4-32.67 23.35-18.34 1.93-20.3 5.4-27.1 14.86 10.15-3.2 32.1-10.15 47.26-7.1 6.25-7 9.72-10.28 9.16-10.42 4.73-15.57 37.67-21.54 53.24-15.98.28-3.9 1.95-5.7 1.53-6.12zm-58.65-5.84l-57.97 1.67c-5.27 1.67-11.66 5.98-12.64 7.23-.97 1.25 2.5-13.62 10.15-12.93 9.88.98 36.85-.14 36.85-.14 8.2-3.05 17.1-6.1 22.52-4.03-1.95 4.87 1.1 8.2 1.1 8.2z" fill-rule="evenodd" stroke-linecap="round" fill="#fff"/><path d="M479.83 95.63S463.8 90.75 468 107.2c6.47 8.2 15.74-3.97 15.6-5.2" fill-rule="evenodd" fill-opacity=".3" stroke-linecap="round" fill="#fff"/><path stroke-linejoin="round" d="M436.15 114.2c-3.54-5.8-25.66-13.67-33.23-11.02 12.14 5.7 29.5 11.45 30.52 14.6 1.43-2.56 2.6-3.54 2.7-3.6z" fill-rule="evenodd" fill-opacity=".3" stroke-linecap="round" fill="#fff"/><path d="M510.64 94.1s-13.36 3.66-18.33.68-17.28-7.4-11.84-16.9" fill-rule="evenodd" fill-opacity=".3" stroke-linecap="round" fill="#fff"/><path stroke-linejoin="round" d="M375.2 98s-33.92-.85-39.53 9.3c22.07-5.1 38.33-4.4 38.33-4.4l3.1-2.8-1.9-2.1z" fill-rule="evenodd" stroke-linecap="round" fill="#fff"/><path d="M437.05 90.08s-7.84.24-4.04 5.7" fill-rule="evenodd" stroke-linecap="round" fill="#fff"/><path stroke-linejoin="round" d="M508.28 191.48s11.35-.38 12.66-1.88m35.42.47s4.78 3.38 9-1.4m-30.93 2.15s3.2 6 11.34 3.38m-29.5 9.37s-2.45 6.1 9.55 5.53c3.1 1.88.94 7.88.94 7.88m5.52-42s6.75-.38 7.97 2.62m-5.45-11.15s2.25.2 3 2.9c.75 2.72 3.47 1.32 5.07.1m-39.12 170.8c-5.9-5.6-18.58-5.75-12.53 8.15 2.1-6.35 6.04-8.77 12.53-8.16zm-2.4 8.28c-1.67-1.2-2.58 1.2-2.12 1.66m6.33-42.47s-9.07-1.05-5.44 9.52m-21.45-33.36s-1.2 10.72 7.25 11.92m-19.62 54.22c0-.15-7.86-3.48-10.28 7.25m2.86-57.4s0 9.05 4.08 12.38m-7.4 10.13c-.14 0-13.13 5.14-13.13 11.94M245.7 426.6c0-.15 8.36-8.8 10.18.9-.16 3.65-1.98 7.15-1.98 7.15m-.78-5.93s-4.7-.3-5.3 2.58m25.8-28.7c0-.15-10.62-3.34-12.14 4.85m-42.5.8s8.8-5.18 13.66.44m58.7-18.34c0-.15-8.14-.06-9.35 5.4" fill-rule="evenodd" stroke-linecap="round" fill="#fff"/><path stroke-linejoin="round" d="M409.34 155.95c-.97.95-.84 1-1.83 1.24-.97.35-1.92.4-3.06.4-.8-.26-1.68-.87-2.46-1.64-.73-.87-1.1-1.55-1.43-2.45 0-.62-.26-1.55-.43-1.93.33.65.93 1.68 1.25 2.35.35 1.08.7 2.34 1.02 3.47.27 1.26.4 2.45.4 3.88-.2 1.56-.62 2.95-1.22 3.88-.85.45-1.32.68-2.46.82-1.23 0-1.62-.22-2.66-.62-.47-.62-1.46-1.67-2.04-2.45-.3-1.14-.54-2.05-.6-3.26-.5-.72-.75-1.35-1.24-2.04-.22-.82-.6-1.23-.82-2.05-.25-.64-.82-1.3-1.1-1.9" stroke-linecap="round" fill="none"/><path stroke-linejoin="round" d="M261.42 391.28s-5.93 4.68-4.94 8.73m37.07-79.4s-9.52 2.32-4.76 10.68m4.62-6.33s-2.02 6.78 1.3 9.23m4.02-8.8c.15.43-1.3 7.2-3.32 8.36m-7.5-34.5s-.42 5.78 2.18 6.8m-19.5-23.95s-2.3 6.77 6.35 9.08m-22.2 13.27c0 .3 2.3 10.96 6.9 10.67m10.97 10.4s-11.83-6.65-12.98 10.8" fill-rule="evenodd" stroke-linecap="round" fill="#fff"/><path d="M477.4 97c1.15-1.1 5.18-2.42 6.27 3.65 1.1 6.06-7.07 5.34-7.13 4.38-2.2-.9-2.3-5.65.86-8.04zM494.62 83s-10.5-1.27-9.52 7.5c6.13 5.42 10.8.06 11.82-2.9.5-2.14.34-3.95-2.3-4.6z" fill-rule="evenodd" stroke-linecap="round"/><path stroke-linejoin="round" d="M350.37 113.37s1.26 9.45-6.3 7.24c-7.55-2.2 11.65 4.73-3.15 7.57-3.07 4.3-2.52 5.04-2.52 5.04s8.08-.8 3.06 9.8c-1.9 5.68 2.83-12.38 17.97-3.16-6.93-6.76-1.94-6.67 7.63-6.32-13.28-2.17-12.6-14.48 6.93-8.5-.04-1.84-3.6-7.32 2.83-10.4 12.6-3.46-26.14-.62-26.46-1.25z" stroke-linecap="round" fill="none"/><path stroke-linejoin="round" d="M347.32 121c2.05.97 10.17 16.42 15.74-7.92-2.44-.6-12.6.3-12.6.3.22 3.7-.43 6.15-3.13 7.62z" fill="none"/><path stroke-linejoin="round" d="M344.6 127.25c-.47 1.13-1.16 3-1.52 4.15 0 .78 0 1.62.14 2.2.1.97.42 1.67.83 2.5.4.55.45.68 1.1.82.53.3 2.75.3 3.45.4h2.35c1.1 0 2.08.02 3.04-.4.67-.2 1.2-.38 1.5-.97.68-.34.66-.67 1.1-1.38.2-.4.6-1.07.84-1.52.32-.5.4-.6.4-1.24.2-.38.15-1.18.15-1.8-.03-.86-.15-1.65-.3-2.47-.12-.44-.33-.73-.68-.55-1.4.55-2.96-.56-4.55-.56-1.53-.22-2.36-.62-3.87-.82-.63 0-3.56.92-4 1.65zm146.3 59.17h.2c-.6 0-.25-.03.83.62.72.26 1.4.52 2.04.82.37.54.78 1.16 1.23 1.63.24.6.56 1.57.82 2.24 0 .95.1 1.63-.4 2.05-.38.93-.94 1.02-1.44 1.62-.74.25-1.32.58-2.25 1.02-1 .27-1.4.6-2.45.82-1.1.5-1.8.58-3.07.6-.74 0-3.8-.16-4.54-.16 1-.03 4.2-.07 4.96-.24 1.12 0 1.75.12 2.45.62.92.3 1.44.6 2.25.8.56.24 1.67.34 2.25.63.32.55.94.84.6 1.44-.42.52-1.23.8-2.03 1.02-.54.37-4.6 1.07-5.13 1.44-1.92.16 3.88-.46 4.52-.62 1.17-.02 1.9-.15 2.86 0 .88.13 1.67.52 2.46.82.52.7 1.14 1.03 1.63 1.84.63.5.8.86.82 2.04-.27.5.2 1.96.14 2.73l-.9 2.7" fill="none"/><path stroke-linejoin="round" d="M474.35 186.63h.2c-.55 0-.27-.02.82.2.7.48 1.9.67 3.07 1.02.65.3 1.26.67 1.84 1.03.6.3 1.38.84 1.84 1.43.83.3 1 .8 1.63 1.23.22 1 .5 1.5.62 2.46-.1 1.08-.45 1.3-.82 2.03-.6.4-.97.95-1.84 1.23-.8.32-1.83.6-3.06.82-1.73.33-3.42.7-5.1.8-.85 0-1.06.2-1.85.22 1.02 0 2.37.1 3.06.4 1.28.02 2.73.12 3.68.42 1.86.23 3.65.54 5.52.6.37.62.68.94.82 1.85-.5.36-.84 1.04-1.23 1.43-.6.38-1.22.76-2.25 1.02-1.13.4-2.4.4-3.68.4h-6.54c-.2-.07-1.64-.2-.82-.2.85.4 2.54.8 3.68 1.03.78.23 1.22.65 1.64 1.22.5.38 1.24 1.06 1.63 1.43.33.54.42.88.42 1.85-.1 1.25-.5 1.27-1.43 2.04-1 .64-1.77.77-2.87 1h-3.07c-.82-.2-5.56-3-6.16-3.18.84.3 5.36 3.3 5.75 4.2.22.66.2 1.73.2 2.67-.03.98-.15 1.7-.6 2.24-.05.8-.26.61-1.03.61l1.03-.6c-.05.78-.26.6-1.03.6m16.15-17.37h1.03c.67.46.66 1.03 1.63 1.23.74.3 1.5.68 2.05 1.03.3.5.4.72.4 1.63 0 1 .24 2.36-.2 2.87-.35.4-1.64.4-2.25.6-.87.3-1.62.77-2.37.92-.95.2-2.5.1-3.15.52-.9.07-1.56.2-2.64.2-.63 0-1.05-.04-1.43-.2.92.32 2.4.7 3.47 1.23.97.27 1.5.7 2.25 1.23.8.6 1.26.9 1.43 1.84.4.6.4 1.38.4 2.45-.22.67-.37 1.65-.6 2.25-.45.66-1 .78-1.64 1.22-.48.05-.34.15-.82.2" fill="none"/><path stroke-linejoin="round" d="M466.38 186.42c.34.14 1.38.65 2.04 1.03 1.2.3 2 .78 2.86 1.02.46.56 1 .8 1.23 1.63.72.93.9 1.42 1.03 2.46-.08 1.14-.27 1.37-1.22 1.63-.7.23-1.52.37-2.45.4-.84.12-1.6.3-2.45.4-.58.3-1.76.22-2.66.22-.88.06-2.32.26-3.35.26 1.14.04 2.87.15 4.16.15 1.25.13 2.48.2 3.07.8.9.35 1.4 1.08 2.25 1.44.4.6.88.95 1.22 1.64-.28.8-.72 1.07-1.63 1.24-.58.3-1.76.2-2.66.2-.6-.3-1.9-.2-2.85-.2h-2.25c.84.28 2.2.6 3.27.8.76.44 1.93.8 2.46 1.24.33.5.87.8 1.22 1.43.46.38.55 1.07.2 1.65-.08 1-.36 1.52-.8 2.04-.66.43-1.23.82-2.26 1.42-1.45.63-2.83.8-4.5.82-1.12 0-1.66-.17-2.67-.2-.9-.32-2.06-.45-2.86-.62-.87-.24-2.05-2.08-3.2-2.13.8.1 1.72 1.96 1.98 2.53.3.58.2 1.76.2 2.66-.32.53-.4 1.58-.6 2.24-.05.7-.13 1.65-.42 2.04l.4-2.04c-.03.7-.1 1.65-.4 2.04" fill="none"/><path stroke-linejoin="round" d="M454.96 181.33c0 .08.7.46 1.2 1 .45.74.94 1.57 1.42 2.25.32.93.6 1.38.82 2.25.38.63.55 1.6.6 2.46-.02.94-.1 1.8-.6 2.44-.24.83-.65 1.15-1.43 1.43-.68.32-1.33.4-2.46.4-.74 0-2.38-.1-3.13-.1 1.3 0 3.5.1 4.78.1 1.42.1 2.36.22 3.07.83.9.25 1.6.7 2.04 1.22.7.5 1.35.64 1.64 1.43.2.65.2 1.72.2 2.66-.1 1.18-.44 1.2-1.43 1.44h-2.86c-.62-.2-1.8-.3-2.65-.4-.7-.1-1.48-.72-2.1-.92.55.5.45 1.7.46 2.75.17.73.22 1.67.22 2.66-.1 1.1-.35 1.38-1.03 1.84-1.1.24-2.7.2-4.1.2-1.14-.05-2.08-.2-3.27-.2-1.4 0-2.67-.16-3.98-.3.5.33.5 1.07.5 1.94.38.62.1 1.34 0 2.05-.06.9-.23 1.5-.6 2.05-.2 0-.36 1.12-.56 1.12" fill="none"/><path stroke-linejoin="round" d="M445.1 178.66c0 .07-.05-.05 1.03.82.62.5.93 1.12 1.43 1.84.18.77.44 1.45.6 2.25 0 1.2-.13 1.66-.6 2.45-.78.52-1.72.93-2.86 1.02-.68.22-1.64.34-2.46.4-.58.2-.5.32-1.32.42 1.3-.05 1.38-.2 2.75-.2.9 0 2.08-.1 2.66.2.92.12 1.58.25 2.04.8.85.24 1.2.6 1.64 1.24.64.43 1 .8 1.24 1.64 0 1.1-.13 1.74-.4 2.45-.37.7-.7 1.12-1.44 1.63-.53.45-1.3.56-2.05.8h-2.86c-.77 0 2.45.1 3.87.22.84.15 1.37.5 2.04.82.62.4 1.4.46 1.86 1.02.74.25 1.1.8 1.84 1.22.17.4.1.3.4.2" fill="none"/><path stroke-linejoin="round" d="M436.65 175.16c1 .5 1.56 2.25 1.7 3.3.3 1.03-.07 1.8-.4 2.85-.98.93-1.1 1.22-2.45 1.44-1.16.35-2.42.27-3.47.62-.7.3-1.36.55-2.25.82h-2.86c-.9.52.7.08 1.02 0 1.6 0 3.23.02 4.7-.2h5.93c1.04.15 1.2.5 1.63 1.42.44.53.58 1.43.62 2.46-.05 1.17-.23 1.52-.82 2.45-.6.74-1.1 1.06-1.84 1.64-.96.4-2.36.67-3.68.82-1.57 0-3.26-.1-4.7.2-1.1 0-5.42.3-5.05.68.72-.58 3.9-.47 5.05-.47 1.56-.32 2.95-.6 4.5-.6.97-.3 2.16-.4 3.27-.42 1.07 0 1.9.16 2.45.6.64.54 1.45 1.17 1.84 1.65.8.27 1.02.8 1.64 1.22.18.84.4 1.38.4 2.46-.25.72-.47 1.46-.8 2.04-.96.68-1.98 1.42-3.28 1.84-1.13.44-2.06.57-3.27.6-1.05 0-1.85.1-2.66.22l-7.63.1c1.84-.32 7.83-.1 9.06-.1 1.34 0 2.57.16 3.88.2.65.3 1.35.56 1.84 1.03.7.28 1.28 1.48 1.3 2.72" fill="none"/><path stroke-linejoin="round" d="M427.33 170.28c.18.36.9 1.8 1.22 2.65.22.9.2 1.86.2 2.86 0 1.27-.28 1.82-.8 2.86-1.13.75-2 1.47-3.28 1.84-1.08.2-1.97.12-3.07 0-.72-.3-1.33-.54-1.84-1.03-.77 0 .45.17.82.2.6.43 1.53.67 2.46 1.03 1.17.48 1.62.85 2.45 1.84.73.6.92.73 1 1.84.53.6.46 1.38.2 2.05-.62.42-1.3 1.1-1.83 1.63-.92.4-1.25.6-2.45.6-1.1-.03-1.7-.32-2.66-.4-.42-.4-.23-.3.4 0 .67.37 1.82 1.1 2.26 1.64.7.48.9 1 1.23 2.05.4 1.05.7 1.7 1.22 2.25.04 1 .2 1.54.2 2.65-.28.7-.47 1.4-1.02 1.84-.22.83-.74 1.17-1.02 2.04-.8.47-1.83 1.45-2.45 2.04-.83.28-2.86.5-4.1.5" fill="none"/><path stroke-linejoin="round" d="M436.52 300.5c.3.7.64 1.5.82 2.25.1.74.2 1.3.2 2.25-.32.6-.4 1.35-.82 1.84-.26.75-.84 1.03-1.43 1.43-.8.34-1.35.6-2.46.6-1.08 0-2.03-.05-2.86-.2-.9-.42-3-1.15-2.36-.7.8.25 1.9.8 2.56 1.12.86.56 1.5.9 2.25 1.83.65.45.9.82 1.02 1.63-.8.28-1.94.7-3.07.82-1 0-1.93-.05-2.65-.2-.66-.32-1.23-.63-2.05-.83l2.05.82c-.66-.3-1.23-.62-2.05-.82l-2.78-1.13c.55.53 3.66 1.82 4 2.57.3.7.48 1.58.63 2.65 0 1.2-.12 2.6-.4 3.47-.25.85-.62 1.23-1.04 1.84h-.42m7.98-9h.2c-.57 0-.26-.02.82.4 1.14.72 1.42 1.02 2.25 2.26.4.87.7 1.12.82 2.05.34.57.13 1.42 0 2.04-.54.46-.83 1.04-1.43 1.44-.4.6-.93.95-1.43 1.43-.7.15-1 .36-1.85.4" stroke-linecap="round" fill="none"/><path stroke-linejoin="round" d="M436.73 307.04v.2c0-.6-.03-.25.6.83.86.58 1.03 1.2 1.24 2.45.24.96.18 1.85 0 2.66-.63.36-1.45 1-2.35 1.12" fill="none"/><path stroke-linejoin="round" d="M446.53 311.76h-.2c.55 0 .27-.02-.82.2-.84.3-1.87.2-2.85.2-.76-.26-1.46-.4-2.25-.8-.67-.15-.78-.4-1.64-.42m3.48 9.2h-.2c.55 0 .27 0-.82-.2-.88-.6-2.36-1.6-3.18-1.86" fill-rule="evenodd" fill="#fff"/><path stroke-linejoin="round" d="M507.9 192.58c-.37.1-3.58.32-4.52.4h-2.86c-1-.24-1.98-.4-3.07-.42-.82 0-.57-.5-1.4-.5" fill-rule="evenodd" stroke-linecap="round" fill="#fff"/><path stroke-linejoin="round" d="M505 200.73l2.77-.22c.34 0-3.66.23-4 .23-.9.17-1.84.2-2.86.2-.63.13-2.1.14-2.65.42h-2.86c-.63-.04-.62-.17-1.24-.2" fill-rule="evenodd" fill="#fff"/><path stroke-linejoin="round" d="M425.47 297.43c.14.33 1.03 1.93 1.03 2.87-.02 1.07-.14 1.5-.62 2.04-.8.43-1.47.8-2.66.82h-3.68c-1.1 0-6.34-1.2-6.66-1.44.96.13 4.42 1.44 5.64 1.44 1.12.04 1.74.28 2.87.6 1.07.34 1.8.63 2.64.83.6.33 1.54.4 2.05.8.93.34.8.8 1.2 1.85-.07 1.03-.3 1.52-1 2.04-.46.55-1.3 1.04-2.26 1.42-.97.45-2.08.62-3.47.62h-2.86c-.67-.23-1.64-.37-2.24-.62l2.25.62c-.67-.23-1.64-.37-2.24-.62h-.2c.77.32.92.88 1.22 1.64.07.95.2 1.72.2 2.86-.2.82-.5 1.38-.82 2.05-.36.8-.68 1.35-1.22 2.04-.18.42-.42.75-.62.42" stroke-linecap="round" fill="none"/><path stroke-linejoin="round" d="M414.64 293.13c0 .07-.03-.06.4 1.03.43.5.58 1.35.82 2.04 0 1-.04 1.94-.2 2.66-.4.67-.7 1.06-1.43 1.43-.48.57-1.05.73-2.04.8-.6.3-1.67.2-2.26 0-.76-.17-1.54-.4-2.05-.8-.85-.2-1.38-.47-1.85-1.03-.75-.2-.6-.6-.2 0 .62.5.65 1.07 1.02 2.04 0 1.1.2 1.56.2 2.67.2.86.32 1.63-.2 2.25-.28.78-.8 1.02-1.23 1.64-1.1.23-2.03.4-3.27.4-.63-.46-2-.88-2.45-1.43-.75-.33-1.35-.75-1.84-1.22-.57-.26-2.76-2.05-3.08-2.56.5.48 2.88 2.38 3.28 2.98.55.37 1.07.86 1.43 1.22.57.4 1 1.12 1.65 1.64.45.8.77 1.08.82 2.24V314c-.02 1.27-.2 1.44-.82 2.24-.12.38-.28.02-.4.4" fill="none"/><path stroke-linejoin="round" d="M406.88 307.04v.2c0-.63-.05-.25.82.83.7.38 1.52.82 2.25 1.02.52.44 1.36.44 1.94 1 .92.13 2 .58 3.06.62" fill-rule="evenodd" stroke-linecap="round" fill="#fff"/><path stroke-linejoin="round" d="M406.16 287.8c.3.3 1.75 2.1 1.95 3.08 0 1.2-.13 1.56-.8 2.05-.7.32-1.34.4-2.46.4-1.1-.23-1.77-.92-2.87-1.42-.58-.56-1.3-.76-1.83-1.22-1.03-.35-1.2-.57-.2.2.97.54 1.8 1.04 2.44 1.43.87.62 1.16.7 1.64 1.85.23 1.17.53 2.23.6 3.48.46.67.53 1.42 0 2.05-.5.3-.7.4-1.62.4-.56-.48-1.13-.88-1.64-1.22-.4-.3-.95-.86-1.22-1.23-.55-.48-1.24-.85-1.64-1.43-.88-.38-1.28-.8-2.04-1.22-.7-1.1-.04-.06.4.4.5.8.9 1.7 1.23 2.46v3.06c-.02.86-.2 1.68-.42 2.25-1.04 0-1.84-.1-2.66-.2-.6-.25-1.58-.54-2.25-.82-.95-.53-1.55-1.02-1.83-1.84-.5-.57-.9-1.38-1.23-1.85-.4-.5-.55-.75-1-1.02.48.53.95 1.58 1.83 2.25.6.92 1.13 1.2 1.43 2.25.45.54.52 1.54.6 2.45 0 .9.1 2.08-.2 2.66-.12.96-.42 1.4-.8 2.04-.32.65-.67 1.26-1.03 1.84-.28 0-.2-.07-.2.2" stroke-linecap="round" fill="none"/><path stroke-linejoin="round" d="M410.35 284.55v.2c0-.27-.77 1.75-1.64 2.26-1.02.2-1.5.4-2.64.4H403c-.75-.24-1.66-.52-2.47-.8-.67-.6-1.3-.8-2.04-1.44-.62-.6-.8-.93-1.54-1.73-.3-.4-.08-.03.92.7.9.85 1.16 1.08 1.43 2.06.3.57.2 1.75.2 2.65-.03 1.15-.13 1.52-1 1.84-.63.35-1.4.4-2.46.4-.53-.46-1.37-.77-2.05-1.44-.6-.4-1.3-1.3-1.85-1.84-.32-.5-1.76-2.24-2.25-2.56.53.36 2.24 2.35 2.87 2.77.42.75.94 1.12 1.43 1.63.42.72.7 1.4 1.23 1.84.1.85.3 1.6.4 2.46-.04 1.1-.22 1.55-.82 2.04-.78.78-.98.8-1.82.4-.7-.48-1.45-.9-2.05-1.42-.76-.2-1.4-.5-1.84-1.02-.75-.26-1.28-.84-1.85-1.23-.32-.65-.85-1.23-1.43-1.64l1.43 1.63c-.32-.65-.85-1.23-1.43-1.64l-3.5-4.33c.46.53 4.46 5 4.73 5.76.62.5.97 1.22 1.22 2.25.1.82.2 1.54.2 2.45-.53.57-.7.97-1.63 1.22h-2.86c-1.13-.04-1.48-.27-2.45-.6-.83-.5-1.2-.78-1.64-1.44-.6-.4-.95-.87-1.64-1.22-.28-.4-.6-.52-.82-1.02-.37-.16-.3-.4-.6-.6" fill="none"/><path stroke-linejoin="round" d="M412.1 280.76c-.07 0-1.48.12-2.57-.1-1.4-.08-2.92-.2-3.68-.82-1.08-.37-1.3-.86-1.84-1.43-.6-.7-1.35-1.43-1.83-2.44-.4-.9-.6-1.67-.6-2.86v-3.27c0-.57.38-3.73.1-4-.02 1.1-.52 4.23-.52 5.43 0 1.04-.1 1.84-.2 2.66-.48.76-.98 1.63-1.85 2.45-1.18 1.02-2.2 1.75-3.67 2.04-1.17.36-1.44.23-2.05-.8-.75-.57-1.13-1.48-1.23-2.66-.3-1.16-.16-2.33 0-3.48 0-1.02-.1-2.76-.1-3.8 0-.46.1 1.37.1 1.55 0 1.22 0 1.92-.6 2.87-.48 1.05-1.17 1.82-1.85 2.66-.7.72-1.3 1-2.25 1.23-.98 0-1.83 0-2.45-.4-.76-1.06-2.1-2.2-2.66-3.5V264c.34.7.4 3.33.4 4.4-.07 1.05-.5 1.6-.8 2.65-.76.72-1.27 1.34-2.26 2.05-1.1.56-2.03.98-3.27 1.22-1.3 0-1.3-.12-1.83-1.22-.65-.73-.9-1.64-1.02-2.66-.28-.98-.5-1.96-.6-2.86-.2-.8-.2-2.65-.42-3.28v2.25c.12.93.4 1.73.4 2.87 0 1-.06 1.8-.4 2.45-.1.82-.36 3.1-.4 3.07" stroke-linecap="round" fill="none"/><path stroke-linejoin="round" d="M397.07 277.8c.1.44.4 1.8.4 2.86 0 1.2-.04 1.56-.6 2.45-.6.87-.95.83-2.25.83-1.12 0-1.88-.13-2.45-.6-.76-.28-1.15-.73-1.64-1.44-.56-.7-1.2-1.77-1.63-2.26-.2-.75-.62-2.64-.92-3.28-.22-.97.55 1.66.92 2.25.52.96 1.05 1.83 1.43 2.67.15.68.2 1.52.2 2.45-.4.58-.84 1.08-1.22 1.64-.73.24-1.43.4-2.45.4-.9-.13-1.4-.44-2.04-.8-.75-.26-1.16-.7-1.83-1.03-.38-.58-1.24-1.47-1.64-2.25-.5-.7-.65-1.78-1.02-2.45-.13-.98-.26-2-.6-2.66-.13-1.03-.33-1.76-1.03-2.25-.05-.53-.24-.43-.4-.82m3.47 9.22c.06.45.3 2.06.4 2.87 0 1.16-.26 1.5-.6 2.24-.4.58-.7 1.2-.83 2.04-.53.45-.82 1.02-1.42 1.43-.3.5-.63.42-1.43.42-.27.1-1.44-.07-2.04-.2m4.72-11.05c-.22 1.04-.64 1.9-1.02 2.87-.6.65-1.06 1.28-1.43 1.84-.72.28-1.34.4-2.46.4-.55-.38-1.27-.68-1.83-1.02-.3-.13-.72-.28-1.02-.4m34.74-146.8v.2c0-.5.02-.26-.42.62-.88 1-1.3 1.3-2.46 1.63-1.22.7-3.02.93-4.7 1.03-1.4.24-2.9.22-4.3.4-.44-.64-1.36-1.2-1.83-1.83-.5-.55-.74-1.12-1.24-1.84-.33-1-.95-1.82-1.22-2.86-.34-.98-.58-2.06-.82-3.07-.12-.9-.34-1.5-.4-2.45-.75-.2-.07.26.2.82.56.85.74 1.78.8 3.06.16 1.05.22 2.13.22 3.27 0 1.2-.1 1.9-.4 2.66-.72.72-1.2.86-2.26 1.02-1.23.3-2.72.2-4.1.2-.97-.13-1.3-.47-2.24-.6-.5-.45-1.3-.92-1.84-1.24-.37-.45-.8-.63-1.02-1.02" fill="none"/><path stroke-linejoin="round" d="M391.14 138.62c0 .07.62.92.62 1 0-.58-.03-.28.4.8.4 1.22.17 1.72-.6 2.66-.84.9-1.8 1.7-2.66 2.46-.93.42-1.7 1-2.86 1.22-1.36.17-2.8.24-3.9 0-.78-.44-1.75-1.15-2.24-1.84-.6-.58-.9-1.15-1.23-1.84-.18-.67-.4-1.56-.8-2.04-.07-.6 0 .16.12 1.05.24.73 0 .27.06 1.2v2.85c-.38 1.3-.92 2.95-1.22 4.1-.43.6-.8.98-1.64 1.2-.94.57-1.84 1.1-2.86 1.44-.56.46-1.4.4-2.46.4-.9-.36-1.1-.57-1.84-1.43-.52-.4-.64-.66-1.02-1.02m-3.88-.4v.2c0-.64.04-.26-.82.82-.4.63-.9 1.2-1.63 1.84-.48.85-1.5 1.8-1.85 2.66-.87.45-2.16.74-3.27 1.03-1.18.1-2.36.25-3.48.4-1.63.1-3.22.2-4.9.2-.98 0-1.98-.18-2.66-.4-.66-.55-.78-1.05-.82-2.26-.3-.87-.2-1.73-.6-2.25-.1-.48-.32-.78-.63-1.03" fill="none"/><path stroke-linejoin="round" d="M404.02 145.95v.2c0-.57.02-.27-.4.82-.48.75-1.18 1.62-1.65 2.25-.7.63-1.74 1.63-2.45 2.25-1.2 1-2.18 1.36-3.68 1.63-1.34.18-2.26-.18-3.48-.82-.96-1-1.1-1.3-1.63-2.45-.1-1-.18-1.8-.62-2.66-.17-.76-.42-1.48-.8-2.04.04-.7.32.42.4.82.23.56.33 1.67.62 2.25v2.86c.28 1.12.13 1.93 0 2.86-.35 1.17-.54 2.16-1.23 2.66-.8.28-1.93.4-3.07.4-1.4 0-2.93-.04-3.9-.6-.64-.45-1.2-1.08-2.03-2.05-.7-.9-1.2-1.36-1.44-2.25-.48-.73-.77-1.53-1.22-2.05-.1-.87.07-.1.4.2.28.57.74 1.6 1.03 2.26.38.73.8 1.4 1.02 2.44.53.66.92 1.44 1 2.46.3.63.22 1.9.22 2.86-.18 1-.4 1.27-1.43 1.43-.85.2-1.9-.13-2.87-.62-.72-.36-1.13-.7-1.64-1.44-.85-.67-1.35-1.35-2.05-2.24-.48-.5-.95-1-1.44-1.64-.55-.7-1.1-1.2-1.42-2.25-.32-.3-.5-.7-.82-1 .5.55.74 1.06 1.03 2.03.3 1.12.6 1.67.6 2.86v2.86c-.2.98-.67.9-1.63 1.02-1.12 0-2.08.07-2.66-.4-.9-.13-1.5-.37-2.04-.83-.85-.22-1.4-.7-2.04-1.02-.32-.48-1-1.38-1.43-1.84-.3-.88-.83-1.25-1.24-1.85-.3-.3-.3-.92-.4-.82.4.47.75 1.48 1.02 2.05.16.9.2 1.84.2 2.86-.23 1.06-.6 1.6-.82 2.65-.45.85-.84 1.94-1.22 2.65-.75.5-1.34 1.06-2.25 1.43-1.22.55-2.44.78-3.9.82-.98.33-1.8.12-2.65 0-.67-.3-1.43-.63-1.84-1.23-.52-.24-.7-.5-1.02-1.22-.74-.56-1-1.4-1.43-2.46-.3-.87-.62-1.63-.8-2.46-.36-.8-.58-1.8-1.04-2.45-.04-.5-.14-.35-.2-.83" fill="none"/><path stroke-linejoin="round" d="M395 163.73v.2c0-.54.02-.27-.2.82-.67 1.05-1.46 1.94-2.45 2.25-.6.3-1.65.2-2.25 0-.92-.47-1.55-1.06-2.25-1.84-.54-1-1.46-1.9-2.04-2.86-.5-.77-.87-1.33-1-2.25-.45-.52-.77-1.6-1.03-2.25-.06-.64-.06-.28-.25-.75.27.96.6 1.4.86 2.6.4 1.25.75 1.9.4 3.26-.16 1.26-.36 2.3-.8 3.5-.28 1.2-.66 2.1-1.03 2.85-.2.8-.54 1.5-1.02 2.05-.47.5-1.25.64-2.05.82h-2.86c-.87-.12-1.7-.4-2.66-.62-.95-.5-1.14-.74-1.84-1.43-.54-.67-1.07-1.16-1.43-2.04-.53-.36-1.27-.9-1.65-1.43-.62-.62-1-1.06-1.43-2.05-.2-.88-.4-1.5-.4-2.66-.04-.62.28.98.6 2.04.3.7.52 1.78.83 2.66v3.27c0 1 0 1.97-.2 2.86-.15.92-.5 1.34-.83 2.04-.58.36-1.2.8-2.04 1.03-.7.48-2.06.8-3.07 1.02-1 .26-1.9.4-3.05.4-1.18 0-1.73.02-2.25-.6-.5-.55-1.3-1.63-1.84-2.05-.28-.8-.7-1.12-1.43-1.84-.3-.8-.76-1.8-1.23-2.45-.15-1-.63-1.85-.82-2.66-.13-.3-.28-.72-.4-1.02" fill="none"/><path stroke-linejoin="round" d="M416.8 162.04c.05.28-.18 1.3-.33 1.9-.44 1.2-1.13 2.25-2.04 3.06-.98.6-1.37.94-2.46 1.02-.5.38-1.08.16-1.43-.2-1.05-.4-1.68-1.02-2.66-1.43-.92-.6-1.4-.95-2.25-1.44-.47-.7-1.08-1.5-1.63-2.05-.13-.2-1.3-2.17-1.08-1.55.44.64 1.5 1.88 1.9 2.8.5.67 1.07 2 1.64 2.65.56.7 1.3 1.5 2.04 2.45.46 1.13.94 1.95 1.02 3.07.32.6.4 1.7.4 2.65 0 1.12-.15 1.66-.2 2.66-.26.67-.52 1.43-.8 2.05-1.24 0-2.24-.2-3.08-.62-.66-.46-1.06-1.12-1.63-2.04-.4-1.13-1.1-1.92-1.63-3.07-.67-1.14-1.22-2.88-1.84-3.88-.14-1-.53-1.88-.6-3.07-.23-.37-.3-.48-.42-.9.14.96.2 1.73.2 2.94 0 1.25.08 2.36-.4 3.07-.36 1.1-.95 1.83-1.63 2.67-.83.52-1.56 1.22-2.66 1.64-1.2.43-2.15.62-3.46.62-1.32-.27-2.6-.4-3.83-.73-1.28-.12-2.2-.2-2.7-.92-.76-.85-1.6-1.78-2.26-2.86-.6-.4-.4-.44-.77-.87.43.68.36.6.57 1.7.4.8.4 1.46.4 2.44-.47.8-.98 1.68-1.62 2.44-.67.82-1.02 1.08-2.05 1.43h-3.07c-1 0-1.93-.04-2.66-.2-.88-.2-1.9-.6-2.86-1.02-.44-.36-3.23-2.66-3.56-3.1" stroke-linecap="round" fill="none"/><path stroke-linejoin="round" d="M366.8 175.8h.2c-.64 0-.25-.06.6 1 .63 1.26 1.03 2.36 1.65 3.5.15 1.25.38 2.3.4 3.67 0 1.45.12 2.82-.4 4.1-1.36 1.3-1.9 1.9-3.68 2.04-1.77.37-2.16.04-2.86-1.63-.5-1.05-.9-2.2-1.42-3.27-.28-.78-1.07-1.85-1.64-2.86-.3-.64-.75-1.6-1.23-2.46-.35-.95-.56-1.9-1-2.45-.16-1.5-.3-.66.2 0-.13 1.3.7 4.95-.28 5.44-.67.32-1.38.13-2.5.13" fill="none"/><path stroke-linejoin="round" d="M419.86 165l.1 1.4c0-.63 0-.28.2 1 .1 1.37.4 2.73.83 3.7v2.85c-.33 1.08-.5 1.58-1.23 2.46-.43.64-.68.83-1.64.83-.66.32-2.08.2-3.07.2-1.1-.3-2.5-.4-3.27-1.02-.68-.5-1.33-.82-1.72-1.46.3.1.2.58.2.26m-5.23 3.66v.4-.4.4-.4c-.18 1.92-.7 2.78-1.84 4.3-.75.88-1.5 1.68-2.65 2.24-1.62.85-3.25 1.1-5.1 1.23-1.4 0-1.95.06-2.67-.82-.9-.7-1.85-1.7-2.25-2.85-.74-.9-1.14-2.1-1.63-3.07-.23-1.16-.66-2.17-1.02-3.27-.25-.95.2.67.2 1.44 0 1.62-.26 2.88-.6 4.3-.45 1.3-.86 2.2-1.65 3.27-.8 1.28-1.78 1.75-3.06 2.67-1.96.43-3.73.4-5.73.2-1.3-.4-2.22-.68-3.27-1.43-.97-.3-2.17-.88-2.66-1.43-.98-.4-.64-.17-1.28-.5.15.95-.78 4.2-.96 5.2-.3 1.12-.44 1.73-1.22 2.26-.82.74-1.58 2.44-2.7 2.9-.84.2-1.88.78-2.95.86-.75.34-1.58.23-2.28.43" stroke-linecap="round" fill="none"/><path stroke-linejoin="round" d="M419.14 177.84c.08.45.4 2.15.4 3.27v3.5c-.05 1.14-.27 2.1-.4 3.05-.28 1-.7 1.43-1.43 2.05-1.07.56-1.77.98-2.85 1.22-1.28 0-1.65-.2-2.66-.8-1.23-.98-2.08-1.76-3.08-2.88-.84-.9-1.4-1.62-2.04-2.25-.14-1.08-.5-1.8-.82-2.87-.37-.5-.6-1.16-1.02-1.63.38.75.88 1.16 1.43 2.25.64 1.1 1 2.33 1.43 3.47.36.94.83 1.96 1.44 2.46.43 1.02.7 1.4 1.02 2.45.1 1.24.2 2.37.2 3.68-.4 1.2-.86 2-1.84 2.67-1.3.78-2.47 1-4.1 1.22-1.72 0-3.36-.1-4.7-.62-.55-.7-1.84-1.8-2.65-2.66-.68-1.12-1.34-2.15-2.04-3.27-.36-.94-.7-1.75-.82-2.66-.2-.66-.28-1.7-.6-2.25-.3-1.53-.2.84-.2 1.43v3.68c-.44 1.76-1.47 3.22-2.67 4.7-1.46 1.17-2.65 2.1-4.5 2.25-1.8 0-3.05.06-4.5-.8-.67-.8-1.7-1.86-2.45-2.87-.7-1.17-1.25-1.93-1.63-3.07-.15-.7-.25-1.78-.4-2.66 0-.83-.1-.14-.16-.83 0 .96-.07.9-.07 1.86.15 1.34.2 2.68.2 4.1-.47 1.55-.5 2.17-2.24 2.23-1.25-.1-1.6-.32-2.46-1.02-.98-.58-2.1-1.4-2.87-2.04-.8-.74-1.13-1.12-1.85-1.7" stroke-linecap="round" fill="none"/><path stroke-linejoin="round" d="M410.96 193.58h.2c-.6 0-.26-.04.82.6.38.6 1.1 1.48 1.63 2.26.55.75 1.17 2.1 1.65 2.66.4.72.8 1.24 1.02 2.04 0 1.25.17 2.3.2 3.48 0 1.25-.2 1.8-.6 2.66-.66.43-1.6 1.05-2.67 1.43-1.06.15-2.12.2-3.27.2-1.1 0-2.06-.07-3.07-.2-.7-.3-1.8-.75-2.45-1.22-.73-.65-1.52-1.77-2.24-2.66-.45-.73-.63-1.45-.8-2.24-.27-1.02-.4-2.1-.83-2.87-.15-.67-.33-1.5-.4-.2-.28.55-.2 1.6-.2 2.46-.24 1.08-.5 2.1-1.03 3.07-.78.72-1.3 1.67-2.46 2.04-1.36.86-2.92 1.04-4.5 1.23-1.2 0-2.6.15-3.68-.2-.7-.33-1.34-.68-2.25-1.23-1-.64-1.78-1.4-2.44-2.25-.77-.96-.77-1.63-1.23-2.86-.06-1.16-.33-1.85-.4-2.86-.16-.3-.4-.8-.62-1.03 0 1.44.2 2.62.62 3.9.07.96.2 1.8.2 2.85-.03 1.02-.23 1.7-.6 2.45-.75.55-1.08.87-2.05 1.23-.97.18-2 .2-3.07.2-.9-.24-1.6-.8-2.45-1.02-.5-.6-1.04-.85-1.63-1.84-.68-1.02-.82-1.18-.82-2.45.2-1.1.4-2.07.4-3.28 0-1.15.03-1.78.4-2.66.06-.85.1-.5.1-1.46" fill="none"/><path stroke-linejoin="round" d="M371.5 204.2h-.2c.6 0 .25-.05-.4 1.03-.5.95-.75 1.9-1.23 2.46-.23.83-.6 1.2-1.22 1.62-.27.75-.85 1.03-1.44 1.43-.62.3-1.3.56-2.03.82l2.04-.82c-.6.3-1.3.56-2.03.82" fill="none"/><path stroke-linejoin="round" d="M435.9 216.27c-.06 0 1.17-.6 1.1-.6.6 0-1.03.57-2.1 1.22-.63.3-1.94.2-2.87.2-.82-.2-2.16-.5-2.66-1.03-.28-1.1-.7-2.18-1.02-3.27-.33-.95-.5-2.04-.62-3.07-.3-.98-.5-1.8-.82-2.86-.37-1.16-.7-2.27-1-3.48-.3-1.02-.54-1.9-.62-2.87-.43-.35-.48-1-.6-1.63" stroke-linecap="round" fill="none"/><path stroke-linejoin="round" d="M428.55 214.03c-.15 0-.5.97-.82 1.63-1.34 1.57-2.86 2.8-4.3 4.1-1.27.6-2.25 1.47-3.68 1.63-.6-.55-.82-2-1.02-3.08-.57-1.93-.87-3.9-1.43-5.73-.5-.92-1-2.03-1.23-2.87-.35-.73-.47-1.6-.6-2.25.15 1.6.9 3.1 1.22 4.7.24 1.36.4 2.67.4 4.1v3.47c-.23 1.27-.63 2.46-1.43 3.27-.2.13-1.04-.44-1.85-.82-1.16-.63-2.52-1.36-3.27-1.84-.78-1.13-1.98-2.4-2.86-3.68-.38-1.27-.66-2.34-.83-3.68-.27-1.18-.6-2.84-1.02-3.68-.05-.67-.34-.7-.67-1.07-.2 1.32-.72 2.1-1.17 3.32-.5.55-1.15 1.13-2.03 1.84-1.28 1.17-2.7 2.37-4.1 3.28-1.3.82-2.35 1.15-3.88 1.23-1.46-.04-2.05-.17-3.07-1-1.7-1.06-2.82-2.56-4.3-4.1-1.1-1.2-1.52-1.65-1.63-3.27-.07-.9-.24-1.52-.4-2.46 0 .28-.08.2.2.2" fill="none"/><path stroke-linejoin="round" d="M390.1 216.68c-.05.42-.24 2.3-.4 3.07-.23.84-.54 1.25-1.23 1.63-.5.42-1.46.7-2.04 1.03-1.06.1-1.98.3-2.87.4h-3.06c-1.07 0-1.77.03-2.25-.6-.6-.5-1.24-1.54-1.63-2.25-.35-1.15-.42-1.87-.2-2.86 0-1.42.17-2.68.2-4.1 0-1.02-.1-3.17-.1-4.2" stroke-linecap="round" fill="none"/><path stroke-linejoin="round" d="M376.84 220.36v.2c0-.54 0-.26-.2.83-.28.8-.7 1.1-1.23 1.62-1.02.23-1.33-.03-2.45-.4-.72-.58-.9-1.08-1.43-1.64-.25-.7-.67-1.24-1.23-1.64 0-.44-.1-.3-.2-.6" fill="none"/><path stroke-linejoin="round" d="M370.4 218.62c0 .06.1.78.5 1.33.42.9.9 1.78 1.23 2.86v3.28c-.1 1.24-.28 2.66-.82 3.47-.44.66-1.6 1.17-2.64 1.64-1.05.5-2.24.56-3.48.6-1.46-.32-2.7-.83-4.1-1.63-1.22-.63-2.46-1.4-3.67-2.05-.55-.5-1.1-.73-1.62-1.43-.6-.44-1.08-1.06-1.64-1.44-.4-.58-1.1-1-1.63-1.64-.5-.36-.86-.9-1.22-1.43" fill="none"/><path stroke-linejoin="round" d="M433.98 230.22c0 .12-1.94 1.67-2.58 2-.8.57-2.13 1.12-3.27 1.63-1.6.5-2.84.8-4.5.8-.46-.67-1.72-1.5-2.45-2.44-.37-.73-1.04-1.9-1.63-2.85-.37-1.18-.8-2.38-1.23-3.47-.36-1.06-.68-1.67-.82-2.87-.33-.45-.6-1.85-.7-1.22.66.7.75 1.82 1.1 2.87 0 1.28.2 2.42.22 3.68-.3.82-.38 1.38-1.02 1.84-.45.52-.77.6-1.64.6-.6.37-1.17.03-2.04 0-1.07-.3-1.37-.5-1.84-1.2-.6-.43-1.02-1.25-1.84-1.85-.52-.97-.82-1.32-1.23-2.25-.26-.75-.48-1.6-.6-2.66 0-1.07-.17-2-.2-3.05 0-.74.05-2.44-.2-2.87-.17 1.24-.42 2.7-.42 4.1-.18.96-.24 2.1-.4 3.06-.46 1.03-1.1 2.1-2.06 3.06-1.28.73-2.4 1.02-3.88 1.23-1.55 0-2.97-.2-4.5-.2-.94-.54-2-1.26-3.06-2.05-1-.9-2.28-2.04-3.07-2.65-.24-.7-.75-1.14-1.22-1.64-.3-.55-.4-.48.2-.2.54.52 1.4 1.26 1.85 2.03.33.65.82 2.07 1.22 2.66 0 1.1.2 1.57.2 2.64-.2 1.06-.82 1.3-2.04 1.64-1.15 0-2.23-.12-3.05-.4-.98-.42-1.72-.73-2.25-1.24-.53-.35-1.27-.9-1.64-1.43-.77-.8-1.6-1.67-2.25-2.44-.4-.45-1.02-1.6-1.42-2.05.2.3.34.37.62.83.73.92 1.14 1.5 1.63 2.25.4 1 .73 1.5.82 2.66 0 1-.05 1.94-.2 2.66-.24.85-.6 1.35-1.44 1.63-.6.3-1.9.2-2.85.2-.7-.3-1.9-.82-2.66-1-.48-.6-1.46-1.3-2.05-2.05-.52-.67-.82-1.36-1.43-1.85.53.44.85 1.2 1.43 1.84.3.65.78 1.64 1.02 2.46.4.9.57 1.9.82 2.86 0 1.08-.08 2.05-.2 3.05 0 1.07 0 1.86-.42 2.46-.25.92-.72 1.35-1.64 2.05-.98.2-1.4.4-2.45.4-.42-.5-1.02-1.04-1.65-1.63-.28-.6-.7-1.5-1.02-2.04-.4-.66-.82-1-1.23-1.84-.63-.62-1.38-1.6-1.83-2.66-.52-.77-1.04-3-1.23-3.87-.28-.18.33.53.4 1.84 0 1.1-.06 2.07-.2 3.06.04 1.2.2 2.27.2 3.48-.1.8-.23 1.7-.6 2.25-.5.88-1.48 1.6-2.66 2.04-.45-.62-.97-.8-1.84-1.02-.85-.44-1.46-.64-2.46-1.02-.94-.68-1.34-.82-2.04-1.84-.67-.64-1.28-1.67-1.64-2.46-.15-.73-.2-1.67-.2-2.66 0-1.3.2-2.1.6-3.07.24-.82.78-1.4 1.44-1.83.58-.58 1.2-1.07 2.05-1.23.1-.6.56-.56 0-.6v.6c.1-.6.56-.57 0-.6" stroke-linecap="round" fill="none"/><path stroke-linejoin="round" d="M432.23 245.3c0 .1-.6.5-1.23.8-1.3.42-2.74.1-4.1 0-1.3-.32-2.27-.4-2.85-1.22-.66-.47-1.7-1.53-2.25-2.25-.3-.63-.5-1.37-.6-2.24-.14-1.08-.23-2.24-.42-3.28v-3.27c0-1.1-.2-1.6-.2-2.66.1-.1.15.5.4 1 0 1.3-.04 2.5-.2 3.7-.1 1.14-.5 1.88-.82 2.65-.6.74-.93.97-1.84 1.22-.67.4-1.83.58-2.86.62-1.26-.08-1.97-.35-2.66-1.04-1-.8-1.65-1.67-2.25-2.86-.35-1.14-.6-2.18-.6-3.47-.15-.9-.1-2.6-.42-3.28-.03-.6.17-1.85-.1-2.14.14 1.06-.1 3 .1 4.2 0 1.35-.04 2.64-.2 3.88-.56 1.25-.8 1.92-1.85 2.46-.62.62-1.4.93-2.45 1.22-1.57 0-3.2.12-4.7-.2-.74-.2-1.44-.6-2.25-.82-.56-.47-1.4-.76-2.04-1.43-.76-.8-1.3-1.6-1.64-2.65-1-1.28-1.73-2.5-2.25-3.88" stroke-linecap="round" fill="none"/><path stroke-linejoin="round" d="M427.5 256.76h-.2c.56 0 .28 0-.8.2-1.08.36-2.04.1-3.08-.2-.7-.3-1.4-.78-1.84-1.22-.7-.88-1-1.1-1.43-2.25-.34-1.42-.4-2.6-.4-4.1 0-1.2.32-1.96.6-3.07.37-1.12.86-2.92.86-4.17-.03 1.36-.77 3.4-.84 4.8V250c-.33.98-.33 1.88-.82 2.65-.66.94-1.25 1.25-2.46 1.43-1.2-.1-1.2-.45-1.84-1.43-1.08-1.3-1.68-3.05-2.04-4.7v-3.27c0-1.37.1-2.6.2-3.88.1-.85.15-.97.15.13.08 1.57.26 2.75.26 4.36-.28 1.2-.75 2.2-1.2 3.08-.9.12-1.58.4-2.67.4-1.1 0-1.92-.04-2.66-.4-.5-.86-1.52-2-2.04-3.07-.24-1.1-.57-2.05-.62-3.26-.24-.5-.3-1.6-.4-2.25.22 1.27.2 2.7.2 4.08 0 1.3-.04 2.57-.6 3.27-.57.76-1.3.8-2.25 1.03-1.04 0-2.16.1-3.07-.2-1.02 0-2.2-.07-2.86-.42-.93-.4-1.26-.7-2.04-1.22-.42-.62-1.23-1.42-1.64-2.46 0-1.08.14-1.97.6-2.65.2-.9.4-1.44.83-2.25.42-1 .8-1.42 1.23-2.05.36-.2-1 .92-1.64 2.05-.9.88-1.67 1.7-2.45 2.45-1.03.65-1.57 1.13-2.85 1.23-1.28 0-1.8-.23-2.66-.6-.56-.62-1.1-.73-1.24-1.65-.37-.9-.54-2.28-.8-3.06-.03-1.15-.2-2.15-.42-3.27-.1-.8-.2-2.43-.2-1.63 0 1.77-.1 2.8.2 4.5v3.47c0 1.08-.15 1.73-.4 2.46-.96.13-1.32.4-2.47.4-1-.26-1.55-.48-2.25-.8-.48-.47-.88-1.05-1.43-1.44l1.42 1.43c-.48-.46-1.7-1.56-2.25-1.94" fill="none"/><path stroke-linejoin="round" d="M420.47 268.52c-1.77 0-4.06-.92-5.83-.92-1.1-.28-2.35-.37-2.86-1.03-.44-.67-.76-1.5-1.03-2.65 0-1.45.1-2.28.82-3.48.54-1.05 1.4-1.9 1.84-2.66.6-.74 1.22-1.75 1.65-2.65.4-.64.4-.7.87-1.4.62-.1-1.9 1.38-3.73 2.62-1.43.64-2.63.8-4.3.82-1.27-.27-3.07-.68-4.1-1.02-.82-.72-.82-1.85-.82-3.27v-3.68c0-.78.04-.87-.14-1.37-.1 1.16-.32 1.65-.47 2.8-.1 1.34-.33 2.48-.8 3.68-.54 1-1.2 2.37-1.85 3.08-.65.82-1.5 1.28-2.25 1.84-1.38.24-2.53.1-3.9-.2-1.44-.5-1.72-1.07-2.24-2.46-.44-1.53-.4-3.2-.4-4.9.04-1.27.3-2.45.6-3.7v-3.46c0-.34.4-1.2.4-1.53" stroke-linecap="round" fill="none"/><path stroke-linejoin="round" d="M412 267.4c-.5.05-2.18.38-3.28.4-.8.26-2.16.2-3.27.2-1.2-.28-1.78-.3-2.25-1.02-.73-.5-1-1-1.64-1.43-.3-.6-.64-1.28-1.02-1.84-.1-1.15-.4-2.06-.4-3.26 0-1.08 0-1.86-.42-2.46v-.4M399.72 257.98v3.27c0 1.08-.16 1.92-.4 2.86-.12.98-.38 2.04-.82 2.67-.5.94-1.18 1.25-2.05 1.64-1 .14-1.26.17-2.04-.2-.7-.2-1.62-.67-2.24-1.22-1.07-.44-1.94-.97-2.66-1.64-.9-.63-1.5-1.27-2.04-1.84-.42-.82-.7-2-1.03-2.65 0-1.13.1-1.78.4-2.46.34-.66.77-1.15 1.24-1.64.5-.48 1.75-1.4 2.46-1.64" stroke-linecap="round" fill="none"/><path stroke-linejoin="round" d="M386.43 261.05h-.2c.7 0 .25-.04-1.03.82-.9.7-1.53 1.03-2.46 1.43-1.3.3-2.14.4-3.68.4-1.34 0-2.66.03-3.88-.2-.9 0-1.86 0-2.45-.2-.23-.67-.6-1.35-1.03-1.84-.15-.72-.2-1.66-.2-2.65.37-.58.65-1.8 1.02-2.25.52-.93.87-1.24 1.64-1.84.72-.48 1.28-.73 1.84-1.2.85-.3 1.18-.65 2.04-1.44.82-.75 1.15-1.27 1.84-1.84.46-.44 1.07-1.02 1.64-1.43.27-.87.74-1.45.82-2.47v-3.88" fill="none"/><path stroke-linejoin="round" d="M363.83 273.2c-.24-.1-.88-1.3-1.53-1.93-1.43-1.44-2.63-2.12-2.66-4.1.46-.67 1.27-1.2 2.25-1.63.55-.54 1.15-.98 1.83-1.22.78-.17 1.8-.2 2.86-.2 1.1 0 1.65-.18 2.65-.2 1.07-.03 1.55-.22 2.66-.22.4-.38.8-.2-.2-.2-.72.33-1.54.4-2.65.4-.9-.4-1.45-.6-2.45-.8-.55-.48-1.2-.64-1.64-1.24-.9-.5-1.2-.97-1.43-2.04-.14-1-.17-1.44.4-2.25.3-1.15.87-1.83 1.44-2.66.67-.68.98-.8 2.25-.8h3.07c.7.12 1.53.2 2.23.4-.97-.28-1.95-1.3-2.86-2.25-.87-.94-.9-1.24-1.43-2.25-.34-1.27-.77-2-.82-3.26v-3.07c.2-1.1.47-1.55.82-2.25" stroke-linecap="round" fill="none"/><path stroke-linejoin="round" d="M360.46 244.07c-.12.25-1 1.57-1.22 2.05-.26.73-.4 1.38-.4 2.45-.2.88 0 1.34.2 2.25.6.4 1.08.84 1.63 1.63.88.43 1.18.84 1.63 1.64.56.37 1.4 1.26 1.74 1.83-1-.07-2.16-.9-3.17-1.23-.58-.27-1.82-.64-2.45-1.02h-3.48c-1.1.1-1.3.45-2.04.82-.43.66-.74 1.22-.82 2.25-.23.68-.23 1.77 0 2.45.46.5 1.05 1.25 1.63 1.64.77.43 1.36.8 2.26 1.43.95.56 2.16 1.1 2.86 1.64.7.2 1.5.45 2.05.82.5.1 1.13.2.2.2-.55-.3-1.6-.4-2.25-.6-.96-.17-1.9-.5-3.06-.62-1.07 0-1.43-.02-1.84.62-.83.24-1.08.74-1.64 1.22-.36.77-.58 1.26-.6 2.46.2.82.42 1.23.6 1.84.15.35.54 1.1.82 1.33l-.82-1.33" fill="none"/><path stroke-linejoin="round" d="M351.67 223c-.55.15-2.4.73-3.48 1.04-.74.24-1.25.65-1.85 1.02-.6.4-.95.92-1.43 1.43-.24.72-.65 1.23-1.02 1.83-.32.67-.53 1.27-.6 2.25 0 1.37.47 1.9 1 3.27.7 1.2 1.27 2.58 2.26 3.27.84.52 1.5.9 2.45 1.43.66.18 1.66.65 2.26 1.03 1 .13 1.66.4 2.25.8h-1.62c-.96.05-1.8.18-2.46.63-.7.3-1 .84-1.63 1.23-.24.85-.6 1.2-.83 2.25-.34.68-.16 1.78 0 2.66.42.6.8 2.06 1.22 2.66.43 1.5.85 2.72 1.83 3.88.18.5 1.43 1.3 1.85 1.54-.63-.43-2.2-2-3.07-2.77-.5-.65-1.15-1.1-2.04-1.43-1.08-.4-2.1-.73-3.27-.8-1.12 0-1.75.1-2.46.4-.52.45-1.2.68-1.64 1.22-.58.42-.88 1.08-1.22 1.84.04 1.1.28 1.65.82 2.46.47.7.82 1.22 1.43 1.63.6.7 1.28 1.12 2.25 1.63.8.58 1.53.7 2.45 1.23.9.3 1.66.7 2.86 1.23 1 .56 3.76 2.55 4.6 2.87.18.27-2.72-1.73-3.6-2.26-1.03-.23-1.4-.58-2.24-.82-1.06-.5-1.62-.88-2.66-1.02-.9-.4-2.05-.64-2.86-.8-1.23 0-2.22-.2-3.47-.22-.9 0-.96.03-1.23.63-.7.53-1.08 1.13-1.63 1.84-.38.68-.82 1.28-1.22 1.84-.3.7-.63 1.57-.82 2.25-.18.84-.4 1.38-.4 2.46" fill="none"/><path stroke-linejoin="round" d="M334.1 261.85c0-.07.2.28.2.2 0 .58-.17-.14-.6-1.22-.68-.8-1.54-2-2.46-2.86-1.3-.93-2.66-1.88-4.1-2.46-1.23-.58-2.54-1.2-3.87-1.62-1.2-.23-2.42-.2-3.68-.2-1.24 0-1.42.33-2.26.6-.48.55-.92 1.1-1.22 1.85-.24.6-.4 1.57-.6 2.25 0 1.04-.2 1.83-.22 2.86 0 .83.2 2.23-.3 2.56.2-.9.4-2.62.7-3.8 0-1.22-.37-1.58-.8-2.65-.9-.98-1.7-2.02-2.46-2.86-.7-.9-1.6-1.97-2.46-2.67-.7-.43-1.4-.92-2.04-1.23-1.04-.42-1.52-.77-2.66-.8-.48.45-1.05.85-1.63 1.2-.6.42-.98.9-1.23 1.65-.37.55-.5 1.5-.6 2.45-.34.94-.42 1.56-.42 2.66-.26.35-.36.87-.4 1.43.1-.92.38-1.73.4-2.87-.16-1.06-.57-2.1-.82-3.48-.04-1.4-.3-2.26-.82-3.06-.88-.8-1.7-1.94-2.86-2.67-1.02-.5-1.83-.8-3.07-.82-1.1.02-1.66.3-2.45.63-.3.7-.4 1.34-.4 2.45 0 1.16.2 1.57.6 2.25.13.9.53 1.58.62 2.65.28.48.2 1.47.2 2.25-.1-1.1-.76-1.9-1.02-2.86-.25-1.17-.57-2.16-.82-3.07-.45-1.2-1.13-2.25-1.84-3.47-.72-.58-1.1-1.18-2.04-1.84-.93-.8-1.63-1.3-2.66-1.44h-2.86c-.84.33-1.1.65-1.64 1.23-.25.96-.74 1.75-1.02 2.44 0 1 .04 1.95.2 2.86.5.5.8 1.05 1.03 1.84.34.6.82 2.6.82 3.6-.32-.85-1.1-3.58-1.44-4.62-.3-.83-.76-1.84-1.2-2.66-.34-1.17-.8-1.78-1.45-2.66-.52-.8-1.34-1.5-2.25-2.04-.87-.74-1.24-.98-2.45-1.02-1.05.3-1.25.66-2.25.8-.38.36-1.06.62-1.43 1.04-.2.82-.5 1.38-.82 2.04-.15.72-.2 1.67-.2 2.66.36.53.8 1.32 1.02 2.04.63.7.9 1.4 1.43 2.25.3.9 1.67 3.05 2.05 3.7-.12.1-1.2-1.57-1.64-2.06-.78-1.1-1.18-1.77-1.62-3.06-.53-.7-1.15-1.65-1.64-2.04-.67-.8-1.6-1.63-2.65-2.25-.93-.65-1.4-.62-2.67-.62-1.3-.27-2.22 0-3.07.4-.6.63-1.9 1.64-2.45 2.06-.6.77-.9 1.3-1.43 1.83-.27.68-.5 1.38-.6 2.25.08 1.13.53 1.38 1.02 2.45.53.42 1.34 1.5 1.82 1.84.4.48 2.9 2.76 2.05 2.76-.37-.54-1.62-1.85-2.25-2.35-.6-.73-1.34-1.37-1.84-1.84-.84-.37-1.52-.7-2.45-.82-1.18-.24-1.93-.37-3.07-.4-1.03.08-1.6.6-2.25 1-.36.6-.77 1.12-1 1.85-.47.56-.42 1.4-.42 2.46.37.53.75 1.32 1.02 2.04.63.6 1.08 1.57 1.84 2.25.8.68 1.52 1 2.46 1.22 1 .04 1.54.2 2.66.2.7.05-.35.2-.62.42" fill="none"/><path stroke-linejoin="round" d="M247.82 264.74l-.2-.2c.5.5.28.26-.82-.62-1.24-.6-2.6-.77-4.08-.82-1.13.3-2.35.6-3.48.82-.66.67-1.08.95-1.84 1.84-.3.77-.48 1.37-.2 2.45.54 1.14.78 1.54 1.63 2.47.6.4 1.08.7 1.84 1.02 1.55.22 3.06.75 4.7.8 1.18 0 4.12.38 5.23.42 1.38 0-3.5-.2-4-.2-1.48 0-2.93 0-4.3.2-1.3.26-2.55.56-3.68 1.22-.93.53-.8 1-.8 2.25.28.72.64 1.22 1 1.83.65.6 1.18 1.15 2.05 1.43 1.07.6 2.2 1.13 3.48 1.23.85.28 4.45-.04 3.2-.1-.67.54-5.08.66-6.27.9-1.26.54-2.6 1.3-3.68 1.64-.23.9-.4 1.53-.2 2.46.44.7.8 1.37 1.43 2.04.5.5.8.8 1.63 1.02.88.43 2.3.67 3.48 1.02.9 0 .93-.13 1.43-.4m93.85-37.83c0-.07-.4-.68-.82-1.23-1.08-1.26-2.9-2.66-4.3-3.88-1.48-.6-2.57-1.32-4.08-1.43-1.27 0-1.68.02-2.05 1.03-.44.54-.63 1.28-.82 2.25-.4 1-.4 1.95-.4 3.27-.3.6-.26 1.73-.6 2.25-.04.54-.15.9-.22.8-.34-.67.2-2.07.4-3.05 0-1.24.17-2.28.2-3.48-.46-1.86-.63-2.33-2.03-3.88-1.4-1.47-2.38-2.35-4.1-3.48-.9-.23-2.06-.6-3.26-.62-.74.4-1.74 1.05-2.46 1.64-.7.97-1 1.6-1.02 2.86.15 1.12.5 1.84 1.02 2.86.3.72.6 1.64.82 2.66.38.96.53 2.34 1.02 3.07.14 1.08.13.7-.2 0-.1-1.4-.55-2.7-1.02-3.7-.4-1.48-.84-2.03-1.64-3.27-.8-1.22-1.13-1.72-2.45-1.83-.86-.3-1.98-.3-2.85 0-.76.42-.98.67-1.02 1.83-.24.7-.3 2.4-.3 3.38 0 .3 1.03-4.23.7-5.4-.76-1.42-1.62-2.52-2.86-3.7-1.2-1.44-2.3-2.76-3.88-3.67-1.12-.33-1.73.16-2.46.82-.96.63-1.7 1.54-2.05 2.25-.24.85-.54 1.34-1.03 2.25-.77.96-1.4 4.47-1.53 3.8-.17-1.1.23-3.93.5-5.03.12-1.4.25-2.63-.2-3.68-.85-1.12-1.6-1.95-2.66-2.45-.7-.8-1.24-.83-2.45-.83-.9.3-2.1.97-3.07 1.63-.6.56-.85.95-1.02 1.64-.37.64-.65 1.95-.82 2.66-.2.87-.6 1.7-.6 2.86-.44 1.4-.22-.95-.22-1.64-.32-.98-.16-2.32-.6-3.06-.56-1.03-.82-1.27-1.85-2.05-1.05-.46-1.58-.8-2.86-.8-.58.4-1.27.65-1.85 1.22-.65.83-1.2 1.66-1.84 2.66-.2.9-.2 1.86-.2 2.86.03.84.18 1.32.2.2V239c-.2-1.15-.4-1.68-1.42-2.05-.7-.38-1.67-.4-2.86-.4-.83.3-1.08.64-1.23 1.63-.52.7-.62.95-.62 2.04-.3.58-.2 1.77-.2 2.66-.33.44-.38 1.32-.4 0-.08-1.03-.34-2.14-.63-2.86-.68-.53-1.62-1.13-2.25-1.43-1 0-1.98-.02-2.86.2-.8.4-.8 1.03-1.43 1.64-.2.9-.53 1.23-.6 2.26-.2.86-.13 1.55 0 2.45.22.65.56 1.43.4 1.85-.5-.58-1.34-1.65-2.04-2.66-.76-.62-.97-.88-2.04-1.03-.88-.07-1.43-.2-2.46-.2-.5.43-1.1.86-1.63 1.22-.48.7-.88.85-1.02 1.83-.3.62-.2 1.83 0 2.45.5.33.67.74 1.23 1.03.43.53 1.07 1.05 1.43 1.64.25.5.34.24-.4.2-.64-.76-1.48-1.05-2.66-1.63-1.28-.22-2.2 0-3.48.2-.58.85-.98 1.64-1.02 2.88.04 1.08.73 2.68 1.33 3.18" fill="none"/><path stroke-linejoin="round" d="M346.77 237.32h-1.02c-1.62-.15-3.08-.4-4.7-.4-1.5 0-2.65 0-3.9.6-1.2.42-1.42.87-2.24 1.64-.5.97-1.14 1.78-1.42 2.86-.37.9-.78 1.72-.82 2.86.26 1.57 0-1.12 0-1.84.33-1.84.2-3.63-.2-5.52-.4-1.33-.82-2.43-1.43-3.68-.46-.8-.98-1.5-2.05-1.84-.73-.2-1.93-.24-2.65 0-.52.37-1.37 1.34-1.85 2.05-.52.7-1.2 1.75-1.63 2.45-.5.85-.9 1.92-1.23 2.66-.1.6-.25 1.24-.4 1.63-.42-.82-.9-1.1-2.05-1.64-1.06-.9-2.25-1.74-3.27-2.25-.82-.5-1.98-1.23-2.86-1.63-.63-.43-1.7-.7-2.66-.8-1 0-2.4-.14-3.07.2-.78.27-1.06.7-1.42 1.42-.36.58-2.12 2.62-2.05 2.45 0-1.14 1-3.44.62-4.5-.54-1.08-1-1.6-1.23-2.46-.64-.72-.87-1.5-1.63-2.05-.3-.78-.82-1.02-1.24-1.64-.9-.37-1.02-.76-2.25-.8-1 0-1.95.16-2.65.4-.76.2-1.4.5-1.84 1.02-.9.44-1.07.82-1.83 1.43-.52.37-1.17 1.17-1.43 1.85-.6.72-.08.93 0 2.04" fill="none"/><path stroke-linejoin="round" d="M343.3 227.94v-.2c0 .6.03.26-.6-.82-.43-.67-.86-1.2-1.65-2.05-.7-.83-1.2-.82-2.46-.82-.9 0-2.1-.08-2.66.2-.8.3-1.27 1.08-1.84 1.85-.65.9-1.3 1.55-1.64 2.25-.4.98-.8 1.4-1.02 2.25-.52.4-.5.8-1.23 1.02-.36-.67-1.03-1.06-1.42-1.64-.9-.3-2.12-1.2-3.07-1.83-.98-.67-1.9-1.04-2.85-1.64-.9-.3-1.48-.4-2.65-.4-1.3.06-1.88.36-2.87 1.02-.9.42-1.5 1.06-2.25 1.64-.72.5-3.67 4.83-4.4 5.44-.76.7 2.56-3.3 3.18-4.42.47-1.2.8-1.94.8-3.27-.22-1.66-.37-3.2-1.62-4.28-.98-.4-2.14-.6-3.48-.62-.93.13-1.4.42-2.45.62-.77.42-1.56.62-2.24 1.22-.65.4-1 .83-1.84 1.23-.4.6-1 .85-1.43 1.43-.3.13-1.42 1.24-1.55 1.54" fill="none"/><path stroke-linejoin="round" d="M336.54 223.22h-.2c.6 0 .26.04-.82-.6-.56-.4-1.08-.88-1.63-1.44-1.16-.3-2.08-.83-3.3-1.02-1-.42-2.16-.82-3.05-1.02-.9 0-1.87 0-2.46.2-.4.6-.9.94-1.23 1.64-.28.57-.47 1.52-.82 2.04-.03.82-.43 2.24-.93 2.56.46-.8 1.3-3 1.54-4.4-.3-1.5-.9-2.88-1.63-4.3-.8-.96-1.72-1.92-2.66-2.86-.95-.23-2-.2-3.07-.2-1.24 0-1.65 0-2.25.82-.58.46-1.1 1.27-1.63 1.63-.6.78-1.13 1.12-1.43 2.25-.43.8-.64 1.42-.83 2.25l.82-2.25c-.43.8-.64 1.42-.83 2.25v.2c.25-.85.8-1.66.82-2.86 0-1.05.03-2.3-.22-3.05-.32-.8-.65-1.3-1.43-1.85-.95-.94-1.74-1.57-2.86-2.04-.93-.47-1.87-.54-2.88-.2-1 .42-1.4.78-1.83 1.43-.9.3-1 .67-1.04 1.83-.03 1.1-.18 2 0 2.86.14 1.16.48 1.9.82 2.85.45.7.96 1.1 1.23 1.84.28 0 1.24 1.47 1.24 1.74" fill="none"/><path stroke-linejoin="round" d="M335.54 222.4c0-.45-.42-2.8-.42-3.88 0-1.1-.2-1.6-.2-2.66 0-.74.2-2.36-.3-2.05.03 1 .1 2.38.1 3.5-.3.8-.4 1.37-1.03 1.83-.67.44-1.7.4-2.87.4-.98-.1-2.2-.16-2.86-.6-1.05-.23-1.7-.54-2.46-1.03-.7-.4-1.27-.84-1.83-1.22-.23-.88-.66-1.1-.8-2.25-.48-1.07.6-3.6.3-3.88-.07 1.04-3.9 2.67-5 3.06-1.13.4-2.03.42-3.3.42-.82 0-1.7 0-2.24-.2-.87-.64-1.3-1.05-2.04-1.64-.97-.73-1.7-1.14-2.67-2.05-.85-.8-1.3-1.54-1.84-2.25-.36-.75-.98-2-1.44-2.65-.1-.82-.2-1.62-.2-2.66v2.86c-.4.9-1.07 1.83-1.84 2.66-1.12.5-2 1.05-3.27 1.22-.7-.4-1.62-.73-2.25-1.03-1.07-.16-1.44-.5-2.05-1.23-.7-1.13-1.32-1.94-1.43-3.27-.3-.56.1-1.05.2-1.84 0-.44.1-.3.2-.62m-20.42-3.47c-.06 1.23-1.85 2.75-2.26 3.69-.33 1.05-1.03 1.67-1.43 2.45-.96.56-1.76.78-2.86 1.23-1.5.06-2.7.37-4.3.4-1.27 0-3.15.37-3.77-.4-.86-.93-2.46-2.17-3.17-3.06-.7-.68.52-2.42.33-2.76M228 218c-.4 1.27-.88 5.45-2.45 7.9-.7.93-1.68 1.3-2.66 1.64-1.17.3-2.08.7-3.48.8-1 .4-1.53.42-2.46.22-.57-.12.07-1.22-.5-1.34.76.38.08 2 .7 2.98.1 1.04.37 1.33.4 2.45 0 1.2-.03 2.32-.2 3.47-.1 1.06-.28 1.98-.4 2.86-.6.93 0 .15-.8.6-.85.27-1.78.7-2.87.83-.9.2-1.88.4-2.67.5-1.1.66-.63.52 0 1.43.74.6.98.8 1.23 1.94.3.58-.3 3-.83 3.9-.1 1.06-.5 1.8-.6 2.86-.35 1.2-.5 2.5-.83 3.68-.2.8-.6 1.7-.8 2.67-.38.65-1.3 1.8-1.65 2.45-.58.36-2 1.12-2.66 1.43-.2.68 1.18.6 1.63 1.22.66.67.98 1.1 1.22 2.25.17 1.14.42 1.82.62 2.66-.13.9-.45 2-1.03 2.66-.3 1.17-.74 1.78-1.43 2.25-.64.6-1.54 1.08-2.44 1.2-.63.45-1.7.72-2.66.83-.34.3-2.03 1.57-2.46 1.75m102.84-59c-.23 0-1.5-.06-2.04-.2-.98-.57-2.06-.4-3.28-.4-1.08.2-1.8.38-2.24 1.02-.5.9-.8 1.58-.82 2.86 0 1.15.37 2 .6 2.86.44.52.5 1.4.83 2.05 0 .4.5 1.95.5 2.36-.43-1-1.34-3.5-1.73-4.82-.22-1.45-.38-2.12-1.43-2.85-1.38-1.13-2.1-1.74-3.68-2.04-1.12.2-1.97.9-2.87 1.44-.6.7-1.7 1.32-2.46 1.84-1 .88-1.7 1.5-2.04 2.86 0 1.04.1 1.84.2 2.66.17.75.38 1.57.62 2.25.27 1.2.52 2.26.6 3.47.22.2.22 1.24.22 1.02-.5-.67-.76-1.56-1.03-2.45-.3-.9-.74-1.76-1.22-2.67-.94-.8-1.18-.88-2.46-1.22-1 0-1.93.06-2.65.2-.45.38-1.18.74-1.63 1.24-.56.7-1.14 1.34-1.43 2.45 0 1.04.1 1.84.2 2.65v2.46-2.45 2.46" fill="none"/><path stroke-linejoin="round" d="M299.35 208.3h-.2c.57 0 .26.03-.82-.4-.55-.38-1.46-.48-2.05-.83-1.18-.04-2.1-.2-3.47-.2-1.2.1-1.44.6-1.63 1.84-.28.86-.2 1.9-.2 2.87-.07 1.1-.3 2.02-.4 3.07-.13.55.13 3.93-.1 4.4-.2-1.18-.95-4.5-1.34-5.42-.7-1.54-1.58-2.7-2.86-4.1-.95-.8-1.44-.6-2.66 0-1.17.16-1.4.42-2.04.83-.6.45-1.24 1.05-1.63 1.84-.66.5-1.03 1.2-1.23 2.03.07.9.34 1.73.61 2.45.2.37 2.08 4.3 2.27 4.62.22.36-1.78-3.2-2.46-3.8-.7-.7-1.38-.6-2.65-.6-1.63.2-2.98.43-4.3 1.2-.7.7-.93 1.3-1.42 1.85-.12.85-.34 1.64-.4 2.66.14 1.02.47 1.45 1 2.26.2.42 1.54 2.27 1.65 2.77-.78-.44-3.12-1.75-4.3-1.75-1.2.16-1.64.54-2.24 1.43-.43 1.07-.4 2.08-.4 3.3-.05 1-.22 1.8-.22 2.85 0 .4.4 4.94.4 5.34-.17-.77-.83-5.6-1.22-6.17-.42-1-1.13-2.23-2.04-2.86-.65-.4-1.38-.16-2.05.2-.26.56-.95 1.67-1.42 2.25-.27 1.02-.6 1.3-.6 2.45.1.85 1.52 4.6 1.63 5.44 0 .3-1.36-3.42-1.43-3.6-.34-.8-.98-2.07-1.43-3.05-.7-.48-1.05-.97-1.84-1.43-.74-.55-1.35-.9-2.04-1.23-1-.3-1.9-.42-3.07-.42-.83.4-1.24.7-1.85 1.63-.28 1.04-.4 1.9-.4 3.08v3.07c.2.8.54 1.4 1.22 2.04.43.62 1.9 2.58 2.46 3.27.83.83-1.38-2.02-1.85-2.26-.84-.43-1.27-.67-2.25-.8-.58-.3-1.76-.2-2.66-.2-.97.33-2.35.53-3.06 1.02-1.14.43-2.1.5-2.45 1.43.05 1.23.28 1.9.62 2.86.5.94.84 1.65 1.43 2.26.4.6.87.97 1.63 1.23.37.52 2.35 1.6 2.88 2.24-.63-.38-2.68-.65-3.48-.42-.56.38-1.37 1-2.25 1.64-.9.7-.82 1.2-.82 2.45.08 1 .3 1.58.62 2.26.33.7.65 1.2 1.02 2.05-.15.32 4.83 3.54 4.83 3.82m47.3-57.17h-.2c.6 0 .26-.04-.83.6-.92.32-1.82.47-2.65.22-1.22-.15-2.42-.2-3.68-.2-.4-.32-.93-.17-1.23-.62-.83-.37-1.23-.6-1.43-1.43-.46-.8-.9-1.96-1.22-2.87-.44-.83-.78-1.44-1.23-2.45 0 1.25.22 2.34.4 3.48v3.06c-.5.97-.46 1.46-1.62 1.64-1.02 0-1.96-.17-2.66-.4-1.6-.4-3.32-.8-4.9-1.03-.68-.96-1.43-1.28-2.66-2.45" fill="none"/><path stroke-linejoin="round" d="M271.96 205.03c-1 .28-1.98.1-2.66.82-.45.68-1.05.94-1.22 1.84-.63 1.2-.82 2.8-.82 4.48.23 1.18.92 2.3 1.63 3.07.36.6 1.24 1.87 1.84 2.77.6 1.17-.47-.36-1.23-.72-.98-1.13-2.24-2.22-3.67-2.46-1.57-.38-2.8-.52-4.3 0-1.04.52-1.26 1-1.43 2.25-.3.57-.2 1.75-.2 2.65 0 1.13.2 2.13.2 3.27.3.92.18 2.13.4 3.07.38.5.68 2.74.93 3.17-.25-1.27-.86-4.58-1.53-5.64-.5-.73-1.25-1.2-2.04-1.63-.7-.27-1.45-.5-2.46-.62-1-.25-2.1-.25-2.86 0-1.2.43-1.6.74-2.05 1.64-.18.8-.48 1.76-.82 2.66-.07.9 0 3.94 0 5.02m9.2-25.47c0-.3-2.24.9-2.46 1.64-1.13.7-1.55 1.46-2.96 1.53-1.4.22-2.58.72-4.1.72h-5.3" fill="none"/><path stroke-linejoin="round" d="M252.12 208.7v.2c0-.6.03-.25-.62.83-.84 1.1-1.12 1.63-.82 3.07 0 1.18.17 2.13.2 3.27.6 1.4 1.36 3.35 1.85 4.5.5.92.34.43-.6.4-1-.37-1.9-.4-3.08-.4-1.1 0-2.1.03-3.07.2-.77.5-1.52.84-2.45 1.23-.58.44-1.6.87-2.04 1.43-.23.65-.22 1.7-.22 2.66.1.82.28 1.47.6 2.03.62.9 1.2 1.53 2.06 2.46.46.43 1.2.9 1.83 1.42.64.2 2.05 1.02 2.46 1.43-.73-.5-3.43-2.24-4.3-3.07-1.92-.85-3.96-1.56-6.13-1.84-1.3.05-2.24.7-3.07 1.43-.55.8-.83 1.24-1.63 1.64-.63.8-1.28.66-1.43 1.85-.3.93-.03 1.6.2 2.66.4.98.8 2.1 1.23 2.87.62.6 1 1.1 1.64 1.84.76.68 1.23 1.15 2.04 1.44.5.47 1.85.97 2.56 1.23-.5.43-2.14.72-2.76 1.02-.9.75-1.53 1.28-2.05 1.83-.1.8-.2 1.6-.2 2.66-.05.83-.2 1.26-.2 2.23.4.6.97 1.7 1.63 2.25.57.66 1.26.92 1.84 1.44.4.17.66.4 1.02.6l-1.02-.6c.4.17 2.2.52 2.56.7" fill="none"/><path stroke-linejoin="round" d="M243.72 208.9c-.1 0-.68.7-1.23 1.24-.87.83-.94 1.4-1.44 2.66 0 1.26 0 2.1.82 2.86.5.88 1.25 1.68 1.84 2.45.7.7 1.02 1.25 1.43 2.06-.4-.6-1.2-1.26-1.84-2.25-.68-.5-1.35-1.4-2.24-2.04-1.2-.44-1.75-.58-2.86-.4-.94.62-1.93 1.07-2.66 1.83-.84.7-1.6.9-2.04 1.83-.66.47-.78.94-.82 2.05 0 1.3.3 1.86.6 3.06.57.96 1.05 1.87 1.44 2.46.33.26 1.38 1.7 1.54 1.54-.56-.34-1.83-1.56-2.76-1.75-.77.34-2.38.2-3.48.2-1.2 0-1.94 0-2.86.4-.82.32-1.78.74-2.66 1.43-1.1.38-1.73.8-1.84 2.05.18 1 .62 1.17 1.43 2.05.9.94 1.7 1.94 2.85 2.65.5.74 1.78 1.67 2.25 2.25.58.27 3.6.2 2.48.2-.9.23-4.82.92-5.54 1.43-.9.87-1.1 1.66-1.23 3.07.08 1.27.42 2.3.62 3.48.52 1.06.67 1.87 1.23 2.66.44.68 1.5 1.68 2.05 2.05.88.37 2.24 1.03 3.27 1.44.54.2 1.47.42 2.24.6h-3.67c-.95.27-1.7.37-2.24.83-.86.28-1.06.74-1.65 1.23 0 1.12.12 1.75.62 2.45.13.9.63 1.76 1.22 2.25.47.76 1.2 1.42 1.83 1.84.83.72 1.2.88 2.05 1.23.92.12 1.74.47 2.65.6.47.4 1.67.62 2.25 1.03l-2.25-1.02c.47.38 1.67.6 2.25 1.02l1.03.3c-.94.16-2.4.2-3.47.72-1.46.45-2.9.74-3.48 1.64-.92.46-1 .9-1.22 1.84-.1 1.18-.13 1.6.2 2.45.52.74 1.05 1.24 1.64 1.64.6.5 1.77 1.46 2.66 1.83 1 .58 1.72.88 2.45 1.22-.97.16-2 .2-3.07.2-.65.4-1.18.4-1.62 1.03-.7.5-1.13.98-1.23 2.05-.3.88-.1 1.5.4 2.45.64.48 1.34 1.14 2.05 1.63.74.36 1.9.8 2.86 1.03.34.14 1.5.2.42.2-.53.28-1.62.2-2.46.2-1.07.1-1.48.5-2.25 1.04-.65.65-.97.8-1.02 2.04 0 1.17.1 1.67.6 2.26.55 1.13 1.04 1.48 1.85 2.04.7.42 1.8.6 2.86.62 1.26 0 2.5-.03 3.68.2.52 0 4.55.68 4.63.62" fill="none"/><path stroke-linejoin="round" d="M224.9 241.2c0 .07-.37.6-.6 1.24-1.02.77-1.04 1.45-2.25 1.63-.86.2-1.56.12-2.45 0-.37-.5-1.08-1.05-1.64-1.43-.46-.67-1.22-2.03-1.74-2.46m10.44 8.2c-.05.3-1 2-1.13 2.65-.77.78-1.9 1.97-3.07 2.66-.86.2-1.5.5-2.65.6-.96.3-2.16.2-3.26.2-.9-.2-1.54-.58-2.46-1.02-.4-.5-2.82-2.52-3.48-2.97" fill="none"/><path stroke-linejoin="round" d="M225.55 251.1c0 .3-.46 4.7-1.03 6.67-.5.88-1.22 1.88-1.84 2.86-.65 1.1-1.04 1.7-2.25 2.25-1.36.5-2.7.62-4.3.62-1-.25-2.28-.9-3.47-1.23-.74-.5-1.72-1.1-2.45-1.64-.73-.6-1.62-1.16-2.04-2.04" fill="none"/><path stroke-linejoin="round" d="M229.4 269.03h-.2c.56 0 .28 0-.8.2-1.4.2-2.27.08-3.5-.4-.87-.32-1.92-1.12-2.85-1.85-.85-.82-1.62-1.6-2.25-2.04-.06-.68-.36-1.23-.8-1.64 0 1.03.08 1.92.2 2.86 0 1.16-.16 2.06-.42 3.07-.32 1.14-.77 1.56-1.63 2.46-1.23.24-2.3.4-3.68.4-1.48-.02-2.75-.26-4.1-.42-.73-.33-1.4-.68-2.04-1.02m21.8-1.45c-.74 2.3-3.3 3.48-3.8 4.1-1.16.3-2.14.6-3.47.62-1.2 0-1.33-.05-2.05-.6-1.17-.4-1.55-.73-2.03-1.44 0-.28.07-.2-.2-.2m14.1 9.6l-.2.22c.46-.47.23-.3-.2.82-.65 1.2-1.5 1.4-2.67 1.84-1.08-.17-1.5-.56-2.66-1.23-1.08-.6-1.9-1.64-2.66-2.66-.6-1.37-1.02-2.53-1.02-4.1-.28-.63-.38-1.4-.82-1.83v4.3c-.3.95-.36 1.7-.6 2.65-.18 1.24-.43 2.15-.83 3.06-.74 1.05-1.9 1.3-3.46 1.43-1.25.26-2.7.2-4.1.2-1.06-.13-1.7-.34-2.65-.6-1.1-.63-1.4-.82-2.26-1.85-.95-1.1-2.1-2.45-2.66-3.48-.32-1.14-.88-4.6-1.12-5.84 0-1.2.1 2.8.1 3.4-.3 1.82-.4 3.58-.4 5.5v3.28c-.22 1.36-.4 2.05-1.23 2.87-.6.66-1.7 1.5-2.25 1.84-.44.54-1 .94-1.84 1.23-.9.5-1.76.7-2.66.82-.5.1-.84.4-1.23 0" fill="none"/><path stroke-linejoin="round" d="M232.3 290.06c-.48.7-1.4 2.3-2.25 2.46-.9.48-2.3.4-3.68.4-1-.2-2.02-.16-2.46-.8-1.57-1.07-3.02-2.3-4.28-3.7-.55-.7-1.08-1.53-1.43-2.24-.48-.16.05.47.2.82.74 1.1 1.23 2.2 1.42 3.48.27.98.27 2.28 0 3.06-.24 1.1-.56 1.86-1.43 2.66-.43.52-1.1.4-2.05.4-1.32-.15-2.38-.7-3.68-1.2-1.42-.85-2-1.1-2.66-2.47-.26-1.55-.4-3.17-.6-4.7-.03-.56-.04-2.8-.3-3.08-.3.76-.76 3.6-1.13 4.5-.24 1.33-.38 1.74-1.64 1.85-.67.33-1.6 0-2.66 0-.74-.25-1.2-.43-1.63-.82-.2-.34-.43-.47-.62-.82m33.53 2.67h-.2c.6 0 .24-.06-.4 1.02-.5.72-.65 1.62-.83 2.45.08 1.1.37 1.38.82 2.04 1.2.72 1.4 1.03 2.86 1.23 1.6.3 6.5-.1 8.1.2 1.25.18-3.55.93-4 1.03-.8.42-1.66.55-2.47 1.22-1.1.86-1.93 1.56-2.65 2.05-.2.8-.4 1.56-.4 2.66.26.7.64 1.32 1 2.04.76.8 1 1.25 2.05 1.64 1.62.07 3.22.2 4.9.2 1.65-.4 4.6-1.15 5.64-1.73.3 0-1.17.44-1.34.52-.68.33-1.36.85-2.25 1.62-.84.42-1.12.9-1.63 1.63-.53.7-.75 1.3-1.23 1.84-.14 1.05-.15 1.35.4 2.24.76 1.04.95 1.47 2.06 1.64.45.44 1.14 1 1.84 1.43.5.23 3.5.26 3.3.62-1 .07-4.7.4-5.35.82-.83.3-1.08.65-1.22 1.64.04 1.16.26 1.45.8 2.25.38.54.94 1.08 1.65 1.43.5.47 4.05 1.2 4.72 1.74.86.3-2.98-.3-3.7-.3-.58.28-1.76.2-2.66.2-.36.58-.83 1.14-1.23 1.83-.36.62-.08 1.33 0 2.05.54.57 1.28 1.8 1.64 2.45.67.46.84.86 1.84 1.23.42.45 4.16 1.9 4.84 1.95m-8.52-5.22v.2c0-.6.06-.23-1.02.42-.5.6-1.27 1.3-1.64 1.84-.2.9.04 1.37.4 2.24.56.44 1.28 1.33 1.65 2.05.96.87 1.6 1.4 2.05 2.04.62.2 2.84 1.14 3.5 1.54-1.16 0-4.02-1.04-5.13-1.12-1.36 0-1.97.16-2.87.62-.37.6-.77 1.1-1.02 1.84-.25.7-.5 1.4-.6 2.25-.3.87 0 1.35.4 2.03.7.57 1 .95 1.83 1.23.6.52 1.3.8 2.46.8.5.27 2.67.1 3.28.1-.7.48-2.88.92-3.7 1.14-.63.33-1.42.57-1.83 1.02-.44.7-.78 1.12-.82 2.25.34.86.86 1.65 1.84 2.46.9 1.02 1 1.23 2.24 1.63 1.06.5 5.4.05 6.57.1-1 .15-5.5 1.4-6.56 2.15-.74.54-.78 1.14 0 1.85.5.9 1.08 1.36 2.05 1.64 1.1 0 1.57-.2 2.64-.22.95.1 4.4-.1 5.44-.1-.8.45-4.87 1-6.05 1.13-1.02.36-1.44.4-1.64 1.44 0 .94-.12 1.62.4 2.04.53.94.84 1 2.05 1.02.6.36 1.4.05 2.25 0h7.07m-1.58 9.38c.6 0-6.33-8.87-9.17-7.93-1.3.22-2.15.24-2.65 1.23-.74.73-1.47 1.96-1.84 3.06-.1 1.1-.27 2 0 3.07.18.82.66 1.67.8 2.67.24.44.5 1.4.22 1.84-.15-.7-.36-1.13-.62-2.04-.24-1.55-.38-3.22-.6-4.7-.65-.48-1.4-1.24-2.26-1.84-1.15-.16-2.15-.2-3.06 0-.76.66-1.04 1.18-1.84 1.64-.66.2-2.34.36-3.28.4" fill="none"/><path stroke-linejoin="round" d="M218.8 295c.06 0-.05-.07.8 1 .5.4.68.75 1.44 1.24.87.66 1.8 1.02 3.07 1.22 1.26.42 2.6.6 3.9.82 1.12 0 2.25.02 3.26-.2 1.17 0 1.78-.17 2.86-.2l.83-.32m.82 7.87v.2c0-.54 0-.26.2.83 0 1.23-.18 1.56-.6 2.25-.9.65-1.9.86-3.07 1.23-1.5-.06-2.8-.33-4.1-.8-.98-.83-1.4-1.4-2.04-2.67-.66-2.03-1.2-3.58-1.22-5.73 0-1.18.03-2.08-.62-2.66-.3-.3-.34.54-.6 1.03-.1 1.23-.63 1.95-1.24 3.07-.74.7-1.6 1.55-2.65 2.25-1.08.23-1.46.42-2.46.2-.66-.8-1.6-1.78-2.04-2.25-.25-.96-.96-2.1-1.43-3.27-.44-1.1-.94-2.04-1.02-3.27-.4-1.13-.33-.98-.62.2-.6 1.3-.77 2.15-1.43 3.27-.85.67-1.64 1.25-2.86 1.64-1.43.2-2.36.1-3.68-.2-1-.37-1.5-.8-2.05-1.64-.64-.63-.9-1.06-1.03-2.05-.4-.68-.86-2.14-1.22-3.06-.4-.5-.7-1.45-.82-2.26-.3-.23-.46-.67-.6-1.02" fill="none"/><path stroke-linejoin="round" d="M242.82 310.3c-.03.4-.45 3.12-.92 3.9-.56 1.17-.77 1.6-2.05 1.63-1.27-.2-2.26-.84-3.27-1.63-.84-1.07-1.68-1.87-2.25-3.07-.6-.5-.54-.8-.4 0 .65.67.6.65.6 1.84v3.07c0 1-.16 1.7-.4 2.45-.4 1.07-.84 1.6-1.84 2.44-1.18.26-1.37-.16-2.26-.8-1.1-.46-1.52-.86-2.25-1.44-.6-.58-1.2-1.3-1.65-2.05-.1-.8-.2-1.6-.2-2.66 0-1.03.82-3.5.82-4.52-.15-1.25-1 1.06-1.64 1.86-.53 1-1.2 1.8-1.84 2.25-.87.78-2.2 1.15-3.48 1.42-1.2 0-2.2-.2-3.28-.4-.7-1-.96-1.55-1.43-2.47 0-1.27.2-2.14.42-3.27.22-1.06.5-2.9.52-4 0-1.1-.2 1.22-.52 1.75-.27 1.2-.55 1.28-1.43 2.05-1.07.14-2.12.2-3.28.2-1.24 0-2.37.1-3.48.4-.76-.26-1.16-1.33-1.63-2.24-.26-.8-.4-1.55-.4-2.66 0-1.05-.24-1.67-.4-2.45-.48 1.04-.9 1.12-2.05 1.23-.68 0-1.47.07-1.84-.2-.4-.66-.93-1.27-1.22-1.85l1.23 1.85c-.4-.65-1.86-2.7-2.15-3.28" fill="none"/><path stroke-linejoin="round" d="M244.35 318.1c0 .2-.1 1.3-.2 1.83-.37.85-.5 1.6-.6 2.66-.02 1-.18 1.7-.42 2.44-.47.65-1.04 1-1.64 1.43-1.4 0-1.8-.13-2.87-.8-.9-.74-1.73-1.36-2.45-1.85-.6-1-1.2-1.76-1.84-2.66l-.72-.72c-.42-.87.46.48.72 1.54.3 1.07.4 2.03.4 3.27-.03 1.3-.27 2.4-.4 3.68-.56 1.1-.58 1.33-1.84 1.43-1.34 0-2.6-.02-3.88-.2-1.26-.2-2.2-.55-3.28-1.23-.27-.72-.4-1.62-.4-2.66 0-1.25.3-2.3.4-3.48.44-1.2.6-1.95 1.03-3.07.33-.45.52-.94.6-1.64-.17 1.26-.85 2.15-1.22 3.26-.65 1.22-1.67 2.47-2.25 3.68-.78.75-1.06 1.05-1.84 1.43-.92-.14-1.34-.48-2.04-.8-.4-.6-.88-.94-1.23-1.85-.65-.92-.8-1.32-.83-2.66 0-.83.07-2.25 0-2.46-.08-.26-1.07-3.82-1.33-3.9m-.1 0c-.32.2-1.66.6-2.65.62h-3.7c-1.2-.1-1.08-.56-1.43-1.43-.37-1.1-.54-1.98-.6-3.08-.2-1-.7-1.08-.83-1.94-.6.38-.62-.1-1.63.1-1.4.22-2.53.5-3.88.82-1.26.17-2.4.4-3.68.4-1.2 0-2.12.12-2.66-.6-.34-.7-.4-1.64-.4-2.66 0-1.15.12-2.27.4-3.07.42-.78.96-1.6 1.64-2.25.38-.56.87-1.05 1.43-1.43.42-.63.95-.86 1.23-1.65.5-.4.74-1.03 1.02-1.63" fill="none"/><path stroke-linejoin="round" d="M188.5 302.25c.38.08 3.1.7 3.7 1.13 1 .56 1.4 1.2 2.04 1.84.33.68.54 1.3.82 2.24.16.78.2 1.82.2 2.87-.37.63-.73 1.67-1.02 2.45-.42.62-.8 1.03-1.63 1.43-.98.77-2.68 1.45-4.08 2.06-.94.1-1.83.2-2.86.2-1.02 0-2.15.62-3.17.62-1 0-2.4-.13-3.08.2-.3 0-.15.05-.4-.2m38.55 5.9c-.08 0-.64.67-1.22 1.03-.5.83-.7 1.3-1.23 2.26-.35.96-.54 1.7-.6 2.66v2.86c0 1.07.2 1.55.2 2.66v5.72-2.86 2.86m5.3-14.3c0 .4-.26 3.77 0 4.5.05 1.24.4 1.93.8 2.86.65.5 1.5 1.63 2.26 2.45.6.62 1.23 1 2.24 1.23 1.2.24 2.13.4 3.07.2.76-.33 1.93-1 2.85-1.43.42-.9 1.03-1.94 1.43-3.06.35-1.07.38-2.18.4-1.83.45.35 1.26 1.32 1.65 1.84.86.53 1.7 1.15 2.45 2.05.77.86 2 .57 3.18.6" fill="none"/><path stroke-linejoin="round" d="M222.47 340.77c0-.07 2.4 3.08 3.28 3.08.95.24 2.02.38 3.07.4 1.25 0 2.22-.32 3.27-.8.84-.9.6-2.25.6-3.7v-3.05c-.02-.84-.28-1.5-.4-2.25.18 1.33.82 2.43 1.22 3.68.46.98 1.9 4.6 3.27 4.8.62.77 1.22.37 1.83-.5 1.1-.73 1.4-4.14 1.84-4.7 0-.6.15-.54.2-1.03" stroke-linecap="round" fill="none"/><path stroke-linejoin="round" d="M222.05 348.53c0 .07 1.6 1.4 2.67 2.05 1.12.85 1.3 1.03 2.66 1.03.92-.17 1.3-.88 2.04-1.63 1.05-1.02 1.3-1.83 1.02-3.27-.04-1.12-.34-2.9-.6-2.45.46.62.9 1.52 1.22 2.04.42.6.72 1.05 1.63 1.22.53.45 1.3.74 2.24.8.5.38 1.13.26 1.43-.2.7-.3 1.2-.6 1.64-1 .2-.66.55-1.06.83-1.65" fill="none"/><path stroke-linejoin="round" d="M237.6 347.73v.2c0-.54 0-.27.2.82.07 1.2.2 2.23.2 3.48-.3 1.22-.48 2.1-1.22 2.86-.7.34-1.92.18-2.86 0-1.24-.57-4.46-2.88-4.9-3.9-.3-.17 2.66 2.08 3.06 2.66.46.7.8 1.24 1.02 2.05.2.6.34 1.9.2 2.26-.16 1.1-.55 1.08-1.42 1.43-.9.2-1.86.2-2.86.2-.92-.13-1.43-.42-2.25-.62l-.3-.2" stroke-linecap="round" fill="none"/><path stroke-linejoin="round" d="M241.5 356.7v1.04c-.25.94-.35 1.78-.62 2.45-.2 1.14-.7 1.2-1.43 1.83-.9.22-1.94.24-2.66 0-1.3-.77-1.97-1.2-2.87-2.25-.9-.9.38.5.82 1.23.7.63 1.12 1.08 1.22 2.26.25 1.22.3 1.73-.4 2.45-.5.74-1.28 1.1-2.46 1.44h-2.85c-1.08-.24-.98-.56-1.43-1.23m15.64-3.04c.05.4 0 2.1-.1 3.07-.8 1.3-.8 1.37-2.25 1.84-1.17.16-2.4.2-3.67.2-.87-.3-1.5-.88-2.05-1.84-.8-.6-.25.24 0 .82.43 1.1.8 1.83 1.03 3.07.08.84.53 1.1-.4 1.22-1.04.3-2.12.4-3.27.4-.9-.1-1.9-.08-2.67-.3" fill="none"/><path stroke-linejoin="round" d="M237.4 369.72c.06.35.45 1.04 1 1.53.42.85.97 1.2 1.65 1.64.72.4 1.24.8 2.04 1 1.13 0 1.62-.2 2.44-.4 1.24-.42 1.28-.63 1.84-1.43.4-.64.7-1.08.82-2.04.3-.6.2-1.66 0-2.25-.08-1.08-.53-1.45-.8-2.25-.3-.1-.4-.82-.63-1.13m-36.38-48.77l-.22.2c.5-.48.3-.25-.82.4-1 .28-1.4.6-1.84 1.24-.93.5-1.57.97-1.84 2.04v2.87c-.22.75-.2 2.02-.2 3.07 0 1.1-.13 2.03-.2 3.07.14.67.54 1.63.3 2.26-.07-.9-.5-2.1-.5-3.07-.38-.55-.8-1.76-1.23-2.26-.6-.5-1.2-.74-2.25-1.02-1.1-.36-1.8-.23-2.46.4-.47.5-1.03 1.3-1.43 2.26-.2 1.12-.56 1.74-.6 2.86-.23 1.07-.4 1.72-.2 2.66v3.06c0 .96.2 2.22.2 3.18-.13 1.5-.5-.24-.82-.72-.22-1.03-.44-1.86-1.02-2.46-.52-.62-1.37-.8-2.46-.8-1.04 0-1.62-.26-1.83.6-.3.6-.36 1.98-.4 2.86v5.73c-.2-1.1-.6-1.58-1.24-2.46-.7-.83-1.28-1.05-2.66-1.23-1.33-.33-2-.2-3.07.4-1.02 1-1.7 1.35-1.84 2.46-.4.5-.5 1.44-.6 2.25v3.06c0 .57-.85-.62-1.44-1.43-.7-.93-1.1-1.17-2.25-1.2-.78.4-2.34 1-3.06 1.62-.52.42-.4 1.1-.4 2.05v2.86c-.06.7-1.12.7-1.64.2-.75-.37-1.75-.88-2.65-1-.77-.38-1.42-.47-2.04-.22-.32 1.04-.62 1.86-.62 3.08-.3.84-.4 1.45-.4 2.45" fill="none"/><path stroke-linejoin="round" d="M214.5 322.38c-.07 0 2.74-.93 2.67-.93.58 0-2.6.9-3.7 1.34-.82.3-1.7 1.18-2.45 2.03-1.68 1.5-3.72 3.77-5.3 5.52-1.5 1.5-2.54 2.5-3.5 4.1-2.03 1.6-3.54 3.16-5.3 5.1-1.88 1.4-3.73 2.76-5.52 4.3-1.8.9-3.38 1.7-5.32 2.45-1.74.58-3.24 1.35-4.9 2.04-.9.7-1.4 1-2.46 1.43-1.6.93-3.45 1.64-4.7 2.46-.6.4-1.04.97-2.05 1.43-.64.75-1.5 1.06-2.45 1.63-1.12.4-2.3.8-3.68 1.22-1.42.5-2.3.9-3.68 1.43-3.76 1.32-7.6 2.83-11.45 3.48-1.1.4-2.2.73-3.26.8-1.55.58-3.48.6-5.1.83-1.06.28-2.37.6-3.28.82-1.05.3-2.08.53-2.86.82-1.05.12-2.23.42-3.07.6-1 .3-1.42.6-2.25.83-.46.4-2.4 1.96-2.87 2.36m57.07-51.65c.12.4.4 1.63.4 2.66-.16.98-.36 2.2-.8 2.87-.38.9-1.55 1.78-2.26 2.45-.8.18-1.54.35-2.44.6-1.06.1-3.45 2.4-4.6 2.48-.7.14-1.54.2-2.47.2-.3-.3-.4-.13-.82-.3.68.5.47.66.6 1.74 0 1.1.77 2.17.63 3.17-.24 1.22-1.3 2.68-2.13 3.16-1.03.64-1.94 1.03-3.07 1.43-1 .03-1.8.2-2.86.2-.68 0-1.22-.04-1.64-.2m32.3-26.8v1.24c.27 1.34.47 2.27 1.43 3.27.7.93 1.78 1.65 2.86 2.26h3.06c.74-.13 2.38.13 3.18.1m-8.1-.1c-.07.07.48-.17.4-.1.52-.5-.33.05-1.42.92-1.23 1.05-1.76 1.5-2.05 3.07.02 1.18.27 1.5.62 2.25.24.9.74 1.76 1.42 2.25.27 0 .2.07.2-.2m-12.56-3.28c0 .1.96.5 1.33 1.02 1.04.66 2.36 1.84 3.67 2.65 1.28.42 2.46.12 3.68-.4.82-.23 1.42-.52 2.05-1.24l.2-.2" fill="none"/><path stroke-linejoin="round" d="M188.75 325.45c-.54.95-1.35 1.52-1.43 2.66 0 1.06.13 1.96.4 2.67.4.7.84 1.82 1.44 2.45.37.6.76 1.13 1.22 1.43-.36-1-1.28-1.78-2.25-2.65-.37-.43-.8-.6-1.22-.2-1.04.07-1.75.33-2.44.6-1.15.4-2.12.94-2.86 1.44-.75.77-.82 1.2-.82 2.45-.1 1.3-.2 2.54-.2 3.87.3.26.37.46.4 1.03-.22-.86-.68-2.2-1.23-2.86-.5-.7-.84-.8-2.04-.82-1.03.2-1 .7-1.63 1.22-.62.9-1.05 1.18-1.43 2.25-.5 1.16-.6 2.14-.6 3.47.26 0 .6 2.13.6 1.85" fill="none"/><path stroke-linejoin="round" d="M179.53 325.45v.2c0-.54.04-.25-.6.62-.3.96-.42 1.5-.42 2.66.16 1.18.6 1.8.83 2.86.8.94 1.1 1.4 2.04 1.83.28.28.64.38.82.2m-8.4-1.04h-.2c.06.13 0 .9 0 1.42 0 .98-.08 2 .2 2.87.2.82 1.36 1.13 1.85 1.62m-12.46-.82c0 .07.4-.48.4-.4 0-.58-.4.34-.82 1.43-.97 1.14-1.67 2.05-2.87 3.27-1.24.4-2.04 1.15-3.26 2.04-1.33.76-2.63 1.2-3.88 1.84-1.37.58-2.96 1-4.5 1.43-1.37.52-2.97.9-4.5 1.03-1.03.36-2.18.6-3.27.82-1.28.45-2.68.97-3.9 1.43-.93.33-1.46.52-2.24 1.03-1.23.43-2.43 1.25-3.68 1.85-.45.54-1.67 1.3-2.46 2.04-1.27.67-2.57 1.83-3.88 2.44-1.5.97-3 1.76-4.7 2.25-1.35.63-2.67 1.1-3.9 1.83-.9.63-1.85 1.53-2.85 2.25-.63.92-1.42 1.6-2.26 2.25-.66 1.23-1.74 2.17-2.65 3.07-.56.37-1.2.96-1.65 1.43-.63.65-1.23 1.22-1.84 1.64-.6.74-.93 1-1.83 1.43-.56.57-1.26.74 0 .82 1.17-.38 2.6-.38 3.88-.4 1.27-.3 2.75-.43 4.1-.63 1.13-.15 2.48-.38 3.88-.42 1.5.25 3.68-.4 5.3-1.02 1.36-.8 2.6-1.5 3.9-2.25.74-.5 1.4-.74 2.25-1.2.74-.2 1.43-.62 2.25-.83m40.47-31.9c0 .26.08 1.47.2 2.05.4 1.26.92 2.23 1.84 3.06.7.42 2.18.3 3.38.3m-9.72-4.37c-.16 0-.1.5-.4 1.03 0 1.05.14 2.13.4 2.86 1.36.62 2.3.93 3.9 1 .96-.06 1.5-.3 2.24-.6.64-.13-.22.5-.82 1.02-.86.86-1.24 1.6-.82 2.87.43.88 3.75 2 4.32 2.55" fill="none"/><path stroke-linejoin="round" d="M160.1 341.8c-.2.95-.22 1.5.42 2.25.56.46 1.4.4 2.46.4 1.82-.1 3.48-.4 5.3-.4.87 0-.7.1-1 .2-1.04.36-1.57.48-2.26 1.02-1.1.45-1.64.96-2.66 1.84-.4.62-.6 1.4-.2 2.06.4.6.9 1.02 1.63 1.43.76.58.94.9 2.04 1h.4" fill="none"/><path stroke-linejoin="round" d="M157.36 343.65c-.1.4-.52 1.02-.52 2.04.1 1.08.35 1.37 1.03 1.83.56.46 1.38.4 2.45.4h1.23c-.6.35-1.5.46-2.05.83-.64.44-.96.84-1.22 1.84-.02 1.14-.2 1.56 0 2.66.44.83.7 1.45 1.22 2.25.4.6 2.44 1.8 3.18 2.05m-10.95-10.64c-.18.87-.12 1.57 0 2.47.5.53.85 1.23 1.43 1.63.58.47 2.4.2 3.5.2.85.02 1.33.2.2.2-.55.53-2.18 1.17-2.47 2.26-.3.58-.2 1.65 0 2.25.07 1.05.38 1.42.6 2.25.56.58.8.9 1.64 1.23l-1.63-1.23c.56.58.8.9 1.64 1.23v.2c-.1-.25-.18-.46-.4-.6" stroke-linecap="round" fill="none"/><path stroke-linejoin="round" d="M145.1 348.45c-.5.73-.78.98-.52 1.94.53.73 1.1 1.52 1.84 2.03 1.18 1.08 7.62-.45 8.53-.32.28.3-7.8 1.6-8.33 3.4-.22.73-.3 1.95 0 2.86.02 1.18.27 1.5.62 2.25.28.6.5 1 1.22 1.24-.27 0-.2.06-.2-.2" stroke-linecap="round" fill="none"/><path stroke-linejoin="round" d="M137.22 351c-.3.9.06 1.3.4 2.04.5.73 1.35 1.68 2.05 2.14.42.24 7.12-.3 7-.3-.75.25-6.9 1.83-8.02 2.45-.42.82-.4 1.52-.4 2.66.07 1.06.15 1.52 1 1.83.6.28 1.7.35 2.47.4l1.44.32" stroke-linecap="round" fill="none"/><path stroke-linejoin="round" d="M131.5 353.35c0 .22-.34 1.2-.2 1.94.28.66.13 1.1.6 1.42.18.98.46 1.65 1.43 1.84 1.07 0 1.9.05 2.46-.4.83-.38 1.33-.7 2.03-1.03l-2.04 1.02c.83-.37 1.33-.7 2.03-1.02l3.8-1.13c-.62.45-4.66 2.1-5.43 2.36-.58.54-1.05.63-1.23 1.63-.12.9-.2 1.58 0 2.44.53.5.97.95 1.43 1.43" stroke-linecap="round" fill="none"/><path stroke-linejoin="round" d="M127.2 356.1c-.1.24-.6 1.15-.6 2.05.1 1.1.42 1.28 1 2.04h2.87c.8.14 3.1-.83 4-.83-.9.2-3.13 1.4-3.6 2.05-.54.22-.54.55-.6 1.22-.32.53-.2 1.5 0 2.05.38.56.84 1.06 1.22 1.62" fill="none"/><path stroke-linejoin="round" d="M122.1 358.96c0 .3.07 1.63.2 2.25.8.62 1.28 1.03 2.25 1.65 1 .04 5.15-1.85 6.26-1.85.8 0-4 2.17-4.2 2.26-.42.67-.75.97-.83 2.04-.37.62-.1 1.55 0 2.25.33.5.66.75 1.23 1.02-.27 0-.2.07-.2-.2" fill="none"/><path stroke-linejoin="round" d="M116.77 361.64c0 .07.02-.07-.2 1.02-.4.54-.05 1.04.4 1.44.6.8 1.53.98 2.46 1.22.92.17 1.85.2 2.86.2.77 0 3.7-1.92 4.1-2.26-.67.28-3.98 2.4-4.92 2.68-1.15.52-1.46.96-1.84 2.04.04 1.17.36 1.45.8 2.25.43.77 2.2-.06 2.9.4" fill="none"/><path stroke-linejoin="round" d="M112.9 364.9v.2c0-.6.02-.26-.62.82-.2.95-.27 1.48.4 2.05.5.74.86 1.07 1.85 1.22.32.13 5.32-2.7 5.86-2.7-.82.56-6.46 3.82-6.9 4.74-.38.8-.4 1.47-.4 2.45m-5.52-3.48c0 1.07-.05 1.9.4 2.46.12.93 2.1 1 2.78 1.32" fill="none"/></g></svg>