<svg xmlns="http://www.w3.org/2000/svg" height="480" width="640"><defs><clipPath id="a"><path fill-opacity=".67" d="M0 0h640v480H0z"/></clipPath></defs><g clip-path="url(#a)"><path fill-rule="evenodd" fill="#c60000" d="M-40 0h720v480H-40z"/><path fill-rule="evenodd" fill="#003bb2" d="M-40 68.57h720v342.86H-40z"/><path d="M457.14 240c0 75.74-61.4 137.14-137.14 137.14-75.75 0-137.15-61.4-137.15-137.14 0-75.74 61.4-137.14 137.15-137.14 75.74 0 137.14 61.4 137.14 137.14z" fill-rule="evenodd" fill="#fff"/><g stroke="#000" fill-rule="evenodd"><path d="M0 318.04c6.93 1.02 14.4 1.2 23.3 0 7.42 2 12.88 5.65 18.33 8.33 3.06 5.66 7.34 14 11.65 18.3 1.88 6.88 4.64 9.77 8.33 16.66.93 6.8 3.2 13.62 0 19.98-3.78 4.76-9.75 7.53-14.97 10-6.9 3.7-10.94 5.05-20 6.67-7.43 1.33-15.02 1.66-23.3 1.66-8-1.43-14.2-2.75-21.64-3.33-7.43-1.32-15.9-2-23.33-3.33-4.8-2.8-11.02-5.12-16.65-6.66-3.9-3.7-9.56-7.94-14.98-11.64-4.2-7.5-8-10.2-11.66-16.66-3.32-4.87-4.9-11.17-5-19.98 2.63-5.34 6.96-10.53 10-14.98 5.2-3.44 11.07-8 18.3-11.66 9.8-.35 13.6-3.2 23.32-3.33h24.98c5.65.57 8.44 5.58 13.32 10z" transform="matrix(.2 0 0 .17 345.24 141.57)" stroke-width="3.75" fill="#030"/><path d="M273.08 659.4c-6.66-38.3-16.65-133.22-16.65-174.85C258.1 452.9 378 344.68 381.33 333.02c3.32-11.66 64.93-99.9 74.92-126.55-24.98 18.32-66.6 98.24-74.93 106.57-8.33 8.33 18.3-83.26 10-111.56-8.34 33.3-21.66 118.22-31.65 126.55-5 5-91.58 104.9-101.57 101.57-10-3.33-36.63-19.98-31.64-29.97 5-10 71.6-71.6 74.94-93.25s8.32-73.27 14.98-78.26c6.66-5 16.66-29.97 24.98-49.96-21.65 10-24.98 39.97-33.3 41.63-8.33 1.66-28.3-33.3-28.3-33.3s13.3 38.3 14.98 46.6c1.66 8.34-6.66 63.3-11.66 69.95-5 6.66-41.63 53.28-48.3 54.95-6.65 1.66-24.97-76.6-24.97-91.58s13.33-73.27 0-76.6c-8.3 0-9.98 68.27-14.97 68.27s-16.65-68.28-16.65-68.28-6.66 31.64-3.33 53.28c-10 1.67-36.64-39.96-36.64-39.96s49.97 86.6 59.96 89.92c10 5 19.98 68.27 18.32 71.6s-49.96-16.65-59.95-23.3c-10-6.67-29.97-79.94-29.97-79.94s10 71.6-1.67 61.6c-11.66-9.98-29.98-18.3-39.97-33.3-10-14.98-5-76.6-5-76.6s-16.65 54.96-23.3 54.96c-6.67 0-28.3-73.27-28.3-73.27s3.32 79.94 13.3 84.94c10 5 159.86 104.9 161.53 114.9 1.66 10 19.98 48.28 29.97 59.94-1.67 21.65 6.66 161.52 10 194.82l29.96 10z" transform="matrix(.2 0 0 .17 278.92 126.25)" stroke-width="1pt" fill="#520900"/><path d="M-338.02 133.2c1.85 6.43 2.53 12.16 11.66 15 5.05 1.92 15 4.53 19.98 6.66 5.24 2.48 11.14 5.6 18.3 6.66 5.4 1.8 14.6 3.65 21.66 5 7.45 1.32 15.03 1.66 23.3 1.66 9.57-1.7 13.82-3.43 20-8.33 1.85-6.78 4.34-9.83 5-18.32.56-7.94 1.66-14.82 1.66-23.3-1.54-4.63-1.8-15.37-3.33-20-5.57-5.45-7.04-8.64-16.65-11.64-7.47-3.4-14.3-3.34-23.3-3.34-6.97 2.32-15.35 1.66-23.32 1.66h-23.3c-6.98 1.52-12.3 2.76-18.33 6.66-8.13 3.67-9.33 6.32-13.32 15-2.93 8.8-3.03 15.4 0 26.63z" transform="matrix(.2 0 0 .17 343.25 135.9)" stroke-width="3.75" fill="#030"/><path d="M-329.7 191.5c0-2.8-6.02 2.68-8.33 5-5.4 3.76-7.64 8.8-8.32 18.3-2.5 5.2 0 13.72 0 21.65 0 9.18.06 15.58 5 19.98 5.6 3.45 8.28 5 18.3 5h46.63c5.9-1.97 13.1-2.96 20-5 7.7-4.08 13.06-4.52 21.63-6.66 4.9-4.24 11.65-8.6 20-10 9.54-.45 15.25-3.78 21.64-8.32 8.22-2.05 15.64-6.36 21.65-10 4.83-3.28 8.3-7.4 11.64-13.3 3.4-7.93 4.5-12.9-1.66-21.65-12.14-4.42-6.1-9.2-15-13.32-4.05-2.46-13.5-5.68-18.3-8.33-8.3.6-14.2 2.68-23.32 3.33-4.7 2.35-14.36 1.66-21.64 1.66h-26.65c-7.96 0-16.35-.65-23.3 1.67-6.67 1.83-10 4.85-16.66 6.67-4.38 3-11.5 5.4-16.64 8.33l16.65-8.33c-4.38 3-11.5 5.4-23.3 13.32z" transform="matrix(.2 0 0 .17 342.26 137.6)" stroke-width="3.75" fill="#030"/><path d="M-186.5 49.95c3.3 0-5.2 3.98-8.33 6.66-4 7.07-4.47 13.43-6.66 20-2.55 5.76-5.7 13.06-6.65 19.97-3.14 7.5-4.88 10.23-5 20 0 7.66-.08 16.37 1.67 21.63 5.05 6.36 9.9 9.98 18.32 15 7.2 2.48 12.5 3.97 19.98 4.98h23.3c5.28 1.76 13.98 1.67 21.66 1.67 8.5-3.17 11.7-7.2 19.98-8.33 9.1-.82 10.7-4.64 15-11.65 3.98-5.17 5.66-11.02 6.65-18.32 0-8.4-.74-15.63-1.66-23.3-4-4.5-7.05-10.7-10-18.33-5.14-8.82-5.14-12.74-13.3-16.65-4-5.43-10.86-8.07-15-11.65-8.65-.62-15.22-1.7-21.64-5-7.68 0-16.38-.1-21.65 1.67-6.03 0-10.45.56-16.65 1.65z" transform="matrix(.2 0 0 .145 343.92 141.04)" stroke-width="3.75" fill="#030"/><path d="M-58.28 64.94c-1 0-4.08 4.82-6.66 10-4.34 6.9-4.92 13.3-8.33 18.3-1.33 7.44-1.66 15.03-1.66 23.3.75 8.33 3.2 11.34 8.32 15 7.7 4.38 11.36 6.4 19.97 8.33 7.45.57 12.8 1.66 21.65 1.66 7.97 0 16.35.66 23.3-1.66 8.3 0 15.88-.34 23.33-1.67 3.82-3.24 12.04-6.14 16.65-8.32 5.48-6.64 8.1-13.25 11.65-18.32 0-9.82.08-15.56-5-23.3-3.6-6.4-7.95-9.33-13.3-15-6.73-2.33-12.4-7.2-20-8.32h-69.93z" transform="matrix(.2 0 0 .17 342.6 135.33)" stroke-width="3.75" fill="#030"/><path d="M76.6 76.6c-6.3 2.6-8.6 3.3-11.66 9.98-4.62 7.12-7.34 10.46-11.66 15-1 6.65-3.64 13.87-6.66 18.3-.9 7.7-1.66 14.92-1.66 23.32 4.22 6.48 10.08 12.6 16.65 16.65 6.8 2.35 13.96 5.93 20 8.32 7.76 2.04 14.94 4.4 23.3 5 7.22 1.8 15.17 1.66 23.32 1.66 7.4-1.6 13.75-3.47 19.98-8.32 3.33-5.2 7.15-11.04 8.32-19.97 2.76-8.27.54-19.06-3.33-26.65-2.05-7.47-5.02-10.37-13.33-14.98-4.6-4.86-10.7-10.33-15-13.32-5.27-4.6-12.13-5.16-19.97-8.33-8.5-1.9-11.33-4.33-19.98-5l19.98 5c-8.48-1.88-11.33-4.33-28.3-6.66z" transform="matrix(.2 0 0 .17 340.6 141.85)" stroke-width="3.75" fill="#030"/><path d="M-51.62 146.53c-7.62 3.46-11.16 7.63-16.65 13.32 0 8.85 1.1 14.2 1.67 21.65 3.46 4.73 7.14 14.25 10 18.3 2.16 6.83 6.9 12.15 9.98 16.67 7.7 3.1 15.5 5.44 23.3 8.32 9.2 0 15.1 2.05 23.32 3.32 6.96 2.32 15.34 1.67 23.3 1.67 8.16 0 16.1-.15 23.32 1.65 7.7 1.37 13.4 4.36 21.65 5 4.74-.45 13.14-1.14 19.98-1.67 7.67-3.48 11-5.7 15-11.65 3.74-4.55 3.32-11.27 3.32-19.98 1.6-8.98 2.1-15-1.66-23.32-.1-8.96-1.8-13.17-3.32-21.64-3-6.02-5.65-8.66-11.66-11.67-5.47-3.8-12.86-6-18.32-10-7.43-.88-15.76-2.04-21.64-3.32-6.5-4.33-11.94-6.54-21.65-6.65-9.5-1.13-14-2.26-21.64 1.66-8 .58-15.15 2.18-19.98 5-6.15.48-15.28 1-19.98 3.34-7.42 0-10 1.3-16.65 1.66l16.65-1.66c-7.42 0-10 1.3-18.32 10z" transform="matrix(.252 0 0 .132 337.9 146.95)" stroke-width="3.75" fill="#030"/><path d="M-123.22 278.07c-4.3-.63-17.28-1.67-26.64-1.67-8.75 0-15.86.58-23.3 3.33-8 1.54-13.9 4.05-20 6.66-5.05 2.4-10.95 4.83-14.98 8.32-4.96 3.37-9.13 6.34-13.32 13.32-4.48 6.42-4.95 10.56-8.33 18.32v23.3c.6 7.64 1.65 14.24 5 21.66 5.03 4.02 11.98 5.28 18.32 6.66 6.03 1.3 13.88 2.77 21.65 3.33 9.24 0 14.16.47 21.65 3.34 9.74-.36 11.6-2.63 19.98-6.66 9.3-3.7 14.86-5.06 23.3-10 5.18-4.07 8.6-10.98 11.67-18.3 4.7-7.58 7.9-14.9 11.65-21.66 1.8-7.2 1.67-15.16 1.67-23.3-2.23-6.27-5.76-8.9-10-15-4.62-5.04-6.67-8.94-10-13.3l10 13.3c-4.62-5.04-6.67-8.94-18.32-11.65z" transform="matrix(.2 0 0 .17 344.25 138.73)" stroke-width="3.75" fill="#030"/><path d="M0 318.04c6.93 1.02 14.4 1.2 23.3 0 7.42 2 12.88 5.65 18.33 8.33 3.06 5.66 7.34 14 11.65 18.3 1.88 6.88 4.64 9.77 8.33 16.66.93 6.8 3.2 13.62 0 19.98-3.78 4.76-9.75 7.53-14.97 10-6.9 3.7-10.94 5.05-20 6.67-7.43 1.33-15.02 1.66-23.3 1.66-8-1.43-14.2-2.75-21.64-3.33-7.43-1.32-15.9-2-23.33-3.33-4.8-2.8-11.02-5.12-16.65-6.66-3.9-3.7-9.56-7.94-14.98-11.64-4.2-7.5-8-10.2-11.66-16.66-3.32-4.87-4.9-11.17-5-19.98 2.63-5.34 6.96-10.53 10-14.98 5.2-3.44 11.07-8 18.3-11.66 9.8-.35 13.6-3.2 23.32-3.33h24.98c5.65.57 8.44 5.58 13.32 10z" transform="matrix(.255 0 0 .142 350.64 136.54)" stroke-width="3.75" fill="#030"/></g><g fill-rule="evenodd" stroke="#000" stroke-width="3.71" fill="#006a00"><path d="M200.16 613.18l4.7-7.06-12.94-2.36 9.42-9.42-12.95-4.7 12.94-9.43-12.95-7.05 14.12-5.9-7.07-11.76 14.13 2.34-5.9-14.13 16.5 7.08v-18.84l11.77 12.95 9.42-16.5 7.07 15.3 14.13-16.47 4.7 12.95 21.2-10.6-5.9 16.5 22.38-9.43-4.7 18.84 21.2-9.43-8.25 17.66 21.2 1.18-17.67 10.6 17.66 7.07-16.5 9.42 14.14 11.76c-45.14 20.8-79.68 27.48-131.88 9.42z" transform="matrix(.165 -.012 .008 .152 294.24 194.23)"/><path d="M200.16 613.18l4.7-7.06-12.94-2.36 9.42-9.42-12.95-4.7 12.94-9.43-12.95-7.05 14.12-5.9-7.07-11.76 14.13 2.34-5.9-14.13 16.5 7.08v-18.84l11.77 12.95 9.42-16.5 7.07 15.3 14.13-16.47 4.7 12.95 21.2-10.6-5.9 16.5 22.38-9.43-4.7 18.84 21.2-9.43-8.25 17.66 21.2 1.18-17.67 10.6 17.66 7.07-16.5 9.42 14.14 11.76c-45.14 20.8-79.68 27.48-131.88 9.42z" transform="matrix(.165 -.012 .008 .152 255.2 193.1)"/><path d="M200.16 613.18l4.7-7.06-12.94-2.36 9.42-9.42-12.95-4.7 12.94-9.43-12.95-7.05 14.12-5.9-7.07-11.76 14.13 2.34-5.9-14.13 16.5 7.08v-18.84l11.77 12.95 9.42-16.5 7.07 15.3 14.13-16.47 4.7 12.95 21.2-10.6-5.9 16.5 22.38-9.43-4.7 18.84 21.2-9.43-8.25 17.66 21.2 1.18-17.67 10.6 17.66 7.07-16.5 9.42 14.14 11.76c-45.14 20.8-79.68 27.48-131.88 9.42z" transform="matrix(.165 -.012 .008 .152 315.93 193.66)"/><path d="M200.16 613.18l4.7-7.06-12.94-2.36 9.42-9.42-12.95-4.7 12.94-9.43-12.95-7.05 14.12-5.9-7.07-11.76 14.13 2.34-5.9-14.13 16.5 7.08v-18.84l11.77 12.95 9.42-16.5 7.07 15.3 14.13-16.47 4.7 12.95 21.2-10.6-5.9 16.5 22.38-9.43-4.7 18.84 21.2-9.43-8.25 17.66 21.2 1.18-17.67 10.6 17.66 7.07-16.5 9.42 14.14 11.76c-45.14 20.8-79.68 27.48-131.88 9.42z" transform="matrix(.16 -.047 .03 .148 288.98 212.4)"/><path d="M200.16 613.18l4.7-7.06-12.94-2.36 9.42-9.42-12.95-4.7 12.94-9.43-12.95-7.05 14.12-5.9-7.07-11.76 14.13 2.34-5.9-14.13 16.5 7.08v-18.84l11.77 12.95 9.42-16.5 7.07 15.3 14.13-16.47 4.7 12.95 21.2-10.6-5.9 16.5 22.38-9.43-4.7 18.84 21.2-9.43-8.25 17.66 21.2 1.18-17.67 10.6 17.66 7.07-16.5 9.42 14.14 11.76c-45.14 20.8-79.68 27.48-131.88 9.42z" transform="matrix(.165 -.012 .008 .152 330.4 202.72)"/><path d="M200.16 613.18l4.7-7.06-12.94-2.36 9.42-9.42-12.95-4.7 12.94-9.43-12.95-7.05 14.12-5.9-7.07-11.76 14.13 2.34-5.9-14.13 16.5 7.08v-18.84l11.77 12.95 9.42-16.5 7.07 15.3 14.13-16.47 4.7 12.95 21.2-10.6-5.9 16.5 22.38-9.43-4.7 18.84 21.2-9.43-8.25 17.66 21.2 1.18-17.67 10.6 17.66 7.07-16.5 9.42 14.14 11.76c-45.14 20.8-79.68 27.48-131.88 9.42z" transform="matrix(.165 -.012 .008 .152 314 204.42)"/><path d="M200.16 613.18l4.7-7.06-12.94-2.36 9.42-9.42-12.95-4.7 12.94-9.43-12.95-7.05 14.12-5.9-7.07-11.76 14.13 2.34-5.9-14.13 16.5 7.08v-18.84l11.77 12.95 9.42-16.5 7.07 15.3 14.13-16.47 4.7 12.95 21.2-10.6-5.9 16.5 22.38-9.43-4.7 18.84 21.2-9.43-8.25 17.66 21.2 1.18-17.67 10.6 17.66 7.07-16.5 9.42 14.14 11.76c-45.14 20.8-79.68 27.48-131.88 9.42z" transform="matrix(.165 -.012 .008 .152 238.82 193.1)"/><path d="M200.16 613.18l4.7-7.06-12.94-2.36 9.42-9.42-12.95-4.7 12.94-9.43-12.95-7.05 14.12-5.9-7.07-11.76 14.13 2.34-5.9-14.13 16.5 7.08v-18.84l11.77 12.95 9.42-16.5 7.07 15.3 14.13-16.47 4.7 12.95 21.2-10.6-5.9 16.5 22.38-9.43-4.7 18.84 21.2-9.43-8.25 17.66 21.2 1.18-17.67 10.6 17.66 7.07-16.5 9.42 14.14 11.76c-45.14 20.8-79.68 27.48-131.88 9.42z" transform="matrix(.16 -.047 .03 .148 211.86 211.85)"/><path d="M200.16 613.18l4.7-7.06-12.94-2.36 9.42-9.42-12.95-4.7 12.94-9.43-12.95-7.05 14.12-5.9-7.07-11.76 14.13 2.34-5.9-14.13 16.5 7.08v-18.84l11.77 12.95 9.42-16.5 7.07 15.3 14.13-16.47 4.7 12.95 21.2-10.6-5.9 16.5 22.38-9.43-4.7 18.84 21.2-9.43-8.25 17.66 21.2 1.18-17.67 10.6 17.66 7.07-16.5 9.42 14.14 11.76c-45.14 20.8-79.68 27.48-131.88 9.42z" transform="matrix(.165 -.012 .008 .152 253.28 202.16)"/><path d="M200.16 613.18l4.7-7.06-12.94-2.36 9.42-9.42-12.95-4.7 12.94-9.43-12.95-7.05 14.12-5.9-7.07-11.76 14.13 2.34-5.9-14.13 16.5 7.08v-18.84l11.77 12.95 9.42-16.5 7.07 15.3 14.13-16.47 4.7 12.95 21.2-10.6-5.9 16.5 22.38-9.43-4.7 18.84 21.2-9.43-8.25 17.66 21.2 1.18-17.67 10.6 17.66 7.07-16.5 9.42 14.14 11.76c-45.14 20.8-79.68 27.48-131.88 9.42z" transform="matrix(.165 -.012 .008 .152 236.9 203.85)"/><path d="M200.16 613.18l4.7-7.06-12.94-2.36 9.42-9.42-12.95-4.7 12.94-9.43-12.95-7.05 14.12-5.9-7.07-11.76 14.13 2.34-5.9-14.13 16.5 7.08v-18.84l11.77 12.95 9.42-16.5 7.07 15.3 14.13-16.47 4.7 12.95 21.2-10.6-5.9 16.5 22.38-9.43-4.7 18.84 21.2-9.43-8.25 17.66 21.2 1.18-17.67 10.6 17.66 7.07-16.5 9.42 14.14 11.76c-45.14 20.8-79.68 27.48-131.88 9.42z" transform="matrix(-.335 -.014 .02 -.152 399.8 380.2)"/></g><path d="M356.34 196.48c0 22.5-19 6.66-38.3 6.66-19.3 0-36.63 17.52-39.96 0 0-9.2 25.66-23.3 44.96-23.3 14.3 1.65 36.63-4.2 33.3 16.64z" fill-rule="evenodd" transform="matrix(.273 0 0 .3 278.56 210.98)" stroke="#000" stroke-width="2.5" fill="#510800"/><path d="M356.34 196.48c0 22.5-19 6.66-38.3 6.66-19.3 0-36.63 17.52-39.96 0 0-9.2 25.66-23.3 44.96-23.3 14.3 1.65 36.63-4.2 33.3 16.64z" fill-rule="evenodd" transform="matrix(-.273 0 0 .3 369.7 209.6)" stroke="#000" stroke-width="2.5" fill="#ffc600"/><path d="M349.68 188.16c0 13.8-7.08 24.98-15.82 24.98s-15.82-11.2-15.82-24.98 7.08-24.98 15.82-24.98 15.82 11.2 15.82 24.98z" fill-rule="evenodd" transform="matrix(.337 0 0 .33 277.83 205.3)" stroke="#000" stroke-width="2.5" fill="#520900"/><g fill-rule="evenodd" stroke="#000" stroke-width="1pt" transform="matrix(-.624 -.117 -.37 .624 523.74 93.66)"><path d="M273.75 383.58c-2.74 4.56 42.98 12.95 57.7 22.37 14.7 9.42 14.7 10 21.2 14.72l1.75-2.94c-3.53-3.54-38.5-26.36-62.4-34.15-6.8-2.27-10.3-13.25-12.95-8.83l-5.3 8.83z" transform="matrix(-.723 -.545 .52 -.758 322.4 677.92)" fill="#af8000"/><path d="M319.08 369.45l-25.32-5.9s-5.88 2.37-6.47 11.2c-.6 8.83 4.7 14.13 4.7 14.13l27.08-9.42v-10z" transform="matrix(.844 -.297 .284 .885 -89.24 -64.18)" fill="gray"/><rect ry="3.53" rx="3.53" transform="matrix(.844 -.297 .284 .885 -19.2 -255.6)" height="19.43" width="7.06" y="534.62" x="175.71" fill="gray"/></g><path d="M244.77 87.42c7.32-5.95 11.16-3.72 17.65 3.1 9.32 9.8 41.32 58.85 46.3 63.02s4.25-6.42 10.36-1.4c3.03 3.74-10.44 17.04-13.74 14.58-6.4-5.02 3.9-5.38-.36-9.64-4.92-5.14-51.2-40.5-60.28-50.57-5.92-6.57-6.3-13.96.07-19.08z" fill-rule="evenodd" transform="matrix(.715 .16 .333 .53 132.43 68.16)" stroke="#000" stroke-width="1.25" fill="#923d09"/><g stroke="#000"><path d="M193.63 88.25c15.55 4.42 43.27 46.12 53.77 45.8 16.65-.5 83.23-77.57 72.56-88.26-7.4-8.26-67.94 41.18-71.85 44.1-.66-8.6-15.94-51.03-28.3-59.93-14.62-9.3-32.2-4.16-47.82-6.66-7.3-2.84-18.84-14.05-23.78-24.97 8.18-3.54 15.32-2.48 23.3-10.65 5.7-6.64 2.4-46.9.38-51.06-13.3-14.27 5.43-7.33-39.03-9.08C68.6-74.9 56.98-22.88 101.2-1.66 97.74 14.25 86.98 17.9 78.26 19.97c-8.77.1-38.82-.77-55.54 12.5-33.4 24.54-8.93 30.9-15.36 35.8C.2 73.9-10.5 88.07-14.52 96.57c-10.47 5-99.5-5-116.5-1.67-16.42.97-56.47 15.83-73.15 26.65 3.56 14.14 241.5-7.6 249.27-2.5 5.94 3.35-2.7 51.24 2 54.95 1.67 9.06 116.55 5.83 125.6 5.83 7.57-18.86 15.4-81.56 20.93-91.58z" fill-rule="evenodd" transform="matrix(-.13 0 0 .204 282 186.26)" stroke-width="4.7" fill="#ffc600"/><path d="M174.9-96.57c1.54 25.46-7.12 3.3-38.37 3.3-60.56-5.03-39.28 99.2-39.28 67.03-26.23-13.7-44.84-100.3 29.6-96.93 23.55 0 44.97 7.86 48.06 26.6z" fill-rule="evenodd" transform="matrix(-.154 0 0 .143 285.62 187.12)" stroke-width="5.13"/><path d="M387.98 96.57c0 1.68-.17 7.96-.83 11.66-.45 3.74-1.54 8.08-2.5 10.82-.34 4.46-2.1 5.18-2.5 10-1.54 2.26-2.2 5.94-2.5 9.98 0 4.27.7 7.56.84 11.66.47 3.55 1.6 6.36 1.65 10.82 0 4.36 0 7.55-1.66 10v5.82" transform="matrix(-.202 0 0 .204 353.2 179.88)" stroke-width="3.75" fill="none"/><path d="M383.8 76.6c.6 0 1.04 20.12 5.84 24.97 1.04 3.2 4.57 7.34 5.83 10 1.67 2.45 3.98 5.36 8.32 6.65h11.65c4.63 0 7.47.06 10.82-1.66 1.5-.8 2.53-1.85 3.33-3.33m12.5 2.5h.82c-2.33 0-1.1-.1 3.33 1.65 1.73 2.54 3.77 3.63 6.66 5 3 1.47 6.4 1.67 10.84 1.67 4.2-.36 6.74-1.7 9.16-3.33 4.04-1.3 4.8-2.94 5.82-7.5v-11.65c-.48-3.53-1.38-6.38-2.5-9.16-.42-1.25-.83-.7-.83-2.5m34.96 31.65c-.42 0-2.65 2.58-4.16 5-2.57.9-3.24 3.7-4.16 5.82-.67 2.68-1.67 2.86-1.67 6.66-1.68 3.7-2.2 7-2.5 10.83l2.5-10.83c-1.68 3.7-2.2 7-2.5 10.83m-36.63-94.9h-.83c2.26 0 1.1-.07-3.32.82-1.82 2.27-4.8 4.3-7.5 5.82-2.97 1.83-5.36 4-8.32 5l8.32-5c-2.97 1.83-5.36 4-8.32 5m-39.13-14.98h.83c-2.24 0-1.1-.06 3.33.83 2.93 1.4 4.74 2.9 7.5 5 1.28 1.93 3.24 2.3 4.15 5.82 1.57.85 2.12 1.67 2.5 4.16m6.66-37.46h4.17c4.53 0 6.74.68 10.83.83 3.54-.42 4.38-1.74 7.5-2.5m-6.67 104.9c.14.67 1.65 4.27 2.5 5.84 1.5 2.5 3.54 4.9 4.16 8.32.96 2.9 1.52 6.23 1.66 10 .76 3.5 1.26 6.6-.84 9.15-.9 3.3-2.57 5.7-4.16 9.17-1.1 0-.83-.28-.83.84m-29.15-41.63v.83c0-2.24.06-1.1-.83 3.33-1.15 4.02-2.15 7.4-4.17 10-1.1 3.3-2.32 4.5-2.5 9.15.67 1.55.84 3.27.84 5.83m2.5 5v4.17c.9 1.2.55 1.3 1.67 1.67M343 128.2v.84c0-2.32-.26-.93 4.16.84 3.57.63 7.94 1.03 10.83 1.66 2.68 1.3 5.27 3.48 7.5 5 2 1.72 4.82 3.48 7.5 5 3 1.5 4.32 2.82 5.82 5.82.9 1.2.55 1.3 1.67 1.67" transform="matrix(-.202 0 0 .204 353.2 179.88)" stroke-width="3.75" fill="none"/><path d="M423.78-16.66c.12-.18 2.47-1.9 5-2.5 1.8-1.35 4.8-.73 6.66 0" transform="matrix(-.316 0 0 .204 403.23 180.6)" stroke-width="3" fill="none"/><path d="M445.42-19.15h.83c-2.24 0-1.1.05 3.33-.84 3.48-1.15 7.68-.82 11.66-.82 1.17.4.83.24.83 1.67M444.6-7.5v.84c0-2.33-.1-1.1 1.66 3.33.64 2.96 1.76 7.05.83 9.15-2.2 0-2.87-.27-4.18-.83" transform="matrix(-.245 0 0 .204 373.5 180.6)" stroke-width="3.4" fill="none"/><path d="M371.33-24.98c0 3.22-4.1 5.83-9.16 5.83s-9.16-2.6-9.16-5.83 4.1-5.83 9.17-5.83 9.16 2.6 9.16 5.82z" fill-rule="evenodd" transform="matrix(-.242 -.035 -.024 .115 350.64 199.07)" stroke-width="4.5"/><path d="M371.33-24.98c0 3.22-4.1 5.83-9.16 5.83s-9.16-2.6-9.16-5.83 4.1-5.83 9.17-5.83 9.16 2.6 9.16 5.82z" fill-rule="evenodd" transform="matrix(-.175 -.023 -.017 .076 330.5 187.5)" stroke-width="6.53"/><path d="M371.33-24.98c0 3.22-4.1 5.83-9.16 5.83s-9.16-2.6-9.16-5.83 4.1-5.83 9.17-5.83 9.16 2.6 9.16 5.82z" fill-rule="evenodd" transform="matrix(-.175 -.023 -.017 .076 325.2 187)" stroke-width="6.53"/><path d="M412.95 113.64c0 2.07-1.86 3.75-4.16 3.75s-4.18-1.7-4.18-3.76 1.87-3.75 4.17-3.75 4.15 1.67 4.15 3.74zm56.62 6.25c0 1.37-1.3 2.5-2.9 2.5-1.62 0-2.93-1.13-2.93-2.5s1.3-2.5 2.92-2.5c1.6 0 2.9 1.1 2.9 2.5z" fill-rule="evenodd" transform="matrix(-.202 0 0 .204 353.2 179.88)" stroke-width="3.75"/><path d="M447.1 31.63v.84c0-2.8.2-1.03-4.17 3.33-3.73 1.78-5.17 3.66-6.66 6.66-1.75 3.85-2.35 6.6-2.5 10.82v6.66M419.6 30.8c.6 0 1.5 2.27 2.5 5 1.86 2.2 3.04 5.35 3.34 9.16 0 4.5.78 6.45.83 10.82v3.33m78.27 69.94c0 .48-2.6 1.46-4.16 3.33-3.16.43-5.97.83-10 .83-.6-.9-1.83-1.2-3.32-1.66" transform="matrix(-.202 0 0 .204 353.2 179.88)" stroke-width="3.75" fill="none"/></g><g fill-rule="evenodd" stroke="#000" stroke-width="3.75" fill="#fff"><path d="M276.4 36.63l88.26 1.67v11.65s8.33 15 13.32 48.3c5 33.3 10 158.18 10 158.18l21.64 141.54s-13.32 21.65-23.3 19.98c-10-1.66-39.97-13.32-39.97-14.98 0-1.67-1.67-79.93-5-133.22-3.33-53.28-10-81.6-24.97-104.9-20 48.3-21.65 98.25-20 98.25s1.68 39.96 3.34 69.93c1.67 29.98-1.66 71.6-1.66 71.6l-58.28-3.33s1.66-36.63 3.33-64.94c1.67-28.3 6.75-41.62 8.34-73.26 1.74-34.97 4.2-53.32 6.66-109.9 3.23-45.74 14.68-75.26 17.9-103.24.87-7.13-.42-12.5.4-13.32z" transform="matrix(-.21 0 0 .133 334.44 211.38)"/><path d="M316.38 166.5s-8.33-13.3-11.66-36.62-3.33-28.3-3.33-28.3m-3.34 131.54l-10 39.96" transform="matrix(-.21 0 0 .133 334.44 211.38)"/><path d="M276.4 223.12l11.67 54.95" transform="matrix(-.21 0 0 .133 321.9 211.6)"/><path d="M387.98 417.95l-11.66-81.6m-99.9-291.4l88.24 1.67m-46.62 118.22c0-1.67 5-29.97 5-29.97m-38.3-89.92l-8.33 84.93" transform="matrix(-.21 0 0 .133 334.44 211.38)"/></g><path d="M549.2 538.58c0 136.98-111.04 248.03-248.02 248.03S53.15 675.57 53.15 538.6 164.2 290.55 301.18 290.55 549.2 401.6 549.2 538.58z" stroke="#006a00" stroke-width="6.25" fill="none" transform="matrix(.463 0 0 .463 181.15 -9.53)"/><g stroke-width="1pt"><path d="M446.17 215.43c14.44 12.3-2.86 24.63-10.83 24.63-7.97 0-25.27-12.32-10.83-24.63-3.6 12.3 10.84 15.4 10.84 21.55 0-6.16 14.44-9.24 10.83-21.55z" fill-rule="evenodd" fill="#006a00"/><path d="M336.6 432.28c35.44 124.02-53.14 106.3-53.14 141.73 0-35.42-88.58-17.7-53.15-141.72" stroke="#000" fill="none" transform="matrix(.204 0 0 .174 377.57 140.3)"/></g><g stroke-width="1pt"><path d="M310.32 112.05c13.82-13 24.13 5.57 23.25 13.5-.88 7.93-15.02 23.8-25.64 8.05 11.82 4.96 16.47-9.07 22.6-8.4-6.13-.67-7.58-15.4-20.2-13.15z" fill-rule="evenodd" fill="#006a00"/><path d="M336.6 432.28c35.44 124.02-53.14 106.3-53.14 141.73 0-35.42-88.58-17.7-53.15-141.72" stroke="#000" fill="none" transform="matrix(.022 -.203 .172 .02 228.17 172)"/></g><g stroke-width="1pt"><path d="M347.05 361.82c-10 16.14-24.75.84-25.94-7.05-1.18-7.9 8.4-26.86 22.72-14.4-12.7-1.74-13.6 13.02-19.67 13.94 6.08-.9 11.27 12.93 22.9 7.52z" fill-rule="evenodd" fill="#006a00"/><path d="M336.6 432.28c35.44 124.02-53.14 106.3-53.14 141.73 0-35.42-88.58-17.7-53.15-141.72" stroke="#000" fill="none" transform="matrix(.03 .202 -.172 .026 411 282.7)"/></g><g stroke-width="1pt"><path d="M194.1 247.07c-13.64-13.2 4.4-24.4 12.35-23.9 7.96.5 24.46 13.87 9.28 25.26 4.37-12.07-9.86-16.04-9.47-22.2-.4 6.15-15 8.33-12.16 20.84z" fill-rule="evenodd" fill="#006a00"/><path d="M336.6 432.28c35.44 124.02-53.14 106.3-53.14 141.73 0-35.42-88.58-17.7-53.15-141.72" stroke="#000" fill="none" transform="matrix(-.203 -.013 .01 -.173 257.9 326.33)"/></g><g stroke-width="1pt"><path d="M435.47 184.24c16.87 8.67 2.85 24.63-4.9 26.46-7.77 1.83-27.43-6.2-16.2-21.5-.7 12.83 14.07 12.5 15.48 18.5-1.4-6 11.95-12.3 5.62-23.46z" fill-rule="evenodd" fill="#006a00"/><path d="M336.6 432.28c35.44 124.02-53.14 106.3-53.14 141.73 0-35.42-88.58-17.7-53.15-141.72" stroke="#000" fill="none" transform="matrix(.198 -.047 .04 .17 351.5 126.86)"/></g><g stroke-width="1pt"><path d="M275.64 120.38c8.96-16.74 24.64-2.42 26.34 5.38 1.68 7.8-6.67 27.34-21.75 15.82 12.78.92 12.73-13.86 18.74-15.17-6 1.32-12.07-12.16-23.33-6.02z" fill-rule="evenodd" fill="#006a00"/><path d="M336.6 432.28c35.44 124.02-53.14 106.3-53.14 141.73 0-35.42-88.58-17.7-53.15-141.72" stroke="#000" fill="none" transform="matrix(-.043 -.2 .17 -.037 216.85 203.43)"/></g><g stroke-width="1pt"><path d="M383.86 347.56c-3.94 18.58-23 9.2-26.8 2.18-3.78-7.02-1.2-28.1 16.5-21.26-12.55 2.7-8.38 16.87-13.8 19.8 5.42-2.93 15 8.32 24.1-.72z" fill-rule="evenodd" fill="#006a00"/><path d="M336.6 432.28c35.44 124.02-53.14 106.3-53.14 141.73 0-35.42-88.58-17.7-53.15-141.72" stroke="#000" fill="none" transform="matrix(.097 .18 -.153 .083 417.2 251.4)"/></g><g stroke-width="1pt"><path d="M201.03 279.35c-17.14-8.15-3.6-24.53 4.1-26.6 7.7-2.06 27.6 5.35 16.82 21 .3-12.84-14.44-12.07-16.03-18.02 1.6 5.94-11.56 12.66-4.9 23.62z" fill-rule="evenodd" fill="#006a00"/><path d="M336.6 432.28c35.44 124.02-53.14 106.3-53.14 141.73 0-35.42-88.58-17.7-53.15-141.72" stroke="#000" fill="none" transform="matrix(-.197 .053 -.045 -.168 286.7 334.13)"/></g><g stroke-width="1pt"><path d="M418.28 160.33c18.78 2.65 10.76 22.33 4.03 26.6-6.73 4.28-27.93 3.16-22.32-15 3.54 12.35 17.38 7.2 20.68 12.4-3.3-5.2 7.25-15.54-2.38-24z" fill-rule="evenodd" fill="#006a00"/><path d="M336.6 432.28c35.44 124.02-53.14 106.3-53.14 141.73 0-35.42-88.58-17.7-53.15-141.72" stroke="#000" fill="none" transform="matrix(.172 -.11 .093 .147 320.16 133.68)"/></g><g stroke-width="1pt"><path d="M245.94 137.4c4.7-18.4 23.36-8.24 26.86-1.07s.04 28.15-17.35 20.56c12.64-2.17 9.06-16.5 14.6-19.22-5.54 2.7-14.64-8.94-24.1-.28z" fill-rule="evenodd" fill="#006a00"/><path d="M336.6 432.28c35.44 124.02-53.14 106.3-53.14 141.73 0-35.42-88.58-17.7-53.15-141.72" stroke="#000" fill="none" transform="matrix(-.09 -.183 .156 -.076 208.65 232.1)"/></g><g stroke-width="1pt"><path d="M410.2 327.94c1.5 18.93-19.42 15.4-25.06 9.75-5.64-5.65-9.18-26.6 9.73-25.1-11.25 6.16-3.2 18.56-7.55 22.9 4.34-4.34 16.73 3.7 22.88-7.56z" fill-rule="evenodd" fill="#006a00"/><path d="M336.6 432.28c35.44 124.02-53.14 106.3-53.14 141.73 0-35.42-88.58-17.7-53.15-141.72" stroke="#000" fill="none" transform="matrix(.144 .144 -.123 .123 414.73 226.25)"/></g><g stroke-width="1pt"><path d="M213.82 306.27c-18.58-3.82-9.35-22.96-2.36-26.8 6.98-3.85 28.07-1.4 21.34 16.35-2.76-12.54-16.9-8.26-19.86-13.66 2.96 5.4-8.2 15.06.88 24.1z" fill-rule="evenodd" fill="#006a00"/><path d="M336.6 432.28c35.44 124.02-53.14 106.3-53.14 141.73 0-35.42-88.58-17.7-53.15-141.72" stroke="#000" fill="none" transform="matrix(-.18 .098 -.084 -.152 310.1 339)"/></g><g stroke-width="1pt"><path d="M393.35 138.2c18.82-2.38 16.23 18.7 10.85 24.6-5.37 5.9-26.12 10.38-25.46-8.6 6.64 10.98 18.65 2.38 23.2 6.53-4.55-4.15 2.92-16.9-8.6-22.54z" fill-rule="evenodd" fill="#006a00"/><path d="M336.6 432.28c35.44 124.02-53.14 106.3-53.14 141.73 0-35.42-88.58-17.7-53.15-141.72" stroke="#000" fill="none" transform="matrix(.138 -.15 .128 .117 291.68 138.24)"/></g><g stroke-width="1pt"><path d="M221.63 159.64c-.27-19 20.38-14.1 25.64-8.08 5.26 6 7.42 27.14-11.35 24.4 11.62-5.4 4.42-18.32 9.04-22.38-4.62 4.06-16.46-4.78-23.33 6.06z" fill-rule="evenodd" fill="#006a00"/><path d="M336.6 432.28c35.44 124.02-53.14 106.3-53.14 141.73 0-35.42-88.58-17.7-53.15-141.72" stroke="#000" fill="none" transform="matrix(-.134 -.153 .13 -.115 210.44 260.8)"/></g><g stroke-width="1pt"><path d="M428.03 301.2c5.94 18.03-15.24 19.54-22.04 15.4-6.82-4.17-15.2-23.7 3.53-26.7-9.48 8.65 1.25 18.8-1.95 24.06 3.2-5.26 17.14-.37 20.45-12.77z" fill-rule="evenodd" fill="#006a00"/><path d="M336.6 432.28c35.44 124.02-53.14 106.3-53.14 141.73 0-35.42-88.58-17.7-53.15-141.72" stroke="#000" fill="none" transform="matrix(.174 .106 -.09 .148 408.48 201.3)"/></g><g stroke-width="1pt"><path d="M234.75 330.18c-18.93 1.2-15.04-19.7-9.3-25.25 5.73-5.55 26.72-8.73 24.88 10.18-5.95-11.36-18.47-3.53-22.75-7.96 4.28 4.43-3.97 16.7 7.17 23.04z" fill-rule="evenodd" fill="#006a00"/><path d="M336.6 432.28c35.44 124.02-53.14 106.3-53.14 141.73 0-35.42-88.58-17.7-53.15-141.72" stroke="#000" fill="none" transform="matrix(-.147 .142 -.12 -.125 336.22 336.48)"/></g><g stroke-width="1pt"><path d="M367.44 121.3c18-6 19.56 15.2 15.43 22.04-4.13 6.83-23.6 15.27-26.65-3.48 8.65 9.47 18.76-1.3 24.02 1.88-5.26-3.18-.4-17.15-12.8-20.43z" fill-rule="evenodd" fill="#006a00"/><path d="M336.6 432.28c35.44 124.02-53.14 106.3-53.14 141.73 0-35.42-88.58-17.7-53.15-141.72" stroke="#000" fill="none" transform="matrix(.105 -.175 .148 .09 267.73 141.17)"/></g><g stroke-width="1pt"><path d="M204.46 190.4c-6.63-17.8 14.47-20.14 21.43-16.25 6.96 3.88 16.1 23.07-2.5 26.8 9.13-9-2-18.73 1-24.1-3 5.37-17.1 1.02-19.94 13.54z" fill-rule="evenodd" fill="#006a00"/><path d="M336.6 432.28c35.44 124.02-53.14 106.3-53.14 141.73 0-35.42-88.58-17.7-53.15-141.72" stroke="#000" fill="none" transform="matrix(-.178 -.1 .085 -.152 227.87 289.44)"/></g><g stroke-width="1pt"><path d="M440.56 278.1c7.95 17.25-12.92 21.16-20.15 17.82-7.23-3.35-17.78-21.8.5-26.9-8.45 9.65 3.38 18.5.8 24.1 2.58-5.6 16.98-2.32 18.86-15z" fill-rule="evenodd" fill="#006a00"/><path d="M336.6 432.28c35.44 124.02-53.14 106.3-53.14 141.73 0-35.42-88.58-17.7-53.15-141.72" stroke="#000" fill="none" transform="matrix(.185 .086 -.073 .158 409.75 181.1)"/></g><g stroke-width="1pt"><path d="M270.06 353.98c-17.43 7.5-20.77-13.5-17.23-20.65 3.53-7.16 22.23-17.2 26.84 1.2-9.4-8.7-18.58 2.9-24.1.16 5.52 2.72 1.86 17.05 14.5 19.28z" fill-rule="evenodd" fill="#006a00"/><path d="M336.6 432.28c35.44 124.02-53.14 106.3-53.14 141.73 0-35.42-88.58-17.7-53.15-141.72" stroke="#000" fill="none" transform="matrix(-.09 .183 -.155 -.077 367.74 325.77)"/></g><g stroke-width="1pt"><path d="M447.84 249.54c11.42 15.18-8.15 23.42-15.93 21.67-7.77-1.73-21.98-17.53-5.2-26.4-6.2 11.24 7.22 17.4 5.88 23.4 1.34-6 16.1-5.85 15.26-18.66z" fill-rule="evenodd" fill="#006a00"/><path d="M336.6 432.28c35.44 124.02-53.14 106.3-53.14 141.73 0-35.42-88.58-17.7-53.15-141.72" stroke="#000" fill="none" transform="matrix(.2 .044 -.038 .17 397.26 161.25)"/></g><g stroke-width="1pt"><path d="M339.33 114.35c16.32-9.68 22.34 10.7 19.75 18.25-2.6 7.55-19.84 19.94-26.78 2.26 10.46 7.42 18.06-5.26 23.87-3.26-5.8-2-4.03-16.67-16.84-17.25z" fill-rule="evenodd" fill="#006a00"/><path d="M336.6 432.28c35.44 124.02-53.14 106.3-53.14 141.73 0-35.42-88.58-17.7-53.15-141.72" stroke="#000" fill="none" transform="matrix(.066 -.193 .164 .056 246.1 154.92)"/></g><g stroke-width="1pt"><path d="M305.9 364.5c-15.56 10.88-23.1-9-21.08-16.7 2.02-7.74 18.3-21.4 26.54-4.3-11-6.6-17.6 6.62-23.56 5.06 5.95 1.56 5.28 16.33 18.1 15.94z" fill-rule="evenodd" fill="#006a00"/><path d="M336.6 432.28c35.44 124.02-53.14 106.3-53.14 141.73 0-35.42-88.58-17.7-53.15-141.72" stroke="#000" fill="none" transform="matrix(-.05 .197 -.168 -.044 395.8 317)"/></g><g stroke-width="1pt"><path d="M196.06 216.9c-10.44-15.84 9.6-22.84 17.26-20.62 7.66 2.23 20.85 18.88 3.55 26.68 6.9-10.82-6.12-17.8-4.4-23.72-1.72 5.9-16.44 4.84-16.4 17.67z" fill-rule="evenodd" fill="#006a00"/><path d="M336.6 432.28c35.44 124.02-53.14 106.3-53.14 141.73 0-35.42-88.58-17.7-53.15-141.72" stroke="#000" fill="none" transform="matrix(-.196 -.057 .048 -.167 241.05 308.2)"/></g><g stroke="#000"><path d="M193.63 88.25c15.55 4.42 43.27 46.12 53.77 45.8 16.65-.5 83.23-77.57 72.56-88.26-7.4-8.26-67.94 41.18-71.85 44.1-.66-8.6-15.94-51.03-28.3-59.93-14.62-9.3-32.2-4.16-47.82-6.66-7.3-2.84-18.84-14.05-23.78-24.97 8.18-3.54 15.32-2.48 23.3-10.65 5.7-6.64 2.4-46.9.38-51.06-13.3-14.27 5.43-7.33-39.03-9.08C68.6-74.9 56.98-22.88 101.2-1.66 97.74 14.25 86.98 17.9 78.26 19.97c-8.77.1-38.82-.77-55.54 12.5-33.4 24.54-8.93 30.9-15.36 35.8C.2 73.9-10.5 88.07-14.52 96.57c-10.47 5-99.5-5-116.5-1.67-16.42.97-56.47 15.83-73.15 26.65 3.56 14.14 241.5-7.6 249.27-2.5 5.94 3.35-2.7 51.24 2 54.95 1.67 9.06 116.55 5.83 125.6 5.83 7.57-18.86 15.4-81.56 20.93-91.58z" fill-rule="evenodd" transform="matrix(.13 0 0 .204 363.6 187.47)" stroke-width="4.7" fill="#520900"/><path d="M174.9-96.57c1.54 25.46-7.12 3.3-38.37 3.3-60.56-5.03-39.28 99.2-39.28 67.03-26.23-13.7-44.84-100.3 29.6-96.93 23.55 0 44.97 7.86 48.06 26.6z" fill-rule="evenodd" transform="matrix(.154 0 0 .143 359.98 188.33)" stroke-width="5.13"/><path d="M387.98 96.57c0 1.68-.17 7.96-.83 11.66-.45 3.74-1.54 8.08-2.5 10.82-.34 4.46-2.1 5.18-2.5 10-1.54 2.26-2.2 5.94-2.5 9.98 0 4.27.7 7.56.84 11.66.47 3.55 1.6 6.36 1.65 10.82 0 4.36 0 7.55-1.66 10v5.82" transform="matrix(.202 0 0 .204 292.4 181.1)" stroke-width="3.75" fill="none"/><path d="M383.8 76.6c.6 0 1.04 20.12 5.84 24.97 1.04 3.2 4.57 7.34 5.83 10 1.67 2.45 3.98 5.36 8.32 6.65h11.65c4.63 0 7.47.06 10.82-1.66 1.5-.8 2.53-1.85 3.33-3.33m12.5 2.5h.82c-2.33 0-1.1-.1 3.33 1.65 1.73 2.54 3.77 3.63 6.66 5 3 1.47 6.4 1.67 10.84 1.67 4.2-.36 6.74-1.7 9.16-3.33 4.04-1.3 4.8-2.94 5.82-7.5v-11.65c-.48-3.53-1.38-6.38-2.5-9.16-.42-1.25-.83-.7-.83-2.5m34.96 31.65c-.42 0-2.65 2.58-4.16 5-2.57.9-3.24 3.7-4.16 5.82-.67 2.68-1.67 2.86-1.67 6.66-1.68 3.7-2.2 7-2.5 10.83l2.5-10.83c-1.68 3.7-2.2 7-2.5 10.83m-36.63-94.9h-.83c2.26 0 1.1-.07-3.32.82-1.82 2.27-4.8 4.3-7.5 5.82-2.97 1.83-5.36 4-8.32 5l8.32-5c-2.97 1.83-5.36 4-8.32 5m-39.13-14.98h.83c-2.24 0-1.1-.06 3.33.83 2.93 1.4 4.74 2.9 7.5 5 1.28 1.93 3.24 2.3 4.15 5.82 1.57.85 2.12 1.67 2.5 4.16m6.66-37.46h4.17c4.53 0 6.74.68 10.83.83 3.54-.42 4.38-1.74 7.5-2.5m-6.67 104.9c.14.67 1.65 4.27 2.5 5.84 1.5 2.5 3.54 4.9 4.16 8.32.96 2.9 1.52 6.23 1.66 10 .76 3.5 1.26 6.6-.84 9.15-.9 3.3-2.57 5.7-4.16 9.17-1.1 0-.83-.28-.83.84m-29.15-41.63v.83c0-2.24.06-1.1-.83 3.33-1.15 4.02-2.15 7.4-4.17 10-1.1 3.3-2.32 4.5-2.5 9.15.67 1.55.84 3.27.84 5.83m2.5 5v4.17c.9 1.2.55 1.3 1.67 1.67M343 128.2v.84c0-2.32-.26-.93 4.16.84 3.57.63 7.94 1.03 10.83 1.66 2.68 1.3 5.27 3.48 7.5 5 2 1.72 4.82 3.48 7.5 5 3 1.5 4.32 2.82 5.82 5.82.9 1.2.55 1.3 1.67 1.67" transform="matrix(.202 0 0 .204 292.4 181.1)" stroke-width="3.75" fill="none"/><path d="M423.78-16.66c.12-.18 2.47-1.9 5-2.5 1.8-1.35 4.8-.73 6.66 0" transform="matrix(.316 0 0 .204 242.37 181.8)" stroke-width="3" fill="none"/><path d="M445.42-19.15h.83c-2.24 0-1.1.05 3.33-.84 3.48-1.15 7.68-.82 11.66-.82 1.17.4.83.24.83 1.67M444.6-7.5v.84c0-2.33-.1-1.1 1.66 3.33.64 2.96 1.76 7.05.83 9.15-2.2 0-2.87-.27-4.18-.83" transform="matrix(.245 0 0 .204 272.1 181.8)" stroke-width="3.4" fill="none"/><path d="M371.33-24.98c0 3.22-4.1 5.83-9.16 5.83s-9.16-2.6-9.16-5.83 4.1-5.83 9.17-5.83 9.16 2.6 9.16 5.82z" fill-rule="evenodd" transform="matrix(.242 -.035 .024 .115 294.95 200.28)" stroke-width="4.5"/><path d="M371.33-24.98c0 3.22-4.1 5.83-9.16 5.83s-9.16-2.6-9.16-5.83 4.1-5.83 9.17-5.83 9.16 2.6 9.16 5.82z" fill-rule="evenodd" transform="matrix(.175 -.023 .017 .076 315.1 188.72)" stroke-width="6.53"/><path d="M371.33-24.98c0 3.22-4.1 5.83-9.16 5.83s-9.16-2.6-9.16-5.83 4.1-5.83 9.17-5.83 9.16 2.6 9.16 5.82z" fill-rule="evenodd" transform="matrix(.175 -.023 .017 .076 320.4 188.2)" stroke-width="6.53"/><path d="M412.95 113.64c0 2.07-1.86 3.75-4.16 3.75s-4.18-1.7-4.18-3.76 1.87-3.75 4.17-3.75 4.15 1.67 4.15 3.74zm56.62 6.25c0 1.37-1.3 2.5-2.9 2.5-1.62 0-2.93-1.13-2.93-2.5s1.3-2.5 2.92-2.5c1.6 0 2.9 1.1 2.9 2.5z" fill-rule="evenodd" transform="matrix(.202 0 0 .204 292.4 181.1)" stroke-width="3.75"/><path d="M447.1 31.63v.84c0-2.8.2-1.03-4.17 3.33-3.73 1.78-5.17 3.66-6.66 6.66-1.75 3.85-2.35 6.6-2.5 10.82v6.66M419.6 30.8c.6 0 1.5 2.27 2.5 5 1.86 2.2 3.04 5.35 3.34 9.16 0 4.5.78 6.45.83 10.82v3.33m78.27 69.94c0 .48-2.6 1.46-4.16 3.33-3.16.43-5.97.83-10 .83-.6-.9-1.83-1.2-3.32-1.66" transform="matrix(.202 0 0 .204 292.4 181.1)" stroke-width="3.75" fill="none"/></g><g fill-rule="evenodd" stroke="#000" stroke-width="3.75" fill="#fff"><path d="M276.4 36.63l88.26 1.67v11.65s8.33 15 13.32 48.3c5 33.3 10 158.18 10 158.18l21.64 141.54s-13.32 21.65-23.3 19.98c-10-1.66-39.97-13.32-39.97-14.98 0-1.67-1.67-79.93-5-133.22-3.33-53.28-10-81.6-24.97-104.9-20 48.3-21.65 98.25-20 98.25s1.68 39.96 3.34 69.93c1.67 29.98-1.66 71.6-1.66 71.6l-58.28-3.33s1.66-36.63 3.33-64.94c1.67-28.3 6.75-41.62 8.34-73.26 1.74-34.97 4.2-53.32 6.66-109.9 3.23-45.74 14.68-75.26 17.9-103.24.87-7.13-.42-12.5.4-13.32z" transform="matrix(.21 0 0 .133 311.17 212.6)"/><path d="M316.38 166.5s-8.33-13.3-11.66-36.62-3.33-28.3-3.33-28.3m-3.34 131.54l-10 39.96" transform="matrix(.21 0 0 .133 311.17 212.6)"/><path d="M276.4 223.12l11.67 54.95" transform="matrix(.21 0 0 .133 323.7 212.8)"/><path d="M387.98 417.95l-11.66-81.6m-99.9-291.4l88.24 1.67m-46.62 118.22c0-1.67 5-29.97 5-29.97m-38.3-89.92l-8.33 84.93" transform="matrix(.21 0 0 .133 311.17 212.6)"/></g><path d="M349.68 188.16c0 13.8-7.08 24.98-15.82 24.98s-15.82-11.2-15.82-24.98 7.08-24.98 15.82-24.98 15.82 11.2 15.82 24.98z" fill-rule="evenodd" transform="matrix(.337 0 0 .33 143.1 205.98)" stroke="#000" stroke-width="2.5" fill="#ffc600"/><g stroke-width="1pt"><g fill-rule="evenodd" stroke="#000"><path d="M212.6 892.9s53.15-17.7 70.87-17.7c17.7 0 17.7 17.7 19.13 18.2l-1.42 34.94H212.6V892.9z" transform="matrix(.204 0 0 .24 240 90.38)" fill="#00cfe6"/><path d="M265.75 892.9s0-17.7 17.72-17.7c17.7 0 35.43-.5 53.15 0v53.14h-70.87V892.9z" transform="matrix(.204 0 0 -.24 247.22 542)" fill="#00cfe6"/><path d="M212.6 892.9s53.15-17.7 70.87-17.7c17.7 0 17.7 17.7 19.13 18.2l-1.42 34.94H212.6V892.9z" transform="matrix(-.204 0 0 .24 413.14 90.43)" fill="#00cfe6"/><path d="M265.75 892.9s0-17.7 17.72-17.7c17.7 0 35.43-.5 53.15 0v53.14h-70.87V892.9z" transform="matrix(-.204 0 0 -.24 405.92 542.04)" fill="#00cfe6"/><path d="M249.45 875.2s0-17.72-17.72-17.72h53.15l-35.43 17.72z" transform="matrix(-.204 0 0 -.24 395.4 537.77)" fill="#fff"/><path d="M159.45 892.9l106.3 53.16s-36.04 33.3-70.87 35.43c-17.7 0-35.43-35.44-35.43-35.44V892.9z" transform="matrix(-.237 0 0 .24 418.55 90.43)" fill="#00cfe6"/><path d="M249.45 892.9c.7-8.85-2.2-35.42-19.93-35.42h55.36c17.72 0 35.44 17.7 35.44 35.43l-1.42 35.44h-69.45V892.9z" transform="matrix(-.204 0 0 .24 402.6 94.7)" fill="#fff"/><path d="M249.45 875.2s0-17.72-17.72-17.72h53.15l-35.43 17.72z" transform="matrix(.204 0 0 -.24 257.76 537.73)" fill="#fff"/><path d="M159.45 892.9l106.3 53.16s-36.04 33.3-70.87 35.43c-17.7 0-35.43-35.44-35.43-35.44V892.9z" transform="matrix(.237 0 0 .24 234.6 90.37)" fill="#00cfe6"/><path d="M249.45 892.9c.7-8.85-2.2-35.42-19.93-35.42h55.36c17.72 0 35.44 17.7 35.44 35.43l-1.42 35.44h-69.45V892.9z" transform="matrix(.204 0 0 .24 250.54 94.64)" fill="#fff"/><path d="M88.8 891.9c-.1 1 17.6-34.42 53.04-34.42S319 928.34 389.76 928.34c70.98 0 196.65-72.56 230.42-70.86 33.78 1.7 53.52 37.16 53.15 35.43-.37-1.72-17.72 53.16-17.72 53.16 0-17.7-17.7-35.43-35.42-35.43-17.7 0-106.3 70.86-230.42 70.86-123.9 0-212.5-70.87-230.2-70.87-17.72 0-35.44 17.7-35.44 35.43L88.8 891.9z" transform="matrix(.204 0 0 .24 247.2 90.43)" fill="#fff"/></g><path d="M362.46 313.76l-3.16-9.63 3.23-1.48.38 1.14-2.63 1.2.96 2.95 2.47-1.14.37 1.14-2.47 1.14 1.07 3.27 2.74-1.26.4 1.13-3.34 1.53zm-13.54 6.3l-3.15-9.62.6-.27 2.77 8.48 2.2-1 .37 1.13-2.78 1.28zm-4.1 1.93l-3.15-9.64 3-1.38.38 1.14-2.42 1.1.98 3 2.1-.97.38 1.13-2.1.96 1.43 4.38-.58.27zm-36.27.1l2.08-9.92 1.22.36-.03 7.45v1.55c.13-.34.35-.84.64-1.5l2.9-6.47 1.1.32-2.08 9.92-.78-.23 1.74-8.32-3.5 7.8-.74-.22v-8.97l-1.77 8.44-.78-.23zm-.35-10.87l.77.37-1.92 5.46c-.33.95-.66 1.67-1 2.17-.32.5-.72.83-1.2 1-.45.2-.96.14-1.52-.14-.55-.27-.94-.64-1.18-1.12-.24-.47-.33-1.04-.28-1.68.06-.66.26-1.48.6-2.48l1.93-5.46.77.38-1.92 5.45c-.28.8-.45 1.44-.5 1.87-.04.44.02.8.17 1.14.16.33.4.57.73.73.57.28 1.04.27 1.43-.03.4-.3.8-1.04 1.2-2.22l1.92-5.45zm-15.47-6.58l.57.3-2.1 5.42c-.38.94-.72 1.67-1.03 2.17-.32.5-.67.85-1.07 1.06-.4.2-.8.2-1.22-.04-.4-.22-.68-.55-.82-1-.14-.44-.15-.98-.04-1.6.1-.65.36-1.46.75-2.46l2.12-5.4.56.3-2.1 5.4c-.33.83-.53 1.45-.6 1.87-.1.42-.08.8 0 1.1.1.3.26.5.5.64.43.25.8.2 1.16-.1.34-.32.74-1.07 1.2-2.25l2.1-5.4zm-10.27 1.68l.6.2c-.17.48-.26.9-.3 1.25 0 .35.04.67.17.97.12.3.3.5.56.63.2.12.43.16.65.1.22-.04.42-.16.6-.36.18-.2.33-.45.44-.73.1-.3.16-.6.17-.85 0-.26-.05-.52-.18-.77-.08-.16-.28-.45-.6-.87-.32-.42-.52-.77-.6-1.04-.13-.35-.17-.72-.14-1.13.04-.4.14-.82.3-1.25.2-.47.43-.88.7-1.22.3-.34.6-.56.92-.64.33-.08.63-.04.93.12.33.17.57.44.73.8.16.36.22.8.18 1.3-.03.5-.15 1.04-.35 1.6l-.6-.22c.2-.6.3-1.1.23-1.5-.05-.4-.24-.7-.58-.88-.34-.2-.65-.2-.92 0-.26.2-.47.47-.62.86-.13.34-.2.65-.16.92.03.28.23.66.6 1.15.4.48.63.86.74 1.12.15.38.2.8.18 1.26-.03.45-.14.92-.33 1.42-.2.5-.46.94-.76 1.3-.3.37-.63.6-.98.72-.34.1-.67.08-.98-.1-.4-.2-.67-.5-.84-.9-.17-.4-.24-.88-.2-1.46.05-.58.2-1.18.43-1.82zm83.1.1c-.52-1.58-.73-2.93-.63-4 .1-1.1.47-1.8 1.1-2.08.4-.2.85-.14 1.32.13s.92.75 1.34 1.43c.4.7.78 1.5 1.1 2.47.32.98.5 1.9.58 2.75.07.85 0 1.56-.2 2.1-.2.55-.5.9-.9 1.1-.4.2-.86.14-1.34-.15-.47-.28-.92-.76-1.33-1.44s-.76-1.44-1.04-2.3zm.62-.25c.38 1.16.82 2 1.33 2.55.52.53 1 .7 1.43.5.44-.2.7-.7.76-1.52.06-.8-.1-1.82-.5-3.05-.27-.8-.56-1.44-.87-1.97-.32-.53-.64-.9-1-1.1-.33-.22-.65-.26-.94-.13-.43.2-.7.67-.78 1.43-.1.75.1 1.86.56 3.3zm-8.9 9.85l-3.16-9.63 1.98-.9c.4-.2.73-.24 1-.16.25.08.52.3.8.7.26.37.47.82.65 1.35.22.68.3 1.3.26 1.86-.04.56-.26 1-.65 1.33.2.08.38.18.5.3.3.27.6.62.92 1.06l1.64 2.26-.74.34-1.24-1.73-.86-1.13c-.2-.25-.4-.42-.52-.5-.12-.08-.24-.13-.35-.14-.1 0-.2.04-.35.1l-.7.32 1.4 4.28-.58.27zm-1.18-5.65l1.27-.58c.27-.13.46-.28.58-.47.1-.2.16-.44.15-.74 0-.3-.06-.62-.16-.93-.15-.45-.35-.8-.6-1-.25-.24-.54-.27-.87-.12l-1.4.65 1.03 3.18zm-5.58 3.26c-.52-1.6-.73-2.93-.63-4.02.1-1.1.46-1.77 1.1-2.06.4-.2.84-.15 1.3.12s.93.75 1.35 1.44c.42.67.8 1.5 1.1 2.46.32.97.52 1.9.6 2.74.06.85 0 1.56-.2 2.1-.22.56-.52.92-.9 1.1-.42.2-.87.14-1.35-.14-.47-.3-.92-.77-1.33-1.45-.42-.68-.77-1.44-1.05-2.28zm.62-.26c.38 1.16.82 2 1.33 2.55.5.53.98.7 1.4.5.46-.2.7-.7.78-1.52.07-.8-.1-1.8-.5-3.05-.26-.8-.55-1.44-.86-1.97-.33-.53-.66-.9-1-1.1-.34-.22-.66-.26-.95-.13-.42.2-.68.67-.78 1.43-.1.76.1 1.86.57 3.3zm-34.22 10.9l1.2-10.12 2.33.38c.47.08.84.25 1.1.5.27.25.46.6.57 1.06.1.45.14.9.1 1.37-.06.43-.18.83-.37 1.2-.2.35-.45.62-.76.8.34.25.6.6.75 1.07.15.46.2 1 .12 1.58-.05.48-.17.9-.34 1.3-.17.38-.36.67-.57.86-.2.2-.45.32-.74.4-.28.06-.62.06-1.02 0l-2.37-.4zm1.5-5.73l1.36.22c.37.06.63.06.8 0 .22-.05.4-.2.53-.42.15-.2.24-.5.28-.85.04-.34.02-.64-.05-.9-.07-.3-.2-.5-.36-.6-.17-.13-.48-.23-.93-.3l-1.25-.2-.37 3.05zm-.53 4.68l1.54.25c.26.05.45.06.57.05.2-.03.37-.1.5-.2.16-.1.28-.28.4-.5.1-.24.18-.52.22-.85.04-.38.02-.7-.07-1-.08-.3-.23-.53-.43-.68-.2-.15-.5-.25-.88-.32l-1.44-.23-.4 3.48zm6.35 2.3V315.3h2.8c.55 0 .98.1 1.27.28.3.18.52.5.7.97.17.46.26.97.26 1.54 0 .7-.15 1.32-.44 1.82-.3.5-.73.82-1.33.95.23.17.4.34.5.5.25.37.48.83.7 1.37l1.1 2.8h-1.05l-.84-2.14c-.23-.62-.43-1.1-.6-1.4-.15-.34-.3-.57-.4-.7-.13-.13-.26-.22-.4-.27-.08-.03-.24-.05-.45-.05h-.97v4.55h-.83zm.83-5.72h1.8c.37 0 .67-.05.88-.18.22-.13.38-.33.5-.6.1-.3.16-.6.16-.93 0-.5-.1-.9-.33-1.2-.22-.32-.56-.47-1.03-.47h-2v3.38zm6.46 5.45l.87-10.57.9-.18 4.03 9.54-.93.2-1.18-2.9-2.6.54-.22 3.2-.87.17zm1.16-4.5l2.1-.45-1.06-2.65c-.32-.8-.58-1.47-.75-2 0 .67 0 1.33-.06 2l-.24 3.1zm-40.42-5.5l3.66-9.38 1.63.9c.33.17.56.42.68.72.13.3.17.66.13 1.12-.04.46-.14.9-.3 1.33-.16.4-.36.75-.6 1.05s-.5.5-.8.6c.2.3.3.7.28 1.18 0 .48-.13 1-.34 1.54-.17.44-.38.82-.6 1.15-.24.33-.46.56-.67.7-.2.13-.43.2-.66.2-.24 0-.5-.07-.77-.22l-1.65-.9zm2.7-5.13l.93.52c.27.14.47.2.6.2.2-.03.36-.12.5-.3.17-.18.32-.43.45-.76.12-.3.2-.6.2-.87.04-.27 0-.48-.1-.64-.1-.16-.3-.32-.6-.5l-.87-.47-1.1 2.82zm-1.7 4.33l1.1.6c.17.1.3.15.4.16.15.03.3 0 .43-.06.14-.07.28-.2.43-.4.14-.2.28-.45.4-.75.13-.36.2-.68.22-.98.02-.3-.02-.55-.13-.74-.1-.18-.3-.35-.57-.5l-1-.55-1.27 3.22z"/></g><path d="M212.6 432.28v106.3c0 70.87 88.58 106.3 88.58 106.3s88.6-35.43 88.6-106.3v-106.3H212.6z" fill-rule="evenodd" transform="matrix(.407 0 0 .384 201.1 45.18)" stroke="#000" stroke-width="1pt" fill="#00daec"/><path d="M212.6 432.28v106.3c0 8.86 1.38 17.16 3.8 24.9l84.78-42.62v-88.58H212.6z" fill-rule="evenodd" transform="matrix(.407 0 0 .384 201.1 45.18)" stroke="#000" stroke-width="1pt" fill="#fff"/><path d="M212.6 432.28v106.3c0 8.86 1.38 17.16 3.8 24.9l84.78-42.62v-88.58H212.6z" fill-rule="evenodd" transform="matrix(-.407 0 0 .384 446.4 45.18)" stroke="#000" stroke-width="1pt" fill="#fff300"/><g fill-rule="evenodd" transform="matrix(.407 0 0 .384 201.1 45.18)" stroke="#000" stroke-width="1.25"><path d="M244.77 87.42c7.32-5.95 11.16-3.72 17.65 3.1 9.32 9.8 41.32 58.85 46.3 63.02s4.25-6.42 10.36-1.4c3.03 3.74-10.44 17.04-13.74 14.58-6.4-5.02 3.9-5.38-.36-9.64-4.92-5.14-51.2-40.5-60.28-50.57-5.92-6.57-6.3-13.96.07-19.08z" transform="matrix(.64 .237 .142 .702 58.9 338.88)" fill="#923d09"/><rect ry="1.29" rx="2.61" transform="matrix(.756 .655 -.586 .81 0 0)" height="66.05" width="5.21" y="181.35" x="495.52" fill="#af8000"/><path transform="matrix(.83 .556 -.64 .767 0 0)" fill="#b0b0d4" d="M497.3 228.63h29.38v18.87H497.3z"/></g><g stroke="#000" fill-rule="evenodd" transform="matrix(.407 0 0 .384 201.1 45.18)"><path d="M385.1 528.57c4.9-2.1-27.32-35.6-33.77-51.85-6.45-16.24-6.1-16.7-8.62-24.32l-3.14 1.36c.8 4.93 15.87 43.87 30.73 64.15 4.2 5.83.63 16.78 5.36 14.74l9.45-4.07z" stroke-width="1pt" fill="#af8000"/><path d="M341.55 453.55l-25.87 2.48s-4.83 4.1-2.58 12.67c2.26 8.56 8.97 11.9 8.97 11.9l22.67-17.56-3.2-9.5z" stroke-width="1pt" fill="gray"/><rect ry="3.53" rx="3.53" transform="rotate(-18.58)" height="19.43" width="7.06" y="534.62" x="175.71" stroke-width="1pt" fill="gray"/><path d="M239.6 381.52c0 7.32-1.57 13.25-3.52 13.25s-3.54-5.93-3.54-13.25 1.6-13.25 3.54-13.25 3.53 5.93 3.53 13.25z" transform="matrix(.745 -.716 .635 .394 -105.9 523.83)" stroke-width="1pt" fill="#cf0000"/><path d="M239.6 381.52c0 7.32-1.57 13.25-3.52 13.25s-3.54-5.93-3.54-13.25 1.6-13.25 3.54-13.25 3.53 5.93 3.53 13.25z" transform="matrix(-.978 .31 .028 .755 595.47 104.78)" stroke-width="1pt" fill="#cf0000"/><path transform="rotate(-30.8) skewX(-.84)" stroke-width="1.15" fill="#b0b0d4" d="M15.07 596.25h78.87v17.8H15.07z"/></g><path d="M231.36 591.4l8.83-7.07s1.76 8.83 7.06 8.83 8.83-7.65 8.83-7.65 0 7.67 5.87 7.67 10.6-7.66 10.6-7.07c0 .6.6 7.07 5.3 7.07s10.6-6.48 10.6-6.48.58 7.64 5.88 7.05c5.3-.6 7.07-8.24 7.65-7.65.6.6 4.12 7.65 8.25 7.07s10-6.48 10-6.48 1.18 7.05 5.9 7.05 6.47-6.47 6.47-6.47 2.35 5.3 6.47 5.3 10.6-5.9 10.6-5.9" transform="matrix(.39 0 0 .384 211.3 51.72)" stroke="#0072ff" stroke-width="1pt" fill="none"/><path d="M231.95 591.4c3.14-1.37 5.7.2 9.42-7.65 0 4.12 2.94 9.42 8.24 9.42s8.84-7.66 8.84-7.66 0 7.67 5.9 7.67 10.6-7.66 10.6-7.07c0 .6.57 7.07 5.28 7.07s10.6-6.48 10.6-6.48.6 7.64 5.9 7.05c5.3-.6 7.05-8.24 7.64-7.65.6.6 4.12 7.65 8.24 7.07 2.95-.6 10-7.07 10-7.07" transform="matrix(.407 0 0 .384 212.13 55.8)" stroke="#0072ff" stroke-width="1pt" fill="none"/><g fill-rule="evenodd"><path d="M305.54 350.62v18.84h14.72l-5.3-18.84h-9.42z" transform="matrix(.322 0 0 .286 236.64 162.27)" stroke="#000" stroke-width="1pt" fill="#fff"/><path d="M341.35 265.4c-.2.18-7.58 3.72-17.23 3.72s-13.45-1-14.4-1.7c-.94-.66-2.08-2-3.2-2-1.15 0-2.1.84-2.1.84s1.9.84 3.22 1.85c1.33 1.02 1.7 2.87 1.7 2.87l31.25.34s-.2-1.85-.2-2.86 1.14-2.52.95-3.03z"/><path d="M314.08 253.46h.76v15.66h-.76zm10.23-2.02h.77v17.84h-.76zm10.04 3.03h.76v14.65h-.76z"/><path stroke="#000" stroke-width="1.02" fill="#fff" d="M299.07 342.37h18.84v8.83h-18.83z" transform="matrix(.322 0 0 .286 235.3 157.56)"/><path stroke="#000" stroke-width="1.1" fill="#fff" d="M297.9 350.6h21.77v8.84H297.9z" transform="matrix(.322 0 0 .286 235.3 157.56)"/><path stroke="#000" stroke-width="1.16" fill="#fff" d="M296.7 358.86h24.15v8.83H296.7z" transform="matrix(.322 0 0 .286 235.3 157.56)"/><path stroke="#000" stroke-width="1.37" fill="#fff" d="M266.17 334.72H290v12.53h-23.83z" transform="matrix(.322 0 0 .286 235.3 157.56)"/><path stroke="#000" stroke-width="1.48" fill="#fff" d="M264.68 346.4h27.56v12.54h-27.56z" transform="matrix(.322 0 0 .286 235.3 157.56)"/><path stroke="#000" stroke-width="1.55" fill="#fff" d="M263.2 358.1h30.53v12.53H263.2z" transform="matrix(.322 0 0 .286 235.3 157.56)"/><path stroke="#000" stroke-width="1.31" fill="#fff" d="M260.2 368.28h36.5v15.3h-36.5z" transform="matrix(.322 0 0 .286 235.3 157.56)"/><path stroke="#000" stroke-width="1.02" fill="#fff" d="M238.25 342.37H254v10.4h-15.75z" transform="matrix(.322 0 0 .286 235.3 157.56)"/><path stroke="#000" stroke-width="1.09" fill="#fff" d="M237.26 352.1h18.23v10.4h-18.24z" transform="matrix(.322 0 0 .286 235.3 157.56)"/><path stroke="#000" stroke-width="1.15" fill="#fff" d="M236.28 361.8h20.2v10.42h-20.2z" transform="matrix(.322 0 0 .286 235.3 157.56)"/><path stroke="#000" stroke-width=".97" fill="#fff" d="M234.3 370.27h24.15V383H234.3z" transform="matrix(.322 0 0 .286 235.3 157.56)"/><path d="M220 377.5h9.88l10.6-33.36L220 377.5z" stroke="#000" stroke-width="1.02" fill="#fff" transform="matrix(.322 0 0 .286 235.3 157.56)"/><path d="M314.25 253.63l.7.3-9.18 12.66-.7-.32z"/></g><path d="M231.36 591.4l8.83-7.07s1.76 8.83 7.06 8.83 8.83-7.65 8.83-7.65 0 7.67 5.87 7.67 10.6-7.66 10.6-7.07c0 .6.6 7.07 5.3 7.07s10.6-6.48 10.6-6.48.58 7.64 5.88 7.05c5.3-.6 7.07-8.24 7.65-7.65.6.6 4.12 7.65 8.25 7.07s10-6.48 10-6.48 1.18 7.05 5.9 7.05 6.47-6.47 6.47-6.47 2.35 5.3 6.47 5.3 7.06-7.07 7.06-7.07 1.17 6.5 4.12 6.5c2.94 0 6.47-6.5 6.47-6.5s1.18 8.25 4.12 7.66c2.95-.6 4.13-8.24 4.7-7.65.6.6 4.72 7.08 4.13 7.08" transform="matrix(.385 0 0 .384 208 46.98)" stroke="#0072ff" stroke-width="1pt" fill="none"/></g></svg>