<svg xmlns="http://www.w3.org/2000/svg" height="480" width="640"><defs><clipPath id="a"><path fill-opacity=".67" d="M0 0h640v480H0z"/></clipPath></defs><g fill-rule="evenodd" clip-path="url(#a)"><path fill="#0021ad" d="M0 0h640v480H0z"/><path d="M0 0l640 480L639.63.36 0 0z" fill="#1c8a42"/><path d="M428.33 255.1a109.9 109.9 0 1 1-219.77 0 109.9 109.9 0 1 1 219.77 0z" fill="#ffc639"/><path d="M250.12 206.06c7.52 10.32 18.9 27.6 28.07 23.1 7.13.02 10.83.53 11.8 5.28 16.86 2.87 45.2-4.24 62.83-27.2 0 0 1.5.2.97-8.54.1-3.8 5.2-3.04 5.32-1.8.72 1.88.6 3.3 1.54 3.34 2.18-.73 5.15-5.6 7.63-8.68.68-1.36.3-2.8.46-4.5 1.3-3.24 4.58-2.53 5.28-.85.62 1.1.63 1.94 1.25 3.03 3.3 2.2 9.3.15 9.78.15.58-2.7 2.33-2.45 2.33-2.45 2.22-.5 1.35-.3 2.8.46-1.28 14.6 2.88 15.24 2.53 22.74.15 8.36-2.53 10.73-2.53 13.93.85 3.9 13.2 4.03 8.85 7.33-3.82 2.04.02 5.85-5.73 7.33-16.7 8.48-19.9 15.75-19.9 15.75s-4.2 7.92-4.66 7.92c-2.8 5.3-6.34 2.4-8.3 4.98-1 3.24-2.1 10.4-.13 14.14.98 5.12-.12 7.92-1.36 13.04-1.1 10.7-5.34 12.3-5.83 16.07-1.96 4 .42 22.84-1.45 22.84-12.44.25-21.97-2.38-26.9-3.36 4.8-20.64 2.95-38.8 2.95-40.66-1.23-14.78-22.14-11.18-25.34-13.15-2.64-.57-4.3-2.73-5.25-3.66-2.95-.3-4.05-1-7-1.3-1.48.73-.6 1.5-3.88 2.5-8.34 1-12.02-7.26-12.02-7.26.4-2.8-18.74.57-29.15-1.85-4.27 2.38-6.13 9.42-9.63 10.26-.1 2.17-5.75-1.8-6.9-3.95-.24-6.24 5.45-9 5.45-9 4.5-3.18 7.2-3.7 9.36-5.9 1.1-5.42.54-9.44 2.85-13.53 1.96-3.12 4.86-1.66 6.82-3.06 2.1-1.4 3-10.54 1.06-13.04 0 0-8.43-7.62-8.9-8.08-2.74-7.88 3.2-12.95 4.92-12.38z" fill="#1c8a42"/><path d="M579.5 72.57c-2.83-11.23-28.24-35.43-47.34-50.83-4.56-3.1-7.53-1.25-6.94 3.17 2.38 3.98 4.16 8.34 6.54 12.3.66 2.65 1.92 4.5 2.58 7.14 0 0 .2 4.56.6 4.96 5.94 6.54 6.74 12.1 6.74 12.1 3.43 6.6 6.47 11.43 12.5 16.85 6.73 4.23 1.77 17.38 1.97 24.38 0 4.43-3.17 3.9-5.95 3.37-21.87-20.1-43.55-20.15-62.65-25.97-7.47-.8-7.6 2.78-5.15 4.76 13.35 14.26 25.9 23.98 42.43 32.1 2.77 1.73 5.54 3.44 8.32 5.16l9.52 7.93c7.33 4.75 7.93 9.1 7.93 9.5.2 8.93-4.56 15.87-5.95 18.64-2.5 9.47-7.53 11.1-7.53 11.1-40.85 27.56-62.26 34.7-128.48 26.18-1-.53-7.34.52 0 3.17 16.85 5.6 58.25 14.6 98.3-4.36 9.62-6.74 16.05-4.53 23-8.56 11.45-7.06 27.8-15.84 30.76-16.83 8.92-4.76 33.9-10.1 39.65-14.87 6.6-.53 13.46-1.4 13.92-7.08 2.18-1.4 5.35-.38 7.7-5 5.24-.92 4.36-2.8 4.36-2.8-1.32-3.7-6.2-5.2-9.72-7.92-5.14-1.72-8.7-2.25-12.48-.4l-3.57 1.6s-5.55-.8-5.55-1.2c-12.33-.68-11.13-41.56-15.5-58.6z" fill="#ffc639"/><path d="M588.64 72.54a3.1 1.94 15.95 1 1-5.92-1.86 3.1 1.94 15.95 1 1 5.92 1.86z" fill="#1c8a42"/><path fill="#fff" d="M80.83 413.7l-13.98-13.08-14.14 12.9 1.52-19.07-18.9-3.02 15.86-10.72-9.43-16.65 18.27 5.73L67.17 352l6.9 17.87 18.36-5.5-9.65 16.55 15.73 10.9-18.94 2.8m95.82-92.3l-11-10.3-11.15 10.15 1.2-15.03-14.9-2.38 12.5-8.44-7.43-13.12 14.4 4.5 5.62-13.98 5.44 14.06 14.45-4.32-7.6 13.02 12.4 8.6-14.92 2.2m15.4 251.18l-18.4-9.28-7.37 19.26-6.44-19.58-18.82 8.4 9.28-18.38-19.25-7.36 19.57-6.46-8.42-18.8 18.4 9.27 7.37-19.26 6.44 19.58 18.82-8.42-9.28 18.4 19.25 7.36-19.58 6.45m92.5-119.7l-13.94-.4-6.7 12.22-6.62-12.28-13.93.28 7.33-11.85-7.23-11.93 13.94.4 6.7-12.2 6.6 12.27 13.95-.3-7.33 11.86m-80.93 49.92l-11.9-7.92-11.55 8.34 4.07-13.44-11.73-8.13 14.38-.38 4.3-13.38 4.84 13.2 14.4-.13-11.42 8.56"/></g></svg>