<svg xmlns="http://www.w3.org/2000/svg" height="480" width="640" version="1"><g fill-rule="evenodd" stroke-width="1pt"><path fill="#ffe800" d="M0 0h640v480H0z"/><path fill="#00148e" d="M0 240h640v240H0z"/><path fill="#da0010" d="M0 360h640v120H0z"/></g><g fill-rule="evenodd"><path d="M269.55 290.83l-72.42 76.5-1.28-1.65 72.42-76.5 1.28 1.65zm50.45 12.5l-94.77 99.9-1.67-1.56 94.78-99.9 1.66 1.56z"/><path d="M478.35 60.24v88.58l17.72 88.58 17.7-88.58V60.24h-35.42z" transform="matrix(-.1 -.1 -.1 .1 265 429.6)" stroke="#000" stroke-width="4.1" fill="gray"/><path d="M478.35 60.24v88.58l17.72 88.58 17.7-88.58V60.24h-35.42z" transform="matrix(-.1 -.1 -.1 .1 240.6 390.5)" stroke="#000" stroke-width="4.1" fill="gray"/></g><path d="M301.18 272.84s-17.72 336.6 53.15 336.6 106.3-35.42 106.3-35.42L459.77 389l-158.6-116.16z" fill-rule="evenodd" transform="matrix(.5 0 0 .6 72.4 -59.8)" stroke="#000" stroke-width="1pt" fill="#ffdf00"/><path d="M344.46 304.2c0 17.72-7.85 269.82 27.6 269.82s88.57-17.72 88.57-17.72l-.86-167.3-115.3-84.8z" fill-rule="evenodd" transform="matrix(.5 0 0 .6 72.4 -59.8)" stroke="#000" stroke-width="1pt" fill="#0000c4"/><path d="M367.52 321.16c0 17.72 4.53 217.42 39.96 217.42h53.15l-.86-149.6-92.25-67.82z" fill-rule="evenodd" transform="matrix(.5 0 0 .6 72.4 -59.8)" stroke="#000" stroke-width="1pt" fill="#e10000"/><path d="M206.2 116.02l72.42 76.48 1.28-1.64-72.42-76.48-1.28 1.64z" fill-rule="evenodd"/><path d="M301.18 272.84s-35.43 336.6 70.87 336.6c88.58 0 88.58-53.14 106.3-53.14l-17.72-124.02-159.45-159.44z" fill-rule="evenodd" stroke="#000" stroke-width="1pt" fill="#ffdf00" transform="matrix(.6 0 0 .6 9.6 -10.2)"/><g stroke="#000"><path d="M269.6 155.24c1.12 0 28.3-94.02 118.93-147.25" transform="matrix(.4 0 -.1 .3 135.1 147.4)" stroke-width="2.31" fill="none"/><path d="M421.37-20.33c0 18.14-4.57 31.72-11.33 45.3-5.62-18.1-9.06-27.16-9.06-45.3s6.83-35.1 12.46-48.7c2.23 12.46 7.93 30.57 7.93 48.7z" fill-rule="evenodd" transform="matrix(.1 -.2 .3 .1 175.9 257.4)" stroke-width="1pt" fill="#005b00"/><path d="M454.22-169.28c0 4.07-3.8 7.36-8.5 7.36s-8.5-3.3-8.5-7.36 3.8-7.36 8.5-7.36 8.5 3.3 8.5 7.36z" fill-rule="evenodd" transform="matrix(.2 -.1 .1 .2 177.6 256.7)" stroke-width="1pt" fill="red"/><path d="M421.37-20.33c0 18.14-4.57 31.72-11.33 45.3-5.62-18.1-9.06-27.16-9.06-45.3s6.83-35.1 12.46-48.7c2.23 12.46 7.93 30.57 7.93 48.7z" fill-rule="evenodd" transform="matrix(.2 .1 -.1 .3 181 96.4)" stroke-width="1pt" fill="#005b00"/><path d="M421.37-20.33c0 18.14-4.57 31.72-11.33 45.3-5.62-18.1-9.06-27.16-9.06-45.3s6.83-35.1 12.46-48.7c2.23 12.46 7.93 30.57 7.93 48.7z" fill-rule="evenodd" transform="matrix(.2 0 0 .3 179.3 159.3)" stroke-width="1pt" fill="#005b00"/><path d="M421.37-20.33c0 18.14-4.57 31.72-11.33 45.3-5.62-18.1-9.06-27.16-9.06-45.3s6.83-35.1 12.46-48.7c2.23 12.46 7.93 30.57 7.93 48.7z" fill-rule="evenodd" transform="matrix(.1 .3 -.2 .2 228 45.5)" stroke-width="1pt" fill="#005b00"/><path d="M421.37-20.33c0 18.14-4.57 31.72-11.33 45.3-5.62-18.1-9.06-27.16-9.06-45.3s6.83-35.1 12.46-48.7c2.23 12.46 7.93 30.57 7.93 48.7z" fill-rule="evenodd" transform="matrix(.2 -.2 .2 .2 150.3 241.1)" stroke-width="1pt" fill="#005b00"/><path d="M421.37-20.33c0 18.14-4.57 31.72-11.33 45.3-5.62-18.1-9.06-27.16-9.06-45.3s6.83-35.1 12.46-48.7c2.23 12.46 7.93 30.57 7.93 48.7z" fill-rule="evenodd" transform="matrix(.2 -.2 .3 .2 135.6 282.1)" stroke-width="1pt" fill="#005b00"/><path d="M421.37-20.33c0 18.14-4.57 31.72-11.33 45.3-5.62-18.1-9.06-27.16-9.06-45.3s6.83-35.1 12.46-48.7c2.23 12.46 7.93 30.57 7.93 48.7z" fill-rule="evenodd" transform="matrix(.3 .1 -.2 .3 130.8 147.7)" stroke-width="1pt" fill="#005b00"/><path d="M421.37-20.33c0 18.14-4.57 31.72-11.33 45.3-5.62-18.1-9.06-27.16-9.06-45.3s6.83-35.1 12.46-48.7c2.23 12.46 7.93 30.57 7.93 48.7z" fill-rule="evenodd" transform="matrix(.1 .2 -.3 .2 178.5 103.3)" stroke-width="1pt" fill="#005b00"/><path d="M421.37-20.33c0 18.14-4.57 31.72-11.33 45.3-5.62-18.1-9.06-27.16-9.06-45.3s6.83-35.1 12.46-48.7c2.23 12.46 7.93 30.57 7.93 48.7z" fill-rule="evenodd" transform="matrix(.1 .1 -.1 .2 250.7 102.6)" stroke-width="1pt" fill="#005b00"/><path d="M421.37-20.33c0 18.14-4.57 31.72-11.33 45.3-5.62-18.1-9.06-27.16-9.06-45.3s6.83-35.1 12.46-48.7c2.23 12.46 7.93 30.57 7.93 48.7z" fill-rule="evenodd" transform="matrix(.1 0 -.1 .2 238.1 136.4)" stroke-width="1pt" fill="#005b00"/><path d="M421.37-20.33c0 18.14-4.57 31.72-11.33 45.3-5.62-18.1-9.06-27.16-9.06-45.3s6.83-35.1 12.46-48.7c2.23 12.46 7.93 30.57 7.93 48.7z" fill-rule="evenodd" transform="matrix(0 .1 -.1 .1 287.4 81.1)" stroke-width="1pt" fill="#005b00"/><path d="M421.37-20.33c0 18.14-4.57 31.72-11.33 45.3-5.62-18.1-9.06-27.16-9.06-45.3s6.83-35.1 12.46-48.7c2.23 12.46 7.93 30.57 7.93 48.7z" fill-rule="evenodd" transform="matrix(.1 .1 -.3 .1 220.7 115.6)" stroke-width="1pt" fill="#005b00"/><path d="M421.37-20.33c0 18.14-4.57 31.72-11.33 45.3-5.62-18.1-9.06-27.16-9.06-45.3s6.83-35.1 12.46-48.7c2.23 12.46 7.93 30.57 7.93 48.7z" fill-rule="evenodd" transform="matrix(.1 .2 -.3 .2 207 70.1)" stroke-width="1pt" fill="#005b00"/><path d="M269.6 155.24c1.12 0 28.3-94.02 118.93-147.25" transform="matrix(.3 -.2 .1 .3 111.8 227.8)" stroke-width="2.37" fill="none"/><path d="M454.22-169.28c0 4.07-3.8 7.36-8.5 7.36s-8.5-3.3-8.5-7.36 3.8-7.36 8.5-7.36 8.5 3.3 8.5 7.36z" fill-rule="evenodd" transform="matrix(.2 -.1 .1 .2 200.3 224.6)" stroke-width="1pt" fill="red"/><path d="M454.22-169.28c0 4.07-3.8 7.36-8.5 7.36s-8.5-3.3-8.5-7.36 3.8-7.36 8.5-7.36 8.5 3.3 8.5 7.36z" fill-rule="evenodd" transform="matrix(.2 -.1 .1 .2 211.1 218.3)" stroke-width="1pt" fill="red"/><path d="M454.22-169.28c0 4.07-3.8 7.36-8.5 7.36s-8.5-3.3-8.5-7.36 3.8-7.36 8.5-7.36 8.5 3.3 8.5 7.36z" fill-rule="evenodd" transform="matrix(.2 -.1 .1 .1 166.8 232.7)" stroke-width="1pt" fill="red"/><path d="M454.22-169.28c0 4.07-3.8 7.36-8.5 7.36s-8.5-3.3-8.5-7.36 3.8-7.36 8.5-7.36 8.5 3.3 8.5 7.36z" fill-rule="evenodd" transform="matrix(.2 -.1 .1 .1 169.9 231.3)" stroke-width="1pt" fill="red"/><path d="M454.22-169.28c0 4.07-3.8 7.36-8.5 7.36s-8.5-3.3-8.5-7.36 3.8-7.36 8.5-7.36 8.5 3.3 8.5 7.36z" fill-rule="evenodd" transform="matrix(.2 -.1 .1 .1 168.1 234.3)" stroke-width="1pt" fill="red"/><path d="M252.65 167.25c.4.82-.03 1.86-.97 2.32s-2.03.2-2.43-.62.02-1.85.96-2.32 2.04-.2 2.45.62z" fill-rule="evenodd" stroke-width=".22361pt" fill="red"/><path d="M254.94 164.87c.4.82-.03 1.86-.97 2.32s-2.03.18-2.43-.63.02-1.85.96-2.32 2.03-.2 2.44.62z" fill-rule="evenodd" stroke-width=".22361pt" fill="red"/><path d="M255.52 166.02c.4.82-.03 1.85-.97 2.32s-2.03.2-2.43-.62.02-1.85.96-2.32 2.03-.2 2.44.62z" fill-rule="evenodd" stroke-width=".22361pt" fill="red"/></g><path d="M336.6 308.27c0 17.72-35.42 212.6 53.16 265.75 35.43 17.72 88.58-17.72 88.58 0l-17.7-141.74-124.03-124z" fill-rule="evenodd" transform="matrix(.6 0 0 .6 9.6 -10.2)" stroke="#000" stroke-width="1pt" fill="#0000c4"/><path d="M372.05 343.7c0 17.72-17.72 159.45 35.43 194.88C442.92 574 531.5 564.4 531.5 564.4l-70.87-132.12-88.58-88.58z" fill-rule="evenodd" stroke="#000" stroke-width="1pt" fill="#e10000" transform="matrix(.6 0 0 .6 9.6 -10.2)"/><path d="M183.85 158.08l94.78 99.9 1.66-1.56-94.8-99.9-1.65 1.56z" fill-rule="evenodd"/><path d="M460.63 184.25l17.72 35.43v17.72c-.87-1.3 0 17.72-17.72 17.72s-17.72-35.44-17.72-35.44-17.7 35.44-17.7 70.87 17.7 53.15 17.7 53.15-2.6-36.7 17.73-35.43c20.33 1.27 17.72 17.7 17.72 17.7v35.44h17.7V219.7l17.73-35.43-27.14-53.15-26 53.15z" fill-rule="evenodd" transform="matrix(.1 -.1 .1 .1 86.3 192.2)" stroke="#000" stroke-width="1pt" fill="#cececc"/><path d="M557.82 95.67l-26.32 70.86 17.7 53.15L513.8 202l35.44 53.14v35.43h17.7v-35.43l35.44-53.15-35.43 17.72 17.72-53.16-26.83-70.87z" fill-rule="evenodd" transform="matrix(.1 -.2 .1 .1 114 183.8)" stroke="#000" stroke-width="1pt" fill="#cececc"/><path d="M422.53 136.96c0 2.07-1.96 3.75-4.37 3.75-2.4 0-4.37-1.67-4.37-3.74s1.95-3.75 4.36-3.75c2.4 0 4.37 1.7 4.37 3.76zm-6.24 7.9c0 35.8 20.9 187.82 22.57 191.57.14 4.44-4.72 6.38-7.08.83-6.56-17.34-20.75-159.9-21.34-193.22-.25-13.73 3.76-14.8 8.32-14.57 3.76.2 8.33 3.73 8.33 7.9 0 5-5.82 8.75-10.8 7.5z" fill-rule="evenodd" transform="matrix(.4 0 0 .3 43.8 69.8)" stroke="#000" stroke-width="1pt" fill="#e10000"/><path d="M422.53 136.96c0 2.07-1.96 3.75-4.37 3.75-2.4 0-4.37-1.67-4.37-3.74s1.95-3.75 4.36-3.75c2.4 0 4.37 1.7 4.37 3.76zm-6.24 7.9c31.47 61.42 48.7 166.78 50.37 170.53.14 4.43-4.72 6.37-7.07.82-2.48-3.3-12.67-100.18-49.14-172.18-.25-13.73 3.76-14.8 8.32-14.57 3.76.2 8.33 3.73 8.33 7.9 0 5-5.82 8.75-10.82 7.5z" fill-rule="evenodd" transform="matrix(.4 .1 -.1 .3 76 38.2)" stroke="#000" stroke-width="1pt" fill="#0000c4"/><path d="M186.65 151.54c0 1.03-.97 1.87-2.18 1.87-1.2 0-2.2-.83-2.2-1.86s1-1.87 2.2-1.87c1.2 0 2.18.84 2.18 1.87zm-3.12 3.96c0 17.9 10.46 93.9 11.3 95.78.06 2.22-2.37 3.2-3.54.4-3.3-8.66-10.4-79.94-10.68-96.6-.12-6.87 1.88-7.4 4.16-7.28 1.88.1 4.16 1.86 4.16 3.95 0 2.5-2.9 4.37-5.4 3.75z" fill-rule="evenodd" stroke="#000" stroke-width=".5pt" fill="#e10000"/><path d="M422.53 136.96c0 2.07-1.96 3.75-4.37 3.75-2.4 0-4.37-1.67-4.37-3.74s1.95-3.75 4.36-3.75c2.4 0 4.37 1.7 4.37 3.76zm-6.24 7.9c31.47 61.42 48.7 166.78 50.37 170.53.14 4.43-4.72 6.37-7.07.82-2.48-3.3-12.67-100.18-49.14-172.18-.25-13.73 3.76-14.8 8.32-14.57 3.76.2 8.33 3.73 8.33 7.9 0 5-5.82 8.75-10.82 7.5z" fill-rule="evenodd" transform="matrix(.5 .1 -.2 .5 16.7 31.6)" stroke="#000" stroke-width="1pt" fill="#0000c4"/><g fill-rule="evenodd"><path d="M370.45 290.83l72.43 76.5 1.27-1.65-72.42-76.5-1.28 1.65zM320 303.33l94.78 99.9 1.66-1.56-94.78-99.9-1.66 1.56z"/><path d="M478.35 60.24v88.58l17.72 88.58 17.7-88.58V60.24h-35.42z" transform="matrix(.1 -.1 .1 .1 375 429.6)" stroke="#000" stroke-width="4.1" fill="gray"/><path d="M478.35 60.24v88.58l17.72 88.58 17.7-88.58V60.24h-35.42z" transform="matrix(.1 -.1 .1 .1 399.4 390.5)" stroke="#000" stroke-width="4.1" fill="gray"/></g><g fill-rule="evenodd" stroke-width="1pt"><path d="M301.18 272.84s-17.72 336.6 53.15 336.6 106.3-35.42 106.3-35.42L459.77 389l-158.6-116.16z" transform="matrix(-.5 0 0 .6 567.6 -59.8)" stroke="#000" fill="#ffdf00"/><path d="M344.46 304.2c0 17.72-7.85 269.82 27.6 269.82s88.57-17.72 88.57-17.72l-.86-167.3-115.3-84.8z" transform="matrix(-.5 0 0 .6 567.6 -59.8)" stroke="#000" fill="#0000c4"/><path d="M367.52 321.16c0 17.72 4.53 217.42 39.96 217.42h53.15l-.86-149.6-92.25-67.82z" transform="matrix(-.5 0 0 .6 567.6 -59.8)" stroke="#000" fill="#e10000"/><path d="M433.8 116.02l-72.4 76.48-1.28-1.64 72.42-76.48 1.27 1.64z"/><g stroke="#000" fill="#005b00"><path d="M428.17-16.93s81.56 90.62 111 154.05c29.46 63.43 54.38 156.32 54.38 156.32s2.27-86.08-36.25-163.1C505.2 32.9 425.9-12.4 428.17-16.94z" transform="matrix(.2 -.1 .1 .3 309.5 211)"/><path d="M428.17-16.93s81.56 90.62 111 154.05c29.46 63.43 54.38 156.32 54.38 156.32s2.27-86.08-36.25-163.1C505.2 32.9 425.9-12.4 428.17-16.94z" transform="matrix(.2 -.1 .1 .4 291.5 182.6)"/><path d="M428.17-16.93s81.56 90.62 111 154.05c29.46 63.43 54.38 156.32 54.38 156.32s2.27-86.08-36.25-163.1C505.2 32.9 425.9-12.4 428.17-16.94z" transform="matrix(.2 .1 0 .4 296.5 69.4)"/><path d="M428.17-16.93s81.56 90.62 111 154.05c29.46 63.43 54.38 156.32 54.38 156.32s2.27-86.08-36.25-163.1C505.2 32.9 425.9-12.4 428.17-16.94z" transform="matrix(.3 0 0 .4 274.4 114.9)"/><path d="M428.17-16.93s81.56 90.62 111 154.05c29.46 63.43 54.38 156.32 54.38 156.32s2.27-86.08-36.25-163.1C505.2 32.9 425.9-12.4 428.17-16.94z" transform="matrix(.2 .2 0 .3 330 67)"/><path d="M428.17-16.93s81.56 90.62 111 154.05c29.46 63.43 54.38 156.32 54.38 156.32s2.27-86.08-36.25-163.1C505.2 32.9 425.9-12.4 428.17-16.94z" transform="matrix(.2 0 0 .4 280.6 141.9)"/><path d="M428.17-16.93s81.56 90.62 111 154.05c29.46 63.43 54.38 156.32 54.38 156.32s2.27-86.08-36.25-163.1C505.2 32.9 425.9-12.4 428.17-16.94z" transform="matrix(.2 -.1 .1 .4 290.1 196.8)"/><path d="M428.17-16.93s81.56 90.62 111 154.05c29.46 63.43 54.38 156.32 54.38 156.32s2.27-86.08-36.25-163.1C505.2 32.9 425.9-12.4 428.17-16.94z" transform="matrix(.2 0 .1 .4 292.7 166.8)"/><path d="M428.17-16.93s81.56 90.62 111 154.05c29.46 63.43 54.38 156.32 54.38 156.32s2.27-86.08-36.25-163.1C505.2 32.9 425.9-12.4 428.17-16.94z" transform="matrix(.2 .1 -.1 .4 305.1 65.5)"/><path d="M428.17-16.93s81.56 90.62 111 154.05c29.46 63.43 54.38 156.32 54.38 156.32s2.27-86.08-36.25-163.1C505.2 32.9 425.9-12.4 428.17-16.94z" transform="matrix(.2 .1 0 .4 278.9 97.7)"/><path d="M428.17-16.93s81.56 90.62 111 154.05c29.46 63.43 54.38 156.32 54.38 156.32s2.27-86.08-36.25-163.1C505.2 32.9 425.9-12.4 428.17-16.94z" transform="matrix(.2 .2 -.1 .3 339 70)"/><path d="M428.17-16.93s81.56 90.62 111 154.05c29.46 63.43 54.38 156.32 54.38 156.32s2.27-86.08-36.25-163.1C505.2 32.9 425.9-12.4 428.17-16.94z" transform="matrix(.2 0 0 .4 276.4 128)"/></g><path d="M301.18 272.84s-35.43 336.6 70.87 336.6c88.58 0 88.58-53.14 106.3-53.14l-17.72-124.02-159.45-159.44z" transform="matrix(-.6 0 0 .6 630.4 -10.2)" stroke="#000" fill="#ffdf00"/><path d="M336.6 308.27c0 17.72-35.42 212.6 53.16 265.75 35.43 17.72 88.58-17.72 88.58 0l-17.7-141.74-124.03-124z" transform="matrix(-.6 0 0 .6 630.4 -10.2)" stroke="#000" fill="#0000c4"/><path d="M372.05 343.7c0 17.72-17.72 159.45 35.43 194.88C442.92 574 531.5 564.4 531.5 564.4l-70.87-132.12-88.58-88.58z" transform="matrix(-.6 0 0 .6 630.4 -10.2)" stroke="#000" fill="#e10000"/><path d="M456.17 158.08l-94.77 99.9-1.66-1.56 94.77-99.9 1.67 1.56z"/><path d="M460.63 184.25l17.72 35.43v17.72c-.87-1.3 0 17.72-17.72 17.72s-17.72-35.44-17.72-35.44-17.7 35.44-17.7 70.87 17.7 53.15 17.7 53.15-2.6-36.7 17.73-35.43c20.33 1.27 17.72 17.7 17.72 17.7v35.44h17.7V219.7l17.73-35.43-27.14-53.15-26 53.15z" transform="matrix(-.1 -.1 -.1 .1 553.7 192.2)" stroke="#000" fill="#cececc"/><path d="M557.82 95.67l-26.32 70.86 17.7 53.15L513.8 202l35.44 53.14v35.43h17.7v-35.43l35.44-53.15-35.43 17.72 17.72-53.16-26.83-70.87z" transform="matrix(-.1 -.2 -.1 .1 526 183.8)" stroke="#000" fill="#cececc"/><path d="M422.53 136.96c0 2.07-1.96 3.75-4.37 3.75-2.4 0-4.37-1.67-4.37-3.74s1.95-3.75 4.36-3.75c2.4 0 4.37 1.7 4.37 3.76zm-6.24 7.9c0 35.8 20.9 187.82 22.57 191.57.14 4.44-4.72 6.38-7.08.83-6.56-17.34-20.75-159.9-21.34-193.22-.25-13.73 3.76-14.8 8.32-14.57 3.76.2 8.33 3.73 8.33 7.9 0 5-5.82 8.75-10.8 7.5z" transform="matrix(-.4 0 0 .3 596.3 69.8)" stroke="#000" fill="#e10000"/><path d="M422.53 136.96c0 2.07-1.96 3.75-4.37 3.75-2.4 0-4.37-1.67-4.37-3.74s1.95-3.75 4.36-3.75c2.4 0 4.37 1.7 4.37 3.76zm-6.24 7.9c31.47 61.42 48.7 166.78 50.37 170.53.14 4.43-4.72 6.37-7.07.82-2.48-3.3-12.67-100.18-49.14-172.18-.25-13.73 3.76-14.8 8.32-14.57 3.76.2 8.33 3.73 8.33 7.9 0 5-5.82 8.75-10.82 7.5z" transform="matrix(-.4 .1 .1 .3 564 38.2)" stroke="#000" fill="#0000c4"/><path d="M453.35 151.54c0 1.03.97 1.87 2.18 1.87 1.2 0 2.2-.83 2.2-1.86s-1-1.87-2.2-1.87c-1.2 0-2.18.84-2.18 1.87zm3.12 3.96c0 17.9-10.46 93.9-11.3 95.78-.06 2.22 2.37 3.2 3.54.4 3.3-8.66 10.4-79.94 10.68-96.6.12-6.87-1.88-7.4-4.16-7.28-1.88.1-4.16 1.86-4.16 3.95 0 2.5 2.9 4.37 5.4 3.75z" stroke="#000" fill="#e10000" stroke-width=".5pt"/><path d="M422.53 136.96c0 2.07-1.96 3.75-4.37 3.75-2.4 0-4.37-1.67-4.37-3.74s1.95-3.75 4.36-3.75c2.4 0 4.37 1.7 4.37 3.76zm-6.24 7.9c31.47 61.42 48.7 166.78 50.37 170.53.14 4.43-4.72 6.37-7.07.82-2.48-3.3-12.67-100.18-49.14-172.18-.25-13.73 3.76-14.8 8.32-14.57 3.76.2 8.33 3.73 8.33 7.9 0 5-5.82 8.75-10.82 7.5z" transform="matrix(-.5 .1 .2 .5 623.3 31.6)" stroke="#000" fill="#0000c4"/></g><g fill-rule="evenodd" stroke="#000" stroke-width="1pt"><path d="M478.35 698.03c17.72 10.65 37.1 8.27 53.15 0V556.3h-35.43c17.7 53.15 17.7 106.3-17.72 141.73z" fill="#e10000" transform="matrix(.6 0 0 .6 9.6 -10.2)"/><path d="M513.78 609.45c0 88.58-42.47 108.27-42.47 125.98 17.73 0 29.48-8.25 42.48-19.68 17.72-17.72 19.43-107.68 17.72-106.3h-17.72z" transform="matrix(.3 0 0 .7 123.5 -89.9)" fill="#0000c4"/><path d="M478.35 609.45c-.8 51.77-44.8 99.64-36.5 110.24 9.48 9.47 36.5-21.66 71.93-3.95 17.72-17.7 19.43-107.68 17.72-106.3h-53.15z" transform="matrix(.3 0 0 .7 123.5 -89.9)" fill="#0000c4"/><path d="M513.78 609.45c0 88.58-40.7 94.47-40.7 118.1 17.72 0 40.6-12.92 40.7-11.8 17.72-17.72 19.43-107.68 17.72-106.3h-17.72z" transform="matrix(.3 0 0 .5 112.5 51)" fill="#ffdf00"/><path d="M478.35 609.45c-.8 51.77-43.73 95.7-35.43 106.3 9.47 9.47 35.43-17.72 70.86 0 17.72-17.72 19.43-107.68 17.72-106.3h-53.15z" transform="matrix(.3 0 0 .5 112.5 51)" fill="#ffdf00"/><path d="M478.35 698.03c17.72 10.65 37.1 8.25 53.15 0V556.3h-35.43c17.7 53.15 17.7 106.3-17.72 141.72z" transform="matrix(-.6 0 0 .6 630.4 -10.2)" fill="#e10000"/><path d="M513.78 609.45c0 88.58-42.47 108.27-42.47 125.98 17.73 0 29.48-8.25 42.48-19.68 17.72-17.72 19.43-107.68 17.72-106.3h-17.72z" transform="matrix(-.3 0 0 .7 516.5 -89.9)" fill="#0000c4"/><path d="M478.35 609.45c-.8 51.77-44.8 99.64-36.5 110.24 9.48 9.47 36.5-21.66 71.93-3.95 17.72-17.7 19.43-107.68 17.72-106.3h-53.15z" transform="matrix(-.3 0 0 .7 516.5 -89.9)" fill="#0000c4"/><path d="M513.78 609.45c0 88.58-40.7 94.47-40.7 118.1 17.72 0 40.6-12.92 40.7-11.8 17.72-17.72 19.43-107.68 17.72-106.3h-17.72z" transform="matrix(-.3 0 0 .5 527.5 51)" fill="#ffdf00"/><path d="M478.35 609.45c-.8 51.77-43.73 95.7-35.43 106.3 9.47 9.47 35.43-17.72 70.86 0 17.72-17.72 19.43-107.68 17.72-106.3h-53.15z" transform="matrix(-.3 0 0 .5 527.5 51)" fill="#ffdf00"/></g><g stroke="#000" fill-rule="evenodd"><path d="M198.56 77.95l-89.68 35.44 89.68 35.42 44.84-17.72 22.42 17.72 22.42 35.43 22.42-35.43 22.4-17.72h1201.9V95.67H333.07l-22.4-17.72c0-17.7 4.7-35.43 22.4-35.43h89.7c0-17.72-44.85-53.15-134.52-53.15-89.68 0-134.5 35.43-134.5 53.15h89.66c17.72 0 22.42 17.7 22.42 35.43l-22.44 17.72-44.84-17.72z" transform="matrix(.1 0 0 .2 217.8 324.4)" stroke-width="4.47" fill="#908f8a"/><path transform="matrix(.3 0 0 .3 216.1 334.6)" stroke-width="1.84" fill="#b74d00" d="M204.35 95.67h336.6v17.72h-336.6zM204.35 77.95h336.6v17.72h-336.6zm0-17.7h336.6v17.7h-336.6zM204.35 42.52h336.6v17.72h-336.6zm0-17.72h336.6v17.72h-336.6zM204.35 7.1h336.6v17.7h-336.6zm0-17.73h336.6V7.1h-336.6z"/><path d="M423.23 60.24l137.8 124.02h19.7L442.92 60.24h-19.7z" transform="matrix(.3 0 0 .3 171.9 315.2)" stroke-width="3.25" fill="#908f8a"/><path d="M423.23 60.24l137.8 124.02h19.7L442.92 60.24h-19.7z" transform="matrix(.3 0 0 -.3 171.9 382.2)" stroke-width="3.25" fill="#908f8a"/><path d="M425.2 60.24v124.02h17.72V60.24H425.2z" transform="matrix(.3 0 0 .3 159.6 315.2)" stroke-width="3.09" fill="#908f8a"/><path d="M423.23 60.24l137.8 124.02h19.7L442.92 60.24h-19.7z" transform="matrix(.3 0 0 .3 216.2 315.2)" stroke-width="3.25" fill="#908f8a"/><path d="M423.23 60.24l137.8 124.02h19.7L442.92 60.24h-19.7z" transform="matrix(.3 0 0 -.3 216.2 382.2)" stroke-width="3.25" fill="#908f8a"/><path d="M425.2 60.24v124.02h17.72V60.24H425.2z" transform="matrix(.3 0 0 .3 238.4 315.2)" stroke-width="3.09" fill="#908f8a"/><path d="M425.2 60.24v124.02h17.72V60.24H425.2z" transform="matrix(.3 0 0 .3 203.9 315.2)" stroke-width="3.09" fill="#908f8a"/><path d="M425.2 60.24v124.02h17.72V60.24H425.2z" transform="matrix(.3 0 0 .3 194.1 315.2)" stroke-width="3.09" fill="#908f8a"/></g><g stroke="#000" stroke-width="1pt" fill="#ffdf00" fill-rule="evenodd"><path d="M655.5 396.85c0 88.02-55.55 159.45-124 159.45-68.47 0-124.03-71.43-124.03-159.45 0-88.02 55.56-159.45 124.02-159.45 68.45 0 124 71.43 124 159.45zm-17.7 0c0 78.24-47.63 141.73-106.3 141.73-58.68 0-106.3-63.5-106.3-141.73 0-78.24 47.62-141.73 106.3-141.73 58.67 0 106.3 63.5 106.3 141.73z" transform="matrix(.6 0 0 .6 9.6 -10.2)"/><path d="M579.75 249.94c-14.84-8.07-31.14-12.54-48.26-12.54s-33.43 4.47-48.27 12.54l6.9 16.32c12.7-7.17 26.7-11.14 41.36-11.14s28.64 3.97 41.36 11.14l6.9-16.32z" transform="matrix(.6 0 0 .6 9.6 -10.2)"/><path d="M579.75 249.94c-14.84-8.07-31.14-12.54-48.26-12.54s-33.43 4.47-48.27 12.54l6.9 16.32c12.7-7.17 26.7-11.14 41.36-11.14s28.64 3.97 41.36 11.14l6.9-16.32z" transform="matrix(.6 0 0 -.6 9.8 479.3)"/></g><path d="M379.55 235.87c0 48.53-27.6 87.87-61.65 87.87s-61.65-39.34-61.65-87.87S283.85 148 317.9 148s61.65 39.34 61.65 87.87z" fill-rule="evenodd" fill="#a7cfff"/><path d="M637.8 396.85c1.13 26.66-4.63 39.63-11.9 67.36-1.9 3-10.96-6.53-16.44-11.23s-7.8 4.24-14.53-3.05c-6.73-7.28-11.05 2.06-16-4.1s-51.3-7.05-51.35-7.58c4.6-2.27 28.27.15 24.47-11.2-4.3-11.7-31.1-.34-34.7-15.35-2.43-14.92-53.56-15.56-57.2-19.24 1.44 5.67 39.72 8.05 38.8 22.57-.83 5.92-37.7 7.65-41.24 12.65-3.04 6.3 28.94-1.7 30.12 6.03-.07 3.2-4.7.08-21.35 5-8.33 2.46 15.45 10.33 6.4 14.64-9.04 4.3-28.25 6.2-27.43 8 2.94 8.9 44.7 19.54 40.54 21.07-14.76 6.56-22.55 10.88-29.63 14.66-19.24-25.66-31.15-61.1-31.15-100.2 31.72-11.4 24.97-13.74 83.65-13.74s77.98 2.33 128.95 13.74z" fill-rule="evenodd" stroke="#000" stroke-width="1pt" fill="#afff7b" transform="matrix(.6 0 0 .6 9.6 -10.2)"/><path d="M637.8 396.85c-8.07 0-16.45 3.4-25.07 3.4-8.62 0-17.47-3.4-26.47-3.4s-19.28 4.53-28.5 4.53c-9.23 0-17.4-4.53-26.68-4.53-9.3 0-18.57 3.4-27.76 3.4s-18.3-3.4-27.22-3.4-17.7 3.4-26.2 3.4-16.77-3.4-24.7-3.4c0-19.56 2.98-38.2 8.36-55.15 27.08 2 11.04-15.72 27.08-15.72 8.65 0 17.43 1.86 25.23 9.8 2.45 0 14.48-11.38 27.92-9.8 13.42 1.6 8.48 27.28 26.36 28.64 9.06 6.8 14.4 11.13 26.78 13.87 17.7 1.6 68.35-2.5 68.7-.2 1.42 9.22 2.16 18.77 2.16 28.55z" fill-rule="evenodd" stroke="#000" stroke-width="1pt" fill="#fff" transform="matrix(.6 0 0 .6 9.6 -10.2)"/><path d="M549.85 473.94c0-5.66 13.5-9.46 13.5-18.52s-11.9-9.35-12.37-17.86c-.2-3.46 10.32-7.05 14.92-7.34s8.5 7.42 8.5 9.12-4.67-4.2-8.6-4.38-12.3.63-12.3 2.33c0 3.4 14.85 7.6 13.72 18.92-1.14 11.32-12.7 14.65-12.7 18.05s5.04 12.86 5.04 12.86-9.7-7.53-9.7-13.2z" fill-rule="evenodd" transform="matrix(.2 0 0 .5 217.2 59.5)" stroke="#000" stroke-width="1pt"/><path d="M549.85 473.94c0-5.66 13.5-9.46 13.5-18.52s-11.94-9.35-12.37-17.86c-.94-3.97 11.82-6.55 16.4-6.84s10 7.92 10 9.62-5.4-5.2-9.33-5.38-14.55.63-14.55 2.33c0 3.4 14.85 7.6 13.72 18.92-1.14 11.32-12.7 14.65-12.7 18.05s5.04 12.86 5.04 12.86-9.7-7.53-9.7-13.2z" fill-rule="evenodd" transform="matrix(-.2 0 0 .5 445.8 59.1)" stroke="#000" stroke-width="1pt"/><path d="M332.96 264.85c0 1.33-.65 2.4-1.45 2.4-.8 0-1.44-1.07-1.44-2.4s.65-2.42 1.45-2.42c.82 0 1.47 1.08 1.47 2.42zm16.96 8.96h.46v19.63h-.46zm4.18-1.48h.46v19.62h-.46z" fill-rule="evenodd"/><path fill-rule="evenodd" d="M352.6 281.23v-.5l3.98.7v.5z"/><path d="M497.26 478.07s26.05 11.33 31.72 18.12c5.66 6.8 3.4 6.8 3.4 6.8l57.76 2.26c0-3.4 10.2-3.4 12.46-11.33 2.27-7.93 2.27-10.2 2.27-10.2l-18.12 5.67 1.13-10.2h-15.86l-2.27 10.2-33.98-1.13 2.27-27.2-6.8 1.14-1.13 26.06c-1.13 0-31.7-7.93-32.84-10.2z" fill-rule="evenodd" transform="matrix(.6 0 0 .6 7 -9.5)" stroke="#000" stroke-width="1pt" fill="#b74d00"/><path d="M440.53 316.28s37.65-11.2 92.1-10.4 92.12 12.8 91.32 12.8-10.4-18.42-10.4-18.42-38.46-10.4-81.7-11.2c-43.26-.8-80.9 8-80.1 8.8l-11.22 18.42z" fill-rule="evenodd" stroke="#fede00" stroke-width="1pt" fill="#fede00" transform="matrix(.6 0 0 .6 9.6 -10.2)"/><path fill-rule="evenodd" fill="#38a9f9" d="M306.07 169.85l13.56-.26.14 7.9-13.56.26zm-31.3 4.3l-4.78 7.8 16.16-2-1.3-7.8-10.1 2zm13.78-3l13.52-1.18.62 7.88-13.52 1.2zm48.84-.8l-13.55-.9-.47 7.88 13.53.9zm29.17 4.96l4.92 9.7-14.65-3.62 1.63-7.7 8.1 1.63zm-11.73-2.8l-13.46-1.84-.95 7.84 13.45 1.83z"/><path fill-rule="evenodd" stroke="#000" stroke-width="1pt" fill="#ffdf00" d="M532.64 323.5L530.06 310l-7.54 11.46 2.77-13.43-11.35 7.7 7.7-11.35-13.43 2.78 11.45-7.54-13.47-2.58 13.47-2.58-11.45-7.53 13.43 2.77-7.7-11.35 11.34 7.7-2.78-13.43 7.54 11.46 2.58-13.47 2.57 13.47 7.55-11.46-2.77 13.43 11.35-7.7-7.7 11.35 13.43-2.77-11.46 7.53 13.47 2.58-13.47 2.58 11.46 7.54-13.44-2.78 7.7 11.35-11.34-7.7 2.77 13.43-7.54-11.46z" transform="matrix(.6 0 0 .6 9.6 -10.2)"/><path d="M547.05 293.86c0 9.3-6.63 16.82-14.82 16.82s-14.82-7.53-14.82-16.82 6.65-16.82 14.83-16.82 14.82 7.53 14.82 16.82z" fill-rule="evenodd" transform="matrix(.6 0 0 .5 18.3 21.8)" stroke="#000" stroke-width="1pt" fill="#ffdf00"/><path d="M320.68 170.55c0 .55-1.26 1-2.8 1s-2.82-.45-2.82-1 1.26-1 2.8-1 2.8.46 2.8 1zm6.07 0c0 .55-.94 1-2.1 1s-2.1-.45-2.1-1c0-.54.94-1 2.1-1s2.1.46 2.1 1z" fill-rule="evenodd"/><path d="M529.43 297.86l.8.8c-1.9-1.9-1-1.13 1.6 3.2 2.4-.5 3.1-1.4 4.8-2.4" transform="matrix(.6 -.2 .2 .6 -26.7 90.6)" stroke="#000" stroke-width="1pt" fill="none"/><path d="M527.83 304.27l.8.8c-1.9-1.9-1.12-1 3.2 1.6 4.03.55 8.1-1.2 10.42-4" transform="matrix(.6 0 0 .6 8.7 -10.2)" stroke="#000" stroke-width="1pt" fill="none"/><path d="M281.4 194.85s.93 7.95-5.1 17.88c-6.06 9.93-5.13 6.46-5.13 6.46s2.8 5.45 2.33 5.45-4.65-4.97-4.65-4.97l-5.1 5.47s4.64-8.45 4.17-8.45-1.4-2.98-1.4-2.98l3.72-1.5s5.58-10.4 5.58-9.92-16.73 11.42-16.73 11.42l22.3-18.87zm3.7 3c-.45 0 2.33 7.93 4.66 11.9 2.32 3.98 2.32 8.94 2.32 8.94l7.9 3.97-10.22-15.4 6.5 2.48-11.15-11.9zm0 20.84s5.6 5.95 6.05 7.94.47 6.45.47 6.45l-2.33-4.97-3.26 4.47s2.33-6.96 1.86-7.45-3.72 2.48-3.72 2.48 1.4-3.97 1.4-4.47 0-2.98-.47-4.47zm-27.86 13.9c1.86-1.5 5.57-2.5 5.57-2.5s-2.3 3.98-2.77 3.98-1.86 0-2.8-1.5zm64.1-21.85s12.08 7.45 12.08 7.94-7.9-3.48-7.9-3.48l-4.17-4.47zm-21.83-15.4c.94.5 17.67 14.4 17.2 14.4s-7.43-3.97-7.43-3.48v3.48l-3.72-7.94-.93 3-5.1-9.45zm4.2 22.34l4.64 9.43 4.64-1s-8.82-8.43-9.3-8.43zm14.4-5.96c0 1.5.46 8.93.46 8.93s2.8 2.5 2.8 2-2.8-10.44-3.26-10.93z" fill-rule="evenodd" fill="#b7e1ff"/><g><path d="M182.6 89.52s21-11.6 44.88-20.25c23.9-8.65 50.68-14.33 54.22-14.33 7.08 0 19.2 17.8 21.24 17.8 2.02 0 10.1-4.95 20.22-4.95s16.18 7.9 18.2 7.9h18.2c2.02 0-6.07-19.77 0-18.78 3.03.5 28.82 4.45 52.83 12.22 24 7.78 58.1 21.52 58.1 21.52S414.78 98.1 400 95.9c-2 1-.1 13.07-2.92 7.75-4.66-1.06-21.75-3.72-24.78-3.72s-8.7 3.42-16.78 5.4c-8.1 1.97-18.2 4.94-18.2 4.94l13.14 20.75-16.17 7.9s-10.12-23.7-14.17-23.7S314.06 132 309 131c-5.05-1-7.07-15.8-11.12-19.76-4.04-3.95-25.36-5.4-33.45-7.37-8.1-2-21.15-3.5-28.23-5.5-7.07-1.96-14.15 4.95-17.2 4.95-3.02 0 4.06-5.92 1.03-6.9s-5.06 2.95-7.08 2.95c-2.02 0-23.26-3.95-25.28-4.94-2.02-1 5.06-4.94 3.03-4.94h-8.1z" fill-rule="evenodd" fill="#984000"/><path d="M462.9-64.94c0 21.15-20.5 38.3-45.78 38.3s-45.8-17.15-45.8-38.3 20.5-38.3 45.8-38.3 45.8 17.15 45.8 38.3z" fill-rule="evenodd" transform="matrix(.2 0 0 .3 231.6 96.5)" stroke="#772600" stroke-width="3.71" fill="gray"/><path d="M284.74-59.95c6.66-6.65 15-16.64 36.63-16.64 5-1.66 5-11.65 16.65-11.65 11.66 0 8.33 10 16.66 13.32 8.32 3.33 76.6-3.33 76.6-3.33s6.65 5 6.65 11.66-5 11.65-6.66 11.65-68.27-5-73.26-3.33c-5 1.67-8.32 3.33-19.98 3.33-11.65 0-14.98-11.65-23.3-11.65-8.33 0-16.66-1.67-29.98 6.66z" fill-rule="evenodd" transform="matrix(.3 0 0 .3 205.4 100.7)" stroke="#772600" stroke-width="5.25" fill="#984000"/><path d="M487.88-76.6h26.64c9.57.12 12.88 3 21.65 3.33h23.3c8.5-.3 12.96-2.3 21.66-3.33 14.5-.17 9.55-1.3 6.66-10-2.64-6.55-2.96-9.6-6.67-13.3-1.4-7.95-4.66-10.78-5-20-1.53-7.02-4.34-11.74-1.66-19.97 3.84 5.65 5.38 7.97 14.98 8.32 10.05 0 13.94-.2 19.98 3.33 4.67 4.9 10.9 3.33 20 3.33 7.66 1.42 8.95 5.33 14.97 8.34 7.1 3.94 11.7 5 21.65 5 7.97 1.42 14.88 2.57 19.98 5 4.25 5.07 10.95 6.33 19.98 6.65 5.06 0 8.96-.53 13.33-1.67 7.68.37 15.47 0 24.98 0 6.17 7.2 7.6 9.86 18.33 10 7.33 5.14 13.52 6.02 19.98 8.3h24.98c8.93.7 11.8 4.36 19.98 6.67 8.12 3.77 15.73 6.35 21.65 8.33 5.9 1.28 13.6 1.66 21.66 1.66 6.18 3.17 13.6 3.45 18.3 6.65 6.9 1.48 16.32 3.22 21.66 5 8.82 1.17 12.2 3.94 19.98 5 6.7 1.9-2.22 3.55-6.66 5-9.82-.37-10.53-3.96-19.98-5-5.02-2.95-12.64-2.55-19.98-5h-1.67c6.6 3.9 12.96 6.42 10 13.32-8.5 0-15.36-1.1-23.3-1.67-8.4-1.6-12.23-3.33-21.65-3.33 9.4-2.26 11.85.27 18.3 3.33 2.4 8.06-2.7 5-11.64 5-7.6-2.73-12.17-5.98-21.64-6.66h-19.98c9.9.37 11.97 4.1 18.3 8.33.53 2.6-.12 2.47-4.98 3.33-5.16-4.48-11.9-6.02-19.98-8.33-7.88-.28-16.22-.97-23.3-3.33-4.88-.3-4.13-6.18 6.65 3.33 6.53 3.84 8.83 6.95 8.32 10-8.58-2.15-12.83-5.6-18.33-8.33-7.73-2.86-14.12-3.33-23.3-3.33-8.62-2.26.9-3.57 6.65 5 12.38 8.77-1.63 5-6.66 3.33-7.5-2.14-15.28-5.18-21.64-6.66-5.05-1.44-9.44-2.85-15-3.33 8.64.8 11.58 3.82 15 10 8.75 6.02-.4 3.1-8.33 1.66-5.08-4.4-11.5-6.66-15-11.66-8.35-4.18-8.56-8.98-3.33 1.67 1.37 3.4 1.1 10.8 1.67 11.66-6.14-6.62-4.83-8.32-11.66-8.32-4.63-3.25-11.5-5.77-14.98-10-6.44-.6-6.84-2.9-13.32-5 5.34 6.28 12.4 12.5 16.65 18.33 7.6 4.24 9.7 8.06 14.98 11.65 2.15 3.64 7.92 6.66 1.68 1.67-7.14-7.06-12.46-8.68-23.3-13.33-6.16-4.96-8.38-7.05-15-11.66-9-2.9-5.5-4.53 0 5 6.32 5.78 11.17 12.24 16.65 16.66 3.77 4.9 10.14 10.12 15 13.32 1.5 2.25 5.98 2.66 0 3.33-5.1-4.6-12.4-7.52-18.33-11.65-8.3-2.34-12.2-6.65-18.3-11.65-3.9-5.85-10.4-10.38-15-15-9.63-3.76 1.9 3.65 5 8.34 2.15 6.06 4.78 11.03 6.65 16.65 2.78 5.55-8.47-1.34-11.65-3.34-7.32-4.16-12.67-6.94-21.65-8.33-5.98-1.3-13.6-2.47-19.98-3.33-7.6-2.05 4.04 4.8 8.33 11.66 8.4 7.9-8.34 1.42-13.32 0-8.23-1.65-16.3-1.67-24.98-1.67-10.67.62-3.05 1.94 0 6.65 3.3 2.53 5.64 7.86 5 10-7.04-.96-13.03-3.03-21.65-3.34-6.96 2.33-15.35 1.68-23.3 1.68-.4 4.2 1.43.65 4.98 5 5.76 2.33 9.6 5.17 8.33 8.32h-48.3c-5.28 1.45 1.15.7 5 6.66-2.15 5.4-4.94 3.33-11.65 3.33-4.53-1.82-13.58-2.64-18.3-5-4.7 0-4.34-1.22-8.33-1.67 14.04 9.93 7.08 7.45 15 15 1.36.45 4.5 1.65 1.65 1.65m-109.9 53.28c-1 0-3.2-5.37-6.66-10-2.33-6.03-5.4-2.57-8.33-11.64.35-9.4.7-11.1 0-19.98-6.86-4.8-9.7-6.27-14.98-15-8.46-7.07 1.23-19.05 2.84-27.84-7.38-1.64-11 11.48-22.35 16.2-8.15 5.5-.9-11.36-4.9-21.2-2.76-13.87-10.8 6.96-13.9 12.87-5.47 3.72-7.13 8.54-15 1.66 0-5.14 4.95-19.5 2.86-22.28-7.8 3.82-18.08 15.5-26.15 17.3-8.13-1.78 1.77-14.84 1.77-24.53-2.94-.98-14.7 25.75-19.52 26s-2.7-26-4.97-25.43c-3.54 4.95-10.65 15.42-15.58 18.94-9.45-1.22 1.4-17.43 2.85-23.43 1.63-7.15-8.9 13.76-14.5 15.12-4.1 3.55-12.24 6.07-15 6.66 3.25-6.13 19.1-18.72 17.95-22.28-9.2.34-23.3 12.55-31.26 13.95-5.2 0-12.4 1.76-13.33 1.66.45-7.9 19.42-14.64 22.45-19.45-9.3 1.5-27.2 9.7-32.44 16.13-6.15 1.34-13.95 3.02-19.98 0 .9-7.47 14.85-22 17.93-26.75-8.4 3.7-12.64 6.6-21.65 8.32-1.65 1.65-6.52 5.23-5 1.67 2.67-6.95 6.7-10.1 10-15-7.45 1.37-10.28 5.64-18.32 10-5.1.22-19.64 14.86-24.6 15.1-11.44 8.4-16 9.8-28.3 13.32-7.6 1.36-11.26 2.94-15 6.66 3.8-6.68 9.6-13.1 15-16.65 3.68-5.56 7.12-10.2 15-13.32 1.88-2.32 7.17-2.9 1.65-3.33-4.73 4.24-12.68 8.97-16.64 11.66-5.1 3.2-11 6.48-13.32 5 2.62-7.2 7.44-8.9 11.66-15 8.8-5.6.04-1.9-6.66 0-4.34 3.88-12.13 6.73-18.32 10-7.1 1.86-11.7 6.13-19.98 8.33 0 2.36 2.36-4.26 3.33-6.67 6.83-7.4 8.66-9.48 16.65-11.66 1.9-2.87 4.42-1.66-1.66-1.66-4.52 4.03-10.8 6.22-16.65 10-5.9 1.28-13.57 1.66-21.64 1.66-10.36 1.24-9.46 2.03 0-3.33 5.35-5.04 9.77-3.77 10-10C10.38-40.42 2.77-37.1-5-33.3c-6.43.2-8.13 1.66-14.98 1.66 3.3-3.4 5.27-7.63 10-10 6.88-7.65-4.4-1.47-6.67 0h-24.98c-4.46 5.6-.23.06 3.33-3.32 4.3-2.24 8.76-5.15 8.33-6.66-4.98 4.3-10.73 6.3-15 10-4.63 1.38-9.98 2.07-9.98 3.32 3.63-5.35 9.52-8.58 13.32-13.32 5.6-1.22 10.4-2.94 11.66-5H-53.3h16.66c8.4 0 15.63-.75 23.32-1.66 13.26-2.2-1.16-3.33-8.33-3.33-1.4-2.56 4.1-4 10-5 5-2.4 11.22-4.5 16.64-6.67 5.25-1.43 12.7-5.8 13.3-6.66-5 .27-4.96 1.4-9.98 1.67 7.45-.57 12.8-1.67 21.65-1.67 8.03-2.58 14.9-5.4 21.65-8.32 2.93-3.6 4.24-3.33-3.33-3.33 6.7-2.16 16.22-3.2 21.63-5 7.87-1.68 14.9-4.25 19.98-6.66 4.9-3.3 7.7-7.17 13.33-10 6.53 4.45 6.6 5 18.32 5 9.4-.1 15.17-2.37 19.98-6.65 7.2-1.96 8.5-5.42 16.65-6.65 7.45 1.32 15.03 1.66 23.32 1.66 8.1-2.1 15.67-6 21.64-9.98 5.1-2.5 11.14-6.12 16.65-8.33 6.06 3.13 10.84 5.64 18.3 6.65 7.74-1.14 11.76-4.86 18.33-6.66 3.58-4.34 8.78-6.64 15-8.33 9.66-4.75 8.9 1.57 13.3 6.66 4.9 5.13 11.38 2.68 18.32 5 3.83 5.9 6.65 9.9 11.66 13.3 3.9 4.72 8.52 6.05 16.66 6.67 2.97 3.96.6 6.82 6.66 8.33 2.4 2.53 6.52 3.6 10 5" transform="matrix(.3 0 0 .3 205.4 104.9)" stroke="#772600" stroke-width="3.5" fill="none"/><path d="M468.74 30.8v.84c0-2.33-.1-1.1 1.67 3.33.6 3.64-.8 3.22-2.5 5.82-.28 3.72-.82 6.4-.82 10.82-.54 3.6-2.57 7.04-4.17 10-1.6 3.12-8.54 4.86-8.3 9.15-4 1.14-4.1-1.45-4.18-5.83-2.38-2.73-3.2-6.47-5-10-1.1-3.47-3.46-6.02-5-9.98-2.45-3.8-4.53-4.88-6.65-9.16-.82-2.07-.68-4.62-2.5-5.83-2.7-3.44-4.48-4-9.15-4.16-3.6.85-4.97 2.42-8.33 3.34-2.58.85-7.58.58-10.83 1.66-.8 1.32 1.6 1.94 2.5 5-2.14 1.76-2.93 4.88-4.17 7.5-1.96 2.48-3.28 3.7-4.16 7.5 1.36 2.3.2 5.37-1.67 7.48-.57 3.86-2.43 5.87-3.33 9.16-2.68 1.82-3.65 3.54-5.82 6.66-1.92 2.68-3.64 2.5-8.33 2.5-3.68-1-4.2-3-7.5-4.17-.35-1.05-.6-1.3-1.67-1.66" transform="matrix(.3 0 0 .3 205.4 104.9)" stroke="#782600" stroke-width="3.13" fill="none"/><path d="M307.65 125.53s-.46 4.96-3.64 8.26-9.8 7.15-9.8 7.15 8.9-4.22 9.8-3.3c.92.9-5.7 8.25-5.7 8.25s8.67-7.7 9.8-7.7 3.65 7.52 4.56 7.34c.9-.2-2.05-9.55-1.6-11 .46-1.48 0-9.37 0-9.37l-3.4.36zm20.5-.67s-.46 5.3-3.65 8.83-9.8 7.64-9.8 7.64 8.9-4.5 9.8-3.53c.9 1-5.7 8.84-5.7 8.84s8.66-8.24 9.8-8.24 3.65 8.04 4.56 7.84c.9-.2-2.05-10.2-1.6-11.77.46-1.57 0-10 0-10l-3.4.4zm-28.7-48.04c0 .98-.96 1.78-2.16 1.78s-2.17-.8-2.17-1.78.97-1.8 2.16-1.8 2.15.8 2.15 1.8z" fill-rule="evenodd" fill="#812e00"/></g></svg>