<svg xmlns="http://www.w3.org/2000/svg" height="480" width="640"><defs><clipPath id="a"><path fill-opacity=".67" d="M-85.33 0h682.67v512H-85.33z"/></clipPath></defs><g clip-path="url(#a)" transform="matrix(.9 0 0 .9 80 0)"><g fill-rule="evenodd"><path fill="#fff" d="M-128 168.22h767.98v171.9H-128z"/><path d="M-128 340.1h767.98V512H-128z"/><path fill="red" d="M-128 0h767.98v168.22H-128z"/><path d="M322.44-322.44h7.1l3.74 60.24-7.3 7.08-7.08-7.08 3.54-60.24z" transform="matrix(.6 0 .1 .8 65.3 520.6)" stroke="#fff" stroke-width="1pt" fill="#d7b900"/><path d="M322.44-322.44h7.1l3.74 60.24-7.3 7.08-7.08-7.08 3.54-60.24z" transform="matrix(.6 0 0 .8 23.8 502.3)" stroke="#fff" stroke-width="1pt" fill="#d7b900"/><g stroke="#fff" stroke-width="4.82" fill="#d7b900"><path d="M177.16 255.12l-17.72 442.9 35.44-35.42 17.7-407.48h-35.42z" transform="matrix(-.3 0 0 .2 355.9 162.1)"/><path d="M177.16 290.55l-17.72 407.48 35.44-35.43 17.7-372.05h-35.42z" transform="matrix(-.3 0 0 .2 346.1 155.2)"/><path d="M177.17 325.98l-17.72 372.05 35.44-35.43 17.7-336.6h-35.43z" transform="matrix(-.3 0 0 .2 336.4 148.3)"/><path d="M177.16 361.42l-17.72 336.62 35.44-35.43 17.7-301.17h-35.42z" transform="matrix(-.3 0 0 .2 326.6 141.3)"/></g><g stroke="#fff" stroke-width="4.82" fill="#d7b900"><path d="M177.16 255.12l-17.72 442.9 35.44-35.42 17.7-407.48h-35.42z" transform="matrix(.2 0 0 .2 144.9 162.1)"/><path d="M177.16 290.55l-17.72 407.48 35.44-35.43 17.7-372.05h-35.42z" transform="matrix(.2 0 0 .2 153.6 155.1)"/><path d="M177.17 325.98l-17.72 372.05 35.44-35.43L212.6 326h-35.43z" transform="matrix(.2 0 0 .2 162.3 148.2)"/><path d="M177.16 361.42l-17.72 336.62 35.44-35.43 17.7-301.17h-35.42z" transform="matrix(.2 0 0 .2 171.3 142.2)"/></g><path d="M181.73 256.05c-1-1.3 19.85-18.65 55.28-18.65 53.16 0 61.32 18.65 96.75 18.65h152.02c35.43 0 45.72-18.65 98.87-18.65 35.44 0 52.17 18.3 53.15 18.65 0 0-17.72-.93-53.16-.93s-49.3 39.04-85.05 38.22c-26.8.82-144.24 0-179.67 0-35.43 0-47.48-37.3-82.92-37.3-35.42 0-56.27-1.3-55.27 0z" transform="matrix(.3 0 0 .2 139.5 161.9)" stroke="#d7b900" stroke-width="4.82" fill="#fff"/><path d="M400.4-109.84v3.54l3.53 3.55-3.54 3.54v3.53c-14.18 7.1-28.86 7.1-42.53 7.1-13.67 0-28.35 0-46.06-7.1v-3.54l-3.54-3.56 3.55-3.54v-3.54c14.18 3.54 28.35 7.08 46.07 7.08s28.35-3.54 42.52-7.08z" transform="matrix(1.4 0 0 1.2 -238.1 442.9)" stroke="#d7b900" stroke-width="1pt" fill="#fff"/><g transform="matrix(-1.1 .3 .3 1 681.2 318.9)" stroke="#d7b900" fill="#fff"><rect transform="matrix(-.6 -.8 -.9 .5 0 0)" rx="2.4" ry="4.5" height="40.13" width="4.79" y="-406.53" x="-73.16" stroke-width=".62"/><g stroke-width="4.71"><path d="M318.9 574.02l17.72 17.72 17.7-17.72 17.73 17.72 17.7-17.72 17.73 17.72c5.26-9.43 7.1-22.9-.1-36.52-36.2-13.82-68.84-12.65-107.2 1.2-3.08 11.02-2.97 23.9 0 35.42l18.72-17.82z" transform="matrix(-.1 .1 .2 .4 323.4 -377.1)"/><path d="M318.9 574.02l17.72 17.72 17.7-17.72 17.73 17.72 17.7-17.72 17.73 17.72c5.26-9.43 7.1-22.9-.1-36.52-36.2-13.82-68.84-12.65-107.2 1.2-3.08 11.02-2.97 23.9 0 35.42l18.72-17.82z" transform="matrix(-.1 .1 .2 .4 320.2 -384.2)"/><path d="M318.9 574.02l17.72 17.72 17.7-17.72 17.73 17.72 17.7-17.72 17.73 17.72c5.26-9.43 7.1-22.9-.1-36.52-36.2-13.82-68.84-12.65-107.2 1.2-3.08 11.02-2.97 23.9 0 35.42l18.72-17.82z" transform="matrix(-.1 .1 .2 .4 316.9 -391.3)"/><path d="M318.9 574.02l17.72 17.72 17.7-17.72 17.73 17.72 17.7-17.72 17.73 17.72c5.26-9.43 7.1-22.9-.1-36.52-36.2-13.82-68.84-12.65-107.2 1.2-3.08 11.02-2.97 23.9 0 35.42l18.72-17.82z" transform="matrix(-.1 .1 .2 .4 312.8 -400)"/><path d="M318.9 574.02l17.72 17.72 17.7-17.72 17.73 17.72 17.7-17.72 17.73 17.72c5.26-9.43 7.1-22.9-.1-36.52-36.2-13.82-68.84-12.65-107.2 1.2-3.08 11.02-2.97 23.9 0 35.42l18.72-17.82z" transform="matrix(-.1 .1 .2 .4 309.5 -407.1)"/><path d="M318.9 574.02l17.72 17.72 17.7-17.72 17.73 17.72 17.7-17.72 17.73 17.72c5.26-9.43 7.1-22.9-.1-36.52-36.2-13.82-68.84-12.65-107.2 1.2-3.08 11.02-2.97 23.9 0 35.42l18.72-17.82z" transform="matrix(-.1 .1 .2 .4 306.2 -414.2)"/></g><path d="M345.63-96.13c0 3.28-1.12 5.94-2.5 5.94s-2.5-2.65-2.5-5.92 1.12-5.94 2.5-5.94 2.5 2.66 2.5 5.93z" transform="matrix(.5 -.4 .3 .7 228 87.2)" stroke-width="1pt"/><path d="M345.63-96.13c0 3.28-1.12 5.94-2.5 5.94s-2.5-2.65-2.5-5.92 1.12-5.94 2.5-5.94 2.5 2.66 2.5 5.93z" transform="matrix(.5 -.4 .3 .7 242.1 102.9)" stroke-width="1pt"/><path d="M345.63-96.13c0 3.28-1.12 5.94-2.5 5.94s-2.5-2.65-2.5-5.92 1.12-5.94 2.5-5.94 2.5 2.66 2.5 5.93z" transform="matrix(.5 -.4 .3 .7 245.2 88.3)" stroke-width="1pt"/></g><path d="M268.3 261.84s32.88-42.16 32.88-95.3h70.87c0 53.14 34.3 95.3 35.43 88.57-17.72 0-53.15-17.7-70.87-53.14-17.7 35.44-50.6 59.88-68.3 59.88z" transform="matrix(.3 0 0 .2 138.9 168.1)" stroke="#d7b900" stroke-width="4.82" fill="#fff"/><path d="M253.46 240.4s47.94-58.72 47.94-111.87V53.95c0-17.72 23.97-18.65 35.95-18.65 17.72 0 35.96.93 35.96 18.65v74.58c0 53.15 47.95 111.88 47.95 111.88-35.44 0-54.2-39.14-71.9-74.57 0 17.7 4.98 53.86-12.74 71.58-17.7-17.7-11.23-53.86-11.23-71.57-17.72 35.43-36.48 74.58-71.9 74.58z" transform="matrix(.3 0 0 .2 143.2 168.6)" stroke="#d7b900" stroke-width="4.82" fill="#fff"/><path d="M283.12 77.95h53.15c0 17.72 0 35.44-17.72 35.44s-35.43-17.73-35.43-35.45z" transform="matrix(.3 .1 -.1 .1 162.3 142.1)" stroke="#d7b900" stroke-width="5.91" fill="#fff"/><path d="M183.96 42.52c11.8 0 11.8 17.72 11.8 35.43-17.7 0-29.52-17.7-47.23 0 0-19.56 0-35.43 17.7-35.43h17.73z" transform="matrix(.4 .1 -.1 .1 172 147.7)" stroke="#d7b900" stroke-width="4.82" fill="#fff"/><path d="M336.6 69.1c0 4.9-3.96 8.85-8.85 8.85S318.9 74 318.9 69.1s3.96-8.86 8.85-8.86 8.86 3.96 8.86 8.85z" transform="matrix(.3 .1 -.1 .2 168.4 139.8)" stroke="#d7b900" stroke-width="4.82" fill="#fff"/><path d="M322.44-322.44h7.1l3.74 60.24-7.3 7.08-7.08-7.08 3.54-60.24z" transform="matrix(.6 0 0 .8 41.6 510.3)" stroke="#fff" stroke-width="1pt" fill="#d7b900"/><g transform="matrix(1.2 .3 -.4 1 -234.8 310.2)" stroke="#d7b900" fill="#fff"><rect transform="matrix(-.6 -.8 -.9 .5 0 0)" rx="2.4" ry="4.5" height="40.13" width="4.79" y="-406.53" x="-73.16" stroke-width=".62"/><g stroke-width="4.71"><path d="M318.9 574.02l17.72 17.72 17.7-17.72 17.73 17.72 17.7-17.72 17.73 17.72c5.26-9.43 7.1-22.9-.1-36.52-36.2-13.82-68.84-12.65-107.2 1.2-3.08 11.02-2.97 23.9 0 35.42l18.72-17.82z" transform="matrix(-.1 .1 .2 .4 323.4 -377.1)"/><path d="M318.9 574.02l17.72 17.72 17.7-17.72 17.73 17.72 17.7-17.72 17.73 17.72c5.26-9.43 7.1-22.9-.1-36.52-36.2-13.82-68.84-12.65-107.2 1.2-3.08 11.02-2.97 23.9 0 35.42l18.72-17.82z" transform="matrix(-.1 .1 .2 .4 320.2 -384.2)"/><path d="M318.9 574.02l17.72 17.72 17.7-17.72 17.73 17.72 17.7-17.72 17.73 17.72c5.26-9.43 7.1-22.9-.1-36.52-36.2-13.82-68.84-12.65-107.2 1.2-3.08 11.02-2.97 23.9 0 35.42l18.72-17.82z" transform="matrix(-.1 .1 .2 .4 316.9 -391.3)"/><path d="M318.9 574.02l17.72 17.72 17.7-17.72 17.73 17.72 17.7-17.72 17.73 17.72c5.26-9.43 7.1-22.9-.1-36.52-36.2-13.82-68.84-12.65-107.2 1.2-3.08 11.02-2.97 23.9 0 35.42l18.72-17.82z" transform="matrix(-.1 .1 .2 .4 312.8 -400)"/><path d="M318.9 574.02l17.72 17.72 17.7-17.72 17.73 17.72 17.7-17.72 17.73 17.72c5.26-9.43 7.1-22.9-.1-36.52-36.2-13.82-68.84-12.65-107.2 1.2-3.08 11.02-2.97 23.9 0 35.42l18.72-17.82z" transform="matrix(-.1 .1 .2 .4 309.5 -407.1)"/><path d="M318.9 574.02l17.72 17.72 17.7-17.72 17.73 17.72 17.7-17.72 17.73 17.72c5.26-9.43 7.1-22.9-.1-36.52-36.2-13.82-68.84-12.65-107.2 1.2-3.08 11.02-2.97 23.9 0 35.42l18.72-17.82z" transform="matrix(-.1 .1 .2 .4 306.2 -414.2)"/></g><path d="M345.63-96.13c0 3.28-1.12 5.94-2.5 5.94s-2.5-2.65-2.5-5.92 1.12-5.94 2.5-5.94 2.5 2.66 2.5 5.93z" transform="matrix(.5 -.4 .3 .7 228 87.2)" stroke-width="1pt"/><path d="M345.63-96.13c0 3.28-1.12 5.94-2.5 5.94s-2.5-2.65-2.5-5.92 1.12-5.94 2.5-5.94 2.5 2.66 2.5 5.93z" transform="matrix(.5 -.4 .3 .7 242.1 102.9)" stroke-width="1pt"/><path d="M345.63-96.13c0 3.28-1.12 5.94-2.5 5.94s-2.5-2.65-2.5-5.92 1.12-5.94 2.5-5.94 2.5 2.66 2.5 5.93z" transform="matrix(.5 -.4 .3 .7 245.2 88.3)" stroke-width="1pt"/></g><path d="M301.18 290.55c0 194.88 35.43 177.17 106.3 248.03 70.87-70.87 106.3-53.15 106.3-248.03-35.43 0-70.87 0-106.3-17.72-35.43 17.72-70.87 17.72-106.3 17.72z" transform="matrix(.3 0 0 .2 142.3 162.3)" stroke="#d7b900" stroke-width="4.82" fill="#fff"/><path d="M220.78 220.66c0 35.06 8.38 31.87 25.14 44.62 16.77-12.75 25.15-9.56 25.15-44.6-8.38-.02-16.77-.02-25.15-3.2-8.38 3.18-16.76 3.18-25.14 3.18z" fill="#d7b900"/><path d="M237.05 221.12v36.52l9 5.3 9.02-5.3v-36.52c-3.22-.4-6.32-1.13-9-1.97-2.98.9-6.02 1.6-9.02 1.97z" fill="#fff"/></g></g></svg>