<svg xmlns="http://www.w3.org/2000/svg" height="480" width="640"><path d="M0 0v480h640V0H0z" fill-rule="evenodd" fill="#67b1ff"/><g stroke-width="1pt"><path fill-rule="evenodd" fill="#0000b4" d="M0 0h431.43v277.17H0z"/><path d="M0 0v31l383.2 246.17h48.23v-31L48.23 0H0zm431.43 0v31L48.23 277.16H0v-31L383.2 0h48.23z" fill="#fff"/><path d="M179.76 0v277.17h71.9V0h-71.9zM0 92.4v92.38h431.43v-92.4H0z" fill="#fff"/><path d="M0 110.87v55.43h431.43v-55.43H0zM194.14 0v277.17h43.15V0h-43.16zM0 277.17l143.8-92.4h32.16l-143.8 92.4H0zM0 0l143.8 92.4h-32.15L0 20.65V0zm255.46 92.4L399.26 0h32.17l-143.8 92.4h-32.17zm175.97 184.77l-143.8-92.4h32.15l111.65 71.74v20.67z" fill="#c00"/></g><g fill-rule="evenodd"><path d="M391.43 137.05V296.3c20.53 111.5 56.47 127.42 102.67 159.27 46.2-31.85 82.13-47.78 102.66-159.26V137.06H391.43z" fill="#fff"/><path d="M480.4 137.05l.22 309.5 13.7 8.97L508 446.3l-.2-309.25h-27.4z" fill="#da0000"/><path d="M391.43 298l10.27 43.37 185.34-.12 9.73-43.26H391.42zm0-160.95h205.33v111.48H391.43z" fill="#da0000"/><g transform="matrix(.3 0 0 .4 309.8 297.9)"><rect rx="23.23" ry="27.99" height="55.98" width="46.45" stroke="#000" y="-281.68" x="306.09" stroke-width=".75" fill="#f6efec"/><path d="M850.4-296.57s47.64-3.57 64.31-22.63c16.7-19.06-11.3-53.6 6.56-57.17 7.15-.6 17.27 1.8 25.02 11.3-1.2-7.13-5.96-11.3-7.74-15.47-6.56-5.95-13.1-5.36-22.63-5.36-6.55 1.2-7.74-1.2-18.45-13.7-5.36-5.95-5.36-20.84-1.2-30.96-12.5 9.53-10.12 22.63-8.93 25.6 2.98 13.1 5.96 16.68 5.96 22.64-3.58-1.8-10.13-17.27-44.07-19.66-33.94-2.38-119.7 23.82-158.4 23.82s-94.7-16.07-94.7-16.07 14.3-11.32-2.97-16.08c-17.27-4.78-55.38 16.66-66.1 4.75-7.74-11.3-4.76-8.93-5.95-14.3-2.98 1.8-4.77 8.94-.6 18.47s6.55 6.55 5.96 6.55c-.6 0-13.7 0-14.9 4.77-1.18 3.57-2.97 7.74 3.58 20.84 2.38-13.1-6.55-14.9 13.1-16.08 19.65-1.2 33.35 7.74 50.02 10.72 16.68 2.98 16.68-7.15 17.27-6.55.6.6 51.23 14.3 97.68 11.3 46.45-2.97 121.5-28.57 156.02-23.2 34.54 5.35 57.17 30.36 57.76 53.58-.6 14.3-15.48 21.44-27.4 23.82-14.28 2.38-47.63 5.96-47.63 5.96l18.46 13.1z" transform="matrix(.9 0 0 .7 113.8 -89.6)" stroke="#000" stroke-width=".88" fill="#ff0"/><path d="M683.06-248.92c-.6 0-32.75.6-42.28 14.3-9.53 13.7-13.7 26.8-13.1 26.8.6 0 21.43-11.32 21.43-11.32s-15.47 22.63-7.13 42.87c8.33 20.25-22 19.06-39.5 19.65-7.75-5.95-32.48-16.07-41.3-17.86-5.5-2.1-16.32-2.35-27.62 10.35-6.65 7.83 9.9-7.37 26.3-6.18 1.77 1.77 2.9 3.56 3.23 7.73-8.74-.6-17.84-10.72-28.56 10.12 10.72-7.14 12.06-7 17.5-7.44 7.23-.53 6.3 3.28 6 3.28-1.2 0-4.14.6-8.6 4.77-2.4 2.97-8.35 9.52-7.16 9.52s4.75-3.57 10.33-6.55c3.47-2.38 6.78-2.38 17.3.6 57.77 13.7 88.74 3.57 92.3-1.8 1.8-2.37-33.34-69.66 60.16-87.53-1.2-.6-39.3-10.73-39.3-11.32z" transform="matrix(.8 0 0 1 231.3 -38.1)" stroke="#000" stroke-width=".5" fill="#ff0"/><path d="M472.84-212.6c32.75 27.4 253.7-29.18 281.68-48.83 16.08-11.32 44.07-19.65 44.07 19.05 7.13-26.2 7.13-32.75 7.13-32.15.6.6 11.32 10.12 20.85 42.28 2.38-28.6-4.17-45.26-.6-42.88 2.38-2.38 2.38 14.3 21.44 37.52-4.17-18.47-5.36-26.8-5.36-26.8s35.73 34.53 55.98 39.3c20.25 4.76 49.43-9.53 58.36-1.2 8.93 8.34 24.42 23.23 23.82 35.14-.6 11.9-33.35 1.78-36.92 11.3-3.57 9.54 2.38 9.54 2.38 9.54s2.98 7.15 5.36 13.1c1.8-4.17-1.8-13.1 4.76-13.7 4.77.6 4.77 8.34 5.96 12.5 1.4-4.75-.2-14.28 4.17-14.28 4.76-1 5.36 7.54 8.93 13.1v-13.1c13.7-4.17 25.6-4.77 27.4-13.7 1.77-8.93-20.85-29.18-26.2-42.28-5.37-13.1 4.16-18.46-5.96-25.6-10.13-7.15-48.84 11.3-66.7 4.16-17.87-7.14-10.72-58.36-78.02-69.67-67.3-11.3-249.52 59.56-281.68 62.54-32.15 2.97-71.46-10.13-71.46-10.13l.6 54.8z" stroke="#000" stroke-width=".63" fill="#ff0"/><path d="M420.43-263.22s-28.59-37.52-51.8-41.1C345.4-307.28 322.76-290 318-292.4c-4.76-2.38-6.55.6-9.53 5.95-2.98 5.36.6 8.94.6 8.34 1.2 0 4.17-8.94 5.36-9.54 1.2-.6-5.96 10.72 1.2 11.9 2.37.6 3.56-8.32 6.54-11.9.6.6-4.76 12.5-1.8 13.1 3 .6 6.56-11.9 11.92-14.88 7.74-5.36 19.05-7.15 33.34-7.15 14.3 4.17 43.47 38.7 46.45 38.1l8.33-4.75z" transform="matrix(1 .2 .2 -1.3 64.2 -655.7)" stroke="#000" stroke-width=".5" fill="#ff0"/><path d="M420.43-263.22s-28.59-37.52-51.8-41.1C345.4-307.28 322.76-290 318-292.4c-4.76-2.38-6.55.6-9.53 5.95-2.98 5.36.6 8.94.6 8.34 1.2 0 4.17-8.94 5.36-9.54 1.2-.6-5.96 10.72 1.2 11.9 2.37.6 3.56-8.32 6.54-11.9.6.6-4.76 12.5-1.8 13.1 3 .6 6.56-11.9 11.92-14.88 7.74-5.36 19.05-7.15 33.34-7.15 14.3 4.17 43.47 38.7 46.45 38.1l8.33-4.75z" transform="matrix(1 0 0 1.1 11.3 42.2)" stroke="#000" stroke-width=".5" fill="#ff0"/><path d="M417.46-267.98L385.9-252.5l23.22 5.96-16.67 19.05 23.82-7.73-1.8 25.6 13.7-16.66 8.94 23.23 9.54-17.27 11.3 19.06 4.78-18.46 13.7 18.46 4.76-25 16.67 15.47-2.38-26.2 20.25 6.54-12.5-20.25s22.03-1.2 20.84-1.2-16.68-13.1-30.37-16.67l-76.24.6z" stroke="#000" stroke-width=".5" fill="#ff0"/><path d="M417.46-267.98L385.9-252.5l23.22 5.96-16.67 19.05 23.82-7.73-1.8 25.6 13.7-16.66 8.94 23.23 9.54-17.27 11.3 19.06 4.78-18.46 13.7 18.46 4.76-25 16.67 15.47-2.38-26.2 20.25 6.54-12.5-20.25s22.03-1.2 20.84-1.2-16.68-13.1-30.37-16.67l-76.24.6z" transform="matrix(.6 0 0 .6 205.6 -123)" stroke="#000" stroke-width=".81" fill="#ff0"/><path d="M443.06-316.8s-8.93-7.16-12.5 0c-3.58 7.14 7.74 4.16 7.74 5.35s-7.74 9.53-7.74 19.06c0 9.54 5.95 25.6 5.95 28s2.4 8.93 10.73 11.3 11.32-7.73 13.1-8.92c1.8-1.2 13.1 1.78 17.27-8.34s4.17-28.58 4.17-28.58 7.15 5.36 7.15-5.36-7.74 0-7.74 0 1.2-11.32-17.27-16.68-20.24 5.36-20.84 4.17z" stroke="#000" stroke-width=".5" fill="#ff0"/><path d="M441.48-317.3c-2.38-4.84-9.14-23.33-9.14-23.33l16.2 6.94c-5.53-1.36-10.25-2.17-9.65-2.17.6 0 7.14 8.94 7.14 8.94 6.45-.38 12.9 1.77 20.84 3.5 0 0 6.55-7.3 5.96-7.3-.6 0-3.58-1.18-3.58-1.18l14.9-6.84-4.77 9.2h-3l-5.95 6.7c6.7 1.26 9.98 2.25 16.53 6.45 5.8-.83 10.72-3.84 13.84-6.12-5.2-1.44-7.6-2.56-7-2.56.6 0 21.9 1.12 21.9 1.12s-20.9 12.92-33.1 17.65c-11.3-3.25-39.95-9.22-41.14-11z" transform="matrix(.9 0 0 1.4 35.5 137.7)" stroke="#000" stroke-width=".54" fill="#ff0"/><rect transform="matrix(.9 .4 -1 -.1 0 0)" rx="6.87" ry="3.08" height="6.15" width="13.73" y="-1416.1" x="-1065.8"/><rect transform="matrix(.9 .4 -1 -.1 0 0)" rx="6.87" ry="3.08" height="6.15" width="13.73" y="-1419.6" x="-1050"/><rect transform="matrix(.9 .3 -1 -.1 0 0)" rx="12.76" ry="5.97" height="11.94" width="25.52" y="-1636.5" x="-1253.9"/><rect transform="matrix(.9 .3 -1 -.1 0 0)" rx="5.78" ry="2.67" height="5.35" width="11.56" y="-1565.8" x="-1186.4"/><rect transform="matrix(.3 -.9 .1 1 0 0)" rx="4.93" ry="2.05" height="4.09" width="9.86" y="734.39" x="1061.7"/></g><g stroke="#000" transform="matrix(1.1 0 0 1.3 -361.4 -17.2)"><path d="M737.05 319.5c1.66 4.74.8 0-.96 7.34 1.1-2.18 2.65-3.43 3.27-3.43.94 0 1.4 0 3.28 1.4-1.7-2.5-4.68-1.86-4.53-5.6-.15-.87-1 .07-1.07.3z" transform="matrix(1.1 0 0 1.4 -30.4 -121)" stroke-width=".38" fill="#ff7300"/><rect transform="matrix(.8 -.6 .2 1 0 0)" rx=".69" ry=".51" height="18.04" width="1.37" y="717.59" x="708.8" stroke-width=".1" fill="#b2802e"/><path d="M734.06 312.16c.78-.47 6.56-11.1 34.06-9.53-15.62 5.3-25.3 16.56-27.65 17.03-1.72.47-5.47-5.78-6.4-7.5z" transform="matrix(.8 0 0 1 152.8 3.9)" stroke-width=".38" fill="#fff"/><g stroke-width=".33" fill="#007500"><path d="M-3819.3-4447.1l-7.42-2.76 15.13 11.4-2.9-5.36-4.8-3.28z" transform="matrix(-.5 -1.1 .3 .9 159.9 514.9)"/><path d="M-3819.3-4447.1l-5.3.27 12.7 7.6-2.6-4.6-4.8-3.27z" transform="matrix(.1 -.7 -.3 .5 -293.6 91)"/><path d="M-3819.9-4447.6l4.64 7.4 4.42 1.26-3.58-4.96-5.48-3.7z" transform="matrix(-1.4 -.5 1.5 .6 2287.7 1355.7)"/><path d="M-3821.8-4448.7l17.53 22.4-6.67-12.48-3.47-5.1-7.4-4.82z" transform="matrix(-.6 .3 .8 -.1 2024.7 827.2)"/><path d="M-3822.2-4449.9l-12.5-6.5 24.05 18.65-3.8-6.13-7.75-6.02z" transform="matrix(1 .1 -1.2 -.2 -766.8 -528.5)"/><path d="M-3823.5-4450.2l-5.23-1.22 17.8 13.32-3.55-5.8-9.02-6.3z" transform="matrix(1.5 .7 -1.6 -.8 -831.8 -851.1)"/><path d="M-3824.7-4451.7l-13.4-9.74 24.35 20.96-.74-3.33-10.2-7.9z" transform="matrix(1.8 1.2 -1.8 -1.3 -460.5 -944.9)"/><path d="M-3822.2-4449.3l10.6 14.4 1.7-2.6-4.54-6.34-7.76-5.46z" transform="matrix(1.4 1.4 -1.3 -1.4 359.8 -588.4)"/><path d="M-3820.2-4447l15.6 19.25-3.35-7.74-6.53-8.3-5.72-3.2z" transform="matrix(.9 1.3 -.8 -1.2 897 -233.1)"/><path d="M-3821-4448.7l12.2 17.13-.1-5.25-5.57-7-6.53-4.88z" transform="matrix(.2 .8 0 -.7 1547.6 307.2)"/><path d="M-3818.9-4446.9l1.97 4.26 4.24 2.13-1.8-3.4-4.4-3z" transform="matrix(-1.1 -1.3 1 1.3 788.4 989.4)"/><path d="M-3819.3-4447.1v5.78l6.63 1.34-1.82-3.84-4.8-3.28z" transform="matrix(-.5 -.7 .3 .6 325.6 337.1)"/><path d="M-3819.3-4447.1v5.78l6.63 1.34-1.82-3.84-4.8-3.28z" transform="matrix(-.8 -.3 .9 .4 1501.2 974.3)"/><path d="M-3819.3-4447.1v5.78l6.63 1.34-1.82-3.84-4.8-3.28z" transform="matrix(.7 .1 -.8 -.3 -238 -272.2)"/><path d="M-3819.3-4447.1l15.68 18.95-10.18-13.7-.7-1.97-4.8-3.28z" transform="matrix(.3 .6 -.1 -.6 1093 160.1)"/><path d="M-3819.3-4447.1l10.95 13.18-4.32-6.06-1.82-3.84-4.8-3.28z" transform="matrix(1.6 1.4 -1.6 -1.4 -104.7 -827)"/><path d="M-3819.3-4447.1l-14.43-12.6 18.26 16.8.98-.92-4.8-3.28z" transform="matrix(1.5 .6 -1.6 -.8 -839 -829.4)"/><path d="M-3819.3-4447.1v5.78l6.63 1.34-1.82-3.84-4.8-3.28z" transform="matrix(-.4 -.7 .2 .7 328.4 444.5)"/></g><path d="M759.4 305c-3.25 1.08-4.84 1.58-6.47 1.8.83.35 2.7.13 4.8.7-1.88.04-5.37 1.48-6.82 1.52 1 .6 4.6.02 5.24.18-1.9.12-5 1.6-6.9 1.6-.88.67 4.46-.46 6.6.8-2.22-.1-6.52 1.16-8.85.86 1.77 1.04 4.94-.1 7.6 1.02-.78.08-6.92.77-9.1.44 1.3.65 5.22.54 6.18 1.12-1.62-.2-5.92.7-7.42.33 1.35.97 5.4.43 6.16 1-2.66.94-6.7.2-8.54.45 1.24.58 2.27 1.17 3.37 1.7 1.6 1.14 6.6 4.3 9.6 5.25-3.3-.43-4.47-.5-6.6-.66l4.86 5.17c-2.02-1.1-5.6-3.16-7.98-4.23-5.26-2.58-9.05-2.13-12.7-4.3-5.12-4.98-7.97-10.9-8.22-12.48-.26-1.58-.48-4.4-5.15-2.93 4.5-.58 6.4-5.8 6.75-5.58.16.1.58 3.48 1.64 4.85.7.98 6.7 4.35 7.7 4.53 8.95-5.32 16.2-5.97 24.25-3.12z" transform="matrix(1.1 0 0 1.4 -29.6 -119.7)" stroke-width=".38" fill="#fff"/></g><g stroke="#000" stroke-width=".25" transform="matrix(1.1 0 0 1.3 -358.4 -17.2)"><rect transform="rotate(44.7)" rx="1.39" ry="5.56" height="11.13" width="2.78" y="-352.62" x="802.37" fill="#e4cc00"/><path d="M795.02 334.33c-.2-1.17-.35-1.76.24-3.3.87-1.08 1.32-2.04 2.9-3.16 1.7-.57 2.28-.06 4.53-2.14.7-1.37 1.8-2.4 2.43-3.88 1.46-2.18 1.95-3.25 3.12-4.93 1.55-1.74 2.8-3.3 3.7-4.63.98-1.72 1.85-2.78 3.25-4.2.57-1.6 1.8-2.78 3.25-4.16 1.1-2.03 3.25-4.36 4.17-6.02 1.64-1.88 2.3-2.7 3.7-4.64 1.27-.83 3.38-2.64 5.1-3.24 2.37-1 3.63-1.97 5.18-.47 1.03 1.03 2.88 2.68 1.6 3.9-.68.75-1.8.84-3.06.27-1.3-.84-1.95-3.3-3.7-1.4-1.28 1.47-1.94 2.63-3.72 4.18-.88 1.3-1.52 2.28-2.32 4.18-1.04 1.2-1.9 2.57-2.78 4.63-1.12.93-2.1 2.77-2.78 4.18-1.1 1.17-1.92 2.37-2.78 4.18-1.75 1.68-2.4 3.1-3.7 4.17-.87 1.82-2.23 3.56-3.26 4.64-.8 1.3-1.6 2.68-2.3 4.16-1.5 1.5-1.55 1.83-3.72 4.17-1.8 2.36-1.2 2.07-4.03 4.8-1.55.5-3.1.7-5.03-1.3z" fill="#006000"/><rect transform="rotate(22.2)" rx="1.39" ry="5.56" height="11.13" width="2.78" y="-20.84" x="862.29" fill="#e4cc00"/><rect transform="rotate(24)" rx="1.39" ry="5.56" height="11.13" width="2.78" y="-48.49" x="863.44" fill="#e4cc00"/><rect transform="rotate(35.9)" rx="1.39" ry="5.56" height="11.13" width="2.78" y="-224.52" x="840.48" fill="#e4cc00"/><rect transform="rotate(49.5)" rx="1.39" ry="5.56" height="11.13" width="2.78" y="-420.33" x="773.6" fill="#e4cc00"/><rect transform="rotate(45.5)" rx="1.39" ry="5.56" height="11.13" width="2.78" y="-363.86" x="799.69" fill="#e4cc00"/><rect transform="rotate(35.9)" rx="1.39" ry="5.56" height="11.13" width="2.78" y="-224.23" x="844.16" fill="#e4cc00"/><rect transform="rotate(35.9)" rx="1.39" ry="5.56" height="11.13" width="2.78" y="-224.62" x="842.29" fill="#e4cc00"/><g transform="rotate(35.9 -1.4 -10.3)" fill="#e4cc00"><rect rx="1.39" ry="5.56" height="11.13" width="2.78" y="-244.57" x="838.79"/><rect rx="1.39" ry="5.56" height="11.13" width="2.78" y="-244.68" x="840.85"/><rect rx="1.39" ry="5.56" height="11.13" width="2.78" y="-244.66" x="843"/><rect rx="1.39" ry="5.56" height="11.13" width="2.78" y="-244.7" x="845.3"/><rect rx="1.39" ry="5.56" height="11.13" width="2.78" y="-244.54" x="847.15"/><rect rx="1.39" ry="5.56" height="11.13" width="2.78" y="-245.75" x="857.84"/><rect rx="1.39" ry="5.56" height="11.13" width="2.78" y="-245.32" x="856.37"/><rect rx="1.39" ry="5.56" height="11.13" width="2.78" y="-245.1" x="854.94"/><rect rx="1.39" ry="5.56" height="11.13" width="2.78" y="-245.02" x="852.83"/><rect rx="1.39" ry="5.56" height="11.13" width="2.78" y="-244.68" x="850.76"/><rect rx="1.39" ry="5.56" height="11.13" width="2.78" y="-244.64" x="848.96"/></g><rect transform="rotate(28.5 -.2 -.8)" rx="1.39" ry="5.56" height="11.13" width="2.78" y="-115.05" x="859.81" fill="#e4cc00"/><g transform="rotate(35.9 -14.9 -15.6)" fill="#e4cc00"><rect rx="1.39" ry="5.56" height="11.13" width="2.78" y="-244.57" x="838.79"/><rect rx="1.39" ry="5.56" height="11.13" width="2.78" y="-244.68" x="840.85"/><rect rx="1.39" ry="5.56" height="11.13" width="2.78" y="-244.66" x="843"/><rect rx="1.39" ry="5.56" height="11.13" width="2.78" y="-244.7" x="845.3"/><rect rx="1.39" ry="5.56" height="11.13" width="2.78" y="-244.54" x="847.15"/><rect rx="1.39" ry="5.56" height="11.13" width="2.78" y="-245.75" x="857.84"/><rect rx="1.39" ry="5.56" height="11.13" width="2.78" y="-245.32" x="856.37"/><rect rx="1.39" ry="5.56" height="11.13" width="2.78" y="-245.1" x="854.94"/><rect rx="1.39" ry="5.56" height="11.13" width="2.78" y="-245.02" x="852.83"/><rect rx="1.39" ry="5.56" height="11.13" width="2.78" y="-244.68" x="850.76"/><rect rx="1.39" ry="5.56" height="11.13" width="2.78" y="-244.64" x="848.96"/></g></g><g stroke="#000" transform="matrix(1.1 0 0 1.1 -335.9 12.3)"><rect transform="rotate(18.8)" rx="1.43" ry=".68" height="24.19" width="2.86" y="-28.09" x="774.89" stroke-width=".17" fill="#b2802e"/><rect rx="1.43" ry=".68" height="24.19" width="2.86" y="221.74" x="727.44" stroke-width=".17" fill="#b2802e"/><rect rx="1.43" ry=".68" height="24.19" width="2.86" y="221.28" x="707.97" stroke-width=".17" fill="#b2802e"/><g stroke-width=".25" fill="#004500"><path d="M692.68 226.06c.3-4.9 4.14-6.4 10.4-4.22.53.3.98-.6.83-.68-10.02-5.27-14.48-19.46 1.57-16.9 2.4.76-2.17 2.15-5.5 2.76-4.53.57-1.7 6.83 7.25 12.63 1.96 1.5 6.33 4.6 6.33 4.6s-1.58 2.8-1.73 2.8c-.15 0-12.2-4.38-15.07-.6-1.8 3 .7 3.44.08 7.96-1.05 3.93-1.58 3.47-1.8-.07.78-2.46-2.35-6.3-2.35-8.27z" transform="matrix(.4 .6 -.7 .2 583.2 -257.3)"/><path d="M692.68 226.06c.3-4.9 4.14-6.4 10.4-4.22.53.3.98-.6.83-.68-10.02-5.27-6.2-19.17 9.86-16.6 2.4.75 1.95 1.6-1.4 2.22-4.5.57-14.1 7.07-5.14 12.87 1.96 1.5 6.33 4.6 6.33 4.6s-1.58 2.8-1.73 2.8c-.15 0-12.2-4.38-15.07-.6-1.8 3 1.1 5.8.5 10.33-1.06 3.9-1.6 3.46-1.82-.08.08-.6-2.75-8.68-2.75-10.64z" transform="matrix(.4 .6 -.7 .2 612.9 -260.6)"/><path d="M692.68 226.06c.3-4.9 4.14-6.4 10.4-4.22.53.3.98-.6.83-.68-10.02-5.27-2.63-11.92 12-9.1 1.58.2-2.1 2.17-5.44 2.78-4.52.57-12.2-1-3.24 4.82 1.96 1.5 6.33 4.6 6.33 4.6s-1.58 2.78-1.73 2.78c-.15 0-12.2-4.37-15.07-.6-1.8 3 7.07 9.44 6.47 13.96-1.06 3.92-1.6 3.46-1.8-.08.06-.6-8.74-12.3-8.74-14.26z" transform="matrix(.3 .7 -.7 .1 652.3 -262.8)"/></g><g stroke-width=".25" fill="#004500"><path d="M692.68 226.06c.3-4.9 4.14-6.4 10.4-4.22.53.3.98-.6.83-.68-10.02-5.27-10.2-16.4 5.86-13.84 2.4.76-2.1 2.17-5.43 2.78-4.52.58-6.07 3.75 2.9 9.55 1.95 1.5 6.32 4.6 6.32 4.6s-1.58 2.8-1.73 2.8c-.15 0-12.2-4.38-15.07-.6-1.8 3-1.73 3.15-2.34 7.67-1.04 3.92-1.57 3.47-1.8-.07.08-.6.08-6.03.08-8z" transform="matrix(.4 .6 -.7 .2 560.2 -256.5)"/><path d="M692.68 226.06c.3-4.9 4.14-6.4 10.4-4.22.53.3.98-.6.83-.68-10.02-5.27-10.2-16.4 5.86-13.84 2.4.76-2.1 2.17-5.43 2.78-4.52.58-6.07 3.75 2.9 9.55 1.95 1.5 6.32 4.6 6.32 4.6s-1.58 2.8-1.73 2.8c-.15 0-12.2-4.38-15.07-.6-1.8 3-1.73 3.15-2.34 7.67-1.04 3.92-1.57 3.47-1.8-.07.08-.6.08-6.03.08-8z" transform="matrix(.4 .6 -.7 .2 589.8 -260.1)"/><path d="M692.68 226.06c.3-4.9 4.14-6.4 10.4-4.22.53.3.98-.6.83-.68-10.02-5.27-10.2-16.4 5.86-13.84 2.4.76-2.1 2.17-5.43 2.78-4.52.58-6.07 3.75 2.9 9.55 1.95 1.5 6.32 4.6 6.32 4.6s-1.58 2.8-1.73 2.8c-.15 0-12.2-4.38-15.07-.6-1.8 3-1.73 3.15-2.34 7.67-1.04 3.92-1.57 3.47-1.8-.07.08-.6.08-6.03.08-8z" transform="matrix(.3 .7 -.7 .1 629.2 -262.6)"/></g><g stroke-width=".25" fill="#004500"><path d="M692.68 226.06c.3-4.9 4.14-6.4 10.4-4.22.53.3.98-.6.83-.68-10.02-5.27-14.48-19.46 1.57-16.9 2.4.76-2.17 2.15-5.5 2.76-4.53.57-1.7 6.83 7.25 12.63 1.96 1.5 6.33 4.6 6.33 4.6s-1.58 2.8-1.73 2.8c-.15 0-12.2-4.38-15.07-.6-1.8 3 .7 3.44.08 7.96-1.05 3.93-1.58 3.47-1.8-.07.78-2.46-2.35-6.3-2.35-8.27z" transform="matrix(.2 .7 -.7 0 770.2 -279)"/><path d="M692.68 226.06c.3-4.9 4.14-6.4 10.4-4.22.53.3.98-.6.83-.68-10.02-5.27-6.2-19.17 9.86-16.6 2.4.75 1.95 1.6-1.4 2.22-4.5.57-14.1 7.07-5.14 12.87 1.96 1.5 6.33 4.6 6.33 4.6s-1.58 2.8-1.73 2.8c-.15 0-12.2-4.38-15.07-.6-1.8 3 1.1 5.8.5 10.33-1.06 3.9-1.6 3.46-1.82-.08.08-.6-2.75-8.68-2.75-10.64z" transform="matrix(.1 .7 -.7 -.1 799.3 -272.1)"/><path d="M692.68 226.06c.3-4.9 4.14-6.4 10.4-4.22.53.3.98-.6.83-.68-10.02-5.27-2.63-11.92 12-9.1 1.58.2-2.1 2.17-5.44 2.78-4.52.57-12.2-1-3.24 4.82 1.96 1.5 6.33 4.6 6.33 4.6s-1.58 2.78-1.73 2.78c-.15 0-12.2-4.37-15.07-.6-1.8 3 7.07 9.44 6.47 13.96-1.06 3.92-1.6 3.46-1.8-.08.06-.6-8.74-12.3-8.74-14.26z" transform="matrix(.1 .7 -.7 -.1 837.1 -260.8)"/></g></g><g stroke="#000" transform="matrix(1.1 0 0 1.3 -361.4 -17.2)"><rect rx="1.43" ry=".68" height="24.19" width="2.86" y="222.49" x="826.05" stroke-width=".17" fill="#b2802e"/><g stroke-width=".33" fill="#007500"><path d="M-3819.3-4447.1l-7.42-2.76 15.13 11.4-2.9-5.36-4.8-3.28z" transform="matrix(2.8 -1.2 -3 .9 -1925.6 -304.3)"/><path d="M-3819.3-4447.1l-5.3.27 12.7 7.6-2.6-4.6-4.8-3.27z" transform="matrix(3.1 -.3 -3.2 0 -1573.4 -1098.1)"/><path d="M-3819.9-4447.6l4.64 7.4 4.42 1.26-3.58-4.96-5.48-3.7z" transform="matrix(-2.4 -1.9 2.1 2.2 1324 2719.9)"/><path d="M-3821.8-4448.7l17.53 22.4-6.67-12.48-3.47-5.1-7.4-4.82z" transform="matrix(-3.1 -.5 3.1 .8 2735.8 2087.1)"/><path d="M-3822.2-4449.9l-12.5-6.5 24.05 18.65-3.8-6.13-7.75-6.02z" transform="matrix(2.9 1.2 -2.7 -1.5 -448.4 -2034.5)"/><path d="M-3823.5-4450.2l-5.23-1.22 17.8 13.32-3.55-5.8-9.02-6.3z" transform="matrix(2 2.2 -1.8 -2.4 720.3 -2308)"/><path d="M-3824.7-4451.7l-13.4-9.74 24.35 20.96-.74-3.33-10.2-7.9z" transform="matrix(.3 2.8 0 -2.9 2314.7 -1927)"/><path d="M-3822.2-4449.3l10.6 14.4 1.7-2.6-4.54-6.34-7.76-5.46z" transform="matrix(-1.6 2.5 1.9 -2.3 3429.1 -741.4)"/><path d="M-3820.2-4447l15.6 19.25-3.35-7.74-6.53-8.3-5.72-3.2z" transform="matrix(-2.4 1.9 2.7 -1.6 3638.7 109.4)"/><path d="M-3821-4448.7l12.2 17.13-.1-5.25-5.57-7-6.53-4.88z" transform="matrix(-3 .8 3.2 -.4 3422.6 1206.9)"/><path d="M-3818.9-4446.9l1.97 4.26 4.24 2.13-1.8-3.4-4.4-3z" transform="matrix(2 -2.2 -2.4 2 -1931.8 727)"/><path d="M-3819.3-4447.1v5.78l6.63 1.34-1.82-3.84-4.8-3.28z" transform="matrix(1.5 -1 -1.6 .8 -633.9 -217.2)"/><path d="M-3819.3-4447.1v5.78l6.63 1.34-1.82-3.84-4.8-3.28z" transform="matrix(-1.5 -1.2 1.2 1.3 424.4 1558.9)"/><path d="M-3819.3-4447.1v5.78l6.63 1.34-1.82-3.84-4.8-3.28z" transform="matrix(1.7 .9 -1.6 -1.1 156.6 -1254.1)"/><path d="M-3819.3-4447.1l15.68 18.95-10.18-13.7-.7-1.97-4.8-3.28z" transform="matrix(-1.9 .7 2 -.5 2589.5 580.6)"/><path d="M-3819.3-4447.1l10.95 13.18-4.32-6.06-1.82-3.84-4.8-3.28z" transform="matrix(-.6 2.8 1 -2.8 2955 -1435.1)"/><path d="M-3819.3-4447.1l-14.43-12.6 18.26 16.8.98-.92-4.8-3.28z" transform="matrix(2.1 2.1 -1.9 -2.4 604.1 -2303.2)"/><path d="M-3819.3-4447.1v5.78l6.63 1.34-1.82-3.84-4.8-3.28z" transform="matrix(2 -.9 -2.1 .7 -1083.7 -148.4)"/></g></g></g></svg>