<svg xmlns="http://www.w3.org/2000/svg" height="480" width="640"><defs><clipPath id="a"><path fill-opacity=".67" d="M-85.33 0h682.67v512H-85.33z"/></clipPath></defs><g clip-path="url(#a)" transform="matrix(.9 0 0 .9 80 0)"><g stroke-width="1pt"><path fill="#006" d="M-256 0H768.02v512H-256z"/><path d="M-256 0v57.24L653.53 512h114.5v-57.23L-141.52 0H-256zM768.02 0v57.24L-141.5 512H-256v-57.23L653.53 0h114.5z" fill="#fff"/><path d="M170.68 0v512h170.66V0H170.7zM-256 170.67v170.67H768.02V170.67H-256z" fill="#fff"/><path d="M-256 204.8v102.4H768.02V204.8H-256zM204.8 0v512h102.4V0H204.8zM-256 512L85.34 341.35h76.32L-179.68 512H-256zm0-512L85.34 170.67H9.02L-256 38.17V0zm606.36 170.67L691.7 0h76.32L426.68 170.67h-76.32zM768.02 512L426.68 341.35H503l265.02 132.5v38.17z" fill="#c00"/></g></g></svg>