<svg xmlns="http://www.w3.org/2000/svg" xmlns:xlink="http://www.w3.org/1999/xlink" viewBox="0 0 213.33333 160"><defs><g id="c"><clipPath id="a"><path d="M-109 104a104 104 0 0 0 0-208h218a104 104 0 0 0 0 208z"/></clipPath><path id="b" clip-path="url(#a)" d="M-55 74a55 55 0 0 1 110 0V-74a55 55 0 0 1-110 0z"/><use xlink:href="#b" transform="rotate(90)" height="200" width="300"/></g></defs><path fill="#fff" d="M0 0h213.33v160H0z"/><path fill="#fff" d="M6.38 13.2h200.56v133.7H6.38z"/><path fill="red" d="M93.3 13.2v53.48H6.4v26.74h86.9v53.48h26.74V93.42h86.9V66.68h-86.9v-53.5H93.3z"/><use xlink:href="#c" transform="matrix(.7 0 0 .7 49.5 39.6)" height="200" width="300" fill="red"/><use xlink:href="#c" transform="matrix(.7 0 0 .7 163.9 120.5)" height="200" width="300" fill="red"/><use xlink:href="#c" transform="matrix(.7 0 0 .7 163.9 39.6)" height="200" width="300" fill="red"/><use xlink:href="#c" transform="matrix(.7 0 0 .7 49.5 120.5)" height="200" width="300" fill="red"/></svg>