<svg xmlns="http://www.w3.org/2000/svg" height="480" width="640"><defs><clipPath id="a"><path fill-opacity=".67" d="M-85.24 0h682.67v512H-85.24z"/></clipPath></defs><g clip-path="url(#a)" transform="matrix(.9 0 0 .9 79.9 0)"><path fill-rule="evenodd" fill="#fff" d="M-254.55 0h1021.8v510.88h-1021.8z"/><path d="M405.2 175.1zm-71.9-62.8l-12.76 65 88.98-.92-9.56-64.07" fill="#a11011"/><path fill-rule="evenodd" fill="#a11011" d="M276.15 77.58h27.3v6.83h-27.3zm-32.77 0h26.4v6.83h-26.4zm-33.68-.45h26.4v6.37h-26.4z"/><path d="M301.84 99.56zm-91.9-16.4v16.76h93.53v-16.4l-93.53-.35m11.4 23.67l-10.94 69.08 94.44.46-12.74-69.08m2.96 66.43z" fill="#a11011"/><path fill-rule="evenodd" fill="#d61517" d="M-256 384.54H768.2V512H-256z"/><path fill-rule="evenodd" fill="#a11011" d="M82.67 175.2h347.88v26.36H82.67z"/><path d="M95.9 198.65l-7.35 131.63-37.82.46v21.15h413.5v-21.17l-37.83.46-7.36-131.93-323.12-.63z" fill="#a11011"/><path fill="#d61517" d="M204.56 234.3v21.75h5.34V234.3h-5.34m8 0v21.75h42.72V234.3h-42.7m45.37 0v21.75h40.03V234.3h-40.04m42.7 0v21.75h8.02V234.3h-8zm66.33 21.7zm-38.32-21.73v22.2h39v-21.72l-39-.48m-11.98 71.92v23.54h29.36V306.2h-29.36m32.03 0v14.7h5.34v-14.7h-5.34m37.37 0v14.7h5.34v-14.7h-5.33m8 0v23.54h29.37V306.2h-29.36zm-74.74-23.97v21.3h5.34v-21.3h-5.34m8 0v21.3h18.7v-21.3h-18.7zm66.74 0v21.3h19.14v-21.3h-19.13m21.87 0v21.3h5.47v-21.3h-5.46zM317.9 201.9v5.77h102.93v-5.78H317.9zm-216.34 80.78v21.3h18.04v-21.3h-18.04zm65.63-.45v22.2h18.67v-22.2H167.2m21.34 0v22.2h5.34v-22.2h-5.34zm14.67-79.88v5.33h106.1v-5.33H203.2zm-107.86.46v5.33h97v-5.32h-97z"/><path d="M313.08 200.53c-10.2.75 1.35 96.04 1.37 125.75 0 0 12.18-119.5-1.37-125.75z" fill="#fff"/><path fill="#d61517" d="M84.44 184.62v14.6h344.33v-14.6H84.44z"/><path d="M196.57 200.98c-10.2.77 1.35 97.78 1.37 128.03 0 0 12.18-121.66-1.37-128.02z" fill="#fff"/><path d="M90.9 282.68v21.3h8.22v-21.3H90.9zm-.2 23.05v24.03h29.35l-.16-24-29.2-.03m28.84 23.52zm335.16 20.6zM51.55 331.68v18.57h410.32v-18.18l-410.32-.4m115.6-25.48v23.22h28.46v-23.2l-28.44-.03m27.95 22.72zm6.65-23.2v23.56h29.36l-.15-23.52-29.2-.03m28.85 23.05zm48.98-22.6v23.56h32.55l-.16-23.52-32.4-.03m32 23.04zm-172.1-72.8zm-38.2-22.62v23.12h38.9v-22.62l-38.9-.5m-3.6 22.64zm-3.8-22.18v22.66h3.88v-22.18l-3.87-.48m89.63 22.62zm-40.47-22.63v23.12h41.2v-22.63l-41.2-.5m47.94 22.64zm-4.7-22.17v22.66h4.78v-22.2l-4.78-.47m159.96 44.97zm-27.06-20.84v21.3h27.54V259.3l-27.53-.45m101.7 20.4zm-27.5-19.94v20.4h28v-19.96l-28-.43m-3.22 20.4zm-39.92-20.4v20.86h40.63v-20.4l-40.63-.45" fill="#d61517"/><path d="M315.23 183.92zm-4.7-9.26v9.46h4.78v-9.26l-4.77-.2" fill="#fff"/><path d="M325.23 255.57zm-5.15-21.3v21.76h5.24v-21.28l-5.24-.47m88.4 21.74zm-37.04-21.3v21.76h37.7v-21.3l-37.7-.45m48.42 21.3zm-7.38-21.3v21.75h7.5v-21.3l-7.5-.45m-69.37-2.84zm-23.47-21.75v22.2h23.9v-21.72l-23.9-.48m69.58 21.75zm-41.88-21.3v21.77h42.64v-21.3l-42.64-.46m70.4 21.3zm-25.27-21.75v22.2h25.72v-21.72l-25.72-.48m-190.7 71v21.75h12.07v-21.6l-12.07-.15m11.86 21.3zm2.7-20.84v21.76h14.94v-21.6l-14.93-.15M231 302.9zm48.6-20.83v21.75h19.35v-21.77l-19.35.02m19 21.3zm12.46 0zm-9.62-21.3v21.75h9.8v-21.3l-9.8-.45m-208.8-80.63v4.4h102.9v-4.4H92.63zm105.58 0v4.4h113.84v-4.4H198.2zm116.44-.46v4.4h108.9V201h-108.9zm-195.52 79.16zm-27.06-21.3v21.76h27.54v-21.3l-27.54-.45m100.38 21.3zm-24.82-21.3v21.75h25.26v-21.3l-25.26-.45m-44.7.46v21.76h42.2l.15-21.6-42.34-.15m41.45 21.3zm39.2-22.66v21.75h28l.15-21.6-28.16-.16m27.5 21.3zm45.7 0zm-43.16-21.3v21.75h43.94l-.16-21.45-43.77-.3m46.43.45v21.75h28.45l.16-21.77-28.6.02m27.94 21.3zM232.42 231zm-28.4-21.3v21.76h28.9v-21.3l-28.9-.46m73.74 21.73zm-42.8-21.74v22.2h43.56v-21.73l-43.55-.48m71.7 21.73zM281.4 209.7v22.2h25.72v-21.73l-25.72-.48" fill="#d61517"/><path d="M186.73 182.38zM113 119.58l-10.93 65 88.98-.92-10-65.44" fill="#a11011"/><path fill="#d61517" d="M220.62 123.84l-2.72 10.65h38.05v-10.66h-35.33m38.05 0v10.65H294v-10.66h-35.33zm-40.77 13.3v10.66h13.5v-10.65h-13.5m16.2 0v10.65h43.2v-10.65h-43.2m45.9 0v10.65h16.22v-10.65h-16.2zm-56.7-26.62l-2.72 10.65h10.88v-10.65h-8.16m10.9 0v10.65h43.54v-10.65H234.2m46.26 0v10.65h10.88v-10.65h-10.88zM209.9 86.56v5.33h45.83v-5.34H209.9m48.53 0v5.33h43.13v-5.34h-43.13zm-48.53 8v5.32h21.35v-5.33H209.9m24.02 0v5.33h42.7v-5.33h-42.7m45.38 0v5.33h21.35v-5.33H279.3zm-34.7-15.97v5.32h24.02v-5.32H244.6zm-160.16 98.5v5.33h21.36v-5.3H84.44zm322.98 0v5.33h21.35v-5.3h-21.35zm-280 5.58zm-20.34-4.36v4.46h20.7v-4.37l-20.7-.1m65.9 4.83zm-17.66-3.73v3.8h17.98v-3.72l-17.98-.08"/><path d="M203.25 184.34zm-5.15-10.6v10.83h5.24v-10.6l-5.24-.23" fill="#fff"/><path d="M124.3 176.1zM106.6 163v13.38h17.98v-13.1l-17.98-.28m28.3 13.1zm-9.18-12.64v12.92h9.33v-12.65l-9.33-.27m61.4 13.96zm-15.9-14.87v15.2h16.17v-14.88l-16.15-.32m-3.1 13.63zM155.8 163.2v13.26h12.6v-12.98l-12.6-.28" fill="#d61517"/><path d="M192.98 181.7zm-19.9-6.6v6.74h20.25v-6.6l-20.26-.13m122-1.37zm-74.2-66.43l-11.38-7.38H303l-10.47 8.3" fill="#a11011"/><path fill="#d61517" d="M210.92 78.58v5.32h24.02v-5.32h-24.02zm66 .45v5.33h25.38v-5.33h-25.4z"/><g fill="#d61517"><path d="M288.2 108.08zm-66.87-1.7v1.73h68.05v-1.68l-68.05-.03"/><path d="M291.72 107.17zm-74.03-1.7v1.73H293v-1.7l-75.33-.02"/><path d="M294.83 105.8zm-77.6-1.7v1.74h78.97v-1.7l-78.98-.03"/><path d="M294.83 105.8zm-77.6-1.7v1.74h78.97v-1.7l-78.98-.03m79.85-.12zm-80.74-1.7v1.74h82.16v-1.7l-82.17-.03"/></g><path d="M243.12 182.68zm-15.88-3.47v3.56h16.16v-3.48l-16.16-.07m55.97 3.48zm-13.63-3.47v3.56h13.88v-3.48l-13.88-.07M117.4 231.9zM95.7 209.7v22.66h22.08v-22.18l-22.08-.48m147.16-32.25zm-30.2-13.72v14.02h30.74v-13.72l-30.73-.3m89.9 13.72zm-25.6-13.72v14.02H303v-13.72l-26.06-.3m-3.65 13.72zm-7.37-13.72v14.02h7.5v-13.72l-7.5-.3" fill="#d61517"/><path d="M226.7 182.14zm-16.76-7.04v7.2H227v-7.04l-17.06-.16" fill="#a11011"/><path fill="#d61517" d="M175.2 177.1v5.77h21.35v-5.78H175.2m29.36 0v5.77h21.36v-5.78h-21.36z"/><path d="M304.02 182.15zm-20.35-6.6v6.74h20.7v-6.6l-20.7-.14" fill="#a11011"/><path d="M165.23 231.9zm-44.58-21.75v22.2h45.37v-21.72l-45.37-.48m70.45 21.74zm-23.04-21.75v22.2h23.45v-21.72l-23.44-.48m86.92-48.6zm-40.03-11.93v12.2h40.74V149.9l-40.75-.27M298.2 162zm-40.02-11.93v12.2h40.74v-11.93l-40.74-.26" fill="#d61517"/><path fill-rule="evenodd" fill="#a11011" d="M168.74 88.96h23.67v6.83h-23.66zm-34.6-.45h26.4v7.74h-26.4zm-29.12.46h20.94v6.83h-20.94z"/><path d="M189.57 109.24zm-76.62 10.8l-8.14-11.47 87.62.45-10.5 9.58" fill="#a11011"/><path fill="#d61517" d="M105.8 102.54v5.33h18.68v-5.33H105.8m21.35 0v5.33h42.7v-5.33h-42.7m45.38 0v5.33h18.7v-5.33h-18.7zm-66.73-12.4v4.68h18.68v-4.68H105.8m29.36 0v4.68h24.02v-4.68h-24.02zm34.7.45v4.03h21.35V90.6h-21.34z"/><path fill-rule="evenodd" fill="#a11011" d="M105.02 95.8h87.4v13.64H105z"/><path d="M142.3 160.22zm-33.86-10.42v10.65h34.45v-10.42l-34.45-.23m76.44 10.42zm-39.8-10.42v10.65h40.5v-10.42l-40.5-.23m1.54-48.6zm-40.48-3.92v4h41.2v-3.9l-41.2-.1M124.8 147zm-14.54-11.04v11.3h14.8V136.2l-14.8-.23m56.96 11.07zm-39.3-9.8v10h40v-9.77l-40-.22m55.63 10.22zm-12.75-11.05v11.3h12.98v-11.05l-12.98-.24m-25.77-1.68zm-32.95-9.8v10h33.54v-9.77l-33.54-.22m69.74 9.8zm-33.32-9.8v10h33.9v-9.78l-33.9-.22m23.03-2.37zm-48.97-3.93v4h49.84v-3.9l-49.84-.1m57.9 3.92zm-6.94-3.93v4h7.06v-3.9l-7.06-.1m-52.7 3.92zm-7.83-3.93v4h7.96v-3.9l-7.97-.1m77.8-17.47zm-40.56-3.92v4h41.27v-3.9l-41.26-.1m-23.7 12.53zm-19.92-5.58v5.7h20.26v-5.58l-20.25-.12m60.13 4.95zm-35.26-5.15v5.26h35.9v-5.14l-35.9-.12m59.2 5.16zm-19.8-4.96v5.07h20.15v-4.97l-20.15-.1" fill="#d61517"/><g fill="#d61517"><path d="M178.97 116.54zm-66.88-1.5v1.53h68.04v-1.5l-68.05-.04"/><path d="M182.48 115.73zm-74.03-1.5v1.53h75.33v-1.5l-75.33-.04"/><path d="M185.6 114.5zm-77.62-1.5v1.55h78.98v-1.5l-78.98-.04"/><path d="M185.6 114.5zm-77.62-1.5v1.55h78.98v-1.5l-78.98-.04m79.85-.1zm-80.74-1.5v1.52h82.15v-1.5l-82.16-.03"/></g><path d="M354.2 182.67zm-15-3.92v4h15.26v-3.9l-15.26-.1m65.37 3.46zm-22.6-3.9v4h23v-3.92l-23-.1m24.92-1.7zm-20.18-12.32v12.58h20.53v-12.3l-20.53-.28m-2.83 12.3zm-8.25-12.75v13.04h8.4V164.1l-8.4-.3M340.5 177zm-16.77-13.65v13.94h17.07v-13.65l-17.08-.3M354.27 177zm-10.6-13.84v14.13h10.8v-13.83l-10.8-.3" fill="#d61517"/><path d="M338.66 183.03zM321 175.1v8.1h17.97v-7.92L321 175.1" fill="#a11011"/><path fill="#d61517" d="M285.54 177.1v5.77h23.6v-5.78h-23.6m31.48 0v5.77h21v-5.78h-21zM298.25 162zm-38.13-11.93v12.2h38.8v-11.93l-38.8-.26"/><path fill-rule="evenodd" fill="#a11011" d="M387.66 88.85h23.67v6.83h-23.67zm-34.6-.45h26.4v7.73h-26.4zm-29.12.45h20.94v6.83h-20.94z"/><path d="M408.5 109.13zm-76.63 10.8l-8.14-11.47 87.61.45-10.5 9.6" fill="#a11011"/><path fill="#d61517" d="M324.72 102.43v5.33h18.68v-5.33h-18.68m21.35 0v5.33h42.7v-5.33h-42.7m45.38 0v5.33h18.7v-5.33h-18.7zm-66.73-12.4v4.04h18.68v-4.04h-18.68m29.36 0v4.04h24.02v-4.04h-24.02zm34.7.45v3.4h21.35v-3.4h-21.35z"/><path fill-rule="evenodd" fill="#a11011" d="M323.94 95.68h87.4v13.65h-87.4z"/><path d="M361.83 160.1zm-35.37-11.05v11.3h36V149.3l-36-.24m77.38 11.04zm-38.05-11.05v11.3h38.7V149.3l-38.72-.24m-2.74-47.97zm-37.95-3.93v4h38.6v-3.9l-38.6-.1m18.63 49.73zm-14.54-11.05v11.3H344V136.1l-14.8-.24m56.96 11.04zm-38.66-11.05v11.3h39.35V136.1l-39.35-.24m54.97 11.5zm-12.75-11.06v11.3h12.98v-11.05l-12.98-.24m-25.13-2.9zm-33.6-7.9v8.06h34.2v-7.9l-34.2-.17m69.75 7.9zm-32.7-7.9v8.06h33.28v-7.9l-33.27-.17m22.4-3.02zm-48.98-3.92v4h49.84v-3.9l-49.84-.1m57.9 3.92zm-6.93-3.92v4h7.06v-3.9l-7.05-.1m-52.7 3.92zm-7.83-3.92v4h7.97v-3.9l-7.98-.1m77.77-17.47zm-41.83-3.93v4h42.56v-3.9l-42.56-.1M344.2 108.4zm-18.65-6.22v6.36h18.97v-6.23l-18.97-.12m58.83 6.23zm-36.53-5.77v5.9h37.18v-5.77l-37.18-.13m61.74 5.78zm-21.7-5.58v5.7h22.08v-5.58l-22.08-.12" fill="#d61517"/><g fill="#d61517"><path d="M397.9 116.42zm-66.88-1.5v1.54h68.05v-1.5l-68.05-.04"/><path d="M401.4 115.62zm-74.02-1.5v1.53h75.33v-1.5l-75.33-.04"/><path d="M404.52 114.4zm-77.6-1.5v1.53h78.97v-1.5l-79-.04"/><path d="M404.52 114.4zm-77.6-1.5v1.53h78.97v-1.5l-79-.04m79.86-.12zm-80.74-1.5v1.53h82.16v-1.5L326 111.3"/></g><g fill="#d61517"><path d="M397.9 115.16zm-66.88-.38v.4h68.05v-.4h-68.05"/><path d="M401.4 114.96zm-74.02-.4v.4h75.33v-.38h-75.33"/><path d="M404.52 114.65zm-77.6-.4v.4h78.97v-.38h-79"/><path d="M404.52 114.65zm-77.6-.4v.4h78.97v-.38h-79m79.86-.04zm-80.74-.38v.4h82.16v-.4H326"/></g><path fill-rule="evenodd" fill="gray" d="M232.07 462.6h19.95v28.96h-19.95z"/><path fill-rule="evenodd" fill="#ffc500" d="M234.64 464.54h17.38v25.1h-17.38z"/><path fill-rule="evenodd" fill="gray" d="M237.86 469.68h11.6v17.38h-11.6z"/><path fill-rule="evenodd" fill="#d61517" d="M240.44 471.62h7.08v13.52h-7.08z"/><g fill-rule="evenodd" stroke-width="1pt"><path fill="gray" d="M231.44 474.2h7.73v9.02h-7.73z"/><path fill="#d61517" d="M231.44 476.13h8.37v5.15h-8.36z"/></g><g fill-rule="evenodd" stroke-width="1pt"><path fill="gray" d="M261.38 503h-9.65v-75.32h9.65z"/><path fill="#ffc500" d="M259.44 501.07h-5.8v-71.45h5.8z"/></g><path fill-rule="evenodd" fill="gray" d="M283.1 407.48l-4.68 4.44-25.2-23.86 4.7-4.44z"/><path fill-rule="evenodd" fill="gray" d="M261 432.1l-4.42-4.84 21.94-24.02 4.43 4.86z"/><path fill-rule="evenodd" fill="#ffc500" d="M254.33 388.4l3.83-3.7 23.86 22.9-3.84 3.66z"/><path fill-rule="evenodd" fill="#ffc500" d="M259.7 432.2l-3.55-3.92 22.1-24.45 3.54 3.93z"/><path fill-rule="evenodd" fill="gray" d="M230.87 410.55l4.43-4.36 21.94 21.55-4.44 4.36z"/><path fill-rule="evenodd" fill="gray" d="M254.87 383.84l4.8 4.65-25.77 25-4.8-4.66z"/><path fill-rule="evenodd" fill="#ffc500" d="M235.3 411.5l-3.73-3.75 23.27-23.26 3.74 3.73z"/><path fill-rule="evenodd" fill="gray" d="M254.14 336.22h5.15v62.16h-5.16z"/><path fill-rule="evenodd" fill="#ffc500" d="M255 337.05h3.55v60.1H255zm-24.57 71.9l4-3.98 24.83 24.84-4 4z"/><g fill-rule="evenodd" transform="matrix(1.3 0 0 1.1 -279.6 -7.7)" stroke-width="1pt" fill="#a11011"><path d="M477.98 275.98h34.57v44.3h-34.57z"/><rect ry="18.3" height="36.6" width="34.31" y="258.3" x="478.13"/></g><g fill-rule="evenodd" transform="matrix(1.2 0 0 1 -244.6 4)" stroke-width="1pt" fill="#d61517"><path d="M477.98 275.98h34.57v44.3h-34.57z"/><rect ry="18.3" height="36.6" width="34.31" y="258.3" x="478.13"/></g><g fill-rule="evenodd" transform="matrix(.9 0 0 1 -87.9 23.9)" stroke-width="1pt" fill="#a11011"><path d="M477.98 275.98h34.57v44.3h-34.57z"/><rect ry="18.3" height="36.6" width="34.31" y="258.3" x="478.13"/></g><path fill-rule="evenodd" fill="#d61517" d="M355.98 289.23h28.04v40.45h-28.04z"/><rect fill-rule="evenodd" ry="16.71" height="33.41" width="27.83" y="273.09" x="356.11" fill="#d61517"/><g fill-rule="evenodd" transform="matrix(1.4 0 0 1.1 -413 -8.7)" stroke-width="1pt" fill="#a11011"><path d="M477.98 275.98h34.57v44.3h-34.57z"/><rect ry="18.3" height="36.6" width="34.31" y="258.3" x="478.13"/></g><g fill-rule="evenodd" transform="matrix(1.3 0 0 1 -377 2.9)" stroke-width="1pt" fill="#d61517"><path d="M477.98 275.98h34.57v44.3h-34.57z"/><rect ry="18.3" height="36.6" width="34.31" y="258.3" x="478.13"/></g><g fill-rule="evenodd" transform="matrix(.9 0 0 1 -215.8 22.9)" stroke-width="1pt" fill="#a11011"><path d="M477.98 275.98h34.57v44.3h-34.57z"/><rect ry="18.3" height="36.6" width="34.31" y="258.3" x="478.13"/></g><g fill-rule="evenodd" transform="matrix(.8 0 0 .9 -158 36.2)" stroke-width="1pt" fill="#d61517"><path d="M477.98 275.98h34.57v44.3h-34.57z"/><rect ry="18.3" height="36.6" width="34.31" y="258.3" x="478.13"/></g><g fill-rule="evenodd" transform="matrix(1.3 0 0 1.1 -515.4 -8.6)" stroke-width="1pt" fill="#a11011"><path d="M477.98 275.98h34.57v44.3h-34.57z"/><rect ry="18.3" height="36.6" width="34.31" y="258.3" x="478.13"/></g><g fill-rule="evenodd" transform="matrix(1.3 0 0 1 -479.9 3.1)" stroke-width="1pt" fill="#d61517"><path d="M477.98 275.98h34.57v44.3h-34.57z"/><rect ry="18.3" height="36.6" width="34.31" y="258.3" x="478.13"/></g><g fill-rule="evenodd" transform="matrix(.9 0 0 1 -320.9 23)" stroke-width="1pt" fill="#a11011"><path d="M477.98 275.98h34.57v44.3h-34.57z"/><rect ry="18.3" height="36.6" width="34.31" y="258.3" x="478.13"/></g><g fill-rule="evenodd" transform="matrix(.8 0 0 .9 -264 36.4)" stroke-width="1pt" fill="#d61517"><path d="M477.98 275.98h34.57v44.3h-34.57z"/><rect ry="18.3" height="36.6" width="34.31" y="258.3" x="478.13"/></g><path d="M233.03 322.27v2.3h6.3v-2.3h-6.3zm-111.84-1.6v2.3h6.28v-2.3h-6.3zm0-17.23v2.3h6.28v-2.3h-6.3zm.15-16.25v2.3h6.3v-2.3h-6.3zm38.3 34.1v2.3h6.3v-2.3h-6.3zm-.16-17.38v2.3h6.28v-2.3h-6.3zm-.5-16.4v2.3h6.3v-2.3H159zm83.1-9.5l1.63-1.63-4.45-4.45-1.64 1.63 4.45 4.45zm29.06 44.1v2.3h6.3v-2.3h-6.3zM233.2 303.6v2.3h6.28v-2.3h-6.3zm-.5-16.57v2.3h6.3v-2.3h-6.3zm38.46 16.9v2.3h6.3v-2.3h-6.3zm.33-17.7v2.3h6.28v-2.3h-6.3zm76.74 36.68v2.32h6.3v-2.3h-6.3zm0-19.3v2.3h6.3v-2.3h-6.3zm.16-18.34v2.3h6.3v-2.3h-6.3zm37.18 37.8v2.32h6.3v-2.3h-6.3zm-.16-19.3v2.3h6.3v-2.3h-6.3zm.16-17.86v2.3h6.3v-2.3h-6.3z" fill="#a11011"/><g fill-rule="evenodd" transform="matrix(.6 0 0 .5 88.2 34.4)" stroke-width="1pt" fill="#a11011"><path d="M477.98 275.98h34.57v44.3h-34.57z"/><rect ry="18.3" height="36.6" width="34.31" y="258.3" x="478.13"/></g><g fill-rule="evenodd" transform="matrix(.5 0 0 .5 103.1 39.5)" stroke-width="1pt" fill="#d61517"><path d="M477.98 275.98h34.57v44.3h-34.57z"/><rect ry="18.3" height="36.6" width="34.31" y="258.3" x="478.13"/></g><g fill-rule="evenodd" transform="matrix(.4 0 0 .4 170 48.3)" stroke-width="1pt" fill="#a11011"><path d="M477.98 275.98h34.57v44.3h-34.57z"/><rect ry="18.3" height="36.6" width="34.31" y="258.3" x="478.13"/></g><g fill-rule="evenodd" transform="matrix(.3 0 0 .4 193.9 54.1)" stroke-width="1pt" fill="#d61517"><path d="M477.98 275.98h34.57v44.3h-34.57z"/><rect ry="18.3" height="36.6" width="34.31" y="258.3" x="478.13"/></g><path d="M371.2 265.24h-2.3v6.3h2.3v-6.3zm-97.87 8.82l-1.64-1.64-4.45 4.45 1.63 1.64 4.45-4.44zm113.13-.16l-1.64-1.64-4.45 4.45 1.64 1.65 4.46-4.45zm-28.2 4.3l1.64-1.64-4.45-4.45-1.63 1.64 4.45 4.45zm-228.9-7.54l-1.63 1.64 4.45 4.45 1.64-1.64-4.45-4.44zm127.12-5.9h-2.3v6.3h2.3v-6.3zm-114.15 7.26h2.3v-6.3h-2.3v6.3zm12.44 4.2l1.64 1.64 4.45-4.45-1.63-1.62-4.45 4.45zm203.86-100.36v7h22.9v-7h-22.9z" fill="#a11011"/><path fill="#d61517" d="M359.37 177.1v5.32h21.35v-5.33h-21.35z"/><g fill-rule="evenodd" stroke-width="1pt"><g transform="matrix(.6 0 0 .5 -58.1 30.4)" fill="#a11011"><path d="M477.98 275.98h34.57v44.3h-34.57z"/><rect ry="18.3" height="36.6" width="34.31" y="258.3" x="478.13"/></g><g transform="matrix(.6 0 0 .5 -41.3 35.6)" fill="#d61517"><path d="M477.98 275.98h34.57v44.3h-34.57z"/><rect ry="18.3" height="36.6" width="34.31" y="258.3" x="478.13"/></g><g transform="matrix(.5 0 0 .4 34.3 44.6)" fill="#a11011"><path d="M477.98 275.98h34.57v44.3h-34.57z"/><rect ry="18.3" height="36.6" width="34.31" y="258.3" x="478.13"/></g><g transform="matrix(.4 0 0 .4 61.4 50.6)" fill="#d61517"><path d="M477.98 275.98h34.57v44.3h-34.57z"/><rect ry="18.3" height="36.6" width="34.31" y="258.3" x="478.13"/></g></g><path d="M244.32 176.14v7h25.42v-7h-25.42z" fill="#a11011"/><path fill="#d61517" d="M244.6 177.55v5.33h24.02v-5.33H244.6z"/><g fill-rule="evenodd" stroke-width="1pt"><g transform="matrix(.6 0 0 .5 -169.9 30.4)" fill="#a11011"><path d="M477.98 275.98h34.57v44.3h-34.57z"/><rect ry="18.3" height="36.6" width="34.31" y="258.3" x="478.13"/></g><g transform="matrix(.6 0 0 .5 -153.1 35.6)" fill="#d61517"><path d="M477.98 275.98h34.57v44.3h-34.57z"/><rect ry="18.3" height="36.6" width="34.31" y="258.3" x="478.13"/></g><g transform="matrix(.5 0 0 .4 -77.5 44.6)" fill="#a11011"><path d="M477.98 275.98h34.57v44.3h-34.57z"/><rect ry="18.3" height="36.6" width="34.31" y="258.3" x="478.13"/></g><g transform="matrix(.4 0 0 .4 -50.4 50.6)" fill="#d61517"><path d="M477.98 275.98h34.57v44.3h-34.57z"/><rect ry="18.3" height="36.6" width="34.31" y="258.3" x="478.13"/></g></g><path d="M128.32 173.9v8.4h22.34v-8.4h-22.34z" fill="#a11011"/><path d="M149.3 182.6zm-19.47-7.5v7.65h19.8v-7.48l-19.8-.16" fill="#d61517"/></g></svg>