<svg xmlns="http://www.w3.org/2000/svg" height="480" width="640" version="1"><defs><clipPath id="a"><path fill-opacity=".67" d="M0 0h640v480H0z"/></clipPath></defs><g fill-rule="evenodd" stroke-width="1pt" clip-path="url(#a)"><path fill="#fff" d="M-40 0h720v480H-40z"/><path fill="#329203" d="M-40 320h720v160H-40z"/><path fill="#e77300" d="M-40 0h720v160H-40z"/><ellipse rx="305" ry="305" transform="matrix(.4 0 0 .4 173.7 91.8)" cy="367.47" cx="362.9" fill="#08399c"/><path d="M426.58 212.4c.67 2.46.8 3.77 1.3 6.12-4.82 1.5-7.33 4.7-6.75 7.92.48 2.9 2.63 7.02 8.66 6.14.15 2.4.22 3.77.23 6.32-18.23.04-37.44-1-55.37-2.6-13.23-1.14-16.38 2.53-23.25 3.1-7.97.67-14.25.2-30.74.84 16.16-3.33 22.5-5.35 30-6.56 7.2-1.1 9.96 1.5 23.36-3.72 16.92-6.72 34.98-12.74 52.56-17.56z" fill="#fff"/><path d="M293.62 134.15c2.46-.66 3.77-.8 6.13-1.26 1.46 4.82 4.65 7.35 7.87 6.8 2.9-.47 7.04-2.6 6.2-8.63 2.4-.14 3.77-.2 6.32-.2-.07 18.23-1.25 37.44-2.95 55.36-1.24 13.2 2.4 16.4 2.95 23.27.6 7.98.08 14.26.62 30.75-3.22-16.18-5.2-22.54-6.36-30.03-1.06-7.2 1.56-9.96-3.56-23.4-6.6-16.96-12.52-35.06-17.22-52.67zM321.63 130.75c2.55 0 3.85.2 6.25.34.17 5.04 2.62 8.3 5.87 8.58 2.92.3 7.46-.7 8.2-6.75 2.35.48 3.7.77 6.16 1.43-4.72 17.6-10.77 35.87-17 52.76-4.57 12.46-1.85 16.46-3.1 23.25-1.45 7.87-3.55 13.8-7.24 29.9 1-16.47.73-23.13 1.52-30.66.8-7.23 4.05-9.22 2.53-23.52-2.05-18.1-3.12-37.1-3.17-55.33z" fill="#fff"/><path d="M349.87 134.7c2.46.65 3.67 1.2 5.95 1.95-1.14 4.92.38 8.7 3.46 9.8 2.74 1.05 7.38 1.27 9.66-4.4 2.15 1.08 3.37 1.7 5.58 2.98-9.12 15.8-19.68 31.87-30.06 46.57-7.64 10.86-6.04 15.43-9 21.67-3.44 7.22-7 12.42-14.72 27 5.23-15.65 6.68-22.15 9.4-29.22 2.64-6.8 6.3-7.88 8.5-22.08 2.7-18 6.57-36.65 11.23-54.27z" fill="#fff"/><path d="M376.13 145.8c2.2 1.28 3.24 2.1 5.24 3.42-2.36 4.46-1.88 8.5.8 10.38 2.4 1.72 6.82 3.12 10.48-1.76 1.8 1.6 2.82 2.52 4.62 4.32-12.9 12.9-27.24 25.7-41.07 37.22-10.18 8.52-9.82 13.35-14.28 18.6-5.2 6.1-9.98 10.2-21.2 22.3 9.1-13.77 12.17-19.68 16.62-25.8 4.3-5.88 8.12-6 13.93-19.13 7.25-16.7 15.8-33.72 24.86-49.54z" fill="#fff"/><path d="M398.5 163.2c1.82 1.8 2.6 2.86 4.2 4.65-3.43 3.7-4 7.74-1.9 10.23 1.88 2.27 5.8 4.77 10.58 1 1.33 2 2.08 3.14 3.36 5.35-15.76 9.15-32.93 17.84-49.25 25.43-12.03 5.62-12.92 10.37-18.6 14.32-6.57 4.55-12.25 7.28-26.2 16.08 12.32-10.96 16.8-15.88 22.7-20.66 5.66-4.57 9.37-3.7 18.37-14.9 11.3-14.3 23.92-28.54 36.74-41.5z" fill="#fff"/><path d="M416 186.35c1.3 2.2 1.76 3.44 2.83 5.58-4.28 2.67-5.9 6.42-4.5 9.38 1.2 2.7 4.32 6.13 9.93 3.75.76 2.27 1.18 3.6 1.83 6.05-17.62 4.68-36.47 8.56-54.2 11.6-13.1 2.26-15.2 6.6-21.7 8.92-7.55 2.67-13.75 3.8-29.52 8.64 14.78-7.34 20.4-10.9 27.32-13.98 6.68-2.92 10.03-1.1 21.65-9.55 14.65-10.82 30.6-21.24 46.36-30.38zm-201.3 80.97c-.67-2.46-.8-3.77-1.28-6.13 4.83-1.47 7.36-4.67 6.8-7.9-.46-2.9-2.58-7.02-8.62-6.18-.14-2.4-.2-3.77-.2-6.32 18.24.07 37.44 1.24 55.36 2.94 13.22 1.22 16.4-2.43 23.27-2.97 7.98-.6 14.26-.1 30.75-.64-16.18 3.23-22.54 5.2-30.03 6.37-7.2 1.08-9.96-1.55-23.4 3.58-16.95 6.62-35.05 12.53-52.66 17.24z" fill="#fff"/><path d="M430.16 240.36c.02 2.55-.17 3.85-.3 6.25-5.04.22-8.3 2.7-8.55 5.94-.27 2.93.75 7.46 6.8 8.15-.45 2.35-.73 3.7-1.38 6.16-17.63-4.6-35.94-10.53-52.86-16.65-12.5-4.47-16.48-1.72-23.28-2.92-7.88-1.4-13.83-3.47-29.93-7.05 16.47.9 23.12.58 30.66 1.32 7.25.76 9.27 3.98 23.55 2.37 18.08-2.18 37.08-3.4 55.3-3.56z" fill="#fff"/><path d="M426.4 268.65c-.64 2.47-1.16 3.67-1.9 5.96-4.93-1.1-8.7.45-9.8 3.53-1.02 2.76-1.2 7.4 4.46 9.63-1.05 2.16-1.67 3.4-2.93 5.6-15.85-9-32-19.47-46.77-29.75-10.9-7.55-15.46-5.93-21.72-8.84-7.25-3.4-12.47-6.93-27.1-14.55 15.68 5.14 22.2 6.54 29.28 9.2 6.8 2.6 7.92 6.25 22.13 8.4 18.03 2.55 36.7 6.3 54.35 10.85z" fill="#fff"/><path d="M415.43 295.03c-1.25 2.22-2.08 3.25-3.38 5.26-4.48-2.35-8.52-1.83-10.37.86-1.7 2.4-3.1 6.83 1.82 10.46-1.58 1.8-2.5 2.83-4.3 4.65-12.96-12.8-25.86-27.1-37.46-40.85-8.58-10.13-13.4-9.74-18.7-14.17-6.12-5.15-10.25-9.92-22.4-21.07 13.8 9.02 19.74 12.06 25.9 16.47 5.9 4.28 6.03 8.08 19.2 13.82 16.76 7.15 33.82 15.6 49.7 24.56z" fill="#fff"/><path d="M398 317.7c-1.78 1.8-2.85 2.6-4.63 4.2-3.72-3.42-7.76-3.97-10.24-1.85-2.26 1.87-4.75 5.8-.95 10.57-2 1.34-3.15 2.1-5.35 3.38-9.2-15.73-17.97-32.86-25.6-49.15-5.68-12-10.43-12.88-14.4-18.53-4.58-6.57-7.33-12.24-16.18-26.15 11 12.28 15.94 16.75 20.75 22.6 4.6 5.67 3.73 9.37 14.97 18.33C370.7 292.34 385 304.92 398 317.7z" fill="#fff"/><path d="M375.1 335.17c-2.2 1.3-3.43 1.77-5.57 2.85-2.7-4.27-6.45-5.85-9.4-4.45-2.67 1.2-6.1 4.36-3.68 9.96-2.27.77-3.58 1.2-6.04 1.86-4.78-17.6-8.76-36.42-11.9-54.14-2.33-13.07-6.7-15.15-9.04-21.64-2.7-7.54-3.9-13.73-8.8-29.47 7.42 14.73 11.02 20.33 14.13 27.24 2.94 6.65 1.14 10 9.66 21.6 10.9 14.58 21.4 30.45 30.64 46.17z" fill="#fff"/><path d="M348.6 346.03c-2.47.68-3.78.82-6.13 1.3-1.5-4.8-4.7-7.32-7.92-6.74-2.9.48-7.02 2.62-6.14 8.66-2.38.16-3.76.23-6.3.24-.07-18.23.97-37.44 2.55-55.37 1.13-13.23-2.54-16.37-3.13-23.25-.66-7.98-.2-14.27-.85-30.75 3.34 16.16 5.36 22.5 6.58 29.98 1.12 7.2-1.48 9.98 3.74 23.38 6.73 16.9 12.76 34.97 17.6 52.55zM320.04 349.63c-2.55 0-3.85-.2-6.25-.33-.2-5.04-2.65-8.3-5.9-8.58-2.92-.3-7.46.7-8.18 6.77-2.36-.48-3.7-.77-6.17-1.43 4.7-17.6 10.7-35.9 16.9-52.8 4.55-12.46 1.82-16.46 3.04-23.25 1.43-7.87 3.53-13.82 7.18-29.9-.98 16.47-.68 23.12-1.46 30.66-.8 7.24-4.03 9.24-2.48 23.53 2.1 18.1 3.22 37.1 3.3 55.33z" fill="#fff"/><path d="M291.8 345.74c-2.46-.65-3.67-1.18-5.95-1.93 1.12-4.9-.4-8.7-3.48-9.8-2.75-1.03-7.4-1.24-9.65 4.42-2.15-1.06-3.38-1.7-5.6-2.96 9.1-15.8 19.62-31.9 29.97-46.64 7.6-10.87 6-15.44 8.93-21.68 3.43-7.23 7-12.44 14.67-27.03-5.2 15.66-6.63 22.17-9.33 29.25-2.63 6.8-6.28 7.88-8.47 22.1-2.64 18-6.47 36.66-11.1 54.3z" fill="#fff"/><path d="M265.43 334.64c-2.2-1.26-3.24-2.1-5.25-3.4 2.36-4.47 1.87-8.52-.82-10.38-2.38-1.7-6.8-3.12-10.46 1.77-1.8-1.6-2.83-2.5-4.63-4.3 12.87-12.92 27.2-25.75 41.02-37.3 10.16-8.52 9.8-13.34 14.25-18.6 5.18-6.1 9.97-10.22 21.17-22.32-9.08 13.78-12.15 19.7-16.6 25.83-4.3 5.88-8.1 6-13.9 19.15-7.22 16.7-15.75 33.73-24.8 49.56z" fill="#fff"/><path d="M242.8 317.05c-1.8-1.8-2.58-2.86-4.18-4.65 3.44-3.7 4-7.74 1.9-10.23-1.86-2.28-5.77-4.78-10.57-1-1.33-2-2.07-3.17-3.35-5.37 15.78-9.13 32.96-17.8 49.3-25.35 12.03-5.6 12.93-10.36 18.6-14.3 6.6-4.53 12.27-7.26 26.24-16.03-12.35 10.94-16.84 15.85-22.72 20.63-5.7 4.55-9.4 3.68-18.4 14.87-11.32 14.27-23.98 28.5-36.82 41.43z" fill="#fff"/><path d="M225.4 294c-1.27-2.2-1.74-3.45-2.8-5.6 4.28-2.66 5.9-6.4 4.5-9.37-1.2-2.68-4.32-6.12-9.93-3.74-.76-2.3-1.18-3.6-1.84-6.06 17.62-4.68 36.47-8.55 54.2-11.58 13.1-2.25 15.2-6.6 21.7-8.92 7.56-2.66 13.76-3.8 29.53-8.62-14.78 7.33-20.4 10.9-27.33 13.97-6.68 2.9-10.02 1.1-21.65 9.53-14.66 10.8-30.6 21.23-46.37 30.36z" fill="#fff"/><path d="M267.34 144.64c2.2-1.27 3.44-1.73 5.6-2.8 2.65 4.3 6.4 5.93 9.36 4.56 2.68-1.2 6.13-4.3 3.78-9.92 2.28-.75 3.6-1.16 6.06-1.8 4.6 17.63 8.38 36.5 11.33 54.25 2.2 13.1 6.54 15.22 8.83 21.74 2.63 7.56 3.74 13.76 8.5 29.56-7.28-14.8-10.82-20.45-13.86-27.4-2.88-6.68-1.05-10.02-9.45-21.7-10.75-14.7-21.1-30.67-30.16-46.5z" fill="#fff"/><path d="M211.28 238.77c0-2.55.22-3.85.37-6.24 5.05-.16 8.32-2.6 8.62-5.84.3-2.93-.66-7.48-6.7-8.24.48-2.35.78-3.7 1.45-6.15 17.58 4.82 35.82 10.96 52.67 17.27 12.44 4.62 16.45 1.92 23.23 3.2 7.87 1.5 13.8 3.62 29.85 7.4-16.46-1.1-23.1-.85-30.64-1.68-7.24-.85-9.2-4.1-23.52-2.65-18.1 1.97-37.1 2.96-55.34 2.92zM215.3 210.76c.66-2.46 1.2-3.66 1.96-5.94 4.92 1.15 8.7-.36 9.83-3.43 1.03-2.76 1.26-7.4-4.4-9.7 1.08-2.13 1.72-3.35 3-5.56 15.76 9.16 31.8 19.76 46.5 30.18 10.83 7.67 15.4 6.08 21.63 9.05 7.22 3.46 12.4 7.04 26.96 14.8-15.64-5.28-22.14-6.74-29.2-9.47-6.78-2.67-7.86-6.32-22.06-8.58-18-2.73-36.63-6.65-54.24-11.36z" fill="#fff"/><path d="M226.53 184.44c1.27-2.2 2.1-3.23 3.43-5.23 4.45 2.4 8.5 1.92 10.38-.76 1.72-2.38 3.15-6.8-1.72-10.47 1.6-1.8 2.52-2.82 4.33-4.6 12.85 12.92 25.6 27.32 37.08 41.2 8.5 10.2 13.3 9.86 18.56 14.34 6.06 5.22 10.14 10.02 22.2 21.3-13.74-9.16-19.63-12.25-25.75-16.72-5.86-4.34-5.95-8.14-19.08-14-16.68-7.3-33.66-15.93-49.44-25.04zM244.6 161.55c1.8-1.8 2.88-2.56 4.7-4.14 3.66 3.48 7.7 4.1 10.2 2 2.3-1.83 4.84-5.72 1.1-10.55 2.02-1.3 3.2-2.04 5.4-3.3 8.98 15.87 17.5 33.13 24.9 49.53 5.48 12.1 10.22 13.04 14.1 18.74 4.48 6.64 7.15 12.35 15.8 26.4-10.83-12.45-15.7-17-20.42-22.92-4.5-5.73-3.6-9.42-14.7-18.55-14.16-11.45-28.26-24.24-41.08-37.2z" fill="#fff"/></g></svg>