<svg xmlns="http://www.w3.org/2000/svg" height="480" width="640"><defs><clipPath id="a"><path fill-opacity=".67" d="M0 64h512v384H0z"/></clipPath></defs><g clip-path="url(#a)" fill-rule="evenodd" transform="matrix(1.3 0 0 1.3 0 -80)"><path fill="#fff" d="M0 0h512v512H0z"/><path d="M0 341.33h512V512H0z"/><path fill="#f30000" d="M0 0h512v170.67H0z"/><path fill="#005623" d="M487.6 284.03l-21.12-15.28-21.02 15.5 8-24.82-21.2-15.2 26.05-.06 7.9-24.87 8.12 24.77 26.1-.17-21.06 15.36M193.24 233.17c.22 24.34 0 40 0 45-2.6 3.03-5.22 6.3-7.17 8.9-.87-.66-1.1-.66-1.1-1.96 0-1.3-.2-33.24 0-44.98 3.92-1.95 6.53-7.4 8.27-6.95zm-8.9-.43c1.95-3.26 4.12-6.52 5.64-8.05 1.52.86 1.3 3.25 1.52 3.9-1.52 2.18-5.2 5.66-6.3 6.74-.44-.65 0-.43-.87-2.6zm10.86-27.82c-13.26 8.7-28.26 19.12-33.7 23.7-5.42 4.55-7.38 7.38-7.38 15.2 0 7.82.22 16.73-.43 20.86-.67 4.13-2.62 8.48-7.4 4.57-4.78-3.92-8.26-7.83-10.43-9.57-2.18-1.73-6.1-4.13-11.3.44-5.22 4.56-29.56 30.2-34.13 33.03-4.56 2.83-5.43 3.48-8.7 5.22 6.75.43 14.35.87 20.44-.44 8.04-5.87 17.4-19.12 20.43-22.38 3.05-3.26 6.1-10.22 12.83-2.6 6.74 7.6 6.52 7.8 9.78 10.2 3.27 2.4 7.4 1.96 10.22-2.82 2.83-4.78 3.05-6.96 4.13-14.78 1.1-7.82 1.74-17.6 3.48-21.95 1.74-4.35 5.22-8.7 11.08-12.17 5.88-3.48 6.97-3.7 8.27-4.35 2.6-5 8.9-16.73 11.52-19.56 1.08-1.3 1.3-1.95 1.3-2.6zm-58.9 79.1c-3.26-2.17-4.35-3.9-6.08-3.7s-5.44 5.23-7.6 6.53c2.8 2.4 5.42 4.56 7.6 4.13 2.17-.44 3.7-5.22 6.08-6.96zM411.65 222.96c-4.56 1.1-6.95 7.17-10.87 11.3-.43 12.17-.43 50-.43 54.98 3.9-4.56 6.3-7.17 9.13-8.9.65-20.22 3.04-48.47 2.17-57.38zm-21.52-.22c-5.43 3.48-6.73 6.96-11.3 10.87-.2 14.57.44 35.2-.65 38.04-1.1 2.83-3.48 8.7-9.34 8.04-5.87-.65-7.6-1.74-7.6-7.82s1.3-45 1.3-51.3c-4.57 2.18-8.48 8.92-11.74 11.75 0 15.22.65 34.56.22 38.7-.44 4.12-2.18 10.86-9.57 10.64-7.4-.22-11.3-3.9-11.3-8.26 0-4.35-.2-32.82.22-37.8-6.52 4.55-21.73 13.68-24.77 25.4-3.05 11.75 1.73 15.23 6.08 13.05 4.35-2.17 6.3-4.13 8.7-5.87.65 7.4.86 15.43 8.25 20.22 7.4 4.78 16.74 3.04 20.2.43 3.5-2.6 4.8-4.34 5.66-5.64 6.5 5 16.08 7.6 22.38 2.17 6.3-5.43 9.78-10.86 10.43-16.95.66-6.08 3.7-37.38 2.83-45.64zM321.9 252.3c-6.53 3.04-9.35 7.6-7.6 10.43 1.73 2.83 5.2-.43 7.6-1.52-.44-4.34 0-6.73 0-8.9zm41.94-46.07c-1.52 5-2.6 4.13-4.57 4.34-1.95.22-3.26-1.74-4.78-3.47-1.53.2-1.75.65-2.83 1.08 3.47 5 6.08 7.17 10.2 6.1 4.14-1.1 4.36-4.8 4.36-6.75-.65-.43-.87-.65-2.4-1.3zm-3.7-6.3c-1.95.65-2.4 1.08-3.04 2.82 1.1 2.4 2.6 3.7 4.13 3.04 1.52-.66 1.74-3.27.87-3.92-.87-.65-.43-1.1-1.96-1.96zM62.5 284.03l-21.1-15.28-21.02 15.5 8-24.82-21.2-15.2 26.05-.06 7.9-24.87 8.1 24.77 26.1-.17-21.05 15.36M274.6 284.03l-21.1-15.28-21 15.5 8-24.82-21.23-15.2 26.06-.06 7.9-24.87 8.1 24.77 26.1-.17-21.04 15.36"/></g></svg>