<svg xmlns="http://www.w3.org/2000/svg" version="1" xmlns:xlink="http://www.w3.org/1999/xlink" viewBox="0,0 30,18"><defs><clipPath id="a"><path fill-opacity=".67" d="M-5.25-6h40v30h-40z"/></clipPath></defs><g clip-path="url(#a)" transform="matrix(.8 0 0 .8 3.9 2.3)"><path fill="#fff" d="M-10.25-6h50v30h-50z"/><path d="M-10.25-6v1.93L11.52 9l-21.77 13.07V24h3.28l21.72-13.07L36.47 24h3.28v-1.93L17.98 9 39.75-4.07V-6h-3.28L14.75 7.07-6.97-6h-3.28z" fill-rule="evenodd" fill="#df112d"/><g transform="matrix(.2 0 0 .2 -9.7 -6)"><path d="M132.66 22.23c3.16 12.78 1.43 28.56-12.83 37.32-14.25-8.76-16-24.54-12.83-37.32 3.36-3.05 18.63-4.94 25.66 0z" stroke="#000" stroke-width=".13" fill="#e8112d"/><path d="M119.8 19.67c5.24 0 10.1 1.38 12.97 3.17.56-4.4 2.56-8.8 4.92-12.14-2.47-.05-3.57 1.26-3.6 2.6-.6-1.73-3.02-1.63-3.76-.68 2.7 1.82.6 5.05-1.82 4.38-1.14-.3-1.75-1.1-1.96-2.26.26-.02.52-.12.74-.3.57-.46.66-1.3.2-1.86s-1.3-.65-1.86-.2c-.57.47-.66 1.3-.2 1.87.15.2.35.32.55.4-.77 1.25-2.15 1.63-3.14 1.35-1.28-.35-1.82-1.5-1.82-2.53 0-2.67 2.56-3.08 3.33-2.6-.05-1.8-2.87-3.24-3.74-1.76.97-1.73.92-4.2-.82-5.83-1.73 1.64-1.78 4.1-.8 5.84-.88-1.47-3.7-.04-3.75 1.76.77-.47 3.33-.06 3.33 2.6 0 1.03-.54 2.2-1.82 2.54-1 .28-2.37-.1-3.14-1.35.2-.08.4-.2.56-.4.46-.57.37-1.4-.2-1.86s-1.4-.38-1.86.18-.37 1.4.2 1.86c.22.18.48.28.74.3-.2 1.15-.82 1.95-1.96 2.26-2.43.67-4.5-2.56-1.82-4.38-.74-.95-3.15-1.05-3.76.7-.03-1.36-1.13-2.67-3.6-2.62 2.37 3.33 4.37 7.74 4.93 12.14 2.87-1.8 7.74-3.17 12.96-3.17z" stroke="#000" stroke-width=".13" fill="#f9dd16"/><g id="b" stroke="#000"><g stroke-width=".13" fill="#f9dd16"><path d="M130.65 32.2c-.32.08-.32.48-.48.48.82-.02 1.22-.25 1.47-.66-.18.16-.03.48-.1.56.6-.2.9-.73.7-1.07.12.2.52.3.64.32-.43-.33-.12-1.08-.8-1.47.22 0 .66.24.78.54-.1-.68-.2-1.12-.77-1.5.05.07.37.13.5 0-.36-.22-.46-.6-.43-.84.04-.33-.18-.4-.6-.3-.38.1-1.25.15-1.76.15-1.04 0-1.96 0-2.83-.6 1.3.55 2.97-.6 2.97-1.54 0-1.05-1.3-1.9-3.9-1.33-2.62.57-5.8.33-5.8-.55 0-.87 2.28-1 3.45-.8 1.16.17 2 .3 4.2-.5-.54.22-2.3.28-3.67-.1-1.38-.4-4.78-.4-4.8 1.43-.04 1.85 3.6 1.68 6.76 1.22 1.82-.27 2.78-.1 2.78.5 0 .58-1.68.82-2.97.67-1.3-.16-2.6-.13-4.14.32-1.28.38-2.17 0-3.58.24-.68.12-2.34 0-3.16-1.35-.5.37-2.02 1.12-2.28 1.86-.36.68-.12 1.35.36 2 .6.84-.3.72-.95.75-.88.05-2.07-.1-2.7-.8-.53-.6-1.26-1.1-1.85-.65-.3.24 0 .55.23.46.23-.07.5.1.76.2-.4-.16-.85-.03-1.02.13-.24.2.05.6.33.47.24-.1.7-.2 1 .1-.32-.07-.66-.06-.82.1s-.04.44.3.43c.57-.03.72.36 1.28.28-.35.06-.54.24-.63.37.52-.24 1.1.4 1.8.26-.28.1-.7.37-.7.57.4-.47 3.12.36 3.18-.66.1.2.07.53-.14.8.35-.2 1.47-.3 1.82-1.1.03.24-.02.55-.23.63.36.12.84-.15 1.33-.87.2-.3.23-.48.2-.7.48.03.83-.1 1.2-.4.4-.34.82.26 1.48-.16.66-.43 1.23-.06 1.6-.27.36-.22.85.07 1.24-.17.4-.24 1 .12 1.65-.4 1 .38 2.2 1.07 5.12.54 1.67-.3 2.2.25 2.2 1.02 0 .52-.32.57-.55.58-.93.06-1.33-.34-1.7-.2-.24.07-.4.47-.04.6-.3.16-.25.44-.1.54s.54 0 .8-.1c-.34.15-.7.42-.5.7.13.18.44.33.72-.04.3-.38.82-.7 1.15-.64zM112.14 24.26c-.84-.34-1.13-.35-.93.33.1.3.3.7.5.9 0-.3.1-1.1.44-1.24z"/><path d="M114.77 24.26c.84-.34 1.13-.35.93.33-.08.3-.28.7-.5.9 0-.3-.1-1.1-.43-1.24z"/><path d="M113.46 23.8c1.6 0 1.8.75 1.78 1.68 0 1-.54.66-.85 1.96-.13.5-.54.53-.94.53-.4 0-.8-.03-.93-.53-.3-1.3-.85-.95-.85-1.96 0-.93.2-1.68 1.78-1.68z"/><path d="M109.36 27.5c-.4-.25-.67-.08-.83-.03.52.13.54.8 1.75 1.12-.27-.08-.42.07-.68-.07.5.4 1.05.85 2.23.86.65 0 .2.33-.23.14.44.46 1.32.08 1.88.92.1-.65-1.04-1.67-.5-2.4-1.64-.08-1.77-.98-2.7-1.7-.76-.57-.83-1.16-1.17-2.27-.14-.5-.73-.83-1.05-.7-.3.1-.4.34-.15.53.25.18.56.2.63.67-.32-.38-.8-.5-1.02-.28-.13.15-.08.5.22.52.5.05.14.52.7 1-.5-.57-.92-.62-1.2-.32-.14.18 0 .5.35.47.5-.06 1.06 1.18 1.8 1.5zM122.43 32.14c-.26.04-.18.47-.53.5.83 0 1.25-.2 1.64-.52-.18.1-.25.38-.27.53.44-.38 1.48-.4 2.02-.3s.62-.15.8-.5c.2-.34-.06-.54-.33-.8-.27-.28-.33-.65-.27-1.3-1.45-1.9-4.03-.98-4.06-.14.93 1.1 1.05.98 1.83 1.13.78.15 1.26.15.74.58-.17.16-.92.1-1.5.12-1.32.05-1.92-.9-2.3-.4-.33.4 0 .58.65.56-.45 0-1.04-.02-.94.4.18.7.85-.13 1.12.16-.23-.05-.58.08-.6.3 0 .2.5.48 1.07.04.3-.25.7-.34.93-.34z"/></g><g stroke-width=".13" fill="none"><path d="M123.55 29.2c-.47-.17-.9-.27-1.45-.16M116.48 28.98c-.4.83-.15 1.24-.1 1.63M112.37 25.05c.27.13.4-.24.8.16-.1-.1-.24.32-.53.03M114.53 25.05c-.27.13-.4-.24-.8.16.1-.1.24.32.53.03"/><path d="M113.73 25.2c-.1.08-.1-.05-.03.3.13.65.28.96-.25.96-.54 0-.37-.3-.25-.96.07-.35.06-.22-.03-.3"/></g><path d="M113.46 27.7c.43 0 .68 0 .6-.6-.02-.24.3-.34.2-.73.1.48-.8.43-.8.22 0 .2-.9.25-.8-.23-.1.4.22.5.2.73-.08.6.17.6.6.6z" stroke-width=".06" fill="#ff0016"/><g stroke-width=".06"><path d="M113.07 26.5l-1.03-.3M113.07 26.54h-1.15M113.08 26.6l-.98.26M113.84 26.5l1.03-.3M113.84 26.54H115M113.83 26.6l.98.26"/></g><g stroke-width=".01" fill="#0051ba"><path d="M108.13 23.4c-.3-.36-1.05-.04-1.06.42.25-.3.66.13.9.04.14-.06.28-.3.16-.45zM107.75 24.3c-.3-.38-1.05-.06-1.06.4.24-.3.65.13.88.04.16-.06.3-.3.17-.44zM107.55 25.48c-.34-.34-1.05.06-1 .52.2-.33.67.06.88-.06.15-.08.26-.32.12-.46zM107.9 29.15c-.37-.3-1.02.18-.93.63.17-.35.67-.02.87-.16.14-.1.22-.35.07-.47zM107.9 29.95c-.46-.16-.94.5-.7.9.05-.4.62-.24.77-.43.1-.13.1-.4-.08-.47zM108.46 30.55c-.45-.16-.93.5-.7.9.06-.4.63-.24.78-.43.1-.13.1-.4-.08-.47zM120.2 31.7c-.45-.15-.93.5-.7.9.06-.38.63-.22.78-.42.1-.13.1-.4-.08-.47zM120.8 32.26c-.45-.12-.86.6-.6.97.03-.4.62-.3.75-.5.08-.16.05-.43-.14-.47zM120.38 30.94c-.4-.24-1 .33-.84.76.12-.37.66-.1.84-.28.12-.12.17-.38 0-.48zM128.73 31.88c-.46-.1-.87.6-.6.97.02-.4.6-.3.73-.5.1-.15.06-.42-.13-.47zM128.75 31.15c-.42-.23-.98.35-.82.8.12-.4.67-.15.84-.33.12-.12.15-.38-.02-.47zM129.07 32.54c-.47-.1-.84.63-.55 1 0-.4.6-.33.7-.55.08-.16.04-.42-.15-.46zM113.5 27.34c.28 0 .4.1.4.62 0 1.13 0 1.6-.37 1.6s-.34-.45-.34-1.27c0-.45 0-.66-.1-.63 0-.28.13-.33.4-.33z"/></g></g><use xlink:href="#b" transform="matrix(.9 0 0 .9 11.6 13.7)" height="18" width="30"/><use xlink:href="#b" transform="matrix(.7 0 0 .8 39.2 27.5)" height="18" width="30"/></g></g></svg>