<svg xmlns="http://www.w3.org/2000/svg" height="480" width="640" version="1"><defs><clipPath id="a"><path fill-opacity=".67" d="M-117.82 0h682.67v512h-682.67z"/></clipPath></defs><g clip-path="url(#a)" transform="matrix(.9 0 0 .9 110.5 0)"><g fill-rule="evenodd" stroke-width="1pt"><path d="M-117.82 0h1024v170.67h-1024z"/><path fill="#fff" d="M-117.82 170.67h1024v170.66h-1024z"/><path fill="#090" d="M-117.82 341.33h1024V512h-1024z"/><path d="M-117.82 512l512-256-512-256v512z" fill="red"/><path fill="#fff" d="M24.53 288.96l5.66-24.82H4.73l22.93-11.04-15.87-19.9 22.93 11.05 5.67-24.82 5.66 24.82L69 233.2 53.1 253.1l22.93 11.04H50.6l5.67 24.82-15.87-19.92"/></g></g></svg>