<svg xmlns="http://www.w3.org/2000/svg" height="480" width="640" version="1"><defs><clipPath id="a"><path fill-opacity=".67" d="M-85.33 0h682.67v512H-85.33z"/></clipPath></defs><g fill-rule="evenodd" clip-path="url(#a)" transform="matrix(.9 0 0 .9 80 0)"><path fill="#1b0073" d="M-128 0h768v512h-768z"/><path fill="#e60006" d="M-128 128h768v256h-768z"/><g stroke="#e60000" fill="#fff"><path stroke-width="1.207557" d="M93.25 248.07h325.47v52.62H93.25z"/><path d="M220 280l-5 15h320l-5-15H220z" transform="matrix(1.1 0 0 .8 -138.3 69.5)" stroke-width="1.25"/><path d="M245 280l-5 15h60l-5-15h-50z" transform="matrix(1.3 0 0 .8 37.6 69.5)" stroke-width="1.12"/><path d="M245 280l-5 15h60l-5-15h-50z" transform="matrix(.6 0 0 .8 211.2 69.5)" stroke-width="1.52"/><path d="M245 280l-5 15h60l-5-15h-50z" transform="matrix(.4 0 0 .8 272.6 69.5)" stroke-width="2.02"/><path d="M245 280l-5 15h60l-5-15h-50z" transform="matrix(1.3 0 0 .8 -106.1 69.5)" stroke-width="1.1"/><path stroke-width="1.310767" d="M91.42 247.27h329.14v12.4H91.42z"/><path stroke-width="1.228199" d="M349.65 248.18h64.5v52.42h-64.5z"/><path stroke-width=".8256800000000001" d="M395.8 272.74h6.44v27.86h-6.45zM367.4 272.74h6.46v27.86h-6.45z"/><path d="M245 280l-5 15h60l-5-15h-50z" transform="matrix(.7 0 0 .8 73.9 69.5)" stroke-width="1.55"/><path d="M245 280l-5 15h60l-5-15h-50z" transform="matrix(.4 0 0 .8 141.9 69.5)" stroke-width="1.96"/><path stroke-width="1.269483" d="M221.68 248.07h67.96v52.62h-67.96z"/><path stroke-width="1.0733840000000001" d="M275.83 272.74h6.45v27.86h-6.45zM230.94 272.73h6.45v27.86h-6.46z"/><path stroke-width=".980495" d="M239.53 235.33h32.9v65.35h-32.9z"/><path stroke-width="1.0733840000000001" d="M264.22 272.74h6.45v27.86h-6.45zM242.55 272.74H249v27.86h-6.45z"/><path d="M358.18 217.13l13.47 22.98 14.27-22.97h-27.74z" transform="matrix(1 0 0 .9 -128 56.1)" stroke-width="1pt"/><path stroke-width="1.217878" d="M375.24 248.07h18.3v65h-18.3z"/><path stroke-width="1.217878" d="M378.3 248.07h12.17v65H378.3z"/><g><path d="M245 280l-5 15h60l-5-15h-50z" transform="matrix(1.3 0 0 .8 -215.2 69.5)" stroke-width="1.12"/><path d="M245 280l-5 15h60l-5-15h-50z" transform="matrix(.6 0 0 .8 -34.2 69.5)" stroke-width="1.64"/><path d="M245 280l-5 15h60l-5-15h-50z" transform="matrix(.4 0 0 .8 24.3 69.5)" stroke-width="2.05"/><path stroke-width="1.228199" d="M96.9 248.07h64v52.62h-64z"/><path stroke-width=".8256800000000001" d="M109.38 272.74h6.45v27.86h-6.45zM139.06 272.75h6.45v27.86h-6.44z"/><path stroke-width="1.217878" d="M118.85 248.07h18.3v65h-18.3z"/><path stroke-width="1.217878" d="M121.88 248.07h12.18v65h-12.18z"/></g><path stroke-width="1.321088" d="M87.77 235.68H424.2v12.4H87.78z"/><g><path stroke-width="1pt" d="M187.5 328.56h406.25v17.5H187.5z" transform="matrix(1.1 0 0 .9 -166 50.9)"/><path stroke-width="1.2" d="M226.25 284.8h327.5v17.5h-327.5z" transform="matrix(1.1 0 0 .9 -166 50.9)"/><path stroke-width="1.22" d="M221.25 288.56h337.5v17.5h-337.5z" transform="matrix(1.1 0 0 .9 -166 50.9)"/><path stroke-width="1pt" d="M187.5 328.56h406.25v17.5H187.5z" transform="matrix(1.1 0 0 .9 -166 50.9)"/><path stroke-width="1.25" d="M212.5 298.56h356.25v17.5H212.5z" transform="matrix(1.1 0 0 .9 -166 50.9)"/><path stroke-width="1.29" d="M200 311.06h381.25v17.5H200z" transform="matrix(1.1 0 0 .9 -166 50.9)"/><g><path stroke-width="1.37" d="M287.5 283.56h18.75v62.5H287.5z" transform="matrix(1 0 0 .9 -161.5 57.2)"/><path stroke-width="1.12" d="M290.62 283.56h12.5v62.5h-12.5z" transform="matrix(1 0 0 .9 -161.5 57.2)"/></g><g><path stroke-width="1.37" d="M287.5 283.56h18.75v62.5H287.5z" transform="matrix(1 0 0 .9 94.5 57.2)"/><path stroke-width="1.12" d="M290.62 283.56h12.5v62.5h-12.5z" transform="matrix(1 0 0 .9 94.5 57.2)"/></g></g><path stroke-width="1.23852" d="M249.23 248.07h14.7V365.7h-14.7z"/><g><path d="M217.92 220.3l.18-36.91s3.37 7.22 29.52 8.8c24.74-.93 28.84-5.36 29.96-9.28l-1.02 37.52-58.64-.14z" transform="matrix(1 0 0 .9 141.6 56.1)" stroke-width="1pt"/><path d="M330.92 208.56L312.5 188.1c6.14-5.3 17.54 3.8 17.54 3.8s6.14-23.5 32.46-33.34c26.32 9.85 32.46 33.34 32.46 33.34s11.4-9.1 17.54-3.8l-18.42 20.47h-63.16z" transform="matrix(.4 0 0 .3 228.7 146.3)" stroke-width="3.53"/><path d="M330.92 208.56L312.5 188.1c6.14-5.3 17.54 3.8 17.54 3.8s6.14-23.5 32.46-33.34c26.32 9.85 32.46 33.34 32.46 33.34s11.4-9.1 17.54-3.8l-18.42 20.47h-63.16z" transform="matrix(.6 0 0 .4 182.1 136.8)" stroke-width="2.62"/><g><path d="M0 280.52c.8 0 30.1 52.3 0 53.1-30.1.8 0-51.52 0-53.1z" transform="matrix(.4 0 0 .4 384 46.9)" stroke-width="3.38"/><path d="M330.92 208.56L312.5 188.1c6.14-5.3 17.54 3.8 17.54 3.8s6.14-23.5 32.46-33.34c26.32 9.85 32.46 33.34 32.46 33.34s11.4-9.1 17.54-3.8l-18.42 20.47h-63.16z" transform="matrix(.3 0 0 .2 264.7 154.6)" stroke-width="5.96"/><path d="M330.92 208.56l-.88-16.67s6.14-23.5 32.46-33.34c26.32 9.85 32.46 33.33 32.46 33.33l-.88 16.66h-63.16z" transform="matrix(.2 0 0 .2 322.7 157.3)" stroke-width="8.32"/><path d="M330.92 208.56l-.88-16.67s6.14-23.5 32.46-33.34c26.32 9.85 32.46 33.33 32.46 33.33l-.88 16.66h-63.16z" transform="matrix(.3 0 0 .2 261.5 154.1)" stroke-width="5.1"/><path d="M330.92 208.56l-.88-16.67s6.14-23.5 32.46-33.34c26.32 9.85 32.46 33.33 32.46 33.33l-.88 16.66h-63.16z" transform="matrix(.3 0 0 .2 261.5 159.5)" stroke-width="5.1"/><path d="M330.92 208.56L312.5 188.1c6.14-5.3 17.54 3.8 17.54 3.8s6.14-23.5 32.46-33.34c26.32 9.85 32.46 33.34 32.46 33.34s11.4-9.1 17.54-3.8l-18.42 20.47h-63.16z" transform="matrix(.3 0 0 .4 264.7 130.6)" stroke-width="3.65"/><path d="M330.92 208.56L312.5 188.1c6.14-5.3 17.54 3.8 17.54 3.8s6.14-23.5 32.46-33.34c26.32 9.85 32.46 33.34 32.46 33.34s11.4-9.1 17.54-3.8l-18.42 20.47h-63.16z" transform="matrix(.3 0 0 .4 264.7 141.4)" stroke-width="3.65"/><path d="M330.92 208.56l-.88-16.67s6.14-23.5 32.46-33.34c26.32 9.85 32.46 33.33 32.46 33.33l-.88 16.66h-63.16z" transform="matrix(.3 0 0 .5 261.5 135.1)" stroke-width="3.22"/><path d="M330.92 208.56L312.5 188.1c6.14-5.3 17.54 3.8 17.54 3.8s6.14-23.5 32.46-33.34c26.32 9.85 32.46 33.34 32.46 33.34s11.4-9.1 17.54-3.8l-18.42 20.47h-63.16z" transform="matrix(.3 0 0 .3 264.7 180.3)" stroke-width="4.22"/></g></g><g><path d="M330.92 208.56L312.5 188.1c6.14-5.3 17.54 3.8 17.54 3.8s6.14-23.5 32.46-33.34c26.32 9.85 32.46 33.34 32.46 33.34s11.4-9.1 17.54-3.8l-18.42 20.47h-63.16z" transform="matrix(.4 0 0 .3 -27 144)" stroke-width="3.53"/><path d="M330.92 208.56L312.5 188.1c6.14-5.3 17.54 3.8 17.54 3.8s6.14-23.5 32.46-33.34c26.32 9.85 32.46 33.34 32.46 33.34s11.4-9.1 17.54-3.8l-18.42 20.47h-63.16z" transform="matrix(.6 0 0 .4 -73.5 134.5)" stroke-width="2.62"/><path d="M217.92 220.3l.18-36.91s3.37 7.22 29.52 8.8c24.74-.93 28.84-5.36 29.96-9.28l-1.02 37.52-58.64-.14z" transform="matrix(1 0 0 .9 -111.9 56.1)" stroke-width="1pt"/><g><path d="M0 280.52c.8 0 30.1 52.3 0 53.1-30.1.8 0-51.52 0-53.1z" transform="matrix(.4 0 0 .4 128 46.9)" stroke-width="3.38"/><path d="M330.92 208.56L312.5 188.1c6.14-5.3 17.54 3.8 17.54 3.8s6.14-23.5 32.46-33.34c26.32 9.85 32.46 33.34 32.46 33.34s11.4-9.1 17.54-3.8l-18.42 20.47h-63.16z" transform="matrix(.3 0 0 .2 8.7 154.6)" stroke-width="5.96"/><path d="M330.92 208.56l-.88-16.67s6.14-23.5 32.46-33.34c26.32 9.85 32.46 33.33 32.46 33.33l-.88 16.66h-63.16z" transform="matrix(.2 0 0 .2 66.7 157.3)" stroke-width="8.32"/><path d="M330.92 208.56l-.88-16.67s6.14-23.5 32.46-33.34c26.32 9.85 32.46 33.33 32.46 33.33l-.88 16.66h-63.16z" transform="matrix(.3 0 0 .2 5.5 154.1)" stroke-width="5.1"/><path d="M330.92 208.56l-.88-16.67s6.14-23.5 32.46-33.34c26.32 9.85 32.46 33.33 32.46 33.33l-.88 16.66h-63.16z" transform="matrix(.3 0 0 .2 5.5 159.5)" stroke-width="5.1"/><path d="M330.92 208.56L312.5 188.1c6.14-5.3 17.54 3.8 17.54 3.8s6.14-23.5 32.46-33.34c26.32 9.85 32.46 33.34 32.46 33.34s11.4-9.1 17.54-3.8l-18.42 20.47h-63.16z" transform="matrix(.3 0 0 .4 8.7 130.6)" stroke-width="3.65"/><path d="M330.92 208.56L312.5 188.1c6.14-5.3 17.54 3.8 17.54 3.8s6.14-23.5 32.46-33.34c26.32 9.85 32.46 33.34 32.46 33.34s11.4-9.1 17.54-3.8l-18.42 20.47h-63.16z" transform="matrix(.3 0 0 .4 8.7 141.4)" stroke-width="3.65"/><path d="M330.92 208.56l-.88-16.67s6.14-23.5 32.46-33.34c26.32 9.85 32.46 33.33 32.46 33.33l-.88 16.66h-63.16z" transform="matrix(.3 0 0 .5 5.5 135.1)" stroke-width="3.22"/><path d="M330.92 208.56L312.5 188.1c6.14-5.3 17.54 3.8 17.54 3.8s6.14-23.5 32.46-33.34c26.32 9.85 32.46 33.34 32.46 33.34s11.4-9.1 17.54-3.8l-18.42 20.47h-63.16z" transform="matrix(.3 0 0 .3 8.7 180.3)" stroke-width="4.22"/></g></g><g transform="matrix(1 0 0 1 -128 0)"><rect ry="6.45" height="12.9" width="85.04" y="226.28" x="329.53" stroke-width="1.23"/><path d="M353.24-212.6l1.1-56.7s-3.3 13.9-13.13 13.9H190.3c-9.85 0-13.13-13.9-13.13-13.9l1.1 56.7h174.97z" transform="matrix(.5 0 0 .8 239.2 393.3)" stroke-width="1.58"/><path d="M510.5 70.22l.4-25.6s23.56-3 20.3-9.34c-3.28-6.34-31.62 7.98-31.62 7.98H386.24s-28.33-14.32-31.6-7.98c-3.27 6.33 20.3 9.33 20.3 9.33l.4 25.62H510.5z" transform="matrix(.4 0 0 .6 194.9 174.2)" stroke-width="2.4"/><path d="M510.5 70.22l.4-25.6s23.56-3 20.3-9.34c-3.28-6.34-31.62 7.98-31.62 7.98H386.24s-28.33-14.32-31.6-7.98c-3.27 6.33 20.3 9.33 20.3 9.33l.4 25.62H510.5z" transform="matrix(.5 0 0 .6 159.4 186.2)" stroke-width="2.19"/><path d="M510.5 70.22l.4-25.6s23.56-3 20.3-9.34c-3.28-6.33-27.3-18.36-61.82-31.08-24.3-5.9 31.26-26.35-21.07-27.7-48 .75-5.4 23.3-21.06 28.6-38.84 11.82-69.33 23.85-72.6 30.18-3.27 6.33 20.3 9.33 20.3 9.33l.4 25.62H510.5z" transform="matrix(.1 0 0 .3 314.2 134.1)" stroke-width="6.25"/><path d="M510.5 70.22l.4-25.6s23.56-3 20.3-9.34c-3.28-6.34-31.62 7.98-31.62 7.98H386.24s-28.33-14.32-31.6-7.98c-3.27 6.33 20.3 9.33 20.3 9.33l.4 25.62H510.5z" transform="matrix(.3 0 0 .5 246.6 156.8)" stroke-width="3.15"/><path d="M510.5 70.22l.4-25.6s23.56-3 20.3-9.34c-3.28-6.34-31.62 7.98-31.62 7.98H386.24s-28.33-14.32-31.6-7.98c-3.27 6.33 20.3 9.33 20.3 9.33l.4 25.62H510.5z" transform="matrix(.3 0 0 .5 221.5 166.6)" stroke-width="2.88"/><path d="M510.5 70.22l.4-25.6s23.56-3 20.3-9.34c-3.28-6.34-31.62 7.98-31.62 7.98H386.24s-28.33-14.32-31.6-7.98c-3.27 6.33 20.3 9.33 20.3 9.33l.4 25.62H510.5z" transform="matrix(.2 0 0 .3 290.9 149.5)" stroke-width="4.76"/><path d="M510.5 70.22l.4-25.6s23.56-3 20.3-9.34c-3.28-6.34-31.62 7.98-31.62 7.98H386.24s-28.33-14.32-31.6-7.98c-3.27 6.33 20.3 9.33 20.3 9.33l.4 25.62H510.5z" transform="matrix(.2 0 0 .3 274.6 156.2)" stroke-width="4.34"/><path d="M510.5 70.22l.4-25.6s23.56-3 20.3-9.34c-3.28-6.34-31.62 7.98-31.62 7.98H386.24s-28.33-14.32-31.6-7.98c-3.27 6.33 20.3 9.33 20.3 9.33l.4 25.62H510.5z" transform="matrix(.1 0 0 .3 314.5 139.8)" stroke-width="6.25"/><path d="M510.5 70.22l.4-25.6s23.56-3 20.3-9.34c-3.28-6.34-31.62 7.98-31.62 7.98H386.24s-28.33-14.32-31.6-7.98c-3.27 6.33 20.3 9.33 20.3 9.33l.4 25.62H510.5z" transform="matrix(.2 0 0 .3 303 145.2)" stroke-width="5.7"/><g><path d="M330.92 208.56L312.5 188.1c6.14-5.3 17.54 3.8 17.54 3.8s6.14-23.5 32.46-33.34c26.32 9.85 32.46 33.34 32.46 33.34s11.4-9.1 17.54-3.8l-18.42 20.47h-63.16z" transform="matrix(.2 0 0 .2 307.8 126.3)" stroke-width="5.44"/><path d="M330.92 208.56L312.5 188.1c6.14-5.3 17.54 3.8 17.54 3.8s6.14-23.5 32.46-33.34c26.32 9.85 32.46 33.34 32.46 33.34s11.4-9.1 17.54-3.8l-18.42 20.47h-63.16z" transform="matrix(.2 0 0 .2 282.1 132.3)" stroke-width="5.44"/><path d="M330.92 208.56L312.5 188.1c6.14-5.3 17.54 3.8 17.54 3.8s6.14-23.5 32.46-33.34c26.32 9.85 32.46 33.34 32.46 33.34s11.4-9.1 17.54-3.8l-18.42 20.47h-63.16z" transform="matrix(.3 0 0 .2 269.3 130.3)" stroke-width="4.41"/><path d="M330.92 208.56L312.5 188.1c6.14-5.3 17.54 3.8 17.54 3.8s6.14-23.5 32.46-33.34c26.32 9.85 32.46 33.34 32.46 33.34s11.4-9.1 17.54-3.8l-18.42 20.47h-63.16z" transform="matrix(.4 0 0 .3 243.6 130.7)" stroke-width="3.53"/><path d="M358.18 217.13l13.47 22.98 14.27-22.97h-27.74z" transform="matrix(.9 0 0 .7 28.6 57.5)" stroke-width="1.46"/><path d="M330.92 208.56L312.5 188.1c6.14-5.3 17.54 3.8 17.54 3.8s6.14-23.5 32.46-33.34c26.32 9.85 32.46 33.34 32.46 33.34s11.4-9.1 17.54-3.8l-18.42 20.47h-63.16z" transform="matrix(.4 0 0 .3 217.9 135.9)" stroke-width="3.05"/><path d="M358.18 217.13l13.47 22.98 14.27-22.97h-27.74z" transform="matrix(1 0 0 .8 0 37.1)" stroke-width="1.25"/><path d="M330.92 208.56L312.5 188.1c6.14-5.3 17.54 3.8 17.54 3.8s6.14-23.5 32.46-33.34c26.32 9.85 32.46 33.34 32.46 33.34s11.4-9.1 17.54-3.8l-18.42 20.47h-63.16z" transform="matrix(.5 0 0 .4 205.1 135.5)" stroke-width="2.62"/><path d="M330.92 208.56L312.5 188.1c6.14-5.3 17.54 3.8 17.54 3.8s6.14-23.5 32.46-33.34c26.32 9.85 32.46 33.34 32.46 33.34s11.4-9.1 17.54-3.8l-18.42 20.47h-63.16z" transform="matrix(.5 0 0 .4 205.1 152.8)" stroke-width="2.62"/></g></g><g stroke-width="1.04"><path d="M166.5 272.74h6.45v27.86h-6.45zM188.43 272.74h6.45v27.86h-6.45zM178.1 272.74h6.46v27.86h-6.45zM295.3 272.74h6.46v27.86h-6.45zM339.17 272.74h6.45v27.86h-6.45zM317.24 272.74h6.45v27.86h-6.46zM306.92 272.73h6.45v27.86h-6.45zM327.56 272.73H334v27.86h-6.44zM210.36 272.74h6.45v27.86h-6.44zM198.75 272.74h6.45v27.86h-6.45z" stroke-width="1.0733840000000001"/></g></g></g></svg>