<svg xmlns="http://www.w3.org/2000/svg" height="480" width="640"><path fill-rule="evenodd" fill="#fc0" d="M0 0h640v480H0z"/><path fill-rule="evenodd" fill="#f60" d="M241.63 42.7h202.1v403.2h-202.1z"/><path fill-rule="evenodd" fill="#060" d="M42.66 42.7H241.8v403.27H42.66z"/><path fill-rule="evenodd" fill="#991b33" d="M242.4 171.58h367.9V446.4H242.4z"/><g fill="#fc0"><path stroke-linejoin="round" d="M387.27 298.8l5.43.13s-6.13 5.15-4.73 12.1c6.4-9.46 8.76-7.65 8.76-7.65-1.95 2.1-5.7 5-2.78 11.4 2.5-6.53 7.65-11.54 7.65-11.54s-1.4 7.24 1.67 13.92c2.22-6.68 5.98-12.4 5.98-12.4s-.56 7.25 2.64 9.9c2.5-2.24 4.17-7.94 4.17-7.94s4.73 8.35 7.65 9.6c2.36-5.7 2.36-10.16 2.36-10.16s9.74 6.96 17.53 2.93c-6.94-2.52-9.3-8.36-9.3-8.36s12.65 5.56 18.08 3.06c-5.3-4.04-17.67-10.02-17.67-10.02s9.2 3.34 11.83 2.5c-1.25-1.8-5.28-4.03-5.28-4.03" fill-rule="evenodd" stroke="#991b33" stroke-linecap="round" stroke-width="1.52646pt"/><path d="M463.26 230.93c16.77-1.53 42.7 12.18 56.43 21.32 0-3.05 0-6.1 3.03-7.62 3.05-1.52 7.63 1.53 6.1 6.1-4.58 10.65-22.88-1.53-28.97-4.57l3.05 6.1c-9.14-1.54-10.67-3.06-16.76-10.68-1.53 6.1-1.53 7.62-9.16 7.62 2.87-4.52 3.83-6.03 0-10.66l-1.53 9.13-7.6-10.65v10.65c-1.54-1.5-7.65-6.1-10.7-6.1-4.56-1.52-7.62 7.63-9.14 12.2 4.6-4.57 6.1-7.6 13.73-4.57-4.14 3.9-2.93 8.6 1.53 12.18 0 0 .8-6.34 1.28-7.8 2.43 1.83 7.57 8.65 13.97 9.32 4.6 0 9.16-1.52 13.73-3.03 15.25-1.53 48.8 1.5 41.18 24.36-1.5 4.58-3.04 7.62-6.1 10.67 21.36 7.62 3.06 35.03-1.52 48.74-3.05 12.18-.93 21.9 14.1 20.32-3.03 6.1-8 7.1-14.1 7.1 0 0 .76 3.66 4.7 5.38-6.53 5.85 2.25 14.6-1.65 19-6.56 3.14-15.25-1.53-15.25-1.53l-.42 4.33s-11.53-.8-11.77-1.3c0 0 3.27-6.12 3.03-6.25-3.06 4.57-5.97 7.24-12.2 6.26 0 0 .5-2.87 3.9-6.5-4.63 4.6-5.14 6.63-10 6.5 0-7.6 4.57-16.74 13.73-13.7 1.53 0 6.34 3.78 8.6 1.34 1.83-2.63.74-11.5.74-14.56.96-13.47-1.72-12.67-9.34-20.3-6.1-4.55-10.56-11.55-18.18-13.08-7.63-1.52-19.95 7-26.06 10.04-15.24 9.14-28.97 15.23-45.74 18.28 0 0 .33-.77.33-2.3 0-1.03 16.47-13.84 19.35-36.34-4.5 22.2-20.5 33.94-21.12 38.06-.6 4.13-3.87 11.17-4.26 11.63 1.98-1.17 8.33-4.3 16.38-4.95-1.74 9.54-10.67 7.62-12.2 12.2 0 4.57 6.1 10.66 0 13.7h-24.4s3.76-5.2 3.94-6.63c-3.3 2-5.38 7.22-12.57 6.68.26-1.97 3.7-5.05 3.13-6.25-4.12 3.8-6.05 7.03-11.3 6.2 1.53-4.57 1.53-10.66 7.64-10.66 4.58-1.54 9.16 1.52 12.2-3.06 6.1-7.62-1.12-24.28-2.63-33.43 0-7.6.02-9.05-1.94-18.34l1.53 27.4c-6.1-4.57-12.2-7.6-16.8-13.7-10.66-13.7-7.6-28.94 6.1-38.08 6.12-4.56 9.4-6.95 17.05-9.98-1.52-4.58 2.17-7.96-3.23-9.38-1.62 2.83-3.2 5.9-6.3 5.65l1.66-7.6s-5.5.32-4.4 10.15c-6.33-3.04-3.23-10.16-3.23-10.16h-3.05s-.02 9.06-5 10.9c1.35-4.26 1.94-10.9 1.94-10.9s-8.17 9.73-12.92 6.57c2.8-3.16 4.96-3.67 4.58-7.5-.37-3.8-2.34-8.7-2.7-9.47 1.73.83 13.24 4.27 20.45.7-.46 2.38-.25 5.13-.25 5.13 7.62-1.53 9.14-1.53 16.78 1.5-1.53-10.65-7.64-12.18-13.73-19.8v6.1c-6.1-1.52-7.63-3.04-10.68-9.13l-4.57 3.03c-8.04-4.74-13.98-16-2.56-15.35 6.8.85 1.03 6.23 1.03 6.23s17.46-5.5 24.4-6.1c0 0-2.02-4.27-8.47-5 5.35-4.02 10.72-5.3 14.57 3.14 3.83.22 7.4-4.4 5.13-10.38 5.66-.1 8.45 3.5 11.03 7.27 2.1.4 4.22-1.82 3.72-9.4 5.34 4.57 7.96 5.97 8.32 9.82 4.54 1 7.63 0 14.48-3.07-1.5 6.1-1.5 7.62-7.6 10.67 4.3 5.32 4.74 11.74 3.84 14.08-1.5-.44-1.87-.53-2.93-.82.33 2.35.8 8.82.6 12.63h-3.05l4.58 13.72-3.05 4.58c10.68-4.58 21.36-3.05 32.03-6.1 12.2-1.52 24.4-6.1 38.13-6.1 9.14 0 9.14 4.58 21.36 4.58v-7.6c0-6.1-4.58-12.2-12.22-13.72-4.56 0-12.2 3.04-16.77 4.56-6.1 1.53-15.25 1.53-21.36 1.53-19.8-3.05-16.65-4.98-23.56-8.7-4.13 1.1-6.45 4.62-8.5 10.82-3.84-5.62-3-12.8 1.58-15.83-4.57-16.76 7.63-24.38 22.88-27.4z"/><path stroke-linejoin="round" d="M467.84 368.02c-3.06-4.58-13.74-12.2-10.7-19.82 4.6-7.6 30.52-19.8 35.1-3.03 1.52 4.56-3.2 16.68-4.72 21.25 2.3-.6 4.88-4.14 12.4-2.85-1.4 5.98-10.55 10.6-10.55 10.6.93 4.05-6.28 22.77-6.28 22.77h-19.84l3.05-6.1-4.57 6.1h-7.63l6.1-7.6s-7.22 8.45-13.37 8.1c1.52-12.17 8.8-14.2 19.48-9.62 1.54-6.1 4.57-13.7 1.54-19.8z" stroke="#991b33" stroke-width="1.52646"/><path d="M386.17 253.3c-2.06 1.27-.38 9.64 2.78 8.2 3.94-1.76-1.22-9.15-2.78-8.2z" fill-rule="evenodd" stroke="#991b33" stroke-width="1.52646pt"/><path stroke-linejoin="round" d="M388.1 250.66c3.77 2.65 9.75 9.74 17.12 9.32-5.56-4.6-4.45-7.92-4.45-7.92 2.92 3.47 12.66 6.67 15.86 5.28-3.76-2.78-4.45-3.06-5.3-5.7 4.46.55 10.03 1.53 14.48-.42M395.34 297.13l.42-6.4s4.17 9.74 7.24 9.88c-1.95-7.1-1.12-12.8-1.12-12.8M405.08 289.34s8.35 15.3 12.38 12.8c-6.12-5.43-5.42-12.52-5.42-12.52s2.78 9.46 11 12.38c.55-5.3-3.2-13.9-3.2-13.9s6.8 11.95 10.28 12.23c2.23-2.78 1.4-5.7 1.4-5.7M398.55 278.77l6.12 7.8.98-10.45s5.98 4.73 7.1 4.6-1.68-11.14-1.68-11.14 8.07 12.25 8.63 11.97c.55-.28.83-12.1.83-12.1s6.12 16.83 8.2 16.7c2.1-.15 1.54-2.38 1.54-2.38" fill-rule="evenodd" stroke="#991b33" stroke-linecap="round" stroke-width="1.52646pt"/><path stroke-linejoin="round" d="M393.96 265.13s9.45 8.63 10.43 8.07c.96-.56-3.9-10.02-3.9-10.02s5.42 5.15 7.5 5.57.7-6.68.7-6.68 6.4 5.43 7.5 5.15.57-5.15.57-5.15 4.17 4.17 4.45 4.17-.83-11.96-.83-11.96 9.3 9.88 10 9.74M356.1 268.2c.43.7 1.98 13 21.04 7.98 1.8-.97 1 3.44.93 4.73.84-.13 9.92-3.37 16.18 1.22-.73-5.08-2.1-8.5-7.53-11.42-2.64-.56-4.57.8-4.57.8s-22.98.17-26.04-3.3z" fill-rule="evenodd" stroke="#991b33" stroke-linecap="round" stroke-width="1.52646pt"/><path stroke-linejoin="round" d="M345.72 346.52c-.32 1.43-1.3 1.84-4.16 5.95 1.26 1.74 7.1 4.46 8.67 3.04 1.42-.78 1.52-4.55 1.52-4.55 3.06 4.56 8.43 11.76 14.53 13.28 4.57 1.53 9.15-1.52 9.15-6.1s-6.9-11.92-9.94-14.96c-7.64-9.14-6.97-26.4-21.4-24-.07.12-.65 2.1-2.03 2.44 1.16 2.23 1.8 4.1-.96 4.8 2.16 2.12 2.5 3.66-.27 4.72 1.68 2.25 3.64 3.07-.22 5 4.05 3.94 4.92 9.73 5.12 10.4" stroke="#991b33" stroke-linecap="round" stroke-width="1.52646"/><path d="M341.96 217.43c-4.58 6.65-5.06 79.73-3.64 94.45-4.58 3-13.12 1.74-15.5.8 1.1-5.23 5.06-90.03 19.14-95.25z" fill-rule="evenodd" stroke="#991b33" stroke-width="1.52646pt"/><path d="M329 367.24s-20.26 2.85-11.72-9.18c7.28-3.16 7.12 4.28 4.43 6.8 3.33.38 5.55-1.8 6.02-5.06-4.1-5.53 1.74-9.17 1.43-9.17-14.08 3.16-15.98-6.5-10.76-8.07 6.58.37 4.47 2.48 7.1 4.43 4.75-4.4 7.6-4.8 10.45-.33 2.85-4.43 6.96-3.95 7.12-3.48 4.6 7.74-5.54 8.22-9.65 7.27 3.48 3.8 2.06 7.43.95 10.13.1 2.63 2.1 3.05 5.38 4.1-6.96-19.2 24.52 5.12-7.12 2.7l.16 2.53c2.57.47 4.36 1.1 5.2 3.8-1.1 1.47-2.84 1.68-5.53.63 0 0 1.58 4.43-1.27 5.7-2.37-1.43-2.7-4.9-2.7-4.9-1.3 1.62-3.26.57-4.9-.8 1.5-3.64 5.65-1.9 5.4-7.12zM311.6 308.7c1.2-5.47 13.96-4.8 7.9 1.12 4.06 6.5 16.5 5.54 21.2 1.9-3.96-7.54 6.8-5.9 6.32-.16-1.3 10.18-36.8 8.8-35.43-2.85z" fill-rule="evenodd"/><path d="M564.84 405.8c3.8 7.1 10.55 23.97 14.3 28 3.5 3.12 12.22 2.75 14.9-.8 0 0 5.6 5.77 7.85 7.5 1.33-.45 2.16-1.73 2.16-1.73-2.28-2.47-5.38-3.86-6.9-8.44 2.27-3.04 3.52-8.95 2-13.53-6.67-11.17-28.87-6.76-34.32-11zM287.84 211.7c-3.8-7.1-10.55-23.97-14.3-28-3.5-3.13-12.22-2.76-14.9.8 0 0-5.6-5.77-7.85-7.5-1.35.45-2.18 1.73-2.18 1.73 2.28 2.47 5.37 3.86 6.9 8.44-2.27 3.04-3.53 8.95-2 13.53 6.67 11.17 28.87 6.76 34.32 11zM285.58 404.7c-7.12 3.8-23.97 10.56-28 14.3-3.13 3.5-2.76 12.23.78 14.9 0 0-5.76 5.6-7.5 7.86.46 1.34 1.74 2.17 1.74 2.17 2.48-2.28 3.87-5.38 8.45-6.9 3.03 2.27 8.94 3.52 13.52 2 11.17-6.67 6.76-28.87 11-34.32zM565.42 211.7c3.8-7.1 10.55-23.97 14.3-28 3.5-3.13 12.22-2.76 14.9.78 0 0 5.6-5.75 7.85-7.5 1.34.47 2.17 1.75 2.17 1.75-2.28 2.47-5.38 3.86-6.9 8.44 2.27 3.04 3.52 8.95 2 13.53-6.67 11.17-28.87 6.76-34.32 11z" stroke="#991b33" stroke-width="1.52646"/><path stroke-linejoin="round" d="M317.3 321.22c-.3 2.3 5.23 3.32 10.9 3.35 5.67.03 11.48-.92 11.74-2.53.07-2.88-4.95-.43-10.67-.48-5.72-.05-10.48-2.3-11.97-.34zM317.75 327.64c.08 2.17 5.57 2.7 10.43 2.84 4.86.15 9.75-.82 10.65-2.4-.86-2.46-6.26-.4-10.65-.3-4.4.12-9.27-2.16-10.43-.14zM319.33 333.4c-.38 1.64 4.46 2.82 8.92 2.84s10.77-1.7 10.8-3.44c-.26-1.38-6.5.48-10.7.62-4.18.14-9.02-1.52-9.02-.02zM318.8 339.3c.37 1.6 5.86 2.15 10.7 1.8 4.82-.37 9.73-1.87 10.14-3.6-.22-1.07-5.77.85-10.37 1.1s-10.55-.57-10.48.7z" fill-rule="evenodd" stroke="#fc0" stroke-width="1.52646pt"/></g></svg>