<svg xmlns="http://www.w3.org/2000/svg" height="480" width="640"><g fill-rule="evenodd" stroke-width="1pt"><path fill="#00319c" d="M0 0h213.34v480H0z"/><path fill="#ffde00" d="M213.34 0h213.33v480H213.34z"/><path fill="#de2110" d="M426.66 0H640v480H426.66z"/></g><path d="M360.38 320.38l24.26 35c1.35 1.95 2.7 3.9.66 5.2-2.03 1.28-1.37 6.45-.02 8.4 2.7 3.9 6.08 4.55 8.1 3.26 2.05-1.3 16.3-10.3 18.33-11.6 2.05-1.28 2.73-4.52.04-8.4-1.55-1.97-6.08-4.56-8.12-3.27-2.03 1.3-3.38-.65-4.73-2.6-1.36-1.94-21.58-31.12-24.28-35" fill-rule="evenodd" stroke="#000" stroke-width=".7258769999999999" fill="#ff1900"/><path d="M177.17 696.26c0 24.46-9.52 44.3-21.26 44.3-11.73 0-21.25-19.84-21.25-44.3s9.52-44.3 21.26-44.3c11.75 0 21.27 19.84 21.27 44.3z" fill-rule="evenodd" transform="matrix(.5 -.4 .4 .5 -32.4 19.9)" stroke="#000" stroke-width="2.54" fill="#a77b3b"/><path d="M261.95 306.14l-21.42 36.67c-1.2 2.05-2.38 4.08-4.5 2.95-2.15-1.14-6.66 1.8-7.85 3.83-2.38 4.08-1.44 7.25.7 8.4 2.13 1.13 17.05 9.1 19.18 10.22 2.13 1.14 5.45.24 7.84-3.83 1.1-2.22 1.43-7.25-.7-8.4-2.13-1.13-.94-3.16.25-5.2l21.42-36.67" fill-rule="evenodd" stroke="#000" stroke-width=".7258769999999999" fill="#ff1900"/><path d="M331.17 280.58h-19.53c-.65.6-6.2 35.6-12.2 49-7.34 16.32-29.27 30.73-29.27 30.73s13.14 4 17.05 6.6c.97-.28 21.94-4.67 24.38-30.33 2.44 25.66-14.6 37.33-14.6 37.33s24.4 7 24.4 23.33c0-16.33 24.42-23.33 24.42-23.33s-12.25-11.67-14.7-37.33c4.9 25.66 23.5 30.05 24.47 30.33 3.9-2.6 17.04-6.6 17.04-6.6s-21.94-14.4-29.26-30.73c-6-13.4-11.56-48.38-12.2-49zM248.12 163.9l36.63 11.67c12.2 0 24.4-11.65 24.4-23.32.42-25.95-9.75-35-12.2-35l4.9-4.67-7.34-7s2.46-12.1 26.87-11.65c24.4.45 24.4 11.66 24.4 23.33 0 11.66-12.2 11.66-12.2 35 0 11.66 12.2 23.33 24.42 23.33l36.62-11.68v116.65h-146.5V163.9z" fill-rule="evenodd" stroke="#000" stroke-width="1.7101169999999999" fill="#a77b3b"/><g stroke="#000" fill="none"><path d="M302.16 292.24l14.64 14.96 14.65-14.96 14.64 14.96 29.28-14.96 14.27 15.8 15.02-15.8 21.6 15.8 22.34-15.8 14.65 14.96 14.65-14.96" transform="matrix(.2 0 0 .5 253.9 31.9)" stroke-width=".49"/><path d="M432.28 435.83l-7.1 38.98M435.83 435.83v38.98M442.9 435.83v38.98M450 435.83l3.54 38.98" transform="matrix(.7 0 0 .7 16.2 -144)" stroke-width=".2"/><path d="M336.16 161.08l2.48 27.28" stroke-width=".13999999999999999"/></g><g stroke="#000" stroke-width="2.54"><path d="M318.9 361.42c35.43 17.72 35.43 53.15 35.43 70.87-1.25 16.1 0 354.32 0 354.32s-2.3-20.03-17.7-35.44l-17.73-17.7-17.72-17.73c-12.95-11.77-17.7-35.43-17.7-53.15V414.57s0-17.72 35.42-53.15z" fill-rule="evenodd" transform="matrix(-.7 0 0 .7 443.4 -144)" fill="#a77b3b"/><path d="M283.46 574.02c.42 0 17.72-17.72 17.72-17.72l17.7 17.72 17.73-17.72 17.73 17.72" transform="matrix(-.7 0 0 .7 443.4 -237.3)" fill="none"/><path d="M283.46 574.02c.42 0 17.72-17.72 17.72-17.72l17.7 17.72 17.73-17.72 17.73 17.72" transform="matrix(-.7 0 0 -.7 443.4 530.2)" fill="none"/><path d="M283.46 574.02c.42 0 17.72-17.72 17.72-17.72l17.7 17.72 17.73-17.72 17.73 17.72" transform="matrix(-.7 0 0 .7 443.4 -190.7)" fill="none"/><path d="M301.4 557l-.22 158.75" transform="matrix(-.7 0 0 1.2 443.4 -566.8)" fill="none"/><path d="M301.4 539.27l-.22 176.48" transform="matrix(-.7 0 0 1.1 431.4 -464)" fill="none"/><path d="M301.4 539.27l-.22 176.48" transform="matrix(-.7 0 0 1.3 419.2 -548.3)" fill="none"/></g><g stroke="#000" stroke-width="2.54"><path d="M318.9 361.42c35.43 17.72 35.43 53.15 35.43 70.87-1.25 16.1 0 354.32 0 354.32s-2.3-20.03-17.7-35.44l-17.73-17.7-17.72-17.73c-12.95-11.77-17.7-35.43-17.7-53.15V414.57s0-17.72 35.42-53.15z" fill-rule="evenodd" transform="matrix(.7 0 0 .7 199.3 -144)" fill="#a77b3b"/><path d="M283.46 574.02c.42 0 17.72-17.72 17.72-17.72l17.7 17.72 17.73-17.72 17.73 17.72" transform="matrix(.7 0 0 .7 199.3 -237.3)" fill="none"/><path d="M283.46 574.02c.42 0 17.72-17.72 17.72-17.72l17.7 17.72 17.73-17.72 17.73 17.72" transform="matrix(.7 0 0 -.7 199.3 530.2)" fill="none"/><path d="M283.46 574.02c.42 0 17.72-17.72 17.72-17.72l17.7 17.72 17.73-17.72 17.73 17.72" transform="matrix(.7 0 0 .7 199.3 -190.7)" fill="none"/><path d="M301.4 557l-.22 158.75" transform="matrix(.7 0 0 1.2 199.3 -566.8)" fill="none"/><path d="M301.4 539.27l-.22 176.48" transform="matrix(.7 0 0 1.1 211.4 -464)" fill="none"/><path d="M301.4 539.27l-.22 176.48" transform="matrix(.7 0 0 1.3 223.6 -548.3)" fill="none"/></g><path d="M177.17 696.26c0 24.46-9.52 44.3-21.26 44.3-11.73 0-21.25-19.84-21.25-44.3s9.52-44.3 21.26-44.3c11.75 0 21.27 19.84 21.27 44.3z" fill-rule="evenodd" transform="matrix(.6 .3 -.3 .6 361.1 -165.2)" stroke="#000" stroke-width="2.54" fill="#a77b3b"/><path fill-rule="evenodd" fill="red" d="M248.12 175.6h146.5v69.98H248.1z"/><path d="M248.12 245.58h146.5v35c0 23.33-36.63 23.33-73.25 46.66-36.63-23.33-73.25-23.33-73.25-46.66v-35z" fill-rule="evenodd" fill="#564dff"/><path d="M336.6 485.43h212.6v159.45c0 35.43-53.14 35.43-106.3 70.87-53.14-35.44-106.3-35.44-106.3-70.87V485.43z" transform="matrix(.7 0 0 .7 16.2 -144)" stroke="#ff0" stroke-width="2.03" fill="none"/><path d="M385.6 129.9s-50.63 55.45-50.63 108.6c0 53.15 53.15 70.87 53.15 70.87s-17.72 0-17.72 70.86c0 35.43 53.15 17.72 53.15 35.43 0 17.72-.75 60.58 0 88.6 0 17.7-35.43 0-35.43 17.7 0 8.86 26.58 53.15 53.15 53.15s53.15-44.28 53.15-53.14c0-17.7-35.43 0-35.43-17.7v-88.6c0-17.7 53.14 0 53.14-35.43 0-70.86-17.72-70.86-17.72-70.86s53.15-17.72 53.15-70.87-50.62-108.6-50.62-108.6 28.47 73.16 28.47 108.6c0 17.72-13.28 53.15-48.72 53.15 0 0-8.96-17.72-17.7 0 0 0-10.2-17.72-17.73 0-2.6 6.1-7.2-17.72-17.72 0-4.46 4.7-7.98-17.72-17.7 0-17.73 0-53.16-17.72-53.16-53.15s32.9-108.6 32.9-108.6z" fill-rule="evenodd" transform="matrix(.5 0 0 .3 108.5 140.1)" stroke="#000" stroke-width="2.45" fill="#ff0"/><path d="M382.68 248.03c-3.54 3.54 4.58 61.27 7.1 63.78 3.53 3.55 24.8 3.55 28.33 0 2.54-2.52 0-56.68-3.53-60.23-3.54-3.54-29.38-6.05-31.9-3.54z" fill-rule="evenodd" transform="matrix(.5 0 0 .3 110.4 201.6)" stroke="#000" stroke-width="2.45" fill="#ff0"/><path d="M382.68 248.03c-3.54 3.54 4.58 61.27 7.1 63.78 3.53 3.55 24.8 3.55 28.33 0 2.54-2.52 0-56.68-3.53-60.23-3.54-3.54-29.38-6.05-31.9-3.54z" fill-rule="evenodd" transform="matrix(-.5 0 0 .3 532.4 201.6)" stroke="#000" stroke-width="2.45" fill="#ff0"/><path d="M414.57 228.54c0 8.8-7.14 15.95-15.95 15.95-8.8-.02-15.94-7.15-15.94-15.96 0-8.8 7.14-15.95 15.95-15.95 8.8 0 15.94 7.13 15.94 15.94z" fill-rule="evenodd" transform="matrix(.6 0 0 .4 82.7 183.7)" stroke="#000" stroke-width="2.45" fill="#ff0"/><path d="M414.57 228.54c0 8.8-7.14 15.95-15.95 15.95-8.8-.02-15.94-7.15-15.94-15.96 0-8.8 7.14-15.95 15.95-15.95 8.8 0 15.94 7.13 15.94 15.94z" fill-rule="evenodd" transform="matrix(.6 0 0 .4 118 183.7)" stroke="#000" stroke-width="2.45" fill="#ff0"/><path d="M336.75 307.5c0 1.5-1.9 2.74-4.27 2.74-2.36 0-4.27-1.23-4.27-2.74 0-1.5 1.92-2.74 4.28-2.74 2.36 0 4.27 1.23 4.27 2.74zM314.53 307.5c0 1.5-1.9 2.74-4.27 2.74-2.36 0-4.27-1.23-4.27-2.74 0-1.5 1.9-2.74 4.26-2.74s4.27 1.23 4.27 2.74z" fill-rule="evenodd"/><path fill-rule="evenodd" transform="matrix(.7 0 0 .6 26 -133.3)" stroke="#000" stroke-width="1.08" fill="#ff0" d="M439.37 549.92l-7.78-10.26-12.78 1.75 1.76-12.75-10.26-7.78 10.26-7.8-1.76-12.75 12.77 1.76 7.77-10.27 7.78 10.28 12.77-1.76-1.76 12.76 10.26 7.8-10.26 7.77 1.76 12.76-12.77-1.74z"/><path d="M496.06 591.73l21.26 10.63 21.26-10.63-21.26-10.63-21.26 10.63z" fill-rule="evenodd" transform="matrix(.7 0 0 .7 16.2 -144)" stroke="#000" stroke-width="1.08" fill="#ff0"/><path d="M496.06 591.73l21.26 10.63 21.26-10.63-21.26-10.63-21.26 10.63z" fill-rule="evenodd" transform="matrix(.7 0 0 .7 -88.8 -144)" stroke="#000" stroke-width="1.08" fill="#ff0"/><path d="M535.04 659.06c-3.54-7.1-14.17-10.63-21.26-10.63-7.1 0-14.17 0-21.26 10.63 0-14.17 10.5-21.26 21.26-21.26 10.76 0 21.26 10.5 21.26 21.26z" fill-rule="evenodd" transform="matrix(.6 -.3 .3 .6 -165.2 86.5)" stroke="#000" stroke-width="1.08" fill="#ff0"/><path d="M386.22 651.97c0 3.9-3.17 7.1-7.1 7.1s-7.07-3.2-7.07-7.1 3.17-7.1 7.08-7.1 7.1 3.2 7.1 7.1z" fill-rule="evenodd" transform="matrix(.7 0 0 .7 13.7 -155.7)" stroke="#000" stroke-width="1.08" fill="#ff0"/><path d="M386.22 651.97c0 3.9-3.17 7.1-7.1 7.1s-7.07-3.2-7.07-7.1 3.17-7.1 7.08-7.1 7.1 3.2 7.1 7.1z" fill-rule="evenodd" transform="matrix(.7 0 0 .7 8.8 -139.4)" stroke="#000" stroke-width="1.08" fill="#ff0"/><path d="M386.22 651.97c0 3.9-3.17 7.1-7.1 7.1s-7.07-3.2-7.07-7.1 3.17-7.1 7.08-7.1 7.1 3.2 7.1 7.1z" fill-rule="evenodd" transform="matrix(.7 0 0 .7 6.4 -148.7)" stroke="#000" stroke-width="1.08" fill="#ff0"/><path d="M386.22 651.97c0 3.9-3.17 7.1-7.1 7.1s-7.07-3.2-7.07-7.1 3.17-7.1 7.08-7.1 7.1 3.2 7.1 7.1z" fill-rule="evenodd" transform="matrix(.7 0 0 .7 18.6 -139.4)" stroke="#000" stroke-width="1.08" fill="#ff0"/><path d="M386.22 651.97c0 3.9-3.17 7.1-7.1 7.1s-7.07-3.2-7.07-7.1 3.17-7.1 7.08-7.1 7.1 3.2 7.1 7.1z" fill-rule="evenodd" transform="matrix(.7 0 0 .7 21.1 -148.7)" stroke="#000" stroke-width="1.08" fill="#ff0"/><path d="M386.22 651.97c0 3.9-3.17 7.1-7.1 7.1s-7.07-3.2-7.07-7.1 3.17-7.1 7.08-7.1 7.1 3.2 7.1 7.1z" fill-rule="evenodd" transform="matrix(.7 0 0 .7 13.7 -146.4)" stroke="#000" stroke-width="1.08" fill="#ff0"/><g fill-rule="evenodd"><path d="M297.77 120.38c-12.32 0-13.95 1.95-19.53 3.9 0-5.38 13.72-11.68 26.04-11.68 0 3.9-3.25 7.78-6.5 7.78z" fill="#da4500"/><path d="M316.48 107.93c0 2.58-2.18 4.67-4.88 4.67s-4.88-2.1-4.88-4.67 2.18-4.66 4.88-4.66 4.88 2.1 4.88 4.66z" fill="#cac9c7"/><path d="M361.42 357.87v10.63h17.72v53.15h10.63V368.5h17.7v-10.63h-17.7V343.7h-10.63v14.17h-17.72z" stroke="#000" stroke-width="1.08" fill="#ff0" transform="matrix(.7 0 0 .7 16.2 -144)"/><path d="M304.26 112.6c-14.37 0-22.78 1.3-29.3 3.9 0-7.16 8.42-15.56 22.8-15.56 3.25 0 6.5 7.78 6.5 11.67z" fill="#da4500"/></g><g fill-rule="evenodd"><path d="M67.32 613c-14.17-14.18-16.63-21.37 3.55-10.1l283.75 247.5-3.37 6.96L67.32 613z" transform="matrix(.4 .3 -.1 .2 237.4 71.3)" stroke="#000" stroke-width=".71" fill="#008500"/><path d="M228.4 330.4c.77-10.58-18.6-22.03-19.38-21.3-.77.76 1.18 6.92 4.85 10.13-7.03-3.62-14.4-5.86-14.56-4.28-.56 2.12 10.95 7.2 11.9 9.14.16 1.4-8.45 1.2-8.3 2.6.16 1.4 24.26 13.58 25.5 3.7zM209.03 299.57c.77-10.58-18.6-22.03-19.37-21.3-.77.75 1.18 6.92 4.85 10.13-7.03-3.63-14.4-5.86-14.55-4.3-.58 2.14 10.93 7.2 11.9 9.16.15 1.4-8.46 1.22-8.3 2.62.15 1.4 24.24 13.57 25.48 3.7zM194.22 271.57c.77-10.58-18.6-22.03-19.38-21.3-.77.76 1.18 6.92 4.85 10.13-7.04-3.62-14.42-5.86-14.57-4.28-.57 2.12 10.94 7.2 11.9 9.14.15 1.4-8.46 1.22-8.3 2.62.15 1.4 24.25 13.57 25.5 3.7zM179.57 241.24c.77-10.58-18.6-22.04-19.38-21.3-.78.75 1.17 6.92 4.84 10.13-7.03-3.63-14.4-5.86-14.56-4.3-.57 2.13 10.94 7.2 11.9 9.16.15 1.4-8.46 1.22-8.3 2.62.15 1.4 24.25 13.57 25.5 3.7z" fill="#008f00"/><path d="M184.6 239.87c9.38-5.7 7.54-27.4 6.46-27.54-1.08-.15-5.12 5-5.65 9.74-1.1-7.57-3.6-14.57-5-13.75-2.14.8.4 12.68-.67 14.57-1.1.94-6.04-5.8-7.12-4.84-1.08.95 2.94 26.7 12 21.8zM198.2 266.5c10.8-2.37 16.66-23.4 15.7-23.9-.97-.48-6.58 3.08-8.73 7.38 1.6-7.5 1.7-14.88.07-14.57-2.3.1-4.03 12.1-5.72 13.54-1.35.55-3.67-7.38-5.02-6.83-1.36.56-6.57 26.13 3.7 24.4zM214.4 293.74c9.88-4.86 10.1-26.63 9.03-26.87-1.07-.24-5.58 4.54-6.55 9.2-.4-7.62-2.22-14.8-3.7-14.1-2.2.62-.78 12.65-2.03 14.45-1.17.85-5.47-6.28-6.64-5.43-1.16.84.43 26.84 9.9 22.74zM231.97 329.3c10.34-3.87 12.85-25.5 11.82-25.85-1.05-.35-6.04 3.98-7.5 8.53.4-7.63-.64-14.95-2.2-14.4-2.25.4-2.1 12.5-3.54 14.18-1.26.73-4.78-6.78-6.03-6.04-1.26.73-2.43 26.75 7.44 23.6z" fill="#008f00"/></g><path d="M209.06 775.98c0 7.83-10.3 14.17-23.03 14.17-12.72 0-23.03-6.34-23.03-14.17s10.3-14.17 23.03-14.17c12.72 0 23.03 6.35 23.03 14.18z" fill-rule="evenodd" transform="matrix(.6 .3 -.3 .6 389.6 -146.8)" stroke="#000" stroke-width="1.08" fill="#ff1900"/><g stroke="#000" fill-rule="evenodd" fill="#ff0" stroke-width=".51"><path d="M155.9 414.57v-7.1h7.1v-7.07h7.08v7.08h7.1v7.1h-7.1v17.7H163v-17.7h-7.1zM163 474.8h7.08v205.5h-7.1z" transform="matrix(.5 .2 -.2 .5 451.4 -3.7)"/><path d="M395.77 366.57l7.1 2.84-11.35 28.35-7.1-2.83zM441.48 247.17l10.63 4.25c7.1 2.83-9.56 18.78-9.56 18.78l-7.08-2.84s-1.07-23.03 6.02-20.2z" stroke-width=".2746452"/><path d="M451.4 248.05c-.6 1.47-2.65 2.03-4.6 1.24s-3.08-2.6-2.5-4.08 2.66-2.02 4.62-1.24 3.07 2.6 2.48 4.07z" stroke-width=".2746452"/></g><path d="M209.06 775.98c0 7.83-10.3 14.17-23.03 14.17-12.72 0-23.03-6.34-23.03-14.17s10.3-14.17 23.03-14.17c12.72 0 23.03 6.35 23.03 14.18z" fill-rule="evenodd" transform="matrix(.6 -.4 .4 .5 -2.3 4.2)" stroke="#000" stroke-width="1.08" fill="#ff1900"/></svg>