<svg xmlns="http://www.w3.org/2000/svg" height="480" width="640"><g fill-rule="evenodd"><path fill="#c4272f" d="M0 0h640v480H0z"/><path fill="#015197" d="M213.33 0h213.33v480H213.33z"/><path d="M102.54 244.2c9.9.3 11.44-3.15 11.44-6.6v-11.74c0-1.43 3.8-2.86 3.8-5.44 0-2.58-1.9-5.45-2.66-7.17-1.15 4.3-3.05 8.6-6.48 10.03-1.53-3.44-1.9-4.58-1.15-6.3.76-1.72 0-4.3-1.53-6.88-1.14 5.45-4.58 6.88-4.96 8.6-.37 1.72-1.5 6.6-3.8 4-2.3-2.57-3.8-5.72-4.96-9.16-2.28 6.88-1.14 8.3-.38 9.46.76 1.14 1.53 4.58 1.53 6s-1.54 7.18-.77 8.9c.76 1.72 1.14 6.87 9.9 6.3zm27.6 24.8a25 18.8 0 1 1-50 0 25 18.8 0 1 1 50 0z" fill-opacity=".87" fill="#f9cf02"/><path d="M140 276.43c-13.2 18.44-38.62 23.56-57.46 11.2-4.97-3.25-8.6-6.9-12.06-11.57 3.12 13.25 12.56 22.64 25.64 26 19.24 4.92 38.9-6.56 43.88-25.63zM66.87 421.7h74.38v15.48H66.87zm3.64-109.35l33.18 20.13 33.55-20.13H70.5zm0 21.8h67.1v15.46H70.5zm0 112.94l33.18 15.75 33.55-15.76H70.5zM20.32 312.57h32.4v149.6H20.3zm133.2 0h32.4v149.6h-32.4zm-72.35 52.55c9.9-7.33 24.7-12.8 30-6.88 5.36 6.15 6.63 11.63 5.46 16.57-1.58 4.3-8.68 9.4-13.94 6.7-6.03-2.86-15.66 7-16.77 12.46-1.45 5.8-1.6 12.73.07 19.14-15.8-18.43-16.88-39.76-4.8-48zm26.9 9.1c-2.74 1.6-6.7-.02-8.87-3.63-2.16-3.6-.5-4.95 2.22-6.56 2.73-1.6 5.5-2.86 7.66.75 2.16 3.6 1.7 7.84-1.02 9.44zM123.3 407c-9.76 7.5-25.87 10.4-31.24 4.52-5.4-6.08-.93-13.76.18-18.73 1.52-4.33 8.56-8.12 13.83-5.48 6.05 2.76 15.76-8.07 14.6-15 1.38-5.87-.5-6.87-3.35-15.46 15.98 18.25 17.92 41.68 6 50.13zm-21.77-11.57c2.7-1.65 5.94-.8 8.14 2.78 2.2 3.6 2.05 6.42-.65 8.08-2.7 1.65-6.93 1.5-9.13-2.08s-1.07-7.12 1.63-8.77z" fill-opacity=".87" fill="#f9cf02"/></g></svg>