<svg xmlns="http://www.w3.org/2000/svg" height="480" width="640"><g fill-rule="evenodd" stroke-width="1pt"><path fill="#fff" d="M0 0h639.98v480H0z"/><path fill="#0b7226" d="M0 0h214.3v480H0z"/><path fill="#bc0000" d="M426.9 0H640v480H426.9z"/></g><path d="M213.13 258.7c.07-.1 3.46-6.03 3.06-5.07 1.55 1.2 4.4.06 2.34-2.63.5-1.1 1.14-1.92 1.64-3 1.14-2.14-1.3-3.06-2.26-1.6-.6 1.14-1.16 1.8-1.75 2.94-3.07-1.45-3.27 1.97-1.8 2.57-.66.94-1.77 2.46-2.42 3.38.4 1.14.78 2.3 1.18 3.43z" fill-rule="evenodd" fill="#9c4314"/><path d="M212.72 257.4c-.1-.1-6.08-3.4-5.12-3 1.17-1.58 0-4.42-2.66-2.3-1.1-.5-1.94-1.13-3.04-1.6-2.14-1.12-3.03 1.33-1.54 2.27 1.14.58 1.82 1.13 2.95 1.7-1.4 3.1 2.03 3.25 2.6 1.77.94.64 4.55 2.74 5.48 3.38 1.14-.4.2-1.83 1.34-2.23zM234.37 293.67c.02-.13.17-6.96.27-5.93 1.95.3 3.92-2.05.8-3.43-.06-1.2.1-2.22.03-3.42-.02-2.4-2.6-2.06-2.74-.3 0 1.27-.17 2.13-.15 3.4-3.4.2-1.94 3.3-.36 3.12-.13 1.13-.38 3-.52 4.1l2.67 2.47z" fill-rule="evenodd" fill="#9c4314"/><path d="M233.38 292.7c-.12-.02-6.96-.08-5.93-.2.28-1.95-2.1-3.88-3.44-.76-1.18.1-2.22-.05-3.4.04-2.43.05-2.04 2.62-.28 2.74 1.27-.03 2.13.13 3.4.1.24 3.4 3.33 1.9 3.13.3l5.76.62c.8-.9-.02-1.95.78-2.85z" fill-rule="evenodd" fill="#9c4314"/><path d="M304.13 316.12s2.34 3.17 3.4 3.28c3.28.24 29.3 0 29.3 0 0-.03.95-.54.95-.58.86-1.1.78-1.72 1.64-2.82 1.37-1.36 3.32-1.8 4.7-3.16 5.85-1.4 11.13-2.8 17-3.75-.48-3.5-4-2.75-5.87-4.12-.6-.54-.47-1.1-.12-1.64l13.02-5.98v-1.4c-9.23 1.1-17.75 2.9-27.68 3.28L306.6 313.2l-2.47 2.92z" fill-rule="evenodd" stroke="#000" stroke-width=".99375" fill="#42b2f3"/><path d="M210.44 253.86h-.1c.57 0 .1.04 0-1.4" stroke="#000" stroke-width=".525" fill="none"/><path d="M210.95 255.43c-1.76-6.22-4.6-11.66-11.23-13.27-1.25-.28-2.13-3.84-.06-3.67 1.18.46.03-.23 1.2.24 1.16.4 2.97-.5 2.22-2.48 0-.23-2.2-4.16-2.2-4.28-.43-.45.34-2.97 2.33-1.64.95.6 1.9 2.06 3.24 2.34.5-.08.83-1.63.74-2.82l.12-4.05c-.47-2.36 1.63-3.57 3.3-1.8.13.6 0 .6.12 1.18.38.78.85.9 1.4.12l2.23-2.23c1.32-.5 2.15-1 2.23 1.76 0 0-1.83 2.28-2.7 3.1-.44.68-1.4 1.58.28 2.08.12 0 2.42.34 2.42.34 1.57.65 1.74 2.38.58 2.54 0 0-1.23 1.43-3.4 2.63-.65.54-1.2 1.18-.6 1.9 1.23.5.83.03 2.95.03 1.8-.4 1.64 3.97-1.6 3.68-.96.24-2.24.14-2.76 1.7-.24 1.2-.3 3.5-.3 4.1-.2 2.78.2 6.65.2 6.77.25 2-.46 1.3-.7 1.76zM230.14 291.18c-.23-.3-6.1-6.73-12.9-6-1.26.15-3.3-2.9-1.28-3.44 1.26.05.28-.13 1.54-.1 1.07-.73-.86-3.04-1.73-2.24-.08-.22-2.33.48-3.28.3-2.96-.3-4.25-3.6-2.1-4.84 1.34.5 3.88.56 5.25.37 1.35-.4.72-1.64-.6-1.83-1.85-.27-9.38-2.1-8.72-3.02-1.24-2.07 0-3.67 2.18-2.57 1.8 1.1 2.02.5 1.58-.33-.53-1.55-1.05-1.17-1.13-2.52-.13-.87.15-1.65 1.43-1.1.54-.46 1.43 2.8 4.78 1.56.62.52 1.15-3.5 3.48-2.9 1.74.55.55 2.36.9 4.92.27 1.7 1.95 1.3 2.18.42-.36-3.87 3.43-3.94 3.86-2.63.36.97.68 3.57.22 6.02-.25 1.25-.05 3.72.75 4.2 1.33.05.47-.26 1.4-1.64 1.53-1 3.93 2.6 1.12 4.42-2.96.64 1.68 11.94 2.07 12.57-.43.46-.94-.1-1 .4z" fill-rule="evenodd" stroke="#286726" stroke-width="1.828125" fill="#008d00"/><path d="M266.56 321.4c0-.13-.92-6.9-.65-5.9 1.97 0 3.55-2.63.27-3.5-.26-1.18-.26-2.23-.53-3.4-.4-2.38-2.88-1.63-2.75.13.2 1.25.16 2.13.38 3.4-3.32.7-1.4 3.54.13 3.12.06 1.13.1 3 .14 4.14l3.02 2z" fill-rule="evenodd" fill="#9c4314"/><path d="M266.44 320.6c-.12 0-6.9 1.02-5.9.74 0-1.97-2.67-3.5-3.5-.2-1.17.27-2.22.28-3.38.56-2.38.43-1.6 2.9.16 2.76 1.25-.24 2.13-.2 3.38-.45.76 3.33 3.58 1.36 3.14-.16l5.78-.3c.65-1.02-.33-1.92.32-2.94z" fill-rule="evenodd" fill="#9c4314"/><path d="M264.13 283.55c16.55 9.77 20.8 8.35 20.12 4.03.8 0 .96.7 3.3-1.04-.32 6.4 6.65 10.07 10.9 9.3 3.83.25 3.34 5.32 3.34 5.32.22 5.2-1.52 7.28-1.3 12.47-.05 0-.1-.62-.17-.62-4.7-1.1-14-1.24-17.48-2 15.95-10.87-12.27-11.17-14.8-11.54-1.9-.25-.54-2.1.57-2.6 8.78-1.73-8.25-10.04-7.8-11.03-1.05-.62.06-1.12.06-1.12 1.17-.74 2.1-.4 3.25-1.15z" fill-rule="evenodd" stroke="#000" stroke-width="1.0406250000000001" fill="#33b1e9"/><path d="M305.46 291.83c-2.88 0-5.2 2.32-5.2 5.2-.86 3.95-.74 9.52 0 14.83 0 2.88 2.32 5.2 5.2 5.2 11.46 1.23 23.78.86 34.38 0 2.87 0 5.2-2.32 5.2-5.2 1.35-4.7.98-9.64 0-14.83 0-2.88-2.33-5.2-5.2-5.2-11.46-.5-23.17-1.1-34.38 0z" fill-rule="evenodd" stroke="#000" stroke-width="1.4812500000000002" fill="#983d25"/><path stroke-linejoin="round" d="M266.76 150.57l-7.84 6.8c-3.23 1.42-6.73 3.2-4.2 10.78-1.48 9.73 6.37 11.27 13.23 9.24 1.14-2.53 1.5-4.27 2.65-6.8-3.03-.46-4.66.6-7.4.42-1.9-.3-2.04-1.73-1.34-2.66 2.96-1.47 5.65-2.87 8.6-4.34-.06-.45-.13-.12-.2-.57-2.45 1.27-4.2 1.7-6.8 2.74-2.05.7-2.63-1.93-1.8-3.1 0 0 5.3-7.63 5.3-7.7.45-1.6.15-4.3-.2-4.83z" fill-rule="evenodd" stroke="#000003" stroke-linecap="round" stroke-width=".99375" fill="#268728"/><path d="M288.68 284.03c0 2.27-1.84 4.1-4.1 4.1-2.28 0-4.12-1.83-4.12-4.1 0-2.27 1.84-4.1 4.1-4.1 2.28 0 4.12 1.83 4.12 4.1z" fill-rule="evenodd" stroke="#000" stroke-width=".9894999999999999" fill="#fff"/><path d="M269.2 299.53c0 2.14-1.74 3.87-3.88 3.87-2.14 0-3.88-1.73-3.88-3.87s1.74-3.88 3.88-3.88c2.14 0 3.87 1.74 3.87 3.88z" fill-rule="evenodd" stroke="#000" stroke-width=".988927" fill="#fff"/><path d="M365.48 308.2c0 2.15-1.74 3.9-3.88 3.9-2.14 0-3.87-1.75-3.87-3.9 0-2.13 1.73-3.86 3.87-3.86s3.88 1.73 3.88 3.87z" fill-rule="evenodd" stroke="#000" stroke-width=".9814634" fill="#fff"/><path stroke-linejoin="round" d="M267.13 155.75c.1 2.33.15 5.26.15 6.15-.1-2.18-.86-3.92-1.14-4.78.34-.56.9-1.37.98-1.37z" fill-rule="evenodd" stroke="#000" stroke-width=".525" fill="#ba4600"/><path d="M305.12 312.9c0 2.15-1.74 3.88-3.88 3.88-2.14 0-3.87-1.73-3.87-3.87 0-2.13 1.73-3.87 3.87-3.87s3.88 1.74 3.88 3.88zM345.98 312.9c0 2.15-1.73 3.88-3.87 3.88-2.13 0-3.86-1.73-3.86-3.87 0-2.13 1.73-3.87 3.87-3.87 2.15 0 3.88 1.74 3.88 3.88zM345.98 294.12c0 2.14-1.73 3.87-3.87 3.87-2.13 0-3.86-1.74-3.86-3.88 0-2.14 1.73-3.87 3.87-3.87 2.15 0 3.88 1.73 3.88 3.87zM305.35 294.12c0 2.14-1.73 3.87-3.87 3.87s-3.88-1.74-3.88-3.88c0-2.14 1.74-3.87 3.88-3.87 2.14 0 3.87 1.73 3.87 3.87z" fill-rule="evenodd" stroke="#000" stroke-width="1.4255476" fill="#973100"/><path d="M267.14 323.5c-.23-.28-1.96-5.2-11.8-5.43-1.38-.08-2.26.32-5.06.12-1.63.13-1-1.8-.35-2.5 1.07-.75-3.8-.4-5.47-.2-1.7-.1-2.82-.37-3.77-.57-2.96-.28-4.7-2.35-2.53-3.6.9-.9 4.57.12 5.94-.07 1.36-.4 1.17-2.7-.14-2.88-1.87-.27-10-.88-9.34-1.8-1.25-2.07-.9-3.14 2.35-2.74 1.8 1.1 1.75-.3 1.3-1.12-.53-1.55-3.5-1.8-3.57-3.14-.48-3.23 1.64-3.66 2.92-3.12.54-.45-2.42-2.98.93-4.2.83-.27 2.55-.06 3.12 3 1.75.54.54-2 2.9-3.05 2.04-.84-.13 9.1 2.3 9 2.07.85 1.66-5.42 3.4-4.2 3.78-.97 1.95 12.04 3.6 11.26 2.72 2.38 3-2.14 3.8-1.65 1.33.04 2.22.1 1.47 3.08-.55 2.33.28 2.87.7 3.8 2.55 5.62 6.37 5.57 7.65 8.15.4 3.82-.3 1.36-.36 1.88z" fill-rule="evenodd" stroke="#286726" stroke-width="1.828125" fill="#008d00"/><path d="M314.24 332.14c-4.7 3.87-9.58 6.37-11.37 10.4 2.14-.3 2.97-.66 4.57-.45 1.73-3.9 7.18-5.96 10.4-9.1l-3.6-.86zM326.82 332.56c4.25 3.92 9.52 6.17 11.37 10.32-2.15-.3-3.04-.58-4.32-.25-1.73-3.88-7.44-6.14-10.65-9.27 1.2-.3 2.4-.52 3.6-.8z" fill-rule="evenodd" stroke="#000" stroke-width=".99375" fill="#009400"/><path d="M323.6 333.35c5.16 3.1 7.22 5.32 10.4 9.28-1.53.1-3.67.78-4.46 1.23-3.83-4.98-6.8-6.76-10-9.9 1.18-.28 2.87-.32 4.07-.6z" fill-rule="evenodd" stroke="#000" stroke-width=".99375" fill="#fff"/><path d="M274.96 165.94c-2.06.57-2.95 2.3-3.14 3.94-7.6 5.32-2.08 15.8 4.97 13.63-5.22-7.8 0-12.22 5.8-9.48 1.76 1.3 2.98 3.98 3.15 3.8 1.1-2.38 5.47-4.46 5.47-4.46s3.52.47 4.15-1.8c.4-1.46 3.64-7.5 3.64-7.5l-11.26-2.3-7.8-.18-4.14 1.83c-.55.9-.28 1.66-.84 2.54z" stroke-opacity=".77" fill-rule="evenodd" stroke="#000" stroke-width=".99375" fill="#ffba00"/><path d="M319.4 333.6c5.15 3.1 7.52 6 10.7 9.95-1.4.4-1.88 2.7-2.66 3.16-2.48-4.97-6.57-9.22-10.9-13.47 1.2-.3 1.66.66 2.86.38z" fill-rule="evenodd" stroke="#000" stroke-width=".99375" fill="#d40000"/><path d="M317.46 333c-5.15 3.1-6.95 5.07-10.13 9.02 1.53.1 3.4 1.04 4.2 1.5 3.83-5 6.8-6.76 10-9.9-1.2-.28-2.88-.32-4.07-.6z" fill-rule="evenodd" stroke="#000" stroke-width=".99375" fill="#fff"/><path d="M321.66 333.25c-5.15 3.1-7.32 6.18-10.5 10.14 2.56 1.8 1.94 1.93 2.46 2.96 2.47-5 7.92-9.1 12.24-13.36-1.2-.28-3 .54-4.2.25z" fill-rule="evenodd" stroke="#000" stroke-width=".99375" fill="#d40000"/><path d="M203.7 472.45c0 5-7.23 9.06-16.14 9.06-8.9 0-16.12-4.05-16.12-9.05s7.22-9.06 16.12-9.06c8.9 0 16.13 4.05 16.13 9.05z" fill-rule="evenodd" transform="matrix(.4 .1 -.1 .4 238.5 46.8)" stroke="#000" stroke-width="2.24" fill="#973000"/><path d="M313.3 326.76c-3.73 2.67-8.98 6.24-12.7 8.9-.76.66 2.58 1.34 3.8.74 3.93-2.7 6-4.45 9.9-7.14l2.25-1.26c-1.6-.1-1.66-1.12-3.26-1.24z" fill-rule="evenodd" stroke="#005e00" stroke-width=".99375" fill="#008d2b"/><path d="M203.7 472.45c0 5-7.23 9.06-16.14 9.06-8.9 0-16.12-4.05-16.12-9.05s7.22-9.06 16.12-9.06c8.9 0 16.13 4.05 16.13 9.05z" fill-rule="evenodd" transform="matrix(.3 -.1 .2 .4 137.8 164.1)" stroke="#000" stroke-width="2.55" fill="#973000"/><path d="M351.17 285.63c.2-10.2 9.13-1.26 12.64-5.46 8.26-9.72 8.96-10.46 16.25-9.4 19.52 7.67-.86 25.4-20.8 17.33-2.2-1.2-5.9-1.26-8.08-2.47z" fill-rule="evenodd" stroke="#000" stroke-width="1.0406250000000001" fill="#008d00"/><g fill-rule="evenodd" fill="#6d390b"><path d="M424.8 252.05c-.27 1.14-1.6 1.74-2.98 1.35s-2.3-1.63-2.03-2.77 1.58-1.74 2.96-1.35 2.3 1.63 2.03 2.77z"/><path d="M424.13 251.53l4.75 4.13-1.25 1.44-4.75-4.13z"/></g><path d="M395.32 266.62l1.04 1.46 3.58-3.13-1.04-1.45-3.58 3.12z" fill-rule="evenodd" fill="#6d390b"/><path d="M305.46 291.7c6.06 1.86 10.5 23.87 16.45 25.85M311.27 291.58c6.06 1.85 10.4 23.87 16.32 25.84M316.96 291.33c6.06 1.86 10.5 24 16.45 25.97" stroke="#000" stroke-linecap="round" stroke-width="1.4812500000000002" fill="none"/><path d="M203.7 472.45c0 5-7.23 9.06-16.14 9.06-8.9 0-16.12-4.05-16.12-9.05s7.22-9.06 16.12-9.06c8.9 0 16.13 4.05 16.13 9.05z" fill-rule="evenodd" transform="matrix(.3 -.1 .2 .4 226.3 148.8)" stroke="#000" stroke-width="2.24" fill="#973000"/><path d="M398.17 271.68c.3 1.17-.22 2.7-2.3 3.23-2.06.54-4-.26-4.3-1.44-.3-1.17.9-2.86 2.96-3.4 2.06-.53 3.33.44 3.64 1.62z" fill-rule="evenodd" stroke="#000" stroke-width=".946875" fill="#dc0000"/><path d="M307.18 328c-3.07.63-10.06 2.15-13.1 8.25-.56 1.15-5.16 2.04-4.53.06.72-1.03.97-1.12 1.7-2.16-.07-1.3-3.04-.9-2.84.25-.22-.06-1.66.22-2.34.92-1.82 2.33-4.94 2.22-4.83-.26 1.15-.86 1.73-1.68 2.3-2.93.4-1.36-2.27-1.85-3.13-.85-1.83.96-2.97 2.33-5.14 3.38-2.42.87-4.74-.68-2.64-1.92 1.9-.93.32-3.08-.6-3.15-1.6-.4-8.13.7-9.3.05-.92-.12-2.6-2.54-.64-2.97 1.8-.6 4.77.65 5.54-2.84.77-5.87 10.08 3 8.57.56-3.42-5.05 2.4-6.24 4.14-2.8.72 1.55 4.26 3.85 5.3 3.42 1.93.2-3.6-4.9.8-5.72 1 .2 2.77.3 4 2 .92.87 1.1 4.5 4.53 4.8.75-1.1.03-.54-.63-2.06 0-1.83 3.03-1.68 4.33 1.43 1.28 2.37 8.07.76 14.28.9 2-.33 5.2 1.42-5.78 1.64z" fill-rule="evenodd" stroke="#286026" stroke-width="1.828125" fill="#008d00"/><path d="M391.3 271.45c1.08 1.68 1.06 4.34-1.9 6.26s-6.4 1.7-7.5.02c-1.1-1.68-.1-4.96 2.85-6.88s5.44-1.07 6.54.6z" fill-rule="evenodd" stroke="#000" stroke-width=".99375" fill="#dc0000"/><path d="M393.4 264.5c1.03.65 1.68 2.12.53 3.92-1.14 1.8-3.1 2.53-4.14 1.88-1.03-.65-1.3-2.7-.16-4.5 1.15-1.8 2.74-1.96 3.77-1.3z" fill-rule="evenodd" stroke="#000" stroke-width=".946875" fill="#dc0000"/><path d="M396.52 267.55c.66 1.02.65 2.63-1.14 3.8-1.8 1.16-3.9 1-4.55 0-.66-1.02-.07-3 1.72-4.17 1.8-1.16 3.3-.65 3.97.37z" fill-rule="evenodd" stroke="#000" stroke-width=".946875" fill="#dc0000"/><path d="M403.18 261.52c.5.77.48 1.98-.86 2.86-1.35.87-2.93.76-3.43 0-.5-.77-.06-2.26 1.3-3.14 1.34-.87 2.48-.48 2.98.28z" fill-rule="evenodd" stroke="#000" stroke-width=".7125" fill="#d90000"/><path d="M318.1 323.33c-2.65.3-4.15.47-4.65 2.38-.28 1.3-.06 3 .17 4.45 0 1.66 2.1 2.77 4.55 3.25h4.22c1.77 0 5.05-1.74 5.05-3.4.26-.95.26-2.48.26-3.5 0-2.8-1.98-3-4.45-3.25l-5.16.08z" fill-rule="evenodd" stroke="#000" stroke-width=".99375" fill="#fff"/><path d="M411.73 290.2c-.3-9.74-2.85-23.85 9.1-28.7 1.54-.4 2.1.48 1.57 1.76-3.55 8.98-7.1 17.95-10.67 26.93z" fill-rule="evenodd" stroke="#286326" stroke-width="1.63125" fill="#008f00"/><path d="M427.18 270.37c2.12-4 7.38-5 9.23-4.88-3.65 3.74-7.32 12.93-9.38 15.94-2.97 5.1-11.63 8.74-16.82 11.75 5.8-7.93 11.16-14.9 16.98-22.83z" fill-rule="evenodd" stroke="#286326" stroke-width="1.63125" fill="#008c00"/><path d="M318.3 323.28s-2.63.46-2.68.46-2.06 1.3-2.06 1.3l-.4 2.57.46 2.9 1.23 1.7 3.23 1.1.23-10.03z" fill-rule="evenodd" stroke="#000" stroke-width=".525" fill="#009400"/><path d="M410.16 293.17c.35-.35 6.84-30.95 17.66-34.57 1.75 2.27.9 7.2.2 9.84-3.3 11.42-11.4 19.25-17.86 24.73z" fill-rule="evenodd" stroke="#286326" stroke-width="1.63125" fill="#008d00"/><g fill-rule="evenodd" fill="#6d390b"><path d="M434.05 255.52c-.46 1.07.25 2.35 1.6 2.85s2.8.05 3.28-1.02-.25-2.35-1.6-2.86-2.8-.05-3.28 1.02z"/><path d="M434.9 255.5l-6.28.48.15 1.9 6.27-.5z"/></g><g fill-rule="evenodd" fill="#6d390b"><path d="M407.65 286.84c-.67 1.08-2.23 1.2-3.47.3s-1.7-2.56-1.04-3.64 2.23-1.2 3.47-.3 1.72 2.56 1.05 3.64z"/><path d="M407.18 286.06l3.28 6.03-1.78 1.02-3.28-6.04z"/></g><g fill-rule="evenodd" fill="#6d390b"><path d="M415.4 295.28c-.57-1.13.12-2.53 1.55-3.13s3.06-.16 3.64.97-.1 2.53-1.54 3.13-3.06.16-3.65-.97z"/><path d="M416.33 295.27l-6.86-.27.03-2.05 6.86.27z"/></g><path d="M405.45 302.28c6.65-3.6 2.5 1.46 2.07 4.22-1.96 6.83-3.8 6.88-6.1 8.04-3.46 3.15-14.5 1.62-19.63 2.92 6.42-4.67 17.22-10.5 23.65-15.18zM395.5 300.7c2.77-2.2 3.23-7.07 3.04-8.75-2.5 3.6-8.95 7.54-11.02 9.62-3.53 3.04-5.7 11.18-7.6 16.12 5.4-5.83 10.17-11.18 15.58-17z" fill-rule="evenodd" stroke="#286326" stroke-width="1.3312499999999998" fill="#008c00"/><path d="M360.92 328.65c4.35-1.28 11.76 1.93 12.97 3.35-5.26 0-13.76 3.64-17.35 4.27-5.73 1.45-21.62-7.5-27.3-8.8 9.5-.47 21.95 2.55 31.67 1.18z" fill-rule="evenodd" stroke="#286326" stroke-width="1.63125" fill="#008c00"/><path d="M327.82 327.73c3.7 2.67 8.97 6.23 12.68 8.9.76.65-2.58 1.34-3.8.74-3.92-2.7-5.98-4.46-9.9-7.15l-2.24-1.25c1.6-.12 1.66-1.13 3.26-1.24z" fill-rule="evenodd" stroke="#004500" stroke-width=".99375" fill="#00602b"/><path d="M379.37 317.46c.45-.17 18.15-24.07 29.16-23.08.66 2.62-2 6.56-3.66 8.55-7.4 8.6-17.62 12.27-25.5 14.53z" fill-rule="evenodd" stroke="#286326" stroke-width="1.55625" fill="#008c00"/><g fill-rule="evenodd" fill="#6d390b"><path d="M377.2 313.95c-1.1.64-2.54.02-3.2-1.38s-.32-3.05.8-3.68 2.52-.03 3.2 1.37.3 3.04-.8 3.68z"/><path d="M377.15 313.04l.05 6.87-2.05.08-.05-6.87z"/></g><g fill-rule="evenodd" fill="#6d390b"><path d="M381.82 323.76c.08-1.27 1.38-2.13 2.9-1.9s2.73 1.4 2.66 2.67-1.38 2.13-2.9 1.92-2.73-1.42-2.66-2.7z"/><path d="M382.6 324.22l-5.75-3.73 1.06-1.76 5.78 3.73z"/></g><path d="M231.6 236.94c.53-.77 1.73-1.28 3.22-.45 1.5.83 2.12 2.3 1.6 3.06-.52.78-2.2 1-3.7.18-1.48-.84-1.63-2.02-1.1-2.8z" fill-rule="evenodd" stroke="#000" stroke-width=".7406250000000001" fill="#dc0000"/><path d="M357.9 325.46c7.3-1.93 6.87-5.46 10.3-8.53-7.92-1.16-14.23 1.64-17.6 3.5-5.35 3.44-6.73 7.17-11.35 9.75 7.88-1 11.43-2.14 18.64-4.72z" fill-rule="evenodd" stroke="#286326" stroke-width="1.3312499999999998" fill="#008c00"/><path d="M334.04 327.6c20.92 1.57 17.58-6.92 40.5-6.7-.33 2.68-4.7 6.05-6.97 7.3-10.02 5.3-26.5 7.8-33.53-.6z" fill-rule="evenodd" stroke="#286326" stroke-width="1.55625" fill="#008c00"/><path d="M323.4 323.22l.07 9.85 2.7-1.06s1.1-1.75 1.1-1.86c0-.12.48-2.4.48-2.47l-.23-2.8-2.06-1.36-2.05-.28z" fill-rule="evenodd" stroke="#000" stroke-width=".525" fill="#d40000"/><path fill-rule="evenodd" fill="#6d390b" d="M236.35 231.77L233 228.1l1.14-.97 3.34 3.68z"/><path d="M232.14 234.03c.57-.98 1.87-1.63 3.5-.57 1.63 1.07 2.32 2.93 1.76 3.92-.57 1-2.4 1.3-4.04.22-1.63-1.06-1.8-2.58-1.22-3.57z" fill-rule="evenodd" stroke="#000" stroke-width=".8718750000000001" fill="#dc0000"/><path d="M241.35 229.9c.96.05 2 .9 1.94 2.8-.07 1.93-1.1 3.4-2.06 3.35s-1.96-1.5-1.9-3.42c.04-1.9 1.06-2.76 2-2.72z" fill-rule="evenodd" stroke="#000" stroke-width=".796875" fill="#dc0000"/><path d="M236.66 230.68c1.08-.3 2.5.2 3 2.1.5 1.9-.23 3.7-1.3 3.97-1.1.28-2.66-.8-3.16-2.7-.5-1.92.38-3.1 1.46-3.37z" fill-rule="evenodd" stroke="#000" stroke-width=".8718750000000001" fill="#dc0000"/><path stroke-linejoin="round" d="M263.6 261.18c-3.26-8.3-12.16-22.06-21.22-15.43-10.06 8.68 4.58 22.33 17.08 21.56l4.14-6.13z" fill-rule="evenodd" stroke="#000" stroke-linecap="round" stroke-width=".99375" fill="#008d00"/><path d="M237.72 236.88c1.74-1.18 4.53-1.2 6.6 1.84 2.08 3.04 1.9 6.65.15 7.83-1.74 1.17-5.2.2-7.27-2.84-2.07-3.03-1.23-5.65.52-6.82z" fill-rule="evenodd" stroke="#000" stroke-width="1.03125" fill="#dc0000"/><path d="M231.27 223.03c.8-.54 2.07-.55 3.02.84.94 1.4.85 3.03.06 3.57-.8.53-2.37.1-3.32-1.3-.95-1.38-.56-2.58.23-3.1z" fill-rule="evenodd" stroke="#000" stroke-width=".7406250000000001" fill="#dc0000"/><path d="M291.3 271.04c-4.1-7.3-15.28-16.4-26.67-10.58-13.47 9.46 5.43 23.62 24.77 16.63 1.74-1.8.16-4.26 1.9-6.06z" fill-rule="evenodd" stroke="#000" stroke-width="1.0406250000000001" fill="#008d00"/><path d="M329.26 275.35c-4.1-7.3-26.05-15.58-35.62-8.58-11.97 13.43 5.6 22.78 29.25 16.13 1.73-1.8 4.63-5.75 6.36-7.55z" fill-rule="evenodd" stroke="#000" stroke-width="1.0406250000000001" fill="#008d00"/><path stroke-linejoin="round" d="M243.98 248.13c.12 0 2.46 2.93 2.46 2.93l-.12-4.1M248.08 253.86l2.47 2.46M256.76 252.22l.23 2.82 1.5-.12M256.76 261.6c-.6-.35-2.58-2-2.58-2M251 261.84l-3.27-1.05" stroke="#000" stroke-linecap="round" stroke-width=".99375" fill="none"/><path d="M244.8 255.63l-3.17-1.06" stroke="#000" stroke-width=".99375" fill="none"/><path stroke-linejoin="round" d="M238.82 253.75h-2.7" stroke="#000" stroke-linecap="round" stroke-width=".99375" fill="none"/><path stroke-linejoin="round" d="M251.48 244.83v-3.5" stroke="#000" stroke-linecap="round" stroke-width=".525" fill="none"/><path stroke-linejoin="round" d="M246.8 263.84c-.36 0-4.93-.24-4.93-.24M255 267l-3.5 1.17M260.27 254.45c.12-.1 2.93-1.52 2.93-1.52M252.3 250.47c0-.12-.93-3.87-.93-3.87" stroke="#000" stroke-linecap="round" stroke-width=".99375" fill="none"/><path d="M318.03 323.27c-2.63.3-4.13.47-4.64 2.37-.3 1.3-.06 3 .16 4.44.47 2.43 2.1 2.77 4.56 3.25h4.2c1.8 0 4.67-1.15 5.13-3.35.33-1.12.2-2.52.2-3.55-.24-2.57-1.98-2.98-4.46-3.24l-5.17.07zM318.32 323.28l-.08 9.78M323.46 323.28l-.08 9.78" stroke="#000" stroke-width=".99375" fill="none"/><path d="M429.26 239.6c1.54-5.07-3.8-6.28-5-9.13-2.45 4.78-1.6 9.66-1.16 12.22 1 4.15 4.7 7.02 5.3 10.54 1.08-5.25.9-8.46.86-13.63z" fill-rule="evenodd" stroke="#286326" stroke-width=".890625" fill="#008c00"/><path d="M436.34 234.9c.1-2.8 3.74-4.8 5.2-5.23-.9 5.4.72 7.96.3 10.18-.33 3.62-6.97 9.15-9.8 12.23 1.44-5.94 2.87-11.25 4.3-17.2z" fill-rule="evenodd" stroke="#286326" stroke-width="1.18125" fill="#008c00"/><path d="M428.7 256.58c.17-.33-2.77-25.87 4.6-31.16 1.92 1.13 2.56 4.78 2.7 6.8.4 8.8.7 13.26-7.3 24.36z" fill-rule="evenodd" stroke="#286326" stroke-width="1.265625" fill="#008c00"/><path d="M281 255.97c2.12.67 3.97 2.97 2.83 6.7-1.14 3.74-2.9 6.14-5.67 5.3-3.6-.83-4.24-4.17-3.1-7.9 1.13-3.73 3.84-4.77 5.95-4.1z" fill-rule="evenodd" stroke="#000" stroke-width="1.0968749999999998" fill="#dc0000"/><path d="M284.57 252.16c.67.47 1.07 1.45.25 2.57-.8 1.1-2.15 1.5-2.82 1.03-.67-.47-.8-1.8.02-2.93.8-1.12 1.88-1.14 2.55-.67zM279.03 251c.8-.16 1.8.22 2.06 1.58.25 1.36-.4 2.6-1.18 2.77-.8.17-1.88-.65-2.14-2-.26-1.36.45-2.17 1.25-2.34z" fill-rule="evenodd" stroke="#000" stroke-width="1.25625" fill="#dc0000"/><path d="M281.37 253.98c.78.23 1.47 1.04 1.05 2.36-.43 1.3-1.58 2.1-2.36 1.86-.78-.23-1.33-1.47-.9-2.78.4-1.32 1.42-1.68 2.2-1.44z" fill-rule="evenodd" stroke="#000" stroke-width="1.25625" fill="#dc0000"/><path d="M282.5 249.27c.65.18 1.23.8.88 1.8-.36.98-1.32 1.58-1.97 1.4-.64-.18-1.1-1.1-.75-2.1.36-1 1.2-1.28 1.85-1.1z" fill-rule="evenodd" stroke="#000" stroke-width=".99375" fill="#dc0000"/><path d="M285.93 255.26c.72.5 1.12 1.43.18 2.36-.93.94-2.4 1.17-3.13.67-.7-.5-.8-1.73.13-2.67.94-.94 2.12-.86 2.83-.37z" fill-rule="evenodd" stroke="#000" stroke-width="1.25625" fill="#dc0000"/><path d="M276.93 253.2c.73-.08 1.6.35 1.7 1.62.12 1.26-.54 2.35-1.27 2.44-.73.08-1.62-.76-1.74-2.02-.12-1.27.58-1.95 1.3-2.03z" fill-rule="evenodd" stroke="#000" stroke-width="1.134375" fill="#dc0000"/><path d="M266.02 319.06v-.12.12z" stroke="#000" stroke-width=".525" fill="none"/><path d="M360.58 270.03c4.1 2.18 2.7 7.3-.23 8.67-.16-3.36-2.3-4.38-5.5-5.16 1.67-.94 3.47-3.98 5.73-3.5z" fill-rule="evenodd" stroke="#000" stroke-width=".99375" fill="#fff"/><path d="M321.4 290.5c1.5-22.25 18.4-24.95 29.62-21.1 16.4 11.9-.23 21.8-24.8 22.44-2.18-1.2-2.63-.14-4.82-1.34z" fill-rule="evenodd" stroke="#000" stroke-width="1.0406250000000001" fill="#008d00"/><path d="M326.3 265.5c-5.24-.2-6.82 4.9-4.76 7.58 2.1-2.8 4.76-2.6 8.32-1.63-1.1-1.66-1.08-5.2-3.55-5.95z" fill-rule="evenodd" stroke="#000" stroke-width="1.05" fill="#fff"/><path d="M329.05 272.15c-4.1 2.2-3.23 7.3-.3 8.68.15-3.36 2.3-4.38 5.5-5.16-1.67-.94-2.94-4-5.2-3.52z" fill-rule="evenodd" stroke="#000" stroke-width=".99375" fill="#fff"/><path stroke-linejoin="round" d="M361.13 270.45c.05-1.83-1.4-3.42-3.1-3.67-2.03-.25-4 1.16-6.04-.33-.25-.17-5-4.26-6.36-6.17-1.36-.75-4.2-2.14-4.2-2.14-1.7 2.18-2.87 4.7-5.3 6.15-1.2.47-1.67 1.04-3.87.86-2.28-1.07-4.78-1.6-6.08-.46 1.1 2.2.8 4.97.33 7.08.82.47 1.72-.1 2.7.13 3.05.1 2.27 3.35 3.4 4.76 3.2.87 4.84-.66 5.3-3.27.85-1.35 3.44-1.52 5.28-2.02 2-.4 4.5-1.02 6.32 0 1.5.8 2.52 1.77 3.28 3.4 0 0 2.4.22 4.8-.23.1-1.44-.2-4.07 3.53-4.1z" fill-rule="evenodd" stroke="#000" stroke-linecap="round" stroke-width=".99375" fill="#f6aa00"/><path d="M339.88 260.43l.12 5.28c.63 1.93 4.9 1.73 5.4.48l-.12-5.98" stroke="#000" stroke-width=".99375" fill="none"/><path d="M341.3 271.68c.9-.3 1.25-2.86 1.25-2.86M345.05 270.98l.23-2.1M348.9 270.98l-.33-2.22M338.7 269.34c-.13.08-1.98-2.23-1.4-2M335.32 272.74c.23 0-3.06-3.4-2.48-3.18M332.26 266.42c-.08-.27-.23-1.53.35-1.3M339.6 265.63c-5 4.32-9.7 2.5-10.4 6.14M352.02 268.08c.17-.22.77-1.34.14-1.33" stroke="#000" stroke-linecap="round" stroke-width=".99375" fill="none"/><path stroke-linejoin="round" d="M271.57 270.2c.06-.08 3.8-.4 3.8-.4l-3.46-2.2M294.37 273.94c.06-.1 3.8-.4 3.8-.4l-2.97-3.44M303.58 274.57c-.18-.6 3.94.1 3.8-.4l-2.6-2.82M298.66 261.45c.12 0 2.46 2.93 2.46 2.93l-.1-4.1M369.27 281c.1.1-.02 4.2-.02 4.2l2.7-2.93M339.22 279.96c.08.1-.45 3.8-.45 3.8l4-2.13M268.84 260.9l2.46 2.47M264.36 265.02l2.46 2.46M281.15 271.4l3.47-.3M275.64 274.83l3.47-.25M300.75 266.94l2.47 2.46M311 268.22l2.46 2.46M291.9 263.73l2.47 2.47M266.02 255.92l2.46 2.46M293.53 285.9l2.28-2.65M305.07 288.07l2.28-2.63M260.78 274.6l3.47-.3" stroke="#000" stroke-linecap="round" stroke-width=".99375" fill="none"/><path stroke-linejoin="round" d="M267.34 272.13c-.57.04 1.76-.15 2.4.1l-3.43-2.44" stroke="#000" stroke-linecap="round" stroke-width="1.05" fill="none"/><path stroke-linejoin="round" d="M271.67 279.48l3.47-.3M312.8 276.1l3.47-.24M306.9 280.98l3.5-.25M311.1 263.12c.1 0 2.46 2.93 2.46 2.93l-.12-4.1M344.9 273.6l-2.47 2.47M352.96 276.3l-2.46 2.46M349.37 283.22l-2.46 2.46M378.33 283.85l-2.46 2.47M363.1 282.06l-2.47 2.46M378.08 267.33l-2.46 2.46M389.73 283.97l-3.47-.33M360.6 291.7l.18-3.5M371.6 275.95l1.77-3M377.1 279.28l1.78-3M381.7 288.8c-.07.1-3.82-.02-3.82-.02l2.7 1.96M329.6 287.77c.1.1-.44 3.8-.44 3.8l4-2.13M298.72 280.98c.46-.34 2.78-1.07 2.65-1.56l-2.47-.9" stroke="#000" stroke-linecap="round" stroke-width=".99375" fill="none"/><path stroke-linejoin="round" d="M403.28 257.53c1.62 1.26 4.37-13.1 3.95-17.6 0-.3-.5-9.83 1.48-16.65 1.27-2.3 1.32-19.47-.57-24 1.5-.1 3.33-.6 3.56-2.44-6.97 2.57-8.62-14.7-15.32-24.64-6.54-9.95-14.65-15.75-23.08-21.8.66-1.68 1.63-3.27 2.92-4.85-10.35 5.18-26.48-13.6-50.28-12.18-5.36.53-7.9.85-9.26 4.12-4.43.37-8.96 1.37-8.97 7.2.02 1.4 1.3 3.96 4.14 4 3.9 1.12 7.06.24 9.7 5.67.2 1.5.5 4.13.7 5.62 0 0-3.5-4.43-5.4-5.17.5-.73-.3-1.24 1.17-2.38-1.78-1.03-4.97-.2-4.97-.2s-6.92-3.24-12.48-2.37c0-.6-1.07-4.5-1.07-4.5-.98 2.75-3.16 2.6-3.48 5.22-.6-1.88-1.4-4.18-2-6.06-1.95 2.66-1.38 5.54-2.07 8.32-.78.63-2.32.66-2.7-1.12-.2-2.18-.48-2.4-.47-5-1.4 2.46-3.1 3.65-3.67 7.9-.6-1.6-.92-3.1-1.5-4.7.07 5.53-4.7 8.85-9.2 12.72-1.27 2.35.2 2.38.3 3.57l2.37 1.2 4.26-.3c.7.88.13.93 1.98 1.5 4.96 1.4 11.16-4.56 16.02 4.8-2.23 1.86-4.47 6.25-3.77 7.06.9 0-1.8 1.25 1.83.1-3.78 3.67-6.34 8.5-6.34 8.8-.42 1.04 1.52-.13 1.1 1.74.55-1.4.9-.1.9-.1-8.62 9.32-.27 19.34-1.2 24.73 1.43 2.3 1.6-.04 3.4-.3 1.52 6.62 5.87 10.63 8.54 15.88-1.38-.42-4.13-.57-5.6.06.12 2.5 2.37 4.86 4.15 7.04-1.3.4-2.48.8-3.76 1.2-2.68 1.38-4.46 2.83-6.34 4.9-1.25 3.04 6 3.78 9.46 4.3-.32 1.08-.76 2.45-.13 3.64 5.46.53 11.77-1.1 11.77-1.38 0-.3 1.37-1.07 1.37-1.07.75 1.47 2.36 1.9 3.08 1.7 1.03 0 2.64-4.12 1.9-7.27 1.98 2.38 3.85 6.16 5.83 8.54.6.63 1.38.17 1.88-.26 1.68 2.68 4 5.36 5.7 8.03.88 1.02.7.64 1.9.72 1.1-.37 2.04-.52 2.6-2.65 0 0 .38.33.9 1.5 1.33.95 2.27-1.32 3-2.06.42-1.02 2.06.2 2.06-.4.6.4 1 2.13 1.58 2.53.9-.34 1.8-2.33 1.88-4.46.9 1.86 1.2 1.7 1.88 2.2.6-.5.78-2.43 1.37-2.92-.12-1.03 7.14 7 7.44 7 .7.52 4.8 1.78 5.65.3 2.05 1.38 7.57 2.23 8.47.03 4.54 1.94 9.88-.23 9.66-2.4 4.14 1.65 10.6.55 10.6.25.73-.1 2.73-2.03.83-3.5-13.75-9.6-34.25-25.52-42.13-29.35 0-2.83-2.15-13.07-4.46-15.88-.4-1.46.54-3.25 1.9-3.15 5.36 5 7.3 4.53 10.14 5.34 3.07 2.4 4.18 6.1 7.25 9.48 1.43.46 3.14 1.93 2.7.5-1.92-4.8-4.23-9.47-9.97-15.72 2.97 1.5 7.84 5.42 11.13 8.27 2.2 3.62 2.8 6.5 4.78 11.05 1.44.9 2.9 4.27 2.7 1.48-.32-5.23-4-13.54-4-14.14 5.85 4.66 5.8 11.87 7.54 16.3 1.53 2.23 2.3 5.2 2.93 4.5.74-1-1.73-13.6-1.73-13.6-.4-1.6-.6-3.4-1-4.98 4.36 2.5 5.87 12.04 7.9 23.47 0 1.83.75 3.83.66 5.02.93 1.15 2 4.33 1.95 2.43 0 0 0-18.6-1.26-22.86-.3-2.3.56-6 .56-6 1.6 7.7 3.28 16.07 4.86 23.8v5.64l2.38 2.38 1.5-13.97s-1.8-16.34-1.8-16.64v-4.74c-.03-1.68 1.5-1.36 2.52.54.2 4.06.2 7.28.4 11.35.68 4.65 1.16 8.04 1.54 13.96.2 4.86.37 16.33 1.4 16.13z" stroke-opacity=".77" fill-rule="evenodd" stroke="#000" stroke-width=".99375" fill="#9c4314"/><path stroke-linejoin="round" d="M326.3 284.4c-.22-.52-.38-2.94-.9-2.94l-1.44 2.2M369.75 271.17l-.3 2.45M348.14 289.26c-.56.07-2.94-.45-3.07.05l1.7 2" stroke="#000" stroke-linecap="round" stroke-width=".99375" fill="none"/><path d="M311.8 234.3v.25-.25.25-.25 4.48c.14.64.13 1.35.13 2.05.08.55.27 1.2.52 1.8.03.76.24 1.26.5 1.92.06.65.3 1.2.52 1.8.06.65.27 1 .4 1.53.17.62.4 1.02.63 1.4.16.18.23.34.38.4" stroke="#000" stroke-width=".525" fill="none"/><path d="M301.8 250.06c0-.2-.03-.84.26-1.3.45-.63.82-1.03 1.4-1.65.7-.44 1.2-.96 1.8-1.53.64-.4.96-.77 1.54-1.15.36-.36.77-.54 1.15-.77.45-.22.77-.54 1.4-.64.4-.2 1.22-.12 1.8-.12.62 0 .83-.12 1.42-.13" stroke="#000" stroke-width=".525" fill="none"/><path d="M394.96 205.54c1.98 1.44 4.16 4.56 5.05 10.2M383.83 207.47c2.87 2.57 4.5 5.37 6.63 11.68" stroke-opacity=".77" stroke="#000" stroke-linecap="round" stroke-width=".99375" fill="none"/><path d="M376.9 210.54c1.74 2 2.8 4.1 3.75 6.6M365 204c2.28 2.63 5.94 6.64 7.83 10.7" stroke-opacity=".77" fill-rule="evenodd" stroke="#000" stroke-linecap="round" stroke-width=".99375" fill="#00c600"/><path d="M316.62 136.98c.16 11.4 16.87 8.63 18.28 19.36 3.2 11.7 1.87 19.27-2.8 22.98-2.67 2.74-.64 7 .15 9.18 4.35 11 10.9 12.78 13.73 22.28" stroke-opacity=".77" stroke="#000" stroke-width=".99375" fill="none"/><path d="M310.36 144.77c0-.22.4-.6.78-.78 1.67-.56 2.7-.6 4.4-.7 1.45 0 2.82.07 4.28.3" stroke-opacity=".77" stroke="#000" stroke-linecap="round" stroke-width=".99375" fill="none"/><path d="M332 249.58l5.82 9.45M350.52 235.52l31.1 23.82M349.7 242.05L372.4 262M306.92 217.3c3 5.93 11.46 13.83 16.53 15.1.18-3.83-.04-5.3-.65-7.95" stroke-opacity=".77" stroke="#000" stroke-width=".99375" fill="none"/><path d="M316.55 213.9c3 5.95 5.73 12.28 13.67 15.9.82-5.78-.96-13.64-5.34-21.62" stroke-opacity=".77" stroke="#000" stroke-width=".99375" fill="none"/><path d="M317.96 205.94c2.73 1.65 5.2 2.38 7.03 2.6.8-5.77 1.53-11.88-3.18-20.14" stroke-opacity=".77" stroke="#000" stroke-width=".99375" fill="none"/><path d="M307.44 209.35c4.03 4.38 7.3 4.6 9.1 4.82 1.35-3.95 1.92-12.33.27-21.35M296.98 212.87c4.02 5.2 13.28 15.06 18.27 18.65.17-.83.43-1.2.36-3.86M365.6 155.76c4.3 4.96 20.9 21.66 24.2 29.48 5.68 12.77 16.14 15.2 18.75 13.77M337.15 224.8c1.5 6.1 4.2 17.22 8.12 18.98.67-.66 1.24-1.87 1.17-4.52" stroke-opacity=".77" stroke="#000" stroke-width=".99375" fill="none"/><path d="M314.57 190.15c1.76 1.8 2.16 3.42 3.98 3.63 2.22-1.8 6.13-11.93 4.72-19.4" stroke-opacity=".77" stroke="#000" stroke-width=".99375" fill="none"/><path d="M305.37 189.87c.82 4.02 1.6 7.42 4.44 7.45 4.74-3.96 6.14-12.8 4.73-20.28M303.53 211.15l-2.13-4.68M349.5 249.04L363.8 262M342.72 243.83l4.4 12.4M323.32 232.5c3 5.93 9.37 14.5 14.45 15.77.17-.82.07-1.54 0-4.18M315.6 231.3c3 5.94 11.78 15.62 16.86 18.46.17-.82.92-.98.85-3.62M337.5 248.02l6.36 10.54M329.9 221.57c2.73 1.64 5.6 3.03 7.43 3.24.27-6.4-1.97-16.78-6.57-24.7" stroke-opacity=".77" stroke="#000" stroke-width=".99375" fill="none"/><path d="M298.27 187.87c-.8 3.04-.7 6.36 2.15 6.4 7.9-3.42 3.18-6.8 9.96-18.32M308.7 166.97c3 5.94 3.87 9.98 8.53 11.5.93-.4 3.26-10.92-4.62-19.45" stroke-opacity=".77" stroke="#000" stroke-width=".99375" fill="none"/><path d="M318.28 171.92c1.54 1.78 3.8 2.2 5.62 2.1 1.78-3.56-2.03-13.65-7.05-18.87M362.4 163.68c3.76 5.3 20.25 23.76 27.32 29.65 1.6-.2 3.94 1.77 1.74-4.9" stroke-opacity=".77" stroke="#000" stroke-width=".99375" fill="none"/><path d="M360.55 175.37c3.76 5.28 10.64 14.24 17.7 20.13 1.78.67 3.5.45 4.06 0 .62-.6.07-4.78.22-9.05" stroke-opacity=".77" stroke="#000" stroke-width=".99375" fill="none"/><path d="M356.07 182.03c4.3 4.74 10 10.2 16.95 16.54 1.77.66 3.3.7 3.5-.02.18-.7.5-.5.1-4.78" stroke-opacity=".77" stroke="#000" stroke-width=".99375" fill="none"/><path d="M350.07 190.54c4.3 4.75 8.23 8.24 12.14 9.1 1.9.24 2.88.27 3.08-.43.17-.7.06-4 0-7.83" stroke-opacity=".77" stroke="#000" stroke-width=".99375" fill="none"/><path d="M343.95 196.87c4.3 4.75 4.3 6.7 8.2 7.58 1.9.23 3.3-.02 3.64-.66.6-1.36.8-2.82.74-6.65" stroke-opacity=".77" stroke="#000" stroke-width=".99375" fill="none"/><path d="M342.2 165.87c4.34.8 4.7-2.96 4.35-5.64-.42-3.36-2.8-4.83-5.62-4.13M339.8 180.72c2.04.8 4.6.74 5.54-1.6.76-1.78.48-6.15-2.34-5.44" stroke-opacity=".77" stroke="#000" stroke-linecap="round" stroke-width=".99375" fill="none"/><path d="M342.87 173.62c3.9.25 4.26-1.53 4.12-3.78-.16-2.62-1.94-4.62-4.76-3.9" stroke-opacity=".77" stroke="#000" stroke-linecap="round" stroke-width=".99375" fill="none"/><path d="M346.65 163.44c5.7-3.43 22.1 10.32 9.62 14.7M345.44 173.17c5.7-3.42 18.23 7.8 5.52 12.15M343.32 180.9c6.35.23 13.67 10.43 1.2 11.68" stroke-opacity=".77" stroke="#000" stroke-width=".99375" fill="none"/><path d="M335.83 186.35c2.04.8 3.22 1.3 5.04-.27.72-.66 1.67-3.7-1.02-5.37" stroke-opacity=".77" stroke="#000" stroke-linecap="round" stroke-width=".99375" fill="none"/><path d="M282.6 174.03c2.15-2.78 7.4-4.55 9.2-.87M339.66 186.85c3.7 1.22 9.6 11.52-.3 12.57" stroke-opacity=".77" stroke="#000" stroke-width=".99375" fill="none"/><path d="M334.93 140.26c4.27.8 6.43 7.7 9.83 8.24 6.23.92-.8-7.2-2.15-8.12" stroke-opacity=".77" stroke="#000" stroke-linecap="round" stroke-width=".99375" fill="none"/><path d="M271.97 169.75c1.92.08 3.7-.27 4.93-2.54M290.96 189.52c1.06 2 3.8 1.2 6.05-.18 3.1-1.77.5-7.98 7.87-13.28M294.88 215.68c4 5.2 11.63 12.96 16.38 17.13.18-.82.95-1.24.88-3.9M311.1 232.46l9.15 12.7M330.16 229.4c1.5 6.1 7.44 15.78 11.35 17.54.68-.66 1.14-3.28 1.07-5.93M328.03 246.9l-.55 5.66M341.7 218.58c1.5 6.1 3.75 20.98 7.2 23.67.67-.65 2.06-13 2-15.66M337.1 218.15c2.03.25 3.2.24 4.8.22.28-6.42-2.5-13.98-7.1-21.9" stroke-opacity=".77" stroke="#000" stroke-width=".99375" fill="none"/><path d="M348.42 202.28l-.32 6.5" stroke-opacity=".77" fill-rule="evenodd" stroke="#000" stroke-linecap="round" stroke-width=".99375" fill="#00c600"/><path d="M325.48 199.5c2.14.83 3.68 1.1 5.38.97 1.77-8.7-2.67-8.7-8.2-14.86" stroke-opacity=".77" stroke="#000" stroke-width=".99375" fill="none"/><path d="M350.18 141.66c4.27.8 1.56 7.2 7.37 9.18 4.87 1.62 2.12-5.1.78-6" stroke-opacity=".77" stroke="#000" stroke-linecap="round" stroke-width=".99375" fill="none"/><path d="M343.83 156c3.08-2.23 14.1.87 17.82 4 1.07 1 2.7 4.97-2.36 8.62M285.47 161.27c8.84-8.63 12.94-7.65 23.07-1.3 1.45.36 3.03.06 3.97-.5.52-1.24.03-2.5-.63-3.46-4.53-3.23-7.9-4.17-12.17-3.58M298.2 193.3c-1.98 2.92-3.6 9.3-.25 16.4.13.8 1 1.63.12 2.17-1.65.84-2.4 2.2-3.33 3.6M349.73 238.6c.06-10.74-1.5-19.32-5.8-27.08M331.16 196.74c1.42-.15 3.2.24 4.07-.18.43-1.57-.78-3.5-1.26-4.98.8-.1 1.8-.1 2.44-.28.37-1.36 0-3.26 0-4.9" stroke-opacity=".77" stroke="#000" stroke-width=".99375" fill="none"/><path d="M278.05 166.14c.34-2.4 2.47-5.04 4.87-6.4 1.15-.65 1.92.12 2.43.38.64 1.02.26 2.94 0 3.7-.64 1.3-1.92 2.32-4.23 3.22-1.2-.5-1.88-.4-3.07-.9z" stroke-opacity=".77" fill-rule="evenodd" stroke="#000" stroke-width=".99375" fill="#fff"/><path d="M298.55 211.76c.5.26 5.64 5.9 5.64 5.9h3.06l.26-8.6" stroke-opacity=".77" stroke="#000" stroke-width=".99375" fill="none"/><path stroke-linejoin="round" d="M306.88 195.23c-1.03 3.38-.65 6.75 0 10.13" stroke-opacity=".77" stroke="#000" stroke-linecap="round" stroke-width=".99375" fill="none"/><path d="M300.2 211.15l1.2-4.68M302.4 193.43c-1.54 2.82-1.98 7.45-1.18 10.82M344.28 212.17l-2.9.06" stroke-opacity=".77" stroke="#000" stroke-width=".99375" fill="none"/><path d="M240.4 201.28c.4 1.25-.97.58-1.26.93-1.44.52-3.72-1.24-5.16-5.5.7-1.2 4.83-3.77 6.16-3.22 0 0 2.6 1 2.92 2.08-.5 1.6-2.75 5.9-2.66 5.72z" fill-rule="evenodd" stroke="#000" stroke-width=".99375" fill="#9f3000"/><path d="M344.28 212.17l.05-5.7M349 242.16l.8 13.93" stroke-opacity=".77" stroke="#000" stroke-width=".99375" fill="none"/><path d="M240.3 201.77c2.8 2.64 7.23.87 7.93 7.32.3 3.6-4.82 10.83 0 17.35 1.7 2.5 6.12 5.22 6.12 5.22 2.3 2.57 3 7.16 4.52 10.74 3.17 4.76 7.56 5.8 11.04 4.62 0 0 11.44-5.12 11.44-5.22 0-.1-5.82-7.82-5.82-7.72 0 .1-6.52 5.52-6.62 5.52-.7-.1-4.5.3-5.92-4.52-.1-6.15-3.14-9.56-8.03-12.04-2.47-1.87-4.44-4.85-2.3-9.03 1.23-3.8 2.47-10.23-1.9-14.54-2.82-1.87-4.83-3.35-7.84-3.9-3.97 1.5-3.93 1.1-2.6 6.2z" fill-rule="evenodd" stroke="#000" stroke-width=".99375" fill="#238700"/><path d="M296.87 148.05c-1.54 2.82-1.4 4.5-1.14 7.33M289.06 161.9h3.58c.95 0 1.36-.37 2.05-.88.46-.27.95-.66 1.4-1.03.4-.28.85-.6 1.3-.78.72 0 1.3.06 1.9.26.6.24 1.07.6 1.55.9.48.2.92.25 1.67.25.78 0 1.6-.03 2.3.13.68.04 1.44.2 1.93.38.62.4 1 .86 1.4 1.3.03.67.25 1.08.26 1.78 0 .6.08 1.4-.12 1.8 0 .73-.1 1.25-.25 1.8-.47.43-.64.77-1.28.88-.5.4-1.26.4-2.05.4h-2.05c-.45-.38-1-.77-1.54-1.3-.3-.68-.5-.9-1.15-1.15-.55-.08-1.2-.12-1.92-.12-.62 0-1.14.04-1.54-.26-.36-.34-.87-.5-1.4-.64-.6-.17-1.28-.13-1.94-.13h-1.02" stroke-opacity=".77" stroke="#000" stroke-width=".99375" fill="none"/><path d="M292.4 163.07l.12.12c-.3-.3-.2-.16.5.12.86.2 1.77.36 2.7.4.88 0 1.7.1 2.57.1.6 0 1.24.07 1.78-.1" stroke-opacity=".77" stroke="#000" stroke-width=".99375" fill="none"/><path d="M300.6 161h-.13c.4 0 .15-.02-.4.65-.04.74-.2 1.14.14 1.8.43.14 1.13.45 1.42.77.4.3.38.56.38 1.28-.24.4-.46.72-.77 1.28-.16.4-.37.94-.5 1.4-.15.6-.26 1.15-.26 1.8v1.28M347 146.1c.13.26 2.6 5.17 5.64 2.06.45-.54.6-.92.6-1.82 0-.48-.05-1.02-.17-1.4" stroke-opacity=".77" stroke="#000" stroke-width=".99375" fill="none"/><path d="M273.03 244.75c1.48 2.06 4.17 1 4.7-.65-1.84.12-2.54-.97-3.2-2.63-.38.95-1.9 2.1-1.5 3.28z" fill-rule="evenodd" stroke="#000" stroke-width=".5343749999999999" fill="#fff"/><path d="M359.96 150.67c0 .1 2.6 2.5 6.54 2.5.95 0 5.46-1.15 6.9-3.16" stroke-opacity=".77" stroke="#000" stroke-width=".99375" fill="none"/><path d="M365.4 152.98c.06.38.18 1.78.18 2.72 0 .98.23 1.8-.14 2.63-.4 1.05-.86 1.47-1.85 1.83-.82.37-1 .02-1.9.05M343.74 148.02c0 .06 2.77 6.66 3.7 7.32" stroke-opacity=".77" stroke="#000" stroke-width=".99375" fill="none"/><path d="M274.84 243.55c1.48 2.06 4.16 1 4.7-.65-1.84.12-2.54-.97-3.2-2.63-.38.95-1.9 2.1-1.5 3.28z" fill-rule="evenodd" stroke="#000" stroke-width=".5343749999999999" fill="#fff"/><path d="M277.64 242.35c1.48 2.06 4.17 1 4.7-.65-1.83.12-2.54-.97-3.18-2.63-.4.95-1.93 2.1-1.52 3.28z" fill-rule="evenodd" stroke="#000" stroke-width=".5343749999999999" fill="#fff"/><path d="M327.9 144.64H328.8c2.88-.48 12.55 1.3 14.23 3.08M329.7 191.4c-.06-.06.14 1.1.08 1.05.35.35-.06-.97-.26-1.78-.3-.72-.36-1.2-.36-2.17v-.73M311.62 234.05v.26-.25.26-1.04V238.54c.13.64.13 1.34.13 2.05.08.53.27 1.18.5 1.78.04.76.26 1.26.52 1.92.06.66.28 1.22.5 1.8.07.66.28 1 .4 1.54.18.6.4 1 .64 1.4.18.18.34 1.04.5 1.08" stroke-opacity=".77" stroke="#000" stroke-width=".99375" fill="none"/><path d="M303.8 226.5v3.46c.17.85.2 1.75.38 2.56.07.73.25 1.36.4 2.05.05.7.87 3.12 1.14 3.72.3.55.75 1.14 1.03 1.52.5.16.93.34 1.54.4h1.78c.72-.15.97-.23 1.28-.78.17-.35.16-.6.4-.77M301.63 249.82c0-.2-.04-.84.25-1.28.46-.65.82-1.05 1.4-1.67.7-.44 2.45-2.84 7.7-4.22.6 0 .82-.12 1.4-.13M302.24 238.2c.05.04 2.87 1.52 4.34 1.58" stroke-opacity=".77" stroke="#000" stroke-width=".99375" fill="none"/><path d="M310.32 243.16h-.14.14c-.05 0-.1 0 0 0z" stroke="#000" stroke-width=".525" fill="none"/><path d="M309.05 243.02c-.42-.28-14-4.2-13.73-4.2.28 0-4.97 3.57-4.97 3.57l12.96 4.4 5.2-3.78h.55z" fill-rule="evenodd" stroke="#000" stroke-width=".99375" fill="#ffbc00"/><path d="M296.07 238.7c.86-2.18.63-5.05-2.17-6.83-6.4-3.93-17.17-3.6-19.22 1-2.2-.3-3.33 1.48-3.66 3.26-5.7 1.55-.43 8.15 1 8.42 1.9.65 2.43.17 2.76-.46 1.07.26 2.53-.9 2.9-1.67 1.36.25 2.4.22 2.42-1.14 3.88 3.63 9.24 6.16 9.83 1.46l6.14-4.06z" fill-rule="evenodd" stroke="#000" stroke-width=".99375" fill="#f7b200"/><path d="M271.02 236.03c-.36 2.54 1.35 5.28 4.06 7.92M274.58 232.86c-.37 2.54.36 6.87 3.07 9.5M278.6 230.13c-2.5 2.1-1.13 8.55 1.58 11.2" stroke="#000" stroke-width=".99375" fill="none"/><path stroke-linejoin="round" d="M285.25 177.33c5.73 7.6-2.3 16-9.3 20.82-8.26 6.5-12.72 19.17 1.85 19.95 5.26-.1 10.98-.56 14.2 3.56 3.2 4.12 3.33 11.73-4.77 16.6-.8-.7-1.98-2.78-2.86-3.4-.87-.65-1.45.17-2.25-.54-.28-2.6 4-6.5-.04-7.44-5.23.9-23.54.96-23.3-16.5.4-3.9 2.48-8.26 5.8-12.7 3.35-4.45 12.5-9.96 13.38-12.37 1.4-2.08-1.16-6.13-3.22-6.7-1.68-4.47 5.74-9.26 10.5-1.28z" fill-rule="evenodd" stroke="#000100" stroke-width=".99375" fill="#288800"/><path d="M272.5 190.77l.2 10.2M267.15 194.83l10.9 1.58M275.18 188.5l9.2 1.87" stroke="#000" stroke-width=".99375" fill="none"/><path d="M265.48 196.6l7.67 4.55M260 206.2l6 6.36M265.55 197.03l1.02 15.05M261.42 203.33l9.84.2" stroke-opacity=".64" stroke="#000" stroke-width=".99375" fill="none"/><path d="M251.12 228.76c1.53-1.45 3.12-3.52 4.1-5.55M254.2 231.34c2.06-1.27 4.7-2.27 7.32-2.8M257.98 240.1c1.8-1.5 3.7-3.06 5.02-5.14M258.05 240.44c3.14-.08 6.33-.4 9.42-.97M263.66 246.62c2.33-.88 4.47-2.23 6.2-3.6M247.4 225.6c1.82-1.47 3.63-3.13 5.1-4.86M246.08 220.9c1.97-.52 3.9-1.52 5.57-2.45M246.76 216.03c1.6-.62 3.46-.88 5.18-.98M248.24 211.53c1.93-.2 3.23-.08 5.15.53M248.57 208.67c1.6-.86 3.4-1.42 5.18-1.18M247.78 206.55l5.55-3.8M246.8 204.98l4.73-4.68M245.46 204.33l3.46-5.9M259.27 169.37l-.04 8.43M267.8 170.7c-1.24 2.44-2.98 5.3-5.22 7.45M261.5 169.08c-2.47-.2-4.8 1.15-6.7 2.73" stroke="#000" stroke-width=".99375" fill="none"/><path stroke-linejoin="round" d="M274.7 175.52c4.12 1.5 9.6 3.6 9.02 15.68 3.4-3.7 4.97-8.87.64-15.4-2.9-3.15-7.17-3.8-9.65-.28z" fill-rule="evenodd" fill-opacity=".99" stroke="#000" stroke-linecap="round" stroke-width=".525" fill="#9d4600"/><path d="M276.57 179.55c.16-2.34 3.44-5.24 5.16-5.88M277.82 181.67c.86-3 4.6-5.37 6.32-6M277.9 185.9c1.6.03 7.63-3.32 9-5.3M278.4 183.67c1.93-1.35 5.58-4.4 7.3-5.04M283.72 186.12c1.45-.83 1.95-.62 3.47-2.2M274.7 175.58c4.15 1.35 9.2 4.4 8.88 15.6" stroke="#000" stroke-width=".99375" fill="none"/><path d="M260.93 218.9l5.63-6.83M261.63 220.3h5.03M258.82 213.48l7.04 4" stroke-opacity=".64" stroke="#000" stroke-width=".99375" fill="none"/><path d="M268.3 212.8c-1.35-.12-2.12-.38-3.3-.8.56 9.05 1.46 9.52 2.9 12.94 4.28 2.72 11.7 2.1 14.85 1.4.33.48 2.2 2.8 1.05 3.46-1.23.77-1.73 2.26-1.78 4.68.73.82 1.5.1 2.23.64.74.52 1.6 2.4 2.3 4 0 0 9.12-6.27 7.64-12.17-.98-5.54-4.73-7.43-4.73-7.43-5.3-2.64-12.74-.9-15.45-1.9-3.38-.75-5.5-3.67-5.72-4.82z" fill-rule="evenodd" stroke="#000" stroke-width=".525" fill="#9d4600"/><path d="M283.32 228.8c4.57-2.08 9.4-2.25 10.7-2.06M265.46 216.7c1-.6 2.45-1.83 4.13-1.8M273.86 226.68c.8-4.8 2.87-8.05 3.93-8.86M276.6 227.06c.8-4.8 3.06-8.24 4.12-9.05M279.66 226.74c.8-4.8 2.87-7.92 3.93-8.74M281.98 226.37c.8-4.8 3.5-7.18 4.55-8M283.5 227.73c.8-4.8 4.9-7.47 5.96-8.28M283.63 228.48c2.8-4 7.36-5.95 8.66-6.23M271 226.06c.8-4.8 2.92-7.43 3.98-8.24M268.24 225.18c.8-4.8 3.3-7.23 4.37-8.05M282.5 235.06c2.16-1.7 3.62 3.78 3.73 4.44.1.67.5 1.34 1.58 1.96M266.56 221.88c.88-2.44 2.8-5.12 3.87-5.93" stroke="#000" stroke-width=".99375" fill="none"/><path d="M278.38 230.35c-2.8 4.45.44 8.37 4.06 6.8-.42-3.08-1.2-5.03 1.6-7.98-2 .12-3.77-.6-5.66 1.18z" fill-rule="evenodd" stroke="#000" stroke-width="1.05" fill="#fff"/><path d="M267.83 197.67l1.32 6.53M269.15 203.67l-2.38 8.03M283.22 229.23c4.93-.97 9.67 0 10.9.5" stroke="#000" stroke-width=".99375" fill="none"/><path d="M282.64 230c5.05-.06 9.46 2 10.54 2.8" stroke="#000" stroke-width="1.0687499999999999" fill="none"/><path d="M282.7 230.95c4.86 1.1 7.04 3.57 7.88 4.6M282.36 232.07c4.36 2.4 5.34 4.4 5.87 5.63" stroke="#000" stroke-width="1.059375" fill="none"/><path fill-rule="evenodd" fill="#296526" d="M210.22 255.43l2.35-.55 2.53 10.83-2.34.56zM229.7 292.02l4.9 5.6 1.84-1.56-4.6-5.8-2.15 1.76zM379.76 315.94l-6.1 4.3 1.35 2 6.27-3.98-1.5-2.32zM411.88 289.15l-5.43 5.1 1.6 1.78 5.66-4.8-1.82-2.08zM429.12 253.2l-1.98 4.87 1.08 1.4 2.13-4.65-1.23-1.63z"/><path d="M268.18 225.45c-2.64-4.35-2.98-8.9-3.1-13.33 1.4.67 2.5 1.03 3.3.8M259 169.1c-2.2-5.42.32-8.36 3.03-10.94" stroke="#000" stroke-width=".99375" fill="none"/><path d="M262.52 156.64c.46.58.18 1.63-.62 2.35-.8.7-1.82.8-2.27.23-.46-.58-.18-1.62.62-2.34.8-.73 1.82-.84 2.27-.26z" fill-rule="evenodd"/><path d="M248.46 198c-.46 0-8.33-1.06-8.33-1.06M245.13 203.75c0-.3-5.14-6.66-5.14-6.66" stroke="#000" stroke-width="1.284375" fill="none"/></svg>