<svg xmlns="http://www.w3.org/2000/svg" height="480" width="640" version="1"><g stroke-width="1pt" fill-rule="evenodd"><path fill="#e80008" d="M.9 0h640v480H.9z"/><path fill="#fff" d="M.9 34.3h640v34.28H.9zM.9 102.86h640v34.3H.9zM.9 171.43h640v34.3H.9zM.9 240h640v34.3H.9zM.9 308.57h640v34.3H.9zM.9 377.14h640v34.3H.9zM.9 445.7h640V480H.9z"/><path fill="#000689" d="M0 0h245.17v141.4H0z"/><g fill="#fe0"><path d="M124.47 120.18c-26.38 14.68-59.36 4.76-73.6-21.83-14.27-26.58-4.43-59.82 21.95-74.2 16.3-8.87 34.23-9.05 50.5-.3-9.18-2.22-17.38-2.1-26.3.55-25.95 7.7-40.88 35.42-33.3 61.86 7.57 26.43 34.78 41.63 60.74 33.92z"/><path d="M168.97 54.27l27.85-15.83L174.7 61.6l31.96-2.17-30 11.27 29.75 11.9-31.9-2.84 21.63 23.63-27.5-16.43 9.22 30.67-17.66-26.72-5 31.64-4.32-31.74-18.23 26.34 9.9-30.47-27.87 15.8 22.13-23.15-31.95 2.17 30-11.27-29.75-11.9L137 61.2 115.4 37.57l27.5 16.4-9.22-30.66 17.66 26.73 5-31.64 4.3 31.74 18.24-26.35"/></g></g></svg>