<svg xmlns="http://www.w3.org/2000/svg" height="480" width="640" version="1"><defs><clipPath id="a"><path fill-opacity=".67" d="M0 0h640v480H0z"/></clipPath></defs><g clip-path="url(#a)"><path fill-rule="evenodd" fill="#5387f4" d="M-79.43 318.86h798.86V480H-79.43zM-79.43 0h798.86v161.14H-79.43z"/><path fill-rule="evenodd" fill="#fff" d="M-79.43 161.14h798.86v157.7H-79.43z"/><g transform="matrix(.5 0 0 .5 121.1 -34.8)"><path d="M240.03 725.16l196.6-338.64 196.6 338.64h-393.2z" fill-rule="evenodd" fill="#ffd200"/><path d="M259.85 716.04l177.17-306.86 177.16 306.86H259.85z" fill-rule="evenodd" fill="#0ff"/><g stroke="#ffd200" stroke-width=".73" fill="none"><path d="M439.18 556.66L438 448.34M445.07 563.73l38.86-54.16M450.96 569.6l62.4-25.9M455.67 577.86l73 2.35M450.96 587.28l42.4 37.68M439.18 583.74v34.15M426.23 575.5l-55.34 48.27M432.12 579.03l-24.72 45.92M422.7 569.6l-91.84 31.8M421.52 564.9l-64.76-2.36M369.7 537.82l56.53 18.84M396.8 489.55l34.14 65.94"/></g><g fill-rule="evenodd"><path d="M437.08 538.23c-35.43 0-61.25 6.5-83.04 14.14l5.54-9.58 5.53-9.6 5.55-9.6 5.54-9.58 5.52-9.6 5.54-9.57 6.13-9.77c8.25-7.26 25.97-10.65 43.68-10.65 17.72 0 35.44 3.58 44.3 10.82l5.54 9.6 5.53 9.58 5.54 9.6 5.53 9.57 5.53 9.6 5.54 9.6 5.53 9.57c-22.97-7.64-47.62-14.14-83.05-14.14z" fill="#c453d7"/><path d="M437.1 531.47c-35.55-.05-75.3 10.6-77.5 11.33l5.52-9.6 5.54-9.6 5.54-9.57 5.53-9.6 5.54-9.57 6.13-9.77c8.26-7.27 25.98-10.66 43.7-10.66 17.7 0 35.43 3.58 44.3 10.82l5.53 9.6 5.53 9.58 5.54 9.6 5.54 9.57 5.53 9.6 5.54 9.6s-42.07-11.33-77.5-11.33z" fill="#5000c1"/><path d="M437.08 523.8c-26.25-.1-68.7 7.14-71.68 8.5l5.25-8.7 5.54-9.58 5.52-9.6 5.54-9.58 6.13-9.77c8.25-7.25 25.97-10.65 43.68-10.65 17.72 0 35.44 3.6 44.3 10.83l5.54 9.6 5.53 9.57 5.54 9.6 5.53 9.57 5.53 9.6s-36.55-9.4-71.98-9.4z" fill="#0053d7"/><path d="M437.07 515.85c-34.8-.07-63.72 6.63-66.44 7.74l5.54-9.6 5.53-9.58 5.54-9.58 6.13-9.77c8.26-7.26 25.98-10.65 43.7-10.65 17.7 0 35.43 3.58 44.3 10.82l5.53 9.6 5.53 9.58 5.54 9.6 5.54 9.57s-31-7.75-66.43-7.75z" fill="#009f9f"/><path d="M437.08 509.1c-35.6-.14-57.96 4.45-60.9 4.92l5.54-9.6 5.54-9.58 6.13-9.76c8.25-7.26 25.97-10.66 43.68-10.66 17.72 0 35.44 3.6 44.3 10.83l5.54 9.6 5.53 9.57 5.54 9.6s-25.5-4.93-60.92-4.93z" fill="#ff0"/><path d="M436.78 500.25c-31.02-.67-53.8 4.25-55.07 4.16l5.55-9.56 6.13-9.77c8.26-7.26 25.98-10.66 43.7-10.66 17.7 0 35.43 3.6 44.3 10.84l5.53 9.6 5.54 9.57s-20.23-4.15-55.66-4.15z" fill="#f50"/><path d="M437.93 489.96c-31.13.26-47.25 4.34-50.7 4.9l6.12-9.78c8.26-7.25 25.98-10.65 43.7-10.65 17.7 0 35.43 3.6 44.3 10.83l5.53 9.6s-13.52-4.9-48.95-4.9z" fill="#ff0b00"/></g><path d="M259.85 716.04l49.83-86.3h254.67l49.83 86.3H259.85z" fill-rule="evenodd" fill="#4363ff"/><g fill-rule="evenodd"><path d="M334.7 674.38s28.3-5 46.6-19.98c18.33-15 18.33-39.97 26.66-39.97 8.32 0 10 28.3 29.97 38.3 19.98 10 51.62 23.3 51.62 23.3L334.7 674.4z" transform="rotate(14.7 3343.6 -177.3)" stroke="#000" stroke-width=".73" fill="#6da700"/><path d="M543.13 656.9c-43.48-20-17.7-10-30.6-18.33-6.44-16.65-16.1-29.97-8.05-29.97s9.66 28.3 29 38.3c19.3 10 27.37 12.5 27.37 12.5l-17.72-2.5z" fill="#ffbd00"/><path d="M334.7 674.38s28.3-5 46.6-19.98c18.33-15 18.33-39.97 26.66-39.97 8.32 0 10 28.3 29.97 38.3 19.98 10 51.62 23.3 51.62 23.3L334.7 674.4z" transform="matrix(1 0 0 1 73.7 -5.8)" stroke="#000" stroke-width=".73" fill="#6da700"/><path d="M506.9 656.9c-43.5-20-17.72-10-30.6-18.33-6.45-16.65-16.1-29.97-8.06-29.97 8.05 0 9.66 28.3 29 38.3 19.3 10 27.37 12.5 27.37 12.5l-17.7-2.5z" fill="#ffbd00"/><path d="M334.7 674.38s28.3-5 46.6-19.98c18.33-15 18.33-39.97 26.66-39.97 8.32 0 10 28.3 29.97 38.3 19.98 10 51.62 23.3 51.62 23.3L334.7 674.4z" transform="matrix(1 0 0 1 37.5 -5.8)" stroke="#000" stroke-width=".73" fill="#6da700"/><path d="M470.66 656.9c-43.48-20-17.7-10-30.6-18.33-6.44-16.65-16.1-29.97-8.05-29.97 8.07 0 9.68 28.3 29 38.3 19.32 10 27.38 12.5 27.38 12.5l-17.72-2.5z" fill="#ffbd00"/><path d="M334.7 674.38s28.3-5 46.6-19.98c18.33-15 18.33-39.97 26.66-39.97 8.32 0 10 28.3 29.97 38.3 19.98 10 51.62 23.3 51.62 23.3L334.7 674.4z" transform="matrix(1 0 0 1 -3.6 -6.7)" stroke="#000" stroke-width=".73" fill="#6da700"/><path d="M429.6 656.06c-43.48-19.98-17.72-10-30.6-18.32-6.44-16.65-16.1-29.97-8.05-29.97s9.66 28.3 29 38.3c19.3 10 27.36 12.5 27.36 12.5l-17.7-2.5z" fill="#ffbd00"/><path d="M334.7 674.38s28.3-5 46.6-19.98c18.33-15 18.33-39.97 26.66-39.97 8.32 0 10 28.3 29.97 38.3 19.98 10 51.62 23.3 51.62 23.3L334.7 674.4z" stroke="#000" stroke-width=".73" fill="#6da700" transform="matrix(1 0 0 1 -34.2 -6.7)"/><path d="M413.72 656.02c-44.96-19.98-18.32-10-31.64-18.32-6.66-16.65-16.65-29.97-8.32-29.97 8.32 0 10 28.3 29.97 38.3 19.98 10 28.3 12.5 28.3 12.5l-18.3-2.5z" fill="#ffbd00"/></g><path d="M438 565.5c.42 0 .74-1.88 1.78-3.54 2.22-1.6 4.56-2.87 7.65-3.54 1.66-.83 5.08-.58 7.65-.58 3.6.32 3.84 1.86 5.9 4.12.9 1.83 3.03 4.4 4.1 7.06 1.18 1.42 2.12 3.63 2.95 5.3.86 1.8 1.77 4.53 2.95 7.06.6 2.83 1.17 5.03 1.17 8.25 0 3.35-.55 4.78-1.17 7.06-1.8.6-5.3.88-7.07 0-1.9-1.7-5.15-.63-6.46-2.36-3.4-.48-4.2-4.46-5.9-6.48-1.17-1.73-1.15-3.03-2.35-4.7-1.86-1.34-2.1-2.95-2.95-5.3.74-2.52 2.02-3.08 4.12-4.13 1.13-1.64 1.77-2.3 1.77-5.3-.42-3.33-1.63-2.98-4.7-3.53-3.82 0-5.78.4-9.43.6z" fill-rule="evenodd" transform="matrix(.7 0 0 .5 132.3 268.7)" stroke="#000" stroke-width=".73" fill="red"/><g stroke="#0ff" stroke-width=".73" fill="none"><path d="M314.38 690.9h1.18c-3.18 0-1.56-.1 4.7 1.17 5.44.64 10.55 1.17 16.5 1.17M308.5 708.55v-1.18c0 3.7-.32 1.42 5.88-3.53 5.26-.92 7.74.94 14.13 1.18 3.4 1.7 9.53 1.14 12.96 0 1.75-.75 1.78-1.6 3.53-2.36M321.44 710.9v-1.17c.78.32 5.25 0 8.24 0 6.16 0 10.92-.3 14.13 2.36h2.37M366.18 686.18h5.88c3.76-1.25 9.2-1.25 12.96 0 1.48 4.88 3.4 5.78 9.42 5.9 1.97-1.5 6.05-2.54 8.24-3.55M369.7 694.42h16.5M380.3 705.02v-1.18c0 3.7-.3 1.42 5.9-3.53 4.7-2.3 7.16-3.6 14.13-2.35 5 2.68 6.8 4.24 12.95 4.7 5.6 0 8.06-.9 12.95-1.16M395.62 710.9h1.18c-3.3 0-1.54.16 4.7-2.35 5.86 1.47 9.8 3.46 16.5 3.54 3.8-.2 6.57-1.2 10.6-1.2M438 686.18h5.9c5.76 0 11.38-.1 16.48 1.18h16.48c1.57 0 1.18.4 1.18-1.18M433.3 695.6h1.18c-3.3 0-1.54.15 4.7-2.35 4.95.38 10.53 1.08 14.14 3.53 5.17 2.27 7.2 4.2 14.13 4.7 3.94-.2 4.2-1.74 8.24-2.35M450.96 707.37c1.85-.92 8.04-3.28 12.95-1.18 5.12 1.27 10.74 1.17 16.5 1.17 3.66-1.57 9.86-2.9 12.95-4.7h3.53M500.4 692.07c2.38 0 12.46-.56 17.67 1.18 6.37-.77 8.62-3.88 12.95-7.07 4.35 0 8.02.1 11.78 1.18M522.78 706.2c.1 0 4.7-.92 8.24-1.18 5.3-3.98 6.23.1 11.78 1.18 6.15-1.4 9.25-4.42 11.77-8.24M535.73 697.95h1.18c-3.46 0-1.5.2 4.72-3.53 4.14-2.07 4.63-4.17 10.6-4.7 3.3-2.48 5.73-.32 8.24 1.17M560.46 707.37c.2-.94 2.33-6.02 3.53-8.24 5.24-2.1 7.75-3.06 11.77 2.35 4.27 1.17 8.28 3.5 12.95 4.7 1.73 0 .9.3 2.35-1.16M576.94 690.9v-1.2c0 3.7-.24 1.5 4.7-4.7 5.47 1 6.9 4.3 9.43 8.25 5.85 0 9.7-.15 12.95-2.36M605.2 703.84c.71-1.04 5.4-8.71 9.42-4.7 5.23 1.42 6.04 3.8 11.77 5.88 1-1.76 2.1-2.1 4.7-2.36" transform="matrix(1 0 0 1.4 -35.2 -306.5)"/><path d="M501.6 708.55h1.17c-3.3 0-1.54.15 4.7-2.35 4.9-2.83 7.33-3.98 10.6-8.25 5.47.2 9.67 1.18 15.3 1.18 0-1.57-.38-1.18 1.2-1.18M350.88 694.42c0-.8 3.2-2.1 7.06-3.53 2.8-2.12 5.14-.14 9.42 0M356.76 705.02h1.18c-3.3 0-1.54.15 4.7-2.35 4.52.63 6.55 2.87 11.78 3.53" transform="matrix(1 0 0 1.4 -35.2 -306.5)"/></g><path d="M704.7 581.38c-11.72-.18-17.17 4.47-17.36 16.12-.04 2.7.6 6.15 1.54 8.22 3.34 7.28 8.96 8 16.2 8.12l20.15.32c1.86.03 3.9 1.02 3.8 6.07l1.23.02.23-14.84h-1.23c-.08 5.04-2.14 5.97-4 5.94l-20.15-.3c-6.08-.1-15.1-.3-14.92-12.28.13-8 3.95-11 13.94-10.86l21.5.34c1.85.03 3.9 1.02 3.8 5.7h1.23l.28-17.78-1.22-.02c-.07 4.67-2.13 5.6-4 5.57l-21.04-.32z" stroke="#000" stroke-width=".73" fill="#ffd200"/><path d="M727.47 563.85l-.2-1.32c-4.94-.84-1.05-6.5-2.28-14.22-2.02-12.57-12.83-20.18-25.4-18.17-14.86 2.37-19.82 15.15-18.1 25.9.83 5.18 4.36 11.88 7.03 15.2l12-1.9c3.6-.6 5.68-.6 6.4 3.5l1.2-.2-2.57-16.1-1.2.2c.84 5.24-1.2 5.88-4.8 6.46l-9.42 1.5c-1.83.3-2.2.35-3.4-1.34-1.34-2-2.14-4.6-2.52-6.92-1.7-10.62 6.3-17.4 16.03-18.96 11.06-1.77 20.63 1.37 22.3 11.86 1.2 7.46-2.3 12.3-8.62 15.77l.23 1.46 13.3-2.7z" stroke="#000" stroke-width=".7299927" fill="#ffd200"/><path d="M630.18 384.82l-1.03-.86c-4.94 2.63-4.03-3.45-10.77-9.07-9.87-8.26-22.83-6.82-31 2.96-8.97 10.76-6.78 23 2.8 31 4.72 3.95 11.83 5.7 17.9 4.53v-1.7c-6.2.52-10.8-.65-15.6-4.67-8.07-6.73-5.46-17.14.28-24.02 7.38-8.83 16.33-12.46 24.43-5.7 5.6 4.7 6.1 11.37 3.02 17.96l1.18.98 8.78-11.42z" stroke="#000" stroke-width=".73" fill="#ffd200"/><path d="M511.4 334.07c0-1.86.97-3.9 6.28-3.9v-1.22H498.6v1.22c5.32 0 6.28 2.04 6.28 3.9v32.13c0 1.85-.96 3.9-6.27 3.9v1.22h19.08v-1.22c-5.3 0-6.27-2.05-6.27-3.9v-32.13z" transform="matrix(.9 .5 -.5 .8 302.2 -196.2)" stroke="#000" stroke-width=".73" fill="#ffd200"/><path d="M564.7 346.36c.72-1.7 2.4-3.23 7.23-1.2l.48-1.1-14.03-5.92-.47 1.12c4.83 2.03 4.92 4.3 4.2 6l-9.96 23.66-10.76-37.94-10.1-4.24-.46 1.12c2.87 1.27 3.17 2.03 4.13 4.86l.23.8-12.62 29.96c-.72 1.7-2.4 3.22-7.23 1.2l-.48 1.1 14.04 5.92.46-1.12c-4.83-2.04-4.92-4.3-4.2-6l11.35-26.97 12.5 43.54.9.37 14.8-35.14zM474.83 357.3l3.6-10.6-1.78-.13c-3.93 7.88-8.8 7.6-13.9 7.26l-8.43-.57c-1.27-.1-1.56-1.46-1.5-2.6l1.08-15.7 9 .6c4.3.3 7.84 1.75 7.5 6.73l1.34.1 1.02-14.96-1.34-.1c-.34 5-4.06 5.9-8.33 5.6l-9.02-.6.94-13.74c.1-1.6 1.38-2.4 2.98-2.3l10.28.7c4.47.3 6.36 3.52 6.83 7l1.42.1.62-9.12-33.9-2.3-.1 1.2c4.67.32 5.5 2.43 5.36 4.28l-2.18 32.05c-.13 1.86-1.22 3.84-5.88 3.52l-.1 1.22 34.5 2.35zM299.7 344.25l-1.16.7c.88 5.52-4.57 2.7-12.07 7.24-11 6.65-13.85 19.38-7.25 30.27 7.27 12 19.57 13.88 30.24 7.42 5.26-3.2 9.24-9.35 10.1-15.48l-1.6-.53c-1.53 6-4.13 9.97-9.5 13.23-8.97 5.44-17.98-.4-22.62-8.07-5.97-9.85-6.5-19.5 2.53-24.96 6.24-3.78 12.73-2.1 17.96 2.96l1.32-.8-7.96-12zM260.88 378.03c-1.17-1.43-1.73-3.62 2.37-7l-.77-.93-14.74 12.1.78.94c4.1-3.37 6.14-2.4 7.32-.96l20.4 24.82c1.18 1.43 1.74 3.63-2.37 7l.77.94 14.74-12.1-.77-.95c-4.1 3.36-6.14 2.4-7.32.96l-20.4-24.83zM271.52 418.07l-5.98-9.9-1.1 1.18c3.95 8.58-.15 12.54-5.74 18.44-2.73 2.88-4.9 4.16-6.2 2.93l-23.35-22.08c-1.35-1.28-2.17-3.38 1.04-6.78l-.9-.83-12.22 12.92.88.84c3.2-3.4 5.36-2.7 6.7-1.4L248 435.46c1.35 1.28 2.18 3.38-1.03 6.77l.88.84 23.67-25zM191.57 503.78c10.3 5.54 17.3 3.92 22.8-6.34 1.28-2.37 2.3-5.75 2.42-8 .37-8-4.3-11.24-10.66-14.67l-17.76-9.54c-1.63-.88-2.98-2.7-.6-7.15l-1.06-.58-7.03 13.08 1.06.58c2.4-4.46 4.65-4.33 6.3-3.45l17.75 9.55c5.36 2.88 13.28 7.2 7.6 17.75-3.77 7.05-8.55 7.97-17.35 3.24l-18.94-10.18c-1.62-.88-2.97-2.7-.76-6.8l-1.07-.6-8.43 15.68 1.07.58c2.23-4.12 4.48-4 6.12-3.1l18.55 9.96zM193.92 554.2l-10.05-4.93-.35 1.76c7.3 4.9 6.43 9.7 5.43 14.7l-1.65 8.3c-.25 1.25-1.64 1.37-2.77 1.14l-15.44-3.06 1.75-8.84c.83-4.2 2.73-7.55 7.63-6.58l.26-1.32-14.7-2.9-.25 1.3c4.9.98 5.3 4.78 4.47 8.98l-1.76 8.86-13.48-2.68c-1.57-.32-2.2-1.68-1.9-3.25l2-10.1c.88-4.4 4.3-5.88 7.83-5.9l.27-1.37-8.97-1.8-6.62 33.35 1.2.23c.9-4.58 3.1-5.12 4.92-4.76l31.5 6.26c1.83.36 3.65 1.7 2.74 6.28l1.18.24 6.74-33.9zM183.94 627.98c1.86.02 3.9 1 3.85 5.48h1.2l.2-17.6h-1.22c-.05 4.67-2.1 5.6-3.97 5.6l-14.45-.16-.1-3.6 19.88-15 .1-10.3-1.2-.03c-.23 2.88-1.52 4.34-3.65 6.04l-15.76 12.52c-.76-6.03-3.84-11.63-10.62-11.7-7.5-.08-11.27 6.28-11.38 16.9l-.18 16.9h1.2c.06-4.47 2.12-5.4 3.97-5.38l32.14.34zm-31.73-6.87c-3-.02-3-.6-2.95-4.76.06-5.76 2.6-10.2 8.94-10.14 6.9.07 8.76 5.8 8.98 15.07l-14.97-.16zM191.8 540.4c1.8.45 3.56 1.88 2.42 6.4l1.18.3 4.36-17.24-1.18-.3c-1.15 4.53-3.37 4.96-5.17 4.5l-13.26-3.35c.64-1.74 1.22-3.5 1.67-5.3 2.02-7.95.83-16.57-8.35-18.9-7.32-1.84-12.68 4.72-15.1 14.28l-3.95 15.63 1.18.3c1.07-4.2 3.3-4.64 5.1-4.18l31.13 7.88zm-29.35-14.16c-2.54-.65-2.82-.85-2.16-3.45 1.5-5.97 4.93-11.18 11.94-9.4 7.2 1.82 8.25 7.03 6.56 13.74-.26 1-.65 2-.96 3l-15.4-3.9zM223.13 467.22c1.5 1.07 2.64 3.03-.35 7.27l1 .7 11.6-16.5c5.8-8.2 6.37-15.93.1-20.36-5.03-3.53-10.8-1.25-14.85 2.63 1.9-4.7 1.7-9.2-2.68-12.3-6.7-4.72-13.27.05-18.94 8.1l-9.87 14.03 1 .7c2.98-4.24 5.2-3.84 6.73-2.77l26.27 18.5zm-9.12-14.4l1.85-2.62c3.47-4.92 9-10.33 15.23-5.95 6.12 4.3 4.9 9.48 1.08 14.93-2.7 3.82-3.97 3.62-5.8 2.34l-12.35-8.7zm-2.08-1.47l-11.88-8.37c-1.83-1.3-.55-2.9 3.15-7.48 3.25-3.18 7.17-4.2 11.14-1.4 4.24 3 4.32 7.67.6 12.96l-3.02 4.3z" stroke="#000" stroke-width=".73" fill="#ffd200"/><path d="M418.26 355.16c17.1-1.34 25.1-10.05 24.07-23-1.12-14.36-11.55-20.47-27.88-19.2l-16.46 1.3.08 1.2c4.66-.36 5.78 1.6 5.92 3.45l2.5 32.04c.15 1.85-.65 3.97-5.3 4.34l.1 1.2 16.96-1.32zm-7.7-36.24c-.25-3.07.3-3.3 3.37-3.54 11.8-.92 20.48 4.88 21.45 17.4.93 11.85-6.05 19.46-19.1 19.9-1.42.05-3.13-.52-3.32-2.88l-2.4-30.88zM643.62 456.03c-1.6.94-3.85 1.16-6.13-2.7l-1.06.62 8.96 15.15 1.05-.62c-2.38-4.02-1.1-5.9.5-6.83l12.44-7.37 1.93 3.02-9.2 23.15 5.23 8.87 1.05-.62c-1.3-2.58-.94-4.5 0-7.06l7-18.86c3.77 4.76 9.3 7.95 15.14 4.5 6.44-3.8 6.38-11.2.97-20.36l-8.6-14.54-1.04.62c2.28 3.86 1 5.73-.6 6.67l-27.64 16.36zm30.7-10.58c2.6-1.53 2.88-1.03 5 2.55 2.93 4.95 3.07 10.08-2.4 13.3-5.94 3.53-10.5-.4-15.5-8.22l12.9-7.63zM653.04 405.78l-.86-.94-31.57 11.13c-6.35 2.23-10.93 4.14-13.83 1.42l-.9.8 8.52 9.4.9-.83c-1.47-1.6-2.5-3.6-.95-5.03 1.76-1.6 7.3-3.1 9.67-4.1l11.28 12.4-2.48 5.36c-2.58 5.63-3.44 6.5-7.28 2.64l-.9.82 10.97 12.08.9-.82c-2.54-2.53-.6-6.1.56-8.72l15.98-35.62zm-8.37 4.5l-8.03 17.33-9.95-10.93 17.97-6.4zM709.55 496.83l-.52-1.17-33.47.5c-6.73.1-11.68.44-13.57-3.06l-1.12.5 5.1 11.6 1.1-.5c-.87-2-1.22-4.2.72-5.06 2.16-.95 7.9-.6 10.47-.82l6.74 15.35-4.05 4.3c-4.24 4.5-5.33 5.06-7.75.18l-1.1.5 6.55 14.93 1.1-.5c-1.6-3.2 1.37-5.96 3.3-8.07l26.5-28.67zm-9.37 1.6l-13.13 13.87-5.94-13.54 19.08-.33zM727.15 645.9l.15-1.28-29.1-16.53c-5.86-3.35-10.3-5.55-10.16-9.53l-1.2-.14-1.5 12.58 1.2.16c.27-2.17 1.1-4.26 3.2-4 2.35.27 7.12 3.48 9.44 4.6l-1.97 16.64-5.67 1.65c-5.94 1.74-7.16 1.66-6.77-3.77l-1.2-.14-1.93 16.2 1.2.15c.24-3.6 4.2-4.48 6.95-5.3l37.37-11.3zm-8.88-3.38l-18.35 5.3 1.74-14.68 16.6 9.38zM332.64 330.6l-1.2.48-.68 33.46c-.14 6.74.03 11.7-3.54 13.46l.45 1.13 11.78-4.68-.45-1.13c-2.02.8-4.26 1.07-5.04-.9-.87-2.2-.32-7.92-.44-10.5l15.58-6.17 4.15 4.2c4.36 4.4 4.87 5.5-.1 7.75l.46 1.13 15.17-6.02-.44-1.12c-3.26 1.5-5.93-1.58-7.97-3.6l-27.72-27.48zm1.26 9.42l13.4 13.62-13.74 5.45.34-19.08z" stroke="#000" stroke-width=".73" fill="#ffd200"/><path d="M699.55 735.63l-7.9-8.43-.84 1.37c5.66 7.57 2.47 12.3-1.77 19.24-2.07 3.4-3.94 5.1-5.47 4.17l-27.4-16.76c-1.6-.95-2.84-2.84-.4-6.83l-1.04-.63-9.28 15.18 1.04.63c2.43-3.98 4.68-3.73 6.27-2.77l27.4 16.76c1.6.96 2.84 2.85.4 6.84l1.04.63 17.95-29.37z" stroke="#000" stroke-width=".7300073" fill="#ffd200"/><path d="M578.87 811.16l3.73-2.7c3.62-2.64 6.1-4.67 12.17 1.28l1.24-.9-6.7-8.58-29.2 21.2 6.08 9.04 1.24-.9c-.8-1.87-1.82-3.82-1.7-5.96-.1-3.26 4.14-5.93 7.87-8.64l20.3 27.96c1.08 1.5 1.5 3.73-2.27 6.47l.7 1 14.4-10.47-.7-.98c-3.78 2.74-5.76 1.65-6.85.15l-20.3-27.97zM555 830.75c-.72-1.7-.63-3.97 4.2-6l-.46-1.12-14.04 5.9.47 1.12c4.84-2.03 6.52-.52 7.24 1.2l9.95 23.66-34.64-18.83-10.08 4.24.47 1.13c2.9-1.15 3.66-.85 6.36.45l.7.4 12.6 29.97c.73 1.7.64 3.97-4.2 6l.47 1.12 14.05-5.9-.48-1.12c-4.83 2.03-6.5.52-7.23-1.2l-11.33-26.96 39.86 21.5.88-.38L555 830.75zM525.15 883.16l.3-11.2-1.75.43c-1.4 8.68-6.13 9.87-11.1 11.06l-8.22 1.96c-1.25.3-1.93-.92-2.2-2.04l-3.66-15.3 8.78-2.1c4.17-1 8-.67 9.16 4.2l1.3-.32-3.47-14.57-1.32.3c1.16 4.86-2.12 6.82-6.3 7.82l-8.77 2.1-3.2-13.4c-.36-1.54.62-2.7 2.17-3.07l10.03-2.4c4.35-1.03 7.12 1.46 8.6 4.66l1.38-.32-2.13-8.9-33.05 7.9.28 1.18c4.54-1.08 5.95.68 6.38 2.5l7.47 31.24c.43 1.8-.03 4.02-4.57 5.1l.28 1.2 33.6-8.04zM477.87 852.56l-1.34.06c-1.87 5.28-5.3.2-14.07.6-12.85.6-21.43 10.4-20.83 23.13.65 14 10.54 21.55 23 20.97 6.15-.3 12.58-3.8 16.26-8.76l-1.16-1.23c-4.2 4.55-8.4 6.8-14.66 7.1-10.48.47-15.6-8.96-16.02-17.9-.53-11.52 3.6-20.24 14.16-20.72 7.3-.33 12.18 4.24 14.36 11.2l1.54-.08-1.25-14.36zM388.05 849.4l-1.3-.4c-3.5 4.37-5.06-1.58-13.46-4.1-12.33-3.7-23.68 2.7-27.34 14.9-4.04 13.42 2.8 23.83 14.74 27.42 5.88 1.77 13.12.6 18.24-2.87l-.67-1.54c-5.5 2.9-10.18 3.63-16.2 1.83-10.04-3.02-11.73-13.62-9.15-22.2 3.32-11.04 10.12-17.88 20.23-14.84 7 2.1 10.08 8.03 9.83 15.3l1.47.45 3.6-13.95zM345.2 841.42c.73-1.7 2.42-3.22 7.3-1.14l.48-1.12-17.55-7.46-.48 1.12c4.9 2.08 4.97 4.34 4.25 6.04l-12.57 29.57c-.73 1.7-2.4 3.22-7.3 1.14l-.48 1.12 17.56 7.45.48-1.12c-4.9-2.08-4.97-4.34-4.24-6.05l12.57-29.56zM270.18 842.78l9.1-6.52-1.4-1.14c-7.77 4.12-11.57 1.08-15.53-2.17l-6.52-5.37c-1-.8-.43-2.1.3-3l10-12.14 6.97 5.73c3.3 2.72 5.36 5.98 2.2 9.84l1.03.86 9.5-11.57-1.03-.86c-3.17 3.86-6.72 2.43-10.03-.3l-6.97-5.73 8.74-10.62c1.02-1.23 2.53-1.15 3.76-.13l7.96 6.54c3.46 2.84 3.14 6.55 1.5 9.67l1.07.9 5.82-7.08-26.25-21.6-.77.94c3.6 2.97 3.05 5.16 1.87 6.6l-20.4 24.8c-1.2 1.44-3.23 2.4-6.84-.55l-.77.92 26.68 21.96z" stroke="#000" stroke-width=".73" fill="#ffd200"/><path d="M260.55 785.15c1.38-1.24 3.55-1.9 6.67 1.58l.9-.8-8.5-9.5-33.5 11.07 14.18-32.6-8.46-9.42-.9.8c3.4 3.82 2.53 5.9 1.15 7.14l-23.93 21.46c-1.38 1.24-3.54 1.9-7.05-2l-.9.8 10.17 11.34.9-.82c-3.5-3.9-2.63-5.98-1.25-7.22l22.2-19.92-15.28 35.3.6.66 38.05-12.13-23.3 20.9c-1.38 1.23-3.54 1.9-6.66-1.6l-.9.82 11.87 13.24.9-.8c-3.1-3.5-2.23-5.57-.85-6.8l23.87-21.5z" stroke="#000" stroke-width=".7299927" fill="#ffd200"/><path d="M287.2 848.33c-.86 1.64-2.66 3-6.62.9l-.57 1.07 15.56 8.25.57-1.07c-4.13-2.2-4.02-4.45-3.15-6.1l6.78-12.77 3.23 1.58 4.2 24.55 9.1 4.83.58-1.08c-2.46-1.5-3.16-3.33-3.7-6l-3.87-19.74c5.7 2.08 12.1 1.92 15.28-4.07 3.5-6.62-.4-12.9-9.8-17.88l-14.9-7.92-.58 1.07c3.95 2.1 3.84 4.36 2.97 6l-15.06 28.38zm20.7-25.04c1.4-2.67 1.9-2.4 5.58-.45 5.1 2.7 7.88 7 4.9 12.6-3.23 6.1-9.16 5.14-17.5 1.07l7-13.23zM406.47 852.1l-1.27-.15-16.56 29.1c-3.34 5.84-5.55 10.28-9.53 10.13l-.13 1.2 12.58 1.5.15-1.2c-2.16-.25-4.26-1.08-4-3.18.28-2.35 3.5-7.12 4.6-9.44l16.65 2 1.65 5.66c1.73 5.95 1.65 7.16-3.78 6.77l-.14 1.2 16.2 1.93.15-1.2c-3.6-.24-4.46-4.2-5.3-6.95l-11.26-37.36zm-3.38 8.88l5.27 18.36-14.68-1.76 9.4-16.6zM224.8 731.28l-.58-1.14-33.37 2.7c-6.72.54-11.63 1.22-13.74-2.15l-1.07.55 5.84 11.24 1.08-.57c-1-1.93-1.5-4.13.38-5.1 2.1-1.1 7.86-1.13 10.4-1.5l7.73 14.87-3.76 4.55c-3.93 4.78-4.98 5.4-7.72.7l-1.08.55 7.53 14.48 1.08-.56c-1.82-3.1.97-6.05 2.77-8.28l24.53-30.35zm-9.23 2.2l-12.2 14.7-6.8-13.1 19-1.6zM621.3 824.6c1.24 1.4 1.9 3.56-1.46 6.54l.8.9 13.15-11.7-.82-.9c-3.5 3.1-5.57 2.2-6.8.82l-9.62-10.8 2.6-2.48 24.47 4.6 7.7-6.86-.8-.9c-2.3 1.76-4.24 1.78-6.93 1.36l-19.85-3.24c3.93-4.62 6-10.66 1.5-15.73-5-5.58-12.24-4.1-20.17 2.97l-12.6 11.24.8.92c3.34-2.98 5.42-2.1 6.65-.7l21.37 24zm-16.28-28.1c-2-2.23-1.57-2.62 1.54-5.38 4.3-3.83 9.3-4.95 13.52-.22 4.6 5.16 1.62 10.38-5.1 16.8l-9.96-11.2zM631.66 760.32l-.75 1.03 17.4 28.6c3.48 5.77 6.3 9.86 4.22 13.26l1 .73 7.42-10.27-1-.7c-1.26 1.75-3 3.18-4.72 1.94-1.92-1.4-4.53-6.52-6-8.62l9.82-13.58 5.76 1.32c6.04 1.37 7.06 2.03 4.08 6.6l1 .7 9.55-13.22-.98-.72c-1.95 3.02-5.85 1.86-8.65 1.25l-38.12-8.3zm6.12 7.26l18.6 4.3-8.66 11.98-9.94-16.28z" stroke="#000" stroke-width=".73" fill="#ffd200"/><ellipse fill-rule="evenodd" rx="9.57" ry="9.16" stroke="#000" transform="translate(2.5 8.3)" cy="676.04" cx="176.92" stroke-width=".73" fill="#ffd200"/><ellipse fill-rule="evenodd" rx="9.57" ry="9.16" stroke="#000" transform="translate(514.5 20)" cy="676.04" cx="176.92" stroke-width=".73" fill="#ffd200"/></g></g></svg>