<svg xmlns="http://www.w3.org/2000/svg" height="480" width="640"><defs><clipPath id="a"><path fill-opacity=".67" d="M0-15.96h512v512H0z"/></clipPath></defs><path fill="#fff" d="M0 0h640v480H0z"/><g clip-path="url(#a)" transform="matrix(.9 0 0 .9 0 15)"><g fill-rule="evenodd"><path d="M6.54 489.54h378.8L137.4 238.1l257.26.3L6.56-9.46l-.02 499z" stroke="#000063" stroke-width="13.832831999999998" fill="#ce0000"/><path fill="#fff" d="M180.74 355.8l-27 8.94 21.12 19.86-28.44-1.83L158.14 409l-25.55-12.28.52 28.6-18.8-20.9-10.73 26.63-9.16-26.32-20.37 20.58 1.87-27.72L49.04 409l12.6-24.9-29.32.5 21.43-18.32-27.3-10.48 27-8.92-21.13-19.86 28.43 1.8-11.7-26.2L74.6 314.9l-.53-28.6 18.8 20.9 10.72-26.63 9.15 26.32 20.37-20.6-1.88 27.73 26.9-11.42-12.6 24.93 29.32-.5-21.43 18.3M148.32 171.12l-11.33 8.4 5.57 4.6c13.57-10.48 23.22-20.06 30.76-35.95 1.77 21.22-17.7 68.85-68.73 69.38-54.64-.05-73.6-50.6-71.48-70.28 10.03 18.2 16.16 27.1 31.9 36.57l4.83-4.42-10.67-8.9 13.74-3.57-7.4-12.44 14.4 1.06-1.8-14.48 12.6 7.38 3.95-13.5 9.07 10.88 8.5-10.3 4.6 14 11.8-8.2-1.5 14.2 14.12-1.64-6.62 13.15 13.68 4.07z"/></g></g></svg>