<svg xmlns="http://www.w3.org/2000/svg" height="480" width="640"><g fill-rule="evenodd" stroke-width="1pt"><path fill="#00006a" d="M0 0h640v480H0z"/><path d="M0 0l319 304.34h65.42L72.32.14 0 0z" fill="#fff"/><path d="M360.52 304.32L48.2 0 23.9.37 337.5 304.33h23z" fill="red"/><path d="M384.42 0L65.44 304.34H0L312.1.14 384.42 0z" fill="#fff"/><path d="M360.45 0L48.25 304.33h-24.3L337.46 0h23z" fill="red"/><path fill="#fff" d="M161.45 0h61.5v304.33h-61.5z"/><path fill="#fff" d="M0 121.74h384.4v60.87H0z"/><path fill="red" d="M174.9 0h34.6v304.33h-34.6z"/><path fill="red" d="M0 136.96h384.4v30.43H0z"/><g><path fill="#fff" d="M520 179.33l-19.57-14.47-20.3 13.42 7.65-23.18-18.98-15.26 24.3.14 8.57-22.86 7.38 23.27 24.26 1.13-19.72 14.24"/><path fill="red" d="M512.16 167.6l-11.58-8.36-11.84 8 4.35-13.66-11.25-8.84 14.28-.07 4.9-13.47 4.46 13.62 14.24.52-11.5 8.48"/><path fill="#fff" d="M444.88 304.04l-19.58-14.46L405 303l7.65-23.2-18.98-15.24 24.3.14 8.57-22.86 7.38 23.27 24.26 1.15-19.73 14.24"/><path fill="red" d="M437.03 292.33l-11.58-8.37-11.84 8 4.36-13.66-11.24-8.84 14.28-.07 4.9-13.48 4.46 13.62 14.25.52-11.48 8.48"/><g><path fill="#fff" d="M598.63 291.75l-19.57-14.47-20.3 13.43 7.64-23.18-18.97-15.25 24.3.13 8.56-22.85 7.38 23.27 24.26 1.13-19.73 14.25"/><path fill="red" d="M590.78 280.04l-11.58-8.38-11.83 8 4.35-13.65-11.24-8.83 14.27-.07 4.9-13.47 4.46 13.62 14.27.5-11.5 8.5"/></g><g><path fill="#fff" d="M518.26 469.17l-19.58-14.47-20.3 13.43 7.65-23.2-18.97-15.25 24.3.14 8.56-22.85 7.38 23.27 24.26 1.13-19.72 14.25"/><path fill="red" d="M510.4 457.46l-11.57-8.38-11.84 8 4.34-13.65-11.23-8.84 14.28-.08 4.9-13.47 4.46 13.62 14.26.5-11.5 8.5"/></g></g></g></svg>