<svg xmlns="http://www.w3.org/2000/svg" height="480" width="640" version="1"><defs><clipPath id="a"><path fill-opacity=".67" d="M0 0h640v480H0z"/></clipPath></defs><g clip-path="url(#a)"><path fill-rule="evenodd" fill="#ef2d29" d="M-3.3-21.6h702.27v553H-3.3z"/><path fill-rule="evenodd" fill="#009025" d="M174.57 317.33h535.76V524.9H174.57z"/><path fill-rule="evenodd" fill="#fff" d="M174.57-35.4h564.88v190.07H174.57z"/><g stroke-width=".98" stroke="#ef2d28"><g fill-rule="evenodd" transform="matrix(.2 0 0 .2 111.3 -13.4)" fill="#fff"><rect rx="11.3" ry="11.85" height="85.04" width="138.19" y="467.72" x="17.72" stroke-width="1.41"/><rect rx="10.72" ry="10.86" height="77.95" width="131.1" y="471.26" x="21.26" stroke-width="1.31"/><path d="M64.97 396.07l9.72.44.43 5.76 7.96 5.3 6.17-6.63 7.52 5.3-7.08 5.75 1.76 7.96 8.84-.45v10.6l-7.07-.44-3.53 6.63 7.95 7.5-6.2 6.2-6.62-6.64-9.72 2.65.44 9.73-10.6.9-1.33-9.3-8.84-4.86-4.86 6.63-7.5-4.86 4.4-7.5-5.3-4.87h-7.5l-.45-13.7 7.5.88 5.3-7.95-6.18-6.2 7.95-7.06 5.75 5.74 9.72-1.76 1.33-5.75z" transform="matrix(.7 0 0 .6 38 260.7)" stroke-width="1.31"/><ellipse transform="matrix(.7 0 0 .7 38.8 209.6)" cx="68.94" rx="11.05" cy="426.78" ry="9.94" stroke-width="1.31"/><g stroke-width="1.31"><path d="M38.98 474.8l-10.63 10.63M46.06 474.8l-10.63 10.63M53.15 474.8l-10.63 10.63M60.24 474.8L49.6 485.43M67.32 474.8L56.7 485.43M74.4 474.8L63.8 485.43M81.5 474.8l-10.63 10.63M88.58 474.8l-10.63 10.63M95.67 474.8l-10.63 10.63M102.75 474.8l-10.63 10.63M109.84 474.8L99.2 485.43M116.93 474.8l-10.63 10.63M88.58 474.8l-10.63 10.63M124.02 474.8l-10.63 10.63M131.1 474.8l-10.63 10.63M138.2 474.8l-10.64 10.63M145.28 474.8l-10.63 10.63M134.64 474.8l10.63 10.63M127.56 474.8l10.63 10.63M120.47 474.8l10.63 10.63M113.38 474.8L124 485.43M106.3 474.8l10.63 10.63M99.2 474.8l10.64 10.63M92.12 474.8l10.63 10.63M85.04 474.8l10.63 10.63M77.95 474.8l10.63 10.63M70.86 474.8l10.63 10.63M63.78 474.8l10.63 10.63M56.7 474.8l10.62 10.63M85.04 474.8l10.63 10.63M49.6 474.8l10.64 10.63M42.52 474.8l10.63 10.63M35.43 474.8l10.63 10.63M28.35 474.8l10.63 10.63"/></g><g stroke-width="1.31"><path d="M38.98 535.04l-10.63 10.63M46.06 535.04l-10.63 10.63M53.15 535.04l-10.63 10.63M60.24 535.04L49.6 545.67M67.32 535.04L56.7 545.67M74.4 535.04L63.8 545.67M81.5 535.04l-10.63 10.63M88.58 535.04l-10.63 10.63M95.67 535.04l-10.63 10.63M102.75 535.04l-10.63 10.63M109.84 535.04L99.2 545.67M116.93 535.04l-10.63 10.63M88.58 535.04l-10.63 10.63M124 535.04l-10.62 10.63M131.1 535.04l-10.63 10.63M138.2 535.04l-10.64 10.63M145.28 535.04l-10.63 10.63M134.64 535.04l10.63 10.63M127.56 535.04l10.63 10.63M120.47 535.04l10.63 10.63M113.38 535.04L124 545.67M106.3 535.04l10.63 10.63M99.2 535.04l10.64 10.63M92.12 535.04l10.63 10.63M85.04 535.04l10.63 10.63M77.95 535.04l10.63 10.63M70.86 535.04l10.63 10.63M63.78 535.04l10.63 10.63M56.7 535.04l10.62 10.63M85.04 535.04l10.63 10.63M49.6 535.04l10.64 10.63M42.52 535.04l10.63 10.63M35.43 535.04l10.63 10.63M28.35 535.04l10.63 10.63"/></g></g><g fill-rule="evenodd" fill="#fff" transform="matrix(.2 0 0 .2 19.1 -14.1)"><rect rx="11.3" ry="11.85" height="85.04" width="138.19" y="467.72" x="17.72" stroke-width="1.41"/><rect rx="10.72" ry="10.86" height="77.95" width="131.1" y="471.26" x="21.26" stroke-width="1.31"/><path d="M64.97 396.07l9.72.44.43 5.76 7.96 5.3 6.17-6.63 7.52 5.3-7.08 5.75 1.76 7.96 8.84-.45v10.6l-7.07-.44-3.53 6.63 7.95 7.5-6.2 6.2-6.62-6.64-9.72 2.65.44 9.73-10.6.9-1.33-9.3-8.84-4.86-4.86 6.63-7.5-4.86 4.4-7.5-5.3-4.87h-7.5l-.45-13.7 7.5.88 5.3-7.95-6.18-6.2 7.95-7.06 5.75 5.74 9.72-1.76 1.33-5.75z" transform="matrix(.7 0 0 .6 38 260.7)" stroke-width="1.31"/><ellipse transform="matrix(.7 0 0 .7 38.8 209.6)" cx="68.94" rx="11.05" cy="426.78" ry="9.94" stroke-width="1.31"/><g stroke-width="1.31"><path d="M38.98 474.8l-10.63 10.63M46.06 474.8l-10.63 10.63M53.15 474.8l-10.63 10.63M60.24 474.8L49.6 485.43M67.32 474.8L56.7 485.43M74.4 474.8L63.8 485.43M81.5 474.8l-10.63 10.63M88.58 474.8l-10.63 10.63M95.67 474.8l-10.63 10.63M102.75 474.8l-10.63 10.63M109.84 474.8L99.2 485.43M116.93 474.8l-10.63 10.63M88.58 474.8l-10.63 10.63M124.02 474.8l-10.63 10.63M131.1 474.8l-10.63 10.63M138.2 474.8l-10.64 10.63M145.28 474.8l-10.63 10.63M134.64 474.8l10.63 10.63M127.56 474.8l10.63 10.63M120.47 474.8l10.63 10.63M113.38 474.8L124 485.43M106.3 474.8l10.63 10.63M99.2 474.8l10.64 10.63M92.12 474.8l10.63 10.63M85.04 474.8l10.63 10.63M77.95 474.8l10.63 10.63M70.86 474.8l10.63 10.63M63.78 474.8l10.63 10.63M56.7 474.8l10.62 10.63M85.04 474.8l10.63 10.63M49.6 474.8l10.64 10.63M42.52 474.8l10.63 10.63M35.43 474.8l10.63 10.63M28.35 474.8l10.63 10.63"/></g><g stroke-width="1.31"><path d="M38.98 535.04l-10.63 10.63M46.06 535.04l-10.63 10.63M53.15 535.04l-10.63 10.63M60.24 535.04L49.6 545.67M67.32 535.04L56.7 545.67M74.4 535.04L63.8 545.67M81.5 535.04l-10.63 10.63M88.58 535.04l-10.63 10.63M95.67 535.04l-10.63 10.63M102.75 535.04l-10.63 10.63M109.84 535.04L99.2 545.67M116.93 535.04l-10.63 10.63M88.58 535.04l-10.63 10.63M124 535.04l-10.62 10.63M131.1 535.04l-10.63 10.63M138.2 535.04l-10.64 10.63M145.28 535.04l-10.63 10.63M134.64 535.04l10.63 10.63M127.56 535.04l10.63 10.63M120.47 535.04l10.63 10.63M113.38 535.04L124 545.67M106.3 535.04l10.63 10.63M99.2 535.04l10.64 10.63M92.12 535.04l10.63 10.63M85.04 535.04l10.63 10.63M77.95 535.04l10.63 10.63M70.86 535.04l10.63 10.63M63.78 535.04l10.63 10.63M56.7 535.04l10.62 10.63M85.04 535.04l10.63 10.63M49.6 535.04l10.64 10.63M42.52 535.04l10.63 10.63M35.43 535.04l10.63 10.63M28.35 535.04l10.63 10.63"/></g></g><path d="M538.58 531.5c1.72 166.56 24.8 201.97 3.54 201.97s-31.9-92.07-31.9-205.5 14.2-205.52 35.45-205.52-8.92 31.9-7.1 209.06z" fill-rule="evenodd" transform="matrix(-.3 -.1 -.2 .2 345.9 61.4)" stroke-width="1.31" fill="#fff"/><path d="M545.67 779.53l-60.24 17.72c56.7 60.23 120.47 85.03 138.2 74.4 17.7-10.62-31.9-35.43-77.96-92.12z" fill-rule="evenodd" stroke-width="1.23" fill="#fff" transform="matrix(-.2 0 0 .2 145.3 -13.4)"/><path d="M547.27 786.9l-50.93 14.74c56.7 60.24 112.77 77.39 127.28 70.02 14.6-7.37-30.28-28.07-76.35-84.76z" fill-rule="evenodd" transform="matrix(-.2 0 0 .2 142.8 -8.1)" stroke-width="1.27" fill="#fff"/><path d="M353.13 634.23c.2 1.27.75 7.07 1.25 9.38 0 3.2.3 5.64.63 8.13.8 2.18.67 4.2 3.13 5 1.7 2.63 2.76 3.3 5 4.38 1.53 1.33 3.84 2.65 6.25 3.76 2.5 1.07 4.77 1.2 7.5.62 2.2-1.53 3.8-3.1 5.63-4.37.43-1.97.83-4.9 1.25-6.87-.67 2.02-1.14 5.27-1.25 8.13.24 3.12 1.27 4.48 2.5 6.87" transform="matrix(-.1 0 0 .1 123 20.4)" stroke-width="1.75" fill="none"/><path d="M389.38 681.73l.63-.63c-1.48 1.5-.87.78 2.5-1.25 2.43-1.24 5.02-1.9 8.13-2.5h8.75c3.4 0 5.7.52 8.13 1.25 1.77 1.77 4.4 2.77 6.25 4.38 1.9 1.3 2.73 2.83 3.75 5 1.7 1.7 2.8 4.33 4.38 5.63.7 2.88 2.14 2.78 3.13 5-2.94.23-5.3.64-6.87 2.5-2.6 1.35 2.18-1.3 3.13-2.5 2.04-.6 2.57-1.25 5.62-1.25 2.85-.9 4.58.74 7.5 1.25 1.7 1 2.18 1.25 4.38 1.25" transform="matrix(-.1 0 0 .1 124.9 19.7)" stroke-width="1.75" fill="none"/><path d="M438.13 724.86c1.27.07 7.08 1.15 9.38 0 2.56-.7 4.07-2.04 5.63-4.38.77-1.68 0 3 0 5 .28 3.68 1.37 3.72 3.13 6.25 1.8 1.17 3.72 2.8 5.62 3.75 1.58 1.37 3.5 2.28 5.63 3.13 1.9.9 4.12 1.82 5.63 3.13 2.1 1.5 1.9 3.28 3.13 5.63-.24 3.06-.74 4.8-2.5 6.25-.74 2.12-2.4 4.2-3.75 5.63-1.54 2.87-3.25 4.23.63 5 2.13.92 3.33.2 5.63 0" transform="matrix(-.1 0 0 .1 127 18.2)" stroke-width="1.75" fill="none"/><path d="M480.63 771.73c1.54-.4 6.98-2.2 9.38-3.13h8.75c3.4.27 4.04 1.26 6.88 2.5 1.83 1.88 3.1 3.17 5.63 4.38 1.34 1.73 3.95 4.68 5 6.88.74 2.13 1.25 5 1.25 8.12-.04 3.65-1 4.27-1.24 7.5-.7 2.68-1.84 5.14-3.75 7.5-.26.8-.45 1-1.24 1.25" transform="matrix(-.1 0 0 .1 127.4 17.8)" stroke-width="1.75" fill="none"/><path d="M538.13 817.98c.37 0 1.2 2.02 2.5 3.75 2.83 2.9 3.2 3.13 7.5 3.13 3.88-.15 3.52-1.54 6.25-2.5 1.3-2 2.9-3.6 4.38-6.25 1-1.63 1.9-4.12 3.12-5.62 1.14-1.85 2.56-3.25 3.75-5 1.17-.5 1.62-.98 3.13-1.25-3.6.58-3.92 1.87-6.26 3.75-1.1 1.78-2.18 3.63-3.12 5.63-.36 2.68-1.2 4.78-1.25 8.13 0 3.46.02 5.87 1.25 8.75 1.47 1.54 2.56 3.14 4.38 4.38 1.43 1.4 3.24 3.33 4.37 5 1.96 1.2 3.4 2.18 5.63 3.75 1.88 1.1 3.9 2.24 6.87 2.5 3.67-.26 4.76-1.3 7.5-2.5 2.33-1.7 4.16-2.83 6.25-4.37 1.63-1.14 3.3-3.4 4.38-5 3.38-.85 5.52-.5 7.5 1.25 1.7 1.17 3.2 2.66 4.37 4.38 1.02.5 2.73 2 3.75 2.5" transform="matrix(-.1 0 0 .1 109.5 38.8)" stroke-width="2.34" fill="none"/><path d="M503.76 836.1c-.8.34-3.72 2.38-5 3.13-.8 2.64-2.08 4.07-2.5 6.88-.68 2.72-.63 5.7-.63 8.76.7 3.2 2.02 5.56 3.13 8.13 1.97 1.33 2.97 2.32 5.63 3.74 2.48.33 4.93.62 8.1.62 1.9.64 5.63.94 7.5 0 2.8-.38 4.86-1.5 6.9-2.5 2.3-1.3 3.7-2.54 6.24-3.75 1.22-1.8 3.13-3.45 5-5.62 1.55-2.1 2.7-3.28 3.75-5.62-.94 2.67-2.34 5-3.14 7.5-1.42 2.66-2.25 3.6-2.5 6.88-.87 2.6-.62 5.76-.62 8.75.27 2.02.4 5.82 1.25 7.5v1.86" transform="matrix(-.1 0 0 .1 111.4 19.3)" stroke-width="1.88" fill="none"/><path d="M37.05 146.45v.12c0-.34 0-.16.12.5.24.3.8.37 1.25.25.4-.33.4-.6 1.13-.75.7.05.98.26 1.37.5.47.24.7.36 1 .88.16.42.24.7-.25.87-.4.28-.85.43-1.37.5-.58 0-1-.07-1.25.25-.4.4-.38.66-.38 1.38-.13.22-.16.87-.25 1.12-.34.17-.55.25-1.12.25-.14-.4-.3-1.08-.38-1.5-.1-.45-.12-1.07-.37-1.37-.24-.35-.53-.65-.88-.88-.15-.2-.44-.4-.75-.5.5.25.56.52.63 1.13-.43.2-.55.36-1.25.37-.7-.06-.86-.23-1.13-.62-.05.62-.25.83-.37 1.37-.26.38-.37.77-.63 1.25.1.6.35.63.38 1.38.16.48.14.95.5 1.25.16.2.27.23.62.25-.72 0-1.14-.08-1.62-.38-.37-.23-.65-.5-1-.75-.44-.32-1-.62-1.5-.75-.58 0-1-.07-1.25.25-.36.25-.6.7-.75 1.25-.12.65-.16 1.08.12 1.5.2.48.26.67 0 1.25-.3.4-.72.46-1.37.63-.48-.03-.94-.14-1.25-.25" stroke-width=".246" fill="none"/><g fill-rule="evenodd" stroke-width="1.31" transform="matrix(-.2 0 0 .2 145.3 -13.4)"><path d="M531.5 359.64c0-165.27 7.94-299.4 17.72-299.4 9.78 0 17.7 134.12 17.7 299.4H531.5z" transform="matrix(1.4 -.7 .5 .9 -716.8 541.1)" fill="#fff"/><path d="M531.5 359.64c0-165.27 7.94-299.4 17.72-299.4 9.78 0 17.7 134.12 17.7 299.4" transform="matrix(1.1 -.6 .4 .9 -554.8 471.8)" fill="#fff"/><path d="M563.4 301.18c.18 18.9 0 40.2 0 60.24h-28.36c0-20.05-.2-41.33 0-60.24h28.35z" transform="matrix(1.4 -.7 .5 .9 -716.7 541.4)" fill="#fff"/><path d="M559.84 304.72c.2 18.9 0 33.1 0 53.15h-21.26c0-20.05-.2-34.24 0-53.15h21.26z" transform="matrix(1.4 -.7 .5 .9 -716.7 541.4)" fill="#fff"/><path transform="matrix(1.4 -.7 .5 .9 -716.7 541.4)" fill="#fff" d="M542.13 311.8h14.17v39h-14.17zM542.13 311.8l14.17 39M542.13 350.8l14.17-39M542.13 113.4h14.17"/><ellipse fill="#ef0000" transform="matrix(1.6 .5 -.4 1.6 -734.9 -170.8)" cx="545.67" rx="3.54" cy="92.13" ry="3.54"/></g><g><path d="M538.58 531.5c1.72 166.56 24.8 201.97 3.54 201.97s-31.9-92.07-31.9-205.5 14.2-205.52 35.45-205.52-8.92 31.9-7.1 209.06z" fill-rule="evenodd" transform="matrix(.3 -.1 .2 .2 -181.5 60.8)" stroke-width="1.31" fill="#fff"/><path d="M128.23 141.8l-12.04 3.55c11.33 12.05 24.08 17 27.62 14.88 3.55-2.12-6.37-7.1-15.6-18.42z" fill-rule="evenodd" stroke-width=".246" fill="#fff"/><path d="M547.27 786.9l-50.93 14.74c56.7 60.24 112.77 77.39 127.28 70.02 14.6-7.37-30.28-28.07-76.35-84.76z" fill-rule="evenodd" transform="matrix(.2 0 0 .2 21.6 -8.8)" stroke-width="1.27" fill="#fff"/><path d="M353.13 634.23c.2 1.27.75 7.07 1.25 9.38 0 3.2.3 5.64.63 8.13.8 2.18.67 4.2 3.13 5 1.7 2.63 2.76 3.3 5 4.38 1.53 1.33 3.84 2.65 6.25 3.76 2.5 1.07 4.77 1.2 7.5.62 2.2-1.53 3.8-3.1 5.63-4.37.43-1.97.83-4.9 1.25-6.87-.67 2.02-1.14 5.27-1.25 8.13.24 3.12 1.27 4.48 2.5 6.87" transform="matrix(.1 0 0 .1 41.4 19.7)" stroke-width="1.75" fill="none"/><path d="M389.38 681.73l.63-.63c-1.48 1.5-.87.78 2.5-1.25 2.43-1.24 5.02-1.9 8.13-2.5h8.75c3.4 0 5.7.52 8.13 1.25 1.77 1.77 4.4 2.77 6.25 4.38 1.9 1.3 2.73 2.83 3.75 5 1.7 1.7 2.8 4.33 4.38 5.63.7 2.88 2.14 2.78 3.13 5-2.94.23-5.3.64-6.87 2.5-2.6 1.35 2.18-1.3 3.13-2.5 2.04-.6 2.57-1.25 5.62-1.25 2.85-.9 4.58.74 7.5 1.25 1.7 1 2.18 1.25 4.38 1.25" transform="matrix(.1 0 0 .1 39.5 19)" stroke-width="1.75" fill="none"/><path d="M438.13 724.86c1.27.07 7.08 1.15 9.38 0 2.56-.7 4.07-2.04 5.63-4.38.77-1.68 0 3 0 5 .28 3.68 1.37 3.72 3.13 6.25 1.8 1.17 3.72 2.8 5.62 3.75 1.58 1.37 3.5 2.28 5.63 3.13 1.9.9 4.12 1.82 5.63 3.13 2.1 1.5 1.9 3.28 3.13 5.63-.24 3.06-.74 4.8-2.5 6.25-.74 2.12-2.4 4.2-3.75 5.63-1.54 2.87-3.25 4.23.63 5 2.13.92 3.33.2 5.63 0" transform="matrix(.1 0 0 .1 37.4 17.6)" stroke-width="1.75" fill="none"/><path d="M480.63 771.73c1.54-.4 6.98-2.2 9.38-3.13h8.75c3.4.27 4.04 1.26 6.88 2.5 1.83 1.88 3.1 3.17 5.63 4.38 1.34 1.73 3.95 4.68 5 6.88.74 2.13 1.25 5 1.25 8.12-.04 3.65-1 4.27-1.24 7.5-.7 2.68-1.84 5.14-3.75 7.5-.26.8-.45 1-1.24 1.25" transform="matrix(.1 0 0 .1 37 17.2)" stroke-width="1.75" fill="none"/><path d="M538.13 817.98c.37 0 1.2 2.02 2.5 3.75 2.83 2.9 3.2 3.13 7.5 3.13 3.88-.15 3.52-1.54 6.25-2.5 1.3-2 2.9-3.6 4.38-6.25 1-1.63 1.9-4.12 3.12-5.62 1.14-1.85 2.56-3.25 3.75-5 1.17-.5 1.62-.98 3.13-1.25-3.6.58-3.92 1.87-6.26 3.75-1.1 1.78-2.18 3.63-3.12 5.63-.36 2.68-1.2 4.78-1.25 8.13 0 3.46.02 5.87 1.25 8.75 1.47 1.54 2.56 3.14 4.38 4.38 1.43 1.4 3.24 3.33 4.37 5 1.96 1.2 3.4 2.18 5.63 3.75 1.88 1.1 3.9 2.24 6.87 2.5 3.67-.26 4.76-1.3 7.5-2.5 2.33-1.7 4.16-2.83 6.25-4.37 1.63-1.14 3.3-3.4 4.38-5 3.38-.85 5.52-.5 7.5 1.25 1.7 1.17 3.2 2.66 4.37 4.38 1.02.5 2.73 2 3.75 2.5" transform="matrix(.1 0 0 .1 54.9 38.2)" stroke-width="2.34" fill="none"/><path d="M503.76 836.1c-.8.34-3.72 2.38-5 3.13-.8 2.64-2.08 4.07-2.5 6.88-.68 2.72-.63 5.7-.63 8.76.7 3.2 2.02 5.56 3.13 8.13 1.97 1.33 2.97 2.32 5.63 3.74 2.48.33 4.93.62 8.1.62 1.9.64 5.63.94 7.5 0 2.8-.38 4.86-1.5 6.9-2.5 2.3-1.3 3.7-2.54 6.24-3.75 1.22-1.8 3.13-3.45 5-5.62 1.55-2.1 2.7-3.28 3.75-5.62-.94 2.67-2.34 5-3.14 7.5-1.42 2.66-2.25 3.6-2.5 6.88-.87 2.6-.62 5.76-.62 8.75.27 2.02.4 5.82 1.25 7.5v1.86" transform="matrix(.1 0 0 .1 53 18.6)" stroke-width="1.88" fill="none"/><path d="M127.35 145.75v.12c0-.34 0-.16-.12.5-.24.3-.8.37-1.25.25-.4-.33-.4-.6-1.13-.75-.7.05-.98.26-1.37.5-.47.24-.7.36-1 .88-.16.42-.24.7.25.87.4.28.85.43 1.37.5.58 0 1-.07 1.25.25.4.4.38.66.38 1.38.13.22.16.87.25 1.12.34.17.55.25 1.12.25.14-.4.3-1.08.38-1.5.1-.45.12-1.07.37-1.37.24-.35.53-.65.88-.88.15-.2.44-.4.75-.5-.5.25-.56.52-.63 1.13.43.2.55.36 1.25.37.7-.06.86-.23 1.13-.62.05.62.25.83.37 1.37.26.38.37.77.63 1.25-.1.6-.35.63-.38 1.38-.16.48-.14.95-.5 1.25-.16.2-.27.23-.62.25.72 0 1.14-.08 1.62-.38.37-.23.65-.5 1-.75.44-.32 1-.62 1.5-.75.58 0 1-.07 1.25.25.36.25.6.7.75 1.25.12.65.16 1.08-.12 1.5-.2.48-.26.67 0 1.25.3.4.72.46 1.37.63.48-.03.94-.14 1.25-.25" stroke-width=".246" fill="none"/></g><g stroke-width="1.31" fill-rule="evenodd" transform="matrix(.2 0 0 .2 19.1 -14.1)"><path d="M531.5 359.64c0-165.27 7.94-299.4 17.72-299.4 9.78 0 17.7 134.12 17.7 299.4H531.5z" transform="matrix(1.4 -.7 .5 .9 -716.8 541.1)" fill="#fff"/><path d="M531.5 359.64c0-165.27 7.94-299.4 17.72-299.4 9.78 0 17.7 134.12 17.7 299.4" transform="matrix(1.1 -.6 .4 .9 -554.8 471.8)" fill="#fff"/><path d="M563.4 301.18c.18 18.9 0 40.2 0 60.24h-28.36c0-20.05-.2-41.33 0-60.24h28.35z" transform="matrix(1.4 -.7 .5 .9 -716.7 541.4)" fill="#fff"/><path d="M559.84 304.72c.2 18.9 0 33.1 0 53.15h-21.26c0-20.05-.2-34.24 0-53.15h21.26z" transform="matrix(1.4 -.7 .5 .9 -716.7 541.4)" fill="#fff"/><path transform="matrix(1.4 -.7 .5 .9 -716.7 541.4)" fill="#fff" d="M542.13 311.8h14.17v39h-14.17zM542.13 311.8l14.17 39M542.13 350.8l14.17-39M542.13 113.4h14.17"/><ellipse fill="#ef0000" transform="matrix(1.6 .5 -.4 1.6 -734.9 -170.8)" cx="545.67" rx="3.54" cy="92.13" ry="3.54"/></g><g fill-rule="evenodd" fill="#fff" transform="matrix(.2 0 0 .2 19.1 -14.1)"><path d="M305.6 396.85c0 124.02.5 170.76-5.6 177.17-5.8 6.86-167.13 0-167.13 35.43s132.87 70.87 172.74 70.87c53.16 0 79.73-35.43 79.73-106.3V396.85H305.6z" transform="matrix(1.3 0 0 1 -141.7 0)" stroke-width="1.31"/><path d="M265.75 396.85v17.72c35.43 5.9 70.87 5.9 106.3 0v-17.72c-35.43 5.9-70.87 5.9-106.3 0z" transform="translate(0 35.4)" stroke-width="1.31"/><path d="M265.75 396.85v17.72c35.43 5.9 70.87 5.9 106.3 0v-17.72c-35.43 5.9-70.87 5.9-106.3 0z" stroke-width="1.31"/><path d="M265.75 396.85v17.72c35.43 5.9 70.87 5.9 106.3 0v-17.72c-35.43 5.9-70.87 5.9-106.3 0z" transform="translate(0 17.7)" stroke-width="1.31"/><path d="M265.75 396.85v17.72c35.43 5.9 70.87 5.9 106.3 0v-17.72c-35.43 5.9-70.87 5.9-106.3 0z" transform="translate(0 53.1)" stroke-width="1.31"/><ellipse transform="matrix(.5 0 0 .1 130.5 394.3)" cx="256.89" rx="8.86" cy="210.83" ry="26.57" stroke-width="4.39"/><ellipse transform="matrix(.5 0 0 .1 130.5 391.1)" cx="292.32" rx="8.86" cy="246.26" ry="26.57" stroke-width="4.39"/><ellipse transform="matrix(.5 0 0 .1 130.5 390.5)" cx="327.76" rx="8.86" cy="263.98" ry="26.57" stroke-width="4.39"/><ellipse transform="matrix(.5 0 0 .1 130.5 390.5)" cx="363.19" rx="8.86" cy="263.98" ry="26.57" stroke-width="4.39"/><ellipse transform="matrix(.5 0 0 .1 130.5 391.1)" cx="398.62" rx="8.86" cy="246.26" ry="26.57" stroke-width="4.39"/><ellipse transform="matrix(.5 0 0 .1 130.5 394.3)" cx="434.06" rx="8.86" cy="210.83" ry="26.57" stroke-width="4.39"/><path d="M265.75 485.43l106.3 95.67M276.38 485.43l95.67 85.04M290.55 488.98l81.5 70.87M301.18 488.98l70.87 60.24M311.8 488.98l60.25 49.6M322.44 488.98l49.6 38.98M333.07 488.98l38.98 28.35M343.7 488.98l28.35 21.26M354.33 488.98l17.72 14.17M364.96 488.98l7.1 7.1M265.75 496.06l106.3 95.67M372.05 485.43l-116.93 106.3M361.42 485.43l-102.76 92.13M347.25 488.98l-81.5 70.87M336.62 488.98l-70.87 60.24M326 488.98l-60.25 49.6M315.36 488.98l-49.6 38.98M304.73 488.98l-38.98 28.35M294.1 488.98l-28.35 21.26M283.47 488.98l-17.72 14.17M272.84 488.98l-7.1 7.1M372.05 496.06l-116.93 106.3M372.05 506.7L255.12 613M372.05 517.32l-116.93 106.3M372.05 527.95l-116.93 106.3M372.05 538.58l-116.93 106.3M372.05 549.2L255.12 655.5M372.05 559.84l-116.93 106.3M372.05 570.47l-116.93 106.3M372.05 581.1L262.2 680.3M372.05 591.73l-99.2 88.58M368.5 605.9l-77.95 70.87M364.96 620.08l-63.78 56.7M357.87 637.8l-31.9 28.34M265.75 506.7L368.5 598.8M265.75 517.33l102.76 92.12M265.75 527.96l99.2 88.58M265.75 538.6l99.2 88.57M265.75 549.2l95.67 85.05M262.2 556.3l95.67 85.04M262.2 566.93l88.6 77.96M258.66 574l88.6 77.97M255.1 581.1l85.05 74.4M255.1 591.73l81.5 70.86M255.1 602.36L326 666.14" stroke-width="1.31"/><path d="M265.75 396.85v17.72c35.43 5.9 70.87 5.9 106.3 0v-17.72c-35.43 5.9-70.87 5.9-106.3 0z" transform="translate(0 70.9)" stroke-width="1.31"/><path d="M255.1 613l63.8 56.68M255.1 623.62l56.7 49.6M255.1 634.25l49.62 42.52M255.1 644.88l35.45 31.9M255.1 655.5l28.36 24.8M255.1 666.14l17.73 14.17" stroke-width="1.31"/><ellipse transform="matrix(.5 0 0 .1 130.5 447.5)" cx="256.89" rx="8.86" cy="210.83" ry="26.57" stroke-width="4.39"/><ellipse transform="matrix(.5 0 0 .1 130.5 444.3)" cx="292.32" rx="8.86" cy="246.26" ry="26.57" stroke-width="4.39"/><ellipse transform="matrix(.5 0 0 .1 130.5 443.6)" cx="327.76" rx="8.86" cy="263.98" ry="26.57" stroke-width="4.39"/><ellipse transform="matrix(.5 0 0 .1 130.5 443.6)" cx="363.19" rx="8.86" cy="263.98" ry="26.57" stroke-width="4.39"/><ellipse transform="matrix(.5 0 0 .1 130.5 444.3)" cx="398.62" rx="8.86" cy="246.26" ry="26.57" stroke-width="4.39"/><ellipse transform="matrix(.5 0 0 .1 130.5 447.5)" cx="434.06" rx="8.86" cy="210.83" ry="26.57" stroke-width="4.39"/><path d="M113.4 651.97l127.54-74.4M106.3 648.43l120.47-70.87M102.76 641.34l109.84-63.78M99.22 634.25l95.67-56.7M92.13 627.16l88.58-49.6M95.67 616.54l60.23-35.44M92.13 609.45l46.06-28.34M92.12 598.82l31.9-17.72M124 655.5l120.48-70.85M134.65 659.05l113.38-67.32M145.28 662.6l106.3-63.78M155.9 666.14L244.5 613M170.08 666.14l77.95-46.07M180.7 669.68l67.34-38.98M191.34 673.23l53.15-31.9M205.5 673.23l42.53-24.8M219.68 676.78l28.35-17.72M233.86 676.77l17.72-10.63" stroke-width="1.31"/><path d="M265.75 396.85v17.72c35.43 5.9 70.87 5.9 106.3 0v-17.72c-35.43 5.9-70.87 5.9-106.3 0z" transform="rotate(90 173.6 481.9)" stroke-width="1.31"/><path d="M49.6 623.62l42.53-35.43M49.6 598.8l42.53 42.52" stroke-width="1.31"/><path d="M260.15 388l5.6 26.57c35.43 5.9 65.27 5.9 100.7 0l11.2-26.58c-35.45 5.9-82.07 5.9-117.5 0z" transform="matrix(0 .6 -.8 0 423.8 416.3)" stroke-width="1.31"/><path d="M258.66 350.8v-17.87c-10.63.14-17.72-10.5-17.72-21.26l-35.43.14c0 10.64-7.08 21.27-17.7 21.27v17.72h70.86z" transform="matrix(1.5 0 0 1 -15.6 53.1)" stroke-width="1.31"/><path stroke-width="1.36" d="M296.1 343.7h45.5v21.26h-45.5zM299.88 322.44h37.92v21.26h-37.92zM299.88 301.18h37.92v21.26h-37.92zM303.67 272.83H334v28.35h-30.33z"/><path stroke-width="1.41" d="M302.36 248.03h32.95v24.8h-32.94z"/><ellipse transform="translate(75.3 63.8)" cx="237.4" rx="42.52" cy="161.22" ry="33.66" stroke-width="1.31"/><path d="M258.66 159.45c0 9.3 10.63 24.8 10.63 24.8-7.7 6.1-20.16 10.63-31.9 10.63s-26.35-2.53-31.9-10.63c0 0 10.64-15.5 10.64-24.8S205.5 138.2 205.5 138.2c7.7-6.1 20.17-10.64 31.9-10.64 11.74 0 24.2 4.54 31.9 10.63 0 0-10.64 11.96-10.64 21.25z" transform="translate(75.3 63.8)" stroke-width="1.31"/><path d="M251.58 159.45c0 9.3 10.63 28.35 10.63 28.35-7.7 6.1-13.06 7.08-24.8 7.08s-19.25 1.02-24.8-7.08c0 0 10.63-19.06 10.63-28.35s-10.63-24.8-10.63-24.8c7.7-6.1 13.07-7.1 24.8-7.1 11.74 0 17.1 1 24.8 7.1 0 0-10.62 15.5-10.62 24.8z" transform="translate(75.3 63.8)" stroke-width="1.31"/><ellipse transform="translate(75.3 60.2)" cx="194.88" rx="10.63" cy="166.54" ry="10.63" stroke-width="1.31"/><ellipse transform="translate(163.2 60.2)" cx="194.88" rx="10.63" cy="166.54" ry="10.63" stroke-width="1.31"/><ellipse transform="translate(119.3 60.2)" cx="194.88" rx="10.63" cy="166.54" ry="10.63" stroke-width="1.31"/><ellipse transform="translate(119.3 24.8)" cx="194.88" rx="10.63" cy="166.54" ry="10.63" stroke-width="1.31"/><ellipse transform="matrix(1.1 0 0 1 79.9 226.8)" cx="194.88" rx="10.63" cy="166.54" ry="10.63" stroke-width="1.31"/><ellipse transform="matrix(1.1 0 0 1 140.6 226.8)" cx="194.88" rx="10.63" cy="166.54" ry="10.63" stroke-width="1.31"/><path d="M212.6 311.8h49.6l-24.8 31.9-24.8-31.9z" transform="matrix(1.1 0 0 1 64.8 53.1)" stroke-width="1.31"/><ellipse transform="matrix(1.4 0 0 1.3 40.7 167.7)" cx="194.88" rx="10.63" cy="166.54" ry="10.63" stroke-width="1.31"/></g><g fill-rule="evenodd" transform="matrix(.2 0 0 .2 18.8 -19.1)" fill="#fff"><rect rx="4.35" ry="3.69" height="21.26" width="81.5" y="524.41" x="262.2" stroke-width="1.23"/><path d="M368.5 506.7c-9.8 0-17.7 8.25-17.7 18.5v16.12c0 10.26 7.9 18.52 17.7 18.52 9.82 0 17.73-8.26 17.73-18.52v-16.1c0-10.27-7.9-18.53-17.72-18.53zm0 7.08c-5.88 0-10.62 6.6-10.62 14.8v9.36c0 8.2 4.74 14.8 10.63 14.8 5.9 0 10.64-6.6 10.64-14.8v-9.35c0-8.2-4.74-14.82-10.63-14.82zM276.38 510.24c-5.9 0-10.63 6.6-10.63 14.82v16.43c0 8.2 4.74 14.8 10.63 14.8 5.9 0 10.63-6.6 10.63-14.8v-16.44c0-8.2-4.73-14.82-10.62-14.82zm0-7.1c-9.8 0-17.72 8.27-17.72 18.53v23.2c0 10.26 7.9 18.52 17.72 18.52 9.8 0 17.72-8.27 17.72-18.53v-23.2c0-10.26-7.9-18.52-17.72-18.52z" stroke-width="1.23"/><path d="M248.03 517.32c-5.9 0-10.63 6.6-10.63 14.82V536c0 8.2 4.74 14.82 10.63 14.82 5.9 0 10.63-6.6 10.63-14.82v-3.86c0-8.2-4.74-14.82-10.63-14.82zm0-7.1c-9.8 0-17.72 8.27-17.72 18.53v10.63c0 10.26 7.92 18.52 17.73 18.52 9.8 0 17.72-8.26 17.72-18.52v-10.63c0-10.26-7.9-18.52-17.72-18.52z" stroke-width="1.23"/><path d="M478.35 237.4c-5.9 0-10.63 6.6-10.63 14.82v16.43c0 8.2 4.74 14.8 10.63 14.8 5.9 0 10.63-6.6 10.63-14.8v-16.43c0-8.2-4.74-14.82-10.63-14.82zm0-7.1c-9.8 0-17.72 8.27-17.72 18.53v23.2c0 10.26 7.9 18.52 17.72 18.52 9.8 0 17.72-8.26 17.72-18.52v-23.2c0-10.26-7.9-18.52-17.72-18.52z" transform="matrix(1.8 0 0 1.1 -655.5 242.2)" stroke-width=".87"/><path d="M478.35 237.4c-5.9 0-10.63 6.6-10.63 14.82v16.43c0 8.2 4.74 14.8 10.63 14.8 5.9 0 10.63-6.6 10.63-14.8v-16.43c0-8.2-4.74-14.82-10.63-14.82zm0-7.1c-9.8 0-17.72 8.27-17.72 18.53v23.2c0 10.26 7.9 18.52 17.72 18.52 9.8 0 17.72-8.26 17.72-18.52v-23.2c0-10.26-7.9-18.52-17.72-18.52z" transform="matrix(1.8 0 0 1.1 -425.2 245.7)" stroke-width=".87"/><rect rx="2.27" ry="3.69" height="21.26" width="42.52" y="524.41" x="375.59" stroke-width="1.23"/><rect rx="1.32" ry="4.92" height="28.35" width="24.8" y="520.87" x="336.61" stroke-width="1.23"/><rect rx="1.32" ry="4.92" height="28.35" width="24.8" y="520.87" x="219.69" stroke-width="1.23"/><rect rx="2.65" ry="6.15" height="35.43" width="49.61" y="517.32" x="141.73" stroke-width="1.23"/><rect rx="2.46" ry="6.15" height="35.43" width="46.06" y="520.87" x="450" stroke-width="1.23"/></g></g></g></svg>