<svg xmlns="http://www.w3.org/2000/svg" height="480" width="640"><defs><clipPath id="a"><path fill-opacity=".67" d="M0 0h640v480H0z"/></clipPath></defs><g clip-path="url(#a)"><path fill="#fff" d="M0 0h640v480H0z"/><path fill="#fff" d="M80 0h480v480H80z"/><path d="M277.28 340.75s10.84-8.8 21.4-8.8 13.46 7.34 20.8 7.92c7.3.6 13.46-7.32 22.54-7.62 9.1-.3 20.5 6.45 20.5 6.45l-39.83 12-45.42-9.95zM254.43 327.86l135.35.6s-11.72-12.6-25.5-12.9c-13.76-.3-9.95 5.86-20.5 6.73-10.54.87-13.18-6.45-22.85-6.16-9.66.3-15.23 6.15-22.55 6.45-7.33.28-16.7-7.34-22.27-7.04-5.56.3-25.48 8.78-25.48 8.78l3.8 3.52zM237.15 311.75l167 .6c2.63-3.82-8.2-12.9-18.17-13.78-8.2.3-14.07 8.5-20.8 8.8-6.74.28-14.36-8.5-21.98-8.22-7.6.3-15.52 8.2-23.14 8.2-7.62 0-13.18-8.5-22.85-8.5-9.66 0-14.05 9.38-21.38 8.8-7.32-.6-13.77-9.37-20.8-9.37-7.03 0-18.75 10.54-21.1 9.95-2.33-.58 2.94 4.4 3.23 3.52z" fill-rule="evenodd" stroke="#083d9c" stroke-width="2pt" fill="#083d9c"/><path stroke-linejoin="round" d="M301.3 218.88l38.38 10.26v-54.8c-17.58.9-32.23-33.4-1.17-35.73-30.46-4.4-33.98 3.52-37.5 12.02l.3 68.26z" fill-rule="evenodd" stroke="#000" stroke-width="2.5" fill="red"/><path d="M277 258.72l86.7.3" fill-rule="evenodd" stroke="#083d9c" stroke-linecap="round" stroke-width="5" fill="#083d9c"/><g stroke="#000" stroke-linecap="round" stroke-width="2.13" fill="none"><path d="M281.1 237.92l10.25 13.77M281.1 251.7l11.13-13.48M286.96 237.04l-.3 8.5" stroke-width="3.99375"/></g><g stroke="#000" stroke-linecap="round" stroke-width="2.13" fill="none"><path d="M297.5 237.92l10.25 13.77M297.5 251.7l11.13-13.48M303.37 237.04l-.3 8.5" stroke-width="3.99375"/></g><g stroke="#000" stroke-linecap="round" stroke-width="2.13" fill="none"><path d="M314.2 237.92l10.25 13.77M314.2 251.7l11.13-13.48M320.07 237.04l-.3 8.5" stroke-width="3.99375"/></g><g stroke="#000" stroke-linecap="round" stroke-width="2.13" fill="none"><path d="M331.48 237.92l10.26 13.77M331.48 251.7l11.14-13.48M337.35 237.04l-.3 8.5" stroke-width="3.99375"/></g><g stroke="#000" stroke-linecap="round" stroke-width="2.13" fill="none"><path d="M348.18 237.92l10.26 13.77M348.18 251.7l11.14-13.48M354.05 237.04l-.3 8.5" stroke-width="3.99375"/></g><path d="M218.7 259.6l36.9.3v-23.15l-42.18-2.05 5.27 24.9zM216.93 227.67l39.26 3.8-.3-16.4-38.38-15.23-.6 27.83zM224.84 194.86l30.18 14.65 4.3-4.5s-2.77-1.9-2.63-3.66c.04-1.78 2.78-2.05 2.83-3.98.05-1.78-3.1-2-3.14-3.78-.2-1.93 2.42-4 2.42-4l-27.24-23.72-6.74 29zM422.88 259.9h-38.96l-.3-22.57 42.78-3.22-3.52 25.8zM384.2 232.06l46.3-5.56-9.96-26.66-36.62 15.52.3 16.7zM417.9 192.5l-33.4 17.6c-.5-1.92-.9-3.75-3.22-5.3 0 0 2.05-1.16 2.05-3.2 0-2.06-2.64-2.35-2.64-3.52s2.4-2.2 2.56-4.84c-.3-1.83-2.57-4.4-2.13-4.9l25.93-19.85 10.84 24zM345.54 231.62l16.7-.73.3-6.75-17 7.47zM294.57 231.1l-17.58-.5v-7.03l17.57 7.54zM294.5 229.06l-17.5-9v-11.73s-2.07.3-1.77-2.05c.1-4.88 12.86 8.9 19.4 13.4l-.14 9.38zM345.54 227.96l-.07-7.62s15.82-14.28 19.2-16.92c0 2.93-1.84 5.2-1.84 5.2v11.14l-17.3 8.2zM243 163.8c.3.3 17.75 19.7 17.75 19.7.5-1.84 4.5-2.12 8.62-1.83 4.1.3 7.37-.27 7.37 2.66s-2.08 2.5-2.08 4.56 3.12 1.87 3.12 4.5c0 2.64-2.27 2.1-2.28 4.14 0 1.7 2.36 1.78 2.36 1.78l16.63 16.12.06-17.22-34.28-53.76L243 163.8zM270.43 143.45c.26.78 23.22 47.48 23.22 47.48s.26-43.83 4.17-46.18l-6.52-12-20.87 10.7zM371.38 145.27l-25.92 46.24.03-19.48s2.14-3.27-1.25-3c-3.4.25-7.56-.27-7.56-.27l10.42-36.52 24.26 13.04zM398 165.1c-.27.52-17.5 18.04-17.5 18.04-.78-2.1-6-1.08-10.94-1.08-4.96 0-5.65 1.58-5.4 2.9.53 3.38 2.2.88 2.2 4 0 3.14-2.4 2-2.62 4.3.24 2.62 3.78 1.97 1.7 3.97l-19.94 19.15.06-18.15 37.04-57.65L398 165.1z" fill-rule="evenodd" fill="#ef7d08"/><path stroke-linejoin="round" d="M309.82 268.4c-8.35 13.83-30.66 9.73-35.88.07-1.57-.44-.64-59.55-.64-59.55s-2.5-1.13-2.6-2.95c-.12-1.84 3.38-2 3.38-4.35 0-2.35-3.58-1.43-3.65-3.8.02-2.25 3.82-1.94 3.65-4.03-.2-2.36-4.26-2-4.43-4.18-.14-1.73 2.9-3.23 3.75-4-.55.02-2.83-.04-2.84-.05l-6.4.14c-4.53 0 .1 1 .02 3.62-.04 1.7-2.3 2.85-2.5 4.33-.08 1.53 3.23 2.6 3.27 4.44.04 1.63-3.25 1.74-3.13 3.26.2 2.57 2.9 3.14 2.87 4.7-.05 1.55-3.65 2.14-3.66 3.38.12 2.4.52 60.8.52 60.8 5.74 29.72 38.87 37.3 48.26-1.84zM331.66 268.4c8.35 13.83 30.66 9.73 35.88.07 1.56-.44.64-59.55.64-59.55s2.5-1.13 2.6-2.95c.12-1.84-3.16-2-3.16-4.35 0-2.35 3.36-1.43 3.43-3.8-.02-2.25-3.53-2.1-3.36-4.18.2-2.35 2.95-2.07 3.1-4.24.14-1.87-1.73-3-2.57-3.78.55.02 2.67-.04 2.7-.05l6.38.14c4.55 0-.07 1 0 3.62.04 1.7 2.3 2.85 2.5 4.33.08 1.53-3.23 2.6-3.27 4.44-.04 1.63 3.25 1.74 3.13 3.26-.2 2.57-2.9 3.14-2.87 4.7.03 1.55 3.63 2.14 3.64 3.38-.12 2.4-.52 60.78-.52 60.78-5.74 29.74-38.87 37.3-48.26-1.82z" fill-rule="evenodd" stroke="#000" stroke-width="2.5" fill="red"/><path d="M301.7 295.6l37.3-.03c.28-.3-8.36-12.88-18.65-12-11.46.3-19.24 12.02-18.64 12.02zM420.57 294.68h-51s6.6-3.9 8.4-7.5c3.3 1.8 2.4 3.6 9 3.9 6.6.3 12.9-7.5 19.2-7.2 6.3.3 14.4 11.1 14.4 10.8zM219.57 294.68h51s-6.6-3.9-8.4-7.5c-3.3 1.8-2.4 3.6-9 3.9-6.6.3-12.9-7.5-19.2-7.2-6.3.3-14.4 11.1-14.4 10.8zM223.38 278.64l36.33.3s-2.34-5-2.63-11.14c-9.38-3.22-17 7.03-23.73 7.33-6.74.3-13.77-7.33-13.77-7.33l3.8 10.84zM417.32 278.64l-36.33.3s2.34-5 2.63-11.14c9.37-3.22 17 7.03 23.73 7.33 6.74.3 13.77-7.33 13.77-7.33l-3.8 10.84zM310.97 278.94l18.45-.58s.3-5.57-9.37-5.57-8.8 6.43-9.08 6.14zM299.84 271.03c3.22-1.76 6.15-3.52 8.2-7.62l-12.6.3s-5.85 3.52-8.78 7.33h13.18zM340.56 271.03c-3.22-1.76-6.15-3.52-8.2-7.62l12.6.3s5.85 3.52 8.78 7.33h-13.18z" fill-rule="evenodd" stroke="#083d9c" stroke-width="2pt" fill="#083d9c"/><path fill-rule="evenodd" fill="#de2010" d="M-40 360h720v120H-40zM-40 0h720v120H-40z"/></g></svg>