<svg xmlns="http://www.w3.org/2000/svg" height="480" width="640"><g fill-rule="evenodd"><path d="M1.64 0l-.5 479.98h640L1.63 0z"/><path d="M640.63 479.98L641.13 0h-640l639.5 479.98z" fill="red"/></g><path d="M178 54l-3.84-.2c-1.18-2.78-4.5-3.82-6.56-2.65-1.86.16-11.6-.15-11.6-.15l7.12 3.12C164.88 58.88 171 60 171 60c-.55 8.77-8.88-1.13-15.88 3.87-5 3-5.06 6.58-7.76 12.37C146.52 77.84 143 82 143 82l5.88-.5L147 84l7-1s-.94.78-1.5 1.38c1.03.2 8-1.63 8-1.63L160 85c3.57-1.43 8-2.88 8-2.88s1.57 1.3 3 1.88l1-4 4 1 1-4c6 8 8 16 19 18l-1-4c3.06 1.3 8.74 4.1 8.74 4.1l.86-1.84c4.77 3.42 8.73 3.36 11.4 3.74l-2-5c.13.05 2 1 2 1l-3-8 3 1-4-6 1.5-1-.5-3c6 2 14 5 15 12 1 11-11 14-19 13 6 5 17 3 22-2 2-2 3-5 4-8 1 3 3 7 3 11-1 9-13 12-21 13 9 5 25-1 26-14 0-11-7-16-10-21-.45-1.82-1-5.38-1-5.38.38.1 3 1.4 3 1.4s-1.77-3.32-2-4.02c0 0-3.12-8.5-4.25-10.38.18-.1 2.25.35 2.25.35l-8.2-10.27s1.98-.18 2.33-.24c0 0-9.52-7.5-12.13-8.46l3-1c-6-3-13-1-19 3l1-3-1.83.17v-3.43L198 36l-3-1 2-5-3 1 1-5s-2.24 1.04-3.6.9c.05.1 1.6-3.43 1.6-3.43-.96-1.5 0-4.47 0-4.47-7 1-8 2-12 8-6 11-4 16-3 27z" stroke="#fc0" stroke-width="1.06" fill="#fc0" transform="matrix(2.2 0 0 2.2 1.1 0)"/><path d="M475.82 154.96c1.14 1.9 13.63 7.9 23.03 13.24-2.53-10.14-20.86-12.38-23.03-13.24z" fill-rule="evenodd" stroke="red" stroke-width="3.124" fill="red"/><path fill-rule="evenodd" fill="#fff" d="M173.35 396.88l-14-8.93-18.78 9 4.17-16.06-14.36-15.1 16.57-1.02 9.9-18.3 6.08 15.44 20.48 3.76-12.8 10.56M209.26 318.36l-6.5-3.1-6.23 3.6.95-7.16-5.34-4.82 7.07-1.3 2.95-6.58 3.43 6.34 7.16.77-4.97 5.22M240.9 273.33l-14.23-6.95-13.8 7.78 2.2-15.68-11.68-10.72L219 245l6.57-14.4 7.45 14 15.73 1.8-11 11.4M175.78 210.63l-16.77-8.4-16.4 9.04 2.8-18.54-13.7-12.82 18.52-3.05 7.97-16.98 8.62 16.66 18.6 2.33-13.17 13.35M116.6 277.24l-17.06-10.08-17 10.3 4.35-19.28-15.12-12.92 19.76-1.84 7.67-18.3 7.86 18.15 19.86 1.6-14.9 13.06"/></svg>