<svg xmlns="http://www.w3.org/2000/svg" version="1" viewBox="-15 -7.5 30 15"><defs><clipPath id="a"><path d="M-15-7.5h30v15h-30z"/></clipPath></defs><path fill="#00247d" d="M-15-11.25h30v22.5h-30z"/><g clip-path="url(#a)" transform="translate(0 -3.8)"><circle r="20" fill="#00247d"/><path stroke-width="3" stroke="#fff" d="M-20-10l40 20m-40 0l40-20"/><path stroke-width="2" stroke="#cf142b" d="M-20-10l40 20m-40 0l40-20"/><path fill="#fff" d="M0 0l20 10h-3L-3 0m3 0l20-10h3L3 0M0 0l-20 10h-3L-3 0m3 0l-20-10h3L3 0"/><path stroke-width="5" stroke="#fff" d="M-20 0h40M0-10v20"/><path stroke-width="3" stroke="#cf142b" d="M-20 0h40M0-10v20"/></g><path d="M4.22 3.3c-.43.36-.84.9-.94 1.37-.3 1.36-.66 1.66-1.24 1.37 0 .72.63.78.9.35 0 .68.26 1.27.82 1.77.23.2.28.07.16-.17-.1-.23-.1-1-.33-1.43.35.26.87.1.83-.6-.46.28-.92.27-.96-.37-.06-.75.23-1.83.75-2.3zM3.67-2.08c.03-.27-.02-.54-.22-.72-.38-.33-.75-.22-1.03.05-.4-.22-.63.57-1.1.43.08.26.2.37.44.28-.25.23 0 .5-.3.76.53.17.8-.12.8-.62.2.18.5.16.67-.04-.28-.1-.28-.33-.17-.55.17-.33.96-.32.9.42z" stroke="#000" stroke-width=".030177700000000002" fill="#f7e017"/><path d="M4.88 1.8c-.6.32-1.67.18-1.77-.6C3 .45 3.77.1 3.97 0c.3-.16.56.12.46.44.34-.12.42-.52.25-.76.46.04.88-.3 1.06-.8-.16.15-.6.05-.96.03.12-.12.1-.36.08-.48-.38.4-.93.2-1.65 1.34.1-.4.32-1.17.44-1.7.02-.04.03-.1.03-.14.05-.74-.74-.75-.9-.42.18.2.08.45.02.82-.1.44-.26 1.44-.4 1.78-.05-.53-.4-.56-.46-.82-.1.07-.16.25-.14.37-.12-.13-.54.03-.7-.17-.17.34.1.67.38.82-.16 0-.2.2-.38.2.24.28.48.4.77.42s.5.13.67.47c.28.55 1.34.9 2.34.4z" stroke="#000" stroke-width=".030177700000000002" fill="#337321"/><path d="M6.36 1.12c-.34.93-1.25 1.6-1.67 1.7-.7.16-2.14.86-2.53 1.22C2.1 4.02 2.05 4 2 3.97c-.18-.13-.33-.57 0-.94 1.05-.98 2.18-.56 2.88-1.23-.6.32-1.67.18-1.77-.6.65.18 1.8.2 2.7-.8.13.14.5.57.56.72z" stroke="#000" stroke-width=".030177700000000002" fill="#f7e017"/><path d="M4.22 3.3c-.53.45-.8 1.55-.75 2.3 0 .2.07.35.16.44.04-.43.33-1.52 1.1-2 .62-.43 1.62-1.35 2-2.4-.08-.2-.2-.34-.4-.47-.37 1-1.35 1.48-2.1 2.13z" stroke="#000" stroke-width=".030177700000000002" fill="#337321"/><path d="M6.02.7c-.2.28-.62.67-1.03.83.07-.1.1-.23.1-.34-.52.2-1.57.17-2 0 .65.18 1.8.2 2.7-.8.1.1.18.2.22.3z" stroke="#000" stroke-width=".030177700000000002" fill="#316d3a"/><path d="M2 3.03c-.85.8-.3 1.5.05 1.66-.1.54.43.48.42.95.2-.13.27-.45.24-.7.27.28.96-.04 1.1.5.1-.6-.37-1.2-.94-1.13.24-.2.1-.56-.12-.65-.04.44-.54.44-.73.3-.18-.13-.33-.57 0-.94z" stroke="#000" stroke-width=".030177700000000002" fill="#337321"/><path d="M3.85 8.1c-.1.07-.08.2-.03.27.12.15-.08.5.3.58.1.02.2-.04.24-.17.12-.35-.26-.4-.3-.56-.02-.17-.13-.15-.2-.1z" stroke="#000" stroke-width=".030177700000000002" fill="#f7e017"/><path d="M4.17 8.77c-.13.06-.23.14-.18.54 0 .18 0 .58-.15.6.1.03.28.08.36-.02.08.12.25.1.32-.07.1.08.2-.04.2-.14.1.05.25-.03.2-.27.1.03.23-.04.27-.1-.15-.03-.5-.22-.58-.37-.1-.15-.3-.22-.45-.16z" stroke="#000" stroke-width=".030177700000000002" fill="#f7e017"/><g stroke="#000" stroke-width=".19" fill="none"><path d="M2.24-2.52c.05-.08.1-.16.18-.23M4.36-1.04c.1-.06.25-.07.42-.06M4.2 9.88c-.03-.06-.04-.3-.02-.43M4.52 9.8c-.06-.04-.18-.2-.2-.34M4.73 9.66c-.07-.04-.26-.3-.3-.45M4.93 9.4c-.1-.03-.37-.2-.5-.4" stroke-width=".030177700000000002"/></g><path d="M10.08 3.04c1.37 1.15 1.46 2.07 1.25 2.6-.1-.5-.68-1.28-1.27-1.48l.02-1.12z" stroke="#000" stroke-width=".030177700000000002" fill="#f7e017"/><path d="M7.62 2.4h2.55v3c0 2.58-1.43 4.1-2.88 4.9-1.47-.8-2.9-2.32-2.9-4.9v-3h1.8c0 .15 0 .4.2.62.4-.04.9-.36 1.22-.62z" stroke="#000" stroke-width=".030177700000000002" fill="#337321"/><path d="M10.17 2.4v3c0 .8-.13 1.47-.35 2.06L7.3 2.82 4.75 7.46c-.22-.6-.35-1.27-.35-2.05v-3h5.77z" stroke="#000" stroke-width=".030177700000000002" fill="#006ec7"/><path d="M9.9 7.24c-.05.13-.13.36-.2.5l-2.4-4.5-2.43 4.5-.2-.5L7.3 2.4l2.6 4.84z" fill="#f7e017"/><g stroke="#000" stroke-width=".19" fill="#f7e017"><path d="M8.44 8.9c.06.02.2.1.24.1.14-.26.16-.64.1-.97-.13.36-.62.35-.76.58.1.05.16.1.23.15-.17.17-.56.45-.78.52v-2.4c0-.17-.06-.3-.06-.45v-.5c0-.1 0-.27-.1-.27s-.14.17-.14.28v.5c0 .13-.05.3-.05.44v2.4c-.12-.36-.6-.24-.82-.6.1-.02.18-.03.27 0-.17-.58-.63-.62-.72-.8 0 .24-.1.8.06 1.03.03-.05.08-.1.14-.13.2.42 1.05.42 1.25 1.1.15-.25.73-.54 1.14-.98z" stroke-width=".030177700000000002"/><path d="M7.3 6.9c.18 0 .78-.06 1-.06.05 0 .1-.1.1-.2s-.05-.18-.1-.18c-.22 0-.82-.07-1-.07s-.8.06-1.02.06c-.06 0-.1.08-.1.2s.04.18.1.18c.2 0 .82.06 1 .06z" stroke-width=".030177700000000002"/><path d="M7.16 5.92c-.04-.04-.1-.06-.15-.06-.1 0-.22.1-.22.2 0 .13.1.22.23.22.14 0 .24-.1.24-.2s.13-.1.13 0c0 .17-.16.32-.36.32s-.35-.15-.35-.33c0-.18.16-.33.36-.33.07 0 .13.02.18.04l-.02.14zM6.28 6.84c.05 0 .1-.1.1-.2s-.05-.18-.1-.18" stroke-width=".030177700000000002"/><path d="M6.36 6.84c.06 0 .1-.1.1-.2s-.04-.18-.1-.18M6.9 6.87c.08 0 .14-.1.14-.22 0-.13-.06-.23-.13-.23M7.04 6.88c.07 0 .13-.1.13-.23 0-.14-.06-.24-.13-.24M7.47 6.9c.07 0 .13-.12.13-.25 0-.14-.06-.25-.13-.25M7.6 6.88c.08 0 .13-.1.13-.23s-.05-.24-.13-.24M8.2 6.84c.06 0 .1-.1.1-.2s-.04-.2-.1-.2M6.04 8.77c.07-.04.15-.08.24-.1M8.3 8.8c0-.02-.03-.04-.05-.05M8.44 8.9c.15-.18.28-.37.35-.58" stroke-width=".030177700000000002"/></g><g stroke="#000" stroke-width=".19"><path d="M6.77 4.53c0-.06.05-.08.1-.12.06-.04.1-.06.15-.06h.73c.05 0 .07.02.07.07v1c0 .05-.02.07-.07.07h-.98v-.95" fill="#fff" stroke-width=".030177700000000002"/><path d="M7.57 5.55c.1 0 .08 0 .15-.07.07-.07.06-.06.06-.13v-.9c0-.05 0-.07-.06-.07h-.68c-.05 0-.08.02-.14.07-.04.03-.08.06-.08.1v1h.75z" fill="#e5e5e5" stroke-width=".030177700000000002"/><path d="M7.64 5.53c0 .05 0 .07-.07.07h-.73c-.05 0-.07-.02-.07-.07v-1c0-.05.02-.06.07-.06h.73c.06 0 .07 0 .07.07v1z" fill="#fff" stroke-width=".030177700000000002"/></g><path d="M9.06 1.8c.14.17.2.4.1.6h-.2c.1-.27.04-.53-.34-.56C8.05 1.8 7.4 2.9 6.4 3.02c-.3-.34-.28-1 .1-1.32C6.3 1.15 5.9.55 5.6.3c-.2-.04-.4-.06-.53-.05.13-.3.55-.64.88-.77.05-.08.1-.16.17-.23.03-.43 2.07-.23 2.5.04 0 .47.2 2.08.4 2.5z" stroke="#000" stroke-width=".030177700000000002" fill="#96877d"/><path d="M6.58 2.1C6.54 1.37 6.23.76 5.8.34c.2.06.63.06.9-.14.37-.26 1.33-.7 1.7-.5 0 .06.03.2 0 .28-.08-.22-1 .13-1.26.23-.26.13-.37.3-.28.64C6.72.72 6.76.6 6.62.5c.06.15.1.42.12.63C6.7.98 6.6.65 6.37.46c.2.37.35 1.26.28 1.73.15 0 .48-.16.6-.27-.1.17-.44.3-.66.33-.1.12-.17.42-.17.6-.02-.22.05-.72.15-.75zM9.06 1.8c-.18-.2-.53-.3-.97-.2l.33-.1L8.3.76 8.4.7c.08.3.15.66.2.8.04 0 .13.03.2.06C8.8 1.46 8.6.6 8.6.5l.16-.07c.07.45.17 1.12.3 1.38z"/><g stroke="#000" stroke-width=".19" fill="#96877d"><path d="M8.96 2.4c.1-.27.04-.53-.34-.56-.3-.03-.62.26-1 .56h1.34zM6.5 0c-.17 0-.55-.02-.74-.08 0-.05.03-.1.06-.16-.12.08-.34.23-.43.34.26.05.8.08 1.1-.1z" stroke-width=".030177700000000002"/></g><path d="M6.5 1.7c.05.18.1.35.1.5M5.98-.52c-.1.14-.2.3-.22.44.2.06.57.1.73.07" stroke="#000" stroke-width=".030177700000000002" fill="none"/><path d="M5.62.3c.07 0 .14 0 .2.03.2.06.6.06.9-.14S7.73-.65 8.6-.7" stroke="#000" stroke-width=".030177700000000002" fill="none"/><path d="M5.4.1c.26.05.8.08 1.1-.1.64-.45 1.27-.7 1.9-.74" stroke="#000" stroke-width=".030177700000000002" fill="none"/><path d="M10.08 3.04c.94.65 1.63 1.28 1.83 2.28.2 1 .6 1.28 1.06 1-.1.6-.7.66-1.18.2.04.68-.23 1.48-.92 1.77-.04-.4.22-.73.15-1.06-.03-.14-.04-.48.15-.63-.37.13-.95-.1-1-.65.42.2.97.23 1.18-.3s.12-1.46-1.25-2.6zM11.26-2.18c.3-.76 1.05-.68 1.3-.36.76-.42.86.54 1.5.35-.02.2-.23.35-.46.34.24.23-.1.56.42.76-.45.22-1.07 0-1.24-.62-.14.3-.67.3-.88.05.46-.12.42-.55.17-.7-.26-.18-.72-.1-.8.2zM9-.5c.2.66.64 1.3 1.1 1.7.54.5 1.35.38 1.8-.1 0 .95-.96 1.02-1.5.73-.24-.13-.43-.06-.2.14.35.3 1.1.55 2 .74 1.56.34 1 1.58.55 1.57.13 0 .24-.14.05-.3C11.44 2.73 8.68 3.2 8.73.5c-.3.7-1.5.43-.93-.4.18.13.5.14.58-.08.07-.18.02-.48-.3-.74.06 0 .17 0 .16-.13.02.08.1.2.26.15.05.08.1.14.18.1 0 0 .05-.02.03-.1.03.15.2.2.3.2z" stroke="#000" stroke-width=".030177700000000002" fill="#337321"/><path d="M10.4 1.83c.65.42 1.38.42 2.06-.36.2-.25.54-.46.78-.48.23-.03.22-.26.4-.3-.1-.03-.16-.17-.32-.15.42-.15.3-.48.5-.64-.17.07-.43-.18-.67.13.06-.14-.02-.3-.08-.38.02.17-.33.2-.4.62-.04.24-.17.23-.2-.14 0-.27-.14-1.02-.3-1.4-.15-.38-.18-.9.03-.98-.03-.05-.08-.1-.13-.13-.26-.17-.72-.1-.8.2-.3.76.52 1.2.45 2.02-.12-.62-1.12-.77-1.1-1.37-.33.14-.28.4-.16.62-.2-.32-.66.2-1.05-.23-.04.56.46.77.86.8-.2.35.06.65.33.75 0-.63 1.3-.37 1.3.7 0 .92-.97 1-1.5.7zM12.2 2.7c1.56.34 1 1.58.55 1.57-.3 0-.57-.25-.6-.46-.32.2-.23.54.02.68-.7-.08-1 .38-1 .9.1-.25.5-.26.65-.2.15.04.52.06.67-.1-.13.1.07.35-.1.54.58-.02.84-.57.74-.8.76-.7.6-1.83-.94-2.1zM11 8.02c.1.06.1.2.03.28-.14.17.07.57-.36.64-.12.02-.22-.06-.26-.2-.1-.4.32-.43.36-.62.05-.18.16-.16.25-.1z" stroke="#000" stroke-width=".030177700000000002" fill="#f7e017"/><path d="M10.63 8.74c.13.07.25.16.18.6-.02.2-.03.64.13.66-.1.04-.3.1-.4-.03-.1.14-.27.1-.34-.1-.1.1-.25-.06-.24-.17-.1.05-.26-.04-.2-.3-.12.03-.25-.05-.3-.12.16-.03.56-.22.66-.4.1-.15.35-.22.5-.14z" stroke="#000" stroke-width=".030177700000000002" fill="#f7e017"/><g stroke="#000" stroke-width=".19" fill="none"><path d="M10.53 9.97c.05-.06.08-.32.05-.48M10.2 9.88c.06-.05.2-.22.22-.38M9.96 9.7c.1-.04.3-.3.36-.48M9.75 9.4c.1-.02.43-.22.57-.43" stroke-width=".030177700000000002"/></g><path d="M8.73.5c-.02 1.14.45 1.72 1.1 2.1-.23-.15-.13-.65-.46-.8.08-.02.2.1.4.05-.1-.2-.25-.54-.6-.58.08 0 .3.02.42-.03-.2-.3-.7-.15-.87-.74zM8.6-.6c-.03 0-.07-.04-.1-.1-.18.04-.24-.07-.26-.15 0 .13-.1.13-.15.13.3.26.35.56.28.74-.1.22-.4.2-.58.06-.02.48.6.64.8.04 0 .1.14.1.18.22.16-.26.04-.62-.17-.93z" stroke="#000" stroke-width=".030177700000000002" fill="#f7e017"/><g><path d="M7.63-2.86c-.28-.25-.4-.68-.4-.93 0-.24.1-.5.47-.4-.1 0-.03.23-.15.25.1.04.22-.04.24-.1 0 .1.16.06.17.15.05-.04 0-.26-.1-.3.07-.04.1-.2.08-.3-.06.02-.14.1-.16.2.02-.08-.02-.3-.17-.34-.05.06-.06.2 0 .3-.14-.04-.35.06-.4.18 0-.15.03-.36.12-.5.03-.03-.05-.1-.1 0-.1-.22-.4-.33-.53-.22s-.3-.05-.4.1c-.12.18-.48.2-.46.38 0 .1 0 .27-.06.32-.13.15.06.26.1.38-.03-.42.64-1.25 1.32-.92-.06.1-.12.32-.13.57-.04.38 0 .92.38 1.23l.15-.04z" stroke="#000" stroke-width=".030177700000000002" fill="#337321"/><path d="M7.83-4.2c0-.1.17-.22.4-.22.28 0 .5.26.73.24s.1.1.07.13c-.05.04-.08.1-.06.15s-.02.1-.1.04c-.2-.12-.4.05-.67-.04-.23-.1-.37-.14-.37-.3z" stroke="#000" stroke-width=".030177700000000002" fill="#cf142b"/><path d="M6.68-1.55c-.1-.35-.54-.74-.74-.83l-.02-.2c.12-.03.38-.24.5-.36.84.4 1.98-.17 2.5-.76l.2.12-.1.14-.1-.06c-.13.16-.6.6-.75.7.2.05.46.1.53.08.47-.33.84-.63 1.02-.66l.15.2-.13.1-.1-.06c-.5.4-1.08 1.32-1.3 1.92-.32-.07-1.43-.02-1.66-.33z" stroke="#000" stroke-width=".030177700000000002" fill="#96877d"/><path d="M8.17-2.8L8-2.86c-.1.1-.32.16-.6.17" stroke="#000" stroke-width=".030177700000000002" fill="none"/><path d="M6.72-1.67c-.07-.42.05-.88.26-1.02.46.32 1.26.32 1.72-.02" stroke="#000" stroke-width=".030177700000000002" fill="none"/><path d="M6.72-1.9c.36 0 1.14.06 1.33.1.2 0 .5.1.46.2M6.9-1.95l.1-.1-.1-.1-.12.1.1.1z" stroke="#000" stroke-width=".030177700000000002" fill="none"/><path d="M7.13-4.03c-.13-.18-.48-.24-.56 0-.03.1-.08.22-.17.27-.08.05-.06.2-.02.27.1.17 0 .33.18.44 0-.13.2-.27.35-.3.17-.03.42-.18.45-.34.04-.16.1-.3-.22-.33z" stroke="#000" stroke-width=".030177700000000002" fill="#337321"/><path d="M6.33-2.42h.04v.3s.02 0 .03.02l.26-.15.02.03-.26.16v.03l.26.15-.02.04L6.4-2l-.03.02v.3h-.04v-.3H6.3l-.27.14L6-1.88l.28-.15v-.03L6-2.22l.03-.03.27.15.03-.02v-.3z" stroke="#000" stroke-width=".030177700000000002" fill="#96877d"/><path d="M6.72-1.68c-.1.1-.22.16-.37.16-.3 0-.53-.24-.53-.53 0-.3.24-.53.53-.53.17 0 .32.08.42.2-.03.08-.06.23-.06.3 0-.2-.16-.33-.35-.33-.2 0-.36.15-.36.35 0 .2.15.36.35.36.17 0 .3-.1.35-.26 0 .07 0 .23.02.28z" stroke="#000" stroke-width=".030177700000000002" fill="#96877d"/><path d="M6.13-1.17c-.04-.04-.1-.15-.1-.22.06 0 .15.03.2.08 0-.06-.03-.18-.02-.24.07.03.2.1.24.18 0-.05-.03-.2 0-.3.06.05.17.16.2.23 0-.1.04-.3.07-.34.06.06.14.1.2.17 0-.1.05-.2.1-.22.06.05.14.18.16.33.05-.02.12-.1.14-.15.03.05.06.12.04.22.06-.06.14-.13.15-.2.04.03.12.12.14.2 0-.07 0-.2-.02-.27.08.05.15.12.16.2.03-.07.08-.2.12-.24.05.1.1.2.08.28.03-.05.08-.15.12-.18.04.06.04.2.02.27.04-.05.12-.1.16-.13v.15c.05-.03.13-.18.16-.26.08.04.16.17.16.24.06-.02.17-.12.2-.18 0 .04.02.15 0 .23l.08-.13c.03.06 0 .2 0 .26.04-.04.1-.07.15-.07 0 .1-.06.27-.12.4-.52-.15-1.65-.2-2.77-.27z" stroke="#000" stroke-width=".030177700000000002" fill="#337321"/><path d="M8-4.13c0-.04.08-.13.25-.13.2 0 .38.14.54.13s.07.04.03.06c-.03 0-.05.03-.04.06s-.02.03-.08 0c-.14-.05-.28.03-.47 0C8.1-4.06 8-4.08 8-4.14z" fill="#f7e017"/></g><g stroke="#000" stroke-width=".19"><g fill="#f7e017"><path d="M6.3-.84c-.17.2-.34.17-.37.04-.03-.13.1-.2.04-.3-.04-.1.08-.16.13-.1.06.04.24-.12.32.05.07.16.14.28.1.35-.05.06-.2.03-.22-.04zM7.02-1.14c-.03-.07.14-.2.23-.1.1.1.23-.12.3.04l.15.33c.04.1-.2.14-.3.06.02.04-.2.08-.27-.07l-.1-.27zM8.18-1.05c-.04-.07.16-.2.27-.04.03-.05.23-.06.24.1 0 .18 0 .28.02.35S8.6-.53 8.5-.7c-.16.04-.24-.06-.26-.15l-.06-.2z" stroke-width=".030177700000000002"/></g><g fill="#337321"><path d="M6.4-1.16c-.02-.05.15-.17.26-.08.12.08.28-.07.34.08.14.3.15.32.1.38-.03.06-.2.04-.26-.04 0 .05-.16.04-.24 0-.1-.05-.16-.24-.2-.34zM7.58-1.14c-.04-.1.23-.17.34 0 .06-.07.2-.07.26.1.07.16.08.25.03.3-.03.02-.16.05-.2-.03-.07.04-.26 0-.3-.1l-.12-.27zM8.7-.98c0-.08.13-.1.18 0s.23 0 .24.2c0 .04-.02.18-.07.25s-.3 0-.33-.15l-.03-.3z" stroke-width=".030177700000000002"/></g><g fill="none"><path d="M6.3-.84c-.06-.08-.15-.2-.25-.07M6.84-.82c-.03-.05-.08-.13-.1-.2M7.4-.8c-.03-.04-.1-.1-.12-.15M7.36-1.1c.1 0 .16.1.2.14.03.04.1.12.14.13M8-.77c-.04-.05-.07-.1-.08-.14M7.92-1.15l.08.13M8.5-.7c-.04-.08-.1-.16-.17-.2M8.48-1c0 .16.23.17.23.3M8.88-.98l.04.15" stroke-width=".030177700000000002"/></g></g></svg>