<svg xmlns="http://www.w3.org/2000/svg" height="480" width="640"><defs><clipPath id="a"><path fill-opacity=".67" d="M-64 0h640v512H-64z"/></clipPath></defs><g clip-path="url(#a)" transform="matrix(1 0 0 .9 64 0)"><g fill-rule="evenodd" stroke-width="1pt"><path fill="#fff" d="M-256 171.9H767.98v168.2H-256z"/><path fill="#3d25ca" d="M-256 340.1H767.98V512H-256z"/><path fill="#d60000" d="M-256 0H767.98v171.9H-256z"/></g><path d="M744.14 567.26c0 192.48-157.1 348.52-350.87 348.52S42.4 759.74 42.4 567.26s157.1-348.52 350.87-348.52 350.87 156.04 350.87 348.52z" fill-rule="evenodd" transform="matrix(.2 0 0 .2 182.2 148.9)" stroke="#000" stroke-width="12.91" fill="#fff"/><g stroke="#000" stroke-width="2.64"><g fill-rule="evenodd" fill="#006700"><path d="M259.03 105.7s400.32 70.65 414.45 395.63C687.6 826.3 485.08 868.7 414.45 920.5c-70.64 51.8-113.03 113.02-146 113.02s-80.06-14.13-80.06-14.13 9.4 51.8 75.34 47.1c65.94-4.72 127.16-113.04 164.84-131.88s277.88-98.9 259.04-428.58C673.5 152.8 263.74 115.14 259.02 105.7z" transform="matrix(.1 0 0 .1 249.5 214.2)"/><path d="M320.26 487.2c0 59.83-11.6 108.32-25.9 108.32s-25.9-48.5-25.9-108.32c0-59.83 11.6-108.32 25.9-108.32s25.9 48.5 25.9 108.32z" transform="matrix(0 0 0 0 263.5 215.8)"/><path d="M320.26 487.2c0 59.83-11.6 108.32-25.9 108.32s-25.9-48.5-25.9-108.32c0-59.83 11.6-108.32 25.9-108.32s25.9 48.5 25.9 108.32z" transform="matrix(0 0 0 0 260.3 219.4)"/><path d="M320.26 487.2c0 59.83-11.6 108.32-25.9 108.32s-25.9-48.5-25.9-108.32c0-59.83 11.6-108.32 25.9-108.32s25.9 48.5 25.9 108.32z" transform="matrix(0 0 0 0 258.7 238.4)"/><path d="M320.26 487.2c0 59.83-11.6 108.32-25.9 108.32s-25.9-48.5-25.9-108.32c0-59.83 11.6-108.32 25.9-108.32s25.9 48.5 25.9 108.32z" transform="matrix(0 0 0 0 256.8 231.2)"/><path d="M320.26 487.2c0 59.83-11.6 108.32-25.9 108.32s-25.9-48.5-25.9-108.32c0-59.83 11.6-108.32 25.9-108.32s25.9 48.5 25.9 108.32z" transform="matrix(0 0 0 0 257.6 225.9)"/><path d="M151.53 682.7c0 1.67-41.63-24.98-49.95-33.3-8.34-8.33-6.67-46.62-33.3-64.94s-54.96-10-68.28 1.66c-13.33 11.65-8.33 38.3 23.3 61.6s53.3 1.67 69.94 10c16.66 8.32 43.3 24.97 56.62 38.3 13.32-10 46.62-21.65 64.94-29.98 18.3-8.32 64.94 11.66 96.58-11.65 26.64-18.33 38.3-56.63 19.98-68.28-18.32-11.66-51.62-6.66-71.6 5-19.98 11.65-29.97 58.27-49.96 66.6-14.98 5-56.6 28.3-58.28 24.98z" transform="matrix(0 0 0 0 268.7 230.5)"/><path d="M320.26 487.2c0 59.83-11.6 108.32-25.9 108.32s-25.9-48.5-25.9-108.32c0-59.83 11.6-108.32 25.9-108.32s25.9 48.5 25.9 108.32z" transform="matrix(0 0 0 0 270.4 209.7)"/><path d="M320.26 487.2c0 59.83-11.6 108.32-25.9 108.32s-25.9-48.5-25.9-108.32c0-59.83 11.6-108.32 25.9-108.32s25.9 48.5 25.9 108.32z" transform="matrix(0 0 0 0 264.8 213.3)"/><path d="M320.26 487.2c0 59.83-11.6 108.32-25.9 108.32s-25.9-48.5-25.9-108.32c0-59.83 11.6-108.32 25.9-108.32s25.9 48.5 25.9 108.32z" transform="matrix(0 0 0 0 256.3 239.7)"/><path d="M320.26 487.2c0 59.83-11.6 108.32-25.9 108.32s-25.9-48.5-25.9-108.32c0-59.83 11.6-108.32 25.9-108.32s25.9 48.5 25.9 108.32z" transform="matrix(0 0 0 0 256.1 228.6)"/><path d="M320.26 487.2c0 59.83-11.6 108.32-25.9 108.32s-25.9-48.5-25.9-108.32c0-59.83 11.6-108.32 25.9-108.32s25.9 48.5 25.9 108.32z" transform="matrix(0 0 0 0 258.9 221.5)"/><path d="M151.53 682.7c0 1.67-41.63-24.98-49.95-33.3-8.34-8.33-6.67-46.62-33.3-64.94s-54.96-10-68.28 1.66c-13.33 11.65-8.33 38.3 23.3 61.6s53.3 1.67 69.94 10c16.66 8.32 43.3 24.97 56.62 38.3 13.32-10 46.62-21.65 64.94-29.98 18.3-8.32 64.94 11.66 96.58-11.65 26.64-18.33 38.3-56.63 19.98-68.28-18.32-11.66-51.62-6.66-71.6 5-19.98 11.65-29.97 58.27-49.96 66.6-14.98 5-56.6 28.3-58.28 24.98z" transform="matrix(0 0 0 0 272.8 233)"/><g><path d="M320.26 487.2c0 59.83-11.6 108.32-25.9 108.32s-25.9-48.5-25.9-108.32c0-59.83 11.6-108.32 25.9-108.32s25.9 48.5 25.9 108.32z" transform="matrix(0 0 0 0 279.7 217.6)"/><path d="M320.26 487.2c0 59.83-11.6 108.32-25.9 108.32s-25.9-48.5-25.9-108.32c0-59.83 11.6-108.32 25.9-108.32s25.9 48.5 25.9 108.32z" transform="matrix(0 0 0 .1 273.6 220.1)"/><path d="M320.26 487.2c0 59.83-11.6 108.32-25.9 108.32s-25.9-48.5-25.9-108.32c0-59.83 11.6-108.32 25.9-108.32s25.9 48.5 25.9 108.32z" transform="matrix(0 0 0 0 260.4 244.6)"/><path d="M320.26 487.2c0 59.83-11.6 108.32-25.9 108.32s-25.9-48.5-25.9-108.32c0-59.83 11.6-108.32 25.9-108.32s25.9 48.5 25.9 108.32z" transform="matrix(0 0 0 0 262.3 233.5)"/><path d="M320.26 487.2c0 59.83-11.6 108.32-25.9 108.32s-25.9-48.5-25.9-108.32c0-59.83 11.6-108.32 25.9-108.32s25.9 48.5 25.9 108.32z" transform="matrix(0 0 0 0 266.3 227.1)"/><path d="M151.53 682.7c0 1.67-41.63-24.98-49.95-33.3-8.34-8.33-6.67-46.62-33.3-64.94s-54.96-10-68.28 1.66c-13.33 11.65-8.33 38.3 23.3 61.6s53.3 1.67 69.94 10c16.66 8.32 43.3 24.97 56.62 38.3 13.32-10 46.62-21.65 64.94-29.98 18.3-8.32 64.94 11.66 96.58-11.65 26.64-18.33 38.3-56.63 19.98-68.28-18.32-11.66-51.62-6.66-71.6 5-19.98 11.65-29.97 58.27-49.96 66.6-14.98 5-56.6 28.3-58.28 24.98z" transform="matrix(0 0 0 0 277.8 241.1)"/></g><g><path d="M320.26 487.2c0 59.83-11.6 108.32-25.9 108.32s-25.9-48.5-25.9-108.32c0-59.83 11.6-108.32 25.9-108.32s25.9 48.5 25.9 108.32z" transform="matrix(0 0 0 0 292.3 227.4)"/><path d="M320.26 487.2c0 59.83-11.6 108.32-25.9 108.32s-25.9-48.5-25.9-108.32c0-59.83 11.6-108.32 25.9-108.32s25.9 48.5 25.9 108.32z" transform="matrix(0 0 0 0 285.8 227.3)"/><path d="M320.26 487.2c0 59.83-11.6 108.32-25.9 108.32s-25.9-48.5-25.9-108.32c0-59.83 11.6-108.32 25.9-108.32s25.9 48.5 25.9 108.32z" transform="matrix(0 0 0 0 264.4 244.5)"/><path d="M320.26 487.2c0 59.83-11.6 108.32-25.9 108.32s-25.9-48.5-25.9-108.32c0-59.83 11.6-108.32 25.9-108.32s25.9 48.5 25.9 108.32z" transform="matrix(0 0 0 .1 270.4 235)"/><path d="M320.26 487.2c0 59.83-11.6 108.32-25.9 108.32s-25.9-48.5-25.9-108.32c0-59.83 11.6-108.32 25.9-108.32s25.9 48.5 25.9 108.32z" transform="matrix(0 0 0 .1 276.5 230.7)"/><path d="M151.53 682.7c0 1.67-41.63-24.98-49.95-33.3-8.34-8.33-6.67-46.62-33.3-64.94s-54.96-10-68.28 1.66c-13.33 11.65-8.33 38.3 23.3 61.6s53.3 1.67 69.94 10c16.66 8.32 43.3 24.97 56.62 38.3 13.32-10 46.62-21.65 64.94-29.98 18.3-8.32 64.94 11.66 96.58-11.65 26.64-18.33 38.3-56.63 19.98-68.28-18.32-11.66-51.62-6.66-71.6 5-19.98 11.65-29.97 58.27-49.96 66.6-14.98 5-56.6 28.3-58.28 24.98z" transform="matrix(0 0 0 0 281.5 248.4)"/></g><g><path d="M320.26 487.2c0 59.83-11.6 108.32-25.9 108.32s-25.9-48.5-25.9-108.32c0-59.83 11.6-108.32 25.9-108.32s25.9 48.5 25.9 108.32z" transform="matrix(0 .1 0 0 299.7 237)"/><path d="M320.26 487.2c0 59.83-11.6 108.32-25.9 108.32s-25.9-48.5-25.9-108.32c0-59.83 11.6-108.32 25.9-108.32s25.9 48.5 25.9 108.32z" transform="matrix(0 0 0 0 292.6 234.4)"/><path d="M320.26 487.2c0 59.83-11.6 108.32-25.9 108.32s-25.9-48.5-25.9-108.32c0-59.83 11.6-108.32 25.9-108.32s25.9 48.5 25.9 108.32z" transform="matrix(.1 0 0 .1 263.4 245.8)"/><path d="M320.26 487.2c0 59.83-11.6 108.32-25.9 108.32s-25.9-48.5-25.9-108.32c0-59.83 11.6-108.32 25.9-108.32s25.9 48.5 25.9 108.32z" transform="matrix(0 0 0 .1 273 237.4)"/><path d="M320.26 487.2c0 59.83-11.6 108.32-25.9 108.32s-25.9-48.5-25.9-108.32c0-59.83 11.6-108.32 25.9-108.32s25.9 48.5 25.9 108.32z" transform="matrix(0 0 0 .1 281.2 234.8)"/><path d="M151.53 682.7c0 1.67-41.63-24.98-49.95-33.3-8.34-8.33-6.67-46.62-33.3-64.94s-54.96-10-68.28 1.66c-13.33 11.65-8.33 38.3 23.3 61.6s53.3 1.67 69.94 10c16.66 8.32 43.3 24.97 56.62 38.3 13.32-10 46.62-21.65 64.94-29.98 18.3-8.32 64.94 11.66 96.58-11.65 26.64-18.33 38.3-56.63 19.98-68.28-18.32-11.66-51.62-6.66-71.6 5-19.98 11.65-29.97 58.27-49.96 66.6-14.98 5-56.6 28.3-58.28 24.98z" transform="matrix(0 0 0 0 280.9 256.3)"/></g><g><path d="M320.26 487.2c0 59.83-11.6 108.32-25.9 108.32s-25.9-48.5-25.9-108.32c0-59.83 11.6-108.32 25.9-108.32s25.9 48.5 25.9 108.32z" transform="matrix(0 .1 -.1 0 309.4 256.6)"/><path d="M320.26 487.2c0 59.83-11.6 108.32-25.9 108.32s-25.9-48.5-25.9-108.32c0-59.83 11.6-108.32 25.9-108.32s25.9 48.5 25.9 108.32z" transform="matrix(0 .1 -.1 0 303.9 250.1)"/><path d="M320.26 487.2c0 59.83-11.6 108.32-25.9 108.32s-25.9-48.5-25.9-108.32c0-59.83 11.6-108.32 25.9-108.32s25.9 48.5 25.9 108.32z" transform="matrix(.1 0 0 .1 269.5 243.9)"/><path d="M320.26 487.2c0 59.83-11.6 108.32-25.9 108.32s-25.9-48.5-25.9-108.32c0-59.83 11.6-108.32 25.9-108.32s25.9 48.5 25.9 108.32z" transform="matrix(0 0 0 0 283.4 241.6)"/><path d="M320.26 487.2c0 59.83-11.6 108.32-25.9 108.32s-25.9-48.5-25.9-108.32c0-59.83 11.6-108.32 25.9-108.32s25.9 48.5 25.9 108.32z" transform="matrix(0 0 -.1 0 292.8 243.9)"/><path d="M151.53 682.7c0 1.67-41.63-24.98-49.95-33.3-8.34-8.33-6.67-46.62-33.3-64.94s-54.96-10-68.28 1.66c-13.33 11.65-8.33 38.3 23.3 61.6s53.3 1.67 69.94 10c16.66 8.32 43.3 24.97 56.62 38.3 13.32-10 46.62-21.65 64.94-29.98 18.3-8.32 64.94 11.66 96.58-11.65 26.64-18.33 38.3-56.63 19.98-68.28-18.32-11.66-51.62-6.66-71.6 5-19.98 11.65-29.97 58.27-49.96 66.6-14.98 5-56.6 28.3-58.28 24.98z" transform="matrix(0 0 0 0 280.7 264.1)"/></g><g><path d="M314.7 506.2c0 45.06-10.05 81.6-22.47 81.6s-22.48-36.54-22.48-81.6c0-45.06 10.07-81.6 22.48-81.6s22.48 36.54 22.48 81.6z" transform="matrix(0 .1 -.1 0 309 259.4)"/><path d="M314.7 506.2c0 45.06-10.05 81.6-22.47 81.6s-22.48-36.54-22.48-81.6c0-45.06 10.07-81.6 22.48-81.6s22.48 36.54 22.48 81.6z" transform="matrix(.1 .1 -.1 .1 273.1 230.4)"/><path d="M314.7 506.2c0 45.06-10.05 81.6-22.47 81.6s-22.48-36.54-22.48-81.6c0-45.06 10.07-81.6 22.48-81.6s22.48 36.54 22.48 81.6z" transform="matrix(0 .1 -.1 0 296.6 242.6)"/></g><g><path d="M314.7 506.2c0 45.06-10.05 81.6-22.47 81.6s-22.48-36.54-22.48-81.6c0-45.06 10.07-81.6 22.48-81.6s22.48 36.54 22.48 81.6z" transform="matrix(0 0 0 0 239.7 214.8)"/><path d="M314.7 506.2c0 45.06-10.05 81.6-22.47 81.6s-22.48-36.54-22.48-81.6c0-45.06 10.07-81.6 22.48-81.6s22.48 36.54 22.48 81.6z" transform="matrix(0 0 .1 0 244.1 236.3)"/><path d="M314.7 506.2c0 45.06-10.05 81.6-22.47 81.6s-22.48-36.54-22.48-81.6c0-45.06 10.07-81.6 22.48-81.6s22.48 36.54 22.48 81.6z" transform="matrix(0 0 0 0 238.4 223.8)"/></g></g><g fill-rule="evenodd" fill="#006700"><path d="M339.1 586.1s113.03 32.97 211.94 89.48c98.9 56.52 252.16 272.38 292.2 280.92 44.7-1.34 105.86-37.84 126.5-164.27-67.87 43.25-107.83 101.54-174.97 40.06-23.55-14.14-102.44-137.88-187.22-199.1-84.77-61.23-254.32-122.45-254.32-122.45L339.1 586.1z" transform="matrix(0 0 0 0 222.3 264.1)"/><path d="M332.03 604.94c1.18 0 21.2-164.84 21.2-164.84l17.65 164.84-20 28.26-18.85-28.26z" transform="matrix(0 0 0 0 274.8 234.1)"/><path d="M248.44 462.47c29.44 48.27 77.7 121.28 101.26 170.73 26.3-51.8 74.96-128.34 104.8-175.44-31.8 36.1-71.83 88.7-104.8 116.56-33.36-27.87-70.25-78.1-101.26-111.86z" transform="matrix(0 0 0 0 273.6 234.4)"/><path d="M332.03 604.94c1.18 0 21.2-164.84 21.2-164.84l17.65 164.84-20 28.26-18.85-28.26z" transform="matrix(0 0 0 0 273.8 229.4)"/><path d="M248.44 462.47c29.44 48.27 77.7 121.28 101.26 170.73 26.3-51.8 74.96-128.34 104.8-175.44-31.8 36.1-71.83 88.7-104.8 116.56-33.36-27.87-70.25-78.1-101.26-111.86z" transform="matrix(0 0 0 0 272.6 234.5)"/><path d="M332.03 604.94c1.18 0 21.2-164.84 21.2-164.84l17.65 164.84-20 28.26-18.85-28.26z" transform="matrix(0 0 0 0 272.3 237.4)"/><path d="M248.44 462.47c29.44 48.27 77.7 121.28 101.26 170.73 26.3-51.8 74.96-128.34 104.8-175.44-31.8 36.1-71.83 88.7-104.8 116.56-33.36-27.87-70.25-78.1-101.26-111.86z" transform="matrix(0 0 0 0 272 232.1)"/><path d="M332.03 604.94c1.18 0 21.2-164.84 21.2-164.84l17.65 164.84-20 28.26-18.85-28.26z" transform="matrix(0 0 0 0 271.1 223.3)"/><path d="M248.44 462.47c29.44 48.27 77.7 121.28 101.26 170.73 26.3-51.8 74.96-128.34 104.8-175.44-31.8 36.1-71.83 88.7-104.8 116.56-33.36-27.87-70.25-78.1-101.26-111.86z" transform="matrix(0 0 0 0 273.5 230.9)"/><path d="M332.03 604.94c1.18 0 21.2-164.84 21.2-164.84l17.65 164.84-20 28.26-18.85-28.26z" transform="matrix(0 0 0 0 273.1 229.4)"/><path d="M248.44 462.47c29.44 48.27 77.7 121.28 101.26 170.73 26.3-51.8 74.96-128.34 104.8-175.44-31.8 36.1-71.83 88.7-104.8 116.56-33.36-27.87-70.25-78.1-101.26-111.86z" transform="matrix(0 0 0 0 274.4 230.3)"/><path d="M332.03 604.94c1.18 0 21.2-164.84 21.2-164.84l17.65 164.84-20 28.26-18.85-28.26z" transform="matrix(0 0 0 0 274.4 228.8)"/><path d="M248.44 462.47c29.44 48.27 77.7 121.28 101.26 170.73 26.3-51.8 74.96-128.34 104.8-175.44-31.8 36.1-71.83 88.7-104.8 116.56-33.36-27.87-70.25-78.1-101.26-111.86z" transform="matrix(0 0 0 0 272.9 226.8)"/><path d="M332.03 604.94c1.18 0 21.2-164.84 21.2-164.84l17.65 164.84-20 28.26-18.85-28.26z" transform="matrix(0 0 0 0 272 220.7)"/><path d="M248.44 462.47c29.44 48.27 77.7 121.28 101.26 170.73 26.3-51.8 74.96-128.34 104.8-175.44-31.8 36.1-71.83 88.7-104.8 116.56-33.36-27.87-70.25-78.1-101.26-111.86z" transform="matrix(0 0 0 0 271.6 229)"/><path d="M332.03 604.94c1.18 0 21.2-164.84 21.2-164.84l17.65 164.84-20 28.26-18.85-28.26z" transform="matrix(0 0 0 0 272.1 230.9)"/><path d="M248.44 462.47c29.44 48.27 77.7 121.28 101.26 170.73 26.3-51.8 74.96-128.34 104.8-175.44-31.8 36.1-71.83 88.7-104.8 116.56-33.36-27.87-70.25-78.1-101.26-111.86z" transform="matrix(0 0 0 0 270.5 226.2)"/><path d="M332.03 604.94c1.18 0 21.2-164.84 21.2-164.84l17.65 164.84-20 28.26-18.85-28.26z" transform="matrix(0 0 0 0 268.4 216.3)"/><path d="M248.44 462.47c29.44 48.27 77.7 121.28 101.26 170.73 26.3-51.8 74.96-128.34 104.8-175.44-31.8 36.1-71.83 88.7-104.8 116.56-33.36-27.87-70.25-78.1-101.26-111.86z" transform="matrix(0 0 0 0 272.3 224.6)"/><path d="M332.03 604.94c1.18 0 21.2-164.84 21.2-164.84l17.65 164.84-20 28.26-18.85-28.26z" transform="matrix(0 0 0 0 271.6 223)"/><path d="M248.44 462.47c29.44 48.27 77.7 121.28 101.26 170.73 26.3-51.8 74.96-128.34 104.8-175.44-31.8 36.1-71.83 88.7-104.8 116.56-33.36-27.87-70.25-78.1-101.26-111.86z" transform="matrix(0 0 0 0 270.4 224.2)"/><path d="M332.03 604.94c1.18 0 21.2-164.84 21.2-164.84l17.65 164.84-20 28.26-18.85-28.26z" transform="matrix(0 0 0 .1 268.1 217.8)"/><path d="M248.44 462.47c29.44 48.27 77.7 121.28 101.26 170.73 26.3-51.8 74.96-128.34 104.8-175.44-31.8 36.1-71.83 88.7-104.8 116.56-33.36-27.87-70.25-78.1-101.26-111.86z" transform="matrix(0 0 0 0 270.1 227.7)"/><path d="M332.03 604.94c1.18 0 21.2-164.84 21.2-164.84l17.65 164.84-20 28.26-18.85-28.26z" transform="matrix(0 0 0 0 271.1 232)"/><path d="M248.44 462.47c29.44 48.27 77.7 121.28 101.26 170.73 26.3-51.8 74.96-128.34 104.8-175.44-31.8 36.1-71.83 88.7-104.8 116.56-33.36-27.87-70.25-78.1-101.26-111.86z" transform="matrix(0 0 0 0 268.6 231.6)"/><path d="M332.03 604.94c1.18 0 21.2-164.84 21.2-164.84l17.65 164.84-20 28.26-18.85-28.26z" transform="matrix(0 0 0 0 266.3 220.2)"/><path d="M248.44 462.47c29.44 48.27 77.7 121.28 101.26 170.73 26.3-51.8 74.96-128.34 104.8-175.44-31.8 36.1-71.83 88.7-104.8 116.56-33.36-27.87-70.25-78.1-101.26-111.86z" transform="matrix(0 0 0 .1 271.2 221.5)"/><path d="M332.03 604.94c1.18 0 21.2-164.84 21.2-164.84l17.65 164.84-20 28.26-18.85-28.26z" transform="matrix(0 0 0 .1 270.4 219.7)"/><path d="M248.44 462.47c29.44 48.27 77.7 121.28 101.26 170.73 26.3-51.8 74.96-128.34 104.8-175.44-31.8 36.1-71.83 88.7-104.8 116.56-33.36-27.87-70.25-78.1-101.26-111.86z" transform="matrix(0 0 0 .1 269.1 221.2)"/><path d="M332.03 604.94c1.18 0 21.2-164.84 21.2-164.84l17.65 164.84-20 28.26-18.85-28.26z" transform="matrix(-.1 0 0 .1 266.1 214.3)"/><path d="M248.44 462.47c29.44 48.27 77.7 121.28 101.26 170.73 26.3-51.8 74.96-128.34 104.8-175.44-31.8 36.1-71.83 88.7-104.8 116.56-33.36-27.87-70.25-78.1-101.26-111.86z" transform="matrix(0 0 0 .1 267.6 221.9)"/><path d="M332.03 604.94c1.18 0 21.2-164.84 21.2-164.84l17.65 164.84-20 28.26-18.85-28.26z" transform="matrix(0 0 0 .1 269.4 226.5)"/><path d="M248.44 462.47c29.44 48.27 77.7 121.28 101.26 170.73 26.3-51.8 74.96-128.34 104.8-175.44-31.8 36.1-71.83 88.7-104.8 116.56-33.36-27.87-70.25-78.1-101.26-111.86z" transform="matrix(-.1 0 0 .1 263.6 214.5)"/><path d="M332.03 604.94c1.18 0 21.2-164.84 21.2-164.84l17.65 164.84-20 28.26-18.85-28.26z" transform="matrix(-.1 0 0 .1 256.2 204.8)"/><path d="M248.44 462.47c29.44 48.27 77.7 121.28 101.26 170.73 26.3-51.8 74.96-128.34 104.8-175.44-31.8 36.1-71.83 88.7-104.8 116.56-33.36-27.87-70.25-78.1-101.26-111.86z" transform="matrix(-.1 0 0 .1 262.9 215.7)"/><path d="M332.03 604.94c1.18 0 21.2-164.84 21.2-164.84l17.65 164.84-20 28.26-18.85-28.26z" transform="matrix(-.1 0 0 .1 261.9 213.9)"/><path d="M248.44 462.47c29.44 48.27 77.7 121.28 101.26 170.73 26.3-51.8 74.96-128.34 104.8-175.44-31.8 36.1-71.83 88.7-104.8 116.56-33.36-27.87-70.25-78.1-101.26-111.86z" transform="matrix(-.1 0 0 .1 260.9 212.2)"/><path d="M332.03 604.94c1.18 0 21.2-164.84 21.2-164.84l17.65 164.84-20 28.26-18.85-28.26z" transform="matrix(-.1 0 0 .1 255.6 206.7)"/><path d="M248.44 462.47c29.44 48.27 77.7 121.28 101.26 170.73 26.3-51.8 74.96-128.34 104.8-175.44-31.8 36.1-71.83 88.7-104.8 116.56-33.36-27.87-70.25-78.1-101.26-111.86z" transform="matrix(-.1 0 0 .1 261.9 216.7)"/><path d="M332.03 604.94c1.18 0 21.2-164.84 21.2-164.84l17.65 164.84-20 28.26-18.85-28.26z" transform="matrix(-.1 0 0 .1 264.8 220.8)"/><path d="M248.44 462.47c29.44 48.27 77.7 121.28 101.26 170.73 26.3-51.8 74.96-128.34 104.8-175.44-31.8 36.1-71.83 88.7-104.8 116.56-33.36-27.87-70.25-78.1-101.26-111.86z" transform="matrix(-.1 0 0 .1 258.6 213.8)"/><path d="M332.03 604.94c1.18 0 21.2-164.84 21.2-164.84l17.65 164.84-20 28.26-18.85-28.26z" transform="matrix(-.1 0 0 .1 251.4 205.8)"/><path d="M248.44 462.47c29.44 48.27 77.7 121.28 101.26 170.73 26.3-51.8 74.96-128.34 104.8-175.44-31.8 36.1-71.83 88.7-104.8 116.56-33.36-27.87-70.25-78.1-101.26-111.86z" transform="matrix(-.1 0 0 .1 256.5 214.5)"/><path d="M332.03 604.94c1.18 0 21.2-164.84 21.2-164.84l17.65 164.84-20 28.26-18.85-28.26z" transform="matrix(-.1 0 0 .1 255.3 212.8)"/><path d="M248.44 462.47c29.44 48.27 77.7 121.28 101.26 170.73 26.3-51.8 74.96-128.34 104.8-175.44-31.8 36.1-71.83 88.7-104.8 116.56-33.36-27.87-70.25-78.1-101.26-111.86z" transform="matrix(-.1 0 0 .1 253.8 212.9)"/><path d="M332.03 604.94c1.18 0 21.2-164.84 21.2-164.84l17.65 164.84-20 28.26-18.85-28.26z" transform="matrix(-.1 0 0 .1 248.3 207.9)"/><path d="M248.44 462.47c29.44 48.27 77.7 121.28 101.26 170.73 26.3-51.8 74.96-128.34 104.8-175.44-31.8 36.1-71.83 88.7-104.8 116.56-33.36-27.87-70.25-78.1-101.26-111.86z" transform="matrix(-.1 0 0 .1 252.2 212.4)"/><path d="M332.03 604.94c1.18 0 21.2-164.84 21.2-164.84l17.65 164.84-20 28.26-18.85-28.26z" transform="matrix(-.1 0 0 .1 255.8 215.6)"/><path d="M248.44 462.47c29.44 48.27 77.7 121.28 101.26 170.73 26.3-51.8 74.96-128.34 104.8-175.44-31.8 36.1-71.83 88.7-104.8 116.56-33.36-27.87-70.25-78.1-101.26-111.86z" transform="matrix(-.1 0 0 .1 248.8 211)"/><path d="M332.03 604.94c1.18 0 21.2-164.84 21.2-164.84l17.65 164.84-20 28.26-18.85-28.26z" transform="matrix(-.1 0 0 .1 238.5 204.6)"/><path d="M248.44 462.47c29.44 48.27 77.7 121.28 101.26 170.73 26.3-51.8 74.96-128.34 104.8-175.44-31.8 36.1-71.83 88.7-104.8 116.56-33.36-27.87-70.25-78.1-101.26-111.86z" transform="matrix(-.1 0 0 .1 249.4 212.5)"/><path d="M332.03 604.94c1.18 0 21.2-164.84 21.2-164.84l17.65 164.84-20 28.26-18.85-28.26z" transform="matrix(-.1 0 0 .1 247.8 211.2)"/><path d="M248.44 462.47c29.44 48.27 77.7 121.28 101.26 170.73 26.3-51.8 74.96-128.34 104.8-175.44-31.8 36.1-71.83 88.7-104.8 116.56-33.36-27.87-70.25-78.1-101.26-111.86z" transform="matrix(-.1 0 0 .1 250.2 213.9)"/><path d="M332.03 604.94c1.18 0 21.2-164.84 21.2-164.84l17.65 164.84-20 28.26-18.85-28.26z" transform="matrix(-.1 0 0 .1 243.9 209.9)"/><path d="M248.44 462.47c29.44 48.27 77.7 121.28 101.26 170.73 26.3-51.8 74.96-128.34 104.8-175.44-31.8 36.1-71.83 88.7-104.8 116.56-33.36-27.87-70.25-78.1-101.26-111.86z" transform="matrix(-.1 0 0 .1 250.8 216.9)"/><path d="M332.03 604.94c1.18 0 21.2-164.84 21.2-164.84l17.65 164.84-20 28.26-18.85-28.26z" transform="matrix(-.1 0 0 .1 254.4 220)"/><path d="M248.44 462.47c29.44 48.27 77.7 121.28 101.26 170.73 26.3-51.8 74.96-128.34 104.8-175.44-31.8 36.1-71.83 88.7-104.8 116.56-33.36-27.87-70.25-78.1-101.26-111.86z" transform="matrix(-.1 0 0 .1 247.9 214.9)"/><path d="M332.03 604.94c1.18 0 21.2-164.84 21.2-164.84l17.65 164.84-20 28.26-18.85-28.26z" transform="matrix(-.1 0 0 .1 236.3 209.8)"/><path d="M248.44 462.47c29.44 48.27 77.7 121.28 101.26 170.73 26.3-51.8 74.96-128.34 104.8-175.44-31.8 36.1-71.83 88.7-104.8 116.56-33.36-27.87-70.25-78.1-101.26-111.86z" transform="matrix(-.1 0 0 .1 242.1 213)"/><path d="M332.03 604.94c1.18 0 21.2-164.84 21.2-164.84l17.65 164.84-20 28.26-18.85-28.26z" transform="matrix(-.1 0 0 .1 238.3 210.3)"/><path d="M248.44 462.47c29.44 48.27 77.7 121.28 101.26 170.73 26.3-51.8 74.96-128.34 104.8-175.44-31.8 36.1-71.83 88.7-104.8 116.56-33.36-27.87-70.25-78.1-101.26-111.86z" transform="matrix(-.1 0 0 .1 241.8 214)"/><path d="M332.03 604.94c1.18 0 21.2-164.84 21.2-164.84l17.65 164.84-20 28.26-18.85-28.26z" transform="matrix(-.1 0 0 .1 232.9 211.2)"/><path d="M248.44 462.47c29.44 48.27 77.7 121.28 101.26 170.73 26.3-51.8 74.96-128.34 104.8-175.44-31.8 36.1-71.83 88.7-104.8 116.56-33.36-27.87-70.25-78.1-101.26-111.86z" transform="matrix(-.1 0 0 .1 237 213.9)"/><path d="M332.03 604.94c1.18 0 21.2-164.84 21.2-164.84l17.65 164.84-20 28.26-18.85-28.26z" transform="matrix(-.1 0 0 .1 243.9 215.7)"/><path d="M248.44 462.47c29.44 48.27 77.7 121.28 101.26 170.73 26.3-51.8 74.96-128.34 104.8-175.44-31.8 36.1-71.83 88.7-104.8 116.56-33.36-27.87-70.25-78.1-101.26-111.86z" transform="matrix(-.1 0 0 .1 233.5 214.5)"/><path d="M332.03 604.94c1.18 0 21.2-164.84 21.2-164.84l17.65 164.84-20 28.26-18.85-28.26z" transform="matrix(0 0 0 .1 221.6 214.4)"/><path d="M248.44 462.47c29.44 48.27 77.7 121.28 101.26 170.73 26.3-51.8 74.96-128.34 104.8-175.44-31.8 36.1-71.83 88.7-104.8 116.56-33.36-27.87-70.25-78.1-101.26-111.86z" transform="matrix(-.1 0 0 .1 233.8 216)"/><path d="M332.03 604.94c1.18 0 21.2-164.84 21.2-164.84l17.65 164.84-20 28.26-18.85-28.26z" transform="matrix(-.1 0 0 .1 231.8 215.7)"/><path d="M248.44 462.47c29.44 48.27 77.7 121.28 101.26 170.73 26.3-51.8 74.96-128.34 104.8-175.44-31.8 36.1-71.83 88.7-104.8 116.56-33.36-27.87-70.25-78.1-101.26-111.86z" transform="matrix(-.1 0 0 .1 232.5 217.6)"/><path d="M332.03 604.94c1.18 0 21.2-164.84 21.2-164.84l17.65 164.84-20 28.26-18.85-28.26z" transform="matrix(0 0 0 .1 225.4 217.8)"/><path d="M248.44 462.47c29.44 48.27 77.7 121.28 101.26 170.73 26.3-51.8 74.96-128.34 104.8-175.44-31.8 36.1-71.83 88.7-104.8 116.56-33.36-27.87-70.25-78.1-101.26-111.86z" transform="matrix(-.1 0 0 .1 232.3 219.5)"/><path d="M332.03 604.94c1.18 0 21.2-164.84 21.2-164.84l17.65 164.84-20 28.26-18.85-28.26z" transform="matrix(-.1 0 0 .1 236.9 219.5)"/><path d="M248.44 462.47c29.44 48.27 77.7 121.28 101.26 170.73 26.3-51.8 74.96-128.34 104.8-175.44-31.8 36.1-71.83 88.7-104.8 116.56-33.36-27.87-70.25-78.1-101.26-111.86z" transform="matrix(-.1 0 0 .1 228.9 220.8)"/><path d="M332.03 604.94c1.18 0 21.2-164.84 21.2-164.84l17.65 164.84-20 28.26-18.85-28.26z" transform="matrix(0 .1 .1 0 213.9 222.9)"/><path d="M248.44 462.47c29.44 48.27 77.7 121.28 101.26 170.73 26.3-51.8 74.96-128.34 104.8-175.44-31.8 36.1-71.83 88.7-104.8 116.56-33.36-27.87-70.25-78.1-101.26-111.86z" transform="matrix(0 0 0 .1 227.2 221.5)"/><path d="M332.03 604.94c1.18 0 21.2-164.84 21.2-164.84l17.65 164.84-20 28.26-18.85-28.26z" transform="matrix(0 0 0 .1 225.2 221.7)"/><path d="M248.44 462.47c29.44 48.27 77.7 121.28 101.26 170.73 26.3-51.8 74.96-128.34 104.8-175.44-31.8 36.1-71.83 88.7-104.8 116.56-33.36-27.87-70.25-78.1-101.26-111.86z" transform="matrix(0 0 0 .1 226.2 223.4)"/><path d="M332.03 604.94c1.18 0 21.2-164.84 21.2-164.84l17.65 164.84-20 28.26-18.85-28.26z" transform="matrix(0 .1 0 0 217 226.4)"/><path d="M248.44 462.47c29.44 48.27 77.7 121.28 101.26 170.73 26.3-51.8 74.96-128.34 104.8-175.44-31.8 36.1-71.83 88.7-104.8 116.56-33.36-27.87-70.25-78.1-101.26-111.86z" transform="matrix(0 0 0 .1 224 225.8)"/><path d="M332.03 604.94c1.18 0 21.2-164.84 21.2-164.84l17.65 164.84-20 28.26-18.85-28.26z" transform="matrix(0 0 0 .1 228.4 224.3)"/><path d="M248.44 462.47c29.44 48.27 77.7 121.28 101.26 170.73 26.3-51.8 74.96-128.34 104.8-175.44-31.8 36.1-71.83 88.7-104.8 116.56-33.36-27.87-70.25-78.1-101.26-111.86z" transform="matrix(0 .1 0 0 221.1 228.2)"/><path d="M332.03 604.94c1.18 0 21.2-164.84 21.2-164.84l17.65 164.84-20 28.26-18.85-28.26z" transform="matrix(0 .1 .1 0 203.7 238.1)"/><path d="M248.44 462.47c29.44 48.27 77.7 121.28 101.26 170.73 26.3-51.8 74.96-128.34 104.8-175.44-31.8 36.1-71.83 88.7-104.8 116.56-33.36-27.87-70.25-78.1-101.26-111.86z" transform="matrix(0 .1 0 0 221.9 229.3)"/><path d="M332.03 604.94c1.18 0 21.2-164.84 21.2-164.84l17.65 164.84-20 28.26-18.85-28.26z" transform="matrix(0 .1 .1 0 212.5 232.5)"/><path d="M248.44 462.47c29.44 48.27 77.7 121.28 101.26 170.73 26.3-51.8 74.96-128.34 104.8-175.44-31.8 36.1-71.83 88.7-104.8 116.56-33.36-27.87-70.25-78.1-101.26-111.86z" transform="matrix(0 .1 .1 0 214.1 233.7)"/><path d="M332.03 604.94c1.18 0 21.2-164.84 21.2-164.84l17.65 164.84-20 28.26-18.85-28.26z" transform="matrix(0 .1 .1 0 208.6 238.5)"/><path d="M248.44 462.47c29.44 48.27 77.7 121.28 101.26 170.73 26.3-51.8 74.96-128.34 104.8-175.44-31.8 36.1-71.83 88.7-104.8 116.56-33.36-27.87-70.25-78.1-101.26-111.86z" transform="matrix(0 .1 .1 0 214.9 235.4)"/><path d="M332.03 604.94c1.18 0 21.2-164.84 21.2-164.84l17.65 164.84-20 28.26-18.85-28.26z" transform="matrix(0 .1 .1 0 218.6 232.4)"/><path d="M248.44 462.47c29.44 48.27 77.7 121.28 101.26 170.73 26.3-51.8 74.96-128.34 104.8-175.44-31.8 36.1-71.83 88.7-104.8 116.56-33.36-27.87-70.25-78.1-101.26-111.86z" transform="matrix(0 .1 .1 0 212.9 238.7)"/><path d="M332.03 604.94c1.18 0 21.2-164.84 21.2-164.84l17.65 164.84-20 28.26-18.85-28.26z" transform="matrix(0 .1 .1 0 204.8 248.2)"/><path d="M332.03 604.94c1.18 0 21.2-164.84 21.2-164.84l17.65 164.84-20 28.26-18.85-28.26z" transform="matrix(0 0 0 0 274.9 234.9)"/><path d="M248.44 462.47c29.44 48.27 77.7 121.28 101.26 170.73 26.3-51.8 74.96-128.34 104.8-175.44-31.8 36.1-71.83 88.7-104.8 116.56-33.36-27.87-70.25-78.1-101.26-111.86z" transform="matrix(0 0 0 0 272.8 235.1)"/><path d="M332.03 604.94c1.18 0 21.2-164.84 21.2-164.84l17.65 164.84-20 28.26-18.85-28.26z" transform="matrix(0 0 0 0 276.8 232)"/><path d="M248.44 462.47c29.44 48.27 77.7 121.28 101.26 170.73 26.3-51.8 74.96-128.34 104.8-175.44-31.8 36.1-71.83 88.7-104.8 116.56-33.36-27.87-70.25-78.1-101.26-111.86z" transform="matrix(0 0 0 0 276.1 231.4)"/><path d="M332.03 604.94c1.18 0 21.2-164.84 21.2-164.84l17.65 164.84-20 28.26-18.85-28.26z" transform="matrix(0 0 0 0 270.4 237.2)"/><path d="M248.44 462.47c29.44 48.27 77.7 121.28 101.26 170.73 26.3-51.8 74.96-128.34 104.8-175.44-31.8 36.1-71.83 88.7-104.8 116.56-33.36-27.87-70.25-78.1-101.26-111.86z" transform="matrix(0 0 0 0 272.3 233.9)"/><path d="M332.03 604.94c1.18 0 21.2-164.84 21.2-164.84l17.65 164.84-20 28.26-18.85-28.26z" transform="matrix(0 0 0 0 275.1 228.3)"/><path d="M248.44 462.47c29.44 48.27 77.7 121.28 101.26 170.73 26.3-51.8 74.96-128.34 104.8-175.44-31.8 36.1-71.83 88.7-104.8 116.56-33.36-27.87-70.25-78.1-101.26-111.86z" transform="matrix(0 0 0 0 268.2 237.7)"/><path d="M332.03 604.94c1.18 0 21.2-164.84 21.2-164.84l17.65 164.84-20 28.26-18.85-28.26z" transform="matrix(0 0 0 0 268.3 236.6)"/><path d="M332.03 604.94c1.18 0 21.2-164.84 21.2-164.84l17.65 164.84-20 28.26-18.85-28.26z" transform="matrix(0 .1 .1 0 199.6 249.2)"/><path d="M332.03 604.94c1.18 0 21.2-164.84 21.2-164.84l17.65 164.84-20 28.26-18.85-28.26z" transform="matrix(0 .1 .1 0 206.9 241.8)"/><path d="M332.03 604.94c1.18 0 21.2-164.84 21.2-164.84l17.65 164.84-20 28.26-18.85-28.26z" transform="matrix(0 .1 .1 0 204.4 248.5)"/><path d="M248.44 462.47c29.44 48.27 77.7 121.28 101.26 170.73 26.3-51.8 74.96-128.34 104.8-175.44-31.8 36.1-71.83 88.7-104.8 116.56-33.36-27.87-70.25-78.1-101.26-111.86z" transform="matrix(0 .1 .1 0 209.9 244.1)"/><path d="M332.03 604.94c1.18 0 21.2-164.84 21.2-164.84l17.65 164.84-20 28.26-18.85-28.26z" transform="matrix(0 .1 .1 0 212.8 240.3)"/><path d="M248.44 462.47c29.44 48.27 77.7 121.28 101.26 170.73 26.3-51.8 74.96-128.34 104.8-175.44-31.8 36.1-71.83 88.7-104.8 116.56-33.36-27.87-70.25-78.1-101.26-111.86z" transform="matrix(0 .1 .1 0 208.7 247.7)"/><path d="M332.03 604.94c1.18 0 21.2-164.84 21.2-164.84l17.65 164.84-20 28.26-18.85-28.26z" transform="matrix(0 .1 .1 0 203 258.7)"/><path d="M332.03 604.94c1.18 0 21.2-164.84 21.2-164.84l17.65 164.84-20 28.26-18.85-28.26z" transform="matrix(0 .1 .1 0 201.5 254)"/><path d="M332.03 604.94c1.18 0 21.2-164.84 21.2-164.84l17.65 164.84-20 28.26-18.85-28.26z" transform="matrix(0 .1 .1 0 208.2 246.2)"/><path d="M332.03 604.94c1.18 0 21.2-164.84 21.2-164.84l17.65 164.84-20 28.26-18.85-28.26z" transform="matrix(0 .1 .1 0 206.3 253.1)"/><path d="M248.44 462.47c29.44 48.27 77.7 121.28 101.26 170.73 26.3-51.8 74.96-128.34 104.8-175.44-31.8 36.1-71.83 88.7-104.8 116.56-33.36-27.87-70.25-78.1-101.26-111.86z" transform="matrix(0 .1 .1 0 211.4 248.2)"/><path d="M332.03 604.94c1.18 0 21.2-164.84 21.2-164.84l17.65 164.84-20 28.26-18.85-28.26z" transform="matrix(0 .1 .1 0 214 244.3)"/><path d="M248.44 462.47c29.44 48.27 77.7 121.28 101.26 170.73 26.3-51.8 74.96-128.34 104.8-175.44-31.8 36.1-71.83 88.7-104.8 116.56-33.36-27.87-70.25-78.1-101.26-111.86z" transform="matrix(0 .1 .1 0 210.5 252)"/><path d="M332.03 604.94c1.18 0 21.2-164.84 21.2-164.84l17.65 164.84-20 28.26-18.85-28.26z" transform="matrix(0 .1 .1 0 205.6 263.3)"/></g><path d="M374.65 434.6c0 66.2-53.68 119.9-119.9 119.9-66.2 0-119.88-53.7-119.88-119.9s53.68-119.9 119.9-119.9c66.2 0 119.88 53.7 119.88 119.9z" fill-rule="evenodd" transform="matrix(.2 0 0 .2 212.3 178)" fill="#3d25ca"/><path d="M353.57 628.5l-130.85-89.52-130.85 89.5 49.07-143.2-114.5-89.5h147.2l49.08-143.22 49.07 143.2H419L304.5 485.3l49.08 143.2z" fill-rule="evenodd" transform="matrix(.1 0 0 .1 237.7 217.9)" fill="#ffd900"/><path d="M17.72 379.13l212.6 53.15" fill="none" transform="matrix(.1 0 0 .1 238.6 218.9)"/><path d="M261.63 242.64v19.5M261.63 262.13V271M261.63 262.13l8.86 3.54M256.32 256.8l5.3 5.33M261.63 262.13l5.32-5.32M282.9 256.8l-21.27 5.33M261.63 262.13l14.18 17.7M261.63 262.13l-14.17 17.7M252.77 265.67l8.86-3.54" fill="none" stroke-width=".264"/></g><path d="M298.15 256c0 23.27-18.88 42.15-42.15 42.15s-42.15-18.88-42.15-42.14 18.9-42.14 42.15-42.14c23.27 0 42.15 18.88 42.15 42.15zm14.05 0c0 31.03-25.18 56.2-56.2 56.2s-56.2-25.17-56.2-56.2S225 199.8 256 199.8s56.2 25.2 56.2 56.2z" fill-rule="evenodd" stroke="#000" stroke-width=".27358499999999997" fill="#d60000"/><path d="M298.84 266.08l3.7 1.37 6.14-1.12-.46 1.25-3.2.55c-.6.1-1.2.18-1.77.24.37.4.78.87 1.23 1.4l2 2.47-.43 1.2-3.9-4.96-3.7-1.37.4-1.02zM309.24 251.9l.12 1.07-5.35.6c-.92.1-1.67.08-2.24-.05-.56-.13-1.05-.4-1.45-.87-.38-.44-.62-1.06-.7-1.86-.1-.77 0-1.42.23-1.94.25-.52.64-.92 1.18-1.2.56-.26 1.32-.45 2.3-.56l5.35-.58.12 1.08-5.34.6c-.8.08-1.4.2-1.76.38-.36.17-.63.43-.8.78-.17.35-.23.75-.18 1.22.07.8.34 1.34.8 1.64.43.3 1.24.38 2.4.25l5.34-.58zM301.77 241.03l1.07-.22.7 3.44-3.4.7c-.57-.44-1.03-.9-1.4-1.42-.34-.5-.57-1.06-.7-1.65-.15-.8-.1-1.56.14-2.3.26-.72.7-1.32 1.37-1.8.66-.47 1.44-.8 2.34-1 .88-.17 1.74-.17 2.57 0 .84.18 1.5.53 2 1.08.5.54.84 1.2 1 2.02.12.6.12 1.13 0 1.65-.1.52-.34.95-.66 1.3-.32.34-.78.65-1.36.9l-.5-.9c.44-.2.78-.44 1-.67.23-.23.4-.53.48-.9.1-.37.1-.76.02-1.16-.1-.5-.27-.9-.5-1.23-.25-.33-.53-.57-.85-.74-.33-.16-.66-.27-1-.32-.62-.08-1.25-.06-1.9.07-.83.17-1.48.43-1.98.8-.5.35-.83.8-1 1.32-.17.52-.2 1.05-.1 1.58.1.47.3.9.58 1.3.3.4.58.7.85.88l1.7-.35-.48-2.37zM262.7 211.6l1.62-9.18 1.08.2-1.42 8.08 4 .7-.18 1.08-5.1-.9zM253.64 210.98v-9.32h5.97v1.1h-4.87v2.85h4.57v1.1h-4.57v3.18h5.07v1.1h-6.16zM227.84 216.83l1.03-.47c.48.9.67 1.77.57 2.56-.1.8-.5 1.46-1.15 2.02-.68.58-1.37.9-2.05.95-.7.04-1.4-.13-2.13-.53-.72-.4-1.37-.94-1.95-1.62-.63-.74-1.06-1.5-1.28-2.25-.23-.76-.23-1.48 0-2.16.2-.68.6-1.26 1.15-1.73.63-.53 1.3-.8 2.04-.8.73 0 1.46.24 2.2.75l-.64.92c-.6-.4-1.12-.6-1.6-.58-.48 0-.92.17-1.34.53-.5.4-.78.88-.88 1.42-.1.54-.03 1.08.22 1.64.24.54.56 1.05.96 1.5.52.62 1.04 1.08 1.58 1.4.54.3 1.07.44 1.6.38.5-.06.96-.25 1.34-.58.47-.4.73-.9.8-1.46.06-.58-.1-1.22-.5-1.9zM223.94 225.02L217 218.8l.74-.8 6.93 6.2-.73.82zM219.46 230.3l-7.4-5.66.68-.87 6.5 5 2.5-3.22.86.67-3.14 4.1zM205.6 235.8l.4-1 5 1.98c.88.34 1.54.7 1.98 1.08.44.38.73.86.88 1.44.13.58.06 1.24-.24 1.98-.28.72-.65 1.26-1.1 1.6-.48.35-1 .52-1.6.5-.62 0-1.4-.2-2.3-.57l-5-1.97.4-1.02 5 2c.74.3 1.32.45 1.73.47.4.02.76-.1 1.08-.3.3-.24.55-.57.72-1 .3-.75.32-1.36.06-1.83-.24-.47-.9-.92-2-1.35l-5-2zM211.04 258.35l-9.3.08-.06-5.97h1.1l.04 4.87 2.85-.03-.04-4.57h1.1l.03 4.56 3.17-.03-.04-5.07h1.1l.04 6.15zM245.83 212.3l-1.84-9.14 2.78-.56c.63-.12 1.12-.18 1.46-.16.5.03.93.17 1.32.42.5.32.94.77 1.27 1.37.35.6.6 1.3.76 2.1.13.7.18 1.32.15 1.9-.04.55-.13 1.03-.28 1.43-.16.4-.35.72-.58.98-.23.25-.52.47-.88.65-.36.17-.78.3-1.27.4l-2.92.6zm.86-1.3l1.7-.35c.55-.1.95-.24 1.23-.42.3-.17.5-.38.64-.62.2-.33.3-.75.35-1.26.05-.5 0-1.12-.14-1.8-.2-.96-.48-1.67-.86-2.12-.38-.46-.8-.74-1.22-.83-.3-.08-.8-.05-1.42.08l-1.7.35 1.4 6.97zM275.94 216l4.3-8.25 2.77 1.44c.5.25.85.47 1.08.65.33.26.56.55.7.86.15.33.2.7.17 1.1-.03.43-.15.85-.36 1.26-.38.7-.88 1.2-1.54 1.47-.64.28-1.5.15-2.52-.4l-1.88-.97-1.75 3.36-.96-.5zm3.23-3.8l1.9.97c.62.33 1.13.43 1.53.3.4-.12.72-.42.97-.9.18-.35.26-.68.23-1-.02-.33-.14-.6-.35-.8-.14-.15-.43-.33-.87-.56l-1.87-.97-1.53 2.96zM280.7 218.47l8.58-4.82.88.8-3.7 9.18-.94-.83 1.17-2.74-2.58-2.3-2.56 1.48-.86-.77zm4.33-1.26l2.08 1.88 1.1-2.5c.32-.75.6-1.36.85-1.82-.48.37-1 .7-1.52 1.02l-2.5 1.43zM287.36 224.73l7.4-5.67 2.2 2.9c.46.6.74 1.08.83 1.5.1.4.05.82-.15 1.26-.2.44-.5.8-.9 1.12-.53.4-1.08.6-1.67.57-.6 0-1.18-.3-1.76-.86.05.33.06.6.03.8-.06.46-.2.95-.43 1.48l-1.13 2.68-.85-1.1.87-2.03c.25-.6.43-1.07.54-1.4.1-.35.16-.63.15-.83 0-.2-.03-.38-.1-.55-.04-.12-.15-.3-.33-.52l-.77-1-3.28 2.52-.66-.87zm4.8-2.3l1.42 1.86c.3.4.6.66.85.82.26.15.54.2.83.17.3-.05.56-.17.8-.35.35-.27.55-.6.6-1 .06-.4-.1-.84-.47-1.32l-1.6-2.08-2.45 1.88zM292.34 231.1l9.68-1.78.57 1.03-6.5 7.5-.6-1.1 2-2.2-1.7-3.03-2.9.6-.56-1.03zm4.5.2l1.36 2.45 1.84-2c.55-.62 1.02-1.1 1.4-1.46-.58.2-1.17.35-1.77.47l-2.83.54zM300.53 255.2l8.94 4.13-.13 1.17-9.6 2.4.12-1.24 2.9-.67.36-3.44-2.7-1.2.1-1.15zm3.56 2.78l-.3 2.78 2.65-.6c.8-.17 1.47-.3 1.98-.37-.58-.18-1.15-.4-1.72-.64l-2.6-1.18zM212.5 266.9l-9.08 2.02-.8-3.58c-.15-.72-.2-1.28-.1-1.7.07-.4.3-.76.66-1.08.36-.3.8-.53 1.3-.64.64-.14 1.23-.07 1.75.2.53.27.93.78 1.22 1.53.1-.32.2-.56.32-.74.25-.38.6-.76 1-1.15l2.18-1.94.3 1.35-1.66 1.48c-.5.43-.85.78-1.1 1.05-.24.26-.4.5-.5.68-.07.18-.1.36-.12.53 0 .12.02.32.1.6l.26 1.24 4.04-.9.23 1.07zm-5.3.06l-.5-2.3c-.12-.48-.26-.85-.43-1.1-.18-.25-.4-.4-.68-.5-.3-.1-.6-.1-.88-.04-.43.1-.75.32-.97.66-.22.33-.26.8-.13 1.4l.57 2.55 3-.67zM211.38 250.1l-9.28-.8.26-3.1c.05-.55.12-.97.2-1.25.1-.4.3-.72.52-.98.24-.25.56-.45.95-.58.4-.14.83-.2 1.3-.15.78.07 1.43.35 1.94.84.5.48.7 1.3.6 2.47l-.17 2.1 3.77.34-.1 1.1zm-4.78-1.5l.2-2.14c.05-.7-.06-1.2-.33-1.54-.27-.32-.67-.5-1.2-.55-.4-.03-.73.03-1.02.18-.3.15-.5.36-.6.64-.08.17-.14.5-.18 1l-.18 2.1 3.3.3zM215.27 236.33l-7.75-5.17 1.72-2.58c.35-.52.7-.9 1.08-1.1.37-.22.77-.3 1.22-.26.44.03.84.17 1.2.4.33.23.6.5.78.87.18.34.26.74.22 1.18.42-.32.87-.48 1.35-.5.47 0 .93.16 1.38.46.37.24.66.54.88.88.22.34.35.67.4.98s-.02.65-.13 1.02c-.12.35-.32.75-.6 1.2l-1.76 2.6zm-3.9-3.9l1-1.5c.27-.4.44-.7.5-.92.07-.27.06-.53-.05-.77-.1-.24-.28-.45-.55-.63-.26-.17-.52-.27-.8-.3-.26 0-.5.06-.7.2-.2.17-.48.5-.8 1l-.93 1.36 2.34 1.56zm3.6 2.38l1.13-1.7c.2-.3.32-.5.38-.65.1-.23.14-.46.14-.66 0-.22-.07-.43-.2-.65-.13-.2-.32-.4-.56-.57-.3-.2-.6-.3-.9-.3-.3 0-.56.07-.8.25-.24.17-.5.47-.8.9l-1.06 1.6 2.66 1.78zM230.62 218.47l-2.26-9.58 1-.63 7.8 6.1-1.05.65-2.3-1.88-2.93 1.84.74 2.87-.98.62zm0-4.5l2.36-1.5-2.1-1.72c-.64-.53-1.15-.97-1.53-1.33.23.56.42 1.15.57 1.75l.7 2.8z" fill="#ffe600"/></g></svg>