<svg xmlns="http://www.w3.org/2000/svg" height="480" width="640"><defs><clipPath id="a"><path fill-opacity=".67" d="M0 0h682.67v512H0z"/></clipPath></defs><g fill-rule="evenodd" clip-path="url(#a)" transform="scale(.9)" stroke-width="1pt"><path d="M0 507.17L987.43 0H0v507.17z" fill="#0000d6"/><path d="M1024 0L27.17 512H1024V0z" fill="#006000"/><path d="M1024 0h-54.86L0 485.36V512h54.86L1024 27.6V0z" fill="#fc0"/><path fill="#fff" d="M71.4 9.12l11.85 34.45 38.47-.03L90.58 64.8 102.5 99.2l-31.1-21.3-31.1 21.3 11.9-34.43-31.13-21.27 38.47.04M262.54 9.12l11.86 34.45 38.47-.03-31.15 21.25 11.92 34.42-31.1-21.3-31.1 21.3 11.9-34.43-31.13-21.27 38.48.04M262.54 153.6l11.86 34.44 38.47-.02-31.15 21.25 11.92 34.43-31.1-21.3-31.1 21.3 11.9-34.43L212.22 188l38.48.04M167.53 82.2l11.85 34.45 38.47-.03-31.14 21.26 11.93 34.42-31.1-21.3-31.1 21.3 11.9-34.42-31.13-21.27 38.47.05M71.4 153.6l11.85 34.44 38.47-.02-31.14 21.25 11.92 34.43-31.1-21.3-31.1 21.3 11.9-34.43L21.08 188l38.47.04"/></g></svg>