<svg xmlns="http://www.w3.org/2000/svg" height="480" width="640" version="1"><path d="M640 480.02V.02H0v480h640z" fill="#006"/><path d="M0 73.34h76.03L0 26.77V.03h43.5l106.36 64.72V.03h59.9v64.72L316.1.03H360v26.74l-76.42 46.57h76.4v73.37h-76.4l76.4 46.58v26.75h-43.87L209.76 155.3v64.73h-59.9V155.3L43.5 220.03H0v-26.75l76.03-46.57H0V73.35z" fill="#fff"/><path fill="#ce1126" d="M331.7.03L211.52 73.4h28.76L359.97.02h-28.3zM360 220.03L240.18 146.7h28.9L360 202.56v17.48zM120.38 73.37L-.02 0v17.53l91.38 55.84h29.02zM120.13 146.7L0 220h28.74l120.15-73.3h-28.77z"/><path fill="#ce1126" d="M0 88.56H162.6V.03h35.2v88.53h162.17v42.96H197.8v88.5h-35.18v-88.5H0V88.56z"/><g><path d="M399.67 640.77c-.05 16.33-2.62 33.93-23.76 42.3-21.14-8.37-23.7-25.97-23.76-42.3h47.53z" stroke-width="1.11" fill="#8fc5ff" transform="matrix(4.5 0 0 4.5 -1190.9 -2609)" stroke="#fff"/><path d="M500.65 464.86c43.13-17.1 69.1-42.72 84.6-72.47-2.32.08-7.2-.06-9.3-.2-2.33-.15-91.2-9.08-101.73-12.94-9.16-3.36-44.1 2.85-60.4 8.68 15.2 31.64 41.56 58.97 86.83 76.92z" fill="#366cc9" stroke-width="4.95" stroke="#000"/><path d="M434.18 419.28c1.46-.48 4.23-.36 5.33-.17 1.3.25 1.53.36 2-1.04s1.52-1.05 2.34-.35 2.92.36 3.74-.8c.82-1.18 1.05-1.06 1.87-.24.82.82 1.17.58 2 .35.8-.22 2.2-1.16 2.9-2.45s1.76-1.75 2.35-1.05 1.17 1.05 2 .94 1.04.7.92 1.75c-.1 1.04.35 1.28 2.34-.36 1.76 1.75 2.34 1.05 2.34-.82s-.46-8.77-1.17-9.7-1.4-3.63-1.52-5.74c-.2-3.97-.22-4.2-5.02-6.66 0-1.4-.35-2-3.74-1.76.12-.46-.47-1.87-1.17-2.45s-.82-.8-.47-2.45c1.4.12 2.93-.1 3.75-1.28.8-1.17 3.5-.94 5.14-.24s3.74.82 6.9.35c1.16-.93 3.15-1.98 5.25-3.15s2.7-1.64 2.8-3.28c.3-4.2-1.16-9-2.33-11.22-1.17-2.23-1.52-5.03-3.16-8.54-1.78-3.84-1.75-4.8-3.74-7.15-.54-.64-1.17-1.17-1.3-2.45-.1-1.3-.57-3.04-1.97-4.33-3.54-3.24-4.92-13.68-6.32-21.4-.8-4.42-.23-14.85-2.1-16.5-3.16-2.56-4.68-2.1-6.8-2.9-1.5-2.12-2.2-6.33-3.6-10.07-2.23.35-3.75 2.7-5.27 3.5s-1.76.83-1.76 2.93-1.17 5.03-3.27 8.3c-2.1 3.28-5.62 2.35-8.54 7.26-6.44-7.85-6.56-10.07-7.03-12.3-.47-2.2-1.52-2.68-5.14-5.84 0-.94-.47-4.68-.12-6.78-2.68-2.22-4.67-1.87-5.95-.24-1.3 1.64-2.22 4.1-4.2 5.03-1.2 1.52-4.8 5.34-7.74 9.9 2.68 40.7 11.87 81.1 39.5 113.4z" fill="#5d3100" stroke-width=".6300000000000001" stroke="#000"/><path d="M607.6 274.47c.1-27.7-1.44-54.57-.74-78.12-35.55-15.9-82.33-19.18-106.18-19.18-23.86 0-70.64 3.27-106.2 19.18.7 23.55-.82 50.43-.75 78.12h213.9z" stroke-width="4.86" stroke="#fff" fill="#ff0"/><path d="M399.5 306.5c1.16 1.88 3.27 5.1 3.5 6.85.82-1.7 1.46-2.46 1.64-3.5s1.4-3.1.93-4.22-.82-2 .47-1.17c1.28.82 1.04 2.23.76 4.33-.76 5.72-3.16 6.9-3.5 10.75 3.44 8.12.87 11.05 4.6 19 .6.35 2.16-.27 2.62-.16 2-1.4 3.47-.9 6.28-.32 2.8.6 4.33 2.57 4.33 4.33s0 2.23.58 3.28 1.77 2.7 1.53 3.86c-.23 1.17.24 1.87.6 2.46s-.13 1.87-.48 2.7-.24 1.86 1.17 3.6c1.4 1.76 4.67 9.14 4.67 13.46 0 4.33.23 6.32 1.98 7.13 1.76.8 2.34 1.5 2.1 3.4s.83 11.56 1.06 13.08.82 1.17 1.52 2c.7.8 1.17 1.74 3.5 1.74s4.6-.3 6.13-.07c2.1 2.92 3.38 6.9 3.85 9.35s.43 5.8 1.25 5.8 1.63.13 1.4-2.9-.47-3.52-1.52-5.04-1.64-2.22-1.05-3.16.7-2.46.46-3.63-.6-2.92 1.4-.58c2 2.33 2.57 2.92 3.16 3.73s.8 2.34.7 3.75c-.12 1.4.1 1.98.93 1.28.8-.7 1.86.47 1.4 2s.1 2.45 1.52 2.9 2 .83 2.34 1.9 1.52 1.5 1.52-.6-.82-6.55-1.4-7.95c-.6-1.4-1.06-4.44-1.18-6.2s-.47-2.2-1.28-2.56-1.52-.94-1.64-1.76-.82-1.1-1.35-1.1-1-.42-1.28-1-.58-.64-1.17-.7-1.52.3-1.8-.65-.72-2.28-1.3-3.04-1.1-1-1.17-3.63c-.05-2.63-.1-2.98-.93-3.92s-2.22-3.4-2.8-4.44c-.58-1.05-1.17-2.1-1.17.12s0 3.4 1.4 4.2c1.4.83 1.75.83 1.17 2s0 2 .23 2.8.7 1.65 0 2.46c-.7.82-1.4.6-1.28-.7.1-1.28-.35-2.8-.93-3.86-.6-1.05-1.07-1.75-1.77-1.17s-1.3-.1-.82-.58.36-.82 0-1.17-.46-.7.13-1.4.58-1.06.23-2.7c-.35-1.63-2.92-9.82-4.1-11.7s-1.05-3.26.47-1.4 2.8 3.52 2.93 5.03c.12 1.53.47 2.46.94 3.05s.8.35 1.05-.94 1.17-.82-.47-3.27c-1.64-2.46-4.68-6.55-5.85-13.92s-1.64-12.28-2.8-14.26c-1.17-2-1.52-2.47-1.64-4.34s0-3.75-.83-5.15c-.82-1.4-1.4-1.63-1.52.48-.12 2.1.12 6.78.7 7.6s.24 2.92.12 4.1-1.96 2.32 1.87 4.67c1.52.94 1.28 2.23 1.05 3.04-.24.8-.47.7-1.3-.6-.8-1.28-1.63-2.33-2.45-3.03s-.94-1.17-.82-2.8.47-2.82 0-3.4c-.47-.58-.7-.12-.94.82-.24.92-.47 3.5-.94 4.2s-.7.23-1.05-1.3.12-3.85.94-6.54 1.3-5.5.6-9c-.72-3.5-.36-4.56-3.06-7.5-2.68-2.9-5.72-5.72-7-9.34-1.3-3.63-1.53-6.8-2.94-8.42-1.4-1.64-3.38-3.74-4.67-4.33v-5.38c0-1.3-.6-2.1-2.1-1.88s-2.46 1.52-3.4 3.27c-.93 1.75-1.63.93-2.92 3.97s-3.16 4.56-3.16 7.84z" fill="#cf6200"/><path d="M407.95 340.8c.94.58 1.83.97 3.24.27s3.07-2.73 4.94-.74c1.87 2 2.92 5.26 2.92 7.84 0 2.57 0 7.36 2.93 10.05 2.9 2.7 4.43 5.5 4.54 9 .12 3.5 1.4 8.9 1.76 10.3.35 1.4 1.17 3.04 2.1 3.97s1.64 3.62 1.76 6.42c.12 2.8-.35 4.8 0 6.2s0 2.58-1.05 1.88-1.28-1.06-1.86-2.23-1.3-.93-.7.82 2.33 3.38 3.85 3.38 1.98.24 2.92 1.17c.93.94 1.05 1.4 2.7 1.4s1.86 0 3.38.47 1.52.24 2.34 0 1.63.47 2.22 2 2 5.72 2 6.9 0 2.33.8 3.5.6 2.34-.35 1.64-.92-.47-1.62-.35-1.17-.23-2.1-.8c-.94-.6-.36-.48-1.3-1.88s-1.5-1.88-1.5-.82-.13 2.34-.83 1.75-1.06-.58-1.64 0-.8 1.06-1.5-.1-1.53-1.18-2.23-1.42-.7-.23-1.05-1.3c-.35-1.04-1.4-1.27-2.34-1.27s-1.4-.47-1.52-1.17c-.12-.7-.7-1.18-1.17-1.53s-.25-1.17-.37-2-.8-.46-1.28-.7-.82-.1-.82-1.28-.47-1.53-.82-2.35c-.34-.82 0-1.63.24-2.57.24-.93.12-1.52-.58-2.34-.7-.82-.1-1.63-2-3.27s-2.8-.24-3.38-4.1c-.58-3.85-1.75-11.8-2.8-13.1s-1.76-2.22-2.8-2.57-1.76-.1-1.88-2.34c-.12-2.2-.82-5.02-2.22-6.43s-2-1.87-2.7-2.45-.93-1.64 0-3.63c.94-2 .6-4.68.47-5.96-.1-1.3-.47-2.93-.23-4.34s.12-3.16-.24-4.1-.8-1.16-.23-1.86zM436.12 307.54c-1.58 2.04-3.27 3.74-5.45 5.3-2.2 1.56-5 2.8-3.44 5.46 1.56 2.65 2.8 2.96 3.12 5 .32 2 .78 3.73 2.34 4.2 1.55.47 2.17.15 2.17 3.43s0 4.52 1.4 5.77 1.25 2.5 1.88 5.46c.62 2.96.62 9.35 2.5 13.72s6.08 12.63 5.6 14.34-1.1 2.97.8 5c1.86 2.02 3.1 4.98 3.26 6.7.17 1.7.48 2.34 2.35 1.7 1.87-.6 2.8-1.24 3.43-2 .62-.8 1.87-.64 3.6.3 1.7.93 4.35 1.87 5.9.93 1.57-.93 2.35-2.33 3.75-2.33 2.2-1.57 2.97-4.84 3.43-5.77.47-.94.16-.94-.78-1.87s-.46-2.5-.62-4.06c-.15-1.56-.78-3.9-2.65-7.33-1.86-3.44-2.95-7.65-4.2-8.74-1.25-1.1-1.87-3.74-2.03-5-.15-1.24-1.56-2.33-2.5-3.27-.93-.94-1.86-2.34-2.95-7.8-1.1-5.46-1.87-9.36-1.87-10.3s-.16-1.1-1.1-1.4-1.4-1.87-1.1-2.65c.32-.77-.3-1.55-.6-2.5s0-2.64.6-3.58c.63-.93.48-3.58-.14-5.76s-1.24-4.05-3.74-4.36c-2.5-.3-2.96-.94-3.9-2.97-.93-2.02-1.87-5.6-2.18-6.4-.3-.77-.78-.93-2.65.64-1.87 1.56-2.5 2.08-2.5 5 0 1.87.32 2.5.94 3.58.63 1.1.78 1.4 1.25 4.37s3.12 7.64-.3 10.3c-3.44 2.64-2.97 3.27-2.82 5.13.16 1.87-.93 3.12-1.56.47-.62-2.65 0-4.2 1.87-5.45 1.9-1.25 3.6-2.8 2.35-4.53-1.25-1.7-1.7-5.76-1.87-7.64s-.47-2.5-1.56-1.1z" fill="#cf6200"/><path d="M408.3 347.28c-.08 1.26.2 2.66.3 3.78.12 1.3.47 3.98-.46 5.97-.94 1.98-.7 3.03 0 3.62.04.03.08.06.1.1 1.92-.65 2.17-2.77 1.65-3.8-.55-1.1-.4-2.42.23-3.5.62-1.1.62-1.72.08-2.5-.54-.8-.54-.8.1-2.97.53-1.92-.85-1.9-2-.7zM428.3 377.5c-.36-1.4-1.65-6.77-1.77-10.28-.1-3.5-1.63-6.3-4.55-9-2.3-2.1-2.78-5.48-2.9-8.08-1.7-1.05-2.43-.57-2.3 1.37.17 2.12 2.27 3.13 1.96 6.17-.3 3.04-.3 2.26 1.17 3.74s2.04 2.9 1.26 3.52c-.78.62-.86 1.72.23 2.1 1.08.4 1.16 1.57 1 2.66-.15 1.1.86 1.32 1.48 2.1.63.78.7 2.65.1 3.75-.64 1.08-.72 2.8.37 1.87 1.1-.94 1.56-.08 2.42 1.4.74 1.28 1.36.87 2.17.5-.28-.6-.5-1.2-.65-1.8zM443.5 404.74c-.7 1.4-1.52.94-2.22.23s-1.52-.7-1.17-1.98.24-1.54-.7-2.24c-.1-.08-.2-.15-.32-.22H438c-1.64 0-1.75-.48-2.7-1.42-.2-.2-.38-.37-.56-.52-.02.23 0 .52 0 .88 0 1.28 0 1.05-1.3 1.4s-1.05-1.3-1.28-2.34c-.07-.27-.14-.47-.2-.63-1.42-.26-2.9-1.75-3.43-3.33-.6-1.76.12-2 .7-.82s.82 1.52 1.87 2.22 1.4-.47 1.06-1.87c-.12-.45-.14-.97-.13-1.55-.25-.46-.6-.83-1.04-1.03-1.9-.82-1.3-1.05-1.18-2.57.1-1.52-.24-1.52-1.4-.7-1.18.82-1.3-.12-1.3-2.45 0-2.34-1.52-2.34-1.86-.7-.35 1.63-.94.58-1.64-1.76s-1.64-2.93-1.76-.7c-.1 1.88-.62 2.33-1.84 1.28l.56 3.63c.58 3.86 1.52 2.45 3.4 4.1s1.28 2.45 1.98 3.27c.7.82.8 1.4.58 2.34-.23.93-.58 1.75-.23 2.57.36.82.82 1.17.82 2.34s.36 1.05.82 1.28c.3.15.67.07.95.18.3-.4.56-.88.92-1.23 1.4-1.4 3.5.12 4.2 1.87s1.52 2.23 2.58.82.7-1.18 1.87.1 1.64 1.06 1.64 1.06 1.18-.47 2 .24 1.28.58 2.8-1.64c1.52-2.23-.7-1.52-1.4-.12zM447.64 340.57c.46-3.43.15-6.86 1.56-8.1 1.4-1.26 3.12-3.75 2.96 1.55-.16 5.3-.3 5-1.4 6.24-1.1 1.25-2.03 1.56-.94 3.6 1.1 2 1.25 2.17 1.1 5.3-.16 3.1-.16 4.35 1.08 5.9 1.25 1.57 1.56 1.73 1.88 3.44.3 1.72 1.4 4.06 2.8 5.3s2.97 4.84 3.12 7.33c.16 2.5 2.34 3.12 4.36 4.84 2.03 1.7-.46 2.96-2.02 2.18-1.56-.78-.94 0-1.87 1.1-.94 1.08-1.25 1.24-2.03-.63s-3.43-3.12-4.68-3.6-2.33-2.5-3.43-4.5c-.93-1.75-2.8-3.03-4.48-3.16.47 1.32.72 2.35.6 2.84-.48 1.7-1.1 2.96.76 4.98 1.9 2.03 3.13 5 3.3 6.7.14 1.73.46 2.35 2.33 1.73 1.87-.62 2.8-1.24 3.43-2.02.62-.78 1.87-.62 3.6.3 1.7.95 4.35 1.88 5.9.95 1.57-.94 2.35-2.34 3.75-2.34 2.2-1.57 2.97-4.85 3.44-5.78.47-.94.16-.94-.78-1.87s-.47-2.5-.62-4.06c-.16-1.57-.78-3.9-2.65-7.34-1.88-3.43-2.97-7.64-4.22-8.73-1.25-1.1-1.87-3.74-2.03-5-.15-1.23-1.56-2.33-2.5-3.26-.93-.93-1.87-2.34-2.95-7.8-.86-4.26-1.52-7.57-1.77-9.26-1.12 1.8-1.88 2.23-2.3 1-.46-1.4-1.08-2.18-1.7-1.24-.63.94-.8-.78-.8-1.56s-.14-.93-.92-.93c-.77 0-.15-1.25-.46-3.6-.3-2.33-.78-2.64-1.1.17-.3 2.8-1.86 4.52-1.24 5.14.62.63.3 1.87-.3 3.75-.63 1.86-.32 2.96.15 4.2s-.3 3.6-.63 5.62c-.3 2.02 1.25 4.05 1.72.62zM419.15 312.58c-1.15.1-1.94 1.1-1.28 4.64.4 2.2-1.25 1.7-1.87.62-.63-1.1-1.1-3.43-2.34-5.46-1.25-2.02-.63 1.4-.78 3.28-.16 1.87 1.1 1.87 2.18 3.43 1.1 1.55.16 2.17-1.1 2.17s-.6 2.5-.3 4.2-.3 2.04-1.25.64c-.92-1.4-.3-3.58-.14-6.23.15-2.65.3-2.03-1.4-2.65-1.72-.63-1.4-.94-.8-2.5.64-1.56 1.26-2.34.48-3.12-.78-.78-.62-1.24.62-1.4 1.25-.15.8-1.1 1.87-1.4 1.1-.32 1.57.15 1.72-1.87.13-1.7.7-2.73 1.97-2.22.76 2.6 1.76 6.67 2.43 7.88zM434.86 330.94c0 3.28 0 4.52 1.4 5.77s1.25 2.5 1.88 5.47c.62 2.96.62 9.35 2.5 13.72.55 1.3 1.32 2.94 2.1 4.66 1.04-.82 1.94-2.2 2.26-2.96.46-1.1-.94-3.27-2.03-5.14-1.1-1.87.16-2.5 1.25-4.84 1.1-2.33-.16-2.5-1.87-3.12-1.72-.62-1.72-2.18-2.66-4.67s-.8-3.6-.16-5c.62-1.4.15-2.5-1.1-2.8-1.24-.3-.93-1.25-.46-2.8.47-1.57.78-1.88-1.1-1.4-1.4.34-1.75.6-2.17 1.12.1.45.16 1.08.16 2z" fill="#00b800"/><path d="M452.8 337.47c-.16 1.87-.14 2.8-.6 3.42-.47.62-.16 1.56.3 2.5s.78 2.17.3 3.9.33 3.1 1.26 3.58 1.4 0 1.1 2.18c-.32 2.18.93 4.52 2.02 5.46 1.1.93 1.87 2.5 1.7 3.43-.14.93.8 1.87 1.9 2.34 1.08.45.92.6.92 1.23s.47.63 1.72.94 2.18 1.1 3.58 2.8 3.43 2.66 3.12.78 0-3.1-1.87-4.05c-1.87-.94-3.27-5.46-4.05-8.58-.78-3.12-3.28-7.32-4.68-8.1-.16-2.2.16-3.28-1.25-4.37-1.4-1.1-1.87-2.5-1.87-3.6 0-1.08-.78-2.48-1.4-2.8-.62-.3-.94-1.08-.94-2.02s-1.1-.78-1.25.94z" fill="#5d3100"/><path d="M444.53 421.12c2.8-.23 10.4-2.46 11.23-3.16 1.87 1.3 5.15 3.04 6.55 3.04-2.68.6-4.44.24-5.14-.23.35.82 1.3 2.1 1.87 2.22-2.57-.13-5.5-.7-6.43-1.65-2.22.94-5.96 1.17-8.07-.23zM449.58 424.63c1 .3 5.96 1.1 6.6 1.1-1.64 1.4-.23 2.76 2.52 2.52-1.35.18-2.82.7-1.82.88 2.4.47 8.9-1.3 10.18-2-2.23 2.88-13.04 5.5-17.48-2.5zM454.03 431.74c1.34-.7 4.68-.47 6.25.3-1.75.64-5.2.64-6.25-.3z" fill="#00d860"/><path d="M459.02 431.65c2.4-.4 9.18 1.23 11.58-.23-.82 2.16-5.1 2.45-6.55 2-1.46-.48-2.86-1.07-3.86-1 .52-.3-.36-.36-1.18-.77z"/><path d="M461.5 434.98c1.8.3 8.3-.53 10.3-1.3 2.1.72 6.25 1.82 7.18 1.7-2 1.23-5.8.53-7 0-3.52 1.18-6.4 1.53-10.48-.4z" fill="#00d860"/><path d="M464.6 436.06c2.6.58 4.82.17 7.37-.7.8.35 2.67.77 4.44.7 1.18.66 2.76 1.6 4.28 1.7-1.58.65-7.37 0-8.53-.63-2.93.05-7.96.7-9.18 1.7-.06-.83.47-1.96 1.63-2.77z" fill="#00d860"/><path d="M461.5 422.88c2.02.67 9.36.35 13.1-1.4 1.47-.7 2.38.46.7 1.04-6.08 2.1-10.88 2.93-14.4 1.06-1.37-.74-1.5-1.4.6-.7z"/><path d="M497.4 412.93c-9 4.2-14.96 5.5-27.47 1.64-1.17-.36-2 0-.7.82 1.28.8 8.18 2.67 9.82 2.8s1.05.87.06 1.16-1.28 1 .07.47 8.86-.73 11.93.88c1.34.7 1.7.6 1.57.06s.6-.87 1.58-1 1.58-.46.82-.75-.88-.46-.3-.75.65-.6-.23-.76-1.46-.42-.64-.83c.82-.4 2.05-.7 2.98-.82.24-.64-.17-2.34.53-2.92z" fill="#00d860"/><path d="M482.42 414c5.15.37 14.63-1.98 19.66-6.9 1.75 1.06 4.2 2.23 5.5 2.46s2.45 1.4.46 1.4-4.8-.8-6.08-1.4c-6.67 4.1-14.47 5.44-19.42 5.03-1.4-.12-1.75-.7-.12-.6z"/><path d="M467.22 385.93c1.75 1.23 4.85 3.27 8.88 2.98 2 1.6 5.1 2.93 6.5 3.23-2.7 1.1-5.62 2.04-6.38 2.92-1.23-1.17-2.8-1-3.2-1.58-1.18.94-1 1.52-.25 2s6.67 1.45 8.13 1.04 1.85.8.64 1.24c-3.16 1.1-9.3.06-11.4-3.33-2.1-3.4-3.92-4.67-9.65-1.57-.65-1.64-.65-2.05-1.76-2.05s-3.16-1.46-1.58-1.4 6.26-.65 10.06-3.45z" fill="#00d860"/><path d="M468.6 393.45c-.97.24-3.73 1.75-4.72 1.87-1 .1-2.75 1.52-.94 1.58 1.8.06 4.15-1.93 5.44-2.1s1.4-1.65.23-1.35zM474.28 399.38c-.7.13-3.68.82-4.5.77s-1.64.17-1.58.76.3.94-.94.82-2.28.36-2.57.7-.54.7.7.83 1.86.23 3.27-.4 2.75-1.65 4.27-1.7c1.52-.07 3.04-2.06 1.34-1.77z" fill="#00d860"/><path d="M470.1 403c1.27.8 7.6 2.97 9.88 2.8s1.85.9.1 1.28c-3.55.76-7.9-.8-10.86-3.16-1.46-1.17-.12-1.58.88-.93z"/><path d="M500.02 406.1c-4.84 1.53-9.77.98-11.75.46s-3.8-.65-2.46.64c1.35 1.28 5.68 2.16 8.14 1.52-8.72 2-11 1.8-13.16 1.46-2.16-.35-6.23-.27-7.95-.12-1.3.12-3.04-.05-3.8-.52s-1-1.35 1.3-1.1c2.26.22 2.56-.25.57-.54s-4.74.53-2.05 2.22 8.6-.1 12.34.94c3.73 1.05 11.68 1.8 19.23-4.27.4-.32 1.05-1.18-.4-.7zM476.26 398.98c.18.6.18 1.23 0 1.64s-.18.93.58.35 1.23-1.3 2-.88 2.68.34 3.56.23c.88-.12 1.17-.3-.1-.82-1.3-.52-2.6-.7-3.3-.64s-1.57-.1-2.16-.35-.76-.1-.58.48z" fill="#00d860"/><path d="M488.72 401.23c-1 .06-2.74-.58-3.68-1s-2.28-.46-1.28.88c1 1.36 5.32 2.12 6.84 1.48s.87-1.35 2.4-.4c1.5.92 3.1 1.57 4.2 1.57s1.52 0 .3-.7-1.82-.88-1.94-1.47-.3-.93.82-.58 2.4 1 3.28.52 2.5-1.52 3.97-1.52l.35-.88c-2.1-.17-3.44.47-4.03.7s-1.64.36-2.75.18-2.57-.3-2.92-.58-.35-.53.58-.7 1.23-.82-.06-.6-4.73.13-6.54-.46c-1.82-.58-2.58-.64-3.34-.35-.76.3-.64 1.12.47 1.18s3.62.3 4.5 1.1.76.9-.24.48-2.8-.18-.94 1.17z" fill="#00d860"/><path d="M503.98 399.12l-.35.87c2.16-.07 7.43.46 9.12 1.5 1.64-1.27 1.35-1.68 2.52-1.45s2.63.64 3.27.3 1.1-.3 1.82-.18c.7.12 2.2-.18 3.1-.7s2.68-1.23 3.74-1.23 2.33-.24.4-.53c-1.93-.28-4.85.3-5.85.65-1 .36-3.97.6-5.72.6s-4.15.87-6.14.34-4.75-.18-5.92-.18z" fill="#00d860"/><path d="M531.07 398.08c-3.5 2.57-7.72 3.16-12.74 3.5-1.47.1-1.02.53.23.65 5.26.53 11.34-1.4 13.33-3.5.56-.6.5-1.62-.83-.65z"/><path d="M507.17 404.07c1.53.05 6.8 1.4 8.48 1.98 1.3-.1 1.64-.4 1.4-.87s-.4-1 1.94-.88c2.32.12 7.7.06 8.7.06.82-.35 2.63-1.76 3.45-1.82-2.1.12-10.88.6-12 .47s-1.68 0-2.4.42-1.1.6-1.97.24-2.46-.82-3.33-.3c-.88.53-2.7.06-4.28.7z" fill="#00d860"/><path d="M527.7 404.34c.8-.36 2.62-1.76 3.44-1.82 1.52-.12 3.28.53 4.1.65s1.7-.06 1.1-.7-.05-1.76 2.35-1.47c2.38.3 3.6.7 5.95.47s3.4 1.52 7.84-.24c-.37 1.76.45 1.88 1.27 1.53s1.76-.24 3.16.8 9.94 1.18 11.93.83c2-.36 3.04.7 1.52 1.16-1.52.47-1.87 1.17-1.52 1.64.35.47.7 1.05-1.17.82-1.88-.24-2.23.35-3.17 1.05s-1.17.94-3.74.47c-2.58-.47-3.05-.12-4.45.1s-1.76.25-3.16-.22-4.45-.94-6.33-.35-3.27 1.17-4.9.7-1.76-.23-.7-1.3 1.28-.92 3.26-1.16c2-.22 3.5-.8 2.1-1.62s-1.86-.7-3.73.23-2.8 1.53-4.9.37c-2.12-1.17-3.17-.94-4.58-.6s-3.74-.46-5.72-1.33zM534.72 407.84c-2.68.4-3.4-1.34-6.2-1-.94.13-2.52 1.3-.35 1.12 2.16-.17 4.5 1 6.6.82s1.17-1.1-.05-.94zM531.6 409.87c1.42-.5 4.34.47 5.57.23s2.4.53 1.1.94-4.38-.76-5.78-.35-2.82-.13-.9-.83zM503.66 417.43c1.94.06 8.9-.23 11.64-6.08.2-.45.4-.64 1.3-.06s4.08 2.5 10.1 3.03c1.7.15 3.5 1 .12.76s-8.77-1.18-10.58-2.3c-3.04 4.8-8.5 5.37-12.58 5.27-2.45-.06-1.86-.7 0-.64z" fill="#00d860"/><path d="M518.7 409.47c-.94 1.28-4.16 3.5-5.62 3.62-1.46.1-5.85-.3-6.96-.7s-2.46-.3-.88.8 5.5 1.88 7.08 1.53c1.58-.35 3.4-.88 4.62-.12s3.5 2.23 4.85 1.94c1.34-.3 4.1-.3 4.96.12.88.4 2.4 1.63.12.93s-4.15-.12-5.2-.6c1.16 1.65 3.82 4.28 6.08 4.28.52 0 .88.93-.24 1.46 1.12.53 3.68.94 5.03-.3-.35.48-.18.77.4 1.06s1.3.7.24.82-3.45.4-4.16.12c2.28 1.45 8.2 3.8 14.2 2.62 1.16-.22 1.77-.7-.1-.64-3.87.12-4.1.06-4.8-.35-.7-.4-.58-.76.53-1.1 1.1-.36 3.9-.77 5.08-.77s2.34-.47-.06-.47-5.32 0-6.5-.4-2.04-.94-.8-1.76 2.5-.58 3.1-1.35c-3.87-.05-8.6-2.1-5.98-3.97.6-.44.4-.47-.58-.58s-3.92-.94-5.15-1.64-.42-1.3.58-1.46c-2.28.4-6.85-.82-9.9-3.1zM552.98 409.38c-2.1 1.57-6.07 2.22-7.77 2.22s-1.92.58-.58.76 2.8.35 3.4.17.93-.23 1.8.18c.88.42 2.76.65 4.4.13s4.32-.76 5.43-.7 2.34.1.12-.53c-2.22-.65-5.85-.18-6.73.06s-3.27.05-2-.35 2.4-1.05 3.06-1.57c-.47-.12-.76-.24-1.12-.36zM551.9 413.92c-1.8 1.35-4.44 2.63-7.13 2.75 2.46.87 4.5 3.4 6.08 3.27-.76.47-1.7 1.17-2.68 1.3 1.52.4 4.1-.07 6.2-1.24 3.5 1 8.06.35 9.58-.94-2.28 0-5.03-.82-6.25-1.87 1.1 0 2.16-.7 2.68-1.35-2.62.46-7.13-.82-8.47-1.93z" fill="#00d860"/><path d="M548.17 421.26c1-.12 1.93-.82 2.7-1.3-1.94.65-10.36-.7-12.87-2.92-2.52-2.22-2.52-.52-.77 1.06s4.86 3.97 10.94 3.16zM554.33 426.6c-1.05.6-6.07.95-7.7.6s-2.35-.18-1.94.46.57 1.23-.77 1.06-3.75.1-4.74.46c-1 .36-2.23 1.23-.12.88 2.1-.35 4.03-.76 5.6-.35s7.2.54 8.3.07.36-.47-.17-.47-.75-.35 0-.7 1.36-1.35 1.53-2zM505.7 419.82c-2.12.93-9.13 2.8-11 2.92-2.34 1.05-4.2 1.64-5.38 1.64.82.7 3.97 1.4 5.26 1.05-.7.7-2.34 1.52-2.92 1.87 1.87-.24 4.1.23 5.03.35-2.47 1.4-5.86 1.87-7.62 1.64.6.8 1.4 1.63 2.46 1.63-2.22.58-4.9.58-6.32.1.6 1.18 1.17 1.88 2 2-1.88.24-4.22.6-6.2-.58 1.5 2 4.9 2.68 9.94 2.1 5.02-.58 9.24-2.8 10.4-3.74-2.1.24-4.9.36-6.3.13 2.8-.7 8.87-3.28 9.93-4.33-1.18 0-2.35-.35-3.17-.94 1.64.23 7.37-.46 9.12-1.17-2.1-.47-3.4-1.76-3.97-2.58 7.36 2.34 15.56 1.58 19.53.6.94-.25 1.06-1.44-.8-1.3-3.3.23-9.6-.7-11.24-1.52 1.52 1.17 3.4 1.87 4.68 2.1-3.04.82-7.25 1.4-13.45-2z" fill="#00d860"/><path d="M491.65 427.33c.58-.35 2.22-1.17 2.92-1.87-1.3.35-4.44-.35-5.26-1.05 1.18 0 3.05-.58 5.4-1.63-4.22-.12-7.15-.12-8.67-.93s-4.32-.6-5.37-.36-.7 2 3.74 1.53c-1.88 1.3-6.9 1.76-8.77 1.3.46 1.5.8 3.03.35 3.85 2.45 1.4 8.88 3.16 12.04 2.92-2.8-1.05-4.33-2.22-2-2.45s3.64-.7 5.63-1.3z" fill="#00d860"/><path d="M484.4 434.93c5.6-.46 13.1-.56 19.07-5.6 1.52-1.3 2.54-.87 1.05.46-3.15 2.8-11 6.65-18.48 6.77-3.04.05-4.44-1.4-1.64-1.64z"/><path d="M526.35 425.66c-1.4.53-5.33 1.17-6.5 1-1.16-.18-2.86-.23-3.8.35s-1 .95.3 1.06 2.92.24 3.74.18c-1.06.58-1.76 1.4-2 1.75 1.87-.47 5.32.34 6.3.93-.75.23-1.62-.06-2.27-.4 3.16 3.32 12.52 3.32 14.04 2.74-.7.53-1.35 1.05-2.05 1.23 2.63.47 5.67.4 8.65-1.35-1 .18-3.97-.1-4.73-.17.6-.6 1.46-1.1 2.28-1.35-1.17-.23-4.85-.12-5.73.35.34-.7.98-1.58 1.7-1.87-4.64 0-10.25-.05-12.3-1.16 3.28.35 6.9-1.58 8.42-1.58-2.57-.06-5.37-.64-6.08-1.7zM514.6 428.23c-2.28.47-5.73 1.4-6.66 1.93s-1.94.82.1.82 7.6.23 8.84.4c-3.1-.46-7.3-.58-8.13-.58s-1.75-.05-.23-.52 3.5-1.52 6.08-2.05zM509.97 433.67c.8 0 4.38 0 5.78-1.22 1.46 1.1 4.27 2.68 6.08 2.68 1.82 0 1.64.47.06.65-1.58.17-4.7-.76-6.26-1.93-2.1.76-3.86.12-5.67-.18zM482.87 449.42c3.63 1.4 8.42 2.46 11.93 1.3 2 1.75 6.08 1.86 8.3 1.4 2.23-.47 4.2-.7 6.67.1 2.45.83 7.48.9 8.9 2.06-1.3.06-4.05 0-4.7.18-.63.17-.28.58.9 1.22-4-.23-10.83 1.46-12.93 3.28.75-1.82 3.1-4.27 6.78-4.27-2.1-.77-8.83-.83-11 .5-.64-.7-1.4-1.86-1.46-2.32-3.56 2.04-10.58-.88-13.4-3.46zM473.6 442.86c4.32-.62 7.26-2 8.55-3.28.76.7 3.9 1.4 7.36.35-.7.53-.75 1.52-.46 2.05-2.28.06-6.6 1.17-8.06 1.93-1.47.76-5.74 1.3-7.14.53-1.4-.76-1.46-1.4-.24-1.57z" fill="#00d860"/><path d="M489.04 442c-2.28.06-6.6 1.17-8.07 1.93.3.6.47 1.52.53 2.16 4.2-1.53 13.85-2.46 17.54-1.88-1.76.12-5.1 1.93-6.96 2.16 4.56-.35 9 .6 10.17.88 1.17.3 1.4 1.17.53 2s-1.28.93.58.98c1.88.06 5.74-.17 7.5-1.87-.7-.76-2.52-.47-3.05-1 1.24-.4 2.64-1.28 3.17-1.92-3.16-.06-4.33-.12-5.38-.35-1.07-.23-1.83-.53-.54-1.23 1.3-.7 1.87-1.28 2.28-1.75-2.28.64-5.84 1.17-8.83-1.17 1.12.3 3.75.1 4.7-.3-1-.52-1.82-.93-2.64-.93 2.4-1.17 7.13-2.22 12.98.12 2.92-.24 6.08-.12 8.3.46.94-.93 2.93-3.16 3.98-3.74-6.9.58-19.3-.7-19.06-4.32-2.23 2.92-7.37 4.55-9.6 4.1-.23 1.04.7 2.33 1.53 3.03-2.35.47-6.33.82-8.2.47 1.06 1.05 3.04 1.98 4.2 1.87-2.44 0-3.73.48-5.66.3z" fill="#00d860"/><path d="M503.35 450.24c1.87.05 5.73-.18 7.5-1.88-.7-.76-2.53-.46-3.05-1 1.22-.4 2.63-1.28 3.15-1.92 4.9-.4 9.3-.17 11.4-.82 2.1-.64 7.5-.3 8.54-.58-4.7.75-5.62 1.16-5.86 1.92s1.53 1.4 2.64 1.4c-2.1-.1-4.74 2.1-4.98 3-2.8-1.65-4.14.28-4.44.93-1.17-.48-5.03-.36-7.02 1.33-2.57-.76-4.26-1.17-6.84-.76 1.58-.35 1.3-1.4-1.05-1.63zM525.8 436.55c1.58-.05 5.03.12 6.26-.05-.82.4-1.87 1.17-2.1 1.52 3.97-.47 9.4-.76 11-.53-1.94-.3-3.93.93-4.92 1.57s-.4 1.05.93 1.23 3.16 1.23.7.88-7.3-.35-8.47-.18-1.82-.4-.12-.64 2.86-.82 3.68-1.3c-1.4.36-4.1.36-4.9.13s-1.35-.7-.42-.95.3-.58-.7-.47-3.5 1.17-4.9 2.52c1.5-1.58 2.85-2.98 3.97-3.75z" fill="#00d860"/><path d="M507.98 439.2c1.94 2.17 4.2 3.4 7.84 3.52.76.02 2.18 1.04.35 1.1-4.9.2-7.37-.98-9.53-4.14-.45-.65.38-1.55 1.34-.47zM537.28 398.3c2.58 1.22 7.78 2.3 11.8 2.1.7-.02 2.13.73.36.9-4.56.4-8.65-.24-12.45-2.35-1.07-.6-.7-1.1.28-.65z"/><path d="M539.9 398.26c3.96-.12 6.95-.06 8.18 1.1 2.27-.7 6.37-1.1 7.3-.92s2-.24-.17-.77c-2.16-.52-7.18-.7-8.76-.4-1.58.3-6.5.46-8.13.3.7.1 1.18.22 1.6.7zM555.33 399.84c1.87-1 7.24-.06 8.88-.77-1.16 1.4 3.76 1.53 8.02.4-1.64 1.07-5.14 1.24-6.66 1.9s-2.34.16-3.5-.36-4.16-1.57-6.73-1.16z" fill="#00d860"/><path d="M572.24 399.47c-4.26 1.12-9.18 1-8-.4-1.64.7-7.02-.24-8.9.76 1.94-1.17 3.4-.24 4.8-2.64.88.17 2.92.3 3.63-.65 1.23.3 3.4.82 4.03 1.46.65.66 1.64-.16.82-1.15 1.93-.7.7.83 5.2-.3.94-.23 3.22-.64 3.98-.7-1.52 1.23-3.33 2.57-5.56 3.62z" fill="#00d860"/><path d="M489.22 379.86c-.08-8.85-.93-82.9-.93-100.02 0-4.1-2.12-3.28-2.12 0v99.55c.97.16 2.27.34 3.04.46zM521.75 274.47l3.66 105.57-.63.85-2.12.02-2.3-106.45h1.4zM552.53 363.6c-.3-10.74-1.64-60.5-2.16-85.04-.07-3.27-2.02-2.7-2 .12.22 19.76 1.4 75.02 1.6 85 .78 0 2.1-.1 2.56-.07z" stroke-width=".6300000000000001" stroke="#000" fill="#ff0"/><path d="M503.8 292l-31.1-.45c-1.76 6.3 6.08 6.2 9 4.56 3.4 2.58 5.96 2.35 7.83.24 2.7 2.22 6.08 1.64 7.5.23 3.73 2.8 7.6 0 6.77-4.56zM506.14 307.67l-31.8-.1c-5.5 5.25 1.63 7.82 7.7 4.2.83 1.75 4.57 2.8 7.5 1.4 2.7 2.1 6.07.58 7.83-1.17 3.28 1.52 7.13 2 8.77-4.33zM505.24 327.57l-30.64-.24c-.6 5.5 5.62 4.8 8.07 3.4 2.34 3.62 7.5 2.8 9.47.7 2.93 1.98 5.62 1.5 7.14-.36 3.4 2.93 6.2-.8 5.96-3.5zM506.77 347.45l-34.26-.58c-1.86 5.85 3.4 6.9 5.85 5.5.82 3.4 5.38 2.22 6.55-.24 1.76 1.76 3.98.82 5.03-.35.47 3.16 4.44 3.28 7.48.58 6.2 4.33 12.06-.7 9.37-4.9zM537.14 339.26l-28.53-.23c1.3 5.85 4.1 7.37 8.66 3.97 3.4 3.5 9 2.23 10.4.47 6.2 5.03 9.6-.82 9.5-4.2zM534.22 319.74l-27.6-.82c.47 7 7.13 6.78 10.53 3.74 2.57 3.27 7.13 2.34 8.77 0 3.5 3.5 9.24 1.4 8.3-2.92zM537.87 297.73h-29.7c.34 4.9 6.9 7.72 11.92 3.04 1.4 5.6 6.77 3.86 9.1 1.64 3.4 4.33 11.23-.57 8.66-4.67zM536.1 282.8l-26.54.34c-.46 4.33 5.85 6.2 8.2 2.7 1.28 2.2 5.72 1.98 7-.13 2.1 3.3 4.7 1.06 5.5 0 3.04 2.23 6.32 1.18 5.85-2.9zM567.2 292.47l-32.5-.36c-.12 3.4 3.4 4.8 5.5 3.4 0 3.28 4.55 4.33 7.47 1.76 2 2.8 7.84 3.62 10.18-.24 4.8 3.98 9.94 1.17 9.35-4.55zM566.75 319.15l-31.8-.12c.23 4.44 5.37 5.97 8.3 3.63.7 3.74 4.68 3.97 7 2.1 2.82 3.16 7.5 3.4 10.07-.12 3.86 1.4 6.8-1.87 6.43-5.5zM565.1 343.13l-25.16-.35c0 4.45 5.27 5.03 7.6 2.7 2.46 2.92 6.2 2.92 8.3.58 3.4 2.92 8.55 2.1 9.25-2.93z" fill="#fff" stroke-width=".6300000000000001" stroke="#000"/><path d="M524.77 380.9c-13.56.22-27.36.22-36.72-1.18s-12.3-2.72-18.7-6.55c-9.6-5.73-11.94-7.13-25.5-15.08-2.08-1.23-4.34.28-1.4 2.2 13.67 9 18.86 12.35 25.37 16.62 6.78 4.44 11.15 8.38 15.32 13.1 5.38 6.08 9.35 6.2 11.8 5.26s6.33-2.23 10.18-1.3c3.86.95 9 1.06 11.7.6 2.46 2.22 8.07 1.75 11.23 1.05 3.15-.7 5.5-1.06 7.7-.6s5.62.13 7.85-.22 8.07-.93 12.16-.34c4.1.58 8.3.23 11-.6 2.68-.8 7.6-.57 9.23-.1 2.33-1.76 3.5-3.98 4.08-6.32 2.75-.35 3.67-.7 4.27-2.28 1.12-2.92 2.16-5.8 2.52-7.07h1.1l.36-2.65-2.28-2.63.82-5.03 2.45-.6c.12-1.5-.58-3.85-1.05-4.8-14.73.6-29.18 1.07-39.52 1.3-1.17.94-2.46 3.4-2.7 4.9-6.3 1.06-10.05 1.53-11.7 1.88s-2.54.48-3.85 2.22c-2.1 2.8-4.1 6.08-5.73 8.2z" stroke-width=".6300000000000001" stroke="#000"/><path d="M572.1 363.03c.73-2.48 2.64-9.16 6.1-21.78.58-2.1-1.46-2.94-2.22-.24-4.12 14.75-5.67 20.27-6.2 22.12.8-.02 1.93-.1 2.33-.1z" stroke-width=".6300000000000001" stroke="#000"/><path d="M594.92 338.32c-4.97 2.57-7.37 3.56-9.64 2.7-2.1-.82-5.18-1.27-7-.4 0 .2-.02.4-.08.62-2.13 7.77-3.68 13.28-4.72 16.96 3.68 1.3 10.02 1.47 11.5-.12 1.52-1.63 5.67-1.28 7.78-1.17 1.35-1.74 1.87-3.9 1.52-4.96s-.23-2.92.3-4.38 1.22-6.2.34-9.24z" stroke-width=".6300000000000001" stroke="#000" fill="#fff"/><path d="M481.7 296.1c-5.5 15.9-24.56 51.58-36.06 63.07M454.48 364.38c13.05-10.1 46.06-42.88 51.67-56.68M474.6 327.34c-1.52 12.05-5 33.53-6.87 44.88M479.68 354.16c-4.44 4.33-10.74 11.88-15.42 15.98M521.53 330.13c-3.74 3.62-8 7.85-11.75 8.9M523.7 330.72c3.28 3.5 7.95 7.46 11.82 8.5M521.12 311.32c-3.38 2.92-8.4 6.36-12.97 7.65M523.06 312c2.93 2.45 6.04 6.03 9.78 7.67M508.84 297.73c3.62-1.05 9.02-3.86 11.83-6.78M522.3 290.4c3.17 3.62 9.25 6.54 12.3 7.36M509.56 283.15c3.74-.82 8.37-2.8 10.83-6.32M521.8 275.86c3.15 2.7 8.7 6.58 12.32 6.93M548.48 286.34c-2.02 2.1-7 5.9-10.15 5.84M550.55 286.16c1.47 2.34 5.15 5.93 7.26 6.22M536.2 319c4.1-1.4 9.82-4.74 12.7-8.2M551.14 311.1c1.2 2.15 5.76 7.04 8.33 8.03M541.06 342.78c1.87-.4 6.96-2.94 8.36-5.92M551.77 335.22c1.93 2.4 6.66 6.78 9.6 7.83M476.7 346.9c5.74-1.8 17.32-8.83 23.05-15.5M488.77 339.85c4.8 3.4 10.36 6.78 14.63 7.54M475.63 327.34c3.16-1.35 7.3-3.64 10.53-6.97M488.6 319.9c1.28 1.82 10.74 7.6 14.77 7.66M486.16 301.24c-2.46 1.98-8.36 5.55-11.23 6.3M488.4 301.38c3.3 2.27 9.76 6.3 14.2 6.3M486.16 282.97c-2.63 2.98-7.07 7.58-10.76 8.64M488.27 283.64c2.05 3.28 7.53 7.7 11.1 8.3M535.6 303.3c8.2 15.13 23.42 33.6 38.8 43.3M511 286.57c12.45 17.9 36.9 57.13 60.15 71.6M575.44 342.87c-3.74 5.2-10.47 13.33-21.58 20.73M574.04 347.82c-7.83-12.5-11.88-28.33-17.74-49.16M492.77 354.3l9.65 26.54M490.97 353.66l8.54 27.08M489.13 352.4l7.92 28.18M488.32 352.86l6.12 27.57M494.22 379.45h7.64M500.87 376.57h-7.2M500.06 374.32h-6.95M499.25 372.07h-6.63M498.35 369.64h-6.3M491.6 367.48h6M491.15 365.5h5.7M490.66 363.34h5.4M490.25 361.4h5.1M489.8 359.42h4.86M489.4 357.58h4.6M488.95 355.87h4.46M488.68 354.43h4.15M481.16 354.47l-5.43 22.2M482.74 354.07l-4.67 23.45M484 353.22l-3.78 24.97M485.62 352.72l-2.74 26.1M486.16 377.34h-8.65M486.16 374.95h-10M486.16 372.47h-9.43M486.16 370.13h-8.84M486.16 367.75h-8.27M486.16 365.1h-7.6M486.16 362.8h-7.06M486.16 360.46h-6.46M486.16 358.2h-5.92M486.16 356.23h-5.45M486.16 354.66h-5.04M486.16 379.4v-26.45M515.27 344.22l-18.13 36.36M516.4 343.63l-15.44 37.14M517.52 343.22l-12.24 37.73M518.3 343.9l-9.53 37.07M509.2 379.27h-11.4M510.1 375.94h-10.62M510.6 373.24h-9.77M511.54 370.32h-9.24M512 367.97h-8.55M512.8 365.28h-8.04M513.6 362.13h-7.27M514.24 359.74h-6.7M514.9 357h-6.05M515.4 355.15h-5.6M515.86 353.4h-5.14M516.3 351.6h-4.73M516.72 350.02h-4.36M517.12 348.45h-4M517.57 346.83h-3.6M517.93 345.34h-3.24M529.72 344.8l7.93 25.1M531.25 345.34l9.63 24.1M532.6 345.38l11.27 23.57M546.6 366.94l-12.44-22M546.6 366.9h-9.87M544.9 363.92h-9.1M543.22 360.95h-8.33M541.5 357.94h-7.6M539.85 354.97h-6.9M538.13 352H532M536.47 349.03h-5.37M534.76 346h-4.64M544.93 346.74L537.17 370M547.27 345.7l-7.2 23.86M543.4 369l5.28-22.45M550.06 347.32l-4.45 21.38M538.1 367.34h7.78M539.08 364.42h7.42M540.02 361.54h7.08M540.97 358.66h6.7M541.96 355.74h6.34M542.95 352.86h5.98M543.9 349.97h5.6M544.84 347.05h4.62M553.6 347.55l3.82 15.96M555 346.78l5.27 16.64M556.8 346.74l5.75 16.65M559.15 347.63l5.75 15.65M564.37 361.9H557M563.5 359.56h-7M562.66 357.22h-6.7M561.8 354.88h-6.43M560.9 352.54h-6.1M560.05 350.2h-5.78M559.2 347.86h-5.5" stroke-width=".6300000000000001" stroke="#000" fill="none"/><path d="M484.76 389.17c3.63-2.34 9.83-1.87 13 .47 3.73-2.1 10.5-1.52 13.67 1.3 4.8-3.3 8.9-3.75 13.56-.6 3.62-2.57 9.23-2.8 13.56.23 4.2-1.98 8.9-3.62 12.98.7-2.45-1.75-7.72-3.27-12.98.83-4.1-4.1-11.23-2.58-13.57.23-3.05-3.63-9.48-4.2-13.34.23-4.2-3.5-10.52-3.62-13.9-.93-2.7-2.1-6.68-3.86-13-2.46z" fill="#00b800"/><path d="M548.66 384.17c-18.6 3.22-59.1.94-68-1.28-3.05-.78-2.22-1.88.35-1.3 10.25 2.33 32.1 2.34 44.16 1.76 2.34-3.1 6.02-8.37 7.13-9.83s1.6-1.6 3.9-2c4.16-.7 6.53-1.07 10.12-1.68.06.46.06 1.05.06 1.4-.3.23-.58.64-.82.76 0 2.4.47 8.26.94 10.36.47-.06 1.05-.23 1.35-.3.8-.23 1.63 1.88.8 2.1z" fill="#cf6200"/><path d="M579.13 385.08l2.46-.06c.75-.02 1.8-.54 2.28-1.7s1.92-5.5 2.45-7.32l-1.88-2.82c.4-2.33.94-5.48 1-6.13.93-.35 1.92-.7 2.4-.87.1-.53-.12-1.96-.6-2.43-8 .3-31.97 1.14-36.36 1.2-1.07 0-1.54-.05-1.94 1.46-2.22 8.3.85 19.96 9.24 26.67.6.47 1.32.08.35-.82-1.4-1.28-3.57-3.92-5.03-6.52 1.64-.02 4.96-.08 5.95-.12.48 1.98 1.97 6.13 2.27 6.83s1 .8.67-.25c-.8-2.46-1.22-5.26-1.57-6.6 1.52-.04 4.4 0 6.14-.1.1 2.2.32 5.2.38 6s.76.9.77-.05c.02-.93.04-4.9.03-6.05 1.98-.06 4.5-.14 5.44-.14-.14 1.26-.38 5.35-.47 6-.14.95.36 1.4.6.06s.7-4.5.83-6.1c.8 0 2.87-.1 3.75-.12-.07 1.25-1.24 5.04-1.6 6.03s.22 1.04.62.1c.4-.96 1.7-4.77 1.8-6.12z" fill="#cf6200"/><path d="M552.58 384.13c-.64-1.3-2.63-5.86-2.8-9.2 1.7-.02 5.93-.1 7.98-.15.3 2.5 1.07 7.92 1.48 9.2-2.4.06-5.3.14-6.66.15zM559.15 374.72c.22 1.92 1.22 8.5 1.4 9.27 1.72-.12 5.75-.13 6.44-.2l-.4-9.26-7.45.18zM550.1 366.58c-.32 1.68-.38 5.28-.3 6.8 2.06.05 7.1-.07 7.8-.13-.17-1.74-.45-4.9-.62-6.87-1.67.07-5.76.17-6.88.2zM558.47 366.36c.06 1.63.43 5.64.54 6.86 1.78-.05 6.1-.14 7.57-.2-.07-1.5-.3-6.3-.34-6.9-2.35.06-6.27.2-7.76.24zM567.74 366.1c.08 1.5.27 5.8.2 6.9 1.9-.04 5.47-.07 6.6-.16.07-1.53.32-5.9.2-7l-7 .25zM576.02 365.77c0 1.3-.16 5.8-.22 7.04l7.18-.24c.3-1.5.88-5.42 1.05-7.07-1.75.04-6.72.23-8 .27zM583.27 374.1c-2.4.07-6.25.17-7.56.22-.2 2.97-.56 8.08-.74 9.25 2.1-.04 6.38-.18 7.32-.2.7-1.4 2.22-5.8 2.57-7.14-.53-.82-.94-1.28-1.58-2.14zM568 374.5c0 1.05.2 8.6.24 9.23 1.38-.04 4.94-.1 5.47-.15.27-2.93.67-8.55.75-9.26l-6.44.18zM536.97 372.7l-3.05.54c-1.4 2.27-6.6 9.28-7.25 10.1 3.62-.1 9.3-.2 10.65-.34-.1-1.88-.35-9.37-.35-10.3zM538.3 372.43c.1 2.4.32 8.8.37 10.48 1.8-.1 5.1-.3 6.45-.42-.3-3.02-.87-10.22-1-11.1l-5.8 1.05z"/><path d="M506.9 347.18c.4 0 .47.36 0 .36l-34.55-.43c-.47 0-.4-.35 0-.34l34.55.42zM534.08 319.5c.4.02.46.37 0 .36l-27.38-.75c-.47 0-.4-.36 0-.34l27.38.75zM505.2 327.43c.4 0 .46.36 0 .35l-30.65-.22c-.46 0-.4-.36 0-.36l30.64.23zM506.1 307.54c.4 0 .46.35 0 .35l-32.05-.18c-.47 0-.4-.35 0-.34l32.05.16zM503.9 291.84c.4 0 .45.36 0 .35l-31.15-.48c-.47 0-.4-.36 0-.35l31.14.47z" stroke-width=".6300000000000001" stroke="#000"/><path d="M536.1 282.66c.42 0 .48.34 0 .35l-26.7.26c-.47 0-.42-.34 0-.35l26.7-.24z" fill="#fff" stroke-width=".6300000000000001" stroke="#000"/><path d="M537.77 297.6c.4 0 .47.35 0 .35h-29.52c-.47 0-.4-.36 0-.36h29.52zM566.75 318.88c.4 0 .47.35 0 .35h-31.82c-.47 0-.4-.35 0-.35h31.82zM567.2 292.28c.4 0 .47.36 0 .36l-32.5-.32c-.48 0-.42-.36 0-.35l32.5.3zM537.14 339.04c.4 0 .47.36 0 .35l-28.6-.2c-.47 0-.4-.35 0-.35l28.6.2zM565.1 342.9c.4 0 .45.37 0 .36l-25.16-.33c-.46 0-.4-.36 0-.35l25.15.33z" stroke-width=".6300000000000001" stroke="#000"/><path d="M587.77 347.72c.7-1.57.8-5.17.4-6.54-1.1.22-2 .17-2.9-.18-.48-.18-1-.34-1.55-.48-.1 1.8-.75 6.42-1.56 8.2-1.4.4-4.26-.07-5.88-.58l-1.18 4.24c2 .47 4.53.43 6.53-.04-.16 2.7-.5 5.17-1.97 6.87 2.4.06 4.52-.3 5.3-1.13.08-.08.16-.14.24-.2 1.1-1.86 1.14-4.26 1.4-5.88.82.05 1.87-.18 2.34-.65s1.23-.7 2-.65c.68.06 1.76-.1 3.13-.64.04-.83.2-1.73.5-2.5.14-.44.3-1.15.44-2-1.73.82-5.6 2.2-7.23 2.16z" stroke-width=".6300000000000001" stroke="#000" fill="#ef072d"/><path d="M476.17 195.4c-3.56.1-11.3.18-12.94 1.1-1.62.9-2.34 1.3.5 1.82s7.68 1.86 10.32 3.5c2.64 1.62 4.86 4.5 4.13 8.6-2.2 12.35 4.27 24.22 13.62 28.7.9.43 1.12.76.92 2.44s-.82 4.47-1.33 5.2c-.52.7-.77 1.87.86 1.3-1.12 2.1-3.6 6.27-4.37 7.33-7.5-.92-13.58.1-14.15 7.93-.05.76.2 1.98 1.38.05 1.17-1.93 2.5-3.76 5.7-4.27-1.9 2.9-2.5 5.5-2.2 7.18.3 1.68.77 2.7 1.58.56.83-2.14 2.32-4.13 3.93-5.34.6-.46 1-.56.55.76s.2 4.17 1.12 5.14c.92.96 1.38.56 1.12-1.02-.25-1.58.14-4.87 2.08-5.9 2.8-1.47 5.2-.7 6.3 1.22 1.12 1.93 2.1.1.87-2.08s-2.5-3.72-4.52-3.87c1.78-3.15 3.86-6.97 4.32-7.73.45-.77 1.17-1.12 1.78-.66.6.46 1 .4 1.63-.87.6-1.28 1.67-5.04 3.2-6.57.76-.2 1.98-.5 2.43-.92 2 2.9 3.78 6.12 4.24 6.83.45.7.96 1.02.5 2.5s-2.03 6.15-2.28 7.17c-5.55.2-8.08.3-9.87 3.4-.78 1.36.45 1.9 1.78 1.17 1.3-.7 3.2-1.32 4.16-1.17.97.16 1.42.65.46 1.12-3.4 1.68-5.53 3.82-5.4 6.77.06 1.05.5 1.6 1.33.14 1.17-2.03 3.3-4.07 5.9-4.63-.15 2.5.4 6.17 1.93 6.93 1.53.76 1.63 0 1.07-1.47-.92-2.34.03-4.7 1.17-5.96 2.4-2.64 7.83 1.02 8.84 1.94 1.02.9 1.95 1.3 1.38-1.07-.77-3.15-5.24-5-9.05-5.5 1.06-5.13 3.9-15.5 5.44-19.07 2.24 1.22 4-2 7.73-.6 6.3 2.33 15.76 8.23 17.4 9.55 1.6 1.32 2.22 1.02 3.04.3.8-.7 2.23 0 3.35.2s2.14.52.7-2.33c-1.4-2.85-4.87-7.83-10.66-11.7 3.45.3 8.13.3 8.13-.6 0-.93-5.4-2.65-7.63-2.86 2.13-.5 5.4-1.73 6.9-3.46.9-1.02-.17-1.26-3.34-1.32-9.77-.2-14.64-.13-19.73-3.05-8.13-4.68-12.78-9.6-16.77-11.7-2.14-1.12-3.44-3.7-4.26-5.94-2.64-7.13-2.5-10.33-8.7-12.67s-13.35.52-16.6 3.47z" stroke-width=".6300000000000001" stroke="#000"/><path d="M476.58 197.02c-1.58-.06-4.68-.43-7.25-.18-.6.06-1.3.36.1.53s5.2 1.1 6.56 1.58.75 1.17-.42.87-1.6.14-.64.82c4.97 3.5 5.5 4.86 4.2 16.9.95.64 1.7 1.1 2.52 1.52s.6 1-.3.76-1.68.3-.28.6 2.04.92.7.86c-1.34-.05-2.92 1.12-.3.82 2.64-.3 3.7.94.6 1-3.1.06-1.94 1.05-.3 1.05 2.92 0 2.04.82 1.3.82-.77 0-1.12 1 .8.82 1.93-.2 2.7-.25 3.4-.13s1 .7-.06.76c-1.06.06-1 .82.58.82s2.24.47.82.76c-.58.12-1.4.42.3.65 2.92.4 3.04 1.1 2.1 1.23s-1.05.64.3.76c1.33.12 2.5.53 1.4.82-1.12.3-1.7.93-.3 1.05 1.4.13 2.57.65 1.52 1s-1.3 1 .06.94 1.87.7.93 1.23c-.93.52-1.57.87-2.16-.06-.58-.92-.93-1.22-1.1-.5-.18.68-.6.22-1.06-.83s-1.28-1.35-1.04-.53-.82.94-1.82.53c3.7 3.74 9.13 7.13 17.78 3.62.74-.3.88 0 1.46 1.22s2.22 3.92 2.8 4.9 1.06.1 1.35-.87c1.17-3.86 2.05-6.72 2.4-7.77.35-1.06 2-2.1 1.46 1.57 1.28-.87 6.98-1.7 11.4-.06 4.85 1.8 9.72 4.62 12.22 6.5.46.34 1.05.75 2.2.63 1.18-.12 1.48-.3-.75-2.34-2.2-2.06-1.28-3.05.12-2.06 1.4 1 2.16.4 1.1-.82s-3.56-3.62-4.38-4.2-.94-.82-2.8-.94-5.85-.12-7.02-.12-1.52.12 1.05 1.06c2.57.93 7.83 4.32 9 5.14s2 2.7-.58 1.05-10.64-6.65-16.02-8.52c-12.28.82-22 2.45-29.24-5.5-3.46-3.8-3.6-12.5 2.23-16.14-1.17-1-1-1.58-.53-1.8s.65-.48.18-1.07c-.46-.58-.4-1.1 0-1.34-1.28-.7-1.87-1.52-1.8-2.4-1.6-.35-2.3-2.22-4.4-1.63s-3.16.1-3.8-.4c-.64-.54-1.16-.77-2.33-.66s-2.1-.35-2.17-.93 1-.86 2.57-.17c3.33 1.47 6.03 2.17 8.07-.58 2.05-2.75-.58-5.32-4.5-6.08-3.92-.76-6.78 2.1-8.25 3.45z" stroke-width=".6300000000000001" stroke="#000" fill="#fff"/><path d="M496.24 196c-1.18-1.3-3.28-2.47-4.32-2.82-1.06-.35-1.17.7-.6 1.23-.46.7-.63 2.4.2 2.87s.8 1.14.04 1.52c-1.17.57-.77 3.68 1 2.8.58-.3 1.05-.18.93.3s.1 1.04.63 1.16.47.88.36 1.17.04.4.63.47.64 1.46-.4 1.93c1.28 0 1.63-.24 1.98.82.36 1.05 1.76 1.28 1.76 2.57s-.23 1.52-1.75 1.28-2.1.24-2.57.82-.58 1.17.6 1.23 1.4.6.22 1.1-3.1.2-3.4 1.3c-.28 1.1 0 1.63.9 1.22.86-.4 2.68-1.16 3.38-1.57s1.35-.47 1.93.47.12 1.98-.88 1.17c-1-.82-1.46-.07-2.04.4s-1.47.76-2.4.76c-.93 0-1.58.12-1.46 2.22.35 6.32 5.26 11 14.26 10.88s13.45-.23 14.8-.06c-2.98-1.64-4.86-2.5-5.9-2.4s-1.94.3-1.47-.52-.06-.82-.53-1.17-1.05-.82-1.98.17-3.16 2.1-4.27 2.34-2.47.18-1.42-.87 3.4-1.42 4.1-1.9.7-.74.7-1.1-.17-1.34 1.17-.58c2.7 1.52 6.9 3.8 8 3.74s1.88-.53.9-1.17-1.3-1.58-1-1.93.46-.7 2.22.3c1.75.98 4.6 2.26 5.67 2.73s2.45.3.3-1.28c-2.18-1.58-8.9-6.03-10.77-7.43s-1.05.28-.88.8-1.3 1.18-2.06.54-1.28-1.35-.23-1.93 1.3-.64-.28-2.04-2.04-1.28-1.7-.12c.36 1.17.47 2.46-1.16 1.8s-2.46-1.4-1.4-2.03c1.05-.63 2.4-.98.64-2.45s-1.23 0-1.64.82-1.76.82-2.52.18-1.1-1.3-.58-1.8.47-.83 1.23-.42 1.92.17.5-1.06-1.92-.7-1.63 0-.8 1.93-2.57.3c-.83-.78-.8-1.82.06-2 .88-.17.96-.62.35-1.5-3.55-5.22-2.1-9.43-5.66-13.28z" stroke-width=".6300000000000001" stroke="#000" fill="#fff"/><path d="M496.83 196.7c-.3.46-.42.45-1 .82-.7.47-.85 1.8.32 1.64.8-.1 1.3-.6 1.6-.98-.25-.5-.56-1-.92-1.48zM493.18 193.78c-.9.87-1.06 1.26-.6 1.26.55 0 .3.08-.08.7-.4.63.78.94 1.25.47s.55-.6.78 0c.2.52.96.04 1.44-.45-.8-.77-1.86-1.48-2.8-1.97zM491.56 198.82c-1.17.6-.77 3.7 1 2.8.57-.28 1.04-.17.93.3-.08.25-.04.53.1.76.7-.3 1.4-.78 1.93-1.4 1.1-1.25.08-1.17-1.55-1.17-1.64 0-2.1-.3-.55-1.24 1.4-.84.48-1.42-1.45-1.15.28.4.14.84-.42 1.12zM498.26 205.7c-.85-.93-.3-1.4.63-1.87.22-.1.37-.25.5-.42-.28-1.03-.5-2.02-.77-2.98-.5.14-1.06 1.23-1.22 1.77-.23.77-.46 1.24-1.24 1-.7-.2-1.4.58-1.53 1.4.1.06.27.1.5.1.32.04.48.48.38.95 2.12-.07 2.48 1.4 2.84 2.4.4 1.08.86.93 1.17.3.32-.62-.38-1.7-1.24-2.65z" fill="#cf6200"/><path d="M498.85 217.95c-.38.86-.4.77-1.64.85-1.23.08-2.8.3-3.5 1.02-.37.38-2.52.5-2.53 1.44 0 .95 0 1.75.94 1.8.94.07 1.06.2.7.9-.34.7-.57 1.86 1.06 1.98 1.64.1 2.8-.4 3.22.52.4.94-.03 2.43.3 2.98s1.42.9 3.13 1.44c1.16.36 5.47.56 6.8.4 1.32-.15.83-.94-.5-1.06-1.32-.12-2.3-.3-2.6-1.28-.32-.98-.6-1.5.15-2.3.74-.82 1.48-1.45 1.05-2.8-.43-1.37-1.13-2.97-2.7-3.4-1.55-.43-1.06-2.56-2.6-2.77-.6-.08-1.1-.08-1.25.28z" fill="#ff0"/><path d="M491.3 230.63c1.33.12 2.5.53 1.4.82-1.12.3-1.7.94-.3 1.06 1.4.12 2.57.65 1.52 1s-1.3 1 .06.94 1.87.7.93 1.22c-.92.53-1.57.88-2.15-.05-.58-.93-.93-1.22-1.1-.52-.18.7-.6.23-1.06-.82s-1.3-1.34-1.07-.52-.8.93-1.8.52c.97 1 2.07 1.96 3.33 2.78 1.44-.5 3.02-.1 3.56-.03.58.07 2.4.47 3.4 1s1.63-.4 1.22-1.46c-.4-1.05-.47-.7-1-.12-.52.6-.64-.23-.58-1.46.05-1.03-.64-.76-.88-.1s-.76-.42-.46-1.07-.06-.88-.6-.7-.57 0-.63-1.18-.6-1-.77-.52-.65-.18-1.35-1.12c-.6-.82-1.32-.33-2.54.15.15.1.43.17.85.2z" fill="#cf6200"/><path d="M505.5 237.88c-6.38 2.6-11 1.44-14.46-.86 1.44-.5 3.05-.07 3.6-.02.58.06 2.4.47 3.4 1s1.62-.4 1.2-1.47c.9 1.12 1.54 1.88 2.58 1.82 1.06-.06 2.8-.24 3.7-.47zM491.87 208.45c-.4-1.32-.77-1.64-1.48-1.56-.7.07-1.02-.1-1.8-.4-.78-.3-1.8.08-1.95 1.48s-1 2.1-2.18 2.96c-1.17.86-1.87 1.56-1.87 2.97s-.3 1.8-1.1 2.82c-.34.45-.83.96-1.3 1.5.5.3 1 .6 1.48.83.82.4.6 1-.3.76s-1.7.3-.28.6 2.04.93.7.88c-1.35-.06-2.93 1.1-.3.8 2.63-.28 3.7.95.6 1-3.1.07-1.94 1.06-.3 1.06 2.92 0 2.04.82 1.3.82-.77 0-1.13 1 .8.82h.1c.27-.3.47-.66.63-1.1.3-.95.62-3.68 1.7-4.46 1.1-.78 1.65-1.87 1.65-2.65s1.63-4.2 2.72-5.07 1.57-2.72 1.17-4.05z" fill="#ff0"/><path d="M489.58 208.5c-1.1-.74-2.18-.32-2.18 1.1s-.7 1.78-1.64 2.25c-.93.47-1.8 1.64-1.95 2.73-.14 1.1.17 1.8-.6 2.65-.8.85-.87 1.56-.32 2.02.54.47.54.55.78 1.25.23.7 1.55-.08 1.55-.85s.33-.78 1.18-1.25c.86-.47 2.27-2.73 1.95-3.35-.3-.63-1.1-1.17-.07-2.03 1-.86 2.1-.94 2.1-1.8 0-.85.3-1.16.62-1.47.32-.32-.7-.8-1.4-1.26z" fill="#cf6200"/><path d="M489.58 207.37c-.73-.28-1.17 1.25-.15 1.48s1.17-1.1.15-1.48zM489.4 209.35c-.77.1-1.64 1.1-.35.94s1.8-1.13.35-.95zM487.87 211.24c-.8.4-.64 1.46.53.7s1.46-1.7-.53-.7zM486.6 212.86c-.8.4-.63 1.46.54.7s1.46-1.7-.53-.7z"/><path d="M485 213.63c-.8.4-.3 1.46.87.7s1.1-1.7-.88-.7zM485.98 214.62c-.8.4-.3 1.46.88.7s1.1-1.7-.88-.7z"/><path d="M484.58 215.02c-.8.4-.3 1.46.88.7s1.1-1.7-.88-.7zM485.48 216.14c-.8.4-.3 1.47.88.7 1.17-.75 1.1-1.7-.88-.7z"/><path d="M484.13 216.82c-.8.4-.3 1.46.88.7s1.12-1.7-.87-.7z"/><path d="M484.22 217.86c-.8.4-.3 1.46.88.7s1.1-1.7-.88-.7z"/><path d="M483.6 227.7c-.8.1-1.33 1.26-.32 1.5s1.25.3 1.25 1.08.32 1.88 1.4 1.95c1.1.08 2.03-1.17 1.1-1.55-.94-.4-1.8-.7-1.87-1.57-.08-.84-.94-1.47-1.56-1.4z" fill="#cf6200"/><path d="M512.3 221c.15.2.33.38.54.56.76.64 2.22 0 2.04-.53s-1-2.22.88-.82 8.6 5.86 10.76 7.44.76 1.75-.3 1.3-3.9-1.77-5.66-2.76c-1.76-1-1.93-.64-2.23-.3-.24.3-.04 1 .6 1.6-1.04.16-2.74-.07-3.23-1.18-.58-1.35-2-3-2.98-4.27-.37-.48-.48-.78-.42-1.02z" fill="#ff0"/><path d="M570.3 412.57c-1.45 1-3.38 2.75-2.1 5.2.16-.08.3-.17.45-.26 5.72-6.9 10.62-14.2 14.8-21.75.06-.26.1-.5.13-.72-1.63 1.4-4.2 2.8-5.26 3.15.7 1.88-2.57 4.33-4.32 5.03.7 1.18.46 2.94-1.06 3.3.35 1.04-.82 1.04-2.22 1.62s-2.1 1.06-2.57 1.76c.76-.4 1.8-.76 2.4-.6s.7 1.07-.36 1.3-1.76.82-2.1 1.3c1.5-.6 3.67-.3 2.2.7z" fill="#00d860"/><path d="M500.97 218.84c-1.73-1.5-2.17-.58-1.47.36s.18 1.4-1.34 1.63-3.8.53-4.74.53-2.04 1.3.17 1.17c2.22-.12 5.96-.88 6.96-1.3s1.8-1.16.4-2.4zM504.34 221.5c-1.43-1.28-1.93-.94-1.58 0s-.3 1.1-1.22 1.4c-.94.3-4.62 1.52-6.2 1.7s-1.93 1.3.4 1.23 6.85-1.93 7.37-2.28.7-1.06 1.3-.7 1.1-.3-.06-1.35zM505.42 225.24c-1.04.6-3.62 1.75-4.68 2.04s-1.93 1.46.3 1.3c2.22-.2 4.85-2.24 5.55-2.64.7-.4 1.04-.7 1.63-.65s1.64-.77-.3-1.82-3.1-.53-2.16.3.23 1.1-.35 1.46z" stroke-width=".6300000000000001" stroke="#000"/><path d="M487.2 195.8c-2.86-1.87-6.13 2.06-2.97 4.22 2.77 1.9 5.7-2.42 2.96-4.22z"/><path d="M483.64 197.5l.85.07c-.2.88.7 2.2 2.03 1.87-1.08.82-3.18-.12-2.9-1.93zM494.7 240.13c.87.25 3.88.56 4.9.6-.52 1.08-.98 1.8-1.28 2.55-.3.77-.46.82-.5-.35-.06-1.18-.72-1.94-1.33-.72-.62 1.24-.93 1.7-1.23 2.2-.3.5-.76.72-.6-.56s.1-2.6.04-3.7z" fill="#fff"/><path d="M607.6 274.47c-.2 73.5-11.8 152.67-106.92 190.38-95.14-37.7-106.74-116.9-106.95-190.38h213.9zM607.6 274.47c.1-27.7-1.44-54.57-.74-78.12-35.55-15.9-82.33-19.18-106.18-19.18-23.86 0-70.64 3.27-106.2 19.18.7 23.55-.82 50.43-.75 78.12h213.9z" stroke="#000" stroke-width="1.2600000000000002" fill="none"/></g></svg>