<svg xmlns="http://www.w3.org/2000/svg" height="480" width="640" version="1"><defs><clipPath id="a"><path fill-opacity=".67" d="M-26.33 0h682.67v512H-26.33z"/></clipPath></defs><g fill-rule="evenodd" clip-path="url(#a)" transform="matrix(.9 0 0 .9 24.7 0)" stroke-width="1pt"><path fill="#fff" d="M-69 0h768v512H-69z"/><path fill="#01017e" d="M-69 170.67h768V512H-69z"/><path fill="#fe0101" d="M-69 341.33h768V512H-69z"/><path d="M64.74 116.2v143.57c9.83 56.05 35.9 113.1 123.9 142.1 87.52-29.02 115.54-83.6 125.87-143.1V116.2H64.75z" fill="#fff"/><path d="M74.57 127.5v125.4c8.85 45.72 26.06 108.16 114.07 137.17 87.52-29 107.68-91.45 115.54-137.18V127.5H74.58z" fill="#fe0101"/><path d="M202.4 203.23v20.16h40.33c5.4 0 10.5-2.63 15.73-3.95v37.86c-5.4-1.13-10.7-3.43-16.22-3.43H202.9v46.22l-27.04-1v-45.23H137.5c-5.76 0-11.14 2.95-16.7 4.43v-40.32c5.24 1.64 10.23 4.92 15.73 4.92h39.33v-20.16h-29c-5.1 0-9.5 3.6-14.27 5.4V169.8c5.4 2.3 10.34 6.88 16.22 6.88h27.53v-17.2c0-8.05-4.6-15.4-6.88-23.12h38.84c-1.96 7.87-5.9 15.5-5.9 23.6v16.72h26.07c6.8 0 13.1-3.6 19.67-5.4v37.85c-5.9-1.97-11.48-5.9-17.7-5.9H202.4z" fill="#fff"/><path d="M152.75 305.5c-23.1-11.55-45.18-5.1-55.74 13.4 16.42 31.34 47.64 56.66 91.64 71.17 43.76-14.5 75.6-39.83 93.05-69.7-13.6-25.94-39.46-22.5-56.18-14.38-11.8-29.02-60-27.54-72.77-.5z" fill="#01017e"/></g></svg>