<svg xmlns="http://www.w3.org/2000/svg" height="480" width="640"><g fill-rule="evenodd" stroke-width="1pt"><path fill="#19b6ef" d="M0 240h640v240H0z"/><path fill="#fff" d="M0 0h640v240H0z"/></g><path d="M317.07 339.22c52.45-39.24 108.96-119.3 42.74-161.4-12.33-2.4-26.1-1.68-32.7 3.57-3.5-2-6.3-1.84-9.8 1.9-2.46-3.02-4.93-4.38-10.02-2.86-10.2-5.18-19.42-6.3-31.52-3.1-57.62 34.6-22.36 116.75 41.3 161.88z" fill-rule="evenodd" stroke="#7d6c00" stroke-width="2.365294" fill="#fd0"/><g stroke="#3a9d4f"><path stroke-linejoin="round" d="M414.08 250.1s5.9-7.93 6.1-7.93c5.9-3.46 6.52-7.94 6.52-7.94 5.9-1.83 4.07-6.72 4.48-7.33 2.85-3.05 1.83-6.1 1.42-7.12 0-.82 2.04-8.35-.8-9.37.12-8-4.83-7.25-8.76-2.02-4.2 1.22-5.16 4.68-3.67 8.55-5.5 0-5.7 7.94-4.07 12.4-7.33-.2-3.26 7.95-3.46 8.36-2.44 1.2 1.83 12.8 2.24 12.4zM367.86 318.3l3.66 2.24c.75 2.78 3.33 4.55 5.3 4.07.94 4.3 5.56 3.68 8.95 1.23 2.7 3.94 6.04 4 10.6 2.65 4.06 2.98 9.35 1.7 12.8-1.43 3.74 3.06 6.25.82 8.15-2.44 2.92.76 5.23.28 6.3-2.64 5.7-.47 2.86-5.83-1.82-8.14 3.73-3.26 7.87-9.97 2.04-11-1.83-1.35-5.3-1.08-7.94.2-.68-2.97-4.82-3.72-9.37-.4-1.56-3.32-7-1.76-9.56.62-3.26-2.85-7.13-2.85-12.83.4l-16.28 14.66zM367.86 309.55c.67-3.73-1.9-10.5 2.03-11.2-.75-6.23.33-13.3 7.52-12.6 1.16-5.9.9-11.4 7.74-12.23 0 0 5.5-19.13 11.2-5.9 2.24 3.87 1.83 10.18-2.65 8.96.9 4.75-.67 8.9-5.9 8.75 2.3 3.33 1.57 7.87-1 9.98l-18.94 14.25zM401.04 285.74l5.9-1.23c6.1-4.06 8.55-5.7 11.6-1.2 5.1-1.1 9.98-.55 9.77 3.45 6.05.4 6 4.28 5.3 7.33.96 5.36-1.35 12.35-5.08 3.87-11.8-7.2-18.53-6.24-37.25-2.04l9.77-10.16zM404.1 279.82c.2-.2 17.5-4.68 15.68-9.97 4.88-.82 5.9-5.7 6.1-5.7 10.18-3.26 9.57-9.16 9.57-9.16 2.92-3.13 8.08-6.26 6.92-11.82.34-6.3.88-10.18-7.53-6.1-6.3-.62-8.55 3.05-10.38 8.54-3-3.52-7.8 2.1-8.35 7.13 0 0-7.72 7.53-7.72 7.73s-6.52 12-6.52 12l2.24 7.34z" fill-rule="evenodd" stroke-width="2.365294" fill="#4fd46b"/><path stroke-linejoin="round" d="M404.5 266.4c-4.14-3.12-6.44-6.86-5.7-10.6-2.7-3.65-4.6-5.9-2.03-9.15 0 0-2.04-7.33-2.04-7.53-5.3-2.04-3.05-6.5-1.63-8.14-2.5-3.46-2.58-7.13-.2-10.4-.07-6.5 4.54-4.06 8.34 0 0 0 6.32 4.5 1.63 8.56 4.7 1.63 6.1 5.7 3.46 7.33 4.08 1.83 4.7 5.5 2.45 7.94 4.14 3.34 2.57 7.48 3.86 11.2-2.7 3.6-5.42 7.2-8.14 10.8z" fill-rule="evenodd" stroke-width="2.365294" fill="#4fd46b"/><path stroke-linejoin="round" d="M411.83 236.06c-.2-.2-6.92-8.75-5.1-9.36-.4-2.65-2.43-5.5-1.2-8.14-3.33-3.33-3.4-7.26-.82-10.38-2.23-3.06-1.2-7.13 1.84-9.77-.95-5.02 2.58-6.17 5.7-7.12 2.3-8.08 6.04-5.97 8.14.2 3.2 2.8 2.72 7 1.63 10.18 3.8 2.58 1.5 5.77-.2 7.13l-9.97 27.26z" fill-rule="evenodd" stroke-width="2.365294" fill="#4fd46b"/><path stroke-linejoin="round" d="M410.82 193.1l-5.7-5.7c1.47-3 2.65-8.34-1.63-10.78-2.38-5.76-14.2-12.9-16.1.8-1.8-4.12-5.56-8.2-8.34-3.45-6.17-5.3-9.5-3.66-6.3 3.06 0 0-2.86 4.47 4.67 7.93.6.6-2.44 8.15 6.52 8.35-1.7 2.6 1.08 6.18 4.68 5.9-2.58 3.2 1.76 6.6 4.48 5.3-1.15 3.53-1.08 5.23 3.87 5.7 1.84 2.1 3.67 4.2 5.5 6.32l4.48 6.1 3.87-29.5z" fill-rule="evenodd" stroke-width="2.365294" fill="#4fd46b"/><path d="M414.28 246.5c.3-.28 10.94-24.75 12.38-32.23M415.43 203.05s1.73 19.86-3.17 34.55M382.6 182.9s21.9 21 23.9 29.65M397.87 180.6s1.44 17.27 7.5 34.25M436.45 243.34s-21.88 18.43-32.53 34.55M415.7 307.84s-28.78 4.03-41.44 4.32M406.22 320.22s-35.7-.87-38.3-3.46M388.36 273.86c0 .3-18.13 30.22-18.7 40" stroke-linecap="round" stroke-width="2.2153810000000003" fill="none"/></g><path d="M316.87 333.44c-37.77-35.62-76.45-102.48-37.97-136.27 6.84 3.88 14.9.4 26.03-3.98 3.37 3.67 7.65 4.58 11.94 1.83 4.8 2.04 8.37.4 10.72-2.15 10.9 6.33 24.9 9.6 28.16 3.37 37.87 35.93-.5 103.1-38.9 137.2z" fill-rule="evenodd" stroke="#7d6c00" stroke-width="2.365294" fill="#65c7ff"/><path d="M317.1 332.4c-16.23-16.3-31.03-34.38-42.36-57.65 1.94-1.63 2.84-2.14 3.86-5 5.82.82 8.88 1.02 16.54-.3 1.53 5.7 1.83 10.5 5.5 15.3l7.66-15c5.2 1.23 11.64 1.53 16.54 0 3.16 4.3 2.04 10.72 7.65 15.62 3.36-9.9 6.73-10.62 10.1-15.93 5 1.74 8.17 1.03 12.25-.3 2.14 2.45 1.07 2.4 4.97 6-10.23 20.32-24.26 40.73-42.73 57.27z" fill-rule="evenodd" fill="#8fc753"/><path d="M272.65 164.3c0 1.85-1.5 3.35-3.35 3.35s-3.34-1.5-3.34-3.35 1.5-3.34 3.34-3.34 3.35 1.5 3.35 3.34zM269.16 156.6c0 1.84-1.5 3.34-3.35 3.34s-3.33-1.5-3.33-3.35 1.5-3.35 3.34-3.35 3.36 1.5 3.36 3.34zM265.1 149.47c0 1.84-1.5 3.34-3.36 3.34s-3.35-1.5-3.35-3.33 1.5-3.35 3.34-3.35 3.35 1.5 3.35 3.35zM262.32 142.48c0 1.85-1.5 3.35-3.34 3.35s-3.35-1.5-3.35-3.35 1.5-3.34 3.35-3.34 3.34 1.5 3.34 3.34zM262.76 134.92c0 1.85-1.5 3.34-3.35 3.34s-3.33-1.5-3.33-3.34 1.5-3.35 3.34-3.35 3.36 1.5 3.36 3.35zM280.42 122.4c0 1.85-1.5 3.35-3.35 3.35s-3.34-1.5-3.34-3.34 1.5-3.34 3.34-3.34 3.35 1.5 3.35 3.35z" fill-rule="evenodd" stroke="#000" stroke-width="1.116019" fill="#fff"/><path d="M273.8 123.57c0 1.85-1.48 3.35-3.33 3.35s-3.35-1.5-3.35-3.35 1.5-3.34 3.35-3.34 3.34 1.5 3.34 3.34zM266.54 127.94c0 1.84-1.5 3.34-3.35 3.34s-3.35-1.5-3.35-3.34 1.5-3.35 3.34-3.35 3.34 1.5 3.34 3.34zM288.94 122.55c0 1.85-1.5 3.35-3.34 3.35s-3.35-1.5-3.35-3.35 1.5-3.34 3.35-3.34 3.34 1.5 3.34 3.35zM298.25 123.28c0 1.85-1.5 3.35-3.34 3.35s-3.34-1.5-3.34-3.35 1.5-3.35 3.35-3.35 3.35 1.5 3.35 3.35zM306.55 122.84c0 1.85-1.5 3.35-3.35 3.35s-3.35-1.5-3.35-3.36 1.5-3.34 3.35-3.34 3.35 1.5 3.35 3.34z" fill-rule="evenodd" stroke="#000" stroke-width="1.116019" fill="#fff"/><path d="M325.87 117.5c0 4.74-3.84 8.6-8.58 8.6s-8.6-3.86-8.6-8.6 3.85-8.58 8.6-8.58 8.57 3.84 8.57 8.58z" fill-rule="evenodd" stroke="#7d6c00" stroke-width="1.110941" fill="#fd0"/><path d="M334.9 122.7c0 1.85-1.5 3.34-3.33 3.34s-3.35-1.5-3.35-3.34 1.5-3.35 3.35-3.35 3.34 1.5 3.34 3.35zM343.64 123.42c0 1.85-1.5 3.35-3.34 3.35s-3.35-1.5-3.35-3.35 1.5-3.34 3.35-3.34 3.34 1.5 3.34 3.34zM352.08 123c0 1.84-1.5 3.33-3.35 3.33s-3.34-1.5-3.34-3.34 1.5-3.36 3.33-3.36 3.35 1.5 3.35 3.35zM359.2 122.7c0 1.85-1.5 3.34-3.34 3.34s-3.35-1.5-3.35-3.34 1.5-3.35 3.36-3.35 3.35 1.5 3.35 3.35zM368.08 123.72c0 1.84-1.5 3.34-3.34 3.34s-3.35-1.5-3.35-3.34 1.5-3.35 3.34-3.35 3.34 1.5 3.34 3.35zM375.06 128.08c0 1.85-1.5 3.35-3.34 3.35s-3.35-1.5-3.35-3.35 1.5-3.35 3.35-3.35 3.34 1.5 3.34 3.35z" fill-rule="evenodd" stroke="#000" stroke-width="1.116019" fill="#fff"/><path d="M269.4 151.7c2.86 5.42 5.7 11.05 8.56 16.47h79.23c3.05-5.28 6.1-10.57 9.17-15.85-5.36-3.68-9.04-6.53-16.68-4.8-4.32-6.18-9.05-7.36-16.07-6.67-2.08-2.15-3.96-3.47-7.5-3.96l-16.68.4c-4.38.43-7.72 3.76-7.93 3.76-7.1-.83-13.55-.62-15.22 6.26-6.46-1.6-11.05.14-16.9 4.38z" fill-rule="evenodd" stroke="#ac0000" stroke-width="2.365294" fill="#e40000"/><path d="M377.97 135.35c0 1.85-1.5 3.35-3.34 3.35s-3.35-1.5-3.35-3.35 1.5-3.34 3.35-3.34 3.34 1.5 3.34 3.35zM378.56 143.2c0 1.86-1.5 3.36-3.35 3.36s-3.34-1.5-3.34-3.35 1.5-3.34 3.35-3.34 3.36 1.5 3.36 3.35zM376.08 150.48c0 1.85-1.5 3.35-3.34 3.35s-3.35-1.5-3.35-3.35 1.5-3.34 3.34-3.34 3.34 1.5 3.34 3.34zM373.03 156.45c0 1.85-1.5 3.34-3.35 3.34s-3.34-1.5-3.34-3.35 1.5-3.35 3.34-3.35 3.35 1.5 3.35 3.35zM369.4 164c0 1.86-1.5 3.36-3.36 3.36s-3.34-1.5-3.34-3.35 1.5-3.33 3.34-3.33 3.35 1.5 3.35 3.34z" fill-rule="evenodd" stroke="#000" stroke-width="1.116019" fill="#fff"/><path d="M322.57 154.42c0 2.74-2.22 4.95-4.95 4.95s-4.95-2.2-4.95-4.95 2.22-4.94 4.95-4.94 4.95 2.2 4.95 4.94z" fill-rule="evenodd" stroke="#000" stroke-width="1.1080800000000002" fill="#fff"/><path d="M323.55 143.05c0 3.3-2.67 5.96-5.97 5.96s-5.96-2.66-5.96-5.95 2.67-5.97 5.96-5.97 5.97 2.67 5.97 5.97z" fill-rule="evenodd" stroke="#000" stroke-width="1.0986335999999999" fill="#fff"/><path d="M322.68 132c0 2.97-2.4 5.38-5.38 5.38s-5.38-2.4-5.38-5.4 2.4-5.37 5.38-5.37 5.38 2.42 5.38 5.4z" fill-rule="evenodd" stroke="#000" stroke-width="1.0986401" fill="#fff"/><path d="M315.5 109.05c0-.92-.04-4.16.02-4.3l-3.57-.05.1-3.18 3.1-.04.04-2.77h4.4v2.55h3.46l-.08 3.38-3.6-.04-.03 4.52-3.86-.07z" fill-rule="evenodd" stroke="#7d6c00" stroke-width="1.116019" fill="#fd0"/><path d="M277.56 168.17c-7.1-12.02-17.5-28.37-11.05-35.44 8.96-10.15 29.96-.98 43.37-6.9.98 11.48-2.22 30.46 2.92 34.42l-4.8 4.17c-2.92-3.76-8.42-8.78-15.22.2-3.9-3.4-8.32-2.8-10.4 1.73-1.98.26-1.87 1.06-4.82 1.82zM357.68 167.75c7.1-12.02 17.5-28.36 11.05-35.44-8.95-10.13-29.95-.96-43.37-6.87-.97 11.47 2.23 30.44-2.92 34.4l4.8 4.17c4.6-6.5 10.37-6.7 15.22.2 3.9-3.4 7.93-2.93 10.4 1.73 1.98.27 1.87 1.06 4.82 1.82z" stroke="#fd0" stroke-width="3.3314" fill="none"/><path d="M277.34 177.13c28.5-2.92 54.9-1.88 79.23 0 1.05-3 2.1-5.98 3.13-8.96-27.66-5-46.77-5.63-82.98-.63.2 3.2.4 6.4.62 9.6z" fill-rule="evenodd" stroke="#7d6c00" stroke-width="2.365294" fill="#fd0"/><path d="M314.12 329.38l.6-4.2c2.85.77 5 .47 7.36-.4l2.45-3.67-1.83-2.13c-1.62.34-2.95 1.85-3.98 3.15-1.63.08-3.07-.7-4.6-1-.5-2.16-1.02-4.3-1.53-6.44-1.53-1.8-4.68-1.67-4 1.53.1.83.2 1.64.32 2.46.6 1.53.84 3.64 1.83 4.78v2.52l3.37 3.42zM315.34 311.1c-2.13 1.04-4.66-.8-7.35-1.85-2.46-.17-4.43 1.87-7.36 1.22.53-1.6 1.84-1.83 2.76-2.75-.68-4.13 1.53-5.5 2.14-5.5.6 0 3.06.6 3.06.6l2.45.3c1.43 2.66 3.43 5.03 4.3 7.97z" fill-rule="evenodd" fill="#c76e2e"/><path d="M300.78 366.1c7.06-11.48 56.26-34.52 102.42-84.26-47 45.24-76.36 56.35-114.8 83.97l12.38.3z" fill-rule="evenodd" stroke="#e9bf00" stroke-width="2.365294" fill="#ffe100"/><path d="M368.4 313.2c0 1.96-1.6 3.57-3.58 3.57s-3.58-1.6-3.58-3.58 1.6-3.6 3.58-3.6 3.6 1.6 3.6 3.6zM402.8 278.32c0 2.24-1.83 4.06-4.07 4.06s-4.06-1.82-4.06-4.06c0-2.24 1.82-4.06 4.06-4.06s4.06 1.82 4.06 4.06zM414.25 248.7c0 2-1.6 3.6-3.58 3.6s-3.58-1.6-3.58-3.6 1.6-3.57 3.57-3.57 3.58 1.6 3.58 3.58zM403.02 210.28c0 1.98-1.6 3.58-3.58 3.58s-3.58-1.6-3.58-3.58 1.6-3.58 3.58-3.58 3.58 1.6 3.58 3.58z" fill-rule="evenodd" stroke="#68300e" stroke-width="1.116019" fill="#9d4916"/><path d="M279.12 269.6v-15.15l-1.54-1.3v-3.58l2.83-.26.52-16.93-1.8-1.03-.25-2.82s2.05.77 2.05.25.52-3.33.52-3.33-1.3-.26-1.3-.77 1.55-1.8 1.55-1.8-.78-.77-1.03-1.3-.77-2.8-.77-2.8l.77-2.83-.52-1.54-1.28-2.32 1.8-1.8s-.52-2.3-.52-2.82 1.3-2.56 1.54-2.82c.25-.26 2.3-3.08 2.3-3.08l4.37-1.03 5.13.77 2.83 1.8.5 4.62s-.5 2.82-.76 2.82-2.3 1.03-2.3 1.03-2.58.26-2.84 0 .78 3.08.78 3.08v3.08l-.25 3.85s0 1.8-.26 2.06c-.27.25-.78 1.03-.78 1.03l-.25 3.85 4.1 1.02-.25 2.32-2.83.25.5 15.67 4.1.77v4.37l-1.78 1.03-.52 15.66h-14.38zM341.52 269.86V254.7l-1.54-1.27v-3.6l2.83-.25.52-16.95-1.8-1.02-.25-2.82s2.05.77 2.05.26.5-3.34.5-3.34-1.27-.25-1.27-.77 1.54-1.8 1.54-1.8-.78-.77-1.04-1.28-.77-2.82-.77-2.82l.76-2.83-.5-1.54-1.3-2.3 1.8-1.8s-.5-2.32-.5-2.83 1.27-2.57 1.53-2.82c.25-.25 2.3-3.07 2.3-3.07l4.36-1.03 5.14.77 2.82 1.8.52 4.62s-.52 2.8-.77 2.8-2.3 1.04-2.3 1.04-2.58.25-2.84 0 .77 3.08.77 3.08V218l-.25 3.85s0 1.8-.26 2.05c-.27.26-.78 1.03-.78 1.03l-.26 3.85 4.1 1.03-.25 2.32-2.8.26.5 15.66 4.1.77v4.37l-1.8 1.03-.5 15.66h-14.38zM309.94 270.38v-15.15l-1.54-1.28v-3.6l2.82-.25.52-16.95-1.8-1.03-.26-2.82s2.06.77 2.06.26.5-3.34.5-3.34-1.27-.26-1.27-.77 1.54-1.8 1.54-1.8-.76-.77-1.02-1.28-.77-2.83-.77-2.83l.78-2.82-.5-1.54-1.3-2.3 1.8-1.8s-.5-2.32-.5-2.83 1.27-2.57 1.53-2.83c.27-.25 2.32-3.08 2.32-3.08l4.36-1.03 5.14.8 2.82 1.78.52 4.62s-.52 2.83-.77 2.83-2.32 1.02-2.32 1.02-2.57.26-2.83 0 .77 3.1.77 3.1v3.07l-.26 3.85s0 1.8-.25 2.05c-.25.26-.76 1.03-.76 1.03l-.26 3.85 4.1 1.03-.25 2.3-2.82.26.52 15.66 4.1.76v4.37l-1.8 1.02-.5 15.66h-14.38z" fill-rule="evenodd" stroke="#a9a9a9" stroke-width="1.116019" fill="#fff"/><path fill-rule="evenodd" d="M282.92 269.5v-11.94h6.7v12.4l-6.7-.47zM314.44 270.44l.24-12.17h5.97v11.93l-6.2.24zM345.5 270.2l-.5-11.45 6.46-.24v11.95l-5.97-.24zM284.6 234.15h3.8v6.2h-3.8zM314.92 234.4h5.25v5.96h-5.25zM345.95 234.86h4.53v5.73h-4.53z"/><path d="M286.57 206.96c4.1 4.63 4.36 4.63 4.36 4.63M317.12 206.96c.77 1.54 2.05 4.88 3.6 5.14M349.98 207.73s1.3 3.6 3.1 4.1" stroke="#a8a8a8" stroke-width="1.116019" fill="none"/><path d="M282.2 194.02c12.02-3.88-2.8-11.65-5.26 0-3.9.63-4.4 3.5-12.8 2.26-20.3 33.1-5.26 86.52 54.18 141.82-106.46-90.6-63.2-157.6-33.7-155.08 16.02 1.1 7.93 21.1-2.4 11z" fill-rule="evenodd" fill="#b97700"/><path d="M285.55 177.05s9.8 2.63 9.8 6.77M295.33 176.3s6.77 3 8.28 5.64M348.75 177.43s-8.65 1.13-10.53 3.76M335.58 178.18s-4.9 4.14-4.52 5.27M334.46 196.24c-.75-.38-4.14-4.9-3.4-10.54M301.35 193.24s2.25-2.63 2.25-7.52M317.15 183.83l.38 10.9M326.93 193.24c0-.75 3-7.9-.38-11.3M306.24 180.45s-2.63 7.14-.75 13.16M325.43 186.84s-4.14 1.13-6.02 3M307.74 187.96c0-.38 4.52-1.13 6.02 1.5" stroke="#7d6c00" stroke-width="2.365294" fill="none"/><path d="M300.63 301.86c.2.1 3.75-.67 3.75-2.4 1.82-1.16.47-4.42.47-4.42l-3.36-.67-4.62-5.2c-.22-1.6.32-3.1-.67-4.8-3.16.84-5 3.5-6.04 6.54.77.97.86 2.02 2.3 2.9 1.5.25 2.53-.65 3.94-.4.74 1.3.5 2.38.77 3.56 1.92 1.34 2.3 3.27 3.46 4.9zM296.5 279.67v-6.15c-1.47-.06-2.95-.12-4.42-.2-.55.94-1.57 1.4-2.2 2.22-1.04.5-2.06 1.03-3.08 1.54 1.28 1.54 2.85 2.4 3.84 3.17 2.24.67 4.1.67 5.86-.58zM282.66 288.8l-2.4-4.04c1.47-.48 3.32-.28 4.7.3 0 0 1.06 2.5.3 3.45-.4.88-2.7.5-2.6.3zM319.17 292.93c1.28-.64 2.46-1.76 2.7-3.36l-4.43-5.1c-1.34-.02-2.7-.06-4.04-.1-.92-.95-2.43-1.14-3.64-1.14 0 0 1.24 1.92 2.88 2.3 1.15 2.6 6.15 7.4 6.53 7.4zM323.5 293.5c0-.1 3.94-1.44 6.05-1.25-.2-1.63 2.98-5.38 2.98-5.38l5.57 7.3c-1.02.87-2.82.58-4.23.87 0 0-2.7 2.6-2.98 2.7s-5.2 1.23-7.6-.2c-1.05-2.02.3-4.33.2-4.04zM326.66 280.72c.68-2.34.87-4.67 0-7.6 0 0-6.34-.08-6.34 0 0 .1-4.22 1.93-4.22 2.03s1.34 4.13 2.98 3.75c.73 2.14 2.9 1.6 3.93 2.4 1.23-.2 2.45-.4 3.66-.58zM351.55 274.3c-.86 2.65-1.34 5.5-.1 8.06 1.16.2 2.5.96 3.56.77l5.1-9.22c-3.52-1.1-6.37-1-8.55.4z" fill-rule="evenodd" fill="#c76e2e"/><path d="M353.12 193.2c-12.02-3.9 2.8-11.66 5.26 0 3.9.62 4.4 3.5 12.8 2.25 20.3 33.1 5.26 86.52-54.18 141.8 106.46-90.58 63.2-157.6 33.72-155.06-16.04 1.08-7.95 21.08 2.4 11z" fill-rule="evenodd" fill="#b97700"/><path d="M354.33 284.67c-.2 0-3.07 2.1-3.07 2.1l-4.13 1.65-4.42.1c-.3-1.03-.63-2.06-.95-3.08l3.36-2.98c-2.84-.42-5.7.7-7.96 2.8 0 0 0 3.35 1.92 4.98 1.15 1.44 4.5 4.04 4.5 4.04 2.13.4 4.14.06 5.5-1.06 1.75-2.85 3.5-5.7 5.27-8.55zM331.08 314.84c1.44.38 11.33-12.78 11.33-12.78-.85-2.47-2.77-4.26-4.9-5.38 0 0-4.8 5.67-4.88 7.6-.77 1.72-2.98 8.34-2.02 9.2-.1.2-.48 2.9.48 1.36z" fill-rule="evenodd" fill="#c76e2e"/><path stroke-linejoin="round" d="M266.37 317.4c-14.82-12.9-34.8-20-62.72-10.35 7.5 3.25 15.63 4.36 22.53 7.92l40.2 2.43z" fill-rule="evenodd" stroke="#004100" stroke-width="2.365294" fill="#006800"/><path d="M223.44 308.26c29.23.6 37.75 7.9 36.23 6.7" stroke="#00a400" stroke-linecap="round" stroke-width="2.2153810000000003" fill="none"/><path stroke-linejoin="round" d="M266.97 318.92c-8.73 1.72-20.8 10.15-24.36 9.74-9.53-1.1-18.44-4.98-27.7-7.92-3.84-1.22-7.7 0-11.56 0 32.77-15.52 43.94-13.4 63.63-1.82z" fill-rule="evenodd" stroke="#004100" stroke-width="2.2153810000000003" fill="#006800"/><path stroke-linejoin="round" d="M245.36 296.08s-10.96 1.52-15.83 1.83c-4.87-.3-11.95-4.84-19.8-13.1-4.08-4.46-13.38-3.94-13.38-3.94 20.6-4.37 36.63-.2 49 15.22zM230.44 274.78c-14.92-.92-33.5-14.3-37.75-30.14-.02.2 5.46 3.45 4.55 4.26 24.46 6.2 26.08 11.16 33.2 25.88zM255.4 300.34c2.14-13.5 2.75-22.42-3.65-30.44-5.27-6.1-6.6-9.74-10.35-18.27-1.1 17.76-4.97 32.48 14 48.7zM231.95 262.9c11.06-16.14 13-28.3 11.27-47.5-.3 1.53-3.96 10.96-4.27 10.96-16.44 10.36-9.13 26.5-7 36.54z" fill-rule="evenodd" stroke="#004100" stroke-width="2.365294" fill="#006800"/><path stroke-linejoin="round" d="M222.22 184.96c11.06 16.14 9.34 31.36 7.62 50.54-.3-1.52-3.96-10.96-4.27-10.96-16.44-10.35-5.48-29.53-3.35-39.58z" fill-rule="evenodd" stroke="#004100" stroke-width="2.365294" fill="#006800"/><path stroke-linejoin="round" d="M231.35 209.93c26.8-13.5 16.44-30.65 21.3-43.84-18.56 13.8-21 28.5-21.3 43.83z" fill-rule="evenodd" stroke="#004100" stroke-width="2.365294" fill="#006800"/><path d="M235 206.58c3.35-9.44 10.05-25.57 10.66-25.57M227.1 226.37c-.62-6.7-3.97-24.66-4.27-26.5" stroke="#00a400" stroke-linecap="round" stroke-width="2.2153810000000003" fill="none"/><path stroke-linejoin="round" d="M228.3 256.5c-14.92-.9-31.05-21.3-35.3-37.14 0 .2 5.47 3.45 4.55 4.26 21.42 9.54 23.65 18.17 30.75 32.88zM223.87 242.5c-11.06-16.14-13-28.32-11.26-47.5.3 1.52 3.97 10.96 4.27 10.96 16.44 10.35 9.13 26.5 7 36.53zM233.78 214.2c27.7-12.3 19.18-25.17 27.4-38.67-18.57 13.8-27.1 23.34-27.4 38.66z" fill-rule="evenodd" stroke="#004100" stroke-width="2.365294" fill="#006800"/><path d="M235 211.45c11.27-11.27 15.22-20.7 15.22-20.7" stroke="#00a400" stroke-linecap="round" stroke-width="2.2153810000000003" fill="none"/><g fill-rule="evenodd"><path d="M333.56 366.36l13.5.27c-44.8-41.94-130.6-60.2-118.68-137.4-12.3 83.7 70.12 91.42 105.18 137.13z" stroke="#e9bf00" stroke-width="2.365294" fill="#ffe100"/><path d="M235.42 212.66c0 2.37-1.93 4.3-4.3 4.3s-4.3-1.93-4.3-4.3 1.93-4.3 4.3-4.3 4.3 1.93 4.3 4.3zM232.8 236.3c0 2.24-1.83 4.06-4.07 4.06-2.25 0-4.06-1.82-4.06-4.06 0-2.24 1.8-4.06 4.06-4.06 2.24 0 4.06 1.82 4.06 4.06zM236.6 269.98c0 1.98-1.6 3.58-3.58 3.58s-3.58-1.6-3.58-3.58 1.6-3.58 3.58-3.58 3.58 1.6 3.58 3.58zM267.88 307.22c0 1.98-1.6 3.58-3.6 3.58s-3.57-1.6-3.57-3.58 1.62-3.58 3.6-3.58 3.58 1.6 3.58 3.58zM272.4 317.9c0 1.98-1.6 3.6-3.57 3.6s-3.58-1.62-3.58-3.6 1.6-3.57 3.58-3.57 3.58 1.6 3.58 3.58z" stroke="#68300e" stroke-width="1.116019" fill="#9d4916"/></g><g fill-rule="evenodd" fill="#fff"><g stroke="#000" stroke-width=".67"><path d="M288.2 349.03c-2.35-2.13-3.85-3.5-4.77-5.83-4.68-.5-9.37-1-14.05-1.52-.06 2.67-.12 5.34-.2 8.02l19.02-.67z" stroke-width="1.116019"/><path stroke-linejoin="round" d="M185.3 339.57c8.17 1.5 20.47-.75 24.5 4.52 4.8 5.45-15.1 13.86-12.26 18.6 6.16 6.5 12.5 3.82 19.4.2 1.62-3.5 2.88-9.8 3.76-11.66-2.5-5.77-9.25-8.6-7.53-17.32 11.37-4.25 33.23-3.9 35.6-2.26 1.83 3.63.17 5.28.55 8.16-1.88 3.64-6.73 9.8-6.74 13.08 11.93 4.2 15.08-.65 25.8-.36 12.58.15 20.23 3.53 22.96-1.47-1.87-4.32-13.4-.8-17.78-3.58-2.2-.75-3.6-2.5-5.5-4.45s-7.2-2.04-8-6.82c2.23-10.2 16.97-8.65 19.38-10.2 12.8.86 25.6 1.74 38.4 2.62 6.96-.2 10.9 12.33 1.5 16.1-9.4 3.76-37.18-5.6-49.23.83-.62-2.62-9.28-6.58-9.9-6.7-3.7 1.1-10.88.7-10.88.7-1.76 3.25-3.77 5.64-5.52 8.9-7.98-3.5-15.52 2.72-24.23.88 0 0-13.17 1.5-13.55 1.5s-8.66-.75-8.66-.75l-13.18 3.78c3.14-2.76 6.28-5.52 9.4-8.3l-8.27-6z" stroke-width="1.116019"/><path d="M184.73 337.95c0 2-1.62 3.63-3.63 3.63-2 0-3.63-1.62-3.63-3.63s1.63-3.63 3.63-3.63 3.63 1.63 3.63 3.63zM183.78 355.9c0 2.02-1.63 3.64-3.63 3.64s-3.63-1.62-3.63-3.63c0-2 1.62-3.62 3.63-3.62 2 0 3.63 1.63 3.63 3.63z" stroke-width="1.116019"/></g><g stroke="#000" stroke-width=".67"><path d="M346.25 349.1c2.36-2.14 3.86-3.5 4.78-5.83l14.04-1.53.2 8.03-19.02-.67z" stroke-width="1.116019"/><path stroke-linejoin="round" d="M449.14 339.64c-8.15 1.5-20.45-.76-24.47 4.5-4.82 5.48 15.1 13.9 12.24 18.6-6.15 6.53-12.5 3.84-19.38.24-1.63-3.52-2.88-9.8-3.77-11.67 2.5-5.77 9.25-8.6 7.53-17.3-11.37-4.26-33.23-3.9-35.58-2.27-1.85 3.62-.2 5.27-.56 8.16 1.88 3.63 6.72 9.8 6.73 13.06-11.93 4.2-15.07-.64-25.8-.36-12.58.16-20.23 3.53-22.96-1.47 1.88-4.3 13.4-.8 17.8-3.57 2.18-.74 3.6-2.5 5.5-4.44s7.2-2.04 8-6.82c-2.23-10.2-16.97-8.65-19.38-10.22l-38.4 2.64c-6.96-.2-10.9 12.32-1.5 16.1 9.4 3.75 37.18-5.6 49.23.83.62-2.62 9.28-6.6 9.9-6.7 3.7 1.1 10.9.7 10.9.7 1.75 3.25 3.75 5.64 5.5 8.9 7.98-3.5 15.52 2.72 24.23.88 0 0 13.18 1.5 13.56 1.5s8.65-.75 8.65-.75l13.17 3.76-9.4-8.28c2.75-2 5.5-4.02 8.27-6.02z" stroke-width="1.116019"/><path d="M449.72 338.02c0 2 1.63 3.63 3.63 3.63s3.63-1.63 3.63-3.63-1.62-3.63-3.63-3.63c-2 0-3.63 1.6-3.63 3.62zM450.68 355.98c0 2 1.62 3.63 3.63 3.63s3.64-1.62 3.64-3.62-1.63-3.63-3.63-3.63-3.62 1.62-3.62 3.63z" stroke-width="1.116019"/></g><path d="M317 329.34c-3.25-.6-4.4-.43-6.58-.65l-5.15 15.8c7.94.72 15.3.72 15.3.66-4.82-.98-3.65-15.75-3.58-15.82z"/></g><g font-size="9" font-family="Trebuchet MS" font-weight="bold"><text y="344.27" x="448.6" transform="matrix(1.7 0 0 1.7 -464.9 -233.3)"><tspan y="344.27" x="448.6">L</tspan></text><text y="344.62" x="453.64" transform="matrix(1.7 0 0 1.7 -464.9 -233.3)"><tspan y="344.62" x="453.64">I</tspan></text><text y="345.06" x="456.68" transform="matrix(1.7 0 0 1.7 -464.9 -233.3)"><tspan y="345.06" x="456.68">B</tspan></text><text y="345.49" x="462.58" transform="matrix(1.7 0 0 1.7 -464.9 -233.3)"><tspan y="345.49" x="462.58">E</tspan></text><text y="345.58" x="468.31" transform="matrix(1.7 0 0 1.7 -464.9 -233.3)"><tspan y="345.58" x="468.31">R</tspan></text><text y="345.4" x="473.95" transform="matrix(1.7 0 0 1.7 -464.9 -233.3)"><tspan y="345.4" x="473.95">T</tspan></text><text y="344.53" x="479.25" transform="matrix(1.7 0 0 1.7 -464.9 -233.3)"><tspan y="344.53" x="479.25">A</tspan></text><text y="344.27" x="485.5" transform="matrix(1.7 0 0 1.7 -464.9 -233.3)"><tspan y="344.27" x="485.5">S</tspan></text></g><path d="M245.7 329.96c10.25 1.24 24.55.3 30.76 0M230.16 294.84c8.7 6.83 27.66 10.87 27.34 10.87M268.38 307.6c-2.8-14.3-5.9-17.72-8.4-26.73M215.56 264.7c14.6 6.52 16.78 10.87 26.1 17.4M246.94 267.8c1.25-17.7 3.73-22.36 8.08-26.4M215.56 239.23c5.28 5.9 22.68 24.24 22.68 24.24M231.1 223.06c6.52 4.66 6.52 21.44 6.52 21.44" stroke="#00a400" stroke-linecap="round" stroke-width="2.261" fill="none"/></svg>