<svg xmlns="http://www.w3.org/2000/svg" height="480" width="640"><defs><clipPath id="a"><path fill-opacity=".67" d="M0 0h682.67v512H0z"/></clipPath></defs><g clip-path="url(#a)" fill-rule="evenodd" transform="matrix(.9 0 0 .9 0 0)"><path fill="#ff0" d="M0 0h1024v504.3H0z"/><path fill="#009d00" d="M0 0h1024v146.3H0zM0 365.7h1024V512H0z"/><path d="M.7 0C2.13 0 256 253.03 256 253.03L0 512 .7 0z" fill="#f10600"/><g stroke-width="1pt"><path d="M411.97 268.7L380 244.8l39.5.03 12.17-38.7 12.17 38.7 39.5-.03-31.97 23.9 12.23 38.67-31.94-23.94-31.93 23.94M215.05 268.7l-31.97-23.9 39.5.03 12.17-38.7 12.17 38.7 39.5-.03-31.97 23.9 12.23 38.67-31.94-23.94-31.93 23.94"/></g></g></svg>