<svg xmlns="http://www.w3.org/2000/svg" height="480" width="640"><defs><clipPath id="a"><path fill-opacity=".67" d="M0 0h640v480H0z"/></clipPath></defs><g clip-path="url(#a)"><path fill-rule="evenodd" fill="#5387f4" d="M-79.43 318.86h798.86V480H-79.43zM-79.43 0h798.86v161.14H-79.43z"/><path fill-rule="evenodd" fill="#fff" d="M-79.43 161.14h798.86v157.7H-79.43z"/><g stroke="#000" fill-rule="evenodd"><path d="M490.58 234.24c0 .85-.82 1.53-1.84 1.53s-1.83-.68-1.83-1.53.83-1.53 1.84-1.53 1.84.7 1.84 1.54z" transform="matrix(-.8 -.5 -.6 1 779.7 213)" stroke-width=".33" fill="red"/><path d="M490.58 234.24c0 .85-.82 1.53-1.84 1.53s-1.83-.68-1.83-1.53.83-1.53 1.84-1.53 1.84.7 1.84 1.54z" transform="matrix(-.8 -.5 -.6 1 785.7 217.6)" stroke-width=".33" fill="red"/><path d="M259.03 105.7s400.32 70.65 414.45 395.63C687.6 826.3 485.08 868.7 414.45 920.5c-70.64 51.8-113.03 113.02-146 113.02s-80.06-14.13-80.06-14.13 9.4 51.8 75.34 47.1c65.94-4.72 127.16-113.04 164.84-131.88s277.88-98.9 259.04-428.58C673.5 152.8 263.74 115.14 259.02 105.7z" transform="matrix(-.2 0 0 .2 329.9 148.6)" stroke-width="1.6" fill="#006700"/><path d="M320.26 487.2c0 59.83-11.6 108.32-25.9 108.32s-25.9-48.5-25.9-108.32c0-59.83 11.6-108.32 25.9-108.32s25.9 48.5 25.9 108.32z" transform="matrix(-.1 0 0 .1 293.8 152.9)" stroke-width="1.6" fill="#006700"/><path d="M320.26 487.2c0 59.83-11.6 108.32-25.9 108.32s-25.9-48.5-25.9-108.32c0-59.83 11.6-108.32 25.9-108.32s25.9 48.5 25.9 108.32z" transform="matrix(-.1 0 0 .1 302 162.3)" stroke-width="1.6" fill="#006700"/><path d="M320.26 487.2c0 59.83-11.6 108.32-25.9 108.32s-25.9-48.5-25.9-108.32c0-59.83 11.6-108.32 25.9-108.32s25.9 48.5 25.9 108.32z" transform="matrix(0 -.1 -.1 0 306.2 212.3)" stroke-width="1.6" fill="#006700"/><path d="M320.26 487.2c0 59.83-11.6 108.32-25.9 108.32s-25.9-48.5-25.9-108.32c0-59.83 11.6-108.32 25.9-108.32s25.9 48.5 25.9 108.32z" transform="matrix(0 -.1 -.1 0 311 193.2)" stroke-width="1.6" fill="#006700"/><path d="M320.26 487.2c0 59.83-11.6 108.32-25.9 108.32s-25.9-48.5-25.9-108.32c0-59.83 11.6-108.32 25.9-108.32s25.9 48.5 25.9 108.32z" transform="matrix(-.1 -.1 -.1 .1 309 179.5)" stroke-width="1.6" fill="#006700"/><path d="M490.58 234.24c0 .85-.82 1.53-1.84 1.53s-1.83-.68-1.83-1.53.83-1.53 1.84-1.53 1.84.7 1.84 1.54z" transform="matrix(-.9 -.3 -.4 1.1 749.4 107.3)" stroke-width=".33" fill="red"/><path d="M490.58 234.24c0 .85-.82 1.53-1.84 1.53s-1.83-.68-1.83-1.53.83-1.53 1.84-1.53 1.84.7 1.84 1.54z" transform="matrix(-.9 -.3 -.4 1.1 756.3 110.4)" stroke-width=".33" fill="red"/><path d="M320.26 487.2c0 59.83-11.6 108.32-25.9 108.32s-25.9-48.5-25.9-108.32c0-59.83 11.6-108.32 25.9-108.32s25.9 48.5 25.9 108.32z" transform="matrix(-.1 0 0 .1 275.9 136.6)" stroke-width="1.6" fill="#006700"/><path d="M320.26 487.2c0 59.83-11.6 108.32-25.9 108.32s-25.9-48.5-25.9-108.32c0-59.83 11.6-108.32 25.9-108.32s25.9 48.5 25.9 108.32z" transform="matrix(-.1 0 0 .1 290.3 146.2)" stroke-width="1.6" fill="#006700"/><path d="M320.26 487.2c0 59.83-11.6 108.32-25.9 108.32s-25.9-48.5-25.9-108.32c0-59.83 11.6-108.32 25.9-108.32s25.9 48.5 25.9 108.32z" transform="matrix(0 -.1 -.1 .1 312.4 215.8)" stroke-width="1.6" fill="#006700"/><path d="M320.26 487.2c0 59.83-11.6 108.32-25.9 108.32s-25.9-48.5-25.9-108.32c0-59.83 11.6-108.32 25.9-108.32s25.9 48.5 25.9 108.32z" transform="matrix(-.1 -.1 -.1 .1 312.8 186.4)" stroke-width="1.6" fill="#006700"/><path d="M320.26 487.2c0 59.83-11.6 108.32-25.9 108.32s-25.9-48.5-25.9-108.32c0-59.83 11.6-108.32 25.9-108.32s25.9 48.5 25.9 108.32z" transform="matrix(-.1 -.1 -.1 .1 305.7 167.7)" stroke-width="1.6" fill="#006700"/><path d="M320.26 487.2c0 59.83-11.6 108.32-25.9 108.32s-25.9-48.5-25.9-108.32c0-59.83 11.6-108.32 25.9-108.32s25.9 48.5 25.9 108.32z" transform="matrix(-.1 .1 0 .1 251.9 157.5)" stroke-width="1.6" fill="#006700"/><path d="M320.26 487.2c0 59.83-11.6 108.32-25.9 108.32s-25.9-48.5-25.9-108.32c0-59.83 11.6-108.32 25.9-108.32s25.9 48.5 25.9 108.32z" transform="matrix(-.1 0 0 .1 267.7 164.2)" stroke-width="1.6" fill="#006700"/><path d="M320.26 487.2c0 59.83-11.6 108.32-25.9 108.32s-25.9-48.5-25.9-108.32c0-59.83 11.6-108.32 25.9-108.32s25.9 48.5 25.9 108.32z" transform="matrix(-.1 -.1 -.1 .1 301.6 228.7)" stroke-width="1.6" fill="#006700"/><path d="M320.26 487.2c0 59.83-11.6 108.32-25.9 108.32s-25.9-48.5-25.9-108.32c0-59.83 11.6-108.32 25.9-108.32s25.9 48.5 25.9 108.32z" transform="matrix(-.1 -.1 -.1 .1 296.8 199.5)" stroke-width="1.6" fill="#006700"/><path d="M320.26 487.2c0 59.83-11.6 108.32-25.9 108.32s-25.9-48.5-25.9-108.32c0-59.83 11.6-108.32 25.9-108.32s25.9 48.5 25.9 108.32z" transform="matrix(-.1 0 0 .1 286.5 182.4)" stroke-width="1.6" fill="#006700"/><path d="M320.26 487.2c0 59.83-11.6 108.32-25.9 108.32s-25.9-48.5-25.9-108.32c0-59.83 11.6-108.32 25.9-108.32s25.9 48.5 25.9 108.32z" transform="matrix(-.1 .1 .1 .1 219.3 183.4)" stroke-width="1.6" fill="#006700"/><path d="M320.26 487.2c0 59.83-11.6 108.32-25.9 108.32s-25.9-48.5-25.9-108.32c0-59.83 11.6-108.32 25.9-108.32s25.9 48.5 25.9 108.32z" transform="matrix(-.1 .1 0 .1 236.2 182.9)" stroke-width="1.6" fill="#006700"/><path d="M320.26 487.2c0 59.83-11.6 108.32-25.9 108.32s-25.9-48.5-25.9-108.32c0-59.83 11.6-108.32 25.9-108.32s25.9 48.5 25.9 108.32z" transform="matrix(-.1 -.1 0 .1 291.4 228.4)" stroke-width="1.6" fill="#006700"/><path d="M320.26 487.2c0 59.83-11.6 108.32-25.9 108.32s-25.9-48.5-25.9-108.32c0-59.83 11.6-108.32 25.9-108.32s25.9 48.5 25.9 108.32z" transform="matrix(-.1 0 0 .1 276 203.4)" stroke-width="1.6" fill="#006700"/><path d="M320.26 487.2c0 59.83-11.6 108.32-25.9 108.32s-25.9-48.5-25.9-108.32c0-59.83 11.6-108.32 25.9-108.32s25.9 48.5 25.9 108.32z" transform="matrix(-.1 0 0 .1 260.1 191.9)" stroke-width="1.6" fill="#006700"/><path d="M320.26 487.2c0 59.83-11.6 108.32-25.9 108.32s-25.9-48.5-25.9-108.32c0-59.83 11.6-108.32 25.9-108.32s25.9 48.5 25.9 108.32z" transform="matrix(-.1 .1 .1 .1 200.3 208.6)" stroke-width="1.6" fill="#006700"/><path d="M490.58 234.24c0 .85-.82 1.53-1.84 1.53s-1.83-.68-1.83-1.53.83-1.53 1.84-1.53 1.84.7 1.84 1.54z" transform="matrix(-.4 -.5 -.7 .4 623.8 344.4)" stroke-width=".33" fill="red"/><path d="M490.58 234.24c0 .85-.82 1.53-1.84 1.53s-1.83-.68-1.83-1.53.83-1.53 1.84-1.53 1.84.7 1.84 1.54z" transform="matrix(-.4 -.5 -.7 .4 626.3 348.9)" stroke-width=".33" fill="red"/><path d="M320.26 487.2c0 59.83-11.6 108.32-25.9 108.32s-25.9-48.5-25.9-108.32c0-59.83 11.6-108.32 25.9-108.32s25.9 48.5 25.9 108.32z" transform="matrix(-.1 .1 .1 .1 218.7 201.9)" stroke-width="1.6" fill="#006700"/><path d="M320.26 487.2c0 59.83-11.6 108.32-25.9 108.32s-25.9-48.5-25.9-108.32c0-59.83 11.6-108.32 25.9-108.32s25.9 48.5 25.9 108.32z" transform="matrix(-.1 -.1 0 .1 294.1 231.7)" stroke-width="1.6" fill="#006700"/><path d="M320.26 487.2c0 59.83-11.6 108.32-25.9 108.32s-25.9-48.5-25.9-108.32c0-59.83 11.6-108.32 25.9-108.32s25.9 48.5 25.9 108.32z" transform="matrix(-.1 0 0 .2 269.1 209.8)" stroke-width="1.6" fill="#006700"/><path d="M320.26 487.2c0 59.83-11.6 108.32-25.9 108.32s-25.9-48.5-25.9-108.32c0-59.83 11.6-108.32 25.9-108.32s25.9 48.5 25.9 108.32z" transform="matrix(-.1 0 .1 .1 247.9 203)" stroke-width="1.6" fill="#006700"/><path d="M320.26 487.2c0 59.83-11.6 108.32-25.9 108.32s-25.9-48.5-25.9-108.32c0-59.83 11.6-108.32 25.9-108.32s25.9 48.5 25.9 108.32z" transform="matrix(0 .2 .2 0 175.2 260.4)" stroke-width="1.6" fill="#006700"/><path d="M490.58 234.24c0 .85-.82 1.53-1.84 1.53s-1.83-.68-1.83-1.53.83-1.53 1.84-1.53 1.84.7 1.84 1.54z" transform="matrix(-.6 .7 .9 .7 303.5 -210.8)" stroke-width=".33" fill="red"/><path d="M490.58 234.24c0 .85-.82 1.53-1.84 1.53s-1.83-.68-1.83-1.53.83-1.53 1.84-1.53 1.84.7 1.84 1.54z" transform="matrix(-.6 .7 .9 .7 308.7 -216.2)" stroke-width=".33" fill="red"/><path d="M320.26 487.2c0 59.83-11.6 108.32-25.9 108.32s-25.9-48.5-25.9-108.32c0-59.83 11.6-108.32 25.9-108.32s25.9 48.5 25.9 108.32z" transform="matrix(0 .1 .2 .1 189.3 243.1)" stroke-width="1.6" fill="#006700"/><path d="M320.26 487.2c0 59.83-11.6 108.32-25.9 108.32s-25.9-48.5-25.9-108.32c0-59.83 11.6-108.32 25.9-108.32s25.9 48.5 25.9 108.32z" transform="matrix(-.2 0 .1 .1 278.1 226.9)" stroke-width="1.6" fill="#006700"/><path d="M320.26 487.2c0 59.83-11.6 108.32-25.9 108.32s-25.9-48.5-25.9-108.32c0-59.83 11.6-108.32 25.9-108.32s25.9 48.5 25.9 108.32z" transform="matrix(-.1 .1 .1 .1 242.2 220.8)" stroke-width="1.6" fill="#006700"/><path d="M320.26 487.2c0 59.83-11.6 108.32-25.9 108.32s-25.9-48.5-25.9-108.32c0-59.83 11.6-108.32 25.9-108.32s25.9 48.5 25.9 108.32z" transform="matrix(-.1 .1 .1 .1 218.2 226.8)" stroke-width="1.6" fill="#006700"/><g stroke-width="1.6" fill="#006700"><path d="M314.7 506.2c0 45.06-10.05 81.6-22.47 81.6s-22.48-36.54-22.48-81.6c0-45.06 10.07-81.6 22.48-81.6s22.48 36.54 22.48 81.6z" transform="matrix(0 .2 .2 0 176.2 267.5)"/><path d="M314.7 506.2c0 45.06-10.05 81.6-22.47 81.6s-22.48-36.54-22.48-81.6c0-45.06 10.07-81.6 22.48-81.6s22.48 36.54 22.48 81.6z" transform="matrix(-.2 .1 .1 .2 268.8 191.3)"/><path d="M314.7 506.2c0 45.06-10.05 81.6-22.47 81.6s-22.48-36.54-22.48-81.6c0-45.06 10.07-81.6 22.48-81.6s22.48 36.54 22.48 81.6z" transform="matrix(-.1 .2 .2 .1 208.1 223.3)"/></g><g stroke-width="1.6" fill="#006700"><path d="M314.7 506.2c0 45.06-10.05 81.6-22.47 81.6s-22.48-36.54-22.48-81.6c0-45.06 10.07-81.6 22.48-81.6s22.48 36.54 22.48 81.6z" transform="matrix(-.1 0 -.1 .1 355.3 150.3)"/><path d="M314.7 506.2c0 45.06-10.05 81.6-22.47 81.6s-22.48-36.54-22.48-81.6c0-45.06 10.07-81.6 22.48-81.6s22.48 36.54 22.48 81.6z" transform="matrix(0 -.1 -.1 0 343.8 206.9)"/><path d="M314.7 506.2c0 45.06-10.05 81.6-22.47 81.6s-22.48-36.54-22.48-81.6c0-45.06 10.07-81.6 22.48-81.6s22.48 36.54 22.48 81.6z" transform="matrix(0 -.1 -.1 .1 358.5 173.8)"/></g><path d="M490.58 234.24c0 .85-.82 1.53-1.84 1.53s-1.83-.68-1.83-1.53.83-1.53 1.84-1.53 1.84.7 1.84 1.54z" transform="matrix(-.9 0 0 1.1 681 -17.9)" stroke-width=".33" fill="red"/><path d="M490.58 234.24c0 .85-.82 1.53-1.84 1.53s-1.83-.68-1.83-1.53.83-1.53 1.84-1.53 1.84.7 1.84 1.54z" transform="matrix(-.9 0 0 1.1 688.5 -17.2)" stroke-width=".33" fill="red"/><path d="M490.58 234.24c0 .85-.82 1.53-1.84 1.53s-1.83-.68-1.83-1.53.83-1.53 1.84-1.53 1.84.7 1.84 1.54z" transform="matrix(-.8 .5 .6 1 490.1 -175.9)" stroke-width=".33" fill="red"/><path d="M490.58 234.24c0 .85-.82 1.53-1.84 1.53s-1.83-.68-1.83-1.53.83-1.53 1.84-1.53 1.84.7 1.84 1.54z" transform="matrix(-.8 .5 .6 1 497 -178.9)" stroke-width=".33" fill="red"/><path d="M490.58 234.24c0 .85-.82 1.53-1.84 1.53s-1.83-.68-1.83-1.53.83-1.53 1.84-1.53 1.84.7 1.84 1.54z" transform="matrix(-.5 -.4 -.5 .5 640.9 250.1)" stroke-width=".33" fill="red"/><path d="M490.58 234.24c0 .85-.82 1.53-1.84 1.53s-1.83-.68-1.83-1.53.83-1.53 1.84-1.53 1.84.7 1.84 1.54z" transform="matrix(-.5 -.4 -.5 .5 644.6 253.7)" stroke-width=".33" fill="red"/><g><path d="M490.58 234.24c0 .85-.82 1.53-1.84 1.53s-1.83-.68-1.83-1.53.83-1.53 1.84-1.53 1.84.7 1.84 1.54z" transform="matrix(.8 -.5 .6 1 -140.2 213.7)" stroke-width=".33" fill="red"/><path d="M490.58 234.24c0 .85-.82 1.53-1.84 1.53s-1.83-.68-1.83-1.53.83-1.53 1.84-1.53 1.84.7 1.84 1.54z" transform="matrix(.8 -.5 .6 1 -146.2 218.4)" stroke-width=".33" fill="red"/><path d="M259.03 105.7s400.32 70.65 414.45 395.63C687.6 826.3 485.08 868.7 414.45 920.5c-70.64 51.8-113.03 113.02-146 113.02s-80.06-14.13-80.06-14.13 9.4 51.8 75.34 47.1c65.94-4.72 127.16-113.04 164.84-131.88s277.88-98.9 259.04-428.58C673.5 152.8 263.74 115.14 259.02 105.7z" transform="matrix(.2 0 0 .2 309.6 149.4)" stroke-width="1.6" fill="#006700"/><path d="M320.26 487.2c0 59.83-11.6 108.32-25.9 108.32s-25.9-48.5-25.9-108.32c0-59.83 11.6-108.32 25.9-108.32s25.9 48.5 25.9 108.32z" transform="matrix(.1 0 0 .1 345.7 153.7)" stroke-width="1.6" fill="#006700"/><path d="M320.26 487.2c0 59.83-11.6 108.32-25.9 108.32s-25.9-48.5-25.9-108.32c0-59.83 11.6-108.32 25.9-108.32s25.9 48.5 25.9 108.32z" transform="matrix(.1 0 0 .1 337.5 163)" stroke-width="1.6" fill="#006700"/><path d="M320.26 487.2c0 59.83-11.6 108.32-25.9 108.32s-25.9-48.5-25.9-108.32c0-59.83 11.6-108.32 25.9-108.32s25.9 48.5 25.9 108.32z" transform="matrix(0 -.1 .1 0 333.3 213)" stroke-width="1.6" fill="#006700"/><path d="M320.26 487.2c0 59.83-11.6 108.32-25.9 108.32s-25.9-48.5-25.9-108.32c0-59.83 11.6-108.32 25.9-108.32s25.9 48.5 25.9 108.32z" transform="matrix(0 -.1 .1 0 328.5 194)" stroke-width="1.6" fill="#006700"/><path d="M320.26 487.2c0 59.83-11.6 108.32-25.9 108.32s-25.9-48.5-25.9-108.32c0-59.83 11.6-108.32 25.9-108.32s25.9 48.5 25.9 108.32z" transform="matrix(.1 -.1 .1 .1 330.5 180.3)" stroke-width="1.6" fill="#006700"/><path d="M490.58 234.24c0 .85-.82 1.53-1.84 1.53s-1.83-.68-1.83-1.53.83-1.53 1.84-1.53 1.84.7 1.84 1.54z" transform="matrix(.9 -.3 .4 1.1 -109.9 108)" stroke-width=".33" fill="red"/><path d="M490.58 234.24c0 .85-.82 1.53-1.84 1.53s-1.83-.68-1.83-1.53.83-1.53 1.84-1.53 1.84.7 1.84 1.54z" transform="matrix(.9 -.3 .4 1.1 -116.8 111.1)" stroke-width=".33" fill="red"/><path d="M320.26 487.2c0 59.83-11.6 108.32-25.9 108.32s-25.9-48.5-25.9-108.32c0-59.83 11.6-108.32 25.9-108.32s25.9 48.5 25.9 108.32z" transform="matrix(.1 0 0 .1 363.6 137.3)" stroke-width="1.6" fill="#006700"/><path d="M320.26 487.2c0 59.83-11.6 108.32-25.9 108.32s-25.9-48.5-25.9-108.32c0-59.83 11.6-108.32 25.9-108.32s25.9 48.5 25.9 108.32z" transform="matrix(.1 0 0 .1 349.2 146.9)" stroke-width="1.6" fill="#006700"/><path d="M320.26 487.2c0 59.83-11.6 108.32-25.9 108.32s-25.9-48.5-25.9-108.32c0-59.83 11.6-108.32 25.9-108.32s25.9 48.5 25.9 108.32z" transform="matrix(0 -.1 .1 .1 327.1 216.6)" stroke-width="1.6" fill="#006700"/><path d="M320.26 487.2c0 59.83-11.6 108.32-25.9 108.32s-25.9-48.5-25.9-108.32c0-59.83 11.6-108.32 25.9-108.32s25.9 48.5 25.9 108.32z" transform="matrix(.1 -.1 .1 .1 326.6 187.2)" stroke-width="1.6" fill="#006700"/><path d="M320.26 487.2c0 59.83-11.6 108.32-25.9 108.32s-25.9-48.5-25.9-108.32c0-59.83 11.6-108.32 25.9-108.32s25.9 48.5 25.9 108.32z" transform="matrix(.1 -.1 .1 .1 333.8 168.5)" stroke-width="1.6" fill="#006700"/><path d="M320.26 487.2c0 59.83-11.6 108.32-25.9 108.32s-25.9-48.5-25.9-108.32c0-59.83 11.6-108.32 25.9-108.32s25.9 48.5 25.9 108.32z" transform="matrix(.1 .1 0 .1 387.6 158.3)" stroke-width="1.6" fill="#006700"/><path d="M320.26 487.2c0 59.83-11.6 108.32-25.9 108.32s-25.9-48.5-25.9-108.32c0-59.83 11.6-108.32 25.9-108.32s25.9 48.5 25.9 108.32z" transform="matrix(.1 0 0 .1 371.8 164.9)" stroke-width="1.6" fill="#006700"/><path d="M320.26 487.2c0 59.83-11.6 108.32-25.9 108.32s-25.9-48.5-25.9-108.32c0-59.83 11.6-108.32 25.9-108.32s25.9 48.5 25.9 108.32z" transform="matrix(.1 -.1 .1 .1 337.9 229.4)" stroke-width="1.6" fill="#006700"/><path d="M320.26 487.2c0 59.83-11.6 108.32-25.9 108.32s-25.9-48.5-25.9-108.32c0-59.83 11.6-108.32 25.9-108.32s25.9 48.5 25.9 108.32z" transform="matrix(.1 -.1 .1 .1 342.7 200.3)" stroke-width="1.6" fill="#006700"/><path d="M320.26 487.2c0 59.83-11.6 108.32-25.9 108.32s-25.9-48.5-25.9-108.32c0-59.83 11.6-108.32 25.9-108.32s25.9 48.5 25.9 108.32z" transform="matrix(.1 0 0 .1 353 183.2)" stroke-width="1.6" fill="#006700"/><path d="M320.26 487.2c0 59.83-11.6 108.32-25.9 108.32s-25.9-48.5-25.9-108.32c0-59.83 11.6-108.32 25.9-108.32s25.9 48.5 25.9 108.32z" transform="matrix(.1 .1 -.1 .1 420.2 184.2)" stroke-width="1.6" fill="#006700"/><path d="M320.26 487.2c0 59.83-11.6 108.32-25.9 108.32s-25.9-48.5-25.9-108.32c0-59.83 11.6-108.32 25.9-108.32s25.9 48.5 25.9 108.32z" transform="matrix(.1 .1 0 .1 403.3 183.7)" stroke-width="1.6" fill="#006700"/><path d="M320.26 487.2c0 59.83-11.6 108.32-25.9 108.32s-25.9-48.5-25.9-108.32c0-59.83 11.6-108.32 25.9-108.32s25.9 48.5 25.9 108.32z" transform="matrix(.1 -.1 0 .1 348.1 229.2)" stroke-width="1.6" fill="#006700"/><path d="M320.26 487.2c0 59.83-11.6 108.32-25.9 108.32s-25.9-48.5-25.9-108.32c0-59.83 11.6-108.32 25.9-108.32s25.9 48.5 25.9 108.32z" transform="matrix(.1 0 0 .1 363.5 204.2)" stroke-width="1.6" fill="#006700"/><path d="M320.26 487.2c0 59.83-11.6 108.32-25.9 108.32s-25.9-48.5-25.9-108.32c0-59.83 11.6-108.32 25.9-108.32s25.9 48.5 25.9 108.32z" transform="matrix(.1 0 0 .1 379.4 192.7)" stroke-width="1.6" fill="#006700"/><path d="M320.26 487.2c0 59.83-11.6 108.32-25.9 108.32s-25.9-48.5-25.9-108.32c0-59.83 11.6-108.32 25.9-108.32s25.9 48.5 25.9 108.32z" transform="matrix(.1 .1 -.1 .1 439.2 209.4)" stroke-width="1.6" fill="#006700"/><path d="M490.58 234.24c0 .85-.82 1.53-1.84 1.53s-1.83-.68-1.83-1.53.83-1.53 1.84-1.53 1.84.7 1.84 1.54z" transform="matrix(.4 -.5 .7 .4 15.7 345.2)" stroke-width=".33" fill="red"/><path d="M490.58 234.24c0 .85-.82 1.53-1.84 1.53s-1.83-.68-1.83-1.53.83-1.53 1.84-1.53 1.84.7 1.84 1.54z" transform="matrix(.4 -.5 .7 .4 13.2 349.7)" stroke-width=".33" fill="red"/><path d="M320.26 487.2c0 59.83-11.6 108.32-25.9 108.32s-25.9-48.5-25.9-108.32c0-59.83 11.6-108.32 25.9-108.32s25.9 48.5 25.9 108.32z" transform="matrix(.1 .1 -.1 .1 420.8 202.7)" stroke-width="1.6" fill="#006700"/><path d="M320.26 487.2c0 59.83-11.6 108.32-25.9 108.32s-25.9-48.5-25.9-108.32c0-59.83 11.6-108.32 25.9-108.32s25.9 48.5 25.9 108.32z" transform="matrix(.1 -.1 0 .1 345.4 232.4)" stroke-width="1.6" fill="#006700"/><path d="M320.26 487.2c0 59.83-11.6 108.32-25.9 108.32s-25.9-48.5-25.9-108.32c0-59.83 11.6-108.32 25.9-108.32s25.9 48.5 25.9 108.32z" transform="matrix(.1 0 0 .2 370.4 210.5)" stroke-width="1.6" fill="#006700"/><path d="M320.26 487.2c0 59.83-11.6 108.32-25.9 108.32s-25.9-48.5-25.9-108.32c0-59.83 11.6-108.32 25.9-108.32s25.9 48.5 25.9 108.32z" transform="matrix(.1 0 -.1 .1 391.6 203.7)" stroke-width="1.6" fill="#006700"/><path d="M320.26 487.2c0 59.83-11.6 108.32-25.9 108.32s-25.9-48.5-25.9-108.32c0-59.83 11.6-108.32 25.9-108.32s25.9 48.5 25.9 108.32z" transform="matrix(0 .2 -.2 0 464.3 261.1)" stroke-width="1.6" fill="#006700"/><path d="M490.58 234.24c0 .85-.82 1.53-1.84 1.53s-1.83-.68-1.83-1.53.83-1.53 1.84-1.53 1.84.7 1.84 1.54z" transform="matrix(.6 .7 -.9 .7 336 -210)" stroke-width=".33" fill="red"/><path d="M490.58 234.24c0 .85-.82 1.53-1.84 1.53s-1.83-.68-1.83-1.53.83-1.53 1.84-1.53 1.84.7 1.84 1.54z" transform="matrix(.6 .7 -.9 .7 330.8 -215.5)" stroke-width=".33" fill="red"/><path d="M320.26 487.2c0 59.83-11.6 108.32-25.9 108.32s-25.9-48.5-25.9-108.32c0-59.83 11.6-108.32 25.9-108.32s25.9 48.5 25.9 108.32z" transform="matrix(0 .1 -.2 .1 450.2 243.8)" stroke-width="1.6" fill="#006700"/><path d="M320.26 487.2c0 59.83-11.6 108.32-25.9 108.32s-25.9-48.5-25.9-108.32c0-59.83 11.6-108.32 25.9-108.32s25.9 48.5 25.9 108.32z" transform="matrix(.2 0 -.1 .1 361.4 227.7)" stroke-width="1.6" fill="#006700"/><path d="M320.26 487.2c0 59.83-11.6 108.32-25.9 108.32s-25.9-48.5-25.9-108.32c0-59.83 11.6-108.32 25.9-108.32s25.9 48.5 25.9 108.32z" transform="matrix(.1 .1 -.1 .1 397.3 221.6)" stroke-width="1.6" fill="#006700"/><path d="M320.26 487.2c0 59.83-11.6 108.32-25.9 108.32s-25.9-48.5-25.9-108.32c0-59.83 11.6-108.32 25.9-108.32s25.9 48.5 25.9 108.32z" transform="matrix(.1 .1 -.1 .1 421.3 227.6)" stroke-width="1.6" fill="#006700"/><g stroke-width="1.6" fill="#006700"><path d="M314.7 506.2c0 45.06-10.05 81.6-22.47 81.6s-22.48-36.54-22.48-81.6c0-45.06 10.07-81.6 22.48-81.6s22.48 36.54 22.48 81.6z" transform="matrix(0 .2 -.2 0 463.3 268.3)"/><path d="M314.7 506.2c0 45.06-10.05 81.6-22.47 81.6s-22.48-36.54-22.48-81.6c0-45.06 10.07-81.6 22.48-81.6s22.48 36.54 22.48 81.6z" transform="matrix(.2 .1 -.1 .2 370.6 192.1)"/><path d="M314.7 506.2c0 45.06-10.05 81.6-22.47 81.6s-22.48-36.54-22.48-81.6c0-45.06 10.07-81.6 22.48-81.6s22.48 36.54 22.48 81.6z" transform="matrix(.1 .2 -.2 .1 431.4 224.1)"/></g><g stroke-width="1.6" fill="#006700"><path d="M314.7 506.2c0 45.06-10.05 81.6-22.47 81.6s-22.48-36.54-22.48-81.6c0-45.06 10.07-81.6 22.48-81.6s22.48 36.54 22.48 81.6z" transform="matrix(.1 0 .1 .1 284.2 151)"/><path d="M314.7 506.2c0 45.06-10.05 81.6-22.47 81.6s-22.48-36.54-22.48-81.6c0-45.06 10.07-81.6 22.48-81.6s22.48 36.54 22.48 81.6z" transform="matrix(0 -.1 .1 0 295.7 207.6)"/><path d="M314.7 506.2c0 45.06-10.05 81.6-22.47 81.6s-22.48-36.54-22.48-81.6c0-45.06 10.07-81.6 22.48-81.6s22.48 36.54 22.48 81.6z" transform="matrix(0 -.1 .1 .1 281 174.6)"/></g><path d="M490.58 234.24c0 .85-.82 1.53-1.84 1.53s-1.83-.68-1.83-1.53.83-1.53 1.84-1.53 1.84.7 1.84 1.54z" transform="matrix(.9 0 0 1.1 -41.5 -17.2)" stroke-width=".33" fill="red"/><path d="M490.58 234.24c0 .85-.82 1.53-1.84 1.53s-1.83-.68-1.83-1.53.83-1.53 1.84-1.53 1.84.7 1.84 1.54z" transform="matrix(.9 0 0 1.1 -49.1 -16.4)" stroke-width=".33" fill="red"/><path d="M490.58 234.24c0 .85-.82 1.53-1.84 1.53s-1.83-.68-1.83-1.53.83-1.53 1.84-1.53 1.84.7 1.84 1.54z" transform="matrix(.8 .5 -.6 1 149.4 -175.1)" stroke-width=".33" fill="red"/><path d="M490.58 234.24c0 .85-.82 1.53-1.84 1.53s-1.83-.68-1.83-1.53.83-1.53 1.84-1.53 1.84.7 1.84 1.54z" transform="matrix(.8 .5 -.6 1 142.4 -178.2)" stroke-width=".33" fill="red"/><path d="M490.58 234.24c0 .85-.82 1.53-1.84 1.53s-1.83-.68-1.83-1.53.83-1.53 1.84-1.53 1.84.7 1.84 1.54z" transform="matrix(.5 -.4 .5 .5 -1.4 250.8)" stroke-width=".33" fill="red"/><path d="M490.58 234.24c0 .85-.82 1.53-1.84 1.53s-1.83-.68-1.83-1.53.83-1.53 1.84-1.53 1.84.7 1.84 1.54z" transform="matrix(.5 -.4 .5 .5 -5.1 254.4)" stroke-width=".33" fill="red"/></g><g stroke-width=".24" fill="#5387f4"><path d="M411.36 319.5l.04 5.26c10.2-.52 5.26 6.97 7.03 11.22l2.25-2.83 3.12 2.8c-.25-4.9 2.75-17.4-12.44-16.45z" transform="matrix(1.2 0 0 1.2 -188.9 -46.7)"/><path d="M411.36 319.5l.04 5.26c10.2-.52 5.26 6.97 7.03 11.22l2.25-2.83 3.12 2.8c-.25-4.9 2.75-17.4-12.44-16.45z" transform="matrix(-1.2 0 0 1.2 828.8 -46.4)"/><path d="M427.88 303.13c.33 1.9-.45 11.37-.86 13.64-.54 1.92-.45 6.7-10.4 7.15-4.78.2-3.9-4.55-3.68-4.55.22 0 1.95 1.73 3.9 0s-.45-17.53 1.5-19.5c2.17-2.14 10 1.5 9.54 3.26z" transform="matrix(1.1 .5 -.5 1.1 37.6 -229.5)"/><path d="M356.7 317.88c-2.13-1.32-3.1-2.38-4.8-.17-6.8 8.96-5.95 20-17.98 17.42-5.65-1.2-2-6.95-1.77-6.84.24.1 1.28 2.88 4.3 1.95 3-.94 8.26-19.5 11.4-20.68 3.45-1.3 10.23 6.63 8.85 8.33z" stroke-width=".28999199999999997"/><path d="M427.88 303.13c.33 1.9-.45 11.37-.86 13.64-.54 1.92-.45 6.7-10.4 7.15-4.78.2-3.9-4.55-3.68-4.55.22 0 1.95 1.73 3.9 0s-.45-17.53 1.5-19.5c2.17-2.14 10 1.5 9.54 3.26z" transform="matrix(-1.1 .5 .5 1.1 604.3 -229.5)"/><path d="M285.2 317.88c2.13-1.32 3.1-2.38 4.8-.17 6.8 8.96 5.95 20 17.98 17.42 5.65-1.2 2-6.95 1.77-6.84-.24.1-1.28 2.88-4.3 1.95-3-.94-8.26-19.5-11.4-20.68-3.45-1.3-10.23 6.63-8.85 8.33z" stroke-width=".28999199999999997"/><path d="M411.57 319.06l-.18 6.77 5.07-.03.6-6.74h-5.5z" transform="matrix(1.2 0 0 1.2 -189.5 -46.7)"/></g></g><path d="M409.7 276.93s-14.33 12.06-14.33 20.73c.3 3.45 3.17 6.98 8.4 9.52-2.4-3.6-2.74-6.52-2.74-9.94.3-5.86 8.46-12.93 8.46-12.93l.2-7.37z" fill-rule="evenodd" transform="matrix(-.9 0 0 .9 694 21.5)" stroke="#000" stroke-width=".24" fill="#5387f4"/><g stroke="#000" fill-rule="evenodd"><path transform="matrix(0 -1.3 -1.1 -.2 -146.7 388.1)" stroke-width=".18" fill="#ffd200" d="M172.65-427.57h49.93v2.05h-49.93z"/><path d="M283.46-389.76l-17.72 70.87 17.72 25.04 17.72-25.03-17.72-70.86z" transform="matrix(-.2 0 0 .2 376.4 239.8)" stroke-width="1.07" fill="#ffd200"/><path d="M368.98-419.45s-40.7-27.72-40.7.87c0 28.58 39.83.86 40.7-.87zm-7.8-.18s-28.58-19.34-28.58.6c0 19.95 27.98.6 28.58-.6z" transform="matrix(-.1 0 0 .1 378.7 217.4)" stroke-width="1.69"/><path d="M368.98-419.45s-40.7-27.72-40.7.87c0 28.58 39.83.86 40.7-.87zm-7.8-.18s-28.58-19.34-28.58.6c0 19.95 27.98.6 28.58-.6z" transform="matrix(.1 0 0 -.1 260.8 130.6)" stroke-width="1.69"/><path d="M422.3-165.7l2.44-.3s1.77 2.6 3.67 6.73c1.7 4.33 3.38 11.33 4.9 27.26-4.58-.32-21.42 1.52-21.42 1.52s.23-19.17 6.12-26.03c2.76-2.92 4.6-8.6 4.3-9.2z" transform="matrix(1.1 0 0 1.3 -146.7 388.1)" stroke-width=".18" fill="#5387f4"/><path d="M422.3-165.7l2.44-.3s1.77 2.6 3.67 6.73c1.7 4.33-4.88 11.64-3.35 27.56-4.6-.32-13.17 1.22-13.17 1.22s.23-19.17 6.12-26.03c2.76-2.92 4.6-8.6 4.3-9.2z" transform="matrix(1.1 0 0 1.3 -146.7 388.1)" stroke-width=".18" fill="#fff"/><path d="M422.3-165.7l2.44-.3s-.6 7.96-2.76 11.94c-2.14 3.98-3.36 22.96-3.06 22.96.3 0-7.04.62-7.04.62s.23-19.17 6.12-26.03c2.76-2.92 4.6-8.6 4.3-9.2z" transform="matrix(1.1 0 0 1.3 -146.7 388.1)" stroke-width=".18" fill="#5387f4"/></g><path d="M409.7 276.93s-14.33 12.06-14.33 20.73c.3 3.45 3.17 6.98 8.4 9.52-2.4-3.6-2.74-6.52-2.74-9.94.3-5.86 8.46-12.93 8.46-12.93l.2-7.37z" fill-rule="evenodd" transform="matrix(.9 0 0 .9 -62.1 28.7)" stroke="#000" stroke-width=".24" fill="#5387f4"/><g stroke="#000" fill-rule="evenodd"><path d="M407.48-248.03l106.3-106.3S486.26-134.3 425.2-88.58c0 0-53.15 24.12-53.15-.13l35.43-159.32z" transform="matrix(-.4 0 0 .3 483.3 304.2)" stroke-width=".84" fill="#5387f4"/><path d="M407.48-248.03l70.87-70.87S442.9-88.6 372.05-88.6v-.12l35.43-159.3z" transform="matrix(-.4 0 0 .3 483.3 304.2)" stroke-width=".84" fill="#fff"/><path d="M407.48-248.03l35.43-35.43S407.5-88.58 372.06-88.58v-.14l35.43-159.3z" transform="matrix(-.4 0 0 .3 483.3 304.2)" stroke-width=".84" fill="#5387f4"/><path transform="matrix(-.3 -.2 -.3 .2 483.3 400.8)" stroke-width=".82" fill="#ffd200" d="M678.85-116.5h177.17v7.33H678.85z"/><path d="M283.46-389.76l-17.72 70.87 17.72 25.04 17.72-25.03-17.72-70.86z" transform="matrix(-.2 .1 .2 .1 355.5 182.9)" stroke-width="1.73" fill="#ffd200"/><path d="M368.98-419.45s-40.7-27.72-40.7.87c0 28.58 39.83.86 40.7-.87zm-7.8-.18s-28.58-19.34-28.58.6c0 19.95 27.98.6 28.58-.6z" transform="matrix(-.2 .1 .1 .1 340.9 187.2)" stroke-width=".84"/><path d="M368.98-419.45s-40.7-27.72-40.7.87c0 28.58 39.83.86 40.7-.87zm-7.8-.18s-28.58-19.34-28.58.6c0 19.95 27.98.6 28.58-.6z" transform="matrix(.1 -.1 -.1 -.1 156.2 195)" stroke-width=".84"/><path d="M407.48-248.03l106.3-53.15s-17.72 221.4-106.3 221.4c-53.15 0-70.87-70.88-70.87-70.88l70.88-97.37z" transform="matrix(-.4 0 0 .3 475.5 318.4)" stroke-width=".84" fill="#5387f4"/><path d="M407.48-248.03l70.87-35.43c0 35.43-17.72 185.96-70.87 185.96-35.43 0-70.87-53.15-70.87-53.15l70.88-97.38z" transform="matrix(-.4 0 0 .3 475.5 318.4)" stroke-width=".84" fill="#fff"/><path d="M407.48-248.03l35.43-17.72c0 79.66-17.7 150.53-53.14 150.53-17.7 0-53.15-35.43-53.15-35.43l70.88-97.38z" transform="matrix(-.4 0 0 .3 475.5 318.4)" stroke-width=".84" fill="#5387f4"/><path transform="matrix(-.4 -.1 -.2 .3 483.3 400.8)" stroke-width=".82" fill="#ffd200" d="M569.18-267.74h177.17v7.32H569.18z"/><path d="M283.46-389.76l-17.72 70.87 17.72 25.04 17.72-25.03-17.72-70.86z" transform="matrix(-.1 .2 .2 .1 344.4 193.2)" stroke-width="1.73" fill="#ffd200"/><path d="M368.98-419.45s-40.7-27.72-40.7.87c0 28.58 39.83.86 40.7-.87zm-7.8-.18s-28.58-19.34-28.58.6c0 19.95 27.98.6 28.58-.6z" transform="matrix(-.1 .1 .1 .1 332.3 200.5)" stroke-width=".84"/><path d="M368.98-419.45s-40.7-27.72-40.7.87c0 28.58 39.83.86 40.7-.87zm-7.8-.18s-28.58-19.34-28.58.6c0 19.95 27.98.6 28.58-.6z" transform="matrix(.1 -.1 -.1 0 159.4 248.3)" stroke-width=".84"/></g><g stroke="#000" fill-rule="evenodd"><path d="M407.48-248.03l106.3-106.3S486.26-134.3 425.2-88.58c0 0-53.15 24.12-53.15-.13l35.43-159.32z" transform="matrix(.4 0 0 .3 162.3 304.2)" stroke-width=".84" fill="#5387f4"/><path d="M407.48-248.03l70.87-70.87S442.9-88.6 372.05-88.6v-.12l35.43-159.3z" transform="matrix(.4 0 0 .3 162.3 304.2)" stroke-width=".84" fill="#fff"/><path d="M407.48-248.03l35.43-35.43S407.5-88.58 372.06-88.58v-.14l35.43-159.3z" transform="matrix(.4 0 0 .3 162.3 304.2)" stroke-width=".84" fill="#5387f4"/><path transform="matrix(.3 -.2 .3 .2 162.3 400.8)" stroke-width=".82" fill="#ffd200" d="M678.85-116.5h177.17v7.33H678.85z"/><path d="M283.46-389.76l-17.72 70.87 17.72 25.04 17.72-25.03-17.72-70.86z" transform="matrix(.2 .1 -.2 .1 288.4 182.9)" stroke-width="1.73" fill="#ffd200"/><path d="M368.98-419.45s-40.7-27.72-40.7.87c0 28.58 39.83.86 40.7-.87zm-7.8-.18s-28.58-19.34-28.58.6c0 19.95 27.98.6 28.58-.6z" transform="matrix(.2 .1 -.1 .1 302.8 187.2)" stroke-width=".84"/><path d="M368.98-419.45s-40.7-27.72-40.7.87c0 28.58 39.83.86 40.7-.87zm-7.8-.18s-28.58-19.34-28.58.6c0 19.95 27.98.6 28.58-.6z" transform="matrix(-.1 -.1 .1 -.1 484.8 195)" stroke-width=".84"/><path d="M407.48-248.03l106.3-53.15s-17.72 221.4-106.3 221.4c-53.15 0-70.87-70.88-70.87-70.88l70.88-97.37z" transform="matrix(.4 0 0 .3 170 318.4)" stroke-width=".84" fill="#5387f4"/><path d="M407.48-248.03l70.87-35.43c0 35.43-17.72 185.96-70.87 185.96-35.43 0-70.87-53.15-70.87-53.15l70.88-97.38z" transform="matrix(.4 0 0 .3 170 318.4)" stroke-width=".84" fill="#fff"/><path d="M407.48-248.03l35.43-17.72c0 79.66-17.7 150.53-53.14 150.53-17.7 0-53.15-35.43-53.15-35.43l70.88-97.38z" transform="matrix(.4 0 0 .3 170 318.4)" stroke-width=".84" fill="#5387f4"/><path transform="matrix(.4 -.1 .2 .3 162.3 400.8)" stroke-width=".82" fill="#ffd200" d="M569.18-267.74h177.17v7.32H569.18z"/><path d="M283.46-389.76l-17.72 70.87 17.72 25.04 17.72-25.03-17.72-70.86z" transform="matrix(.1 .2 -.2 .1 299.2 193.2)" stroke-width="1.73" fill="#ffd200"/><path d="M368.98-419.45s-40.7-27.72-40.7.87c0 28.58 39.83.86 40.7-.87zm-7.8-.18s-28.58-19.34-28.58.6c0 19.95 27.98.6 28.58-.6z" transform="matrix(.1 .1 -.1 .1 311.2 200.5)" stroke-width=".84"/><path d="M368.98-419.45s-40.7-27.72-40.7.87c0 28.58 39.83.86 40.7-.87zm-7.8-.18s-28.58-19.34-28.58.6c0 19.95 27.98.6 28.58-.6z" transform="matrix(-.1 -.1 .1 0 481.7 248.3)" stroke-width=".84"/></g><g stroke-linejoin="bevel" stroke="#000" stroke-width=".11"><path d="M496.06 627.16l17.72-17.72 17.7 17.72h-35.42z" fill-rule="evenodd" transform="matrix(3.3 0 0 5.6 -1378 -3255.4)" fill="#ffd200"/><path d="M496.06 627.16l17.72-17.72 17.7 17.72h-35.42z" fill-rule="evenodd" transform="matrix(3 0 0 5.1 -1209.8 -2925.9)" fill="#0ff"/><path d="M419.84 239.14c0 3.9-3.22 7.04-7.2 7.04-3.97 0-7.2-3.15-7.2-7.04 0-3.9 3.23-7.04 7.2-7.04 3.98 0 7.2 3.15 7.2 7.04z" fill-rule="evenodd" fill="#ffd200" transform="matrix(1.2 0 0 1.2 -185.7 -52.7)"/><g fill="none"><path d="M462.73 556.66l-1.18-108.32" transform="matrix(.3 0 0 .3 184.6 70.6)"/><path d="M325.2 239.72l11.64-16.25M326.95 241.48l18.72-7.77M328.37 243.96l21.9.7" stroke-width=".033"/><path d="M474.5 587.28l42.4 37.68" transform="matrix(.3 0 0 .3 184.6 70.6)"/><path d="M323.42 245.72v10.25M319.53 243.25l-16.6 14.48M321.3 244.3l-7.42 13.78M318.48 241.48l-27.56 9.54M318.12 240.07l-19.43-.7M302.58 231.95l16.95 5.65M310.7 217.47l10.25 19.78" stroke-width=".033"/></g><g fill-rule="evenodd"><path d="M460.63 219.7c-35.43 0-61.25 6.5-83.04 14.14l5.53-9.58 5.53-9.6 5.54-9.6 5.54-9.57 5.53-9.6 5.54-9.6 6.14-9.76c8.26-7.25 25.98-10.65 43.7-10.65 17.7 0 35.43 3.58 44.3 10.82l5.53 9.6 5.53 9.57 5.54 9.6 5.54 9.56 5.53 9.6 5.55 9.6 5.53 9.58c-22.98-7.64-47.62-14.15-83.05-14.15z" transform="matrix(.3 0 0 .3 185 165)" fill="#c453d7"/><path d="M460.63 212.93c-35.55-.05-75.28 10.6-77.5 11.33l5.53-9.6 5.54-9.6 5.54-9.57 5.53-9.6 5.54-9.58 6.14-9.77c8.26-7.26 25.98-10.66 43.7-10.66 17.7 0 35.43 3.58 44.3 10.82l5.53 9.6 5.53 9.58 5.54 9.6 5.54 9.57 5.53 9.6 5.55 9.6s-42.1-11.34-77.52-11.34z" transform="matrix(.3 0 0 .3 185 165)" fill="#5000c1"/><path d="M460.63 205.27c-26.25-.1-68.7 7.14-71.68 8.5l5.25-8.7 5.54-9.6 5.53-9.58 5.54-9.6 6.14-9.76c8.26-7.26 25.98-10.65 43.7-10.65 17.7 0 35.43 3.57 44.3 10.8l5.53 9.6 5.53 9.6 5.54 9.58 5.54 9.58 5.53 9.6s-36.54-9.4-71.97-9.4z" transform="matrix(.3 0 0 .3 185 165)" fill="#0053d7"/><path d="M460.63 197.32c-34.8-.07-63.72 6.63-66.43 7.74l5.54-9.58 5.53-9.6 5.54-9.57 6.14-9.76c8.26-7.26 25.98-10.65 43.7-10.65 17.7 0 35.43 3.57 44.3 10.8l5.53 9.6 5.53 9.6 5.54 9.58 5.54 9.58s-31.02-7.74-66.45-7.74z" transform="matrix(.3 0 0 .3 185 165)" fill="#009f9f"/><path d="M460.63 190.56c-35.6-.12-57.96 4.46-60.9 4.93l5.54-9.6 5.54-9.58 6.14-9.77c8.26-7.26 25.98-10.65 43.7-10.65 17.7 0 35.43 3.58 44.3 10.82l5.53 9.6 5.53 9.58 5.54 9.6s-25.48-4.94-60.9-4.94z" transform="matrix(.3 0 0 .3 185 165)" fill="#ff0"/><path d="M460.34 181.72c-31-.67-53.8 4.25-55.07 4.17l5.54-9.6 6.14-9.76c8.26-7.26 25.98-10.65 43.7-10.65 17.7 0 35.43 3.57 44.3 10.8l5.53 9.6 5.53 9.6s-20.23-4.18-55.66-4.18z" transform="matrix(.3 0 0 .3 185 165)" fill="#f50"/><path d="M461.5 171.42c-31.12.26-47.24 4.34-50.7 4.9l6.13-9.78c8.26-7.26 25.98-10.65 43.7-10.65 17.7 0 35.43 3.58 44.3 10.82l5.53 9.6s-13.52-4.9-48.95-4.9z" transform="matrix(.3 0 0 .3 185 165)" fill="#ff0b00"/></g><path d="M496.06 627.16l4.98-4.98h25.47l5 4.98h-35.44z" fill-rule="evenodd" transform="matrix(3 0 0 5.1 -1209.8 -2925.9)" fill="#4363ff"/><path d="M438 565.5c.42 0 .74-1.88 1.78-3.54 2.22-1.6 4.56-2.87 7.65-3.54 1.66-.83 5.08-.58 7.65-.58 3.6.32 3.84 1.86 5.9 4.12.9 1.83 3.03 4.4 4.1 7.06 1.18 1.42 2.12 3.63 2.95 5.3.86 1.8 1.77 4.53 2.95 7.06.6 2.83 1.17 5.03 1.17 8.25 0 3.35-.55 4.78-1.17 7.06-1.8.6-5.3.88-7.07 0-1.9-1.7-5.15-.63-6.46-2.36-3.4-.48-4.2-4.46-5.9-6.48-1.17-1.73-1.15-3.03-2.35-4.7-1.86-1.34-2.1-2.95-2.95-5.3.74-2.52 2.02-3.08 4.12-4.13 1.13-1.64 1.77-2.3 1.77-5.3-.42-3.33-1.63-2.98-4.7-3.53-3.82 0-5.78.4-9.43.6z" fill-rule="evenodd" transform="matrix(.2 0 0 .2 231.4 150.3)" fill="red"/><g fill-rule="evenodd" fill="#6da700"><path d="M334.7 674.38s28.3-5 46.6-19.98c18.33-15 18.33-39.97 26.66-39.97 8.32 0 10 28.3 29.97 38.3 19.98 10 51.62 23.3 51.62 23.3L334.7 674.4z" transform="matrix(.1 0 0 .2 266.3 165.4)"/><path d="M334.7 674.38s28.3-5 46.6-19.98c18.33-15 18.33-39.97 26.66-39.97 8.32 0 10 28.3 29.97 38.3 19.98 10 51.62 23.3 51.62 23.3L334.7 674.4z" transform="matrix(.1 0 0 .2 264.5 165.6)"/><path d="M334.7 674.38s28.3-5 46.6-19.98c18.33-15 18.33-39.97 26.66-39.97 8.32 0 10 28.3 29.97 38.3 19.98 10 51.62 23.3 51.62 23.3L334.7 674.4z" transform="matrix(.2 0 0 .2 248.4 154.8)"/><path d="M334.7 674.38s28.3-5 46.6-19.98c18.33-15 18.33-39.97 26.66-39.97 8.32 0 10 28.3 29.97 38.3 19.98 10 51.62 23.3 51.62 23.3L334.7 674.4z" transform="matrix(.2 0 .1 .2 233.4 135.2)"/><path d="M334.7 674.38s28.3-5 46.6-19.98c18.33-15 18.33-39.97 26.66-39.97 8.32 0 10 28.3 29.97 38.3 19.98 10 51.62 23.3 51.62 23.3L334.7 674.4z" transform="matrix(.2 0 .1 .2 216.4 119.9)"/><path d="M334.7 674.38s28.3-5 46.6-19.98c18.33-15 18.33-39.97 26.66-39.97 8.32 0 10 28.3 29.97 38.3 19.98 10 51.62 23.3 51.62 23.3L334.7 674.4z" transform="matrix(.2 0 .1 .3 202.4 99.7)"/><path d="M334.7 674.38s28.3-5 46.6-19.98c18.33-15 18.33-39.97 26.66-39.97 8.32 0 10 28.3 29.97 38.3 19.98 10 51.62 23.3 51.62 23.3L334.7 674.4z" transform="matrix(.2 0 0 .3 199 96.5)"/><path d="M334.7 674.38s28.3-5 46.6-19.98c18.33-15 18.33-39.97 26.66-39.97 8.32 0 10 28.3 29.97 38.3 19.98 10 51.62 23.3 51.62 23.3L334.7 674.4z" transform="matrix(.2 0 0 .3 195.7 96.6)"/><path d="M334.7 674.38s28.3-5 46.6-19.98c18.33-15 18.33-39.97 26.66-39.97 8.32 0 10 28.3 29.97 38.3 19.98 10 51.62 23.3 51.62 23.3L334.7 674.4z" transform="matrix(.3 0 .1 .3 168.4 78)"/><path d="M334.7 674.38s28.3-5 46.6-19.98c18.33-15 18.33-39.97 26.66-39.97 8.32 0 10 28.3 29.97 38.3 19.98 10 51.62 23.3 51.62 23.3L334.7 674.4z" transform="matrix(.3 0 .1 .4 144.8 45.6)"/><path d="M334.7 674.38s28.3-5 46.6-19.98c18.33-15 18.33-39.97 26.66-39.97 8.32 0 10 28.3 29.97 38.3 19.98 10 51.62 23.3 51.62 23.3L334.7 674.4z" transform="matrix(.3 0 .1 .4 116.5 19.9)"/><path d="M334.7 674.38s28.3-5 46.6-19.98c18.33-15 18.33-39.97 26.66-39.97 8.32 0 10 28.3 29.97 38.3 19.98 10 51.62 23.3 51.62 23.3L334.7 674.4z" transform="matrix(.4 0 .1 .4 94.7 -13.2)"/></g></g><path d="M380.34 293.64l5.82-4.9s7.96 6.43 23.58 6.13c14.7-.3 19.9-5.52 22.05-6.13l5.8 5.2c-3.36.92-15.3 6.74-28.78 7.36-14.1-.62-26.64-5.82-28.48-7.66z" fill-rule="evenodd" transform="matrix(1.2 0 0 1.2 -183.5 -52.3)" stroke="#000" stroke-width=".24" fill="#ffc200"/><path d="M342.67 308.37l-1.06-2.96-1.25.45-.14-.4 3.03-1.05.14.4-1.26.43 1.08 2.96-.5.17zM333.57 311.03l-.93-3.44 2.83-.75.1.4-2.3.6.3 1.06 2.15-.55.1.4-2.16.57.32 1.17 2.4-.64.1.4-2.9.77zM328.4 312.18l-.94-3.44.52-.13.93 3.45-.5.13zM324.92 312.6l-.44-3.53.53-.06.4 3.13 1.98-.24.05.4-2.5.3zM318.73 312.93l-.1-3.56h.55l2.2 2.73-.08-2.8h.5l.12 3.55h-.55l-2.2-2.73.08 2.8h-.52zM312.4 312.58l.35-3.55.54.06-.38 3.53-.53-.05zM308.02 311.8l.66-3.5.54.1 1.56 3.15.52-2.75.5.1-.66 3.5-.54-.1-1.56-3.15-.52 2.75-.5-.1zM307.72 308.2l.52.12-.52 2c-.1.34-.2.6-.35.78-.15.18-.35.3-.62.37-.26.07-.58.06-.96-.04s-.66-.23-.86-.4c-.2-.17-.33-.38-.38-.6-.04-.25-.02-.55.08-.92l.52-1.98.52.14-.52 1.98c-.08.3-.1.53-.08.7.02.15.1.3.24.4s.3.2.53.26c.38.1.67.1.88 0 .2-.12.36-.4.47-.83l.52-1.98zM298.77 308l.5.1c-.03.18 0 .34.04.47.06.14.17.26.33.38s.35.2.57.27c.2.06.38.1.54.08s.3-.05.4-.12c.1-.07.16-.15.2-.26.02-.1 0-.2-.04-.3-.05-.1-.15-.2-.3-.3-.1-.08-.3-.2-.65-.38-.34-.18-.57-.32-.7-.43-.16-.13-.27-.28-.33-.43-.05-.15-.06-.3-.02-.47.05-.17.15-.3.3-.43.15-.12.35-.2.58-.2.24-.02.5 0 .75.08.3.1.53.2.73.35.2.14.34.3.4.5s.1.4.06.6l-.5-.1c.03-.23-.02-.42-.14-.58-.13-.15-.34-.27-.64-.36-.3-.1-.55-.1-.72-.04-.17.05-.27.15-.3.3-.04.12-.02.24.06.34.08.1.3.27.7.47.4.2.67.36.8.47.22.15.35.32.42.5.07.16.08.34.03.53-.04.18-.15.33-.3.46-.18.12-.38.2-.63.22-.24.02-.5 0-.78-.08-.36-.1-.64-.23-.86-.4-.2-.15-.36-.34-.45-.56-.07-.22-.1-.45-.03-.68zM292.76 306.88l1.22-3.33.5.2-1.22 3.33-.5-.2zM288.72 304.3l2.26-2.75 1.06.9c.24.2.42.36.52.5.15.18.25.37.3.57.06.26.05.52-.02.78-.08.26-.2.5-.4.76-.18.2-.36.37-.55.5-.2.1-.38.18-.55.2-.17.05-.34.05-.5.03-.14-.04-.3-.1-.47-.18-.17-.1-.35-.22-.54-.37l-1.12-.94zm.68.03l.66.55c.2.17.38.3.52.35.15.07.28.1.4.1.17 0 .34-.06.5-.17.2-.1.36-.25.53-.46.24-.3.37-.55.4-.8 0-.24-.03-.45-.14-.63-.08-.13-.24-.3-.5-.5l-.64-.55-1.72 2.1zM294.58 306.02c.2-.55.53-.92.98-1.1.46-.2.95-.18 1.48.02.35.14.64.33.87.6s.37.53.42.85c.06.3.02.63-.1.97-.12.33-.3.6-.57.8-.25.22-.54.34-.88.37-.33.03-.66-.02-1-.15-.35-.14-.64-.34-.86-.6-.22-.26-.36-.55-.4-.87-.05-.3-.02-.62.08-.9zm.52.2c-.15.4-.14.77.02 1.1.16.32.42.55.8.7.37.14.72.14 1.05 0 .33-.14.58-.42.73-.85.1-.27.14-.53.1-.77-.02-.25-.12-.46-.28-.65-.16-.2-.36-.33-.6-.43-.37-.13-.7-.14-1.05-.02-.33.1-.6.42-.77.92zM314.06 310.9c.06-.58.3-1.02.68-1.3.4-.3.87-.43 1.44-.37.37.04.7.15.98.34s.5.43.6.73c.14.3.2.62.15.97-.03.36-.14.67-.34.94-.2.27-.45.47-.77.58-.32.1-.65.15-1 .12-.38-.04-.7-.16-1-.35-.27-.2-.48-.44-.6-.73-.13-.3-.17-.6-.14-.9zm.55.07c-.04.43.06.78.3 1.05.23.28.54.43.94.47.4.04.74-.05 1.02-.27.3-.23.45-.56.5-1.02.03-.28 0-.54-.1-.76-.08-.23-.22-.4-.42-.55-.2-.15-.43-.24-.7-.27-.37-.03-.7.05-1 .25-.3.2-.48.56-.53 1.1zM348.5 306.34l-1.56-3.2 1.25-.6c.28-.14.5-.22.67-.26.22-.06.44-.07.64-.03.27.05.5.17.7.34.2.17.4.4.53.68.12.25.2.48.22.7s.02.4-.02.58c-.04.17-.1.32-.2.45-.07.14-.2.26-.35.38-.15.12-.33.23-.55.33l-1.32.64zm.3-.6l.8-.38c.23-.1.4-.22.52-.33.12-.1.2-.2.25-.32.06-.15.1-.32.06-.52 0-.2-.08-.42-.2-.67-.17-.32-.36-.55-.57-.67-.2-.12-.42-.17-.63-.14-.15 0-.37.08-.66.22l-.76.37 1.2 2.43zM337.4 309.9l-.94-3.44 1.73-.46c.34-.1.62-.13.8-.1.2 0 .4.07.54.2.15.13.25.3.3.48.07.24.03.47-.1.68-.14.22-.4.4-.75.54.14.02.26.05.35.1.18.07.37.2.55.34l.94.75-.66.16-.7-.58c-.2-.16-.38-.3-.5-.37s-.24-.13-.33-.15c-.1-.03-.18-.04-.26-.03-.07 0-.17.02-.3.06l-.6.15.4 1.53-.5.14zm0-2.06l1.1-.3c.24-.05.42-.12.54-.2.12-.08.2-.18.25-.3.03-.1.04-.2 0-.32-.04-.17-.14-.28-.3-.35-.17-.07-.4-.07-.68 0l-1.24.33.3 1.14zM344.4 307.94l.08-3.87.54-.2 2.9 2.67-.58.23-.84-.83-1.57.63v1.16l-.53.2zm.53-1.78l1.27-.5-.77-.77c-.23-.24-.42-.43-.55-.6.04.24.06.48.06.72v1.14zM329.7 311.77l-.74-3.48 1.48-.33c.3-.06.55-.07.75-.04.2.03.36.1.5.23.13.13.2.27.25.43.03.14 0 .3-.05.44s-.18.28-.35.4c.26 0 .46.08.62.2.16.12.27.3.3.5.05.15.04.3 0 .47-.06.17-.13.3-.23.4-.1.1-.23.18-.4.26-.16.07-.37.14-.62.2l-1.5.3zm.1-2.13l.85-.18c.24-.05.4-.1.5-.15.12-.05.2-.13.26-.22.06-.1.07-.2.04-.33-.02-.1-.08-.2-.16-.28-.08-.08-.18-.12-.3-.13-.13 0-.34.02-.62.08l-.8.17.24 1.04zm.35 1.6l.98-.2c.17-.04.3-.07.36-.1.1-.04.2-.1.27-.15.07-.07.12-.15.15-.25.04-.1.04-.2.02-.3-.03-.14-.1-.24-.2-.32-.08-.08-.2-.13-.35-.14-.15-.02-.35 0-.6.06l-.9.2.25 1.2z"/><g stroke="#000" fill="#ffc200" stroke-width=".24"><path d="M658.63 787.1v-8.6h1.14v7.58H664v1h-5.37z" transform="matrix(-1.8 .7 -.7 -1.7 2108.4 1260.4)"/><path d="M636.87 787.1v-7.6h-2.83v-1h6.8v1h-2.83v7.6h-1.13z" transform="matrix(-1.3 1.3 -1.4 -1.3 2338.5 506.9)"/><path d="M626 787.1v-8.6h1.17l4.5 6.75v-6.75h1.1v8.6h-1.17l-4.5-6.76v6.75H626z" transform="matrix(-1.4 1.3 -1.3 -1.3 2332 558.6)"/><path d="M618.03 787.1v-8.6h6.2v1h-5.06v2.65h4.75v1h-4.75v2.93h5.27v1h-6.4zM615.47 784.08l1.14.3c-.23.92-.66 1.63-1.28 2.13s-1.38.74-2.27.74c-.93 0-1.68-.2-2.26-.56-.6-.38-1.03-.93-1.34-1.64-.3-.72-.45-1.5-.45-2.3 0-.9.18-1.68.52-2.35.35-.67.83-1.18 1.46-1.52.63-.35 1.33-.52 2.1-.52.85 0 1.57.2 2.15.65.6.45 1 1.06 1.23 1.86l-1.12.26c-.2-.62-.5-1.08-.87-1.36-.38-.3-.85-.43-1.43-.43-.66 0-1.2.16-1.65.47-.46.32-.77.74-.95 1.28-.18.53-.27 1.08-.27 1.65 0 .73.1 1.37.32 1.9.22.56.55.96 1 1.23.45.27.93.4 1.46.4.63 0 1.17-.18 1.6-.55.45-.35.75-.9.9-1.62z" transform="matrix(-1 1.6 -1.6 -1 2335.4 123)"/><path d="M595.47 784.08l1.14.3c-.23.92-.66 1.63-1.28 2.13s-1.38.74-2.27.74c-.93 0-1.68-.2-2.26-.56-.6-.38-1.03-.93-1.34-1.64-.3-.72-.45-1.5-.45-2.3 0-.9.18-1.68.52-2.35.35-.67.83-1.18 1.46-1.52.63-.35 1.33-.52 2.1-.52.85 0 1.57.2 2.15.65.6.45 1 1.06 1.23 1.86l-1.12.26c-.2-.62-.5-1.08-.87-1.36-.37-.3-.85-.43-1.43-.43-.66 0-1.2.16-1.65.47-.46.32-.77.74-.95 1.28-.18.53-.26 1.08-.26 1.65 0 .73.1 1.37.3 1.9.22.56.55.96 1 1.23.45.27.93.4 1.46.4.63 0 1.17-.18 1.6-.55.46-.35.75-.9.9-1.62z" transform="matrix(.1 1.9 -1.9 .1 1902.1 -917.3)"/><path d="M586.2 787.1v-8.6h1.14v8.6h-1.14z" transform="matrix(.1 1.9 -1.9 .1 1877.4 -948.2)"/><path d="M569.36 787.1v-8.6h6.2v1h-5.06v2.65h4.75v1h-4.75v2.93h5.27v1h-6.4z" transform="matrix(.5 1.8 -1.8 .5 1578.6 -1229.8)"/><path d="M559.3 787.1v-8.6h1.72l2.03 6.08c.2.57.33 1 .4 1.27l.47-1.37 2.06-5.98h1.53v8.6h-1.1v-7.2l-2.5 7.2h-1l-2.5-7.32v7.3h-1.1z" transform="matrix(.8 1.7 -1.8 .7 1382.4 -1359.3)"/><path d="M533.28 787.1v-8.6h1.14v7.58h4.23v1h-5.37z" transform="matrix(1.6 1.1 -1.1 1.5 401.3 -1630.9)"/><path d="M521.3 787.1v-8.6h1.18l4.5 6.75v-6.75h1.1v8.6h-1.17l-4.5-6.76v6.75h-1.1z" transform="matrix(1.7 .8 -.8 1.7 95 -1609.1)"/><path d="M513.34 787.1v-8.6h6.2v1h-5.06v2.65h4.75v1h-4.75v2.93h5.27v1h-6.4z" transform="matrix(1.8 .7 -.7 1.7 11.3 -1594.8)"/><path d="M469.77 787.1l-3.33-8.6h1.23l2.23 6.24c.2.5.34.97.46 1.4.13-.46.28-.93.46-1.4l2.32-6.24h1.16l-3.36 8.6h-1.17z" transform="matrix(1.8 -.5 .6 1.8 -1029.6 -1018.7)"/><path d="M460.6 787.1v-8.6h1.13v7.58h4.23v1h-5.37z" transform="matrix(1.7 -.9 .9 1.6 -1255.6 -715.7)"/><path d="M444.24 784.33l1.07-.1c.06.43.18.8.36 1.07.2.27.48.5.87.66.4.17.83.26 1.32.26.43 0 .82-.07 1.15-.2s.58-.3.74-.52c.16-.23.24-.48.24-.74 0-.27-.08-.5-.23-.7-.16-.2-.42-.38-.78-.52-.23-.1-.74-.22-1.53-.4-.78-.2-1.34-.38-1.65-.55-.42-.23-.73-.5-.93-.8-.2-.33-.3-.7-.3-1.08 0-.43.12-.84.37-1.2.24-.4.6-.68 1.08-.87.47-.2 1-.3 1.57-.3.63 0 1.2.1 1.67.3.5.22.87.52 1.13.92.26.4.4.84.42 1.35l-1.1.08c-.05-.54-.25-.95-.6-1.23-.32-.28-.82-.42-1.48-.42-.7 0-1.2.13-1.5.4-.32.24-.48.54-.48.9 0 .3.12.56.34.76.22.2.8.4 1.7.62.94.2 1.57.4 1.9.55.5.23.88.52 1.12.87.24.36.36.76.36 1.22 0 .46-.13.9-.4 1.3-.26.4-.63.7-1.12.94-.5.22-1.04.34-1.66.34-.77 0-1.43-.12-1.95-.34-.53-.23-.94-.57-1.24-1.02-.3-.46-.44-.98-.46-1.55z" transform="matrix(1.4 -1.2 1.3 1.4 -1412.2 -377.6)"/><path d="M434.58 787.1v-8.6h1.14v7.58h4.23v1h-5.37z" transform="matrix(1.1 -1.5 1.6 1.1 -1496.8 -21.4)"/><path d="M426.64 787.1v-8.6h6.2v1h-5.06v2.65h4.75v1h-4.75v2.93h5.27v1h-6.4z" transform="matrix(.9 -1.6 1.7 .9 -1510.1 186.2)"/><path d="M415.3 787.1v-8.6h6.22v1h-5.07v2.65h4.75v1h-4.75v2.93h5.27v1h-6.4z" transform="matrix(.4 -1.8 1.9 .4 -1446 666.8)"/><path d="M392.74 784.08l1.14.3c-.24.92-.67 1.63-1.3 2.13-.6.5-1.36.74-2.26.74-.93 0-1.68-.2-2.26-.56-.58-.38-1.02-.93-1.33-1.64-.3-.72-.45-1.5-.45-2.3 0-.9.17-1.68.5-2.35.36-.67.84-1.18 1.47-1.52.64-.35 1.33-.52 2.1-.52.85 0 1.57.2 2.16.65.6.45 1 1.06 1.23 1.86l-1.12.26c-.2-.62-.48-1.08-.86-1.36s-.85-.43-1.43-.43c-.65 0-1.2.16-1.64.47-.45.32-.76.74-.94 1.28-.18.53-.27 1.08-.27 1.65 0 .73.1 1.37.32 1.9.22.56.55.96 1 1.23.45.27.93.4 1.46.4.63 0 1.17-.18 1.6-.55.45-.35.75-.9.9-1.62z" transform="matrix(-.6 -1.8 1.8 -.6 -1005.6 1427.5)"/><path d="M383.47 787.1v-8.6h1.14v8.6h-1.13z" transform="matrix(-.9 -1.7 1.7 -.8 -819 1591)"/><path d="M376.56 787.1v-8.6h1.14v7.58h4.23v1h-5.37z" transform="matrix(-.8 -1.7 1.8 -.7 -890.1 1533.1)"/><path d="M365.57 778.5h1.14v4.96c0 .87-.1 1.55-.3 2.06s-.53.92-1.05 1.24c-.5.32-1.17.48-2 .48-.8 0-1.46-.14-1.98-.42-.5-.28-.87-.68-1.1-1.2-.2-.53-.32-1.25-.32-2.16v-4.96h1.14v4.96c0 .74.06 1.3.2 1.65.13.36.37.63.7.82.35.2.76.3 1.25.3.84 0 1.43-.2 1.8-.58s.52-1.1.52-2.18v-4.96z" transform="matrix(-1.2 -1.4 1.5 -1.2 -467.9 1799.2)"/><path d="M343.95 787.1v-8.6h6.2v1h-5.06v2.65h4.74v1h-4.75v2.93h5.26v1h-6.4z" transform="matrix(-1.5 -1.2 1.2 -1.5 -166.5 1902.5)"/><path d="M649.73 787.1l3.3-8.6h1.22l3.52 8.6h-1.3l-1-2.6h-3.6l-.93 2.6h-1.2zm2.48-3.54h2.92l-.9-2.38c-.27-.72-.47-1.3-.6-1.78-.1.55-.27 1.1-.47 1.64l-.94 2.52z" transform="matrix(-1.6 1 -1 -1.6 2232.8 985.6)"/><path d="M642.03 787.1v-8.6h3.8c.77 0 1.36.08 1.75.23.4.16.72.43.96.82.24.4.36.82.36 1.3 0 .6-.2 1.12-.6 1.53-.4.42-1 .7-1.82.8.3.15.53.3.68.43.33.3.65.7.95 1.15l1.5 2.34h-1.43l-1.14-1.8c-.33-.5-.6-.9-.82-1.18-.2-.27-.4-.47-.57-.57-.16-.1-.34-.2-.5-.23-.14-.03-.35-.04-.65-.04h-1.3v3.8h-1.15zm1.14-4.8h2.44c.53 0 .94-.06 1.23-.17.3-.1.5-.28.67-.5.15-.25.23-.5.23-.8 0-.4-.15-.73-.45-1-.3-.25-.76-.38-1.4-.38h-2.7v2.84z" transform="matrix(-1.5 1.2 -1.2 -1.4 2317.4 676.2)"/><path d="M597.06 787.1l3.3-8.6h1.22l3.52 8.6h-1.3l-1-2.6h-3.6l-.93 2.6h-1.2zm2.48-3.54h2.9l-.9-2.38c-.26-.72-.46-1.3-.6-1.78-.1.55-.26 1.1-.46 1.64l-.94 2.52z" transform="matrix(-.6 1.8 -1.8 -.6 2228 -354.4)"/><path d="M577.36 787.1v-8.6h3.8c.78 0 1.36.08 1.76.23.4.16.7.43.95.82.24.4.36.82.36 1.3 0 .6-.2 1.12-.6 1.53-.4.42-1 .7-1.82.8.3.15.54.3.7.43.32.3.64.7.94 1.15l1.5 2.34h-1.44l-1.14-1.8c-.33-.5-.6-.9-.82-1.18-.2-.27-.4-.47-.58-.57-.16-.1-.34-.2-.5-.23-.14-.03-.35-.04-.65-.04h-1.3v3.8h-1.14zm1.14-4.8h2.44c.52 0 .93-.06 1.22-.17.3-.1.52-.28.67-.5.15-.25.23-.5.23-.8 0-.4-.15-.73-.45-1-.28-.25-.75-.38-1.38-.38h-2.72v2.84z" transform="matrix(.2 1.9 -1.9 .2 1840.7 -990.7)"/><path d="M550.4 787.1l3.3-8.6h1.2l3.53 8.6h-1.3l-1-2.6h-3.6l-.93 2.6h-1.2zm2.47-3.54h2.9l-.88-2.38c-.3-.72-.5-1.3-.62-1.78-.1.55-.27 1.1-.47 1.64l-.93 2.52z" transform="matrix(1.1 1.5 -1.6 1.1 1035.6 -1518.9)"/><path d="M539.06 787.1l3.3-8.6h1.22l3.52 8.6h-1.3l-1-2.6h-3.6l-.93 2.6h-1.2zm2.48-3.54h2.9l-.9-2.38c-.26-.72-.46-1.3-.6-1.78-.1.55-.26 1.1-.46 1.64l-.94 2.52z" transform="matrix(1.4 1.3 -1.3 1.4 671.7 -1610.5)"/><path d="M501.34 787.1v-8.6h3.8c.77 0 1.36.08 1.75.23.4.16.7.43.95.82.24.4.36.82.36 1.3 0 .6-.2 1.12-.58 1.53-.4.42-1 .7-1.83.8.3.15.52.3.67.43.33.3.65.7.95 1.15l1.5 2.34h-1.44l-1.14-1.8c-.33-.5-.6-.9-.82-1.18-.2-.27-.4-.47-.58-.57-.17-.1-.34-.2-.5-.23-.14-.03-.35-.04-.65-.04h-1.32v3.8h-1.14zm1.14-4.8h2.44c.52 0 .93-.06 1.22-.17.3-.1.5-.28.67-.5.16-.25.23-.5.23-.8 0-.4-.14-.73-.44-1-.3-.25-.77-.38-1.4-.38h-2.72v2.84z" transform="matrix(1.9 .2 -.2 1.9 -481.7 -1431.7)"/><path d="M491.64 782.9c0-1.42.38-2.53 1.15-3.34.75-.8 1.74-1.2 2.95-1.2.8 0 1.5.18 2.15.56.63.38 1.12.9 1.45 1.6.34.66.5 1.43.5 2.3 0 .86-.17 1.64-.52 2.33-.35.68-.85 1.2-1.5 1.56-.64.36-1.34.54-2.08.54-.8 0-1.53-.2-2.17-.6-.64-.38-1.12-.9-1.45-1.6s-.5-1.38-.5-2.13zm1.17.03c0 1.03.3 1.85.84 2.45.56.6 1.26.9 2.1.9.86 0 1.56-.3 2.1-.92.56-.6.84-1.45.84-2.56 0-.7-.12-1.3-.36-1.82-.23-.53-.58-.93-1.03-1.22-.47-.3-.98-.43-1.54-.43-.8 0-1.5.28-2.08.83-.58.55-.87 1.47-.87 2.77z" transform="matrix(1.9 .2 -.2 1.9 -483.4 -1431)"/><path d="M483.32 787.1v-8.6h2.96c.67 0 1.18.04 1.53.12.5.12.92.32 1.27.62.45.38.8.87 1 1.47.24.6.35 1.28.35 2.05 0 .65-.07 1.23-.23 1.73s-.35.93-.6 1.26c-.23.33-.5.6-.78.78-.28.18-.62.33-1.02.42-.4.1-.86.15-1.38.15h-3.1zm1.14-1.02h1.83c.56 0 1-.06 1.32-.16.32-.1.58-.26.77-.45.26-.27.47-.63.62-1.08.15-.47.23-1.02.23-1.67 0-.9-.15-1.6-.45-2.07-.3-.48-.65-.8-1.07-.97-.3-.13-.8-.2-1.47-.2h-1.8v6.58z" transform="matrix(1.9 -.4 .4 1.8 -904.4 -1144)"/><path d="M474.37 787.1l3.3-8.6h1.22l3.5 8.6h-1.3l-1-2.6h-3.58l-.94 2.6h-1.2zm2.48-3.54h2.9l-.9-2.38c-.26-.72-.46-1.3-.6-1.78-.1.55-.26 1.1-.46 1.64l-.95 2.52z" transform="matrix(1.9 -.4 .4 1.8 -951.1 -1099.5)"/><path d="M451.7 787.1l3.3-8.6h1.2l3.53 8.6h-1.3l-1-2.6h-3.6l-.93 2.6h-1.2zm2.47-3.54h2.9l-.9-2.38c-.26-.72-.46-1.3-.6-1.78-.1.55-.26 1.1-.46 1.64l-.93 2.52z" transform="matrix(1.6 -1 1.1 1.6 -1311.8 -613.2)"/><path d="M406.62 787.1v-8.6h2.96c.67 0 1.18.04 1.53.12.5.12.92.32 1.27.62.45.38.8.87 1 1.47.24.6.35 1.28.35 2.05 0 .65-.07 1.23-.23 1.73s-.35.93-.6 1.26c-.23.33-.5.6-.78.78-.28.18-.62.33-1.02.42-.4.1-.86.15-1.38.15h-3.1zm1.14-1.02h1.83c.56 0 1-.06 1.32-.16.32-.1.58-.26.77-.45.26-.27.47-.63.62-1.08.15-.47.23-1.02.23-1.67 0-.9-.15-1.6-.45-2.07-.3-.48-.65-.8-1.07-.97-.3-.13-.8-.2-1.47-.2h-1.8v6.58z" transform="matrix(.2 -1.9 1.9 .2 -1376.4 863.6)"/><path d="M394.34 787.1l3.3-8.6h1.22l3.52 8.6h-1.3l-1-2.6h-3.6l-.93 2.6h-1.2zm2.48-3.54h2.9l-.9-2.38c-.26-.72-.46-1.3-.6-1.78-.1.55-.26 1.1-.46 1.64l-.94 2.52z" transform="matrix(-.1 -1.9 1.9 -.1 -1248.8 1120)"/><path d="M368.55 787.1v-8.6h3.22c.66 0 1.18.1 1.58.26.4.18.7.44.93.8.23.37.34.74.34 1.14 0 .36-.1.7-.3 1.03s-.5.6-.9.8c.52.14.92.4 1.2.77.28.37.42.8.42 1.3 0 .4-.1.78-.26 1.13-.17.34-.38.6-.63.8-.25.18-.56.32-.94.42-.37.1-.83.14-1.37.14h-3.28zm1.14-5h1.84c.5 0 .87-.02 1.1-.1.28-.08.5-.22.64-.42.15-.2.22-.45.22-.75 0-.28-.07-.53-.2-.75-.14-.22-.34-.37-.6-.44-.24-.1-.68-.13-1.3-.13h-1.7v2.6zm0 3.98h2.13c.36 0 .62-.02.77-.04.26-.05.48-.13.66-.24.17-.1.32-.27.43-.47.1-.2.16-.46.16-.73 0-.32-.08-.6-.25-.83-.15-.24-.38-.4-.67-.5-.3-.1-.7-.15-1.26-.15h-1.98v2.96z" transform="matrix(-1.1 -1.5 1.6 -1.1 -612.5 1726.3)"/><path d="M351.93 787.1v-8.6h3.24c.57 0 1 .03 1.3.08.43.07.78.2 1.07.4.28.2.5.48.68.83.18.37.27.76.27 1.2 0 .72-.25 1.33-.7 1.84-.48.5-1.32.76-2.53.76h-2.2v3.5h-1.14zm1.14-4.52h2.22c.72 0 1.24-.13 1.55-.4.3-.28.46-.66.46-1.16 0-.36-.08-.67-.26-.92-.18-.26-.42-.43-.72-.5-.2-.06-.54-.1-1.06-.1h-2.2v3.08z" transform="matrix(-1.4 -1.3 1.3 -1.4 -264.5 1875.8)"/><path d="M335.28 787.1v-8.6h3.8c.77 0 1.36.08 1.76.23.4.16.7.43.95.82.23.4.35.82.35 1.3 0 .6-.2 1.12-.6 1.53-.4.42-1 .7-1.82.8.3.15.53.3.68.43.35.3.66.7.96 1.15l1.5 2.34h-1.44l-1.14-1.8c-.33-.5-.6-.9-.82-1.18-.2-.27-.4-.47-.58-.57-.16-.1-.34-.2-.5-.23-.14-.03-.35-.04-.65-.04h-1.3v3.8h-1.15zm1.14-4.8h2.44c.52 0 .93-.06 1.22-.17.3-.1.5-.28.67-.5.15-.25.23-.5.23-.8 0-.4-.15-.73-.45-1-.3-.25-.76-.38-1.4-.38h-2.7v2.84z" transform="matrix(-1.6 -1 1 -1.6 36.4 1941.4)"/></g></g></svg>