<svg xmlns="http://www.w3.org/2000/svg" height="480" width="640" version="1"><defs><clipPath id="a"><path fill-opacity=".67" d="M0 0h682.67v512H0z"/></clipPath></defs><g clip-path="url(#a)" transform="matrix(.9 0 0 .9 0 0)"><path d="M0 0h768v256H341.33L0 0z" fill-rule="evenodd" fill="#ed2939"/><path d="M0 512h768V256H341.33L0 512z" fill-rule="evenodd" fill="#002395"/><path d="M0 0l341.33 256L0 512V0z" fill-rule="evenodd" fill="#fff"/><path fill="#ff0" d="M172.32 193.17l.1-3.97s-2.13-3.4.34-7.03c0 0-5.24-2.77-4.02-7.12 0 0-4.75-1.2-4.4-6.43 0 0-5.12-.36-5.65-4.72 0 0-5.13.84-7.4-3.4 0 0-4.98.97-6.4-2.53 0 0-4.85 1.68-7.73-2.43 0 0-5.13 2.07-7.28-1.82-2.13 3.87-7.26 1.82-7.26 1.82-2.85 4.1-7.74 2.4-7.74 2.4-1.36 3.5-6.35 2.5-6.35 2.5-2.24 4.26-7.36 3.42-7.36 3.42-.5 4.35-5.63 4.7-5.63 4.7.4 5.23-4.33 6.42-4.33 6.42 1.25 4.35-4 7.12-4 7.12 2.54 3.66.43 7.02.43 7.02l-.1 3.66 84.76.4"/><path d="M377.17 843.1l.1-3.45s-1.87-2.96.3-6.13c0 0-4.6-2.43-3.52-6.22 0 0-4.14-1.06-3.84-5.6 0 0-4.46-.32-4.92-4.13 0 0-4.47.74-6.43-2.97 0 0-4.36.85-5.6-2.2 0 0-4.23 1.47-6.74-2.13 0 0-4.47 1.8-6.34-1.58-1.85 3.37-6.33 1.57-6.33 1.57-2.48 3.58-6.75 2.1-6.75 2.1-1.18 3.07-5.53 2.2-5.53 2.2-1.96 3.7-6.42 2.97-6.42 2.97-.44 3.8-4.9 4.1-4.9 4.1.35 4.56-3.78 5.6-3.78 5.6 1.1 3.8-3.48 6.2-3.48 6.2 2.2 3.2.37 6.14.37 6.14l-.1 3.2 73.94.33z" stroke="#000" stroke-width=".29" fill="none" transform="matrix(1.1 0 0 1.1 -260.1 -773.1)"/><path fill="red" d="M152.9 149.57c-12.78-1.28-27.5-4.3-38.85 2.08-7.6-4.48-18.2-4.2-27.24-3.33-4.9.87-10.66.87-15.78 1.7l-.8.12c-9.3.62-17.73-2.12-25.8-5.73 2.56 14.56 5.4 29.48 6.8 44.72 3.05 22.58-10.67 41.53-5.04 63.82 3.36 10.7 15.13 16.92 25.9 18.16 10.42.6 21.2 2.32 30.86 4.42 1.83.38 4 1.23 5.27 1.78 2.67 1.1 4.62 2.74 6.33 4.5 5.82-6.08 14.36-7.76 22.78-8.65 15.2-1.78 33.9-.8 43.2-14.57v-.77c5.05-7.6 4.38-19.2 2.2-27.82-.16-3-.96-5.66-1.4-8.53-9.27-24.5-1.33-52.04 2.66-76.73-4.87 2.67-10.3 3.93-15.73 5.26-4.33.57-9.15.3-13.53.08l-1.8-.5"/><path fill="#80cfe1" d="M171.97 219.87c-.06 1.6.8 2.88 1.12 4.37 1.77 10.7 3.48 24.9-7.54 31.53-12.2 7.76-28.18 4.44-42.3 8.54-2.8.8-6.7 3.4-8.68 5.22-1.27-.84-2.55-2.12-4.2-2.88-11.6-6.17-26.7-4.1-39.8-7.44-6.58-2.08-13.44-7.2-15.1-13.95-4.3-17.67 5.97-32.74 4.76-50.28-.8-13.4-3.04-26.24-6.13-38.8 10.26 4.77 22.1 5.57 33.63 3.28 8.53-1.2 18.46-1.22 26.46 2.4 4.4-1.9 9.55-2.75 14.3-3.28 9.03.88 18.73 2.52 28.02 2.45 6.2-.32 11.85-2.12 17.24-4.5-3.2 20.74-9.34 42.48-1.8 63.35"/><path fill="#fff" d="M153.54 224l-.1-19.5h2.4l-29.82-19.27-.05-10h2.88l-14.9-10.7-14.85 10.68h2.87l.05 10.02-29.66 19.23 2.37.02.1 19.5 78.7.05"/><path d="M153.54 224l-.1-19.5h2.4l-29.82-19.27-.05-10h2.88l-14.9-10.7-14.85 10.68h2.87l.05 10.02-29.66 19.23 2.37.02.1 19.5 78.7.05z" stroke="#000" stroke-width="1.364" fill="none"/><path fill="#fff" d="M162.72 249.64v6.1l-96.08-.1-.04-6.1 96.13.1"/><path d="M162.72 249.64v6.1l-96.08-.1-.04-6.1 96.13.1z" stroke="#000" stroke-width="1.364" fill="none"/><path fill="#fff" d="M73.02 249.27l-.08-20.66h3.9l-.22 20.9.23-20.73-5.6-.16v-4.43l85.87.1.04 4.4h-5.3l.1 20.92-.18-20.94h3.94l.1 20.7"/><path d="M73.02 249.27l-.08-20.66h3.9l-.22 20.9.23-20.73-5.6-.16v-4.43l85.87.1.04 4.4h-5.3l.1 20.92-.18-20.94h3.94l.1 20.7" stroke="#000" stroke-width="1.364" fill="none"/><path d="M91.48 244.18l-.06-14.4H79.9l.06 14.4h11.52" stroke="#000" stroke-width="1.364" fill="none"/><path d="M83.03 232.77l.04 8.37h5.27l-.02-8.37h-5.3M147.85 244.22l-.07-14.4h-11.5l.06 14.4h11.5" stroke="#000" stroke-width="1.364" fill="none"/><path d="M139.4 232.83l.06 8.34h5.27l-.05-8.34h-5.28M147.76 220.76l-.07-14.4h-11.5l.03 14.4h11.53z" stroke="#000" stroke-width="1.364" fill="none"/><path d="M139.3 209.38l.04 8.35h5.27v-8.35h-5.3M91.38 220.7l-.08-14.38H79.8l.05 14.38h11.53z" stroke="#000" stroke-width="1.364" fill="none"/><path d="M82.94 209.32l.02 8.34 5.28.02-.04-8.36h-5.26M112.25 220.73l-.05-14.4h-11.52l.05 14.4h11.52" stroke="#000" stroke-width="1.364" fill="none"/><path d="M103.8 209.34l.04 8.35h5.28l-.04-8.36h-5.27M128.33 220.76l-.08-14.4-11.5-.02.04 14.4 11.53.02" stroke="#000" stroke-width="1.364" fill="none"/><path d="M119.88 209.35l.04 8.37h5.28l-.03-8.37h-5.3" stroke="#000" stroke-width="1.364" fill="none"/><path fill="#fff" d="M131.2 216.34l.12 33.22-33.37-.06-.12-33.2 33.36.04"/><path d="M131.2 216.34l.12 33.22-33.37-.06-.12-33.2 33.36.04zM97.63 225.82l33.6.03M101.82 249.55l-.1-23.48M127.25 249.56l-.1-23.46M143.37 202.2l-18.8-13.73-21.1-.03-18.64 13.7 58.54.05M105.1 177.08l.02 8.37h17.76l-.03-8.36-17.76-.02" stroke="#000" stroke-width="1.364" fill="none"/><path d="M109.9 179.16l.03 4.17h8.16l-.04-4.17h-8.15M113.94 167.55l9.88 7-19.68-.04 9.8-6.95" stroke="#000" stroke-width="1.364" fill="none"/><path fill="#fff" d="M153.87 162.82c2.8-.06 3.53 11.56 3.54 17.32 2.42.68 7.76 4.04 10.13 7.08l-27.1-.04c2.32-3 7.62-6.38 10.02-7.05 0-5.77.58-17.4 3.42-17.32"/><path d="M153.87 162.82c2.8-.06 3.53 11.56 3.54 17.32 2.42.68 7.76 4.04 10.13 7.08l-27.1-.04c2.32-3 7.62-6.38 10.02-7.05 0-5.77.58-17.4 3.42-17.32M99.4 217.26h2.42l-.7 1.3s1.16 1.52 0 3.24l.65 1.2h-2.35l.64-1.14s-1.2-2 .05-3.3l-.7-1.3M104.34 217.26h2.43l-.7 1.3s1.17 1.48 0 3.24l.63 1.2h-2.33l.63-1.14s-1.17-2 .06-3.3l-.72-1.3M109.75 217.26h2.43l-.73 1.3s1.2 1.52.02 3.24l.64 1.23-2.3-.03.6-1.14s-1.18-2 .06-3.3l-.7-1.3zM115.85 217.3h2.44l-.73 1.3s1.18 1.48 0 3.22l.67 1.22h-2.36l.63-1.14s-1.16-2.02.1-3.3l-.75-1.3zM121.27 217.3h2.42l-.72 1.3s1.18 1.48 0 3.2l.65 1.24h-2.33l.6-1.14s-1.17-2 .1-3.3l-.73-1.3M126.66 217.3l2.42-.02-.7 1.32s1.2 1.48.02 3.22l.6 1.2h-2.33l.63-1.12s-1.18-2 .08-3.3l-.72-1.3" stroke="#000" stroke-width="1.364" fill="none"/><path fill="#ff0" d="M114.67 292.14c12.5.04 27.86-2.5 35.06-6.23l15.8-1.4.32 19.3c-13.4 7.38-44.3 8.97-51.1 8.92-6.82.05-38.13-1.56-51.58-8.98l.17-19.3 15.85 1.43c7.18 3.7 23.02 6.27 35.5 6.27h-.03"/><path d="M114.67 292.14c12.5.04 27.86-2.5 35.06-6.23l15.8-1.4.32 19.3c-13.4 7.38-44.3 8.97-51.1 8.92-6.82.05-38.13-1.56-51.58-8.98l.17-19.3 15.85 1.43c7.18 3.7 23.02 6.27 35.5 6.27h-.03" stroke="#000" stroke-width=".319" fill="none"/><path fill="#ff0" d="M22.47 209.85l13.93 4.43-4.22 22.56L19 238.88s-2.22-11.86 3.47-29.04"/><path d="M22.47 209.85l13.93 4.43-4.22 22.56L19 238.88s-2.22-11.86 3.47-29.04z" stroke="#000" stroke-width=".319" fill="none"/><path fill="#7e7e7e" d="M32.18 236.6L19 238.9l8.34-11.87 4.84 9.56"/><path d="M32.18 236.6L19 238.9l8.34-11.87 4.84 9.56" stroke="#000" stroke-width=".319" fill="none"/><path fill="#ff0" d="M14.14 226.1l13.43.97c.3 11.37 1.68 54.8 53.52 57.15l-1.63 15.8c-63.1.65-67.9-53.26-65.33-73.92"/><path d="M14.14 226.1l13.43.97c.3 11.37 1.68 54.8 53.52 57.15l-1.63 15.8c-63.1.65-67.9-53.26-65.33-73.92zM63.42 303.25l15.82-3.46" stroke="#000" stroke-width=".319" fill="none"/><path fill="#ff0" d="M205.77 210l-13.87 4.4 4.4 22.53 13.2 2.12s2.13-11.85-3.73-29.05"/><path d="M205.77 210l-13.87 4.4 4.4 22.53 13.2 2.12s2.13-11.85-3.73-29.05z" stroke="#000" stroke-width=".319" fill="none"/><path fill="#7e7e7e" d="M196.3 236.7l13.2 2.36-8.45-11.87-4.76 9.5"/><path d="M196.3 236.7l13.2 2.36-8.45-11.87-4.76 9.5" stroke="#000" stroke-width=".319" fill="none"/><path fill="#ff0" d="M214.25 226.27l-13.44.92c-.2 11.35-1.18 54.8-53.02 57.1l1.76 15.78c63.1.73 67.43-53.16 64.7-73.82"/><path d="M214.25 226.27l-13.44.92c-.2 11.35-1.18 54.8-53.02 57.1l1.76 15.78c63.1.73 67.43-53.16 64.7-73.82zM165.64 303.33l-15.86-3.47" stroke="#000" stroke-width=".319" fill="none"/><path fill="#009fc5" d="M106.28 301.64c-.36.23-.84.3-1.4.27l-2.5-.12.2-3.13 2.5.13c.5.04.88.13 1.12.28.5.26.72.74.67 1.4-.03.6-.23.96-.6 1.18m-4.2 4.93l.24-3.8 2.93.2c.95.06 1.65-.2 2.12-.67.5-.47.75-1.08.8-1.78.05-.8-.16-1.47-.64-1.96-.45-.47-1.1-.72-1.93-.8l-4.17-.26-.58 8.97 1.24.08M111.15 299.06l3.05.03c.45.03.8.1 1.05.2.47.23.7.67.7 1.3 0 .62-.2 1.02-.53 1.26-.33.22-.8.32-1.37.32l-2.93-.03.02-3.1m-.04 7.96l.02-3.82 2.87.04c.5 0 .87.04 1.13.16.43.2.63.6.65 1.17l.08 1.5c.02.37.02.6.04.74.04.1.06.2.12.3h1.54l-.03-.2c-.17-.1-.3-.28-.37-.56-.06-.17-.08-.43-.1-.76l-.02-1.2c-.02-.54-.12-.9-.33-1.12-.17-.24-.4-.45-.8-.58.43-.23.75-.5 1-.8.2-.36.32-.8.32-1.36 0-1.03-.42-1.74-1.28-2.12-.46-.2-1.05-.3-1.74-.32l-4.3-.05-.04 9h1.24M120.65 305.13c-.55-.67-.84-1.5-.9-2.5-.07-1.24.17-2.2.74-2.84.57-.7 1.3-1.04 2.28-1.1.98-.04 1.78.27 2.38.9.6.6.96 1.43 1.02 2.47.03 1-.14 1.9-.6 2.68-.46.8-1.22 1.25-2.33 1.27-1.17.06-2.04-.2-2.6-.9m-1.47-5.65c-.57.9-.8 1.92-.75 3.16.1 1.35.5 2.46 1.3 3.3.86.84 2 1.26 3.43 1.18 1.52-.06 2.66-.64 3.44-1.7.63-.95.93-2.06.86-3.44-.08-1.22-.44-2.22-1.1-2.96-.84-1-2.06-1.44-3.72-1.37-1.57.1-2.72.67-3.47 1.84M161.46 286.52c.87-.15 1.62-.1 2.3.13 1 .3 1.68 1.05 2.1 2.2l-1.24.17c-.26-.62-.64-1.04-1.16-1.28-.5-.22-1.13-.27-1.86-.16-.84.12-1.52.55-2 1.22-.46.73-.6 1.7-.4 2.92.18 1.02.56 1.88 1.17 2.46.57.6 1.4.8 2.5.64.82-.13 1.47-.46 1.94-1.02.5-.54.63-1.35.47-2.4l-2.9.45-.14-1 4.02-.6.8 4.75-.8.12-.5-1.1c-.34.5-.68.88-.97 1.1-.5.4-1.17.64-2 .76-1.1.17-2.08-.03-2.98-.6-.98-.73-1.62-1.82-1.86-3.32-.26-1.48-.02-2.75.66-3.75.65-.95 1.6-1.5 2.86-1.7M170.55 285.83l2.88-1.05c.4-.15.74-.2 1.03-.16.53.04.92.36 1.14 1 .2.52.2 1-.03 1.32-.25.34-.63.6-1.2.8l-2.7.97-1.12-2.87m2.88 7.44l-1.4-3.6 2.67-.98c.5-.17.85-.26 1.1-.23.5.06.85.35 1.1.9l.6 1.37c.13.34.24.55.33.64.04.12.13.2.2.28l1.45-.54-.08-.2c-.22 0-.43-.1-.58-.35-.1-.16-.22-.4-.38-.7l-.47-1.1c-.2-.5-.44-.8-.7-.98-.24-.15-.57-.25-.95-.27.3-.34.5-.7.6-1.1.08-.4.04-.85-.16-1.36-.36-.96-1.04-1.48-2-1.55-.5-.04-1.07.07-1.73.3l-4.05 1.44 3.27 8.47 1.2-.44M183.96 288.8l-5.14-7.5 5.64-3.58.62.9-4.62 2.95 1.58 2.3 4.27-2.75.6.88-4.27 2.74 1.74 2.53 4.7-3 .62.87-5.75 3.67M188.46 275.55l1.47-1.62c.68-.72 1.4-1.05 2.2-.96.8.07 1.6.5 2.45 1.24.23.2.44.42.65.68.38.5.6.92.74 1.35.12.53.1 1.02-.1 1.5-.1.23-.3.5-.6.83l-1.5 1.6-5.3-4.62m7.77 3.53c1.04-1.15 1.27-2.4.66-3.8-.35-.75-.9-1.5-1.65-2.13-.94-.84-1.92-1.26-2.96-1.34-1.16-.1-2.14.32-3 1.25l-2.5 2.7 6.92 6.04 2.5-2.72M201.6 272.1l-7.97-4.7.65-1.02 8 4.65-.67 1.07M204.73 266.65l-8.6-3.44 2.53-6.04 1.04.4-2.06 5 2.6 1 1.92-4.6 1 .42-1.92 4.6 2.9 1.17 2.12-5.05 1.04.4-2.58 6.15M208.68 256.08l-9.06-2 .3-1.4 8.37-2.83-7.36-1.62.27-1.1 9.06 1.95-.28 1.36-8.38 2.9 7.34 1.58-.26 1.16M207.96 244.6l.1-1.15c.54 0 .98-.07 1.3-.25.67-.35 1.05-1.03 1.15-2.03.05-.47.03-.88-.07-1.26-.2-.74-.62-1.16-1.3-1.23-.5-.05-.86.07-1.12.35-.23.3-.47.77-.66 1.4l-.42 1.2c-.26.77-.5 1.3-.78 1.6-.43.57-1.03.77-1.8.7-.83-.08-1.5-.4-1.97-1.03-.5-.6-.7-1.4-.57-2.43.08-.93.4-1.7.94-2.34.5-.58 1.3-.86 2.3-.75l-.1 1.14c-.48 0-.88.1-1.16.3-.53.28-.8.9-.9 1.78-.08.73.03 1.23.3 1.6.3.32.64.52 1.06.55.44.04.8-.1 1.03-.44.17-.22.38-.73.66-1.56l.4-1.24c.2-.58.45-1.02.73-1.33.5-.53 1.16-.75 2-.7 1 .12 1.7.54 2.07 1.3.37.77.5 1.62.42 2.58-.1 1.1-.47 1.95-1.12 2.53-.66.6-1.48.8-2.47.7M20.3 244.04l.2 1.12c-.5.1-.9.3-1.2.56-.53.5-.7 1.24-.53 2.25.08.43.23.85.43 1.2.4.67.92.95 1.6.84.47-.08.8-.26.95-.6.15-.35.25-.88.3-1.55l.05-1.26c.04-.8.13-1.4.3-1.75.27-.62.8-1 1.56-1.13.82-.15 1.55.04 2.17.5.63.45 1.04 1.2 1.2 2.2.2.92.1 1.75-.26 2.5-.35.7-1 1.16-2.04 1.34l-.2-1.13c.48-.18.83-.35 1.06-.58.4-.45.52-1.1.36-2-.12-.7-.37-1.18-.74-1.4-.37-.3-.74-.4-1.14-.33-.45.07-.74.32-.88.72-.1.26-.16.82-.22 1.67l-.06 1.32c-.03.62-.12 1.13-.33 1.48-.34.64-.9 1.03-1.7 1.16-1.03.18-1.82-.06-2.38-.72-.58-.64-.93-1.4-1.1-2.37-.22-1.13-.07-2.02.4-2.73.45-.73 1.18-1.15 2.17-1.3M19.72 255.9l8.85-2.66 2.06 6.23-1.08.35-1.68-5.13-2.7.8 1.57 4.74-1.04.33-1.54-4.75-3 .9 1.7 5.23-1.05.3-2.08-6.34M23.64 266.72l8.15-4.32.86 1.52-5.6 5.92 8.18-1.4.84 1.5-8.12 4.3-.58-1 4.8-2.52.83-.46c.4-.17.82-.4 1.24-.63l-8.14 1.4-.6-1.07 5.56-5.9-.26.14c-.18.1-.48.24-.9.48-.4.25-.7.4-.88.48l-4.8 2.56-.58-1M38.8 278.7c-.4-.08-.8-.32-1.2-.73l-1.7-1.77 2.3-2.12 1.74 1.76c.33.33.55.65.66.93.16.53 0 1-.5 1.46-.43.4-.87.58-1.3.48m-6.53.83l2.84-2.6 2.03 2.04c.65.66 1.3.96 2 .95.72-.04 1.32-.3 1.86-.8.6-.55.88-1.17.88-1.85 0-.66-.3-1.27-.86-1.85l-2.9-2.95-6.73 6.2.86.86M40.4 286.76l4.88-7.65 5.77 3.52-.6.9-4.74-2.83-1.46 2.3 4.36 2.65-.56.88-4.37-2.63-1.66 2.6 4.8 2.87-.56.9-5.84-3.5M54.84 285.3l2.93.92c.42.12.72.3.92.47.37.34.47.85.25 1.47-.2.53-.46.88-.9 1.03-.37.06-.85.06-1.4-.1l-2.78-.9.97-2.9m-2.53 7.5l1.23-3.64 2.73.9c.5.12.84.3 1.02.47.33.3.43.75.27 1.3l-.4 1.46c-.1.34-.15.58-.2.7 0 .1 0 .22.03.3l1.44.47.08-.2c-.15-.13-.24-.35-.23-.62.03-.17.08-.44.17-.75l.35-1.16c.13-.5.2-.9.06-1.17-.1-.3-.3-.55-.6-.8.46-.08.86-.22 1.2-.46.3-.27.58-.65.74-1.2.33-.96.15-1.77-.58-2.38-.36-.32-.88-.6-1.55-.85l-4.1-1.27-2.87 8.54 1.2.37"/><path fill="#bc715f" d="M64.75 137.44c1.06-2.56 10.86-9.5 43.03-6.47 0 0 5.44 3.32 8.63 2.9 1.83-.24-1.06.1-3.44-1.87-2.42-1.97-2.94-6.02 2.6-5.9 5.5.13 26.14 1.3 26.53 3.15.35 1.87-10.92 2.65-15.1 2.55-4.22-.12-3.73 2 .46 1.85 13.1-.47 27.4-5.08 42.5 5.6 1.8 1.3-4.56 1.5-9.47-.58 0 0-13.33.7-19.1-.26 0 0-4.42 3.62-10.18 3.26.75 1.87-2.13 8.84-20.26 3.6-3 .9-13.9 2.74-12.7-.5-2.88 0-7.92.93-8.67-.7-.73-1.62 8.86-4.05 10.54-5.8 0 0-20.28.2-24.13-1.2 0 0-11.95 2.7-11.25.36"/><path fill="#008737" d="M71.25 165.84c.44-.6.6-1.65 1.54-1.62 2 .53 3.36 4.2 5.83 1.83.88-.2 1.2 1 1.94 1.13.46 2.05 2.1-.4 3.33-.27 2.6-1.16 5.85-1.43 8.95-.85.1 2-1.47 4.2-3.44 5.35.05 2 1.88 3.3 1.85 5.33-.32.76-.06 1.95-1.2 2.2-1.45-.26-2.9-.42-4.1-1.23-.14-.14-.26-.43-.57-.34-.15.68.9 1.35 1.33 2.04-.72 1.24-1.93.1-2.95.12-.3.7-.02 1.62-.75 2.08-1.3-.04-1.55-1.44-2.34-2.14-.8.88.57 1.4.76 2.1-.5 2.64-.42 5.22-3.06 6.94l-1.77.88c-.5-1.32-.2-3.33-.5-4.72-1.06 1.7-1.87 3.2-3.4 4.63-1.8-.6-2.85-2.72-3.24-4.47-.75-2.04-.32-4.5 1.3-5.97-.56-1.07-2.44-.82-2.7-2.35-2.83-1.82-4.4 3.23-6.2.6-.6-2.45.1-5.5 1.88-7.32-.4-1-1.7-.75-2.48-1.32-1.78-1.5-4.34-3.1-4.2-5.82 4.85-1.84 10.65-.5 14.18 3.2"/><path fill="#ff0" d="M73.77 165.56c-.1 2.23 1.5.6 2.7 1.95-.94-.36-1.62 1.63-2.54.5l-.57.54c.33.77.98.87.3 1.7-1 .38-1.2-.87-1.67-1.37-.1-.22.14-.64-.22-.78-.57.47-1.17.64-1.95.56-.22-.43-.63-1-.2-1.32.76-1.03 1.95.38 2.54-.35.1-.65-.47-1.44.26-1.88.5.1 1.14-.2 1.35.44M79.78 167.4c.06.42-.22 1.02.34 1.32.73-.4 1.5-.1 1.93.63 0 .4.1.9-.4 1.1l-1.14-.23c.1-.22-.27-.36-.4-.57-.5-.16-.8.25-1.18.5.28.43.93.66.78 1.2-.67.68-1-.57-1.74-.25-.5-.2.18-1.24-.6-1.55-.94 0-.32 1.54-1.52.93-.43-.48-.85-1.13-.4-1.67.5-.33 1.37-.24 1.8.2.72-.8.8-3.94 2.54-1.6M72.3 170.6c.5.72-.1 1.67.5 2.46 1-1.83 1.94.4 3.1.22.36.43.12 1.04.2 1.53-1.45.4-3.2.85-4.46-.3l-.35.4c.74.7 1.46 1.5.86 2.68-1.08.24-2.75.26-3.3-.85-.27-.9.67-1.58-.33-2.3-.7.88-.68 2.07-2.17 1.26-.93-.52-1.2-1.57-.74-2.46.97-1.52 2.65.05 3.7-.7.15-1.3-.34-2.44.86-3.16 1.03-.18 1.5.6 2.12 1.23"/><path fill="#fff" d="M76.38 171.42c-.48 2.22-2.16-.12-2.94-.2 1.04-1.87 1.7.6 2.94.2M81.6 173.84c-1.17.32-1-1.13-1.57-1.7l.45-.4c.42.5.74 1.42 1.1 2.1"/><path fill="#ff0" d="M80.02 173.38c.33.77-.76 1.4.17 1.95.3-.24.65-.6.8-.73.8.24 1.73.38 2.28 1.17.6 1.63-1.06 1.6-2 2.05l-.93-.04c.23-.46-.4-.65-.55-.97-.43-.1-.78.04-1.03.4.2 1.04 1.48 1.85.17 2.77-1.1-.07-2.82.36-2.72-1.17-.4-.86 1.13-2.2-.52-2.25-.54 1.17-1.14 2.3-2.55 1.2l.17-1.67c1.36.04 2.96.27 3.57-1.24.37-1.1-.7-2.1.26-2.98 1.38-.32 2.16.6 2.86 1.52"/><path d="M79.03 175.88c.35.83-.6.88-1.03 1.3-.6.03-1-.2-1.37-.6-.27-1 .47-1.1 1.04-1.5.66-.27.94.5 1.36.8"/><path fill="#fff" d="M78.22 176.42c-.15.2-.36.13-.58.2l-.2-1c.43.03 1 .17.78.8"/></g></svg>