<svg xmlns="http://www.w3.org/2000/svg" height="480" width="640" version="1"><g fill-rule="evenodd"><rect rx="0" ry="0" height="480" width="640" fill="#fff"/><rect rx="0" ry="0" height="159.3" width="480" y="320.7" fill="#fff"/><path fill="#fff" d="M0 0h480v159.3H0zM201.9 281l-28.82-20.87-28.68 21.07 10.66-34.24-28.62-21.14 35.41-.3 11-34.13 11.2 34.05 35.43.04L191 246.82 201.9 281zM509.54 281l-28.82-20.87-28.68 21.07 10.66-34.24-28.62-21.14 35.42-.3 10.98-34.13 11.22 34.05 35.42.04-28.48 21.33 10.9 34.17z"/><rect rx="0" ry="0" height="159.3" width="640" y="320.7"/><path fill="red" d="M0 0h640v159.3H0z"/><path d="M201.9 281l-28.82-20.87-28.68 21.07 10.66-34.24-28.62-21.14 35.41-.3 11-34.13 11.2 34.05 35.43.04L191 246.82 201.9 281zM509.54 281l-28.82-20.87-28.68 21.07 10.66-34.24-28.62-21.14 35.42-.3 10.98-34.13 11.22 34.05 35.42.04-28.48 21.33 10.9 34.17z" fill="#090"/></g></svg>