<svg xmlns="http://www.w3.org/2000/svg" height="480" width="640"><defs><clipPath id="a"><path fill-opacity=".67" d="M0 0h640v480H0z"/></clipPath></defs><g clip-path="url(#a)"><path fill="#006" d="M0 0h960v480H0z"/><path d="M0 0v17.9L284.22 160H320v-17.88L35.78 0H0zm320 0v17.9L35.78 160H0v-17.88L284.22 0H320z" fill="#fff"/><path fill="#fff" d="M133.33 0v160h53.34V0h-53.34zM0 53.33v53.34h320V53.33H0z"/><path d="M0 64v32h320V64H0zM144 0v160h32V0h-32zM0 160l106.67-53.33h23.85L23.85 160H0zM0 0l106.67 53.33H82.8L0 11.93V0zm189.48 53.33L296.15 0H320L213.33 53.33h-23.85zM320 160l-106.67-53.33h23.86l82.8 41.4V160z" fill="#c00"/><g><path d="M484.28 125.1l6.76 20.8h21.87l-17.68 12.85 6.76 20.8-17.7-12.85-17.7 12.85 6.77-20.8-17.7-12.85h21.88z" fill="#fff"/><path d="M484.28 131.5l5.33 16.37h17.23L492.9 158l5.32 16.37-13.93-10.12-13.95 10.12 5.32-16.38-13.93-10.14h17.22z" fill="#c00"/><path d="M380.1 229.92l6.76 20.8h21.86l-17.7 12.86 6.77 20.8-17.7-12.85-17.7 12.85 6.76-20.8-17.7-12.85h21.88z" fill="#fff"/><path d="M380.1 236.32l5.32 16.38h17.22l-13.93 10.12 5.33 16.38-13.93-10.12-13.93 10.12 5.32-16.38-13.95-10.13h17.23z" fill="#c00"/><path d="M573.6 207.63l5.64 17.4h18.3l-14.8 10.77 5.66 17.4-14.82-10.75-14.8 10.76 5.64-17.4-14.8-10.76h18.3z" fill="#fff"/><path d="M573.6 213.07l4.42 13.65h14.36l-11.62 8.43 4.44 13.66-11.6-8.43-11.62 8.44 4.43-13.64-11.6-8.44h14.35z" fill="#c00"/><path d="M484.3 392.65l7.42 22.87h24.04l-19.45 14.13 7.44 22.87-19.45-14.15-19.47 14.14 7.43-22.86-19.45-14.14h24.06z" fill-rule="evenodd" fill="#fff"/><path d="M484.3 398.1l6.2 19.1h20.1L494.32 429l6.2 19.12-16.24-11.8-16.27 11.8 6.2-19.1L458 417.2h20.1z" fill-rule="evenodd" fill="#c00"/></g></g></svg>