<svg xmlns="http://www.w3.org/2000/svg" height="480" width="640" version="1"><defs><clipPath id="a"><path fill-opacity=".67" d="M42.67 0h682.67v512H42.67z"/></clipPath></defs><g fill-rule="evenodd" clip-path="url(#a)" transform="matrix(.9 0 0 .9 -40 0)"><path fill="#004e00" d="M0 0h768v512H0z"/><g stroke-width="1pt"><path d="M260.57 171.9h14.12" fill="#ffef00"/><path d="M263.3 137.5c27.9 13.45 61.13-.07 73.14-18.64 12.33-17.34 13.84-46.44-7.46-73.14 33.07 27.42 40.38 58.5 23.92 84.1-21.94 29.26-70.62 28.42-89.6 7.67z" fill="#fff"/><path fill="#feffff" d="M312.84 69.43l5.6.07-4.43 3.53 1.67 5.52-4.63-3.26-4.6 3.33 1.6-5.55-4.5-3.45 5.6-.17 1.8-5.47M285.12 104.17l5.62.07-4.45 3.53 1.66 5.52-4.63-3.27-4.6 3.34 1.6-5.54-4.5-3.46 5.6-.16 1.8-5.47M286.95 76.75l5.6.07-4.43 3.53 1.67 5.52-4.65-3.26-4.58 3.35 1.58-5.54-4.5-3.45 5.6-.16 1.8-5.5M286.95 49.32l5.6.07-4.43 3.52 1.67 5.52-4.65-3.27-4.58 3.34 1.58-5.53-4.5-3.45 5.6-.17 1.8-5.47M256.15 84.07l5.62.07-4.45 3.53L259 93.2l-4.64-3.28-4.6 3.34 1.6-5.54-4.5-3.45 5.6-.17 1.8-5.47"/></g><path fill="#980000" d="M47.54 0H212.1v511.98H47.55z"/><g stroke-width="1pt" fill="#e69900"><path d="M47.54 133.48v-3.66l6.8-9.14-1.37-1.83 4.12-5.48-1.38-1.83-2.75 3.66-1.37-1.83 9.6-12.8 1.37 1.83-1.37 1.83 2.83 3.7 6.77-9.2-6.88-8.9-2.72 3.42 1.37 1.83-1.37 1.83-9.6-12.8 1.37-1.82 2.75 3.66 1.37-1.83-4.13-5.47 1.38-1.83-6.8-9.15V64l9.54 12.8-1.38 1.83 4.1 5.48-2.73 3.67 2.73 3.65 4.12-5.48 9.65 13.02-9.65 12.58-4.12-5.5-2.74 3.67 2.73 3.67-4.1 5.48 1.36 1.83-9.56 12.8z"/><path d="M47.54 87.77l1.37 3.66v5.48h4.13l2.74 1.84-2.74 1.83H48.9v5.48l-1.36 3.66V87.78z"/></g><g stroke-width="1pt" fill="#e69900"><path d="M47.54 221.25v-3.66l6.8-9.15-1.37-1.83 4.12-5.48-1.38-1.83-2.75 3.66-1.37-1.82 9.6-12.8 1.37 1.82L61.2 192l2.83 3.7 6.77-9.2-6.88-8.9-2.72 3.42 1.37 1.83-1.37 1.83-9.6-12.8 1.37-1.83 2.75 3.66 1.37-1.82-4.13-5.5 1.38-1.8-6.8-9.16v-3.65l9.54 12.8-1.38 1.82 4.1 5.48-2.73 3.66 2.73 3.65 4.12-5.5 9.65 13.03-9.65 12.58-4.12-5.48-2.74 3.66 2.73 3.66-4.1 5.48 1.36 1.83-9.56 12.8z"/><path d="M47.54 175.54l1.37 3.65v5.48h4.13l2.74 1.83-2.74 1.84H48.9v5.48l-1.36 3.66v-21.94z"/></g><g stroke-width="1pt" fill="#e69900"><path d="M47.54 309.02v-3.66l6.8-9.14-1.37-1.83 4.12-5.5-1.38-1.82-2.75 3.65-1.37-1.82 9.6-12.8 1.37 1.83-1.37 1.83 2.83 3.7 6.77-9.18-6.88-8.9-2.72 3.4 1.37 1.84-1.37 1.83-9.6-12.8 1.37-1.83 2.75 3.66 1.37-1.83-4.13-5.5 1.38-1.8-6.8-9.16v-3.66l9.54 12.8-1.38 1.82 4.1 5.5-2.73 3.65 2.73 3.66 4.12-5.48 9.65 13.02-9.65 12.58-4.12-5.5-2.74 3.67 2.73 3.66-4.1 5.5 1.36 1.82-9.56 12.8z"/><path d="M47.54 263.3l1.37 3.66v5.5h4.13l2.74 1.82-2.74 1.83H48.9v5.5l-1.36 3.65V263.3z"/></g><g stroke-width="1pt" fill="#e69900"><path d="M47.54 391.3v-3.66l6.8-9.14-1.37-1.83 4.12-5.48-1.38-1.84-2.75 3.65-1.37-1.8 9.6-12.8 1.37 1.8-1.37 1.84 2.83 3.7 6.77-9.18-6.88-8.9-2.72 3.4 1.37 1.84-1.37 1.83-9.6-12.8 1.37-1.83 2.75 3.66 1.37-1.83-4.13-5.5 1.38-1.8-6.8-9.16v-3.65l9.54 12.8-1.38 1.82 4.1 5.5-2.73 3.65 2.73 3.64 4.12-5.48 9.65 13.02-9.65 12.58-4.12-5.5-2.74 3.67 2.73 3.66-4.1 5.47 1.36 1.83-9.56 12.8z"/><path d="M47.54 345.6l1.37 3.64v5.5h4.13l2.74 1.82-2.74 1.83H48.9v5.47l-1.36 3.66V345.6z"/></g><g stroke-width="1pt" fill="#e69900"><path d="M212.1 133.48v-3.66l-6.8-9.14 1.37-1.83-4.1-5.48 1.36-1.83 2.74 3.66 1.38-1.83-9.6-12.8-1.37 1.83 1.37 1.83-2.83 3.7-6.77-9.2 6.88-8.9 2.72 3.42-1.37 1.83 1.37 1.83 9.6-12.8-1.38-1.82-2.74 3.66-1.37-1.83 4.1-5.47-1.36-1.83 6.8-9.15V64l-9.54 12.8 1.37 1.83-4.1 5.48 2.73 3.67-2.74 3.65-4.12-5.48-9.65 13.02 9.65 12.58 4.12-5.5 2.74 3.67-2.74 3.67 4.1 5.48-1.36 1.83 9.55 12.8z"/><path d="M212.1 87.77l-1.36 3.66v5.48h-4.12l-2.74 1.84 2.74 1.83h4.12v5.48l1.37 3.66V87.78z"/></g><g stroke-width="1pt" fill="#e69900"><path d="M212.56 221.25v-3.66l-6.8-9.15 1.37-1.83-4.12-5.48 1.4-1.83 2.73 3.67 1.37-1.83-9.6-12.8-1.37 1.83 1.37 1.82-2.83 3.7-6.77-9.2 6.9-8.9 2.7 3.42-1.37 1.83 1.37 1.83 9.6-12.8-1.37-1.83-2.74 3.66-1.4-1.82 4.13-5.48-1.37-1.83 6.8-9.15v-3.65l-9.55 12.8 1.4 1.83-4.13 5.48 2.74 3.66-2.73 3.65-4.1-5.5-9.67 13.03 9.66 12.58 4.1-5.48 2.75 3.66-2.73 3.66 4.12 5.48-1.4 1.83 9.56 12.8z"/><path d="M212.56 175.54l-1.37 3.66v5.48h-4.12l-2.75 1.83 2.75 1.84h4.1v5.48l1.38 3.66v-21.94z"/></g><g stroke-width="1pt" fill="#e69900"><path d="M212.1 309.02v-3.66l-6.8-9.14 1.37-1.83-4.1-5.5 1.36-1.82 2.74 3.65 1.38-1.82-9.6-12.8-1.37 1.83 1.37 1.83-2.83 3.7-6.77-9.18 6.88-8.9 2.72 3.4-1.37 1.84 1.37 1.83 9.6-12.8-1.38-1.83-2.74 3.66-1.37-1.83 4.1-5.5-1.36-1.8 6.8-9.16v-3.66l-9.54 12.8 1.37 1.82-4.1 5.5 2.73 3.65-2.74 3.66-4.12-5.48-9.65 13.02 9.65 12.58 4.12-5.5 2.74 3.67-2.74 3.66 4.1 5.5-1.36 1.82 9.55 12.8z"/><path d="M212.1 263.3l-1.36 3.66v5.5h-4.12l-2.74 1.82 2.74 1.83h4.12v5.5l1.37 3.65V263.3z"/></g><g stroke-width="1pt" fill="#e69900"><path d="M212.1 391.3v-3.66l-6.8-9.14 1.37-1.83-4.1-5.48 1.36-1.84 2.74 3.65 1.38-1.8-9.6-12.8-1.37 1.8 1.37 1.84-2.83 3.7-6.77-9.18 6.88-8.9 2.72 3.4-1.37 1.84 1.37 1.83 9.6-12.8-1.38-1.83-2.74 3.66-1.37-1.83 4.1-5.5-1.36-1.8 6.8-9.16v-3.65l-9.54 12.8 1.37 1.82-4.1 5.5 2.73 3.65-2.74 3.64-4.12-5.48-9.65 13.02 9.65 12.58 4.12-5.5 2.74 3.67-2.74 3.66 4.1 5.47-1.36 1.83 9.55 12.8z"/><path d="M212.1 345.6l-1.36 3.64v5.5h-4.12l-2.74 1.82 2.74 1.83h4.12v5.47l1.37 3.66V345.6z"/></g><g stroke-width="1pt" fill="#e69900"><path d="M47.55 34.74v-3.66l6.8-9.14-1.37-1.83 4.1-5.47-1.36-1.83-2.74 3.66-1.37-1.83 9.6-12.8 1.38 1.83-1.37 1.82 2.83 3.7L70.8 0h2.8l-9.65 12.8-4.12-5.5-2.74 3.67 2.73 3.66-4.1 5.48 1.36 1.84-9.55 12.8zM47.55 0h8.22l-2.74 1.83h-4.1V7.3l-1.38 3.67V0z"/></g><g stroke-width="1pt" fill="#e69900"><path d="M212.1 34.74v-3.66l-6.8-9.14 1.37-1.83-4.1-5.47 1.36-1.83 2.74 3.66 1.37-1.83-9.6-12.8-1.37 1.83 1.37 1.82-2.82 3.7L188.84 0h-2.8l9.66 12.8 4.1-5.5 2.76 3.67-2.75 3.66 4.13 5.48-1.37 1.84 9.54 12.8zM212.1 0h-8.23l2.75 1.83h4.1V7.3l1.38 3.67V0z"/></g><path d="M116.12 504.7s5.9-10.37 20.78-13.5c14.88-3.16 17.48 6.9 25.98 6.9s21.97-6.9 21.97-6.9-13.47 13.18-23.86 12.86c-10.4-.3-13.94-6.9-24.57-5.96-10.63.94-20.3 6.9-20.3 6.6z" fill="#e69900"/><path d="M144.84 504.7s-5.9-10.37-20.78-13.5c-14.88-3.16-17.47 6.9-25.98 6.9-8.5 0-21.96-6.9-21.96-6.9s13.46 13.18 23.85 12.86c10.4-.3 13.94-6.9 24.56-5.96 10.63.94 20.3 6.9 20.3 6.6z" fill="#e69900"/><g stroke-width="1pt" fill="#e69900"><path d="M96.2 487.54c-1.32-2.74-4.6-14.7-2.85-16.2 2.62-1 9.6 11.22 8.96 22.2-4.58 2.48-20.08-1-19.86-4.25 1.1-4.5 9.82-3 13.75-1.76z"/><path d="M86.82 477.08c-.85-3.04-2.2-15.65-.26-16.63 2.7-.26 7.66 13.62 5.32 24.17-4.87 1.18-19.5-6.5-18.78-9.6 1.76-4.1 10.07-.24 13.72 2.06z"/><path d="M79.2 465.38c-.57-3.15-.8-15.9 1.23-16.56 2.72.18 6.4 14.74 3.13 24.85-4.94.4-18.78-9.55-17.8-12.52 2.12-3.78 10.03 1.37 13.45 4.23z"/><path d="M73.2 452.92c-.2-3.24 1.07-15.86 3.13-16.1 2.67.73 4.6 15.87.2 25.2-4.92-.64-17.43-13.32-16.1-16.06 2.52-3.3 9.73 3.43 12.78 6.96z"/><path d="M69.04 439.87c.14-3.25 2.75-15.5 4.82-15.35 2.56 1.24 2.85 16.6-2.5 24.98-4.8-1.57-15.84-16.52-14.23-18.97 2.85-2.78 9.27 5.26 11.9 9.34z"/><path d="M70.2 425c-.35 13-2.72 13.16-7.03 3.56-1.9-3.63-2.14-18.7-.42-19.27 2.48-.06 7.38 10.7 7.45 15.7z"/></g><g stroke-width="1pt" fill="#e69900"><path d="M164.03 488.9c1.3-2.73 4.6-14.7 2.84-16.2-2.62-1-9.6 11.23-8.95 22.2 4.6 2.5 20.1-1 19.87-4.24-1.1-4.5-9.84-3-13.77-1.75z"/><path d="M173.4 478.45c.86-3.04 2.2-15.65.27-16.63-2.72-.26-7.66 13.62-5.32 24.17 4.87 1.17 19.5-6.5 18.78-9.62-1.76-4.1-10.08-.23-13.73 2.07z"/><path d="M181 466.75c.6-3.16.8-15.9-1.2-16.56-2.72.17-6.4 14.73-3.13 24.84 4.94.4 18.78-9.55 17.8-12.52-2.12-3.8-10.03 1.37-13.46 4.23z"/><path d="M187.02 454.3c.2-3.25-1.06-15.88-3.13-16.12-2.68.74-4.6 15.88-.22 25.2 4.93-.63 17.45-13.32 16.13-16.05-2.52-3.3-9.74 3.42-12.78 6.96z"/><path d="M191.2 441.24c-.15-3.25-2.76-15.5-4.84-15.35-2.56 1.23-2.84 16.6 2.5 24.96 4.82-1.56 15.84-16.5 14.24-18.96-2.86-2.8-9.27 5.25-11.9 9.34z"/><path d="M190.03 426.38c.35 13 2.7 13.15 7.03 3.55 1.9-3.63 2.14-18.7.42-19.27-2.5-.05-7.4 10.7-7.45 15.72z"/></g><g transform="matrix(1 0 0 1.3 188.3 -77)"><path d="M-3.54 290.55h-5.32v3.54h-5.3v3.54h-21.27l-3.55 3.54 1.78 1.77h8.85l1.78-1.77h-8.86l1.77-1.77h12.4l-5.3 5.32H-39l-3.54-1.77-3.54 1.77h-12.4l-5.32-5.3h12.4l1.77 1.76h-8.86l1.77 1.77h8.87l1.77-1.77-3.55-3.54h-19.5v-3.55h-5.3v-3.55h-5.32V274.6h5.3v-3.54h5.33v-3.54h19.5l3.54-3.54-1.77-1.78h-8.86l-1.76 1.78h8.85l-1.78 1.77h-12.4l5.3-5.32h12.42l3.54 1.77 3.54-1.77h12.4l5.32 5.32h-12.4l-1.77-1.77h8.86l-1.78-1.78h-8.85l-1.78 1.78 3.55 3.54h21.26v3.54h5.3v3.55h5.33v15.95z" transform="matrix(1.5 0 0 1.2 3.5 -39.5)" stroke="#000" stroke-width=".13" fill="#980000"/><path d="M375.6 499.67v24.8h10.62v7.02h10.63v7.08h35.43l14.18 10.63 14.17-10.62h38.97v-7.02l10.63-.07v-7.1h10.63v-24.8h-10.63v-7.08l-10.63.06v-7.15h-38.97l-14.17-10.63-14.18 10.63h-35.43v7.15h-10.63v7.1H375.6z" transform="matrix(.7 0 0 .6 -392 -6.5)" stroke="#e69900" stroke-width="1.42" fill="#004e00"/><path d="M-75.6 296.64l-15.82 11v-11h15.82zM-43.97 296.64l15.82 11v-11h-15.82zM-75.6 325.2l-15.82-10.98v11h15.82zM-43.97 325.2l15.83-10.98v11h-15.83zM-38.7 303.23l-5.26 4.4h10.55l-5.3-4.4zM-80.88 303.23l-5.27 4.4h10.55l-5.28-4.4zM-80.88 318.62l-5.27-4.4h10.55l-5.28 4.4zM-38.7 318.62l-5.26-4.4h10.55l-5.3 4.4z" fill="#980000"/><path d="M-59.8 329.6l-5.26-4.4h10.55l-5.3 4.4zM-59.8 307.63l-5.26-4.4h10.55l-5.3 4.4zM-59.8 292.25l-5.26 4.4h10.55l-5.3-4.4zM-59.8 314.22l-5.26 4.4h10.55l-5.3-4.4z" fill="#e69900"/><path transform="matrix(.7 0 0 .6 -392 -6.5)" stroke="#000" stroke-width=".13" fill="#e69900" d="M467.72 506.7h14.17v3.53H467.7z"/><path transform="matrix(.7 0 0 .6 -392 -6.5)" stroke="#000" stroke-width=".13" fill="#c00" d="M414.57 510.24h7.1v3.54h-7.1zM471.26 510.24h7.1v3.54h-7.1z"/><path transform="matrix(.7 0 0 .6 -392 -6.5)" stroke="#000" stroke-width=".13" fill="#900" d="M439.37 488.98h14.17v3.54h-14.17zM439.37 496.06h14.17v3.54h-14.17z"/><path transform="matrix(.7 0 0 .6 -392 -6.5)" stroke="#000" stroke-width=".13" fill="#900" d="M435.83 492.52h21.26v3.54h-21.27zM439.37 524.4h14.17v3.55h-14.17zM439.37 531.5h14.17v3.54h-14.17zM435.83 527.95h21.26v3.54h-21.27z"/><path transform="matrix(.7 0 0 .6 -392 -6.5)" stroke="#000" stroke-width=".13" fill="#e69900" d="M467.72 513.78h14.17v3.54H467.7zM411.02 506.7h14.17v3.53H411zM411.02 513.78h14.17v3.54H411zM407.48 510.24h7.1v3.54h-7.1zM421.65 510.24h7.1v3.54h-7.1zM464.17 510.24h7.1v3.54h-7.1zM478.35 510.24h7.1v3.54h-7.1z"/><ellipse fill="#fff" transform="matrix(.7 0 0 .6 -374.1 -38.9)" cx="413.68" rx=".89" cy="581.99" ry=".89"/><ellipse fill="#fff" transform="matrix(.7 0 0 .6 -367.6 -38.9)" cx="413.68" rx=".89" cy="581.99" ry=".89"/><ellipse fill="#fff" transform="matrix(.7 0 0 .6 -361 -39)" cx="413.68" rx=".89" cy="581.99" ry=".89"/><ellipse fill="#fff" transform="matrix(.7 0 0 .6 -371.5 -41.1)" cx="413.68" rx=".89" cy="581.99" ry=".89"/><ellipse fill="#fff" transform="matrix(.7 0 0 .6 -363.7 -41.1)" cx="413.68" rx=".89" cy="581.99" ry=".89"/><ellipse fill="#fff" transform="matrix(.7 0 0 .6 -371.6 -36.8)" cx="413.68" rx=".89" cy="581.99" ry=".89"/><ellipse fill="#fff" transform="matrix(.7 0 0 .6 -363.7 -36.7)" cx="413.68" rx=".89" cy="581.99" ry=".89"/><ellipse fill="#fff" transform="matrix(.7 0 0 .6 -353.2 -50)" cx="413.68" rx=".89" cy="581.99" ry=".89"/><ellipse fill="#fff" transform="matrix(.7 0 0 .6 -346.6 -50)" cx="413.68" rx=".89" cy="581.99" ry=".89"/><ellipse fill="#fff" transform="matrix(.7 0 0 .6 -340 -50)" cx="413.68" rx=".89" cy="581.99" ry=".89"/><ellipse fill="#fff" transform="matrix(.7 0 0 .6 -350.5 -52.2)" cx="413.68" rx=".89" cy="581.99" ry=".89"/><ellipse fill="#fff" transform="matrix(.7 0 0 .6 -342.7 -52.2)" cx="413.68" rx=".89" cy="581.99" ry=".89"/><ellipse fill="#fff" transform="matrix(.7 0 0 .6 -350.6 -47.9)" cx="413.68" rx=".89" cy="581.99" ry=".89"/><ellipse fill="#fff" transform="matrix(.7 0 0 .6 -342.7 -47.8)" cx="413.68" rx=".89" cy="581.99" ry=".89"/><ellipse fill="#fff" transform="matrix(.7 0 0 .6 -374.2 -60.9)" cx="413.68" rx=".89" cy="581.99" ry=".89"/><ellipse fill="#fff" transform="matrix(.7 0 0 .6 -367.6 -60.9)" cx="413.68" rx=".89" cy="581.99" ry=".89"/><ellipse fill="#fff" transform="matrix(.7 0 0 .6 -361.1 -61)" cx="413.68" rx=".89" cy="581.99" ry=".89"/><ellipse fill="#fff" transform="matrix(.7 0 0 .6 -371.6 -63.1)" cx="413.68" rx=".89" cy="581.99" ry=".89"/><ellipse fill="#fff" transform="matrix(.7 0 0 .6 -363.7 -63.1)" cx="413.68" rx=".89" cy="581.99" ry=".89"/><ellipse fill="#fff" transform="matrix(.7 0 0 .6 -371.6 -58.8)" cx="413.68" rx=".89" cy="581.99" ry=".89"/><ellipse fill="#fff" transform="matrix(.7 0 0 .6 -363.7 -58.7)" cx="413.68" rx=".89" cy="581.99" ry=".89"/><ellipse fill="#fff" transform="matrix(.7 0 0 .6 -395.3 -49.8)" cx="413.68" rx=".89" cy="581.99" ry=".89"/><ellipse fill="#fff" transform="matrix(.7 0 0 .6 -388.7 -49.8)" cx="413.68" rx=".89" cy="581.99" ry=".89"/><ellipse fill="#fff" transform="matrix(.7 0 0 .6 -382.1 -49.9)" cx="413.68" rx=".89" cy="581.99" ry=".89"/><ellipse fill="#fff" transform="matrix(.7 0 0 .6 -392.6 -52)" cx="413.68" rx=".89" cy="581.99" ry=".89"/><ellipse fill="#fff" transform="matrix(.7 0 0 .6 -384.8 -52)" cx="413.68" rx=".89" cy="581.99" ry=".89"/><ellipse fill="#fff" transform="matrix(.7 0 0 .6 -392.7 -47.7)" cx="413.68" rx=".89" cy="581.99" ry=".89"/><ellipse fill="#fff" transform="matrix(.7 0 0 .6 -384.8 -47.6)" cx="413.68" rx=".89" cy="581.99" ry=".89"/></g><path d="M138.9 255.75l4.53-2.12 4.53 2.12h-9.06zM125.3 255.75l4.53-2.12 4.53 2.12h-9.07zM111.7 255.75l4.52-2.12 4.54 2.12h-9.07zM138.9 206.88l4.53 2.13 4.53-2.12h-9.06zM125.3 206.88l4.53 2.13 4.53-2.12h-9.07zM111.7 206.88l4.52 2.13 4.54-2.12h-9.07z" fill="#fff"/><path d="M135.1 262.13l-5.28 4.25-5.3-4.25-5.28 4.25-5.3-4.25v2.13l3.54 2.12-1.76 2.13v2.13h1.76l1.76-2.12 1.77 2.13h1.77v-2.12L121 266.4l3.53-2.12 3.53 2.12-1.76 2.13v2.13h1.76l1.76-2.12 1.77 2.13h1.75v-2.12l-1.76-2.12 3.5-2.12 3.54 2.12-1.76 2.13v2.13h1.76l1.77-2.12 1.77 2.13h1.76v-2.12l-1.76-2.12 3.53-2.12v-2.13l-5.3 4.25-5.3-4.25zM135.12 200.5l-5.3-4.25-5.3 4.25-5.28-4.25-5.3 4.25v-2.13l3.54-2.12-1.76-2.13V192h1.76l1.76 2.12L121 192h1.77v2.12l-1.76 2.13 3.53 2.12 3.53-2.12-1.76-2.13V192h1.76l1.77 2.12 1.76-2.12h1.75v2.12l-1.76 2.13 3.52 2.12 3.52-2.12-1.76-2.13V192h1.76l1.77 2.12 1.77-2.12h1.76v2.12l-1.76 2.13 3.53 2.12v2.13l-5.3-4.25-5.28 4.25zM175.2 235.92l5.66-4.6-5.67-4.6 5.66-4.6-5.67-4.62H178l2.84 3.07 2.83-1.53h2.82v1.53l-2.83 1.54 2.82 1.54v1.54h-2.83l-2.84-1.54-2.84 3.07 2.84 3.08 2.83-1.53h2.82v1.53l-2.83 1.54 2.82 1.53v1.54h-2.83l-2.84-1.55-2.84 3.07 2.83 3.07 2.84-1.54h2.82V239l-2.83 1.53 2.82 1.53v1.53h-2.83l-2.85-1.54-2.83 3.07h-2.83l5.65-4.6-5.66-4.6zM84.47 235.92l-5.67-4.6 5.67-4.6-5.67-4.6 5.67-4.62h-2.83l-2.84 3.07-2.83-1.53h-2.84v1.53l2.84 1.54-2.84 1.54v1.54h2.84l2.83-1.54 2.83 3.07-2.83 3.08-2.83-1.53h-2.84v1.53l2.84 1.54-2.84 1.53v1.54h2.84l2.83-1.55 2.83 3.07L78.8 239l-2.83-1.54h-2.84V239l2.84 1.53-2.84 1.53v1.53h2.84l2.83-1.54 2.84 3.07h2.83l-5.67-4.6 5.67-4.6z" fill="#004e00"/><path transform="matrix(1.3 0 0 1.2 211.4 -5.6)" stroke="#000" stroke-width=".27" fill="#004e00" d="M-26.57 214.37h1.77v1.77h-1.77zM-28.35 216.14h1.77v1.77h-1.77zM-37.2 225h1.77v1.77h-1.77zM-35.43 223.23h1.77V225h-1.77zM-93.9 223.23h1.77V225h-1.77zM-102.76 214.37h1.77v1.77h-1.76zM-100.98 216.14h1.77v1.77H-101zM-100.98 177.17h1.77v1.77H-101zM-102.76 178.94h1.77v1.77h-1.76zM-92.13 168.3h1.77v1.78h-1.77zM-93.9 170.08h1.77v1.77h-1.77zM-37.2 168.3h1.77v1.78h-1.77zM-35.43 170.08h1.77v1.77h-1.77zM-28.35 177.17h1.77v1.77h-1.77zM-26.57 178.94h1.77v1.77h-1.77zM-92.13 225h1.77v1.77h-1.77z"/><path d="M122.9 231.3h-6.68v-4.16h4.46v-3.92h4.46v-3.6h4.45v4.5c-3.7 0-6.7 3.05-6.7 7.2z" fill="#fff"/><path d="M136.27 231.3h6.7v-4.16h-4.47v-3.92h-4.45v-3.6h-4.46v4.5c3.68 0 6.67 3.05 6.67 7.2z" fill="#e69900"/><path d="M136.27 231.3h6.7v4.2h-4.47v3.9h-4.45v3.6h-4.46v-4.5c3.68 0 6.67-3.04 6.67-7.2z" fill="#fff"/><path d="M122.9 231.3h-6.68v4.2h4.46v3.9h4.46v3.6h4.45v-4.5c-3.7 0-6.7-3.04-6.7-7.2z" fill="#e69900"/><path d="M136.27 231.32h-6.68v-7.2c3.68 0 6.67 3.23 6.67 7.2z" fill="#004e00"/><path d="M136.27 231.3h-6.68v7.2c3.68 0 6.67-3.22 6.67-7.2z" fill="#980000"/><path d="M122.9 231.3h6.7v7.2c-3.7 0-6.7-3.22-6.7-7.2z" fill="#004e00"/><path d="M122.9 231.32h6.7v-7.2c-3.7 0-6.7 3.23-6.7 7.2z" fill="#980000"/><path d="M136.63 257.88l-6.8-4.26-6.8 4.26-6.8-4.26-6.8 4.26v-2.13l4.52-2.13-2.26-2.12v-2.13h2.25l2.27 2.13 2.27-2.13h2.26v2.13l-2.27 2.12 4.52 2.13 4.54-2.13-2.27-2.12v-2.13h2.26l2.27 2.13 2.26-2.13h2.26v2.13l-2.27 2.12 4.53 2.13 4.53-2.12-2.27-2.13v-2.13h2.26l2.27 2.13 2.27-2.13h2.26v2.13l-2.26 2.13 4.53 2.12v2.13l-6.8-4.25-6.8 4.25zM136.63 204.76l-6.8 4.25-6.8-4.24-6.8 4.25-6.8-4.24v2.12l4.52 2.13-2.26 2.13v2.13h2.25l2.27-2.13 2.27 2.13h2.26v-2.13L118.5 209l4.52-2.12 4.54 2.13-2.27 2.13v2.13h2.26l2.27-2.13 2.26 2.13h2.26v-2.13L132.1 209l4.53-2.12 4.53 2.13-2.27 2.13v2.13h2.26l2.27-2.13 2.27 2.13h2.26v-2.13L145.7 209l4.53-2.12v-2.12l-6.8 4.25-6.8-4.24zM161.56 236.63l-3.4-5.32 3.4-5.3-3.4-5.3 3.4-5.33h-1.7l-1.7 3.55-1.7-1.77h-1.7v1.77l1.7 1.77-1.7 1.76v1.77h1.7l1.7-1.77 1.7 3.54-1.7 3.54-1.7-1.77h-1.7v1.77l1.7 1.77-1.7 1.78v1.78h1.7l1.7-1.78 1.7 3.55-1.7 3.54-1.7-1.77h-1.7v1.77l1.7 1.77-1.7 1.77v1.78h1.7l1.7-1.77 1.7 3.55h1.7l-3.4-5.3 3.4-5.32z" fill="#004e00"/><path d="M-100.98 177.17l-7.1 7.1v26.56l7.1 7.1h31.9l7.08-7.1v-26.57l-7.1-7.1h-31.88zm-1.77-5.32l-17.72 17.72v15.95l17.72 17.7h35.43l17.72-17.7v-15.95l-17.72-17.72h-35.43z" transform="matrix(1.3 0 0 1.2 238.7 -5.6)" stroke="#000" stroke-width=".43" fill="#004e00"/><path d="M-93.9 147.05l3.55 5.32 3.54-5.32h-7.1z" transform="matrix(1 0 0 .8 215.1 140.3)" stroke="#000" stroke-width=".27" fill="#e69900"/><path d="M-93.9 147.05l3.55 5.32 3.54-5.32h-7.1z" transform="matrix(1 0 0 -.8 215.1 322.3)" stroke="#000" stroke-width=".27" fill="#e69900"/><path d="M-93.9 147.05l3.55 5.32 3.54-5.32h-7.1z" transform="matrix(1 0 0 -.8 229.6 322.3)" stroke="#000" stroke-width=".27" fill="#e69900"/><path d="M-93.9 147.05l3.55 5.32 3.54-5.32h-7.1z" transform="matrix(1 0 0 .8 229.6 140.3)" stroke="#000" stroke-width=".27" fill="#e69900"/><path d="M-93.9 147.05l3.55 5.32 3.54-5.32h-7.1z" transform="matrix(1 0 0 -.8 207.8 322.3)" stroke="#000" stroke-width=".27" fill="#980000"/><path d="M-93.9 147.05l3.55 5.32 3.54-5.32h-7.1z" transform="matrix(1 0 0 -.8 222.3 322.3)" stroke="#000" stroke-width=".27" fill="#980000"/><path d="M-93.9 147.05l3.55 5.32 3.54-5.32h-7.1z" transform="matrix(1 0 0 -.8 236.8 322.3)" stroke="#000" stroke-width=".27" fill="#980000"/><path d="M-104.53 180.7l3.54-3.53h-3.53v3.54z" transform="matrix(1.9 0 0 -1.8 303.3 576.6)" stroke="#000" stroke-width=".27" fill="#980000"/><path d="M98.08 236.63l3.4-5.32-3.4-5.3 3.4-5.3-3.4-5.33h1.7l1.7 3.55 1.7-1.77h1.7v1.77l-1.7 1.77 1.7 1.76v1.77h-1.7l-1.7-1.77-1.7 3.54 1.7 3.54 1.7-1.77h1.7v1.77l-1.7 1.77 1.7 1.78v1.78h-1.7l-1.7-1.78-1.7 3.55 1.7 3.54 1.7-1.77h1.7v1.77l-1.7 1.77 1.7 1.77v1.78h-1.7l-1.7-1.77-1.7 3.55h-1.7l3.4-5.3-3.4-5.32z" fill="#004e00"/><path d="M-76.18 154.13h7.1l1.76 1.77-1.77 1.77h-7.08v-3.54z" transform="matrix(1.3 0 0 1.1 261.3 59.2)" stroke="#000" stroke-width=".27" fill="#980000"/><path d="M-99.2 180.7l-3.56 3.55v26.58l3.55 3.54h-5.33V180.7h5.32z" transform="matrix(1.3 0 0 1.2 229.6 -5.6)" stroke="#000" stroke-width=".4" fill="#980000"/><path d="M-93.9 147.05l3.55 5.32 3.54-5.32h-7.1z" transform="matrix(1 0 0 .8 207.8 140.3)" stroke="#000" stroke-width=".27" fill="#980000"/><path d="M-93.9 147.05l3.55 5.32 3.54-5.32h-7.1z" transform="matrix(1 0 0 .8 222.3 140.3)" stroke="#000" stroke-width=".27" fill="#980000"/><path d="M-93.9 147.05l3.55 5.32 3.54-5.32h-7.1z" transform="matrix(1 0 0 .8 236.8 140.3)" stroke="#000" stroke-width=".27" fill="#980000"/><path d="M-99.2 180.7l-3.56 3.55v26.58l3.55 3.54h-5.33V180.7h5.32z" transform="matrix(-1.3 0 0 1.2 30.1 -5.6)" stroke="#000" stroke-width=".4" fill="#980000"/><path d="M-104.53 180.7l3.54-3.53h-3.53v3.54z" transform="matrix(-1.9 0 0 -1.8 -43.6 576.6)" stroke="#000" stroke-width=".27" fill="#980000"/><path d="M-104.53 180.7l3.54-3.53h-3.53v3.54z" transform="matrix(-1.9 0 0 1.8 -43.6 -114)" stroke="#000" stroke-width=".27" fill="#980000"/><path d="M-104.53 180.7l3.54-3.53h-3.53v3.54z" transform="matrix(1.9 0 0 1.8 303.3 -114)" stroke="#000" stroke-width=".27" fill="#980000"/><path d="M-100.98 177.17l-7.1 7.1v26.56l7.1 7.1h31.9l7.08-7.1v-26.57l-7.1-7.1h-31.88zm0-1.77l-8.86 8.85v26.58l8.86 8.86h31.9l8.85-8.87v-26.58l-8.86-8.85h-31.88z" transform="matrix(1.3 0 0 1.2 238.7 -5.6)" stroke="#000" stroke-width=".43" fill="#004e00"/><path d="M-76.18 154.13h7.1l1.76 1.77-1.77 1.77h-7.08v-3.54z" transform="matrix(1.3 0 0 1.1 261.3 63)" stroke="#000" stroke-width=".27" fill="#e69900"/><path d="M-76.18 154.13h7.1l1.76 1.77-1.77 1.77h-7.08v-3.54z" transform="matrix(1.3 0 0 1.1 261.3 66.8)" stroke="#000" stroke-width=".27" fill="#980000"/><path d="M-76.18 154.13h7.1l1.76 1.77-1.77 1.77h-7.08v-3.54z" transform="matrix(1.3 0 0 1.1 261.3 70.6)" stroke="#000" stroke-width=".27" fill="#e69900"/><path d="M-76.18 154.13h7.1l1.76 1.77-1.77 1.77h-7.08v-3.54z" transform="matrix(1.3 0 0 1.1 261.3 55.3)" stroke="#000" stroke-width=".27" fill="#e69900"/><path d="M-76.18 154.13h7.1l1.76 1.77-1.77 1.77h-7.08v-3.54z" transform="matrix(-1.3 0 0 1.1 -1.7 59.2)" stroke="#000" stroke-width=".27" fill="#980000"/><path d="M-76.18 154.13h7.1l1.76 1.77-1.77 1.77h-7.08v-3.54z" transform="matrix(-1.3 0 0 1.1 -1.7 63)" stroke="#000" stroke-width=".27" fill="#e69900"/><path d="M-76.18 154.13h7.1l1.76 1.77-1.77 1.77h-7.08v-3.54z" transform="matrix(-1.3 0 0 1.1 -1.7 66.8)" stroke="#000" stroke-width=".27" fill="#980000"/><path d="M-76.18 154.13h7.1l1.76 1.77-1.77 1.77h-7.08v-3.54z" transform="matrix(-1.3 0 0 1.1 -1.7 70.6)" stroke="#000" stroke-width=".27" fill="#e69900"/><path d="M-76.18 154.13h7.1l1.76 1.77-1.77 1.77h-7.08v-3.54z" transform="matrix(-1.3 0 0 1.1 -1.7 55.3)" stroke="#000" stroke-width=".27" fill="#e69900"/><path d="M-100.98 178.94v37.2h8.86V225h56.7v-8.86h8.85v-37.2h-8.86v-8.86h-56.7v8.86h-8.85zm1.77 1.77v33.67h8.85v8.86h53.15v-8.86h8.86V180.7h-8.86v-8.85h-53.15v8.86h-8.86z" transform="matrix(1.3 0 0 1.2 211.4 -5.6)" stroke="#000" stroke-width=".27" fill="#970000"/><g><path d="M-28.35 69.1l-5.3-7.1v-5.3L-39 51.37H-49.6l-8.87-5.32H-86.8l-8.87 5.32h-10.63l-5.3 5.3v5.33l-5.33 7.1v14.17l5.32 7.08v5.32l5.3 5.3h10.63l8.86 5.33h28.33l8.86-5.32H-39l5.32-5.3v-5.33l5.3-7.08V69.1z" transform="matrix(1.3 0 0 1.2 222.8 -36.7)" stroke="#000" stroke-width=".27" fill="#980000"/><path d="M75.43 51.2v6.13l6.8 8.17v6.13l6.8 6.13h13.6l11.34 6.13h15.87V51.2h-54.4z" fill="#e69900"/><path d="M110.7 65.5l-8.3 5.25h-4.94l1.65 1.75-3.3 3.5 1.66 1.76L102.4 76l1.66 1.76.76-4.68 9.13-5.54-3.26-2.04z" fill="#980000"/><path d="M101.63 61.4l-8.3 5.27H88.4l1.65 1.75-3.3 3.5 1.65 1.75 4.94-1.75L95 73.67l.75-4.68 9.14-5.55-3.27-2.04zM97.1 53.24l-8.3 5.26h-4.94l1.65 1.75-3.3 3.5 1.66 1.75 4.95-1.75 1.65 1.75.77-4.68 9.13-5.54-3.26-2.04z" fill="#980000"/><path d="M184.22 51.2v-6.13l-6.8-8.18v-6.14l-6.8-6.13h-13.6l-11.34-6.13H129.8v32.7h54.42z" fill="#e69900"/><path d="M129.83 83.9h-4.2l-4.87-4.1h-7.72l-4.2-2.04 2.1-2.04 4.2 2.04h4.2l4.2-6.13 6.3 2.05v4.08h-6.3l6.3 6.13z" fill="#980000"/><path d="M75.43 51.2v-6.13l6.8-8.18v-6.14l6.8-6.13h13.6l11.34-6.13h15.87v32.7h-54.4z" fill="#fff"/><path d="M129.83 18.5h-4.2l-4.87 4.1h-7.72l-4.2 2.03 2.1 2.04 4.2-2.04h4.2l4.2 6.13 6.3-2.04v-4.1h-6.3l6.3-6.12z" fill="#980000"/><path d="M129.83 18.5h4.2l4.87 4.1h7.72l4.2 2.03-2.1 2.04-4.2-2.04h-4.2l-4.2 6.13-6.3-2.04v-4.1h6.3l-6.3-6.12z" fill="#980000"/><path d="M184.22 51.2v6.13l-6.8 8.17v6.13l-6.8 6.13h-13.6l-11.34 6.13H129.8V51.2h54.42z" fill="#fff"/><path d="M129.83 83.9h4.2l4.87-4.1h7.72l4.2-2.04-2.1-2.04-4.2 2.04h-4.2l-4.2-6.13-6.3 2.05v4.08h6.3l-6.3 6.13zM101.63 40.98l-8.3-5.26H88.4l1.65-1.75-3.3-3.5 1.65-1.75 4.94 1.75L95 28.72l.75 4.68 9.14 5.54-3.27 2.04zM148.96 36.9l8.28-5.26h4.95l-1.66-1.75 3.3-3.52-1.65-1.75-4.96 1.75-1.65-1.75-.77 4.68-9.13 5.55 3.26 2.04z" fill="#980000"/><path d="M110.7 36.9l-8.3-5.26h-4.94l1.65-1.75-3.3-3.52 1.66-1.75 4.95 1.75 1.66-1.75.76 4.68 9.13 5.55-3.26 2.04zM97.1 49.16l-8.3-5.26h-4.94l1.65-1.75-3.3-3.5 1.66-1.76 4.95 1.75 1.65-1.76.77 4.68 9.13 5.54-3.26 2.04z" fill="#980000"/><path d="M79.45 51.2h2.1l2.1 2.05 2.1-2.04h44.1v28.62h-2.1l2.1 2.04v2.05l-6.3-6.12v-2.05h2.1v2.05h2.1v-2.05l-17.06-9.02H96.32v-8.85l-6.38-4.6h-4.2l-2.1 2.05 2.1 2.04h-2.1l-4.2-6.13z" fill="#fff"/><path d="M79.45 51.2h2.1l2.1-2.05 2.1 2.04h44.1V22.57h-2.1l2.1-2.05V18.5l-6.3 6.12v2.04h2.1v-2.04h2.1v2.04l-17.06 9.03H96.32v8.85l-6.38 4.6h-4.2l-2.1-2.05 2.1-2.04h-2.1l-4.2 6.13z" fill="#e69900"/><path d="M89.02 51.2h40.82v24.5L111.7 65.5H98.1V57.3L89 51.2z" fill="#004e00"/><path d="M158.03 40.98l8.28-5.26h4.95l-1.65-1.75 3.3-3.5-1.65-1.75-4.94 1.75-1.64-1.75-.76 4.68-9.14 5.54 3.27 2.04zM162.56 49.16l8.3-5.26h4.93l-1.66-1.75 3.3-3.5-1.65-1.76-4.95 1.75-1.65-1.76-.77 4.68-9.13 5.54 3.26 2.04z" fill="#980000"/><path d="M180.2 51.2h-2.1l-2.1-2.05-2.1 2.04h-44.1V22.57h2.1l-2.1-2.05V18.5l6.3 6.12v2.04H134v-2.04h-2.1v2.04l17.06 9.03h14.36v8.85l6.38 4.6h4.2l2.1-2.05-2.1-2.04h2.1l4.2 6.13z" fill="#fff"/><path d="M170.63 51.2H129.8V26.7l18.15 10.2h13.6v8.18l9.08 6.13z" fill="#004e00"/><path d="M148.96 65.5l8.28 5.25h4.95l-1.66 1.75 3.3 3.5-1.65 1.76-4.96-1.75-1.65 1.76-.77-4.68-9.13-5.54 3.26-2.04z" fill="#980000"/><path d="M158.03 61.4l8.28 5.27h4.95l-1.65 1.75 3.3 3.5-1.65 1.75-4.94-1.75-1.64 1.75-.76-4.68-9.14-5.55 3.27-2.04zM162.56 53.24l8.3 5.26h4.93l-1.66 1.75 3.3 3.5-1.65 1.75-4.95-1.75-1.65 1.75-.77-4.68-9.13-5.54 3.26-2.04z" fill="#980000"/><path d="M180.2 51.2h-2.1l-2.1 2.05-2.1-2.04h-44.1v28.62h2.1l-2.1 2.04v2.05l6.3-6.12v-2.05H134v2.05h-2.1v-2.05l17.06-9.02h14.36v-8.85l6.38-4.6h4.2l2.1 2.05-2.1 2.04h2.1l4.2-6.13z" fill="#e69900"/><path d="M170.63 51.2H129.8v24.5l18.15-10.2h13.6V57.3l9.08-6.13z" fill="#980000"/><path d="M89.02 51.2h40.82V26.7L111.7 36.9H98.1v8.18L89 51.2z" fill="#980000"/><path d="M134.3 51.2l11.4-6.13h6.8l-2.27-2.05 4.53-4.08-2.26-2.05-6.8 2.04-2.27-2.05-1.05 5.45-12.56 6.47 4.5 2.38zM125.35 51.2l-11.4 6.12h-6.8l2.27 2.04-4.53 4.1 2.26 2.03 6.8-2.05 2.27 2.04 1.04-5.47 12.56-6.46-4.48-2.38z" fill="#980000"/><path d="M125.35 51.2l-11.4-6.13h-6.8l2.27-2.05-4.53-4.08 2.26-2.05 6.8 2.04 2.27-2.05 1.04 5.45 12.56 6.47-4.48 2.38zM134.3 51.2l11.4 6.12h6.8l-2.27 2.04 4.53 4.1-2.26 2.03-6.8-2.05-2.27 2.04-1.05-5.47-12.56-6.46 4.5-2.38z" fill="#004e00"/><path d="M116.22 51.2l13.6-10.22 13.6 10.22-13.6 10.22-13.6-10.22z" fill="#fff"/><path d="M85.74 55.28l2.1 2.05-2.1 2.04h-2.1l-6.3-8.18h2.1l4.2 6.13h2.1l-2.1-2.05 2.1-2.04h4.2v2.04h-4.2z" fill="#980000"/><path d="M85.74 47.1l2.1-2.03-2.1-2.05h-2.1l-6.3 8.18h2.1l4.2-6.13h2.1l-2.1 2.04 2.1 2.05h4.2V47.1h-4.2zM173.9 55.28l-2.1 2.05 2.1 2.04h2.1l6.3-8.18h-2.1l-4.2 6.13h-2.1l2.1-2.05-2.1-2.04h-4.2v2.04h4.2z" fill="#980000"/><path d="M173.9 47.1l-2.1-2.03 2.1-2.05h2.1l6.3 8.18h-2.1l-4.2-6.13h-2.1l2.1 2.04-2.1 2.05h-4.2V47.1h4.2zM127.72 43.02h4.2v16.35h-4.2z" fill="#980000"/><path fill="#980000" d="M121.43 47.12h16.8v8.17h-16.8z"/></g><g><path d="M333.07 170.08l-10.63 5.32v8.85l10.63 5.32h10.63l10.63-5.32v-8.85l-10.63-5.32h-10.63z" transform="matrix(3.6 0 0 3.8 -1073.2 -292.2)" stroke="#000" stroke-width=".07" fill="#004e00"/><path d="M87.17 396.27h2.28v-4.2h4.58v4.2h2.28v-9.78h-2.27v4.18h-4.58v-4.2h-2.28v9.8zM145.07 428.86h2.28v-4.2h4.58v4.2h2.28v-9.77h-2.27v4.18h-4.58v-4.2h-2.28v9.78zM108.5 379.97h2.3v-4.2h4.56v4.2h2.28v-9.77h-2.28v4.2h-4.57v-4.2h-2.3v9.77zM142.03 379.97h2.28v-4.2h4.58v4.2h2.3v-9.77h-2.3v4.2h-4.57v-4.2h-2.27v9.77zM163.35 396.27h2.28v-4.2h4.58v4.2h2.3v-9.78h-2.3v4.18h-4.57v-4.2h-2.28v9.8zM163.35 412.57h2.28v-4.2h4.58v4.2h2.3v-9.78h-2.3v4.18h-4.57v-4.2h-2.28v9.8z" fill="#c00"/><path d="M129.83 435.4v-35.87h54.85v16.3L148.1 435.4h-18.27z" fill="#e69900"/><path d="M129.83 363.67v35.86H74.97v-16.3l36.57-19.56h18.3z" fill="#e69900"/><path d="M129.83 363.67v35.86h54.85v-16.3l-36.57-19.56h-18.27z" fill="#fff"/><path d="M129.83 435.4v-35.87H74.97v16.3l36.57 19.56h18.3z" fill="#fff"/><path d="M-177.16 368.5h21.26l-21.26-10.63v10.63zm24.8-1.77v17.7h-33.66v-14.16h-7.08l-8.86-5.3v-12.42l5.3-5.3h-7.08v17.7h-1.77v-19.48h17.7l35.44 21.26z" transform="matrix(1 0 0 .9 341.9 45.9)" stroke="#000" stroke-width=".13" fill="#e69900"/><path d="M111.5 388.12v22.8h5.5l12.8 6.53 12.8-6.52h5.48v-22.8h-5.48l-12.8-6.53-12.8 6.52h-5.5z" fill="#980000"/><path d="M-177.16 368.5h21.26l-21.26-10.63v10.63zm24.8-1.77v17.7h-33.66v-14.16h-7.08l-8.86-5.3v-12.42l5.3-5.3h-7.08v17.7h-1.77v-19.48h17.7l35.44 21.26z" transform="matrix(-1 0 0 -.9 -82.3 753.2)" stroke="#000" stroke-width=".13" fill="#e69900"/><path d="M-177.16 368.5h21.26l-21.26-10.63v10.63zm24.8-1.77v17.7h-33.66v-14.16h-7.08l-8.86-5.3v-12.42l5.3-5.3h-7.08v17.7h-1.77v-19.48h17.7l35.44 21.26z" transform="matrix(-1 0 0 .9 -82.3 45.9)" stroke="#000" stroke-width=".13" fill="#fff"/><path d="M-177.16 368.5h21.26l-21.26-10.63v10.63zm24.8-1.77v17.7h-33.66v-14.16h-7.08l-8.86-5.3v-12.42l5.3-5.3h-7.08v17.7h-1.77v-19.48h17.7l35.44 21.26z" transform="matrix(1 0 0 -.9 341.9 753.2)" stroke="#000" stroke-width=".13" fill="#fff"/><path d="M85.95 412.58h2.3v-4.9h4.56v4.9h2.3v-11.4h-2.3v4.88h-4.56v-4.9h-2.3v11.42zM107.88 428.87h2.3V424h4.56v4.87h2.3v-11.4h-2.3v4.9h-4.57v-4.9h-2.3v11.4zM85.95 386.5h2.3v4.9h4.56v-4.9h2.3v11.4h-2.3v-4.88h-4.56v4.9h-2.3V386.5zM107.88 370.2h2.3v4.9h4.56v-4.9h2.3v11.4h-2.3v-4.88h-4.57v4.9h-2.3V370.2zM142.63 428.87h2.3V424h4.56v4.87h2.28v-11.4h-2.3v4.9h-4.56v-4.9h-2.3v11.4zM164.58 397.9h2.28V393h4.57v4.9h2.3v-11.4h-2.3v4.88h-4.57v-4.9h-2.28v11.42z" fill="#980000"/><path d="M142.63 428.87h2.3V424h4.56v4.87h2.28v-11.4h-2.3v4.9h-4.56v-4.9h-2.3v11.4z" fill="#980000"/><path d="M142.63 428.87h2.3V424h4.56v4.87h2.28v-11.4h-2.3v4.9h-4.56v-4.9h-2.3v11.4zM164.58 412.57h2.28v-4.9h4.57v4.9h2.3v-11.4h-2.3v4.88h-4.57v-4.9h-2.28v11.42zM142.63 381.6h2.3v-4.88h4.56v4.88h2.28v-11.4h-2.3v4.9h-4.56v-4.9h-2.3v11.4z" fill="#980000"/><path d="M131.66 399.53l7.3-5.94h3.67v2.96h-3.66v1.5h5.5v-5.96h-5.5v-4.45h-7.3v4.45h1.82v-2.97h3.64v2.97l-7.3 5.95-7.32-5.95v-2.97h3.65v2.97H128v-4.45h-7.3v4.45h-5.5v5.95h5.5v-1.5h-3.67v-2.96h3.66l7.3 5.93-7.3 5.94h-3.67v-2.97h3.66v-1.48h-5.5v5.94h5.5v4.46h7.3v-4.46h-1.83v2.97h-3.65v-2.97l7.3-5.94 7.32 5.94v2.97h-3.65v-2.97h-1.84v4.46h7.3v-4.46h5.5v-5.94h-5.5v1.48h3.67v2.97h-3.66l-7.3-5.94z" fill="#004e00"/></g><g transform="translate(204.8 18.1)"><path d="M-122.35 134.3l3.43-3.74h20.57l15.43-16.8h20.58l15.43 16.8h20.56l3.43 3.72-3.44 3.73H-46.9l-15.44 16.8h-20.58L-98.35 138h-20.57l-3.43-3.7z" fill="#980000"/><path d="M372.05 391.54l1.9-1.95h22.84l17.1-19.5h19.04l17.13 19.5h22.83l1.9 1.94-1.9 1.95h-22.83l-15.23 17.53H412l-15.2-17.54h-22.85l-1.9-1.96z" transform="matrix(.9 0 0 .9 -466.9 -221.3)" stroke="#000" stroke-width=".29" fill="#980000"/><path d="M-64.07 136.15l6.86 7.46-3.44 3.74-1.72-1.87h-1.7v1.87l1.7 1.86h3.43l3.43-3.73v-3.73l-6.86-7.46 6.86-7.46v-3.73l-3.43-3.74h-3.43l-1.7 1.87v1.86h1.7l1.72-1.87 3.43 3.73-6.87 7.46-6.86-7.46 6.86-7.46v-1.87h-1.72l-6.84 7.46-6.86-7.47h-1.72v1.87l6.86 7.46-6.86 7.46-6.85-7.46 3.42-3.73 1.72 1.86h1.7v-1.87l-1.7-1.87h-3.43l-3.43 3.73v3.72l6.87 7.46-6.86 7.46v3.73l3.44 3.73h3.43l1.7-1.86v-1.87h-1.7l-1.72 1.87-3.42-3.73 6.85-7.45 6.86 7.46-6.86 7.47v1.86h1.72l6.86-7.46 6.85 7.46h1.73v-1.86l-6.86-7.46 6.86-7.45zm-8.57-9.33l-6.86 7.46 6.86 7.46 6.85-7.46-6.84-7.46zM-82.92 154.8v14.9l1.72-1.86 1.7 1.87 1.73-1.86 1.7 1.87 1.73-1.86 1.7 1.87 1.72-1.86 1.72 1.87 1.7-1.86 1.73 1.87 1.7-1.86 1.73 1.87v-14.9h-20.58zM-62.35 113.8V98.86l-1.72 1.87-1.7-1.87-1.73 1.87-1.7-1.87-1.73 1.87-1.7-1.87-1.72 1.87-1.72-1.87-1.7 1.87-1.73-1.87-1.7 1.87-1.73-1.87v14.92h20.58zM-33.2 130.58v-14.92l-1.72 1.87-1.7-1.87-1.73 1.87-1.7-1.87-1.73 1.87-1.7-1.87-1.73 1.87-1.72-1.87v14.92h13.72zM-98.35 130.58v-14.92l-1.72 1.87-1.7-1.87-1.73 1.87-1.7-1.87-1.73 1.87-1.7-1.87-1.73 1.87-1.7-1.87v14.92h13.7zM-33.2 138v14.93l-1.72-1.87-1.7 1.87-1.73-1.87-1.7 1.87-1.73-1.87-1.7 1.87-1.73-1.87-1.72 1.87V138h13.72zM-98.35 138v14.93l-1.72-1.87-1.7 1.87-1.73-1.87-1.7 1.87-1.73-1.87-1.7 1.87-1.73-1.87-1.7 1.87V138h13.7z" fill="#e69900"/><path d="M-62.35 154.8v9.3l1.72-1.85 1.7 1.86 1.73-1.85 1.7 1.86 1.73-1.85 1.7 1.86 1.72-1.85 1.72 1.86 1.7-1.85V138l-15.42 16.8zM-82.93 154.8v9.3l-1.72-1.85-1.7 1.86-1.73-1.85-1.7 1.86-1.73-1.85-1.72 1.86-1.7-1.85-1.73 1.86-1.7-1.85V138l15.42 16.8zM-82.93 113.8v-9.33l-1.72 1.86-1.7-1.86-1.73 1.86-1.7-1.86-1.73 1.86-1.72-1.86-1.7 1.86-1.73-1.86-1.7 1.86v24.24l15.42-16.78zM-62.35 113.8v-9.33l1.72 1.86 1.7-1.86 1.73 1.86 1.7-1.86 1.73 1.86 1.7-1.86 1.72 1.86 1.72-1.86 1.7 1.86v24.24l-15.42-16.78zM-112.08 149.2l-1.7-1.86-1.73 1.87-1.72-1.86-1.72 1.87-1.7-1.86-1.72 1.87-1.72-1.86-1.7 1.87v-29.83l1.7 1.86 1.72-1.86 1.7 1.86 1.72-1.86 1.72 1.86 1.7-1.86 1.73 1.86 1.72-1.86v11.2h-6.86l-3.42 3.72 3.42 3.72h6.86v11.2zM-33.2 149.2l1.7-1.86 1.73 1.87 1.7-1.86 1.73 1.87 1.7-1.86 1.72 1.87 1.72-1.86 1.7 1.87v-29.83l-1.7 1.86-1.72-1.86-1.7 1.86-1.72-1.86-1.72 1.86-1.7-1.86-1.73 1.86-1.7-1.86v11.2h6.86l3.42 3.72-3.42 3.72h-6.86v11.2z" fill="#004e00"/><path d="M-91.36 155.98s-1.43 1.47-1.43 2.2c-.02.7 1.54 2.24 2.15 2.22.8.02 2.15-1.47 2.15-2.2 0-.75-1.43-2.22-1.43-2.22v-2.95s3.1 5.07 3.1 2.86c0-1.6-3.1-4.34-3.1-4.34h-1.43s-3.1 3.2-3.1 4.33c0 2.2 3.1-2.87 3.1-2.87v2.95z" fill="#fff"/><path d="M-73.5 161.67s-1.7 2.06-1.7 3.1c-.05.96 1.82 3.1 2.56 3.1.97 0 2.57-2.07 2.57-3.1 0-1.04-1.7-3.1-1.7-3.1v-4.13s3.02 6.75 3.02 3.66c0-2-3.03-5.72-3.03-5.72h-1.72s-3.5 4.65-3.03 5.72c0 3.1 3.03-3.66 3.03-3.66v4.13z" fill="#980000"/><ellipse fill="#004e00" transform="rotate(14.6 -14953.5 -8612.8)" cx="403.94" rx="3.54" cy="391.54" ry="1.77"/><ellipse fill="#004e00" transform="rotate(14.6 -14368.9 -8612.8)" cx="403.94" rx="3.54" cy="391.54" ry="1.77"/><ellipse fill="#004e00" transform="rotate(14.6 -13784.6 -8612.8)" cx="403.94" rx="3.54" cy="391.54" ry="1.77"/><path d="M-91.72 112.76s-1.43-1.47-1.43-2.2c-.03-.7 1.53-2.24 2.14-2.22.8-.02 2.14 1.47 2.14 2.2 0 .75-1.43 2.22-1.43 2.22v2.95s3.1-5.06 3.1-2.85c0 1.6-3.1 4.33-3.1 4.33h-1.42s-3.1-3.2-3.1-4.33c0-2.2 3.1 2.86 3.1 2.86v-2.94z" fill="#fff"/><path d="M-73.86 107.06s-1.7-2.06-1.7-3.1c-.05-.95 1.82-3.1 2.56-3.1.97 0 2.57 2.08 2.57 3.1 0 1.04-1.7 3.1-1.7 3.1v4.13s3.02-6.76 3.02-3.67c0 2-3.04 5.72-3.04 5.72h-1.72s-3.5-4.65-3.03-5.72c0-3.1 3.04 3.66 3.04 3.66v-4.14z" fill="#980000"/><path d="M-54.86 155.98s-1.43 1.47-1.43 2.2c-.02.7 1.54 2.24 2.15 2.22.8.02 2.15-1.47 2.15-2.2 0-.75-1.43-2.22-1.43-2.22v-2.95s3.1 5.07 3.1 2.86c0-1.6-3.1-4.34-3.1-4.34h-1.43s-3.1 3.2-3.1 4.33c0 2.2 3.1-2.87 3.1-2.87v2.95zM-55.22 112.76s-1.43-1.47-1.43-2.2c-.03-.7 1.53-2.24 2.14-2.22.8-.02 2.14 1.47 2.14 2.2 0 .75-1.43 2.22-1.43 2.22v2.95s3.1-5.06 3.1-2.85c0 1.6-3.1 4.33-3.1 4.33h-1.42s-3.1-3.2-3.1-4.33c0-2.2 3.1 2.86 3.1 2.86v-2.94z" fill="#fff"/><path d="M-106.27 145.6s-1.9 1.38-1.9 2.07c-.04.64 2.02 2.1 2.85 2.07 1.07.02 2.85-1.38 2.85-2.07 0-.7-1.9-2.08-1.9-2.08v-2.77s3.36 4.52 3.36 2.45c0-1.34-3.37-3.84-3.37-3.84h-1.9s-3.9 3.12-3.37 3.84c0 2.07 3.37-2.45 3.37-2.45v2.76zM-106.67 124.47s-1.9-1.38-1.9-2.07c-.04-.65 2.02-2.1 2.85-2.08 1.07 0 2.85 1.4 2.85 2.08 0 .7-1.9 2.07-1.9 2.07v2.77s3.36-4.53 3.36-2.45c0 1.33-3.37 3.82-3.37 3.82h-1.9s-3.9-3.12-3.37-3.83c0-2.1 3.37 2.44 3.37 2.44v-2.77zM-40.42 145.15s-1.9 1.38-1.9 2.07c-.04.65 2.02 2.1 2.85 2.08 1.07 0 2.85-1.38 2.85-2.08 0-.7-1.9-2.07-1.9-2.07v-2.76s3.36 4.5 3.36 2.44c0-1.35-3.36-3.84-3.36-3.84h-1.9s-3.9 3.12-3.37 3.83c0 2.08 3.38-2.44 3.38-2.44v2.75zM-40.82 124.03s-1.9-1.38-1.9-2.07c-.04-.65 2.02-2.1 2.85-2.08 1.07 0 2.85 1.4 2.85 2.08 0 .7-1.9 2.07-1.9 2.07v2.77s3.36-4.53 3.36-2.45c0 1.34-3.36 3.83-3.36 3.83h-1.9s-3.9-3.12-3.37-3.83c0-2.08 3.38 2.45 3.38 2.45v-2.77z" fill="#980000"/><path d="M-120.28 145.36c-.62-1.27-.46-1.86-.46-2.6-.03-.68 1.72-2.02 2.34-2 .8-.02 2.14 1.47 2.14 2.2 0 .74.03 1.38-.3 2.65l-.9-2.14c-1.07 3.05-1.13 3.12-1.78-.08l-1.04 1.98zM-120.22 123.93c-.62 1.28-.46 1.86-.46 2.6-.03.7 1.72 2.02 2.34 2 .8.02 2.14-1.47 2.14-2.2 0-.74.03-1.38-.3-2.65l-.9 2.16c-1.07-3.06-1.13-3.13-1.78.07l-1.04-1.97zM-27.8 145.1c-.62-1.28-.46-1.87-.46-2.6-.03-.7 1.72-2.03 2.34-2 .8-.03 2.14 1.46 2.14 2.2 0 .73.03 1.37-.3 2.64l-.9-2.15c-1.07 3.04-1.13 3.1-1.78-.1l-1.04 2zM-27.75 123.65c-.62 1.28-.46 1.87-.46 2.6-.04.7 1.7 2.03 2.33 2 .8.03 2.14-1.46 2.14-2.2 0-.74.03-1.37-.3-2.64l-.9 2.16c-1.07-3.05-1.13-3.13-1.78.07l-1.05-1.98z" fill="#fff"/><path d="M115.16 177.16v-5.32H99.22v-10.63H85.04v-3.53h-12.4v-31.9h12.4v-3.53h14.18V111.6h15.94v-5.3h21.26v5.3h15.95v10.64h14.17v3.54h12.4v31.9h-12.4v3.53h-14.18v10.65h-15.94v5.3h-21.26zm-1.77 1.77v-5.3H97.43v-10.64H83.27v-3.56h-12.4V124h12.4v-3.53h14.17v-10.63h15.95v-5.32h24.8v5.32h15.94v10.63h14.17V124h12.4v35.44h-12.4V163h-14.16v10.62H138.2v5.3h-24.8z" transform="translate(-198.4 -7.1)" stroke="#000" stroke-width=".13" fill="#980000"/></g></g></svg>