<svg xmlns="http://www.w3.org/2000/svg" height="480" width="640"><desc>The United States of America flag, produced by Daniel McRae</desc><defs><clipPath id="a"><path fill-opacity=".67" d="M0 0h682.67v512H0z"/></clipPath></defs><g fill-rule="evenodd" clip-path="url(#a)" transform="matrix(.9 0 0 .9 0 0)"><g stroke-width="1pt"><g fill="#bd3d44"><path d="M0 0h972.8v39.4H0zM0 78.77h972.8v39.4H0zM0 157.54h972.8v39.4H0zM0 236.3h972.8v39.4H0zM0 315.08h972.8v39.4H0zM0 393.85h972.8v39.4H0zM0 472.62h972.8v39.4H0z"/></g><g fill="#fff"><path d="M0 39.4h972.8v39.37H0zM0 118.16h972.8v39.38H0zM0 196.93h972.8v39.38H0zM0 275.7h972.8v39.38H0zM0 354.47h972.8v39.38H0zM0 433.24h972.8v39.38H0z"/></g></g><path fill="#192f5d" d="M0 0h389.12v275.7H0z"/><g fill="#fff"><path d="M32.43 11.8l3.54 10.9h11.45l-9.26 6.73 3.54 10.9-9.27-6.74-9.27 6.73 3.54-10.9-9.27-6.73H28.9M97.28 11.8l3.54 10.9h11.46L103 29.43l3.55 10.9-9.27-6.74L88 40.32l3.55-10.9-9.27-6.73h11.46M162.14 11.8l3.54 10.9h11.45l-9.27 6.73 3.55 10.9-9.26-6.74-9.27 6.73 3.54-10.9-9.26-6.73h11.46M227 11.8l3.53 10.9H242l-9.28 6.73 3.54 10.9L227 33.6l-9.28 6.73 3.54-10.9L212 22.7h11.45M291.84 11.8l3.54 10.9h11.46l-9.27 6.73 3.54 10.9-9.26-6.74-9.27 6.73 3.54-10.9-9.25-6.73h11.45M356.7 11.8l3.54 10.9h11.46l-9.27 6.73 3.54 10.9-9.27-6.74-9.27 6.73 3.54-10.9-9.27-6.73h11.46"/><g><path d="M64.86 39.37l3.54 10.9h11.45L70.58 57l3.54 10.9-9.26-6.74-9.27 6.74L59.12 57l-9.27-6.73H61.3M129.7 39.37l3.55 10.9h11.45L135.44 57l3.54 10.9-9.27-6.74-9.26 6.74 3.54-10.9-9.27-6.73h11.47M194.56 39.37l3.54 10.9h11.46L200.3 57l3.53 10.9-9.27-6.74-9.27 6.74 3.53-10.9-9.27-6.73h11.46M259.42 39.37l3.54 10.9h11.45L265.16 57l3.54 10.9-9.28-6.74-9.27 6.74L253.7 57l-9.28-6.73h11.46M324.27 39.37l3.54 10.9h11.47L330 57l3.54 10.9-9.27-6.74L315 67.9l3.54-10.9-9.27-6.73h11.46"/></g><g><path d="M32.43 66.94l3.54 10.9h11.45l-9.26 6.73 3.54 10.9-9.27-6.74-9.27 6.74 3.54-10.9-9.27-6.73H28.9M97.28 66.94l3.54 10.9h11.46L103 84.57l3.55 10.9-9.27-6.74L88 95.47l3.55-10.9-9.27-6.73h11.46M162.14 66.94l3.54 10.9h11.45l-9.27 6.73 3.55 10.9-9.26-6.74-9.27 6.74 3.54-10.9-9.26-6.73h11.46M227 66.94l3.53 10.9H242l-9.28 6.73 3.54 10.9-9.27-6.74-9.28 6.74 3.54-10.9-9.27-6.73h11.45M291.84 66.94l3.54 10.9h11.46l-9.27 6.73 3.54 10.9-9.26-6.74-9.27 6.74 3.54-10.9-9.25-6.73h11.45M356.7 66.94l3.54 10.9h11.46l-9.27 6.73 3.54 10.9-9.27-6.74-9.27 6.74 3.54-10.9-9.27-6.73h11.46"/><g><path d="M64.86 94.5l3.54 10.9h11.45l-9.27 6.74 3.54 10.9-9.26-6.74-9.27 6.74 3.53-10.9-9.27-6.74H61.3M129.7 94.5l3.55 10.9h11.45l-9.26 6.74 3.54 10.9-9.27-6.74-9.26 6.74 3.54-10.9-9.27-6.74h11.47M194.56 94.5l3.54 10.9h11.46l-9.27 6.74 3.53 10.9-9.27-6.74-9.27 6.74 3.53-10.9-9.27-6.74h11.46M259.42 94.5l3.54 10.9h11.45l-9.25 6.74 3.54 10.9-9.28-6.74-9.27 6.74 3.54-10.9-9.28-6.74h11.46M324.27 94.5l3.54 10.9h11.47l-9.27 6.74 3.54 10.9-9.27-6.74-9.27 6.74 3.54-10.9-9.27-6.74h11.46"/></g></g><g><path d="M32.43 122.08l3.54 10.9h11.45l-9.26 6.73 3.54 10.9-9.27-6.73-9.27 6.74 3.54-10.9-9.27-6.73H28.9M97.28 122.08l3.54 10.9h11.46L103 139.7l3.55 10.9-9.27-6.73L88 150.6l3.55-10.9-9.27-6.73h11.46M162.14 122.08l3.54 10.9h11.45l-9.27 6.73 3.55 10.9-9.26-6.73-9.27 6.74 3.54-10.9-9.26-6.73h11.46M227 122.08l3.53 10.9H242l-9.28 6.73 3.54 10.9-9.27-6.73-9.28 6.74 3.54-10.9-9.27-6.73h11.45M291.84 122.08l3.54 10.9h11.46l-9.27 6.73 3.54 10.9-9.26-6.73-9.27 6.74 3.54-10.9-9.25-6.73h11.45M356.7 122.08l3.54 10.9h11.46l-9.27 6.73 3.54 10.9-9.27-6.73-9.27 6.74 3.54-10.9-9.27-6.73h11.46"/><g><path d="M64.86 149.65l3.54 10.9h11.45l-9.27 6.73 3.54 10.9-9.26-6.74-9.27 6.73 3.53-10.9-9.27-6.73H61.3M129.7 149.65l3.55 10.9h11.45l-9.26 6.73 3.54 10.9-9.27-6.74-9.26 6.73 3.54-10.9-9.27-6.73h11.47M194.56 149.65l3.54 10.9h11.46l-9.27 6.73 3.53 10.9-9.27-6.74-9.27 6.73 3.53-10.9-9.27-6.73h11.46M259.42 149.65l3.54 10.9h11.45l-9.25 6.73 3.54 10.9-9.28-6.74-9.27 6.73 3.54-10.9-9.28-6.73h11.46M324.27 149.65l3.54 10.9h11.47l-9.27 6.73 3.54 10.9-9.27-6.74-9.27 6.73 3.54-10.9-9.27-6.73h11.46"/></g></g><g><path d="M32.43 177.22l3.54 10.9h11.45l-9.26 6.73 3.54 10.9-9.27-6.74-9.27 6.74 3.54-10.9-9.27-6.73H28.9M97.28 177.22l3.54 10.9h11.46l-9.27 6.73 3.55 10.9-9.27-6.74-9.27 6.74 3.55-10.9-9.27-6.73h11.46M162.14 177.22l3.54 10.9h11.45l-9.27 6.73 3.55 10.9-9.26-6.74-9.27 6.74 3.54-10.9-9.26-6.73h11.46M227 177.22l3.53 10.9H242l-9.28 6.73 3.54 10.9L227 199l-9.28 6.74 3.54-10.9-9.27-6.73h11.45M291.84 177.22l3.54 10.9h11.46l-9.27 6.73 3.54 10.9-9.26-6.74-9.27 6.74 3.54-10.9-9.25-6.73h11.45M356.7 177.22l3.54 10.9h11.46l-9.27 6.73 3.54 10.9-9.27-6.74-9.27 6.74 3.54-10.9-9.27-6.73h11.46"/><g><path d="M64.86 204.8l3.54 10.88h11.45l-9.27 6.74 3.54 10.9-9.26-6.74-9.27 6.73 3.53-10.88-9.27-6.74H61.3M129.7 204.8l3.55 10.88h11.45l-9.26 6.74 3.54 10.9-9.27-6.74-9.26 6.73 3.54-10.88-9.27-6.74h11.47M194.56 204.8l3.54 10.88h11.46l-9.27 6.74 3.53 10.9-9.27-6.74-9.27 6.73 3.53-10.88-9.27-6.74h11.46M259.42 204.8l3.54 10.88h11.45l-9.25 6.74 3.54 10.9-9.28-6.74-9.27 6.73 3.54-10.88-9.28-6.74h11.46M324.27 204.8l3.54 10.88h11.47l-9.27 6.74 3.54 10.9-9.27-6.74-9.27 6.73 3.54-10.88-9.27-6.74h11.46"/></g></g><g><path d="M32.43 232.36l3.54 10.9h11.45l-9.26 6.73 3.54 10.88-9.27-6.73-9.27 6.73 3.54-10.9-9.27-6.73H28.9M97.28 232.36l3.54 10.9h11.46l-9.27 6.73 3.55 10.88-9.27-6.73-9.27 6.73 3.55-10.9-9.27-6.73h11.46M162.14 232.36l3.54 10.9h11.45l-9.27 6.73 3.55 10.88-9.26-6.73-9.27 6.73 3.54-10.9-9.26-6.73h11.46M227 232.36l3.53 10.9H242l-9.28 6.73 3.54 10.88-9.27-6.73-9.28 6.73 3.54-10.9-9.27-6.73h11.45M291.84 232.36l3.54 10.9h11.46l-9.27 6.73 3.54 10.88-9.26-6.73-9.27 6.73 3.54-10.9-9.25-6.73h11.45M356.7 232.36l3.54 10.9h11.46l-9.27 6.73 3.54 10.88-9.27-6.73-9.27 6.73 3.54-10.9-9.27-6.73h11.46"/></g></g></g></svg>