<svg xmlns="http://www.w3.org/2000/svg" height="480" width="640" version="1" xmlns:xlink="http://www.w3.org/1999/xlink"><defs><linearGradient id="a"><stop stop-color="#faff00" offset="0"/><stop stop-color="#f5c402" offset="1"/></linearGradient><linearGradient id="c" y2="459.27" xlink:href="#a" gradientUnits="userSpaceOnUse" x2="123.79" gradientTransform="matrix(.8 0 0 1.4 26.4 -26.6)" y1="360.52" x1="123.79"/><linearGradient id="d" y2="459.27" xlink:href="#a" gradientUnits="userSpaceOnUse" x2="123.79" gradientTransform="matrix(.7 0 0 1.5 -.6 -48.2)" y1="360.52" x1="123.79"/><linearGradient id="e" y2="459.27" xlink:href="#a" gradientUnits="userSpaceOnUse" x2="123.79" gradientTransform="matrix(.8 0 0 1.4 -30.2 -29.6)" y1="360.52" x1="123.79"/><linearGradient id="f" y2="459.27" xlink:href="#a" gradientUnits="userSpaceOnUse" x2="123.79" gradientTransform="matrix(.8 0 0 1.4 -23.2 .2)" y1="360.52" x1="123.79"/><linearGradient id="g" y2="459.27" xlink:href="#a" gradientUnits="userSpaceOnUse" x2="123.79" gradientTransform="matrix(.8 0 0 1.4 -1.6 1.6)" y1="360.52" x1="123.79"/><linearGradient id="h" y2="459.27" xlink:href="#a" gradientUnits="userSpaceOnUse" x2="123.79" gradientTransform="matrix(.8 0 0 1.4 -1.9 -1.8)" y1="360.52" x1="123.79"/><linearGradient id="i" y2="459.27" xlink:href="#a" gradientUnits="userSpaceOnUse" x2="123.79" gradientTransform="matrix(.8 0 0 1.4 16.4 -.1)" y1="360.52" x1="123.79"/><linearGradient id="j" y2="459.27" xlink:href="#a" gradientUnits="userSpaceOnUse" x2="123.79" gradientTransform="matrix(.7 0 0 1.5 0 -8.5)" y1="360.52" x1="123.79"/><clipPath id="b"><path fill-opacity=".67" d="M0 0h640v512H0z"/></clipPath></defs><g clip-path="url(#b)" transform="matrix(1 0 0 .9 0 0)"><g fill-rule="evenodd" transform="matrix(.5 0 0 .5 116.3 -61.4)"><path fill="#fff" d="M-240.65 126.95h1587v1059h-1587z"/><path d="M101.66 488.82c9.64 18.1 21.86 33.03 30.42 58.7 1.84 34.3-2.07 40.83 4.63 57.04 2.7 5.93 6.56 8.38 7.3 22.13-1.15 19.66-9.65 20.9-18 20.35-1.5-6.05 0-9.95-10.65-20.36-5.76-6.17-12.6-16.36-16.23-29.5-1.13-12.08-1.76-27.77-7.8-40.9-8.66-14.17-9.96-21.06-18.2-28.5-8.5-9.86-8-13.32-12.65-24.08 11.4-18.45 22.2-20.33 41.2-14.9z" fill-opacity=".56" transform="rotate(135.2 53.5 425)" stroke="#cbaa19" stroke-width="3.23" fill="url(#c)"/><path d="M101.66 488.82c9.64 18.1 21.86 33.03 30.42 58.7 1.84 34.3-2.07 40.83 4.63 57.04 2.7 5.93 6.56 8.38 7.3 22.13-1.15 19.66-9.65 20.9-18 20.35-1.5-6.05 0-9.95-10.65-20.36-5.76-6.17-12.6-16.36-16.23-29.5-1.13-12.08-1.76-27.77-7.8-40.9-8.66-14.17-9.96-21.06-18.2-28.5-8.5-9.86-8-13.32-12.65-24.08 11.4-18.45 22.2-20.33 41.2-14.9z" fill-opacity=".56" transform="rotate(-179.3 53.5 425)" stroke="#cbaa19" stroke-width="3.23" fill="url(#d)"/><path d="M101.66 488.82c9.64 18.1 21.86 33.03 30.42 58.7 1.84 34.3-2.07 40.83 4.63 57.04 2.7 5.93 6.56 8.38 7.3 22.13-1.15 19.66-9.65 20.9-18 20.35-1.5-6.05 0-9.95-10.65-20.36-5.76-6.17-12.6-16.36-16.23-29.5-1.13-12.08-1.76-27.77-7.8-40.9-8.66-14.17-9.96-21.06-18.2-28.5-8.5-9.86-8-13.32-12.65-24.08 11.4-18.45 22.2-20.33 41.2-14.9z" fill-opacity=".56" transform="rotate(-134.4 53.5 425)" stroke="#cbaa19" stroke-width="3.23" fill="url(#e)"/><path d="M101.66 488.82c9.64 18.1 21.86 33.03 30.42 58.7 1.84 34.3-2.07 40.83 4.63 57.04 2.7 5.93 6.56 8.38 7.3 22.13-1.15 19.66-9.65 20.9-18 20.35-1.5-6.05 0-9.95-10.65-20.36-5.76-6.17-12.6-16.36-16.23-29.5-1.13-12.08-1.76-27.77-7.8-40.9-8.66-14.17-9.96-21.06-18.2-28.5-8.5-9.86-8-13.32-12.65-24.08 11.4-18.45 22.2-20.33 41.2-14.9z" fill-opacity=".56" transform="rotate(-89.6 53.5 425)" stroke="#cbaa19" stroke-width="3.23" fill="url(#f)"/><path d="M101.66 488.82c9.64 18.1 21.86 33.03 30.42 58.7 1.84 34.3-2.07 40.83 4.63 57.04 2.7 5.93 6.56 8.38 7.3 22.13-1.15 19.66-9.65 20.9-18 20.35-1.5-6.05 0-9.95-10.65-20.36-5.76-6.17-12.6-16.36-16.23-29.5-1.13-12.08-1.76-27.77-7.8-40.9-8.66-14.17-9.96-21.06-18.2-28.5-8.5-9.86-8-13.32-12.65-24.08 11.4-18.45 22.2-20.33 41.2-14.9z" fill-opacity=".56" transform="rotate(-44.7 53.5 425)" stroke="#cbaa19" stroke-width="3.23" fill="url(#g)"/><path d="M101.66 488.82c9.64 18.1 21.86 33.03 30.42 58.7 1.84 34.3-2.07 40.83 4.63 57.04 2.7 5.93 6.56 8.38 7.3 22.13-1.15 19.66-9.65 20.9-18 20.35-1.5-6.05 0-9.95-10.65-20.36-5.76-6.17-12.6-16.36-16.23-29.5-1.13-12.08-1.76-27.77-7.8-40.9-8.66-14.17-9.96-21.06-18.2-28.5-8.5-9.86-8-13.32-12.65-24.08 11.4-18.45 22.2-20.33 41.2-14.9z" fill-opacity=".56" transform="rotate(45.3 53.5 425)" stroke="#cbaa19" stroke-width="3.23" fill="url(#h)"/><path d="M101.66 488.82c9.64 18.1 21.86 33.03 30.42 58.7 1.84 34.3-2.07 40.83 4.63 57.04 2.7 5.93 6.56 8.38 7.3 22.13-1.15 19.66-9.65 20.9-18 20.35-1.5-6.05 0-9.95-10.65-20.36-5.76-6.17-12.6-16.36-16.23-29.5-1.13-12.08-1.76-27.77-7.8-40.9-8.66-14.17-9.96-21.06-18.2-28.5-8.5-9.86-8-13.32-12.65-24.08 11.4-18.45 22.2-20.33 41.2-14.9z" fill-opacity=".56" transform="rotate(90.3 53.5 425)" stroke="#cbaa19" stroke-width="3.23" fill="url(#i)"/><path fill="#002993" d="M345.13 247.98h1001.2V368.5H345.13zM345.13 482.62h1001.2v120.52H345.13z"/><path d="M101.66 488.82c9.64 18.1 21.86 33.03 30.42 58.7 1.84 34.3-2.07 40.83 4.63 57.04 2.7 5.93 6.56 8.38 7.3 22.13-1.15 19.66-9.65 20.9-18 20.35-1.5-6.05 0-9.95-10.65-20.36-5.76-6.17-12.6-16.36-16.23-29.5-1.13-12.08-1.76-27.77-7.8-40.9-8.66-14.17-9.96-21.06-18.2-28.5-8.5-9.86-8-13.32-12.65-24.08 11.4-18.45 22.2-20.33 41.2-14.9z" fill-opacity=".56" stroke="#cbaa19" stroke-width="3.23" fill="url(#j)"/><path fill="#002993" d="M-240.65 714.54h1587v120.52h-1587zM-240.65 947.82h1587v120.52h-1587z"/><path d="M82.66 496.87L53.54 656.23V496.87h29.12z" stroke="#cbaa19" stroke-linecap="round" stroke-width="3.23" fill="#faff00"/><path d="M24.42 496.87l29.12 159.36V496.87H24.42z" stroke="#cbaa19" stroke-width="3.23" fill="#f5c402"/><path d="M125 455.1l92.33 133.1-112.9-112.47L125 455.1z" stroke="#cbaa19" stroke-linecap="round" stroke-width="3.23" fill="#faff00"/><path d="M83.9 496.36l133.43 91.85-112.9-112.47-20.54 20.63z" stroke="#cbaa19" stroke-width="3.23" fill="#f5c402"/><path d="M125.34 395.75l159.42 28.8-159.36.32-.06-29.12z" stroke="#cbaa19" stroke-linecap="round" stroke-width="3.23" fill="#faff00"/><path d="M125.46 454l159.3-29.43-159.36.3.06 29.12z" stroke="#cbaa19" stroke-width="3.23" fill="#f5c402"/><path d="M83.92 353.68l133.5-91.78-112.95 112.42-20.55-20.64z" stroke="#cbaa19" stroke-linecap="round" stroke-width="3.23" fill="#faff00"/><path d="M125 394.95l92.42-133.05-112.95 112.42L125 394.95z" stroke="#cbaa19" stroke-width="3.23" fill="#f5c402"/><path d="M24.28 353.2l28.8-159.4.32 159.35-29.12.06z" stroke="#cbaa19" stroke-linecap="round" stroke-width="3.23" fill="#faff00"/><path d="M82.52 353.1L53.1 193.8l.3 159.36 29.12-.06z" stroke="#cbaa19" stroke-width="3.23" fill="#f5c402"/><path d="M-17.92 394.92l-92.35-133.1L2.63 374.3l-20.55 20.62z" stroke="#cbaa19" stroke-linecap="round" stroke-width="3.23" fill="#faff00"/><path d="M23.2 353.66l-133.46-91.84L2.64 374.3l20.55-20.64z" stroke="#cbaa19" stroke-width="3.23" fill="#f5c402"/><path d="M-18 454.92l-159.67-27.36 159.35-1.76.32 29.12z" stroke="#cbaa19" stroke-linecap="round" stroke-width="3.23" fill="#faff00"/><path d="M-18.63 396.7l-159.03 30.87 159.35-1.76-.33-29.1z" stroke="#cbaa19" stroke-width="3.23" fill="#f5c402"/><path d="M23.85 496.63l-132.6 93.1L3.12 476.2l20.75 20.43z" stroke="#cbaa19" stroke-linecap="round" stroke-width="3.23" fill="#faff00"/><path d="M-17.64 455.76l-91.1 133.96L3.1 476.2l-20.74-20.44z" stroke="#cbaa19" stroke-width="3.23" fill="#f5c402"/><ellipse fill="#faff00" transform="translate(1 2.9)" cx="52.59" rx="82.22" cy="422.29" ry="81.27" stroke="#cbaa19" stroke-width="3.23"/></g></g></svg>