<svg xmlns="http://www.w3.org/2000/svg" height="480" width="640"><defs><clipPath id="a"><path fill-opacity=".67" d="M0 0h640v480H0z"/></clipPath></defs><g fill-rule="evenodd" clip-path="url(#a)"><path fill="#fff" d="M0 0h960v480H0z"/><path fill="#94acd4" d="M0 0h960v166.14H0z"/><path fill="#b73000" d="M0 155.14h960v11H0z"/><path fill="#00a900" d="M0 324.86h960V480H0z"/><path fill="#b73000" d="M0 324.86h960v11H0z"/><path fill="#feffff" d="M252.65 49.4l-8.94-6.16-8.84 6.3 3.06-10.46-8.68-6.5 10.82-.32 3.48-10.33 3.64 10.26 10.83.13-8.56 6.65M210.5 132.34l-8.94-6.15-8.85 6.28 3.06-10.45-8.68-6.5 10.82-.33 3.48-10.32 3.64 10.26 10.83.14-8.57 6.65M253.06 132.34l-8.94-6.15-8.85 6.28 3.05-10.45-8.68-6.5 10.83-.33 3.47-10.32 3.64 10.26 10.84.14-8.58 6.65M292.37 132.34l-8.93-6.15-8.85 6.28 3.04-10.45-8.68-6.5 10.82-.33 3.48-10.32 3.64 10.26 10.83.14-8.57 6.65M328.86 132.34l-8.93-6.15-8.85 6.28 3.05-10.45-8.68-6.5 10.82-.33 3.48-10.32 3.64 10.26 10.82.14-8.57 6.65M165.9 132.34l-8.94-6.15-8.84 6.28 3.05-10.45-8.68-6.5 10.8-.33 3.5-10.32 3.63 10.26 10.83.14-8.57 6.65M209.68 91.17l-8.94-6.15-8.84 6.3 3.05-10.46-8.68-6.5 10.82-.32 3.47-10.33 3.64 10.27 10.84.14-8.57 6.66M252.65 91.17l-8.94-6.15-8.84 6.3 3.06-10.46-8.68-6.5 10.82-.32 3.48-10.33 3.64 10.27 10.83.14-8.56 6.66M293.18 91.17l-8.93-6.15-8.85 6.3 3.05-10.46-8.68-6.5 10.82-.32 3.47-10.33 3.64 10.27 10.84.14-8.57 6.66M328.45 91.17l-8.93-6.15-8.85 6.3 3.05-10.46-8.68-6.5 10.82-.32 3.48-10.33 3.64 10.27 10.83.14-8.56 6.66M328.05 49.4l-8.93-6.16-8.85 6.3 3.05-10.46-8.68-6.5 10.82-.32 3.48-10.33 3.64 10.26 10.83.13-8.56 6.65M292.78 49.4l-8.93-6.16-8.85 6.3 3.05-10.46-8.68-6.5 10.82-.32 3.47-10.33 3.64 10.26 10.84.13-8.57 6.65"/><path d="M137.83 25.1C90 12 59.7 45.88 60.15 76.2c.45 30.36 28.42 62.5 71.6 54.48C63.9 162.48 29.22 112.4 30.6 72.65c2.4-47 55.2-85.3 107.23-47.54z" fill="#fff"/></g></svg>