<svg xmlns="http://www.w3.org/2000/svg" height="480" width="640" version="1"><g fill-rule="evenodd"><path fill="#fff" d="M320 0h320v480H320z"/><path d="M282.43-735.13c0 .63 55.96 222.85 118.17 300.56 69.38 87.27 113.18 87.33 113.18 87.33l70.87-17.7s-41.5 2.08-123.8-104.22C377.4-576.94 351.43-755.12 352.68-752l-70.25 16.87z" transform="matrix(-.2 0 0 .2 534.1 334.4)" stroke="#000" stroke-width="1.2" fill="#fff"/><path d="M285-727.64C283.47-737 318.9-506.7 425.2-400.4c53.15 53.15 88.58 53.15 88.58 53.15l88.6-17.72s-51.73 3.75-134.03-102.55C384.9-575.3 359.77-730.77 360.4-731.4l-75.4 3.76z" transform="matrix(.2 0 0 .2 381.9 336.2)" stroke="#000" stroke-width="1.2" fill="#fff"/><path d="M282.43-735.13c0 .63 55.96 222.85 118.17 300.56 69.38 87.27 113.18 87.33 113.18 87.33l70.87-17.7s-41.5 2.08-123.8-104.22C377.4-576.94 351.43-755.12 352.68-752l-70.25 16.87z" transform="matrix(.2 0 0 .2 381.9 336.2)" stroke="#000" stroke-width="1.2" fill="#fff"/><path d="M285-727.64C283.47-737 318.9-506.7 425.2-400.4c53.15 53.15 88.58 53.15 88.58 53.15l88.6-17.72s-51.73 3.75-134.03-102.55C384.9-575.3 359.77-730.77 360.4-731.4l-75.4 3.76z" transform="matrix(-.2 0 0 .2 534.1 334.4)" stroke="#000" stroke-width="1.2" fill="#fff"/><path d="M344.54-596.3l9.15 22.15s1.45-9.77 8.52-11.53l7.07-1.77s26.85 49.33 32.16 58.17c5.3 8.83-3.54 16.8-1.77 16.8 1.76 0 26.5-11.5 26.5-11.5s-10.6.88-15.02-6.2-34.82-59.92-34.82-59.92 6.2-2.65 11.5-5.3c5.3-2.66 10.6 7.95 10.6 7.95l-13.26-26.52s0 8.84-4.42 10.6c-4.42 1.78-7.96 3.54-7.96 3.54s-3.53-6.18-7.95-13.25c-4.42-7.08 4.42-14.15 4.42-14.15l-23 11.5s7.96 4.4 10.62 8.83l5.3 8.84s-3.22 1.77-8.22 3.48c-3.58 1.88-7.7.06-9.46-1.7z" transform="matrix(.2 0 0 .2 380 342.3)" stroke="#000" stroke-width="1.2" fill="#fff133"/><g stroke="#000" stroke-width="12.79" fill="#b00"><path d="M212.6-453.54c-35.43 0-70.87 35.43-70.87 70.87s35.44 70.86 70.87 70.86h194.88c35.43 0 70.87-35.44 70.87-70.87 0-37.03-35.44-70.87-70.87-70.87H212.6z" transform="matrix(0 0 0 0 411 329.6)"/><path d="M212.6-453.54c-35.43 0-70.87 35.43-70.87 70.87s35.44 70.86 70.87 70.86h194.88c35.43 0 70.87-35.44 70.87-70.87 0-37.03-35.44-70.87-70.87-70.87H212.6z" transform="matrix(0 0 0 0 409.4 330.9)"/><path d="M212.6-453.54c-35.43 0-70.87 35.43-70.87 70.87s35.44 70.86 70.87 70.86h194.88c35.43 0 70.87-35.44 70.87-70.87 0-37.03-35.44-70.87-70.87-70.87H212.6z" transform="matrix(0 0 0 0 407.3 332.6)"/><path d="M212.6-453.54c-35.43 0-70.87 35.43-70.87 70.87s35.44 70.86 70.87 70.86h194.88c35.43 0 70.87-35.44 70.87-70.87 0-37.03-35.44-70.87-70.87-70.87H212.6z" transform="matrix(0 0 0 0 429.5 312.4)"/><path d="M212.6-453.54c-35.43 0-70.87 35.43-70.87 70.87s35.44 70.86 70.87 70.86h194.88c35.43 0 70.87-35.44 70.87-70.87 0-37.03-35.44-70.87-70.87-70.87H212.6z" transform="matrix(0 0 0 0 428.4 313.9)"/><path d="M212.6-453.54c-35.43 0-70.87 35.43-70.87 70.87s35.44 70.86 70.87 70.86h194.88c35.43 0 70.87-35.44 70.87-70.87 0-37.03-35.44-70.87-70.87-70.87H212.6z" transform="matrix(0 0 0 0 426.8 315.8)"/><path d="M212.6-453.54c-35.43 0-70.87 35.43-70.87 70.87s35.44 70.86 70.87 70.86h194.88c35.43 0 70.87-35.44 70.87-70.87 0-37.03-35.44-70.87-70.87-70.87H212.6z" transform="matrix(0 0 0 0 425.8 316.4)"/><path d="M212.6-453.54c-35.43 0-70.87 35.43-70.87 70.87s35.44 70.86 70.87 70.86h194.88c35.43 0 70.87-35.44 70.87-70.87 0-37.03-35.44-70.87-70.87-70.87H212.6z" transform="matrix(0 0 0 0 433.9 305.9)"/><path d="M212.6-453.54c-35.43 0-70.87 35.43-70.87 70.87s35.44 70.86 70.87 70.86h194.88c35.43 0 70.87-35.44 70.87-70.87 0-37.03-35.44-70.87-70.87-70.87H212.6z" transform="matrix(0 0 0 0 432.9 307.6)"/><path d="M212.6-453.54c-35.43 0-70.87 35.43-70.87 70.87s35.44 70.86 70.87 70.86h194.88c35.43 0 70.87-35.44 70.87-70.87 0-37.03-35.44-70.87-70.87-70.87H212.6z" transform="matrix(0 0 0 0 431.7 309.7)"/><path d="M212.6-453.54c-35.43 0-70.87 35.43-70.87 70.87s35.44 70.86 70.87 70.86h194.88c35.43 0 70.87-35.44 70.87-70.87 0-37.03-35.44-70.87-70.87-70.87H212.6z" transform="matrix(0 0 0 0 430.5 311.2)"/><path d="M212.6-453.54c-35.43 0-70.87 35.43-70.87 70.87s35.44 70.86 70.87 70.86h194.88c35.43 0 70.87-35.44 70.87-70.87 0-37.03-35.44-70.87-70.87-70.87H212.6z" transform="matrix(0 0 0 0 417.9 324)"/><path d="M212.6-453.54c-35.43 0-70.87 35.43-70.87 70.87s35.44 70.86 70.87 70.86h194.88c35.43 0 70.87-35.44 70.87-70.87 0-37.03-35.44-70.87-70.87-70.87H212.6z" transform="matrix(0 0 0 0 416.4 325.4)"/><path d="M212.6-453.54c-35.43 0-70.87 35.43-70.87 70.87s35.44 70.86 70.87 70.86h194.88c35.43 0 70.87-35.44 70.87-70.87 0-37.03-35.44-70.87-70.87-70.87H212.6z" transform="matrix(0 0 0 0 414.5 327.1)"/><path d="M212.6-453.54c-35.43 0-70.87 35.43-70.87 70.87s35.44 70.86 70.87 70.86h194.88c35.43 0 70.87-35.44 70.87-70.87 0-37.03-35.44-70.87-70.87-70.87H212.6z" transform="matrix(0 0 0 0 413.1 328)"/><path d="M212.6-453.54c-35.43 0-70.87 35.43-70.87 70.87s35.44 70.86 70.87 70.86h194.88c35.43 0 70.87-35.44 70.87-70.87 0-37.03-35.44-70.87-70.87-70.87H212.6z" transform="matrix(0 0 0 0 424.1 318.3)"/><path d="M212.6-453.54c-35.43 0-70.87 35.43-70.87 70.87s35.44 70.86 70.87 70.86h194.88c35.43 0 70.87-35.44 70.87-70.87 0-37.03-35.44-70.87-70.87-70.87H212.6z" transform="matrix(0 0 0 0 422.7 319.8)"/><path d="M212.6-453.54c-35.43 0-70.87 35.43-70.87 70.87s35.44 70.86 70.87 70.86h194.88c35.43 0 70.87-35.44 70.87-70.87 0-37.03-35.44-70.87-70.87-70.87H212.6z" transform="matrix(0 0 0 0 421.4 320.8)"/><path d="M212.6-453.54c-35.43 0-70.87 35.43-70.87 70.87s35.44 70.86 70.87 70.86h194.88c35.43 0 70.87-35.44 70.87-70.87 0-37.03-35.44-70.87-70.87-70.87H212.6z" transform="matrix(0 0 0 0 419.9 322.2)"/><path d="M212.6-453.54c-35.43 0-70.87 35.43-70.87 70.87s35.44 70.86 70.87 70.86h194.88c35.43 0 70.87-35.44 70.87-70.87 0-37.03-35.44-70.87-70.87-70.87H212.6z" transform="matrix(0 0 0 0 443.6 284.2)"/><path d="M212.6-453.54c-35.43 0-70.87 35.43-70.87 70.87s35.44 70.86 70.87 70.86h194.88c35.43 0 70.87-35.44 70.87-70.87 0-37.03-35.44-70.87-70.87-70.87H212.6z" transform="matrix(0 0 0 0 443.6 284.8)"/><path d="M212.6-453.54c-35.43 0-70.87 35.43-70.87 70.87s35.44 70.86 70.87 70.86h194.88c35.43 0 70.87-35.44 70.87-70.87 0-37.03-35.44-70.87-70.87-70.87H212.6z" transform="matrix(0 0 0 0 442.7 287.1)"/><path d="M212.6-453.54c-35.43 0-70.87 35.43-70.87 70.87s35.44 70.86 70.87 70.86h194.88c35.43 0 70.87-35.44 70.87-70.87 0-37.03-35.44-70.87-70.87-70.87H212.6z" transform="matrix(0 0 0 0 441.9 288.9)"/><path d="M212.6-453.54c-35.43 0-70.87 35.43-70.87 70.87s35.44 70.86 70.87 70.86h194.88c35.43 0 70.87-35.44 70.87-70.87 0-37.03-35.44-70.87-70.87-70.87H212.6z" transform="matrix(0 0 0 0 445.7 277.8)"/><path d="M212.6-453.54c-35.43 0-70.87 35.43-70.87 70.87s35.44 70.86 70.87 70.86h194.88c35.43 0 70.87-35.44 70.87-70.87 0-37.03-35.44-70.87-70.87-70.87H212.6z" transform="matrix(0 0 0 0 445 280.1)"/><path d="M212.6-453.54c-35.43 0-70.87 35.43-70.87 70.87s35.44 70.86 70.87 70.86h194.88c35.43 0 70.87-35.44 70.87-70.87 0-37.03-35.44-70.87-70.87-70.87H212.6z" transform="matrix(0 0 0 0 444.4 281.9)"/><path d="M212.6-453.54c-35.43 0-70.87 35.43-70.87 70.87s35.44 70.86 70.87 70.86h194.88c35.43 0 70.87-35.44 70.87-70.87 0-37.03-35.44-70.87-70.87-70.87H212.6z" transform="matrix(0 0 0 0 438.1 298.3)"/><path d="M212.6-453.54c-35.43 0-70.87 35.43-70.87 70.87s35.44 70.86 70.87 70.86h194.88c35.43 0 70.87-35.44 70.87-70.87 0-37.03-35.44-70.87-70.87-70.87H212.6z" transform="matrix(0 0 0 0 437.1 300.1)"/><path d="M212.6-453.54c-35.43 0-70.87 35.43-70.87 70.87s35.44 70.86 70.87 70.86h194.88c35.43 0 70.87-35.44 70.87-70.87 0-37.03-35.44-70.87-70.87-70.87H212.6z" transform="matrix(0 0 0 0 436 302.2)"/><path d="M212.6-453.54c-35.43 0-70.87 35.43-70.87 70.87s35.44 70.86 70.87 70.86h194.88c35.43 0 70.87-35.44 70.87-70.87 0-37.03-35.44-70.87-70.87-70.87H212.6z" transform="matrix(0 0 0 0 435.2 303.8)"/><path d="M212.6-453.54c-35.43 0-70.87 35.43-70.87 70.87s35.44 70.86 70.87 70.86h194.88c35.43 0 70.87-35.44 70.87-70.87 0-37.03-35.44-70.87-70.87-70.87H212.6z" transform="matrix(0 0 0 0 441 291.1)"/><path d="M212.6-453.54c-35.43 0-70.87 35.43-70.87 70.87s35.44 70.86 70.87 70.86h194.88c35.43 0 70.87-35.44 70.87-70.87 0-37.03-35.44-70.87-70.87-70.87H212.6z" transform="matrix(0 0 0 0 441.3 292.2)"/><path d="M212.6-453.54c-35.43 0-70.87 35.43-70.87 70.87s35.44 70.86 70.87 70.86h194.88c35.43 0 70.87-35.44 70.87-70.87 0-37.03-35.44-70.87-70.87-70.87H212.6z" transform="matrix(0 0 0 0 440.1 294.4)"/><path d="M212.6-453.54c-35.43 0-70.87 35.43-70.87 70.87s35.44 70.86 70.87 70.86h194.88c35.43 0 70.87-35.44 70.87-70.87 0-37.03-35.44-70.87-70.87-70.87H212.6z" transform="matrix(0 0 0 0 439.2 296.1)"/><path d="M212.6-453.54c-35.43 0-70.87 35.43-70.87 70.87s35.44 70.86 70.87 70.86h194.88c35.43 0 70.87-35.44 70.87-70.87 0-37.03-35.44-70.87-70.87-70.87H212.6z" transform="matrix(0 0 0 0 448.9 266.5)"/><path d="M212.6-453.54c-35.43 0-70.87 35.43-70.87 70.87s35.44 70.86 70.87 70.86h194.88c35.43 0 70.87-35.44 70.87-70.87 0-37.03-35.44-70.87-70.87-70.87H212.6z" transform="matrix(0 0 0 0 448.9 268.1)"/><path d="M212.6-453.54c-35.43 0-70.87 35.43-70.87 70.87s35.44 70.86 70.87 70.86h194.88c35.43 0 70.87-35.44 70.87-70.87 0-37.03-35.44-70.87-70.87-70.87H212.6z" transform="matrix(0 0 0 0 448.4 269.9)"/><path d="M212.6-453.54c-35.43 0-70.87 35.43-70.87 70.87s35.44 70.86 70.87 70.86h194.88c35.43 0 70.87-35.44 70.87-70.87 0-37.03-35.44-70.87-70.87-70.87H212.6z" transform="matrix(0 0 0 0 449.6 259.9)"/><path d="M212.6-453.54c-35.43 0-70.87 35.43-70.87 70.87s35.44 70.86 70.87 70.86h194.88c35.43 0 70.87-35.44 70.87-70.87 0-37.03-35.44-70.87-70.87-70.87H212.6z" transform="matrix(0 0 0 0 449.4 262.3)"/><path d="M212.6-453.54c-35.43 0-70.87 35.43-70.87 70.87s35.44 70.86 70.87 70.86h194.88c35.43 0 70.87-35.44 70.87-70.87 0-37.03-35.44-70.87-70.87-70.87H212.6z" transform="matrix(0 0 0 0 449.1 264.1)"/><path d="M212.6-453.54c-35.43 0-70.87 35.43-70.87 70.87s35.44 70.86 70.87 70.86h194.88c35.43 0 70.87-35.44 70.87-70.87 0-37.03-35.44-70.87-70.87-70.87H212.6z" transform="matrix(0 0 0 0 447.7 272.2)"/><path d="M212.6-453.54c-35.43 0-70.87 35.43-70.87 70.87s35.44 70.86 70.87 70.86h194.88c35.43 0 70.87-35.44 70.87-70.87 0-37.03-35.44-70.87-70.87-70.87H212.6z" transform="matrix(0 0 0 0 447 273.5)"/><path d="M212.6-453.54c-35.43 0-70.87 35.43-70.87 70.87s35.44 70.86 70.87 70.86h194.88c35.43 0 70.87-35.44 70.87-70.87 0-37.03-35.44-70.87-70.87-70.87H212.6z" transform="matrix(0 0 0 0 446.3 275.8)"/></g><g stroke="#000" stroke-width="12.79" fill="#b00"><path d="M212.6-453.54c-35.43 0-70.87 35.43-70.87 70.87s35.44 70.86 70.87 70.86h194.88c35.43 0 70.87-35.44 70.87-70.87 0-37.03-35.44-70.87-70.87-70.87H212.6z" transform="matrix(0 0 0 0 503.2 324)"/><path d="M212.6-453.54c-35.43 0-70.87 35.43-70.87 70.87s35.44 70.86 70.87 70.86h194.88c35.43 0 70.87-35.44 70.87-70.87 0-37.03-35.44-70.87-70.87-70.87H212.6z" transform="matrix(0 0 0 0 504.7 325.4)"/><path d="M212.6-453.54c-35.43 0-70.87 35.43-70.87 70.87s35.44 70.86 70.87 70.86h194.88c35.43 0 70.87-35.44 70.87-70.87 0-37.03-35.44-70.87-70.87-70.87H212.6z" transform="matrix(0 0 0 0 506.6 327.1)"/><path d="M212.6-453.54c-35.43 0-70.87 35.43-70.87 70.87s35.44 70.86 70.87 70.86h194.88c35.43 0 70.87-35.44 70.87-70.87 0-37.03-35.44-70.87-70.87-70.87H212.6z" transform="matrix(0 0 0 0 486.1 305.7)"/><path d="M212.6-453.54c-35.43 0-70.87 35.43-70.87 70.87s35.44 70.86 70.87 70.86h194.88c35.43 0 70.87-35.44 70.87-70.87 0-37.03-35.44-70.87-70.87-70.87H212.6z" transform="matrix(0 0 0 0 487.1 307.3)"/><path d="M212.6-453.54c-35.43 0-70.87 35.43-70.87 70.87s35.44 70.86 70.87 70.86h194.88c35.43 0 70.87-35.44 70.87-70.87 0-37.03-35.44-70.87-70.87-70.87H212.6z" transform="matrix(0 0 0 0 488.5 309.4)"/><path d="M212.6-453.54c-35.43 0-70.87 35.43-70.87 70.87s35.44 70.86 70.87 70.86h194.88c35.43 0 70.87-35.44 70.87-70.87 0-37.03-35.44-70.87-70.87-70.87H212.6z" transform="matrix(0 0 0 0 489.5 310)"/><path d="M212.6-453.54c-35.43 0-70.87 35.43-70.87 70.87s35.44 70.86 70.87 70.86h194.88c35.43 0 70.87-35.44 70.87-70.87 0-37.03-35.44-70.87-70.87-70.87H212.6z" transform="matrix(0 0 0 0 482.2 299)"/><path d="M212.6-453.54c-35.43 0-70.87 35.43-70.87 70.87s35.44 70.86 70.87 70.86h194.88c35.43 0 70.87-35.44 70.87-70.87 0-37.03-35.44-70.87-70.87-70.87H212.6z" transform="matrix(0 0 0 0 483 300.8)"/><path d="M212.6-453.54c-35.43 0-70.87 35.43-70.87 70.87s35.44 70.86 70.87 70.86h194.88c35.43 0 70.87-35.44 70.87-70.87 0-37.03-35.44-70.87-70.87-70.87H212.6z" transform="matrix(0 0 0 0 484.1 303)"/><path d="M212.6-453.54c-35.43 0-70.87 35.43-70.87 70.87s35.44 70.86 70.87 70.86h194.88c35.43 0 70.87-35.44 70.87-70.87 0-37.03-35.44-70.87-70.87-70.87H212.6z" transform="matrix(0 0 0 0 485.2 304.6)"/><path d="M212.6-453.54c-35.43 0-70.87 35.43-70.87 70.87s35.44 70.86 70.87 70.86h194.88c35.43 0 70.87-35.44 70.87-70.87 0-37.03-35.44-70.87-70.87-70.87H212.6z" transform="matrix(0 0 0 0 496.7 317.9)"/><path d="M212.6-453.54c-35.43 0-70.87 35.43-70.87 70.87s35.44 70.86 70.87 70.86h194.88c35.43 0 70.87-35.44 70.87-70.87 0-37.03-35.44-70.87-70.87-70.87H212.6z" transform="matrix(0 0 0 0 498.1 319.4)"/><path d="M212.6-453.54c-35.43 0-70.87 35.43-70.87 70.87s35.44 70.86 70.87 70.86h194.88c35.43 0 70.87-35.44 70.87-70.87 0-37.03-35.44-70.87-70.87-70.87H212.6z" transform="matrix(0 0 0 0 499.9 321.3)"/><path d="M212.6-453.54c-35.43 0-70.87 35.43-70.87 70.87s35.44 70.86 70.87 70.86h194.88c35.43 0 70.87-35.44 70.87-70.87 0-37.03-35.44-70.87-70.87-70.87H212.6z" transform="matrix(0 0 0 0 501.2 322.3)"/><path d="M212.6-453.54c-35.43 0-70.87 35.43-70.87 70.87s35.44 70.86 70.87 70.86h194.88c35.43 0 70.87-35.44 70.87-70.87 0-37.03-35.44-70.87-70.87-70.87H212.6z" transform="matrix(0 0 0 0 491 311.9)"/><path d="M212.6-453.54c-35.43 0-70.87 35.43-70.87 70.87s35.44 70.86 70.87 70.86h194.88c35.43 0 70.87-35.44 70.87-70.87 0-37.03-35.44-70.87-70.87-70.87H212.6z" transform="matrix(0 0 0 0 492.3 313.5)"/><path d="M212.6-453.54c-35.43 0-70.87 35.43-70.87 70.87s35.44 70.86 70.87 70.86h194.88c35.43 0 70.87-35.44 70.87-70.87 0-37.03-35.44-70.87-70.87-70.87H212.6z" transform="matrix(0 0 0 0 493.5 314.6)"/><path d="M212.6-453.54c-35.43 0-70.87 35.43-70.87 70.87s35.44 70.86 70.87 70.86h194.88c35.43 0 70.87-35.44 70.87-70.87 0-37.03-35.44-70.87-70.87-70.87H212.6z" transform="matrix(0 0 0 0 494.9 316.1)"/><path d="M212.6-453.54c-35.43 0-70.87 35.43-70.87 70.87s35.44 70.86 70.87 70.86h194.88c35.43 0 70.87-35.44 70.87-70.87 0-37.03-35.44-70.87-70.87-70.87H212.6z" transform="matrix(0 0 0 0 474.2 276.9)"/><path d="M212.6-453.54c-35.43 0-70.87 35.43-70.87 70.87s35.44 70.86 70.87 70.86h194.88c35.43 0 70.87-35.44 70.87-70.87 0-37.03-35.44-70.87-70.87-70.87H212.6z" transform="matrix(0 0 0 0 474.1 277.5)"/><path d="M212.6-453.54c-35.43 0-70.87 35.43-70.87 70.87s35.44 70.86 70.87 70.86h194.88c35.43 0 70.87-35.44 70.87-70.87 0-37.03-35.44-70.87-70.87-70.87H212.6z" transform="matrix(0 0 0 0 474.9 279.8)"/><path d="M212.6-453.54c-35.43 0-70.87 35.43-70.87 70.87s35.44 70.86 70.87 70.86h194.88c35.43 0 70.87-35.44 70.87-70.87 0-37.03-35.44-70.87-70.87-70.87H212.6z" transform="matrix(0 0 0 0 475.5 281.6)"/><path d="M212.6-453.54c-35.43 0-70.87 35.43-70.87 70.87s35.44 70.86 70.87 70.86h194.88c35.43 0 70.87-35.44 70.87-70.87 0-37.03-35.44-70.87-70.87-70.87H212.6z" transform="matrix(0 0 0 0 472.6 270.4)"/><path d="M212.6-453.54c-35.43 0-70.87 35.43-70.87 70.87s35.44 70.86 70.87 70.86h194.88c35.43 0 70.87-35.44 70.87-70.87 0-37.03-35.44-70.87-70.87-70.87H212.6z" transform="matrix(0 0 0 0 473.2 272.7)"/><path d="M212.6-453.54c-35.43 0-70.87 35.43-70.87 70.87s35.44 70.86 70.87 70.86h194.88c35.43 0 70.87-35.44 70.87-70.87 0-37.03-35.44-70.87-70.87-70.87H212.6z" transform="matrix(0 0 0 0 473.6 274.6)"/><path d="M212.6-453.54c-35.43 0-70.87 35.43-70.87 70.87s35.44 70.86 70.87 70.86h194.88c35.43 0 70.87-35.44 70.87-70.87 0-37.03-35.44-70.87-70.87-70.87H212.6z" transform="matrix(0 0 0 0 478.6 291.2)"/><path d="M212.6-453.54c-35.43 0-70.87 35.43-70.87 70.87s35.44 70.86 70.87 70.86h194.88c35.43 0 70.87-35.44 70.87-70.87 0-37.03-35.44-70.87-70.87-70.87H212.6z" transform="matrix(0 0 0 0 479.4 293)"/><path d="M212.6-453.54c-35.43 0-70.87 35.43-70.87 70.87s35.44 70.86 70.87 70.86h194.88c35.43 0 70.87-35.44 70.87-70.87 0-37.03-35.44-70.87-70.87-70.87H212.6z" transform="matrix(0 0 0 0 480.4 295.3)"/><path d="M212.6-453.54c-35.43 0-70.87 35.43-70.87 70.87s35.44 70.86 70.87 70.86h194.88c35.43 0 70.87-35.44 70.87-70.87 0-37.03-35.44-70.87-70.87-70.87H212.6z" transform="matrix(0 0 0 0 481.1 296.8)"/><path d="M212.6-453.54c-35.43 0-70.87 35.43-70.87 70.87s35.44 70.86 70.87 70.86h194.88c35.43 0 70.87-35.44 70.87-70.87 0-37.03-35.44-70.87-70.87-70.87H212.6z" transform="matrix(0 0 0 0 476.3 283.9)"/><path d="M212.6-453.54c-35.43 0-70.87 35.43-70.87 70.87s35.44 70.86 70.87 70.86h194.88c35.43 0 70.87-35.44 70.87-70.87 0-37.03-35.44-70.87-70.87-70.87H212.6z" transform="matrix(0 0 0 0 475.9 285)"/><path d="M212.6-453.54c-35.43 0-70.87 35.43-70.87 70.87s35.44 70.86 70.87 70.86h194.88c35.43 0 70.87-35.44 70.87-70.87 0-37.03-35.44-70.87-70.87-70.87H212.6z" transform="matrix(0 0 0 0 476.9 287.2)"/><path d="M212.6-453.54c-35.43 0-70.87 35.43-70.87 70.87s35.44 70.86 70.87 70.86h194.88c35.43 0 70.87-35.44 70.87-70.87 0-37.03-35.44-70.87-70.87-70.87H212.6z" transform="matrix(0 0 0 0 477.6 289)"/><path d="M212.6-453.54c-35.43 0-70.87 35.43-70.87 70.87s35.44 70.86 70.87 70.86h194.88c35.43 0 70.87-35.44 70.87-70.87 0-37.03-35.44-70.87-70.87-70.87H212.6z" transform="matrix(0 0 0 0 470.4 258.9)"/><path d="M212.6-453.54c-35.43 0-70.87 35.43-70.87 70.87s35.44 70.86 70.87 70.86h194.88c35.43 0 70.87-35.44 70.87-70.87 0-37.03-35.44-70.87-70.87-70.87H212.6z" transform="matrix(0 0 0 0 470.2 260.4)"/><path d="M212.6-453.54c-35.43 0-70.87 35.43-70.87 70.87s35.44 70.86 70.87 70.86h194.88c35.43 0 70.87-35.44 70.87-70.87 0-37.03-35.44-70.87-70.87-70.87H212.6z" transform="matrix(0 0 0 0 470.6 262.3)"/><path d="M212.6-453.54c-35.43 0-70.87 35.43-70.87 70.87s35.44 70.86 70.87 70.86h194.88c35.43 0 70.87-35.44 70.87-70.87 0-37.03-35.44-70.87-70.87-70.87H212.6z" transform="matrix(0 0 0 0 470.1 252.3)"/><path d="M212.6-453.54c-35.43 0-70.87 35.43-70.87 70.87s35.44 70.86 70.87 70.86h194.88c35.43 0 70.87-35.44 70.87-70.87 0-37.03-35.44-70.87-70.87-70.87H212.6z" transform="matrix(0 0 0 0 470.2 254.6)"/><path d="M212.6-453.54c-35.43 0-70.87 35.43-70.87 70.87s35.44 70.86 70.87 70.86h194.88c35.43 0 70.87-35.44 70.87-70.87 0-37.03-35.44-70.87-70.87-70.87H212.6z" transform="matrix(0 0 0 0 470.3 256.5)"/><path d="M212.6-453.54c-35.43 0-70.87 35.43-70.87 70.87s35.44 70.86 70.87 70.86h194.88c35.43 0 70.87-35.44 70.87-70.87 0-37.03-35.44-70.87-70.87-70.87H212.6z" transform="matrix(0 0 0 0 471.1 264.7)"/><path d="M212.6-453.54c-35.43 0-70.87 35.43-70.87 70.87s35.44 70.86 70.87 70.86h194.88c35.43 0 70.87-35.44 70.87-70.87 0-37.03-35.44-70.87-70.87-70.87H212.6z" transform="matrix(0 0 0 0 471.6 266)"/><path d="M212.6-453.54c-35.43 0-70.87 35.43-70.87 70.87s35.44 70.86 70.87 70.86h194.88c35.43 0 70.87-35.44 70.87-70.87 0-37.03-35.44-70.87-70.87-70.87H212.6z" transform="matrix(0 0 0 0 472.2 268.4)"/></g><path d="M344.54-596.3l9.15 22.15s1.45-9.77 8.52-11.53l7.07-1.77s26.85 49.33 32.16 58.17c5.3 8.83-3.54 16.8-1.77 16.8 1.76 0 26.5-11.5 26.5-11.5s-10.6.88-15.02-6.2-34.82-59.92-34.82-59.92 6.2-2.65 11.5-5.3c5.3-2.66 10.6 7.95 10.6 7.95l-13.26-26.52s0 8.84-4.42 10.6c-4.42 1.78-7.96 3.54-7.96 3.54s-3.53-6.18-7.95-13.25c-4.42-7.08 4.42-14.15 4.42-14.15l-23 11.5s7.96 4.4 10.62 8.83l5.3 8.84s-3.22 1.77-8.22 3.48c-3.58 1.88-7.7.06-9.46-1.7z" transform="matrix(-.2 0 0 .2 536 340.5)" stroke="#000" stroke-width="1.2" fill="#fff133"/><g transform="matrix(.1 0 0 .1 423.6 295.3)"><path fill="silver" d="M324.55-255.37l-50.12 50.1 175.4 175.4 50.1-50.1z"/><ellipse rx="35.43" ry="35.43" stroke="#000" transform="rotate(135 457.5 73.7)" cy="-1428" cx="354.33" stroke-width="1.2" fill="#fff133"/><path d="M-402.05-956.9l37.6 37.57-25.07 25.06-37.58-37.6c-12.53-12.5 12.53-37.57 25.05-25.04z" stroke="#000" stroke-width="1.2" fill="silver"/><path d="M-346.6-926.53l-50.12 50.1c-13.8 0-25.35-11.54-25.05-25.05 10.88-25.87 25.03-38.43 50.1-50.1 12.5.72 24.23 10.9 25.06 25.05z" stroke="#000" stroke-width="1.2" fill="#fff133"/><path d="M-351.93-931.85l37.6 37.58-50.12 50.1-37.6-37.57c5.04-20.03 30.1-45.08 50.12-50.1z" stroke="#000" stroke-width="1.2" fill="silver"/><path d="M-309.03-888.95l-50.1 50.1c-13.8 0-25.36-11.54-25.06-25.05 10.9-25.87 25.04-38.43 50.12-50.1 12.48.72 24.22 10.9 25.05 25.05z" stroke="#000" stroke-width="1.2" fill="#fff133"/><path d="M-314.36-894.28l342.8 342.8-50.1 50.1-342.8-342.8c5.02-20.02 30.08-45.07 50.1-50.1z" stroke="#000" stroke-width="1.2" fill="silver"/><path d="M48.93-530.97l-50.1 50.1c-13.8 0-25.36-11.54-25.06-25.05 10.88-25.87 25.03-38.43 50.1-50.1 12.5.72 24.23 10.9 25.06 25.05z" stroke="#000" stroke-width="1.2" fill="#fff133"/><path d="M48.94-530.98l225.5 225.5-50.1 50.1-225.5-225.5c5.02-20 30.08-45.07 50.1-50.1z" stroke="#000" stroke-width="1.2" fill="silver"/><path d="M186.74-418.23l-75.16 75.16c-13.8 0-25.35-11.55-25.06-25.05 0 0 0-25.05 25.06-50.1s50.1-25.07 50.1-25.07c11.65 1.58 21.42 12.54 25.06 25.07z" stroke="#000" stroke-width="1.2" fill="silver"/><path d="M186.74-418.23l50.1 75.16-50.1 50.1-75.16-50.1c-2.83-2.44 0-25.05 25.05-50.1s48.98-24.46 50.1-25.06z" stroke="#000" stroke-width="1.2" fill="silver"/><path d="M336.6-506.7c0-35.42 0-86.64 17.73-129.97 17.7 43.33 17.7 94.55 17.7 129.98h-35.42z" transform="matrix(-.7 .7 .6 .6 755.4 -275.6)" stroke="#000" stroke-width="1.2" fill="silver"/><path d="M318.9-506.7h17.72V-550c0-43.32-35.44-65-35.44-65l17.72 108.33z" transform="matrix(.7 -.7 .6 .6 254.3 225.6)" stroke="#000" stroke-width="1.2" fill="silver"/><path d="M318.9-506.7h17.72V-550c0-43.32-35.44-65-35.44-65l17.72 108.33z" transform="matrix(-.7 .7 .6 .6 755.4 -275.6)" stroke="#000" stroke-width="1.2" fill="silver"/><path d="M-314.36-894.28l37.6 37.58c25.04 25.06 112.73 137.8 112.73 137.8s117.3 92.25 142.36 117.3L15.9-564c-25.05-25.06-179.93-129.84-179.93-129.84S-71.78-551.48-34.2-513.9l-37.58-37.58c-25.06-25.05-117.3-142.36-117.3-142.36S-289.3-769-314.36-794.07l-50.1-50.1C-339.43-819.13-189.1-718.9-189.1-718.9s-100.2-150.33-125.26-175.4z" stroke="#000" stroke-width="1.2" fill="#fff133"/><path d="M299.5-230.32c50.1 75.17 100.2 125.28 112.74 137.8 23.77 23.82 50.1 25.06 50.1 25.06s0-25.06-25.05-50.1c-12.53-12.54-62.65-62.65-137.8-112.76zm-62.65-112.75c87.7 87.7 187.92 137.8 250.55 200.44 50.1 50.12 15.42 88.47 1.45 100.6-13.97 12.15-51.97 50.3-101.67-.37-62.63-62.64-112.74-162.86-200.44-250.56 0-25.05 25.06-50.1 50.1-50.1z" stroke="#000" stroke-width="1.2" fill="silver"/><path transform="matrix(-1.2 -1.4 -1.4 1.3 1166.1 -102.6)" stroke="#000" stroke-width="1.2" fill="silver" d="M218.28 257.88h22.93v73.04H218.3z"/><g stroke="#000" fill="silver"><path d="M301.18 396.85l17.72 17.72-17.72 17.7 8.86 8.87 17.7-17.7 35.45 35.42-17.73 17.7 8.86 8.87 17.72-17.7 17.7 17.7-53.14 53.15-35.42-35.43 17.72-17.72 8.86 8.86 8.85-8.87L301.2 450l-8.86 8.86 8.86 8.86-17.72 17.7-17.7-17.7 8.85-8.86-8.85-8.86-35.44 35.43 8.87 8.86 8.86-8.87 17.72 17.72-17.72 17.72-8.86-8.86-8.86 8.87 35.45 35.43 8.86-8.86-8.85-8.86 17.7-17.7 35.45 35.42-53.15 53.15-17.72-17.72 17.72-17.7-8.86-8.87-17.73 17.7-35.43-35.42 17.72-17.72-8.86-8.85-17.72 17.7-17.72-17.7 124.02-124.02z" transform="matrix(-2.3 0 0 2.2 360.6 -1733.7)" stroke-width=".56"/><path d="M318.9 786.6v35.44l88.58 88.6v-70.88l-17.7-17.72h-35.45L318.9 786.6z" stroke-width="1.12" transform="matrix(-1.1 0 0 1.1 157.3 -1288.5)"/><path d="M230.4 698.78l70.4 70.38.83 35.2-71.22-71.23v-34.35z" transform="matrix(-1.1 0 0 1.1 157.4 -1288.5)" stroke-width="1.12"/><path d="M-174-403.74l-38.97-38.97v-39l38.97 39v38.96z" stroke-width="1.2320000000000002"/><path d="M301.18 804.33l35.43-35.43v-35.44L301.2 768.9v35.43z" transform="matrix(-1.1 0 0 1.1 258.9 -1387.9)" stroke-width="1.12"/><path d="M-115.53-579.13v38.97l-19.5-19.48 19.5-19.5z" stroke-width="1.2320000000000002"/><path d="M248.03 644.88v35.43l17.72-17.7-17.72-17.72z" transform="matrix(-1.1 0 0 1.1 55.7 -1189.1)" stroke-width="1.12"/><path d="M230.4 698.78l35.8 35.43v35.45l-35.8-36.52v-34.35z" transform="matrix(-1.1 0 0 1.1 218.8 -1349)" stroke-width="1.12"/><path d="M301.18 804.33l35.43-35.43v-35.44L301.2 768.9v35.43z" transform="matrix(-1.1 0 0 1.1 55.7 -1507.1)" stroke-width="1.12"/><path d="M301.18 804.33l35.43-35.43v-35.44L301.2 768.9v35.43z" transform="matrix(-1.1 0 0 1.1 137 -1427.6)" stroke-width="1.12"/><path d="M283.46 822.05l53.15-53.15v-35.43l-70.86 70.86 17.72 17.72z" transform="matrix(-1.1 0 0 1.1 137 -1546.9)" stroke-width="1.12"/><path d="M248.03 644.88v35.43l17.72-17.7-17.72-17.72z" transform="matrix(-1.1 0 0 1.1 35.4 -1447.5)" stroke-width="1.12"/><path d="M301.18 804.33l-35.43-35.43v-35.44l35.43 35.44v35.43z" transform="matrix(-1.1 0 0 1.1 55.7 -1507.1)" stroke-width="1.12"/><path d="M389.76 822.05L336.6 768.9v-35.43l70.88 70.86-17.72 17.72z" transform="matrix(-1.1 0 0 1.1 55.7 -1546.9)" stroke-width="1.12"/><path d="M230.4 698.05l70.88 70.87h35.43l17.73 17.7v70.88L230.4 733.13v-35.08z" transform="matrix(-1.1 0 0 1.1 -66.2 -1387.9)" stroke-width="1.12"/><path d="M-232.46-384.25L-349.4-501.18h-38.97l116.93 116.94h38.98z" stroke-width="1.2320000000000002"/><path d="M-290.93-364.76L-407.86-481.7l19.5-19.47 116.92 116.93-19.5 19.48z" stroke-width="1.2320000000000002"/><path d="M407.48 839.76v70.87l106.3-106.3v-70.87l-106.3 106.3z" transform="matrix(-1.1 0 0 1.1 157.3 -1288.5)" stroke-width="1.12"/><path d="M354.33 822.05l106.3-106.3h35.43l-106.3 106.3h-35.43zM407.48 839.76l106.3-106.3-17.72-17.7-106.3 106.3 17.72 17.7z" transform="matrix(-1.1 0 0 1.1 -5.3 -1447.5)" stroke-width="1.12"/><path d="M407.48 839.76v70.87l106.3-106.3v-70.87l-106.3 106.3z" transform="matrix(-1.1 0 0 1.1 -5.3 -1447.5)" stroke-width="1.12"/><path d="M318.9 786.62l17.72-17.72v-35.43l-35.44 35.43 17.72 17.72z" transform="matrix(-1.1 0 0 1.1 -86.6 -1527)" stroke-width="1.12"/><path d="M318.9 786.62l17.72-17.72v-35.43l-35.44 35.43 17.72 17.72z" transform="matrix(-1.1 0 0 1.1 15 -1626.4)" stroke-width="1.12"/><path d="M265.75 768.9v-35.43l17.72 17.7-17.72 17.73z" transform="matrix(-1.1 0 0 1.1 55.7 -1348.1)" stroke-width="1.12"/><path d="M301.18 804.33l-35.43-35.43 17.7-17.72 17.73 17.72v35.43z" transform="matrix(-1.1 0 0 1.1 137 -1427.6)" stroke-width="1.12"/><path d="M301.18 804.33l-17.72-17.72 17.72-17.7v35.43z" transform="matrix(-1.1 0 0 1.1 15 -1586.6)" stroke-width="1.12"/></g><path transform="matrix(-1.3 -1.4 -1.4 1.3 1166.1 -102.6)" stroke="#000" stroke-width="1.2" fill="#fff133" d="M196.5 254.15h25.2v80.26h-25.2z"/><path d="M336.6 166.54c0 14.67 35.44 35.43 35.44-17.72H336.6v17.72z" transform="matrix(-1.9 0 0 1.9 1166.1 -102.6)" stroke="#000" stroke-width="1.2" fill="silver"/><path d="M242.1 24.8c-147.06 0-113.13 164.24-100.37 124.02 9.36-29.5 35.43-70.86 64.94-80.22 40.22-12.76 26.7 9.36 41.36 9.36 14.67 0 1.14-22.12 41.36-9.36 29.5 9.36 55.57 50.72 64.93 80.22C367.1 189.05 407.48 24.8 242.1 24.8z" transform="matrix(-1.9 0 0 1.9 1166.1 -102.6)" stroke="#000" stroke-width="1.2" fill="silver"/><path d="M389.76 166.54c0 78.24-63.5 141.73-141.73 141.73-78.24 0-141.73-63.5-141.73-141.73v-17.72c0-29.1 35.43 124.02 141.73 124.02s141.73-124.77 141.73-124.02v17.72z" transform="matrix(-1.9 0 0 1.9 1166.1 -102.6)" stroke="#000" stroke-width="1.2" fill="silver"/><path d="M336.6 166.54c0 14.67 35.44 35.43 35.44-17.72H336.6v17.72z" transform="matrix(1.9 0 0 1.9 224 -100.5)" stroke="#000" stroke-width="1.2" fill="silver"/><path d="M389.76 148.82c0 78.24-63.5 141.73-141.73 141.73-78.24 0-141.73-63.5-141.73-141.73C106.3 70.58 169.8 7.1 248.03 7.1c78.24 0 141.73 63.5 141.73 141.72zm-53.15 0c0 14.67 22.82 3.04 9.37 43.04-9.36 27.83-27.08 45.54-56.58 54.9-40.23 12.76-26.7-9.36-41.37-9.36-14.67 0-1.14 22.12-41.37 9.36-29.5-9.36-47.22-27.07-56.57-56.58-12.77-40.22 9.34-26.7 9.34-41.36 0-14.67-22.1-1.14-9.35-41.36 9.34-29.5 27.06-47.22 56.56-56.58 40.23-12.76 26.7 9.36 41.37 9.36 14.67 0 1.14-22.12 41.36-9.36 29.5 9.36 47.2 27.07 56.57 56.58 12.76 40.22-9.36 26.7-9.36 41.36z" transform="matrix(-1.9 0 0 1.9 1166.1 -102.6)" stroke="#000" stroke-width="1.2" fill="silver"/><path d="M126.55 157.68c-20.25 0-1.93 67.6-9.1 51.7s-11.15-33.36-11.15-51.7 3.97-35.8 11.15-51.7c7.17-15.9-11.15 51.7 9.1 51.7z" transform="matrix(-1.7 0 0 1.8 1107.2 -99.5)" stroke="#000" stroke-width="1.2" fill="silver"/><path d="M372.05 139.96c0 15.9-2.13 31.63-9.75 44.8-7.97 13.8 9.75-44.8-7.97-44.8 17.72 0 1.7-58.6 7.97-44.8 6.28 13.77 9.75 28.9 9.75 44.8z" transform="matrix(-1.9 0 0 2 1166.1 -106.2)" stroke="#000" stroke-width="1.2" fill="silver"/><path d="M296.3 263.08c-14.85 6.28-31.15 9.75-48.27 9.75s-33.42-3.47-48.25-9.75c-14.84-6.28 48.25 9.75 48.25-7.97 0 17.73 63.1 1.7 48.26 7.98zM248.03 42.52c0-17.72-63.1-1.7-48.26-7.97s31.15-9.75 48.26-9.75 33.42 3.48 48.26 9.75c14.82 6.28-48.27-9.75-48.27 7.97z" transform="matrix(-1.9 0 0 1.9 1166.1 -102.6)" stroke="#000" stroke-width="1.2" fill="silver"/><ellipse rx="18.43" ry="20.11" stroke="#000" transform="matrix(-1.3 -1.4 -1.4 1.3 1257.6 -120)" cy="160.86" cx="82.11" stroke-width="1.2" fill="#fff133"/><path d="M276.58 287.67c-9.22 1.9-18.77 2.88-28.55 2.88s-19.33-1-28.56-2.88l-1.43 6.96c9.7 2 19.72 3.03 30 3.03s20.3-1.04 29.97-3.03l-1.42-6.96z" transform="matrix(-1.3 -1.4 1.4 -1.3 808.9 712)" stroke="#000" stroke-width="1.2" fill="#fff133"/><path d="M276.58 287.67c-9.22 1.9-18.77 2.88-28.55 2.88s-19.33-1-28.56-2.88l-1.43 6.96c9.7 2 19.72 3.03 30 3.03s20.3-1.04 29.97-3.03l-1.42-6.96z" transform="matrix(-1.3 -1.4 -1.4 1.3 1223.2 329.9)" stroke="#000" stroke-width="1.2" fill="#fff133"/><path d="M267.7 308.5c-9.22 1.9-20.2.94-29.97.94-9.78 0-19.28-2.6-28.5-4.5l8.8-10.3c9.7 1.98 19.73 3.02 30 3.02s20.3-1.04 29.98-3.03l-10.3 13.88z" transform="matrix(-1.3 -1.4 -1.4 1.3 1223.2 329.9)" stroke="#000" stroke-width="1.2" fill="#fff133"/><path d="M276.58 287.67c-9.22 1.9-18.77 2.88-28.55 2.88s-19.33-1-28.56-2.88l-1.43 6.96c9.7 2 19.72 3.03 30 3.03s20.3-1.04 29.97-3.03l-1.42-6.96z" transform="matrix(-1.4 1.3 1.3 1.4 847.4 -345.2)" stroke="#000" stroke-width="1.2" fill="#fff133"/><ellipse rx="18.43" ry="20.11" stroke="#000" transform="matrix(-1.3 -1.4 -1.4 1.3 789.1 314.4)" cy="160.86" cx="82.11" stroke-width="1.2" fill="#fff133"/><path d="M267.6 281.47c-9.23 1.9-17.1 2.94-26.9 2.94s-23.1-.7-32.32-2.6l9.67 12.83c9.68 2 19.7 3.03 29.98 3.03s20.3-1.04 30-3.03l-10.44-13.16z" transform="matrix(-1.4 1.3 1.3 1.4 850.6 -315.2)" stroke="#000" stroke-width="1.2" fill="#fff133"/><path d="M173.94 271.77l-.84 14.84-3.24 4.5.98-15.08 3.1-4.25zM330.54 265.6l3.56 4.2 1.05 13.6-2.93-2.93-1.68-14.87z" transform="matrix(-1.9 0 0 1.9 1166.1 -102.6)" stroke="#000" stroke-width="1.2" fill="#fff133"/><ellipse rx="18.43" ry="20.11" stroke="#000" transform="matrix(-1.3 -1.4 -1.4 1.3 1237.6 329.9)" cy="160.86" cx="82.11" stroke-width="1.2" fill="#fff133"/></g><path d="M513.78-790.16l35.43-17.7 35.44 17.7s-73.36 35.43-73.36 159.45c0 88.57 125.26 106.3 125.26 212.6 0 45.64-34.18 88.57-69.62 88.57s-88.58-17.7-141.73-70.86c35.43 17.72 76.07 37.3 106.3 36.06 19.58-.4 55.02-17.7 55.02-53.15 0-70.85-122.77-106.9-122.77-213.2 0-124.02 50.02-159.45 50.02-159.45z" transform="matrix(-.2 0 0 .2 534.1 334.4)" stroke="#000" stroke-width="1.2" fill="#fff"/><path d="M520.25-790.16l46.68-17.72 10 17.72s-70.65 35.43-70.65 159.45c0 88.57 125.9 106.3 125.9 212.6 0 45.64-26.72 87.35-65.25 88.57-73.4 2.36-90.45-23.96-141.73-70.86 43.15 32.3 105 46.76 129.02 34.2 29.36-15.38 35.03-36.07 35.03-53.8 0-70.85-120.9-104.4-120.9-210.7 0-124.02 51.9-159.45 51.9-159.45z" transform="matrix(-.2 0 0 .2 534.1 334.4)" stroke="#000" stroke-width="1.2" fill="#fff"/><path d="M513.34-789.7c7-2.43 35.88-18.18 71.3 17.26 17.73 17.72 17.72 53.15 17.72 70.86l53.15-53.15s-29.05-86.87-107.6-53.6c-11.13 4.9-28.14 14.55-34.55 18.64z" transform="matrix(-.2 0 0 .2 534.1 334.4)" stroke="#000" stroke-width="1.2" fill="#fff"/><path d="M523.8-795.94c8.84-2.87 36.68-6.33 64.6 18.5 17.7 17.72 18.96 42.93 18.96 60.65L648-754.7c3.45-3.2-24.82-81.25-99.23-54.04-4.5 1.8-14.78 6.3-24.97 12.82z" transform="matrix(-.2 0 0 .2 534.1 334.4)" stroke="#000" stroke-width="1.2" fill="#fff"/><path d="M344.54-596.3l9.15 22.15s1.45-9.77 8.52-11.53l7.07-1.77s26.85 49.33 32.16 58.17c5.3 8.83-3.54 16.8-1.77 16.8 1.76 0 26.5-11.5 26.5-11.5s-10.6.88-15.02-6.2-34.82-59.92-34.82-59.92 6.2-2.65 11.5-5.3c5.3-2.66 10.6 7.95 10.6 7.95l-13.26-26.52s0 8.84-4.42 10.6c-4.42 1.78-7.96 3.54-7.96 3.54s-3.53-6.18-7.95-13.25c-4.42-7.08 4.42-14.15 4.42-14.15l-23 11.5s7.96 4.4 10.62 8.83l5.3 8.84s-3.22 1.77-8.22 3.48c-3.58 1.88-7.7.06-9.46-1.7z" transform="matrix(-.2 0 -.1 .2 439.6 337.1)" stroke="#000" stroke-width="1.2" fill="#fff133"/><path d="M344.54-596.3l9.15 22.15s1.45-9.77 8.52-11.53l7.07-1.77s26.85 49.33 32.16 58.17c5.3 8.83-3.54 16.8-1.77 16.8 1.76 0 26.5-11.5 26.5-11.5s-10.6.88-15.02-6.2-34.82-59.92-34.82-59.92 6.2-2.65 11.5-5.3c5.3-2.66 10.6 7.95 10.6 7.95l-13.26-26.52s0 8.84-4.42 10.6c-4.42 1.78-7.96 3.54-7.96 3.54s-3.53-6.18-7.95-13.25c-4.42-7.08 4.42-14.15 4.42-14.15l-23 11.5s7.96 4.4 10.62 8.83l5.3 8.84s-3.22 1.77-8.22 3.48c-3.58 1.88-7.7.06-9.46-1.7z" transform="matrix(.2 0 0 -.1 320.6 95.2)" stroke="#000" stroke-width="1.2" fill="#fff133"/><g transform="matrix(.1 0 0 .1 423.6 295.3)"><g transform="rotate(45 478.1 -504.6)"><ellipse rx="35.43" ry="35.43" stroke="#000" transform="translate(124 283.5)" cy="-1428" cx="354.33" stroke-width="1.2" fill="silver"/><path d="M460.63-1126.77v53.15h35.43v-53.15c0-17.72-35.43-17.72-35.43 0z" stroke="#000" stroke-width="1.2" fill="#fff133"/><path d="M442.9-1066.1h70.88c9.75-9.75 9.75-26.1 0-35.42-26-10.6-44.88-9.48-70.87 0-8.3 9.34-9.4 24.82 0 35.43z" stroke="#000" stroke-width="1.2" fill="silver"/><path d="M442.9-1073.62v53.15h70.88v-53.15c-17.72-10.6-53.15-10.6-70.87 0z" stroke="#000" stroke-width="1.2" fill="#fff133"/><path d="M442.9-1012.94h70.88c9.75-9.76 9.75-26.1 0-35.43-26-10.6-44.88-9.48-70.87 0-8.3 9.33-9.4 24.82 0 35.43z" stroke="#000" stroke-width="1.2" fill="silver"/><path fill="#fff133" d="M442.9-116.93h70.88V131.1H442.9z"/><path d="M442.9-1020.48l.02 484.8h70.86v-484.8c-17.72-10.6-53.15-10.6-70.87 0z" stroke="#000" stroke-width="1.2" fill="#fff133"/><path d="M442.92-506.7h70.87c9.74-9.75 9.74-26.1 0-35.43-26-10.6-44.9-9.48-70.88 0-8.3 9.34-9.42 24.83 0 35.43z" stroke="#000" stroke-width="1.2" fill="silver"/><path d="M442.92-506.7v318.9h70.87v-318.9c-17.73-10.6-53.16-10.6-70.88 0z" stroke="#000" stroke-width="1.2" fill="#fff133"/><path d="M425.2-329.53h106.3c9.75-9.76 9.75-26.1 0-35.43 0 0-17.73-17.72-53.16-17.72s-53.15 17.72-53.15 17.72c-7.13 9.34-6.3 24 0 35.43z" stroke="#000" stroke-width="1.2" fill="#fff133"/><path d="M425.2-329.53l17.7 88.58h70.87l17.72-88.58c.26-3.73-17.73-17.72-53.16-17.72s-51.93 17.35-53.15 17.72z" stroke="#000" stroke-width="1.2" fill="#fff133"/><path d="M336.6-506.7c0-35.42 0-86.64 17.73-129.97 17.7 43.33 17.7 94.55 17.7 129.98h-35.42z" transform="matrix(1 0 0 .8 124 173.4)" stroke="#000" stroke-width="1.2" fill="#fff133"/><path d="M318.9-506.7h17.72V-550c0-43.32-35.44-65-35.44-65l17.72 108.33z" transform="matrix(-1 0 0 .8 832.7 173.4)" stroke="#000" stroke-width="1.2" fill="#fff133"/><path d="M318.9-506.7h17.72V-550c0-43.32-35.44-65-35.44-65l17.72 108.33z" transform="matrix(1 0 0 .8 124 173.4)" stroke="#000" stroke-width="1.2" fill="#fff133"/><path d="M478.34-116.93c17.72 88.58 17.72 159.45 17.72 177.16.03 33.65-17.72 53.15-17.72 53.15s-17.72-17.72-17.72-53.15c0-17.72 0-88.58 17.72-177.16zM442.9-240.95c0 124.02-35.43 230.32-35.43 318.9 0 70.87 51.66 73.45 70.12 72.16 18.46-1.28 72.3-1.18 71.6-72.15 0-88.58-35.43-194.88-35.43-318.9-17.7-17.72-53.15-17.72-70.86 0z" stroke="#000" stroke-width="1.2" fill="#fff133"/><path d="M442.9-1020.48v53.15c0 35.44 17.73 177.16 17.73 177.16s-17.7 148.17-17.7 183.6v53.16c0-35.44 35.4-219.05 35.4-219.05s35.45 165.9 35.45 219.04v-53.16c0-35.43-17.7-183.6-17.72-183.6 0 0 17.72-124.03 17.72-159.46v-70.86c0 35.43-35.43 212.6-35.43 212.6s-35.44-177.17-35.44-212.6z" stroke="#000" stroke-width="1.2" fill="silver"/></g><path transform="matrix(1.2 -1.4 1.4 1.3 -662.5 -102.6)" stroke="#000" stroke-width="1.2" fill="#fff133" d="M218.28 257.88h22.93v73.04H218.3z"/><path d="M336.6 166.54c0 14.67 35.44 35.43 35.44-17.72H336.6v17.72z" transform="matrix(1.9 0 0 1.9 -662.5 -102.6)" stroke="#000" stroke-width="1.2" fill="#fff133"/><path d="M242.1 24.8c-147.06 0-113.13 164.24-100.37 124.02 9.36-29.5 35.43-70.86 64.94-80.22 40.22-12.76 26.7 9.36 41.36 9.36 14.67 0 1.14-22.12 41.36-9.36 29.5 9.36 55.57 50.72 64.93 80.22C367.1 189.05 407.48 24.8 242.1 24.8z" transform="matrix(1.9 0 0 1.9 -662.5 -102.6)" stroke="#000" stroke-width="1.2" fill="#fff133"/><path d="M389.76 166.54c0 78.24-63.5 141.73-141.73 141.73-78.24 0-141.73-63.5-141.73-141.73v-17.72c0-29.1 35.43 124.02 141.73 124.02s141.73-124.77 141.73-124.02v17.72z" transform="matrix(1.9 0 0 1.9 -662.5 -102.6)" stroke="#000" stroke-width="1.2" fill="#fff133"/><ellipse rx="18.43" ry="20.11" stroke="#000" transform="matrix(1.3 -1.4 1.4 1.3 -753.9 -120)" cy="160.86" cx="82.11" stroke-width="1.2" fill="silver"/><path transform="matrix(1.3 -1.4 1.4 1.3 -662.5 -102.6)" stroke="#000" stroke-width="1.2" fill="silver" d="M196.5 254.15h25.2v80.26h-25.2z"/><path d="M336.6 166.54c0 14.67 35.44 35.43 35.44-17.72H336.6v17.72z" transform="matrix(-1.9 0 0 1.9 279.7 -100.5)" stroke="#000" stroke-width="1.2" fill="#fff133"/><path d="M389.76 148.82c0 78.24-63.5 141.73-141.73 141.73-78.24 0-141.73-63.5-141.73-141.73C106.3 70.58 169.8 7.1 248.03 7.1c78.24 0 141.73 63.5 141.73 141.72zm-53.15 0c0 14.67 22.82 3.04 9.37 43.04-9.36 27.83-27.08 45.54-56.58 54.9-40.23 12.76-26.7-9.36-41.37-9.36-14.67 0-1.14 22.12-41.37 9.36-29.5-9.36-47.22-27.07-56.57-56.58-12.77-40.22 9.34-26.7 9.34-41.36 0-14.67-22.1-1.14-9.35-41.36 9.34-29.5 27.06-47.22 56.56-56.58 40.23-12.76 26.7 9.36 41.37 9.36 14.67 0 1.14-22.12 41.36-9.36 29.5 9.36 47.2 27.07 56.57 56.58 12.76 40.22-9.36 26.7-9.36 41.36z" transform="matrix(1.9 0 0 1.9 -662.5 -102.6)" stroke="#000" stroke-width="1.2" fill="#fff133"/><path d="M126.55 157.68c-20.25 0-1.93 67.6-9.1 51.7s-11.15-33.36-11.15-51.7 3.97-35.8 11.15-51.7c7.17-15.9-11.15 51.7 9.1 51.7z" transform="matrix(1.7 0 0 1.8 -603.6 -99.5)" stroke="#000" stroke-width="1.2" fill="#fff133"/><path d="M372.05 139.96c0 15.9-2.13 31.63-9.75 44.8-7.97 13.8 9.75-44.8-7.97-44.8 17.72 0 1.7-58.6 7.97-44.8 6.28 13.77 9.75 28.9 9.75 44.8z" transform="matrix(1.9 0 0 2 -662.5 -106.2)" stroke="#000" stroke-width="1.2" fill="#fff133"/><path d="M296.3 263.08c-14.85 6.28-31.15 9.75-48.27 9.75s-33.42-3.47-48.25-9.75c-14.84-6.28 48.25 9.75 48.25-7.97 0 17.73 63.1 1.7 48.26 7.98zM248.03 42.52c0-17.72-63.1-1.7-48.26-7.97s31.15-9.75 48.26-9.75 33.42 3.48 48.26 9.75c14.82 6.28-48.27-9.75-48.27 7.97z" transform="matrix(1.9 0 0 1.9 -662.5 -102.6)" stroke="#000" stroke-width="1.2" fill="#fff133"/><path d="M276.58 287.67c-9.22 1.9-18.77 2.88-28.55 2.88s-19.33-1-28.56-2.88l-1.43 6.96c9.7 2 19.72 3.03 30 3.03s20.3-1.04 29.97-3.03l-1.42-6.96z" transform="matrix(1.3 -1.4 -1.4 -1.3 -305.2 712)" stroke="#000" stroke-width="1.2" fill="silver"/><path d="M276.58 287.67c-9.22 1.9-18.77 2.88-28.55 2.88s-19.33-1-28.56-2.88l-1.43 6.96c9.7 2 19.72 3.03 30 3.03s20.3-1.04 29.97-3.03l-1.42-6.96z" transform="matrix(1.3 -1.4 1.4 1.3 -719.6 329.9)" stroke="#000" stroke-width="1.2" fill="silver"/><path d="M267.7 308.5c-9.22 1.9-20.2.94-29.97.94-9.78 0-19.28-2.6-28.5-4.5l8.8-10.3c9.7 1.98 19.73 3.02 30 3.02s20.3-1.04 29.98-3.03l-10.3 13.88z" transform="matrix(1.3 -1.4 1.4 1.3 -719.6 329.9)" stroke="#000" stroke-width="1.2" fill="silver"/><path d="M276.58 287.67c-9.22 1.9-18.77 2.88-28.55 2.88s-19.33-1-28.56-2.88l-1.43 6.96c9.7 2 19.72 3.03 30 3.03s20.3-1.04 29.97-3.03l-1.42-6.96z" transform="matrix(1.4 1.3 -1.3 1.4 -343.8 -345.2)" stroke="#000" stroke-width="1.2" fill="silver"/><ellipse rx="18.43" ry="20.11" stroke="#000" transform="matrix(1.3 -1.4 1.4 1.3 -285.5 314.4)" cy="160.86" cx="82.11" stroke-width="1.2" fill="silver"/><path d="M267.6 281.47c-9.23 1.9-17.1 2.94-26.9 2.94s-23.1-.7-32.32-2.6l9.67 12.83c9.68 2 19.7 3.03 29.98 3.03s20.3-1.04 30-3.03l-10.44-13.16z" transform="matrix(1.4 1.3 -1.3 1.4 -347 -315.2)" stroke="#000" stroke-width="1.2" fill="silver"/><path d="M173.94 271.77l-.84 14.84-3.24 4.5.98-15.08 3.1-4.25zM330.54 265.6l3.56 4.2 1.05 13.6-2.93-2.93-1.68-14.87z" transform="matrix(1.9 0 0 1.9 -662.5 -102.6)" stroke="#000" stroke-width="1.2" fill="silver"/><ellipse rx="18.43" ry="20.11" stroke="#000" transform="matrix(1.3 -1.4 1.4 1.3 -733.9 329.9)" cy="160.86" cx="82.11" stroke-width="1.2" fill="silver"/><g stroke="#000" fill="#fff133"><path d="M301.18 396.85l17.72 17.72-17.72 17.7 8.86 8.87 17.7-17.7 35.45 35.42-17.73 17.7 8.86 8.87 17.72-17.7 17.7 17.7-53.14 53.15-35.42-35.43 17.72-17.72 8.86 8.86 8.85-8.87L301.2 450l-8.86 8.86 8.86 8.86-17.72 17.7-17.7-17.7 8.85-8.86-8.85-8.86-35.44 35.43 8.87 8.86 8.86-8.87 17.72 17.72-17.72 17.72-8.86-8.86-8.86 8.87 35.45 35.43 8.86-8.86-8.85-8.86 17.7-17.7 35.45 35.42-53.15 53.15-17.72-17.72 17.72-17.7-8.86-8.87-17.73 17.7-35.43-35.42 17.72-17.72-8.86-8.85-17.72 17.7-17.72-17.7 124.02-124.02z" transform="matrix(2.3 0 0 2.2 143.1 -1733.7)" stroke-width=".56"/><path d="M318.9 786.6v35.44l88.58 88.6v-70.88l-17.7-17.72h-35.45L318.9 786.6z" stroke-width="1.12" transform="matrix(1.1 0 0 1.1 346.4 -1288.5)"/><path d="M230.4 698.78l70.4 70.38.83 35.2-71.22-71.23v-34.35z" transform="matrix(1.1 0 0 1.1 346.3 -1288.5)" stroke-width="1.12"/><path d="M677.7-403.74l38.97-38.97v-39l-38.97 39v38.96z" stroke-width="1.2320000000000002"/><path d="M301.18 804.33l35.43-35.43v-35.44L301.2 768.9v35.43z" transform="matrix(1.1 0 0 1.1 244.7 -1387.9)" stroke-width="1.12"/><path d="M619.23-579.13v38.97l19.5-19.48-19.5-19.5z" stroke-width="1.2320000000000002"/><path d="M248.03 644.88v35.43l17.72-17.7-17.72-17.72z" transform="matrix(1.1 0 0 1.1 448 -1189.1)" stroke-width="1.12"/><path d="M230.4 698.78l35.8 35.43v35.45l-35.8-36.52v-34.35z" transform="matrix(1.1 0 0 1.1 284.9 -1349)" stroke-width="1.12"/><path d="M301.18 804.33l35.43-35.43v-35.44L301.2 768.9v35.43z" transform="matrix(1.1 0 0 1.1 448 -1507.1)" stroke-width="1.12"/><path d="M301.18 804.33l35.43-35.43v-35.44L301.2 768.9v35.43z" transform="matrix(1.1 0 0 1.1 366.7 -1427.6)" stroke-width="1.12"/><path d="M283.46 822.05l53.15-53.15v-35.43l-70.86 70.86 17.72 17.72z" transform="matrix(1.1 0 0 1.1 366.7 -1546.9)" stroke-width="1.12"/><path d="M248.03 644.88v35.43l17.72-17.7-17.72-17.72z" transform="matrix(1.1 0 0 1.1 468.3 -1447.5)" stroke-width="1.12"/><path d="M301.18 804.33l-35.43-35.43v-35.44l35.43 35.44v35.43z" transform="matrix(1.1 0 0 1.1 448 -1507.1)" stroke-width="1.12"/><path d="M389.76 822.05L336.6 768.9v-35.43l70.88 70.86-17.72 17.72z" transform="matrix(1.1 0 0 1.1 448 -1546.9)" stroke-width="1.12"/><path d="M230.4 698.05l70.88 70.87h35.43l17.73 17.7v70.88L230.4 733.13v-35.08z" transform="matrix(1.1 0 0 1.1 569.8 -1387.9)" stroke-width="1.12"/><path d="M736.16-384.25L853.1-501.18h38.97L775.14-384.24h-38.98z" stroke-width="1.2320000000000002"/><path d="M794.63-364.76L911.56-481.7l-19.5-19.47-116.92 116.93 19.5 19.48z" stroke-width="1.2320000000000002"/><path d="M407.48 839.76v70.87l106.3-106.3v-70.87l-106.3 106.3z" transform="matrix(1.1 0 0 1.1 346.4 -1288.5)" stroke-width="1.12"/><path d="M354.33 822.05l106.3-106.3h35.43l-106.3 106.3h-35.43zM407.48 839.76l106.3-106.3-17.72-17.7-106.3 106.3 17.72 17.7z" transform="matrix(1.1 0 0 1.1 509 -1447.5)" stroke-width="1.12"/><path d="M407.48 839.76v70.87l106.3-106.3v-70.87l-106.3 106.3z" transform="matrix(1.1 0 0 1.1 509 -1447.5)" stroke-width="1.12"/><path d="M318.9 786.62l17.72-17.72v-35.43l-35.44 35.43 17.72 17.72z" transform="matrix(1.1 0 0 1.1 590.3 -1527)" stroke-width="1.12"/><path d="M318.9 786.62l17.72-17.72v-35.43l-35.44 35.43 17.72 17.72z" transform="matrix(1.1 0 0 1.1 488.6 -1626.4)" stroke-width="1.12"/><path d="M265.75 768.9v-35.43l17.72 17.7-17.72 17.73z" transform="matrix(1.1 0 0 1.1 448 -1348.1)" stroke-width="1.12"/><path d="M301.18 804.33l-35.43-35.43 17.7-17.72 17.73 17.72v35.43z" transform="matrix(1.1 0 0 1.1 366.7 -1427.6)" stroke-width="1.12"/><path d="M301.18 804.33l-17.72-17.72 17.72-17.7v35.43z" transform="matrix(1.1 0 0 1.1 488.6 -1586.6)" stroke-width="1.12"/></g></g><g stroke="#000" stroke-width="17.96" fill="#b00"><path d="M212.6-453.54c-35.43 0-70.87 35.43-70.87 70.87s35.44 70.86 70.87 70.86h194.88c35.43 0 70.87-35.44 70.87-70.87 0-37.03-35.44-70.87-70.87-70.87H212.6z" transform="matrix(0 0 0 0 452.1 279.3)"/><path d="M212.6-453.54c-35.43 0-70.87 35.43-70.87 70.87s35.44 70.86 70.87 70.86h194.88c35.43 0 70.87-35.44 70.87-70.87 0-37.03-35.44-70.87-70.87-70.87H212.6z" transform="matrix(0 0 0 0 452.1 277.4)"/><path d="M212.6-453.54c-35.43 0-70.87 35.43-70.87 70.87s35.44 70.86 70.87 70.86h194.88c35.43 0 70.87-35.44 70.87-70.87 0-37.03-35.44-70.87-70.87-70.87H212.6z" transform="matrix(0 0 0 0 452.1 275)"/><path d="M212.6-453.54c-35.43 0-70.87 35.43-70.87 70.87s35.44 70.86 70.87 70.86h194.88c35.43 0 70.87-35.44 70.87-70.87 0-37.03-35.44-70.87-70.87-70.87H212.6z" transform="matrix(0 0 0 0 452.1 273.1)"/><path d="M212.6-453.54c-35.43 0-70.87 35.43-70.87 70.87s35.44 70.86 70.87 70.86h194.88c35.43 0 70.87-35.44 70.87-70.87 0-37.03-35.44-70.87-70.87-70.87H212.6z" transform="matrix(0 0 0 0 452 287.8)"/><path d="M212.6-453.54c-35.43 0-70.87 35.43-70.87 70.87s35.44 70.86 70.87 70.86h194.88c35.43 0 70.87-35.44 70.87-70.87 0-37.03-35.44-70.87-70.87-70.87H212.6z" transform="matrix(0 0 0 0 452 285.9)"/><path d="M212.6-453.54c-35.43 0-70.87 35.43-70.87 70.87s35.44 70.86 70.87 70.86h194.88c35.43 0 70.87-35.44 70.87-70.87 0-37.03-35.44-70.87-70.87-70.87H212.6z" transform="matrix(0 0 0 0 452 283.6)"/><path d="M212.6-453.54c-35.43 0-70.87 35.43-70.87 70.87s35.44 70.86 70.87 70.86h194.88c35.43 0 70.87-35.44 70.87-70.87 0-37.03-35.44-70.87-70.87-70.87H212.6z" transform="matrix(0 0 0 0 452.1 281.7)"/><path d="M212.6-453.54c-35.43 0-70.87 35.43-70.87 70.87s35.44 70.86 70.87 70.86h194.88c35.43 0 70.87-35.44 70.87-70.87 0-37.03-35.44-70.87-70.87-70.87H212.6z" transform="matrix(0 0 0 0 452.3 262.1)"/><path d="M212.6-453.54c-35.43 0-70.87 35.43-70.87 70.87s35.44 70.86 70.87 70.86h194.88c35.43 0 70.87-35.44 70.87-70.87 0-37.03-35.44-70.87-70.87-70.87H212.6z" transform="matrix(0 0 0 0 452.3 260.3)"/><path d="M212.6-453.54c-35.43 0-70.87 35.43-70.87 70.87s35.44 70.86 70.87 70.86h194.88c35.43 0 70.87-35.44 70.87-70.87 0-37.03-35.44-70.87-70.87-70.87H212.6z" transform="matrix(0 0 0 0 452.3 257.9)"/><path d="M212.6-453.54c-35.43 0-70.87 35.43-70.87 70.87s35.44 70.86 70.87 70.86h194.88c35.43 0 70.87-35.44 70.87-70.87 0-37.03-35.44-70.87-70.87-70.87H212.6z" transform="matrix(0 0 0 0 452.3 256)"/><path d="M212.6-453.54c-35.43 0-70.87 35.43-70.87 70.87s35.44 70.86 70.87 70.86h194.88c35.43 0 70.87-35.44 70.87-70.87 0-37.03-35.44-70.87-70.87-70.87H212.6z" transform="matrix(0 0 0 0 452.2 270.7)"/><path d="M212.6-453.54c-35.43 0-70.87 35.43-70.87 70.87s35.44 70.86 70.87 70.86h194.88c35.43 0 70.87-35.44 70.87-70.87 0-37.03-35.44-70.87-70.87-70.87H212.6z" transform="matrix(0 0 0 0 452.2 268.8)"/><path d="M212.6-453.54c-35.43 0-70.87 35.43-70.87 70.87s35.44 70.86 70.87 70.86h194.88c35.43 0 70.87-35.44 70.87-70.87 0-37.03-35.44-70.87-70.87-70.87H212.6z" transform="matrix(0 0 0 0 452.2 266.4)"/><path d="M212.6-453.54c-35.43 0-70.87 35.43-70.87 70.87s35.44 70.86 70.87 70.86h194.88c35.43 0 70.87-35.44 70.87-70.87 0-37.03-35.44-70.87-70.87-70.87H212.6z" transform="matrix(0 0 0 0 452.2 264.5)"/><path d="M212.6-453.54c-35.43 0-70.87 35.43-70.87 70.87s35.44 70.86 70.87 70.86h194.88c35.43 0 70.87-35.44 70.87-70.87 0-37.03-35.44-70.87-70.87-70.87H212.6z" transform="matrix(0 0 0 0 451.7 313.5)"/><path d="M212.6-453.54c-35.43 0-70.87 35.43-70.87 70.87s35.44 70.86 70.87 70.86h194.88c35.43 0 70.87-35.44 70.87-70.87 0-37.03-35.44-70.87-70.87-70.87H212.6z" transform="matrix(0 0 0 0 451.8 311.6)"/><path d="M212.6-453.54c-35.43 0-70.87 35.43-70.87 70.87s35.44 70.86 70.87 70.86h194.88c35.43 0 70.87-35.44 70.87-70.87 0-37.03-35.44-70.87-70.87-70.87H212.6z" transform="matrix(0 0 0 0 451.8 309.3)"/><path d="M212.6-453.54c-35.43 0-70.87 35.43-70.87 70.87s35.44 70.86 70.87 70.86h194.88c35.43 0 70.87-35.44 70.87-70.87 0-37.03-35.44-70.87-70.87-70.87H212.6z" transform="matrix(0 0 0 0 451.8 307.4)"/><path d="M212.6-453.54c-35.43 0-70.87 35.43-70.87 70.87s35.44 70.86 70.87 70.86h194.88c35.43 0 70.87-35.44 70.87-70.87 0-37.03-35.44-70.87-70.87-70.87H212.6z" transform="matrix(0 0 0 0 451.6 322.1)"/><path d="M212.6-453.54c-35.43 0-70.87 35.43-70.87 70.87s35.44 70.86 70.87 70.86h194.88c35.43 0 70.87-35.44 70.87-70.87 0-37.03-35.44-70.87-70.87-70.87H212.6z" transform="matrix(0 0 0 0 451.7 320.2)"/><path d="M212.6-453.54c-35.43 0-70.87 35.43-70.87 70.87s35.44 70.86 70.87 70.86h194.88c35.43 0 70.87-35.44 70.87-70.87 0-37.03-35.44-70.87-70.87-70.87H212.6z" transform="matrix(0 0 0 0 451.7 317.8)"/><path d="M212.6-453.54c-35.43 0-70.87 35.43-70.87 70.87s35.44 70.86 70.87 70.86h194.88c35.43 0 70.87-35.44 70.87-70.87 0-37.03-35.44-70.87-70.87-70.87H212.6z" transform="matrix(0 0 0 0 451.7 315.9)"/><path d="M212.6-453.54c-35.43 0-70.87 35.43-70.87 70.87s35.44 70.86 70.87 70.86h194.88c35.43 0 70.87-35.44 70.87-70.87 0-37.03-35.44-70.87-70.87-70.87H212.6z" transform="matrix(0 0 0 0 451.9 296.4)"/><path d="M212.6-453.54c-35.43 0-70.87 35.43-70.87 70.87s35.44 70.86 70.87 70.86h194.88c35.43 0 70.87-35.44 70.87-70.87 0-37.03-35.44-70.87-70.87-70.87H212.6z" transform="matrix(0 0 0 0 451.9 294.5)"/><path d="M212.6-453.54c-35.43 0-70.87 35.43-70.87 70.87s35.44 70.86 70.87 70.86h194.88c35.43 0 70.87-35.44 70.87-70.87 0-37.03-35.44-70.87-70.87-70.87H212.6z" transform="matrix(0 0 0 0 451.9 292.1)"/><path d="M212.6-453.54c-35.43 0-70.87 35.43-70.87 70.87s35.44 70.86 70.87 70.86h194.88c35.43 0 70.87-35.44 70.87-70.87 0-37.03-35.44-70.87-70.87-70.87H212.6z" transform="matrix(0 0 0 0 452 290.2)"/><path d="M212.6-453.54c-35.43 0-70.87 35.43-70.87 70.87s35.44 70.86 70.87 70.86h194.88c35.43 0 70.87-35.44 70.87-70.87 0-37.03-35.44-70.87-70.87-70.87H212.6z" transform="matrix(0 0 0 0 451.8 305)"/><path d="M212.6-453.54c-35.43 0-70.87 35.43-70.87 70.87s35.44 70.86 70.87 70.86h194.88c35.43 0 70.87-35.44 70.87-70.87 0-37.03-35.44-70.87-70.87-70.87H212.6z" transform="matrix(0 0 0 0 451.8 303.1)"/><path d="M212.6-453.54c-35.43 0-70.87 35.43-70.87 70.87s35.44 70.86 70.87 70.86h194.88c35.43 0 70.87-35.44 70.87-70.87 0-37.03-35.44-70.87-70.87-70.87H212.6z" transform="matrix(0 0 0 0 451.9 300.7)"/><path d="M212.6-453.54c-35.43 0-70.87 35.43-70.87 70.87s35.44 70.86 70.87 70.86h194.88c35.43 0 70.87-35.44 70.87-70.87 0-37.03-35.44-70.87-70.87-70.87H212.6z" transform="matrix(0 0 0 0 451.9 298.8)"/><path d="M212.6-453.54c-35.43 0-70.87 35.43-70.87 70.87s35.44 70.86 70.87 70.86h194.88c35.43 0 70.87-35.44 70.87-70.87 0-37.03-35.44-70.87-70.87-70.87H212.6z" transform="matrix(0 0 0 0 451.4 347.8)"/><path d="M212.6-453.54c-35.43 0-70.87 35.43-70.87 70.87s35.44 70.86 70.87 70.86h194.88c35.43 0 70.87-35.44 70.87-70.87 0-37.03-35.44-70.87-70.87-70.87H212.6z" transform="matrix(0 0 0 0 451.4 345.9)"/><path d="M212.6-453.54c-35.43 0-70.87 35.43-70.87 70.87s35.44 70.86 70.87 70.86h194.88c35.43 0 70.87-35.44 70.87-70.87 0-37.03-35.44-70.87-70.87-70.87H212.6z" transform="matrix(0 0 0 0 451.4 343.5)"/><path d="M212.6-453.54c-35.43 0-70.87 35.43-70.87 70.87s35.44 70.86 70.87 70.86h194.88c35.43 0 70.87-35.44 70.87-70.87 0-37.03-35.44-70.87-70.87-70.87H212.6z" transform="matrix(0 0 0 0 451.4 341.6)"/><path d="M212.6-453.54c-35.43 0-70.87 35.43-70.87 70.87s35.44 70.86 70.87 70.86h194.88c35.43 0 70.87-35.44 70.87-70.87 0-37.03-35.44-70.87-70.87-70.87H212.6z" transform="matrix(0 0 0 0 451.3 354.4)"/><path d="M212.6-453.54c-35.43 0-70.87 35.43-70.87 70.87s35.44 70.86 70.87 70.86h194.88c35.43 0 70.87-35.44 70.87-70.87 0-37.03-35.44-70.87-70.87-70.87H212.6z" transform="matrix(0 0 0 0 451.3 352.1)"/><path d="M212.6-453.54c-35.43 0-70.87 35.43-70.87 70.87s35.44 70.86 70.87 70.86h194.88c35.43 0 70.87-35.44 70.87-70.87 0-37.03-35.44-70.87-70.87-70.87H212.6z" transform="matrix(0 0 0 0 451.4 350.2)"/><path d="M212.6-453.54c-35.43 0-70.87 35.43-70.87 70.87s35.44 70.86 70.87 70.86h194.88c35.43 0 70.87-35.44 70.87-70.87 0-37.03-35.44-70.87-70.87-70.87H212.6z" transform="matrix(0 0 0 0 451.5 330.7)"/><path d="M212.6-453.54c-35.43 0-70.87 35.43-70.87 70.87s35.44 70.86 70.87 70.86h194.88c35.43 0 70.87-35.44 70.87-70.87 0-37.03-35.44-70.87-70.87-70.87H212.6z" transform="matrix(0 0 0 0 451.6 328.8)"/><path d="M212.6-453.54c-35.43 0-70.87 35.43-70.87 70.87s35.44 70.86 70.87 70.86h194.88c35.43 0 70.87-35.44 70.87-70.87 0-37.03-35.44-70.87-70.87-70.87H212.6z" transform="matrix(0 0 0 0 451.6 326.4)"/><path d="M212.6-453.54c-35.43 0-70.87 35.43-70.87 70.87s35.44 70.86 70.87 70.86h194.88c35.43 0 70.87-35.44 70.87-70.87 0-37.03-35.44-70.87-70.87-70.87H212.6z" transform="matrix(0 0 0 0 451.6 324.5)"/><path d="M212.6-453.54c-35.43 0-70.87 35.43-70.87 70.87s35.44 70.86 70.87 70.86h194.88c35.43 0 70.87-35.44 70.87-70.87 0-37.03-35.44-70.87-70.87-70.87H212.6z" transform="matrix(0 0 0 0 451.4 339.2)"/><path d="M212.6-453.54c-35.43 0-70.87 35.43-70.87 70.87s35.44 70.86 70.87 70.86h194.88c35.43 0 70.87-35.44 70.87-70.87 0-37.03-35.44-70.87-70.87-70.87H212.6z" transform="matrix(0 0 0 0 451.5 337.3)"/><path d="M212.6-453.54c-35.43 0-70.87 35.43-70.87 70.87s35.44 70.86 70.87 70.86h194.88c35.43 0 70.87-35.44 70.87-70.87 0-37.03-35.44-70.87-70.87-70.87H212.6z" transform="matrix(0 0 0 0 451.5 334.9)"/><path d="M212.6-453.54c-35.43 0-70.87 35.43-70.87 70.87s35.44 70.86 70.87 70.86h194.88c35.43 0 70.87-35.44 70.87-70.87 0-37.03-35.44-70.87-70.87-70.87H212.6z" transform="matrix(0 0 0 0 451.5 333)"/><path d="M212.6-453.54c-35.43 0-70.87 35.43-70.87 70.87s35.44 70.86 70.87 70.86h194.88c35.43 0 70.87-35.44 70.87-70.87 0-37.03-35.44-70.87-70.87-70.87H212.6z" transform="matrix(0 0 0 0 451.1 369.3)"/><path d="M212.6-453.54c-35.43 0-70.87 35.43-70.87 70.87s35.44 70.86 70.87 70.86h194.88c35.43 0 70.87-35.44 70.87-70.87 0-37.03-35.44-70.87-70.87-70.87H212.6z" transform="matrix(0 0 0 0 451.2 367.4)"/><path d="M212.6-453.54c-35.43 0-70.87 35.43-70.87 70.87s35.44 70.86 70.87 70.86h194.88c35.43 0 70.87-35.44 70.87-70.87 0-37.03-35.44-70.87-70.87-70.87H212.6z" transform="matrix(0 0 0 0 451.2 365)"/><path d="M212.6-453.54c-35.43 0-70.87 35.43-70.87 70.87s35.44 70.86 70.87 70.86h194.88c35.43 0 70.87-35.44 70.87-70.87 0-37.03-35.44-70.87-70.87-70.87H212.6z" transform="matrix(0 0 0 0 451.2 363.1)"/><path d="M212.6-453.54c-35.43 0-70.87 35.43-70.87 70.87s35.44 70.86 70.87 70.86h194.88c35.43 0 70.87-35.44 70.87-70.87 0-37.03-35.44-70.87-70.87-70.87H212.6z" transform="matrix(0 0 0 0 451.1 376)"/><path d="M212.6-453.54c-35.43 0-70.87 35.43-70.87 70.87s35.44 70.86 70.87 70.86h194.88c35.43 0 70.87-35.44 70.87-70.87 0-37.03-35.44-70.87-70.87-70.87H212.6z" transform="matrix(0 0 0 0 451.1 373.6)"/><path d="M212.6-453.54c-35.43 0-70.87 35.43-70.87 70.87s35.44 70.86 70.87 70.86h194.88c35.43 0 70.87-35.44 70.87-70.87 0-37.03-35.44-70.87-70.87-70.87H212.6z" transform="matrix(0 0 0 0 451.1 371.7)"/><path d="M212.6-453.54c-35.43 0-70.87 35.43-70.87 70.87s35.44 70.86 70.87 70.86h194.88c35.43 0 70.87-35.44 70.87-70.87 0-37.03-35.44-70.87-70.87-70.87H212.6z" transform="matrix(0 0 0 0 451.2 360.8)"/><path d="M212.6-453.54c-35.43 0-70.87 35.43-70.87 70.87s35.44 70.86 70.87 70.86h194.88c35.43 0 70.87-35.44 70.87-70.87 0-37.03-35.44-70.87-70.87-70.87H212.6z" transform="matrix(0 0 0 0 451.3 358.8)"/><path d="M212.6-453.54c-35.43 0-70.87 35.43-70.87 70.87s35.44 70.86 70.87 70.86h194.88c35.43 0 70.87-35.44 70.87-70.87 0-37.03-35.44-70.87-70.87-70.87H212.6z" transform="matrix(0 0 0 0 451.3 356.5)"/></g><g stroke="#000" stroke-width="17.96" fill="#b00"><path d="M212.6-453.54c-35.43 0-70.87 35.43-70.87 70.87s35.44 70.86 70.87 70.86h194.88c35.43 0 70.87-35.44 70.87-70.87 0-37.03-35.44-70.87-70.87-70.87H212.6z" transform="matrix(0 0 0 0 455 279.6)"/><path d="M212.6-453.54c-35.43 0-70.87 35.43-70.87 70.87s35.44 70.86 70.87 70.86h194.88c35.43 0 70.87-35.44 70.87-70.87 0-37.03-35.44-70.87-70.87-70.87H212.6z" transform="matrix(0 0 0 0 455 277.6)"/><path d="M212.6-453.54c-35.43 0-70.87 35.43-70.87 70.87s35.44 70.86 70.87 70.86h194.88c35.43 0 70.87-35.44 70.87-70.87 0-37.03-35.44-70.87-70.87-70.87H212.6z" transform="matrix(0 0 0 0 455 275.3)"/><path d="M212.6-453.54c-35.43 0-70.87 35.43-70.87 70.87s35.44 70.86 70.87 70.86h194.88c35.43 0 70.87-35.44 70.87-70.87 0-37.03-35.44-70.87-70.87-70.87H212.6z" transform="matrix(0 0 0 0 455 273.4)"/><path d="M212.6-453.54c-35.43 0-70.87 35.43-70.87 70.87s35.44 70.86 70.87 70.86h194.88c35.43 0 70.87-35.44 70.87-70.87 0-37.03-35.44-70.87-70.87-70.87H212.6z" transform="matrix(0 0 0 0 455 288.1)"/><path d="M212.6-453.54c-35.43 0-70.87 35.43-70.87 70.87s35.44 70.86 70.87 70.86h194.88c35.43 0 70.87-35.44 70.87-70.87 0-37.03-35.44-70.87-70.87-70.87H212.6z" transform="matrix(0 0 0 0 455.1 286.2)"/><path d="M212.6-453.54c-35.43 0-70.87 35.43-70.87 70.87s35.44 70.86 70.87 70.86h194.88c35.43 0 70.87-35.44 70.87-70.87 0-37.03-35.44-70.87-70.87-70.87H212.6z" transform="matrix(0 0 0 0 455 283.8)"/><path d="M212.6-453.54c-35.43 0-70.87 35.43-70.87 70.87s35.44 70.86 70.87 70.86h194.88c35.43 0 70.87-35.44 70.87-70.87 0-37.03-35.44-70.87-70.87-70.87H212.6z" transform="matrix(0 0 0 0 455 281.9)"/><path d="M212.6-453.54c-35.43 0-70.87 35.43-70.87 70.87s35.44 70.86 70.87 70.86h194.88c35.43 0 70.87-35.44 70.87-70.87 0-37.03-35.44-70.87-70.87-70.87H212.6z" transform="matrix(0 0 0 0 454.9 262.4)"/><path d="M212.6-453.54c-35.43 0-70.87 35.43-70.87 70.87s35.44 70.86 70.87 70.86h194.88c35.43 0 70.87-35.44 70.87-70.87 0-37.03-35.44-70.87-70.87-70.87H212.6z" transform="matrix(0 0 0 0 455 260.5)"/><path d="M212.6-453.54c-35.43 0-70.87 35.43-70.87 70.87s35.44 70.86 70.87 70.86h194.88c35.43 0 70.87-35.44 70.87-70.87 0-37.03-35.44-70.87-70.87-70.87H212.6z" transform="matrix(0 0 0 0 454.9 258.1)"/><path d="M212.6-453.54c-35.43 0-70.87 35.43-70.87 70.87s35.44 70.86 70.87 70.86h194.88c35.43 0 70.87-35.44 70.87-70.87 0-37.03-35.44-70.87-70.87-70.87H212.6z" transform="matrix(0 0 0 0 454.9 256.2)"/><path d="M212.6-453.54c-35.43 0-70.87 35.43-70.87 70.87s35.44 70.86 70.87 70.86h194.88c35.43 0 70.87-35.44 70.87-70.87 0-37.03-35.44-70.87-70.87-70.87H212.6z" transform="matrix(0 0 0 0 455 271)"/><path d="M212.6-453.54c-35.43 0-70.87 35.43-70.87 70.87s35.44 70.86 70.87 70.86h194.88c35.43 0 70.87-35.44 70.87-70.87 0-37.03-35.44-70.87-70.87-70.87H212.6z" transform="matrix(0 0 0 0 455 269.1)"/><path d="M212.6-453.54c-35.43 0-70.87 35.43-70.87 70.87s35.44 70.86 70.87 70.86h194.88c35.43 0 70.87-35.44 70.87-70.87 0-37.03-35.44-70.87-70.87-70.87H212.6z" transform="matrix(0 0 0 0 455 266.7)"/><path d="M212.6-453.54c-35.43 0-70.87 35.43-70.87 70.87s35.44 70.86 70.87 70.86h194.88c35.43 0 70.87-35.44 70.87-70.87 0-37.03-35.44-70.87-70.87-70.87H212.6z" transform="matrix(0 0 0 0 455 264.8)"/><path d="M212.6-453.54c-35.43 0-70.87 35.43-70.87 70.87s35.44 70.86 70.87 70.86h194.88c35.43 0 70.87-35.44 70.87-70.87 0-37.03-35.44-70.87-70.87-70.87H212.6z" transform="matrix(0 0 0 0 455.1 313.8)"/><path d="M212.6-453.54c-35.43 0-70.87 35.43-70.87 70.87s35.44 70.86 70.87 70.86h194.88c35.43 0 70.87-35.44 70.87-70.87 0-37.03-35.44-70.87-70.87-70.87H212.6z" transform="matrix(0 0 0 0 455.1 311.9)"/><path d="M212.6-453.54c-35.43 0-70.87 35.43-70.87 70.87s35.44 70.86 70.87 70.86h194.88c35.43 0 70.87-35.44 70.87-70.87 0-37.03-35.44-70.87-70.87-70.87H212.6z" transform="matrix(0 0 0 0 455.1 309.5)"/><path d="M212.6-453.54c-35.43 0-70.87 35.43-70.87 70.87s35.44 70.86 70.87 70.86h194.88c35.43 0 70.87-35.44 70.87-70.87 0-37.03-35.44-70.87-70.87-70.87H212.6z" transform="matrix(0 0 0 0 455.1 307.6)"/><path d="M212.6-453.54c-35.43 0-70.87 35.43-70.87 70.87s35.44 70.86 70.87 70.86h194.88c35.43 0 70.87-35.44 70.87-70.87 0-37.03-35.44-70.87-70.87-70.87H212.6z" transform="matrix(0 0 0 0 455.1 322.4)"/><path d="M212.6-453.54c-35.43 0-70.87 35.43-70.87 70.87s35.44 70.86 70.87 70.86h194.88c35.43 0 70.87-35.44 70.87-70.87 0-37.03-35.44-70.87-70.87-70.87H212.6z" transform="matrix(0 0 0 0 455.1 320.5)"/><path d="M212.6-453.54c-35.43 0-70.87 35.43-70.87 70.87s35.44 70.86 70.87 70.86h194.88c35.43 0 70.87-35.44 70.87-70.87 0-37.03-35.44-70.87-70.87-70.87H212.6z" transform="matrix(0 0 0 0 455.1 318.1)"/><path d="M212.6-453.54c-35.43 0-70.87 35.43-70.87 70.87s35.44 70.86 70.87 70.86h194.88c35.43 0 70.87-35.44 70.87-70.87 0-37.03-35.44-70.87-70.87-70.87H212.6z" transform="matrix(0 0 0 0 455.1 316.2)"/><path d="M212.6-453.54c-35.43 0-70.87 35.43-70.87 70.87s35.44 70.86 70.87 70.86h194.88c35.43 0 70.87-35.44 70.87-70.87 0-37.03-35.44-70.87-70.87-70.87H212.6z" transform="matrix(0 0 0 0 455.1 296.7)"/><path d="M212.6-453.54c-35.43 0-70.87 35.43-70.87 70.87s35.44 70.86 70.87 70.86h194.88c35.43 0 70.87-35.44 70.87-70.87 0-37.03-35.44-70.87-70.87-70.87H212.6z" transform="matrix(0 0 0 0 455.1 294.8)"/><path d="M212.6-453.54c-35.43 0-70.87 35.43-70.87 70.87s35.44 70.86 70.87 70.86h194.88c35.43 0 70.87-35.44 70.87-70.87 0-37.03-35.44-70.87-70.87-70.87H212.6z" transform="matrix(0 0 0 0 455.1 292.4)"/><path d="M212.6-453.54c-35.43 0-70.87 35.43-70.87 70.87s35.44 70.86 70.87 70.86h194.88c35.43 0 70.87-35.44 70.87-70.87 0-37.03-35.44-70.87-70.87-70.87H212.6z" transform="matrix(0 0 0 0 455.1 290.5)"/><path d="M212.6-453.54c-35.43 0-70.87 35.43-70.87 70.87s35.44 70.86 70.87 70.86h194.88c35.43 0 70.87-35.44 70.87-70.87 0-37.03-35.44-70.87-70.87-70.87H212.6z" transform="matrix(0 0 0 0 455.1 305.3)"/><path d="M212.6-453.54c-35.43 0-70.87 35.43-70.87 70.87s35.44 70.86 70.87 70.86h194.88c35.43 0 70.87-35.44 70.87-70.87 0-37.03-35.44-70.87-70.87-70.87H212.6z" transform="matrix(0 0 0 0 455.1 303.4)"/><path d="M212.6-453.54c-35.43 0-70.87 35.43-70.87 70.87s35.44 70.86 70.87 70.86h194.88c35.43 0 70.87-35.44 70.87-70.87 0-37.03-35.44-70.87-70.87-70.87H212.6z" transform="matrix(0 0 0 0 455.1 301)"/><path d="M212.6-453.54c-35.43 0-70.87 35.43-70.87 70.87s35.44 70.86 70.87 70.86h194.88c35.43 0 70.87-35.44 70.87-70.87 0-37.03-35.44-70.87-70.87-70.87H212.6z" transform="matrix(0 0 0 0 455.1 299.1)"/><path d="M212.6-453.54c-35.43 0-70.87 35.43-70.87 70.87s35.44 70.86 70.87 70.86h194.88c35.43 0 70.87-35.44 70.87-70.87 0-37.03-35.44-70.87-70.87-70.87H212.6z" transform="matrix(0 0 0 0 455.2 348.1)"/><path d="M212.6-453.54c-35.43 0-70.87 35.43-70.87 70.87s35.44 70.86 70.87 70.86h194.88c35.43 0 70.87-35.44 70.87-70.87 0-37.03-35.44-70.87-70.87-70.87H212.6z" transform="matrix(0 0 0 0 455.2 346.2)"/><path d="M212.6-453.54c-35.43 0-70.87 35.43-70.87 70.87s35.44 70.86 70.87 70.86h194.88c35.43 0 70.87-35.44 70.87-70.87 0-37.03-35.44-70.87-70.87-70.87H212.6z" transform="matrix(0 0 0 0 455.2 343.8)"/><path d="M212.6-453.54c-35.43 0-70.87 35.43-70.87 70.87s35.44 70.86 70.87 70.86h194.88c35.43 0 70.87-35.44 70.87-70.87 0-37.03-35.44-70.87-70.87-70.87H212.6z" transform="matrix(0 0 0 0 455.2 341.9)"/><path d="M212.6-453.54c-35.43 0-70.87 35.43-70.87 70.87s35.44 70.86 70.87 70.86h194.88c35.43 0 70.87-35.44 70.87-70.87 0-37.03-35.44-70.87-70.87-70.87H212.6z" transform="matrix(0 0 0 0 455.3 354.7)"/><path d="M212.6-453.54c-35.43 0-70.87 35.43-70.87 70.87s35.44 70.86 70.87 70.86h194.88c35.43 0 70.87-35.44 70.87-70.87 0-37.03-35.44-70.87-70.87-70.87H212.6z" transform="matrix(0 0 0 0 455.2 352.4)"/><path d="M212.6-453.54c-35.43 0-70.87 35.43-70.87 70.87s35.44 70.86 70.87 70.86h194.88c35.43 0 70.87-35.44 70.87-70.87 0-37.03-35.44-70.87-70.87-70.87H212.6z" transform="matrix(0 0 0 0 455.3 350.4)"/><path d="M212.6-453.54c-35.43 0-70.87 35.43-70.87 70.87s35.44 70.86 70.87 70.86h194.88c35.43 0 70.87-35.44 70.87-70.87 0-37.03-35.44-70.87-70.87-70.87H212.6z" transform="matrix(0 0 0 0 455.2 330.9)"/><path d="M212.6-453.54c-35.43 0-70.87 35.43-70.87 70.87s35.44 70.86 70.87 70.86h194.88c35.43 0 70.87-35.44 70.87-70.87 0-37.03-35.44-70.87-70.87-70.87H212.6z" transform="matrix(0 0 0 0 455.2 329)"/><path d="M212.6-453.54c-35.43 0-70.87 35.43-70.87 70.87s35.44 70.86 70.87 70.86h194.88c35.43 0 70.87-35.44 70.87-70.87 0-37.03-35.44-70.87-70.87-70.87H212.6z" transform="matrix(0 0 0 0 455.2 326.7)"/><path d="M212.6-453.54c-35.43 0-70.87 35.43-70.87 70.87s35.44 70.86 70.87 70.86h194.88c35.43 0 70.87-35.44 70.87-70.87 0-37.03-35.44-70.87-70.87-70.87H212.6z" transform="matrix(0 0 0 0 455.2 324.8)"/><path d="M212.6-453.54c-35.43 0-70.87 35.43-70.87 70.87s35.44 70.86 70.87 70.86h194.88c35.43 0 70.87-35.44 70.87-70.87 0-37.03-35.44-70.87-70.87-70.87H212.6z" transform="matrix(0 0 0 0 455.2 339.5)"/><path d="M212.6-453.54c-35.43 0-70.87 35.43-70.87 70.87s35.44 70.86 70.87 70.86h194.88c35.43 0 70.87-35.44 70.87-70.87 0-37.03-35.44-70.87-70.87-70.87H212.6z" transform="matrix(0 0 0 0 455.2 337.6)"/><path d="M212.6-453.54c-35.43 0-70.87 35.43-70.87 70.87s35.44 70.86 70.87 70.86h194.88c35.43 0 70.87-35.44 70.87-70.87 0-37.03-35.44-70.87-70.87-70.87H212.6z" transform="matrix(0 0 0 0 455.2 335.2)"/><path d="M212.6-453.54c-35.43 0-70.87 35.43-70.87 70.87s35.44 70.86 70.87 70.86h194.88c35.43 0 70.87-35.44 70.87-70.87 0-37.03-35.44-70.87-70.87-70.87H212.6z" transform="matrix(0 0 0 0 455.2 333.3)"/><path d="M212.6-453.54c-35.43 0-70.87 35.43-70.87 70.87s35.44 70.86 70.87 70.86h194.88c35.43 0 70.87-35.44 70.87-70.87 0-37.03-35.44-70.87-70.87-70.87H212.6z" transform="matrix(0 0 0 0 455.3 369.6)"/><path d="M212.6-453.54c-35.43 0-70.87 35.43-70.87 70.87s35.44 70.86 70.87 70.86h194.88c35.43 0 70.87-35.44 70.87-70.87 0-37.03-35.44-70.87-70.87-70.87H212.6z" transform="matrix(0 0 0 0 455.3 367.7)"/><path d="M212.6-453.54c-35.43 0-70.87 35.43-70.87 70.87s35.44 70.86 70.87 70.86h194.88c35.43 0 70.87-35.44 70.87-70.87 0-37.03-35.44-70.87-70.87-70.87H212.6z" transform="matrix(0 0 0 0 455.3 365.3)"/><path d="M212.6-453.54c-35.43 0-70.87 35.43-70.87 70.87s35.44 70.86 70.87 70.86h194.88c35.43 0 70.87-35.44 70.87-70.87 0-37.03-35.44-70.87-70.87-70.87H212.6z" transform="matrix(0 0 0 0 455.3 363.4)"/><path d="M212.6-453.54c-35.43 0-70.87 35.43-70.87 70.87s35.44 70.86 70.87 70.86h194.88c35.43 0 70.87-35.44 70.87-70.87 0-37.03-35.44-70.87-70.87-70.87H212.6z" transform="matrix(0 0 0 0 455.3 376.3)"/><path d="M212.6-453.54c-35.43 0-70.87 35.43-70.87 70.87s35.44 70.86 70.87 70.86h194.88c35.43 0 70.87-35.44 70.87-70.87 0-37.03-35.44-70.87-70.87-70.87H212.6z" transform="matrix(0 0 0 0 455.3 373.9)"/><path d="M212.6-453.54c-35.43 0-70.87 35.43-70.87 70.87s35.44 70.86 70.87 70.86h194.88c35.43 0 70.87-35.44 70.87-70.87 0-37.03-35.44-70.87-70.87-70.87H212.6z" transform="matrix(0 0 0 0 455.3 372)"/><path d="M212.6-453.54c-35.43 0-70.87 35.43-70.87 70.87s35.44 70.86 70.87 70.86h194.88c35.43 0 70.87-35.44 70.87-70.87 0-37.03-35.44-70.87-70.87-70.87H212.6z" transform="matrix(0 0 0 0 455.3 361)"/><path d="M212.6-453.54c-35.43 0-70.87 35.43-70.87 70.87s35.44 70.86 70.87 70.86h194.88c35.43 0 70.87-35.44 70.87-70.87 0-37.03-35.44-70.87-70.87-70.87H212.6z" transform="matrix(0 0 0 0 455.3 359.1)"/><path d="M212.6-453.54c-35.43 0-70.87 35.43-70.87 70.87s35.44 70.86 70.87 70.86h194.88c35.43 0 70.87-35.44 70.87-70.87 0-37.03-35.44-70.87-70.87-70.87H212.6z" transform="matrix(0 0 0 0 455.3 356.8)"/></g><g stroke="#000" stroke-width="12.79" fill="#b00"><path d="M212.6-453.54c-35.43 0-70.87 35.43-70.87 70.87s35.44 70.86 70.87 70.86h194.88c35.43 0 70.87-35.44 70.87-70.87 0-37.03-35.44-70.87-70.87-70.87H212.6z" transform="matrix(0 0 0 0 466.7 266.4)"/><path d="M212.6-453.54c-35.43 0-70.87 35.43-70.87 70.87s35.44 70.86 70.87 70.86h194.88c35.43 0 70.87-35.44 70.87-70.87 0-37.03-35.44-70.87-70.87-70.87H212.6z" transform="matrix(0 0 0 0 463.1 262.7)"/><path d="M212.6-453.54c-35.43 0-70.87 35.43-70.87 70.87s35.44 70.86 70.87 70.86h194.88c35.43 0 70.87-35.44 70.87-70.87 0-37.03-35.44-70.87-70.87-70.87H212.6z" transform="matrix(0 0 0 0 464.4 265)"/><path d="M212.6-453.54c-35.43 0-70.87 35.43-70.87 70.87s35.44 70.86 70.87 70.86h194.88c35.43 0 70.87-35.44 70.87-70.87 0-37.03-35.44-70.87-70.87-70.87H212.6z" transform="matrix(0 0 0 0 462.7 259.1)"/><path d="M212.6-453.54c-35.43 0-70.87 35.43-70.87 70.87s35.44 70.86 70.87 70.86h194.88c35.43 0 70.87-35.44 70.87-70.87 0-37.03-35.44-70.87-70.87-70.87H212.6z" transform="matrix(0 0 0 0 465.1 259.1)"/><path d="M212.6-453.54c-35.43 0-70.87 35.43-70.87 70.87s35.44 70.86 70.87 70.86h194.88c35.43 0 70.87-35.44 70.87-70.87 0-37.03-35.44-70.87-70.87-70.87H212.6z" transform="matrix(0 0 0 0 452.2 259.1)"/><path d="M212.6-453.54c-35.43 0-70.87 35.43-70.87 70.87s35.44 70.86 70.87 70.86h194.88c35.43 0 70.87-35.44 70.87-70.87 0-37.03-35.44-70.87-70.87-70.87H212.6z" transform="matrix(0 0 0 0 454.6 259.1)"/><path d="M212.6-453.54c-35.43 0-70.87 35.43-70.87 70.87s35.44 70.86 70.87 70.86h194.88c35.43 0 70.87-35.44 70.87-70.87 0-37.03-35.44-70.87-70.87-70.87H212.6z" transform="matrix(0 0 0 0 457.6 259.1)"/><path d="M212.6-453.54c-35.43 0-70.87 35.43-70.87 70.87s35.44 70.86 70.87 70.86h194.88c35.43 0 70.87-35.44 70.87-70.87 0-37.03-35.44-70.87-70.87-70.87H212.6z" transform="matrix(0 0 0 0 459.7 259.2)"/><path d="M212.6-453.54c-35.43 0-70.87 35.43-70.87 70.87s35.44 70.86 70.87 70.86h194.88c35.43 0 70.87-35.44 70.87-70.87 0-37.03-35.44-70.87-70.87-70.87H212.6z" transform="matrix(0 0 0 0 448.7 258.1)"/><path d="M212.6-453.54c-35.43 0-70.87 35.43-70.87 70.87s35.44 70.86 70.87 70.86h194.88c35.43 0 70.87-35.44 70.87-70.87 0-37.03-35.44-70.87-70.87-70.87H212.6z" transform="matrix(0 0 0 0 450.4 258.5)"/><path d="M212.6-453.54c-35.43 0-70.87 35.43-70.87 70.87s35.44 70.86 70.87 70.86h194.88c35.43 0 70.87-35.44 70.87-70.87 0-37.03-35.44-70.87-70.87-70.87H212.6z" transform="matrix(0 0 0 0 449.5 257)"/></g><g stroke="#000" stroke-width="12.79" fill="#b00"><path d="M212.6-453.54c-35.43 0-70.87 35.43-70.87 70.87s35.44 70.86 70.87 70.86h194.88c35.43 0 70.87-35.44 70.87-70.87 0-37.03-35.44-70.87-70.87-70.87H212.6z" transform="matrix(0 0 0 0 500.9 356.2)"/><path d="M212.6-453.54c-35.43 0-70.87 35.43-70.87 70.87s35.44 70.86 70.87 70.86h194.88c35.43 0 70.87-35.44 70.87-70.87 0-37.03-35.44-70.87-70.87-70.87H212.6z" transform="matrix(0 0 0 0 503.1 355.6)"/><path d="M212.6-453.54c-35.43 0-70.87 35.43-70.87 70.87s35.44 70.86 70.87 70.86h194.88c35.43 0 70.87-35.44 70.87-70.87 0-37.03-35.44-70.87-70.87-70.87H212.6z" transform="matrix(0 0 0 0 505.8 354.9)"/><path d="M212.6-453.54c-35.43 0-70.87 35.43-70.87 70.87s35.44 70.86 70.87 70.86h194.88c35.43 0 70.87-35.44 70.87-70.87 0-37.03-35.44-70.87-70.87-70.87H212.6z" transform="matrix(0 0 0 0 507.9 354.3)"/><path d="M212.6-453.54c-35.43 0-70.87 35.43-70.87 70.87s35.44 70.86 70.87 70.86h194.88c35.43 0 70.87-35.44 70.87-70.87 0-37.03-35.44-70.87-70.87-70.87H212.6z" transform="matrix(0 0 0 0 524 347.4)"/><path d="M212.6-453.54c-35.43 0-70.87 35.43-70.87 70.87s35.44 70.86 70.87 70.86h194.88c35.43 0 70.87-35.44 70.87-70.87 0-37.03-35.44-70.87-70.87-70.87H212.6z" transform="matrix(0 0 0 0 526 341.3)"/><path d="M212.6-453.54c-35.43 0-70.87 35.43-70.87 70.87s35.44 70.86 70.87 70.86h194.88c35.43 0 70.87-35.44 70.87-70.87 0-37.03-35.44-70.87-70.87-70.87H212.6z" transform="matrix(0 0 0 0 525.1 345.2)"/><path d="M212.6-453.54c-35.43 0-70.87 35.43-70.87 70.87s35.44 70.86 70.87 70.86h194.88c35.43 0 70.87-35.44 70.87-70.87 0-37.03-35.44-70.87-70.87-70.87H212.6z" transform="matrix(0 0 0 0 490.8 358.3)"/><path d="M212.6-453.54c-35.43 0-70.87 35.43-70.87 70.87s35.44 70.86 70.87 70.86h194.88c35.43 0 70.87-35.44 70.87-70.87 0-37.03-35.44-70.87-70.87-70.87H212.6z" transform="matrix(0 0 0 0 493 357.8)"/><path d="M212.6-453.54c-35.43 0-70.87 35.43-70.87 70.87s35.44 70.86 70.87 70.86h194.88c35.43 0 70.87-35.44 70.87-70.87 0-37.03-35.44-70.87-70.87-70.87H212.6z" transform="matrix(0 0 0 0 496.4 357.2)"/><path d="M212.6-453.54c-35.43 0-70.87 35.43-70.87 70.87s35.44 70.86 70.87 70.86h194.88c35.43 0 70.87-35.44 70.87-70.87 0-37.03-35.44-70.87-70.87-70.87H212.6z" transform="matrix(0 0 0 0 497.3 356.6)"/><path d="M212.6-453.54c-35.43 0-70.87 35.43-70.87 70.87s35.44 70.86 70.87 70.86h194.88c35.43 0 70.87-35.44 70.87-70.87 0-37.03-35.44-70.87-70.87-70.87H212.6z" transform="matrix(0 0 0 0 510.6 353.6)"/><path d="M212.6-453.54c-35.43 0-70.87 35.43-70.87 70.87s35.44 70.86 70.87 70.86h194.88c35.43 0 70.87-35.44 70.87-70.87 0-37.03-35.44-70.87-70.87-70.87H212.6z" transform="matrix(0 0 0 0 512.8 353)"/><path d="M212.6-453.54c-35.43 0-70.87 35.43-70.87 70.87s35.44 70.86 70.87 70.86h194.88c35.43 0 70.87-35.44 70.87-70.87 0-37.03-35.44-70.87-70.87-70.87H212.6z" transform="matrix(0 0 0 0 458.7 360.1)"/><path d="M212.6-453.54c-35.43 0-70.87 35.43-70.87 70.87s35.44 70.86 70.87 70.86h194.88c35.43 0 70.87-35.44 70.87-70.87 0-37.03-35.44-70.87-70.87-70.87H212.6z" transform="matrix(0 0 0 0 461 360)"/><path d="M212.6-453.54c-35.43 0-70.87 35.43-70.87 70.87s35.44 70.86 70.87 70.86h194.88c35.43 0 70.87-35.44 70.87-70.87 0-37.03-35.44-70.87-70.87-70.87H212.6z" transform="matrix(0 0 0 0 463.8 360)"/><path d="M212.6-453.54c-35.43 0-70.87 35.43-70.87 70.87s35.44 70.86 70.87 70.86h194.88c35.43 0 70.87-35.44 70.87-70.87 0-37.03-35.44-70.87-70.87-70.87H212.6z" transform="matrix(0 0 0 0 466.1 359.9)"/><path d="M212.6-453.54c-35.43 0-70.87 35.43-70.87 70.87s35.44 70.86 70.87 70.86h194.88c35.43 0 70.87-35.44 70.87-70.87 0-37.03-35.44-70.87-70.87-70.87H212.6z" transform="matrix(0 0 0 0 448.5 360.3)"/><path d="M212.6-453.54c-35.43 0-70.87 35.43-70.87 70.87s35.44 70.86 70.87 70.86h194.88c35.43 0 70.87-35.44 70.87-70.87 0-37.03-35.44-70.87-70.87-70.87H212.6z" transform="matrix(0 0 0 0 450.8 360.2)"/><path d="M212.6-453.54c-35.43 0-70.87 35.43-70.87 70.87s35.44 70.86 70.87 70.86h194.88c35.43 0 70.87-35.44 70.87-70.87 0-37.03-35.44-70.87-70.87-70.87H212.6z" transform="matrix(0 0 0 0 453.6 360.2)"/><path d="M212.6-453.54c-35.43 0-70.87 35.43-70.87 70.87s35.44 70.86 70.87 70.86h194.88c35.43 0 70.87-35.44 70.87-70.87 0-37.03-35.44-70.87-70.87-70.87H212.6z" transform="matrix(0 0 0 0 455.9 360.1)"/><path d="M212.6-453.54c-35.43 0-70.87 35.43-70.87 70.87s35.44 70.86 70.87 70.86h194.88c35.43 0 70.87-35.44 70.87-70.87 0-37.03-35.44-70.87-70.87-70.87H212.6z" transform="matrix(0 0 0 0 479.9 359.6)"/><path d="M212.6-453.54c-35.43 0-70.87 35.43-70.87 70.87s35.44 70.86 70.87 70.86h194.88c35.43 0 70.87-35.44 70.87-70.87 0-37.03-35.44-70.87-70.87-70.87H212.6z" transform="matrix(0 0 0 0 482.5 359.3)"/><path d="M212.6-453.54c-35.43 0-70.87 35.43-70.87 70.87s35.44 70.86 70.87 70.86h194.88c35.43 0 70.87-35.44 70.87-70.87 0-37.03-35.44-70.87-70.87-70.87H212.6z" transform="matrix(0 0 0 0 485.3 359)"/><path d="M212.6-453.54c-35.43 0-70.87 35.43-70.87 70.87s35.44 70.86 70.87 70.86h194.88c35.43 0 70.87-35.44 70.87-70.87 0-37.03-35.44-70.87-70.87-70.87H212.6z" transform="matrix(0 0 0 0 488 358.8)"/><path d="M212.6-453.54c-35.43 0-70.87 35.43-70.87 70.87s35.44 70.86 70.87 70.86h194.88c35.43 0 70.87-35.44 70.87-70.87 0-37.03-35.44-70.87-70.87-70.87H212.6z" transform="matrix(0 0 0 0 468.9 359.9)"/><path d="M212.6-453.54c-35.43 0-70.87 35.43-70.87 70.87s35.44 70.86 70.87 70.86h194.88c35.43 0 70.87-35.44 70.87-70.87 0-37.03-35.44-70.87-70.87-70.87H212.6z" transform="matrix(0 0 0 0 471.6 359.9)"/><path d="M212.6-453.54c-35.43 0-70.87 35.43-70.87 70.87s35.44 70.86 70.87 70.86h194.88c35.43 0 70.87-35.44 70.87-70.87 0-37.03-35.44-70.87-70.87-70.87H212.6z" transform="matrix(0 0 0 0 474.8 359.8)"/><path d="M212.6-453.54c-35.43 0-70.87 35.43-70.87 70.87s35.44 70.86 70.87 70.86h194.88c35.43 0 70.87-35.44 70.87-70.87 0-37.03-35.44-70.87-70.87-70.87H212.6z" transform="matrix(0 0 0 0 476.6 359.4)"/><path d="M212.6-453.54c-35.43 0-70.87 35.43-70.87 70.87s35.44 70.86 70.87 70.86h194.88c35.43 0 70.87-35.44 70.87-70.87 0-37.03-35.44-70.87-70.87-70.87H212.6z" transform="matrix(0 0 0 0 416.7 358.2)"/><path d="M212.6-453.54c-35.43 0-70.87 35.43-70.87 70.87s35.44 70.86 70.87 70.86h194.88c35.43 0 70.87-35.44 70.87-70.87 0-37.03-35.44-70.87-70.87-70.87H212.6z" transform="matrix(0 0 0 0 418.9 358.4)"/><path d="M212.6-453.54c-35.43 0-70.87 35.43-70.87 70.87s35.44 70.86 70.87 70.86h194.88c35.43 0 70.87-35.44 70.87-70.87 0-37.03-35.44-70.87-70.87-70.87H212.6z" transform="matrix(0 0 0 0 422.4 359.2)"/><path d="M212.6-453.54c-35.43 0-70.87 35.43-70.87 70.87s35.44 70.86 70.87 70.86h194.88c35.43 0 70.87-35.44 70.87-70.87 0-37.03-35.44-70.87-70.87-70.87H212.6z" transform="matrix(0 0 0 0 424.6 359.3)"/><path d="M212.6-453.54c-35.43 0-70.87 35.43-70.87 70.87s35.44 70.86 70.87 70.86h194.88c35.43 0 70.87-35.44 70.87-70.87 0-37.03-35.44-70.87-70.87-70.87H212.6z" transform="matrix(0 0 0 0 408.8 357.1)"/><path d="M212.6-453.54c-35.43 0-70.87 35.43-70.87 70.87s35.44 70.86 70.87 70.86h194.88c35.43 0 70.87-35.44 70.87-70.87 0-37.03-35.44-70.87-70.87-70.87H212.6z" transform="matrix(0 0 0 0 411.6 357.5)"/><path d="M212.6-453.54c-35.43 0-70.87 35.43-70.87 70.87s35.44 70.86 70.87 70.86h194.88c35.43 0 70.87-35.44 70.87-70.87 0-37.03-35.44-70.87-70.87-70.87H212.6z" transform="matrix(0 0 0 0 413.9 357.8)"/><path d="M212.6-453.54c-35.43 0-70.87 35.43-70.87 70.87s35.44 70.86 70.87 70.86h194.88c35.43 0 70.87-35.44 70.87-70.87 0-37.03-35.44-70.87-70.87-70.87H212.6z" transform="matrix(0 0 0 0 437.7 359.9)"/><path d="M212.6-453.54c-35.43 0-70.87 35.43-70.87 70.87s35.44 70.86 70.87 70.86h194.88c35.43 0 70.87-35.44 70.87-70.87 0-37.03-35.44-70.87-70.87-70.87H212.6z" transform="matrix(0 0 0 0 440 360)"/><path d="M212.6-453.54c-35.43 0-70.87 35.43-70.87 70.87s35.44 70.86 70.87 70.86h194.88c35.43 0 70.87-35.44 70.87-70.87 0-37.03-35.44-70.87-70.87-70.87H212.6z" transform="matrix(0 0 0 0 443.4 360.4)"/><path d="M212.6-453.54c-35.43 0-70.87 35.43-70.87 70.87s35.44 70.86 70.87 70.86h194.88c35.43 0 70.87-35.44 70.87-70.87 0-37.03-35.44-70.87-70.87-70.87H212.6z" transform="matrix(0 0 0 0 445.7 360.3)"/><path d="M212.6-453.54c-35.43 0-70.87 35.43-70.87 70.87s35.44 70.86 70.87 70.86h194.88c35.43 0 70.87-35.44 70.87-70.87 0-37.03-35.44-70.87-70.87-70.87H212.6z" transform="matrix(0 0 0 0 427.5 359.4)"/><path d="M212.6-453.54c-35.43 0-70.87 35.43-70.87 70.87s35.44 70.86 70.87 70.86h194.88c35.43 0 70.87-35.44 70.87-70.87 0-37.03-35.44-70.87-70.87-70.87H212.6z" transform="matrix(0 0 0 0 429.8 359.5)"/><path d="M212.6-453.54c-35.43 0-70.87 35.43-70.87 70.87s35.44 70.86 70.87 70.86h194.88c35.43 0 70.87-35.44 70.87-70.87 0-37.03-35.44-70.87-70.87-70.87H212.6z" transform="matrix(0 0 0 0 432.6 359.7)"/><path d="M212.6-453.54c-35.43 0-70.87 35.43-70.87 70.87s35.44 70.86 70.87 70.86h194.88c35.43 0 70.87-35.44 70.87-70.87 0-37.03-35.44-70.87-70.87-70.87H212.6z" transform="matrix(0 0 0 0 434.9 359.8)"/><path d="M212.6-453.54c-35.43 0-70.87 35.43-70.87 70.87s35.44 70.86 70.87 70.86h194.88c35.43 0 70.87-35.44 70.87-70.87 0-37.03-35.44-70.87-70.87-70.87H212.6z" transform="matrix(0 0 0 0 399.9 338.6)"/><path d="M212.6-453.54c-35.43 0-70.87 35.43-70.87 70.87s35.44 70.86 70.87 70.86h194.88c35.43 0 70.87-35.44 70.87-70.87 0-37.03-35.44-70.87-70.87-70.87H212.6z" transform="matrix(0 0 0 0 397.1 342.6)"/><path d="M212.6-453.54c-35.43 0-70.87 35.43-70.87 70.87s35.44 70.86 70.87 70.86h194.88c35.43 0 70.87-35.44 70.87-70.87 0-37.03-35.44-70.87-70.87-70.87H212.6z" transform="matrix(0 0 0 0 397 346.8)"/><path d="M212.6-453.54c-35.43 0-70.87 35.43-70.87 70.87s35.44 70.86 70.87 70.86h194.88c35.43 0 70.87-35.44 70.87-70.87 0-37.03-35.44-70.87-70.87-70.87H212.6z" transform="matrix(0 0 0 0 397.7 350.2)"/><path d="M212.6-453.54c-35.43 0-70.87 35.43-70.87 70.87s35.44 70.86 70.87 70.86h194.88c35.43 0 70.87-35.44 70.87-70.87 0-37.03-35.44-70.87-70.87-70.87H212.6z" transform="matrix(0 0 0 0 405.4 332.9)"/><path d="M212.6-453.54c-35.43 0-70.87 35.43-70.87 70.87s35.44 70.86 70.87 70.86h194.88c35.43 0 70.87-35.44 70.87-70.87 0-37.03-35.44-70.87-70.87-70.87H212.6z" transform="matrix(0 0 0 0 403.7 334.8)"/><path d="M212.6-453.54c-35.43 0-70.87 35.43-70.87 70.87s35.44 70.86 70.87 70.86h194.88c35.43 0 70.87-35.44 70.87-70.87 0-37.03-35.44-70.87-70.87-70.87H212.6z" transform="matrix(0 0 0 0 401.2 336.5)"/><path d="M212.6-453.54c-35.43 0-70.87 35.43-70.87 70.87s35.44 70.86 70.87 70.86h194.88c35.43 0 70.87-35.44 70.87-70.87 0-37.03-35.44-70.87-70.87-70.87H212.6z" transform="matrix(0 0 0 0 399.7 353.5)"/><path d="M212.6-453.54c-35.43 0-70.87 35.43-70.87 70.87s35.44 70.86 70.87 70.86h194.88c35.43 0 70.87-35.44 70.87-70.87 0-37.03-35.44-70.87-70.87-70.87H212.6z" transform="matrix(0 0 0 0 402.7 355.4)"/><path d="M212.6-453.54c-35.43 0-70.87 35.43-70.87 70.87s35.44 70.86 70.87 70.86h194.88c35.43 0 70.87-35.44 70.87-70.87 0-37.03-35.44-70.87-70.87-70.87H212.6z" transform="matrix(0 0 0 0 406.5 356.8)"/><path d="M212.6-453.54c-35.43 0-70.87 35.43-70.87 70.87s35.44 70.86 70.87 70.86h194.88c35.43 0 70.87-35.44 70.87-70.87 0-37.03-35.44-70.87-70.87-70.87H212.6z" transform="matrix(0 0 0 0 516.7 351.7)"/><path d="M212.6-453.54c-35.43 0-70.87 35.43-70.87 70.87s35.44 70.86 70.87 70.86h194.88c35.43 0 70.87-35.44 70.87-70.87 0-37.03-35.44-70.87-70.87-70.87H212.6z" transform="matrix(0 0 0 0 516.9 352.1)"/><path d="M212.6-453.54c-35.43 0-70.87 35.43-70.87 70.87s35.44 70.86 70.87 70.86h194.88c35.43 0 70.87-35.44 70.87-70.87 0-37.03-35.44-70.87-70.87-70.87H212.6z" transform="matrix(0 0 0 0 521.7 349.4)"/><path d="M212.6-453.54c-35.43 0-70.87 35.43-70.87 70.87s35.44 70.86 70.87 70.86h194.88c35.43 0 70.87-35.44 70.87-70.87 0-37.03-35.44-70.87-70.87-70.87H212.6z" transform="matrix(0 0 0 0 518.6 350.9)"/><path d="M212.6-453.54c-35.43 0-70.87 35.43-70.87 70.87s35.44 70.86 70.87 70.86h194.88c35.43 0 70.87-35.44 70.87-70.87 0-37.03-35.44-70.87-70.87-70.87H212.6z" transform="matrix(0 0 0 0 511.5 341)"/><path d="M212.6-453.54c-35.43 0-70.87 35.43-70.87 70.87s35.44 70.86 70.87 70.86h194.88c35.43 0 70.87-35.44 70.87-70.87 0-37.03-35.44-70.87-70.87-70.87H212.6z" transform="matrix(0 0 0 0 509.6 340.1)"/><path d="M212.6-453.54c-35.43 0-70.87 35.43-70.87 70.87s35.44 70.86 70.87 70.86h194.88c35.43 0 70.87-35.44 70.87-70.87 0-37.03-35.44-70.87-70.87-70.87H212.6z" transform="matrix(0 0 0 0 506.4 338.9)"/><path d="M212.6-453.54c-35.43 0-70.87 35.43-70.87 70.87s35.44 70.86 70.87 70.86h194.88c35.43 0 70.87-35.44 70.87-70.87 0-37.03-35.44-70.87-70.87-70.87H212.6z" transform="matrix(0 0 0 0 518.5 344.3)"/><path d="M212.6-453.54c-35.43 0-70.87 35.43-70.87 70.87s35.44 70.86 70.87 70.86h194.88c35.43 0 70.87-35.44 70.87-70.87 0-37.03-35.44-70.87-70.87-70.87H212.6z" transform="matrix(0 0 0 0 516 343.1)"/><path d="M212.6-453.54c-35.43 0-70.87 35.43-70.87 70.87s35.44 70.86 70.87 70.86h194.88c35.43 0 70.87-35.44 70.87-70.87 0-37.03-35.44-70.87-70.87-70.87H212.6z" transform="matrix(0 0 0 0 514 342.2)"/></g><g transform="matrix(.1 0 0 .1 438.4 288.1)"><path d="M212.6-1994.9v53.14h-53.15v35.44h53.15v106.3h35.44v-106.3h53.15v-35.44h-53.16v-53.15H212.6z" stroke="#000" stroke-width="1.2" fill="#fff133"/><ellipse rx="62.01" ry="57.32" stroke="#000" transform="matrix(.6 0 0 .6 93.6 -678.9)" cy="-1813.5" cx="239.17" stroke-width="1.2" fill="#fff133"/><path d="M602.36-1119.4c0 68.45-10.42 145.68-29.25 205.02-120.07-26.46-268.05-39.68-339.03-39.68-87.6 0-246.15 13.22-345.26 26.45-18.83-59.34-30.53-123.35-30.53-191.8 0-273.8 105.27-390.2 367.5-496.03 233.3 105.82 376.6 222.22 376.6 496.03z" transform="matrix(1.1 0 0 1.3 -5.8 363.7)" stroke="#000" stroke-width="1.2" fill="#fff"/><path d="M566.93-657.28c0-44-150.8-79.72-336.6-79.72s-336.62 35.7-336.62 79.72v26.57c0-44 150.8-70.87 336.62-70.87S566.92-657 566.92-613v-44.28z" transform="matrix(1.2 0 0 .7 -32.8 -634.9)" stroke="#000" stroke-width="1.2" fill="#fff133"/><g stroke="#000" stroke-width="1.2" fill="#fff133"><path d="M230.32-825.6l-53.15 53.16L212.6-737l-17.7 17.7-35.45-35.42-53.15 53.15 53.15 53.15 35.44-35.44 17.7 17.72V-613h35.44v-53.14l17.7-17.72 35.45 35.44 53.14-53.15-53.15-53.15-35.45 35.43-17.7-17.7 35.42-35.44-53.15-53.15z" transform="matrix(1.2 0 0 .7 -33.1 -766.8)"/><path d="M220.98-825.6l-8.38 53.16V-737l-17.7 17.7v-35.42l-17.73 53.15 17.72 53.14v-35.43l17.7 17.72V-613h17.72v-53.14l17.7-17.72v35.43l17.73-53.15-17.72-53.15v35.44l-17.7-17.7v-35.44l-9.35-53.15z" transform="matrix(1.1 -.2 .3 .7 -190 -703.6)"/><path d="M220.98-825.6l-8.38 53.16V-737l-17.7 17.7v-35.42l-17.73 53.15 17.72 53.14v-35.43l17.7 17.72V-613h17.72v-53.14l17.7-17.72v35.43l17.73-53.15-17.72-53.15v35.44l-17.7-17.7v-35.44l-9.35-53.15z" transform="matrix(1.1 .2 -.3 .7 182.2 -778.4)"/><path d="M141.73-1020.5c0-17.72 17.72-35.44 35.43-35.44 17.72 0 35.44 17.72 35.44 35.44s-17.72 35.43-17.72 35.43l70.87 70.87H230.3l-53.14-53.15L124-914.2H88.6l70.87-70.87s-17.72-17.7-17.72-35.43z" transform="matrix(.9 -.1 .2 .7 28.8 -521.9)"/><path d="M141.73-1020.5c0-17.72 17.72-35.44 35.43-35.44 17.72 0 35.44 17.72 35.44 35.44s-17.72 35.43-17.72 35.43l70.87 70.87H230.3l-53.14-53.15L124-914.2H88.6l70.87-70.87s-17.72-17.7-17.72-35.43z" transform="matrix(.9 .1 -.2 .7 124.8 -554.1)"/><path d="M566.93-657.28c0-44-150.8-79.72-336.6-79.72s-336.62 35.7-336.62 79.72v26.57c0-44 150.8-70.87 336.62-70.87S566.92-657 566.92-613v-44.28z" transform="matrix(1.2 0 0 .7 -33.1 -674.5)"/></g><path d="M566.93-657.28c0-44-150.8-79.72-336.6-79.72s-336.62 35.7-336.62 79.72v26.57c0-44 150.8-70.87 336.62-70.87S566.92-657 566.92-613v-44.28z" transform="matrix(1.1 0 0 .7 -9.3 -386.9)" stroke="#000" stroke-width="1.2" fill="#fff133"/><g stroke="#000" stroke-width="1.2" fill="#fff133"><path d="M230.32-825.6l-53.15 53.16L212.6-737l-17.7 17.7-35.45-35.42-53.15 53.15 53.15 53.15 35.44-35.44 17.7 17.72V-613h35.44v-53.14l17.7-17.72 35.45 35.44 53.14-53.15-53.15-53.15-35.45 35.43-17.7-17.7 35.42-35.44-53.15-53.15z" transform="matrix(1.1 0 0 .7 -12.9 -518.8)"/><path d="M220.98-825.6l-8.38 53.16V-737l-17.7 17.7v-35.42l-17.73 53.15 17.72 53.14v-35.43l17.7 17.72V-613h17.72v-53.14l17.7-17.72v35.43l17.73-53.15-17.72-53.15v35.44l-17.7-17.7v-35.44l-9.35-53.15z" transform="matrix(1.1 -.2 .3 .7 -160.7 -455.6)"/><path d="M220.98-825.6l-8.38 53.16V-737l-17.7 17.7v-35.42l-17.73 53.15 17.72 53.14v-35.43l17.7 17.72V-613h17.72v-53.14l17.7-17.72v35.43l17.73-53.15-17.72-53.15v35.44l-17.7-17.7v-35.44l-9.35-53.15z" transform="matrix(1.1 .2 -.3 .7 189.8 -530.4)"/><path d="M141.73-1020.5c0-17.72 17.72-35.44 35.43-35.44 17.72 0 35.44 17.72 35.44 35.44s-17.72 35.43-17.72 35.43l70.87 70.87H230.3l-53.14-53.15L124-914.2H88.6l70.87-70.87s-17.72-17.7-17.72-35.43z" transform="matrix(.9 -.1 .2 .7 45.4 -273.9)"/><path d="M141.73-1020.5c0-17.72 17.72-35.44 35.43-35.44 17.72 0 35.44 17.72 35.44 35.44s-17.72 35.43-17.72 35.43l70.87 70.87H230.3l-53.14-53.15L124-914.2H88.6l70.87-70.87s-17.72-17.7-17.72-35.43z" transform="matrix(.9 .1 -.2 .7 135.8 -306.1)"/><path d="M566.93-657.28c0-44-150.8-79.72-336.6-79.72s-336.62 35.7-336.62 79.72v26.57c0-44 150.8-70.87 336.62-70.87S566.92-657 566.92-613v-44.28z" transform="matrix(1.1 0 0 .7 -12.9 -426.4)"/></g><path d="M566.93-657.28c0-44-150.8-79.72-336.6-79.72s-336.62 35.7-336.62 79.72v26.57c0-44 150.8-70.87 336.62-70.87S566.92-657 566.92-613v-44.28z" transform="matrix(1.1 0 0 .7 -16.1 -865.2)" stroke="#000" stroke-width="1.2" fill="#fff133"/><g stroke="#000" stroke-width="1.2" fill="#fff133"><path d="M230.32-825.6l-53.15 53.16L212.6-737l-17.7 17.7-35.45-35.42-53.15 53.15 53.15 53.15 35.44-35.44 17.7 17.72V-613h35.44v-53.14l17.7-17.72 35.45 35.44 53.14-53.15-53.15-53.15-35.45 35.43-17.7-17.7 35.42-35.44-53.15-53.15z" transform="matrix(1.1 0 0 .7 -6.2 -1031.3)"/><path d="M220.98-825.6l-8.38 53.16V-737l-17.7 17.7v-35.42l-17.73 53.15 17.72 53.14v-35.43l17.7 17.72V-613h17.72v-53.14l17.7-17.72v35.43l17.73-53.15-17.72-53.15v35.44l-17.7-17.7v-35.44l-9.35-53.15z" transform="matrix(1 -.2 .3 .7 -150.7 -971.8)"/><path d="M220.98-825.6l-8.38 53.16V-737l-17.7 17.7v-35.42l-17.73 53.15 17.72 53.14v-35.43l17.7 17.72V-613h17.72v-53.14l17.7-17.72v35.43l17.73-53.15-17.72-53.15v35.44l-17.7-17.7v-35.44l-9.35-53.15z" transform="matrix(1.1 .2 -.2 .7 192.1 -1042.3)"/><path d="M141.73-1020.5c0-17.72 17.72-35.44 35.43-35.44 17.72 0 35.44 17.72 35.44 35.44s-17.72 35.43-17.72 35.43l70.87 70.87H230.3l-53.14-53.15L124-914.2H88.6l70.87-70.87s-17.72-17.7-17.72-35.43z" transform="matrix(.9 -.1 .2 .7 50.8 -800.3)"/><path d="M141.73-1020.5c0-17.72 17.72-35.44 35.43-35.44 17.72 0 35.44 17.72 35.44 35.44s-17.72 35.43-17.72 35.43l70.87 70.87H230.3l-53.14-53.15L124-914.2H88.6l70.87-70.87s-17.72-17.7-17.72-35.43z" transform="matrix(.9 .1 -.2 .7 139.3 -830.7)"/><path d="M566.93-657.28c0-44-150.8-79.72-336.6-79.72s-336.62 35.7-336.62 79.72v26.57c0-44 150.8-70.87 336.62-70.87S566.92-657 566.92-613v-44.28z" transform="matrix(1.1 0 0 .7 -6.2 -944.2)"/></g><ellipse rx="375.87" ry="120.53" transform="matrix(1 0 0 .4 12.9 -517.5)" cy="-822.11" cx="234.13" fill="#b90000"/></g><path d="M513.78-790.16l35.43-17.7 35.44 17.7s-73.36 35.43-73.36 159.45c0 88.57 125.26 106.3 125.26 212.6 0 45.64-34.18 88.57-69.62 88.57s-88.58-17.7-141.73-70.86c35.43 17.72 76.07 37.3 106.3 36.06 19.58-.4 55.02-17.7 55.02-53.15 0-70.85-122.77-106.9-122.77-213.2 0-124.02 50.02-159.45 50.02-159.45z" transform="matrix(.2 0 0 .2 381.9 336.2)" stroke="#000" stroke-width="1.2" fill="#fff"/><path d="M212.6-453.54c-35.43 0-70.87 35.43-70.87 70.87s35.44 70.86 70.87 70.86h194.88c35.43 0 70.87-35.44 70.87-70.87 0-37.03-35.44-70.87-70.87-70.87H212.6z" transform="matrix(0 0 0 0 454.4 384)" stroke="#000" stroke-width="17.96" fill="#b00"/><path d="M520.25-790.16l46.68-17.72 10 17.72s-70.65 35.43-70.65 159.45c0 88.57 125.9 106.3 125.9 212.6 0 45.64-26.72 87.35-65.25 88.57-73.4 2.36-90.45-23.96-141.73-70.86 43.15 32.3 105 46.76 129.02 34.2 29.36-15.38 35.03-36.07 35.03-53.8 0-70.85-120.9-104.4-120.9-210.7 0-124.02 51.9-159.45 51.9-159.45z" transform="matrix(.2 0 0 .2 381.9 336.2)" stroke="#000" stroke-width="1.2" fill="#fff"/><path d="M513.34-789.7c7-2.43 35.88-18.18 71.3 17.26 17.73 17.72 17.72 53.15 17.72 70.86l53.15-53.15s-29.05-86.87-107.6-53.6c-11.13 4.9-28.14 14.55-34.55 18.64z" transform="matrix(.2 0 0 .2 381.9 336.2)" stroke="#000" stroke-width="1.2" fill="#fff"/><path d="M523.8-795.94c8.84-2.87 36.68-6.33 64.6 18.5 17.7 17.72 18.96 42.93 18.96 60.65L648-754.7c3.45-3.2-24.82-81.25-99.23-54.04-4.5 1.8-14.78 6.3-24.97 12.82z" transform="matrix(.2 0 0 .2 381.9 336.2)" stroke="#000" stroke-width="1.2" fill="#fff"/><path d="M344.54-596.3l9.15 22.15s1.45-9.77 8.52-11.53l7.07-1.77s26.85 49.33 32.16 58.17c5.3 8.83-3.54 16.8-1.77 16.8 1.76 0 26.5-11.5 26.5-11.5s-10.6.88-15.02-6.2-34.82-59.92-34.82-59.92 6.2-2.65 11.5-5.3c5.3-2.66 10.6 7.95 10.6 7.95l-13.26-26.52s0 8.84-4.42 10.6c-4.42 1.78-7.96 3.54-7.96 3.54s-3.53-6.18-7.95-13.25c-4.42-7.08 4.42-14.15 4.42-14.15l-23 11.5s7.96 4.4 10.62 8.83l5.3 8.84s-3.22 1.77-8.22 3.48c-3.58 1.88-7.7.06-9.46-1.7z" transform="matrix(.2 0 .1 .2 476.4 338.9)" stroke="#000" stroke-width="1.2" fill="#fff133"/><path d="M344.54-596.3l9.15 22.15s1.45-9.77 8.52-11.53l7.07-1.77s26.85 49.33 32.16 58.17c5.3 8.83-3.54 16.8-1.77 16.8 1.76 0 26.5-11.5 26.5-11.5s-10.6.88-15.02-6.2-34.82-59.92-34.82-59.92 6.2-2.65 11.5-5.3c5.3-2.66 10.6 7.95 10.6 7.95l-13.26-26.52s0 8.84-4.42 10.6c-4.42 1.78-7.96 3.54-7.96 3.54s-3.53-6.18-7.95-13.25c-4.42-7.08 4.42-14.15 4.42-14.15l-23 11.5s7.96 4.4 10.62 8.83l5.3 8.84s-3.22 1.77-8.22 3.48c-3.58 1.88-7.7.06-9.46-1.7z" transform="matrix(-.2 0 0 -.1 595.4 97)" stroke="#000" stroke-width="1.2" fill="#fff133"/><path d="M212.6-453.54c-35.43 0-70.87 35.43-70.87 70.87s35.44 70.86 70.87 70.86h194.88c35.43 0 70.87-35.44 70.87-70.87 0-37.03-35.44-70.87-70.87-70.87H212.6z" transform="matrix(0 0 0 0 457.9 383.8)" stroke="#000" stroke-width="17.96" fill="#b00"/><path d="M212.6-453.54c-35.43 0-70.87 35.43-70.87 70.87s35.44 70.86 70.87 70.86h194.88c35.43 0 70.87-35.44 70.87-70.87 0-37.03-35.44-70.87-70.87-70.87H212.6z" transform="matrix(0 0 0 0 452.7 386.7)" stroke="#000" stroke-width="17.96" fill="#b00"/><path d="M212.6-453.54c-35.43 0-70.87 35.43-70.87 70.87s35.44 70.86 70.87 70.86h194.88c35.43 0 70.87-35.44 70.87-70.87 0-37.03-35.44-70.87-70.87-70.87H212.6z" transform="matrix(0 0 0 0 456 386.5)" stroke="#000" stroke-width="17.96" fill="#b00"/><path d="M212.6-453.54c-35.43 0-70.87 35.43-70.87 70.87s35.44 70.86 70.87 70.86h194.88c35.43 0 70.87-35.44 70.87-70.87 0-37.03-35.44-70.87-70.87-70.87H212.6z" transform="matrix(0 0 0 0 451.4 389.9)" stroke="#000" stroke-width="17.96" fill="#b00"/><path d="M212.6-453.54c-35.43 0-70.87 35.43-70.87 70.87s35.44 70.86 70.87 70.86h194.88c35.43 0 70.87-35.44 70.87-70.87 0-37.03-35.44-70.87-70.87-70.87H212.6z" transform="matrix(0 0 0 0 455.4 389.6)" stroke="#000" stroke-width="17.96" fill="#b00"/><path fill="#ffe000" d="M0 0h320v480H0z"/></g></svg>