<?xml version="1.0" encoding="utf-8"?>
<!-- Adopted from Wikimedia Foundation -->
<!-- By Cradel (current version), earlier version by Ningyou (Originally from Image:Flag of Kosovo.png.) [GFDL (http://www.gnu.org/copyleft/fdl.html) or CC-BY-SA-3.0 (http://creativecommons.org/licenses/by-sa/3.0/)], via Wikimedia Commons -->
<!DOCTYPE svg PUBLIC "-//W3C//DTD SVG 1.1//EN" "http://www.w3.org/Graphics/SVG/1.1/DTD/svg11.dtd">
<svg version="1.1" id="Layer_1" xmlns="http://www.w3.org/2000/svg" xmlns:xlink="http://www.w3.org/1999/xlink" x="0px" y="0px"
	 width="640px" height="480px" viewBox="0 0 640 480" enable-background="new 0 0 640 480" xml:space="preserve">
<title>Flag of Kosovo</title>
<rect fill="#244AA5" width="640" height="480"/>
<path fill="#D0A650" d="M253.024,224.834c0,0,1.188-0.8,1.621-0.907c0.435-0.106,1.969-0.586,1.969-0.586s0.984-0.506,1.506-0.506
	c0.55,0,1.622,0.586,1.969,1.093c0.319,0.507,2.056,1.387,2.056,1.387s1.187,0.4,1.418,0c0.232-0.4,0.753-0.693,1.303-0.693
	c0.551,0,0.637-0.507,0.637-0.907s0.232-0.907,0.637-1.387c0.435-0.506,1.303-0.8,1.303-0.8s1.188-0.506,1.303-1.2
	c0.116-0.693,1.304-1.2,1.969-1.307c0.638-0.106,0-0.4,1.737-0.213c1.738,0.213,1.969-0.4,2.056-0.907
	c0.116-0.506,0-1.013,1.1-0.906c1.1,0.106,1.622,0.106,1.622-0.507c0-0.587,0.984-0.907-0.753-1.387
	c-1.737-0.506-1.622-0.106-1.737-0.906c-0.116-0.8,0-0.693-1.187-0.8c-1.188-0.107-0.55-0.694-0.637-1.307
	c-0.116-0.587-0.435-0.907-0.637-1.307c-0.232-0.4-0.869-0.4-0.869-0.986c0-0.587-0.116-0.907-0.752-0.907s-0.869,0-0.869-0.587
	c0-0.586,0.116-1.093,0.753-1.093c0.637,0,0.984-0.507,0.869-1.093c-0.116-0.587-0.116-1.893-0.116-1.893l0.869-1.014
	c0,0,2.605-2.107,2.837-2.507c0.232-0.4,1.101-0.693,1.506,0.107c0.435,0.8,0.637,1.014,0.984,1.387
	c0.318,0.4,1.303,0.106,1.505-0.293c0.232-0.4,0.318-1.867,0.898-2.667c0.579-0.773,0.984-1.173,1.129-1.813
	c0.145-0.64,0.435-1.173,1.129-1.173s1.128-0.907,1.128-1.44s0.29-1.04,1.13-1.173c0.839-0.133,1.273-0.64,1.563,0.133
	c0.29,0.773,0.579,0.773,1.129,1.04c0.579,0.267,1.418,0.64,1.824,0.267c0.435-0.4,0.637-1.04,1.274-0.64
	c0.608,0.4,1.042,0,1.188-0.773c0.144-0.773,0.29-1.813,0.29-1.813s0.144-0.533,1.128-0.533s0.29-0.64,0.84-1.04
	c0.579-0.4,0.579-0.773,1.273-0.533c0.695,0.267,1.824-0.32,1.274-0.96c-0.579-0.64-1.824-1.68-1.129-2.48
	c0.695-0.773,0.984-2.08,0.29-2.213c-0.695-0.134-1.708,0.133-1.824-0.64c-0.145-0.773-0.435-1.307,0.435-1.44
	c0.839-0.134,2.258-0.134,2.692-0.534s1.824-0.64,1.824-1.813s0.435-1.307,0.579-1.947c0.145-0.64,0.145-2-0.434-2.64
	c-0.58-0.64-1.418-1.573-1.564-1.947c-0.144-0.4-0.695-1.04-1.563-1.306c-0.839-0.267-1.563-0.4-1.563-1.041
	c0-0.64,0.579,0.134,0.579-1.573c0-1.68-1.129-1.946-1.129-1.946l-1.708-1.04c0,0-3.011-0.8-3.822-0.8
	c-0.811,0-1.737-0.853-0.811-1.387c0.927-0.533,1.158-1.493,0.811-2.24c-0.348-0.747-0.579-1.28-1.853-1.6
	c-1.274-0.32-1.622-0.64-1.042-1.387c0.579-0.747,0.695-1.28,1.39-0.747s1.853,0.747,2.779,0.32s1.274-0.747,1.737-0.32
	c0.463,0.427,1.042,0.854,1.737,0.213s1.969-0.747,2.547-0.427c0.579,0.32,1.969,0.213,2.433,0c0.462-0.213,1.39-0.96,1.39-1.387
	s0.579-1.173,1.158-1.493c0.579-0.32,1.274-1.387,1.853-1.387c0.58,0,0.811-0.64,0.811-1.067c0-0.426,0.464-1.28,0.579-1.6
	c0.116-0.32,1.274-0.773,2.085-0.107c0.81,0.64,1.853,0.854,1.853,0.854s1.158,0.213,1.737,0c0.579-0.213,1.39-0.427,2.2,0.106
	c0.811,0.533,1.969,0.533,1.969,0.533s0.232-0.853,0.232-1.28c0-0.426,0.231-1.173-0.232-1.494c-0.463-0.32-1.042-0.747-0.115-1.386
	c0.926-0.64,0.926-0.534,1.853-0.534s1.505,0.107,2.2,0.107s1.854,0.64,1.854,1.28c0,0.64,0.463,1.066,1.042,1.386
	c0.58,0.32,1.274,0.64,1.042,1.173c-0.231,0.534-0.231,0.96,0.463,0.854c0.695-0.107,0.926,0.32,0.926,0.854
	c0,0.533,0.231,0.853,0.927,1.066c0.695,0.213,1.042,0.64,1.042,1.173s-0.116,0.853,0.116,1.387
	c0.231,0.533,0.926,1.387,0.926,1.387s1.274,1.493-0.347,0.747c-1.622-0.747-1.969-1.067-2.548-0.96
	c-0.579,0.107-0.926,0.427-0.926,0.427s-0.811,0.213-1.39,0.213c-0.579,0-1.158,1.173-0.231,1.387
	c0.926,0.213,1.273,0.426,1.273,1.173c0,0.747-0.347,0.533-0.811,1.066c-0.462,0.533-0.81,0.213-1.621,0.213
	c-0.81,0-1.042,0.64-1.042,1.28c0,0.64,0.348,0.533,0.695,1.066c0.348,0.533,0.927,0.64,1.506,0.107
	c0.579-0.534,1.042-0.854,1.389,0.106c0.347,0.96,0.811,0.96,1.506,0.96c0.695,0,0.926,0,1.505-0.32c0.579-0.32,1.274,0,1.39,0.854
	c0.116,0.853,0.695,0.959,1.274,1.279c0.579,0.32,0.926,0.534,1.042,1.067c0.116,0.533,0.463,0.747,1.042,0.427
	c0.579-0.32,1.505-0.533,1.853-0.106c0.347,0.426,0.926,1.28,0.926,1.28l0.116,1.066l2.2,0.747c0,0,0.232,0.534,0.232,0.96
	s0.347,0.64,0.926,0.533c0.579-0.106,1.621,0,1.621,0s0.811-0.32,0.811-0.96c0-0.64,0.347-0.854,0.926-0.854
	c0.58,0,1.854,0.427,2.201-0.213c0.348-0.641,1.39-0.854,2.2-0.534c0.811,0.32,2.895,1.173,2.895,1.173s-0.231,0.107,0.464,1.173
	c0.695,1.066,1.969,1.066,1.969,1.066s0.116,0.96,0.347,1.387c0.231,0.426,1.274,0.64,1.853,0.213
	c0.579-0.427,1.39-0.959,2.084-0.959c0.695,0,1.158,0,1.158-0.427s-0.695-0.747-0.695-1.387c0-0.64,0.695-0.64,0.811-1.28
	s0.811,0,1.274,0.32c0.463,0.32,1.042,0.853,1.042,1.28s0.926,1.92,1.505,2.133c0.58,0.213,2.085,0.32,2.548-0.213
	c0.463-0.533,1.622-0.747,1.505,0.533c-0.116,1.28-0.348,1.387,0.463,1.813c0.811,0.427,0.927,1.92,0.231,2.347
	c-0.695,0.427-0.926,0.534-0.926,1.28s-0.232,1.6,0.348,2.026c0.579,0.427,0.926,0.747,0.926,1.173s0.695,2.347,0.695,2.347
	s0.348,1.92,0.231,2.347s-0.348,1.173,0.695,1.066c1.042-0.106,1.274-0.106,1.274,0.747s0.348,1.173-0.231,1.493
	c-0.579,0.32-0.926,1.387-0.347,1.6c0.579,0.213,1.042,0.533,1.158,0.96s1.042,1.173,1.621,0.747c0.58-0.426,0.695-0.64,1.159-0.747
	c0.462-0.106,0.81-0.427,0.347-0.96c-0.463-0.533-0.579-1.067-0.116-1.387c0.464-0.32,0.695-1.387,0.695-1.387s0.695-0.96,1.505,0
	c0.811,0.96,0.927,0.64,1.506,0.64c0.579,0,0.81,0.533,0.81,1.066c0,0.534,1.159,0.427,1.159,1.28c0,0.853,0.231,2.88,0.231,2.88
	s0,1.173,0.695,1.6c0.695,0.427,0.579,0.533,0.231,1.066c-0.348,0.534-0.231,1.387-0.231,1.813s0.231,0.64-0.348,1.066
	c-0.579,0.427-0.81,0.96-0.463,1.6c0.348,0.64,0.231,1.067,1.158,1.814c0.926,0.746,0.811,1.066,0.811,1.6s0.926,1.28,0.926,1.813
	c0,0.534,0.695,1.173,1.274,1.28c0.579,0.107,1.274,1.066,1.274,1.6c0,0.533,0.116,1.92,0.116,1.92s-0.116,0.32,0.579,0.32
	s1.158,0.747,1.39-0.106c0.231-0.853,0.926-0.96,1.389-1.173c0.463-0.213,1.39-0.64,1.853-0.32c0.463,0.32,1.042,0.32,1.505,0.32
	c0.463,0,2.664,0.106,2.664,0.106s0.579-0.106,0.926,0.747c0.348,0.854,1.39,1.813,0.811,2.24c-0.579,0.427-0.579,1.28,0.116,1.28
	c0.694,0,1.389,0,1.389,0.533s0.116,0.96,0.695,0.64c0.579-0.32,0.926-0.427,1.159,0c0.231,0.427,0.695,0.427,1.274,0.747
	c0.579,0.32,0.81,0.106,1.158-0.32c0.347-0.427,1.737-0.854,1.737-0.854s1.853-0.427,2.547-0.213c0.695,0.213,1.622,0.64,1.622,0.64
	s0.463,1.066,0.232,1.706c-0.232,0.641-0.463,0.534-0.232,1.494c0.232,0.96-0.231,1.067-0.694,0.96
	c-0.463-0.106-0.927-0.106-0.927,0.747c0,0.854-0.462,1.067-0.462,1.813s0,0.64-0.464,0.96c-0.463,0.32-0.579,0.853,0.116,0.96
	s0.463,0.854,0.463,1.28s-0.115,1.386-0.115,1.386s0.115,0.534-0.695,0.534c-0.811,0-1.506-0.107-1.621,0.427
	c-0.116,0.533-1.042,1.387-0.232,1.92c0.811,0.533,0.58,0.853,0.116,1.066c-0.463,0.213-0.81,1.28,0.116,1.6s0.81,0.64,0.231,1.066
	c-0.579,0.427-1.737,0.747-1.737,1.387c0,0.64-0.231,0.64-0.926,0.747c-0.695,0.106-1.042,0.96-0.231,2.027
	c0.81,1.066,1.042,0.853,1.621,0.853c0.579,0,0.579-0.853,0.579-0.853s1.969,0.106,2.547,0.106c0.58,0,1.39,0,1.854-0.321
	c0.463-0.32,1.737-0.853,1.737,0.107c0,0.959,0.231,0.854,0.81,1.28c0.579,0.427,0.695,0.107,1.159,0.747
	c0.463,0.64,0.579,0.107,0.926-0.64c0.348-0.747,1.042-1.494,1.622-0.64c0.579,0.853,0.579,0.64,1.273,0.64
	c0.695,0,0.926,0.32,0.926,0.853c0,0.535,0.695,0.535,1.506,0.427c0.81-0.107,0.926,0.427,1.273,0.96
	c0.348,0.533,0.463,0.427,0.927,0.427c0.462,0,0.926,0,1.273-0.427c0.348-0.426,0.811-0.96,1.274-0.32
	c0.463,0.64,1.39,0.533,1.621-0.213c0.231-0.747,1.274-1.387,1.854-0.534c0.578,0.854,1.041,0.854,1.621,0.96
	c0.579,0.106,1.389,0.106,1.736,0.64c0.348,0.534,1.506,1.387,0.695,2.027c-0.811,0.64-1.737,1.494-1.043,1.706
	c0.695,0.214,1.159,0.427,1.622,0.961c0.463,0.533,1.969,0.746,2.663,0.853c0.695,0.106,1.274,0.213,2.085-0.427
	c0.811-0.64,1.621-0.64,1.506,0.213c-0.116,0.854,0.347,1.813,0.347,1.813s0.58,1.387,0.58,1.919c0,0.534-0.116,0.641,0.926,1.28
	c1.043,0.64,0.927,1.066,1.737,0.427c0.811-0.64,1.042-0.96,1.042-1.493c0-0.534,0-1.707,0-1.707s1.158-0.213,1.622-0.533
	c0.463-0.32,2.315-1.281,2.779-0.854c0.463,0.427,1.042,0.32,1.505,0.107c0.464-0.214,1.39-0.214,1.854-0.214
	c0.463,0,1.273,0.107,2.2-0.64c0.926-0.746,0.926-0.533,1.506,0c0.579,0.534,0.579,1.174,0.231,1.601s0,1.386,0.811,1.386
	s1.042,0.427,1.042,0.96c0,0.533,0.116,1.28,0.232,1.706c0.115,0.427,0.115,0.64,1.389,0.96c1.274,0.32,1.043,1.066,1.274,1.6
	c0.231,0.534,0.231,0.961-0.463,0.961c-0.695,0-0.927,0.32-1.043,0.853c-0.116,0.533-1.157,0.747-1.157,0.747l-1.043-0.214
	c0,0-0.694,0-1.042,0.427s-1.043,1.28-0.579,2.026c0.463,0.747,0.463,1.174,0,1.494c-0.464,0.32-0.695,1.92-1.158,1.6
	c-0.463-0.32-1.043,0.106-1.506,0.32c-0.463,0.212-0.347,1.707,0.579,2.239c0.927,0.534,1.158,1.281,1.158,1.281l1.042,1.6
	c0,0-0.348,0.321-0.579,0.854c-0.231,0.533-0.926,1.6-0.231,1.813c0.695,0.214,0.348,1.387-0.347,1.387
	c-0.695,0-1.506-0.32-1.622,0.533c-0.115,0.853-0.463,0.64-1.158,0.533c-0.694-0.106-2.432-0.533-2.895,0.32
	c-0.464,0.854-0.579,1.174-1.391,1.067c-0.81-0.106-0.463,1.28-0.231,1.814c0.231,0.533,1.043,1.28,1.043,1.28
	s0.694,0.533,0.694,1.6s-0.463,0.96-0.926,0.213c-0.464-0.747-1.39-0.64-1.506,0.214c-0.116,0.853-0.231,2.132-1.043,2.132
	c-0.81,0-1.157,0.214-1.505,0.641s-0.927,1.173-0.927,1.6s-0.115,0.854-0.694,0.96c-0.579,0.106-0.695,1.28-0.695,1.28
	s-1.39,0.213-1.506,0.747c-0.115,0.533,0.116,1.387-1.042,1.493c-1.158,0.107-1.853,0.854-2.2,1.387
	c-0.348,0.534-0.463,0.96,0,1.493c0.463,0.534,0.811,2.241,1.39,2.561s1.042,0.426,0.927,1.28c-0.116,0.854-0.811,1.493,0.115,1.493
	c0.927,0,1.506,0.214,1.158,0.961c-0.348,0.746-0.348,0.854-1.042,1.173s-1.042,0.319-1.042,1.173s0.231,0.854-0.348,1.174
	s-0.579,0.747-0.579,1.387c0,0.641-0.231,0.427-0.927,1.174c-0.695,0.746-1.621,0.746-2.2,0.533
	c-0.579-0.214-0.695-0.214-0.811-0.854c-0.116-0.641-1.158-0.641-1.737-0.533c-0.579,0.106-1.39,0.747-1.39,0.747
	s-1.042,0.64-0.579,1.173s0.231,1.387-0.579,1.28c-0.811-0.107-2.663,0.854-3.243-0.107c-0.579-0.96-2.2-1.6-2.432-0.32
	c-0.231,1.281,0.695,1.174,0.579,2.453c-0.116,1.281-0.347,1.281-0.81,1.707c-0.463,0.428-0.463,0.747-0.58,1.28
	c-0.115,0.533-0.231,1.707,0.58,2.134c0.81,0.426,1.158,1.6,1.158,2.239c0,0.641,0,1.28,0.811,1.28c0.81,0,1.505-0.106,1.621-0.853
	c0.115-0.747,1.737-1.174,1.853,0.319s0.116,2.239,0.694,2.88c0.579,0.641,1.043,1.494,1.506,1.813
	c0.463,0.32,1.245,3.04,1.245,3.04c-1.129,0.24-1.419,1.706-2.143,2c-0.405,0.159-0.84,0.026-1.216,0.294
	c-0.289,0.212-0.289,0.612-0.695,0.8c-0.84,0.373-0.695-0.935-1.708-0.453c-0.926,0.426-1.014,1.493-2.345,1.039
	c-0.695-0.239-1.129-2.96-1.332-3.6c-0.115-0.374-0.839-1.493-1.071-1.84c-0.781-1.174-2.345,0-2.837-0.347
	c-0.782-0.534-0.435-1.44-1.622-1.547c-2.403-0.16-0.695,1.467-1.708,1.84c-1.94,0.693-1.94-1.813-3.388-0.667
	c-0.55,0.428,0.869,0.693,0.521,1.44c-0.29,0.613-1.708,1.546-1.621,2.267c0.116,0.986,1.187,1.279,1.505,2.107
	c0.869,2.186-0.579,3.706-2.75,2c-1.216-0.961-1.448-2.747-3.33-2.614c-0.435,0.027-0.579,0.48-1.013,0.533
	c-0.435,0.027-0.782-0.399-1.245-0.266c-0.695,0.239-0.087,0.719-0.232,1.119c0,0-0.926,0.773-1.071,0.987
	c-0.521,0.693-0.347,1.307-1.101,1.866c-0.637,0.48-1.129,0.187-1.824,0.934c-0.723,0.773-0.781,1.92-1.708,2.666
	c-0.463,0.374-0.782-1.119-1.361-0.133c-0.087,0.133-0.174,0.267-0.231,0.4c-0.145,0.293-0.174,0.426-0.029,0.746
	c1.215,2.347-1.332,3.227-2.114,4.88c-0.347,0.693,0.608,1.334,0.231,1.867c-0.26,0.399-1.389,1.493-1.476,1.732
	c-0.087,0.241-0.203,0.774-0.405,0.96c-0.203,0.214-0.897,0.107-0.956,0.428c-0.058,0.373,0.724,0.666,0.926,0.906
	c0.261,0.294-0.116,0.693-0.029,0.773c1.303,1.307,0.521,0.906,1.188,2.053c0.086,0.161,0.492-0.133,0.637,0.294
	c0.145,0.399-0.318,0.373-0.145,0.827c0.029,0.133,0.956,1.333,0.956,1.359c0.058,0.399-1.766,1.227-2.171,1.227
	c-1.101,0.026,0.956-2.267-0.84-2.267c-0.781,0-0.839,1.787-1.042,1.974c-0.087,0.079-0.811,0-0.985,0
	c-1.158,0-1.911,1.439-2.374,1.573c-0.29,0.106-0.926-0.16-1.419-0.08c-0.463,0.08-1.013,0.533-1.448,0.533
	c-0.29,0-0.434-0.187-0.666-0.319c-0.521-0.294-1.476-0.428-2.055-0.614c-0.318-0.106-0.926,0.4-1.129,0.268
	c-0.376-0.241,0.26-0.907-0.608-1.388c-0.116-0.054-0.753-1.6-0.724-1.68c0.29-1.014,0.608-2.106,0.464-3.174
	c-0.174-1.093-1.882-2.026-2.345-2.906c-0.348-0.666-0.666-2.427-1.332-2.88c-0.724-0.479-1.39-1.414-1.767-2.133
	c-0.115-0.214,0.232-0.587-0.029-0.96c-0.29-0.4-0.839-0.561-0.984-1.094c-0.115-0.427,0-1.813-0.492-2.106
	c-0.55-0.32-4.083-0.747-4.951-0.827c-0.463-0.026-0.811-0.026-1.158-0.373c-0.145-0.133-0.376-0.693-0.492-0.693
	c-0.348-0.027-0.753,0.16-1.101,0.187c-0.26,0.027-0.695-0.16-0.926,0c-1.129,0.773-1.419,1.76-2.49,2.586
	c-1.101,0.828-2.316,0.801-3.417,1.761c-0.695,0.613-1.158,2.08-1.853,2.773c-0.289,0.294-0.753,0-0.869,0.133
	c-0.579,0.721-1.389,1.147-1.969,1.814c-0.116,0.133-0.086,0.399-0.231,0.507l-1.245,0.319c-0.318,0.053-0.926-0.026-1.188,0.053
	c-0.579,0.187-0.55,0.801-2.519,1.2c-0.144,0.027-0.405,0.16-0.521,0.24c-0.232,0.16-0.406,0.399-0.637,0.56
	c-0.145,0.107-0.58-0.079-0.84-0.053c-0.492,0.08-0.781,0.507-1.245,0.56c-1.042,0.133-2.722-0.479-3.532-0.16
	c-0.493,0.188-1.854,1.707-2.345,1.867c-0.318,0.106-0.55-0.027-0.897-0.16c-0.174,0.214-0.58,1.867-0.724,2.24
	c0,0.026-2.229,1.893-2.403,2.106c-0.29,0.32-0.406,0.667-0.753,1.014c-0.231,0.239-0.608,0.453-0.984,0.453
	c-0.463,0-1.158-0.347-1.592-0.427c-0.839-0.134-3.359-0.24-4.111-0.08c-0.782,0.16-0.551,2.4-2.491,2.613
	c-1.128,0.134-2.171,0.347-3.33,0.454c-0.115,0-0.81-0.48-1.505-0.294c-0.261,0.08-1.101,0.934-1.101,1.2v0.479
	c0,0.08,0.232,0.373,0.203,0.4c-0.435,0.507-1.419,1.307-1.737,1.894c-0.087,0.16-0.203,0.347-0.348,0.453
	c-0.26,0.187-1.592,0.693-1.708,0.933c-0.319,0.801,0.926,1.547,0.811,1.867c-0.348,1.04-1.738,2.026-2.172,2.986
	c-0.174,0.4,0.463,1.734,0.434,2.188c-0.145,1.253-0.579,2.853-0.521,4.08c0,0.239,0.173,1.493,0.26,1.626
	c0.145,0.24,0.463,0.374,0.666,0.587c0.202,0.213,1.737,3.2,1.794,3.52c0.29,2.214-2.924,1.44-1.07,3.653
	c0.289,0.347,0.521,0.721,0.839,1.014c0.406,0.4,2.78,2.133,2.809,2.32c0.057,0.319-1.912,0.641-2.259,0.986
	c-0.927,0.907-1.708,2.587-2.606,3.52c-0.55,0.588-1.042-0.053-1.766,1.308c-0.261,0.506,0,1.653-0.318,1.974
	c-0.463,0.479-0.84-0.16-1.303,0.053c-0.203,0.08-0.318,0.666-0.521,0.826c-0.521,0.454-5.153,2.907-5.588,2.693
	c-0.231-0.106-0.492-0.88-0.521-1.119c-0.058-0.268-0.348-0.854-0.579-1.04c-1.188-1.014-3.011-1.2-4.17,0.026
	c-0.29,0.32-0.318,0.8-0.695,1.12c-0.637,0.533-1.361,1.013-1.969,1.547c-0.115,0.106-0.463,0.506-0.608,0.479
	c-0.463-0.054-1.592-1.333-1.882-1.68c-0.521-0.613-2.027-2.08-2.172-2.773c0-2.373-1.853-4.854-2.635-7.173l1.159,0.026
	c1.303-0.88,0.926-3.04,3.271-2.187c0.29-0.4,0.261-0.827,0.811-1.12c0.203-0.107,0.579-0.214,0.694-0.4
	c0.782-1.2,1.708-5.786,0.898-6.96c-0.724-1.066-1.477-1.013-2.056-2.773c-0.174-0.48,0.144-1.039,0-1.573
	c-0.116-0.427-0.897-2.96-1.014-3.146c-0.145-0.214-0.637-0.479-0.666-0.613c-0.029-0.213-0.203-2.96-0.116-3.174
	c-0.781-2.133-3.416-3.493-3.561-3.732c-0.318-0.507-0.637-1.174-0.984-1.734c-0.406-0.666-0.406-1.013-0.637-1.653
	c-0.087-0.293-0.521-0.533-0.55-0.854c-0.058-0.559,1.535-1.732,1.477-2.72c-0.029-0.32-1.014-1.28-0.811-1.813
	c0.203-0.56,1.216-1.813,1.187-2.426c-0.058-0.827-1.592-2.613-1.795-3.494c-0.087-0.427,0.608-0.772,0.434-1.066
	c-0.203-0.373-1.824-1.84-2.084-2.267c-0.203-0.319,0.608-0.747,0.029-1.333c-0.521-0.533-0.087-0.347-0.232-0.8
	c-0.173-0.507-0.752-0.961-0.984-1.493c-0.202-0.454-1.592-5.468-1.563-5.761c-0.231-0.347-0.637-0.64-0.839-0.986
	c-0.203-0.347-0.29-1.014-0.463-1.28c-0.029-0.026-1.563-0.479-1.853-0.934c-0.232-0.373-0.289-1.6-0.695-2.213
	c-0.203-0.294-0.521-0.24-0.753-0.454c-0.202-0.159-0.173-0.453-0.318-0.64c-0.463-0.64-1.39-0.053-2.027-2.399
	c-0.839-0.587-1.621-1.094-2.345-1.813c-0.145-0.134-0.231-0.294-0.405-0.373c-0.58-0.24-1.448-0.32-1.94-0.747
	c-0.29,0-1.824-0.053-1.998-0.16c-0.173-0.106-0.347-0.773-0.463-0.8c-0.811-0.16-2.143-0.08-2.837-0.667
	c-0.55-0.479-0.666-2.8-1.65-2.479c-0.116-0.054-0.261-0.106-0.406-0.08c-0.637-0.827-2.838-0.934-3.735-1.467
	c-0.261-0.16-1.101-0.027-1.101-0.267c0.203-0.453,0.145-0.826,0.174-1.28c-0.493-0.48-0.811-1.04-1.159-1.387
	c-0.839-0.187-0.521-0.267-1.042-0.587c-1.448-0.106-1.593,0.134-2.52,0.987c-0.231,0.213-0.695,0.267-0.984,0.427
	c-0.492,0.267-0.637,1.146-1.332,0.746c-0.231-0.133-0.376-0.347-0.55-0.507c-0.405-0.347-0.637-0.16-0.839-0.8
	c-1.188-0.64-4.459,1.574-5.241,0.027c-0.55-0.294-0.956,0.08-1.418-0.4c-0.231-0.24,0.637-2.906-1.737-4
	c0.55-0.427,1.129-0.72,1.65-1.12c0.145-0.293-0.029-0.746-0.029-1.04c0-0.453,0.289-1.333,0.203-1.653
	c-0.087-0.32-0.435-0.586-0.551-0.96c-0.145-0.374,0.029-0.854-0.173-1.253c-0.145-0.107-0.579-0.373-0.753-0.373
	c-0.608-0.508-1.274-0.827-1.767-1.441c-0.115-0.133-0.202-0.373-0.347-0.479c-0.434-0.32-1.853-0.747-1.795-1.414
	c0.029-0.213,0.318-0.24,0.405-0.453c0.087-0.268,0.029-0.613,0.232-0.854c0.666-0.906,2.142-0.508,1.911-2.187
	c-0.115-0.747-0.637-1.386-0.781-2.186c-0.261-0.187-0.29-0.507-0.521-0.694c-1.448-0.133-1.245-1.626-1.766-1.973
	c-1.535-1.04-2.721-0.4-1.014-2.454c0.232-0.667-1.477-1.733-1.824-2.106c-0.608-0.587-0.318-1.813-0.55-2.453
	c-0.116-0.32-1.129-0.88-1.448-1.333c-0.086-0.134-0.347-0.827-0.492-0.906l0.029-0.214c0.318-0.239,0.145-0.719,0.058-1.039
	c-0.203-0.187-0.637-0.133-0.782-0.267c-1.39-1.253-3.069-1.812-4.893-2.533c-0.492-0.187-0.348-0.587-0.753-0.773
	c-0.347-0.16-2.808-1.253-2.982-1.2c-0.29-0.08-0.492-1.174-0.695-1.521c-0.174-0.32-0.869-0.906-0.869-0.933
	c0.058-1.014-0.579-1.146-1.361-1.68c0.058-0.133-0.087-0.453-0.087-0.613c0-0.133,0.521-1.893,0.608-2.133
	c0.145-0.374,0.637-0.72,0.55-1.147c-0.116-0.667-0.203-1.707-0.434-2.293c-0.782-2.08-1.708-1.814-1.216-4.534
	c0.116-0.56-0.087-0.879,0.348-1.386c-0.058-0.027,0.203-0.294,0.231-0.347c0.261-0.24,0.984-0.64,1.129-0.827
	c0.434-0.586,0.695-1.919,1.245-2.347c0.405-0.32,1.563-0.933,1.766-1.199c0.174-0.214,0.435-0.881,0.29-1.147
	c-0.405-0.24-0.811-0.133-1.216-0.186c-0.145-0.027-0.666-0.4-1.071-0.48c-0.116-0.133-0.318-0.293-0.318-0.48l-0.174-0.16
	c-0.463-0.054-0.984-0.347-1.39-0.48c-0.521-0.213-1.245-0.24-1.737-0.533c-0.927-0.533-1.969-2-2.866-2.213
	c-1.216-0.267-1.998,0.105-3.156,0.159c-0.753,0.054-0.753-0.399-1.361-0.586c-0.811-0.239-0.203,0.427-2.056-0.16
	c-0.231-0.187,0.116-0.827,0.145-1.066c-0.289-0.081-0.637,0.08-0.984,0c-1.534-0.374-0.955-1.76-1.36-2.667
	c-0.174-0.214-0.811-0.161-1.101-0.188c-0.086-0.027-0.116-0.159-0.086-0.213l0.145-0.107c0.261-0.4-0.666-1.413-0.637-1.546
	c0.058-0.32,1.939-0.613,2.2-0.64c0.087-0.24-0.174-0.454-0.203-0.693c-0.058-0.533,0.29-1.227,0.463-1.707l-0.058-0.16
	c-0.521-0.294-0.695-0.72-1.158-1.067c0.029-0.24,0.348-0.399,0.406-0.64c0.897-2.479,2.287-0.506,3.503-2.8
	c0.116-0.213,0.463-0.773,0.579-1.146l0.232-0.054c0.231,0.054,0.55,0.241,0.781,0.16c0.174-0.24,0.55-0.32,0.84-0.4l0.434,0.107
	c2.258-0.48,1.737-1.307,3.04-2.24c0.347-0.24,1.361-0.347,1.824-0.507c0.492,0.213,1.188,0.987,2.114,1.333
	c0.666,0.267,2.953,0.747,3.33,0.96c0.492,0.267,0.579,0.907,1.013,1.147c1.303,0.693,0.55-0.481,1.795-0.24
	c1.274,0.267,2.316,1.307,3.503,1.813c0.203,0.081,0.695-0.027,0.926-0.08c0.376-0.08,2.403-0.453,2.606-0.374
	c0.231,0.08,0.579,0.293,0.811,0.347c0.289,0.053,0.521-0.56,0.724-0.533c0.869,0.134,0.897,0.48,2.056,0.374
	c0.058,0,0.608-3.253,1.158-3.414c0.318-0.08,1.187,0.773,1.447,0.827c0.434,0.107-0.028-0.667-0.058-0.72
	c-0.116-0.266-0.724-2.266-0.695-2.453c0.029-0.107,0.579,0.16,0.84,0.08c0.637-0.213,1.506-0.374,1.969-0.88
	c0.058-0.053,1.042-1.466,1.071-1.52c0.058-0.24-0.26-0.8-0.116-0.987c0.146-0.16,0.695-0.373,0.956-0.64
	c0.376-0.373,0.435-1.013,0.956-1.28c2.056-0.187,2.779-1.787,4.632-2c0.116,0,0.521-0.081,0.608-0.054l0.376,0.614
	c0.116,0.16,1.361,0.906,1.564,0.854c0.173-0.027,0.26-0.32,0.434-0.374c0.376,0.053,1.419-0.587,1.535-0.907
	c0.029-0.053-0.232-0.374-0.116-0.587c0.087-0.16,1.39-1.12,1.592-1.227c0.463,0,0.956-0.106,1.39,0.053
	c0.26,0.107,0.289,0.507,0.579,0.56c0.318,0.027,0.897-0.106,1.129-0.053c0.261,0.053,0.376-0.48,0.695-0.507L253.024,224.834z"/>
<g id="h">
	<g>
		<path id="star" fill="#FFFFFF" d="M351.874,73.392l16.122,49.619l-42.208-30.667h52.172l-42.208,30.667L351.874,73.392z"/>
	</g>
	<g>
		<path id="star_1_" fill="#FFFFFF" d="M414.654,84.462l16.123,49.619l-42.208-30.666h52.171l-42.208,30.666L414.654,84.462z"/>
	</g>
	<g>
		<path id="star_2_" fill="#FFFFFF" d="M474.558,106.265l16.122,49.619l-42.208-30.667h52.172l-42.208,30.667L474.558,106.265z"/>
	</g>
</g>
<g>
	<g id="h_1_">
		<g>
			<path id="star_3_" fill="#FFFFFF" d="M288.126,73.392l-16.122,49.619l42.208-30.667H262.04l42.208,30.667L288.126,73.392z"/>
		</g>
		<g>
			<path id="star_4_" fill="#FFFFFF" d="M225.346,84.462l-16.122,49.619l42.208-30.666H199.26l42.208,30.666L225.346,84.462z"/>
		</g>
		<g transform="scale(-1,1)">
			<path id="star_5_" fill="#FFFFFF" d="M165.442,106.265l-16.122,49.619l42.208-30.667h-52.172l42.208,30.667L165.442,106.265z"/>
		</g>
	</g>
</g>
</svg>
