<svg xmlns="http://www.w3.org/2000/svg" height="480" width="640"><defs><clipPath id="a"><path fill-opacity=".67" d="M0 0h682.67v512H0z"/></clipPath></defs><g clip-path="url(#a)" transform="matrix(.9 0 0 .9 0 0)"><path fill-rule="evenodd" fill="#319208" d="M0 438.86h1024V512H0z"/><path fill-rule="evenodd" fill="#de2010" d="M0 292.57h1024v73.14H0z"/><path fill-rule="evenodd" fill="#ffd200" d="M0 365.7h1024v73.15H0z"/><path fill-rule="evenodd" fill="#de2010" d="M0 146.3h1024v73.13H0z"/><path fill-rule="evenodd" fill="#ffd200" d="M0 73.14h1024v73.14H0z"/><path fill-rule="evenodd" fill="#319208" d="M0 0h1024v73.14H0z"/><path d="M28.9 0v512l343.76-256L28.9 0z" fill-rule="evenodd"/><path fill-rule="evenodd" d="M0 0h29.26v512H0z"/><path d="M0 0v512l373.03-256L0 0z" fill-rule="evenodd"/><path fill-rule="evenodd" d="M0 219.43h1024v73.14H0z"/><path d="M0 0v512l343.77-256L0 0z" fill-rule="evenodd" fill="#fff"/><path fill="#d62419" fill-rule="evenodd" d="M131.96 114.66l27.27 90.37 97.4.85-77.52 53.87 29.3 92.88-75.17-57.08-79.3 56.57L85 262.97 6.67 205.04l94.38 2"/><path d="M50.04 166.23c1.66-3 2-4.65 10.6-8.3 11.3-32.83 40.14-19.9 56.06 25.54 14.6 6.3 101.82 71.3 100.5 74.95-.67 3.32-11.62.67-11.62.67s-17.24 73.6-17.57 73.6c-32.17-4.3-82.24-4.96-116.4-4.3.33-5.64-9.3-42.45-9.3-42.45s-8.28-2.65 5.65-30.84c14.92-35.48 17.9-93.2-17.9-88.87z" fill-rule="evenodd" stroke="#000" stroke-width="1.465582" fill="#f7df00"/><path d="M79.55 152.95c0 2.02-1.63 3.65-3.65 3.65s-3.65-1.63-3.65-3.65 1.64-3.64 3.65-3.64 3.65 1.64 3.65 3.65zM115.7 183.47s-28.52 16.25-36.8 15.92M205.58 259.08c-2-1.65-105.8-6.63-101.48-41.78M120.68 259.74s11.27 6.64 20.9-10.6M133.28 259.4s7.96 7.3 19.57-8.6M62.64 285.95s7.3 1 8.63-3.32M97.13 328.73c0-.33-7.3-47.1-7.3-47.1 36.04 3.2 73.4 3.43 108.1 9.62" stroke="#000" stroke-width="1.465582" fill="none"/><path d="M93.48 282.3l9.95 11.6 10.28-9.95 8.64 9.3M125 293.58l8.6-7.63 9.3 8.95M144.55 294.9l9.62-8.62 7.3 8.62M165.45 295.24l8.62-5.97 7.63 7.3M187.67 296.23l6.3-5.97" stroke="#000" stroke-width="1.465582" fill="none"/><path d="M91.82 292.9l10.6 12.28 10.63-9.62 9.28 9.95 10.62-9.28 8.95 10.62 10.94-9.3s8.3 10.3 9.3 10.3 10.93-8.63 10.93-8.63l9.62 10.62 13.26-10.6M93.48 304.85s85.57 3.3 99.5 6.63M107.75 266.05s81.25 4.3 94.18 9.3" stroke="#000" stroke-width="1.465582" fill="none"/><path d="M91.16 232.22c.66 4.97-5.3 22.22-11.6 28.2-8.63 6.95-7.63 21.54-7.63 21.54 1 5.97 13.92 5.3 15.58 2.33 1.34-13.6 15.93-16.6 15.93-16.6s20.23-5.63 28.85-22.55M131.95 275.33c0 2.38-1.93 4.3-4.3 4.3s-4.32-1.92-4.32-4.3 1.93-4.3 4.3-4.3 4.32 1.92 4.32 4.3zM151.2 277c0 2.37-1.94 4.3-4.32 4.3s-4.32-1.93-4.32-4.3c0-2.4 1.94-4.32 4.32-4.32s4.3 1.93 4.3 4.3z" stroke="#000" stroke-width="1.465582" fill="none"/></g></svg>