<?xml version="1.0" encoding="UTF-8" standalone="no"?>
<svg
   xmlns:dc="http://purl.org/dc/elements/1.1/"
   xmlns:cc="http://creativecommons.org/ns#"
   xmlns:rdf="http://www.w3.org/1999/02/22-rdf-syntax-ns#"
   xmlns:svg="http://www.w3.org/2000/svg"
   xmlns="http://www.w3.org/2000/svg"
   version="1.1"
   id="svg6557"
   viewBox="0 0 780.00001 1800"
   height="1800"
   width="780">
  <defs
     id="defs6559">
    <clipPath
       id="clipPath5408"
       clipPathUnits="userSpaceOnUse">
      <path
         style="clip-rule:evenodd"
         id="path5410"
         d="m 598.9395,6466.919 -144.2851,-29.636 -156.2894,-49.576 -122.7979,-42.627 423.3724,-3.725 0,125.564 z" />
    </clipPath>
    <clipPath
       id="clipPath5414"
       clipPathUnits="userSpaceOnUse">
      <path
         id="path5416"
         d="M 0,0 640,0 640,8088 0,8088 0,0 Z" />
    </clipPath>
    <clipPath
       id="clipPath5424"
       clipPathUnits="userSpaceOnUse">
      <path
         style="clip-rule:evenodd"
         id="path5426"
         d="m 598.9395,6351.929 -129.0797,5.071 -55.051,0 -29.3135,-0.914 L 143,6352.514 143,6292 l 455.9395,0 0,59.929 z" />
    </clipPath>
    <clipPath
       id="clipPath5430"
       clipPathUnits="userSpaceOnUse">
      <path
         id="path5432"
         d="M 0,0 640,0 640,8088 0,8088 0,0 Z" />
    </clipPath>
    <clipPath
       id="clipPath5440"
       clipPathUnits="userSpaceOnUse">
      <path
         id="path5442"
         d="M 0,0 640,0 640,8088 0,8088 0,0 Z" />
    </clipPath>
    <clipPath
       id="clipPath5522"
       clipPathUnits="userSpaceOnUse">
      <path
         style="clip-rule:evenodd"
         id="path5524"
         d="m 21,6527 600,0 0,-863 -600,0 0,863 z" />
    </clipPath>
    <clipPath
       id="clipPath5528"
       clipPathUnits="userSpaceOnUse">
      <path
         id="path5530"
         d="M 0,0 640,0 640,8088 0,8088 0,0 Z" />
    </clipPath>
    <clipPath
       id="clipPath5540"
       clipPathUnits="userSpaceOnUse">
      <path
         style="clip-rule:evenodd"
         id="path5542"
         d="m 21,6527 600,0 0,-863 -600,0 0,863 z" />
    </clipPath>
    <clipPath
       id="clipPath5546"
       clipPathUnits="userSpaceOnUse">
      <path
         id="path5548"
         d="M 0,0 640,0 640,8088 0,8088 0,0 Z" />
    </clipPath>
    <clipPath
       id="clipPath5552"
       clipPathUnits="userSpaceOnUse">
      <path
         id="path5554"
         d="m 21,5664 600,0 0,863 -600,0 0,-863 z" />
    </clipPath>
    <clipPath
       id="clipPath5556"
       clipPathUnits="userSpaceOnUse">
      <path
         style="clip-rule:evenodd"
         id="path5558"
         d="m 21,6527 600,0 0,-863 -600,0 0,863 z" />
    </clipPath>
    <clipPath
       id="clipPath5560"
       clipPathUnits="userSpaceOnUse">
      <path
         id="path5562"
         d="m 21,5664 600,0 0,863 -600,0 0,-863 z" />
    </clipPath>
    <clipPath
       id="clipPath5584"
       clipPathUnits="userSpaceOnUse">
      <path
         id="path5586"
         d="M 0,0 640,0 640,8088 0,8088 0,0 Z" />
    </clipPath>
    <clipPath
       id="clipPath5670"
       clipPathUnits="userSpaceOnUse">
      <path
         style="clip-rule:evenodd"
         id="path5672"
         d="m 322.2422,5353.516 c 71.9308,0 130.2422,58.311 130.2422,130.242 0,71.931 -58.3114,130.242 -130.2422,130.242 C 250.3114,5614 192,5555.689 192,5483.758 c 0,-71.931 58.3114,-130.242 130.2422,-130.242 z" />
    </clipPath>
    <clipPath
       id="clipPath5676"
       clipPathUnits="userSpaceOnUse">
      <path
         id="path5678"
         d="M 0,0 640,0 640,8088 0,8088 0,0 Z" />
    </clipPath>
    <clipPath
       id="clipPath5408-3"
       clipPathUnits="userSpaceOnUse">
      <path
         style="clip-rule:evenodd"
         id="path5410-2"
         d="m 598.9395,6466.919 -144.2851,-29.636 -156.2894,-49.576 -122.7979,-42.627 423.3724,-3.725 0,125.564 z" />
    </clipPath>
    <clipPath
       id="clipPath5414-3"
       clipPathUnits="userSpaceOnUse">
      <path
         id="path5416-0"
         d="M 0,0 640,0 640,8088 0,8088 0,0 Z" />
    </clipPath>
    <clipPath
       id="clipPath5424-9"
       clipPathUnits="userSpaceOnUse">
      <path
         style="clip-rule:evenodd"
         id="path5426-0"
         d="m 598.9395,6351.929 -129.0797,5.071 -55.051,0 -29.3135,-0.914 L 143,6352.514 143,6292 l 455.9395,0 0,59.929 z" />
    </clipPath>
    <clipPath
       id="clipPath5430-8"
       clipPathUnits="userSpaceOnUse">
      <path
         id="path5432-1"
         d="M 0,0 640,0 640,8088 0,8088 0,0 Z" />
    </clipPath>
    <clipPath
       id="clipPath5440-7"
       clipPathUnits="userSpaceOnUse">
      <path
         id="path5442-0"
         d="M 0,0 640,0 640,8088 0,8088 0,0 Z" />
    </clipPath>
    <clipPath
       id="clipPath5522-1"
       clipPathUnits="userSpaceOnUse">
      <path
         style="clip-rule:evenodd"
         id="path5524-0"
         d="m 21,6527 600,0 0,-863 -600,0 0,863 z" />
    </clipPath>
    <clipPath
       id="clipPath5528-4"
       clipPathUnits="userSpaceOnUse">
      <path
         id="path5530-5"
         d="M 0,0 640,0 640,8088 0,8088 0,0 Z" />
    </clipPath>
    <clipPath
       id="clipPath5540-9"
       clipPathUnits="userSpaceOnUse">
      <path
         style="clip-rule:evenodd"
         id="path5542-9"
         d="m 21,6527 600,0 0,-863 -600,0 0,863 z" />
    </clipPath>
    <clipPath
       id="clipPath5546-7"
       clipPathUnits="userSpaceOnUse">
      <path
         id="path5548-9"
         d="M 0,0 640,0 640,8088 0,8088 0,0 Z" />
    </clipPath>
    <clipPath
       id="clipPath5552-5"
       clipPathUnits="userSpaceOnUse">
      <path
         id="path5554-1"
         d="m 21,5664 600,0 0,863 -600,0 0,-863 z" />
    </clipPath>
    <clipPath
       id="clipPath5556-7"
       clipPathUnits="userSpaceOnUse">
      <path
         style="clip-rule:evenodd"
         id="path5558-6"
         d="m 21,6527 600,0 0,-863 -600,0 0,863 z" />
    </clipPath>
    <clipPath
       id="clipPath5560-9"
       clipPathUnits="userSpaceOnUse">
      <path
         id="path5562-9"
         d="m 21,5664 600,0 0,863 -600,0 0,-863 z" />
    </clipPath>
    <clipPath
       id="clipPath5584-1"
       clipPathUnits="userSpaceOnUse">
      <path
         id="path5586-6"
         d="M 0,0 640,0 640,8088 0,8088 0,0 Z" />
    </clipPath>
    <clipPath
       id="clipPath5670-7"
       clipPathUnits="userSpaceOnUse">
      <path
         style="clip-rule:evenodd"
         id="path5672-9"
         d="m 322.2422,5353.516 c 71.9308,0 130.2422,58.311 130.2422,130.242 0,71.931 -58.3114,130.242 -130.2422,130.242 C 250.3114,5614 192,5555.689 192,5483.758 c 0,-71.931 58.3114,-130.242 130.2422,-130.242 z" />
    </clipPath>
    <clipPath
       id="clipPath5676-7"
       clipPathUnits="userSpaceOnUse">
      <path
         id="path5678-2"
         d="M 0,0 640,0 640,8088 0,8088 0,0 Z" />
    </clipPath>
  </defs>
  <metadata
     id="metadata6562">
    <rdf:RDF>
      <cc:Work
         rdf:about="">
        <dc:format>image/svg+xml</dc:format>
        <dc:type
           rdf:resource="http://purl.org/dc/dcmitype/StillImage" />
        <dc:title></dc:title>
      </cc:Work>
    </rdf:RDF>
  </metadata>
  <g
     transform="translate(0,747.63784)"
     id="layer1">
    <g
       id="g7488"
       transform="matrix(1.25,0,0,-1.25,-10.964287,7512.1132)">
      <g
         id="g6298">
        <g
           id="g5404">
          <g
             clip-path="url(#clipPath5408-3)"
             id="g5406">
            <g
               clip-path="url(#clipPath5414-3)"
               id="g5412">
              <path
                 id="path5418"
                 style="fill:#63a541;fill-opacity:1;fill-rule:nonzero;stroke:none"
                 d="m 170.5671,6471.919 433.3724,0 0,-135.564 -433.3724,0 0,135.564 z" />
            </g>
          </g>
        </g>
        <g
           id="g5420">
          <g
             clip-path="url(#clipPath5424-9)"
             id="g5422">
            <g
               clip-path="url(#clipPath5430-8)"
               id="g5428">
              <path
                 id="path5434"
                 style="fill:#d8d8d8;fill-opacity:1;fill-rule:nonzero;stroke:none"
                 d="m 138,6362 465.9395,0 0,-75 -465.9395,0 0,75 z" />
            </g>
          </g>
        </g>
        <g
           id="g5436">
          <g
             clip-path="url(#clipPath5440-7)"
             id="g5438">
            <g
               transform="matrix(0,1,1,0,38,6278)"
               id="g5444">
              <text
                 id="text5446"
                 style="font-variant:normal;font-weight:normal;font-size:28px;font-family:KivaPostGrot;-inkscape-font-specification:KivaPostGrot-Book;writing-mode:lr-tb;fill:#424242;fill-opacity:1;fill-rule:nonzero;stroke:none"
                 transform="translate(0,25)">
                <tspan
                   id="tspan5448"
                   y="0"
                   x="0 20.440001 35.756001 51.576 67.676003 77.755997 84.587997 91.419998 98.251999 105.084 120.26 135.688 142.26801 159.34801 174.664">Quadrillion BTU</tspan>
              </text>
            </g>
            <g
               transform="matrix(1,0,0,-1,85,6473)"
               id="g5450">
              <text
                 id="text5452"
                 style="font-variant:normal;font-weight:normal;font-size:28px;font-family:KivaPostGrot;-inkscape-font-specification:KivaPostGrot-Book;writing-mode:lr-tb;fill:#424242;fill-opacity:1;fill-rule:nonzero;stroke:none"
                 transform="translate(0,25)">
                <tspan
                   id="tspan5454"
                   y="0"
                   x="0 15.2432">50</tspan>
              </text>
            </g>
            <g
               transform="matrix(1,0,0,-1,85,6473)"
               id="g5456">
              <text
                 id="text5458"
                 style="font-variant:normal;font-weight:normal;font-size:28px;font-family:KivaPostGrot;-inkscape-font-specification:KivaPostGrot-Book;writing-mode:lr-tb;fill:#424242;fill-opacity:1;fill-rule:nonzero;stroke:none"
                 transform="translate(30.48889,25)">
                <tspan
                   id="tspan5460"
                   y="0"
                   x="0">0</tspan>
              </text>
            </g>
            <g
               transform="matrix(1,0,0,-1,85,6391)"
               id="g5462">
              <text
                 id="text5464"
                 style="font-variant:normal;font-weight:normal;font-size:28px;font-family:KivaPostGrot;-inkscape-font-specification:KivaPostGrot-Book;writing-mode:lr-tb;fill:#424242;fill-opacity:1;fill-rule:nonzero;stroke:none"
                 transform="translate(0,25)">
                <tspan
                   id="tspan5466"
                   y="0"
                   x="0 15.2432 30.486401">250</tspan>
              </text>
            </g>
            <g
               transform="matrix(1,0,0,-1,85,6309)"
               id="g5468">
              <text
                 id="text5470"
                 style="font-variant:normal;font-weight:normal;font-size:28px;font-family:KivaPostGrot;-inkscape-font-specification:KivaPostGrot-Book;writing-mode:lr-tb;fill:#424242;fill-opacity:1;fill-rule:nonzero;stroke:none"
                 transform="translate(0,25)">
                <tspan
                   id="tspan5472"
                   y="0"
                   x="0 15.2432">10</tspan>
              </text>
            </g>
            <g
               transform="matrix(1,0,0,-1,85,6309)"
               id="g5474">
              <text
                 id="text5476"
                 style="font-variant:normal;font-weight:normal;font-size:28px;font-family:KivaPostGrot;-inkscape-font-specification:KivaPostGrot-Book;writing-mode:lr-tb;fill:#424242;fill-opacity:1;fill-rule:nonzero;stroke:none"
                 transform="translate(30.48889,25)">
                <tspan
                   id="tspan5478"
                   y="0"
                   x="0">0</tspan>
              </text>
            </g>
            <g
               transform="matrix(1,0,0,-1,141,6284)"
               id="g5480">
              <text
                 id="text5482"
                 style="font-variant:normal;font-weight:normal;font-size:28px;font-family:KivaPostGrot;-inkscape-font-specification:KivaPostGrot-Book;writing-mode:lr-tb;fill:#424242;fill-opacity:1;fill-rule:nonzero;stroke:none"
                 transform="translate(0,25)">
                <tspan
                   id="tspan5484"
                   y="0"
                   x="0 15.2432 30.486401 45.729599">2000</tspan>
              </text>
            </g>
            <g
               transform="matrix(1,0,0,-1,339,6284)"
               id="g5486">
              <text
                 id="text5488"
                 style="font-variant:normal;font-weight:normal;font-size:28px;font-family:KivaPostGrot;-inkscape-font-specification:KivaPostGrot-Book;writing-mode:lr-tb;fill:#424242;fill-opacity:1;fill-rule:nonzero;stroke:none"
                 transform="translate(0,25)">
                <tspan
                   id="tspan5490"
                   y="0"
                   x="0 15.2432 30.486401 45.729599">2020</tspan>
              </text>
            </g>
            <g
               transform="matrix(1,0,0,-1,538,6284)"
               id="g5492">
              <text
                 id="text5494"
                 style="font-variant:normal;font-weight:normal;font-size:28px;font-family:KivaPostGrot;-inkscape-font-specification:KivaPostGrot-Book;writing-mode:lr-tb;fill:#424242;fill-opacity:1;fill-rule:nonzero;stroke:none"
                 transform="translate(0,25)">
                <tspan
                   id="tspan5496"
                   y="0"
                   x="0 15.2432 30.486401 45.729599">2040</tspan>
              </text>
            </g>
            <g
               transform="matrix(1,0,0,-1,425,6340)"
               id="g5498">
              <text
                 id="text5500"
                 style="font-variant:normal;font-weight:normal;font-size:28px;font-family:KivaPostGrot;-inkscape-font-specification:KivaPostGrot-Book;writing-mode:lr-tb;fill:#797979;fill-opacity:1;fill-rule:nonzero;stroke:none"
                 transform="translate(0,25)">
                <tspan
                   id="tspan5502"
                   y="0"
                   x="0 18.8832 32.894402 50.013599 68.000801 73.024002 91.711197 105.6944 113.4336 118.7088 132.328 146.1992">OECD Nations</tspan>
              </text>
            </g>
            <g
               transform="matrix(1,0,0,-1,375,6405)"
               id="g5504">
              <text
                 id="text5506"
                 style="font-variant:normal;font-weight:normal;font-size:28px;font-family:KivaPostGrot;-inkscape-font-specification:KivaPostGrot-Book;writing-mode:lr-tb;fill:#ffffff;fill-opacity:1;fill-rule:nonzero;stroke:none"
                 transform="translate(0,25)">
                <tspan
                   id="tspan5508"
                   y="0"
                   x="0 13.8712 27.4904 41.361599 50.304798 69.188004 83.199203 100.3184 118.3056 123.3288 142.01601 155.99921 163.7384 169.0136 182.6328 196.504">non-OECD Nations</tspan>
              </text>
            </g>
            <g
               transform="matrix(1,0,0,-1,142,6474)"
               id="g5510">
              <path
                 id="path5512"
                 style="fill:none;stroke:#333333;stroke-width:2;stroke-linecap:square;stroke-linejoin:miter;stroke-miterlimit:10;stroke-dasharray:none;stroke-opacity:1"
                 d="M 1,0 1,179" />
            </g>
            <g
               transform="matrix(1,0,0,-1,143,6294)"
               id="g5514">
              <path
                 id="path5516"
                 style="fill:none;stroke:#333333;stroke-width:2;stroke-linecap:square;stroke-linejoin:miter;stroke-miterlimit:10;stroke-dasharray:none;stroke-opacity:1"
                 d="M 0,1 455,1" />
            </g>
          </g>
        </g>
        <g
           id="g5518">
          <g
             clip-path="url(#clipPath5522-1)"
             id="g5520">
            <g
               clip-path="url(#clipPath5528-4)"
               id="g5526">
              <g
                 transform="matrix(1,0,0,-1,21,6527)"
                 id="g5532">
                <path
                   id="path5534"
                   style="fill:none;stroke:#d8d8d8;stroke-width:4;stroke-linecap:butt;stroke-linejoin:miter;stroke-miterlimit:10;stroke-dasharray:none;stroke-opacity:1"
                   d="M 0,0 600,0 600,863 0,863 0,0 Z" />
              </g>
            </g>
          </g>
        </g>
        <g
           id="g5536">
          <g
             clip-path="url(#clipPath5540-9)"
             id="g5538">
            <g
               clip-path="url(#clipPath5546-7)"
               id="g5544">
              <g
                 id="g5550" />
              <g
                 id="g5564">
                <g
                   id="g5566"
                   clip-path="url(#clipPath5552-5)">
                  <g
                     id="g5568" />
                  <g
                     id="g5570">
                    <g
                       id="g5572"
                       clip-path="url(#clipPath5556-7)">
                      <g
                         id="g5574"
                         clip-path="url(#clipPath5560-9)">
                        <g
                           id="g5576"
                           transform="matrix(1,0,0,-1,21,6527)">
                          <path
                             id="path5578"
                             style="fill:none;stroke:#d8d8d8;stroke-width:4;stroke-linecap:butt;stroke-linejoin:miter;stroke-miterlimit:10;stroke-dasharray:none;stroke-opacity:1"
                             d="M 0,0 600,0 600,863 0,863 0,0 Z" />
                        </g>
                      </g>
                    </g>
                  </g>
                </g>
              </g>
            </g>
          </g>
        </g>
        <g
           id="g5580">
          <g
             clip-path="url(#clipPath5584-1)"
             id="g5582">
            <g
               transform="matrix(1,0,0,-1,19,6595)"
               id="g5588">
              <text
                 id="text5590"
                 style="font-variant:normal;font-weight:bold;font-size:36px;font-family:KivaPostGrot;-inkscape-font-specification:KivaPostGrot-Bold;writing-mode:lr-tb;fill:#424242;fill-opacity:1;fill-rule:nonzero;stroke:none"
                 transform="translate(0,32)">
                <tspan
                   id="tspan5592"
                   y="0"
                   x="0 21.384001 42.264 61.667999 76.356003 98.028 116.604 124.344 150.228 169.632 200.592 221.94 242.82001 264.492 272.23199 286.34399 305.74799 323.53201 337.35599 347.79599">Energy Demand (est.)</tspan>
              </text>
            </g>
            <g
               transform="matrix(1,0,0,-1,39,6144)"
               id="g5594">
              <text
                 id="text5596"
                 style="font-variant:normal;font-weight:bold;font-size:80px;font-family:KivaPostGrot;-inkscape-font-specification:KivaPostGrot-Bold;writing-mode:lr-tb;fill:#2b7242;fill-opacity:1;fill-rule:nonzero;stroke:none"
                 transform="translate(64.36,72)">
                <tspan
                   id="tspan5598"
                   y="0"
                   x="0 58.32 101.44 148.88 181.52 203.28 244.56 261.76001 309.76001 357.76001">Nearly 20%</tspan>
              </text>
            </g>
            <g
               transform="matrix(1,0,0,-1,39,5869)"
               id="g5600">
              <text
                 id="text5602"
                 style="font-variant:normal;font-weight:bold;font-size:80px;font-family:KivaPostGrot;-inkscape-font-specification:KivaPostGrot-Bold;writing-mode:lr-tb;fill:#2b7242;fill-opacity:1;fill-rule:nonzero;stroke:none"
                 transform="translate(74.04,72)">
                <tspan
                   id="tspan5604"
                   y="0"
                   x="0 48 96 144 161.2 233.28 255.03999 276.79999 298.56 320.32001 365.51999">691 Million</tspan>
              </text>
            </g>
            <g
               transform="matrix(1,0,0,-1,39,6053)"
               id="g5606">
              <text
                 id="text5608"
                 style="font-variant:normal;font-weight:normal;font-size:28px;font-family:KivaPostGrot;-inkscape-font-specification:KivaPostGrot-Book;writing-mode:lr-tb;fill:#424242;fill-opacity:1;fill-rule:nonzero;stroke:none"
                 transform="translate(99.008,25)">
                <tspan
                   id="tspan5610"
                   y="0"
                   x="0 15.176 24.136 30.716 40.012001 55.439999 69.860001 76.440002 92.540001 99.372002 114.548 130.64799 146.468 153.3 159.88 175.98 191.15601 207.256 222.57201 229.40401 245.224 254.52 261.35199 276.52802 291.95599 298.53601 305.36801 321.18799 334.936 349.01999 361.98401">of the global population lacks</tspan>
              </text>
            </g>
            <g
               transform="matrix(1,0,0,-1,39,6053)"
               id="g5612">
              <text
                 id="text5614"
                 style="font-variant:normal;font-weight:normal;font-size:28px;font-family:KivaPostGrot;-inkscape-font-specification:KivaPostGrot-Book;writing-mode:lr-tb;fill:#424242;fill-opacity:1;fill-rule:nonzero;stroke:none"
                 transform="translate(163.128,65)">
                <tspan
                   id="tspan5616"
                   y="0"
                   x="0 15.82 29.568001 43.316002 57.736 70.699997 83.664001 90.244003 99.540001 114.716 121.296 135.716 142.548 156.968 166.26401 176.34399 183.17599 196.924 203.756 213.052 226.52">access to eletricity.</tspan>
              </text>
            </g>
            <g
               transform="matrix(1,0,0,-1,39,5781)"
               id="g5618">
              <text
                 id="text5620"
                 style="font-variant:normal;font-weight:normal;font-size:28px;font-family:KivaPostGrot;-inkscape-font-specification:KivaPostGrot-Book;writing-mode:lr-tb;fill:#424242;fill-opacity:1;fill-rule:nonzero;stroke:none"
                 transform="translate(105.992,25)">
                <tspan
                   id="tspan5622"
                   y="0"
                   x="0 15.8228 29.7416 44.416401 60.015202 66.346001 80.264801 86.343597 92.6744 107.6012 113.68 126.1428 140.9576 156.5564 166.55521 183.498 198.8168 213.74361 229.06239 238.6412 253.96001 268.88681">people in sub-Saharan</tspan>
              </text>
            </g>
            <g
               transform="matrix(1,0,0,-1,39,5781)"
               id="g5624">
              <text
                 id="text5626"
                 style="font-variant:normal;font-weight:normal;font-size:28px;font-family:KivaPostGrot;-inkscape-font-specification:KivaPostGrot-Book;writing-mode:lr-tb;fill:#424242;fill-opacity:1;fill-rule:nonzero;stroke:none"
                 transform="translate(380.984,25)">
                <tspan
                   id="tspan5628"
                   y="0"
                   x="0 17.584 26.544001 36.624001 43.456001 57.203999 73.024002">Africa</tspan>
              </text>
            </g>
            <g
               transform="matrix(1,0,0,-1,39,5781)"
               id="g5630">
              <text
                 id="text5632"
                 style="font-variant:normal;font-weight:normal;font-size:28px;font-family:KivaPostGrot;-inkscape-font-specification:KivaPostGrot-Book;writing-mode:lr-tb;fill:#424242;fill-opacity:1;fill-rule:nonzero;stroke:none"
                 transform="translate(141.806,65)">
                <tspan
                   id="tspan5634"
                   y="0"
                   x="0 20.271999 27.104 33.936001 40.768002 47.348 62.776001 78.596001 92.008003 106.428 113.008 128.436 143.612 150.192 164.612 171.444 185.864 199.612 208.908 218.98801 225.82001 239.56799 246.39999 255.696 269.164">will have no electricity.</tspan>
              </text>
            </g>
            <g
               transform="matrix(1,0,0,-1,39,6190)"
               id="g5636">
              <text
                 id="text5638"
                 style="font-variant:normal;font-weight:bold;font-size:36px;font-family:KivaPostGrot;-inkscape-font-specification:KivaPostGrot-Bold;writing-mode:lr-tb;fill:#424242;fill-opacity:1;fill-rule:nonzero;stroke:none"
                 transform="translate(136.576,32)">
                <tspan
                   id="tspan5640"
                   y="0"
                   x="0 21.6 32.040001 53.639999 61.380001 84.959999 94.751999 104.544 114.336 124.128 144.468 165.34801 173.088 196.23599 215.64 235.98 257.65201 267.444">1.3 Billion People</tspan>
              </text>
            </g>
            <g
               transform="matrix(1,0,0,-1,42,5915)"
               id="g5642">
              <text
                 id="text5644"
                 style="font-variant:normal;font-weight:bold;font-size:36px;font-family:KivaPostGrot;-inkscape-font-specification:KivaPostGrot-Bold;writing-mode:lr-tb;fill:#424242;fill-opacity:1;fill-rule:nonzero;stroke:none"
                 transform="translate(211.852,32)">
                <tspan
                   id="tspan5646"
                   y="0"
                   x="0 23.58 42.155998 49.896 71.496002 93.096001 114.696">By 2030</tspan>
              </text>
            </g>
            <g
               transform="matrix(1,0,0,-1,41,5330)"
               id="g5648">
              <text
                 id="text5650"
                 style="font-variant:normal;font-weight:bold;font-size:36px;font-family:KivaPostGrot;-inkscape-font-specification:KivaPostGrot-Bold;writing-mode:lr-tb;fill:#424242;fill-opacity:1;fill-rule:nonzero;stroke:none"
                 transform="translate(44.164,32)">
                <tspan
                   id="tspan5652"
                   y="0"
                   x="0 21.6 32.040001 53.639999 86.723999 94.463997 114.804 127.908 135.64799 166.608 176.39999 194.94 209.62801 229.968 252.864 273.74399 295.09201 315.97198 334.51199 353.91599 361.65601 380.19601 389.98801 399.78 419.18399 440.064 453.888 471.672">0.3% of microfnance clients</tspan>
              </text>
            </g>
            <g
               transform="matrix(1,0,0,-1,41,5330)"
               id="g5654">
              <text
                 id="text5656"
                 style="font-variant:normal;font-weight:bold;font-size:36px;font-family:KivaPostGrot;-inkscape-font-specification:KivaPostGrot-Bold;writing-mode:lr-tb;fill:#424242;fill-opacity:1;fill-rule:nonzero;stroke:none"
                 transform="translate(54.982,81)">
                <tspan
                   id="tspan5658"
                   y="0"
                   x="0 18.540001 39.203999 53.891998 68.580002 87.984001 108.864 122.688 132.48 151.056 158.79601 172.62 193.968 214.308 233.71201 241.452 261.79199 282.45599 296.28 304.01999 313.81201 334.15201 355.5 376.38 394.164 401.90399 415.008 435.34799 450.03601">currently take out loans for</tspan>
              </text>
            </g>
            <g
               transform="matrix(1,0,0,-1,41,5330)"
               id="g5660">
              <text
                 id="text5662"
                 style="font-variant:normal;font-weight:bold;font-size:36px;font-family:KivaPostGrot;-inkscape-font-specification:KivaPostGrot-Bold;writing-mode:lr-tb;fill:#424242;fill-opacity:1;fill-rule:nonzero;stroke:none"
                 transform="translate(137.998,130)">
                <tspan
                   id="tspan5664"
                   y="0"
                   x="0 19.403999 40.284 59.688 74.375999 96.047997 114.624 122.364 140.14799 160.48801 170.28 190.944 204.76801 214.56 234.89999 255.78 273.564">energy solutions.</tspan>
              </text>
            </g>
          </g>
        </g>
        <g
           id="g5666">
          <g
             clip-path="url(#clipPath5670-7)"
             id="g5668">
            <g
               clip-path="url(#clipPath5676-7)"
               id="g5674">
              <path
                 id="path5680"
                 style="fill:#efefef;fill-opacity:1;fill-rule:nonzero;stroke:none"
                 d="m 187,5619 270.4844,0 0,-270.484 -270.4844,0 0,270.484 z" />
            </g>
          </g>
        </g>
      </g>
      <g
         id="g5690"
         transform="matrix(1,0,0,-1,192,5614)">
        <path
           d="m 130.2422,260.4844 c 71.9308,0 130.2422,-58.3114 130.2422,-130.2422 C 260.4844,58.31141 202.173,0 130.2422,0 58.31141,0 0,58.31141 0,130.2422 0,202.173 58.31141,260.4844 130.2422,260.4844 Z"
           style="fill:none;stroke:#d8d8d8;stroke-width:1;stroke-linecap:butt;stroke-linejoin:miter;stroke-miterlimit:10;stroke-dasharray:none;stroke-opacity:1"
           id="path5692" />
      </g>
      <g
         id="g5694"
         transform="matrix(1,0,0,-1,288,5485)">
        <path
           d="M 0,125.8043 33.70916,0"
           style="fill:none;stroke:#63a541;stroke-width:2;stroke-linecap:square;stroke-linejoin:miter;stroke-miterlimit:10;stroke-dasharray:none;stroke-opacity:1"
           id="path5696" />
      </g>
    </g>
  </g>
</svg>
