<svg xmlns="http://www.w3.org/2000/svg" width="56" height="56" viewBox="0 0 56 56">
	<g>
		<path d="M28,0 C12.56,0 0,12.56 0,28 C0,43.44 12.56,56 28,56 C43.44,56 56,43.44 56,28 C56,12.56 43.44,0 28,0"/>
		<path fill="currentColor" d="M41.68,13.41 L36.22,13.41 L36.22,12.26 C36.22,11.62 35.7,11.11 35.07,11.11 C34.43,11.11 33.92,11.63 33.92,12.26 L33.92,13.41 L21.88,13.41 L21.88,12.26 C21.88,11.62 21.36,11.11 20.73,11.11 C20.09,11.11 19.58,11.63 19.58,12.26 L19.58,13.41 L14,13.41 C13.36,13.41 12.85,13.93 12.85,14.56 L12.85,42.25 C12.85,42.89 13.37,43.4 14,43.4 L41.69,43.4 C42.33,43.4 42.84,42.88 42.84,42.25 L42.84,14.57 C42.84,13.93 42.32,13.41 41.68,13.41 Z M21.88,15.72 L33.91,15.72 L33.91,17.57 L21.88,17.57 L21.88,15.72 Z M15.15,15.72 L19.58,15.72 L19.58,17.57 L15.15,17.57 L15.15,15.72 Z M40.53,41.1 L15.15,41.1 L15.15,18.95 L40.53,18.95 L40.53,41.1 Z M40.53,17.57 L36.22,17.57 L36.22,15.72 L40.53,15.72 L40.53,17.57 Z"/>
		<polyline fill="currentColor" points="21.54 30.03 19.57 32 24.35 36.77 36.4 24.86 34.43 22.89 24.35 32.83 21.54 30.03"/>
	</g>
</svg>
