<?xml version="1.0" encoding="UTF-8" standalone="no"?>
<svg width="124px" height="124px" viewBox="0 0 124 124" version="1.1" xmlns="http://www.w3.org/2000/svg" xmlns:xlink="http://www.w3.org/1999/xlink" xmlns:sketch="http://www.bohemiancoding.com/sketch/ns">
    <!-- Generator: Sketch 3.3.3 (12081) - http://www.bohemiancoding.com/sketch -->
    <title>boundaries</title>
    <desc>Created with Sketch.</desc>
    <defs>
        <path id="path-1" d="M0.0381538462,0.00572307692 L123.994277,0.00572307692 L123.994277,124 L0.0381538462,124 L0.0381538462,0.00572307692 Z"></path>
    </defs>
    <g id="Page-1" stroke="none" stroke-width="1" fill="none" fill-rule="evenodd" sketch:type="MSPage">
        <g id="boundaries" sketch:type="MSLayerGroup">
            <g id="Group-3">
                <mask id="mask-2" sketch:name="Clip 2" fill="white">
                    <use xlink:href="#path-1"></use>
                </mask>
                <g id="Clip-2"></g>
                <path d="M61.9968205,6.36533333 C31.3185846,6.36533333 6.35961026,31.3243077 6.35961026,62.0031795 C6.35961026,92.6820513 31.3185846,117.641026 61.9968205,117.641026 C92.6756923,117.641026 117.634667,92.6820513 117.634667,62.0031795 C117.634667,31.3243077 92.6756923,6.36533333 61.9968205,6.36533333 L61.9968205,6.36533333 Z M61.9968205,124 C27.8116103,124 0,96.1883897 0,62.0031795 C0,27.8179692 27.8116103,0.00572307692 61.9968205,0.00572307692 C96.1820308,0.00572307692 123.993641,27.8179692 123.993641,62.0031795 C123.993641,96.1883897 96.1820308,124 61.9968205,124 L61.9968205,124 Z" id="Fill-1" fill="#DBE3E5" sketch:type="MSShapeGroup" mask="url(#mask-2)"></path>
            </g>
            <path d="M89.6430974,43.0750564 L95.0940103,48.5259692 L95.0921026,29.3835487 L75.9490462,29.3810051 L81.4012308,34.8325538 L61.9968205,54.2356923 L42.5936821,34.8325538 L48.0445949,29.3810051 L28.9021744,29.3835487 L28.8996308,48.5266051 L34.3505436,43.0750564 L53.7543179,62.4781949 L34.3505436,81.8819692 L28.8996308,76.4310564 L28.9021744,95.5734769 L48.0445949,95.5760205 L42.5936821,90.1244718 L61.9968205,70.7213333 L81.4012308,90.1244718 L75.9490462,95.5760205 L95.0921026,95.5734769 L95.0946462,76.4304205 L89.6430974,81.8819692 L70.2393231,62.4788308 L89.6430974,43.0750564" id="Fill-4" fill="#63A541" sketch:type="MSShapeGroup"></path>
        </g>
    </g>
</svg>