<?xml version="1.0" encoding="UTF-8" standalone="no"?>
<svg width="124px" height="123px" viewBox="0 0 124 123" version="1.1" xmlns="http://www.w3.org/2000/svg" xmlns:xlink="http://www.w3.org/1999/xlink" xmlns:sketch="http://www.bohemiancoding.com/sketch/ns">
    <!-- Generator: Sketch 3.3.3 (12081) - http://www.bohemiancoding.com/sketch -->
    <title>impact</title>
    <desc>Created with Sketch.</desc>
    <defs>
        <path id="path-1" d="M0.0381538462,0.00567765568 L123.994277,0.00567765568 L123.994277,123.015873 L0.0381538462,123.015873 L0.0381538462,0.00567765568 Z"></path>
    </defs>
    <g id="Page-1" stroke="none" stroke-width="1" fill="none" fill-rule="evenodd" sketch:type="MSPage">
        <g id="impact" sketch:type="MSLayerGroup">
            <g id="Group-3">
                <mask id="mask-2" sketch:name="Clip 2" fill="white">
                    <use xlink:href="#path-1"></use>
                </mask>
                <g id="Clip-2"></g>
                <path d="M61.9968205,6.31418396 C31.3185846,6.31418396 6.35961026,31.0750712 6.35961026,61.5110908 C6.35961026,91.9464794 31.3185846,116.707367 61.9968205,116.707367 C92.6756923,116.707367 117.634667,91.9464794 117.634667,61.5110908 C117.634667,31.0750712 92.6756923,6.31418396 61.9968205,6.31418396 L61.9968205,6.31418396 Z M61.9968205,123.015873 C27.8116103,123.015873 0,95.4249898 0,61.5110908 C0,27.5971917 27.8116103,0.00567765568 61.9968205,0.00567765568 C96.1820308,0.00567765568 123.993641,27.5971917 123.993641,61.5110908 C123.993641,95.4249898 96.1820308,123.015873 61.9968205,123.015873 L61.9968205,123.015873 Z" id="Fill-1" fill="#DAE2E4" sketch:type="MSShapeGroup" mask="url(#mask-2)"></path>
            </g>
            <path d="M61.9974564,20.8180708 C47.1460718,20.8180708 34.1127179,28.6891941 26.9124513,40.447619 C29.6283692,39.7158323 31.7529026,39.6969068 31.9481231,39.6969068 C32.3633641,39.6969068 41.3861128,39.7858567 46.4186051,46.5088319 C46.6894974,45.9202483 46.9705641,45.3411274 47.2630769,44.7758852 C48.3339282,44.9985755 49.4581949,45.2086488 50.6396923,45.3953805 C53.3606974,45.8256207 56.5338256,46.1574481 60.0694154,46.2369353 L60.0694154,59.5485144 L49.4143179,59.5485144 C49.2801436,60.7736264 49.0588513,62.0498372 48.7536205,63.3714693 L60.0694154,63.3714693 L60.0694154,76.6868335 C56.5350974,76.7656899 53.3594256,77.0931013 50.6396923,77.5233415 C49.5484923,77.6955637 48.5126154,77.8892348 47.5174359,78.0929996 C46.6545231,76.4635124 45.9289641,74.8296093 45.315959,73.1931827 C43.7332103,76.6937729 41.7085128,80.4391331 39.2450462,84.4242165 C40.8169846,83.8381563 42.9491487,83.1309727 45.5792205,82.4755189 C48.1418872,86.6990639 51.4765333,90.8759259 55.5698051,94.9947497 C48.9036923,93.7380952 42.9154462,90.5661783 38.2078974,86.0770452 C37.2317949,87.6062271 36.1984615,89.1669516 35.0977231,90.7642654 L34.4796308,91.6607041 C41.7619282,98.2083028 51.4180308,102.20348 61.9974564,102.20348 C84.6144205,102.20348 103.015385,83.9485551 103.015385,61.5104599 C103.015385,39.0723647 84.6144205,20.8180708 61.9974564,20.8180708 L61.9974564,20.8180708 Z M60.0694154,94.0289174 C55.7548513,89.9290191 52.2555077,85.7855922 49.5764718,81.6112536 C52.6573949,81.0447497 56.1885333,80.6239723 60.0694154,80.5249288 L60.0694154,94.0289174 L60.0694154,94.0289174 Z M45.253641,40.3807489 C41.5387282,39.4275336 38.8228103,38.374013 37.3825026,37.7564103 C42.1161231,32.9285104 48.2741538,29.4802808 55.1780923,28.0955637 C52.259959,30.8599512 48.4324923,35.037444 45.253641,40.3807489 L45.253641,40.3807489 Z M60.0694154,42.4101954 C56.8263385,42.3338624 53.908841,42.0348392 51.4034051,41.6437118 C50.6714872,41.5295279 49.9681846,41.4039886 49.2795077,41.2727717 C53.0382974,35.341514 57.5735179,31.0246032 60.0694154,28.8847578 L60.0694154,42.4101954 L60.0694154,42.4101954 Z M96.2996718,59.5485144 L84.7536821,59.5485144 C84.7485949,59.4336996 84.7473231,59.3201465 84.7422359,59.2072243 C84.4306462,53.4532357 82.7944821,48.2581807 80.5777436,43.7362434 C83.4004923,42.973545 86.3046359,42.0077127 89.2679179,40.8002646 C93.3351179,46.0596663 95.8965128,52.5202076 96.2996718,59.5485144 L96.2996718,59.5485144 Z M86.5926974,37.7355922 C83.8990359,38.7739723 81.2594256,39.6092186 78.6935795,40.2665649 C75.5452513,34.986976 71.7731077,30.8536427 68.888041,28.1088116 C75.7550974,29.5004681 81.8768821,32.9354497 86.5926974,37.7355922 L86.5926974,37.7355922 Z M63.9242256,28.8267196 C66.3851487,30.9356532 70.9152821,35.2424705 74.6829744,41.1819292 C70.8694974,41.9200244 67.2614154,42.2796093 63.9242256,42.390639 L63.9242256,28.8267196 L63.9242256,28.8267196 Z M63.9242256,46.2161172 C67.8597949,46.0937322 72.1482872,45.6401506 76.6930462,44.67558 C78.9282256,48.9868132 80.6038154,53.9591779 80.8944205,59.4387464 C80.8969641,59.4759666 80.8969641,59.5112943 80.8982359,59.5485144 L63.9242256,59.5485144 L63.9242256,46.2161172 L63.9242256,46.2161172 Z M63.9242256,63.3714693 L80.8594462,63.3714693 C80.5217846,68.3337403 79.0471385,73.2802401 76.4431385,78.1914123 C71.9905846,77.2621693 67.7866667,76.8230973 63.9242256,76.701974 L63.9242256,63.3714693 L63.9242256,63.3714693 Z M63.9242256,94.0964184 L63.9242256,80.5312373 C67.2213538,80.6353276 70.7296,80.9848189 74.4,81.6800163 C71.7235077,85.8530932 68.2298872,89.9965201 63.9242256,94.0964184 L63.9242256,94.0964184 Z M68.4982359,94.9821327 C72.5444513,90.8942206 75.8441231,86.7489011 78.3877128,82.5581604 C81.0781949,83.2356939 83.8449846,84.1169923 86.6645538,85.2108873 C81.8508103,90.1403541 75.5573333,93.6346357 68.4982359,94.9821327 L68.4982359,94.9821327 Z M89.3302359,82.1424298 C86.2499487,80.8851445 83.2357949,79.8877696 80.3081231,79.1099308 C82.9312,73.9199227 84.4052103,68.6668295 84.7250667,63.3714693 L96.3085744,63.3714693 C95.9257641,70.4041921 93.3821744,76.8729345 89.3302359,82.1424298 L89.3302359,82.1424298 Z" id="Fill-4" fill="#63A441" sketch:type="MSShapeGroup"></path>
            <path d="M31.948759,43.4813797 C31.5913846,43.4813797 23.1574769,43.5577127 19.6174359,50.2131868 C15.5871179,57.7928571 19.8508103,71.076048 31.9493949,88.6275743 C44.0467077,71.076048 48.3110359,57.7928571 44.2794462,50.2131868 C40.740041,43.5577127 32.3061333,43.4813797 31.948759,43.4813797" id="Fill-5" fill="#63A441" sketch:type="MSShapeGroup"></path>
            <path d="M31.948759,63.3544363 C35.8290051,63.3544363 38.9747897,60.2323565 38.9747897,56.382906 C38.9747897,52.5347171 35.8290051,49.4138991 31.948759,49.4138991 C28.0685128,49.4138991 24.9227282,52.5347171 24.9227282,56.382906 C24.9227282,60.2323565 28.0685128,63.3544363 31.948759,63.3544363" id="Fill-6" fill="#FFFFFF" sketch:type="MSShapeGroup"></path>
        </g>
    </g>
</svg>