<?xml version="1.0" encoding="UTF-8" standalone="no"?>
<svg width="90px" height="90px" viewBox="0 0 90 90" version="1.1" xmlns="http://www.w3.org/2000/svg" xmlns:xlink="http://www.w3.org/1999/xlink" xmlns:sketch="http://www.bohemiancoding.com/sketch/ns">
    <!-- Generator: Sketch 3.5.2 (25235) - http://www.bohemiancoding.com/sketch -->
    <title>Instagram</title>
    <desc>Created with Sketch.</desc>
    <defs></defs>
    <g id="instagram-icon" stroke-width="2" fill-rule="evenodd" sketch:type="MSPage">
		<g id="Instagram">
			<circle id="Oval-1" stroke="currentColor" cx="44.6396123" cy="44.72925" r="44"></circle>
			<path d="M60.9649606,62.6017961 C60.9649606,63.2952213 60.4015748,63.8575441 59.706378,63.8575441 L27.3988583,63.8575441 C26.7036614,63.8575441 26.1399213,63.2952213 26.1399213,62.6017961 L26.1399213,43.0324654 L30.3504331,43.0324654 C30.0336614,44.1829772 29.863937,45.3933709 29.863937,46.6427409 C29.863937,54.1729772 36.0044882,60.2993551 43.5524409,60.2993551 C51.1003937,60.2993551 57.2412992,54.1729772 57.2412992,46.6427409 C57.2412992,45.3933709 57.0715748,44.1829772 56.7548031,43.0324654 L60.9649606,43.0324654 L60.9649606,62.6017961 Z M43.5524409,38.0091189 C48.3320079,38.0091189 52.2062598,41.8748669 52.2062598,46.6427409 C52.2062598,51.4109693 48.3320079,55.2760087 43.5524409,55.2760087 C38.7732283,55.2760087 34.8989764,51.4109693 34.8989764,46.6427409 C34.8989764,41.8748669 38.7732283,38.0091189 43.5524409,38.0091189 L43.5524409,38.0091189 Z M52.2590551,30.4742764 C52.2590551,29.7808512 52.8224409,29.2185283 53.5172835,29.2185283 L59.6014961,29.2185283 C60.2966929,29.2185283 60.8600787,29.7808512 60.8600787,30.4742764 L60.8600787,36.5439614 C60.8600787,37.2377409 60.2966929,37.7997094 59.6014961,37.7997094 L53.5172835,37.7997094 C52.8224409,37.7997094 52.2590551,37.2377409 52.2590551,36.5439614 L52.2590551,30.4742764 Z M60.650315,24.0903 L26.3500394,24.0903 C23.3952756,24.0903 21,26.4799063 21,29.4275835 L21,63.7533709 C21,66.7006937 23.3952756,69.0903 26.3500394,69.0903 L60.650315,69.0903 C63.6050787,69.0903 66,66.7006937 66,63.7533709 L66,29.4275835 C66,26.4799063 63.6050787,24.0903 60.650315,24.0903 L60.650315,24.0903 Z" id="Fill-4" fill="currentColor"></path>
		</g>
    </g>
</svg>