<?xml version="1.0" encoding="UTF-8" standalone="no"?>
<svg width="62px" height="62px" viewBox="0 0 62 62" version="1.1" xmlns="http://www.w3.org/2000/svg" xmlns:xlink="http://www.w3.org/1999/xlink" xmlns:sketch="http://www.bohemiancoding.com/sketch/ns">
    <!-- Generator: Sketch 3.3.3 (12081) - http://www.bohemiancoding.com/sketch -->
    <title>icon-lend</title>
    <desc>Created with Sketch.</desc>
    <defs>
        <path id="path-1" d="M27.4704839,54.6918172 C42.5389462,54.6918172 54.7541828,42.4765806 54.7541828,27.4081183 C54.7541828,12.3399677 42.5389462,0.124731183 27.4704839,0.124731183 C12.4023333,0.124731183 0.187096774,12.3399677 0.187096774,27.4081183 C0.187096774,42.4765806 12.4023333,54.6918172 27.4704839,54.6918172"></path>
    </defs>
    <g id="Page-1" stroke="none" stroke-width="1" fill="none" fill-rule="evenodd" sketch:type="MSPage">
        <g id="icon-lend" sketch:type="MSLayerGroup" transform="translate(2.000000, 2.000000)">
            <path d="M29.0296237,57.8100968 C44.9337849,57.8100968 57.8724624,44.8714194 57.8724624,28.9672581 C57.8724624,13.0634086 44.9337849,0.124731183 29.0296237,0.124731183 C13.1257742,0.124731183 0.187096774,13.0634086 0.187096774,28.9672581 C0.187096774,44.8714194 13.1257742,57.8100968 29.0296237,57.8100968" id="Fill-1" fill="#63A541" sketch:type="MSShapeGroup"></path>
            <g id="Group-5" transform="translate(0.559140, 1.559140)">
                <mask id="mask-2" sketch:name="Clip 3" fill="white">
                    <use xlink:href="#path-1"></use>
                </mask>
                <g id="Clip-3"></g>
                <path d="M40.2666237,20.019043 C40.2666237,14.0079355 35.3936882,9.135 29.3825806,9.135 C23.3714731,9.135 18.4982258,14.0079355 18.4982258,20.019043 C18.4982258,22.5735376 19.3806989,24.9203548 20.8537742,26.7772903 L28.4009462,26.7772903 L28.4009462,26.1729677 C27.2131935,25.9490753 26.1111935,25.3637742 25.164172,24.4856667 L26.6793441,22.9015806 C27.3678602,23.6593226 28.4184086,24.2274731 29.5200968,24.2274731 C30.5531828,24.2274731 31.2766237,23.5904086 31.2766237,22.7123011 C31.2766237,21.1625161 29.0380108,20.9732366 27.4196237,20.0262151 C26.4726022,19.4752151 25.715172,18.648871 25.715172,17.2886774 C25.715172,15.6185269 26.9203871,14.4822258 28.4009462,14.0690538 L28.4009462,12.0889462 L30.4671183,12.0889462 L30.4671183,13.9483763 C31.3969892,14.0519032 32.2922473,14.3786989 33.1875054,15.032914 L31.9822903,16.754828 C31.5002043,16.307043 30.6910108,15.9627849 29.8989677,15.9627849 C29.0208602,15.9627849 28.0395376,16.3416559 28.0395376,17.2715269 C28.0395376,19.2170215 33.6009892,18.6142581 33.6009892,22.678 C33.6009892,24.5028172 32.2061828,25.8458602 30.4671183,26.1901183 L30.4671183,26.7772903 L32.2991075,26.7772903 C32.2991075,26.7772903 34.9246989,26.7994301 36.1398925,28.5484731 C38.652914,26.5546452 40.2666237,23.4762796 40.2666237,20.019043" id="Fill-2" fill="#488443" sketch:type="MSShapeGroup" mask="url(#mask-2)"></path>
                <path d="M26.1027742,41.9156022 C22.7450108,41.9156022 19.3872473,41.9421075 16.0304194,41.8962688 C15.2402473,41.8853548 14.6870645,42.1042581 14.1348172,42.6658602 C11.296871,45.5533871 8.42867742,48.4112903 5.553,51.2613978 C4.3116129,52.4921828 2.58782796,52.3867849 1.754,51.0262796 C1.52698925,50.655828 1.39633333,50.1668817 1.3904086,49.7303226 C1.35548387,47.1960968 1.31556989,44.6590645 1.40693548,42.127957 C1.43063441,41.4762366 1.76647312,40.6907419 2.22174194,40.2226882 C5.50435484,36.8493333 8.83467742,33.5218172 12.2070968,30.2385806 C12.6530108,29.8045161 13.4201075,29.485828 14.0415806,29.4802151 C20.130957,29.4243978 26.2206452,29.436871 32.3103333,29.453086 C33.7746774,29.456828 34.7678495,30.3910645 34.8133763,31.7019892 C34.8589032,33.0073011 33.9321505,34.0600323 32.4821505,34.1158495 C30.3458172,34.198172 28.2041828,34.1501505 26.065043,34.1579462 C25.7688065,34.1588817 25.4382688,34.0778065 25.1850645,34.1828925 C24.8835269,34.3082473 24.6484086,34.5932581 24.3842903,34.8093548 C24.6555806,35.0578817 24.9150215,35.5044194 25.1997204,35.5212581 C26.5118925,35.5989032 27.8312366,35.5574301 29.1477742,35.5577419 C31.7481075,35.5580538 34.3490645,35.5854946 36.9484624,35.5318602 C37.4093441,35.5225054 37.9725054,35.2864516 38.3027312,34.9643333 C40.8712581,32.4597312 43.3824086,29.8961935 45.9362796,27.376 C47.2762043,26.0538495 49.2263763,26.399043 49.9123978,28.052043 C50.3676667,29.1487419 49.9485699,30.033086 49.1705591,30.8107849 C46.8658387,33.1145699 44.5620538,35.4192903 42.2576452,37.7233871 C41.2102151,38.7708172 40.1356559,39.7929892 39.1247097,40.8744086 C38.4153011,41.633086 37.5746129,41.9221505 36.5702151,41.9193441 C33.0808602,41.9093656 29.5918172,41.9152903 26.1027742,41.9156022" id="Fill-4" fill="#488443" sketch:type="MSShapeGroup" mask="url(#mask-2)"></path>
            </g>
            <path d="M29.0296237,57.8100968 C44.9337849,57.8100968 57.8724624,44.8714194 57.8724624,28.9672581 C57.8724624,13.0634086 44.9337849,0.124731183 29.0296237,0.124731183 C13.1257742,0.124731183 0.187096774,13.0634086 0.187096774,28.9672581 C0.187096774,44.8714194 13.1257742,57.8100968 29.0296237,57.8100968 L29.0296237,57.8100968 Z" id="Stroke-6" stroke="#488443" stroke-width="3" sketch:type="MSShapeGroup"></path>
        </g>
    </g>
</svg>