<svg xmlns="http://www.w3.org/2000/svg" width="17" height="16" viewBox="0 0 17 16">
  <path d="M27.0704917,16.4149333 L27.0704917,22.3562966 L23.626065,22.3562966 L23.626065,16.81285 C23.626065,15.420291 23.1278658,14.4699239 21.8810975,14.4699239 C20.929348,14.4699239 20.3629612,15.1104017 20.1137869,15.7299561 C20.0229199,15.9514444 19.9995307,16.2597271 19.9995307,16.5697658 L19.9995307,22.3562966 L16.5539457,22.3562966 C16.5539457,22.3562966 16.6003506,12.9675175 16.5539457,11.99477 L19.9991944,11.99477 L19.9991944,13.4634749 C19.9922075,13.4744596 19.9831283,13.4863037 19.9765524,13.4969522 L19.9991944,13.4969522 L19.9991944,13.4634749 C20.4569294,12.7584711 21.274396,11.7513496 23.1041403,11.7513496 C25.3710698,11.7513122 27.0704917,13.2322722 27.0704917,16.4149333 Z M12.9497171,7 C11.770987,7 11,7.77315401 11,8.78987788 C11,9.78444545 11.7486812,10.5810635 12.9039847,10.5810635 L12.9270004,10.5810635 C14.1285593,10.5810635 14.8758207,9.7845949 14.8758207,8.78987788 C14.8531787,7.77315401 14.1285593,7 12.9497171,7 Z M11.2046375,22.3562966 L14.6489148,22.3562966 L14.6489148,11.99477 L11.2046375,11.99477 L11.2046375,22.3562966 Z" transform="translate(-11 -7)"/>
</svg>
