<?xml version="1.0" encoding="utf-8"?>
<!-- Generator: Adobe Illustrator 21.0.2, SVG Export Plug-In . SVG Version: 6.00 Build 0)  -->
<svg version="1.1" id="Layer_6" xmlns="http://www.w3.org/2000/svg" xmlns:xlink="http://www.w3.org/1999/xlink" x="0px" y="0px"
	 viewBox="0 0 124 124" style="enable-background:new 0 0 124 124;" xml:space="preserve">
	<g fill="currentColor">
		<path d="M83.1,40.2c-0.3,0-0.5-0.1-0.8-0.3c-0.5-0.4-0.6-1. 2-0.2-1.8l8.2-10.3c0.4-0.5,1.2-0.6,1.8-0.2
			c0.5,0.4,0.6,1.2,0.2,1.8l-8.2,10.3C83.9,40,83.5,40.2,83.1,40.2z"/>
		<path d="M105.9,70.6c-0.1,0-0.2,0-0.2,0L93.1,68c-0.7-0.1-1.1-0.8-1-1.5c0.1-0.7,0.8-1.1,1.5-1l12.6,2.6
			c0.7,0.1,1.1,0.8,1,1.5C107,70.2,106.5,70.6,105.9,70.6z"/>
		<path d="M88.2,54c-0.5,0-1-0.3-1.2-0.8c-0.2-0.6,0.1-1.4,0.7-1.6l14.9-5.4c0.6-0.2,1.4,0.1,1.6,0.7
			c0.2,0.6-0.1,1.4-0.7,1.6L88.6,54C88.5,54,88.3,54,88.2,54z"/>
		<path d="M91.3,82.3l-1.4-3.9c0,0,0,0,0,0l-17-46.7c0,0,0,0,0,0l-1.3-3.6c-0.4-1-1.5-1.6-2.6-1.2c-1,0.4-1.6,1.5-1.2,2.6
			l0.8,2.3L27.7,65.3l-7.8-0.9c-0.7-0.1-1.4,0.2-1.8,0.7c-0.4,0.5-0.5,1.3-0.3,1.9l7.4,20.2c0.2,0.7,0.8,1.1,1.5,1.3
			c0.1,0,0.3,0,0.4,0c0.5,0,1.1-0.2,1.5-0.6l5.4-5.7l12.2-0.3c0,0.1,0,0.2,0,0.3l0.1,4c0.1,3.3,2.8,5.9,6,5.9c0,0,0.1,0,0.1,0l12-0.3
			c3.3-0.1,5.9-2.8,5.9-6.1l-0.1-4c0-0.1,0-0.2,0-0.3l16.6-0.3l0.9,2.6c0.3,0.8,1.1,1.3,1.9,1.3c0.2,0,0.5,0,0.7-0.1
			C91.2,84.5,91.7,83.3,91.3,82.3z M27.8,82.8l-5.1-14.1l5,0.6l3.6,9.8L27.8,82.8z M66.1,85.8c0,1.1-0.9,2-2,2l-12,0.3
			c-1.1,0-2-0.9-2-2l-0.1-4c0-0.1,0-0.2,0-0.3l16.1-0.3c0,0.1,0,0.2,0,0.3L66.1,85.8z M33.6,78.2l-3.5-9.7l32.6-26.7l6.5,17.9
			c0.2,0.5,0.7,0.8,1.2,0.8c0.1,0,0.3,0,0.4-0.1c0.6-0.2,1-1,0.7-1.6l-6.8-18.7l5.4-4.4l15.1,41.4L33.6,78.2z"/>
	</g>
	<path d="M62,6.4C31.3,6.4,6.4,31.3,6.4,62s25,55.6,55.6,55.6
		c30.7,0,55.6-25,55.6-55.6S92.7,6.4,62,6.4L62,6.4z M62,124C27.8,124,0,96.2,0,62S27.8,0,62,0c34.2,0,62,27.8,62,62
		C124,96.2,96.2,124,62,124L62,124z"/>
</svg>
