<?xml version="1.0" encoding="utf-8"?>
<!-- Generator: Adobe Illustrator 15.1.0, SVG Export Plug-In  -->
<!DOCTYPE svg PUBLIC "-//W3C//DTD SVG 1.1//EN" "http://www.w3.org/Graphics/SVG/1.1/DTD/svg11.dtd" [
	<!ENTITY ns_flows "http://ns.adobe.com/Flows/1.0/">
]>
<svg version="1.1"
	 xmlns="http://www.w3.org/2000/svg" xmlns:xlink="http://www.w3.org/1999/xlink" xmlns:a="http://ns.adobe.com/AdobeSVGViewerExtensions/3.0/"
	 x="0px" y="0px" width="166px" height="71px" viewBox="-10.522 -4.245 166 71"
	 overflow="visible" enable-background="new -10.522 -4.245 166 71" xml:space="preserve">
<defs>
</defs>
<path d="M146.621,58.74h-11.279v-5.599c-1.947,3.489-5.842,6.735-12.333,6.735c-9.25,0-16.552-7.79-16.552-20.447
	c0-12.577,7.546-20.447,17.12-20.447c5.273,0,9.817,2.354,11.765,6.41v-5.275h11.279V58.74z M135.018,38.455
	c0-7.059-4.22-10.467-8.357-10.467c-5.03,0-8.276,4.95-8.276,11.441c0,6.572,3.083,11.439,7.871,11.439
	c4.381,0,8.763-3.325,8.763-10.467V38.455z"/>
<path d="M12.756,38.653c0,0,21.364-3.732,27.235,20.709C39.991,59.362,11.186,56.628,12.756,38.653"/>
<path d="M12.756,37.364c0,0,21.364,3.731,27.235-20.709C39.991,16.655,11.186,19.389,12.756,37.364"/>
<rect y="1.941" width="11.665" height="56.793"/>
<rect x="47.595" y="20.248" width="11.146" height="38.464"/>
<polyline points="76.908,20.041 64.312,20.041 77.844,59.041 91.057,59.041 104.57,20.041 93.014,20.041
	84.979,47.645 "/>
<path d="M60.393,7.225c0,3.99-3.235,7.226-7.225,7.226c-3.99,0-7.224-3.235-7.224-7.226
	C45.943,3.235,49.178,0,53.167,0C57.158,0,60.393,3.235,60.393,7.225"/>
</svg>
