<svg xmlns="http://www.w3.org/2000/svg" width="18" height="14" viewBox="0 0 18 14">
  <path d="M28.2266527,9.65743803 C27.5927419,9.93845465 26.9115846,10.1283368 26.1968396,10.2138733 C26.9263631,9.77633831 27.4868289,9.08376118 27.7508277,8.25840094 C27.067879,8.66346783 26.3114854,8.95769556 25.5062777,9.11622926 C24.861619,8.42925005 23.943109,8 22.926747,8 C20.9748573,8 19.3924316,9.58242567 19.3924316,11.5343154 C19.3924316,11.8113014 19.4235562,12.0811221 19.48379,12.339747 C16.5466629,12.1924092 13.9422773,10.785311 12.1993027,8.64689793 C11.8949987,9.16907381 11.7207908,9.77611438 11.7207908,10.423908 C11.7207908,11.6500808 12.3446252,12.7318267 13.2929163,13.3655135 C12.7136414,13.3471522 12.1686259,13.1881708 11.6921293,12.9235002 C11.6919054,12.9382787 11.6919054,12.9530573 11.6919054,12.9678358 C11.6919054,14.6803576 12.9102411,16.108728 14.5269261,16.4334085 C14.2304592,16.5142427 13.9180942,16.5574589 13.5958768,16.5574589 C13.3681526,16.5574589 13.146698,16.535291 12.9308415,16.4940902 C13.380692,17.8980535 14.6859077,18.9200134 16.2322825,18.9484509 C15.0229036,19.8962942 13.4989205,20.4614622 11.8430498,20.4614622 C11.5577787,20.4614622 11.2765383,20.4446683 11,20.4119764 C12.5640644,21.4146794 14.4216849,22 16.4176863,22 C22.9184621,22 26.4733778,16.6145578 26.4733778,11.9440846 C26.4733778,11.790925 26.4700191,11.638437 26.4630776,11.4868448 C27.1536395,10.9886282 27.752843,10.3661373 28.2266527,9.65743803" transform="translate(-11 -8)"/>
</svg>
