<svg xmlns="http://www.w3.org/2000/svg" width="56" height="56" viewBox="0 0 56 56">
	<g fill="none">
		<path fill="#000000" d="M28,0 C12.56,0 0,12.56 0,28 C0,43.44 12.56,56 28,56 C43.44,56 56,43.44 56,28 C56,12.56 43.44,0 28,0"/>
		<path fill="#FFFFFF" d="M45.65,17.14 L45.64,17.02 L45.62,16.91 L45.59,16.8 L45.54,16.69 L45.49,16.59 L45.42,16.49 L45.39,16.44 L45.36,16.41 L45.27,16.32 L45.19,16.25 L45.09,16.19 L45,16.14 L44.89,16.1 L44.79,16.07 L44.68,16.05 L44.56,16.04 L44.51,16.03 L11.82,16.03 L11.77,16.03 C11.73,16.03 11.69,16.04 11.64,16.04 L11.54,16.06 L11.43,16.09 L11.33,16.13 L11.23,16.18 L11.13,16.24 L11.05,16.31 L10.96,16.4 L10.93,16.43 L10.9,16.48 L10.83,16.58 L10.78,16.68 L10.73,16.79 L10.7,16.9 L10.68,17.01 L10.67,17.13 L10.66,17.19 L10.66,38.37 L10.67,38.42 L10.66,38.49 C10.66,39.13 11.18,39.66 11.83,39.66 L44.5,39.66 C44.58,39.66 44.66,39.65 44.73,39.64 C44.81,39.62 44.88,39.6 44.96,39.57 L44.96,39.57 L44.97,39.57 C45.06,39.53 45.14,39.48 45.22,39.42 L45.28,39.37 C45.35,39.3 45.42,39.23 45.48,39.15 L45.49,39.13 C45.54,39.05 45.58,38.97 45.61,38.88 L45.63,38.81 C45.66,38.71 45.67,38.61 45.67,38.51 L45.67,17.2 L45.65,17.14 Z M33.72,27.21 L43.29,19.12 L43.3,19.19 L43.31,19.29 L43.32,19.34 L43.32,36.36 C43.32,36.41 43.31,36.45 43.3,36.5 L33.72,27.21 Z M12.99,36.26 L12.99,36.26 L12.99,19.34 L13,19.29 L13.01,19.19 L13.02,19.13 L22.41,27.13 L12.99,36.26 Z M14.04,18.36 L42.25,18.36 L28.09,30.34 L14.04,18.36 Z M13.96,37.33 C13.88,37.33 13.8,37.3 13.72,37.28 L23.35,27.94 L27.68,31.63 C27.8,31.73 27.94,31.78 28.09,31.78 C28.23,31.78 28.38,31.73 28.49,31.63 L32.76,28.02 L42.36,37.33 C42.35,37.33 42.35,37.33 42.34,37.33 L13.96,37.33 L13.96,37.33 Z"/>
	</g>
</svg>
