<svg xmlns="http://www.w3.org/2000/svg" width="1195" height="702" viewBox="0 0 1195 702"><path fill="#236133" d="M0 0h1195v702H0z"/><title>map</title><path fill="#1F572D" d="M535.98 456.76l1.5.9.37.75 1.77.7 1.2.86.57.15.02.64.65.23.63.9 1.22.1 3.72 3.83.7.02 1.08 1.1 1.52.52.6-.1.28.55 1.55.24.5.25h.7l1.43-1.14 3.31-1.05 1.32-.02 4.23-.8 2 .85 1.1-.1 3.36 1.02 2-1.2 2.5-.48 2.47-1.74 2.02-.1.22.35 1.73-1.57 9.62-.78 3.03 3.22.24 1.66 1.74 1.84.38-.34.6.68.84-.6 1.2.17.82-.86 1 .44 2.3-.08.6-1.35.64 1.33.83-.04.47 1.3 1.48.62.9-.25-.5 1.2 1.24 1.2-.84 4.14-1.15 2.3.98 1.15-.48 1.87-.74.36.04 2.04-1.65 1.35 1.74 3.64 2.27 2.96 3.05 2.64.18.98 2.7 2.38.22 1.15.54.56.15 1.9.8.3-.07 1.6 1.5 2.37 1.5 4.83-.76 1.88.83 2.95.86 1.44.5.2.4 1.28-.43.43-.14 3.1-1.63 2.4-.98.35-.1 1.05-1.07.9-2.05 7.97-.8 1v6.15l.44 1.65 1.33 1.63 5.35 10.5 1.76 2.53-.1 5.95 1.4 3-.22 1.62 1.37 6.82 1.32 1.62.25 1.1 2.1 2.07.53.18-.1.68.78.62 3.15 8.04 1.84 2.62.2 2.75-.67 1.15-.7-.5-.13 1.08.6.44v.5l1.35 2.24-.47 1.48.58.93.1-1.12h.87l.1 1.04 1.5.07.1.97 2.6.25 1-1 1.52-.37 1.15.36.37-.46 1.62.25 1.15-1.5 1.93.05 1.3.5 1.33-.75 3.9 1 .65-1.04 2.17.58.18-1.4 3.5-.15 6.64-5.53 1.5-2.32 2.36-2 3.1-4.9 1.26-2.98 2.82-1.66 1.84-7.17.1-2.16-.57.53-.6-1.15 1.15-1.65.58.07 1.77-1.34 3.57-.76 2.3-2.5.2-1.04-1.1.44 1.05-2.9.07-3.9-.44.23-.18-1.7-.94-3-1.1-1.04.06-2 2.1-1.25 2.6-3.1.2.44 1.37-1.5-.1-.55.94-.2.9-1.5 3.76-2.07 1.7.15.97-1.48 1.9-.87-.1-.58 1.02-.6 1.84-2.75-.6-.47 1.24-1.9-.7-.6.3-.5-.47-.4v-3.6l-.43-.43.5-.84-.43-3.53 1.27-2.02v-1.54l-2.42-2.02-2.02-5.7.7-.62.14-3.4-2.24-2.38 1.4-4.03v-1.55l1.12-.32 1.92-3.86.35-1.84 1.66-1 .8-1.5.98-.4 3.78-4.53.07-.65.95-.15 5.63-5.7 3.83-2.02 2.18-2.74 4.18-3.68 1.58-3.25 2.46-2.3.43-1.73 2.24-3.75v-1.38l1.16-1.3 2.02-2.88.43-3.68.65-.87-.3-2.66.8-1.15-2.23-.8-.65 1-6.14 1.52-3.52-.14-2.3 1.94-3.4-1-2.46 2.1-2.02-.16-3.32-3.68-1.8-.15 2.3-2-3.75-4.92-3.25-3.3-2.23-1.3-2.74-.73-2.38-7.36-4.83-4.9-.6-8.3-1.43-1.08.14-1.95-4.32-3.53v-3.03l.72-.14-1.94-1.88-3.97-7.72-.1-2.02-1.14-1.44.07-1.23-2.96-3.46.07-1.58-1-1 1.07-2.25v2.16l1.97 2.4-.15.86 2.6 3.23.94-.36.14-1.44 1.66-4.26-.07 3.25-.88 1.73 1.8-.07 6 9.23 1.52 4.7h.72l2.88 1.95 1.67 5.27.3 4.77 2.1 1.8.78.06 3.46 4.2-.2 1.14 2.3 3.32 1.58 1 1.74 5.7-.65 1.6 2.97 9.17 4.83-.6 2.46-1.94h3.9l2.88-1.95 2.02.15 2.38-2.16 9.9-3.6-.23-1.6 6.8-3.1 2.67.35.86-2.8 3.25-.5 1.37-3.05 3.1-1-.28-3.1 1.44-1.67h1.02l4.48-6.93-1.8-.8-1.8-3.46-4.92-1.08-3.1-3.4.5-5.1-6.56 7.42-5.92.2-1.1.88-2.8-1.58.87-5.78-1.66-.72-1 2.67.28 2.67-1.37-2.67-1-.87-.36-3.54-4.47-5.12-1.66-4.04-.86-.72 1.23-1.16-.73-1.5 1.23.56 2.17-2.52 1.37 2.38 1.6-.72 4.76 8.8 3.32.58.94 1.66 6.5 2.46 5.26-2.6 2.03 1.22 1.15 4.2 14.23 2.37 14.28-1.45 1.8.87.23 1.37 1.14.56 1.3 3.18 2.02.5 2.1 2.96 3.03-.14 1.86-1.1-1.22 2.32-3.04.44 4.55 5.63 4.55-1.3.8-2.75.2-1.58 2.46.44-1.22.57.86 12.63 1.52 6.93 3.47 6.12 2.3 8.16 2.23 1.73 2.6 8.52 3.1 3.25 1.95-1.52.15-1.5 2-1.16 1.9-3.34 1.22.08.2-5.2 1.97-4.18-1.3-7.15 1.87-1.65 1.07.3 1.16-1.8 3.25-1.1.07-1.08 8.6-8.23 4.54-1.8 2.3-3.25-.6-2.03 3.12-1.16.86-1.57.94 2.3 6.43-1.3 1.37-3.82 2.6.88 1.88 5.4 5.12 4.85-.07 2.45.72-.07 2.02 4.56-1.1 5.2 3.4.86 4.1-2.67.52-2.17 3.1 3.1.22 4.05 3.1 9.74-1 6.5.7.43-1.36 6.35 1.8.22 4.56 5.84 1.3 7.3 2.6 4.54 6.34 4.7 2.74-.22v-1.73l-2.6-3.55.3-6.13-4.27-3.9-2.1-2.38-3.1-.72-2.1-7.22h-2.3l-.43-3.46 2.74-6v-4.4h3.25l.1 2.68 2.58-.08 4.77 6.07 1.44-.64-.3 1.65 2.3-.2 2.1 1.73v5.34l5-3.6.64-2.9 2.1.22 5.62-4.12.2-9.38-.92-3.03-7.94-7.5v-1.45l-2.6-2.38 1.08-3.97 5.56-5.5 3.17-1 1.8 1 1.82-.63-.57 2.38 1.6 2.45.92-.07-.72-2.75.72-1.15 6.57-1.44 2.17-1 .15-1.67 1.3 1 .14-1.95 1.94 1.23 7.58-2.1 10.03-9.23.15-3.75.8-.37.5.65 4.04-6 .57.23.45-3.67 1.15-.8-.07-1.65-2.1-1.6-2.38-.14 1.6-.5 3.1-1.95-4.48-4.27 4.33 1.3-3.53-5.4-1.23-4.2-3.75-1.8 3.02-5.2.07-1.3 1.65.94.65-2.16 4.26-1.44.3.58 1.07-2.24-3.25-.07-2.45-1.5-3.6 2.94-2.6-1.08-.66-2.03-3.6-2.67 1.22-2.67 1.5.3 2.82-1.16.36-1.95 3.54-1.88 2.52-2.82 1.52-.07 1.73 2.17-3.12 3.4 1.1 1.43-1.74 2.17 3.1-1.3.94-1.6 3.4-1.58 3.1-.58.86 1.45h2.9l-1.02 3.62-1.66 2.67 2.3 1.8.87-1.52 2.68.64 1.15 3.98-2.73.28 2.52 4.05-2.1 5.48 5.5-2.3 1.8.36 2.6-1.37 1-3.18-.42-.44-.08-5.12-5.48-7.22-1-.58.42-1.94 7.3-4.98-.23-2.68 3.6-5.04 1.45.07 2.03-2.54 1.5.22.3 1.44 4.55.57 5.7-4.7.5-2.16 1.66-1.3 6.57-8.37.73-4.04 5.85-6.5 1.37-8.44-.86-2.97 1.43-3.9 1.87-3.75-1-.93.28-2.68-3.1-1.87 2.96.8.58-1.23-5.42-5.5-2.96.08-.36 3.6-.86.45.35-1.88-4.04 1.66 1.24-1.74-1.02-1 .72-1.1-1.58.8.13.58-1.44 1.37-.08-4.84-2.96.58-2.02-1.6 17.83-18.4.64-1.58 7.16-7.36 9.23-.15.93 1.23 1-1.73 4.12 1.37 2.1-.65 1.66.72 1.38-3.33 7.3 1.37 2.3 2.53-3.53.14.93 1.96 3.76-1.08.86.58 2.53-1.74 1.6.87 3.52-.88-3.53-2.45 2.46-5.4 5.62-5.06v-2l3.25-2.32 4.62-1.16 2.23 1.95 2.03-1.88-1.6 6.56 1.73-.3-.72 2.76 8.67-7.3.66.95.14-2.68 1.3-4.2 3.75-1.14 1 1.3-2.88 1.65-1.65 8.53.57.94-5.92 2.88-.36 1.8-6.5 7.3v.94l-5.34 5.76-1.3.22-1.23 1.23-1.5-.3.5 2.1-.8 2.25-2.74 1.8-1.3 7.58 1.8 12.4 1.38 7.15.08 3.18.72 2.3 5.4-6.27.22-4.63 4.56-1.3-.5-4.47 4.6-3.18 1.1.5 2-1.37-2-3.82 2.6-4.54-.66-1.03 2.6-.94-1.44 1.52 1.6 1.52.85-2.6-.8-1.6-.78.16-.22-3.6 1.74-2.75-2.53-1.38-.86 1.23-.65-.65.36-3.53 3.75-5.78.44-2.96 3.9-1.57 1.58 1.58.3-2.5 3.46-1.75-.44 4.62 6.5-5.55 3.03.07 3.9 4.4.8-3.4 8-6.06 13.43-8.1 5.85 1.38 1.95-3.24-3.83-11.62-1.44.72-1.73-1.23.36-2.52 4.1 1.15 3.77-2.16 3.06-6.3-1.85-1.9v-2l4.37-1-1.6 1.96 2.1 3.75 8.1.5.24 3.37 9.17 6.13 2.74-6.17.22-3.4 4.75-1.3 2.53-3.9-13.86-8.43-.2 6.42-2.9-9.17-14.36-12.2-15.3-8.43-17.76-1.6 1.5 8.67-4.18 3.18-6.2-9.02-4.26 2.45-12.34-2.53-4.2 3.4-5.47-4.7 1.73-4.7-4.26-6.12-14-.07-6.64 2.24-2.68-2.52 2.17-1.3-2.53-3.4-2.73.95-2.52-2.96-3.68-.57 4.1-1.88-5.33-4.62-12.42-3.68-9.74-.43-3.02-1.3 1.73 2.67-2.5 4.54-2.47 2.16 1.23 5.2-5.05 1.37-1.58 1.73-4.26-3.46-5.5-1.45-.85 2.8-3.96-.43-2.74-6.06-2.1 4.35-2.1 8.94-5.84-5.64-2.45-7 2.32-2.3.36-2.9-.8-4.1.22-2.75-4.33-4.9-9.1-1.66-.78-1.15-4.85-1.38-1.67 4.04 1.23 4.18-6.77 2.17-9.17-2.73.07-2.38 1.3-1.6-10.75-2.02-6.42 2.24-.8 3.46-.65-6.13-1.36-2.3-1 3.02-6.94-3.6 1.96 3.67-15.16 6.92-5.92 6.28 5.48-8.94 12.34-9.46 12.63-14.86-2.1-11.7-7.06-6.64-10.1.44-2.17 3.18-4.77-.15 5.2-6.92-5.92-1.73-3.74 1.44 5.06-6.07-6.36-4.9-4.18 2.16-6.07 11.4 1.17 2.3-8.08 2.74 2.3 5.64-2.75-2.75-8.8 4.04-1.02-3.17-8.66 1.15 2.03 2.17-16.6 7.65-2.03 2.45h-2.6l2.17 2.6-2.6 2.74-3.03-1 2.17 3.3-2 1.74 3.88 4.77-5.48 3.46-1.88-.87-14.44 1.73 2.74 12.84 4.47 2.6-1.3 1.44 4.62 2.02.7 4.84-1.5 2.45 2.1 7.5-2.47 1.5.15 1.6-3.17-1.73v-9.96l3.47-4.32-1.52-1-3.9 1-3.24-4.33-5.04-3.1-5.42 2.6 2.4 1.66-3.77 2.75-2.38-2.24.28 3.33 4.62 2.88 2.16 3.62-2.45-2.1-5.55-.7-2.17-2.25V138l1.52-2.1-2.38-6.86-1 1.23 1 3.9-1.88 3.9-3.75 2.16-.5 2.9 4.3 9.37-2.87 8.3 1 2.67-.2 3.54 4.47.08 2.02-1.6 6.35 3.7 1.22 5.33-1.66.95-.22 3.82 4.4 1.3-4.04.36-1.87-1.95.37-7.3-1.88-3.52-7.45 2.52 1.44 8.44-3.25 3.4-.22 3.03-4.47 2.88-.94 3.04-6.93-1.38-.6-3.18 2.04.5 5.4-2.67 3.6-5.77-.34-4.04 1.08-3.82-3.03-4.05.86-6.92-1.07-4.4 1.08-1.1-.2-7.86-3.18-4.05 1.6-1.3 1.72-10.96-4.04-1.96-6.57.36-3.6 12.4-5 5 .74 1.65-1.16 3.25 2.25.07-1.3 11.54h3.53l3.54 6.66-2.67 5.55-.43-2.5-12.85-9.6-10.32-2.82-1.95 2.16 1.88 5.77-3.25 2.76-1.52 3.1-1.28-2.8 1-.95-2.23-3.17-6.22 5.12-2.52-.8-3.72 4.38-1.63-1.52h-1.1l-.7-6.2-2.52 3.5-.94-.8-.8 2.65-1.8-1.23-13.13 8.84-.64 4.9-5.5 1.23-3.45-6.5 5.35-2.6-2.6-5.92-8.94-1.37 3.7 2.76-1.17 10.02 1.8 1-.7 9.98-6.15-5.7-5.34 4.97-2.53 3.68 4.16 8.45-7.83-3.2-1.62 1.62-1.3-3.25-2.63-1.37-1.4 2.6 2.7 3.97 1.55-.8 1.45 4.08-2.6.83-5.78-4.22-1.7.3-1.48-1.4-1.2-6.72 1.16-.87-.57-4.97-6.27-4.25-1.8-4.4 2.37.5 2.82 3.32 15.66 5.27 6.5-2.68 3.03-6.2-2.16-5.57-1 .3-2.25-2.97-14.52-10.4-.93.66-9.74-3.54.5-1.5-3.74-.3-4.33.94.94-2.1-3.47-2.6 4.2.73 2.73-2.6-6.42-4.83-2.1 4.03-1.72-1.5 2.02-3.54-3.4.73-1.58 3.96-1.44.64.14-4.6-5.05 7.93 2.38-7.65h-4.04l.5 1.65-4.24 6.93-5.5-2.74 1.3 2.45-.28 2.75-1.8-2.74-3.6 5.07v-4.04l-1.96 3.3-.5-1.86-.44 4.1-2.6-1.72.14 1.8-1.58-.8.2 1.88-2.15 4.12-2.82 1.6 3.24.85-4.62.5-.28 4.7-.94-1.88-1.5 3.9h1.57l-1.58 1.44-2.03-1.37-1.87 4.97-1.6.87-.64 3.17-1.3.3 1.3 1.73-3.17 2.9 1.94.57-2.16 1.65.72 2.03-1.52-.58.3 2.24-3.1 2.88.13 2.02-1.5-.28-3.84 5.7 1.08 1.3 3.7-1.23-3.6 2.9-1.45-1.6-5.13 2.67-3.32 2.8 2.02 1.96-4.62.07 1 2.96-4.4.42 3.76 1.66-3.9.8-.06 4.4 3.53-.43 1.3-1.6-.14 1.67 2.94-2.38-1.15 2.1.13 1.87-1.94-1.07-4.7.72v2.16l2.27 3.76 2.3-3.28 1.63.04-1.48.72-2.5 4 1.38.26-3.28 3.97 3.14-1.56-1.16 3.3-.72-.36-.3 2.3 6.37 3.83 5.4-3.97 1.16-2.74h1.9l.56-4.2 1.1 2.76 2.23 1.3-.88 1.15 3.83 12.48 2.1 2.1-1.6 1.7 1.84 3.2-.34 1.88 4.34-.65-.26-3.32 2.64-1.08 2.8.36 2.83-12.92-1.22-2.38 7.43-4.26-7.5-.86 6.58-.5 1.65-2.54-4.9-4.83-.8-7.58.66.72.45-3.97-1.1-2.1 1.9.1 3.2-5.35 3.1-1.7 3.36-2.38 2.04-4.28 1.05-.17-1.6-2.53 1.6-2.87-.8-1.75 2.8-1.77 1.1-2.05 1.7.53.63-.8 2.05.77.62-.76 1.92.42-.04 1.26 1.98 1.94.73 4.38-2.54.07-8.15 12.5-1.6-.32-2.15 3.12.08 5 1.64 4.17-.66-.13-.8 2.9.24 2 3.5 2.3.1.58 1.42.2 1.05 2.32 13.23-4.32 5.13-.8-.73 2.9 1.73.74 1.93-.52 1.82 2.16-4-.54-.84 1.23-.8-.37-.6.92-.83-.23-.14 1.73-3.6.1-4.7-1.33-1.02.93-2.64.28-2.98 2.2.34 2.18-.3 1.08 1.4 1.8 2.53-.6-.94 7.43-2.46 1.8-3.53-5.04-2.45 1.3-2.5 4.88.26 6.74.35 3.72-3.95-.24-1.02 3.07-3.3.38-.95-2.1 1.1-.72-3.55.65-10.6 4.77 1 1.52-6.57-4.4-6.26 3.16 1.15-2.67-3.62-.3-.2-2.02-1.17-1.08 2.6-7.5 2.03-1.02-2.38-.94 1.08-4.54-.3-2.1-2.73 2.82-3.68 1.15-.94 8.6 1.88 1.37 1.08 4.97-.65.6.86 3.1h-1.23l-.5 2.74-2.75-2.46-1.88 3.03-1.22-1.2-4.98 2.08-3.25 6.5 1.8.72-9.24 3.97-.7 4.83-3.58 1.27-1.06 2.07-3.63-.04-.8-1.7-1.9-.08 1.15 5.05-3.28.62-1.3-1.08-1.3-.12-4.6 2.16 1.67 3.25 2.14-.04 6.03 2.57-1.37 1.8 3.75 3.04-1.43 13.13-7.26-.43-2.2.24-4.82-1.02-3.68.37-1.92-.8-1.87.3-.66 1.53-2.18.18-.66 1.34 1.57 2 .5 6.26-2.64 9.74.95 1.67 1.45-.28-.9 5.53 8.24.08.97 3.36 2.28.87 2.7-1.8 1.67-.88 6.3.1 2.02-3.24 2.28-.2 1-2.78 2.15-2.26-2.25-2.68 4.7-6.78 3.44-1.05 3.9-3-.8-4.7 3.62-2.8 6 2.16 1.82-.24 2.82-3.1 1.56.13 2.9-2.56 4.17 1.8 1.7 4.53 1.75 2.33 1.3.55 4.64 4.8 2.02-.08 2.5 2.65 1.2.17 1.35 2.1 1.27.12 1.82 4.96-.98.88-.26 1.2-.5 1.7.95.62 2.1-2.62-.15-1.3 1.5-.83-.02-1.87-1.7-1.44.48-2.13 1.66-1.38 2.27 1.37 1 1.6.6-.06.24-1.05-1.84-2.68-3.83-1.95-2.48-1.04.14-.9.72-.76-.83-.76-2.78.8-3.14-3.1-1.62-4.7-3.85-2.62-.32-5.85 4.7-1.73.65.95-1.57.7 1.6 2.75 1.7-2.3.97 1.26.22 1.37 2.12 2.24-.98.35 2.35 3.25 3.3.5 8.38 7.44-.54 6.1 1.95 2.35 2.48 3.44 1.33 2.76 5.28-.14 1.2 1.04-.73.26-3.75-.87-2.1 2.02 1.74 2.02-.34 1.2 1 1.1.64-1.38 1.12 2.8.72-1.83 1.46 1.3-.22-2.8-1-1.48 1.52.97.9-.67-1.2-1.9 1.7-.27 1.36 1.2-.02-2.35-4.7-2.5 1.35-.73-.3-1.2 1.02-.32-1.94-3.1 1.02-2.12.05.85 1.86 1.56-.06-.9 1.5.92-.5-1.04.37-.4 1.2.8-.9-1.28-1.56-.7 4.76-1.5 3.3.8.37.82 2.26-.05-2.03 1.27.04.92 4.6-3.56 3.88-.08.5-1.15-3.1-1.72-.07-1.62-1.48-2.52 1.43-.96.12-2.3 1.98-.86.32-4.8 2.82-2.13.25-3.18 2.06-.84 1.66-3.28 3.75-1.1-.62 2.47 6.06.72.5.86-3.8 2.27 3 1.77-.03 3.03s5.86-2.45 5.86-2.63c0-.18 3.8-.4 3.8-.4l.28-2.16-4.65.8-3.98-4.1 3.75.45 8.48-5.14 4.62-.43 1.15.9-5.92 2.06 2.7 2.34-3.5 3.67-2.05.27 8.2 6.5 2.7 3.3 4.04 1.78.9 4.9-4.37 3.18-9.28.15-7.9-5.05-6.6.25-5.67 4.4-6.9-.58 1.16 1.8-5.92 1.92-2.02-.58-2.78 2.42-.03 1.5h2.48l.03 4.3h-2.04l4 5.68 5.1 1.5 1.3 2.43 3.4-.8.5-2.4 7.03 3.63 6.23-3.35 2.53 1.2 2.2-.95-1.52 2.02.18 6.4-3.28 6.3-1.9 6.1-3.7 1.98-3.93-1.77-6.23.07-2.78 2.35-11.67-3.28-1.55.86-.8-1.87-5.77-.9-.38-1.63-5.3-1.37-5.17 3.9 1.15 3.1-3.3 3.4-3.12-2.32-7.43-1.73-2.17-3.9-6.5-2.5-3.03.35-4.83-2.88-2.67-1.66 4.4-4.2-.43-2.15-1.88-2.02 2.02-1.94v-2.1l-3.03 1.43v-1.53l-3.03-.8-2.46 1.96-7-1.16-3.4 1.88-1.86-.87-5.64.45-1.6.58-6.33 2.3-1.65 1.1h-1.88l-3.83 2.87-3.82-.65-5.27.3-2.67-2.75-1.73.43-2.3 7-5.42 2.96-2.46 3.02-2.23 5.27-.26 1.98.94 1.48-2.2 3.82-4.44 3.36-4.08 1-2.16 4.56-2.7 1.48-1.85 5.44-3.83 5.8-2.75 7.23 2.46 3.4-.8 2.8 1.34 2.24-2 10.13-2.33 3.2 2.33 3.84-.82 1.4.4 2.9 4.22 1.98.65 2.27 2.28 1.23.14 1.95 2.7 1.08 1.4 5.12.98 1.06zm536.86 112.1l-.33-1.43.6-.9-.05-1.07.96 1.62-1.16 1.8zm-44.92-31.17l.94-.94 1.2.56-.82.15-.74.63-.58-.4zm-8.8-9.82l.85.12.86 1.54-1.6.13-.12-1.8zm-14.54-7.6l.38-1.05 1.06.85-.14.47-1.3-.28zm-5.24-.75l1.2.7 1.56-.98.8 1.07-1.72 1.28-1.5-1.1-.34-.97zm-.75.3l.9 1.45-1.58.04.67-1.48zM413.93 484.1l1.4-1.22s2 .6 2.1.6c.14 0 2.97-.33 2.97-.33l.37 2.1-2.5 2.56-4.15.18-.18-3.88zm.97-3.33l-.37 1.14 1.95.4-1.57-1.53zm-2.9 3.28l.93-1.5.88 1.1-1.34 1.07s-.45-.7-.45-.67zm341.1-131l-7.34 1.46-4.48-1.94-.72-1.45-3.9-.64-.36-7.43 1.16.87 1.87-4.9 1.67-.23-1.1-1.3-1.15.15-4.76-5.84-2.17-4.9.43-4.27-.8 1.46-1.22-3.33-1.23-.2 3.4-6.22-.43-2.37 2.53 2.1 1.3-2.24 1.44-.45-1.1-.87 5.2-1.44 2.03-2.1 5.92.73 3.6 6.14.86.08 1.74 3.4-3.97-1.1-1.73.8-2.38-.93-2.17 1.3-.58-.3.07 3.04-4.55-.52 3.9 4.26.06 2.67 4.62 2.1-.8 1.88.95 4.26.07-1.96 2.6-1.5 2.02 2.74 1.6 1.15-1.24 2.24-4.2-.72-.74-1.3.54 2.1-.94 1.5 1.05 1.8 2.87-.17-1.7 2.3 2.1 1.72-.8 1.44.48 4.52.46 2.48zm-16.87-77.75l-.25-2.63-1.7-1.12.83-2.92 3.1-3.3 4.13-.8-3.97 1.75-1.63.8.04 1.22-1.48 2.02 1.43 2.38 1.55-.86-1.5 2.67.64 1.2-1.2-.4zm-38-30.67l.76-.5 2.3 1.87-.15-2.27-1.5-.83 1.32-.32 2.53 3.14.83.03.14.9-2.02 2.6-.54-1.84-1-.03-2.67-2.74zm-32.88-.94l.9-1.05 1.6.43.43 2.6-.98 2.23 1.55.05.36 2.2-2-1.44-1.85-5zm12.46 3.9l1.63-1.38 1.4.57.04 1.3-.6-.44-1.17.47-1.3-.54zm20.67-12.68l.6-.47 1.48-.4.8.6.04 1.2-.4.2-1.7-.02-.83-1.1zm-5.5-4.87l.67-1.5-1.5-2.25-2.1-.98-1.1-1.73 1.35.32-1.16-2.45 1.44 1-1.05-3.3.32-.45 1.05 1.4v1.8l.98.6-.3-1.27 1.3.22.4-.55-.8-1.87-1.8-.7-.86-1.97 1.8 1.44 2.46 1.37-.5 3.03 2.6 4.76-.15 1.65-1.1.54-.7 1.44-1.27-.6zm-14.63 6.75l-.2-3.64-1.67-1.63.47-.72-.87-1.6-.54-.12v-1.84l1.98-2.13 1.46.04 2.06 2.38 2.02.73.65 2.3.4.04.2 2.16-1.66 2.85-1.4-1-1.1.58-.2 1.48-1.6.14zm-7.54-8.66l-1.44-3.64.57.32.58-2.06.34 1.2.47-1.8.66-.4-1.8-2.2-.26-2.57 2.38 2.05.83-3.83.23 3.03.72 3.9-.86-.97-2 3.9 1.1 1.18-1.5 1.88zm-8 1.3l-1.3-.25-.37-4.63.44-.68-.33-.4.98-3.05-.4 2.82-.04 4.3 1 1.87zm-32.56 5.85l2.9-1.32.86-1.73.34.83-1.57 1.98-1.7.4-.83-.17zm-6.93 16.47l.88-4.76-.25-1.54.57.65 1.23-2-.32 2.84-.97 1-.5 3-.62.84zm-5.33-4.98l1.04-1.92-.52-1.36.5-.48.4-1.48.5-.43.72 1.9-.07-4.28 2.35 1.33-.8 5.06-.57-.04-1.47 1.37v-.75l-2.06 1.07zm296.4 38.72l4.75-1.23 1.8-2.97 6.2-4.55-2.66 1.3 3.97-5.12 3.6-8.37 1.38-1.3.37.93-1.52 6.64v2.45l-1.08 1.8v-.64l-1.3 1.3.73.07v.8l-.94.64-1.23 2.37-3.68 1.44-.58.95-1.44.15-2.02 3.6-3.82 1.3-2.1-.57-.42-1zm-63.02 19.82l-2.4-1.7-1.08.12-.93-1 1.74-.6-.6-.8.97-2.68 1.6-.78-2.6-2.22 1.5.33 1.25 1.58.96.56-2.64 1.2-.43 1.17.4 1.17 1.05.47-1.28.34 1.95 1.28.84-.23.38.88-.52.24-.17.7zm-33.06 13.84l-1.67-3.1-.68-.4.54-2.82.67-.32 3.07-3.03 1.33.48 1.85-.33 4.76 1.16 2.02-.7 1.33.9 1.6-1.38 1.03.1.22 1.2-1.14.82-.55-.43-1.96.44-1.83-.64-3.24-.04-3.2-.07-.5-.73-.24 1-1.08.4-1.05 1.34-1 .26-.85 3 1.05 2.8-.5.12zm-51.18 4.62l-.7-5.3 1.3-1.77.84-2.82 1.8-.67-.03.8 1.05-.55.2-1.66.8.72.9-.5-.5-.76.55-.98.68.7 1.03-1.24.54 1.23 2.27-1.5-2.06 3.22.4 2.24 1.52 1.44.46 2.06-2.2 1.26-.32 1.77-1 .82-.88 1.8-1.9.54-1.38-1.04-.5.46-1.53-.43-.83.5-.5-.35zM664.6 541.82l2.38-4 .87.02.9-.93 2.27.84-2.38.33-.72.9h-.7l-1.87 2.55-.75.3zm13.5-131.38l1.83-3.25 2-1.78 1.22.04.94-1.45-.8-.06.68-1.05.4-1.56.5 3.32-.15 1.12-.98-.36-1.25 1.2-.66-.3-2.02 2.06-.03.76-1.7 1.3zm-102.9 49.83l2.24.43.83-1.7-.82-1.22-1.23.2.86-1.07-1.12-.6-1.04.43-.22-2.1-2.9-.24 2.03-.62-.03-1.52 1.05 2.02 2.96 2.6.5-2.85.33 5.08-.72 2.9-2.7-1.73zm44.65-24.65l.64-.4 2.27.44.47 2.06 3.2.42.2 1.7-2.28.5-.98 1.5-1.04-2.6-1.16-.27-1.33-3.35zm74.55 32.15l.8.83.2 3.97 1.1 2.16-1.9-1.87-.96-3.03.76-2.06zm-13.7 23.78l-.5-2.74 1.07-5.77 3.35-.68.94-1 2.4.57.27 1.62 2.02-.07-2.27 1.37-2.2 4.1 1.2.6-2.8 2.23-.02-1.05-2.06-.9-1.4 1.73zm-4.88-12.2l.5-1.84 2.96-2.73-.1 2.28-1.27.4-.96 1.58-1.12.32zm-3.4 5.13l1.23-2.17.22 1.78-1.44.4zm-1.3 6.28l.04-1.98.76-1.45.4 2.02-1.2 1.4zm6.9 20.38l-1.33-.68-1.02-4-1.96-.8-1.33-3.28.24-1.56-.68-1.62.14-1.5.47-1.02-.6-.55.28-3.82 1.08 4.05.58.5.7 4.88-.73 1.08 3.2 2.46-.56 1.37 1.92 4-.4.5zm-7.44 1.56l.84-2.28.9.84-.83 1.15-.92.3zm20.83 17.32l-.93-.94-1.15.3-1.16-5.8-1-.92.93-2.1.06-4.4-.94-1.23.07-1.44 1.73 1.5.65 3.54 1.3 1.8-1.6 2.67.87 4.5 1.08 1.3.08 1.22zm-14.43 4l.5-.25 1.45.43 2.92-.2-2.92 1-1.95-.98zm-48.03 9.78l.72.43 1.2-.86 1.76 1.2-2.38.57-.9.72-.9-.58.5-1.48zm29.12 8.5l-.07-1.64 1.47-.1 1.6-2.1-.87 1.94.46 1.52 1.1-2.27-.12 1.9.94 1.1-1.12.46-1.1-.7-2.3-.1zm-250.2 40.03l.7-2.8 1.33-.2 1.4-3.78s.4 1.04.58 1.04c.17 0 1.55-.66 1.55-.66l-2.17 3.94-.1.72-2.24 1.48-1.05.25zm-14.97 3.43l.14-1.87 4.33-.16-1.44 2.16-3.04-.14zm-42.44-61.5l2.8 1.67h1.45l-.35-2.02-1.44.16-1.87-1.66-.72.72.16 1.15zm10.32 8.6l-1.23.58-.36 1.44 2.66 1.6-1-1.96-.08-1.66zM73.13 415.4l-.84 2.04 1.33 2.77 1.2-1.47 1.25.2.58-1.17L74.6 416l-1.47-.6zm-13-6.34l.73.76.97-.72-.33-.8h-1.04l-.33.76zM65.5 411l.9.84.48-.75-1.37-.1zm3.3 1.06l1.1.58.2-.65-1.3.06zm2.63 2.16l-.94-1.47 2.05.93-1.12.54zm652.17 154.9l-5.63-4.92-1.6-8.8 5.5-6.93-2.46-8.08 4.77-5.5 5.78-2.6 6.06-9.95 3.2 4.8.42 7.46-10.1 31.77-5.92 2.74zM560.48 293.06l4.2-5.48 3.9.06 2.16-2.9-3.2 1.46-1.5-.94-1.5.58-.6-1.23-1.87.58-1-1.3 4.46-2.73-.5-2.82-1.6.5 2.68-2.67 2.97-.2.3-5.06-1.45.5-1.23-1.73 1.3-3.25-2.67 1.56-2.83-.1-.5.78-.15-1.52 1.6-3.82-.88-1.08.5-.9-.85-.8-.73.76-.2-.65-.3 1.05.2.94-1.3 2.52.65-3.1-.36-.3.4-2.23.75-2.38-1.4.87-1.38-1.34 1.98-2.2.08-1.55-.87-.18.07-2.42 1.7-1.26-.14-1.42 1.57-2.23 2.06.53 3.6-.86-.7 1.7-3.08 3 .54.75-.2 1.12 2.86-.74 4.2.33.27 1.43-1 1.08-2.3 5.83-1.82 1.33 1.27.5 1.2-.65 3.64 2.94 1.24 5.7 1.44-.04 2.92 4.7-.15.68-.86-.08 1.58 2-1.12 2.66 2.35-1.26 2.57.54.65 1.9-.76 2.54-1.27.5-1.26.9.46.36-.83 1.4 2.52.66-1.66 2.06-5.67.8-1.77-.95-3.6 2-.98-.9-1.98.32-1.12 2.2-3.65-.3-.43 1.3-1.65-.35zM453.2 96.72l.86-2.72.37 2-1.2.72zm-1.6 23.25l-.08-2.85 1.83-.5-.2 2.08 1.42.04.15 1.73-1.74-.86-1.37.37zm-6.8 5.78l1.18-1.62 2.54.27.56 2.13-2.73.1-1.55-.88zm-5.2 9.6l3 .54 2.48 2.25-1.3.4.8 2.04-4.7-3.4-.3-1.85zm.4-.55l3.3.73.56.86 1.27.03.43-.86-2.53-1.45-3 .68zm-2.15-1.67l1.5-1.67 3.53 1.76-2.5.9-2.53-1zm-61.05 19.13l1.3 2.04-1.64.27 1.2 1.13-.48.6 2.3.26-.77 1 3.53-.36.53-2.13-3.35-2.94-2.62.13zm55.88-1.9l.77-2.17 3.2-.87.68-.68 1.2 1.95-1.24 1.04-2.3-.14-2.3.86zm-33.32 51.14l-4.08-4.16h-4.2l-7.28-11.58.15-2.9 2.25-2.9-3.8 1.27-.07-3.62-2.5-.7-.84-4.9.93-2.35-1.94-.72.16-2.17 2.42-4 3.08.74-.05-3.26 1.68-2.35-.8-1.64 1.47-2.58-4.77-.9-3.66-3 2.72-.92 5.53 2.86-1.73-4.8-3.32-4.25-2.12-.9-.33 1.36v2.17l-3.14-.78 1.33-3.02-1.26-.63 2.12-5.88-2.4-1.3-.03-2.8-1.56-1.34.2-1.18-1-1.18-.25-4.8-4.57-4.24-.43-3.08-5.53-4.25-6.35-2.27-2.26 1.9-1.55-1.35-2.76.64-1.9 2-3.3-2.8 2.57-1.37.55-1.63-4.2-.08-2.18-3.72 3.44-.8 2.7.8-.23-1.9 1.92.8 3.05-1.16.15-2.08-3.38-2-3.23 2-2.12-.63-.7-2.17-5.27-.37-1.56-2.26.34-2.7 7.4-3.45 1.2-2.44 4.78-.63 4.05-4.07-.44-3.54 1.5-1.08.9-3.44-1.05-.72-4.26 2.44-3.18-1.54-.24-2.8 3.24-1 2.7-4.34 2.53-4.16 2.67.45 1.26.72 1.4-1.44-.34-3.98.84-.72-2.82-2.72 2.17-2.25 3.24.27 5.56 6.6-3.05-5.7-3.02-2.8 6.38-2.08 4.27-3.17.14 2.54 1.2 2.63-.08 7.06 1.8-1.46 1.37-3.7 3.95 2.07 1.07 1.55 2.46-1.8-1.2-3.72-2.62-2-.14-2.9-1.28-2.15 4.4.45 2.36 3.8 3.3 2.62 1.2 2.7 2.7 1.2 1-2.55-1.6-3.98 2.96-.63 1.45.72-.7-2.26-5.06-5.7 3.9-.9 2.43 1.8 4.54 2.9 1.13-2.18-3.52-4.52-6.42-.9-1.37-1.9 3.74.1.55-1.73 2.03 1.54 5 2.53.44 2.62 2 .55-.13-3.17 1.9-1.18-.13-1.53.76-1.28-3.48-2.08.46-1.36 1.9-.36 3 1.35.15-2.26-1.28-1.34 4.95-1.54.3.54 2.28-1.17 4.02.44.4.8 3.06-.17 1.76 2.44s2.67.2 3.34.2c.67 0 4.22.8 4.22.8l-.64 1.9-3.42 1.27-7.47-.27-3.3 2.17-1.74-.54-.1 1.36-5.3 2.07 6.77-.63 3.8-2h4.87l2.42 1.18 1.98-1.62h3.44l.42 2.08-1.23.72.12 1.54 4.57-.64-.08 1.1 1.42-.37 3.03 3.53-2.7 4.34h-2.98l-1.5 1.72-8.6.1-1.82.9-2.6-.37-.92 1.17-4.45 3.27.13 1.8.5 1 2.25-2.72 10.38-3.17 3.56 1.1.7 1.53-6.05 5.6.77.46 6.55-3.72 1.52-.63.6-3.44 1.9-.7 1.27 1.26-.35 8.05-3.52 7.33.34 3.26 3.54-5.8 4.56-8.05.97.82.14 1.98 2.85-1.44 2.76-.27 1.84-4.97 2.48-.18 3.75 1.27 2.82 3.07-3.72 6.33-2.1.46 1.27 1.64-3.5 2.43-3.37-1.08-2.18 1.53-2.78-.54-1.96 3.06 2.85-1.7 3 1.34 4.86-.9.8 1.63-2 .9-5.54.45-1.67 3.17-.13 4.43 1.63.64-.16 1.53.82 3.35-4.23 5.43-.1 5.24-1.03 1.37.04 2.7 3.06-2.47 3.33 2.78-2.56.92.1 1.54 4.15 1.68-.3 3.98-3.36-1.08-4.8-.28-.73 1.63 2.48 5.52 1.45-.18-.65 1.72 2.8 1.44-.14 2.98-2.9-1.1-1.65-1.88 1.43 4.7 2.66 4.97-5.47.1 1 3.26 4.1 3.35-1.14 1.63-4.13-.36-2.34-2.8-3.23.9-.8 3.17-2.2.1 3.24 5.87 5.52 3.63.05 3.26 1.07.8-.34 2.36-2.47 1.35-3.35-6.05-5.68-2.8-.98-1.55.23 2.72 2.62 2.26 1.74 1.8-4.6.2-1.28 3.25 1.86 2.62 2.1-.54h6.7l1.45 1 2.16.42 1.9-.5-3.2 3.2-3.7 3.26-10.13 3.42-.5 1-2.62.72-2.52-2.72 1.12 3.06-2.88 3.64-.12 1.77-2.02 1.53-1.03 2.5-2.14-.9.34 1.57-2.77 1.43-1.58-.63 1.2-1.74-.48.06-1.27-.28v1.87l-1 .26.64 1.3-4.5.67.82 1.27-.7 1.1-2-.13.32.76 1.27 2.66-2.46.57 1.7 2.27-1.74 3.34-2.24 1.54.14 2.5-2.15 6.46-1.4 1.42zM251.98 90.1c.05-.1 1.08-1.73 1.08-1.73l.6.1.62-.77 1.98-.4 1.46-1.82 2.7 2.53.04 1.7-1.3.1-1.1.6-1.8-1.58-.07 1.52-.9.1-1.27-1.3-.83 1.08-.75.37-.47-.5zm-1.83 6.03l1.1-.63.07-1.1-1.3-1-.1-.78-1.4 1.1.43 1h.36l.85 1.4zm4 3.17l-.45-1.07-1.44-.36-.1-3.75 4.62-1.9.42.45.9-.66 1.7.5-.16 1.2-3.6 1.28.85.83.53-.62 1.4.23-.3 2.52-2.1.56-1.68.97-.6-.15zM21.58 210.33l-.48 2.13 1.45 1.3 2.05-.72 3.1 1.88.12.6 1-.07 1.2-1.08 1.22.3-.86-1.42-1.48.4-3.18-2.96-2.02.93-2.13-1.3zm19.6 23.9l-2.5-.55-1.56 1-2.27.04 1.55 1.9 3.03.8 1.02-1 1.1-.4-.38-1.8zm2.12-3.4l1.98.65.22 1.12L44 233.8l-.22-1.37-1.48-.58 1.02-1.04zM.66 285.33L0 284l1.64.22-.97 1.1zm4 .12l.15-1.98 1.6.93-1.73 1.05zm6.86-2.63l1.6-2.06-.12 1.88-1.48.18zm2.42-.25l3.03.14-1.95.63-1.08-.76zm15.23-3.6l1.63-2.82.97-.15.1-.86 1.56.1-3.5 3.5-.76.22zm8.26-6.65l.9 2.24-4.4 1.62 2.9-2.45-.73-.5 1.33-.9zm5.63-3.03l1.74-2.36 2.6-.86 1.15 2.06-2.38.5-1.95 1.4-1.16-.75zm40.3-19.78l-3.02.8-.68-.5-.3 2.9-1.47-1.58.17 4.58 1.12-.83v1.33l1.65-2.17 2.74-1.1-.87-1.24 2.1-.25-1.13-.58s-.26-1.42-.33-1.38zm-1.6-1.95l.67.97 2.93-1-.98-1.38-1.37.9-1.25.5zm20.7-14.58l.18 1.22 1.63-.76-1.8-.47zm-3.93 4.47l.65-1.66 2.13-1.8.26.3-1.3 1.65-.36 1.26-1.37.27zm41.86 14.3l-2.1-1.32-.65 2-1.77-3.62 1.84-1.62 1.12 1.1 1.8.53-.25 2.93zm1.22 2.44l.87-2.23-1.28-2.74.3-1.2 1.58-.1.07 2.34 1 2.24-1.9 2.03-.65-.32zm-1.6 2.28l1.24-1.7-.4-1.37-1.87-1.3-.16.95 1.15 1.7.03 1.73zm1.53 3l-1.05-1.73.83-1.45.22 3.18zm1.2-3.4l.9 1.5.7-1.08-1-.54-.6.13zm1.1 3.8l-.9-1.04 1-.83-.1 1.88zm7.27 4.7l.6-2.66 1.2-.6.67 2.08-.23 1.37.1 1.2-.9-1.1.03-1.7-1.06 1.62c0-.02-.4-.27-.42-.23zm-3.84-5.67l.36-.55.62.36-.33.68-.65-.47zm-.74-.78l-.43-2.15 1.1.85-.84-1.92-2.73-.7 1.47 2 .2 2.42 1.24-.5zm-1.6 1.18l-.36 1.94 1.2-.76.42 2.64.9.07-.3 1.47 2.03 1.4.84 2.32.75-1.5-.43-.46.28-.76-1.77-2.16.05-1.7-1.95-1.4v-1.02l-1.66-.1zm5.52 16.45l.76-4.3-2.24 2.96-.3-.56 1.02-1.08-2.24-1.52-.54.43.87 3.36 1.2.6-.24 1 1.7-.88zm2.4 6.46l-2-3.13.57-2.1-2.38.48.9.9.08 1.3 2.84 2.56zm25.17 19.1l-6.57-2.46v-1.3l-3.1-1.3 1.23-1.22-3.84-2.38-1.8-.08.65-2.3-2.52-.15.8-.93 4.03 1.45 4.35 1.22 2.88 4.62 2.96 1.6.93 3.24zm35.9 82.25l-.12 1.1 1.05.14-.2-.9-.72-.35zm622.8 67.03l.3-.26.82.15 1.87 2.05.2.65 1.3 1.37 1.1 2.74h.4l-.18 2.96-2.45 2.53-1.4.6-1.97-1.6-.94-5.86.46-.06 1.22-3.82-.75-1.44zm-36.37 215.7l-.26-1.33.6-.98.85 1.27-1.2 1.04zm.18 3.07l1.44-.47.43.62.7-.62.97.47-.32-1.34 1.62.27.83-2.02-4.65.86c-.22.05-1 2.25-1 2.25zm185.92-301.6l2.3-1.07.48.72-1.2 1.08-1.58-.72zm4.73 26.43l2.12-2.42-.55 1.84-1.58.58zm115.93-147.6l1.78-3.38 2.74-1-.18 1.73-4.33 2.66zm-359.4-101.13l.7-.54.8.8 1.68 1.16-.45 3.03-1.3-3.26-1.4-1.2zm-87.08 3.63l.9-1.76 1 1.35-.84.16-.5.5-.55-.25zm-5.32 4.33l-.5-2 1.26.76-.2 1.14-.57.1zm-5.17.03l-.76-.87 1.66-.9.25.54.74-.83.9.7-.58 1.07-2.2.3zm3.18 2.05l-1.05-1.62 1.87-1.08.28 1.66-1.1 1.04zm-1.3.58l-1.2-.72.2-.33 1.47.55-.47.5zm-6.72.22l.08 1.73-.98-.9.9-.82zm-3.28 1c-.04-.03.76-.4.76-.4l.03 1.1-.8-.7zm-1.66 2.75l-1.23-1.08v-1.27l1.16.87 1.5-.03-1.42 1.5zm-3.83 2.16l.84-.94 2.2-1.05-.6 1.9-2.45.1zm-3.7 5.05l.28-2.82 2.52-2.05.65 1.55-.32 2.27h-1.52l-1.62 1.05zm-4.38-.62c-.07-.03 1.56-1.98 1.56-1.98l.2 2.35-1.36.83-.4-1.2zm-3.54 4.95l.08-.98 1.7-2.38.8 2.35-2.57 1zm-.6 3.97l.2-1.2 2.97-1.98 1.2-3.65.75 2.5 1.18-2.53 1.3 2.16-3.1 2.73-.43-.62-4.08 2.57zm-19.2 36.08l2.52-.6.54.5-2.2.96-.88-.87zm-31.44 25.65l.06-1.87-.5-.82.68-2.56 1.12 2.85-.57 1.95-.8.46zm-5.85 4.4c.07.04 1 1.5 1 1.5l-1.22.13.22-1.6zm592.4-91.43l.58-3.32 8.23-4.76 4.77.58 2.45 3.32-4.04 2.16-3.47 2.02-2.3-1.44-6.2 1.45zM880.23 22.52l2.88 2.3 6.5-2.45 5.35-.3.7-4.32 2.32-1.87-3.46-3.76-1-7.65L891.47 0l-1.45 2.45-.43 5.34-4.33 1.58-1.16-.14-.4 2.3-3.48 4.77.43 2.6-1.44 1.74 1.02 1.88zm-112.88-6.64l.57-3.33-4.46-2.74-2.17 1.46 3.32 3.32 2.74 1.3zm19.63-.15l-2.9-4.47 4.78-8.8 1.73.28-.58 9.67-3.03 3.33zM775 22.8l-.3-4.18 4.47-7.22 3.18 2.74-2.74 2.02 1.02 7.08-5.63-.44zm-13.44 2.75l.15-3.03h3.6l1.32 2.3-2.17.58-.87 1.45-2.02-1.3zm-6.78-6.35l.3 1.3 3.6-1.3-3.03-.87-.87.87zm-4.48 3.9l2.74 1.3 1.16-2.17-3.9.87zm-7.93 5.48l3.9 2.45.57-2.9-3.18-2.15-1.3 2.6zm-5.78-.44l-3.62-4.62s-.15-5.34.72-5.34 5.92-.14 5.92-.14l3.76-3.18 3.03 1.6-4.6 3.9 1.58 2.16h-4.05l-2.74 5.62zm-12.7-10.68l3.3 2.75 3.47-1.87 2.02-4.04 5.48-1.46-7.22-.43-7.07 5.06zM645.93 41l8.08-8.1h-6.78l-3.32 2.6-1.88-3.46-2.45-5.9 3.46.4 3.75-3.88 5.35 6.64 3.03-2.02 4.04-1.16-1.16-2.16 6.07 2.16 5.77.43-2.45 7.8-2.6 1-1 4.77-4.34.73-1.72-1.6h-6.64s-5.5 1.6-5.2 1.74zm3.46 19.04l4.33-.57-.14-4.05h-2.75l-2.03 2.17.58 2.44zm4.9 14.58l-.7-5.2-3.77 1.45v-3.6l3.33-4.48 4.18.13 4.2 3.9-3.04.43-4.2 7.36zm-19.33 9.24l-8.95-14 5.5 1 .7-2.45 3.6-3.02-4.32-.57-3.18 1.02-2.15-1.6.14-4.18 6.2-1.44 3.05-3.03-2.9-1-2-3.9-2.47 2.74-.14 3.04-2.9 2.6-5.04-4.34.43-6.06-.57-2.74.28-3.46-3.03-2.3v-4.5l1.46-1.87 3.03 5.63 3.16.3 1.16 3.16.87-4.76 2.15-3.17 1.88 8.37 2.88 4.47 1.17-2.02-2.17-10.4-2.6-1.43 2.75-3.18 3.32.73 2.45 5.48 3.03 3.18.14 2.6 7.65 6.63-1.73 2.6-3.6 1.3L639.58 69 637.7 72l-.28 6.06-2.45 5.78zm-337.13 8.5l-4.45-2.97 2.56-1.37-2.54-2.17-.7-3.17 2.08-1.46 4.12 1.64-.77-2.45-2.44-1.9-2.93-.63-.83-1.8-2.95-.82-.28-1.72 4.08-1.18-1.2-1.72-1.96-3.9 2.07.2.72-1-.88-.8-1.77-1.73 1.36-1h2.26l.4-1.54 1.48-2.18 1.65 7.15 2.67 1 .9 3.06.5 2.72 3.48.18 1.24 2.44v2.36l2.4.82 1.53 2.7-1.88 2-3.55.63.42 2.98-1.76 2.63-2.34-1.82-.14 3h-1.7l-.85 1.8zm5.6 15.48l1.48-.36 4.06.46 2.07 1.98.74-2.35 2.2-.72 2.8 1.45 1.48-2.54 1.4 1.63 2.8 1.8 2.8-.63 1.4-2.18-.68-2.54-5-2.62-2.6.9-.26-1.53.48-2 1 1.1 4.8.36 2.7-.72-1.56-1 .4-3.52 2.88-.82-.77-2.35 4.57-2.9-.17-3.6h-3l-4.18-.9 1.25-5.26 5.84.17 2.2-1.1-1.84-3.07 5.35 1.82 1-3.08-2-2.9 2.6-.36.3-1.8 2.3 1.08 3.8-7.42 2.36-1.8-.3-2.18 4.4-2.9.1-2-11.58 6-.8-1.1 4.9-3.8-2.26-.18 9.05-3.45 8.47-8.14-1.46-3.26h-4.52l-1.1-3.44-5.32-1.45-3.65 2.54-2.48-.74 3.75-4.17-5.66-.54-2.85-.9-2.04.53-3.24-1.1.17 3.8 1.83 2.9-5.32-5.24-3.95-.2-2 1.82 2.13 1.27 4.12 3.8-3.28 2.35-3.68-6.5-3.8-.55-.3 1.63 1.55.9-.46 2.35h-2.45l-.12 1.45-2.5-.9-2.26 3.8 6.65 5.8-4.25-2.73h-3l-2.85-4.52-1.06 1.45h-1.5l-.85 2 2.27.17 2.75 2.53-2.46-.18-2.42.54-3.1-2-3.65 2.37-1.05 1.82h-1.88l-.88 1.26 2.67 1.1 2.24-.2 1.22 1.64 3.16-.73-3.77 3.8.5 2.9 6.4-.37 2.57-1.1 1.2 1.82 3.43.73-5.68 3.26-.06 2.9 2.2-1.1 4.07-1.63 3.4.38 3.43-3.08-.16-3.62 2.5-2.7.9 2.8-.96 1.8.44 1.45 1.03-.1 2.78.9.9 1.37-2.76 1.18h-2.44l.93 2-8.95 3.25.16 1.53 1.86 1.54.5 2.9 3.24.8-1.15 1.37-2.44.1-1.72-2.9-5.33-5.43-2.93-.55-.17 2.62 1.98 2.08-.87 1.63 2.82 2.08 3.22 6.7h2.63l1.4 2-2.8 2.16-2.63-1.9-4.6.28-.97 3.43 4.38 1.18-1.18 4.97 2.52 1.63 4.02-2.72-1.9 4-3.04 1.16-5.5-5.35-2.18 1.8 3.28 3.8-.76 2-1.43-.54-4.7 2.2 2.3 3.14zM287 95.72l.93-1.45 3-.13.05-3.67.66-.8-1.36-2.04-1.8-.1.06-1.22-4.1-2.2.15 3.12-.62.54 1.4 3.04 1.94.8-2.07.6 1.37 2.25.37 1.27zm1.35.86l1.4-1.26.58.3 3.47.2 1.04 1.03-.8.68.14 1.54-4.98-.9-.85-1.6zm634.8-35.7l1.8-.9s.63.93.84.78c.2-.14 1.12-.6 1.12-.6l-.3 2.37-3.46-1.66zm-36.08 26.9l1.08-.85 1.7.25.58 2.4-3.36-1.8zM868.3 73.4l.52 2.14-1.02.72-.6-1.76 1.1-1.1v.02zm17.94 4.78l3.86-2.96v2.45l-1.95 1.45-.03-.94h-1.88zm-42.07 23.3l-.87-1.7-.57.88v-2.02l1 .17.47-1.16.94 2.5-.72-.12-.25 1.45zM836 131.35l-2.95-1.6 2-2.62v1.23l1.03 1.2-.07 1.8zm-8.65 4.37l2.56-3.45 2.2 1.4-1.36 1.66-3.4.4zm-7.36-6.56l-1.42-1.7.65-1.18 1.33.9-.57 1.98zm-14.63-1.73l1.2-4.9 1.58-.32.94 1.44-.55.97 1.8.7-3.57 1.82s-1.34.26-1.4.3zm-51.75-4.43l3.03-4.18-4.76-.45 8.07-8.08-1.73-2.16 2.6-1.58-2.9-4.76 5.5-1.16 5.77-7.94 5.42-3.1-.3 1.66 1.68-1.15-.5-1.88 5.77.5 10.53-5-.8-3.02 6.72-3.32 3.83 3.1-2.03 8.6-15.6 6.92-7.5 7.58-2.66.22-.65 4.25-2.73-.43-.8 3.25-2.1-.36.95 2.36-1.73 3.1-1.97-1.87.58 5.2-2.8-.88 1.88 2.38-1.74.08.87 1.58-1.83 2.38-4.66-2.08-2.73 1.18-.9-.25.25-.73zm9.96 28.72l-10.68-1.16-3.32-7.8-3.47.58-1.14-5.77 5.05-5.62-1.86-3.33 8.5-5.2 4.35 2.46-3.62 13.42 4.04 9.82 3.47 2.02-1.32.57zm-27.28 19.48l-2.16-1.6 1-6.2 1.88-.28 4.2 3.32-4.92 4.76zm37.1-9.53l-4.2-2.3-2-2.9 2.88-2.45 4.2 5.92-.88 1.73zm-524.27-57.58l.7.83 1.85-.02.23-.7-1-.83-1.77.72zm-11.86 8.43l-1.03-3.03-1 2.04-2.52-.54.28-1.3-.75-.37 1.7-2.18 1.16.04 5.13-7.64 2.45-.3.9.53 1.5-.54-1.13-.8 1.22-.68 2.63 1.9-2.26 1.35 1.46 2.44-1.22.1.47 1.94-1.93 1-.56 2.36-1.83-1.5.9-3.12-1.37.54-.33 2.13-.57-.4.66 1.94-1.27 1.66-.56-1.63-.7.4-.1 2.86-1.33.8zm4.1 2.85l.75-.77 1.54-4.47-2.16 1.27-1.83 2.63 1.7 1.35zm26.17 3.53l-1.37 1.18-1.83-1.54-1.36 1.22-.57-1.35-.97.85s-3.2 1.35-3.53 1.35.14.82.14.82l-3.7 2.16-2.88-.5-1.26-1.62 2.1-2 2.64-.44.47.54 2-2.67-2.7 1.16-1.12-.8-.2 1.34-2.7.23 1.68-3.12h-1.4l-.62 1.28-.62-.27.24 1.36-1.13 1.2-.6-1.33-.9 1.4-1.22-1.5-.46.7-2.78-1.46 1.18-2 2.44.28 2.02-1.9-2.44 1.22-1.97.05.13-1.5 4.55-1.04-3.85-.17.8-2.48 3.38.1-2.4-.96.5-1.45 3.18-.26-.04 2.3 2.77-.8 2.36 2.98-.85 1.17 1.37-.23 1.18 2.58 4.32-.14.52-1.08-2.32-1.85 1.6-1.1-3-3.33 1.92-.68.66-2.76 1.13-.1.7.82-.66.95 1.36 2.5-.6 2.3 1.86.3-.93 1.87 1.54-.9.76 1.8.1-2.3 1.87-.05 1.17 3.43-.75.45-.88 3.8zm12.9-23.8l-1.42-1.1-.77-3.1-.8.14-.6-.86-2 .2-.43-1.04-2.47 1.56-2.04-1.8.36-1.64.66-.04 2.1.9.63-1.03-1.55-.42 1.3-1.35-1.9-.4.53-1.17-.45-.78-1.72 1.85.6-2.28-1.58.2-.47-1.76.64-1.34 2.86-.86.38 1.25 1.32-.18-.12 3 .68.46.02-2 1.16-.87 1.17 2.03.8-.32.34 1.82.94-.34 2.14 2.8.5.05-.7 1.88.15 1.4.54.06 1.35 2.64-.38.95.05.82-1.8.7v.02zm-5.53-.88l1.68 1.47 1.08-.6 1.13.13-2.08-1.83-1.8.83zm-5.27 6.68l-1.18-3.1-.3-1.7-.24-.6 1.9.83.4 2.1.72.56.5 1.96-.6.68-1.2-.72zm7.26 5.15l1.9-1.4.65.47-1.47 1.28-.95-.1-.14-.25zm-5.4 2.24l1.7.12 1-.83-2.15-2.23-1.5.8.7.78-.12.77.38.57zm-.37 1.77l.12-.8 2.54-.88 1.28.7-.14.82-1.8.83-2-.67zm.94 1.78l.87.12 2-.68.63-.55-.6-.37-2.9 1.5zm1.25 1.2l1.03-1.3 1.43-.4.14.55-.87 1.15h-1.74zm-2.3 2.88l-.9 2.35 1.78.95.9-.95-.6-2.17-1.2-.2v.02zm15.9.57l-.5-1.2 1.16-.98-.05 2.05-.6.12zm-2.94 2.6l.1-1 .98.45-1.08-1.67.8-2.3.9 1.8.27-2.4-1.22-.8.8-.65v-2.62l-.65-1.08.5-1.32-1.77-1.72-1.07 1.58v-.54l-2.68-1.22-1.74 1.32 2.08 1.58v1.5l.94 1.62-1.88-.72-2.26-3.85-1.3 1.22.87 3.08h.95l.14 1.76-1.46-.73-.1 1.27-.74-.14-.43 1.45 4.48-1.4 3.38-.36-1.88.84-1.83 3.67.9 1.73 4.03-.37zm4.5-3.8l-.65-1.5.9.86-.24.64zm2.22-1.23l-2.86 3.85.56 2.2 3.3 2.4 2.1-.36.05-4.8-1.8-2.4-1.35-.9zm31.02 5.74l.74 1.73 1.5-1.13-.74-1.3-1.5.72v-.02zm1.4-6.64l1.74-.32-.8-.8-.14-1.73-.98 1.97.2.87zm-25.6 9.36l-1.88-5.88 1.12-1.9-2.25-6.06-3.75.72-4.5-6.15 2.43-1.8 5.45 2.16-.84 3.7 5.34-2.08 1.8 2.17 2.7 1.62-4.78 1v3.25l2.35-1 6.2 3.62h3.2l.76-1.18 7.33-2 5.16 3.54-2.26 3.35.85 2.36-4.42.9-2.25-2.44-.95 2.62-10.14.45-.1-3.35-1.23 1.44-1.32-1.1.76 2.18-1.3 1.1-1.33-1.82-2.16.54zm19.1 6.4l-.66 4.02 2.45 1.1.8 3.04 2.02.92 3.47-1.78 6.63.86-3.75-6.15-4.12-1.72-2.1.7-4.75-1zm-46.56 14.77l3.1-.35 2.16-3.96-2.74-1.95 3.6-.3 3.33.6 5.85-10.64-4.9-1.38-1.1.52-4.68-2.25-5.92 2.76 2.17 2.54-2.96-.92.22 8.85 1.87 3v3.5zm-5.86-9.94l-1.22 1.1 1.08 1.77 1.3-1.44-1.16-1.43zm-8-6.4l2.16 1 2.96-2.54-3.32.17-1.8 1.37zm1.73 22.78l-5.63-8.15-2.74.22-4.2-5.28 1.6-1.97 3.9 3.8 3.03-1.6-.45-3.8-3.75-1.73 4.2-4.83 2.87 2.07 6.93-.92-4.04 8.16 1.88-.7 3.03 2.77.43 7.82-7.07 4.14zm60.84 13.55l-1.37-2.53 3.46.75-1.4.95-.72-.24.03 1.07zm1.52 4.45c.13-.14 4.2-3.85 4.2-3.85l-1.83 3.05-2.38.8zm15.14 6.4l1.37 1.33 1.2-.23 1 .32 1-.44-1.45-1.37-1.3-.4-.22-.68-.86.7-.73.8zm-5.56 5.07l-1.47-.57-1.08-3.28 2.13-3.2 1.63-.63 2.38.85h.76l.4 4.43-2.06 2.13-2.68.27zm17.72 27.33l1.3.97 1.16-.36-1.02-.57s-1.46-.06-1.44-.03zm18.12 6.24l2 1.7.5-.38.06-1.2-1.12-.64-1.44.52zm-9 21.65l.87-.78.4.1.25-1.78-1.4.8s-.12 1.47-.12 1.65zm-36.65 27.45l-.18-2.42 1.3-2.2.6 1.1-1.26 1.68-.47 1.86zm-7.94 15.92l1.98.35 1.2 1.27 1.3.28-1.04-2.7-2.1-.37-1.33 1.17zm7-51.78l-1.22-2.18.22-3.53 2.6-.16-1.15 3.97-.44 1.9zm-12.92-3.7l1.82-5.33 3.24-1.1 1.38.6-2.53 2.73-.06 1.45s-3.9 1.66-3.83 1.66zm19.72-25.45l4.25 1.2 1.8-2 4.05.68-.8-1.95.94-.46 3.83 1.43 3.02 4.72 2.16-.06 1.74 1.45-1.74.74 5.5 3.97 2.16-.8 4.04 3.6 4.98.8 2.45 1.22-.5-1.5.15-.75-9.3-8.16 1.14-.24 5.7 3.16.36.98 4.9 1.1 1.23 1.77.57-2.76-.87-2.52 1.16.52.07-3.74-2.9-1.2 1.96-1.9-3.33-2.02-2.45-.05-1.88-4.44-1.73-.4 1.8-1.9-3.16-3.05 2.8.2.23-1.34 1.37.52.07 1.27 2.83 2.24 1.87.05 2.46 4.65 3.46 1.67.22-5.06 2.3 1.22 2.1-2.82-1.52-1.32.58-.98 2.24.92v-1.15l1.37-1.43-3.53-2.7-3.17 1.2.72-2.58h-3.54l.58-.93-2.1-3.1-1 .12.2-1.32-3.8.97-.16-2.07-1.87-.28.28-1.16-5.62-1.67 1.8-.75-1.14-1.72 1-.3-2.3-1.54 2.3-.23 1.88.9 2.6-.28-2.67-1.96-3.75-.17-.94-1.27 4.04-1.44.65.62.72-1.26-3.53-3-.36 1.22-2.4 1.32 1.24-1.5h-3.9l3.6-2.12.95.17.2-1.2-4.9-1.22-2.08 1.38 1.93-2.28-3.17 1.38.8-2.94-3.26.92-1.58-.98 3.1-.8-4.2-4.48-3.02 2.87-1.66-3.63-2.23.7.44-2.2-2.3-.86-.74-3.2-7.64-2.54-3.33 3.9-3.75-1.72-3.03 5.07 1-7.8-2.73-3.8.72-1.4-1.44-3.2-7.36 1.5-3.76 3.32 2.6 1.84-3.46-.34-.87 5.17 1.3.68-2.9 2.88 5.07 3.8-2.3 4.7-.74-.92-4.18.58 4.76-2.65-4.47-4.94.56-3.68-.86-2.76 3.46-7.6 2.75-1.95-6.5-.46-7.5 5.4-3.03 11.72.87 1.38-.58 2.65 6.35.9 2.03 1.97-3.32 1.15-2.88-1.04 2.6 5.3 6.5.22 3.9 2.65 7.3-.3 3.8 1.56.66-1.1 2.96 1.1-1.23-1.73 3.7.18.8 1.1 3.82-.35-2.6-3.68 4.83 1.5 1.44 3.05 6.27 4.65-3.68.98-.22 2.93 6.06-3.33 2.02.34-1.95 1.43 2.1 2.24.5-1.2 1.16 3 1.44.04 2.82 7.2-2.16 3.62-4.9 3.28 3.16 4.7-1.94-.9-3.7 1.83-6.84-1.15-.08 1.84-2.1 1.9.08 1.84.88.7zm18.33-3.28s1.55 2.36 1.8 2.3c.26-.06 2.86-1.5 2.86-1.5l.2 1.07 1.2.2-1.32-2.93-3.57-2.14.94 3.47-2.1-.46zM327.5 211.3l1.3.22 1.08 1.6-1.94-.44-.44-1.37zm-4.04 1.66l1.95-.57 1.3 1-.64 2.1-2.6-2.54zm-19.2-20.63l2.6 1.66v.85l1.66 1.37-1.8-.15-2.46-3.74zm-3.4 1.5l1.24 2.03-.07 1.15.8 1.68 1.22-1.16 1.08 1.73 2.53.65.65 1.88 4.12 1.87 1.16 4.84 2.52-.95 2.02 2.38-2.52 2.46-4.33-1.67.28-1.23-2.67-.58.65-1.66-2.6.58.58 1.95-3.38 4.1-2.96.94-.8-4.98-4.7 2.1.3-2.46 2.96-2.38-.86-3.03.65-6.44 2.17-3.82zm-3.5-15.22l-1.03-1.03v-3.18l.82-.76.36.6.27 3.26-.4 1.1zm-41.45-11.4l3.1-1.44 1.53-5.84 6.7 6.06.37 2.9 1.88.78-1.66.65-2.17 2.6-7.65-4.25-1.16.94-1.37-1.16.44-1.23zm-18.97-31.52l-3.54-4.03-2.25-.74 2.24-2.23 3.88-.35 2.24 1.5-.3 3.45-1.07.97-1.22 1.44zm-39.77 12.36l4.47-.58 1.3.8-2.17.12-6.2 3.34 3.75 2.76 10.55-.46 6.35 2.64-.58.92-6.93-1.26-9.68 3.33 1.16 2.42 4.04 2.87 5.2-.57 3.03 5.5 13.42-1.37 8.66-5.17.3 1.73 8.22 3.67 7.22-2.64-2.46-2.42-3.6 1.15 2.75-4.6 5.34 1.5.13-2.65-7.8-4.03-4.76-4.13.72-2.65-3.18-12.07-8.8-3.9 3.6 12.3-3.6 1.6-2.32-8.16-5.63-2.87 1.6 3.8-5.93 1.48 2.46-2.07-6.8-3.56-2.73.8 1.3 2.2-3.47.45 1.74-6.78-12.42 6.08-3.32 7.47 5.06 3zm-17.76 3l3.18-3.23 5.77 1.04.58-7.12 15.6-12.08-7.66-6.78-6.64.8-5.5-3.56-10.24 1.5 3.03 6.2-5.34 8.05.27 2.76-2.6 5.18 6.36 1.5 3.17 5.75zm338.86 62.07l-4.62-.7-3.46-2.47-5.42-.07-.28-1.37 2.8-1.1.3-3.1-1.3.58-.58-2.16-5.12.57 3.46-2.25 3.4-.8-2.24-.78 2.23-1.66-2.16-1.58-6.14 1.3 1.45-2.1 1.6.65-1.1-2.3 1.3-1.95 3.4 2.74-1.95-3.03 1.08-.43-2-1.95 5.7 3.54.57 2.72-1.6-.14 1.53 1.16.5 2.45 1.73-2.4.58.66.73-4.98 2.38 3.46.23-2.6 2.38-1.3 1.67 4.12.07-4.2 1.66 1.53 3.83-1.16.43-2.9 2.24 2.53 3.68-1.22-1.66 1.95.65 2.8 3.17 1.02.3 3.03 1.08.72-4.7 6.64-.93-.7-3.77 3.82-2.45-.44-4.62 3.83zm44.72 59.22l1.04-1.55v1.44l-1.04.12zm-6.98-21.6l-.47-2.8.84.43.26-.75 1.77-1-.33 1.68-.67.36.58 1-1.98 1.08zm3.3 4.43l-1.16-.53-.6-1.37-1.1-.27 1.67-1.4.76 2.4 1.08.25-.63.92zm-1.03 5.02l.5-1.26-.52-.66.26-.3 1.48 1.26-1.15.94-.56.03zm2.96 3.8l.6-.56-.3 1.66-.3-1.1zm-3.1-.4l-.5-1.04.6-.52.65 1.3-.75.26zm92-27.43l.8-.94.66.92-1.47.02zm-.98 7.1l2.24-.94 1.1 1.2-1.65.96-1.7-1.22zm.15 6.03l.35-1.45-.8-.76.04-1.37 3.06-.8 1.1 1.04-1.57 1.56-1.16-.1-.5 1.18-.54.7zm-6.7-13.18l-1.18-1.15.55-.7-.04-.54 1.12.76-.47 1.06v.57zm-6.08 19l-.43-1.86.63-2.35 1.38-1.2.55.18.72-.18-.75 1.26-.14 1.6-1.96 2.55zm-5.77 4.45l.03-2.1 1.12-1.8.4-2.1.72-.75-.8 3.4-1.47 3.35zm-5.06 5.52l.75.94.1 1.38-1.4-1.08.54-1.23zm-5.1 5.77l-.14-.9 1.37-.94.36 1.73-1.6.1zm-4.15-4.04l-.36-.9-1.27-.25-.58-2.17-.6-.65 1.4-.2.97-1.24 1 1.22.12-1.7 1-.58.7 1.4-1.23 2.54.88 1.2-.98.3-.04 1.13-1-.1zm-2.45.36l1.08.62.8-.22.4 1.2-.83.53-1.4-1.2-.05-.94zm-4.02-2.73l1.05-.76 1.04.4.22-.33.56.25.3 2.42-.8.35-1.9-.76-.48-1.57zm-52.45 18.14l-.83-.1-2.7.64-.33.8-5.13 2.53-1.34-.22.44-.78-1.23.33.7-1.13-1 .15-.74-.3 1.23-.96-1.6-1.04 1.37-.04 2.03-1.84-1.52-.3 1.04-2.04 1.92-.87-3.72-1.58 1.15-2.04s-1.5-.17-1.7-.17c-.17 0 1.45-2.5 1.45-2.5l3.47.53 1.43-2.12-1.98-.6 3.8-3.04.2 1.23.8-1.85.75 1.37 2.6-.72 1.48 1.73-.7 1.26 1.42.4.33 1.94-3.03 1.73 1.3 2.63.07 2.82-1.44 4.15zm33.32 57.85l.1-.42.76-.1.53.97-.3.36-1.08-.8zm67.08-2.48l-.48-.4.48-.75.57.67-.2.37-.37.1zm2.65 15.63l-.65-.56.84-.87.17.9-.36.54zm-2.53-4.47l.42-.13.58.47-.26.85-.75-1.2zm3.77-2.6l.56-.48.38 1.2-.6.76-.03-.9-.3-.6zm-2.92-5.6l.35-.37.45-.24.6.45-.42.62-.98-.46zm-6.1 3.95l.7-.1.97 1.06 1.7.44.55 1.66.85.1.22.92-1.3-.07-.57-1.62-1.6-.8-1.54-1.58zm8.73-1.26l2.06-.82.98 1.84h-1.7l.13-1.05-1.14.25-.33-.23zm21 17.27l1.7-.85 1.76.43-.4-.93 2.8-.56 1.8-1.05-1.64 1.97-.07 1.2-1.02.07-2.35 1.56-1.87-.65-.72-1.18zm-14.43-3.64l-.25-1.05 2-1.15-.78 1.76-.97.43zm-13.25 1.2l1.62 1.07 1.74-.32 2.97.47.8.75 1.43-.5-.58 1.33-.57-.5-3.64.76-1.95-1.4-2.6-.02.8-1.66zm-10.32-11.16l.54 1.3-1.33-.54.8-.76zm-16.13.57l-1.62 3.3.6 1.28-.86 2-2.56-1.92-1.23-.04-2.52-1.94-1.54-.08-.36-1.66.86-1.15.8.54.97-.47 1.48 1 5.5-1.22.5.36zm-20.5-13.53l-1.3-1.07-.72-4.08 2.24-.94.4-1.28v2.67l.53 1.07-1.15 3.64zm-1.3 10.73l-1.4-1.44-.07-2 .54-1-.3-2.28-.9-.76.1-1.33.84.46 2.83-1.74 1.55 2.6-.36 5.95-.83.6-.6-.44-1.4 1.37zm-20.5-3l.36-.68 1.96-.94-.1.95 1.07.4-.8 1.7-2.5-1.42zM385.7 305.27l3.03-7.15 3.62-5.2.3-3.1 2.36-3.96 2.97-.5-4.05 9.37.36 1.3 1.8-2.96 2.1 1.08-1.3 2.02 7.94 1.16-1.73 4.1 3.6-1-2.95 3.18.5 1.8 2.6-2-.5 7.06-3.03-.72-.88-5.7-1.5 2.67-4.2 2.47 3.32-3.62-3.6.44.57-1.02-4.32.86-3.6-.8-3.4.23zm-16.3-11.04l2.5 1.5.77 1.27 3.28 1.1 2.24-.16-.5-.94-1.27-.36-1.26-1.5-4.77-1.3-1 .4zm10.18 21.1l-.58-1.25 1.8-3.2.33-1 1.04-1.15.52 1.24-.86 2.45 1.98-.25.57 1.17-1.92 1.73-1.3-.25-1.57.5zm-9.94-5.5l2.88 2.65 1.6-.18 1.3 1.12.28-1.33 1.7-1.1-3.5.33-2.5-.58-.9-1.23.22-1.48-1.08 1.77zm-31.04 28v-.8l2.9-1.13 3.5-.1-2.36 1.04-2.88.32-1.16.65zm20.75 83.63l1.16 1.58 2.73-.14 1.23-1.3-1.8-.58-3.33.44zm-19.56-4.62l2.1.86.57 2.96-5.84.8 1.5 1 6.73-.43 1.3 1.66 2.52-2.75 1.37 1.15 1.37-1.15 4.4 1-1.1-2.5-2.44-.45-1.3-2.24-5.5-.8-1.36.95-3.1-.7-1.23.64zM324.9 400.6l-1.73-1.23 1.23-2.02 1.15 1.88-.65 1.37zm-.86 20.85l3.97 2.3 1.16-.85 1.88.07-4.1-2.24-2.9.72zm-15.6-11.97l-.06 1.94 1.3-1.22s-1.16-.58-1.23-.72zm-5.55.14l.8-3.1 12.33-1.66 4.33 2.6 3.4.2 6.77 4.63h1.52l.07 1.15 2.6-.36 2.75 2.22-4.12 1.16-8.23-.07 3.18-2.6-4.7-.7-.78-2.4-11.12-2.88.72-1.3h-3.46l-2.3 1.87c-.02 0-3.98 1.22-3.77 1.22zm-21.05 76.4l-1.08-1.53.87-1.5-1.08-1.17.8-.26 1.43 3.36-.95 1.08zm178 211.73l-2.04-3.1-4.6-2.06 4.73.42.6 1.4.95-.25 1.3 2.28-.94 1.3zm-75-14.22l-1.23-1.3 1.62-2.3.65.53-.08-1.73.6-.18.16-.62 1.33.73 1.46-.1.32 1.54-2.13.9-.9-.07.54 1-1.6.08.3.92-.87-.22-.18.83zm-6.25-3.32l1.2 1.74 1.26.65.87-.95 1.33-.17 1.77-3.07s-3.4.33-3.57.33c-.18 0 1.22 1.37 1.22 1.37l-1.26 1.55-2.82-1.44zm-40.77-40.58l-1.77-1.1.82-1.72-.14-3.28 1.2-1.63.57 1.26.8 1.4-1.22 1.2.93 1.33-.53.46.33.94-.8.15-.17.97zm1.4 5.12l-.43 1.2.8 1.04 1.33-1.05-.65-1.12-1.05-.06zm-1.5 3l-1.06-1.16.76-.33s.36 1.48.3 1.48zm-4.34 15.3l-.45-2.24-.5.98.94 1.25zm.7-1.12l-.24-1.1.86.45-.6.65zm.95 1.7l-.83-.9.72-.26.1 1.15zm-.1 7.2l.93-1.3-.37-4.03-.85-1.3-1.16 2.26.72.65-.47.23.9.97-.22 2.1.5.43zm-1.13 2.32l.47-1.55-1.67.46 1.2 1.08zm1.48 4.3l-.97-3.33 1.33.74.22 1.98-.58.6zm2.13 10.02l-2.06-.75-.18-1.5 2.05 1.4.18.86zm4.44 2l.32-1.82 3.06-1.95-1.66-.5-1.55.68-1.7-1.52 1.52-1.4-.04-1.53-3.32 1.5 1.16 4.14 1.2-.55.75 1.23-.78.3 1.05 1.4zm-.13 3.15l-2.13-.44.07-1.28-1.35-2.16 4.34 2.23-.92 1.66zm6 .5l-.35-1.3 1.5-1.77-.18 2.12-.97.95zm-4.36-1.3l1 1.94 2.5.18-2.63-2.45-.87.32zm12.96 8.83l-.8-2.45-5.2.76 2.03.5s.76 2.06.68 1.8c-.07-.24.08-2.08.08-2.08l2.02 1.94 1.2-.47zm.18-2.6l1.26 1.5 1.48.24-.22-1.84-2.52.1zm-8-10.6l1.2 1.66 2.22-.34-.33 1.16-1.94.7.54 2.47 2.17 1.22-5.34.25-1.48 1.2 7.07 1.9 4.15-1.4 5.05 1.98 1.88-.94 1.8.66.87-1.7-3.28-.14-6.83-6.16-1.27-2.46.98-.15-1.77-3.28-1.72.8-1.1-.44-2.66 2.24-.2.76zm71.73-112.83l-1-3.76.93-2.38 7-6 2.96-.57 2.45-1.74.2-1.15 7.88-.07.65-1.87 2.8-1.37.15-2.9 2.1-2.3 1-2.03 1.1-.94.2-4.7 1.38-1.94.8-6.8-.37-1.86.5-6.7 1.94-.3 3.3-6 3.96-2.63 3.7-5.5.8-6.43-2.6-5.56-4.03.37-5.95-5.4-4.08-2.1-6.14.25-5.56-2.17-2.92 1.48-1.52-4.08-1.15.55-.4-.87-7.9-2.96-2.02 3.54-1.12.12-1.6 3.14-.23-2.42-6.43.5 2-1.66-1.67-1.73-.1-1.87 5-6.5-1.83-.43-2.92-8.34-.7.7-4.6-3.97-6.54-2.17-4.12.94-2.34-.94-.7.44-2.66-3.25-1.95-.07.16-1.7-5.38-4.18-2.7.32.9-.76-1.37-2.45-6.02-3.06 2.96-.83-6.68-.1 1.27.66-1.95.28-2.42 1.08-2.24-.53-1.08-1.4-6.46.45-.8-2.35-3.56-.76-1.52-2.8-1.2 1.9 1.67.65-3.1.85-2.14 1.8 1.23 3.4-1 2.35-1.24-1.34-1.26-1.05.36-1.8 1.12-.9.25-1.58-.8-1.55 2.16-1.74-1.4-1.33-1.63.94-.6 1.15-4.16 1.73-2.06-.1-.9 1.65-1.25-.8-2.4 1.3-.45 3.8-1.43.57-.53 1.1-1.7.98.17 2.5-4.7-4.94-2.74-.3-.3-.55-1.36.08-5.02 2.78-3.03-.9-.83-1.62-3.2-2.2-1.74-4 .58-.76.25-6.4 1.02-1.7.1-3.7-3.3-2.53-5.1-.37-3.75.9-2.13-.4-3.2.3-.77-1 1.9-1.86.56-5.62.32-2.06.36 2.3 1.63-3.6-.47-1.8.76-2.32 1.63-1.73-.44-2.14-4.07-.7-2.05 1.1-3.9.12-1.12 1.33-1.26 6.28-1.63.76-.2 1.1-1.42.7-.87-1.13-7.75 2.06-1.6-1.5-2.7-.7-2.27-4.55-2.38-3.28.57-.76-1.94-3.2.7-2-.2-3.28-.55-.62.02-2.98 1.4-2.2s.22 1.42.26 1.33l.86-2.32-1.38-4.58 1.84-4.58 1.52-1.05-.07-.72 1.52-.22-.14.7 2.78-1.35.9-3.72.3 1.4 4.53-1.22 3.24 1.1.76-1.32 1.7.58.94 1.52 3.5.33.3-.98 2.26 1.04-.9-1.4 1.08-2.16-1.6.33-.67-.43 2.68-.62 3.14-.25.94-1.33-.15 1.7 3.22-1.1-.2.7 1.94-.33.46.66 2.7 1.12.77 1.08 1.4-.18 2.45-1.48 2.06 1.8.04.73 1.27 1.05 1.05.46.04 2.06-.33 2.5 1.08-.87-.44 2.34 1.03 2.2.54-.04 1.35 3.63.85.13.8 1.36.03.66-.14.2.72.45 2.07-.56.3-1.97.7-1.42-.4-3.1-.78-2.26-.83-1.26-.02-.94.18-.3-.1-1.1-1.37-1.84-.73-2.5-.73-2.3.18-1.18v-.83l.4-.66-.04-.8 1.4-2.7.72-.63.44-.06-.4-1.06.5-.38 1.36.2 2.17-1.82.94-.33.22-1.27 2.23-1.6 1.72-.4.63-.97 1.98-1.4 1.44-.16.98-.7-.07-.58-.65-.02-.3.18.04-.5.7-.83-1.13-.6 1.17-.37 1 .74 1.34-1.25-.18-.97-.67.7-.28-.68-1.84-.07.1-1.5.64.88 1.9-.8-.37-1 .13-.45-.18-1.22-1.47-.12-.22-.66.84-1.76-.5-.25.46-1.44-3.35-2 .25-1.06.07.93 2.2.7.07-3.84 1.35-1.28.03-.24.54.5-.87.87.04.96-.18.1.42 1.46-.13 1.44 1.53 1.64-.7.23-.47 2.38.6.65.4-1.84 1.3-1.7 1-2.77-1.94-3.45.23-.3 2 1.26.2 1.23 2.22-3.38v-.82l.62-.58v-1.08l-.94-.9 1.7-2.1 2.16-.58.7-.8.96.1 4.08-.68.2-1.08.8.65 1.2-.63.18.4h1.26l.98-.72-.33-.8-.77.8-1.04-.54-1.35-2.1.76-1.32-.75-1.77 1.37-.7 1.88-3 .65.72 2.2-1.6 1.05-2.34 1.44 1.48 4.62-2.34-.72-.7.32-1.18 1.16.36 2.23-.83 1.2.1 3.46-3.02.55.26-1.37 1.6.1.57 1.5-.33 3.16.44-2.1.36-.75.9-.66-1-3.8 2.26-.24.73-.54.03-1.05 2.02 1.78 3.2 2.02-.93 2.4-2.8.24-1.13 3.03-.58 5.3-2.56 2.02-.36-1.3-.47-.1-1.12-1.38-.18-.47-.9-1.45.9-4.94-1.37.7-.68-2.68-.73-1.3-2.74.36-1.12-1.63-.3 1.53-.95.47-2.02-1.62-.58-1.45.58-2.38-1.77 4.1.07 2.9-2.45-.22-2.06-3.93-1.5-3.03.45-5.63 2.9-4.48 3.27-1.22 2.2-3.72 3.14 2.92-3.2 1.48-2.02-.07-1.3 1.23-.33 1.77-2.88 3.03-2.4h1.73l2.4-3.96 8.87-.95 2.13.73 4.7-.36.62.78 3.9-.98.95-1.03.2 1.45 5.14-5.5 4.92-1.23 4.12-3.6-1.23-4.9 1.02-.45-1.16-2.52-3.4.65-.42-3.68-5.77 2.45-4.4 2.74 2.3-3.67 5.78-2.8 1.15.28.3-1.44-7.08-3.68-2.75-.07.8-2.58-3.32-1.16-.07-1.3-2.1-.22.5-2.23-3.24-.8 3.25.08 1.43-2.6-3.03-1.87 1.95-1.72-4.2-2.46 1.6-1.58-.3-.73-3.24-.13 2.47-.5-1.3-2.82h-3.18l2.6-1.5-3.62-3.84v-2.8l-3.68 3.53 1.52 1.73-2.45 4.7-1.67-.44-4.47 4.4-.8-2.88-.86.8-.58-2.97-4.84 1.15 2.88-3.24-1.95-4.62.86-1.16-.72-3.03.94-2.3-1.3-1.74-.3 1.23-5.98-1.23-1.88-5.63-4.9-2.9-4.05 1.75-8.15-2.6-2.17 2.6 1.95 3.97.72-.15-2.24 6.35 1.38.07 1.95 7.5-3.03-.22 1.02 1.88-3.55 1.66.14 1.95 3.6 2.96 2.82 12.2 1.22-1.16.07 2.52-1.36-.44-1.66 3.75-7.72 5.35 2.74 3.75.36 6.5 1.52 2.38-2.67 2 1.63 1.86-1.04 1.4-1.57-2.3-1.26 1.48.04 1.7-2.45-1.56-.72-2.6-2.2-1.7-2.42.33 2.3-1.23-3.2-3.47.8-2.45-.54-4.3.43-3.28-.4-2.12-2.74-.98-7.1.18-.34-.9-7.22-3.32-1.37-2.92-9.63-4.72-5.1 2.38.84-2.45-1.1-2.4-.02-2.6-1.38-3.75-4.54-.58-1.3-1.88 1.15-10.97 1.73-2.9-1.08-1.65 3.18-2.17 3.4-7.35 5.76-.72-.86-3.83-4.84-2.16-4.4-3.18 5.05 2.6 2.74-.07 2.45 2.16 2.8-4.7 4.26.94 5.13-8.87-7.37-1.1-3.76-4.4 2.82.37 5.04 3.97 3.25-.5 2.95-6.57-2.53-1.66 3.9-.94 1.5 2.82 4.2-.15-1-3.97 2.73 2.6 6.06-5.77.38-3.54-2.68-3.2-1-5.03 1.5.43 2.97-3.32-2.67-.58 1.95-2.24-4.33-1.37-.08-3.83h-3.6l-5.06-1.52-.72 5.5 2.38 2.37-.5 1.8-2.67 1.37-1.3 6.06-1.45 2.23-2.3 3.9-4.12-6.22.43-4.04 2.3.72-1.57-5.05-3.6-3.4-3.26 8.4-.72-2.46.07-1.73-2.53-4.47 1.45-.44-1.73-2.32-1.95.72-2.04-.9 1.67-1.96-.72-1.38 2.17-.64-4.26-5.5.16-2.3-2.96-4.43-2.17.84-.14-2.07-2.18-.05-2.1 3.16.8 2.47-1.5-.63-.95 3.74 1.6 2.76-2.46 2.3 1.1 2.06 8.36 2.6-.22 2.67-.72-1.6-2.3 5.86 2-.42.66-1.52.65 3.53-3.46 4.7-2.24-.16.22 6.43-3.54-1.6 1.45-6.92-1.94 2.23-2.66-3.82-3.83 1.23 2.47 4.32 1.94-.72-.13 2.74-1.8-.22-2.6-3.68.65 2.53-6.14-.65-6.64 1.15-3.68-4.25-.76 1.18-2.78-.25-2.8-3.46.67-.8-2.75-4.16-4.9 3.3-2.35-.08-1.48 3.5 2.85.9.94-.62-.9-.9 3.83-.5.83-2.1 2.2-.43-2.02 4.27-3.97 1.12-1.23 2.7 1.6 1.1-.26 1.82 1.48 3.86-2.2 1.37-1.66-2.42 1.77-.76-2.35-3.75-.8 1.08-.8-2.6-2.05-.1-1.8-2-2.1 2.14-6.42.98-8.73-2.42.72-.72.3-1.56 2.55-.83.46.47.9-1.62-2.74-3.7-2.53-1.3h-1.82l.44.84-3.58-.2-5.05-2.9-5.02-1.3-3.58-3.73-5.23-.28-.5 2.9-1.54 1.5-2.63-.28 1.56-3.1-1.5.07.04-3.18-.8.4-.7-.15.12.7-1.4 1.7.73.2-1.13 1.04.73.95-.88.54 1.04.35-1.26.65-3.03-2.02-1.6-3.7-.65-3.25-3-2.46.4 2.6 1.23.9-2.57 1.05-2.37 3.82.33-2.6-4.05 2.53-2.66 4.44-.2-2.37-6.04 3.97s3.1-4.55 3.32-4.58c.22-.04 3.4-.22 3.4-.22l4.97-5.45-.87-1-4.04 1.3-4.67 4.36-1.08-.6-6 6.24 1.38 4.2-2.1-2.58-2.27-.33.72 2.17-4.22-2.86-2.97.06-6.13-6-6.2-.37-6.14-4.47-7.3 1.44-2.73-2.02-2.68.65-7.36-3.75-3.4.93-6.85-4.82-5.7.65-2.73-2.52-1.16 2.24.52 1.37-3.68-1.5 2.88-2.02-3.82-2.46-3.54 5.42-4.4.72-.72-1.3-1.66 2.3v2.75l-1.16-2.37-6.42 3.75 1.37 2.45-1.87-.42-2.17 2.6-1 4.98-2.54 1.6-6.8 1.22v3.5l-1.62 1.04 2.3 1.12.56 1.12 2.34 1.05 3.65 3.38.97 2.15.47 2.05 2.35.7 1.37-.88-.3.87 2.92-.3.6.87-1.25 1.33 1.84 1.62 1.38-.75 1.27.58 2.96-.58-1.58 1 1.48-.06-.3.8-2.88.58-2.56-1.12-1.98.9.4.8.8-.65 2.15 1.02-.76 1.15-.72-1.1-1.05 1.6-6.27-.03-1.05-1.2.83-.9-.82-2.66-2.64.4-3.35 2.78 1.1.9-2.08-.18-5.24 3.96-1.33.2 3.64 2.33 2.27.3-1.1 1.36-.67-.36 1.6 2.6-.48 1.23 5.84 1.83 1.34-1 2.24.18 1.66 1.16-.4-1.5 1.6 2.3 3.23-3.8 1.12.26 1.16-.94 1.38 1.15-1.3 1.92-1.44-.33.1.94 1.13.47 1.12 4.36-1.6 2.34-3.14.32-.22-.4-2.85 2.97-1.13-.36-2.13 1.08.36 1.62-1.44-.36-3.65 3.33-.64 3.32-1.4.22s-.3 1.84-.1 1.84c.17 0 3.17-1.18 3.17-1.18l-.36.9-1.92 1 .9.7 1-.73.45 3.06 1.08-.87.3.36 1-.04-.65 1.16 3.6.76-2.88 3.17 2.27 2.06-.93.62 3.38 1.4 1.7-3.28-.73-1.26 2.9-3.2 2-.7-1.94.94-1.94 3.2.87 1.57-.22.86 1.92 2.86-1.4 1.52 1.2 2.67-1.56 1 1.47.55 3.1-2.35 1.56-2.16-.15 2.3 1.48 1.05.65-1.13 2.16 3.5.72-1.66-.5-.83 1.5-1.5-.17 1.47 1.15.86 4.36-3-2.44 4.02-.72 5.63-3.47 4.55-4.76 2.6-2 3.32-.3-1.08-5.2 2.3-.14 1.15-2.3 1.34.24 1.6.83-1.22.94.58.65-1.56.47 1.1 1.14-.44 1.8-2.82-.06 1.3 5.52-2.42.3 1.05 1.18-1.2 2.38-1.72-1.6-1.77 1.27.58 2.9-1.2 1.15-1.84.9.22 3-2.24-.84-1.04 4.84-3.75 3.2-3.75 1.92-.86-1.3-2.07-1 .07.43-2.3 1.76-1.92 1.48-.5 1.04-1.92 2.85-4.43.22-1.06 3.2-2.27-.18-1.94 1.77-3.72-.05-1.9.5 2.52-1.58 3.56.18 1.48 1.23.1 2.8-1.83-2.33 2.38 2.8 1.84-2.3-.47-.9.72-.6-.9-3.44 1.9.37 2.07-1.77 3.93.65.86 2.2-.9-.8 1.8-1.98.27-.47 1.33.72.47 2.75-.36 1.8-2.37.18 1 .7-1.87 1.94-1.98 1.9.54 1.6-1.15-.16-.83 1.2-1.52-.26-.36-1.77.33 1.28-1.1-1.23-.94.83-.76-.15-.64 1.95-1.63-.25 2.27 2.93-.4 1.58-.78-.65 1.6 4.58 3.74.83-.87 3.07 1.97.3.94 4.97-.7 2.2.93 2.24-.18-.5.6 2.8 1.02 2.8-2.05 1.62 1.22-.58 2.1-.58-2.35-.58 1.87-.9.87 4.15 1.9 1.13-1.65 1.55-.52-.65-.9.98.94-1.44 1.23-.3 1.98 2.22 2.02-.04.65 2.92 1.84 1.6-.76-1.5-2.6-1.25-.58 1.5-.14.96 1 .58-.82.9 3.28.98-.25.97 1.27.28-2-1.08-3.35.07-2.06 1.7 5.48 1.9.94 1.8 2.13 1.1-.05.43 2.35.94 1.08-1.48.22 1.04.97.72 2.57 2.02.57.26 1.35 2.3 1.6-1.65 1.14-.54 2.7.58.36 1.16-2.46 2.45-.4.64 4.66-.68 1.7 2.45-.47.08 1.76-1.55 2.38 2.13.46 2.56 4.4.76-.03-.5 2.56 1.55 2.24 2.38.4s.3 4.7.48 4.7l1.12.03-.83 2.05 2.1 1.62 2.3-.46 1.33 1.56-1.12.5 5.34.87-.28 2.16 1.58.83.76-.94 1.34 2.9 1.33-1.1 2.6 5.22-.58 1 .95 2.5-2.56 1.83 1.15-3.4-6.4-.66-.13 1.43 2.9 6.02-.34 1.95 1.2.66-1.05.54-1.16 11.22.15 1-1.23 2.68 1.66 6-.14 2.87-1.1 1.8 2.32 3.55-.43 1.8 3.75 5.4.87-1h1.95l-1.44 1.3-.08.72-.86-.36 1.08 3.03 1.6.88-.84 1.12 4.5 5.73.08 2.17 3.4.58 2.4 1.58.4-.46.9 1.5 1.24-.1 2.67 2.85.2 2.13 4.2 8.05.54 2.35 2.5 1.15 2.92 3.86-.76 1.9-2.34.33 5.12 3.9.87-.8 1.7 2.63h.8l1 2.46-.35 2.63.83.25 5 4.16 1.2 2.52 1.3-1.05.22-1.44-2.13-2.46-.86.1-1.22-1.2.5-1.25-2.3-4.23-.87-2.74-.75.03-2.78-3.7-.4-2.25-5.05-4.97-.65-4.4-.72-.58.15-2.6 5.34 1.95 2.52 7.72 3.9 4.4 1.88.66v1.87l4.83 3.97-.65 2.02h1.16l1.66 1.8 1.73.94-.07.94 7.22 6.85 1.65 5.42-.5 1.5.36.5-1 1.1.42 2.16 5.27 2.66.72 2.24 6.07 1.3 1.8 2.02 11.78 4.98 4.54.36 3.1-1.94 4.92 1.44 6.78 6.28 3.68.07 1 1.15h2.1l2.68 1.66 2.6-1.15 1 1.37-.86.3 5.77 6.05-.37 3.18 2.24 1.37.36-1.16 4.1 3.1.73 2.1 5.78 1.23 1.37 1.8.8-.36 1 1.75 2.04-.8-1.38-2.02 3.76-2.9 4.98 1.82-1.23 1.15 2.67 5.05-.22 7.94 1.52.35-1.66 2.52-.36 1.8-2.67.52-.3 2.5-1.22.23.22 1.37-3.83 1.37v2.6l-1.37 2.96-1.15.28.14 4.2 1.37 1.37 1.03-1.23.8 1.45-1.82 2.5-3.1 2.68 1.38 3.97-.8.72 5.13 3.7.3 2.94 2.1 1.67 3.53 10.6 4.76 7.23-1.45 1.15 15 10.1 4.2 4.92 2.16 10.53-1.57 5.34v2.9l-.87 6.9.3 2.18-2.9 9.24.58 4.62-1.15.58.7 10.1-5.48 16.9h-1.44l.72 10.1-1 1.58v6.5l4.75.86-3.17 11.83 1.73 2.02-2.15 2.24-.87 5.4-1.6-.58-1.58-2.45-2.3 5.13 3.53-.72.58 2.16-1.22 1.66 2.67 2.74-3.1.07 1.08 6.22 1.44-1.23-2.45 5.55 2.6 2.9-1.6.78 3.76 5.77 1.95-.8-.22 3.76h3.04l1.6 1.88-3.25 2.85-.34-.52-.25 1.05 3.8 1.6.9-5.8 4-1.75.76-1.15h.83l2.1.6-1.96-3.38-1.37-.33 1.44-.83-1.62-2.4 2.3-3.45 3.26-2.24.5-3.24 6.3-5.63-.66-1.88.94-2.6-.73-.57-2.53-.07-2.9-4.6 4.05-5.06 2.53.07-.5-1.43 1.5-1.66.08-3.53 2.96-2.45-2.46-1.66 1.66-.73 1.8 1.52.94-1.37-1.6-1.73-1.22.58-1.8-1.3.14-5.27 6.35 1.8 2.76-1.8-.07-8.52 3.8.94 11.34-2.8.15-1.46 2.87-3.54v-2.88l-1.3-.22-1.15-1.95.94-1.8-4.48-3.75.07-2.9 2.17 3.04 3.54.65 7.28 1.66 1.8-2.24 1.67-3.47 2.03-1.3 2.53-4.7 3.4-2.23 5.26-10.17 2.24-1.6.2-3.1.6-.93zM319.56 325.75l1.45-2.06 4.92-1.26 2.7.7-.47-1.17 3.14-1-.12 3.92-4.76 1.2-1.95-.88-3.46 1.12-1.44-.58zm-11.94 7.1l1.23-1.32 2.27.25 2.1-1.9.64-1 2.96.15 2.38-1.4 3.32.14-5.52 4-1.2-.05-3.2 1.98-3.18.12-1.8-.98zm-28.4-22.97l9.38-6.58 1.66-2.35 2.24-.3v-1.86s3.36 3.58 3.36 3.4l-.04-2.13 1.98.44 2.57 3.6 2.38-.38 1.3 6.82 12.48 3.06 3.07 5.05-1.55 1.63-4.5-3.54 1.03 2.64-1.7 2.66.26 3.2-2.56 1.64-1.38-4.58-1.44.5-1.77 1.6.5-2.32 1.62-1.6-.87-2.33.58-.83-5.44-2.6.24 1.8-1.45.36-.66 1.66-.57-.68-1.88 4.22.5 4.76-2.17 5.67-2.5.33-.86-2.85.5-2.17-.4-1.72 2.64-9.16-2.8 2.42 2.3-4.44 2.14-.8-.04.7 4.9-1.78 3.37.58-1.37-2.56-1.67.07-.6-1.07-8.02 1.22-3.27-2.16 2.7-2.8-4.3 2.32-3.53 2.16-2.34-1.84-2.93 1.48-1.1-.53zm-67.92 22.86l2.3 1.45 1.53-.86-.5 1.4 1.1.84-1.1 2.06-3.33-4.88zm41.57-58.5l1.48 2.07 2.06.2 1.67-3.12 2.78 1.23-.94-1.66.2-1.77-1.38-.72 2.17.22-.63 1.98 1.45-.75-.37 1.15.62 3.8 1 .82.88 4.44 2.63 4.83-.1 3.07-1.92 3.28-.15-7.72-.82.72-1.73-3.35-.5 1.12-3.14-4.78 1.16-1.62-4.94-.1.97.68-.8 3.17.54 2.78 2.16.1 1.45 2.97-.43 1.4 2.77 3.22-1.95.8-2.06-6.5-3.2-1.4-.35-6.15-1.95.3-.9-1.42 2.16-.65-2.1-1.5 2.22-1.13zm1.92-16.73c.06-.18 1.54-2.5 1.54-2.5l.72.22 1.92-2.08-.33-1.1 1.52-1-.55 1.73 3.8.04.03.8-1.73-.66-2.06 1.66-.94.22-2.5 2.27-.53-.03-.9.43zm-37.1-13.25l4.65-4.4.2-1.37 1.7-1.72 2.68.4-2.7 2.1 1.9.13-.17.95 2.88-.47 5.7 1.05-5.3.03-1.77 1.38-3.14-.15-3.4 1.36.5 1.2-2.84.28-.9-.76zm-23.5-18.18l8.5 1.66 4.35-4.83-5.85-7.22 5.27 4.34 1.08-2.17 1.66 4.26 1.67-1.52-.15 1.9 3.9-1.02 2.53-3.83 7.14-.58.5 1.38-6.28 1.6-5.34 6.55-3.83 1-.86 2.47-7.6 1.08-4.76-3.97-2.16.3.22-1.38zm-21.15-32.19l-.07-3.16 4.04.2 12.27-6.05 3.53 1-5.2 3.97 7.5.44 2.32-2.3-2.75 7.07-3.9.43.66 3.25-6.64 4.25 3.03-6.2-3.9 2.1-.58 2.6-5.48-1.16 4.68-4.76-1.15-1.52 4.33-1-6.57-1.9-5.06 1.45-1.1 1.3zm703.27-158.7l5.5-4.9-5.36-3.3-2.9 1.86 2.76 6.35zm24.24 13.44l-3.3 1.15-11.42-3.76-2.74-7.94-4.2-.58 5.94-5.77-2.02-2.02 6.2-4.9 9.97-.3 2.87 5.2L900.72 42l-2.6-1.3 2.44 7.94zm-1.14 13.57l2.3 1.6 3.76-3.76L920.2 55l-4.47-9.97-3.9.58-1-6.34-2.18 3.03-1.16-1.3-8.08 21.2zm152.72 35.44l2.96 1.95 4.83-.23 8.52 3.97-3.9 5.05-8.52-3.4-3.9-7.36zm-15.3-7.86l6.13 2.67 6.2 4.97-2.52 1.52.72 1.88-3.46 2.88-3.68-2.23.65-6.64-4.03-5.05zm-15.88 10.28l1.87-7.83 4.4-3.54 5.14 7.43 2.45.57v-6.5l4.62 4.84-.73 6 3.55 4.03-4.4-1.87-5.6 3.64-.94-3.2-1.98 4.68-4.1-1.3-1-3.13-3.26-3.84zm-3-.14l-1.26-1.23.68-5.53 1.67 3.03-1.08 3.72zm-1.2 14.25l1.96.9.93 2.85-2.88-3.75zm-76.46-.98l1.16-1.23-.4-1.84 4.55 1.04-1.87 4.2-3.43-2.18zm92.93 4.32l-1.04-.86-.05-3.3 1.87-1 1.16 3.32-1.44.9-.5.94zm-2.82 5.1l2.7-.88 1.14-3.74 5.2-.73 4.04 8.73-9.6-3.32-2.67 1-.8-1.07zm-.2 10.3l3.4.37-.73 1.87-3.55 1.6.87-3.84zM1136.2 279l.93-.72 1.95.28-.86 1.16-2.02-.72zm-21-13.2h1.66l1 3.96-2.66-3.97zm-34.14 27.02l1.4-.18 1.3-2.24-.2 2.5-2.14 1.32-.36-1.4zm-2.13 4.83l.86-1.7.05 1.42-.9.28zm-8.84 12.05l1.45-1.84-.8 1.74-.64.1zm-7.25 6.06l1.4-2.4 1.82-.77-1.48 1.87-1.75 1.3zm-8.48 4.66l2.96-3.68 1.16.58 2.6-1.16-4.2 2.67-1.87 2.3-.66-.7zm-4.83 3.9l2.67-3.75.23 1.3-2.9 2.45zm-12.27-10.97l2.17-25.55-2.6-2.9 1-9.66 2.32.15v-4.2l2.16 9.24-.58 2.9 4.63 16.87-3.62-3.02-3.03 8.52 3.6 8.23-3.02-3.18-1.6 2.75-1.43-.15zm-5.63 20.93l.36-2.17-1.08-1.36 1.95-4.62 3.32.3 1.28-10.04 8.24 6.86 3.4-1.6-.8 3.04 2.52 1.15-6 2.24-2.38 4.55-8.87-2.9 1.58 3.26-3.54 1.3zm-28.8 30.45l4.98-5.77 7.8-1 1.73 1.58 1-2.6 3.62-5.05 3.03 1.72 7.2-10.25-.28-5.34 3.62-3.03 3.18 7.54-1.67 4.87-1.8.95-.94 9.3-1.8 3.47-1.08-2.38-3.1 3.32-6.58-.87-3.67 6.27-1.3-5.12-13.93 2.38zm6.06 4.98l-2.6-3.02 7.3-2.6-.94 3.68-2.45-.43-1.3 2.38zm-8.87 6.36l.5-8.15-2.3 2.24-.3-2.45 4.34-2.53 3.97 3.82-3.54 6.92-2.67.14zm-30.9 33.24l-2.92-5.7 5.46-5.74 1.2.93-2.02 7.54s-1.77 2.85-1.7 2.96zm-40.05 8.98l3.1-1.87 4.7-.17.32 1-1.66 3.3-2.74 2.08-2.92-1.3-.8-3.02zm89.03 68.4l-1.97-1.94 3.35 1.3-1.37.65zm-1.08 1.63l3.43-.06.76.87-4.18-.8zm-23.5-12.25l-.42-1.33 1.02-1.1.23 1.58-.84.85zm-2.68 3.2l-.92-.4.64-2.2 1.65-1.2-.62 1 .65 1.52-1.4 1.27zm-11.1-38.38l-.65.53-4.73-4.75.72 2.52-2.93-2.1-1.77.9-1.98-1.97 1.8-1.55-2.5.57-1.83-5.8 1.2.3 1.28-8.25 4.04 1 1.23-1.3.65 5.53-.68 2.68-2.72 3.6 2.3 4 2.24-1.08 3.4 1.56-1.1.65 2 2.97zm-7.2-2.02l.54-.26.06.97-.6-.72zm-2.07 3.82l-.86-1.3-2.23-3 3.68 1.2.32 1.9-.9 1.2zm6.57-1.3l2.56 2.75-1.8-.98-1.23.4.47-2.16zm3.47.7l2.46-1.06 1.05 2.8.87 2.34-1.55-.04-.44-1.62-2.37-2.42zm0 3.27l1.34.3 1.7 3.46-2.1.5.33-1.37-1.26-2.9zm-8.2 14.36l1.74-3.74 3.7-1.74.7 2.02 5.7-3.17.08-2.17 3.54 7.58-1.16 2.88-.86-2.16-1.8 5.05-.73-1.37-2.95-.58-1.08-2.23 1.44-2.17-4.83.15-1-.87-2.46 2.52zm6.72-9.1l2.03-1v1.52l-1 .3-1.03-.8zm-1.58.88c.14-.36 1.5-5.85 1.5-5.85l.52 3.25-2.02 2.6zm-.94-4.7l1.08.5-1 5.72-2.68-2.6 1.3-.73 1.3-2.88zm-4.4 1.88c.07-.36.43-4.76.43-4.76l4.2 1.37-1.96 2.9-2.68.5zm-15.45 6.2l7.08-6.27.86-3.47.27 3.75-6.42 6h-1.8zm162.62 80.76l1.37 1.37-1.16.14-.2-1.52zm-2.46-3.46l1.74 1.15-1.23.8-.5-1.94zm37.17 5.56l1.23-.5 4.4-1.16-3.46 2.66-2.17-1zm-3.32 4.47l3.7-2.24 1 2.3-2.88 1.16-1.82-1.23zm-42.3 8h2.18l2.67 3.1 5.56 3.98-6.36-1.95-4.04-5.13zm-7.7-33.92l2.23.5 1.22 1.82-3.46-2.32zm-5.8-3.6l2.25.5 1.95 1.8-2.82.3-1.37-2.6zm3.7-2.24l1.87.94.8 2.6-2.67-3.54zm-6.86-2.68l1.72.15 2.17 1.96-3.9-2.1zm-6.72-3.53l2.3 1.16.15 1.14-2.45-2.3zm-19.63 8.88l1.65.3-.43 1.22-1.22-1.5zm14.3-12.7l3.16 2.6.66 1.8h-2.1l-1.72-4.4zm-6.65-2.37l-1.23-3.6-2.67-1.68 4.33 2.18.8 2.3-1.23.8zm-14.3 2.38l3.4.37 2.16-1.1 2.02 1.1 2.9-4.26 1.94-.35v3.97l-7.73 3.53-4.7-3.24zM1002 487.4l1-1.98 1.8.03 1.5-1.73 3.3 1.77 1.98-.25.97 2.85-.58 1.37 1.02 2.24.92-.58 1.37 2.6 1.54-.15 3.1-3.32 1.96-.5.14-1.05 2.3-1.37 5.35 2.9 2.38-.1 2.8 1.03 10.68 3.72 4.7 4.04.07 1.65 5.7 1.95.94 2.17-2.74.36.73 2.16 2.95 2.08 1.67 3.1 2.17.08.22 1.6 4.54 2.37-2.02 1.3-1.66-1-6.35-.88-5.27-6.42-5.4-2.3-4.34 3.24 1 1.8-6.78.58-4.33-3.68-7.72.86 4.2-3.9-2.6-5.55-11.77-3.83-2.53-3.97-2.6 4.04-2.9-5.26 6-1.6-6.2-.06-3.22-2.42zm-2.6-3.93l1.06-.8 2.1 1.16-3.15-.35zm-6.84 2.2l-2.02-5.63 3.28-2.56.54.4-.98 2.12 1.1 1.62-2.4-.6.33 2.73c.02 0 .1 2 .16 1.92zm5.16 3.25l1.7-.94.1 1.77-1.8-.83zm-7.62-1.77l2.67.4-1.58.9-1.1-1.3zm1.84 7.87l.8-.98.1 1-.9-.02zm-.2-1.16l1.25-1.98 4.18-.3 3 1.16 1.1 2.9-3.92-2.28-1.26.54-1.38-.7-1.1.5-.78-.53-1.1.7zm-10.72-4.4l-.64-1.4 3.02.64-2.38.77zm-4.54-1.8l.6-.96.68.5-.57.62-.72-.17zm-.9 0l-.13-.8.82-.52-.68 1.3zm9.86 5.3l1.46.07 1.3-.54 1.58 1.8-1.56 1.35-2.78-2.66zm-10.28 8.15l-.43-1.23 1.2-2.53-.22 1.55.73 1.36-1.27.83zm-1.5-.62l.02-2.17 1.12-.2-.3 1.7-.85.68zm-6.32.36l-2.83.3-.05-7.23-1.52.16-.5-3.25 3.46-7.07.64-3.75 4.47-1.8 8.38 1.8 3.47-3.03-3.1 4.7-8.88-.87-3.9.94-.28 3.68 2.8 1.8 6.28-2.74 1.8.8-2.17.2-1.85 2.68-2.83.86 3.7 4.55-.73 1.15 2.3 2.24-4.2 1.52-.5-2.82-2.02-1.5v-3.26l-2.67 2.46.74 7.5zm-33.57-14.58l-3.32-2.45 1.44-7.93 5.7 1.66 1.22-3.75 4.47-.5 3.4-5.42 4.46-1.16 5.27-7.14 2.38 3.75 5.2 2.25-4.1 1.73-2.02 3.82 1.6 4.77 3.6 3.6-3.54.08-2.02 6.63-3.33 2.24 1.3 1.88-6 5.7-.93-2.16-8.95.2-.3-2.15-4.33.56-1.23-6.2zm78.57 16.4l-.2-1.2.88-1.3.8.8-.37 2.48-1.1-.8zm-.15 2.44l-.08-1.8 1.05 1.22-.3.8-.68-.22zm-9.1 3.8l-.65-.48.07-.98 1.58-1.44.04 1.62-1.04 1.27zm-25.6 1.83l-.7-.96 1.98-.57-1.3 1.53zm2.22-.36l-.57-.4.72-.25-.15.65zm1.03-.63l.43-.58 1.4.27-1.27.9-.55-.6zm4.23-1.04l.43-1.08 2.36-.57.36.64-3.14 1zm-8.16 8.37l-.14 1.1h-1.1l1.24-1.1zm.94-.68l.1-2.46 4.44-1.95.6-1.16 6.55-.98-.54 1.2-6.45 2.7-1.52 1.98-3.17.65zm-12.34-5.9l2.45-1.4 2.93 1.37 1.7-.6 1.22.54 1.63-1.84.06 1.88-5 1.15-4.22-.15-.76-.94zM963 513.7l3.14-.5 3.03 2.06-1.6 1.3-2.04-1.88-2.53-.98zm-7.3-2.8l1.88-1.13 2.86.94-1.4-1.85 3.7.76.8 1.34-7.43 1.2-.4-1.27zm-2.83.9l1.32-2.24 1.22.32-.36 1.8-2.2.1zm-4.48-2.28l1-.65 2.45.18-.94 2.64-2.5-2.17zm-5.47-4.2l1.96-.28 2.87.37-3.68.63-1.17-.72zm-23.52-.78l1.88-2.52 3.6-.07 4.85 3.24 5.4.65 1.46-2.17 5.25 1.52.65 2.1 5.42.72.35 3.8-4.54-2.52-4.47.8-5.56-2.24h-5.63l-8.66-3.32zm6.93-13.46l.87-.1 1.27.9v.6l-2.06.48-.07-1.88zm-8-2.34l2.7-1.27.97 3.18 1.85.43-.8 1.8-1.9-1.44-.7-2.2-2.12-.5zm-2.6-4.9l.93.6-.9 1-.03-1.6zm-9.38-8.17l1.26-.14-.17 1.38-1.08-1.23zm-7.87 9.67l.8 3.4-2.1-2.75 1.3-.65zm-6.07-7.3l.95-.78 1.3 1.88.66 2.88-2.9-3.97zm-3.96-5.4l2.17 2.1-2.52-.8.36-1.3zm-2.3-8.87l7.8 2 9.37 9.25 9.97 5.63-.86 4.2 8.67 8.2-.72 8.68-4.33-.28-10.54-10.83-2.46-5.2-4.6-3.6v-5.2l-4.5-1.45-1.15-3.9-6.63-7.5zm256.3 148.6l-.66-2.4-1.52-.64-3.76-7 1.46 1.67 2.5.5 2.84 5.34-.87 2.54zm.86 18.25l1.73 1.08 5.4-7.72v-2.68l2.75-.2 1.6-6.5-3.98 2.3-4.33-2.88-1.23-3.25-2.67 2.75.8 3.9-4.12 4.83 5.42 3.67-1.37 4.7zm-24.03 25.4l-1.46 2.9 2.6-.88-1.13-2.02zm-3.04-3.6l4.76-8.8 9.66-6.5 4.77-9.24 2.88 2.74 2.47.3-1.3 5.03-6.8 6.65-3 10.24-6.66 3.04-6.77-3.47zm-97.08-44.4l3.18-1.47.72.94 1.8.43-1.8.33-.6.5-3.3-.72zm37.6 18.27l-.57-1.95 1.95 1.08-1.38.87zm-10.82 1.94l3.9 11.42 3.1 1.66 3.54-4.26.64-8.88-5.32 1.88-5.85-1.8zm-96.36-27.4l.04-2.5 1.68-.66.6-6.07-1.94-4.5-.48-1.36-.48-3.63-2.5-4.83-.2-2-2.72-3.6 2.63-.48.1-2.42-2.28-3.8-.13-2.4 1.3-1.75-.52-2.52 1.26-3.6.4 3.23 1.12-2.64 7.24-3.9 3.1-.22 4.52-2.38 1.72.14 5.24-1.73 1.83-3.74 1.74-1.26v-2.9l1.93-2.42 1.87 3.54.62-4.52 2.57 1.07.86-3.86 1.86-2.46 1.8-.1.72-1.9 2.82-.38 1.77.33 2.2 2.37-.33 2.22.83-1.2.8-.73 2.35.3 1.1 1.23.33-1.65-1.03-1.67 1.6-2.4 1.4-.2-.12-2.45 2.64-1.48 4.07.12.86-1.3-.12-1.16 5.43 1.53 3.57.34 1.25-.5 1.14 1.68 1.1-1.8 1.2 1.08-3.9 9.1 3.07 2.88 2.44.13 2.8 2.2 3.08 1.4 2.8 2.74 2.72-.26 2.44-6.87.4-2.1-.6-1.9.1-2.96.5-1.9-.1-1.58.38-1.7.68-.58.42-1.26 1.7-2.38h.76l.25 3.37 2.28 5.1.34 3.26 1.4.7 1.74-.74 2.25 2.46.53 5.4 1.83 2.58.15 4.3 2.38 2.3 6.26 3.02 2.2 4.9.13 3.05 1.88-.44 1.95.16.07 3.87 1.94 1.73.55.52 3.5 4.06 1.77 2.57v5.03l1.4 3.65-1.4 10.38-1.7 3.97-4.1 5.73-2.96 7.12-2.17 9.38-5.02.5-4.45 3.37-1.4 1.98-2.8-2.14-.34-1.6-1.53.4-.16-1.72-3.14 2.88-1.52.66-10.53-3.74-1.9-3.72.3-2.33-1.86-4.06-1.62.87-1.65.06.97-2.55-.83-2.96-1.53 3.43-2.98.43 1.9-1.84.1-2.86 1.38-2.06-.1-3.58-2.2 4.14-2.57 1.75-1.83 3.3-1.46-.86-.2-2.57-3.93-4.8.63-.95-5.07-2.48-1.35.5-2.18-2.12-7.82.08-4 2.07-6.35.4-5.65 2.8-3.3 4.03-6.8-.87-4.04.3-1.28 1.86-2.2.7-2 1.64-1.78.4-4.9-.6-3.5-2.65zm-186.35-49.6l1.1-2.8.42 2.3-1.52.5zm-7.65 1.02l2.38-.22.3 2.24-2.68-2.02z"/></svg>