<?xml version="1.0" encoding="UTF-8" standalone="no"?>
<svg width="640px" height="2999px" viewBox="0 0 640 2999" version="1.1" xmlns="http://www.w3.org/2000/svg" xmlns:xlink="http://www.w3.org/1999/xlink" xmlns:sketch="http://www.bohemiancoding.com/sketch/ns">
    <!-- Generator: Sketch 3.3.3 (12081) - http://www.bohemiancoding.com/sketch -->
    <title>Stats</title>
    <desc>Created with Sketch.</desc>
    <defs>
        <path id="path-1" d="M0.06,0.951 L302.181,0.951 L302.181,308 L0.06,308"></path>
        <path id="path-3" d="M0.06,0.951 L302.181,0.951 L302.181,308 L0.06,308"></path>
        <path id="path-5" d="M0.0456852792,0.590862944 L299.409137,0.590862944 L299.409137,300 L0.0456852792,300"></path>
        <path id="path-7" d="M0,0.824 L299.176,0.824 L299.176,299.94 L0,299.94"></path>
        <path id="path-9" d="M0,0 L299.970223,0 L299.970223,299.955335 L0,299.955335"></path>
        <path id="path-11" d="M0,0 L299.970223,0 L299.970223,299.955335 L0,299.955335"></path>
        <path id="path-13" d="M0,0 L299.970223,0 L299.970223,299.955335 L0,299.955335"></path>
    </defs>
    <g id="Mobile" stroke="none" stroke-width="1" fill="none" fill-rule="evenodd" sketch:type="MSPage">
        <g id="Stats" sketch:type="MSArtboardGroup" transform="translate(0.000000, -440.000000)">
            <g sketch:type="MSLayerGroup" transform="translate(0.000000, 440.000000)">
                <rect id="Bkgrnd" fill="#236133" sketch:type="MSShapeGroup" x="0" y="0" width="640" height="2999"></rect>
                <g id="symbol6" transform="translate(99.000000, 2566.000000)">
                    <g id="Group-3">
                        <mask id="mask-2" sketch:name="Clip 2" fill="white">
                            <use xlink:href="#path-1"></use>
                        </mask>
                        <g id="Clip-2"></g>
                        <path d="M150.779,69.558 C131.633,69.436 116.398,54.091 116.542,35.074 C116.684,16.326 132.627,0.719 151.396,0.953 C170.314,1.191 185.808,16.907 185.635,35.685 C185.46,54.686 170.029,69.681 150.779,69.558" id="Fill-1" fill="#1F572E" sketch:type="MSShapeGroup" mask="url(#mask-2)"></path>
                    </g>
                    <path d="M151.09,77.775 C149.749,77.775 118.102,78.165 104.82,112.104 C89.695,150.757 99.283,252.443 151.092,308 C202.898,252.443 212.486,150.757 197.361,112.104 C184.079,78.165 152.432,77.775 151.09,77.775" id="Fill-4" fill="#1F572E" sketch:type="MSShapeGroup"></path>
                    <g id="Group-10">
                        <mask id="mask-4" sketch:name="Clip 6" fill="white">
                            <use xlink:href="#path-3"></use>
                        </mask>
                        <g id="Clip-6"></g>
                        <path d="M263.012,95.426 C248.887,95.336 237.645,84.014 237.752,69.983 C237.857,56.151 249.619,44.636 263.466,44.81 C277.424,44.984 288.855,56.58 288.729,70.435 C288.6,84.454 277.215,95.517 263.012,95.426" id="Fill-5" fill="#1F572E" sketch:type="MSShapeGroup" mask="url(#mask-4)"></path>
                        <path d="M263.24,103.421 C262.252,103.421 238.902,103.708 229.104,128.748 C217.943,157.265 225.018,232.291 263.242,273.28 C301.465,232.291 308.539,157.265 297.379,128.748 C287.58,103.708 264.23,103.421 263.24,103.421" id="Fill-7" fill="#1F572E" sketch:type="MSShapeGroup" mask="url(#mask-4)"></path>
                        <path d="M38.711,95.426 C24.584,95.336 13.344,84.014 13.451,69.983 C13.556,56.151 25.317,44.636 39.164,44.81 C53.123,44.984 64.555,56.58 64.426,70.435 C64.297,84.454 52.914,95.517 38.711,95.426" id="Fill-8" fill="#1F572E" sketch:type="MSShapeGroup" mask="url(#mask-4)"></path>
                        <path d="M38.939,103.421 C37.95,103.421 14.602,103.708 4.801,128.748 C-6.357,157.265 0.717,232.291 38.941,273.28 C77.163,232.291 84.237,157.265 73.077,128.748 C63.278,103.708 39.928,103.421 38.939,103.421" id="Fill-9" fill="#1F572E" sketch:type="MSShapeGroup" mask="url(#mask-4)"></path>
                    </g>
                </g>
                <g id="symbol5" transform="translate(160.000000, 2026.000000)">
                    <path d="M50.5050761,249.495685 C47.6619289,246.652538 43.0446701,246.659391 40.1916244,249.510914 C37.3408629,252.362437 37.3340102,256.978934 40.1771574,259.823604 C43.021066,262.666751 47.6375635,262.659137 50.4890863,259.807614 C53.3406091,256.956853 53.3474619,252.339594 50.5050761,249.495685" id="Fill-1" fill="#1F572E" sketch:type="MSShapeGroup"></path>
                    <path d="M166.48934,167.080203 C175.785533,157.78401 175.807614,142.731472 166.53731,133.463452 C157.267005,124.193147 142.218274,124.215228 132.920558,133.511421 C123.624365,142.809137 123.602284,157.859391 132.872589,167.129695 C142.140609,176.398477 157.193147,176.376396 166.48934,167.080203" id="Fill-2" fill="#1F572E" sketch:type="MSShapeGroup"></path>
                    <path d="M121.47335,122.064213 C129.777411,113.759391 129.797208,100.314975 121.517513,92.0345178 C113.236294,83.7548223 99.7918782,83.7738579 91.4870558,92.0779188 C83.1829949,100.382741 83.163198,113.827157 91.4436548,122.108376 C99.7241117,130.388832 113.168528,130.369036 121.47335,122.064213" id="Fill-3" fill="#1F572E" sketch:type="MSShapeGroup"></path>
                    <path d="M111.067766,160.701015 C108.049492,149.377919 96.415736,142.672843 85.084264,145.723858 C73.751269,148.775635 67.0119289,160.429949 70.0309645,171.752284 C73.0492386,183.076142 84.6829949,189.780457 96.0152284,186.729442 C107.348223,183.678426 114.087563,172.02335 111.067766,160.701015" id="Fill-4" fill="#1F572E" sketch:type="MSShapeGroup"></path>
                    <path d="M139.300508,188.932234 C127.97665,185.913198 116.323096,192.651777 113.272081,203.985533 C110.219543,215.317005 116.924619,226.952284 128.248477,229.969036 C139.571574,232.98731 151.225888,226.249492 154.276904,214.917259 C157.32868,203.584264 150.622843,191.950508 139.300508,188.932234" id="Fill-5" fill="#1F572E" sketch:type="MSShapeGroup"></path>
                    <path d="M177.935025,178.527411 C169.631726,186.831472 169.611168,200.27665 177.891624,208.557107 C186.172843,216.836802 199.617259,216.817766 207.922081,208.512944 C216.225381,200.209645 216.245939,186.763706 207.966244,178.482487 C199.684264,170.20203 186.240609,170.222589 177.935025,178.527411" id="Fill-6" fill="#1F572E" sketch:type="MSShapeGroup"></path>
                    <path d="M188.341371,139.891371 C191.359645,151.214467 202.991878,157.919543 214.324873,154.867766 C225.658629,151.816751 232.396447,140.162437 229.377411,128.83934 C226.359898,117.516244 214.725381,110.810406 203.39467,113.862944 C192.062437,116.913959 185.322335,128.568274 188.341371,139.891371" id="Fill-7" fill="#1F572E" sketch:type="MSShapeGroup"></path>
                    <path d="M160.108629,111.659391 C171.432487,114.678426 183.087563,107.939086 186.137056,96.6068528 C189.189594,85.2738579 182.485279,73.6408629 171.161421,70.6225888 C159.837563,67.6035533 148.183249,74.3428934 145.132995,85.6751269 C142.081218,97.006599 148.786294,108.640355 160.108629,111.659391" id="Fill-8" fill="#1F572E" sketch:type="MSShapeGroup"></path>
                    <path d="M69.0532995,128.795178 C71.3992386,120.086802 66.2459391,111.146954 57.5459391,108.827665 C48.8436548,106.507614 39.8893401,111.686041 37.5441624,120.394416 C35.1982234,129.102792 40.3515228,138.041878 49.0522843,140.361929 C57.7545685,142.68198 66.7088832,137.502792 69.0532995,128.795178" id="Fill-9" fill="#1F572E" sketch:type="MSShapeGroup"></path>
                    <path d="M171.204822,230.946701 C162.496447,233.291878 157.318782,242.246193 159.638832,250.946954 C161.958122,259.647716 170.898731,264.801777 179.606345,262.455838 C188.313198,260.11066 193.493147,251.157107 191.173096,242.455584 C188.853046,233.754061 179.913198,228.601523 171.204822,230.946701" id="Fill-10" fill="#1F572E" sketch:type="MSShapeGroup"></path>
                    <path d="M230.355838,171.797208 C228.01066,180.504061 233.162437,189.443909 241.863198,191.763959 C250.566244,194.08401 259.519797,188.905584 261.864975,180.197208 C264.210914,171.489594 259.056853,162.549746 250.356091,160.230457 C241.65533,157.910406 232.699492,163.088832 230.355838,171.797208" id="Fill-11" fill="#1F572E" sketch:type="MSShapeGroup"></path>
                    <path d="M208.854061,91.1459391 C215.216497,97.5091371 225.548985,97.4939086 231.928934,91.1124365 C238.311929,84.7309645 238.325635,74.4 231.963198,68.036802 C225.600761,61.6736041 215.268274,61.6888325 208.887563,68.071066 C202.506091,74.4517766 202.490863,84.7835025 208.854061,91.1459391" id="Fill-12" fill="#1F572E" sketch:type="MSShapeGroup"></path>
                    <path d="M128.203553,69.6449239 C136.911929,67.2997462 142.091117,58.3454315 139.771066,49.6439086 C137.451015,40.9431472 128.511168,35.7898477 119.802792,38.1357868 C111.095178,40.480203 105.916751,49.4352792 108.236041,58.136802 C110.556091,66.8375635 119.495939,71.9908629 128.203553,69.6449239" id="Fill-13" fill="#1F572E" sketch:type="MSShapeGroup"></path>
                    <path d="M90.5558376,209.445685 C84.1926396,203.083249 73.8601523,203.096954 67.4794416,209.479949 C61.0972081,215.859137 61.0827411,226.192386 67.4459391,232.555584 C73.8083756,238.917259 84.1401015,238.902792 90.5208122,232.52132 C96.9030457,226.139848 96.9175127,215.808883 90.5558376,209.445685" id="Fill-14" fill="#1F572E" sketch:type="MSShapeGroup"></path>
                    <path d="M39.1895939,86.5964467 C42.0906091,81.5786802 40.3309645,75.1416244 35.2591371,72.2177665 C30.1873096,69.2939086 23.7220812,70.9918782 20.821066,76.0088832 C17.9192893,81.0266497 19.678934,87.464467 24.7507614,90.3875635 C29.8241117,93.3106599 36.2878173,91.6134518 39.1895939,86.5964467" id="Fill-15" fill="#1F572E" sketch:type="MSShapeGroup"></path>
                    <path d="M21.9700508,150.473604 C21.9791878,144.684518 17.2340102,139.998731 11.3725888,140.007107 C5.50964467,140.016244 0.750761421,144.715736 0.742385787,150.504822 C0.734010152,156.293147 5.47994924,160.979695 11.342132,160.970558 C17.2027919,160.962183 21.9624365,156.26269 21.9700508,150.473604" id="Fill-16" fill="#1F572E" sketch:type="MSShapeGroup"></path>
                    <path d="M38.9725888,214.308883 C36.0852792,209.300254 29.6261421,207.62132 24.5459391,210.560406 C19.4649746,213.49797 17.6862944,219.941878 20.5728426,224.949746 C23.4601523,229.958376 29.9192893,231.638071 35.0002538,228.698985 C40.0819797,225.761421 41.8606599,219.317513 38.9725888,214.308883" id="Fill-17" fill="#1F572E" sketch:type="MSShapeGroup"></path>
                    <path d="M85.6393401,260.997716 C80.6299492,258.110406 74.1875635,259.888325 71.2484772,264.969289 C68.3109137,270.051015 69.9890863,276.510914 74.9984772,279.397462 C80.0071066,282.284772 86.4502538,280.50533 89.3885787,275.425127 C92.3261421,270.344162 90.6479695,263.885025 85.6393401,260.997716" id="Fill-18" fill="#1F572E" sketch:type="MSShapeGroup"></path>
                    <path d="M149.466244,278.030711 C143.677919,278.039086 138.977665,282.796447 138.969289,288.658629 C138.960914,294.520812 143.646701,299.26599 149.435025,299.258376 C155.22335,299.25 159.924365,294.491117 159.93198,288.628934 C159.940355,282.765228 155.254569,278.021574 149.466244,278.030711" id="Fill-19" fill="#1F572E" sketch:type="MSShapeGroup"></path>
                    <path d="M213.352538,260.840863 C208.33401,263.744162 206.636802,270.206345 209.56066,275.278934 C212.484518,280.350761 218.920812,282.111929 223.93934,279.210152 C228.956345,276.308376 230.653553,269.843909 227.728934,264.772081 C224.805838,259.698731 218.369543,257.939086 213.352538,260.840863" id="Fill-20" fill="#1F572E" sketch:type="MSShapeGroup"></path>
                    <path d="M260.176904,214.037817 C257.274365,219.055584 259.034772,225.49264 264.10736,228.415736 C269.179188,231.341117 275.643655,229.643147 278.54467,224.624619 C281.446447,219.607614 279.686802,213.17132 274.614975,210.247462 C269.543147,207.323604 263.077157,209.020812 260.176904,214.037817" id="Fill-21" fill="#1F572E" sketch:type="MSShapeGroup"></path>
                    <path d="M277.395685,150.16066 C277.38731,155.950508 282.131726,160.636294 287.993909,160.627157 C293.856091,160.618782 298.614975,155.919289 298.62335,150.130203 C298.631726,144.341117 293.885787,139.65533 288.025127,139.663706 C282.162944,139.672843 277.404061,144.372335 277.395685,150.16066" id="Fill-22" fill="#1F572E" sketch:type="MSShapeGroup"></path>
                    <path d="M260.393147,86.3261421 C263.28198,91.3340102 269.740355,93.0137056 274.82132,90.0753807 C279.902284,87.1362944 281.680203,80.6939086 278.793655,75.6852792 C275.905584,70.6751269 269.447208,68.9969543 264.366244,71.9360406 C259.285279,74.8736041 257.506599,81.3175127 260.393147,86.3261421" id="Fill-23" fill="#1F572E" sketch:type="MSShapeGroup"></path>
                    <path d="M213.727157,39.6365482 C218.735787,42.5238579 225.178934,40.7459391 228.116497,35.6649746 C231.055584,30.5840102 229.377411,24.1241117 224.367259,21.236802 C219.358629,18.3510152 212.916244,20.128934 209.977157,25.2091371 C207.039594,30.2901015 208.718528,36.7492386 213.727157,39.6365482" id="Fill-24" fill="#1F572E" sketch:type="MSShapeGroup"></path>
                    <path d="M149.900254,22.6043147 C155.688579,22.5959391 160.388832,17.8362944 160.397208,11.9756345 C160.406345,6.11345178 155.719797,1.36827411 149.931472,1.37664975 C144.142386,1.38502538 139.442893,6.14390863 139.433756,12.0060914 C139.425381,17.8675127 144.111168,22.6134518 149.900254,22.6043147" id="Fill-25" fill="#1F572E" sketch:type="MSShapeGroup"></path>
                    <path d="M86.0147208,39.7926396 C91.0317259,36.8916244 92.7296954,30.4271574 89.806599,25.3545685 C86.8827411,20.2819797 80.4449239,18.522335 75.4279188,21.4241117 C70.4109137,24.3258883 68.7121827,30.7903553 71.6360406,35.8629442 C74.5598985,40.935533 80.9977157,42.6944162 86.0147208,39.7926396" id="Fill-26" fill="#1F572E" sketch:type="MSShapeGroup"></path>
                    <g id="Group-39">
                        <mask id="mask-6" sketch:name="Clip 28" fill="white">
                            <use xlink:href="#path-5"></use>
                        </mask>
                        <g id="Clip-28"></g>
                        <path d="M50.7936548,51.3852792 C53.6459391,48.5329949 53.651269,43.9164975 50.8088832,41.0733503 C47.9649746,38.2294416 43.3484772,38.2362944 40.4977157,41.0885787 C37.6454315,43.9401015 37.6385787,48.556599 40.4817259,51.3997462 C43.3248731,54.2428934 47.9413706,54.236802 50.7936548,51.3852792" id="Fill-27" fill="#1F572E" sketch:type="MSShapeGroup" mask="url(#mask-6)"></path>
                        <path d="M14.4449239,114.236041 C15.493401,110.345939 13.1908629,106.35 9.30228426,105.313706 C5.41370558,104.277411 1.41243655,106.590609 0.364720812,110.482995 C-0.682994924,114.373858 1.61878173,118.368274 5.50659898,119.404569 C9.39517766,120.442386 13.3972081,118.127665 14.4449239,114.236041" id="Fill-29" fill="#1F572E" sketch:type="MSShapeGroup" mask="url(#mask-6)"></path>
                        <path d="M14.3398477,186.749239 C13.3027919,182.861421 9.30761421,180.558883 5.41598985,181.608883 C1.5251269,182.654315 -0.789593909,186.656345 0.247461929,190.544924 C1.28451777,194.432741 5.27893401,196.735279 9.17055838,195.688325 C13.0621827,194.640609 15.3761421,190.637817 14.3398477,186.749239" id="Fill-30" fill="#1F572E" sketch:type="MSShapeGroup" mask="url(#mask-6)"></path>
                        <path d="M113.25,285.661675 C109.362183,284.625381 105.360152,286.93934 104.311675,290.830964 C103.264721,294.721827 105.567259,298.716244 109.455076,299.753299 C113.343655,300.790355 117.345685,298.474873 118.39264,294.584772 C119.441117,290.692386 117.137817,286.697208 113.25,285.661675" id="Fill-31" fill="#1F572E" sketch:type="MSShapeGroup" mask="url(#mask-6)"></path>
                        <path d="M185.764721,285.555076 C181.873096,286.60203 179.558376,290.604822 180.59467,294.494162 C181.631726,298.381218 185.626142,300.685279 189.517766,299.635279 C193.409391,298.587563 195.72335,294.587817 194.686294,290.698477 C193.65,286.809137 189.655584,284.50736 185.764721,285.555076" id="Fill-32" fill="#1F572E" sketch:type="MSShapeGroup" mask="url(#mask-6)"></path>
                        <path d="M248.614721,249.207107 C245.763198,252.057868 245.757107,256.675888 248.601015,259.517513 C251.443401,262.361421 256.059898,262.35533 258.912183,259.503046 C261.762944,256.650761 261.770558,252.035787 258.92665,249.191117 C256.083503,246.34797 251.467005,246.355584 248.614721,249.207107" id="Fill-33" fill="#1F572E" sketch:type="MSShapeGroup" mask="url(#mask-6)"></path>
                        <path d="M284.964213,186.355584 C283.914975,190.246447 286.219036,194.242386 290.106091,195.27868 C293.995431,196.314213 297.996701,194.000254 299.044416,190.108629 C300.094416,186.218528 297.790355,182.222589 293.901777,181.185533 C290.013959,180.149239 286.011168,182.463959 284.964213,186.355584" id="Fill-34" fill="#1F572E" sketch:type="MSShapeGroup" mask="url(#mask-6)"></path>
                        <path d="M285.070812,113.840863 C286.106345,117.729442 290.101523,120.03198 293.993909,118.984264 C297.88401,117.936548 300.19797,113.934518 299.161675,110.046701 C298.125381,106.158883 294.130964,103.855584 290.238579,104.903299 C286.346954,105.951777 284.032995,109.953046 285.070812,113.840863" id="Fill-35" fill="#1F572E" sketch:type="MSShapeGroup" mask="url(#mask-6)"></path>
                        <path d="M248.904822,51.0951777 C251.747208,53.9390863 256.364467,53.9322335 259.216751,51.0807107 C262.068274,48.2291878 262.074365,43.6126904 259.23198,40.7687817 C256.388071,37.9256345 251.771574,37.9317259 248.920051,40.7832487 C246.068528,43.635533 246.061675,48.2527919 248.904822,51.0951777" id="Fill-36" fill="#1F572E" sketch:type="MSShapeGroup" mask="url(#mask-6)"></path>
                        <path d="M186.158376,14.9307107 C190.046954,15.9670051 194.048223,13.6530457 195.097462,9.76142132 C196.144416,5.87055838 193.841878,1.87538071 189.952538,0.839086294 C186.065482,-0.198730964 182.063452,2.11598985 181.016497,6.00761421 C179.96802,9.89847716 182.270558,13.8944162 186.158376,14.9307107" id="Fill-37" fill="#1F572E" sketch:type="MSShapeGroup" mask="url(#mask-6)"></path>
                        <path d="M113.644416,15.0365482 C117.536802,13.9888325 119.850761,9.98680203 118.813706,6.09822335 C117.77665,2.20964467 113.782995,-0.0921319797 109.891371,0.955583756 C105.999746,2.00329949 103.685787,6.00456853 104.722843,9.89390863 C105.758376,13.7824873 109.754315,16.0850254 113.644416,15.0365482" id="Fill-38" fill="#1F572E" sketch:type="MSShapeGroup" mask="url(#mask-6)"></path>
                    </g>
                    <path d="M80.6573604,81.2482234 C85.7406091,76.1664975 85.7520305,67.9378173 80.6840102,62.8705584 C75.6175127,57.8025381 67.3880711,57.8139594 62.3055838,62.8972081 C57.222335,67.9796954 57.2109137,76.2083756 62.2796954,81.2756345 C67.3469543,86.3436548 75.5748731,86.3314721 80.6573604,81.2482234" id="Fill-40" fill="#1F572E" sketch:type="MSShapeGroup"></path>
                    <path d="M55.384264,175.568528 C53.5241117,168.62665 46.4048223,164.501269 39.4812183,166.356091 C32.5583756,168.210914 28.4558376,175.342386 30.3159898,182.285025 C32.1753807,189.229949 39.2954315,193.353046 46.2182741,191.497462 C53.1403553,189.644162 57.2444162,182.511168 55.384264,175.568528" id="Fill-41" fill="#1F572E" sketch:type="MSShapeGroup"></path>
                    <path d="M124.430711,244.615736 C117.488832,242.756345 110.356599,246.859645 108.501777,253.781726 C106.646954,260.704569 110.770812,267.824619 117.714975,269.686294 C124.657614,271.544162 131.789086,267.441624 133.643909,260.519543 C135.498731,253.596701 131.374873,246.475127 124.430711,244.615736" id="Fill-42" fill="#1F572E" sketch:type="MSShapeGroup"></path>
                    <path d="M218.751777,219.34264 C213.669289,224.425127 213.657107,232.654569 218.725127,237.722589 C223.792386,242.788325 232.021066,242.777665 237.103553,237.695939 C242.186802,232.611929 242.197462,224.383249 237.130203,219.31599 C232.062183,214.24797 223.834264,214.261675 218.751777,219.34264" id="Fill-43" fill="#1F572E" sketch:type="MSShapeGroup"></path>
                    <path d="M244.024873,125.022335 C245.884264,131.965736 253.004315,136.090355 259.927157,134.235533 C266.850761,132.379949 270.953299,125.248477 269.093909,118.305838 C267.232234,111.362437 260.113706,107.237817 253.190102,109.093401 C246.267259,110.948223 242.163959,118.080457 244.024873,125.022335" id="Fill-44" fill="#1F572E" sketch:type="MSShapeGroup"></path>
                    <path d="M174.977665,55.9751269 C181.920305,57.8360406 189.053299,53.7319797 190.906599,46.8091371 C192.762183,39.8870558 188.639086,32.7670051 181.694162,30.9068528 C174.751523,29.0467005 167.620051,33.15 165.765228,40.0736041 C163.910406,46.9956853 168.035787,54.115736 174.977665,55.9751269" id="Fill-45" fill="#1F572E" sketch:type="MSShapeGroup"></path>
                </g>
                <path d="M54,1517.766 L54,1426.62964 L147.678182,1426.62964 C147.678182,1426.62964 303.807273,1426.62964 303.807273,1578.52327 L303.807273,1639.28055 C303.807273,1639.28055 247.061818,1631.63873 154.850909,1535.02782 C154.850909,1535.02782 199.626364,1638.53964 303.807273,1669.65964 L210.13,1669.65964 C210.13,1669.65964 54,1669.65964 54,1517.766" id="symbol4" fill="#1F572E" sketch:type="MSShapeGroup"></path>
                <g id="symbol3" transform="translate(404.000000, 1048.000000)" fill="#1F572E" sketch:type="MSShapeGroup">
                    <g id="Group-4">
                        <path d="M160.549241,96.3147783 L160.549241,57.5083744 L121.73859,57.5083744 C121.73859,57.5083744 57.0546644,57.5083744 57.0546644,122.187192 L57.0546644,148.058128 C57.0546644,148.058128 115.27101,128.655665 147.612603,70.4431034 C147.612603,70.4431034 147.612603,122.187192 57.0546644,160.994335 L95.8653153,160.994335 C95.8653153,160.994335 160.549241,160.994335 160.549241,96.3147783" id="Fill-1"></path>
                        <path d="M217.603905,109.249507 C217.603905,49.1667488 168.89162,0.458128079 108.801953,0.458128079 C48.7130237,0.458128079 0,49.1667488 0,109.249507 C0,169.334483 48.7130237,218.042365 108.801953,218.042365 C168.89162,218.042365 217.603905,169.334483 217.603905,109.249507 M198.501932,103.780788 C198.507844,103.879803 198.524841,103.976601 198.529275,104.075616 L198.515973,104.075616 C198.614258,105.79803 198.777573,107.503448 198.777573,109.249507 C198.777573,110.906897 198.618692,112.522167 198.529275,114.15665 L198.550705,114.15665 C198.541837,114.314778 198.515973,114.466995 198.506366,114.625862 C195.711532,161.796798 156.679925,199.216995 108.801953,199.216995 C60.9284136,199.216995 21.8990237,161.802709 19.0990169,114.636207 C19.0894102,114.475123 19.0628068,114.318473 19.0532,114.15665 L19.0746305,114.15665 C18.9866915,112.522167 18.8270712,110.906897 18.8270712,109.249507 C18.8270712,107.503448 18.9896475,105.79803 19.0879322,104.075616 L19.0746305,104.075616 C19.0790644,103.976601 19.0968,103.880542 19.1027119,103.781527 C21.9441017,56.6549261 60.9557559,19.2827586 108.801953,19.2827586 C156.648149,19.2827586 195.661281,56.6541872 198.501932,103.780788" id="Fill-3"></path>
                    </g>
                    <path d="M99.3474034,201.453695 L118.257241,201.453695 L118.257241,300 L99.3474034,300 L99.3474034,201.453695 Z" id="Fill-5"></path>
                    <path d="M59.5243458,241.272414 L158.080298,241.272414 L158.080298,260.18202 L59.5243458,260.18202 L59.5243458,241.272414 Z" id="Fill-6"></path>
                </g>
                <g id="symbol2" transform="translate(15.000000, 560.000000)">
                    <g id="Group-3">
                        <mask id="mask-8" sketch:name="Clip 2" fill="white">
                            <use xlink:href="#path-7"></use>
                        </mask>
                        <g id="Clip-2"></g>
                        <path d="M299.176,150.412 C299.176,67.798 232.203,0.824 149.588,0.824 C66.973,0.824 0,67.798 0,150.412 C0,233.027 66.973,299.999 149.588,299.999 C232.203,299.999 299.176,233.027 299.176,150.412 M272.912,142.891 C272.921,143.028 272.943,143.161 272.951,143.297 L272.933,143.297 C273.068,145.665 273.292,148.01 273.292,150.412 C273.292,152.69 273.072,154.911 272.951,157.158 L272.979,157.158 C272.967,157.375 272.932,157.586 272.919,157.803 C269.074,222.662 215.412,274.116 149.588,274.116 C83.768,274.116 30.107,222.671 26.258,157.817 C26.244,157.596 26.208,157.38 26.197,157.158 L26.225,157.158 C26.103,154.911 25.884,152.69 25.884,150.412 C25.884,148.01 26.109,145.665 26.242,143.297 L26.225,143.297 C26.232,143.161 26.255,143.029 26.264,142.892 C30.17,78.094 83.807,26.708 149.588,26.708 C215.369,26.708 269.006,78.093 272.912,142.891" id="Fill-1" fill="#1F572E" sketch:type="MSShapeGroup" mask="url(#mask-8)"></path>
                    </g>
                    <path d="M58.973,181.279 C65.631,187.452 73.377,191.568 81.729,193.142 L81.729,206.699 L96.256,206.699 L96.256,193.263 C108.48,190.843 118.285,181.4 118.285,168.569 C118.285,140.002 79.187,144.238 79.187,130.56 C79.187,124.024 86.088,121.361 92.261,121.361 C97.828,121.361 103.518,123.781 106.908,126.929 L115.381,114.824 C109.086,110.224 102.791,107.924 96.256,107.198 L96.256,94.125 L81.729,94.125 L81.729,108.045 C71.32,110.95 62.847,118.94 62.847,130.681 C62.847,140.244 68.172,146.054 74.83,149.928 C86.209,156.585 101.945,157.917 101.945,168.811 C101.945,174.985 96.86,179.463 89.598,179.463 C81.851,179.463 74.467,175.47 69.625,170.143 L58.973,181.279 L58.973,181.279 Z M137.168,130.923 C138.863,125.234 142.979,121.361 148.668,121.361 C155.082,121.361 159.683,126.808 159.683,132.739 C159.683,137.097 157.867,141.939 151.33,149.322 L121.553,183.095 L121.553,192.779 L176.629,192.779 L176.629,178.253 L147.094,178.253 L165.129,157.312 C170.818,150.775 176.023,143.27 176.023,132.981 C176.023,117.729 163.436,106.835 148.91,106.835 C136.441,106.835 125.789,114.824 122.158,126.445 L137.168,130.923 L137.168,130.923 Z M183.311,183.095 C190.695,190.479 199.168,193.989 208.973,193.989 C226.041,193.989 240.203,181.4 240.203,164.696 C240.203,155.617 236.088,147.023 229.43,141.696 C223.498,136.855 216.235,135.281 209.699,135.281 C207.399,135.281 204.857,135.523 203.162,135.886 L204.494,122.571 L235.967,122.571 L235.967,108.045 L191.179,108.045 L185.731,152.954 L195.899,154.406 C199.531,151.38 204.252,149.807 208.367,149.807 C212.363,149.807 215.994,150.896 218.656,153.196 C221.925,155.98 223.861,160.096 223.861,164.696 C223.861,169.053 222.045,172.928 219.141,175.59 C216.356,178.132 212.726,179.463 208.973,179.463 C203.283,179.463 198.078,176.558 194.447,172.685 L183.311,183.095 L183.311,183.095 Z" id="Fill-4" fill="#1F572E" sketch:type="MSShapeGroup"></path>
                </g>
                <g id="symbol1" transform="translate(211.000000, 146.000000)">
                    <g id="Group-3">
                        <mask id="mask-10" sketch:name="Clip 2" fill="white">
                            <use xlink:href="#path-9"></use>
                        </mask>
                        <g id="Clip-2"></g>
                        <path d="M150,-0.000744416873 L136.065261,13.933995 C136.065261,13.933995 112.841687,37.1575682 136.066005,60.3818859 L150.000744,74.3166253 L163.934739,60.3826303 C163.934739,60.3826303 187.159057,37.1583127 163.934739,13.933995 L154.645161,4.64441687" id="Fill-1" fill="#1F572E" sketch:type="MSShapeGroup" mask="url(#mask-10)"></path>
                    </g>
                    <path d="M75,20.0962779 L69.8992556,39.1310174 C69.8992556,39.1310174 61.3987593,70.8558313 93.1235732,79.3563275 L112.159057,84.457072 L117.259801,65.4215881 C117.259801,65.4215881 125.760298,33.6975186 94.0347395,25.1970223 L81.344665,21.7965261" id="Fill-4" fill="#1F572E" sketch:type="MSShapeGroup"></path>
                    <path d="M20.0970223,75 L25.1977667,94.0347395 C25.1977667,94.0347395 33.698263,125.759553 65.4230769,117.259057 L84.457072,112.158313 L79.3563275,93.1235732 C79.3563275,93.1235732 70.8565757,61.3987593 39.1317618,69.8992556 L26.4409429,73.2997519" id="Fill-5" fill="#1F572E" sketch:type="MSShapeGroup"></path>
                    <path d="M0,149.999256 L13.9347395,163.933995 C13.9347395,163.933995 37.1583127,187.157568 60.3826303,163.933251 L74.3173697,150 L60.3826303,136.065261 C60.3826303,136.065261 37.1583127,112.840943 13.9347395,136.064516 L4.64516129,145.354094" id="Fill-6" fill="#1F572E" sketch:type="MSShapeGroup"></path>
                    <path d="M20.0962779,224.999256 L39.1310174,230.1 C39.1310174,230.1 70.8558313,238.600496 79.3563275,206.875682 L84.4563275,187.840943 L65.4215881,182.739454 C65.4215881,182.739454 33.6975186,174.240447 25.1962779,205.965261 L21.7965261,218.654591" id="Fill-7" fill="#1F572E" sketch:type="MSShapeGroup"></path>
                    <g id="Group-11">
                        <mask id="mask-12" sketch:name="Clip 9" fill="white">
                            <use xlink:href="#path-11"></use>
                        </mask>
                        <g id="Clip-9"></g>
                        <path d="M75,279.903722 L94.0347395,274.802978 C94.0347395,274.802978 125.759553,266.301737 117.259057,234.578412 L112.158313,215.543672 L93.1235732,220.643672 C93.1235732,220.643672 61.3987593,229.144169 69.8992556,260.868983 L73.2997519,273.558313" id="Fill-8" fill="#1F572E" sketch:type="MSShapeGroup" mask="url(#mask-12)"></path>
                        <path d="M150,300 L163.934739,286.065261 C163.934739,286.065261 187.158313,262.841687 163.934739,239.618114 L150,225.683375 L136.065261,239.618114 C136.065261,239.618114 112.841687,262.841687 136.065261,286.065261 L145.355583,295.355583" id="Fill-10" fill="#1F572E" sketch:type="MSShapeGroup" mask="url(#mask-12)"></path>
                    </g>
                    <path d="M225,279.904467 L230.100744,260.869727 C230.100744,260.869727 238.601241,229.144169 206.876427,220.643672 L187.841687,215.543672 L182.740943,234.577667 C182.740943,234.577667 174.240447,266.302481 205.965261,274.802978 L218.655335,278.204218" id="Fill-12" fill="#1F572E" sketch:type="MSShapeGroup"></path>
                    <g id="Group-16">
                        <mask id="mask-14" sketch:name="Clip 14" fill="white">
                            <use xlink:href="#path-13"></use>
                        </mask>
                        <g id="Clip-14"></g>
                        <path d="M279.902978,225 L274.801489,205.965261 C274.801489,205.965261 266.301737,174.240447 234.576923,182.740943 L215.543672,187.841687 L220.643672,206.876427 C220.643672,206.876427 229.143424,238.601241 260.868983,230.1 L273.558313,226.700248" id="Fill-13" fill="#1F572E" sketch:type="MSShapeGroup" mask="url(#mask-14)"></path>
                        <path d="M300,150 L286.065261,136.065261 C286.065261,136.065261 262.841687,112.841687 239.61737,136.066005 L225.683375,150 L239.618114,163.934739 C239.618114,163.934739 262.841687,187.158313 286.065261,163.934739 L295.354839,154.645161" id="Fill-15" fill="#1F572E" sketch:type="MSShapeGroup" mask="url(#mask-14)"></path>
                    </g>
                    <path d="M279.903722,75 L260.868983,69.8992556 C260.868983,69.8992556 229.144169,61.3995037 220.643672,93.1235732 L215.543672,112.159057 L234.578412,117.259801 C234.578412,117.259801 266.302481,125.760298 274.802978,94.0347395 L278.204218,81.344665" id="Fill-17" fill="#1F572E" sketch:type="MSShapeGroup"></path>
                    <path d="M225,20.0955335 L205.965261,25.1962779 C205.965261,25.1962779 174.240447,33.6967742 182.740943,65.4215881 L187.841687,84.4563275 L206.876427,79.3555831 C206.876427,79.3555831 238.601241,70.8558313 230.100744,39.1310174 L226.700248,26.4401985" id="Fill-18" fill="#1F572E" sketch:type="MSShapeGroup"></path>
                </g>
            </g>
        </g>
    </g>
</svg>
