<svg width="1190" height="2251" viewBox="0 0 1190 2251" xmlns="http://www.w3.org/2000/svg" xmlns:xlink="http://www.w3.org/1999/xlink"><title>Group</title><defs><path id="a" d="M0 0h1190v2251H0z"/><path id="c" d="M.06.95h302.12V308H.06"/><path id="e" d="M.06.95h302.12V308H.06"/><path id="g" d="M.06.78h393.16V394H.06"/><path id="i" d="M0 .82h299.18v299.12H0"/><path id="k" d="M0 0h402.96v402.94H0"/><path id="m" d="M0 0h402.96v402.94H0"/><path id="o" d="M0 0h402.96v402.94H0"/></defs><g fill="none" fill-rule="evenodd"><mask id="b" fill="#fff"><use xlink:href="#a"/></mask><use fill="#236133" xlink:href="#a"/><g mask="url(#b)"><g transform="translate(497 1861)"><mask id="d" fill="#fff"><use xlink:href="#c"/></mask><path d="M150.78 69.56c-19.15-.12-34.38-15.47-34.24-34.5.14-18.73 16.1-34.34 34.86-34.1 18.9.23 34.4 15.95 34.23 34.73-.17 19-15.6 33.98-34.85 33.86" fill="#1F572E" mask="url(#d)"/></g><path d="M648.1 1938.78c-1.35 0-33 .4-46.28 34.32-15.13 38.66-5.54 140.34 46.27 195.9 51.8-55.56 61.4-157.24 46.26-195.9-13.28-33.93-44.93-34.32-46.27-34.32" fill="#1F572E"/><g transform="translate(497 1861)"><mask id="f" fill="#fff"><use xlink:href="#e"/></mask><path d="M263 95.43c-14.1-.1-25.35-11.42-25.25-25.45.1-13.83 11.87-25.34 25.72-25.17 13.95.18 25.38 11.78 25.26 25.64-.13 14-11.52 25.08-25.72 25M263.24 103.42c-1 0-24.34.3-34.14 25.33-11.16 28.5-4.08 103.54 34.14 144.53 38.22-41 45.3-116 34.14-144.53-9.8-25.04-33.15-25.33-34.14-25.33M38.7 95.43C24.6 95.33 13.35 84 13.46 69.98c.1-13.83 11.87-25.34 25.7-25.17 13.97.18 25.4 11.78 25.28 25.64-.13 14-11.52 25.08-25.72 25M38.94 103.42c-1 0-24.34.3-34.14 25.33C-6.36 157.25.72 232.3 38.94 273.28c38.22-41 45.3-116 34.14-144.53-9.8-25.04-33.15-25.33-34.14-25.33" fill="#1F572E" mask="url(#f)"/></g></g><g mask="url(#b)"><path d="M169.33 1781.67c-3.73-3.73-9.8-3.72-13.55.02-3.74 3.74-3.75 9.8 0 13.54 3.72 3.73 9.78 3.72 13.53-.03 3.75-3.73 3.76-9.8.03-13.53M321.66 1673.43c12.2-12.2 12.23-31.98.06-44.15-12.18-12.17-31.94-12.14-44.15.07-12.2 12.2-12.24 31.97-.06 44.15 12.18 12.17 31.95 12.14 44.16-.07M262.53 1614.3c10.9-10.9 10.94-28.55.06-39.43-10.88-10.87-28.54-10.85-39.45.06-10.9 10.9-10.93 28.56-.05 39.44 10.87 10.87 28.53 10.85 39.43-.06M248.87 1665.05c-3.97-14.87-19.24-23.67-34.13-19.67-14.88 4-23.73 19.32-19.77 34.2 3.97 14.86 19.25 23.67 34.13 19.66 14.88-4 23.73-19.32 19.77-34.2M285.95 1702.13c-14.87-3.96-30.18 4.9-34.2 19.77-4 14.88 4.8 30.16 19.68 34.13 14.87 3.96 30.18-4.9 34.2-19.77 4-14.9-4.8-30.16-19.68-34.13M336.7 1688.47c-10.92 10.9-10.94 28.56-.07 39.43 10.88 10.88 28.53 10.85 39.44-.05 10.9-10.9 10.93-28.57.06-39.44-10.88-10.87-28.53-10.84-39.44.07M350.36 1637.72c3.96 14.87 19.24 23.68 34.12 19.67 14.88-4 23.73-19.32 19.77-34.2-3.96-14.86-19.24-23.67-34.13-19.66-14.88 4-23.73 19.3-19.77 34.18M313.28 1600.65c14.87 3.96 30.18-4.9 34.18-19.77 4-14.9-4.8-30.17-19.67-34.13-14.88-3.96-30.2 4.9-34.2 19.77-4 14.88 4.8 30.16 19.68 34.13M193.7 1623.15c3.07-11.44-3.7-23.18-15.12-26.22-11.43-3.05-23.2 3.75-26.27 15.2-3.07 11.43 3.7 23.17 15.12 26.2 11.43 3.06 23.2-3.74 26.27-15.18M327.85 1757.3c-11.44 3.1-18.24 14.85-15.2 26.28 3.06 11.42 14.8 18.2 26.23 15.1 11.44-3.07 18.24-14.83 15.2-26.26-3.05-11.42-14.8-18.2-26.23-15.1M405.53 1679.63c-3.08 11.43 3.7 23.17 15.12 26.22 11.43 3.05 23.2-3.75 26.27-15.2 3.08-11.43-3.7-23.17-15.12-26.2-11.43-3.06-23.2 3.74-26.27 15.18M377.3 1573.7c8.35 8.36 21.92 8.34 30.3-.04 8.38-8.38 8.4-21.95.04-30.3-8.35-8.36-21.92-8.34-30.3.04-8.38 8.38-8.4 21.95-.04 30.3M271.37 1545.47c11.44-3.08 18.24-14.84 15.2-26.27-3.05-11.43-14.8-18.2-26.23-15.1-11.43 3.06-18.24 14.83-15.2 26.25 3.06 11.43 14.8 18.2 26.23 15.12M221.93 1729.07c-8.36-8.35-21.93-8.34-30.3.05-8.4 8.38-8.4 21.95-.05 30.3 8.35 8.36 21.92 8.34 30.3-.04 8.4-8.38 8.4-21.95.05-30.3M154.47 1567.73c3.8-6.6 1.5-15.04-5.16-18.88-6.65-3.84-15.15-1.6-18.96 4.98-3.8 6.6-1.5 15.04 5.17 18.88 6.67 3.85 15.16 1.62 18.97-4.97M131.85 1651.62c.02-7.6-6.22-13.75-13.9-13.74-7.7 0-13.96 6.18-13.98 13.78 0 7.6 6.23 13.76 13.93 13.75 7.7 0 13.94-6.18 13.95-13.78M154.18 1735.46c-3.8-6.58-12.27-8.78-18.94-4.92-6.68 3.85-9 12.32-5.22 18.9 3.8 6.57 12.27 8.78 18.95 4.92 6.67-3.86 9-12.32 5.2-18.9M215.47 1796.78c-6.58-3.8-15.04-1.46-18.9 5.2-3.85 6.7-1.65 15.17 4.93 18.96 6.58 3.8 15.04 1.46 18.9-5.22 3.86-6.67 1.65-15.15-4.93-18.94M299.3 1819.15c-7.6 0-13.78 6.26-13.8 13.95 0 7.7 6.16 13.94 13.76 13.93 7.6 0 13.77-6.26 13.78-13.96 0-7.7-6.14-13.93-13.74-13.92M383.2 1796.57c-6.6 3.8-8.82 12.3-4.98 18.96s12.3 8.98 18.9 5.17c6.58-3.82 8.8-12.3 4.96-18.97-3.83-6.66-12.3-8.97-18.88-5.16M444.7 1735.1c-3.8 6.6-1.5 15.05 5.16 18.9 6.66 3.83 15.15 1.6 18.96-5 3.8-6.58 1.5-15.03-5.16-18.87-6.66-3.85-15.15-1.62-18.96 4.97M467.3 1651.2c0 7.6 6.23 13.77 13.93 13.76 7.7 0 13.95-6.2 13.96-13.8 0-7.6-6.23-13.75-13.93-13.74-7.7.02-13.95 6.2-13.96 13.8M444.98 1567.38c3.8 6.57 12.28 8.78 18.95 4.92 6.68-3.86 9-12.32 5.22-18.9-3.8-6.58-12.28-8.78-18.95-4.92-6.67 3.85-9 12.32-5.22 18.9M383.7 1506.06c6.57 3.8 15.04 1.45 18.9-5.22 3.85-6.67 1.65-15.16-4.93-18.95-6.58-3.8-15.04-1.46-18.9 5.2-3.86 6.68-1.65 15.16 4.93 18.96M299.87 1483.7c7.6-.02 13.77-6.28 13.8-13.97 0-7.7-6.16-13.93-13.76-13.92-7.6.02-13.76 6.27-13.78 13.97 0 7.7 6.15 13.93 13.75 13.92M215.97 1506.26c6.6-3.8 8.82-12.3 4.98-18.96s-12.3-8.97-18.9-5.16c-6.58 3.8-8.8 12.3-4.97 18.96 3.84 6.66 12.3 8.97 18.9 5.16" fill="#1F572E"/><g transform="translate(103 1454)"><mask id="h" fill="#fff"><use xlink:href="#g"/></mask><path d="M66.7 67.5c3.75-3.76 3.76-9.82.03-13.56-3.74-3.73-9.8-3.72-13.54.02-3.76 3.75-3.77 9.8-.03 13.54 3.73 3.74 9.8 3.73 13.54 0M18.97 150.03c1.38-5.1-1.65-10.36-6.75-11.72-5.1-1.35-10.37 1.7-11.74 6.8-1.38 5.1 1.65 10.36 6.75 11.72 5.1 1.36 10.36-1.68 11.74-6.8M18.83 245.26c-1.36-5.1-6.6-8.13-11.72-6.75-5.1 1.4-8.14 6.64-6.77 11.75 1.36 5.1 6.6 8.13 11.7 6.75 5.13-1.37 8.16-6.63 6.8-11.74M148.74 375.17c-5.1-1.36-10.37 1.68-11.74 6.8-1.38 5.1 1.65 10.34 6.75 11.7 5.1 1.37 10.36-1.67 11.74-6.78 1.37-5.12-1.66-10.37-6.76-11.73M243.97 375.03c-5.1 1.37-8.15 6.63-6.8 11.74 1.37 5.1 6.62 8.13 11.73 6.75 5.1-1.38 8.15-6.63 6.8-11.74-1.37-5.1-6.62-8.13-11.73-6.75M326.5 327.3c-3.73 3.74-3.74 9.8 0 13.53 3.73 3.74 9.8 3.73 13.54-.02 3.74-3.73 3.75-9.8.02-13.53-3.74-3.73-9.8-3.72-13.55.02M374.25 244.75c-1.38 5.1 1.65 10.35 6.76 11.72 5.1 1.36 10.37-1.68 11.75-6.8 1.37-5.1-1.65-10.35-6.76-11.7-5.12-1.37-10.37 1.67-11.75 6.78M374.4 149.5c1.35 5.12 6.6 8.14 11.7 6.77 5.12-1.38 8.16-6.64 6.8-11.74-1.36-5.1-6.6-8.13-11.72-6.76-5.1 1.38-8.15 6.63-6.8 11.74M326.9 67.1c3.73 3.74 9.8 3.73 13.54 0 3.74-3.76 3.75-9.82.02-13.56-3.74-3.73-9.8-3.72-13.54.02-3.75 3.75-3.76 9.8-.03 13.55M244.5 19.6c5.1 1.37 10.35-1.67 11.73-6.78 1.37-5.1-1.65-10.36-6.76-11.72-5.1-1.36-10.36 1.68-11.73 6.8-1.38 5.1 1.64 10.35 6.75 11.7M149.25 19.75c5.12-1.38 8.15-6.63 6.8-11.74-1.37-5.1-6.62-8.12-11.73-6.75-5.1 1.38-8.15 6.64-6.78 11.74 1.36 5.1 6.6 8.13 11.7 6.75" fill="#1F572E" mask="url(#h)"/></g><path d="M208.93 1560.7c6.68-6.67 6.7-17.48.03-24.13-6.65-6.66-17.46-6.64-24.13.04-6.68 6.68-6.7 17.5-.04 24.14 6.65 6.66 17.45 6.64 24.13-.03M175.74 1684.58c-2.45-9.12-11.8-14.54-20.9-12.1-9.08 2.44-14.47 11.8-12.02 20.92 2.44 9.12 11.8 14.54 20.88 12.1 9.1-2.43 14.48-11.8 12.04-20.92M266.42 1775.26c-9.12-2.44-18.5 2.95-20.92 12.04-2.44 9.1 2.98 18.44 12.1 20.9 9.12 2.43 18.48-2.96 20.92-12.05 2.43-9.1-2.98-18.45-12.1-20.9M390.3 1742.07c-6.68 6.68-6.7 17.48-.04 24.14 6.65 6.66 17.46 6.65 24.14-.03 6.67-6.67 6.7-17.48.03-24.14-6.66-6.65-17.46-6.63-24.14.04M423.5 1618.2c2.43 9.1 11.78 14.53 20.87 12.1 9.1-2.44 14.48-11.8 12.04-20.93-2.44-9.1-11.78-14.53-20.88-12.1-9.1 2.44-14.48 11.8-12.03 20.93M332.8 1527.5c9.12 2.46 18.5-2.93 20.92-12.02 2.44-9.1-2.97-18.45-12.1-20.9-9.1-2.43-18.48 2.96-20.92 12.05-2.43 9.1 3 18.44 12.1 20.88" fill="#1F572E"/></g><path d="M458 1220.25V1120h103.05s171.74 0 171.74 167.08v66.84s-62.43-8.4-163.86-114.68c0 0 49.25 113.86 163.85 148.1H629.73s-171.74 0-171.74-167.1" fill="#1F572E" mask="url(#b)"/><g fill="#1F572E" mask="url(#b)"><path d="M1008.26 872.8v-52.52h-52.52s-87.53 0-87.53 87.54v35S947 916.58 990.76 837.8c0 0 0 70.02-122.54 122.54h52.53s87.53 0 87.53-87.54"/><path d="M1085.46 890.3c0-81.3-65.9-147.22-147.23-147.22-81.3 0-147.23 65.9-147.23 147.23 0 81.32 65.92 147.24 147.23 147.24 81.32 0 147.23-65.92 147.23-147.23m-25.85-7.4c.02.14.05.27.05.4h-.02c.14 2.34.36 4.64.36 7 0 2.25-.23 4.44-.35 6.65h.03c0 .2-.05.42-.06.63-3.78 63.84-56.6 114.48-121.4 114.48-64.77 0-117.6-50.63-121.37-114.46l-.07-.65h.03c-.1-2.2-.32-4.4-.32-6.64 0-2.36.22-4.66.35-7h-.02l.05-.4c3.84-63.77 56.64-114.35 121.38-114.35 64.75 0 117.54 50.58 121.38 114.36"/><path d="M925.44 1015.1h25.6v133.36h-25.6V1015.1z"/><path d="M871.55 1068.98h133.37v25.6H871.55v-25.6z"/></g><g mask="url(#b)"><g transform="translate(130 589)"><mask id="j" fill="#fff"><use xlink:href="#i"/></mask><path d="M299.18 150.4C299.18 67.8 232.2.83 149.58.83 67 .82 0 67.8 0 150.42 0 233 66.97 300 149.6 300c82.6 0 149.58-66.97 149.58-149.6m-26.27-7.5l.05.4h-.02c.14 2.36.36 4.7.36 7.1 0 2.3-.23 4.5-.35 6.76h.03c0 .22-.05.43-.06.64-3.85 64.86-57.5 116.32-123.33 116.32S30.1 222.67 26.25 157.82l-.06-.66h.03c-.13-2.25-.35-4.47-.35-6.75 0-2.4.23-4.74.36-7.1l.02-.4C30.16 78.1 83.8 26.7 149.6 26.7c65.77 0 119.4 51.4 123.3 116.2" fill="#1F572E" mask="url(#j)"/></g><path d="M188.97 770.28c6.66 6.17 14.4 10.3 22.76 11.86v13.56h14.53v-13.44c12.22-2.42 22.03-11.86 22.03-24.7 0-28.56-39.1-24.32-39.1-38 0-6.54 6.9-9.2 13.06-9.2 5.57 0 11.26 2.42 14.65 5.57l8.48-12.1c-6.3-4.6-12.6-6.9-19.12-7.63v-13.08h-14.53v13.92c-10.4 2.9-18.88 10.9-18.88 22.64 0 9.56 5.32 15.37 11.98 19.25 11.38 6.65 27.12 8 27.12 18.88 0 6.18-5.1 10.66-12.35 10.66-7.75 0-15.13-4-19.97-9.32l-10.66 11.14zm78.2-50.36c1.7-5.7 5.8-9.56 11.5-9.56 6.4 0 11 5.45 11 11.38 0 4.36-1.8 9.2-8.34 16.58l-29.78 33.77v9.68h55.08v-14.53H277.1l18.03-20.94c5.7-6.53 10.9-14.03 10.9-24.32 0-15.25-12.6-26.15-27.12-26.15-12.46 0-23.1 8-26.74 19.6l15 4.5zm46.14 52.18c7.4 7.38 15.87 10.9 25.67 10.9 17.07 0 31.23-12.6 31.23-29.3 0-9.08-4.1-17.68-10.77-23-5.93-4.85-13.2-6.42-19.73-6.42-2.3 0-4.84.24-6.54.6l1.33-13.3h31.47v-14.53h-44.8l-5.44 44.9 10.17 1.46c3.63-3.02 8.35-4.6 12.47-4.6 4 0 7.62 1.1 10.3 3.4 3.25 2.78 5.2 6.9 5.2 11.5 0 4.35-1.83 8.23-4.73 10.9-2.78 2.53-6.4 3.86-10.17 3.86-5.7 0-10.9-2.9-14.52-6.77l-11.14 10.4z" fill="#1F572E"/></g><g mask="url(#b)"><g transform="translate(455 143)"><mask id="l" fill="#fff"><use xlink:href="#k"/></mask><path d="M201.5 0l-18.72 18.72s-31.2 31.2 0 62.4l18.72 18.7 18.72-18.7s31.2-31.2 0-62.4L207.74 6.24" fill="#1F572E" mask="url(#l)"/></g><path d="M555.75 170l-6.85 25.57s-11.42 42.6 31.2 54.03l25.57 6.85 6.85-25.57s11.42-42.6-31.2-54.03l-17.05-4.57M482 243.75l6.85 25.57s11.42 42.62 54.03 31.2l25.57-6.85-6.85-25.57s-11.42-42.62-54.03-31.2l-17.05 4.57M455 344.5l18.72 18.72s31.2 31.2 62.4 0l18.7-18.72-18.7-18.72s-31.2-31.2-62.4 0l-12.48 12.48M482 445.25l25.57 6.85s42.6 11.42 54.03-31.2l6.85-25.57-25.57-6.85s-42.6-11.42-54.03 31.2l-4.57 17.05" fill="#1F572E"/><g transform="translate(455 143)"><mask id="n" fill="#fff"><use xlink:href="#m"/></mask><path d="M100.75 376l25.57-6.85s42.62-11.42 31.2-54.03l-6.85-25.57-25.57 6.85s-42.62 11.42-31.2 54.03l4.57 17.05M201.5 403l18.72-18.72s31.2-31.2 0-62.4l-18.72-18.7-18.72 18.7s-31.2 31.2 0 62.4l12.48 12.48" fill="#1F572E" mask="url(#n)"/></g><path d="M757.25 519l6.85-25.56s11.42-42.62-31.2-54.04l-25.57-6.85-6.85 25.57s-11.42 42.6 31.2 54.03l17.05 4.57" fill="#1F572E"/><g transform="translate(455 143)"><mask id="p" fill="#fff"><use xlink:href="#o"/></mask><path d="M376 302.25l-6.85-25.57s-11.42-42.62-54.03-31.2l-25.57 6.85 6.85 25.57s11.42 42.62 54.03 31.2l17.05-4.57M403 201.5l-18.72-18.72s-31.2-31.2-62.4 0l-18.7 18.72 18.7 18.72s31.2 31.2 62.4 0l12.48-12.48" fill="#1F572E" mask="url(#p)"/></g><path d="M831 243.75l-25.57-6.85s-42.6-11.42-54.03 31.2l-6.85 25.57 25.57 6.85s42.6 11.42 54.03-31.2l4.57-17.05M757.25 170l-25.57 6.85s-42.62 11.42-31.2 54.03l6.85 25.57 25.57-6.85s42.62-11.42 31.2-54.03l-4.57-17.05" fill="#1F572E"/></g></g></svg>