<svg width="640" height="2999" viewBox="0 0 640 2999" xmlns="http://www.w3.org/2000/svg" xmlns:xlink="http://www.w3.org/1999/xlink"><title>Stats</title><defs><path id="a" d="M.06.95h302.12V308H.06"/><path id="c" d="M.06.95h302.12V308H.06"/><path id="e" d="M.05.6H299.4V300H.06"/><path id="g" d="M0 .82h299.18v299.12H0"/><path id="i" d="M0 0h299.97v299.96H0"/><path id="k" d="M0 0h299.97v299.96H0"/><path id="m" d="M0 0h299.97v299.96H0"/></defs><g fill="none" fill-rule="evenodd"><path fill="#236133" d="M0 0h640v2999H0z"/><g transform="translate(99 2566)"><mask id="b" fill="#fff"><use xlink:href="#a"/></mask><path d="M150.78 69.56c-19.15-.12-34.38-15.47-34.24-34.5.14-18.73 16.1-34.34 34.86-34.1 18.9.23 34.4 15.95 34.23 34.73-.17 19-15.6 33.98-34.85 33.86" fill="#1F572E" mask="url(#b)"/></g><path d="M250.1 2643.78c-1.35 0-33 .38-46.28 34.32-15.13 38.66-5.54 140.34 46.27 195.9 51.8-55.56 61.4-157.24 46.26-195.9-13.28-33.93-44.93-34.32-46.27-34.32" fill="#1F572E"/><g transform="translate(99 2566)"><mask id="d" fill="#fff"><use xlink:href="#c"/></mask><path d="M263 95.43c-14.1-.1-25.35-11.42-25.25-25.45.1-13.83 11.87-25.34 25.72-25.17 13.95.18 25.38 11.78 25.26 25.64-.13 14-11.52 25.08-25.72 25M263.24 103.42c-1 0-24.34.3-34.14 25.33-11.16 28.5-4.08 103.54 34.14 144.53 38.22-41 45.3-116 34.14-144.53-9.8-25.04-33.15-25.33-34.14-25.33M38.7 95.43C24.6 95.33 13.35 84 13.46 69.98c.1-13.83 11.87-25.34 25.7-25.17 13.97.18 25.4 11.78 25.28 25.64-.13 14-11.52 25.08-25.72 25M38.94 103.42c-1 0-24.34.3-34.14 25.33C-6.36 157.25.72 232.3 38.94 273.28c38.22-41 45.3-116 34.14-144.53-9.8-25.04-33.15-25.33-34.14-25.33" fill="#1F572E" mask="url(#d)"/></g><path d="M210.5 2275.5c-2.84-2.85-7.46-2.84-10.3 0-2.86 2.86-2.87 7.48-.02 10.32 2.84 2.85 7.46 2.84 10.3 0 2.86-2.86 2.87-7.48.03-10.32M326.5 2193.08c9.3-9.3 9.3-24.35.04-33.62-9.27-9.27-24.32-9.24-33.62.05-9.3 9.3-9.32 24.36-.05 33.63 9.27 9.27 24.32 9.25 33.62-.05M281.47 2148.06c8.3-8.3 8.33-21.75.05-30.03-8.28-8.28-21.73-8.26-30.03.05-8.32 8.3-8.34 21.75-.06 30.03 8.28 8.3 21.73 8.27 30.03-.04M271.07 2186.7c-3.02-11.32-14.65-18.03-26-14.98-11.32 3.06-18.06 14.7-15.04 26.03 3.02 11.33 14.65 18.03 26 14.98 11.32-3.05 18.06-14.7 15.04-26.03M299.3 2214.93c-11.32-3.02-22.98 3.72-26.03 15.06-3.05 11.32 3.65 22.95 14.98 25.97 11.32 3.02 22.98-3.72 26.03-15.05 3.05-11.34-3.66-22.97-14.98-26M337.94 2204.53c-8.3 8.3-8.33 21.75-.05 30.03 8.27 8.28 21.72 8.26 30.02-.05 8.3-8.3 8.33-21.74.05-30.02-8.3-8.28-21.73-8.26-30.03.05M348.34 2165.9c3.02 11.3 14.65 18.02 25.98 14.97 11.34-3.05 18.08-14.7 15.06-26.03-3.02-11.32-14.65-18.03-26-14.98-11.32 3.05-18.06 14.7-15.04 26.03M320.1 2137.66c11.33 3.02 23-3.72 26.04-15.05 3.05-11.33-3.65-22.96-14.98-25.98-11.32-3.02-22.98 3.72-26.03 15.06-3.05 11.33 3.66 22.96 14.98 25.98M229.05 2154.8c2.35-8.7-2.8-17.65-11.5-19.97-8.7-2.32-17.66 2.86-20 11.56-2.35 8.7 2.8 17.64 11.5 19.96 8.7 2.32 17.66-2.86 20-11.56M331.2 2256.95c-8.7 2.34-13.88 11.3-11.56 20 2.32 8.7 11.26 13.85 19.97 11.5 8.7-2.34 13.9-11.3 11.57-20-2.32-8.7-11.26-13.85-19.97-11.5M390.36 2197.8c-2.35 8.7 2.8 17.64 11.5 19.96 8.7 2.32 17.66-2.85 20-11.56 2.35-8.7-2.8-17.65-11.5-19.97-8.7-2.32-17.66 2.86-20 11.57M368.85 2117.15c6.37 6.36 16.7 6.34 23.08-.04 6.38-6.37 6.4-16.7.03-23.06-6.36-6.37-16.7-6.35-23.07.03-6.4 6.38-6.4 16.7-.05 23.08M288.2 2095.64c8.7-2.34 13.9-11.3 11.57-20-2.32-8.7-11.26-13.85-19.97-11.5-8.7 2.34-13.88 11.3-11.56 20 2.32 8.7 11.26 13.85 19.96 11.5M250.56 2235.45c-6.37-6.37-16.7-6.35-23.08.03-6.38 6.38-6.4 16.7-.03 23.08 6.36 6.36 16.7 6.34 23.07-.04 6.38-6.38 6.4-16.7.04-23.07M199.2 2112.6c2.9-5.02 1.13-11.46-3.94-14.38-5.07-2.93-11.54-1.23-14.44 3.8-2.9 5-1.14 11.44 3.93 14.37 5.07 2.9 11.54 1.2 14.44-3.8M181.97 2176.47c0-5.8-4.74-10.47-10.6-10.46-5.86.02-10.62 4.72-10.63 10.5 0 5.8 4.74 10.48 10.6 10.47 5.86 0 10.62-4.7 10.63-10.5M198.97 2240.3c-2.88-5-9.34-6.68-14.42-3.74-5.1 2.94-6.86 9.38-3.98 14.4 2.9 5 9.35 6.68 14.43 3.74 5.08-2.94 6.86-9.38 3.97-14.4M245.64 2287c-5-2.9-11.45-1.1-14.4 3.97-2.93 5.08-1.25 11.54 3.76 14.43 5 2.88 11.45 1.1 14.4-3.97 2.93-5.1 1.25-11.54-3.76-14.43M309.47 2304.03c-5.8 0-10.5 4.77-10.5 10.63 0 5.86 4.68 10.6 10.47 10.6 5.78 0 10.48-4.77 10.5-10.63 0-5.86-4.7-10.6-10.47-10.6M373.35 2286.84c-5.02 2.9-6.7 9.37-3.8 14.44 2.93 5.07 9.37 6.83 14.4 3.93 5-2.9 6.7-9.36 3.78-14.43-2.92-5.07-9.36-6.83-14.38-3.93M420.18 2240.04c-2.9 5.02-1.15 11.45 3.93 14.38 5.08 2.92 11.54 1.22 14.44-3.8 2.9-5 1.15-11.45-3.93-14.37-5.06-2.93-11.52-1.23-14.42 3.8M437.4 2176.16c0 5.8 4.73 10.48 10.6 10.47 5.86 0 10.6-4.7 10.62-10.5 0-5.8-4.73-10.47-10.6-10.47-5.86 0-10.62 4.7-10.62 10.5M420.4 2112.33c2.88 5 9.34 6.68 14.42 3.75 5.08-2.94 6.86-9.4 3.97-14.4-2.9-5-9.35-6.68-14.43-3.74-5.08 2.93-6.86 9.38-3.98 14.4M373.73 2065.64c5 2.88 11.45 1.1 14.4-3.98 2.93-5.08 1.25-11.54-3.76-14.42-5-2.9-11.45-1.1-14.4 3.97-2.93 5.1-1.25 11.55 3.76 14.44M309.9 2048.6c5.8 0 10.5-4.76 10.5-10.62 0-5.87-4.68-10.6-10.47-10.6-5.8 0-10.5 4.76-10.5 10.63 0 5.87 4.68 10.6 10.47 10.6M246 2065.8c5.03-2.9 6.73-9.37 3.8-14.45-2.92-5.07-9.36-6.83-14.37-3.93-5.02 2.9-6.72 9.37-3.8 14.44 2.93 5.08 9.37 6.83 14.38 3.93" fill="#1F572E"/><g transform="translate(160 2026)"><mask id="f" fill="#fff"><use xlink:href="#e"/></mask><path d="M50.8 51.4c2.85-2.87 2.85-7.48 0-10.33-2.84-2.84-7.45-2.83-10.3.02-2.85 2.84-2.86 7.46-.02 10.3 2.84 2.84 7.46 2.84 10.3 0M14.44 114.24c1.05-3.9-1.25-7.9-5.14-8.93-3.9-1.02-7.9 1.3-8.94 5.18-1.04 3.9 1.26 7.9 5.15 8.92 3.9 1.04 7.9-1.27 8.94-5.16M14.34 186.75c-1.04-3.9-5.03-6.2-8.92-5.14-3.9 1.05-6.2 5.06-5.17 8.94 1.03 3.9 5.03 6.2 8.92 5.15 3.9-1.06 6.2-5.06 5.17-8.95M113.25 285.66c-3.9-1.03-7.9 1.28-8.94 5.17-1.04 3.9 1.27 7.9 5.16 8.92 3.88 1.04 7.9-1.28 8.93-5.17 1.04-3.9-1.26-7.88-5.15-8.92M185.76 285.56c-3.9 1.04-6.2 5.04-5.17 8.93 1.03 3.88 5.03 6.2 8.92 5.14 3.9-1.05 6.2-5.05 5.17-8.94-1.05-3.9-5.04-6.2-8.94-5.14M248.6 249.2c-2.84 2.86-2.84 7.48 0 10.32s7.46 2.84 10.3-.02c2.86-2.85 2.87-7.46.03-10.3-2.85-2.85-7.46-2.84-10.32 0M284.96 186.36c-1.05 3.9 1.26 7.88 5.15 8.92 3.9 1.03 7.9-1.28 8.94-5.17 1.05-3.88-1.25-7.88-5.14-8.9-3.9-1.05-7.9 1.26-8.94 5.16M285.07 113.84c1.04 3.9 5.03 6.2 8.92 5.14 3.88-1.04 6.2-5.05 5.16-8.93-1.03-3.9-5.03-6.2-8.92-5.15-3.9 1.05-6.2 5.05-5.17 8.94M248.9 51.1c2.85 2.84 7.46 2.83 10.32-.02 2.85-2.85 2.85-7.47 0-10.3-2.83-2.85-7.45-2.85-10.3 0-2.85 2.86-2.86 7.47-.02 10.32M186.16 14.93c3.9 1.04 7.9-1.28 8.94-5.17 1.04-3.9-1.26-7.88-5.15-8.92-3.88-1.04-7.9 1.28-8.93 5.17-1.05 3.9 1.25 7.9 5.14 8.93M113.64 15.04c3.9-1.05 6.2-5.05 5.17-8.94-1.02-3.9-5.02-6.2-8.9-5.14C106 2 103.7 6 104.7 9.9c1.04 3.88 5.03 6.2 8.92 5.14" fill="#1F572E" mask="url(#f)"/></g><path d="M240.66 2107.25c5.08-5.08 5.1-13.3.02-18.38-5.06-5.07-13.3-5.06-18.37.03-5.08 5.08-5.1 13.3-.02 18.38 5.07 5.06 13.3 5.05 18.38-.03M215.38 2201.57c-1.86-6.94-8.98-11.07-15.9-9.2-6.92 1.84-11.02 8.97-9.16 15.92 1.86 6.93 8.98 11.05 15.9 9.2 6.92-1.86 11.02-9 9.16-15.93M284.43 2270.62c-6.94-1.86-14.07 2.24-15.93 9.16-1.85 6.92 2.27 14.04 9.2 15.9 6.96 1.86 14.1-2.24 15.94-9.16 1.86-6.92-2.27-14.04-9.2-15.9M378.75 2245.34c-5.08 5.1-5.1 13.3-.02 18.38 5.06 5.07 13.3 5.06 18.37-.02 5.1-5.1 5.1-13.32.03-18.38-5.07-5.07-13.3-5.06-18.38.02M404.02 2151.02c1.86 6.95 8.98 11.07 15.9 9.22 6.93-1.86 11.03-9 9.17-15.93-1.87-6.94-9-11.06-15.9-9.2-6.93 1.85-11.04 8.98-9.18 15.92M334.98 2081.98c6.94 1.86 14.07-2.25 15.93-9.17 1.86-6.9-2.26-14.03-9.2-15.9-6.95-1.85-14.08 2.25-15.93 9.17-1.86 6.93 2.27 14.05 9.2 15.9M54 1517.77v-91.14h93.68s156.13 0 156.13 151.9v60.75s-56.74-7.64-148.95-104.25c0 0 44.78 103.5 148.96 134.63h-93.67S54 1669.66 54 1517.76" fill="#1F572E"/><g fill="#1F572E"><path d="M564.55 1144.3v-38.8h-38.8s-64.7 0-64.7 64.7v25.86s58.22-19.4 90.56-77.62c0 0 0 51.75-90.55 90.55h38.82s64.68 0 64.68-64.7"/><path d="M621.6 1157.25c0-60.08-48.7-108.8-108.8-108.8-60.1 0-108.8 48.72-108.8 108.8s48.7 108.8 108.8 108.8c60.1 0 108.8-48.72 108.8-108.8m-19.1-5.47l.03.3c.08 1.72.25 3.42.25 5.17 0 1.66-.16 3.27-.25 4.9h.02c0 .16-.03.32-.04.48-2.8 47.17-41.82 84.6-89.7 84.6-47.87 0-86.9-37.43-89.7-84.6 0-.15-.04-.3-.05-.47h.02c-.08-1.64-.24-3.25-.24-4.9 0-1.76.16-3.46.26-5.18h-.03l.03-.3c2.84-47.13 41.86-84.5 89.7-84.5 47.85 0 86.86 37.37 89.7 84.5"/><path d="M503.35 1249.45h18.9V1348h-18.9v-98.55z"/><path d="M463.52 1289.27h98.56v18.9h-98.56v-18.9z"/></g><g><g transform="translate(15 560)"><mask id="h" fill="#fff"><use xlink:href="#g"/></mask><path d="M299.18 150.4C299.18 67.8 232.2.83 149.58.83 67 .82 0 67.8 0 150.42 0 233 66.97 300 149.6 300c82.6 0 149.58-66.97 149.58-149.6m-26.27-7.5l.05.4h-.02c.14 2.36.36 4.7.36 7.1 0 2.3-.23 4.5-.35 6.76h.03c0 .22-.05.43-.06.64-3.85 64.86-57.5 116.32-123.33 116.32S30.1 222.67 26.25 157.82l-.06-.66h.03c-.13-2.25-.35-4.47-.35-6.75 0-2.4.23-4.74.36-7.1l.02-.4C30.16 78.1 83.8 26.7 149.6 26.7c65.77 0 119.4 51.4 123.3 116.2" fill="#1F572E" mask="url(#h)"/></g><path d="M73.97 741.28c6.66 6.17 14.4 10.3 22.76 11.86v13.56h14.53v-13.44c12.22-2.42 22.02-11.86 22.02-24.7 0-28.56-39.1-24.32-39.1-38 0-6.54 6.9-9.2 13.08-9.2 5.57 0 11.26 2.42 14.65 5.57l8.48-12.1c-6.3-4.6-12.6-6.9-19.12-7.63v-13.08H96.73v13.92c-10.4 2.9-18.88 10.9-18.88 22.64 0 9.56 5.32 15.37 11.98 19.25 11.38 6.65 27.12 8 27.12 18.88 0 6.18-5.1 10.66-12.35 10.66-7.75 0-15.13-4-19.97-9.32l-10.66 11.14zm78.2-50.36c1.7-5.7 5.8-9.56 11.5-9.56 6.4 0 11 5.45 11 11.38 0 4.36-1.8 9.2-8.34 16.58l-29.78 33.77v9.68h55.08v-14.53H162.1l18.03-20.94c5.7-6.53 10.9-14.03 10.9-24.32 0-15.25-12.6-26.15-27.12-26.15-12.46 0-23.1 8-26.74 19.6l15 4.5zm46.14 52.18c7.4 7.38 15.87 10.9 25.67 10.9 17.07 0 31.23-12.6 31.23-29.3 0-9.08-4.1-17.68-10.77-23-5.93-4.85-13.2-6.42-19.73-6.42-2.3 0-4.84.24-6.54.6l1.33-13.3h31.47v-14.53h-44.8l-5.44 44.9 10.17 1.46c3.63-3.02 8.35-4.6 12.47-4.6 4 0 7.62 1.1 10.3 3.4 3.26 2.78 5.2 6.9 5.2 11.5 0 4.35-1.83 8.23-4.73 10.9-2.78 2.53-6.4 3.86-10.17 3.86-5.7 0-10.9-2.9-14.52-6.77l-11.14 10.4z" fill="#1F572E"/></g><g><g transform="translate(211 146)"><mask id="j" fill="#fff"><use xlink:href="#i"/></mask><path d="M150 0l-13.93 13.93s-23.23 23.23 0 46.45L150 74.32l13.93-13.94s23.23-23.22 0-46.45l-9.28-9.3" fill="#1F572E" mask="url(#j)"/></g><path d="M286 166.1l-5.1 19.03s-8.5 31.73 23.22 40.23l19.04 5.1 5.1-19.04s8.5-31.72-23.23-40.22l-12.7-3.4M231.1 221l5.1 19.03s8.5 31.73 40.22 23.23l19.04-5.1-5.1-19.04s-8.5-31.72-40.23-23.22l-12.7 3.4M211 296l13.93 13.93s23.23 23.23 46.45 0L285.32 296l-13.94-13.93s-23.22-23.23-46.45 0l-9.28 9.28M231.1 371l19.03 5.1s31.73 8.5 40.23-23.22l5.1-19.04-19.04-5.1s-31.72-8.5-40.22 23.23l-3.4 12.68" fill="#1F572E"/><g transform="translate(211 146)"><mask id="l" fill="#fff"><use xlink:href="#k"/></mask><path d="M75 279.9l19.03-5.1s31.73-8.5 23.23-40.22l-5.1-19.04-19.04 5.1s-31.72 8.5-23.22 40.23l3.4 12.7M150 300l13.93-13.93s23.23-23.23 0-46.45L150 225.68l-13.93 13.94s-23.23 23.22 0 46.45l9.3 9.3" fill="#1F572E" mask="url(#l)"/></g><path d="M436 425.9l5.1-19.03s8.5-31.73-23.22-40.23l-19.04-5.1-5.1 19.04s-8.5 31.72 23.23 40.22l12.7 3.4" fill="#1F572E"/><g transform="translate(211 146)"><mask id="n" fill="#fff"><use xlink:href="#m"/></mask><path d="M279.9 225l-5.1-19.03s-8.5-31.73-40.22-23.23l-19.04 5.1 5.1 19.04s8.5 31.72 40.23 23.22l12.7-3.4M300 150l-13.93-13.93s-23.23-23.23-46.45 0L225.68 150l13.94 13.93s23.22 23.23 46.45 0l9.28-9.28" fill="#1F572E" mask="url(#n)"/></g><path d="M490.9 221l-19.03-5.1s-31.73-8.5-40.23 23.22l-5.1 19.04 19.04 5.1s31.72 8.5 40.22-23.23l3.4-12.7M436 166.1l-19.03 5.1s-31.73 8.5-23.23 40.22l5.1 19.04 19.04-5.1s31.72-8.5 23.22-40.23l-3.4-12.7" fill="#1F572E"/></g></g></svg>