<?xml version="1.0" encoding="UTF-8" standalone="no"?>
<svg width="1190px" height="2251px" viewBox="0 0 1190 2251" version="1.1" xmlns="http://www.w3.org/2000/svg" xmlns:xlink="http://www.w3.org/1999/xlink" xmlns:sketch="http://www.bohemiancoding.com/sketch/ns">
    <!-- Generator: Sketch 3.3.3 (12081) - http://www.bohemiancoding.com/sketch -->
    <title>Group</title>
    <desc>Created with Sketch.</desc>
    <defs>
        <rect id="path-1" x="0" y="0" width="1190" height="2251"></rect>
        <path id="path-3" d="M0.06,0.951 L302.181,0.951 L302.181,308 L0.06,308"></path>
        <path id="path-5" d="M0.06,0.951 L302.181,0.951 L302.181,308 L0.06,308"></path>
        <path id="path-7" d="M0.06,0.776 L393.224,0.776 L393.224,394 L0.06,394"></path>
        <path id="path-9" d="M0,0.824 L299.176,0.824 L299.176,299.94 L0,299.94"></path>
        <path id="path-11" d="M0,0 L402.96,0 L402.96,402.94 L0,402.94"></path>
        <path id="path-13" d="M0,0 L402.96,0 L402.96,402.94 L0,402.94"></path>
        <path id="path-15" d="M0,0 L402.96,0 L402.96,402.94 L0,402.94"></path>
    </defs>
    <g id="Desktop" stroke="none" stroke-width="1" fill="none" fill-rule="evenodd" sketch:type="MSPage">
        <g id="SEE-MORE" sketch:type="MSArtboardGroup" transform="translate(0.000000, -459.000000)">
            <g id="Group" sketch:type="MSLayerGroup" transform="translate(0.000000, 459.000000)">
                <mask id="mask-2" sketch:name="Mask" fill="white">
                    <use xlink:href="#path-1"></use>
                </mask>
                <use id="Mask" fill="#236133" sketch:type="MSShapeGroup" xlink:href="#path-1"></use>
                <g id="symbol6" mask="url(#mask-2)">
                    <g transform="translate(497.000000, 1861.000000)">
                        <g id="Group-3" stroke-width="1" fill="none" sketch:type="MSLayerGroup">
                            <mask id="mask-4" sketch:name="Clip 2" fill="white">
                                <use xlink:href="#path-3"></use>
                            </mask>
                            <g id="Clip-2"></g>
                            <path d="M150.779,69.558 C131.633,69.436 116.398,54.091 116.542,35.074 C116.684,16.326 132.627,0.719 151.396,0.953 C170.314,1.191 185.808,16.907 185.635,35.685 C185.46,54.686 170.029,69.681 150.779,69.558" id="Fill-1" fill="#1F572E" sketch:type="MSShapeGroup" mask="url(#mask-4)"></path>
                        </g>
                        <path d="M151.09,77.775 C149.749,77.775 118.102,78.165 104.82,112.104 C89.695,150.757 99.283,252.443 151.092,308 C202.898,252.443 212.486,150.757 197.361,112.104 C184.079,78.165 152.432,77.775 151.09,77.775" id="Fill-4" fill="#1F572E" sketch:type="MSShapeGroup"></path>
                        <g id="Group-10" stroke-width="1" fill="none" sketch:type="MSLayerGroup">
                            <mask id="mask-6" sketch:name="Clip 6" fill="white">
                                <use xlink:href="#path-5"></use>
                            </mask>
                            <g id="Clip-6"></g>
                            <path d="M263.012,95.426 C248.887,95.336 237.645,84.014 237.752,69.983 C237.857,56.151 249.619,44.636 263.466,44.81 C277.424,44.984 288.855,56.58 288.729,70.435 C288.6,84.454 277.215,95.517 263.012,95.426" id="Fill-5" fill="#1F572E" sketch:type="MSShapeGroup" mask="url(#mask-6)"></path>
                            <path d="M263.24,103.421 C262.252,103.421 238.902,103.708 229.104,128.748 C217.943,157.265 225.018,232.291 263.242,273.28 C301.465,232.291 308.539,157.265 297.379,128.748 C287.58,103.708 264.23,103.421 263.24,103.421" id="Fill-7" fill="#1F572E" sketch:type="MSShapeGroup" mask="url(#mask-6)"></path>
                            <path d="M38.711,95.426 C24.584,95.336 13.344,84.014 13.451,69.983 C13.556,56.151 25.317,44.636 39.164,44.81 C53.123,44.984 64.555,56.58 64.426,70.435 C64.297,84.454 52.914,95.517 38.711,95.426" id="Fill-8" fill="#1F572E" sketch:type="MSShapeGroup" mask="url(#mask-6)"></path>
                            <path d="M38.939,103.421 C37.95,103.421 14.602,103.708 4.801,128.748 C-6.357,157.265 0.717,232.291 38.941,273.28 C77.163,232.291 84.237,157.265 73.077,128.748 C63.278,103.708 39.928,103.421 38.939,103.421" id="Fill-9" fill="#1F572E" sketch:type="MSShapeGroup" mask="url(#mask-6)"></path>
                        </g>
                    </g>
                </g>
                <g id="symbol5" mask="url(#mask-2)">
                    <g transform="translate(103.000000, 1454.000000)">
                        <path d="M66.33,327.671 C62.596,323.937 56.532,323.946 52.785,327.691 C49.041,331.436 49.032,337.499 52.766,341.235 C56.501,344.969 62.564,344.959 66.309,341.214 C70.054,337.47 70.063,331.406 66.33,327.671" id="Fill-1" fill="#1F572E" sketch:type="MSShapeGroup"></path>
                        <path d="M218.656,219.432 C230.865,207.223 230.894,187.454 218.719,175.282 C206.544,163.107 186.78,163.136 174.569,175.345 C162.36,187.556 162.331,207.322 174.506,219.497 C186.678,231.67 206.447,231.641 218.656,219.432" id="Fill-2" fill="#1F572E" sketch:type="MSShapeGroup"></path>
                        <path d="M159.535,160.311 C170.441,149.404 170.467,131.747 159.593,120.872 C148.717,109.998 131.06,110.023 120.153,120.929 C109.247,131.836 109.221,149.493 120.096,160.369 C130.971,171.244 148.628,171.218 159.535,160.311" id="Fill-3" fill="#1F572E" sketch:type="MSShapeGroup"></path>
                        <path d="M145.869,211.054 C141.905,196.183 126.626,187.377 111.744,191.384 C96.86,195.392 88.009,210.698 91.974,225.568 C95.938,240.44 111.217,249.245 126.1,245.238 C140.984,241.231 149.835,225.924 145.869,211.054" id="Fill-4" fill="#1F572E" sketch:type="MSShapeGroup"></path>
                        <path d="M182.948,248.131 C168.076,244.166 152.771,253.016 148.764,267.901 C144.755,282.783 153.561,298.064 168.433,302.026 C183.304,305.99 198.61,297.141 202.617,282.258 C206.625,267.374 197.818,252.095 182.948,248.131" id="Fill-5" fill="#1F572E" sketch:type="MSShapeGroup"></path>
                        <path d="M233.688,234.466 C222.783,245.372 222.756,263.03 233.631,273.905 C244.507,284.779 262.164,284.754 273.071,273.847 C283.976,262.942 284.003,245.283 273.129,234.407 C262.252,223.532 244.596,223.559 233.688,234.466" id="Fill-6" fill="#1F572E" sketch:type="MSShapeGroup"></path>
                        <path d="M247.355,183.724 C251.319,198.595 266.596,207.401 281.48,203.393 C296.365,199.386 305.214,184.08 301.249,169.209 C297.286,154.338 282.006,145.531 267.125,149.54 C252.242,153.547 243.39,168.853 247.355,183.724" id="Fill-7" fill="#1F572E" sketch:type="MSShapeGroup"></path>
                        <path d="M210.276,146.646 C225.148,150.611 240.455,141.76 244.46,126.877 C248.469,111.993 239.664,96.715 224.792,92.751 C209.92,88.786 194.614,97.637 190.608,112.52 C186.6,127.402 195.406,142.681 210.276,146.646" id="Fill-8" fill="#1F572E" sketch:type="MSShapeGroup"></path>
                        <path d="M90.69,169.151 C93.771,157.714 87.003,145.973 75.577,142.927 C64.148,139.88 52.388,146.681 49.308,158.118 C46.227,169.555 52.995,181.295 64.422,184.342 C75.851,187.389 87.611,180.587 90.69,169.151" id="Fill-9" fill="#1F572E" sketch:type="MSShapeGroup"></path>
                        <path d="M224.849,303.31 C213.412,306.39 206.612,318.15 209.659,329.577 C212.705,341.004 224.447,347.773 235.883,344.692 C247.318,341.612 254.121,329.853 251.074,318.425 C248.027,306.997 236.286,300.23 224.849,303.31" id="Fill-10" fill="#1F572E" sketch:type="MSShapeGroup"></path>
                        <path d="M302.534,225.627 C299.454,237.062 306.22,248.803 317.647,251.85 C329.077,254.897 340.836,248.096 343.916,236.659 C346.997,225.223 340.228,213.482 328.801,210.436 C317.374,207.389 305.612,214.19 302.534,225.627" id="Fill-11" fill="#1F572E" sketch:type="MSShapeGroup"></path>
                        <path d="M274.295,119.705 C282.651,128.062 296.221,128.042 304.6,119.661 C312.983,111.28 313.001,97.712 304.645,89.355 C296.289,80.998 282.719,81.018 274.339,89.4 C265.958,97.78 265.938,111.349 274.295,119.705" id="Fill-12" fill="#1F572E" sketch:type="MSShapeGroup"></path>
                        <path d="M168.374,91.467 C179.811,88.387 186.613,76.627 183.566,65.199 C180.519,53.772 168.778,47.004 157.341,50.085 C145.905,53.164 139.104,64.925 142.15,76.353 C145.197,87.78 156.938,94.548 168.374,91.467" id="Fill-13" fill="#1F572E" sketch:type="MSShapeGroup"></path>
                        <path d="M118.93,275.072 C110.573,266.716 97.003,266.734 88.623,275.117 C80.241,283.495 80.222,297.066 88.579,305.423 C96.935,313.778 110.504,313.759 118.884,305.378 C127.266,296.997 127.285,283.429 118.93,275.072" id="Fill-14" fill="#1F572E" sketch:type="MSShapeGroup"></path>
                        <path d="M51.469,113.73 C55.279,107.14 52.968,98.686 46.307,94.846 C39.646,91.006 31.155,93.236 27.345,99.825 C23.534,106.415 25.845,114.87 32.506,118.709 C39.169,122.548 47.658,120.319 51.469,113.73" id="Fill-15" fill="#1F572E" sketch:type="MSShapeGroup"></path>
                        <path d="M28.854,197.622 C28.866,190.019 22.634,183.865 14.936,183.876 C7.236,183.888 0.986,190.06 0.975,197.663 C0.964,205.265 7.197,211.42 14.896,211.408 C22.593,211.397 28.844,205.225 28.854,197.622" id="Fill-16" fill="#1F572E" sketch:type="MSShapeGroup"></path>
                        <path d="M51.184,281.459 C47.392,274.881 38.909,272.676 32.237,276.536 C25.564,280.394 23.228,288.857 27.019,295.434 C30.811,302.012 39.294,304.218 45.967,300.358 C52.641,296.5 54.977,288.037 51.184,281.459" id="Fill-17" fill="#1F572E" sketch:type="MSShapeGroup"></path>
                        <path d="M112.473,342.777 C105.894,338.985 97.433,341.32 93.573,347.993 C89.715,354.667 91.919,363.151 98.498,366.942 C105.076,370.734 113.538,368.397 117.397,361.725 C121.255,355.052 119.051,346.569 112.473,342.777" id="Fill-18" fill="#1F572E" sketch:type="MSShapeGroup"></path>
                        <path d="M196.299,365.147 C188.697,365.158 182.524,371.406 182.513,379.105 C182.502,386.804 188.656,393.036 196.258,393.026 C203.86,393.015 210.034,386.765 210.044,379.066 C210.055,371.365 203.901,365.135 196.299,365.147" id="Fill-19" fill="#1F572E" sketch:type="MSShapeGroup"></path>
                        <path d="M280.203,342.571 C273.612,346.384 271.383,354.871 275.223,361.533 C279.063,368.194 287.516,370.507 294.107,366.696 C300.696,362.885 302.925,354.395 299.084,347.734 C295.245,341.071 286.792,338.76 280.203,342.571" id="Fill-20" fill="#1F572E" sketch:type="MSShapeGroup"></path>
                        <path d="M341.699,281.103 C337.887,287.693 340.199,296.147 346.861,299.986 C353.522,303.828 362.012,301.598 365.822,295.007 C369.633,288.418 367.322,279.965 360.661,276.125 C354,272.285 345.508,274.514 341.699,281.103" id="Fill-21" fill="#1F572E" sketch:type="MSShapeGroup"></path>
                        <path d="M364.313,197.211 C364.302,204.815 370.533,210.969 378.232,210.957 C385.931,210.946 392.181,204.774 392.192,197.171 C392.203,189.568 385.97,183.414 378.273,183.425 C370.574,183.437 364.324,189.609 364.313,197.211" id="Fill-22" fill="#1F572E" sketch:type="MSShapeGroup"></path>
                        <path d="M341.983,113.375 C345.777,119.952 354.259,122.158 360.932,118.299 C367.605,114.439 369.94,105.978 366.149,99.4 C362.356,92.82 353.874,90.616 347.201,94.476 C340.528,98.334 338.192,106.797 341.983,113.375" id="Fill-23" fill="#1F572E" sketch:type="MSShapeGroup"></path>
                        <path d="M280.695,52.056 C287.273,55.848 295.735,53.513 299.593,46.84 C303.453,40.167 301.249,31.683 294.669,27.891 C288.091,24.101 279.63,26.436 275.77,33.108 C271.912,39.781 274.117,48.264 280.695,52.056" id="Fill-24" fill="#1F572E" sketch:type="MSShapeGroup"></path>
                        <path d="M196.869,29.687 C204.471,29.676 210.644,23.425 210.655,15.728 C210.667,8.029 204.512,1.797 196.91,1.808 C189.307,1.819 183.135,8.069 183.123,15.768 C183.112,23.466 189.266,29.699 196.869,29.687" id="Fill-25" fill="#1F572E" sketch:type="MSShapeGroup"></path>
                        <path d="M112.966,52.261 C119.555,48.451 121.785,39.961 117.946,33.299 C114.106,26.637 105.651,24.326 99.062,28.137 C92.473,31.948 90.242,40.438 94.082,47.1 C97.922,53.762 106.377,56.072 112.966,52.261" id="Fill-26" fill="#1F572E" sketch:type="MSShapeGroup"></path>
                        <g id="Group-39" stroke-width="1" fill="none" sketch:type="MSLayerGroup">
                            <mask id="mask-8" sketch:name="Clip 28" fill="white">
                                <use xlink:href="#path-7"></use>
                            </mask>
                            <g id="Clip-28"></g>
                            <path d="M66.709,67.486 C70.455,63.74 70.462,57.677 66.729,53.943 C62.994,50.208 56.931,50.217 53.187,53.963 C49.441,57.708 49.432,63.771 53.166,67.505 C56.9,71.239 62.963,71.231 66.709,67.486" id="Fill-27" fill="#1F572E" sketch:type="MSShapeGroup" mask="url(#mask-8)"></path>
                            <path d="M18.971,150.03 C20.348,144.921 17.324,139.673 12.217,138.312 C7.11,136.951 1.855,139.989 0.479,145.101 C-0.897,150.211 2.126,155.457 7.232,156.818 C12.339,158.181 17.595,155.141 18.971,150.03" id="Fill-29" fill="#1F572E" sketch:type="MSShapeGroup" mask="url(#mask-8)"></path>
                            <path d="M18.833,245.264 C17.471,240.158 12.224,237.134 7.113,238.513 C2.003,239.886 -1.037,245.142 0.325,250.249 C1.687,255.355 6.933,258.379 12.044,257.004 C17.155,255.628 20.194,250.371 18.833,245.264" id="Fill-30" fill="#1F572E" sketch:type="MSShapeGroup" mask="url(#mask-8)"></path>
                            <path d="M148.735,375.169 C143.629,373.808 138.373,376.847 136.996,381.958 C135.621,387.068 138.645,392.314 143.751,393.676 C148.858,395.038 154.114,391.997 155.489,386.888 C156.866,381.776 153.841,376.529 148.735,375.169" id="Fill-31" fill="#1F572E" sketch:type="MSShapeGroup" mask="url(#mask-8)"></path>
                            <path d="M243.971,375.029 C238.86,376.404 235.82,381.661 237.181,386.769 C238.543,391.874 243.789,394.9 248.9,393.521 C254.011,392.145 257.05,386.892 255.688,381.784 C254.327,376.676 249.081,373.653 243.971,375.029" id="Fill-32" fill="#1F572E" sketch:type="MSShapeGroup" mask="url(#mask-8)"></path>
                            <path d="M326.514,327.292 C322.769,331.036 322.761,337.101 326.496,340.833 C330.229,344.568 336.292,344.56 340.038,340.814 C343.782,337.068 343.792,331.007 340.057,327.271 C336.323,323.537 330.26,323.547 326.514,327.292" id="Fill-33" fill="#1F572E" sketch:type="MSShapeGroup" mask="url(#mask-8)"></path>
                            <path d="M374.253,244.747 C372.875,249.857 375.901,255.105 381.006,256.466 C386.114,257.826 391.369,254.787 392.745,249.676 C394.124,244.567 391.098,239.319 385.991,237.957 C380.885,236.596 375.628,239.636 374.253,244.747" id="Fill-34" fill="#1F572E" sketch:type="MSShapeGroup" mask="url(#mask-8)"></path>
                            <path d="M374.393,149.511 C375.753,154.618 381,157.642 386.112,156.266 C391.221,154.89 394.26,149.634 392.899,144.528 C391.538,139.422 386.292,136.397 381.18,137.773 C376.069,139.15 373.03,144.405 374.393,149.511" id="Fill-35" fill="#1F572E" sketch:type="MSShapeGroup" mask="url(#mask-8)"></path>
                            <path d="M326.895,67.105 C330.628,70.84 336.692,70.831 340.438,67.086 C344.183,63.341 344.191,57.278 340.458,53.543 C336.723,49.809 330.66,49.817 326.915,53.562 C323.17,57.308 323.161,63.372 326.895,67.105" id="Fill-36" fill="#1F572E" sketch:type="MSShapeGroup" mask="url(#mask-8)"></path>
                            <path d="M244.488,19.609 C249.595,20.97 254.85,17.931 256.228,12.82 C257.603,7.71 254.579,2.463 249.471,1.102 C244.366,-0.261 239.11,2.779 237.735,7.89 C236.358,13 239.382,18.248 244.488,19.609" id="Fill-37" fill="#1F572E" sketch:type="MSShapeGroup" mask="url(#mask-8)"></path>
                            <path d="M149.253,19.748 C154.365,18.372 157.404,13.116 156.042,8.009 C154.68,2.902 149.435,-0.121 144.324,1.255 C139.213,2.631 136.174,7.886 137.536,12.994 C138.896,18.101 144.144,21.125 149.253,19.748" id="Fill-38" fill="#1F572E" sketch:type="MSShapeGroup" mask="url(#mask-8)"></path>
                        </g>
                        <path d="M105.93,106.706 C112.606,100.032 112.621,89.225 105.965,82.57 C99.311,75.914 88.503,75.929 81.828,82.605 C75.152,89.28 75.137,100.087 81.794,106.742 C88.449,113.398 99.255,113.382 105.93,106.706" id="Fill-40" fill="#1F572E" sketch:type="MSShapeGroup"></path>
                        <path d="M72.738,230.58 C70.295,221.463 60.945,216.045 51.852,218.481 C42.76,220.917 37.372,230.283 39.815,239.401 C42.257,248.522 51.608,253.937 60.7,251.5 C69.791,249.066 75.181,239.698 72.738,230.58" id="Fill-41" fill="#1F572E" sketch:type="MSShapeGroup"></path>
                        <path d="M163.419,321.262 C154.302,318.82 144.935,324.209 142.499,333.3 C140.063,342.392 145.479,351.743 154.599,354.188 C163.717,356.628 173.083,351.24 175.519,342.149 C177.955,333.057 172.539,323.704 163.419,321.262" id="Fill-42" fill="#1F572E" sketch:type="MSShapeGroup"></path>
                        <path d="M287.294,288.07 C280.619,294.745 280.603,305.553 287.259,312.209 C293.914,318.862 304.721,318.848 311.396,312.174 C318.072,305.497 318.086,294.69 311.431,288.035 C304.775,281.379 293.969,281.397 287.294,288.07" id="Fill-43" fill="#1F572E" sketch:type="MSShapeGroup"></path>
                        <path d="M320.486,164.196 C322.928,173.315 332.279,178.732 341.371,176.296 C350.464,173.859 355.852,164.493 353.41,155.375 C350.965,146.256 341.616,140.839 332.523,143.276 C323.431,145.712 318.042,155.079 320.486,164.196" id="Fill-44" fill="#1F572E" sketch:type="MSShapeGroup"></path>
                        <path d="M229.804,73.514 C238.922,75.958 248.29,70.568 250.724,61.476 C253.161,52.385 247.746,43.034 238.625,40.591 C229.507,38.148 220.141,43.537 217.705,52.63 C215.269,61.721 220.687,71.072 229.804,73.514" id="Fill-45" fill="#1F572E" sketch:type="MSShapeGroup"></path>
                    </g>
                </g>
                <path d="M458,1220.25 L458,1120 L561.046,1120 C561.046,1120 732.788,1120 732.788,1287.083 L732.788,1353.916 C732.788,1353.916 670.368,1345.51 568.936,1239.238 C568.936,1239.238 618.189,1353.101 732.788,1387.333 L629.743,1387.333 C629.743,1387.333 458,1387.333 458,1220.25" id="symbol4" fill="#1F572E" sketch:type="MSShapeGroup" mask="url(#mask-2)"></path>
                <g id="symbol3" mask="url(#mask-2)">
                    <g transform="translate(791.000000, 742.456000)">
                        <g id="Group-4" stroke-width="1" fill="none" sketch:type="MSLayerGroup">
                            <path d="M217.257,130.346 L217.257,77.828 L164.738,77.828 C164.738,77.828 77.207,77.828 77.207,165.36 L77.207,200.372 C77.207,200.372 155.986,174.114 199.751,95.333 C199.751,95.333 199.751,165.36 77.207,217.879 L129.726,217.879 C129.726,217.879 217.257,217.879 217.257,130.346" id="Fill-1" fill="#1F572E" sketch:type="MSShapeGroup"></path>
                            <path d="M294.464,147.851 C294.464,66.539 228.546,0.62 147.232,0.62 C65.919,0.62 0,66.539 0,147.851 C0,229.166 65.919,295.084 147.232,295.084 C228.546,295.084 294.464,229.166 294.464,147.851 M268.615,140.45 C268.623,140.584 268.646,140.715 268.652,140.849 L268.634,140.849 C268.767,143.18 268.988,145.488 268.988,147.851 C268.988,150.094 268.773,152.28 268.652,154.492 L268.681,154.492 C268.669,154.706 268.634,154.912 268.621,155.127 C264.839,218.965 212.021,269.607 147.232,269.607 C82.449,269.607 29.634,218.973 25.845,155.141 C25.832,154.923 25.796,154.711 25.783,154.492 L25.812,154.492 C25.693,152.28 25.477,150.094 25.477,147.851 C25.477,145.488 25.697,143.18 25.83,140.849 L25.812,140.849 C25.818,140.715 25.842,140.585 25.85,140.451 C29.695,76.673 82.486,26.096 147.232,26.096 C211.978,26.096 264.771,76.672 268.615,140.45" id="Fill-3" fill="#1F572E" sketch:type="MSShapeGroup"></path>
                        </g>
                        <path d="M134.438,272.634 L160.027,272.634 L160.027,406 L134.438,406 L134.438,272.634 Z" id="Fill-5" fill="#1F572E" sketch:type="MSShapeGroup"></path>
                        <path d="M80.549,326.522 L213.916,326.522 L213.916,352.113 L80.549,352.113 L80.549,326.522 Z" id="Fill-6" fill="#1F572E" sketch:type="MSShapeGroup"></path>
                    </g>
                </g>
                <g id="symbol2" mask="url(#mask-2)">
                    <g transform="translate(130.000000, 589.000000)">
                        <g id="Group-3" stroke-width="1" fill="none" sketch:type="MSLayerGroup">
                            <mask id="mask-10" sketch:name="Clip 2" fill="white">
                                <use xlink:href="#path-9"></use>
                            </mask>
                            <g id="Clip-2"></g>
                            <path d="M299.176,150.412 C299.176,67.798 232.203,0.824 149.588,0.824 C66.973,0.824 0,67.798 0,150.412 C0,233.027 66.973,299.999 149.588,299.999 C232.203,299.999 299.176,233.027 299.176,150.412 M272.912,142.891 C272.921,143.028 272.943,143.161 272.951,143.297 L272.933,143.297 C273.068,145.665 273.292,148.01 273.292,150.412 C273.292,152.69 273.072,154.911 272.951,157.158 L272.979,157.158 C272.967,157.375 272.932,157.586 272.919,157.803 C269.074,222.662 215.412,274.116 149.588,274.116 C83.768,274.116 30.107,222.671 26.258,157.817 C26.244,157.596 26.208,157.38 26.197,157.158 L26.225,157.158 C26.103,154.911 25.884,152.69 25.884,150.412 C25.884,148.01 26.109,145.665 26.242,143.297 L26.225,143.297 C26.232,143.161 26.255,143.029 26.264,142.892 C30.17,78.094 83.807,26.708 149.588,26.708 C215.369,26.708 269.006,78.093 272.912,142.891" id="Fill-1" fill="#1F572E" sketch:type="MSShapeGroup" mask="url(#mask-10)"></path>
                        </g>
                        <path d="M58.973,181.279 C65.631,187.452 73.377,191.568 81.729,193.142 L81.729,206.699 L96.256,206.699 L96.256,193.263 C108.48,190.843 118.285,181.4 118.285,168.569 C118.285,140.002 79.187,144.238 79.187,130.56 C79.187,124.024 86.088,121.361 92.261,121.361 C97.828,121.361 103.518,123.781 106.908,126.929 L115.381,114.824 C109.086,110.224 102.791,107.924 96.256,107.198 L96.256,94.125 L81.729,94.125 L81.729,108.045 C71.32,110.95 62.847,118.94 62.847,130.681 C62.847,140.244 68.172,146.054 74.83,149.928 C86.209,156.585 101.945,157.917 101.945,168.811 C101.945,174.985 96.86,179.463 89.598,179.463 C81.851,179.463 74.467,175.47 69.625,170.143 L58.973,181.279 L58.973,181.279 Z M137.168,130.923 C138.863,125.234 142.979,121.361 148.668,121.361 C155.082,121.361 159.683,126.808 159.683,132.739 C159.683,137.097 157.867,141.939 151.33,149.322 L121.553,183.095 L121.553,192.779 L176.629,192.779 L176.629,178.253 L147.094,178.253 L165.129,157.312 C170.818,150.775 176.023,143.27 176.023,132.981 C176.023,117.729 163.436,106.835 148.91,106.835 C136.441,106.835 125.789,114.824 122.158,126.445 L137.168,130.923 L137.168,130.923 Z M183.311,183.095 C190.695,190.479 199.168,193.989 208.973,193.989 C226.041,193.989 240.203,181.4 240.203,164.696 C240.203,155.617 236.088,147.023 229.43,141.696 C223.498,136.855 216.235,135.281 209.699,135.281 C207.399,135.281 204.857,135.523 203.162,135.886 L204.494,122.571 L235.967,122.571 L235.967,108.045 L191.179,108.045 L185.731,152.954 L195.899,154.406 C199.531,151.38 204.252,149.807 208.367,149.807 C212.363,149.807 215.994,150.896 218.656,153.196 C221.925,155.98 223.861,160.096 223.861,164.696 C223.861,169.053 222.045,172.928 219.141,175.59 C216.356,178.132 212.726,179.463 208.973,179.463 C203.283,179.463 198.078,176.558 194.447,172.685 L183.311,183.095 L183.311,183.095 Z" id="Fill-4" fill="#1F572E" sketch:type="MSShapeGroup"></path>
                    </g>
                </g>
                <g id="symbol1" mask="url(#mask-2)">
                    <g transform="translate(455.000000, 143.000000)">
                        <g id="Group-3" stroke-width="1" fill="none" sketch:type="MSLayerGroup">
                            <mask id="mask-12" sketch:name="Clip 2" fill="white">
                                <use xlink:href="#path-11"></use>
                            </mask>
                            <g id="Clip-2"></g>
                            <path d="M201.5,-0.001 L182.781,18.718 C182.781,18.718 151.584,49.915 182.782,81.113 L201.501,99.832 L220.219,81.114 C220.219,81.114 251.417,49.916 220.219,18.718 L207.74,6.239" id="Fill-1" fill="#1F572E" sketch:type="MSShapeGroup" mask="url(#mask-12)"></path>
                        </g>
                        <path d="M100.75,26.996 L93.898,52.566 C93.898,52.566 82.479,95.183 125.096,106.602 L150.667,113.454 L157.519,87.883 C157.519,87.883 168.938,45.267 126.32,33.848 L109.273,29.28" id="Fill-4" fill="#1F572E" sketch:type="MSShapeGroup"></path>
                        <path d="M26.997,100.75 L33.849,126.32 C33.849,126.32 45.268,168.937 87.885,157.518 L113.454,150.666 L106.602,125.096 C106.602,125.096 95.184,82.479 52.567,93.898 L35.519,98.466" id="Fill-5" fill="#1F572E" sketch:type="MSShapeGroup"></path>
                        <path d="M0,201.499 L18.719,220.218 C18.719,220.218 49.916,251.415 81.114,220.217 L99.833,201.5 L81.114,182.781 C81.114,182.781 49.916,151.583 18.719,182.78 L6.24,195.259" id="Fill-6" fill="#1F572E" sketch:type="MSShapeGroup"></path>
                        <path d="M26.996,302.249 L52.566,309.101 C52.566,309.101 95.183,320.52 106.602,277.903 L113.453,252.333 L87.883,245.48 C87.883,245.48 45.267,234.063 33.847,276.68 L29.28,293.726" id="Fill-7" fill="#1F572E" sketch:type="MSShapeGroup"></path>
                        <g id="Group-11" stroke-width="1" fill="none" sketch:type="MSLayerGroup">
                            <mask id="mask-14" sketch:name="Clip 9" fill="white">
                                <use xlink:href="#path-13"></use>
                            </mask>
                            <g id="Clip-9"></g>
                            <path d="M100.75,376.004 L126.32,369.152 C126.32,369.152 168.937,357.732 157.518,315.117 L150.666,289.547 L125.096,296.398 C125.096,296.398 82.479,307.817 93.898,350.434 L98.466,367.48" id="Fill-8" fill="#1F572E" sketch:type="MSShapeGroup" mask="url(#mask-14)"></path>
                            <path d="M201.5,403 L220.219,384.281 C220.219,384.281 251.416,353.084 220.219,321.887 L201.5,303.168 L182.781,321.887 C182.781,321.887 151.584,353.084 182.781,384.281 L195.261,396.761" id="Fill-10" fill="#1F572E" sketch:type="MSShapeGroup" mask="url(#mask-14)"></path>
                        </g>
                        <path d="M302.25,376.005 L309.102,350.435 C309.102,350.435 320.521,307.817 277.904,296.398 L252.334,289.547 L245.482,315.116 C245.482,315.116 234.063,357.733 276.68,369.152 L293.727,373.721" id="Fill-12" fill="#1F572E" sketch:type="MSShapeGroup"></path>
                        <g id="Group-16" stroke-width="1" fill="none" sketch:type="MSLayerGroup">
                            <mask id="mask-16" sketch:name="Clip 14" fill="white">
                                <use xlink:href="#path-15"></use>
                            </mask>
                            <g id="Clip-14"></g>
                            <path d="M376.003,302.25 L369.15,276.68 C369.15,276.68 357.732,234.063 315.115,245.482 L289.547,252.334 L296.398,277.904 C296.398,277.904 307.816,320.521 350.434,309.101 L367.48,304.534" id="Fill-13" fill="#1F572E" sketch:type="MSShapeGroup" mask="url(#mask-16)"></path>
                            <path d="M403,201.5 L384.281,182.781 C384.281,182.781 353.084,151.584 321.886,182.782 L303.168,201.5 L321.887,220.219 C321.887,220.219 353.084,251.416 384.281,220.219 L396.76,207.74" id="Fill-15" fill="#1F572E" sketch:type="MSShapeGroup" mask="url(#mask-16)"></path>
                        </g>
                        <path d="M376.004,100.75 L350.434,93.898 C350.434,93.898 307.817,82.48 296.398,125.096 L289.547,150.667 L315.117,157.519 C315.117,157.519 357.733,168.938 369.152,126.32 L373.721,109.273" id="Fill-17" fill="#1F572E" sketch:type="MSShapeGroup"></path>
                        <path d="M302.25,26.995 L276.68,33.847 C276.68,33.847 234.063,45.266 245.482,87.883 L252.334,113.453 L277.904,106.601 C277.904,106.601 320.521,95.183 309.102,52.566 L304.534,35.518" id="Fill-18" fill="#1F572E" sketch:type="MSShapeGroup"></path>
                    </g>
                </g>
            </g>
        </g>
    </g>
</svg>