<svg xmlns="http://www.w3.org/2000/svg" height="480" width="640"><g fill-rule="evenodd" stroke-width="1pt"><path fill="#0000bd" d="M0 0h214.4v479.98H0z"/><path fill="#cc1900" d="M425.6 0H640v479.98H425.6z"/><path fill="#fff600" d="M214.4 0h211.2v479.98H214.4z"/></g><g stroke-width="1pt"><path d="M398.54 290.22c47.82.82 44.52-29.15 61.97-32.13 17.47-2.98 33.94 12.48 33.32 29.97 1.87 20.8-29.72 20.96-31.64 38.3-1.92 17.33 15.38 22.62 33.3 19.98s30.65-20.37 39.8-28.7c-13.32 7.5-24.2 4.8-25.2-8.55.67-17.5 18.1-23.85 26.34-17.96 6.48-5.3 6.1-7.42 13.2-6.25 4.84 2.94 6.15 2.85 9 7.4 3.72-2.34 5.28-3.53 12.2-.6 4.32 1.78 7.2 4.97 9.85 9.82 3.15-2.48 8.1-3.4 13.76-.2 3.6 1.84 8.1 7.2 8.72 13 8.45 1.7 11.38 3.65 14.04 7.95 15.75 21.78-2.45 58.48-1.44 77.2 1 18.74 16.65 20 16.65 20-14.7-9.43-.2-15.9 6.75-16.56 22.25 2.3 18.5 35.14-5.18 29.37-18.98-5.18 38.92 3.28 37.53 62.64-1.4 61.03-32.82 49.02-32.82 49.02s26.84 10.1 21.65 30.1c-5.2 13.5-32.94 22.45-30.58-3.46-8.24 11.2-10.6 15.92-10.58 32.92-1.15 21.7.65 31.63 6.84 42.3 1.5-9.93 8.22-10.36 13.96-9.1 8.1.1 12.6 6.44 9.57 14.7 4.08-1.05 7.8 1.74 9.4 5.1 1.26 6.2 4.04 8.96-2.44 11.32 6.47 1.17 9.6 2.02 10.37 11.05.18 7.26-12.6 11.24-26.14 8.9 7.07 3.52 30 50 26.93 103.43-2.12 47.9-86.04 43.64-123.53 42.3-37.5-1.33-72.52.78-87.14 13.05 11.24 7.2-1.3 29.55-10.87 19.07 0 8.24-9.45 20.98-22.5 12.72.54 14.88-14.24 25.32-27.12 25.32s-27.64-10.44-27.1-25.32c-13.06 8.26-22.5-4.48-22.5-12.72-9.57 10.48-22.12-11.88-10.87-19.07-14.62-12.27-49.64-14.38-87.13-13.05-37.5 1.34-121.4 5.6-123.53-42.3-3.06-53.42 23.7-99.9 30.76-103.44-13.54 2.35-26.3-1.63-26.13-8.9.76-9.02 3.9-9.87 10.37-11.04-6.47-2.36-3.7-5.1-2.44-11.3 1.6-3.38 5.33-6.17 9.4-5.14-3.04-8.24 1.47-14.6 9.57-14.68 5.75-1.26 12.47-.83 13.95 9.1 6.2-10.67 8-20.6 6.85-42.3.02-17-2.34-21.73-10.58-32.9 2.35 25.9-25.4 16.94-30.58 3.43-5.2-19.97 21.64-30.08 21.64-30.08s-31.42 12-32.8-49c-1.4-59.36 56.5-67.82 37.5-62.64-23.67 5.77-27.42-27.08-5.17-29.37 6.96.66 21.48 7.14 6.76 16.56 0 0 15.65-1.25 16.65-19.98 1-18.73-17.2-55.43-1.42-77.2 2.65-4.3 5.58-6.26 14.03-7.96.63-5.8 5.12-11.16 8.73-13 5.68-3.2 10.62-2.28 13.77.2 2.66-4.84 5.53-8.04 9.84-9.8 6.93-2.95 8.48-1.76 12.2.6 2.86-4.56 4.17-4.48 9-7.43 7.12-1.18 6.73.94 13.2 6.24 8.25-5.9 25.68.46 26.35 17.96-1 13.34-11.9 16.05-25.22 8.56 9.16 8.32 21.88 26.04 39.8 28.7s35.23-2.66 33.3-20c-1.9-17.33-33.5-17.48-31.63-38.3-.62-17.48 15.85-32.94 33.3-29.97 17.47 2.97 14.16 32.94 62.2 32.12z" fill-rule="evenodd" transform="matrix(.55826 0 0 .52733 97.62 -66.24)" stroke="#000" fill="#cba323"/><path d="M356.44 346.62c-.57 17.96-31.26 14.83-51.5 13.86-26.34-1.23-77.6-46.08-44.28-69.9m-95.82 158.94c-16.48 17.66 28.7 13.5 9.42-9.42-7.87-8.82-41.2 18.84-41.2 49.45s10.6 44.74 16.47 45.92c5.9 1.18 15.3-3.53 15.3-8.24 0-5.9-4.7-15.3-11.76-14.13-11.78 0-5.9 10.6 0 10.6" transform="matrix(.55826 0 0 .52733 97.62 -66.24)" stroke="#000" fill="none"/><path d="M163.4 451.4s-24.46 9.9-24.46 39.33c0 29.44 7.06 28.26 7.06 28.26" transform="matrix(.55826 0 0 .52733 97.62 -66.24)" stroke="#000" fill="none"/><path d="M166.02 430.68s24.73-3.53 23.55 18.84c-1.18 22.37-9.42 23.55-22.37 22.37-12.95-1.2-5.9-16.5-5.9-16.5m-4.7 88.3s18.84-1.17 17.66-21.18c-1.18-20.02-15.3-21.2-23.55-20.02-8.23 1.18-10.73 5.8-8.23 12.88m8.24 51.88s3.95-8.16 16.9-8.16 18.98 30.4 17.8 63.36c-1.18 32.96-33.5 61.37-40.58 59-7.06-2.34-10.6-3.52-4.7-8.23m32.27-29.92l-22.87 38.18" transform="matrix(.55826 0 0 .52733 97.62 -66.24)" stroke="#000" fill="none"/><path d="M141.3 667.34c0 .42 5.04-1.1 8.58 1.25 3.53 2.34 4.36 5.8 4.36 5.8" transform="matrix(.55826 0 0 .52733 97.05 -66.08)" stroke="#000" fill="none"/><path d="M144.82 650.86s4.52-1.82 10.4.54 5.7 7.66 5.7 7.66" transform="matrix(.50893 0 0 .37764 106.63 31.67)" stroke="#000" fill="none"/><path d="M171.78 731.95c12.25 6.36 24.28-25.18.67-26.73-16.9-.7-29.08 23.27-26.73 35.04 6.43 40.07 10.45 66.87 50.57 72.05 30.6 2.37 78.44-5.1 108.3-1.5 29.43 3.42 61.93 14.26 73.7 26.03 11.78 11.78 19.1 11.9 19.1 23.67.02 11.78-16.8 17.82-23.46 10.74" transform="matrix(.55826 0 0 .52733 97.02 -65.1)" stroke="#000" fill="none"/><path d="M369.84 876.92c4.3-2.9 14.56-20.43 4.72-30.82-15.2-15.4-26.16-21.48-33.66-23.97m6.65 41.15c5.83-3.53 6.68-15.3.6-24.27-6.1-8.97-21.95-16.16-53.08-18.8-23.58-1.97-87.84 8.45-111.4 1.4-33.05-12.73-53.83-34.16-48.76-87.4 1.53-20.63 11.93-34.47 32.3-37.1 22.85-.15 28.8 14.72 28.8 33.56 0 9.68-25.32 18.88-29.9 9.7-7.12-12.85-10.23-24.44 15.87-30.6" transform="matrix(.55826 0 0 .52733 97.02 -65.1)" stroke="#000" fill="none"/><path d="M337.4 844.6s9.78 5.68 7.42 10.4c-2.35 4.7-8.66 2.7-4.5-2.3" transform="matrix(.55826 0 0 .52733 97.02 -65.1)" stroke="#000" fill="none"/><path d="M238.95 291.4s-6.66 6.66-3.33 22.48 10 15 10 15m-29.15-28.33c-.83 1.67-9.7 11.86-4.7 22.68 4.98 10.82 8.95 12.98 8.95 12.98M194 313.88s-7.2 10.62-8.58 29.55 7.8 45 7.54 54.7c-.58 20.6-24.02 30.84-24.02 30.84m-9.1 114.7c1.67 0 34.14-29.97 34.14 76.6-2.5 61.6-38.3 67.43-38.3 67.43" transform="matrix(.55826 0 0 .52733 97.62 -66.24)" stroke="#000" fill="none"/><path d="M162.5 689.7c13.14-3.33 40.42 11 30.6 35.33" transform="matrix(.55826 0 0 .52733 98.57 -64.97)" stroke="#000" fill="none"/><path d="M167.78 681.47c8.44.79 15.32 6.9 18.46 15.34" transform="matrix(.55826 0 0 .52733 97.44 -65.9)" stroke="#000" fill="none"/><path d="M148.2 477.06s10 14.15 24.98 14.15 19.98-15.8 19.98-15.8" transform="matrix(.55826 0 0 .52733 97.62 -66.24)" stroke="#000" fill="none"/><path d="M146.53 484.55s9.16 16.65 24.98 17.48c15.83.84 21.65-10.82 21.65-10.82m-13.3 18.32s11.65 5 11.65 19.15c0 14.15-10.83 10.82-10.83 10.82" transform="matrix(.55826 0 0 .52733 97.62 -66.24)" stroke="#000" fill="none"/><path d="M356.44 346.62c-.57 17.96-31.26 14.83-51.5 13.86-26.34-1.23-77.6-46.08-44.28-69.9m-95.82 158.94c-16.48 17.66 28.7 13.5 9.42-9.42-7.87-8.82-41.2 18.84-41.2 49.45s10.6 44.74 16.47 45.92c5.9 1.18 15.3-3.53 15.3-8.24 0-5.9-4.7-15.3-11.76-14.13-11.78 0-5.9 10.6 0 10.6" transform="matrix(-.55826 0 0 .52733 542.48 -66.24)" stroke="#000" fill="none"/><path d="M163.4 451.4s-24.46 9.9-24.46 39.33c0 29.44 7.06 28.26 7.06 28.26" transform="matrix(-.55826 0 0 .52733 542.48 -66.24)" stroke="#000" fill="none"/><path d="M166.02 430.68s24.73-3.53 23.55 18.84c-1.18 22.37-9.42 23.55-22.37 22.37-12.95-1.2-5.9-16.5-5.9-16.5m-4.7 88.3s18.84-1.17 17.66-21.18c-1.18-20.02-15.3-21.2-23.55-20.02-8.23 1.18-10.73 5.8-8.23 12.88m8.24 51.88s3.95-8.16 16.9-8.16 18.98 30.4 17.8 63.36c-1.18 32.96-33.5 61.37-40.58 59-7.06-2.34-10.6-3.52-4.7-8.23m32.27-29.92l-22.87 38.18" transform="matrix(-.55826 0 0 .52733 542.48 -66.24)" stroke="#000" fill="none"/><path d="M141.3 667.34c0 .42 5.04-1.1 8.58 1.25 3.53 2.34 4.36 5.8 4.36 5.8" transform="matrix(-.55826 0 0 .52733 543.06 -65.9)" stroke="#000" fill="none"/><path d="M144.82 650.86s4.52-1.82 10.4.54 5.7 7.66 5.7 7.66" transform="matrix(-.50893 0 0 .37764 533.48 31.67)" stroke="#000" fill="none"/><path d="M170.42 741.5c-2.35 0 15.45-19.88-.7-23.9-20.27-3.87-28.73 16.55-26.38 28.33 5.07 28.74 16.9 64.03 52.95 66.38 30.6 2.37 78.44-5.1 108.3-1.5 29.43 3.42 61.93 14.26 73.7 26.04 11.78 11.77 19.1 11.9 19.1 23.67 0 11.78-16.8 17.82-23.46 10.75" transform="matrix(-.55826 0 0 .52733 540.8 -65.1)" stroke="#000" fill="none"/><path d="M369.84 876.92c4.3-2.9 14.56-20.43 4.72-30.82-15.2-15.4-26.16-21.48-33.66-23.97m6.65 41.15c5.83-3.53 6.68-15.3.6-24.27-6.1-8.97-21.95-16.16-53.08-18.8-23.58-1.97-87.84 8.45-111.4 1.4-43.92-18.4-53.5-42.65-52.5-81.75 1.52-20.62 12.26-36.6 32.62-39.23 22.85-.14 26.77 11.9 26.77 30.75 0 9.68-9.02 25.7-21.34 23.36-12.32-3.2-21.92-25-1.1-36.67" transform="matrix(-.55826 0 0 .52733 540.8 -65.1)" stroke="#000" fill="none"/><path d="M337.4 844.6s9.78 5.68 7.42 10.4c-2.35 4.7-8.66 2.7-4.5-2.3" transform="matrix(-.55826 0 0 .52733 540.8 -65.1)" stroke="#000" fill="none"/><path d="M238.95 291.4s-6.66 6.66-3.33 22.48 10 15 10 15m-29.15-28.33c-.83 1.67-9.7 11.86-4.7 22.68 4.98 10.82 8.95 12.98 8.95 12.98M194 313.88s-7.2 10.62-8.58 29.55 7.8 45 7.54 54.7c-.58 20.6-24.02 30.84-24.02 30.84m-9.1 114.7c1.67 0 34.14-29.97 34.14 76.6-2.5 61.6-38.3 67.43-38.3 67.43" transform="matrix(-.55826 0 0 .52733 542.48 -66.24)" stroke="#000" fill="none"/><path d="M158.07 701.03c16.2-14.3 47.22 13.1 35.7 38.5" transform="matrix(-.55826 0 0 .52733 542.67 -68.7)" stroke="#000" fill="none"/><path d="M167.78 681.47c8.44.79 17.36 6.2 20.5 14.64" transform="matrix(-.55826 0 0 .52733 544.76 -64.6)" stroke="#000" fill="none"/><path d="M148.2 477.06s10 14.15 24.98 14.15 19.98-15.8 19.98-15.8" transform="matrix(-.55826 0 0 .52733 542.48 -66.24)" stroke="#000" fill="none"/><path d="M146.53 484.55s9.16 16.65 24.98 17.48c15.83.84 21.65-10.82 21.65-10.82m-13.3 18.32s11.65 5 11.65 19.15c0 14.15-10.83 10.82-10.83 10.82" transform="matrix(-.55826 0 0 .52733 542.48 -66.24)" stroke="#000" fill="none"/><path d="M353 313.46c.43-.42-1.66-9.16 8.34-8.74 10 .4 6.24 9.57 14.57 12.9 7.92 2.08 22.07 4.17 22.53 4.17s14.62-2.1 22.53-4.18c8.33-3.33 4.58-12.5 14.57-12.9 10-.42 7.9 8.32 8.33 8.74" transform="matrix(.55826 0 0 .52733 97.62 -66.24)" stroke="#000" fill="none"/><path d="M373.28 349.42c-.3-4.12-1.25-9.55-6.87-9.97-10.52-.34-18.85 20.6 4.45 20.76 17.06.12 17.2-32.35.8-32.82-23.54-.67-26.78 13.4-26.4 16.14 5.96-50.4-33.24-40.2-31.37-59.77.2-10.6 10.85-11.82 22.48-9.86 17.46 2.8 14.15 30.96 62.08 30.2 47.92.76 44.62-27.4 62.08-30.2 11.63-1.97 22.27-.76 22.48 9.85 1.87 19.56-37.33 9.37-31.38 59.77.4-2.76-2.85-16.8-26.4-16.15-16.4.48-16.25 32.95.8 32.83 23.3-.14 14.97-21.1 4.45-20.75-5.62.42-6.58 5.85-6.87 9.97" transform="matrix(.55826 0 0 .52733 97.62 -66.24)" stroke="#000" fill="none"/><path d="M409.35 355l.07.4-6.3 1.56-.05-.4.4-.1c.35-.08.6-.23.8-.43.14-.14.23-.34.27-.6.04-.2 0-.66-.13-1.4l-1.58-9.66c-.13-.75-.23-1.22-.33-1.4-.1-.16-.27-.3-.5-.38-.2-.1-.5-.1-.82-.03l-.4.1-.07-.4 6.3-1.55.06.4-.4.1c-.35.1-.62.23-.8.44-.14.14-.23.34-.28.6-.04.2 0 .66.13 1.4l1.6 9.66c.13.75.24 1.2.33 1.4.1.16.26.3.48.4.24.07.52.08.85 0l.4-.1zm-9.27-12.3l.43 4.02-.3.05c-.3-.9-.6-1.53-.86-1.9-.28-.36-.63-.64-1.07-.8-.24-.1-.64-.1-1.2-.02l-.9.14 1.2 11.46c.08.76.17 1.23.25 1.4.1.18.25.33.46.44.22.1.5.14.85.08l.4-.06.04.4-6.36 1-.04-.4.4-.06c.36-.05.64-.18.84-.36.14-.13.24-.32.3-.6.05-.18.04-.64-.04-1.4l-1.22-11.45-.88.14c-.8.12-1.4.42-1.7.9-.47.68-.7 1.58-.73 2.7l-.34.05-.44-4.02 10.92-1.74zm-45.18 6.15l.4 6.14.36-.05c.54-.05.97-.2 1.3-.43.33-.23.6-.6.8-1.08.2-.5.32-1.15.34-1.96l.32-.03.5 7.5-.32.04c-.2-1.42-.58-2.32-1.12-2.72-.54-.4-1.13-.57-1.77-.5l-.34.02.3 4.58c.05.76.1 1.23.2 1.42.08.18.22.34.43.46.2.12.48.17.82.13l.4-.05.04.4-6.4.64v-.42l.4-.04c.35-.03.62-.14.83-.3.14-.13.25-.32.32-.58.05-.18.05-.65 0-1.4l-.65-9.82c-.05-.76-.1-1.24-.2-1.42-.07-.2-.2-.34-.43-.46-.2-.13-.48-.18-.82-.14l-.4.04-.03-.4 10.3-1.02.28 4.28-.37.04c-.14-1-.4-1.73-.8-2.18-.37-.45-.9-.74-1.55-.87-.37-.07-1.04-.06-2 .04l-1.15.1zm-23.43.23v4.06h-.33c-.2-.94-.4-1.6-.64-2-.24-.42-.56-.75-.97-1-.23-.13-.63-.2-1.2-.2h-.9v11.57c0 .77.02 1.25.1 1.44.06.2.2.36.4.5.2.15.47.22.82.22h.4v.4h-6.4v-.4h.4c.36 0 .64-.08.86-.23.17-.1.3-.28.38-.53.07-.18.1-.64.1-1.4v-11.55h-.9c-.8 0-1.4.2-1.8.64-.5.58-.84 1.43-.98 2.54h-.34v-4.06h11zm-12.68 14.58v.4h-6.4v-.4h.4c.35 0 .63-.07.85-.23.16-.1.28-.28.36-.53.08-.17.1-.64.1-1.4v-9.85c0-.77-.02-1.25-.1-1.44-.05-.18-.2-.34-.4-.48-.2-.15-.46-.23-.8-.23h-.4v-.4h6.4v.4h-.4c-.37 0-.65.07-.87.23-.16.1-.28.28-.37.53-.07.17-.1.64-.1 1.4v9.85c0 .78.03 1.25.1 1.44.07.2.2.37.4.5.2.15.48.22.82.22h.4zm-16.12-14.58l6.05 9.3v-6.45c0-.9-.1-1.5-.32-1.82-.28-.42-.76-.62-1.44-.6v-.42H311v.4c-.5.1-.86.2-1.04.33-.18.14-.3.35-.42.64-.1.3-.14.8-.14 1.5v12.47h-.3l-8.3-12.47v9.53c0 .87.16 1.45.48 1.75.33.3.7.46 1.12.46h.3v.4h-4.36v-.4c.67 0 1.14-.18 1.4-.5.27-.34.4-.9.4-1.7V350.9l-.26-.4c-.26-.4-.48-.67-.68-.8-.2-.12-.5-.2-.86-.2v-.4h4.35zm-5.1-.98v.4c-.46.07-.87.34-1.23.82-.27.36-.67 1.2-1.22 2.54l-4.6 11.23-.3-.03-3.8-12.1c-.46-1.47-.77-2.33-.93-2.6-.16-.25-.48-.42-.95-.52v-.4l5.88.3v.4h-.2c-.54-.04-.9.03-1.1.18-.15.1-.22.26-.23.47 0 .14 0 .3.06.48.04.18.18.67.44 1.47l2.36 7.6 2.64-6.53c.32-.8.5-1.3.6-1.58.06-.27.1-.5.1-.7.02-.2-.02-.4-.12-.6-.1-.16-.22-.3-.4-.4-.26-.13-.6-.2-1.03-.23v-.4l4.03.2zm-21.62-1.88l-.15 5-.36-.03c-.1-1.28-.5-2.3-1.14-3.12-.64-.8-1.36-1.25-2.15-1.3-.62-.05-1.1.12-1.5.5-.37.37-.57.8-.6 1.33 0 .34.04.64.15.9.16.37.42.73.8 1.1.26.26.9.74 1.9 1.43 1.38.97 2.3 1.85 2.76 2.65.46.8.66 1.7.62 2.68-.06 1.25-.52 2.3-1.36 3.15-.84.85-1.87 1.22-3.1 1.13-.38-.03-.75-.1-1.08-.22-.34-.1-.76-.32-1.27-.63-.28-.16-.5-.25-.7-.27-.16 0-.32.05-.5.2-.2.12-.34.33-.46.63l-.33-.03.28-5.65.33.03c.2 1.6.64 2.86 1.35 3.75.72.9 1.5 1.36 2.38 1.43.7.05 1.23-.14 1.65-.56.43-.42.65-.93.68-1.52.02-.36-.04-.7-.18-1.05-.13-.34-.35-.67-.65-1-.3-.3-.83-.74-1.6-1.28-1.08-.75-1.85-1.38-2.32-1.88-.46-.5-.8-1.06-1.05-1.66-.23-.6-.33-1.24-.3-1.94.06-1.2.47-2.18 1.23-2.97s1.68-1.15 2.76-1.07c.4.03.78.12 1.15.26.28.1.6.3 1 .56.4.27.68.4.84.42.17 0 .3-.04.4-.15.1-.1.2-.4.3-.83l.26.02zm-8.38-.5l-.04.42c-.45.02-.87.26-1.27.7-.28.33-.74 1.13-1.36 2.42l-5.27 10.77-.3-.04-3.05-12.44c-.36-1.5-.62-2.4-.77-2.66-.13-.27-.44-.47-.9-.6l.03-.4 5.84.82-.04.4-.2-.02c-.52-.08-.9-.05-1.1.08-.15.1-.23.25-.25.46 0 .13 0 .3.03.48l.35 1.5 1.9 7.8 3.03-6.27c.36-.76.6-1.26.68-1.53.1-.26.15-.48.17-.67.02-.22 0-.42-.1-.6-.07-.2-.2-.34-.38-.45-.24-.16-.58-.27-1-.33l.04-.4 3.98.56zm-13.93-1.23l-.47 4-.32-.05c-.08-.96-.22-1.66-.4-2.1-.2-.45-.47-.83-.84-1.14-.2-.16-.6-.3-1.17-.4l-.9-.16-1.36 11.44c-.1.76-.13 1.24-.08 1.44.05.2.16.4.34.57.2.17.45.28.8.35l.4.07-.05.4-6.34-1.12.05-.4.4.06c.36.07.66.04.9-.08.16-.07.3-.22.42-.46.08-.16.17-.6.26-1.36l1.36-11.44-.88-.15c-.82-.15-1.44-.04-1.86.32-.6.48-1 1.27-1.28 2.34l-.34-.06.48-4.02 10.9 1.93zm-29.1 9.4l-.1.4-6.2-1.85.07-.4.4.12c.34.1.63.1.87.02.16-.06.3-.2.44-.42.1-.15.22-.6.37-1.32l1.9-9.6c.15-.73.2-1.2.2-1.4-.04-.2-.14-.4-.3-.6-.18-.2-.43-.36-.76-.46l-.4-.12.08-.4 6.23 1.85-.08.4-.4-.12c-.34-.1-.63-.1-.87 0-.17.04-.33.18-.46.4-.1.15-.22.6-.37 1.32l-1.9 9.6c-.14.73-.2 1.2-.18 1.4.03.22.13.42.3.62.16.2.42.34.75.44l.4.12zm-4.43-15.66l-.1.4c-.44-.06-.88.1-1.32.47-.33.3-.87 1-1.64 2.17l-6.46 9.76-.3-.1-1.58-12.83c-.2-1.55-.34-2.47-.46-2.76-.1-.3-.4-.55-.83-.76l.08-.4 5.7 1.83-.1.4-.2-.06c-.5-.16-.87-.2-1.1-.1-.14.07-.24.2-.3.4-.02.13-.02.3-.02.5 0 .17.07.7.17 1.54l.98 8.03 3.72-5.66c.45-.7.73-1.15.85-1.4.12-.24.2-.46.24-.64.05-.2.04-.42 0-.6-.07-.2-.18-.37-.34-.52-.23-.2-.55-.37-.96-.5l.08-.4 3.9 1.26zm194.84 1.2c1.93-.4 3.57.03 4.94 1.3 1.37 1.3 2.17 3.03 2.4 5.23.2 1.9-.08 3.62-.83 5.2-1 2.08-2.58 3.3-4.76 3.65-2.17.34-3.96-.3-5.35-1.92-1.1-1.28-1.75-2.9-1.96-4.87-.24-2.2.18-4.14 1.25-5.8 1.07-1.67 2.5-2.6 4.3-2.8zm.18.67c-1.1.2-1.88 1-2.3 2.5-.36 1.2-.43 2.88-.2 5.02.27 2.53.83 4.35 1.7 5.45.6.76 1.34 1.07 2.26.93.6-.1 1.1-.36 1.48-.8.48-.54.8-1.35 1-2.42.18-1.08.18-2.44 0-4.1-.2-1.96-.5-3.4-.9-4.33-.4-.93-.87-1.56-1.38-1.9-.5-.32-1.05-.44-1.66-.34zm-46.98 6.36c1.94-.28 3.56.26 4.88 1.62 1.3 1.35 2.04 3.14 2.2 5.36.12 1.9-.23 3.6-1.04 5.13-1.08 2.03-2.7 3.15-4.9 3.37-2.2.22-3.96-.52-5.28-2.23-1.04-1.33-1.63-3-1.76-4.97-.15-2.22.34-4.13 1.48-5.72 1.14-1.6 2.6-2.45 4.42-2.54zm.15.7c-1.1.1-1.9.9-2.4 2.34-.4 1.2-.53 2.86-.38 5 .16 2.56.66 4.4 1.47 5.55.55.8 1.3 1.16 2.22 1.07.62-.06 1.12-.3 1.5-.7.5-.53.87-1.32 1.1-2.37.22-1.07.28-2.43.17-4.1-.14-1.97-.4-3.43-.75-4.38-.37-.95-.8-1.6-1.3-1.96-.48-.35-1.03-.5-1.64-.44zm12.7 6.1l.43 4.16c.1.8.18 1.3.28 1.5.12.2.28.34.5.43.2.1.6.1 1.15 0l.05.42-6.22.98-.05-.4c.56-.1.94-.2 1.12-.37.2-.16.3-.35.37-.57.06-.2.05-.72-.04-1.52l-1.02-9.65c-.1-.8-.18-1.3-.3-1.5-.1-.2-.24-.34-.46-.43s-.6-.1-1.16 0l-.04-.4 5.64-.9c1.47-.23 2.56-.28 3.27-.14.72.14 1.32.5 1.83 1.1.5.6.8 1.36.9 2.26.1 1.1-.12 2.05-.7 2.87-.36.5-.9.94-1.6 1.28l3.44 4.57c.45.6.77.95.95 1.1.27.18.56.26.9.23l.03.4-3.83.6-4.63-6.14-.8.12zm-.78-7.3l.7 6.52.5-.08c.83-.13 1.44-.32 1.83-.57.4-.26.68-.64.87-1.16.18-.53.24-1.18.15-1.97-.12-1.13-.42-1.93-.92-2.4s-1.2-.64-2.17-.48l-.96.15zm47.28-.87l.86 4.06c.16.79.3 1.27.42 1.45.13.2.3.3.52.36.23.06.6 0 1.15-.16l.1.4-6.1 1.9-.07-.4c.55-.17.9-.34 1.07-.52.17-.2.27-.4.3-.63.05-.22 0-.73-.18-1.5l-1.98-9.43c-.17-.8-.32-1.27-.44-1.44-.12-.18-.3-.3-.52-.36s-.6 0-1.15.16l-.1-.4 5.53-1.72c1.43-.46 2.5-.66 3.22-.63.72.03 1.36.3 1.9.83.57.52.94 1.22 1.13 2.1.22 1.07.1 2.05-.4 2.95-.3.58-.8 1.1-1.47 1.54l3.9 4c.5.53.85.84 1.04.95.3.14.6.17.9.1l.1.4-3.74 1.16-5.22-5.4-.78.24zm-1.5-7.13l1.34 6.36.5-.15c.8-.26 1.4-.54 1.76-.84.37-.32.6-.74.74-1.3.14-.54.12-1.2-.04-1.96-.23-1.1-.62-1.85-1.15-2.25-.53-.4-1.27-.45-2.2-.15l-.94.3zm-192.6 10.95l-.53 4.15c-.1.8-.12 1.32-.07 1.54.06.23.18.42.37.6.18.15.55.28 1.1.38l-.04.4-6.2-1.15.05-.4c.56.1.94.1 1.16.02.22-.1.38-.23.48-.42.1-.2.2-.7.3-1.5l1.2-9.6c.1-.8.13-1.3.07-1.53-.06-.23-.18-.42-.36-.6-.2-.15-.56-.28-1.12-.38l.05-.4 5.63 1.04c1.47.28 2.53.6 3.17.97s1.15.94 1.5 1.7c.34.73.46 1.55.35 2.45-.14 1.1-.57 1.93-1.3 2.53-.47.38-1.1.6-1.86.7l2.3 5.56c.3.72.5 1.18.65 1.37.23.27.5.44.8.52l-.04.4-3.8-.7-3.08-7.48-.8-.15zm.9-7.26l-.8 6.5.5.08c.83.16 1.46.18 1.9.08.42-.12.8-.4 1.08-.83.3-.45.5-1.06.6-1.84.14-1.13.02-2-.34-2.63-.37-.62-1.03-1.02-1.98-1.2l-.96-.17zm105.06 18.08l-4.33.22-.46 1.5c-.15.48-.22.9-.2 1.2 0 .42.15.72.43.9.17.12.57.2 1.2.2l.03.42-4.07.2-.02-.4c.44-.1.8-.34 1.06-.72.27-.38.6-1.15.97-2.32l3.97-12.17h.17l4.85 12.04c.46 1.16.83 1.87 1.12 2.16.2.22.5.34.88.35v.42l-5.9.3-.03-.4.24-.02c.48-.02.8-.12 1-.3.13-.1.2-.3.18-.5 0-.14-.03-.28-.07-.4 0-.08-.1-.35-.3-.83l-.71-1.83zm-.34-.8l-2-5.07-1.7 5.26 3.7-.2z"/></g><g fill-rule="evenodd"><path fill="#fff600" d="M325.1 227.12H424v93.42h-98.9z"/><path fill="#cc1900" d="M339.23 133.7h14.13v93.42h-14.13zm28.26 0h14.12v93.42H367.5zm28.25 0h14.13v93.42h-14.13z"/><path fill="#fff600" d="M325.1 133.7h14.13v93.42H325.1zm28.26 0h14.13v93.42h-14.14zm28.26 0h14.13v93.42h-14.13zm28.26 0H424v93.42H409.9z"/><path fill="#cc1900" d="M249.27 236.46h11v84.08h-11zm21.98 0h11v84.08h-11zm21.98 0h11v84.08h-11z"/><path fill="#fff600" d="M238.3 236.46h10.98v84.08h-11zm21.97 0h11v84.08h-11zm21.98 0h11v84.08h-11zm21.97 0h11v84.08h-11z"/><path fill="#cc1900" d="M227.3 236.46h10.98v84.08h-11z"/><path fill="#fff600" d="M216.3 236.46h11v84.08h-11z"/><path fill="#cc1900" d="M216.3 133.7h98.92v93.42h-98.9z"/><path d="M306.44 161.15c2.02-.55 2.32-3.25 2.63-5.47.62-4.44-3.15-8.58-8.4-9.24s-10 2-10.6 6.44l-4.1 1.56 5.7.7-6.16 2.52 7.64.95-61.47 51.36 3.36 3.7 61.48-51.35c1.63-1.34.46-3.2-1.34-4.74-2.1-1.8-1.57-2.17-1.3-4.15.4-2.9 3.2-4.13 6.35-3.74s5.43 2.88 5.06 5.55c-.2 1.34-.74 2.9-2.16 3.22-2.33 1.15 1.03 4.84 3.34 2.73z" fill="#fff600"/><path d="M194.88 361.42v336.6c0 35.44 16.98 53.16 50.93 53.16h118.86c33.96 0 33.96 35.43 33.96 35.43s0-35.42 33.96-35.42h118.85c33.96 0 50.93-17.72 50.93-53.15v-336.6H194.88zm17.72 17.72V556.3h177.17V379.14H212.6zm194.88 0V556.3h177.17V379.14H407.48zM212.6 574.02v106.3c0 35.43 16.97 53.15 50.93 53.15h126.23V574.02H212.6zm372.05 0v106.3c0 35.43-16.98 53.15-50.94 53.15H407.5V574.02h177.16z" stroke="#000" stroke-width="1pt" fill="#cba323" transform="matrix(.55826 0 0 .52733 97.62 -66.24)"/><path d="M265.76 143.03l-19.78 20.02 6.08 36.04h27.4l6.08-36.05-19.78-20.02z" fill="#fff"/><path d="M264.24 150.5l-15.22 14.95 6.1 29.9h9.12V150.5zm3.04 0v44.85h9.13l6.1-29.9-15.22-14.95z" fill="#fff600"/><path d="M270.7 199.1h-4.94s2.47 7.73 4.95 7.73c9.9 0 29.73-11.3 29.68-7.74 0 7.73-4.95 3.86-4.95 7.73s9.9 0 9.9-3.87 0-7.74-4.95-7.74-19.33 7.8-24.73 7.74c-4.94 0-4.94-3.87-4.94-3.87zm-9.9 0h4.96s-2.47 7.73-4.95 7.73c-9.88 0-29.7-11.3-29.66-7.74 0 7.73 4.95 3.86 4.95 7.73s-9.9 0-9.9-3.87 0-7.74 4.94-7.74c4.95 0 19.33 7.8 24.73 7.74 4.94 0 4.94-3.87 4.94-3.87z" fill="#fffbff"/><path d="M70.87 574.02c0 35.43 28.7 36.67 17.7 53.15l-35.42 53.15H35.43l17.72-53.15c5.9-17.72 17.72-65.37 17.72-53.15z" transform="matrix(.2077 .03556 -.04452 .16587 400.28 156.02)" stroke="#fff600" stroke-width="5" fill="#cc1900"/><path d="M35.43 423.42c0 3.67 2.25 31.9 0 35.07-2.24 3.17-8.97-18.7-12.97-16.3-4 2.4-7.6 24.17-12.9 25.5-5.3 1.36-12.3-17.7-18.42-17.7-6.1 0-11.93 19.06-17.23 17.72-5.3-1.35-10.06-23.1-14.07-25.5-4-2.4-10.74 19.45-12.98 16.27-2.24-3.2 0-31.4 0-35.07 0-14.67 19.84-26.58 44.3-26.58s44.28 11.9 44.28 26.58z" transform="matrix(.1662 0 0 .085 390.1 224.1)" stroke="#fff600" stroke-width="7.99" fill="#cc1900"/><path d="M354.02 239.22c2.18 1 2 2.68 1.26 3-.74.34-1.77-.8-3.95-1.8s-4.7-1.5-3.95-1.83 4.46-.4 6.64.62z" fill="#008d00"/><path d="M-70.87 414.57v53.15h53.15V450h-35.43v-35.43h-17.71z" transform="matrix(.1136 .1434 -.1795 .0907 443 228.56)" stroke="#fff600" stroke-width="5" fill="#cc1900"/><path d="M70.87 574.02c0 35.43 28.7 36.67 17.7 53.15l-35.42 53.15H35.43l17.72-53.15c5.9-17.72-17.72-35.43-70.87 0-12.22 0-70.86-8.96-70.86 0v53.15h-17.72v-53.15c0-6.94-35.43-53.15-35.43-70.87 0-12.22-53.15 0-53.15-17.7 0-8.87 35.43-17.73 35.43-35.45 0-17.7 35.43 0 53.15 0 0 17.72-17.72 35.44 17.72 35.44 24.45 0 177.17 0 177.17 17.7 0 17.72-17.73 5.5-17.73 17.72z" stroke="#fff600" stroke-width="5" fill="#cc1900" transform="matrix(.2124 0 0 .1696 384.88 156.03)"/><path d="M363.55 271.44c2.05 0 2.78 1.5 2.43 2.1-.35.57-1.66 0-3.7 0s-4.05.6-3.7.03 2.93-2.12 4.97-2.13zm30.1 0c2.05 0 2.8 1.5 2.43 2.1-.35.57-1.65 0-3.7 0s-4.05.6-3.7.03 2.93-2.12 4.98-2.13zm-34.85-4.2c1.65-.95 3.36-.06 3.5.58.13.64-1.35.78-3 1.73s-2.87 2.37-3 1.73.84-3.08 2.5-4.04zm20.22 1.7c2.04-.04 2.82 1.46 2.5 2.05-.34.58-1.66.03-3.7.1s-4.04.68-3.7.1 2.85-2.2 4.9-2.25zm-25.68-17.92l8.96-5.48 2.3 2.38-8.97 5.5z" fill="#008d00"/><path d="M357.06 254.9c0 .84-.5 1.5-1.14 1.5s-1.15-.66-1.15-1.5.52-1.5 1.15-1.5 1.14.68 1.14 1.5z" fill="#008d00"/><path d="M48 681.85c34.08.02 34.08 12.9 19.83 12.9C48 694.75 0 699.13 0 698.03s-16.48-14.2-16.48-14.2c-1.24-3.52 1.17 14.13-1.24 14.2-2.4.08-16.43-15.38-16.43-15.38s1.3 15.23 0 15.3c-1.28.08-17.66-9.4-17.66-9.4l-1.18 8.23-15.3 9.42 15.3 10.6v8.24l15.3-8.24 1.18 15.3 18.84-15.3s4.76 16.3 2.35 16.48c-2.42.18 16.48-16.48 16.48-16.48-1.18-1.05 54.05 0 87.4-1.05 33.36-1.05 32.75-51.94 17.72-53.15-15.03-1.22-58.3 3.33-58.3-.2" transform="matrix(.1104 0 0 .1268 390.87 165.34)" stroke="#fff600" stroke-width="5.05" fill="#cc1900"/><path d="M70.87 574.02c0 35.43 28.7 36.67 17.7 53.15l-35.42 53.15H35.43l17.72-53.15c5.9-17.72 17.72-65.37 17.72-53.15z" transform="matrix(.2077 .0356 -.0445 .166 400.28 193.4)" stroke="#fff600" stroke-width="5" fill="#cc1900"/><path d="M35.43 423.42c0 3.67 2.25 31.9 0 35.07-2.24 3.17-8.97-18.7-12.97-16.3-4 2.4-7.6 24.17-12.9 25.5-5.3 1.36-12.3-17.7-18.42-17.7-6.1 0-11.93 19.06-17.23 17.72-5.3-1.35-10.06-23.1-14.07-25.5-4-2.4-10.74 19.45-12.98 16.27-2.24-3.2 0-31.4 0-35.07 0-14.67 19.84-26.58 44.3-26.58s44.28 11.9 44.28 26.58z" transform="matrix(.1662 0 0 .085 390.1 261.48)" stroke="#fff600" stroke-width="7.99" fill="#cc1900"/><path d="M354.02 276.6c2.18 1 2 2.67 1.26 3-.74.33-1.77-.82-3.95-1.82s-4.7-1.5-3.95-1.82 4.46-.37 6.64.63z" fill="#008d00"/><path d="M-70.87 414.57v53.15h53.15V450h-35.43v-35.43h-17.71z" transform="matrix(.1136 .1434 -.1795 .0907 443 265.93)" stroke="#fff600" stroke-width="5" fill="#cc1900"/><path d="M70.87 574.02c0 35.43 28.7 36.67 17.7 53.15l-35.42 53.15H35.43l17.72-53.15c5.9-17.72-17.72-35.43-70.87 0-12.22 0-70.86-8.96-70.86 0v53.15h-17.72v-53.15c0-6.94-35.43-53.15-35.43-70.87 0-12.22-53.15 0-53.15-17.7 0-8.87 35.43-17.73 35.43-35.45 0-17.7 35.43 0 53.15 0 0 17.72-17.72 35.44 17.72 35.44 24.45 0 177.17 0 177.17 17.7 0 17.72-17.73 5.5-17.73 17.72z" stroke="#fff600" stroke-width="5" fill="#cc1900" transform="matrix(.2124 0 0 .1696 384.88 193.4)"/><path d="M363.55 308.8c2.05 0 2.78 1.52 2.43 2.1-.35.58-1.66 0-3.7.02s-4.05.6-3.7.02 2.93-2.12 4.97-2.13zm30.1 0c2.05 0 2.8 1.52 2.43 2.1-.35.58-1.65 0-3.7.02s-4.05.6-3.7.02 2.93-2.12 4.98-2.13zm-34.85-4.2c1.65-.94 3.36-.05 3.5.6.13.63-1.35.77-3 1.72s-2.87 2.37-3 1.73.84-3.08 2.5-4.04zm20.22 1.72c2.04-.05 2.82 1.45 2.5 2.04-.34.6-1.66.05-3.7.1s-4.04.7-3.7.1 2.85-2.18 4.9-2.23zm-25.68-17.93l8.96-5.5 2.3 2.4-8.97 5.48zm3.72 3.88c0 .83-.5 1.5-1.14 1.5s-1.15-.67-1.15-1.5.52-1.5 1.15-1.5 1.14.67 1.14 1.5z" fill="#008d00"/><path d="M48 681.85c34.08.02 34.08 12.9 19.83 12.9C48 694.75 0 699.13 0 698.03s-16.48-14.2-16.48-14.2c-1.24-3.52 1.17 14.13-1.24 14.2-2.4.08-16.43-15.38-16.43-15.38s1.3 15.23 0 15.3c-1.28.08-17.66-9.4-17.66-9.4l-1.18 8.23-15.3 9.42 15.3 10.6v8.24l15.3-8.24 1.18 15.3 18.84-15.3s4.76 16.3 2.35 16.48c-2.42.18 16.48-16.48 16.48-16.48-1.18-1.05 54.05 0 87.4-1.05 33.36-1.05 32.75-51.94 17.72-53.15-15.03-1.22-58.3 3.33-58.3-.2" transform="matrix(.1104 0 0 .1268 390.87 202.72)" stroke="#fff600" stroke-width="5.05" fill="#cc1900"/></g></svg>