<svg xmlns="http://www.w3.org/2000/svg" height="480" width="640"><g fill-rule="evenodd" stroke-width="1pt"><path fill="#00c4ff" d="M0 0h640V160.4H0z"/><path fill="#fff" d="M0 159.76h640V320.2H0z"/><path fill="#00c4ff" d="M0 319.54h640v160.43H0z"/></g><path d="M382.5 221.33c0 14.56-11.87 26.37-26.5 26.37s-26.5-11.8-26.5-26.37 11.86-26.37 26.5-26.37 26.5 11.8 26.5 26.37z" stroke-opacity=".39" fill-rule="evenodd" transform="matrix(1.6452 0 0 1.62 -265.9 -116.57)" stroke="#000" stroke-width=".63" fill="#ffd600"/><path d="M364.43 195.28c-4.34-1.05-8.79.42-10.2.32-1.9 0-6.78-1.68-10.17 0m-5.35 4.9c4.3-3.02 9.12 1.08 10.4.3 3.5-2.3 6.74-1.86 10.08.2 2.16 1.3 5.92-3.7 10.3.33" stroke-opacity=".39" transform="matrix(1.2703 0 0 1.231 -130.87 -28.9)" stroke="#000" stroke-width=".5" fill="none"/><path d="M333.88 205.63c2.27-1.85 9.7-1.93 17.32 2.4 1.16-.27 1.9-1.07.95-2.2-5.74-2-12.43-4.5-18.6-2.62-1.67 1.2-1.25 1.97.33 2.43z" stroke-opacity=".39" fill-rule="evenodd" transform="matrix(1.2703 0 0 1.231 -130.87 -28.9)" stroke="#000" stroke-width=".5" fill="#efc000"/><path d="M333.88 205.63c2.27-1.85 9.7-1.93 17.32 2.4 1.16-.27 1.9-1.07.95-2.2-5.74-2-12.43-4.5-18.6-2.62-1.67 1.2-1.25 1.97.33 2.43z" stroke-opacity=".39" fill-rule="evenodd" transform="matrix(-1.2703 0 0 1.231 768.98 -28.9)" stroke="#000" stroke-width=".5" fill="#efc000"/><path stroke-linejoin="round" d="M330.84 211.83c7.53-4.83 17.46-2.3 21.63.32-6.1-1.16-6.2-1.68-10.6-1.8-3.12.12-7.7-.2-11.03 1.48z" stroke-opacity=".39" fill-rule="evenodd" transform="matrix(1.2703 0 0 1.231 -130.87 -28.9)" stroke="#000" stroke-width=".63" fill="#f0bf00"/><path d="M348.06 211.3c-3.67 7.67-10.08 7.77-14.6-.42" stroke-opacity=".39" transform="matrix(1.2703 0 0 1.231 -130.87 -28.9)" stroke="#000" stroke-width=".63" fill="none"/><path d="M308.78 234.1c-1.38 1.5-4.77 2.4-7.56 2s-3.94-1.96-2.56-3.47c1.4-1.52 4.77-2.42 7.57-2s3.93 1.95 2.55 3.46z" fill-rule="evenodd" fill-opacity=".37"/><path d="M301.9 232.15c.14.35-.3.82-1 1.04s-1.34.1-1.5-.24c-.13-.35.3-.82 1-1.04s1.36-.12 1.5.23z" fill-rule="evenodd" fill="gold"/><path d="M349.18 224.5c-4.24 7.13 1.54 2.1 2.48 4.16 1.65 1.92 3.3 1.47 4.27 0 .98-1.65 7.13 3.12 2.93-3.93" stroke-opacity=".39" transform="matrix(1.2703 0 0 1.231 -130.87 -28.9)" stroke="#000" stroke-width=".63" fill="none"/><path stroke-linejoin="round" d="M341.64 236.3c3.64-.4 9.75-3.18 11.93-.9 1.87-2.05 8.48.6 12.7.9-3.06 1.88-9.3.6-12.25 2.6-2.9-1.77-9.27-.15-12.38-2.6z" stroke-opacity=".39" transform="matrix(1.2703 0 0 1.231 -130.87 -28.9)" stroke="#000" stroke-linecap="round" stroke-width=".63" fill="none"/><path stroke-linejoin="round" d="M347.5 239.58c5.5 2.25 6.75 1.9 12.72.23-1.24 3.27-4.4 3.95-6.2 3.83-1.85-.12-4.38.12-6.52-4.05z" stroke-opacity=".39" transform="matrix(1.2703 0 0 1.231 -130.87 -28.9)" stroke="#000" stroke-width=".63" fill="none"/><path stroke-linejoin="round" d="M343.17 258.06c-3.98 10.4.38 15.36-1.57 20.96-1.87 5.4-10.02 18.78-3.82 24.6 4.93.22-.85-7.38 9-21.46 4.6-6.6-1.18-10.77 3.64-23.7.45-1.12-6.62-2.04-7.25-.4z" stroke-opacity=".39" fill-rule="evenodd" transform="matrix(1.2703 0 0 1.231 -130.87 -28.9)" stroke="#000" stroke-width=".63" fill="gold"/><path stroke-linejoin="round" d="M342.97 258.16c-1.53 11.68-.62 47.58 3.04 46.14 4.06 1.3 4.6-35.16 4.22-45.95-.05-1.2-7.04-1.93-7.25-.2z" stroke-opacity=".39" fill-rule="evenodd" transform="matrix(1.2703 0 0 1.231 -119.92 -28.07)" stroke="#000" stroke-width=".63" fill="gold"/><path stroke-linejoin="round" d="M343.17 258.06c-3.98 10.4.38 15.36-1.57 20.96-1.87 5.4-10.02 18.78-3.82 24.6 4.93.22-.85-7.38 9-21.46 4.6-6.6-1.18-10.77 3.64-23.7.45-1.12-6.62-2.04-7.25-.4z" stroke-opacity=".39" transform="matrix(-.908 -.861 -.8884 .88 837 353.18)" stroke="#000" stroke-width=".63" fill="none"/><path stroke-linejoin="round" d="M343.17 258.06c-3.98 10.4.38 15.36-1.57 20.96-1.87 5.4-10.02 18.78-3.82 24.6 4.93.22-.85-7.38 9-21.46 4.6-6.6-1.18-10.77 3.64-23.7.45-1.12-6.62-2.04-7.25-.4z" stroke-opacity=".39" transform="matrix(.889 .8794 -.9075 .8614 204.62 -258.7)" stroke="#000" stroke-width=".63" fill="none"/><path stroke-linejoin="round" d="M343.17 258.06c-3.98 10.4.38 15.36-1.57 20.96-1.87 5.4-10.02 18.78-3.82 24.6 4.93.22-.85-7.38 9-21.46 4.6-6.6-1.18-10.77 3.64-23.7.45-1.12-6.62-2.04-7.25-.4z" stroke-opacity=".39" transform="matrix(-.0073 -1.231 -1.2703 .007 601.74 676.9)" stroke="#000" stroke-width=".63" fill="none"/><path stroke-linejoin="round" d="M342.97 258.16c-1.53 11.68-.62 47.58 3.04 46.14 4.06 1.3 4.6-35.16 4.22-45.95-.05-1.2-7.04-1.93-7.25-.2z" stroke-opacity=".39" transform="matrix(-1.1653 -.49 -.5057 1.1292 835.8 164.23)" stroke="#000" stroke-width=".63" fill="none"/><path stroke-linejoin="round" d="M342.97 258.16c-1.53 11.68-.62 47.58 3.04 46.14 4.06 1.3 4.6-35.16 4.22-45.95-.05-1.2-7.04-1.93-7.25-.2z" stroke-opacity=".39" transform="matrix(-.905 -.864 -.8915 .877 827.9 348.8)" stroke="#000" stroke-width=".63" fill="none"/><path stroke-linejoin="round" d="M342.97 258.16c-1.53 11.68-.62 47.58 3.04 46.14 4.06 1.3 4.6-35.16 4.22-45.95-.05-1.2-7.04-1.93-7.25-.2z" stroke-opacity=".39" transform="matrix(-.4964 -1.133 -1.1693 .481 748.1 528.5)" stroke="#000" stroke-width=".63" fill="none"/><path d="M349.18 224.5c-4.24 7.13 1.54 2.1 2.48 4.16 1.65 1.92 3.3 1.47 4.27 0 .98-1.65 7.13 3.12 2.93-3.93" stroke-opacity=".08" transform="matrix(1.2703 0 0 1.231 -130.87 -28.9)" stroke="#000" stroke-width=".63" fill="none"/><path stroke-linejoin="round" d="M341.64 236.3c3.64-.4 9.75-3.18 11.93-.9 1.87-2.05 8.48.6 12.7.9-3.06 1.88-9.3.6-12.25 2.6-2.9-1.77-9.27-.15-12.38-2.6z" stroke-opacity=".08" fill-rule="evenodd" transform="matrix(1.2703 0 0 1.231 -130.87 -28.9)" stroke="#000" stroke-linecap="round" stroke-width=".63" fill="#f0bf00"/><path stroke-linejoin="round" d="M347.5 239.58c5.5 2.25 6.75 1.9 12.72.23-1.24 3.27-4.4 3.95-6.2 3.83-1.85-.12-4.38.12-6.52-4.05z" stroke-opacity=".08" fill-rule="evenodd" transform="matrix(1.2703 0 0 1.231 -130.87 -28.9)" stroke="#000" stroke-width=".63" fill="#f0bf00"/><path stroke-linejoin="round" d="M343.17 258.06c-3.98 10.4.38 15.36-1.57 20.96-1.87 5.4-10.02 18.78-3.82 24.6 4.93.22-.85-7.38 9-21.46 4.6-6.6-1.18-10.77 3.64-23.7.45-1.12-6.62-2.04-7.25-.4z" stroke-opacity=".15" fill-rule="evenodd" transform="matrix(-.908 -.861 -.8884 .88 837 353.18)" stroke="#000" stroke-width=".63" fill="gold"/><path stroke-linejoin="round" d="M343.17 258.06c-3.98 10.4.38 15.36-1.57 20.96-1.87 5.4-10.02 18.78-3.82 24.6 4.93.22-.85-7.38 9-21.46 4.6-6.6-1.18-10.77 3.64-23.7.45-1.12-6.62-2.04-7.25-.4z" stroke-opacity=".15" fill-rule="evenodd" transform="matrix(.889 .8794 -.9075 .8614 204.62 -258.7)" stroke="#000" stroke-width=".63" fill="gold"/><path stroke-linejoin="round" d="M343.17 258.06c-3.98 10.4.38 15.36-1.57 20.96-1.87 5.4-10.02 18.78-3.82 24.6 4.93.22-.85-7.38 9-21.46 4.6-6.6-1.18-10.77 3.64-23.7.45-1.12-6.62-2.04-7.25-.4z" stroke-opacity=".15" fill-rule="evenodd" transform="matrix(-.0073 -1.231 -1.2703 .007 601.74 676.9)" stroke="#000" stroke-width=".63" fill="gold"/><path stroke-linejoin="round" d="M342.97 258.16c-1.53 11.68-.62 47.58 3.04 46.14 4.06 1.3 4.6-35.16 4.22-45.95-.05-1.2-7.04-1.93-7.25-.2z" stroke-opacity=".15" fill-rule="evenodd" transform="matrix(-1.1653 -.49 -.5057 1.1292 835.8 164.23)" stroke="#000" stroke-width=".63" fill="gold"/><path stroke-linejoin="round" d="M342.97 258.16c-1.53 11.68-.62 47.58 3.04 46.14 4.06 1.3 4.6-35.16 4.22-45.95-.05-1.2-7.04-1.93-7.25-.2z" stroke-opacity=".15" fill-rule="evenodd" transform="matrix(-.905 -.864 -.8915 .877 827.9 348.8)" stroke="#000" stroke-width=".63" fill="gold"/><path stroke-linejoin="round" d="M342.97 258.16c-1.53 11.68-.62 47.58 3.04 46.14 4.06 1.3 4.6-35.16 4.22-45.95-.05-1.2-7.04-1.93-7.25-.2z" stroke-opacity=".15" fill-rule="evenodd" transform="matrix(-.4964 -1.133 -1.1693 .481 748.1 528.5)" stroke="#000" stroke-width=".63" fill="gold"/><path stroke-linejoin="round" d="M342.97 258.16c-1.53 11.68-.62 47.58 3.04 46.14 4.06 1.3 4.6-35.16 4.22-45.95-.05-1.2-7.04-1.93-7.25-.2z" stroke-opacity=".39" fill-rule="evenodd" transform="matrix(0 -1.231 1.2703 0 41.18 668.38)" stroke="#000" stroke-width=".63" fill="gold"/><path stroke-linejoin="round" d="M343.17 258.06c-3.98 10.4.38 15.36-1.57 20.96-1.87 5.4-10.02 18.78-3.82 24.6 4.93.22-.85-7.38 9-21.46 4.6-6.6-1.18-10.77 3.64-23.7.45-1.12-6.62-2.04-7.25-.4z" stroke-opacity=".39" fill-rule="evenodd" transform="matrix(-1.2703 0 0 1.231 770.68 -28.28)" stroke="#000" stroke-width=".63" fill="gold"/><path stroke-linejoin="round" d="M343.17 258.06c-3.98 10.4.38 15.36-1.57 20.96-1.87 5.4-10.02 18.78-3.82 24.6 4.93.22-.85-7.38 9-21.46 4.6-6.6-1.18-10.77 3.64-23.7.45-1.12-6.62-2.04-7.25-.4z" stroke-opacity=".39" fill-rule="evenodd" transform="matrix(.908 -.861 .8884 .88 -196.84 353.8)" stroke="#000" stroke-width=".63" fill="gold"/><path stroke-linejoin="round" d="M343.17 258.06c-3.98 10.4.38 15.36-1.57 20.96-1.87 5.4-10.02 18.78-3.82 24.6 4.93.22-.85-7.38 9-21.46 4.6-6.6-1.18-10.77 3.64-23.7.45-1.12-6.62-2.04-7.25-.4z" stroke-opacity=".39" fill-rule="evenodd" transform="matrix(-.889 .8794 .9075 .8614 435.56 -258.4)" stroke="#000" stroke-width=".63" fill="gold"/><path stroke-linejoin="round" d="M343.17 258.06c-3.98 10.4.38 15.36-1.57 20.96-1.87 5.4-10.02 18.78-3.82 24.6 4.93.22-.85-7.38 9-21.46 4.6-6.6-1.18-10.77 3.64-23.7.45-1.12-6.62-2.04-7.25-.4z" stroke-opacity=".39" fill-rule="evenodd" transform="matrix(.0073 -1.231 1.2703 .007 38.07 676.9)" stroke="#000" stroke-width=".63" fill="gold"/><path stroke-linejoin="round" d="M342.97 258.16c-1.53 11.68-.62 47.58 3.04 46.14 4.06 1.3 4.6-35.16 4.22-45.95-.05-1.2-7.04-1.93-7.25-.2z" stroke-opacity=".39" fill-rule="evenodd" transform="matrix(1.1653 -.49 .5057 1.1292 -195.68 164.87)" stroke="#000" stroke-width=".63" fill="gold"/><path stroke-linejoin="round" d="M342.97 258.16c-1.53 11.68-.62 47.58 3.04 46.14 4.06 1.3 4.6-35.16 4.22-45.95-.05-1.2-7.04-1.93-7.25-.2z" stroke-opacity=".39" fill-rule="evenodd" transform="matrix(.905 -.864 .8915 .877 -188.6 348.8)" stroke="#000" stroke-width=".63" fill="gold"/><path stroke-linejoin="round" d="M342.97 258.16c-1.53 11.68-.62 47.58 3.04 46.14 4.06 1.3 4.6-35.16 4.22-45.95-.05-1.2-7.04-1.93-7.25-.2z" stroke-opacity=".39" fill-rule="evenodd" transform="matrix(.4964 -1.133 1.1693 .481 -107.76 528.5)" stroke="#000" stroke-width=".63" fill="gold"/><path stroke-linejoin="round" d="M343.17 258.06c-3.98 10.4.38 15.36-1.57 20.96-1.87 5.4-10.02 18.78-3.82 24.6 4.93.22-.85-7.38 9-21.46 4.6-6.6-1.18-10.77 3.64-23.7.45-1.12-6.62-2.04-7.25-.4z" stroke-opacity=".15" fill-rule="evenodd" transform="matrix(.908 -.861 .8884 .88 -196.84 353.8)" stroke="#000" stroke-width=".63" fill="gold"/><path stroke-linejoin="round" d="M343.17 258.06c-3.98 10.4.38 15.36-1.57 20.96-1.87 5.4-10.02 18.78-3.82 24.6 4.93.22-.85-7.38 9-21.46 4.6-6.6-1.18-10.77 3.64-23.7.45-1.12-6.62-2.04-7.25-.4z" stroke-opacity=".15" fill-rule="evenodd" transform="matrix(-.889 .8794 .9075 .8614 435.56 -258.4)" stroke="#000" stroke-width=".63" fill="gold"/><path stroke-linejoin="round" d="M343.17 258.06c-3.98 10.4.38 15.36-1.57 20.96-1.87 5.4-10.02 18.78-3.82 24.6 4.93.22-.85-7.38 9-21.46 4.6-6.6-1.18-10.77 3.64-23.7.45-1.12-6.62-2.04-7.25-.4z" stroke-opacity=".15" fill-rule="evenodd" transform="matrix(.0073 -1.231 1.2703 .007 38.07 676.9)" stroke="#000" stroke-width=".63" fill="gold"/><path stroke-linejoin="round" d="M342.97 258.16c-1.53 11.68-.62 47.58 3.04 46.14 4.06 1.3 4.6-35.16 4.22-45.95-.05-1.2-7.04-1.93-7.25-.2z" stroke-opacity=".15" fill-rule="evenodd" transform="matrix(1.1653 -.49 .5057 1.1292 -195.68 164.87)" stroke="#000" stroke-width=".63" fill="gold"/><path stroke-linejoin="round" d="M342.97 258.16c-1.53 11.68-.62 47.58 3.04 46.14 4.06 1.3 4.6-35.16 4.22-45.95-.05-1.2-7.04-1.93-7.25-.2z" stroke-opacity=".15" fill-rule="evenodd" transform="matrix(.905 -.864 .8915 .877 -188.6 348.8)" stroke="#000" stroke-width=".63" fill="gold"/><path stroke-linejoin="round" d="M342.97 258.16c-1.53 11.68-.62 47.58 3.04 46.14 4.06 1.3 4.6-35.16 4.22-45.95-.05-1.2-7.04-1.93-7.25-.2z" stroke-opacity=".15" fill-rule="evenodd" transform="matrix(.4964 -1.133 1.1693 .481 -107.76 528.5)" stroke="#000" stroke-width=".63" fill="gold"/><path stroke-linejoin="round" d="M342.97 258.16c-1.53 11.68-.62 47.58 3.04 46.14 4.06 1.3 4.6-35.16 4.22-45.95-.05-1.2-7.04-1.93-7.25-.2z" stroke-opacity=".39" fill-rule="evenodd" transform="matrix(0 1.231 -1.2703 0 598.48 -184.42)" stroke="#000" stroke-width=".63" fill="gold"/><path stroke-linejoin="round" d="M343.17 258.06c-3.98 10.4.38 15.36-1.57 20.96-1.87 5.4-10.02 18.78-3.82 24.6 4.93.22-.85-7.38 9-21.46 4.6-6.6-1.18-10.77 3.64-23.7.45-1.12-6.62-2.04-7.25-.4z" stroke-opacity=".39" fill-rule="evenodd" transform="matrix(1.2703 0 0 -1.231 -131 512.22)" stroke="#000" stroke-width=".63" fill="gold"/><path stroke-linejoin="round" d="M343.17 258.06c-3.98 10.4.38 15.36-1.57 20.96-1.87 5.4-10.02 18.78-3.82 24.6 4.93.22-.85-7.38 9-21.46 4.6-6.6-1.18-10.77 3.64-23.7.45-1.12-6.62-2.04-7.25-.4z" stroke-opacity=".39" fill-rule="evenodd" transform="matrix(-.908 .861 -.8884 -.88 836.5 130.14)" stroke="#000" stroke-width=".63" fill="gold"/><path stroke-linejoin="round" d="M343.17 258.06c-3.98 10.4.38 15.36-1.57 20.96-1.87 5.4-10.02 18.78-3.82 24.6 4.93.22-.85-7.38 9-21.46 4.6-6.6-1.18-10.77 3.64-23.7.45-1.12-6.62-2.04-7.25-.4z" stroke-opacity=".39" fill-rule="evenodd" transform="matrix(.889 -.8794 -.9075 -.8614 204.12 742.35)" stroke="#000" stroke-width=".63" fill="gold"/><path stroke-linejoin="round" d="M343.17 258.06c-3.98 10.4.38 15.36-1.57 20.96-1.87 5.4-10.02 18.78-3.82 24.6 4.93.22-.85-7.38 9-21.46 4.6-6.6-1.18-10.77 3.64-23.7.45-1.12-6.62-2.04-7.25-.4z" stroke-opacity=".39" fill-rule="evenodd" transform="matrix(-.0073 1.231 -1.2703 -.007 601.6 -192.96)" stroke="#000" stroke-width=".63" fill="gold"/><path stroke-linejoin="round" d="M342.97 258.16c-1.53 11.68-.62 47.58 3.04 46.14 4.06 1.3 4.6-35.16 4.22-45.95-.05-1.2-7.04-1.93-7.25-.2z" stroke-opacity=".39" fill-rule="evenodd" transform="matrix(-1.1653 .49 -.5057 -1.1292 835.35 319.1)" stroke="#000" stroke-width=".63" fill="gold"/><path stroke-linejoin="round" d="M342.97 258.16c-1.53 11.68-.62 47.58 3.04 46.14 4.06 1.3 4.6-35.16 4.22-45.95-.05-1.2-7.04-1.93-7.25-.2z" stroke-opacity=".39" fill-rule="evenodd" transform="matrix(-.905 .864 -.8915 -.877 828.28 135.16)" stroke="#000" stroke-width=".63" fill="gold"/><path stroke-linejoin="round" d="M342.97 258.16c-1.53 11.68-.62 47.58 3.04 46.14 4.06 1.3 4.6-35.16 4.22-45.95-.05-1.2-7.04-1.93-7.25-.2z" stroke-opacity=".39" fill-rule="evenodd" transform="matrix(-.4964 1.133 -1.1693 -.481 747.44 -44.55)" stroke="#000" stroke-width=".63" fill="gold"/><path stroke-linejoin="round" d="M343.17 258.06c-3.98 10.4.38 15.36-1.57 20.96-1.87 5.4-10.02 18.78-3.82 24.6 4.93.22-.85-7.38 9-21.46 4.6-6.6-1.18-10.77 3.64-23.7.45-1.12-6.62-2.04-7.25-.4z" stroke-opacity=".15" fill-rule="evenodd" transform="matrix(-.908 .861 -.8884 -.88 836.5 130.14)" stroke="#000" stroke-width=".63" fill="gold"/><path stroke-linejoin="round" d="M343.17 258.06c-3.98 10.4.38 15.36-1.57 20.96-1.87 5.4-10.02 18.78-3.82 24.6 4.93.22-.85-7.38 9-21.46 4.6-6.6-1.18-10.77 3.64-23.7.45-1.12-6.62-2.04-7.25-.4z" stroke-opacity=".15" fill-rule="evenodd" transform="matrix(.889 -.8794 -.9075 -.8614 204.12 742.35)" stroke="#000" stroke-width=".63" fill="gold"/><path stroke-linejoin="round" d="M343.17 258.06c-3.98 10.4.38 15.36-1.57 20.96-1.87 5.4-10.02 18.78-3.82 24.6 4.93.22-.85-7.38 9-21.46 4.6-6.6-1.18-10.77 3.64-23.7.45-1.12-6.62-2.04-7.25-.4z" stroke-opacity=".15" fill-rule="evenodd" transform="matrix(-.0073 1.231 -1.2703 -.007 601.6 -192.96)" stroke="#000" stroke-width=".63" fill="gold"/><path stroke-linejoin="round" d="M342.97 258.16c-1.53 11.68-.62 47.58 3.04 46.14 4.06 1.3 4.6-35.16 4.22-45.95-.05-1.2-7.04-1.93-7.25-.2z" stroke-opacity=".15" fill-rule="evenodd" transform="matrix(-1.1653 .49 -.5057 -1.1292 835.35 319.1)" stroke="#000" stroke-width=".63" fill="gold"/><path stroke-linejoin="round" d="M342.97 258.16c-1.53 11.68-.62 47.58 3.04 46.14 4.06 1.3 4.6-35.16 4.22-45.95-.05-1.2-7.04-1.93-7.25-.2z" stroke-opacity=".15" fill-rule="evenodd" transform="matrix(-.905 .864 -.8915 -.877 828.28 135.16)" stroke="#000" stroke-width=".63" fill="gold"/><path stroke-linejoin="round" d="M342.97 258.16c-1.53 11.68-.62 47.58 3.04 46.14 4.06 1.3 4.6-35.16 4.22-45.95-.05-1.2-7.04-1.93-7.25-.2z" stroke-opacity=".15" fill-rule="evenodd" transform="matrix(-.4964 1.133 -1.1693 -.481 747.44 -44.55)" stroke="#000" stroke-width=".63" fill="gold"/><path stroke-linejoin="round" d="M342.97 258.16c-1.53 11.68-.62 47.58 3.04 46.14 4.06 1.3 4.6-35.16 4.22-45.95-.05-1.2-7.04-1.93-7.25-.2z" stroke-opacity=".39" fill-rule="evenodd" transform="matrix(-1.2703 0 0 -1.231 759.53 512)" stroke="#000" stroke-width=".63" fill="gold"/><path stroke-linejoin="round" d="M343.17 258.06c-3.98 10.4.38 15.36-1.57 20.96-1.87 5.4-10.02 18.78-3.82 24.6 4.93.22-.85-7.38 9-21.46 4.6-6.6-1.18-10.77 3.64-23.7.45-1.12-6.62-2.04-7.25-.4z" stroke-opacity=".39" fill-rule="evenodd" transform="matrix(0 1.231 1.2703 0 40.63 -194.9)" stroke="#000" stroke-width=".63" fill="gold"/><path stroke-linejoin="round" d="M343.17 258.06c-3.98 10.4.38 15.36-1.57 20.96-1.87 5.4-10.02 18.78-3.82 24.6 4.93.22-.85-7.38 9-21.46 4.6-6.6-1.18-10.77 3.64-23.7.45-1.12-6.62-2.04-7.25-.4z" stroke-opacity=".39" fill-rule="evenodd" transform="matrix(-.8884 -.88 .908 -.861 434.92 742.67)" stroke="#000" stroke-width=".63" fill="gold"/><path stroke-linejoin="round" d="M343.17 258.06c-3.98 10.4.38 15.36-1.57 20.96-1.87 5.4-10.02 18.78-3.82 24.6 4.93.22-.85-7.38 9-21.46 4.6-6.6-1.18-10.77 3.64-23.7.45-1.12-6.62-2.04-7.25-.4z" stroke-opacity=".39" fill-rule="evenodd" transform="matrix(.9075 .8614 .889 -.8794 -196.84 129.83)" stroke="#000" stroke-width=".63" fill="gold"/><path stroke-linejoin="round" d="M343.17 258.06c-3.98 10.4.38 15.36-1.57 20.96-1.87 5.4-10.02 18.78-3.82 24.6 4.93.22-.85-7.38 9-21.46 4.6-6.6-1.18-10.77 3.64-23.7.45-1.12-6.62-2.04-7.25-.4z" stroke-opacity=".39" fill-rule="evenodd" transform="matrix(-1.2703 -.007 .0073 -1.231 768.32 515.03)" stroke="#000" stroke-width=".63" fill="gold"/><path stroke-linejoin="round" d="M342.97 258.16c-1.53 11.68-.62 47.58 3.04 46.14 4.06 1.3 4.6-35.16 4.22-45.95-.05-1.2-7.04-1.93-7.25-.2z" stroke-opacity=".39" fill-rule="evenodd" transform="matrix(-.5057 -1.1292 1.1653 -.49 239.93 741.54)" stroke="#000" stroke-width=".63" fill="gold"/><path stroke-linejoin="round" d="M342.97 258.16c-1.53 11.68-.62 47.58 3.04 46.14 4.06 1.3 4.6-35.16 4.22-45.95-.05-1.2-7.04-1.93-7.25-.2z" stroke-opacity=".39" fill-rule="evenodd" transform="matrix(-.8915 -.877 .905 -.864 429.72 734.68)" stroke="#000" stroke-width=".63" fill="gold"/><path stroke-linejoin="round" d="M342.97 258.16c-1.53 11.68-.62 47.58 3.04 46.14 4.06 1.3 4.6-35.16 4.22-45.95-.05-1.2-7.04-1.93-7.25-.2z" stroke-opacity=".39" fill-rule="evenodd" transform="matrix(-1.1693 -.481 .4964 -1.133 615.2 656.34)" stroke="#000" stroke-width=".63" fill="gold"/><path stroke-linejoin="round" d="M343.17 258.06c-3.98 10.4.38 15.36-1.57 20.96-1.87 5.4-10.02 18.78-3.82 24.6 4.93.22-.85-7.38 9-21.46 4.6-6.6-1.18-10.77 3.64-23.7.45-1.12-6.62-2.04-7.25-.4z" stroke-opacity=".15" fill-rule="evenodd" transform="matrix(-.8884 -.88 .908 -.861 434.92 742.67)" stroke="#000" stroke-width=".63" fill="gold"/><path stroke-linejoin="round" d="M343.17 258.06c-3.98 10.4.38 15.36-1.57 20.96-1.87 5.4-10.02 18.78-3.82 24.6 4.93.22-.85-7.38 9-21.46 4.6-6.6-1.18-10.77 3.64-23.7.45-1.12-6.62-2.04-7.25-.4z" stroke-opacity=".15" fill-rule="evenodd" transform="matrix(.9075 .8614 .889 -.8794 -196.84 129.83)" stroke="#000" stroke-width=".63" fill="gold"/><path stroke-linejoin="round" d="M343.17 258.06c-3.98 10.4.38 15.36-1.57 20.96-1.87 5.4-10.02 18.78-3.82 24.6 4.93.22-.85-7.38 9-21.46 4.6-6.6-1.18-10.77 3.64-23.7.45-1.12-6.62-2.04-7.25-.4z" stroke-opacity=".15" fill-rule="evenodd" transform="matrix(-1.2703 -.007 .0073 -1.231 768.32 515.03)" stroke="#000" stroke-width=".63" fill="gold"/><path stroke-linejoin="round" d="M342.97 258.16c-1.53 11.68-.62 47.58 3.04 46.14 4.06 1.3 4.6-35.16 4.22-45.95-.05-1.2-7.04-1.93-7.25-.2z" stroke-opacity=".15" fill-rule="evenodd" transform="matrix(-.5057 -1.1292 1.1653 -.49 239.93 741.54)" stroke="#000" stroke-width=".63" fill="gold"/><path stroke-linejoin="round" d="M342.97 258.16c-1.53 11.68-.62 47.58 3.04 46.14 4.06 1.3 4.6-35.16 4.22-45.95-.05-1.2-7.04-1.93-7.25-.2z" stroke-opacity=".15" fill-rule="evenodd" transform="matrix(-.8915 -.877 .905 -.864 429.72 734.68)" stroke="#000" stroke-width=".63" fill="gold"/><path stroke-linejoin="round" d="M342.97 258.16c-1.53 11.68-.62 47.58 3.04 46.14 4.06 1.3 4.6-35.16 4.22-45.95-.05-1.2-7.04-1.93-7.25-.2z" stroke-opacity=".15" fill-rule="evenodd" transform="matrix(-1.1693 -.481 .4964 -1.133 615.2 656.34)" stroke="#000" stroke-width=".63" fill="gold"/><path d="M328.14 202.55H325" stroke-opacity=".17" transform="matrix(1.2703 0 0 1.231 -130.22 -27.96)" stroke="#000" stroke-width="1pt" fill="none"/><path d="M328.14 202.55H325" stroke-opacity=".17" transform="matrix(1.2703 0 0 1.231 -131.22 -25.46)" stroke="#000" stroke-width="1pt" fill="none"/><path d="M328.14 202.55H325" stroke-opacity=".17" transform="matrix(1.4064 0 0 1.231 -176.3 -23.1)" stroke="#000" stroke-width="1pt" fill="none"/><path d="M328.14 202.55H325" stroke-opacity=".17" transform="matrix(1.4064 0 0 1.231 -177.6 -20.9)" stroke="#000" stroke-width="1pt" fill="none"/><path d="M328.14 202.55H325" stroke-opacity=".17" transform="matrix(1.6786 0 0 1.231 -267.2 -18.54)" stroke="#000" stroke-width="1pt" fill="none"/><path d="M328.14 202.55H325" stroke-opacity=".17" transform="matrix(1.86 0 0 1.23 -326.6 -16.18)" stroke="#000" stroke-width="1pt" fill="none"/><path d="M328.14 202.55H325" stroke-opacity=".17" transform="matrix(1.77 0 0 1.23 -297.68 -13.55)" stroke="#000" stroke-width="1pt" fill="none"/><path d="M328.14 202.55H325" stroke-opacity=".17" transform="matrix(1.724 0 0 1.23 -282.5 -10.92)" stroke="#000" stroke-width="1pt" fill="none"/><path d="M328.14 202.55H325" stroke-opacity=".17" transform="matrix(1.77 0 0 1.23 -297.4 -8.43)" stroke="#000" stroke-width="1pt" fill="none"/><path d="M328.14 202.55H325" stroke-opacity=".17" transform="matrix(2.223 0 0 1.23 -444.82 -5.52)" stroke="#000" stroke-width="1pt" fill="none"/><path d="M328.14 202.55H325" stroke-opacity=".17" transform="matrix(1.905 0 0 1.23 -341.2 -2.2)" stroke="#000" stroke-width="1pt" fill="none"/><path d="M328.14 202.55H325" stroke-opacity=".08" transform="matrix(1.905 0 0 1.23 -341.05 .16)" stroke="#000" stroke-width="1pt" fill="none"/><path d="M328.14 202.55H325" stroke-opacity=".08" transform="matrix(1.905 0 0 1.23 -340.04 3.35)" stroke="#000" stroke-width="1pt" fill="none"/><path d="M328.14 202.55H325" stroke-opacity=".08" transform="matrix(1.905 0 0 1.23 -339.9 6.12)" stroke="#000" stroke-width="1pt" fill="none"/><path d="M328.14 202.55H325" stroke-opacity=".08" transform="matrix(1.905 0 0 1.23 -338.2 9.17)" stroke="#000" stroke-width="1pt" fill="none"/><path d="M328.14 202.55H325" stroke-opacity=".08" transform="matrix(1.905 0 0 1.23 -336.47 11.66)" stroke="#000" stroke-width="1pt" fill="none"/><path d="M328.14 202.55H325" stroke-opacity=".08" transform="matrix(1.905 0 0 1.23 -334.9 14.57)" stroke="#000" stroke-width="1pt" fill="none"/><path d="M328.14 202.55H325" stroke-opacity=".08" transform="matrix(1.905 0 0 1.23 -333.04 17.34)" stroke="#000" stroke-width="1pt" fill="none"/><path d="M328.14 202.55H325" stroke-opacity=".08" transform="matrix(1.905 0 0 1.23 -331.75 19.97)" stroke="#000" stroke-width="1pt" fill="none"/><path d="M328.14 202.55H325" stroke-opacity=".08" transform="matrix(1.905 0 0 1.23 -329.04 23.16)" stroke="#000" stroke-width="1pt" fill="none"/><path d="M328.14 202.55H325" stroke-opacity=".08" transform="matrix(1.225 0 0 1.23 -104.6 26.07)" stroke="#000" stroke-width="1pt" fill="none"/><path d="M328.14 202.55H325" stroke-opacity=".08" transform="matrix(1.905 0 0 1.23 -341.05 .16)" stroke="#000" stroke-width="1pt" fill="none"/><path d="M328.14 202.55H325" stroke-opacity=".08" transform="matrix(1.905 0 0 1.23 -340.04 3.35)" stroke="#000" stroke-width="1pt" fill="none"/><path d="M328.14 202.55H325" stroke-opacity=".08" transform="matrix(1.905 0 0 1.23 -339.9 6.12)" stroke="#000" stroke-width="1pt" fill="none"/><path d="M328.14 202.55H325" stroke-opacity=".08" transform="matrix(1.905 0 0 1.23 -338.2 9.17)" stroke="#000" stroke-width="1pt" fill="none"/><path d="M328.14 202.55H325" stroke-opacity=".08" transform="matrix(1.905 0 0 1.23 -336.47 11.66)" stroke="#000" stroke-width="1pt" fill="none"/><path d="M328.14 202.55H325" stroke-opacity=".08" transform="matrix(1.905 0 0 1.23 -334.9 14.57)" stroke="#000" stroke-width="1pt" fill="none"/><path d="M328.14 202.55H325" stroke-opacity=".08" transform="matrix(1.905 0 0 1.23 -333.04 17.34)" stroke="#000" stroke-width="1pt" fill="none"/><path d="M328.14 202.55H325" stroke-opacity=".08" transform="matrix(1.905 0 0 1.23 -331.75 19.97)" stroke="#000" stroke-width="1pt" fill="none"/><path d="M328.14 202.55H325" stroke-opacity=".08" transform="matrix(1.905 0 0 1.23 -329.04 23.16)" stroke="#000" stroke-width="1pt" fill="none"/><path d="M328.14 202.55H325" stroke-opacity=".08" transform="matrix(1.225 0 0 1.23 -103.97 25.83)" stroke="#000" stroke-width="1pt" fill="none"/><path d="M328.14 202.55H325" stroke-opacity=".13" fill-rule="evenodd" fill-opacity=".87" transform="matrix(-1.27 0 0 1.23 769.7 -28.6)" stroke="#000" stroke-width="1pt" fill="#00699d"/><path d="M328.14 202.55H325" stroke-opacity=".13" fill-rule="evenodd" fill-opacity=".87" transform="matrix(-1.27 0 0 1.23 770.7 -26.1)" stroke="#000" stroke-width="1pt" fill="#00699d"/><path d="M328.14 202.55H325" stroke-opacity=".13" fill-rule="evenodd" fill-opacity=".87" transform="matrix(-1.406 0 0 1.23 815.8 -23.75)" stroke="#000" stroke-width="1pt" fill="#00699d"/><path d="M328.14 202.55H325" stroke-opacity=".13" fill-rule="evenodd" fill-opacity=".87" transform="matrix(-1.406 0 0 1.23 817.08 -21.53)" stroke="#000" stroke-width="1pt" fill="#00699d"/><path d="M328.14 202.55H325" stroke-opacity=".13" fill-rule="evenodd" fill-opacity=".87" transform="matrix(-1.68 0 0 1.23 906.7 -19.18)" stroke="#000" stroke-width="1pt" fill="#00699d"/><path d="M328.14 202.55H325" stroke-opacity=".13" fill-rule="evenodd" fill-opacity=".87" transform="matrix(-1.86 0 0 1.23 966.1 -16.82)" stroke="#000" stroke-width="1pt" fill="#00699d"/><path d="M328.14 202.55H325" stroke-opacity=".13" fill-rule="evenodd" fill-opacity=".87" transform="matrix(-1.77 0 0 1.23 937.16 -14.2)" stroke="#000" stroke-width="1pt" fill="#00699d"/><path d="M328.14 202.55H325" stroke-opacity=".13" fill-rule="evenodd" fill-opacity=".87" transform="matrix(-1.724 0 0 1.23 922 -11.55)" stroke="#000" stroke-width="1pt" fill="#00699d"/><path d="M328.14 202.55H325" stroke-opacity=".13" fill-rule="evenodd" fill-opacity=".87" transform="matrix(-1.77 0 0 1.23 936.9 -9.06)" stroke="#000" stroke-width="1pt" fill="#00699d"/><path d="M328.14 202.55H325" stroke-opacity=".13" fill-rule="evenodd" fill-opacity=".87" transform="matrix(-2.223 0 0 1.23 1084.3 -6.15)" stroke="#000" stroke-width="1pt" fill="#00699d"/><path d="M328.14 202.55H325" stroke-opacity=".13" fill-rule="evenodd" fill-opacity=".87" transform="matrix(-1.905 0 0 1.23 980.68 -2.83)" stroke="#000" stroke-width="1pt" fill="#00699d"/><path d="M328.14 202.55H325" stroke-opacity=".06" fill-rule="evenodd" fill-opacity=".87" transform="matrix(-1.905 0 0 1.23 980.53 -.47)" stroke="#000" stroke-width="1pt" fill="#00699d"/><path d="M328.14 202.55H325" stroke-opacity=".06" fill-rule="evenodd" fill-opacity=".87" transform="matrix(-1.905 0 0 1.23 979.53 2.7)" stroke="#000" stroke-width="1pt" fill="#00699d"/><path d="M328.14 202.55H325" stroke-opacity=".06" fill-rule="evenodd" fill-opacity=".87" transform="matrix(-1.905 0 0 1.23 979.4 5.48)" stroke="#000" stroke-width="1pt" fill="#00699d"/><path d="M328.14 202.55H325" stroke-opacity=".06" fill-rule="evenodd" fill-opacity=".87" transform="matrix(-1.905 0 0 1.23 977.67 8.53)" stroke="#000" stroke-width="1pt" fill="#00699d"/><path d="M328.14 202.55H325" stroke-opacity=".06" fill-rule="evenodd" fill-opacity=".87" transform="matrix(-1.905 0 0 1.23 975.96 11.03)" stroke="#000" stroke-width="1pt" fill="#00699d"/><path d="M328.14 202.55H325" stroke-opacity=".06" fill-rule="evenodd" fill-opacity=".87" transform="matrix(-1.905 0 0 1.23 974.38 13.93)" stroke="#000" stroke-width="1pt" fill="#00699d"/><path d="M328.14 202.55H325" stroke-opacity=".06" fill-rule="evenodd" fill-opacity=".87" transform="matrix(-1.905 0 0 1.23 972.52 16.7)" stroke="#000" stroke-width="1pt" fill="#00699d"/><path d="M328.14 202.55H325" stroke-opacity=".06" fill-rule="evenodd" fill-opacity=".87" transform="matrix(-1.905 0 0 1.23 971.25 19.34)" stroke="#000" stroke-width="1pt" fill="#00699d"/><path d="M328.14 202.55H325" stroke-opacity=".06" fill-rule="evenodd" fill-opacity=".87" transform="matrix(-1.905 0 0 1.23 968.52 22.52)" stroke="#000" stroke-width="1pt" fill="#00699d"/><path d="M328.14 202.55H325" stroke-opacity=".06" fill-rule="evenodd" fill-opacity=".87" transform="matrix(-1.225 0 0 1.23 744.08 25.43)" stroke="#000" stroke-width="1pt" fill="#00699d"/><path d="M328.14 202.55H325" stroke-opacity=".06" transform="matrix(-1.905 0 0 1.23 980.53 -.47)" stroke="#000" stroke-width="1pt" fill="none"/><path d="M328.14 202.55H325" stroke-opacity=".06" transform="matrix(-1.905 0 0 1.23 979.53 2.7)" stroke="#000" stroke-width="1pt" fill="none"/><path d="M328.14 202.55H325" stroke-opacity=".06" transform="matrix(-1.905 0 0 1.23 979.4 5.48)" stroke="#000" stroke-width="1pt" fill="none"/><path d="M328.14 202.55H325" stroke-opacity=".06" transform="matrix(-1.905 0 0 1.23 977.67 8.53)" stroke="#000" stroke-width="1pt" fill="none"/><path d="M328.14 202.55H325" stroke-opacity=".06" transform="matrix(-1.905 0 0 1.23 975.96 11.03)" stroke="#000" stroke-width="1pt" fill="none"/><path d="M328.14 202.55H325" stroke-opacity=".06" transform="matrix(-1.905 0 0 1.23 974.38 13.93)" stroke="#000" stroke-width="1pt" fill="none"/><path d="M328.14 202.55H325" stroke-opacity=".06" transform="matrix(-1.905 0 0 1.23 972.52 16.7)" stroke="#000" stroke-width="1pt" fill="none"/><path d="M328.14 202.55H325" stroke-opacity=".06" transform="matrix(-1.905 0 0 1.23 971.25 19.34)" stroke="#000" stroke-width="1pt" fill="none"/><path d="M328.14 202.55H325" stroke-opacity=".06" transform="matrix(-1.905 0 0 1.23 968.52 22.52)" stroke="#000" stroke-width="1pt" fill="none"/><path d="M328.14 202.55H325" stroke-opacity=".06" transform="matrix(-1.225 0 0 1.23 744.08 25.43)" stroke="#000" stroke-width="1pt" fill="none"/><path stroke-linejoin="round" d="M330.84 211.83c7.53-4.83 17.46-2.3 21.63.32-6.1-1.16-6.2-1.68-10.6-1.8-3.12.12-7.7-.2-11.03 1.48z" stroke-opacity=".39" fill-rule="evenodd" transform="matrix(-1.27 0 0 1.23 770.3 -29.23)" stroke="#000" stroke-width=".63" fill="#f0bf00"/><path d="M348.06 211.3c-3.67 7.67-10.08 7.77-14.6-.42" stroke-opacity=".39" transform="matrix(1.27 0 0 1.23 -97.7 -29.55)" stroke="#000" stroke-width=".63" fill="none"/><path d="M341.93 233.54c-1.43 1.45-4.93 2.3-7.82 1.92s-4.06-1.87-2.63-3.32c1.43-1.45 4.93-2.3 7.82-1.93s4.05 1.9 2.62 3.34z" fill-rule="evenodd" fill-opacity=".37"/><path d="M335.07 231.52c.14.35-.3.82-.98 1.04s-1.37.12-1.5-.23c-.16-.35.28-.82.97-1.04s1.36-.13 1.5.22z" fill-rule="evenodd" fill="gold"/></svg>