<svg xmlns="http://www.w3.org/2000/svg" height="480" width="640" version="1"><g stroke-width="1pt"><g fill-rule="evenodd"><path fill="#c33" d="M0 160h640v160H0z"/><path fill="#09c" d="M0 0h640v160H0z"/><path fill="#093" d="M0 320h640v160H0z"/></g><path d="M434.47 239.33c.05 69.9-56.62 126.6-126.5 126.6-69.9.13-126.67-56.5-126.72-126.4-.17-69.9 56.4-126.7 126.3-126.8 69.9-.23 126.75 56.3 126.9 126.2v.4z" fill="#fff"/><path d="M441.5 239.33c.05 57.47-46.55 104.1-104.02 104.1-57.46.1-104.14-46.47-104.18-103.93-.14-57.47 46.4-104.18 103.85-104.27 57.47-.2 104.2 46.3 104.35 103.77v.33z" fill="#c33"/><path fill-rule="evenodd" fill="#fff" d="M448.54 169L462 206.82l36.28-17.24-17.25 36.27 37.85 13.46-37.85 13.46 17.25 36.27L462 271.83l-13.46 37.84-13.47-37.84-36.28 17.24 17.24-36.28-37.85-13.47 37.84-13.46-17.25-36.28 36.27 17.23"/></g></svg>