<svg xmlns="http://www.w3.org/2000/svg" viewBox="0 0 512 512" version="1"><defs><clipPath id="a"><path fill-opacity=".67" d="M-85.33 0h682.67v512H-85.33z"/></clipPath></defs><g fill-rule="evenodd" clip-path="url(#a)"><path fill="#009" d="M-85.33 0h682.67v512H-85.33z"/><path d="M-85.33 0l682.67 512V0H-85.33z" fill="#fc0"/><path fill="#fff" d="M-21.46 75.1l-24.4-17.74-24.4 17.73 9.33-28.7-24.4-17.72h30.15L-45.86 0l9.32 28.68h30.16l-24.4 17.73M30.1 112L5.7 129.7l9.32-28.68-24.4-17.72h30.15l9.32-28.68 9.3 28.68h30.17l-24.4 17.72 9.32 28.68m27.14 54.6l9.32-28.67-24.4-17.72h30.16l9.32-28.67 9.32 28.68h30.15l-24.4 17.73 9.33 28.68-24.4-17.7m60.88 43.65l-24.4-17.72h30.16l9.32-28.68 9.32 28.68h30.16l-24.4 17.72 9.32 28.68-24.4-17.72-24.4 17.73m60.88 8.2h30.15l9.33-28.67 9.32 28.68h30.16L273 264.86l9.33 28.68-24.4-17.72-24.4 17.72 9.33-28.68m81.7 36.9l9.32-28.7 9.32 28.7h30.16l-24.4 17.7 9.32 28.7-24.4-17.73-24.4 17.72 9.33-28.68-24.4-17.72m115.42 25.94l9.32 28.67h30.16l-24.4 17.72 9.32 28.67-24.4-17.72-24.4 17.72 9.33-28.68-24.4-17.73h30.15m85.27 25.93l9.32 28.68h30.15l-24.4 17.72 9.32 28.68-24.4-17.72-24.4 17.72 9.33-28.68-24.4-17.72h30.15m94.6 54.62h30.15l-24.4 17.72 9.32 28.68-24.4-17.72-24.4 17.72 9.33-28.68-24.4-17.72h30.15l9.32-28.68"/></g></svg>