<svg xmlns="http://www.w3.org/2000/svg" height="480" width="640"><defs><clipPath id="a"><path fill-opacity=".67" d="M-90.53 0h682.67v512H-90.53z"/></clipPath></defs><g clip-path="url(#a)" fill-rule="evenodd" transform="matrix(.938 0 0 .938 84.88 0)"><path d="M-178 0l428.8 256L-178 512zm857.6 0L250.8 256l428.8 256z" fill="#00cf00"/><path d="M-178 0l428.8 256L679.6 0zm0 512l428.8-256 428.8 256z" fill="red"/><path d="M679.6 0h-79.9L-178 464.3V512h79.9L679.6 47.7z" fill="#fff"/><path d="M398.86 256c0 81.77-66.3 148.05-148.06 148.05S102.75 337.77 102.75 256s66.28-148.05 148.05-148.05S398.86 174.23 398.86 256z" fill="#fff"/><path d="M-178 0v47.7L599.7 512h79.9v-47.7L-98.1 0z" fill="#fff"/><path stroke="#00de00" stroke-width="3.9" fill="red" d="M279.94 200.16l-19.25.33-9.96 16.43-9.92-16.47-19.22-.4 9.3-16.84-9.24-16.87 19.22-.33 9.98-16.46 9.92 16.5 19.22.4-9.33 16.82zm-64.5 111.62l-19.25.33-9.95 16.45-9.92-16.47-19.22-.4 9.3-16.84-9.24-16.87 19.23-.33 9.96-16.46 9.92 16.5 19.22.4-9.33 16.82zm130.57 0l-19.24.33-9.95 16.45-9.9-16.47-19.22-.4 9.3-16.84-9.25-16.87 19.22-.33 9.98-16.46 9.92 16.5 19.22.4-9.33 16.82z"/></g></svg>