<svg xmlns="http://www.w3.org/2000/svg" height="480" width="640" version="1"><path fill="#c00" d="M0 0h640v480H0z"/><g stroke-width="1pt"><path fill="#006" d="M0 0h512v256H0z"/><path fill="#fff" d="M0 0v28.62L454.76 256H512v-28.62L57.24 0H0zm512 0v28.62L57.24 256H0v-28.62L454.76 0H512z"/><path fill="#fff" d="M213.33 0v256h85.34V0h-85.34zM0 85.33v85.34h512V85.33H0z"/><path fill="#c00" d="M0 102.4v51.2h512v-51.2H0zM230.4 0v256h51.2V0h-51.2zM0 256l170.67-85.33h38.16L38.16 256H0zM0 0l170.67 85.33H132.5L0 19.08V0zm303.17 85.33L473.84 0H512L341.33 85.33h-38.16zM512 256l-170.67-85.33h38.16L512 236.92V256z"/></g><path d="M481.7 463.15c3.36.47 128.2-32.03 127.96-82.72v-248.2H353.7v248.2c-.23 50.7 127.98 82.72 127.98 82.72z" fill-rule="evenodd" fill="#fff"/><path d="M-903.54 822.05c1.22 325.7-655.5 534.47-673.23 531.5 0 0-674.45-205.8-673.23-531.5 7.16-10.54 9.96-14.6 10.43-27.84 2.3-6.87 1.64-15.15 1.64-23v-23.03c-1.73-5.2-1.64-13.8-1.64-21.38-.22-5.82-1.64-15.47-1.64-16.45 1.27 9.47 3 14.1 6.56 1.64 2.5-6.3 3.92-11.45 6.58-19.74.3-8.1 1.64-14.6 1.64-23.02 0-7.97.38-15.56 1.65-21.38 2.53-2.07 4.74-5.72 8.22-3.3-.3 8.38-2.27 12.8-3.3 21.4v46.03c.17 5.43.92 9.97 3.3 13.14.3-8.1 1.64-14.58 1.64-23.02 1.9-5.7 3.06-13.14 6.57-18.1 2-7.38 5.22-13.5 8.22-21.36 2.5-7.8 5.03-13.2 6.57-19.73 3.63-4.08 7.64-11.02 11.5-14.8 8.46-5.43 5.96 2.76 3.3 9.86v23c5.8 1.67 2.1-2.32 6.58-6.56 1.58-6.1 5.3-14.35 8.22-19.74 2.92-4.74 6.7-9.2 9.86-14.8 3.42-2.1 12.53-8.06 13.16-8.2-3.66 3.8-6.8 9.35-9.88 14.78-1.26 5.82-1.64 13.4-1.64 21.38.6 15.8 3.82 3.08 6.58-3.3 3.35-2.73 1.82-4.58 8.22-4.92 9.7-6.53 6.58.65 4.93 8.22-1.3 7.35-1.63 14.84-1.63 23.02 0 8.93 1.54 12.75 1.64 21.38 0 7.58-.08 16.17 1.66 21.37 1.17 8.88 3.58 12.6 6.57 19.74 2.5 7.25 5.42 11.87 8.22 18.08 6.44 7.9 3.3.72 3.3-8.22V697.2c3-5.17 3.88-11.46 8.2-16.45 1.66-6.02 4.66-10.68 8.24-14.8 2.44-3.9 6.15-8.8 8.2-13.16v23c0 8.2.34 15.68 1.65 23.03 2.26 7.62 3.93 12.3 4.94 19.74 4.28 2.78 5.9 6.9 9.85 9.86 2-7.6 3.3-14.4 3.3-23.02v-23c1.36-7.7 2.9-14.08 4.92-19.74 2.22-6.98 3.68 1.8 4.94 4.93 2.85 6 5.8 9.15 9.87 16.44 4.83 3.45 6.08 8.78 9.87 13.15.87 4.03 1.3 13.1 3.3 16.43 1.76-8 4.73-12.82 6.56-21.37 4.93-4.83 7.83-8.23 13.16-11.5 8.36-1.62 12.2-3.93 19.73-4.94 10.4 0 8.53 1.06 1.63 6.57-2.6 4.24-6.36 10.86-9.86 14.8-1.02 7.5-2.97 11.2-3.3 19.72.6 8.43 3.03 15.1 4.94 21.38 4.13-4.6 8.7-14.52 11.52-19.73 4.4-5.04 6.44-12.48 9.87-16.45 3.53-4.3 8.12-7 14.8-8.22 4.07-3.06 8.88-3.3 16.43-3.3 15.1 4.84 31.93 3.45 47.7 4.95 12.18 0 19.9-2.24 31.23-4.94 12.34-2.53 25.4-2.78 37.82-4.92 12.52 0 26.4-1.1 37.82 1.65h32.88c11.9 0 23.53-.25 34.53-1.65 13.28 0 26.78.6 39.48-1.64 14.64 0 28.33-1.16 42.75-1.65 19.75 0 38.05-2.36 57.55-3.3 14.92-.63 26.9-5.4 41.1-8.22 9.54-2.17 20.72-1.64 31.25-1.64 12.48 0 22.46 2.22 34.53 3.3 10.27 0 19.68.84 29.6 1.63H-1350c12.1 0 23.2.75 34.54 1.65 10.3 0 19.66.83 29.6 1.64h26.3c7.23.86 16.22 1.02 23.03 3.3 9.55 0 17.27 1.3 26.3 1.63 8.52.5 15.73 1.64 24.67 1.64 8.26.3 15.3 1.9 23.02 3.3 6.98.93 12.6 2.72 18.1 4.92 4.63 2.2 12.23 5.28 16.43 8.22 9.12 0 13.08-1.72 19.73-3.3 4.58-3.52 9.64-3.64 9.86-6.56-5.08 4.52-9.45 5.57-11.52 13.15-1.03 2.56-4.34 12.03 0 9.87 6.04-3.53 10.35-7.55 13.16-13.16 4.7-6.62 6.86-10.68 11.5-16.44 3.45-6.62 9.22-10.77 13.16-14.8 4.6-6.76 7.28-10.17 3.3 1.64-1.42 7.92-2.73 14.02-3.3 21.38-.94 6.97-2.73 12.6-4.93 18.1 0 5.07-.42 10.4 1.64 13.14 7.6-2.17 15-6.2 19.74-9.87 6.5-1.77 11.97-5.25 18.1-9.86 8.1-2.03 13.32-2.3 14.8-4.93-4.44 4.52-8.66 8.44-13.16 11.5-2.2 4.62-5.98 7.35-4.94 11.52 5.1-1.1 14.94-1.7 19.73-3.3 7.7-2.66 11.16-4.3 19.74-6.57 14.77.18 2.5 2.23-4.93 6.57-4.46 3.03-9.07 7.54-14.8 11.5-3.67 6.83-6.16 12.18-9.86 16.45-1.92 7.16-4.58 12.25-8.2 16.45-1.47 6.18-3.55 11.66-4.95 18.08-1.42 10.56-5.32 13.1 6.58 8.22 5.1-5.56 10.03-10.2 13.16-14.8 3.02-4.72 7.16-10.54 11.5-14.8 2.26-6.38 5.8-8.9 9.86-16.44 3.66-3.83 8.8-9.6 13.16-14.8 3.76-3.6 8.94-7.38 14.8-9.86 9-3 7.86-8.78 4.93 1.64-3.47 4.2-5.58 9.8-6.58 16.46-3.57 14.82.36 9.16 6.58 4.93 5.34-4.42 3.35-7.5 11.5-9.88 1.8-1.5 10.56-6.3 8.23-1.64-1.12 7.4-3.9 10.8-6.58 16.44-3.6 6.53-6.48 11.72-8.22 18.1-2.9 3.87-5.02 8.33 0 6.57 8.47-1.9 11.08-4.93 16.45-8.23 3.2-7.3 6.35-9.63 9.86-14.8-2.02 8.05-4.9 13.58-6.58 19.73-3.8 4.37-5.75 9.3-8.22 16.44-3.6 7.02-4.83 10.37-4.94 19.73-2.2 7.48-5.06 12.9-1.64 19.74 5.2-5.4 9.86-8.83 13.15-16.44 3.4-4.1 5.15-10.4 6.58-16.44 1.56-6.66 3.94-10.75 4.93-18.1 2.3-6.86 1.64-15.14 1.64-23v-23.03c-.1-7.87-2.58-14.37 0-19.74 5 5.1 6.26 9.7 9.87 16.44 2.1 8.45 5.83 13.22 6.57 21.38 3.34 4.9 3.84 10.93 6.57 18.1.58 8.06 2.1 15.07 0 21.36-.5 5.3-3.06 9.07 0 13.16 5.3-4.4 5.54-10.92 6.58 3.3 0 7.2.25 14.06.84 21.25z" fill-rule="evenodd" transform="matrix(.19 0 0 .156 781.42 252.48)" stroke="#002b00" stroke-width="11.13" fill="#007a0f"/><path d="M-2178.7 685.68c-.62 4.25-1.64 17.06-1.64 26.3 0 8.4.75 14.82 1.64 21.38.55 5.92 1.88 6.8 0 11.5m24.6-72.34c.63 4.25 1.65 17.06 1.65 26.3 0 8.74-1.08 14.03-1.65 21.4-.3 8.07-1.64 12.42-1.64 21.36v6.58m-16.46 11.5c1.55 0 .93 4.2 1.64 9.88.95 7 2.5 12.97 4.93 18.08.35 9.4 2.15 11.43 8.23 14.8 5.87 5.8 8.03 9.7 11.5 14.8 4.2.74 4.92 1.85 6.58 4.93M-2229.7 809h1.64c8.48 1.4 20.16 1.24 26.3 3.3 6.34 1.46 13.96 4.53 18.1 8.2 6.65 7.4 9.26 12.75 18.08 16.45 7.4 4.32 14.86 5.9 23.03 8.22 7.6 3.2 12.6 5.63 18.08 8.23 7.8 4 14.04 8.47 23.02 9.86h23.02c7.7 0 12.64.26 16.45-3.3l-16.45 3.3c7.7 0 12.64.26 16.45-3.3m-138.12 67.43h52.62c3.4 7.07 6.48 9.27 13.16 11.5 5.33 3.9 12.28 6 19.73 6.58h3.3m-74 9.87c4.47-.92 17.27-4.3 26.3-4.93 9.63 0 14.8 2.07 19.74 6.57 5.04 3.42 8 6.6 14.8 9.86 7.27 2.5 14.62 3.3 23.02 3.3.78 2.3.48 1.63 3.3 1.63m-65.76 16.43h29.6c5.9 2.8 10.77 3.15 13.15 9.87 6.82 5.74 9.83 9.5 19.73 9.87 3.8 1.97 11.83 1.64 18.1 1.64m-1.68 36.2h29.6c9.65.98 16.5.28 21.37 6.58 5.42 7.8 9.97 6.08 16.44 9.87 5.7 0 9.46 1.18 14.8 1.64m-11.5 27.9c4.25.62 17.06 1.64 26.3 1.64 9.1 1.23 9.77 3.4 14.8 9.87 2.75 9.6 7.5 8.93 18.1 9.87 7.2 0 12.97-.53 18.1-1.64m-212.1-348.57l1.64 1.64c-3.73-3.73-1.93-2.36 1.65 6.58.6 8.07 2.04 12.86 4.92 19.73 3.9 5.62 7.18 11 9.87 16.46 2.9 6.68 6.8 11.84 11.5 16.44.7 2.1 1.2 2.6 3.28 3.3m1.62-57.56c.84 0 5.23 5.1 8.22 9.87 5.7 4.08 10.23 9.2 14.8 14.8 5.13 3.4 11.1 7.56 18.1 11.52 7.97 2.76 10.73 5 18.07 8.22 3.86 3.35 10.8 5.8 16.44 8.22 2.42 0 1.25-.4 3.3 1.64m-41.14-70.7c-1.8 0 0 4.24 0 9.87 2.75 6.08 7 12.12 11.5 18.08 5.22 3.45 10.5 10.5 14.8 16.45 2.66 4.22 5.7 7.3 11.52 9.86m1.68-67.42c.06 5.88 1.62 16.94 3.3 26.3 2.85 6.83 4.97 11.3 6.57 18.1 1.03 6.85 3.62 12.83 8.22 18.08 3.76 4.78 10.22 9.5 16.43 11.5 6.35 2.73 10.8 4.84 19.73 4.95 6.56-.9 13-1.65 21.38-1.65h13.16" transform="matrix(.19 0 0 .156 781.42 252.48)" stroke="#002b00" stroke-width="11.13" fill="none"/><path d="M-1999.5 753.1c.14 5.28-1.4 10.77 4.93 14.8 2.13 6.66 6.84 14.36 11.5 21.38 4.18 5.28 9.97 9.13 18.1 9.86 5.77 1.34 14.5 2.64 21.38 4.93 6.25 4.06 12.8 10.9 21.38 13.16l-21.37-13.16c6.25 4.06 12.8 10.9 21.38 13.16m-62.48-64.13c4.35 5.55 16.15 17.8 24.67 26.3 5.88 4.87 11.94 8.74 18.08 11.52 7.52 1.16 15.8 4.45 21.38 6.58 3.6 1.53 4.6 3 9.86 3.3m-51-67.44l1.65 1.65c-4.68-4.67-2.25-2.14 8.22 6.58 6.14 4.96 8.58 6.28 9.86 14.8 3.02 2.85 4 7.92 8.22 4.93-.52-9.72-5.03-13.1 3.3-8.2 3.02 6.32 6.74 11.46 11.5 14.8 3 3.16 6.52 4.73 13.16 4.92m115.1 182.53c4.13.52 21.43.57 29.6 3.3 7.35 1.3 14.84 1.63 23.02 1.63 8.32-.3 13.02-2.78 21.38 0 9.6.74 10.67 3.03 18.08 9.87 6.1 4.14 8.73 8.8 13.16 16.44 1.94 1.24 14.26 8.82 4.93 3.28m-118.37-74c5.5 2.9 18.24 10.32 24.66 14.8 8.63 1.92 11.1 4.66 19.74 6.58 8.8-.1 14.34-2.34 21.37-3.3 5.52-1.83 14.4-2.32 21.38 0 7.45 2.6 12.13 4.86 18.1 8.23 3.25 4.07 13.54 11.5 3.27 3.28-2.74-3.84-3.83-4.4-8.22-6.58m-65.8-26.3c6.03.17 21.04 2.17 31.24 3.3 6.88 2.28 15.55 2.74 23.02 3.28 8.66 1.54 15.1 2.1 21.38 6.57 4.43 2.98 10.56 8.75 14.8 13.16 9.3 4.04 3.64 3-3.3-3.28m-62.44-37.82c6.48 0 16.65 1.45 26.3 3.3 3.83 4.6 10 5.9 18.1 8.2 5.73 1.4 9.92 4.73 16.44 8.23m62.46 103.57l1.64-1.64c-3.62 3.62-2.4 1.8 6.58 0 9.97-2.7 19.28-3.77 29.6-1.65 8.04 0 15.9.15 23.02-1.63 3.3-2.48 7.45-1.3 9.86-4.94 4.74-.83 4.58-4.6 4.94 0m-70.64 36.17c8.7-.44 26.4-1.55 36.18-8.22 6.37-1.94 12.67-5.53 19.73-6.58 8.4 0 15.18-1.08 23.03-1.64 9.47-.5 17.94-1.65 27.95-1.65h24.67c8.3 0 15.43.75 23.02 1.66 6.47 1.13 14.2 4.9 18.1 8.22 5.83 1.27 12.43 1.88 18.07 0m-21.44 154.62l1.64-1.64c-3.38 3.38-2.34 2 4.93-1.64 9.8 0 18.97-.48 27.96-1.65 8.6.28 17.5 1.2 23.02 4.93 7.66 2.47 15.1 3.36 21.37 6.58 8 2.96 13.02 4.97 21.38 6.58 4.48 2.24 15.13 1.73 21.38 3.3 8.04 0 15.9.12 23.02-1.66 8.55-1.83 13.37-4.8 21.37-6.57 5.35-5.16 12-8.15 19.74-9.87 3.2-3.85 7.66-8.33 11.52-11.5l-11.5 11.5c3.17-3.85 7.64-8.33 11.5-11.5m24.68-393.03c6.1-.42 18.58-2.76 26.3-6.58 6.47-1.82 14.23-5.02 18.1-8.22 6.5-1.78 10.7-4.02 18.1-6.58 6.88-4.92 14.67-9.03 18.07-13.15 9.14-4.2 11.3-6.84 14.8-14.8 1.86-2.48.95-4.15 3.3-4.93m37.83 0c-.84 0-5.23 5.08-8.22 9.86-5.65 5.27-11.05 12.92-14.8 19.73-4.4 2.98-9 7.95-14.8 11.5-7.43 6.36-13 10.32-21.38 14.8-6.2 4.14-11.8 6.46-19.73 8.23-7.7 2.66-11.15 4.3-19.73 6.57m133.16-65.77l-1.64 1.64c4.12-4.12 2.12-2.24-4.94 6.58-5.63 5.15-11.9 12.18-14.8 16.44-4.66 3.1-12.7 11.3-18.08 14.8-7.3 6.08-14.1 8.03-19.73 13.16-8.1 3.12-13.16 6.54-21.37 9.86-4.7 2.23-11.82 3.87-16.44 6.58h-4.95m92.05-9.87l-1.64 1.63c3.9-3.9 2.04-2.3-3.3 6.58-5.88 4.1-8.5 7.97-14.8 11.52 0 2.2.56 1.65-1.63 1.65m92.13-49.33c0 .48-3.04 4.8-4.93 9.87-4.54 4.64-6.78 11.24-11.5 16.45-3.63 7.55-6.48 9.2-13.17 16.44-4.38 2.8-11.43 7.3-14.8 11.5-6.74 2.96-11 6.38-18.08 8.22m6.52 13.16c6.05-2.2 16.37-7.74 23.02-11.5 5.6-3.02 12.12-7.2 16.45-9.88 2.2-6.17 7.13-9.36 14.8-13.15 3.3-4.86 8.1-7.8 13.15-13.16 5-2.76 6.67-6.43 9.87-9.87m-80.5 65.77c6.9-.06 19.93-.15 27.95-4.93 8.64-2.7 11.64-6.05 19.73-8.23 4.5-3.16 11.57-6.27 16.44-9.86l-16.44 9.86c4.5-3.16 11.57-6.27 16.44-9.86m64.1-18.1c-3.6 6-11.34 19.2-19.73 24.67-3.22 3.88-11.5 7.53-16.46 11.5-5.16 2.46-12.76 5.73-19.73 9.88-7.78 1.67-13.16 3.72-19.72 6.58m-55.88 32.9c5.66-2.4 16.06-8.2 24.66-11.5 4.1-2.06 8.2-1.65 13.16-1.65m-.02 23c.57 0 4.97-4.12 9.86-6.57 6.45-4.05 13.7-8.15 19.73-11.5 6.84-1.8 14.32-6.83 23-8.23 4.45 2.22 14.74 2.8 21.4 3.3h9.86m-62.5 36.17c7.1-.18 17.9-.32 24.67-4.93 5.43-.94 10.28-2.52 13.16-4.95m-154.6 87.15c1.36.07 9.17 1.58 13.15 3.3 5.72 2.85 8.5 6.14 14.8 9.85 5.45 4.78 12.54 6.27 21.37 6.58h23.03c9.67-.55 14.08-2.96 23.02-3.3 7.7 0 13.06-1.07 18.08-3.28m-131.55 6.55c6.77.18 10.95 1.22 18.1 4.93 8.06 7.02 13.63 11.2 23 13.16 7.36.55 12.65 1.63 21.38 1.63 8.05 0 15.9-.13 23.02 1.65 6.36.18 8.03 1.64 14.8 1.64" transform="matrix(.19 0 0 .156 781.42 252.48)" stroke="#002b00" stroke-width="11.13" fill="none"/><path d="M75 82.95c-1.05 0-2.3.08-2.9-.3-1.2-.2-2-.68-2.63-1.44-1.08-.74-1.42-1.43-2.32-2.3-.3-1.08-.83-1.9-1.46-2.63 0-1.65.3-2.23.87-3.2 1.37-.47 1.9-.86 3.48-1.16.76-.5 1.96-1.02 2.9-1.44-.43-.74-.88-1.2 0-2.04.75-.7 1.6-1.25 2.92-1.45 1.48.13 1.82.7 2.6 1.45 1.44 0 2.82-.02 4.08.3 1.17.3 1.9.7 3.2 1.45 1.18.4 1.73.78 2.33 2.03.93.9.3 1.52.3 2.9-.18 1.93-.8 1.8-1.76 2.63 1.32.67 2.32.8 3.78.87h8.14c1.36-.37 1.55-.82 2.03-2.04.37-.92.88-2.1 1.17-3.2.64-.74.98-1.7 1.74-2.32.53-1.1 1.2-1.95 2.04-2.62.82-1.18 1.52-1.7 2.6-2.32.92-1.06 1.72-1.4 0-1.45-1.38.24-1.96.92-3.47 1.16-.3-.72-.24-1.66.3-2.32.37-1.44 1.12-2.24 1.44-3.5.67-.77.9-1.83 1.44-3.18-.1-1.27-.34-2.38-.58-3.5-.4-1-.58-1.9-.58-3.48.3-1.24.57-1.98 1.45-2.6.54-.98 1.14-1.48 2.33-2.05.58-.82 1.4-1.28 2.33-1.74.64-.8 1.4-1.24 2.02-2.33.36-1.02.7-2 .87-3.2.4-.8.53-2.54.57-3.78-.02-1.54-.2-2.37-.87-3.2-.36-.9-.64-2.13-1.16-2.9 0-1.58.17-2.47.58-3.5.3-1.54.3-1.94.3-1.15v-.3c1.65 1 2.1 1.4 4.06 1.46.8 0 1.34-.08 2.03-.3 1.67.2 2.28.2 2.34-1.73.26-1.04.5.35.58.87.64 1.28.7.47 1.45-.3.48-1.42 1-.6 2.04-.28.12-.36.5-.5.88-.9.22 1.1.54 2 1.45 2.34 1.47-.27 1.55-.85 1.75-2.33 1.04-.2 1.12-.53 1.16.9.76.14 1.38.48 2.03 0 .26-.66.56-1.22.87-1.76.38 1.7.52 1.97 2.33 2.04.6-.56.84-.87.87-2.04.66.8 1.5 1.33 2.9 1.46 1.18.1 1.03.54 2.34.58.33.7.48 1.95 1.16 2.62 1 .64 2.35.86 2.9.58 0-.8-.1-1.64.3-2.04 1.13-.38 2.12-.1 3.2.3 1.47.4 1.45.74 1.45 2.6-.1 1.4-.3 2.77-.9 3.5-.22 1.08-.25 2.6-.86 3.78-.5 1.62.43 1.7.58 3.48.24 1-.27 2.28-.3 3.78.03 1.6 0 2.4 1.18 2.9.67 1 1.5 1.5 2.32 2.33 1 1.14 1.43 1.65 2.04 2.63 1.05 1.2 1.2 1.72 2.03 2.9.48.98.93 1.68 1.45 2.92.35 1.05.23 2.4 0 3.5-.93.72-1.4 1.58-1.46 3.18-.42.82-.5 2.42-.6 3.5.3 1.2.9 2 1.47 2.9.6.75 1.6 1.54 2.32 2.03.63.74 1.07 1.63 1.73 2.33.4 1.25.86 1.8.88 3.48.25 1.1.5 2.22.6 3.5.66.62.58.86 2.02.86.9.52 2 .58 3.5.58 1.3.1 2.23.3 3.77.3 1.17 0 2.4-.02 3.2-.3.6-.95.94-2.58 1.44-3.5.1-1.26.34-2.36.58-3.48.7-.72 1.2-1.46 2.04-2.03 1.2-.6 1.96-.8 3.5-.86 1.4.4 2.36.77 3.18-.3 1.13-.3 1.84-.58 3.5-.58 1.7-.43 2.17-.2 2.9.88.24 1.1.47 2.35.87 3.2.67.44 1.7 1.17 2.34 1.74.4.86.58 1.47.58 2.9.52.88.12 1.9 0 2.9-.7.73-1.2 1.53-2.04 2.33-.35.45-.77.77-1.45.9l.58.57-10.16 10.17-106.1-.87L75 82.97z" fill-rule="evenodd" transform="matrix(1.452 0 0 1.4 292.48 115.16)" stroke="#2b2b2b" stroke-width="1pt" fill="#d40f0f"/><path d="M129.93 29.47l.3.3c-.74-.74-.38-.4.86 1.15V35c0 1.65.27 2.35.57 3.48.4.33.48.84.88 1.16m6.1-9.88v.3c0-.86.05-.38-.87 1.15-.6 1.36-.58 2.17-.3 3.5.3.92.3 2.44.3 3.78-.16.47-.14.12-.3.58m7.28-1.74h-.3c.86 0 .38-.05-1.15.87-1.3.8-1.78 1.23-3.2 1.44-.94.93-1.5 1.15-3.2 1.17-.13.42-.07.3-.57.3m1.45 1.45v.3c.38-.15 1.73-.52 2.33-.6.73-.6 1.9-.83 2.62-1.44 1.12-.14.76-.54 2.04-.58l-2.04.6c1.12-.16.76-.56 2.04-.6m-2.62 3.5c.5 0 2.54.08 3.5.28h1.44m-38.66 6.4h.3c-.8 0-.4.02 1.15-.3 1.3-.1 2.38-.32 3.78-.57 1.56-.4 2.17-.4 3.2-1.46 1.16-.77 1.55-1.45 1.74-2.9.2-.93.32-2.03.87-2.62m1.74 3.78v1.45c0 1.5.07 2.6.6 3.5.6 1.24.96 1.8 2.03 2.32l2.9 1.16h.87m.88-1.45h1.45c2.16 0 4.02.24 6.1.3h4.08c1.44-.05 2.6-.3 4.08-.3h2.9m-25.3-9.88h1.46c1.2-.4 2.82-.35 4.07-.58.53.28.9.63 1.47.87m-5.8-4.35h.28c-.78 0-.4-.02 1.16.3.73.62 1.44.98 2.63 1.16m-3.2-4.35h.3c-.8 0-.4-.02 1.15.3.75.75 1.95 1.46 2.62 2.3.64.4 1.02.84 1.74 1.18M115.7 53.88v.28c0-.86-.06-.38.86 1.16.1 1.36.2 2.92.87 3.78.2 1.4.24 1.8-.3 2.9-.44 1.02-1.02 2.33-1.73 2.9-.58.87-1.44 1.22-2.04 2.05-.75.53-1.53 1.58-2.03 2.32-1.1 1.23-1.36 1.95-2.33 2.6-.37 1.13-.9 1.67-1.45 2.9-.87 1.04-1.5 2.04-2.03 3.2-.4.96-.47 2.57-.87 3.8v.86m7.84-2.6v-1.47c0-1.47.12-2.73.28-4.07.45-1.04.88-2.2 1.16-3.5.6-.87.86-1.77 1.46-2.9.3-1.14.9-2.02 1.74-2.62.37-1.08.83-1.72 1.45-2.9.45-.92 1.37-2.06 1.74-3.48.44-.53.6-1.4.87-2.33m2.63 1.45v.3c0-.82.04-.4-.58 1.15-.45 1.25-1.14 2.3-1.45 3.5-.6 1.3-1.02 2.7-1.46 4.06-.23 1.3-.3 2.62-.3 4.07v4.07c0 1.48-.26 2.6-.28 4.07-.37.74-.5 1.52-.3 1.74m7.57-21.8c-.28 0-.17.75-.3 1.75-.1 1.37-.28 2.42-.28 4.07-.3 1.38-.7 2.54-.87 3.78-.4 1.38-.82 2.14-.88 3.78.6.88 1.35 1.5 1.75 2.9.47.96 1.02 1.95 1.45 3.2 0 1.58.27 2.26.3 3.8 0 .7-.06 1.15.28 1.73m4.36-22.96v.3c0-.82.04-.4-.58 1.16-.92 1.24-1.5 2.33-2.04 3.2-.44 1.37-.94 2.7-.58 4.07.1 1.33.35 2.9.87 3.77.07 1.43.3 2.2.3 3.78.1 1.3.3 2.24.3 3.78 0 1.2 0 2.42-.3 3.2-.54.23-.4.5-1.16.58m-.58-30.8c-.37 0 .17.77.3 1.73.4.68.28 2.1.28 3.2m4.65-4.06h.28c-.9 0-.37-.06 1.16 1.16.22 1 .44 2.12.58 3.2m4.08-5.23v1.45c.3 1.4.58 2.5.58 4.07l-.58-4.08c.3 1.4.58 2.5.58 4.07m2.9-5.24h.3c-.87 0-.38-.05 1.15.87v.87m-3.2 5.23h-.28c.9 0 .35-.07-.87 1.46-.46.9-1 1.65-1.46 2.6-.53 1-.73 1.5-.87 2.62m-1.45-6.1c-.17 0-.5.9-1.16 1.45-.26 1.2-.57 1.96-.58 3.5 0 1.87.35 2.2 1.16 3.48.68.78 1.05 1.5 1.16 2.9v8.14c-.2 1.33-.57 1.98-1.45 2.6-1.12.73-1.26.2-2.04-.86-.28-.9-.66-1.32-.88-2.33m11.34-19.47v.3c0-.8.02-.4-.3 1.16-.52 1.3-1.3 2.57-1.74 3.48-.4 1-.58 1.9-.58 3.5.25 1.35.53 2.6.58 4.05 0 1.6-.4 2.53-.58 3.78-.57 1.1-1.07 2.45-1.74 3.2-.16.47-.14.13-.3.6m8.14-23.26v.3c0-.82.04-.4-.58 1.15-.1 1.44-.42 2.57-.58 3.77-.4.9-1.06 2.6-1.46 3.5-.6.97-.87 1.44-.87 3.2.6 1.02 1.52 1.93 2.62 2.3.44.96.64 2 1.16 3.2.1 1.44.42 2.68.58 4.08v1.16m2.34-20.34l-.3.3c.65-.65.33-.43 0 1.16 0 1.48-.18 2.68-.28 4.07-.52 1.02-1 2.23-1.16 3.47.25 1.38.9 1.7 2.03 2.33.68.64 1.66 1.2 2.62 1.74 1.08.64 1.83 1.35 2.6 2.33.88 1.07 1.42 1.3 2.05 2.6.16 1.25.55 2.4.3 3.5 0 .4.08.3-.3.3m-5.52-28.5h.3c-.92 0-.36-.07.86 1.46.32 1.26.3 2.65.3 4.07.55.82.77 1.9.87 3.2.3.92.3 2.44.3 3.78-.1 1.13-.46 1.83 0 2.9 1.26.77 2.14 1.6 2.9 2.33 1.07.54 1.5 1 2.33 2.04.53.94 1.14 1.92 1.74 2.62.23 1.3.3 2.62.3 4.07 0 1.7.04 2.55-.88 3.5-.45 0-.94.07-.3.28m-12.8-42.14v1.45c.2 1.4.87 2.3 1.75 3.2.55.8 1.24 1.5 2.04 2.05 1.1.38 1.52.58 2.9.58m-3.2 1.45h.3c-.8 0-.4-.02 1.15.3 1 .48 1.48 1.16 2.33 1.73.24.92.6 2.38 1.16 3.2.2 1.17.38 2.26.87 2.92M127.9 44.3v1.45c.83.72 1.55.87 3.2.87 1.3.1 2.23.3 3.78.3h4.07c1.55 0 1.87 0 2.32-1.46.6-.8-.2-1.1-.58-1.75l.57 1.76c.6-.8-.2-1.1-.58-1.75m25.86 41h.3c-.92 0-.38-.06 1.15 1.16.2.87.56 1.33.9 2.04" transform="matrix(1.452 0 0 1.4 292.48 115.16)" stroke="#2b2b2b" stroke-width="1pt" fill="none"/><path d="M83.42 73.07h-.3c.87 0 .4-.05-1.15.87-.85.6-1.43 1.48-1.74 2.62-1.02.68-.44 1.13.87 1.16 1.74-.02 2.2-.2 3.2-1.16.7-.53 1.15-1.38.58-2.33l-.58 2.33c.7-.53 1.15-1.38-.87-3.5z" fill-rule="evenodd" transform="matrix(1.452 0 0 1.4 292.48 115.16)" stroke="#000" stroke-width="1pt"/><path d="M171.2 85.57v.3c0-.8 0-.4.3 1.15.15.36.26.66.58.88m2.04-2.62v1.45c.5.7.96 1.5 1.45 2.04m1.45-2.62v.3c0-.86-.05-.38.87 1.16.12.38.2.47.57.6M86.9 85v1.44c-.2 1.1-.9 1.83-1.44 2.33l1.45-2.33c-.2 1.1-.9 1.83-1.44 2.33m4.65-2.9v1.44c-.4.6-.65.96-1.15 1.18m3.78-3.2v1.45c-.07.72-.4 1.1-.58 1.75m4.35-3.78h.3c-.08.2 0 1.3 0 2.03-.32.6-.78.7-1.17 1.17" transform="matrix(1.452 0 0 1.4 292.48 115.16)" stroke="#2b2b2b" stroke-width="1pt" fill="none"/><path d="M461.77 151.5h-.42c.14.4.6 2.3.84 2.86 1.16.8 1.77 2.07 2.52 3.25 1.05-1.16 1.27-2.16 1.27-4.46-.57-1.57-2.27-1.4-4.23-1.63zm49.4 1.64c-.13 0-1.24.75-2.54 1.22-.3 2.23-.17 2.47.84 4.06 2.02-.15 2.06-.58 2.54-2.44.94-1.2.28-.92-.84-2.84z" fill-rule="evenodd" fill="#2b2b2b"/><path d="M144.18 31.5h-1.16c-1.55-.27-2.4-.36-3.5.58-.33 1.26-.5 2.26.3 2.9 1 .26 1.57.66 2.6.9.58-.93 1.03-1.6 1.76-2.63.67-.23.2-.72 0-1.75v1.75c.67-.23.2-.72 0-1.75m-14.83 0l-.3-.3c.67.68.43.36-1.15-.27-1.34 0-2.86-.02-3.78.3-.37.7.44 1.26 1.16 1.73.8.54 1.5 1.23 2.04 2.03.8.6.98 1.42 2.03 1.74.47-1 .88-1.72 1.16-3.2-.17-.55-.65-1.15-1.15-2.04z" transform="matrix(1.452 0 0 1.4 292.48 115.16)" stroke="#2b2b2b" stroke-width="1pt" fill="none"/><path d="M78.2 71.62c-.34 0-2.43-.02-3.2.3-.8 1.24-.64 1.92.28 2.6.25 1.62.78 1.68 2.62 1.75.77.58 1.5.37 1.75-.58.5-.84.25-1.75-.3-2.34 0-.9.07-.2-1.16-1.74zm-6.1 5.52h-.3c.8 0 .32-.1-.3 1.45 0 .9-.07 1.83.3 2.32 1.04 0 2.3.08 2.9-.3.48-1.27.56-2.23-.58-2.6-.38-.58-1-.58-2.03-.88zm11.03 3.5h-1.45c-.6.52-1.36 1.16-1.74 2.02 1.2.34 1.57 1 2.32 1.75 1.9-.02 2.16-.1 2.33-2.03 0-1.13.03-.44-1.47-1.74zm99.12 1.44h-1.45c-1.37.44-1.63.9-1.75 2.62.86.5 1.94 1.1 3.2 1.45.9.53 2.12.75 3.5.3.56-.93 1.02-1.18 1.15-2.62-1-.3-2.54-.9-3.2-1.46l3.2 1.46c-1-.3-2.54-.9-4.65-1.75zm2.9-6.97h-.28c.9 0 .35-.07-.87 1.46-.3 1.42-.06 1.96.58 3.2 1.28.63 1.4 1.6 2.6 2.03.57.55.3-.76.3-1.46.25-1.54.76-1.95.88-3.5-.27-1.08-.62-1.67-1.75-2.02l1.76 2.03c-.27-1.1-.62-1.68-3.2-1.74zm6.7.88h-.3c.92 0 .36-.08-.86 1.45-.57.93-.6 2.33-.6 3.78.5 1.3 1.2.5 1.75-.28.98-.67 1.4-.94 1.45-2.62 0-1.37.02-.75-1.45-2.32zm4.07 4.07h-.3c.8 0 .4-.02-1.15.3-.97 1.1-1.7 1.66-2.04 3.2 1.36.28 2.25.08 3.78-.3.64-1.37.7-1.1-.28-3.2z" fill-rule="evenodd" transform="matrix(1.452 0 0 1.4 292.48 115.16)" stroke="#000" stroke-width="1pt"/><path d="M477.7 160.03h-.97c-.4.5-.17 1.02.2 1.5.2.65.1.9.78 1.13.5.54 1.15.82 2 .94 1.35-.12.83-.45.58-1.32-.46-.5-.45-1.03-1.2-1.3-.2-.3-.82-.6-1.37-.95zm20.65.1c-.17.05-1.08.47-1.48.7-.68.88-.92 1.16-.63 2.07.7.3 1.5.56 2.53.7 1.04-.23 1-.77 1.06-1.85-.22-.57-.75-.92-1.48-1.6zm-22.82 22.27v2.33c.53 2.25.6 3.02 3.28 3.26h19.66c2.06-.2 1.87-.66 1.87-2.8.3-.5-.24-1.98-.94-2.8-1.86.65-2.3 2.35-4.7 2.8-2.68 0-3.95.02-5.13-1.4-1.35-.87-1.48-2.6-2.8-.94-1.52.9-2.93 1.4-5.63 1.4-2.86 0-2.9-.3-5.6-1.86z" fill-rule="evenodd"/><path d="M42.73-676h.3c-.92 0-.38-.07 1.15 1.15.13.7.3.85.3 1.75" transform="matrix(1.61 0 0 1.603 413.02 1254.83)" stroke="#2b2b2b" stroke-width="1.11" fill="none"/><path d="M481.1 174.02h-1.2c.34.44.6 2.8 1.2 3.7 6.07 0 3.23-.5 0-3.7zm9.12 1.08h-.3c.82 0 .4-.04-1.17.72-.56.98-1.4 1.45-.3 2.53 1.22.1 1.84.36 3.23.36v-2.52 2.53c0-.83 0-1.67-1.46-3.6z" fill-rule="evenodd"/><path d="M48.83-675.72h-.3c.8 0 .4-.02-1.15.3-.3.5-.73 1.04-1.16 1.44" transform="matrix(1.61 0 0 1.603 412.88 1254.83)" stroke="#2b2b2b" stroke-width="1.11" fill="none"/><g stroke="#2b2b2b" stroke-width="1pt"><path d="M81.97 123.07c-.64 0-3.02.04-4.36-.3-1.62.07-1.94.54-3.2.88-1.42-.05-2.2-.3-3.77-.3-1.13-.6-1.93-1.1-3.5-1.15-1.14-.16-2.28-.3-3.76-.3-1.7.03-2.3.53-3.5 1.17-.53.8-1.23 1.54-2.03 2.33-.64.94-1.2 1.34-2.32 2.32-.62.9-1.26 1.36-1.75 2.9 0 1.35 0 2.87.3 3.8.18 1.4.53 2.1.58 3.77 0 1.5-.1 2.76-.58 4.06-.33 1.44-.88 2.34-1.46 3.78-.3.9-.48 2.5-.57 3.77.2 1.23.8 2.4 1.16 3.8.34 1.4.63 2.6 1.16 3.48.33 1.12.84 1.02.87 2.62 0 1.57.27 2.25.3 3.78.42.86.63 2.28.86 3.48.68.84.85 1.73 2.02 2.33.25-1.4.48-2.5.58-3.8.17-.93.22-2.58.6-3.2.3 1.18.83 1.76 1.15 2.92.55.67 1.03 1.98 1.45 2.9.6.17.58-.05.58-1.16.35-1.02.54-2.2.88-3.48v-1.17c.72.84 1.2 1.98 1.74 2.92.55.8 1.1 1.63 2.03 2.33 1.4.33 1.17 0 1.17-1.46V162c.06 1.64.53 1.96.87 3.2.68.68 1 1.27 2.32 1.45.57-.93 1.17-1.42 1.74-2.6 0-1.62.13-2.54.58-3.5.87-1.07 1.25-1.46 2.33-2.33 1.13-1 2.2-2 3.48-2.6.72-1.04 1.57-1.72 2.62-2.63 1.18-1.08 2.18-2.37 2.9-3.77.85-.84 1.63-2.28 2.04-3.78.77-1.2 1.02-2.62 1.15-4.36.62-1.42 1.16-2.8 1.46-4.37 0-1.56-.12-2.84-.28-4.07-.72-1.2-1.2-2.68-1.75-3.48-.34-1.08-1.16-2.38-1.45-3.5-.75-1.4-.67-1.86-2.62-2.03-.9 0-.78-.1-2.03-.58z" fill-rule="evenodd" transform="matrix(1.394 0 0 1.436 301.25 111.57)" fill="#d40f0f"/><path d="M55.52 129.46v.3c0-.8-.02-.4.3 1.15.15 1.17.28 2.3.28 3.8 0 1.47.13 2.6.3 3.77.14 1.2.4 1.86 1.44 2.62m.6-4.66c.2 0 .3.9.86 1.45.3 1.07.82 2.18 1.45 3.48.3 1.5.7 2.2 1.17 3.2.27.68.37 1.56.87 2.03v-8.13c-.28-1.48-.58-2.4-.88-3.77v-1.75m2.03 4.36c.05.6.45 2.53.87 3.5.4 1.02.85 2.2 1.45 2.9.13.7.42 1.05.88 1.75 1-.8 1.76-1.46 2.03-2.9.44-1.04.77-2.2.87-3.5.1-1.44.42-2.57.6-3.78 0-1.52-.02-2.63-.6-3.48l.6 3.47c0-1.52-.02-2.63-.6-3.48m1.46 7.55v.3c0-.8 0-.4.3 1.15.2.97.3 2.16.3 3.5-.33.2-.45.8-.6 1.15M74.13 135v1.44c0 1.27.12 2.96-.3 3.78 0 1.48-.12 2.62-.28 3.78.38 1.92.7-.1.87-.87.36-.92.73-2.43 1.18-3.2.18-1.5.52-2.3.58-3.78.3-1.17.3-2.44.3-3.78m1.73-3.5c.1 0 .87.74 1.74 1.17.2 1.34.68 1.8.87 3.2v1.45m-2.9-7.85c.37.16 1.73 1.1 2.33 1.45.8.08 1.08.12 1.16.87m-3.8-4.07h1.46c.7.08.64.3 1.46.3" transform="matrix(1.394 0 0 1.436 301.25 111.57)" fill="none"/></g><g fill-rule="evenodd" stroke="#2b2b2b" stroke-width="1pt" fill="#d30f0f"><path d="M186.32 126.27h-1.45c-1.3.24-1.73.86-2.33 1.74l2.33-1.73c-1.3.24-1.73.86-2.33 1.74m4.36-3.48l-.3-.3c.65.65.43.33-1.15 0-.97-.2-1.07-.2-2.04 0" transform="matrix(1.394 0 0 1.436 301 112.55)"/><path d="M184.3 122.5h1.44c1.76.13 3.2.55 4.94.57 1.47 0 2.73-.13 4.07-.3.83-.4 2.5-.28 3.78-.28 1.66 0 2.42.17 3.78.57 1 .26 2.6.77 3.5 1.16.96.46 1.87.78 2.9 1.46 1.12.74 1.4 1.23 1.46 2.9-.15 1.14-.34 2.45-.58 3.77.1 1.44.4 2.67.58 4.07.32 1.26.3 2.65.3 4.07-.23 1.1-.7 1-1.17 2.05.8.54 1.8 1.58 2.3 2.32.26 1.37.54 2.6.6 4.07 0 1.63-.04 2.53-.6 3.78-.37 1.4-.82 2-1.15 3.5-.25 1.13-.73 2.3-1.16 3.2-.5.7-.82 2.26-1.17 3.18-.2 1.4-.63 2.7-1.17 3.5-.3 1.08-.44 1.9-1.45 2.32-.85-.22-.57-.78-.57-1.75.2-1.16.32-2 0-2.9-.95-.23-1.02.45-1.45 1.74-.62.67-.66 1.53-1.46 2.05-1 1.2-1.34.77-2.03-.88 0-1.54-.2-2.48-.3-3.78-.16-1.88-.34 1.04-.58 1.45-.33 1.48-.84 2-1.17 3.2-1.2.43-1.65.42-1.74-1.17.24-1.3.3-2.62.3-4.07-.73-.83-.78-.17-1.16.6-.07 1.7-.5 1.92-1.17 2.9-.97.58-.74.58-1.16-.87-.45-1.1-.8-1.52-1.73-2.03-.84-.73-1.55-.88-3.2-.88-1.52-.05-2.26-.55-3.5-.87-1.15-.33-2.28-.6-2.9-1.16-.55-.82-1.34-1.87-2.03-3.2-.75-1.38-1.1-2.24-1.16-3.8-.25-1.38-.42-2.92-.6-4.35-.32-1.97-.8-4.13-1.15-6.1-.5-1.56-1-2.93-1.16-4.65-.58-1.28-.9-2.67-1.16-4.07 0-1.34 0-2.86.3-3.78.55-1.08 1.2-1.8 1.74-2.62.82-1 1.36-1.75 2.62-2.6.65-.8 1.93-1.32 2.9-1.76.66-.28 1.1-.36 2.33-.58z" transform="matrix(1.394 0 0 1.436 301 112.55)"/><path d="M187.2 129.46v.3c0-.86.08-.35-1.45.57-.8.76-1.5 1.02-2.33 2.04-.18.43-.55.8 0 1.16m3.48-.87v.3c0-.8-.02-.4.3 1.15.04 1.4.28 2 .28 3.5-.53.9-.22 2.14.3 3.2.45 1.27 1.03 2.15 1.45 3.2.62.2.3-.23.3-1.17-.4-1.13-.24-2.6 0-4.07v-3.48m5.22-3.2h-.3c.82 0 .34-.1-.28 1.45v4.07c-.3.92-.3 2.44-.3 3.78-.3 1.43-.5 1.85 1.17 2.33.44.68 1.02 1.08 1.46 1.75.55-1.36 1.13-2.6 1.45-4.07.46-.84.65-2.56.87-3.78.48-.58 1.1-1.65 1.45-2.32m2.04-2.9v.28c0-.78 0-.39.3 1.16.02 1.27.3 2.2.3 3.5-.58.84-.66 2.02-1.17 3.2-.5 1.37-.85 2.44-.87 4.06 0 .97-.26 2.03.58 1.45.6-1.28 1.1-2.68 1.45-4.07.63-1.26 1-2.22 1.45-3.2.15-1.27.18-2.86.58-4.06l-.58 4.07c.15-1.28.18-2.87.58-4.07m4.36-4.36l-.3.3c.57-.58.32-.43 0 .86 0 1.34.15 3.2-.3 4.07-.2 1.73-.45 2.28-1.44 3.5-.2.5-.58 1.25-.88 1.44m-13.66-.28v.3c0-.8.02-.4-.3 1.15-.55.64-1.37 1.88-1.73 2.9-.25.1-.8.3-.3.3m1.45-1.45h.3c-.82 0-.34-.1.28 1.45.23.93.64.8.87 1.75" transform="matrix(1.394 0 0 1.436 301 112.55)"/></g><path d="M77.32 201.26c-.28 0-.17.74-.3 1.74v4.07c.2 1.44.7 2.8 1.46 3.5.47.45 1.45 1.2 2.04 1.74 0-1.54.2-2.47.3-3.77.48-.83.63-2.14 1.15-2.9.13-1.68.73-1.7 1.17-3.2.5-.73-.54-.8-1.46-.88-1.08-.25-2.1-.62-2.9-1.16l2.9 1.15c-1.08-.25-2.1-.6-4.36-.3zm15.12-.58h-.3c.86 0 .34-.08-.58 1.45 0 1.4.07 2.75.3 3.78.6.74.8 1.93 1.16 2.92.52.32.84-.47 1.16-1.16.6-1.46 1.25-2.14 1.45-3.5.32-1.16.87-1.64 1.16-2.9-.62-1.3-.95-1.85-2.62-2.03-.73.73-.18.2-1.75 1.45zm76.15-.3h.28c-.16.43-.3 1.74-.3 2.63-.2 1.22-.44 2.3 0 3.5.84.36 1.38.64 1.75 1.45.68.57.83.87.88-.58.64-1.4.93-1.74 1.75-2.9.58-1 .8-1.67.58-3.2-.75-1.53-1.17-1.7-2.9-2.04-1.83 0-1.8 1.36-2.33 2.6m14.54.3h-.3c.24.6.6 1.86.6 2.9.22 1.3.28 2.63.28 4.08-.17 1.16-.46 1.17.87 1.17.54-1.3.97-2.27 1.74-2.9.37-1.23.8-1.96.87-3.5 0-1.2.1-2.72-.28-3.5-2.1 0-2.04.3-3.78 1.76zm12.8-6.4h-.3c.8 0 .38-.02-1.16.6-.72.93-1.83 1.4-1.46 2.9 1.46.5 2.27.85 2.9 1.74.94.5 1.6.9 2.04 1.75.53.35.84.9 1.17 1.45-.18-1.46-.48-2.44-.58-3.78-.02-1.66-.3-2.24-.88-3.2-.1-1.06-.42-.82-1.74-1.46zm2.02-5.8h-.3c.86 0 .38-.06-1.15.86-.64 1.17-.66 2.16-.28 3.2 1.42.2 2 .82 2.6 1.73.88.87 1.48 1.45 2.34 2.04-.62-1.06-1.18-2.03-1.46-3.2-.04-1.3-.26-2.23-.58-3.2l.58 3.2c-.04-1.3-.26-2.23-1.74-4.65zm-128.2 5.8c-.1 0-.92.55-1.44 1.17-1.42.78-2.18 1.23-2.33 2.9-.06 1.4-.3 2-.3 3.5.4.4.08 1.67.58 1.16.9-.97 1.34-1.86 2.33-2.6.67-.64 1.9-1.3 2.9-1.76 1.64-.47 1.5-.3.6-1.74-.52-.88-1.2-1.35-2.33-2.62zm-2.02-5.5h-.3c.86 0 .38-.06-1.16.86-.72.9-1.62 1.17-2.03 2.32-.68.82-.86 1.65-.87 3.2.02.93.18 1.82.58 2.32.4-1.1.86-1.74 2.03-2.33.7-.45.9-1.08 1.74-1.44.6-.25 1.26-.1 1.45-.87-.2-1.8-.74-2.3-1.46-4.08z" fill-rule="evenodd" transform="matrix(1.394 0 0 1.436 301 110.05)" stroke="#000" stroke-width="1pt" fill="#000f0f"/><path d="M89.82 181.2v.3c0-.87.05-.38-.87 1.15-1.02.4-1.9.58-3.5.58-.87.67-1.45.46-2.03 1.75-.78.82-1.13 1.27-2.32 1.74-1.34 0-2.86.02-3.78-.3-.98-.5-2.37-.9-3.5-1.15-1.57.02-2.36.4-3.48.87-1.2.28-1.95.65-2.62 1.45-.78.3-.78.77-.87 1.74.42.7.04 1.07.87 1.16.47.57.6.6.6 1.74.3 1.25.25 2.82.57 4.07.66 1.6 1.16 1.74 2.3 2.63 1 .47 1.72.93 2.92 1.45 1.07.55 2.36.63 3.5.88.92 1.1 1.5 1.53 2.9 2.03 1.42-.22 1.64-.83 2.9-1.17.5-.5 1.26-.1 1.74-.87.43-.83.62-2.7 1.17-3.5.64-1.3 1.5-1.94 2.9-2.32.77-.57 1.66-.64 2.62-.3-.06 1.74-.6 1.8-.87 3.2-.5.93-.82 1.75-.3 2.63 1.22.4 2.7.3 4.08.3 1.87-.33 2-.76 2.03-2.63-.28-1.18-.7-1.9-.88-3.2 0-.9-.07-1.84.3-2.32.6.22 2 .36 2.6.58.5 1 .93 1.25 2.04.87.36-.55.9-.95 1.17-1.45.3.8.86 1.5 1.45 1.16.6-1.28 1.04-1.68 2.32-2.04 1.23-.26 2.04-.63 2.9-1.16.9-.54 1.44-1.24 2.34-1.74.6-.96 1.24-1.6 1.45-3.2 0-1.7-.36-2.84-.6-4.36-.64-1.02-.96-2.1-2.03-2.9-.84-.52-2.03-.13-3.2 0-1.3-.1-2.23-.3-3.77-.3-1.5 0-2.64.24-4.07.3h-4.07c-1.7 0-2.57.23-3.78.86-.86 0-.24-.08-1.16 1.46zm67.73 10.47c.5.13 1.82.77 2.9.87 1.13.06.88.37.88 1.46.42.24.82.9 1.45 1.16.23-.43.7-1.1 1.16-1.45.27.63.58 1.3 1.46 1.75.73-1.4.67-1.72 2.6-1.75 1.24 1.16.87 2.24 0 3.2-.4 1.24-.6 2.32-.86 3.78.57.7 1.33.58 2.62.58.87-.52 2-.27 2.6.3 1.76-.1 1.7-.32 1.76-2.04v-4.07c.64-.64 1.33-.82 2.03-.3.73.6 1.08 2 1.75 2.9.1 1.3.25 2.47.87 3.2.65 1.38.87 1.7 2.6 1.76 1.54 0 2.38-.22 3.8-.57 1.3-.24 1.72-.86 2.32-1.75 1.43-.4 1.83-.8 3.48-.87 1.5-.32 1.95-.86 2.9-1.44.63-.73.9-1.8 1.46-2.62.43-1.1.96-1.6 1.16-2.9.12-1.56.75-1.92 1.16-3.2.26-1.04-.25-1.68-1.16-2.33-.74-.64-1.83-.8-2.9-1.15h-8.15c-1.48 0-2.68-.2-4.07-.3-1.17-.67-1.72-1.12-2.6-2.03-1.27-.2-2.47-.9-3.5-1.45-.82-1.02-1.63-1.2-2.32-2.04-1.2-.5-1.8-1.15-3.2-1.74-1.2-.65-1.88-.98-3.5-1.17-1.38-.1-2.58-.3-4.06-.3-1.67 0-2.58.5-3.78.88-1 1.07-1.77 1.16-2.03 2.62-.42.83-.3 2.5-.3 3.78.3 1.37.87 2.67 1.16 3.78.1 1.23.3 1.87.3 3.5z" fill-rule="evenodd" transform="matrix(1.394 0 0 1.436 301 110.05)" stroke="#2b2b2b" stroke-width="1pt" fill="#d40f0f"/><path d="M82.84 189.92c-.63-.1-2.84-.3-4.36-.3-1.16.26-2.07.54-3.48.6-1.07.24-2.2.56-2.9 1.15-1 .1-1.3.4-2.34.6m13.37.57h-.3c.87 0 .4-.05-1.15.87-1.15 1.02-1.96 1.53-2.62 2.92-.78.66-1 1.24-2.03 1.45-.6.65-1.22 1.22-1.74 1.75m105.8-6.1h.28c-.8 0-.38-.05 1.16.57 1.22 1.05 1.27 1.6 2.9 1.74 1.54.55 1.7.9 2.34 2.32.2.5.3.92.3 1.75m-6.4-10.17c.46.18 2.1 1.06 3.2 1.16 1.15.15 2.28.28 3.77.28 1.36.2 2.07.62 3.48 1.17h2.33" transform="matrix(1.394 0 0 1.436 301 110.05)" stroke="#2b2b2b" stroke-width="1pt" fill="none"/><path d="M480.25 243.06c-.2 4.67-1.54 7.43-6.03 7.43-3 0-6.1-2.2-6.03-4.96.05-2.76 3.83-2.93 6.44-2.7.92-2.25-3.43-4.73-15.5-4.73-11.94-.12-21.22 10.25-36.9 9.9-15.67-.32-22.63-15.92-19.65-19.8-1.18 3.46-3.8 5.6-4.98 9.04-1.17 3.45 4.18 8.25 3.02 11.7-1.17 3.44-8.86 5.53-10.03 8.97s-.86 8.2-2.03 11.65c0-2.47 5.35-8.34 12.5-8.34 6.03 0 25.96-3.77 27.15 37.13 0 32.2-23.93 33.48-31.6 31.2 0 3.87 2.67 15.94 14.9 28.3 13.13 12.37 28.3 14.1 31.28 13.92-1.4-3.44-7.15-7.42-1.72-7.47 3.6.05 4.76 6.44 4.76 6.44s5.88-3.67 7.84-1.84c1.9 2.87-5.97 5.35-5.97 5.35s4 7.8 9.06 12.37c6.03 6.54 14.77 8.72 18.1 8.8 1.6.05 4.74 1.1 4.63 3.58-.24 4.94-.23 7.33-3.15 7.42h21.7c-2.92-.1-2.9-2.48-3.13-7.42-.12-2.48 3-3.53 4.63-3.57 3.33-.08 12.06-2.26 18.1-8.8 5.06-4.58 9.05-12.37 9.05-12.37s-7.86-2.48-5.97-5.35c1.96-1.83 7.84 1.84 7.84 1.84s1.14-6.4 4.75-6.44c5.44.05-.3 4.03-1.7 7.47 2.96.17 18.13-1.55 31.27-13.93 12.22-12.35 14.9-24.42 14.87-28.3-7.65 2.3-31.58 1-31.58-31.2 1.18-40.9 21.1-37.1 27.13-37.1 7.15 0 12.5 5.86 12.5 8.33 0 .62.7-3.52-.62-7.28-1.3-3.75-7.88-6.46-9.63-11.78-1.75-5.34 1.3-13.27 0-17.34s-3.76-4.95-3.76-4.95c3 3.88-3.96 19.47-19.64 19.8-15.68.35-24.96-10.02-36.9-9.9-12.06 0-16.42 2.5-15.5 4.73 2.6-.22 6.4-.05 6.45 2.7.07 2.77-3 4.96-6.02 4.96-4.5 0-5.82-2.77-6.03-7.44h-13.9z" fill-rule="evenodd" fill="#0068bd"/><g stroke="#000"><path d="M215.15 278.72c0 230.52-140.57 239.62-185.5 223.26-.12 27.8 15.58 114.18 87.4 202.6 77.16 88.57 166.26 100.94 183.75 99.7-8.22-24.65-42-53.14-10.08-53.46 21.22.32 27.95 46.05 27.95 46.05s34.53-26.24 46.04-13.16c11.12 20.6-35.04 38.3-35.04 38.3s23.43 55.78 53.15 88.6c35.44 46.8 86.75 62.38 106.3 63 9.5.32 27.88 7.8 27.22 25.58-1.32 35.38-1.27 52.47-18.42 53.15h127.47c-17.15-.68-17.1-17.77-18.42-53.15-.66-17.77 17.7-25.26 27.2-25.57 19.57-.62 70.88-16.2 106.3-63 29.73-32.82 53.16-88.6 53.16-88.6s-46.15-17.7-35.04-38.3c11.5-13.07 46.04 13.17 46.04 13.17s6.73-45.73 27.95-46.05c31.93.32-1.86 28.8-10.08 53.47 17.5 1.22 106.6-11.15 183.75-99.73 71.83-88.4 87.53-174.8 87.42-202.6-44.95 16.37-176.2 16.57-176.2-213.95-2.12-9.15-2.8-27.3-4.3-35.82-1.5-8.54-35.46 26.76-38.84 26.58-11.43-.36-46.73-32.68-71.86-37.07-11.85-1.88-50.63 33.32-60.17 34-12.5.73-28.5-35.97-55.13-32.2-19.6 3.1-35.65 36.54-40.45 31.76-12.36-12.3-25.96-20.02-41.7-22.94-23.56-2.04-36.94 16.4-49.6 31.6-.44-12.4-17.16-24.8-36.2-23.25-13.7-140-122.92-282.93-131.8-287.4-6.6-2.64-4.08 13.6-6.12 20.4l-49.86-13.7c-3.18 8.1-1.7 16.18-9.54 24.27-19.86-14.95-30.42-43.85-45.63-44.84-5.43 17.8-1.55 54.22-2.32 81.33l-37.72-25.1-3.02 26.55c-1.22 10.63-51.2-28.6-61.02-28.86-9.8-.25-21.48 27.46-30.3 27.3-8.8-.14 57 43 73.3 238.1z" fill-rule="evenodd" stroke-width="1.25" fill="#e8e1cb" transform="matrix(.17 0 0 .14 391.58 259.4)"/><path d="M200 175.68s23.25-32.56 51.15-27.9c27.9 4.65 58.13 106.97 58.13 106.97M279.06 40.8c0 4.65 18.6 79.07 34.88 102.32 16.28 23.26 53.5 41.86 72.1 69.76 18.6 27.9 27.9 104.64 27.9 104.64M320.9 5.92s7 37.2 18.6 65.1 39.55 37.22 53.5 60.47c13.95 23.25 23.25 69.76 23.25 69.76M211.6 336.13s32.57-4.65 60.47 32.56c27.9 37.2 32.56 86.03 32.56 86.03M813.9 284.97s20.93-2.33 34.88 13.95c13.95 16.28 11.63 27.9 9.3 27.9m-46.5-18.6s18.6 0 25.57 4.66c6.98 4.65 9.3 27.9 9.3 27.9" stroke-width="1pt" fill="none" transform="matrix(.17 0 0 .14 391.58 259.4)"/><path d="M799.95 331.48c2.33 0 16.28-13.95 25.58-9.3 9.3 4.65 11.63 30.23 11.63 30.23m-48.84-9.3s16.28-2.32 25.58 4.66 6.98 18.6 6.98 18.6M741.8 343.1c2.33 0 30.24 9.3 41.87 20.94 11.62 11.63 9.3 37.2 9.3 37.2m81.4-44.18s6.97-4.65 23.24 9.3c16.3 13.95 18.62 30.23 18.62 30.23m-44.2-13.96s18.6 2.33 27.9 9.3c9.3 6.98 23.27 23.26 23.27 23.26m-58.14-2.33s23.25-9.3 32.56-4.65c9.3 4.65 25.58 18.6 25.58 18.6" stroke-width="1pt" fill="none" transform="matrix(.17 0 0 .14 391.58 259.4)"/></g><g stroke-width="1pt"><path d="M-301.18-134.65v442.9h17.72v-442.9l-8.86-35.43-8.86 35.43z" fill-rule="evenodd" transform="matrix(.093 -.034 .04 .074 487.06 299.9)" stroke="#000" fill="#b03f00"/><path d="M-301.18-134.65v407.48h17.72v-407.48l-8.86-35.43-8.86 35.43z" fill-rule="evenodd" transform="matrix(.093 -.034 .04 .074 513.36 290.4)" stroke="#000" fill="#b03f00"/><g stroke="#000" fill="none"><path d="M-283.46-99.2l17.72 336.6" transform="matrix(.093 -.034 .047 .088 514.1 291.8)"/><path d="M-318.9-99.2l53.15 336.6" transform="matrix(.093 -.034 .047 .088 517.4 290.6)"/><path d="M-354.33-99.2l88.58 336.6" transform="matrix(.093 -.034 .047 .088 520.68 289.42)"/><path d="M-389.76-99.2l124 336.6" transform="matrix(.093 -.034 .047 .088 523.97 288.23)"/><path d="M-283.46-99.2l17.72 336.6" transform="matrix(-.093 .034 .047 .088 459.88 311.37)"/><path d="M-318.9-99.2l53.15 336.6" transform="matrix(-.093 .034 .047 .088 456.6 312.56)"/><path d="M-354.33-99.2l88.58 336.6" transform="matrix(-.093 .034 .047 .088 453.3 313.75)"/><path d="M-389.76-99.2l124 336.6" transform="matrix(-.093 .034 .047 .088 450.02 314.93)"/><path d="M-407.48-99.2l177.16 354.32" transform="matrix(-.093 .034 .047 .088 448.38 315.53)"/><path d="M-407.48-99.2l177.16 354.32" transform="matrix(.093 -.034 .047 .088 525.6 287.64)"/><path d="M-407.48 184.25h301.18m-17.72-35.43h-265.75m17.72-35.43h230.32m-17.72-35.45h-194.88m17.72-35.43c0 .58 159.44 0 159.44 0M-194.88 7.1H-318.9m17.72-35.45c.58 0 89.34.04 88.58 0m-70.86-35.43h53.15" transform="matrix(.093 -.034 .047 .088 510.82 292.98)"/><path d="M-283.46-99.2l17.72 336.6" transform="matrix(.093 -.034 .047 .088 488.65 302.85)"/><path d="M-318.9-99.2l53.15 336.6" transform="matrix(.093 -.034 .047 .088 491.94 301.66)"/><path d="M-354.33-99.2l88.58 336.6" transform="matrix(.093 -.034 .047 .088 495.22 300.47)"/><path d="M-389.76-99.2l124 336.6" transform="matrix(.093 -.034 .047 .088 498.5 299.3)"/><path d="M-283.46-99.2l17.72 336.6" transform="matrix(-.093 .034 .047 .088 434.42 322.43)"/><path d="M-318.9-99.2l53.15 336.6" transform="matrix(-.093 .034 .047 .088 431.13 323.6)"/><path d="M-354.33-99.2l88.58 336.6" transform="matrix(-.093 .034 .047 .088 427.85 324.8)"/><path d="M-389.76-99.2l124 336.6" transform="matrix(-.093 .034 .047 .088 424.56 326)"/><path d="M-407.48-99.2l177.16 354.32" transform="matrix(-.093 .034 .047 .088 422.92 326.58)"/><path d="M-407.48-99.2l177.16 354.32" transform="matrix(.093 -.034 .047 .088 500.15 298.7)"/><path d="M-407.48 184.25h301.18m-17.72-35.43h-265.75m17.72-35.43h230.32m-17.72-35.45h-194.88m17.72-35.43c0 .58 159.44 0 159.44 0M-194.88 7.1H-318.9m17.72-35.45c.58 0 89.34.04 88.58 0m-70.86-35.43h53.15" transform="matrix(.093 -.034 .047 .088 485.36 304.03)"/></g><g fill-rule="evenodd" stroke="#000" fill="#b03f00"><path d="M-407.48 237.4h372.05v53.15l17.72 17.72h-17.73v35.43h17.72l-17.73 17.71 53.15 70.88-106.3 212.6H-655.5V361.42h88.57v-70.86h53.15l106.3-53.15zm-159.45 124.02h531.5" transform="matrix(.093 -.034 .04 .074 510.07 291.58)"/><path d="M-566.93 361.42h531.5" transform="matrix(.093 -.034 .04 .074 509.37 290.27)"/><path d="M-566.93 361.42h531.5" transform="matrix(.093 -.034 .04 .074 507.96 287.65)"/><path d="M-566.93 361.42h531.5" transform="matrix(.084 -.03 .04 .074 506.93 286.46)"/><path d="M-35.43 361.42l-141.73 283.46m-230.32-372.04h230.32m-265.75-17.72c34.34 1.54 407.47 0 407.47 0m-17.72 0l-17.72 35.43m0 17.72l-17.7 35.43m-141.75-35.43l-17.72 35.43m35.44-35.43l-17.72 35.43m177.17 53.15h-88.58l17.7-35.43" transform="matrix(.093 -.034 .04 .074 510.07 291.58)"/><path d="M-70.87 432.28h-88.58l18.76-36.85-1.03 1.42m53.15 70.87h-88.58l17.7-35.43M-106.3 503.15h-88.58l17.7-35.43M-124.02 538.58h-88.58l17.7-35.43" transform="matrix(.093 -.034 .04 .074 510.07 291.58)"/><path d="M-124.02 538.58h-88.58l17.7-35.43" transform="matrix(.093 -.034 .04 .074 509.83 294.8)"/><path d="M-53.15 396.85l70.87 35.43m-106.3 35.44l70.86 35.43m-142.73-69.35l-495.32-1.16m480.2 36.04c-1.16 1.16-480.2-2.33-480.2-2.33m443.17 72.23c-35.43 0-442.9 0-442 1.02" transform="matrix(.093 -.034 .04 .074 510.07 291.58)"/><path d="M-212.6 539.6s-442.9-1-442 0" transform="matrix(.09 -.032 .04 .074 509.04 295)"/><path d="M-124.02 538.58h-88.58l17.7-35.43" transform="matrix(.093 -.034 .04 .074 509.6 298)"/><path d="M-124.02 538.58h-88.58l17.7-35.43" transform="matrix(.093 -.034 .04 .074 509.36 301.22)"/><path d="M-442.9 379.13l-17.73 17.72v35.43h70.87l17.7-17.72" transform="matrix(.093 -.034 .026 .05 510.15 302.7)"/><path d="M-442.9 379.13l-17.73 17.72v35.43h70.87l17.7-17.72" transform="matrix(.093 -.034 .026 .05 521.65 298.55)"/><path d="M-442.9 379.13l-17.73 17.72v35.43h70.87l17.7-17.72" transform="matrix(.093 -.034 .026 .05 514.37 310.57)"/><path d="M-442.9 379.13l-17.73 17.72v35.43h70.87l17.7-17.72" transform="matrix(.093 -.034 .026 .05 525.87 306.4)"/></g><path fill-rule="evenodd" d="M479.05 336.26l6.58-2.38.93 1.75L480 338zm11.5-4.16l6.58-2.37.94 1.75-6.58 2.37zm-7.3 12.02l6.58-2.37.94 1.75-6.58 2.37zm11.52-4.15l6.57-2.38.94 1.74-6.58 2.38z"/><path fill-rule="evenodd" stroke="#000" fill="#b03f00" d="M-301.18-99.2h88.58v17.7h-88.58zm-283.47 0h88.58v17.7h-88.58z" transform="matrix(.093 -.034 .04 .074 510.07 291.58)"/><g stroke="#000" fill="none"><path d="M-407.48 237.4v-17.72h372.05v17.72m-354.33-17.72v17.72" transform="matrix(.093 -.034 .04 .074 510.07 291.58)"/><path d="M-389.76 219.68v17.72" transform="matrix(.093 -.034 .04 .074 511.7 291)"/><path d="M-389.76 219.68v17.72" transform="matrix(.093 -.034 .04 .074 513.36 290.4)"/><path d="M-389.76 219.68v17.72" transform="matrix(.093 -.034 .04 .074 515 289.8)"/><path d="M-389.76 219.68v17.72" transform="matrix(.093 -.034 .04 .074 516.64 289.2)"/><path d="M-389.76 219.68v17.72" transform="matrix(.093 -.034 .04 .074 518.3 288.62)"/><path d="M-389.76 219.68v17.72" transform="matrix(.093 -.034 .04 .074 519.93 288.02)"/><path d="M-389.76 219.68v17.72" transform="matrix(.093 -.034 .04 .074 521.57 287.43)"/><path d="M-389.76 219.68v17.72" transform="matrix(.093 -.034 .04 .074 523.22 286.84)"/><path d="M-389.76 219.68v17.72" transform="matrix(.093 -.034 .04 .074 524.86 286.24)"/><path d="M-389.76 219.68v17.72" transform="matrix(.093 -.034 .04 .074 526.5 285.65)"/><path d="M-389.76 219.68v17.72" transform="matrix(.093 -.034 .04 .074 528.15 285.06)"/><path d="M-389.76 219.68v17.72" transform="matrix(.093 -.034 .04 .074 529.8 284.46)"/><path d="M-389.76 219.68v17.72" transform="matrix(.093 -.034 .04 .074 531.43 283.87)"/><path d="M-389.76 219.68v17.72" transform="matrix(.093 -.034 .04 .074 533.08 283.28)"/><path d="M-389.76 219.68v17.72" transform="matrix(.093 -.034 .04 .074 534.72 282.68)"/><path d="M-389.76 219.68v17.72" transform="matrix(.093 -.034 .04 .074 536.36 282.1)"/><path d="M-389.76 219.68v17.72" transform="matrix(.093 -.034 .04 .074 538 281.5)"/><path d="M-389.76 219.68v17.72" transform="matrix(.093 -.034 .04 .074 539.65 280.9)"/><path d="M-389.76 219.68v17.72" transform="matrix(.093 -.034 .04 .074 541.3 280.3)"/></g></g><g stroke="#000"><path d="M32.92 551.3c-.1 27.8 12.3 64.86 84.13 153.27C194.2 793.15 283.3 805.52 300.8 804.3c-8.23-24.67-42.02-53.16-10.1-53.48 21.23.32 27.96 46.05 27.96 46.05s34.53-26.24 46.04-13.16c11.1 20.6-35.05 38.3-35.05 38.3s23.43 55.78 53.15 88.6c35.43 46.8 86.74 62.38 106.3 63 9.5.32 27.87 7.8 27.2 25.58-1.3 35.38-1.26 52.47-18.4 53.15h127.46c-17.15-.68-17.1-17.77-18.42-53.15-.66-17.77 17.7-25.26 27.2-25.57 19.57-.62 70.88-16.2 106.3-63 29.73-32.82 53.16-88.6 53.16-88.6s-46.16-17.7-35.05-38.3c11.5-13.07 46.04 13.17 46.04 13.17s6.72-45.73 27.94-46.05c31.93.32-1.86 28.8-10.08 53.47 17.5 1.22 106.6-11.15 183.75-99.73 71.84-88.4 87.54-151.78 87.43-179.57-2.8 1.02-59.78-13.78-69.48-4.3-12.98-10.23-38.1-20.58-57.6-20.95-22.8-.38-43.3 9.22-50.32 25.7-13.6-19.67-53.27-29.55-61.64-28.26-27.35 4.7-44.4 41.3-35.43 87.32-20.64-19.75-28-21.7-51.1-21.76-50.44-.12-55.4 89.82-129.15 89.3-58.4-.46-83.08-31.43-100.3-53.8 22.26-19.1 20.86-26.56 6.14-45.78-16.7-18.06-42.76-16.44-60.66 1.8-17.9-17.7-18.06-28.04-35.78-53.14-17.3-24.54-29.6-26.97-61-26.84-31.4.12-55.46 1.8-67.57 34.7-15.4 8.58-37.22 26.55-54.1 23-10.3-28.03-43.22-60.6-70.98-61s-72.8 56.45-82.75 82.93c-17.68-37.06-36.28-42.13-51.8-42.9-15.5-.77-21.07 24.88-27.17 40.3z" fill-rule="evenodd" stroke-width="1.25" fill="#00c8ff" transform="matrix(.17 0 0 .14 391.58 259.4)"/><path d="M167.72 490s16.44 9.87 36.17 39.46 3.28 42.76 3.28 42.76" stroke-width="1pt" fill="none" transform="matrix(.17 0 0 .14 391.58 259.4)"/><path d="M184.16 506.45s32.9 3.3 46.04 26.3c13.16 23.03 6.58 49.34 6.58 49.34m-16.44 49.32s23.02-55.9 65.77-32.9c42.76 23.03 39.48 59.2 36.2 59.2H319v3.3m-55.9 26.3s23-9.87 49.32 0 9.87 32.9 9.87 32.9" stroke-width="1pt" fill="none" transform="matrix(.17 0 0 .14 391.58 259.4)"/><path d="M259.8 700.48s26.3-6.58 42.75 3.3 3.3 26.3 3.3 26.3M200.6 710.34s3.3 26.3 19.74 42.75c16.45 16.44 46.04 23 46.04 23m95.37-52.6c32.9 16.44 39.46 46.04 39.46 46.04m-26.3-59.2c49.33 0 46.04 29.6 46.04 29.6M302.56 552.5s29.6-23.03 69.06 0c39.47 23 16.45 52.6 16.45 52.6m-65.78-92.08s39.45-26.3 72.34 0c32.9 26.3 23.02 46.04 23.02 46.04m19.73-29.6l19.72 32.9c9.87 16.44 26.3 13.15 26.3 13.15m42.76 72.36s23.02 32.9 75.64 39.46c52.62 6.58 98.66-13.15 98.66-13.15m-174.3 16.44s29.6 29.6 69.06 29.6c39.47 0 95.37-16.44 95.37-16.44M526.2 720.2s16.44 26.32 75.64 26.32 85.5-13.15 85.5-13.15m-164.43 26.3s6.57 13.15 36.17 19.73 59.2-9.86 59.2-9.86m0 16.44s19.72 26.3 46.03 26.3 0-39.45 19.73-46.03c19.73-6.58 49.33 0 49.33 0" stroke-width="1pt" fill="none" transform="matrix(.17 0 0 .14 391.58 259.4)"/><path d="M605.1 825.45s19.74 26.3 49.34 19.73c29.6-6.58 65.77-55.9 65.77-55.9l23.03-16.45m-355.17 115.1s3.3-16.44 39.46-9.87c36.18 6.58 0 55.9 39.47 55.9 39.45 0 75.63-23 98.65-26.3 23.02-3.3 65.77 23.02 88.8 29.6 23 6.58 65.76-26.3 65.76-26.3m-151.26 46.03c3.3 0 13.15-6.6 36.17-3.3 23.03 3.3 49.34 3.3 49.34 3.3m-95.37 32.88s16.44-6.58 29.6-6.58c13.15 0 9.86 19.73 9.86 19.73m-115.1-378.2c-3.3 0 16.44 0 26.3 3.3 9.87 3.3 13.16 26.3 13.16 26.3m-42.76-6.57s13.15-6.58 26.3 0 6.6 29.6 6.6 29.6m-42.76-3.3c0-3.28 19.73-9.86 26.3-6.57s6.6 32.88 6.6 32.88m-39.48 9.86s16.44-13.15 26.3-13.15 6.6 23 6.6 23m-36.2 19.74l23.03-13.15 9.87 19.72m253.22-157.86s13.15-3.3 32.9 0c19.72 3.3 26.3 26.3 26.3 26.3m-52.62 0c0-3.28 19.73-3.28 26.3 0 6.6 3.3 16.45 19.74 16.45 19.74m-6.58 49.33c-3.3 0 3.3 13.15 6.58 29.6 3.3 16.44-13.16 32.88-13.16 32.88m72.35-75.62c-3.3 0 19.73 23.02 23.02 42.75 3.3 19.73-16.44 39.47-16.44 39.47" stroke-width="1pt" fill="none" transform="matrix(.17 0 0 .14 391.58 259.4)"/><path d="M871.5 661s23 32.9 23 49.34c0 16.44-16.43 42.75-16.43 42.75M894.5 638s9.88 13.15 13.16 29.6c3.3 16.43-6.57 42.74-6.57 42.74m23-32.88s16.45 19.73 9.88 36.17c-6.58 16.45-19.74 29.6-19.74 29.6m36.18-55.9c-3.3 3.28 6.58 23 3.3 32.88-3.3 9.87-19.74 26.32-19.74 26.32M957 634.7c0 3.3 23.02 23.02 23.02 46.04s-13.15 46.04-13.15 46.04" stroke-width="1pt" fill="none" transform="matrix(.17 0 0 .14 391.58 259.4)"/><path d="M920.82 598.53s16.44 3.3 19.73 19.73c3.3 16.45-9.86 32.9-9.86 32.9m-3.3-82.23s26.3 29.6 32.9 39.46c6.56 9.86-3.3 32.88-3.3 32.88" transform="matrix(.17 0 0 .14 382.2 254)" stroke-width="1pt" fill="none"/><path d="M920.82 565.64c3.3 3.3 32.9 3.3 46.04 19.73s6.58 46.04 6.58 46.04" transform="matrix(.17 0 0 .14 382.2 254)" stroke-width="1pt" fill="none"/></g><path d="M503.45 7.1c5.8-4.67 24.42-15.13 59.3-13.97 34.88 1.16 59.3 17.44 59.3 17.44l-2.33-45.34S596.47-46.4 565.08-46.4s-58.14 6.98-58.14 6.98l-3.5 46.5z" fill-rule="evenodd" stroke="#000" stroke-width="1pt" fill="#ffd400" transform="matrix(.17 0 0 .15 391.58 247.8)"/><g fill-rule="evenodd" stroke="#000" stroke-width="1.25" fill="#ffd400"><path d="M148.7 515.65c0 17.67 2.55 28.86 20.26 28.86 17.72 0 24.24-17.83 24.67-30.5.54-16 3.5-40.36 38.92-40.36 17.72 0 128-11.77 131.3 248.03 3.3 259.8-184.24 206.72-184.24 206.72s-20.17 88.57 90.08 232.5c84.66 104.06 205.54 106.87 205.54 106.87s18.72 41.77 56.3 95.64c54.3 77.9 124 61 124 78.73 0 17.7-17.54 9.92-17.7 25.93.16 19.42 9.35 27.9 26.5 27.22s17.1-17.77 18.42-53.15c.66-17.77-17.7-25.26-27.2-25.57-19.57-.63-70.88-16.2-106.3-63.02-29.73-32.8-53.16-88.58-53.16-88.58s46.16-17.72 35.05-38.3c-11.5-13.08-46.04 13.16-46.04 13.16s-6.74-45.73-27.97-46.05c-31.92.32 1.87 28.8 10.1 53.47-17.5 1.23-106.6-11.14-183.75-99.72-71.83-88.4-87.53-174.8-87.42-202.6 44.94 16.37 185.5 7.27 185.5-223.25-7-292.78-124.03-265.75-159.46-265.75-42 0-73.42 42-73.42 59.73z" transform="matrix(.17 0 0 .14 363.25 197.52)"/><path d="M148.7 515.65c0 17.67 2.55 28.86 20.26 28.86 17.72 0 24.24-17.83 24.67-30.5.54-16 3.5-40.36 38.92-40.36 17.72 0 128-11.77 131.3 248.03 3.3 259.8-184.24 206.72-184.24 206.72s-20.17 88.57 90.08 232.5c84.66 104.06 205.54 106.87 205.54 106.87s18.72 41.77 56.3 95.64c54.3 77.9 124 61 124 78.73 0 17.7-17.54 9.92-17.7 25.93.16 19.42 9.35 27.9 26.5 27.22s17.1-17.77 18.42-53.15c.66-17.77-17.7-25.26-27.2-25.57-19.57-.63-70.88-16.2-106.3-63.02-29.73-32.8-53.16-88.58-53.16-88.58s46.16-17.72 35.05-38.3c-11.5-13.08-46.04 13.16-46.04 13.16s-6.74-45.73-27.97-46.05c-31.92.32 1.87 28.8 10.1 53.47-17.5 1.23-106.6-11.14-183.75-99.72-71.83-88.4-87.53-174.8-87.42-202.6 44.94 16.37 185.5 7.27 185.5-223.25-7-292.78-124.03-265.75-159.46-265.75-42 0-73.42 42-73.42 59.73z" transform="matrix(-.17 0 0 .14 611.15 197.52)"/><path d="M238.56-187.8c26.42 0 22.65 26.72 17.72 42.98-4.94 16.26-35.44 27.9-63.12 10.17 7.64 26.84 27.68 106.3 109.4 108.34 95.37-2.05 103.64-71.8 209.37-72.36 105.73-.55 124.84 15.5 123.44 52.6-1.26 33.44-9.1 53.15-35.43 53.15-17.72 0-35.77-15.7-35.44-35.45.34-19.75 22.57-20.96 37.86-19.34 5.43-16.08-20.14-33.8-91-33.8-70.17-.92-124.68 73.28-216.76 70.87-92.08-2.4-132.95-114.04-115.45-141.73 18.53-33.8 31.26-35.43 59.4-35.43z" transform="matrix(-.17 0 0 .14 602.3 249.5)"/><path d="M238.56-187.8c26.42 0 22.65 26.72 17.72 42.98-4.94 16.26-35.44 27.9-63.12 10.17 7.64 26.84 27.68 106.3 109.4 108.34 95.37-2.05 103.64-71.8 209.37-72.36 105.73-.55 124.84 15.5 123.44 52.6-1.26 33.44-9.1 53.15-35.43 53.15-17.72 0-35.77-15.7-35.44-35.45.34-19.75 22.57-20.96 37.86-19.34 5.43-16.08-20.14-33.8-91-33.8-70.17-.92-124.68 73.28-216.76 70.87-92.08-2.4-132.95-114.04-115.45-141.73 18.53-33.8 31.26-35.43 59.4-35.43z" transform="matrix(.17 0 0 .14 372.1 249.5)"/></g><path d="M-1576.8 1353.5c17.72 2.98 674.45-205.8 673.23-531.5V-772.5h-1346.5V822c-1.22 325.7 673.23 531.5 673.23 531.5z" transform="matrix(.19 0 0 .156 781.42 252.48)" stroke="#000" stroke-width="11.13" fill="none"/></svg>