<svg xmlns="http://www.w3.org/2000/svg" height="480" width="640"><defs><clipPath id="a"><path fill-opacity=".67" d="M0 0h640v480H0z"/></clipPath></defs><g fill-rule="evenodd" clip-path="url(#a)"><g stroke-width="1pt"><path d="M-160.22 33.14l.12 114.17 960 199.36V233.3L-160.2 33.15z" fill="#fff"/><path d="M-160.1 246.65V480h960v-33.33l-960-200.02zm960-13.3V-.02h-960V33.3l960 200.02z" fill="#fdd114"/><path d="M-160.1 146.7v100.02l960.3 199.96-.3-100.02-960-199.95z"/></g><path transform="matrix(1.138 0 0 1.138 1.62 -513.14)" stroke="#000" stroke-width="1.56" fill="#cf1126" d="M274.57 617.6h9.54v25.47h-9.53z"/><path d="M415.12 645.68c-.24-33.57 1.13-65.84 3.77-75s6.54-11.06 11.4-15.6c-11.5-1.05-24.22 8.64-30.06 21.4-3.7-14.4-10.64-24.16-16.74-29.06-6.1 4.9-13.3 14.8-16.56 29.2-6-10.73-16.56-22.6-29.03-21.27 4.44 4.62 8.5 6.33 11.2 15.3s4.03 41 3.06 74.6" transform="matrix(.518 0 0 .593 120.52 -116.47)" stroke="#000" stroke-width="3.21" fill="#cf1126"/><path d="M414.44 641.96c-.24-33.56 1.37-62.22 3.68-71.33 2.3-9.1 6-10.8 11.26-14.74-11.52-1.06-22.48 1.74-28.9 17.34-3.6-14.5-10.65-21.62-16.75-26.52-6.1 4.9-13.3 12.27-16.56 26.65-7.06-15.48-16.9-18.94-29.38-17.6 5.18 4.3 9.25 5.92 11.8 14.85s2.85 37.3 1.88 70.9" transform="matrix(.565 0 0 .71 102.4 -140.62)" stroke="#000" stroke-width="2.8" fill="#cf1126"/><path d="M343.3 329.04c-.23-5.56.53-13.02 1.8-15.9 1.26-2.88 3.02-5 4.8-7.43-7.63-1.1-15.38-.53-19.5 10.65-2.66-10.22-6.66-15.55-11-19.03-4.33 3.48-8.1 8.8-10.77 19.03-4.1-11.18-11.9-11.86-19.76-10.64 1.78 2.45 3.6 4.56 4.94 7.44 1.34 2.88 2.17 10.34 1.95 15.9M315.4 133.28v22.9h8.07v-22.9h-8.08z" stroke="#000" stroke-width="1.7774999999999999" fill="#cf1126"/><path opacity=".99" stroke-linejoin="bevel" d="M371.5 415.75c2 1.34 10 2.74 24.46.22 25.24-4.42 25.03-29.33 64.36-17.77-1.78-3.56-8-14.45-23.33-14.9 1.55-5.1 2.66-12.65-.23-17.32-2.96 6.6-7.55 9.66-10.88 11.8-1.03-.55-6.97-5.4-7.62-12.72-.9-14.5-7.97-17.06-8.72-16.68-4.54-.13-31.9 43.12-90.5 43.4-57.72.3-86.6-43-89.87-43.4-.76-.38-7.84 2.18-8.73 16.68-.64 7.32-6.66 11.96-7.67 12.6-3.3-2.05-7.85-5.1-10.82-11.68-2.9 4.67-1.77 12.22-.22 17.33-15.33.45-21.55 11.34-23.33 14.9 39.33-11.56 39.4 13.35 64.66 17.77 14.45 2.52 21.95 1.34 23.95 0" stroke="#000" stroke-width="1.7774999999999999" fill="#cf1126"/><path opacity=".99" stroke-linejoin="bevel" d="M249.5 403.3c-13.7-.54-40.42-21.37-36.63-25.66 1.2-1.22 7.1.04 17.3 7.17 15.1 10.32 28.1 42.82 88.78 42.57 61.84-.24 74.53-32.25 89.65-42.56 10.2-7.12 16.55-8.26 17.27-6.87 3.64 4.1-23.1 24.9-36.8 25.44" stroke="#000" stroke-width="1.7774999999999999" fill="#cf1126"/><path d="M230.74 193.03c-54.1 57-25 187.96 87.47 189.85 113.1 1.27 146.07-131 89.9-190.1m-166.4 2.2c-28.8 48.48 1.14 133.42 78.12 133.42 77.62 0 106.07-85.55 77.56-133.7" stroke="#000" stroke-width="1.7774999999999999" fill="#cf1126"/><path d="M339.55 399.68c3.93.87 7.52 4.93 6.08 9.1-1.6 5-7.53 6.2-9.77 5.84-2.4-1.45-.97-3.54 6.42-4.34 4.82-1.77.43-5.03-3.2-6.6-2-.84-1.38-4.4.47-4zm-12.2-1.3c1.83-2.07 3.3 4.3 3.72 8.73.53 4.33.6 9.66-1.15 9.92-1.07.2-.17-4.95-1.27-9.66-1.43-5.46-2.05-8.05-1.3-8.96z" stroke="#cf1126" stroke-width=".27" fill="#fdd114"/><path d="M323.14 406.26c4.6 4.46-3.18 17.35-20.2 11.73-.97-1.78 6.75-.03 12.2-.97 10.36-1.64 5.9-12.74 8-10.77z" stroke="#cb4f46" stroke-width=".27" fill="#fdd114"/><path d="M314.8 397.43c1.84-2.08.78 4.5 1.16 8.93.37 4.16-.1 9.22-2.07 8.56-1.08-.5.68-5.18-.42-9.57-1.18-5.52-.06-6.53 1.33-7.92zm-11.67-1.77c3.25-.02 2.38.9 2.15 9.57-.26 9.72-8.47 10.8-10.42 8.14-1.64-2.1-1.04-2.72-8.38-2.02-1.64-.83-1.58-2.6-6.94-2.14-1.4.27-1.34-2.36-3.84-3.93-4.36-2.6-5.8 1.92-14.13-2.87-.52-.3-3.9-2.43-3.28-6.66.63-5.34-4.24.66-9.6-1.67-1.02-.47-4.16-1.77-6.93-4.2-3.9-3.36.2-4.04 5.46-.61 3.26 2.06 8.05-2.7 8.18-7.45.3-5.03-2.2-6.35 1.68-6.23 2.17.07 1.65 8.8-2.03 12.67-4.92 5.32-1.6 4.3.16 4.03 1.84-.46 10.2-10.8 11.58-9.9 2.16 1.46-6.5 8.07-4.57 14.33.94 2.8 6.1 5.46 10.37 5.9 5 .82 5-5.97 7.04-4.7 2.82 1.86-5.35 5.32 3.23 7.85 1.9.57 3-4.25 4.1-4.04 2.7.45-1.75 5.64 3.06 6.47 3.35.55 2.43-4.85 4.5-4.53 2.4-.15.15 8.66 6.83 7.76 2.8-.37-1.6-15.72 1.8-15.74z" stroke="#cf1126" stroke-width=".27" fill="#fdd114"/><path d="M242.66 384.23c1.93-.4 5.24-2.2 5.38-5.1.27-3.18-4.14-4.28-9.38-3.46-2.76.42-7.45-1.38-10.2-3.72-2.78-3.45-2.78-7.3-6.1-5.66-2.47 1.1 3.46 7.44 6.36 8.96 2.9 1.52 7.6 1.38 7.87 3.6.26 2.2-1.12 5.65 6.06 5.37zm117.4 14.8c-1.06.52-1.92 10.16 4.1 10.37 7.56.27 11.37-3.56 13.26-4.93 3.15-2.4 8.82-7.17 6.2-11.3-1.32-1.48-2.05 2.76-3.56 5.25-2.06 3.65-9.1 7.98-14.52 7.4-6.62-.42-4.12-7.13-5.47-6.78z" stroke="#cf1126" stroke-width=".27" fill="#fdd114"/><path d="M375.6 394.57c-1.53-1.17 3.44-3.07 3.95-4.87.52-1.8-2.2-3.5-.7-5.47 1.6-2.6 1.68 4.9 3.68 5.1 5.55.6 1.6 4.18-.5 3.48-2.37-.7-5.5 2.64-6.4 1.77zm-4.28-11.34c-.36 2.5 1.16 3.12 1.6 1.7.54-2.7-.98-3.94-1.6-1.7z" stroke="#cf1126" stroke-width=".27" fill="#fdd114"/><path d="M375.34 380.63c-.9.07-1.02 3.18.14 3.26 1.26.1.68 2.2 1.73 2.18 1.27-.03 1.36-3.55-.06-3.58-1.32-.04-1-1.85-1.8-1.87zm10.05-.6c-1.08 1.35-3.1-5.17 3.7-6.1 3.2.28 5.96 5.6 5.68 10.7-.1 1.9-.2 6.18-1.23 8.26-.86 2-4 8.53-5.5 7.96-1.52-.57.4-3.3 2.94-7.1 2.04-3.13 2.83-11.77 1.8-13.3s-2.1 3.8-4.28 4.94c-1.8.95-3.7-1.8-3.98-3.12-.23-1.57 1.2-2.54 2.18-.67.77 1.42 3.16-1.37 3.1-3.37.06-3.22-2.07-.66-4.43 1.8zM400 365.5c-.85 1.22-3.8 3.97-4.36 5.1s-.67 3.14.28 5.03c.95 1.9 2.94 4.93 2.56 7.68-.38 2.76-2.27 8.45-1.23 7.98 1.04-.47 3.6-6.07 3.03-10.33-.57-4.27-2.56-6.64-2.18-8.06.38-1.43 2.75-4.1 3.23-5.9.47-1.8-.3-6.63-.95-7s-3.04.46-2.28 2.08c.76 1.6 2.37.66 1.9 3.4z" stroke="#cf1126" stroke-width=".27" fill="#fdd114"/><path d="M403.9 367.7c-1.07.96-.54 6.24.93 4.36 1.33-1.84-.08-5.23-.93-4.37z" stroke="#cf1126" stroke-width=".25" fill="#fdd114"/><path d="M376.03 406.92c-.5 2.3 1.78 3.04 2.4 1.72.75-2.47-1.53-3.78-2.4-1.72z" stroke="#cf1126" stroke-width=".3" fill="#fdd114"/><path d="M379.5 404.96c-.73 1.9 2.57 2.06 3.5.98 1.1-2.04-2.2-2.68-3.5-.98z" stroke="#cf1126" stroke-width=".33" fill="#fdd114"/><path d="M242.24 377.6c-1.76-.78-1.65 2.77-.82 3.73.82.97 5.64-1.5.82-3.72z" stroke="#cf1126" stroke-width=".27" fill="#cf1126"/><path d="M320.15 182.7c-17.73 3.55-29.9 13.95-24.2 17.48 3.5 2.33 19.9-4.07 23.38-9.5 6.3 9.6 23.4 13.24 27.52 11.08" stroke="#000" stroke-linecap="round" stroke-width="1.7774999999999999" fill="#cf1126"/><path d="M228.17 177.08c2.95 4.55 18.2 15.52 29.17 16.33 10.97.8 35.85 5.9 40.67 3.75 4.83-2.14 18.47-11.5 21.95-9.9 3.48 1.6 23.82 12.85 31.3 12.58 7.5-.27 55.93-13.92 57.54-16.6 1.6-2.67-9.64-9.63-16.87-9.63-7.22 0-163.76 3.75-163.76 3.48z" fill="#cf1126"/><path d="M270.77 199.1c.1 2.72 2.2 4.7 7.24 4.75 8.47.18 22.8-3.83 31.35-13.44" stroke="#000" stroke-linecap="round" stroke-width="1.7774999999999999" fill="#cf1126"/><path d="M245.37 195.03c-.44 2.3 3.35 5.3 10.76 5.38s33.25-3.08 41.55-11.72" stroke="#000" stroke-linecap="round" stroke-width="1.7774999999999999" fill="#cf1126"/><path d="M227.87 188.08c-3.97 5.12 8.68 6.95 16.26 6.86 7.6-.08 27.17-.2 35.94-6.7" stroke="#000" stroke-linecap="round" stroke-width="1.7774999999999999" fill="#cf1126"/><path d="M214 179.5c-3.78 5.03 8.96 9.45 24.5 9.1 14.28-.36 28.84-5.3 28.84-5.3m100.33 15.8c-.1 2.72-2.2 4.7-7.24 4.75-8.46.18-22.8-3.83-31.34-13.44" stroke="#000" stroke-linecap="round" stroke-width="1.7774999999999999" fill="#cf1126"/><path d="M393.07 195.03c.44 2.3-3.35 5.3-10.76 5.38s-33.25-3.08-41.54-11.72" stroke="#000" stroke-linecap="round" stroke-width="1.7774999999999999" fill="#cf1126"/><path d="M410.46 188.2c3.96 5.1-8.57 6.83-16.16 6.74-7.58-.1-27.16-.2-35.93-6.72" stroke="#000" stroke-linecap="round" stroke-width="1.7774999999999999" fill="#cf1126"/><path d="M424.47 179.42c3.8 5.02-9 9.53-24.52 9.17-14.3-.36-28.85-5.3-28.85-5.3" stroke="#000" stroke-linecap="round" stroke-width="1.7774999999999999" fill="#cf1126"/><path d="M244.47 179.03c-19.72 2.85-28.8 1.4-32.74-.48-4.9-2.17-13.33-8.75-.9-9 8.25-.15 12.4.48 21.77.43 23.96-.3 58.55-19.23 69.04-19.3 9.74-.08 12.33 4.43 17.88 4.52 5.7.06 7.53-4.6 17.27-4.53 10.48.08 45.07 19 69.04 19.3 9.36.05 13.52-.58 21.76-.4 12.43.23 4 6.8-.9 8.98-3.94 1.88-13.02 3.33-32.74.48" stroke="#000" stroke-linecap="round" stroke-width="1.7774999999999999" fill="#cf1126"/><path d="M319.15 108.24c-9.27.47-22.04-1.1-26.14 9.23-6.24 11.84-4.48 25.25-1.67 25.54 5.02.56 5.5-13.4 7.64-13.4 2.24-.04 2.24 12.1 6.62 12 3.25-.08 5.3-12.2 6.33-12.1s3.17 11.64 7.3 11.64c4.4 0 6.26-11.55 7.3-11.65s3.06 12.02 6.33 12.1c4.37.1 4.37-12.04 6.6-12 2.15 0 3.1 13.87 8.12 13.3 2.8-.27 4.2-13.6-2.05-25.43-4.1-10.34-17.15-8.76-26.38-9.23z" stroke="#000" stroke-width="1.7774999999999999" fill="#cf1126"/><path d="M296.88 112.48c2.5 4.2 21.92 4.1 23.02 4.1s18.04.2 22.02-3.9m-26.27-43.85v41.26s.22 2.3 3.64 2.37 3.93-1.93 3.93-2.23l-.15-41.48" stroke="#000" stroke-width="1.7774999999999999" fill="#cf1126"/><path d="M319.65 73.62c15.55-.8 20.18 8.37 24.57 10.36s6.37 2.8 12.35 2.4c5.98-.4-10.36 9.96-10.36 10.36l6 10.76c-5.6.8-16.16-4.35-20.34-7.17-4.73-2.8-9.96-1.2-11.96-1.6l-.25-25.1z" stroke="#000" stroke-width="1.7774999999999999" fill="#cf1126"/><path d="M313.4 264.67c0 4.33-3.9 7.85-8.7 7.85-4.8 0-8.68-3.52-8.68-7.85s3.9-7.85 8.7-7.85c4.8 0 8.68 3.52 8.68 7.85z" transform="matrix(1.032 0 0 1.092 4.8 -227.95)" stroke="#000" stroke-width="1.67" fill="#cf1126"/><g stroke="#cf1126" stroke-width=".38" fill="#fdd114"><path d="M223.22 266c-1.18 1.66-2.2-2.7-6.28.35-2.3 1.97-3.2 4.97-3.2 11.25.02 5.33 3.1 8.88 4.86 8.53 2.73-.36 1.3-6.87 4.27-8.05 4.26-2.02 10.3 1.06 11.36 4.97s-2 8.17-5.33 7.7c-1.9-.7 1.07-3.44 1.3-4.62.24-1.18.6-5.1-2.24-6.16-2.84-1.06-2.37 2.84-2.5 3.9-.1 1.07-2.12 4.4-4.37 4.27-2.26-.12-5.84-.1-9.37-3.9-1.87-1.96-4.14-7.23-2.13-13.86 2.02-6.63 5.45-7.23 7.35-7.34 1.9-.12 6.74 1.06 6.27 2.96zm-4.86 27.6c-1.97-1.06.75-4.9-4.38-3.56-2.06.57 3.08 6.5 5.33 6.75 2.5-.25 1.8-1.86-.94-3.2zm5.45 3.2c1.08 4.85 2.08 4.44 2.26 6.86.1 3.1-5.2 1.78-5.92 3.2-.7 1.42-1.66 5.1 1.78 5.33 3.43.22 8.36-1.1 9.35 1.3 2.67 6.7 8.38 5.73 11.04 4.68 3-1.2 10.1-7.58 11.7-8.13 2.4-.88-2.24-2.6-4.97-.23-.7.7-6.63 6.75-9.7 6.87-2.26.23-5.74-5.47-5.57-7.48.23-1.42 5.42-.24 6.15-3.2.57-2.1.6-4.37-1.05-4.5-1.66-.1-9.47.95-9.7-.23-1.43-3.44 1.4-4.86.34-5.8-1.2-.5-5.57-1.2-5.7 1.3zm26.34 18.82c-2.5 2.62-9.1 6.83-9.1 9.8 0 1.67 1.84 4.3 3.36 4.94 2.27.9 5.76.67 8.4-1.4 3-2.42 4.36-4.9 3.08-5.33-4.54-1.3-4.65 4.96-6.83 5.15-2.08.17-5.24-3.17-1.1-7.32 4.17-4.16 9.9-8.3 9.7-9.5-.2-1.2-5.7 1.85-7.5 3.66zM239.35 333.03c-.18 1.67 4.26 1.68 5.05.2.6-1.1-4.85-1.9-5.05-.2zM254.3 334.13c-2.5 2.62.3 5.6 2.22 8.05 1.06 1.3 3.5 2.58 5 3.2 2.3.9 6.8.6 9.47-1.46 2.98-2.44 3.22-6.72 1.4-6.74-4.7-.05-1.43 6.26-3.6 6.45-2.1.17-7.92-1.14-10.75-7.15-1.62-3.54 3-4.2 2.3-5.75-.7-1.65-4.24 1.6-6.04 3.4z" stroke-width=".27018"/><path d="M266.56 333.95c.97 1.37 4.3-1.58 3.9-3.2-.3-1.22-4.88 1.82-3.9 3.2z" stroke-width=".2702104"/><path d="M273.16 346.38c-.13 1.93.44 4.53-1.83 4.62-2.26.08-5.13-2.96-7.4-2.88-2.26.1-3.2 1.83-2.95 2.8.26.95 4.18 2.08 10.88 1.64s5.22 3.66 9.9 3.3c4.7-.34 5.4-1.9 5.06-2.95-.35-1.03-4.35-.34-5.83-.6-1.5-.26-4.1-2.6-4.45-4.6-.34-2-.34-5.46 1.4-5.5 3.22-.05 1.73 2.93 1.85 3.98.1.93 1.17 1.9 2.6.2 1.87-2.23.86-5.74-.97-6.96s-7.93 2.28-8.27 6.96zm16.62.35c-.35 3.45-2.8 3.7-2.53 4.96.36 1.44 1.25 1.9 1.83 5.47.33 1.77 2.52 2.52 5.3 2.35 2.28-.06 3.84-3.14 5.32-3.04 2.08.1.35 4.83 5.22 4.8 3.9-.05 4.87-3.4 6.26-3.5 1.4-.08 1.22 3.92 4.44 3.92 3.22 0 4.6-3.66 6.1-3.74 1.56.08 1.56 3.9 6.35 3.65 4.78-.25 8.35-.94 9.48-1.9 1.13-.96 1.65-4.1 3.22-4.27 1.57-.17 4 2.96 6.18 2.96s6.7-5.5 8.1-5.58c1.38-.08 2.5 3.4 5.65 3.4 4.87-.1 5.44-6.42 7.7-6.72 4.1-.4 4.26-2.07 4.48-2.5.44-1.22-.03-6.94-.96-9.55-.45-1.37-5.65-13-8-13.26-2.35-.27-1.65 3.13-.26 5.13 1.4 2 8.52 11.3 7.57 14-.96 2.7-6-1.12-10-1.12-5.58 0-8.96 11.27-12.9 11.67-1.7.18-3.55-1.48-2.95-2.7 1.14-1.74 2.44-5.92-1.9-5.3-4.36.6-8.8 2.6-8.1 4.95.7 2.35 3.3 4.7.43 5.66s-7.82 1.22-10.26.43c-2.43-.77-.95-6.25-2.43-6.25-1.65 0-1.73 6.44-4.08 6.6-2.35.18-4.44-.77-4.96-2.6-.52-1.83.87-4.1-.7-4.35-1.56-.26-3.13 7.22-5.48 7.05s-2.44-.7-3.83-2.18c-1.4-1.48 1.22-6.52-1.13-6.96-2.35-.42-4.7 7.5-6.27 7.4-1.56-.08-3.9-.17-4.6-1.73-.36-.8-.26-5.7-.18-7.67-.05-.94-2.26-.53-2.1.53zm79.1-21.32c4.28 6.5 8.15 15.28 10.53 15.76 1.6.23-4.96-11.75-7.13-14.44-1.83-2.8-7.08-6.97-3.4-1.3z" stroke-width=".27018"/><path d="M342.16 613.74c-1.14 2.3-.73 4.5 1.23 4.17s4.48-4.16 3.83-4.9-3.52-1.38-5.07.74z" transform="matrix(.56 0 0 .69 97.88 -81.5)"/><path d="M381.47 328.3c0 3.5 2.48 7.5 7.12 7.24 4.63-.25 9.72-5.38 10.1-10.65s-6.13-9.14-7.76-8c-1.63 1.12.6 5.05 4.78 5.3 1.78.1 1.2 3.58-2.22 6.34-3.58 2.83-8.88 2.78-10.18.83-1-2.76-1.9-2.78-1.85-1.08z" stroke-width=".27018"/><path d="M384.27 317.62c-.68 1.4.74 4.6 2.27 4.47 1.55-.16-1.77-5.4-2.27-4.48zm13.6-2.5c.92 2.1 2 5.28 3.9 5.28s3.44.5 3.44 2.12-4.96 6.98-5.12 8.8c-.28 3.08 1.98 2.92 3.08 1.23 1.1-1.68 4.06-9.6 4.68-11.8.27-1.7 2.4-4.95 2.5-8.33-.15-3.8 3.36-.73 5.04-.6 1.54.08 3.22-2.77 3.44-4.82.22-2.05-1.6-2.4-1.6-4.24 0-1.03 1.95-4.32 2.04-6.52.22-1.94-3.8-7.54-5.5-7.47-1.38.08-.2 2.13.6 3 .8.88 2.85 2.7 2.12 4.32-1.32 3.14-7.76 3.95-8.05 7.32-.3 2.4.3 10.03-1.7 10.03s-3.58-4.76-6.65-4.76c-3.44-.1-2.9 4.84-2.2 6.43zm5.07-28.9c.1 1.35 2.93 7.24 4.6 7.24 2.43 0-1.1-2.78-.87-3.8s3.7-2.58 2.27-2.94c-2.52-.77-6.13-2.3-6-.5zm-.22-7.62c.5 1.9 8.35 4.76 11.7 5.7s7.48 5 9.02 3.67c1.54-1.32-10.32-6-12.08-6.66s-9-4.6-8.64-2.7zm23.65 12.3c2.93.07 1.3-5.7.58-7.1-.73-1.4-1.83 2.63-1.68 3.8.15 1.17.22 3.22 1.1 3.3zm-17.06-28.78c0 1.3 8.1.38 11.87 1.4 1.63.45 7.18 3.44 8.2 2.7 1.17-1.53-7.54-4.83-12.52-4.83-1.6.02-7.5-.82-7.54.72zm-2.12 3.74c-1.45 1.55 4.9 3.3 10.55 3.5 5.62.23 9.27 3.6 8.78 6.1-.8 4.16-7.82 1.45-6.94 3.72.5 1.76 3.6 1.1 3.95 3 .25 1.9 2.24 2.24 2.13-.1 0-1.87 4.36-4.95 4.25-5.83-.22-1.75-2.85-7.9-9.6-8.56-6.73-.67-11.24-3.92-13.1-1.84z" stroke-width=".27018"/></g><path d="M227.17 306.98c-.9-.53-4.12 2.37-2.97 3 2.2 1.25 4.34-2.24 2.97-3zm6.9-3.44c-1.55-.2-2.3 3.12-1 3.32 3.33.46 3.98-2.96 1-3.32zm168.52 9.3c-.75 0-3.1 1.03-2.28 2.64.8 1.6 3.12 1.65 4.17.74.94-.9.72-3.36-1.9-3.37zm9.14-7.03c.24 1.78 1.53 1.5 2.56 1.1 1.18-.5 1.52-2.05.37-2.62-1.2-.6-3.17.27-2.93 1.53zm-52.9 41.43c-1.58 3.48-.22 6.9 2.3 6.24s5.02-5.47 3.17-7-4.42-1.55-5.47.76z" stroke="#cf1126" stroke-width=".09" fill="#cf1126"/><g fill="#cf1126"><path d="M146.54 202.67c-5.87-.54-19.2-3.2-19.74-.54-.53 2.67 7.2 33.9 11.2 37.9 4 4 22.7 12.54 24.55 11.47 1.87-1.07-3.73-20.55-5.87-24-2.13-3.48-8.54-16.02-8-16.56.53-.53-2.4-8.27-2.14-8.27z"/><path d="M134.8 201.56c1.42-7.5 10.15 1.48 9.3 11.27-.44 3.32 1.42 6.97 3.2 8.76" stroke="#000" stroke-width="1.7774999999999999"/><path d="M142.3 201.92l-.33.44c4.38-7.4 8.62 3.14 9.27 15.3m-24-16.9c-.25-6.07 9.6-7.8 9 14.13 4.3 2.77 9.35 13.4 9.6 17.2 3.23.74 8.6 4.7 9.9 8" stroke="#000" stroke-width="1.7774999999999999"/><path d="M151.4 322.34c.48-16.7.74-52.48-1-56.36-3.1-7.18-18.56-15.5-23.28-26.8-4.72-11.96-8.74-39.2-6.82-42.5 2.5-4.73 10.87 5.82 8.6 17.46 10.1 11.88 7.98 18.96 9.86 20.48 6.24 4.8 15.76 8.1 17.45 12.4 3.47 7.68-.75-10.88-3.54-14.68-2.78-3.8-7.58-12.13-4.3-14.16 3.3-2.02 9.1 3.3 9.87 4.8s8.6 10.12 10.87 12.15c4.05 3.03 14.27 9.82 14.07 15.63-.02 9.4.82 71.25.82 71.25m-34.47 22.36l-.06 6.85c2.92 3.56 15.1 3.95 17.82 3.94 2.66-.08 14.12.13 16.78-4.25.07-.14.17-5.72.17-7.26" stroke="#000" stroke-width="1.7774999999999999"/><path d="M148.98 334.42c-3.37.75-4.25 4.88-1.87 7.88 1.94 2.43 9.94 5.24 19.13 5.43 9.18.2 21.37-3 21.93-8.06.2-5.06-4.57-4.75-4-4.56" stroke="#000" stroke-width="1.7774999999999999"/><path d="M148.98 325.12c-3.37.75-4 5-1.62 8 1.93 2.43 10.06 5.8 19.24 6 9.2.18 20.8-3.57 21.37-8.63.2-5.07-3.3-4.63-3.56-4.5" stroke="#000" stroke-width="1.7774999999999999"/><path d="M168.1 330.3c12.18.2 20.06-5.8 20.06-9 0-3.18-3.94-3.37-6.38-2.43-2.43.93-6.18 3.3-14.05 3.37-8.06.24-15.2-5.62-17.62-5.44-2.43.2-4.34 2.83-3.55 5.62.96 2.78 9.56 8.25 21.55 7.88z" stroke="#000" stroke-width="1.7774999999999999"/></g><g fill="#cf1126"><path d="M493.46 202.67c5.87-.54 19.2-3.2 19.74-.54.54 2.67-7.2 33.9-11.2 37.9-4 4-22.68 12.54-24.55 11.47-1.87-1.07 3.73-20.55 5.87-24 2.13-3.48 8.54-16.02 8-16.56-.53-.53 2.4-8.27 2.14-8.27z"/><path d="M505.22 201.56c-1.44-7.5-10.17 1.48-9.3 11.27.42 3.32-1.43 6.97-3.22 8.76" stroke="#000" stroke-width="1.7774999999999999"/><path d="M497.7 201.92l.33.44c-4.38-7.4-8.6 3.14-9.26 15.3m24-16.9c.25-6.07-9.6-7.8-9 14.13-4.3 2.77-9.35 13.4-9.6 17.2-3.23.74-8.6 4.7-9.9 8" stroke="#000" stroke-width="1.7774999999999999"/><path d="M488.6 322.34c-.47-16.7-.73-52.48 1.02-56.36 3.07-7.18 18.55-15.5 23.26-26.8 4.72-11.96 8.75-39.2 6.83-42.5-2.5-4.73-10.86 5.82-8.6 17.46-10.1 11.88-7.98 18.96-9.85 20.48-6.24 4.8-15.76 8.1-17.45 12.4-3.47 7.68.76-10.88 3.54-14.68 2.78-3.8 7.6-12.13 4.3-14.16-3.3-2.02-9.1 3.3-9.86 4.8s-8.6 10.12-10.88 12.15c-4.04 3.03-14.26 9.82-14.06 15.63 0 9.4-.82 71.25-.82 71.25m34.46 22.36l.06 6.85c-2.92 3.56-15.1 3.95-17.82 3.94-2.67-.08-14.13.13-16.8-4.25-.06-.14-.16-5.72-.16-7.26" stroke="#000" stroke-width="1.7774999999999999"/><path d="M491.02 334.42c3.38.75 4.26 4.88 1.88 7.88-1.93 2.43-9.94 5.24-19.12 5.43-9.18.2-21.37-3-21.93-8.06-.2-5.06 4.56-4.75 4-4.56" stroke="#000" stroke-width="1.7774999999999999"/><path d="M491.02 325.12c3.38.75 4 5 1.63 8-1.93 2.43-10.06 5.8-19.25 6-9.18.18-20.8-3.57-21.36-8.63-.2-5.07 3.3-4.63 3.56-4.5" stroke="#000" stroke-width="1.7774999999999999"/><path d="M471.9 330.3c-12.18.2-20.05-5.8-20.05-9 0-3.18 3.94-3.37 6.37-2.43 2.44.93 6.2 3.3 14.06 3.37 8.06.24 15.18-5.62 17.62-5.44 2.44.2 4.34 2.83 3.56 5.62-.96 2.78-9.56 8.25-21.55 7.88z" stroke="#000" stroke-width="1.7774999999999999"/></g></g></svg>