<svg xmlns="http://www.w3.org/2000/svg" fill-opacity="14.12" height="480" width="640" fill="#28ff09"><defs><clipPath id="a"><path fill-opacity=".67" fill="#000" d="M-79.06 0H603.6v512H-79.05z"/></clipPath></defs><g fill-opacity="1" clip-path="url(#a)" transform="matrix(.938 0 0 .938 74.12 0)"><path fill="#fff" d="M81.14 0H443.4v512H81.15z"/><path fill="#bf0a30" d="M-100 0H81.14v512H-100zm543.4 0h181.15v512H443.4zM135.3 247.4l-14.06 4.82 65.46 57.44c4.95 14.77-1.72 19.12-5.97 26.86l71.06-9.02-1.86 71.52 14.72-.43-3.2-70.93 71.12 8.44c-4.4-9.3-8.32-14.23-4.25-29.1l65.4-54.42-11.43-4.14c-9.36-7.22 4.04-34.78 6.06-52.18 0 0-38.2 13.14-40.7 6.26l-9.72-18.68L303.2 222c-3.8.92-5.42-.6-6.3-3.8l16.04-79.77-25.42 14.3c-2.13.9-4.26.13-5.66-2.35l-24.45-49.06-25.2 50.95c-1.9 1.82-3.8 2.03-5.38.8l-24.2-13.6 14.53 79.16c-1.16 3.14-3.93 4.02-7.18 2.32l-33.22-37.74c-4.34 6.98-7.3 18.35-13.03 20.9-5.75 2.4-24.98-4.82-37.88-7.64 4.4 15.9 18.18 42.3 9.46 50.96z"/></g></svg>