<svg xmlns="http://www.w3.org/2000/svg" height="480" width="640" version="1"><g stroke-width="1pt"><path fill="#006" d="M0 0h640v480H0z"/><path d="M0 0v31.82l349.54 252.8h44v-31.83L44 0H0zm393.53 0v31.82L44 284.62H0v-31.83L349.54 0h44z" fill="#fff"/><path d="M163.97 0v284.6h65.6V0h-65.6zM0 94.87v94.87h393.53V94.87H0z" fill="#fff"/><path d="M0 113.84v56.92h393.53v-56.92H0zM177.1 0v284.6h39.34V0H177.1zM0 284.6l131.18-94.86h29.33L29.34 284.6H0zM0 0l131.18 94.87h-29.33L0 21.2V0zm233.03 94.87L364.2 0h29.33L262.36 94.87h-29.33zm160.5 189.74l-131.18-94.86h29.34l101.83 73.65v21.2z" fill="#c00"/><path fill-rule="evenodd" fill="#fff" d="M246.4 444.48l-31.82-33.5-31.84 33.5 6.34-45.78-46.04-4 39.74-23.58-25.56-38.5 43.2 16.37 14.16-44 14.15 44 43.2-16.37-25.56 38.5 39.74 23.57-46.03 4M490.75 427.3l6.14-19.13 6.14 19.1 18.78-7.1-11.12 16.72 17.27 10.25-20 1.74 2.76 19.87-13.84-14.55-13.84 14.54 2.76-19.88-20-1.74 17.26-10.25-11.1-16.72m18.77-290.4l6.14-19.12 6.14 19.1 18.78-7.1-11.12 16.72 17.27 10.25-20 1.74 2.76 19.88-13.84-14.55-13.84 14.55 2.76-19.88-20-1.74 17.26-10.25-11.1-16.72m-92.8 127.98l6.14-19.12 6.15 19.12 18.78-7.1-11.1 16.7 17.25 10.26-20 1.74 2.76 19.88-13.84-14.55-13.83 14.55 2.75-19.9-20-1.73 17.26-10.26-11.1-16.72m229.54-22.63l6.1-19.13 6.17 19.12 18.76-7.12-11.1 16.72 17.27 10.25-20 1.74 2.74 19.87-13.83-14.55-13.83 14.55 2.76-19.88-19.97-1.75 17.28-10.25-11.13-16.72m-37.5 98.66l-9.82-8.3 12.83-.94 4.86-11.9 4.86 11.9 12.83.94-9.82 8.3 3.07 12.5-10.93-6.8-10.94 6.8"/></g></svg>