<svg xmlns="http://www.w3.org/2000/svg" height="480" width="640"><path fill="#fff" d="M0 0h640v480H0z"/><path fill="gray" fill-rule="evenodd" d="M299.1 219.73l1.7-2.23-.88-2.67 2.65.92 2.26-1.66-.06 2.8 2.28 1.63-2.68.8-.86 2.7-1.6-2.32"/><path d="M164.84 244.1h.3c-.8 0-.38-.05.93.95 1.08.44 2.03.63 3.7.63 1.48.1 2.75.3 4.32.3 1.44.64 2.27 1.2 3.4 1.58.48.77 1.56 2.47 2.15 3.14 1.08.82 2.4 1.3 3.4 2.2 1.23.35 2.02.88 3.38 1.9 1.03.48 2 .9 3.4 1.56 1.34.47 2.8 1.1 4 1.57 1.06.25 2.48.68 3.4 1.25 1.3.3 2.4.66 4 .94 1.64.2 2.47.64 4.02.94 1.4.72 2.48 1.26 4 1.9.63.92 1.17 1.75 2.48 2.2.67.82 1.8 1.04 2.47 1.87 1 .48 2.08.8 3.4 1.26 1.56.1 2.7.56 4.3.6h8.65c1.37.18 2.92.4 4 .64 1.52 0 3 .03 4.33-.3 1.72-.03 2.53-.52 4-.64 1.66.27 2.78.12 3.4 1.57 1.02 1.04 1.64 2.06 1.85 3.45.32 1 .3 2.64.3 4.08 0 1.37 0 2.85.32 3.77.98.97 1.74 1.25 3.08 1.57 1 .34 2.82.63 3.7 1.26.73.78 1.1 2 2.16 2.82.93.74 2.5.9 4 .94h4.32c1.35 0 3.14.14 4-.3 1.35-.5 1.7-1.42 3.4-1.58 1.6.25 1.58 1.02 2.78 1.57.77 1.12 1.5 1.6 2.47 2.2.63.92 1.46 1.64 2.78 1.88 1.6-.16 3.06-.64 4.32-.94.43-1.13.97-1.9 1.54-2.84.43-.72.62-.9.62-2.2.46-.93.4-2.84 0-4.07-.06-1.6-.42-2.46-.6-4.1 0-1.52.06-2.97.3-4.08.63-.74 1.04-1.96 1.54-2.82.84-1.03 1.62-1.42 2.77-1.9.98-.32 2.6-.3 4-.3.77-.23 2.02-.16 1.56-.63-.4.4-1.95.54-.32.63.88-.6 2.5-.9 3.4-1.26 1.3-.2 2.1-.66 3.38-.94.96-.57 2.04-.85 3.4-1.26 1.1-.43 2.37-.85 3.7-1.25 1.42-.7 2.3-1.07 3.7-1.27.97-.52 2.18-.62 3.7-.62 1.43.94 2.18 1.67 3.4 2.83.58.87 1.1 1.4 1.54 2.5.98.7 1.5 1.2 3.4 1.27 1.48 0 2.07.26 2.46-.94.8-.74 1.23-2.04 2.16-2.83.92-.92 2.06-1.4 3.08-1.88 1.16-.33 2.1-.75 3.7-.95 1.07-.4 2.18-.48 3.4.32.9 1.28 1.93 2.6 3.08 4.08.8.52 1.75.63 3.1.63.93-.48 2.87-.32 4.3-.32 1.27.38 1.82 1.23 3.1 1.58.7.07 1.08.32 1.84.32 2.26.3 3.2.06 4.94-.32h4.3c1.53.06 2.35.3 4.02.3.94.6 2.55.86 3.7 1.27 1.47.35 1.75.9 3.1 1.57.86.44 2.65.3 4 .3 1.6-.18 2.68-.46 4-.93 1.18-.3 1.68-.6 2.17-1.58.77-.53 1.83-1.38 2.47-2.2.85-.58 1.58-1.33 2.16-2.2.83-.55 2.23-1.98 2.77-2.82.8-.64 1.63-2 2.16-2.83.7-1.02 1.54-1.6 2.17-3.13.48-1.47.55-2.62.93-4.1.32-1.17.9-2.18 1.23-3.75.63-1.4 1.13-2.73 1.54-3.78.76-.87 1.26-1.9 2.16-2.83.52-.82 1.2-1.23 1.85-1.9.74-.7 1.85-1.23 3.1-1.56 1.26-.36 1.82-.92 2.46-1.9 1.16-.38 1.85-.9 3.4-1.24 1.35-.4 2.45-.67 3.7-.94h4.3c1.57 0 2.9.14 4.33.3 1.4.42 2.73.78 4 .95.9.44 2.36 1.22 3.1 1.9.92.62 1.92 1.62 2.46 2.5.4 1.24 1.06 1.78 1.85 2.84.83 1.1 1.52 1.78 3.1 2.5 1.24.3 2.26.84 3.7.95 1.63 0 2.62.2 4 .3 1.5 0 2.98.03 4.32-.3 1.35-.8 1.83-1 2.78-2.2 1.24-.63 2.14-1.13 3.7-1.26 1.02-.23 2.3-.32 3.7-.32.8.56 1.65.77 2.16 1.57.8.58.86.9 2.16.93.88.53 2.18.78 3.4.95h4.3-4.3 4.3c1.2-1 1.55-.9 1.55-2.2.96-.78 1.43-1.87 2.47-3.14.56-.93 1.1-1.7 1.54-2.83.34-1.02.76-2.6.93-3.76.38-1.04.74-2.64.9-4.08.4-1.45.63-2.75.63-4.4v-4.4c-.02-1.54-.25-2.63-.62-3.76-.48-1.38-1.3-2.4-1.84-3.45-.9-.74-2.04-1.76-2.77-2.5-1.42-.87-2.48-1.5-3.72-2.2-1.35-.86-2.65-1.6-3.7-2.2-.62-.7-1.62-1.68-2.16-2.2-.42-.87-.42-2.92 0-3.77.04-1.3.18-2.06.93-2.83 1.4-.5 2.34-1.2 3.4-1.88.67-.97 1.74-1.16 3.08-2.2 1.33-.6 2.1-.9 3.08-1.9 1.46-.48 2.8-1.47 4.02-1.87.66-.8 1.9-1.48 3.4-1.88 1.07-.74 2.35-1.53 3.4-1.9 1.44-.77 2.52-1.05 4-1.87 1.5-.38 2.85-1.07 4.32-1.57.37-.47.82-.8 1.54-.94 1.92-.12 3.52-.33 4.63-1.26 1.25-.45 1.38-1.35 2.17-2.2.56-1.04 1.18-1.5 1.54-2.82 1-1.08.45-1.4-1.23-1.57-.52-.55-1 0-1.23-.95-1.1-.5-1.4-1.4-2.16-2.2-.46-1.3-.45-1.88.93-2.5.87-.6 2.1-.8 2.78-1.58 1.3-.2 2.27-.77 3.4-1.26 1.68-.1 2.57-.5 4-.93 1.24-.67 2.03-1.06 3.1-1.57 1.26-.56 2.77-1.35 4-1.9 1.1-.74 2.5-1.47 4-1.87 1.12-.57 2.48-1.02 3.72-1.57 1.05-.25 2.47-.7 3.4-1.26 1.4-.27 2.95-.8 4-1.25 1.03-.48 2.25-1.07 3.1-1.57 1.26-.56 2.18-1.24 3.38-1.57.73-.7 1.7-1.2 2.78-1.56.86-.82 2.7-1.95 3.7-2.5.93-.46 2.03-.92 2.77-1.58.72-.08.52-.24 1.24-.32 2.25-.7 3.4-.94 4.62-2.2.95-.45 1.93-.96 2.77-1.56 1.03-.83 1.85-1.6 2.47-2.5 1.12-.42 1.74-1.2 2.78-1.9 1.07-.44 2.02-.63 3.7-.63 1.35 0 3.14.13 4-.3 1.94-.04 2.45-.5 3.7-1.27.43-1.2 1.32-1.8 2.48-2.5.68-.64 2.4-1.6 3.08-2.2 1.34-.66 1.9-1.5 3.1-2.52.9-1 2.03-1.9 3.07-2.5 1.3-.6 2.23-.85 3.4-1.27 1.46-.27 2.92-.55 4.3-.95 1.6-.12 2.15-.6 3.4-.94.88-.84 1.4-1.27 2.48-2.5.52-1.45 1.3-1.97 2.77-2.2 1.5-.8 2.7-.9 3.7-1.88 1.05-1.07 1.77-2.26 2.78-3.46.57-1.35 1.1-2.17 1.24-3.77-.03-1.93-.44-2.2-1.24-3.46-.77-1.12-1.25-1.84-1.85-2.82-.96-.56-2.32-1.1-3.4-1.57-1.46.1-2.36.45-3.38.94-1.05.85-1.78 1.56-2.47 2.8-.47 1.02-.8 2.14-1.24 3.47-.58.85-2 1.66-3.1 2.2-1.28.57-2.2.83-3.38 1.25-1.46.5-2.14.96-3.7 1.57-.9.43-2.17 1.1-3.08 1.56-1.34.8-2.63 1.45-3.7 1.88-1.37.8-2.15 1.23-3.4 1.57-1.4.86-2.76 1.5-4 2.2-1.04.53-2.06 1.2-3.4 1.9-1.1.24-2.63.46-4 .62h-4.64c-1.32-.3-2.9-.58-4.32-1.25-1.53-.8-2.3-1.32-3.4-2.2-.67-1.34-.9-1.98-.92-3.77-.96-.5-2.28-.6-3.7-.63-1.56 0-3-.06-4 .63-1.35.2-2.48.76-3.4 1.57-1.42.7-2.35 1.52-3.4 2.2-1.08.67-2.5 1.66-3.7 2.2-1.13.5-2.9 1.03-4.32 1.57-1.8.53-3.12 1.1-4.93 1.25-1.55.7-2.76.92-4.32 1.56-1.58.6-2.7 1.04-4.32 1.57-1.06.56-3 1.48-4 2.2-1.84.94-3.2 1.73-4.63 2.5-1.44.63-2.5 1.2-4 1.9-.75.67-2.23 1.2-3.1 1.88-1.37.36-2.95.94-3.7 1.58-1.2.15-1.9.47-2.46 1.26-1.1 1.34-.6 1.25-1.84 1.25-1.06.64-2.7.62-4.32.62-1.65-.04-2.94-.3-4.63-.3-1.44-.28-2.76-.58-4.3-.64h-26.54c-1.64 0-2.63.2-4 .3-1.54.12-2.74.46-4.02.64-1.4.2-2.02.75-3.08 1.26-.98.47-1.96.94-3.1 1.25-1.5.82-3.24 1.25-4.92 1.57-1.27.6-3.07.92-4 1.57-1.46.12-2.4.5-4.02.63-1.38.63-2.5.97-3.7 1.26-1.12.37-2.18.6-3.7.63-1.43.18-2.22.6-3.7.93-.54.45-1.38.77-2.17.94-1.8.87-2.4.94-4.32.94h-4.32c-2.04-.2-4.1-.45-6.16-.93-2.1-.1-4.12-.38-6.17-.63H381.7c-1.63-.06-3.08-.38-4.63-.63-1.45-.25-2.98-.38-4.32-.93-1.9-.1-3.85-.37-5.55-.94-1.54-.28-3.02-.8-4.62-.94-.9-.56-2.64-.75-3.4-1.27-1.4-.1-2.58-.56-3.4-1.26-1.43-.2-2.27-.86-3.7-1.25-1.28-.8-2.82-1.06-4.62-1.9-1.53-.32-3.07-.87-4.63-1.24-1.23-.44-2.73-.85-3.7-1.57-1.36-.37-2.14-.78-3.7-1.25-.73-.66-2.16-1.34-3.1-1.88-.66-.6-2.43-1.66-3.38-2.2-1-1.18-2.02-2.35-3.4-3.77-.94-1.06-2.03-1.9-3.08-2.5-1.33-.57-2.85-1.38-3.7-1.9-1.16-.3-2.1-1.04-2.77-1.87-1.05-.6-1.74-1.15-2.78-1.9-1.6.63-1.78.33-3.4.33-1.83-.16-3.18-.22-4.93 0-1.52.18-3 .3-4.64.3h-4.3c-1.97.03-2.28.3-2.8 1.9-.9 1-1.26 2.17-2.15 2.82-.75.98-1.85 1.65-3.07 2.2-1.53 1.07-2 1.46-2.78 2.82-1 .9-1.85 2.2-2.47 3.14-.56.98-.94 1.88-1.23 3.46 0 1.5.12 3.08-.3 4.4 0 1.5.1 3.07-.32 4.4v8.78c.64.96 1.5 1.33 1.85 2.83.46 1.25-.4.8-1.23 1.58h-8.64c-1.57 0-2.84-.2-4.3-.32-1.26-.23-3.08-.3-4.02-.63h-4.32c-1.54-.1-2.73-.45-4-.62-1.8-.34-3.03-.87-4.64-1.88-1.64-.36-2.9-1-4.32-1.88-1.53-.4-2.74-1.23-4.32-1.57-1.05-.5-1.8-1-3.08-1.57-.75-1.04-1.47-1.62-3.1-1.9-1.23-.63-2.28-.6-4-.6-1.6.18-2.54.6-3.7.93-1.28.6-2.96 1.1-4 1.57-1.06.43-2 1-3.1 1.57-.82 1.08-1.3 1.73-1.84 2.82-.4 0-.3-.1-.3.3-1.67.07-3.42 0-5.26 0-.87.45-2.56.55-3.7.64-.9.7-1.97 1.32-2.77 1.88-.54 1.08-.9 1.37-.93 3.14.07 1.87.73 2.42 1.24 3.77-.37 1.7-1.03 1.85-2.47 2.2-1.1.24-2.52.3-4 .3h-9.27c-1.77 0-2.6.03-3.4-.93-.53-1.07-.58-2.42-.92-3.46-.92-1.27-1.33-2.12-2.77-3.14-.3-.97-1.08-2.4-1.53-3.45-.5-1.06-.88-2-1.86-2.83-1-.97-2.17-1.6-3.07-2.5-1.03-.68-1.86-1.24-3.7-1.26-1.5 0-2.92.07-4 .3-.77.67-2.02 1.38-3.1 2.2-.85 1.16-1.6 2-2.78 3.15-1.3 1.24-2.62 1.98-3.7 2.52-.98.5-2 1.12-2.77 2.2-.92.4-1.36 1.1-1.85 2.2-.8.73-1.27 1.94-1.55 3.13-.5 1.54-.57 3.3-.6 5.03v4.4c-.5.58-.76 1.2-1.56 1.88-.75.68-1.9 1.43-2.77 1.88-.86 1.13-1.4 1.8-1.55 3.46 0 1.37-.12 3.2.3 4.08.64.9 1.9 1.5 3.1 2.2 1.15.4 1.75 1.33 2.47 2.5 1.32.6 1.15 1.17 2.77 1.26.98.8 2.5 1.03 3.7 1.57 1.24.36 1.86.93 3.1 1.27.8 1.06 1.67 1.75 2.15 3.45.12 1.1.55 2.2 0 3.14-1.27.76-2.95 1.25-3.7 1.9-1 .04-.94.28-1.55.62-.02 2.1-.3 3.16-.62 4.7-.1 1.4-.3 2.42-.3 4.1v4.38c.65 1.4 1.5 1.66 2.46 2.5.93.7 1.22 1.5 1.53 2.84.53 1.23 1.1 2.25 1.54 3.45.56 1.2.93 2.3.93 4.08-.16 1.72-.86 2.02-2.16 2.83-.7.85-.47 2.35-.93 3.77 0 1.45 0 3.1.32 4.08.53.73.4 1.03.62 2.2z" fill-rule="evenodd" fill="#ffce00"/><g fill-rule="evenodd" fill="#009a00"><path d="M203.17 311.07l-.5-.5c1.13 1.15.6.73-.5-2.05-.1-2.94-.8-3.4-2.5-4.6-2-.66-2.85-1.53-3.52-3.56-1.27-1.07-2.23-2.5-3-4.08-1.38-.95-2.58-2.17-3.5-3.57-1.4-.94-2.58-2.16-3.52-3.56-1.9-.67-3.16-2.05-5.5-3.06-1.34-1.28-2.58-1.92-4.52-3.06-2.17-1.06-2.3-1.83-5-2.04-.84.93-2.15.56-2.5 2.04.1 3.02.7 3.66 2 6.12.1 2.8.83 4.1 2 6.12 1.42 1.02 2.5 2.82 4 4.08 1.6 1.1 2.23 2.27 4.5 3.57 1.2 1.53 3.2 2.35 5.02 3.58 2.25.88 4.08 1.56 5.52 2.55 2 .5 3.38 1.26 5 2.04 2.42.23 3.4.5 6.52 0zm10.52 14.28l-.5-.5c1.18 1.2.62.7-1-2.05-1.86-1.8-2.26-3.15-5.02-3.57-1.47-.6-3.86-.97-5.5-1.53-2.87 0-4.17-.3-6.53-1.02-1.68-.47-3.8-1.3-5.5-2.04-2.02-.3-4.1-1.1-6.02-1.53h-7.02c-2.24.55-3.5.57-4 3.07 1.03 1.27 2.4 2.37 3.5 3.57.64 2.24 2.17 2.77 3.52 4.08 2.32.82 2.8 1.43 5.5 1.53 2.32.78 4 1 6.52 1.02 2.7 0 4.62.55 7.02 1.02 2 .27 3.96.5 6.5.5 2.2 0 4.56 0 6.03-.5 3.15-2.58 2.5-3.14 2.5.5l1 1.02m16.03 4.08h-.5c1.35 0 .66.03-2-.5-2.5-.74-3.93-1.44-6.52-1.54-1.53-.92-3.43-1.02-6-1.02h-7.02c-2.48.2-3.53.83-6 1.02-1.33.78-3.95 1.43-5.53 2.04-1.4.98-2.6 2.2-4.5 3.06.43 2.53 1.8 3.5 3.5 4.6 1.7.68 3.44 1.33 6 1.52 2.48.1 3.8.5 6.53.5 2.55 0 4.5-.22 6.5-.5 1.68-.8 3.1-1.64 5.53-2.04 1.22-1.07 3-1.82 4.52-2.55 1.34-.66 3.17-1.26 4.5-2.05l-4.5 2.04c1.34-.66 3.17-1.26 5.5-4.6zm24.43 11.86v-.43c0 1.2.06.57-1-1.74-1.86-.86-4.1-1.46-5.52-2.18-2.2 0-5.1-.18-6.5.43-2.54.03-4.22.2-6.53.87-2.2.3-3.45.96-5 1.74-1.74.82-4.27 1.87-6.5 2.6-2 1.2-2.66 1.9-5.02 3.04-1.5 1.42-3 2.26-4 3.48-.46 1.47.02 3.2 2 3.9 1.24.9 3.16 1.37 5 1.75 2.34-.08 4.4-.36 6.02-1.3 2.48-.3 3.96-.92 6-1.3 1.77-.55 3.45-1.07 5.52-1.3 1.44-.86 3.98-1.58 5.52-2.2 2.5-.87 4.12-2.04 6-3.03.9-.9 2.1-1.87 3.52-2.17l-3.5 2.17c.9-.9 2.1-1.87 4-4.34zm19.17 9.73c-.1-.03-2.33-.9-4-.9-1.5-.8-3.9-.96-6.02-1.83-2.73 0-4.6.28-6 1.36-2.1.26-3.95.8-5.52 1.82-1.95.4-3.72.8-5.5 1.8-2.43.93-3.5 1.8-5.02 2.73-1.03 1.13-3.26 1.76-4.5 2.72-1.13 1.22-1.13 2.85-.5 4.53 1.27.7 3.46 1.42 5 2.26 2.24.35 4.52.45 7 .45 2.24-.16 4.12-.5 5.53-1.36 2.5-1.1 3.18-1.92 5-3.18 1.05-1.16 2.8-2.08 4.5-2.72 1.3-1 2.84-1.74 5.02-2.27 1.22-1.05 2.34-2.07 3.5-3.17 1.4 0 .44.14 1.5-2.27zm21.6 4.45c-.1 0-2.82-.44-4.5-.44-1.42-.62-4.32-.43-6.5-.43-2.77.1-3.63.6-5.02 1.76-1.4.77-3.13 1.47-4.5 2.66-1.76.94-3.34 2.25-5 3.08-1.85.7-3.44 1.5-5.53 1.77-1 1.07-2.77 2-4 3.1-1.38.9-1.97 1.34-2 3.53-1.03.72-1.72 2.15-1.5 2.65 2 .92 3.7 1.3 6.5 1.33 2.68.02 4.56.54 7.02 0 2.5-.66 3.5-1.12 6-1.77 1.28-1.48 2.24-2.47 4-3.55.96-1.24 2.1-2.38 4.02-3.1 1.43-1.14 3.54-2.4 5-3.08.9-1.1 2.65-2.3 4.02-3.1 1-1.5 1.3-1.74 2-4.4zm2.45-4.12v-15.3c-2.32-1.4-2.67-2.24-3.5-5.1-1.24-2.04-2.2-3.32-3-5.1-1.17-1.24-2.13-2.85-2.52-5.1-.95-1.9-1.55-3.8-3.5-4.6-1.78-.38-4.1-.5-6.52-.5-3.32.13-3 .72-3 4.08.23 2.62 1.04 3.3 2 5.62.73 1.58 1.53 3.2 2.5 4.6.75 1.68 1.93 3.86 3 5.1.9 1.87 2.15 3.57 2.5 5.6 1.4 1.78 2.34 3.33 3.52 4.6.98 2.08 1.72 3.26 3.5 4.07 1.03 1.55 2.76 1.68 5.02 2.03zm-24.05-8.16h.5c-1.4 0-.66.07 2-1.02.7-1.44.5-4.4.5-6.63 0-2.9-.47-4.14-1-6.12-.9-2.2-1.65-3.25-2-5.6-.75-1.62-1.5-3.24-2-5.1-.9-1.36-1.55-3.4-2-5.1-1.7-.98-3.26-1.96-5.02-2.56-1.6-.77-3.07-1.9-5-2.55-2.52.46-2.8 1.3-3 4.07-.6 2.06.2 3.92 1 5.6.82 2.03 1.3 4.07 2.5 5.62.72 2.28 1.45 3.08 1.5 5.6.86 1.5 1.22 3.72 2 5.6 1 2.38 1.95 3.4 3.5 5.1 2.15 1.5 2.9 2.12 6.53 3.07zm-20.05-6.63c0-.24 1.6-1.25 2.5-2.55.76-1.53.66-4.63 0-6.64-.94-2.4-1.98-4.18-2.5-6.12-.53-1.6-.5-4.28-.5-6.63-.46-2.13-1.2-3.72-2-6.1-.65-1.66-1.9-3.72-2.5-5.62-.8-.75-1.67-2.3-2.52-3.06-.98-.82-1-1.02-3-1.02-2.67.1-4 .35-5.5 2.04-.54 1.6-.5 4.28-.5 6.63.02 2.8.28 4.14 1.5 6.12.87 2.13 2.73 4.22 4 6.1 1.03 1.8 1.7 3.5 3 4.6.34 2.3 1.2 3.35 2 5.1.35 2.3 1.2 3.35 2 5.1 1.32.15.7.47 1.5 1.02l-1.5-1.02c1.32.15.7.47 4.02 2.04zm-20.04-15.3c.3-.7 2.16-3.43 2.5-5.1-.03-2.9-.36-4.87-2-6.63-.4-1.77-1.4-4.47-2-6.1 0-2.36.02-5.03-.5-6.64 0-2.68-.37-4.3-1-6.12-1.14-1.7-2.36-2.2-5.02-3.06-2.16-.73-3.65-.2-6 .5v7.15c.02 2.7.5 4.63 1.5 6.12.8 1.75 1.6 3 2.5 5.1.1 2.77.8 4.2 1 6.63.2 2.6.43 3.96 2 5.6 2.13 1.04 2.8 2.03 4.5 2.56l-4.5-2.55c2.14 1.02 2.8 2 7.02 2.54zm-18.04-11.22v-.5c0 1.42-.06.66 1-2.05.55-2.2.5-4.64.5-7.14-.15-2.06-.44-4.43-1-6.12-.45-2.6-.98-4.24-1.5-6.62-.36-2.07-1.73-4.36-2.5-6.12-.5-1.5-1-4.63-1.5-6.12-.37-1.9-1.27-2.5-3-3.06-1.4-.7-4.65-.7-6.03 0-1.47.52-1.47 1.7-2 3.06-.2 2.64-.63 4.6 0 7.14.85 1.47 1.74 3.04 2.5 4.6 1 1.8 1.98 4.5 3 6.1.77 2.6 1.05 3.8 2.52 6.13.53 1.66 1.38 3.65 2.5 5.1.7 1.83 1.75 3.1 2.5 5.1 1.35 0 .34-.02 3 .52z"/><path d="M319.12 368h-8.3c-1.26 1.24-1.7 1.95-3.92 2.23-1.1.98-2.17 1.9-3.92 2.22-1.55.34-3.56.44-5.67.44-2.58-.04-3.47.07-3.92-2.23.04-2.3.15-2.4 2.18-2.66 1.1-.9 2.92-1.34 4.8-1.77 1.44-.52 3.2-.98 4.8-1.33 1.55-.56 3.02-1.13 4.36-1.78-.33-1.35-1.4-1.05-2.62-.44-1.56 0-3.43.12-4.36-.44-1.1-1.65-1.68-2.2-4.36-2.22-2.55-.03-2.98-.7-5.24-.9-2.16-.02-3.66-.35-5.23-.88-2.3-.17-3.84-.52-5.66-1.33-.6-.6.8-.7 1.74-.88 1.3-.9 2.66-1.25 4.8-1.33h6.1c2.25 0 3.97.35 6.12.43 1.75.62 3.6.94 4.8 1.78 1.57.54 2.57 1.5 3.48 2.67 1.54.43 3.08.95 4.8 1.33 2 0 4.3-.02 5.67.45 1 1.7.2 4.47-.43 6.66zM436.83 311.5l.5-.5c-1.13 1.16-.58.74.5-2.04.1-2.94.8-3.4 2.5-4.6 2-.66 2.86-1.53 3.52-3.56 1.27-1.07 2.23-2.5 3-4.08 1.38-.95 2.58-2.17 3.5-3.57 1.4-.95 2.58-2.17 3.52-3.57 1.9-.67 3.16-2.05 5.5-3.06 1.34-1.28 2.58-1.92 4.52-3.06 2.17-1.06 2.3-1.83 5-2.04.84.93 2.15.56 2.5 2.04-.1 3.02-.7 3.66-2 6.12-.1 2.8-.83 4.1-2 6.12-1.42 1.02-2.5 2.82-4 4.08-1.6 1.1-2.23 2.27-4.52 3.57-1.2 1.52-3.2 2.34-5 3.57-2.25.88-4.1 1.56-5.52 2.55-2 .48-3.38 1.26-5 2.04-2.42.24-3.4.52-6.53 0zm-10.52 14.3l.5-.52c-1.18 1.2-.6.72 1-2.04 1.86-1.8 2.26-3.15 5.02-3.57 1.47-.6 3.86-.97 5.5-1.53 2.87 0 4.17-.3 6.53-1.02 1.68-.47 3.8-1.3 5.5-2.04 2.02-.3 4.1-1.1 6.02-1.53h7.02c2.24.54 3.5.56 4 3.06-1.03 1.28-2.4 2.38-3.5 3.58-.64 2.24-2.17 2.77-3.52 4.08-2.32.82-2.8 1.43-5.5 1.53-2.32.77-4 .98-6.52 1-2.7 0-4.62.56-7.02 1.03-2 .28-3.96.5-6.5.5-2.2 0-4.56 0-6.03-.5-3.15-2.57-2.5-3.13-2.5.5l-1 1.03m-16.03 4.08h.5c-1.35 0-.66.03 2-.5 2.5-.74 3.93-1.44 6.52-1.54 1.53-.92 3.43-1.02 6-1.02h7.02c2.48.2 3.53.83 6 1.02 1.33.78 3.95 1.43 5.53 2.04 1.4.98 2.6 2.2 4.5 3.06-.43 2.53-1.8 3.5-3.5 4.6-1.7.68-3.44 1.33-6 1.52-2.48.1-3.8.5-6.53.5-2.55 0-4.5-.22-6.5-.5-1.68-.8-3.1-1.64-5.53-2.04-1.22-1.07-3-1.82-4.52-2.55-1.34-.65-3.17-1.25-4.5-2.04l4.5 2.03c-1.34-.65-3.17-1.25-5.5-4.6zm-24.43 11.86v-.43c0 1.2-.06.57 1-1.74 1.86-.85 4.1-1.45 5.52-2.17 2.2 0 5.1-.18 6.5.43 2.54.02 4.22.2 6.53.86 2.2.3 3.45.96 5 1.74 1.74.82 4.27 1.87 6.5 2.6 2 1.2 2.66 1.9 5.02 3.04 1.5 1.42 3 2.26 4 3.48.46 1.47-.02 3.2-2 3.9-1.24.9-3.16 1.37-5 1.75-2.34-.08-4.4-.36-6.02-1.3-2.48-.3-3.96-.92-6-1.3-1.77-.55-3.45-1.07-5.52-1.3-1.44-.86-3.98-1.58-5.52-2.2-2.5-.87-4.12-2.04-6-3.03-.9-.9-2.1-1.87-3.52-2.17l3.5 2.17c-.9-.9-2.1-1.87-4-4.34zm-19.17 9.73c.1-.02 2.33-.9 4-.9 1.5-.8 3.9-.95 6.02-1.82 2.73 0 4.6.3 6 1.37 2.1.26 3.95.8 5.52 1.82 1.95.4 3.72.8 5.5 1.8 2.43.92 3.5 1.78 5.02 2.72 1.03 1.13 3.26 1.76 4.5 2.72 1.13 1.22 1.13 2.85.5 4.53-1.27.7-3.46 1.42-5 2.26-2.24.36-4.52.46-7 .46-2.24-.17-4.12-.5-5.53-1.37-2.5-1.1-3.18-1.9-5-3.17-1.05-1.16-2.8-2.08-4.5-2.72-1.3-1-2.84-1.74-5.02-2.27-1.22-1.05-2.34-2.07-3.5-3.17-1.4 0-.44.14-1.5-2.27zm-21.6 4.46c.1-.02 2.82-.45 4.5-.45 1.42-.63 4.32-.44 6.5-.44 2.77.1 3.63.6 5.02 1.77 1.4.77 3.13 1.47 4.5 2.66 1.76.95 3.34 2.26 5 3.1 1.85.7 3.44 1.48 5.53 1.76 1 1.06 2.77 2 4 3.08 1.38.9 1.97 1.35 2 3.54 1.03.72 1.72 2.15 1.5 2.65-2 .92-3.7 1.3-6.5 1.33-2.68.02-4.56.54-7.02 0-2.5-.66-3.5-1.12-6-1.77-1.28-1.47-2.24-2.46-4-3.54-.96-1.25-2.1-2.4-4.02-3.1-1.43-1.15-3.54-2.4-5-3.1-.9-1.1-2.65-2.28-4.02-3.1-1-1.48-1.3-1.73-2-4.4zm-2.45-4.13v-15.3c2.32-1.4 2.67-2.24 3.5-5.1 1.24-2.04 2.2-3.32 3-5.1 1.17-1.24 2.13-2.85 2.52-5.1.95-1.9 1.55-3.8 3.5-4.6 1.78-.38 4.1-.5 6.52-.5 3.32.13 3 .72 3 4.08-.23 2.6-1.04 3.3-2 5.6-.73 1.6-1.53 3.22-2.5 4.6-.75 1.7-1.93 3.87-3 5.1-.9 1.88-2.15 3.58-2.5 5.6-1.4 1.8-2.34 3.34-3.52 4.6-.98 2.1-1.72 3.27-3.5 4.08-1.03 1.56-2.76 1.7-5.02 2.04zm24.05-8.16h-.5c1.4 0 .66.08-2-1-.7-1.45-.5-4.4-.5-6.63 0-2.9.47-4.14 1-6.12.9-2.22 1.65-3.26 2-5.6.75-1.63 1.5-3.25 2-5.12.9-1.35 1.55-3.38 2-5.1 1.7-.97 3.26-1.95 5.02-2.55 1.6-.77 3.07-1.9 5-2.55 2.52.47 2.8 1.3 3 4.08.6 2.07-.2 3.93-1 5.62-.82 2.02-1.3 4.06-2.5 5.6-.72 2.3-1.45 3.1-1.5 5.62-.86 1.5-1.22 3.72-2 5.6-1 2.38-1.95 3.4-3.5 5.1-2.15 1.5-2.9 2.12-6.53 3.07zm20.05-6.62c0-.24-1.6-1.25-2.5-2.55-.76-1.52-.66-4.62 0-6.63.94-2.4 1.98-4.18 2.5-6.12.53-1.6.5-4.28.5-6.63.46-2.14 1.2-3.73 2-6.12.65-1.65 1.9-3.7 2.5-5.6.8-.76 1.67-2.3 2.5-3.07 1-.82 1.03-1.02 3.02-1.02 2.66.1 4 .35 5.5 2.04.54 1.6.5 4.28.5 6.63-.02 2.82-.28 4.15-1.5 6.13-.87 2.14-2.73 4.23-4 6.12-1.04 1.8-1.7 3.5-3 4.6-.34 2.3-1.2 3.34-2 5.1-.35 2.3-1.2 3.34-2 5.1-1.32.14-.7.47-1.52 1l1.5-1c-1.3.14-.7.47-4 2.03zm20.04-15.3c-.3-.7-2.16-3.43-2.5-5.1.03-2.9.36-4.87 2-6.63.4-1.78 1.4-4.48 2-6.12 0-2.35-.02-5.02.5-6.63 0-2.68.37-4.3 1-6.12 1.14-1.7 2.36-2.2 5.02-3.06 2.16-.73 3.65-.2 6 .5v7.15c-.02 2.7-.5 4.63-1.5 6.12-.8 1.74-1.6 3-2.5 5.1-.1 2.76-.8 4.2-1 6.62-.2 2.6-.43 3.96-2 5.6-2.13 1.04-2.8 2.03-4.5 2.56l4.5-2.55c-2.13 1.03-2.8 2.02-7.02 2.55zm18.04-11.22v-.5c0 1.42.06.66-1-2.05-.55-2.2-.5-4.63-.5-7.13.15-2.06.44-4.43 1-6.12.45-2.6.98-4.25 1.5-6.63.36-2.07 1.73-4.36 2.5-6.12.5-1.5 1-4.63 1.5-6.12.37-1.9 1.27-2.5 3-3.06 1.4-.7 4.65-.7 6.03 0 1.47.52 1.47 1.7 2 3.06.2 2.64.63 4.6 0 7.14-.85 1.47-1.74 3.04-2.5 4.6-1 1.8-1.98 4.5-3 6.1-.77 2.6-1.04 3.8-2.52 6.13-.53 1.65-1.38 3.64-2.5 5.1-.7 1.82-1.75 3.1-2.5 5.1-1.35 0-.34-.03-3 .5z"/><path d="M320.88 368.45h8.3c1.26 1.23 1.7 1.94 3.92 2.22 1.1.98 2.17 1.9 3.92 2.22 1.55.33 3.56.43 5.67.43 2.58-.03 3.47.08 3.92-2.22-.04-2.28-.15-2.4-2.18-2.65-1.1-.92-2.92-1.35-4.8-1.78-1.44-.52-3.2-.98-4.8-1.33-1.55-.56-3.02-1.13-4.36-1.78.33-1.35 1.4-1.05 2.62-.44 1.56 0 3.43.12 4.36-.44 1.1-1.65 1.68-2.2 4.36-2.22 2.55-.03 2.98-.7 5.24-.9 2.16-.02 3.66-.35 5.23-.88 2.3-.17 3.84-.52 5.66-1.33.6-.6-.8-.72-1.74-.9-1.3-.88-2.66-1.24-4.8-1.32h-6.1c-2.25 0-3.97.36-6.12.44-1.75.62-3.6.94-4.8 1.78-1.57.53-2.57 1.48-3.48 2.66-1.54.44-3.08.96-4.8 1.34-2 0-4.3-.02-5.67.45-1 1.68-.2 4.46.43 6.65z"/></g></svg>