<svg xmlns="http://www.w3.org/2000/svg" height="480" width="640" version="1"><defs><clipPath id="a"><path fill-opacity=".67" d="M-85 0h682.66v512H-85z"/></clipPath></defs><g fill-rule="evenodd" clip-path="url(#a)" transform="translate(79.7) scale(.94)"><path fill="#108c00" d="M-258.27 0h1027.5v512h-1027.5z"/><path fill="#ffd600" d="M-260 178.16H772.6v50.16H-260z"/><path fill="#ffd600" d="M181.08 0h48.43v512H181.1z"/><path d="M227.78 0h48.43v512H227.8z"/><path d="M-260 226.6H772.6v50.15H-260z"/><path fill="#fff" d="M-260 276.76H772.6v50.16H-260z"/><path fill="#fff" d="M276.22 0h48.43v512h-48.43z"/><rect transform="scale(-1)" ry="137.51" width="273.75" y="-393.87" x="-394.56" height="275.03" fill="#e72910"/><g stroke-width="1pt"><path d="M250.5 136.92c0-.26 5.62-16 5.62-16l5.1 15.74s17.08.52 17.08.26-13.5 10.32-13.5 10.32 6.36 18.06 6.1 17.55c-.25-.53-14.78-10.85-14.78-10.85s-14.8 10.32-14.53 10.32 5.6-17.03 5.6-17.03l-13.26-10.06 16.57-.26z"/><path d="M251.27 137.72c0-.22 4.86-13.86 4.86-13.86l4.42 13.63s14.8.44 14.8.22-11.7 8.94-11.7 8.94 5.5 15.64 5.3 15.2c-.23-.45-12.82-9.4-12.82-9.4s-12.8 8.95-12.58 8.95 4.86-14.74 4.86-14.74l-11.47-8.72 14.35-.22z" fill="#ffe700"/><path d="M253.33 140c0-.14 2.8-8 2.8-8l2.54 7.86s8.53.26 8.53.13-6.74 5.14-6.74 5.14 3.18 9.02 3.05 8.76c-.1-.25-7.37-5.4-7.37-5.4s-7.4 5.15-7.26 5.15 2.8-8.5 2.8-8.5l-6.62-5.03 8.28-.13z" fill="#108c00"/></g><g stroke-width="1pt"><path d="M356.88 211.8c0-.26 5.6-16 5.6-16l5.1 15.74s17.08.52 17.08.26-13.5 10.32-13.5 10.32 6.37 18.06 6.1 17.55c-.24-.52-14.78-10.84-14.78-10.84s-14.78 10.32-14.53 10.32 5.6-17.03 5.6-17.03l-13.24-10.06 16.58-.26z"/><path d="M357.64 212.6c0-.22 4.85-13.86 4.85-13.86l4.4 13.63s14.8.45 14.8.23-11.7 8.94-11.7 8.94 5.52 15.64 5.3 15.2c-.22-.45-12.8-9.4-12.8-9.4s-12.8 8.95-12.6 8.95 4.87-14.76 4.87-14.76l-11.48-8.72 14.34-.22z" fill="#ffe700"/><path d="M359.7 214.87c0-.13 2.8-8 2.8-8l2.54 7.87s8.53.26 8.53.13-6.75 5.15-6.75 5.15 3.18 9.02 3.06 8.76c-.13-.25-7.4-5.4-7.4-5.4s-7.37 5.15-7.24 5.15 2.8-8.5 2.8-8.5l-6.62-5.03 8.27-.13z" fill="#108c00"/></g><g stroke-width="1pt"><path d="M325.88 330.65c0-.26 5.6-16 5.6-16l5.1 15.74s17.08.5 17.08.25-13.5 10.32-13.5 10.32 6.37 18.06 6.1 17.55c-.24-.52-14.78-10.84-14.78-10.84S316.7 358 316.95 358s5.6-17.03 5.6-17.03L309.3 330.9l16.57-.25z"/><path d="M326.64 331.45c0-.22 4.85-13.86 4.85-13.86l4.4 13.62s14.8.45 14.8.23-11.7 8.94-11.7 8.94 5.52 15.63 5.3 15.18c-.22-.44-12.8-9.38-12.8-9.38s-12.8 8.94-12.6 8.94 4.87-14.75 4.87-14.75l-11.48-8.73 14.34-.22z" fill="#ffe700"/><path d="M328.7 333.72c0-.13 2.8-8 2.8-8l2.54 7.87s8.53.25 8.53.12-6.75 5.15-6.75 5.15 3.18 9.02 3.06 8.76c-.13-.25-7.4-5.4-7.4-5.4s-7.37 5.15-7.24 5.15 2.8-8.5 2.8-8.5l-6.62-5.03 8.27-.13z" fill="#108c00"/></g><g stroke-width="1pt"><path d="M177.17 330.65c0-.26 5.6-16 5.6-16l5.1 15.74s17.08.5 17.08.25-13.5 10.32-13.5 10.32 6.37 18.06 6.1 17.55c-.24-.52-14.78-10.84-14.78-10.84S168 358 168.24 358s5.6-17.03 5.6-17.03L160.6 330.9l16.57-.25z"/><path d="M177.93 331.45c0-.22 4.86-13.86 4.86-13.86l4.4 13.62s14.8.45 14.8.23-11.7 8.94-11.7 8.94 5.52 15.63 5.3 15.18c-.23-.44-12.8-9.38-12.8-9.38s-12.82 8.94-12.6 8.94 4.86-14.75 4.86-14.75l-11.48-8.73 14.35-.22z" fill="#ffe700"/><path d="M179.98 333.72c0-.13 2.8-8 2.8-8l2.55 7.87s8.53.25 8.53.12-6.74 5.15-6.74 5.15 3.18 9.02 3.05 8.76c-.13-.25-7.38-5.4-7.38-5.4s-7.4 5.15-7.27 5.15 2.8-8.5 2.8-8.5l-6.62-5.03 8.28-.13z" fill="#108c00"/></g><g stroke-width="1pt"><path d="M150 208.74c0-.26 5.62-16 5.62-16l5.1 15.74s17.08.52 17.08.26-13.5 10.32-13.5 10.32 6.36 18.06 6.1 17.55c-.25-.5-14.78-10.83-14.78-10.83s-14.8 10.32-14.53 10.32 5.6-17.04 5.6-17.04L133.44 209l16.57-.26z"/><path d="M150.77 209.54c0-.22 4.86-13.86 4.86-13.86l4.42 13.63s14.8.46 14.8.24-11.7 8.94-11.7 8.94 5.5 15.64 5.3 15.2c-.23-.45-12.82-9.4-12.82-9.4s-12.8 8.95-12.58 8.95 4.85-14.75 4.85-14.75l-11.48-8.72 14.35-.22z" fill="#ffe700"/><path d="M152.83 211.8c0-.12 2.8-7.98 2.8-7.98l2.54 7.86s8.53.26 8.53.13-6.74 5.16-6.74 5.16 3.18 9.02 3.05 8.76c-.1-.25-7.37-5.4-7.37-5.4s-7.4 5.15-7.26 5.15 2.8-8.5 2.8-8.5l-6.62-5.03 8.28-.13z" fill="#108c00"/></g><g stroke-width="1pt"><path d="M324.6 174.14c0 .26-5.6 16-5.6 16l-5.1-15.74s-17.07-.52-17.07-.26 13.5-10.32 13.5-10.32-6.37-18.06-6.1-17.55c.24.52 14.78 10.84 14.78 10.84s14.8-10.3 14.54-10.3-5.6 17.02-5.6 17.02l13.24 10.06-16.57.26z"/><path d="M323.85 173.34c0 .22-4.86 13.86-4.86 13.86l-4.42-13.63s-14.8-.45-14.8-.23 11.7-8.94 11.7-8.94-5.5-15.64-5.3-15.2c.23.45 12.8 9.4 12.8 9.4s12.82-8.95 12.6-8.95-4.86 14.75-4.86 14.75l11.48 8.72-14.35.22z" fill="#ffe700"/><path d="M321.8 171.07c0 .13-2.8 8-2.8 8l-2.55-7.87s-8.53-.26-8.53-.13 6.75-5.15 6.75-5.15-3.18-9.02-3.06-8.76c.14.25 7.4 5.4 7.4 5.4s7.38-5.15 7.25-5.15-2.8 8.52-2.8 8.52l6.62 5.02-8.27.13z" fill="#108c00"/></g><g stroke-width="1pt"><path d="M367.3 290.28c0 .26-5.6 16-5.6 16l-5.1-15.74s-17.07-.52-17.07-.26 13.5-10.32 13.5-10.32-6.37-18.06-6.1-17.55c.24.53 14.78 10.85 14.78 10.85s14.8-10.32 14.54-10.32-5.6 17.03-5.6 17.03l13.24 10.06-16.57.26z"/><path d="M366.55 289.48c0 .22-4.85 13.86-4.85 13.86l-4.42-13.63s-14.8-.44-14.8-.22 11.7-8.94 11.7-8.94-5.5-15.64-5.3-15.2c.23.45 12.8 9.4 12.8 9.4s12.82-8.95 12.6-8.95-4.86 14.74-4.86 14.74l11.48 8.72-14.35.22z" fill="#ffe700"/><path d="M364.5 287.2c0 .14-2.8 8-2.8 8l-2.55-7.86s-8.53-.26-8.53-.13 6.75-5.14 6.75-5.14-3.18-9.02-3.06-8.76c.14.25 7.4 5.4 7.4 5.4s7.38-5.15 7.25-5.15-2.8 8.5-2.8 8.5l6.62 5.03-8.27.13z" fill="#108c00"/></g><g stroke-width="1pt"><path d="M261.43 375.25c0 .26-5.6 16-5.6 16l-5.1-15.74s-17.1-.5-17.1-.25 13.52-10.32 13.52-10.32-6.38-18.06-6.12-17.55c.25.52 14.8 10.84 14.8 10.84s14.77-10.32 14.52-10.32-5.6 17.03-5.6 17.03L277.98 375l-16.57.25z"/><path d="M260.66 374.45c0 .22-4.86 13.86-4.86 13.86l-4.4-13.63s-14.8-.44-14.8-.22 11.7-8.94 11.7-8.94-5.52-15.63-5.3-15.18c.22.44 12.8 9.38 12.8 9.38s12.8-8.94 12.6-8.94-4.87 14.75-4.87 14.75l11.48 8.73-14.34.22z" fill="#ffe700"/><path d="M258.6 372.18c0 .13-2.8 8-2.8 8l-2.54-7.87s-8.53-.25-8.53-.12 6.75-5.15 6.75-5.15-3.18-9.02-3.06-8.76c.13.25 7.4 5.4 7.4 5.4s7.37-5.15 7.24-5.15-2.8 8.5-2.8 8.5l6.62 5.03-8.27.13z" fill="#108c00"/></g><g stroke-width="1pt"><path d="M161.94 290.28c0 .26-5.6 16-5.6 16l-5.1-15.74s-17.1-.52-17.1-.26 13.52-10.32 13.52-10.32-6.38-18.06-6.12-17.55c.25.53 14.8 10.85 14.8 10.85s14.77-10.32 14.52-10.32-5.6 17.03-5.6 17.03l13.25 10.06-16.57.26z"/><path d="M161.17 289.48c0 .22-4.85 13.86-4.85 13.86l-4.42-13.63s-14.8-.44-14.8-.22 11.7-8.94 11.7-8.94-5.5-15.64-5.3-15.2c.23.45 12.8 9.4 12.8 9.4s12.82-8.95 12.6-8.95-4.86 14.74-4.86 14.74l11.48 8.72-14.35.22z" fill="#ffe700"/><path d="M159.12 287.2c0 .14-2.8 8-2.8 8l-2.55-7.86s-8.53-.26-8.53-.13 6.75-5.14 6.75-5.14-3.2-9.02-3.07-8.76c.13.25 7.4 5.4 7.4 5.4s7.37-5.15 7.24-5.15-2.8 8.5-2.8 8.5l6.62 5.03-8.28.13z" fill="#108c00"/></g><g stroke-width="1pt"><path d="M198.66 175.85c0 .26-5.6 16-5.6 16l-5.1-15.74s-17.1-.5-17.1-.25 13.52-10.32 13.52-10.32-6.38-18.06-6.12-17.55c.25.52 14.8 10.84 14.8 10.84s14.77-10.32 14.52-10.32-5.6 17.03-5.6 17.03l13.25 10.06-16.57.25z"/><path d="M197.9 175.05c0 .22-4.87 13.86-4.87 13.86l-4.4-13.63s-14.8-.44-14.8-.22 11.7-8.94 11.7-8.94-5.52-15.63-5.3-15.18c.22.44 12.8 9.38 12.8 9.38s12.8-8.94 12.6-8.94-4.87 14.75-4.87 14.75l11.48 8.73-14.35.22z" fill="#ffe700"/><path d="M195.84 172.78c0 .13-2.8 8-2.8 8l-2.55-7.87s-8.54-.25-8.54-.12 6.75-5.15 6.75-5.15-3.17-9.02-3.05-8.76c.13.25 7.4 5.4 7.4 5.4s7.37-5.15 7.24-5.15-2.8 8.5-2.8 8.5l6.6 5.03-8.26.13z" fill="#108c00"/></g><g transform="matrix(1.04 0 0 1.04 -250.6 359.43)"><g transform="matrix(.16 -.02 0 .18 429.84 -215.63)" stroke="#000" stroke-width="2.5" fill="#009200"><ellipse rx="30.8" ry="189.82" transform="matrix(1.4 0 0 1 -534.3 263.7)" cy="586.13" cx="680.21"/><ellipse rx="30.8" ry="189.82" transform="matrix(1.5 0 0 1 -547.2 267.1)" cy="586.13" cx="680.21"/><ellipse rx="30.8" ry="189.82" transform="matrix(1.2 0 0 1.1 -364.9 214.1)" cy="586.13" cx="680.21"/></g><g stroke="#000" transform="translate(72.9 -9.8)"><path d="M388.53-52.95c6-.33 3.33-3.33 6.33-5 3-1.66 7.32-.66 8.65 1.33 1.35 2 .35 4 2 4 1.68 0 46.92-2.53 48.6-.87 1.65 1.68 2 5 .32 6.34-1.66 1.33-58.9 2.87-60.9 1.53-2-1.33-5-7-5-7.32z" stroke-width=".5" fill="#a95600"/><path d="M529.6 405.46c0 39.98 45.55 27.88 46.8 61.25-.72 35.42-76.7 3.48-78.63-61.24 1.93-64.72 75.1-97.93 76.7-61 1.25 30.68-44.88 21.02-44.88 61z" transform="matrix(.1 0 0 .1 340.4 -81.7)" stroke-width="3.85" fill="#ff0"/><path d="M529.6 405.46c0 39.98 45.55 27.88 46.8 61.25-.72 35.42-76.7 3.48-78.63-61.24 1.93-64.72 75.1-97.93 76.7-61 1.25 30.68-44.88 21.02-44.88 61z" transform="matrix(.1 0 0 .1 344.4 -81.6)" stroke-width="3.85" fill="#ff0"/><path d="M529.6 405.46c0 39.98 45.55 27.88 46.8 61.25-.72 35.42-76.7 3.48-78.63-61.24 1.93-64.72 75.1-97.93 76.7-61 1.25 30.68-44.88 21.02-44.88 61z" transform="matrix(.1 0 0 .1 348.7 -81.8)" stroke-width="3.85" fill="#ff0"/><path d="M529.6 405.46c0 39.98 45.55 27.88 46.8 61.25-.72 35.42-76.7 3.48-78.63-61.24 1.93-64.72 75.1-97.93 76.7-61 1.25 30.68-44.88 21.02-44.88 61z" transform="matrix(.1 0 0 .1 352.7 -81.8)" stroke-width="3.85" fill="#ff0"/><ellipse rx="3.53" ry="3.4" transform="matrix(1.1 0 0 1.1 -75.6 4.7)" cy="-41.09" cx="478.38" stroke-width=".4" fill="#a95600"/></g><g transform="rotate(-5.8 688.4 -625.2)" stroke="#000" stroke-width="2.5" fill="#009200"><ellipse rx="20.81" ry="24.14" transform="matrix(.2 0 0 .3 369.8 -361.6)" cy="905" cx="427.11"/><ellipse rx="20.81" ry="24.14" transform="matrix(.2 0 0 .3 364 -362.7)" cy="905" cx="427.11"/><ellipse rx="20.81" ry="24.14" transform="matrix(.2 0 0 .3 360.6 -370.6)" cy="905" cx="427.11"/><ellipse rx="20.81" ry="24.14" transform="matrix(.2 0 0 .3 369.3 -399.4)" cy="905" cx="427.11"/><ellipse rx="20.81" ry="24.14" transform="matrix(.2 0 0 .3 377.4 -379.1)" cy="905" cx="427.11"/><ellipse rx="20.81" ry="24.14" transform="matrix(.2 0 0 .3 373.2 -382.2)" cy="905" cx="427.11"/><ellipse rx="20.81" ry="24.14" transform="matrix(.2 0 0 .3 368 -386.7)" cy="905" cx="427.11"/><ellipse rx="20.81" ry="24.14" transform="matrix(.2 0 0 .3 363 -389.5)" cy="905" cx="427.11"/></g><path d="M482.57-141.07s-11.7 10.05-10.1 36.95C474.26-77.08 499-64.6 499-64.6s6.2-7.73 5.23-29.47c-2.1-31.77-13.87-45.7-13.87-45.7l-7.8-1.3z" stroke="#000" stroke-width=".4562" fill="#804bff"/><g transform="rotate(4.5 181 769.9)" stroke="#000" stroke-width="2.5" fill="#009200"><ellipse rx="20.81" ry="24.14" transform="matrix(.2 0 0 .3 369.8 -361.6)" cy="905" cx="427.11"/><ellipse rx="20.81" ry="24.14" transform="matrix(.2 0 0 .3 364 -362.7)" cy="905" cx="427.11"/><ellipse rx="20.81" ry="24.14" transform="matrix(.2 0 0 .3 360.6 -370.6)" cy="905" cx="427.11"/><ellipse rx="20.81" ry="24.14" transform="matrix(.2 0 0 .3 369.3 -399.4)" cy="905" cx="427.11"/><ellipse rx="20.81" ry="24.14" transform="matrix(.2 0 0 .3 377.4 -379.1)" cy="905" cx="427.11"/><ellipse rx="20.81" ry="24.14" transform="matrix(.2 0 0 .3 373.2 -382.2)" cy="905" cx="427.11"/><ellipse rx="20.81" ry="24.14" transform="matrix(.2 0 0 .3 368 -386.7)" cy="905" cx="427.11"/><ellipse rx="20.81" ry="24.14" transform="matrix(.2 0 0 .3 363 -389.5)" cy="905" cx="427.11"/></g><ellipse rx="58.28" ry="186.49" stroke="#000" transform="matrix(.2 -.1 .1 .1 369.6 -145.1)" cy="606.11" cx="624.42" stroke-width="1pt" fill="#c90000"/><g stroke="#000" fill="#009200" transform="rotate(1 242.4 -1957.8)"><ellipse rx="10.82" ry="12.9" transform="matrix(.4 0 0 .3 445.1 -230.5)" cy="356.75" cx="218.13" stroke-width="1.46"/><ellipse rx="10.82" ry="12.9" transform="matrix(.3 0 0 .3 457.2 -235.9)" cy="356.75" cx="218.13" stroke-width="1.55"/><ellipse rx="10.82" ry="12.9" transform="matrix(.3 0 0 .3 452 -235.9)" cy="356.75" cx="218.13" stroke-width="1.55"/><ellipse rx="10.82" ry="12.9" transform="matrix(.4 0 0 .3 449.5 -233.5)" cy="356.75" cx="218.13" stroke-width="1.56"/><ellipse rx="10.82" ry="12.9" transform="matrix(.4 0 0 .3 448.9 -237.9)" cy="356.75" cx="218.13" stroke-width="1.56"/><ellipse rx="10.82" ry="12.9" transform="matrix(.3 0 0 .3 447 -238.8)" cy="356.75" cx="218.13" stroke-width="1.55"/><ellipse rx="10.82" ry="12.9" transform="matrix(.3 0 0 .3 448.1 -241.6)" cy="356.75" cx="218.13" stroke-width="1.56"/><ellipse rx="10.82" ry="12.9" transform="matrix(.4 0 0 .3 432.8 -243.5)" cy="356.75" cx="218.13" stroke-width="1.46"/><ellipse rx="10.82" ry="12.9" transform="matrix(.4 0 0 .3 445.9 -243.5)" cy="356.75" cx="218.13" stroke-width="1.56"/><ellipse rx="10.82" ry="12.9" transform="matrix(.3 0 0 .3 444.2 -247)" cy="356.75" cx="218.13" stroke-width="1.56"/><ellipse rx="10.82" ry="12.9" transform="matrix(.3 0 0 .3 436.1 -243.2)" cy="356.75" cx="218.13" stroke-width="1.55"/><ellipse rx="10.82" ry="12.9" transform="matrix(.3 0 0 .3 437.4 -243.9)" cy="356.75" cx="218.13" stroke-width="1.56"/><ellipse rx="10.82" ry="12.9" transform="matrix(.3 0 0 .3 439 -247)" cy="356.75" cx="218.13" stroke-width="1.56"/></g><g stroke="#000" fill="#009200" transform="matrix(.2 0 0 .2 421 -216.8)"><ellipse rx="67.44" ry="205.64" transform="matrix(1 -.3 .4 .9 -245.8 324.4)" cy="564.48" cx="528.68" stroke-width="2.54"/><ellipse rx="13.32" ry="40.8" transform="rotate(-23.4 630.5 660.9)" cy="646.07" cx="528.68" stroke-width="2.5"/><path d="M139.87 644c0 57.67-18.75 86.16-34.55 110.3 7.52-32.46 12.9-52.63 12.9-110.3 0-57.68 29.58-85.34 40.38-102-4.18 16.66-18.73 44.32-18.73 102z" transform="matrix(1.9 -.5 .9 1.2 -352.3 -10)" stroke-width="1.53"/><path d="M139.87 644c0 57.67-18.75 86.16-34.55 110.3 7.52-32.46 12.9-52.63 12.9-110.3 0-57.68 29.58-85.34 40.38-102-4.18 16.66-18.73 44.32-18.73 102z" transform="matrix(1.9 -.5 .9 1.2 -348.4 44.1)" stroke-width="1.53"/><path d="M139.87 644c0 57.67-18.75 86.16-34.55 110.3 7.52-32.46 12.9-52.63 12.9-110.3 0-57.68 29.58-85.34 40.38-102-4.18 16.66-18.73 44.32-18.73 102z" transform="matrix(1.9 -.5 1 1.2 -361.9 105.8)" stroke-width="1.53"/><ellipse rx="13.32" ry="40.8" transform="matrix(1.8 -.4 .7 1.6 -915.6 -221)" cy="646.07" cx="528.68" stroke-width="1.39"/><ellipse rx="13.32" ry="40.8" transform="matrix(1.6 -.2 .5 1.4 -739.5 -91.8)" cy="646.07" cx="528.68" stroke-width="1.64"/><ellipse rx="13.32" ry="40.8" transform="matrix(1.6 -.2 .5 1.4 -750.6 -91.8)" cy="646.07" cx="528.68" stroke-width="1.64"/><ellipse rx="13.32" ry="40.8" transform="matrix(1.3 -.2 .5 1 -531.1 47.6)" cy="646.07" cx="528.68" stroke-width="2.1"/><ellipse rx="13.32" ry="40.8" transform="matrix(1.3 -.1 .4 1 -517.9 12.2)" cy="646.07" cx="528.68" stroke-width="2.1"/><path d="M145.7 569.47c0 34-6.7 61.6-14.98 61.6-8.28 0-15-27.6-15-61.6" transform="matrix(1 -.5 .5 1.2 12.8 -14.5)" stroke-width="2.09"/><ellipse rx="13.32" ry="40.8" transform="matrix(1.3 -.1 .4 1 -519.5 -34.4)" cy="646.07" cx="528.68" stroke-width="2.1"/><ellipse rx="13.32" ry="40.8" transform="matrix(1.3 -.1 .4 1 -534 -40.1)" cy="646.07" cx="528.68" stroke-width="2.1"/><path d="M145.7 569.47c0 34-6.7 61.6-14.98 61.6-8.28 0-15-27.6-15-61.6" transform="matrix(.7 -.5 .5 .8 39.5 143.3)" stroke-width="2.88"/><path d="M145.7 569.47c0 34-6.7 61.6-14.98 61.6-8.28 0-15-27.6-15-61.6" transform="matrix(.7 -.5 .5 .8 51.1 125.8)" stroke-width="2.88"/><path d="M145.7 569.47c0 34-6.7 61.6-14.98 61.6-8.28 0-15-27.6-15-61.6" transform="matrix(.9 -.6 .6 1.1 -40.2 -10.7)" stroke-width="2.09"/><path d="M145.7 569.47c0 34-6.7 61.6-14.98 61.6-8.28 0-15-27.6-15-61.6" transform="matrix(.7 -.5 .5 .9 68.6 71.2)" stroke-width="2.74"/></g><g stroke="#000" stroke-width="2.5" fill="#804bff"><path d="M276.27 345.4c-12.28 9.18.4 25.15 12.02 30.7 13.05 7.66 86.6 58.17 136.3 12-40.78.82-118.65-63.2-148.33-42.7z" transform="matrix(.2 0 0 .2 457.9 -214.3)"/><path d="M276.27 345.4c-12.28 9.18.4 25.15 12.02 30.7 13.05 7.66 86.6 58.17 136.3 12-40.78.82-118.65-63.2-148.33-42.7z" transform="matrix(.2 0 0 .2 456.6 -220.2)"/><path d="M276.27 345.4c-12.28 9.18.4 25.15 12.02 30.7 13.05 7.66 86.6 58.17 136.3 12-40.78.82-118.65-63.2-148.33-42.7z" transform="matrix(.2 0 0 .2 454.8 -225.8)"/><path d="M276.27 345.4c-12.28 9.18.4 25.15 12.02 30.7 13.05 7.66 86.6 58.17 136.3 12-40.78.82-118.65-63.2-148.33-42.7z" transform="matrix(.2 0 0 .2 450.9 -232.2)"/></g><g transform="rotate(1 -589.6 681.6)"><path d="M211.17 247.3c21.77-12.06 56.62-9.75 79.73 11.16 19.36 16.95 45.3 75.2 70.33 92.84-20.23.02-31.3-5.77-42.24-15.18-28.78 15.44-38.14 16.72-63.9 15.63-35.9-1.33-62.46-17.65-68.18-40.6-6.17-21.8 4.92-52.5 24.25-63.85z" transform="matrix(.2 0 .1 .2 407.8 -213.6)" stroke="#000" stroke-width="2.5" fill="#804bff"/><ellipse rx="14.15" ry="14.99" stroke="#000" transform="matrix(.3 0 0 .1 401.8 -215.2)" cy="323.04" cx="287.23" stroke-width="2.5" fill="red"/><ellipse rx="23.25" ry="15.89" stroke="#000" transform="matrix(.2 -.1 .1 .2 398.7 -208.1)" cy="348.26" cx="204.58" stroke-width="2.5" fill="#ff0"/><ellipse rx="5.83" ry="5.83" transform="matrix(.2 0 0 .2 411.3 -233.7)" cy="333.86" cx="283.9"/><path d="M516.8 260.3c4.42 18.1-6.67 43.07-33.13 52.6-26.78 13.17-46.08 41.83-55.64 88.02-47.25-103.27-23.1-148.28 20.6-160.35C486 226.2 509.05 227.2 516.8 260.3z" transform="matrix(.1 0 0 .1 417.9 -191.5)" stroke="#000" stroke-width="6.56" fill="#ff0"/><ellipse rx="4.71" ry="4.71" transform="matrix(.2 0 0 .2 418.7 -235)" cy="362.39" cx="198.98"/></g></g></g></svg>