<svg xmlns="http://www.w3.org/2000/svg" height="480" width="640" version="1"><g stroke-width="1pt" fill-rule="evenodd"><path fill="#fff" d="M0 0h640v480H0z"/><path fill="#00bf13" d="M0 0h320v480H0z"/><g fill="#f21930"><path d="M445.9 308.66c-40.32 72.5-129.23 98.27-199.88 59.36s-96.4-127.84-57.5-198.5c38.92-70.64 127.84-96.4 198.5-57.48 26.1 14.38 44.7 33.3 59.32 60.24-5.33-7.34-11.3-13.4-19.1-19.55-48.2-37.9-118.06-29.53-155.94 18.66-37.9 48.18-29.53 118.04 18.66 155.92 48.2 37.9 118.04 29.53 155.93-18.66z"/><path d="M411.37 321.6l-35.18-49.87-58.03 18.92 36.55-48.87-35.93-49.34 57.77 19.67 35.82-49.4-.86 61.02 58.06 18.8-58.3 18.04"/></g></g></svg>