<svg xmlns="http://www.w3.org/2000/svg" height="480" width="640"><defs><clipPath id="a"><path fill-opacity=".67" d="M-158.67 0H524v512h-682.67z"/></clipPath></defs><g clip-path="url(#a)" fill-rule="evenodd" transform="matrix(.9 0 0 .9 148.8 0)"><path d="M-180 0H844v256H-180z"/><path fill="#107b00" d="M-180 256H844v256H-180z"/><path fill="#fff" d="M-180 169.3H844v176.14H-180z"/><path d="M309.98 195.55c-45.2-19.42-84.1 20.64-84.06 58.09.04 39.15 38.02 80.92 86.17 62.43-34.1-10.04-48.17-35.22-48.16-60.68-.25-25.23 15.88-54.56 46.04-59.85z" fill="#f0f"/><path fill="#ff1800" d="M363.14 294.2l-25.83-18.85-25.98 18.9 9.96-30.4-26-18.88 31.98.07 9.93-30.55 9.8 30.42h32.12l-25.92 18.74"/><path d="M314.34 315.65c-50.52 17.54-88.55-20.48-89.22-59.46-.66-38.98 37.6-79.17 89.48-60.87-29.36 4.35-50.92 30.08-51.17 59.17-.2 22 12.8 53.34 50.9 61.15zM-179.98 0l348.6 256.62L-180 512V2.62l.02-2.62z" fill="red"/></g></svg>