<svg xmlns="http://www.w3.org/2000/svg" height="480" width="640"><g fill-rule="evenodd"><path fill="red" d="M0 0h640v480H0z"/><path fill="#009a00" d="M146 83.45h360.9v314.4H146z"/><path d="M146 397.87h360.9l-180.45-157.2L146 397.88z" fill="#ffca00"/><path d="M146 83.53l180.46 157.2L506.9 83.52H146z" fill="#ffca00"/><path fill="#ffce00" d="M177.7 61.37l-16.44-11.73-16.46 11.7 6.07-19.26-16.2-12.05 20.2-.18 6.43-19.14 6.4 19.17 20.2.2-16.23 12.02M342.6 61.85l-16.45-11.73-16.47 11.7 6.08-19.26-16.2-12.05 20.18-.18 6.45-19.14 6.4 19.16 20.2.2-16.25 12.02m171.04 19l-16.46-11.72-16.46 11.7 6.07-19.26-16.2-12.04 20.18-.18 6.45-19.14 6.4 19.15 20.2.2-16.23 12.02M177.7 468.8l-16.44-11.74-16.46 11.7 6.07-19.26-16.2-12.04 20.2-.18 6.43-19.14 6.4 19.15 20.2.2-16.23 12.02m170.93 19.76l-16.45-11.72-16.47 11.7 6.08-19.27-16.2-12.05 20.18-.18 6.45-19.14 6.4 19.15 20.2.22-16.25 12m171.04 19.02l-16.46-11.72-16.46 11.7 6.07-19.27-16.2-12.04 20.18-.2 6.45-19.13 6.4 19.15 20.2.22-16.23 12"/><path d="M369.72 243.1c0 24.17-19.6 43.76-43.76 43.76s-43.77-19.6-43.77-43.76c0-24.17 19.6-43.77 43.76-43.77s43.76 19.6 43.76 43.77z" fill="red"/><path fill="#ffce00" d="M345.75 270.04l-19.53-13.93-19.56 13.9 7.2-22.88-19.24-14.3 24-.2 7.64-22.75 7.62 22.75 23.98.25-19.3 14.28"/><path d="M169.97 273.46s2.22-18.4.95-30.76c-1.27-12.37-32.98-15.85-32.98-15.85l-.3 28.86s25.36 20.62 32.33 17.76z" fill="red"/><path d="M123.67 200.53s3.06 16.2-1.27 48.52c-2.3 17.54 16.8 29.5 40.28 34.88-4.76-8.24-17.44-21.56-14.27-45.98 17.13 2.22 33.3 35.52 33.3 35.52s12.82-47.22-13-54.55c-25.1-7.05-45.03-18.08-45.03-18.4z" fill="#ffce00"/></g></svg>