<svg xmlns="http://www.w3.org/2000/svg" height="480" width="640" version="1"><defs><clipPath id="a"><path fill-opacity=".67" d="M0 0h682.67v512H0z"/></clipPath></defs><g clip-path="url(#a)" transform="scale(.9)"><g fill-rule="evenodd" stroke-width="1pt"><path fill="#3e9a00" d="M0 0h767.98v171.9H0z"/><path fill="#fff" d="M0 171.9h767.98v168.2H0z"/><path fill="#e32118" d="M0 340.1h767.98V512H0z"/><path d="M0 0v511.98l256-256L0 0z" fill="#5567e4"/></g><path d="M283.46 148.82v442.9c0 35.44 17.72 70.88 53.15 70.88h70.87c17.72 0 35.44 35.43 35.44 35.43s16.95-35.43 35.44-35.43h70.87c35.44 0 53.16-35.44 53.16-70.87v-442.9h-318.9z" fill-rule="evenodd" transform="matrix(.2 0 0 .2 269.5 179.8)" stroke="#000" stroke-width="3.79" fill="#ccc"/><path d="M215.38 731.8c-18.02 0-35.74-17.73-35.74-35.44v-88.6c15.5 15.52 88.6 70.88 70.87 88.6-17.7 17.7-35.73 0-35.42 0s.3 35.43.3 35.43z" fill-rule="evenodd" transform="matrix(.2 0 0 .2 267.8 160.4)" stroke="#000" stroke-width="1pt" fill="#ccc"/><path d="M319.35 289.56c4.24-3.3 4.24 3.3 8.5 0l-4.26 19.72c-4.13-.6-4.27 0-6.65-3.28 0-3.3 0-13.8 2.4-16.44z" fill-rule="evenodd" fill="#ccc"/><path d="M215.38 731.8c-18.02 0-35.74-17.73-35.74-35.44v-88.6c15.5 15.52 88.6 70.88 70.87 88.6-17.7 17.7-35.73 0-35.42 0s.3 35.43.3 35.43z" fill-rule="evenodd" transform="matrix(-.2 0 0 .2 481.9 160.4)" stroke="#000" stroke-width="1pt" fill="#ccc"/><path d="M429.7 289.56c-4.24-3.3-4.24 3.3-8.48 0l4.24 19.72c4.12-.6 4.26 0 6.64-3.28 0-3.3 0-13.8-2.4-16.44z" fill-rule="evenodd" fill="#ccc"/><path d="M513.78 1140.9c0-17.7-35.43-53.14-35.43-70.86s35.43 17.72 106.3 17.72c70.86 0 106.3-88.6 88.58-106.3 17.7 35.43 17.7 70.86 17.7 88.58 0 35.43-35.42 70.86-106.3 70.86H513.8z" fill-rule="evenodd" transform="matrix(.2 0 0 .2 268.4 107.5)" stroke="#000" stroke-width="1pt" fill="#ccc"/><path d="M513.78 1140.9c0-17.7-35.43-53.14-35.43-70.86s35.43 17.72 106.3 17.72c70.86 0 106.3-88.6 88.58-106.3 17.7 35.43 17.7 70.86 17.7 88.58 0 35.43-35.42 70.86-106.3 70.86H513.8z" fill-rule="evenodd" transform="matrix(-.2 0 0 .2 480.6 107.5)" stroke="#000" stroke-width="1pt" fill="#ccc"/><path d="M357.55 315.85c0-3.28 8.5-6.57 8.5-9.86v16.43h-8.5v-6.58zm33.95 0c0-3.28-8.5-6.57-8.5-9.86v16.43h8.5v-6.58z" fill-rule="evenodd" fill="#ccc"/><path d="M371.17 1034.6c0 17.7 141.73 17.7 141.73 0v70.87c0 17.7-141.73 17.7-141.73 0v-70.87z" fill-rule="evenodd" transform="matrix(.2 0 0 .2 268.6 123.9)" stroke="#000" stroke-width="1pt" fill="#ccc"/><path d="M249.63 696.36c-17.72 17.72-17.72-17.72-35.43 0-17.72 17.72 17.7 106.3 88.58 106.3s106.3-35.43 106.3-17.72c0 17.72-35.43 35.44-35.43 53.15s141.73 17.7 141.73 0-35.44-35.44-35.44-53.16c0-17.7 35.44 17.72 106.3 17.72 70.87 0 106.3-88.58 88.6-106.3-17.73-17.72-17.73 17.72-35.45 0" transform="matrix(.2 0 0 .2 268 160.4)" stroke="#000" stroke-width="1.25" fill="none"/><path d="M426.84 313.6l-4.37-7.28.76-.3 4.37 7.28-.76.3zm-2.74-1.58h.9c.25.87.26 1.6.04 2.17-.2.56-.63.94-1.25 1.15-.65.2-1.26.22-1.82.03-.57-.2-1.1-.58-1.63-1.14-.5-.55-.95-1.2-1.3-1.9-.4-.8-.6-1.52-.66-2.18-.06-.67.06-1.22.35-1.67.3-.46.7-.77 1.22-.94.6-.2 1.2-.18 1.78.07.6.25 1.15.7 1.65 1.34l-.66.5c-.4-.52-.8-.85-1.2-1-.38-.17-.77-.2-1.17-.05-.46.15-.77.4-.94.8-.17.37-.2.82-.1 1.33.1.5.28 1 .52 1.5.32.64.67 1.18 1.05 1.6.38.44.8.72 1.22.85.42.13.82.14 1.18.02.44-.15.74-.43.9-.86.13-.42.1-.97-.1-1.64zm-5.33 5.02l-2.85-7.77.82-.2 2.84 7.77-.8.2zm-5.38.86l-.76-7.13-2.1.15-.1-.96 5.06-.36.1.96-2.1.15.74 7.14-.85.06zm-8.15-2.16l.8-.1c.03.42.12.75.26 1.02.15.26.37.47.66.63.3.15.62.23.98.23.33 0 .6-.06.86-.2.25-.1.43-.27.55-.5.13-.2.2-.43.2-.68 0-.26-.07-.48-.2-.67-.1-.2-.3-.35-.57-.48-.17-.1-.55-.22-1.14-.4-.6-.17-1-.34-1.24-.5-.3-.2-.53-.46-.7-.76-.13-.3-.2-.64-.2-1 0-.42.08-.8.27-1.16.18-.36.45-.63.8-.8.36-.2.75-.3 1.18-.3.48 0 .9.1 1.26.3.38.2.66.48.85.86.2.37.3.8.32 1.28l-.82.08c-.04-.52-.2-.9-.45-1.17-.25-.26-.62-.4-1.1-.4-.53 0-.9.13-1.14.37-.23.23-.35.52-.35.86 0 .3.1.53.26.72.16.2.6.38 1.28.58.7.2 1.17.37 1.42.5.38.23.65.5.83.84.17.34.26.72.26 1.16 0 .43-.1.84-.3 1.22-.2.38-.47.68-.84.9-.36.2-.78.3-1.24.3-.58 0-1.07-.1-1.46-.3-.4-.23-.7-.55-.92-.98-.23-.43-.34-.92-.35-1.46zm-2.32-5.6l.85.03-.26 4.7c-.04.8-.15 1.45-.33 1.93-.18.47-.46.85-.86 1.14-.4.28-.9.4-1.52.4-.6-.03-1.1-.18-1.46-.46-.36-.27-.62-.66-.75-1.16-.13-.5-.17-1.2-.12-2.05l.26-4.7.84.05-.26 4.68c-.03.7 0 1.22.07 1.56.08.34.24.6.48.8.25.18.55.28.92.3.62.02 1.07-.14 1.36-.5.28-.34.46-1.02.5-2.04l.27-4.68zm-10.5 5.44l.78-.13c.03.62.13 1.04.3 1.27.15.23.38.35.67.35.2 0 .4-.06.55-.2.15-.1.26-.28.32-.5.06-.2.1-.55.1-1v-5.6h.84v5.53c0 .68-.07 1.2-.2 1.58-.13.37-.34.65-.62.85-.28.2-.6.3-1 .3-.55 0-.98-.2-1.3-.62-.28-.4-.43-1-.42-1.82zM378 329.15v-1.13l3.3-5.87c.23-.42.45-.78.66-1.1h-3.58V320h4.6v1.08l-3.6 6.36-.4.65h4.1v1.08H378zm-46.76-11.27l2.02-9 .84.12-2.03 9-.83-.12zm-9.1-3.55l5.3-8.07.75.34-1.18 7.65 4.14-6.34.72.32-5.28 8.08-.76-.34 1.17-7.66-4.14 6.35-.7-.32zm4.55-9l.6.5-4.56 3.74c-.8.65-1.48 1.12-2.05 1.42-.58.3-1.14.45-1.7.47-.57.02-1.07-.15-1.5-.5-.43-.36-.65-.75-.67-1.18 0-.45.16-.9.53-1.4.36-.5.97-1.08 1.8-1.77l4.55-3.75.6.5-4.53 3.74c-.7.57-1.16 1-1.4 1.34-.26.33-.38.63-.38.92 0 .3.12.55.38.76.45.36.93.48 1.47.35.54-.15 1.3-.62 2.3-1.43l4.53-3.75zm9.05 13.25l.3-9.16 2.22.05c.5 0 .88.06 1.14.15.37.13.68.36.93.68.33.42.56.95.7 1.6.15.63.2 1.35.18 2.17 0 .7-.1 1.3-.22 1.85-.13.53-.3.97-.48 1.32-.2.35-.4.62-.62.82-.2.2-.47.34-.78.44-.3.1-.64.14-1.03.13l-2.32-.05zm.9-1.06l1.36.03c.43 0 .77-.04 1-.15.25-.1.45-.26.6-.46.2-.28.38-.66.5-1.14.14-.5.22-1.08.24-1.77.03-.96-.05-1.7-.26-2.2-.2-.53-.45-.9-.76-1.07-.23-.13-.6-.2-1.1-.2l-1.35-.04-.23 7zm5.03 1.12l2.47-9.17h.9l2.64 9.17h-.98l-.75-2.77h-2.68l-.72 2.77h-.9zm1.85-3.76h2.18l-.66-2.54c-.2-.77-.36-1.4-.45-1.9-.1.58-.2 1.17-.36 1.75l-.7 2.68zm4.84 3.76v-9.17h2.2c.5 0 .9.05 1.15.13.37.13.68.35.94.66.34.4.6.93.76 1.57.17.64.26 1.36.26 2.18 0 .7-.06 1.32-.17 1.86-.1.54-.25.98-.43 1.34-.18.35-.38.63-.6.83-.2.2-.45.35-.75.45-.3.1-.65.16-1.03.16h-2.33zm.85-1.08h1.37c.4 0 .74-.06.98-.17.25-.12.44-.28.58-.48.2-.3.36-.68.47-1.16.12-.5.17-1.08.17-1.77 0-.97-.1-1.7-.33-2.22-.22-.52-.5-.86-.8-1.04-.23-.12-.6-.18-1.1-.18h-1.35v7zm17.33 11.6v-9.18h2.42c.43 0 .75.03.98.1.3.06.58.2.8.42.2.2.38.5.5.88.14.38.2.8.2 1.25 0 .78-.17 1.44-.52 1.98-.35.55-.97.82-1.88.82h-1.65v3.72h-.85zm.85-4.82h1.66c.55 0 .94-.15 1.17-.44.23-.3.34-.7.34-1.23 0-.4-.06-.7-.2-.98-.14-.3-.3-.47-.54-.56-.14-.05-.4-.08-.8-.08h-1.63v3.28zm4.43 4.8l2.46-9.16h.9l2.64 9.17h-.97l-.75-2.78h-2.7l-.7 2.78h-.9zm1.85-3.76h2.18l-.67-2.54c-.22-.77-.37-1.4-.47-1.9-.08.6-.2 1.17-.34 1.75l-.72 2.68zm55.08-12.5l-4.3-7.83.7-.4 8.05 5.55-.7.44-2.4-1.7-2 1.2 1.33 2.35-.67.4zm-1.14-3.58l1.6-.98-2.18-1.56c-.66-.48-1.2-.87-1.6-1.2.33.47.63.95.9 1.44l1.28 2.3z"/><path d="M375 251.8c0 4.94 3 19.74-5.65 42.74-.64 1.67 1.06 2.47 2.47 2.82 1.42.36 2.12-1.4 2.12-1.76s.36 2.82 1.77 2.47c1.42-.35 2.84-2.47 2.84-2.47s.7 3.18 2.47 3.18 1.77-3.9 1.77-3.9c0 .36 1.23 3.35 2.64 3.35 1.43 0 3.6-1.32 2.34-3.48-8.97-15.1-8.5-40.13-8.5-42.95 0-2.83 4.17-7.96 8.3-8.1l-1.6-2.5c-1.03.32-2.28.55-4.4 2.32s-3.36 3.7-3.36 3.7V235.2h-3.53l.35 10.95s-1.2-1.42-3-3c-1.72-1.48-4.8-1.37-6.7-1.06l-.2 2.4c2.26.46 5.12-.47 6.54 1.65 1.76 1.76 3.36 3.2 3.36 5.65z" fill-rule="evenodd" stroke="#000" stroke-width=".7545000000000001" fill="#682900"/><path d="M310.55 312.2v-.82c0 1.97-.07 1.1.83-2.5.78-2.85 2.4-5.52 4.17-7.5 3.04-1 7.44.06 10.82-.83 2.28-3.26 5.83 4.27 5.83-.83 4.34-.3 4.4-4.56 5.82-6.66 4.06-.5 4.97-5.44 8.33-2.5 2.76 1.3.4-.83 5-.83 2.7.67 4.13 2.32 6.66.83.63-2.85 1.4-6.26 1.67-10-1.17-2.34-.83-7.17-.83-10.8 2.27-3.04 6.26 2.47 10 1.65 1-3.55 4.14-3.45 2.5-6.65-.32-4-1.1-6.5 0-10.82 1.3-3.7 3.22-3.6 6.65-5.83 1.08-3.27-.13-6.03.82-10 3.9-.1 3.83-1.12 4.17-4.98 1.25-2.66 2.84-5.36 4.98-7.5 1.97-2.38 4.3-2.14 5.83-5.82 1.32-3.27 1.32-4.75 5-5.83 2.7-1.27 4.84-1.4 6.66-3.33 1.74-3.06 3.18-5.5 5.83-9.16 2.62-1.77 15.23 1.67 19.14 1.67 2.12-2.67 5.4-6.86 7.5-8.33 3.58-1.92 4.95-2.5 9.98-2.5 4.3 1.27 6.1 2.8 10.83 1.67 1.93-2.72 3.8-3.98 8.32-2.5 3.44 2.2 5.35 2.1 6.66 5.82 1.95 4.6 1.5 6.2 6.66 6.66 5.17.18 5.7 1.44 9.15 4.16 5.25 2.25 5 .98 5 5.83 3.72 0 4.05-.44 4.16 3.33 2.3.7 4.92 2.72 6.67 4.16 2.1 2.42 2.63 3.93 7.5 4.16 3.58-1.5 4.74-1.5 5-5.82 2.74-1 3.2-3.64 4.15-6.66 2.1-2.9 3.48-3.33 8.33-3.33 4.28 1.78 4.14 3.57 3.33 7.5 2.66.55 3.76.24 4.16 3.33 1.4 2.35 1.04 5.15-.83 6.66 2.14 1.56 3.38 4.25 4.17 7.48-1.4 2.36-.54 5.8 0 8.33 2.9 1.47 4.42 2.82 8.33 4.17 1.98 1.68 6.2 3.44 10 4.17 4.47-.6 5.95-.57 9.98 1.66 2.08 3 2.23 6.77 4.16 8.33 2.18 1.84 5.82 2.65 7.5 5 2.77 2.02 3.6 4.27 7.5 5 1.46 2.2 4.62 5.88 5.82 8.3.94 2.7 1.36 7.42 2.5 10.83v11.66c-.16 4.3-.84 6.92-.84 11.66-.74 2.38-1.66 3.3-1.66 6.66-1.58 3.52-2.93 6.5-5 9.16-.94 4.23-2.47 6.22-4.16 10 .05 4.36.83 6.3.83 10.8-1.8 2.7-3.9 4.66-7.5 6.67-2.72 3.2-4.36 4.43-5 9.16-1.55 2.7-1.43 2.5-4.98 2.5-4.2 0-7.82.37-11.66.83-3.4 0-4.65.35-6.67-1.67-4-1.8-7.34-1.92-11.65-.84-2.33-1.6-3.26-2.5-7.5-2.5-3.16.43-5.96.83-10 .83-2.48-2.8-3.9-3.34-8.3-3.34-2.37 1.18-7.2.84-10.84.84-3.82-1.05-4.3-2.63-5.83-5.83-2.6-1.24-3.62-3.04-7.48-3.33-3.64 0-8.47.34-10.82-.83-2.73-.32-5.6-1.02-7.5-2.5-1.55-2.28-3.54-4.26-5.82-5.82-3.7 0-5.87.35-7.5-1.67-2.73-2.14-4.9-5.55-8.32-7.48-3.06-2.43-5.14-3.9-6.66-8.32 0-3.95.78-4.88-3.33-5-2.76 2.8-4 3.33-9.16 3.33-3.38 0-6.92-.02-9.15-.83-3.68-2.1-5.03-3-9.16-3.33-2.6 1.64-6.02 3.55-10 4.16-3.4 1.97-5.44 2.38-6.66 5.83-3.15 2.57-5 4.08-9.16 5.83-2.3 2.2-4.52 2.58-5.83 6.65-.8 3.37-1.66 5.37-1.66 10 .58 4.36.35 6.23-1.68 9.98-1.74 2.5-4.75 3.7-7.5 5.83-4.1.5-4.54.18-7.48-1.67-2.94-.98-6.27-1.8-10-2.5-4.5-.87-6-1.97-8.32-4.17l8.33 4.16c-4.5-.87-6.02-1.97-8.33-4.17-5.06-3.58-6.06-5.4-11.66-5.83-5.2.06-7.43.32-8.32 5 2.96.8.6 2.55-.83 3.33-2.07 1.85-5.4 3.37-8.32 4.16-1.33 1.32-1.07-1.1-3.33-1.67-3.45-1.85-4.9-3.23-8.33-4.17-1.68-2.97-3.58-5.27-5.82-8.32-1.74-2.82-3.4-3.84-5.83-6.66-1.17-1.76-4.16-1.83-5.83-3.33-1-3-3.17-8.57-2.5-11.66 1.68-1.6 2.64-7.25 5-8.33 3.37-2.53 4.63-.23 9.16 0 4.26 0-5.87-6.7-1.67-6.66 3.92-.66 4.4-2.6 5.83-5h10z" fill-rule="evenodd" transform="matrix(.2 0 0 .1 285.6 190.1)" stroke="#000" stroke-width="4.46" fill="#009200"/><path d="M362.24 229.77c.17.14.93.5 1.66.5.8.15.97.44 1.17 1.17.43.26.7.33 1.5.33.87.17.86.44 1.5 1m-10.66 6.32c.37.05 1.64.16 2.5.16.67-.38 1-.65 1.5-1 .8 0 1.07.07 1.5.33.42.13 1.4.2 1.83.33 0 .22-.05.16.17.16m-1-2.67c.02 0 .65-.4 1.17-.5.56-.4 1.2-.6 1.83-.83.42-.1 1.42-.1 1.66-.17m3.5-1v.17c0-.47-.02-.22.33.66.17.82.38 1.5.66 2.17.5.77.8 1.1 1.5 1.5.6.46 1.03.94 1.66 1.16.44.4 1.02.7 1.67 1 .84 0 1.5.13 2.32.16h.5m.33-16.15v.17c0-.44 0-.22-.16.67-.27.53-.56 1.03-.85 1.5-.78.28-1.07.85-1.33 1.5-.27.44-.7 1.03-1 1.5-.52.64-.72.84-1.66 1.16m11.65-3c0 .05-.3.5-.5 1-.32.5-.4 1.38-.5 2 0 .72.02 1.5.18 2 .5.62.63.95 1.5 1.33l-1.5-1.33c.5.62.63.95 1.5 1.33m11.5-.5v.17c0-.52.03-.2-.84.5-.65.6-1.12 1.08-1.67 1.5-.95.25-1.1.23-2 .16h-1.5m8.33 10.33h-.17c.47 0 .22-.03-.66.32-.74.2-1.58.2-2.17 0-.6-.33-1.2-.6-1.66-1.16-.25-.2-.3-.27-.5-.34m-.67 6.33v-.17c0 .53.05.2-.83-.5-.37-.55-.75-.76-1.5-1.33-.65-.78-.73-1.1-1-2-.07-.66-.3-1.34 0-1.83m-9 3c.37 0 1.72-.03 2.34-.17.48-.33 1.02-.55 1.67-.83.35-.87.65-1.16.66-2.17m-14.8-1.83c-.14-.3-.72-1.48-1-2.16-.02-.73-.17-1.26-.17-2m-21.32 9.5c.18.02.9.07 1.34 0 .73-.38 1.4-.45 2.17-.5.4-.24 1.03-.2 1.34-.5.7-.47.8-.94 1.17-1.67.04-.35.14-.5.17-.84m4.83 1c-.36 0-1.73.02-2.5-.17-.4-.27-.67-.7-1-1 .23 0 .17.04.17-.18m5.33-3.5c.07-.02.9-.33 1.5-.33.36-.24.95-.45 1.5-.67.3-.16.5-.36.83-.5m-23.98 8.16h.17c-.45 0-.22 0 .66-.18 1.04-.06 1.74-.42 2.5-.67.5-.46 1.2-.92 1.67-1.16 0-.3-.07-.27.16-.35m37.15-6.82h.16c-.45 0-.2-.02.68.33.7.27 1.34.36 2 .5.6.15.82.33 1.66.33.84.36 1.02.47 1.67 1 .5.23.85.33 1.67.33.44-.25 1.24-.53 1.67-.67.24-.18.26-.1.33-.33" stroke="#006800" stroke-width=".81" fill="none"/><path d="M374.55 272.44v3.77c0 1.2-.1 2.26-.47 3.3 0 1.18-.02 2.3-.47 3.06-.07 1.13-.23 2.1-.23 3.3-.34 1.02-.3 2.4-.47 3.53-.15 1.1-.28 2.4-.47 3.3-.35.73-.95 2.06-1.4 2.58-.07 1.02-.32 1.52 0 2.35.3 1 .22 2.17.22 3.3.3.92.24 2 .24 3.06m4.22-26.85c.08.47.43 2.17.47 3.3v5.17c0 1.26.1 2.37.23 3.54-.02 1.38-.27 1.9-.94 3.06-.14 1.1-.35 2.18-.48 3.3-.33.98-.24 2.16-.24 3.3.28 1.26.74 1.48.94 2.58 0 .67.07 1 .24 1.4m1.88-17.18c0 .43-.02 2.5.24 3.3 0 1.2.22 2.1.23 3.3-.13 1.05-.28 1.8-.93 2.35-.43.87-.66 1.65-.7 2.83.6.42 1.27 1.6 1.88 2.12.5 1.07 1 1.12 1.18 2.35.5.55-.35.83 0 1.18.38.5.14.3 0 .7" stroke="#000" stroke-width=".2pt" fill="none"/><path fill-rule="evenodd" transform="matrix(.2 0 0 .1 369.6 198.5)" stroke="#000" stroke-width="3.13" fill="#ffd100" d="M93.25-106.57l15.98 25.6 30.16 1.04L125.2-53.3l14.17 26.66-30.17 1.04L93.25 0l-16-25.6-30.15-1.04L61.28-53.3 47.1-79.92l30.16-1.04z"/><path fill-rule="evenodd" transform="matrix(.2 0 0 .1 349.7 198.5)" stroke="#000" stroke-width="3.13" fill="#ffd100" d="M93.25-106.57l15.98 25.6 30.16 1.04L125.2-53.3l14.17 26.66-30.17 1.04L93.25 0l-16-25.6-30.15-1.04L61.28-53.3 47.1-79.92l30.16-1.04z"/><path fill-rule="evenodd" transform="matrix(.2 0 0 .1 332.7 203.7)" stroke="#000" stroke-width="3.13" fill="#ffd100" d="M93.25-106.57l15.98 25.6 30.16 1.04L125.2-53.3l14.17 26.66-30.17 1.04L93.25 0l-16-25.6-30.15-1.04L61.28-53.3 47.1-79.92l30.16-1.04z"/><path fill-rule="evenodd" transform="matrix(-.2 0 0 .1 418.3 203.2)" stroke="#000" stroke-width="3.13" fill="#ffd100" d="M93.25-106.57l15.98 25.6 30.16 1.04L125.2-53.3l14.17 26.66-30.17 1.04L93.25 0l-16-25.6-30.15-1.04L61.28-53.3 47.1-79.92l30.16-1.04z"/><path fill-rule="evenodd" transform="matrix(-.1 -.1 -.1 .1 433.6 213.4)" stroke="#000" stroke-width="3.13" fill="#ffd100" d="M93.25-106.57l15.98 25.6 30.16 1.04L125.2-53.3l14.17 26.66-30.17 1.04L93.25 0l-16-25.6-30.15-1.04L61.28-53.3 47.1-79.92l30.16-1.04z"/><path fill-rule="evenodd" transform="matrix(.1 -.1 .1 .1 316.9 212.4)" stroke="#000" stroke-width="3.13" fill="#ffd100" d="M93.25-106.57l15.98 25.6 30.16 1.04L125.2-53.3l14.17 26.66-30.17 1.04L93.25 0l-16-25.6-30.15-1.04L61.28-53.3 47.1-79.92l30.16-1.04z"/></g></svg>