<svg xmlns="http://www.w3.org/2000/svg" height="480" width="640"><g fill-rule="evenodd" stroke-width="1pt"><path fill="#06f" d="M0 0h640v480H0z"/><path fill="#fff" d="M213.34 0h213.33v480H213.34z"/></g><path d="M312.5 360.85c3.6-3.75 22.8-9.6 36.46-10.8 11.8-.92 19.4-8.68 26.4-9.44 20.2-20.3 46.62-28.07 63.9-67.62 3.28-11.87 5.6-26.33 5.96-40.15-6.5-46.2-10.73-44.95-20.47-75.48" stroke="#000" stroke-width="1.025" fill="none"/><path d="M348.74 354.45c.35 3.4 10.76 15.97 28.74 13.76-1.6-3.46-5.52-5.95-11.12-11.17-2.56-2.64-17.75-4.2-17.62-2.58zm21.4-3.58c-2.1.2-3.95 1.43-.38 4.57 6.03 5.06 27.64 9.72 30.9 3.3-9.57-1.3-15.95-3.33-16.93-3.3-4.45-1.44-10.18-4.9-13.6-4.57z" fill-rule="evenodd" fill="#0c5c1d"/><path d="M359.36 349.33c4.36-3 7.73-2.75 10.55-3.35 7.24-.5 12.18.5 15.2 1.75 4.47 1.92 11 6.75 11.82 10.25-6.64-.13-11.05-5.14-19.6-7.04-4.37-.38-12.43-.94-17.96-1.6zm-11.55-1.3c12.6-7.77 24.56-21.98 25.78-36.84-15.73 12.3-26.4 30.1-25.77 36.82z" fill-rule="evenodd" fill="#0c5c1d"/><path d="M354.93 347.87c10.65-4.62 25.1-14.97 26.84-36.5-14.62 9.2-19.3 22.8-26.84 36.5zm22.48-10.38c-.8-6.08 13.8-37.84 22.3-46 .93 12.2-10.96 46.54-22.3 46zm-.44 1.2c2.22 9.43 26.3 11.88 34.08.84-9.68-1.62-21.65-2.56-34.08-.83zm10.6-6.45c9.85 6.2 33.86 1.86 47.86-9.24-20.9-6.3-46.8 5.72-47.87 9.25zm18.98-13.58c1.56-6.84 21.83-20.36 34.9-19.6-8.3 11.26-11.15 9.33-15.47 14.33-2.96 3.7-13.27 6.43-19.43 5.27zm6.67-15.55c-7.17-2.72-5.57-23.42-.77-31.87 4.86 11.4 6.16 29.17.78 31.87zm9.9-7.65c-9.55-5.3-6.1-31.28-1.02-38.56 4 7.76 6.1 34.8 1.02 38.57zm3.66-.23c5.53-8.7 24.78-9.08 33.24-5.7-9.2 8.98-23.34 9.43-33.24 5.7zm5.7-5.6c-7.96-12.43-3.02-19.02 1.83-34.42 2.34 13.08.45 26.88-1.85 34.43zm10.07-27.57c1.37-11.53 11.82-16.98 23.7-20.94-2.47 8.5-7.6 17.67-23.7 20.94z" fill-rule="evenodd" fill="#0c5c1d"/><path d="M439.7 268.36c-12.43-2.13-13-14-12.75-25.6 3.54 6.4 12.04 14.63 12.75 25.6zm-3.16-20.1c2.94-7.2-2.23-26.7-14.92-33.87.2 11.92 8.33 26.75 14.92 33.86zm7.04-4.2c1.82-4.3 3-6.48 5.74-11.95 4.77-10 1.7-6.64 8.12-18.74 3.48 13.5-3.48 29.62-13.86 30.7zm.84-36.17c-8.6 4.7-17.32 1.65-29.26-7.9 9.85-.9 18.7 3.83 29.26 7.9zm-2.37-4.8c5.15-17.1 8.17-20 12.4-38.55-10.57 8.55-16 27.07-12.4 38.54zm-1.94-1.14c-11.57-8.4-14.3-17.97-27.63-21.45.28 4.8 19.45 24.73 27.64 21.46z" fill-rule="evenodd" fill="#0c5c1d"/><path d="M437.12 190.25c-7.4-9.2-11.48-16.72-22.44-23.37 1.75 11.23 14.02 27.55 22.44 23.38zm-14.03-20.53c2.34-12.84-13.56-21.37-19.08-27.95-.62 11.35 9.3 24.7 19.07 27.95z" fill-rule="evenodd" fill="#0c5c1d"/><path d="M423 154.94c3.7-11.57-6.68-19.42-11.85-25.32.83 11.3 2.54 22.95 11.85 25.32zm15.02 22.98c4.56-7.46 1.97-24.56-1-31.77-3.68 3.95-5.44 30.43 1 31.77z" fill-rule="evenodd" fill="#0c5c1d"/><path d="M430.95 162.76c5.17-9.15 2.27-18.92-.77-26.1-3.35 10.67-5.77 20.94.77 26.1zm10.55 72.45c7.67-.97 13.1-16.98 7.82-31.3-4.92 12.74-4.9 18.8-7.82 31.3z" fill-rule="evenodd" fill="#0c5c1d"/><path d="M439.53 206.86c9.56.5 15.58-7.77 20.64-22.2-7.87 5.05-11.74 18.4-20.64 22.2zm6.46 32.27c-8.75 2.1-18.6-20.8-11.84-33.7 7.4 14.8 9.1 21 11.82 33.7zm-9.32 33.56c1.2-8.75 19.95-10.97 29.36-9.05-7.53 6.05-22.85 9.8-29.36 9.04z" fill-rule="evenodd" fill="#0c5c1d"/><path d="M432.24 286.56c5.32-4.65 13.74.36 27.25-25.98-18.18 10.36-25.16 22.43-27.26 25.98z" fill-rule="evenodd" fill="#0c5c1d"/><path d="M325.68 360.86c-2.9-4.1-18.18-8.54-31.83-9.72-11.8.5-22.62-2.27-32.46-7.3-20.22-20.33-42.7-33.8-59.98-73.35-3.28-11.88-5.27-22.77-5.62-36.6 6.52-46.18 7.18-50.63 25.1-81.17" stroke="#000" stroke-width="1.025" fill="none"/><path d="M282.22 354.72c-.35 3.4-12.27 13.96-28.74 13.77 1.6-3.48 17.8-7.2 22.2-13.46 1.3-1.88 6.67-1.93 6.54-.32zm-12.1-4.83c2.08-.36 3.2.66-.37 3.8-6.02 5.06-16.3 7.45-31.4 10.1 5.03-5.07 17.2-9.37 18.2-9.33 4.43-1.46 9.66-3.9 13.58-4.58z" fill-rule="evenodd" fill="#0c5c1d"/><path d="M278.9 349.35c-1.6-3.5-3.2-5.27-6.02-5.86-7.22-.5-12.92.73-15.2 1.73-2.45 1.42-10.22 6.5-11.05 10 5.9-1.64 9.8-6.15 18.34-7.3 4.1-1.38 9.9-1.18 13.93 1.42zm16.1-3.83c-12.6-7.75-20.53-17.68-21.75-32.54 15.73 12.32 22.37 25.8 21.74 32.54z" fill-rule="evenodd" fill="#0c5c1d"/><path d="M287.12 347.65c-11.92-5.12-16.27-14.72-24.57-30.46 14.87 7.43 21.06 15.24 24.57 30.45zm-26.77-5.35c2.58-10.6-1.93-26.24-9.7-33.9-.66 11.97 1.65 31.93 9.7 33.9z" fill-rule="evenodd" fill="#0c5c1d"/><path d="M256.25 339.5c-2.22 9.4-26.8 9.6-34.08.82 7.4 1.66 23.67 1.98 34.08-.83zM249.7 332c-7.57 5.7-38.15-3.7-38.53-9 4.02-.5 37.46 5.47 38.54 9z" fill-rule="evenodd" fill="#0c5c1d"/><path d="M247.5 330.05c4.43-8.76-7.76-36.46-12.63-36.23 2.88 20.7 8.1 30.13 12.63 36.23zm-7.98-7.32c-2.82-6.6-24.1-17.84-34.9-19.6 8.8 9.24 14.48 7.94 17.5 13.82 2.2 3.96 11.75 4.67 17.4 5.78z" fill-rule="evenodd" fill="#0c5c1d"/><path d="M235.53 317.75c2.2-8.3 1.1-11.64-4.33-17.62-.55 8.75.56 12.2 4.33 17.62zm-7.98-9.28c5.98-3.92 2.33-23.98-3-29.6-1.1 14.47-2.54 27.24 3 29.6zm-10.64-15c10.32-3.54 2.34-22.7-.98-30.24-4 7.76 3 11.86 1 30.25zm-1.87 1.28c-8.55-8.2-23.77-8.83-32.23-5.46 10.2 3.43 25.86 5.65 32.23 5.45zm-8.97-18.28c-2.24-8.54-21.12-8.5-30.24-5.47 8.2 5.1 23.86 7 30.24 5.47z" fill-rule="evenodd" fill="#0c5c1d"/><path d="M212 289.86c-5.32-4.65-13.74.36-27.25-25.98 18.17 10.36 25.15 22.43 27.25 25.98z" fill-rule="evenodd" fill="#0c5c1d"/><path d="M209.84 290.18c7.96-12.44 3.02-19.03-1.84-34.43-2.35 13.08-.45 26.88 1.84 34.43zm-12.1-28.34c-2.4-11.28-13.1-16.97-23.95-18.42 2.96 5.72 11.1 7.85 23.93 18.42z" fill-rule="evenodd" fill="#0c5c1d"/><path d="M199.6 267.57c12.55-1.14 14.06-12.9 14.72-24.5-4.04 6.1-13.16 13.63-14.73 24.5zm-.13-14.8c7.33.73 16.47-15.2 13.2-28-5.97 14.18-6.5 19.16-13.2 28zm-3.1-13.55c7.7-.47 14.2-16.07 9.9-30.72-3.57 13.54-1.94 19.48-9.9 30.72zm-1.37 7c-1.86-4.53-5.4-5.98-7.05-11.87-3-10.55-8.7-12.2-7.83-20.45 13.27 15.45 16.78 24.7 14.88 32.3zm.66-11.58c-3.33-29.88 2.6-17.16-10.35-45.33 19.3 17.28 13.96 44.18 10.36 45.34z" fill-rule="evenodd" fill="#0c5c1d"/><path d="M196.55 222c-.65-9.54 7.5-15.7 21.87-21-4.93 7.95-18.2 12.04-21.87 21zm3.43-21.9c-5.15-17.08-8.17-20-12.4-38.54 10.56 8.55 16 27.07 12.4 38.54zm4.72-.64c11.6-8.4 14.3-17.97 27.65-21.45-.3 4.8-19.46 24.73-27.65 21.46z" fill-rule="evenodd" fill="#0c5c1d"/><path d="M203.9 191.55c7.4-9.2 11.5-16.72 22.45-23.38-1.75 11.23-14.02 27.55-22.44 23.38zm16.88-28.88c.38-13.06 17.7-18.08 24.48-23.38-1.75 11.22-14.24 22.22-24.47 23.37z" fill-rule="evenodd" fill="#0c5c1d"/><path d="M219.38 153.7c-2.3-11.93 8.9-18.5 14.73-23.76-2.13 11.12-5.2 22.5-14.72 23.75zm-15.35 19.2c-4.57-7.45-1.97-24.56 1-31.77 3.67 3.95 5.44 30.43-1 31.78zm7.97-10.55c-3.8-9.8.46-19.04 4.5-25.73 1.78 11.05 2.7 21.57-4.5 25.73z" fill-rule="evenodd" fill="#0c5c1d"/><path d="M273.4 324.1c34.73-33.97 64.93-63.4 113.25-93.75-78.2 60.92-75.8 65.67-108.7 96.24-1.37-1.14-3.18-1.37-4.54-2.5z" fill-rule="evenodd" fill="#6f8593"/><path d="M211.6 332.1l12.94 14.23 39.22-59.53 16.5-17.53-4-5.8-25.34 24.76-2.9 5.8-36.42 38.08zm214.04.92l-16.56 14.67-36.95-60-21.48-23.4 5.8-4 28.52 28.84 2.9 5.8 37.77 38.08z" fill-rule="evenodd" fill="#6a0d06"/><path d="M372.1 296.72c.34-2.15 3.17-6.34-3.17-12 .15-3.02 3.25-6.15 5.67-7.7 2.03 0 7.92 4.1 10.53 8.7 1.47 3.22 2.22 8.2.34 12.02-1.4 2.1-3.02 4.56-4.76 5.55-.82.6-2.67.4-4.18-.24-2.38-1.2-4.2-4.68-4.42-6.34z" fill-rule="evenodd" fill="#bbcdcd"/><path d="M292.86 190.76l-28.91-29.18-1.74.07-.6 1.92-.92 2.68-3.42 3.22-45.17-42.35 42.47 46.32 2 .03 6.2-6.45 2.6.6 21.3 24.94 6.2-1.8zm37.74 173.92c52.9-85.93 99-145.15 14.57-221.08-3.16-3.18-14.07-13.25-20.9-15.42-.95-6.15 3.7-15.86-8.2-16.66-5.07.27-7.57 2.08-7.47 6.65 0 3.55 1.9 5.1.92 8.3-.35 1.58-4.3 5.2-4.06 9.82 1.54 9.84 5.34 12.25 6.5 13.65 2.06 2.06 3.3 3.5 9.36 6 .67.8 2.47 2.32 3.4 3.33 11.14 2.4 21.3 1.17 28.5 4.76 3.14.97 8.18 6.3 9.82 8.97 20.34 22.3 29.14 58.1-1.96 95.9 6.23.5 21.14-25.02 24.55-46.7-4.77 32.33-15.32 43.63-20.54 53.3 10.44-6.97 18.85-31.48 20.8-36.52-8.28 44.62-51.19 99.7-78.18 111.28 24.43-5.67 40.83-30.02 49.52-38.74-8.47 17.46-25.88 42.17-26.65 53.17z" fill-rule="evenodd"/><path d="M366.96 326.37c-33.82-34.2-87.8-85.83-114.6-91.5 41.75 26.96 78.5 63.2 110.07 94 1.36-1.15 3.17-1.37 4.53-2.5z" fill-rule="evenodd" fill="#6f8593"/><path d="M345.78 193.03l31.8-31.45 1.74.07.6 1.93.93 2.68 3.42 3.22 45.17-42.36-42.47 46.33-2 .02-6.2-6.45-2.6.6-27.1 30-3.3-4.6z" fill-rule="evenodd"/><path d="M261.64 181.42c1.66-9.06 4.46-15.63 13.82-17.2 24.53-1.07 47.25-1.22 72.92-.7 7.32 5.82-.3 17.75-7.93 18.35 11.7 20.23 27.7 35.7 29.9 59.56.75 12.53-3.66 20.66-8.1 25.17-33.72.82-50.06 5.02-78.25 7.2-7.88.95-13.8-8.2-13.73-15.84.05-7.88 3.3-14.04 12.05-15.13 2.7-.3 6.5-.12 9.9-.04-6.57-19.64-31.94-42.9-30.58-61.38z" fill-rule="evenodd" fill="#e3cf6e"/><path d="M305.93 133.15c-2.9 9.34 4.4 17.37 5.55 18.77 2.07 2.06 3.42 3.73 9.5 6.24.66.8 9.34 5.75 10.58 6.93 9.24 2.4 14.14-1.74 24.66.84-2.7-6.68-30.8-34.1-50.3-32.8z" fill-rule="evenodd" fill="#336446"/><path d="M306.16 137.4c-2.83 4.62 4.64 15.68 5.8 17.1 2.06 2.04 3.4 3.72 9.48 6.22.67.8 3.68 2.33 4.12 2.86l7.95 1.45c-2.7-6.68-18.06-29.8-27.34-27.64z" fill-rule="evenodd" fill="#402e08"/><path d="M309.16 121.6l-1.9 1.37 2.76 1.38-.86-2.75z" fill-rule="evenodd"/><path d="M305.44 140.63c1.54 9.85 5.2 12.53 6.44 13.85 2 2.13 3.5 3.5 9.56 6.24 2.44 2 3.36 2.57 5.25 3.58l6.4.95c-2.7-6.68-18.7-21.9-27.65-24.62z" fill-rule="evenodd" fill="#8c361d"/><path d="M263.9 295.92c-.34-2.16-3.17-6.34 3.17-12-.15-3.02-3.25-6.16-5.67-7.7-2.03 0-7.92 4.1-10.53 8.7-1.47 3.22-2.22 8.2-.34 12.02 1.4 2.1 3.02 4.56 4.76 5.55.82.6 2.67.4 4.18-.24 2.38-1.2 4.2-4.68 4.4-6.34z" fill-rule="evenodd" fill="#bbcdcd"/><path d="M268.43 327.28c-2.87 3.32-14.12 9.8-16.3 12-1.82 2.42 2.48 5.74 5.2 6.12 4.83-3.63 9.66-8.6 14.04-11.55 6.1-5.64 5.7-6.1 15.63-3.18-1.44-5.28-11.48-9.43-17.22-10.64-9.66 1.06-14.12 5.06-16.08 10.65 6.42-4.83 10.8-7.17 14.72-3.4z" fill-rule="evenodd" fill="#d4be72"/><path d="M373.76 296.58c.18-1.04.76-1.6.78-3.62 2.12 3.04 3.13 4.6 5.88 8.46-1 1.33-2.42.7-3.77.06-1.26-.8-3.06-3.4-2.88-4.9zm-111.24-.68c-.18-1.04-.76-1.6-.77-3.62-2.12 3.04-3.13 4.6-5.88 8.46 1 1.33 2.42.7 3.77.06 1.25-.8 3.06-3.4 2.88-4.9z" fill-rule="evenodd" fill="#fff"/><path d="M369.9 329.54c2.88 3.32 14.13 9.82 16.32 12 1.8 2.42-2.5 5.74-5.2 6.12-4.84-3.62-9.67-8.6-14.05-11.55-5-6-7.18-5.72-15.63-3.16 1.43-5.28 11.47-9.43 17.2-10.64 9.68 1.06 14.13 5.06 16.1 10.64-6.42-4.83-10.8-7.17-14.73-3.4z" fill-rule="evenodd" fill="#d4be72"/><path d="M292.06 242.87c2.4 3.44 4.4 11.05 4.72 15.93.43 9.45-9.15 14.25-12.4 13.86-6.2-.75-11.27-5.42-11.78-12.65 1-8.43 4.54-13.1 10.4-13.45 3.86.67 8.18 5.26 8.18 10.8-.1 4.6-1.4 9.2-4.25 9.3-6.88-.53-6.48-4.5-7.6-6.64-.3-1.57-.54-5.83.24-6.88 1.03-1.27 5.76-2.96 8.08.32 2.5 2.56-3.7-1.36-6.16.4-1.27 1.8-.44 4.7-.1 5.84.44 1.15.38 4.94 5.13 4.73 1.74-.26 2.35-3.8 2.5-7.28.25-2.37-3.08-7.15-6.42-8.16-2.3-.38-8 4.37-7.76 11.05.46 7.6 6.68 10.2 10 9.7 3.4-.9 10.48-3.58 10.18-11.13-.75-8.33-2.3-11.78-4.96-15.78 1.04 0 .96 0 2 .07zm49.65-58.85l-1.44-2.32H309.2c-8.8.8-22.23 2.14-26.84 4.14-11.83 5.82-15.05-4.46-15.7-7.02-.67-2.35.8-6.6 3.1-8.1.9-1.72 5.97-3.62 9.04-2.47 3.47 1.46 4.98 5.84 4.43 8.8-1.04 4.4-9.38 7.13-6.4 2.65.36-1.97 1.86-7.45-.78-11.37l-2.42.48c3.36 7 .28 10.48.12 12.48-.16 3.37 2.7 3.07 4.94 3 1.5-.1 4.07-2.02 5.12-3.06 1.25-1.1 1.44-3.2 1.6-5.68.4-6.52-5.58-11.16-9.6-10.57-12.26 3.04-12.56 13.26-9.78 18.57 1.55 2.67 3.34 4.3 6.32 5.85 2.5.74 6.3.3 9.3-.8 5.9-2.13 15.48-4.02 27.4-4.3l32.65-.28z" fill-rule="evenodd"/><path d="M330.92 235l1.3 1.88-.2.02c-.42-.42-.76-.7-1.02-.88-.27-.18-.57-.3-.88-.4-.18-.04-.44-.05-.78 0l-.54.05 3.66 5.33c.24.35.4.57.5.65.1.1.25.16.4.2.18.06.36.08.57.06l.24-.02.13.2-3.8.4-.12-.2.24-.02c.2-.02.35-.08.43-.16.06-.06.08-.15.05-.27 0-.1-.14-.3-.38-.65l-3.65-5.33-.53.06c-.48.06-.77.2-.86.42-.12.3-.04.72.22 1.24l-.2.02-1.28-1.87 6.5-.7zm-18.84 2.45l1.93 2.82.15-.02c.46-.05.7-.22.72-.52.02-.3-.13-.7-.44-1.26l.2-.02 2.48 3.62-.2.02c-.3-.4-.6-.7-.92-.95-.3-.24-.6-.4-.83-.45-.24-.07-.53-.1-.88-.05l1.34 1.95c.27.38.44.6.53.7.1.07.2.13.34.18.13.04.3.05.5.03l.44-.04c.7-.07 1.12-.27 1.32-.62.2-.34.2-.83-.05-1.46l.2-.02 1.18 2.23-6.26.66-.14-.2h.24c.2-.04.35-.1.43-.17.06-.07.08-.16.05-.28-.02-.1-.15-.3-.38-.65l-3.12-4.55-.42-.57c-.12-.1-.25-.2-.4-.25-.2-.08-.4-.1-.64-.1l-.24.04-.13-.2 6.06-.64 1.4 2.05-.2.02c-.44-.5-.83-.83-1.17-1.03-.33-.2-.7-.33-1.12-.4-.23-.03-.62-.02-1.17.03l-.75.08zm-6.2 7.44l.13.18-3.77.4-.13-.2h.24c.2-.03.35-.1.43-.17.06-.05.08-.14.05-.26-.02-.1-.15-.3-.38-.65l-3.12-4.55c-.24-.36-.4-.57-.5-.66-.1-.1-.25-.16-.4-.2-.18-.07-.36-.1-.56-.06l-.24.02-.13-.2 3.78-.4.13.2-.23.02c-.22.03-.36.08-.44.16-.06.06-.08.15-.05.27.02.1.14.32.38.66l3.12 4.55c.24.36.4.58.5.66.1.1.25.16.4.2.18.06.36.08.57.06l.24-.03zm-5.93-1.78l1.4 2.46-6.44.68-.12-.18.24-.03c.2-.02.36-.08.44-.16.06-.07.07-.16.04-.28 0-.1-.14-.3-.38-.65l-3.12-4.54c-.24-.36-.4-.58-.5-.66s-.24-.15-.4-.2c-.17-.06-.35-.08-.56-.05l-.24.02-.13-.2 3.87-.4.13.2-.32.02c-.2.03-.36.08-.44.16-.05.06-.06.15-.04.27.02.08.15.3.4.64l3 4.4c.25.36.42.58.53.67.1.1.23.17.4.2.1.02.33 0 .67-.02l.6-.07c.4-.03.66-.13.83-.28.17-.16.25-.4.25-.68 0-.3-.1-.73-.32-1.3l.22-.02zm44.15-2.1l-.13-.18.24-.03c.22 0 .36-.06.43-.13.07-.08.1-.17.07-.3-.02-.06-.15-.28-.4-.64l-3.1-4.54c-.25-.36-.42-.58-.52-.67s-.23-.15-.4-.2c-.16-.06-.35-.07-.55-.05l-.24.02-.14-.18 3.24-.35c.87-.1 1.64-.05 2.32.1.84.22 1.6.58 2.32 1.1.72.53 1.32 1.14 1.8 1.84.34.5.56.96.68 1.4.1.4.13.77.06 1.07-.08.3-.23.54-.46.74-.23.2-.56.37-1 .5-.18.07-.5.13-.98.18l-3.24.34zm-1.7-6.8l3.7 5.38c.2.3.32.46.4.52.06.07.15.1.24.14.13.04.28.05.47.03.6-.08.92-.32.97-.74.07-.57-.27-1.4-1.03-2.5-.6-.9-1.24-1.58-1.9-2.08-.5-.4-1-.64-1.47-.75-.33-.08-.8-.08-1.38-.02zm-3.14 5.2l-2.56.28.16.7c.05.24.13.43.23.58.12.2.3.33.53.4.13.05.4.06.8.05l.12.2-2.4.24-.14-.2c.24-.05.4-.18.44-.36.05-.18.02-.55-.1-1.1l-1.18-5.8h.1l6.5 5.4c.6.5 1.05.8 1.3.93.2.1.4.14.65.13l.13.2-3.5.37-.13-.2h.14c.3-.04.46-.1.52-.18.04-.07.03-.15-.04-.25l-.16-.2-.43-.35-.97-.82zm-.44-.34l-2.7-2.27.5 2.5 2.2-.23zm-17.2.96l1.3 1.94c.27.37.45.6.57.7.1.1.24.16.4.2.16.05.4.05.74.02l.13.2-3.7.38-.14-.2c.34-.02.54-.07.62-.14.08-.08.1-.17.1-.27-.02-.1-.16-.33-.42-.7l-3.07-4.5c-.26-.37-.44-.6-.56-.7-.1-.08-.25-.15-.4-.2s-.42-.05-.75 0l-.13-.2 3.37-.36c.86-.08 1.54-.1 2.03-.02.48.07.96.25 1.43.54.47.28.85.63 1.13 1.05.35.5.44.95.3 1.32-.12.23-.35.42-.72.58l3.35 2.15c.43.28.72.45.87.5.22.1.43.14.63.13l.13.2-2.28.23-4.5-2.9-.47.04zm-2.34-3.4l2.08 3.04.3-.03c.5-.05.84-.14 1.03-.25.17-.1.26-.3.24-.53 0-.24-.14-.54-.4-.9-.35-.53-.75-.9-1.18-1.13-.43-.23-.93-.3-1.5-.25l-.58.05zm-10.66 4.24c.8.08 1.4.2 1.83.4.6.26 1.08.64 1.42 1.14.35.5.43.97.22 1.35-.26.47-.9.76-1.93.87l-3.68.4-.14-.2c.34-.03.54-.08.62-.15.08-.1.1-.17.1-.27s-.16-.34-.42-.72l-3.07-4.47c-.27-.37-.45-.6-.57-.7-.1-.1-.25-.16-.4-.2-.17-.05-.42-.05-.75-.02l-.13-.18 3.48-.37c.83-.08 1.46-.08 1.9.03.45.1.86.28 1.26.54.38.26.68.55.9.86.22.34.3.65.23.94-.08.28-.38.53-.9.76zm-2.04.07c.5-.06.84-.15 1-.3.17-.12.25-.3.24-.5 0-.2-.1-.47-.32-.78-.2-.3-.45-.55-.7-.73-.27-.18-.55-.3-.86-.4-.3-.06-.7-.07-1.23 0l1.88 2.7zm.27.4l1.52 2.2.17.26c.12.2.27.33.43.4.16.1.34.13.53.1.28-.02.5-.1.66-.25.16-.15.23-.35.2-.6-.03-.23-.14-.5-.34-.78-.22-.32-.5-.6-.83-.84-.34-.24-.68-.4-1.02-.47-.35-.07-.8-.08-1.33-.02z" stroke-width="1pt" fill="#8c361d"/><path d="M327.9 235.86l1.82 2.8h.15c.46-.06.7-.23.73-.53.03-.3-.1-.7-.4-1.26l.2-.02 2.36 3.62-.2.02c-.3-.4-.6-.7-.9-.95-.3-.24-.57-.4-.8-.45-.25-.07-.55-.1-.9-.05l1.27 1.95c.24.38.4.6.5.7.1.07.2.13.33.18.13.04.3.05.5.03l.44-.04c.68-.07 1.12-.27 1.34-.62.2-.34.22-.83 0-1.46l.2-.02 1.1 2.23-6.3.66-.12-.2h.24c.2-.04.36-.1.44-.17.07-.07.08-.16.06-.28 0-.1-.13-.3-.36-.65l-2.94-4.55-.4-.57c-.1-.1-.24-.2-.38-.25-.2-.08-.4-.1-.65-.1l-.24.04-.13-.2 6.1-.63 1.3 2.05-.2.02c-.42-.5-.8-.83-1.13-1.03-.33-.2-.7-.33-1.1-.4-.24-.03-.64-.02-1.2.03l-.74.08zm-17.75 1.46l3.4-.36.32 1.37-2.87.3.17.72c1.27-.1 2.4.1 3.42.57.83.4 1.46.92 1.9 1.58.26.42.4.85.42 1.3 0 .42-.15.77-.47 1.04-.32.26-.76.43-1.3.5-.6.05-1.13 0-1.58-.18-.32-.13-.54-.3-.66-.48-.1-.15-.1-.28-.07-.4.04-.13.14-.2.3-.22.14 0 .3 0 .47.04s.52.16 1 .35c.33.12.58.2.77.24.14.02.28.02.4 0 .3-.02.5-.15.56-.38.08-.22.02-.48-.16-.76-.4-.6-1.02-1.05-1.9-1.36-.86-.3-1.78-.4-2.73-.3l-.44.04-.95-3.62zm-3.68.23l3.66 5.65c.28.43.47.7.6.8.1.12.25.2.42.27s.4.08.67.05l.17-.02.1.2-3.82.4-.12-.2h.2c.3-.04.5-.1.6-.18.08-.1.1-.2.08-.3-.03-.14-.2-.42-.47-.85l-2.32-3.58c-.2-.33-.35-.53-.43-.6-.1-.08-.2-.14-.32-.2-.12-.04-.24-.05-.35-.04-.2.02-.37.1-.56.23l-.23-.18 1.93-1.45.17-.02zm14.87 5.96l-.12-.18.23-.02c.22-.02.36-.07.43-.15.07-.07.1-.17.08-.28 0-.08-.13-.3-.37-.65l-2.95-4.54c-.23-.36-.4-.58-.5-.66s-.2-.15-.38-.2c-.16-.06-.34-.08-.54-.05l-.25.02-.12-.2 3.26-.34c.87-.1 1.64-.06 2.3.1.84.22 1.6.58 2.3 1.1.7.52 1.26 1.14 1.72 1.84.3.5.52.95.62 1.37.1.43.1.8.02 1.08-.1.3-.25.54-.5.74-.23.2-.56.36-1 .5-.2.06-.52.12-1 .17l-3.25.34zm-1.45-6.8l3.48 5.4c.2.28.3.45.38.5.07.07.15.12.24.15.13.04.3.05.47.03.6-.07.93-.3 1-.73.08-.57-.23-1.4-.94-2.5-.57-.9-1.18-1.58-1.82-2.08-.5-.4-.97-.64-1.43-.75-.32-.08-.78-.1-1.38-.02z" stroke-width="1pt" fill="#8c361d"/><path d="M349.08 233.48l1.96 2.8h.15c.45-.06.68-.23.7-.53 0-.3-.14-.7-.46-1.26l.2-.03 2.52 3.62h-.2c-.3-.38-.63-.7-.94-.93-.3-.23-.6-.38-.83-.45-.26-.07-.55-.1-.9-.05l1.36 1.95c.27.38.45.6.54.7.1.07.2.14.33.18.13.04.3.06.5.03l.44-.04c.68-.08 1.1-.3 1.3-.63.2-.35.2-.83-.06-1.46h.2l1.2 2.22-6.24.66-.13-.2h.24c.2-.03.35-.1.43-.17.06-.05.08-.14.04-.26 0-.08-.14-.3-.38-.65l-3.17-4.55c-.23-.3-.37-.5-.44-.57-.12-.12-.25-.2-.4-.26-.2-.08-.4-.1-.64-.08l-.24.02-.13-.18 6.05-.65 1.42 2.04-.2.02c-.45-.5-.84-.84-1.2-1.03-.32-.2-.7-.33-1.1-.4-.25-.04-.64-.03-1.2.03l-.74.08zm-20.37 6.63l-1.2-4.75 2.94-.32.13.2-.23.02c-.2.02-.36.07-.44.16-.05.07-.07.15-.04.27 0 .1.14.3.38.64l3.18 4.57c.24.35.42.57.52.65.1.1.23.16.4.2.17.06.35.08.55.06l.23-.03.13.2-3.78.4-.13-.2.23-.02c.22-.02.36-.08.44-.16.06-.06.07-.15.05-.27-.02-.08-.15-.3-.4-.65l-3.56-5.12 1.63 6.6-.13.02-7.18-5.96 3.4 4.86c.23.34.38.54.45.62.17.16.36.3.6.38.22.1.5.12.83.08l.13.2-2.47.26-.13-.2h.07c.16 0 .3-.05.4-.12.1-.07.16-.15.17-.25s-.03-.22-.1-.4l-.35-.5-3.04-4.38c-.25-.35-.42-.56-.52-.64-.1-.08-.23-.15-.4-.2-.16-.05-.35-.07-.55-.05l-.22.03-.13-.2 2.95-.3 5.2 4.33zm-12.4-3.13l1.95 2.8h.15c.46-.05.7-.23.7-.52.02-.3-.13-.72-.45-1.26l.2-.03 2.53 3.6-.2.03c-.32-.4-.64-.7-.95-.94-.3-.23-.6-.38-.83-.45-.24-.06-.54-.07-.88-.04l1.35 1.95c.27.4.45.62.54.7.1.08.2.15.34.2.13.04.3.05.5.03l.44-.05c.68-.07 1.1-.28 1.3-.62.2-.34.2-.83-.06-1.46l.2-.02 1.2 2.23-6.25.68-.13-.2.24-.02c.2-.02.35-.07.43-.16.07-.06.08-.15.05-.27 0-.08-.14-.3-.4-.65l-3.15-4.54c-.22-.3-.36-.5-.43-.57-.12-.12-.25-.2-.4-.26-.2-.07-.4-.1-.64-.07l-.24.02-.14-.18 6.05-.65 1.44 2.04-.2.02c-.46-.48-.85-.83-1.2-1.02-.33-.2-.7-.33-1.12-.4-.24-.04-.63-.03-1.18.03l-.75.07zm1.17 6.67l.13.2-3.78.4-.14-.2.24-.03c.2 0 .36-.06.44-.15.06-.06.07-.14.04-.27-.02-.08-.15-.3-.4-.64l-3.16-4.55c-.24-.36-.42-.58-.52-.66-.1-.1-.23-.16-.4-.2-.16-.06-.35-.08-.55-.06l-.24.03-.13-.18 3.78-.4.13.18-.23.03c-.2.02-.35.07-.43.16-.06.05-.07.14-.05.26 0 .08.14.3.38.65l3.17 4.55c.25.35.42.57.52.66.1.1.24.16.4.22.17.05.35.06.56.04l.24-.02zm-9.08-6.25l1.3 1.86-.2.02c-.4-.42-.75-.72-1.02-.9-.27-.16-.57-.3-.9-.38-.17-.05-.42-.05-.76-.02l-.54.06 3.7 5.33c.26.35.43.57.53.66.12.08.25.15.42.2.16.06.35.07.55.05l.24-.03.14.2-3.78.4-.14-.2.24-.02c.2-.02.36-.07.44-.16.06-.06.07-.15.05-.27-.02-.08-.15-.3-.4-.64l-3.7-5.33-.53.05c-.5.05-.77.2-.86.4-.1.32-.04.73.24 1.25l-.2.02-1.3-1.87 6.5-.7zm-17.62 2.3l1.96 2.8h.14c.46-.06.7-.23.7-.53.03-.3-.12-.72-.44-1.26h.2l2.52 3.6-.2.03c-.32-.4-.63-.7-.94-.94-.3-.25-.6-.4-.83-.47-.25-.07-.55-.08-.9-.05l1.36 1.95c.27.38.45.6.54.7.1.08.2.14.34.18.13.06.3.07.5.05l.43-.05c.68-.07 1.12-.28 1.3-.62.2-.34.2-.83-.06-1.46l.2-.02 1.2 2.23-6.24.67-.13-.2.24-.02c.2-.02.35-.07.43-.16.06-.06.08-.14.05-.27-.02-.08-.15-.3-.4-.64l-3.16-4.54c-.23-.3-.37-.5-.44-.57-.12-.13-.25-.2-.4-.27-.2-.08-.4-.1-.64-.08l-.24.02-.13-.18 6.05-.66 1.43 2.04-.2.02c-.46-.48-.85-.83-1.2-1.02-.33-.2-.7-.33-1.12-.4-.23-.04-.62-.03-1.17.03l-.75.1zm-4.3-.15l1.65 2.3-.2.02c-.52-.57-1.1-1-1.75-1.3-.64-.32-1.2-.45-1.67-.4-.36.04-.58.16-.66.37-.08.2-.04.43.13.67.1.17.23.3.4.4.2.16.48.3.82.43.23.1.76.25 1.56.47 1.12.3 1.96.62 2.5.94.54.33.96.7 1.28 1.17.4.6.5 1.1.33 1.58-.18.46-.63.73-1.36.8-.22.04-.45.04-.68.02-.23-.03-.54-.08-.94-.17-.22-.05-.38-.07-.5-.06-.08 0-.15.05-.2.13-.07.08-.08.2-.04.34l-.2.02-1.82-2.6.2-.03c.67.72 1.36 1.25 2.07 1.6.7.32 1.32.46 1.84.4.4-.04.64-.17.73-.4.1-.24.05-.5-.15-.77-.1-.16-.27-.3-.46-.46-.2-.14-.44-.27-.72-.38-.28-.12-.73-.27-1.35-.44-.9-.24-1.54-.45-1.98-.64-.44-.18-.84-.4-1.18-.66-.34-.25-.62-.54-.85-.86-.4-.55-.5-1.04-.35-1.47.15-.43.55-.7 1.2-.75.23-.03.48-.03.74 0 .18.03.44.08.75.17.32.08.53.12.62.1.1 0 .15-.04.17-.1 0-.06-.03-.2-.13-.4l.17-.02zm13.93 2.76l1.34 1.92c.26.38.45.6.56.7.12.1.26.16.42.2.17.05.4.06.74.02l.13.2-3.7.38-.12-.2c.34-.03.55-.08.62-.15.08-.07.1-.16.1-.26-.03-.1-.17-.33-.43-.7l-3.12-4.48c-.26-.38-.45-.6-.56-.7-.13-.1-.27-.16-.43-.2s-.4-.06-.74-.02l-.13-.2 3.15-.32c1.04-.1 1.9-.02 2.6.3.7.3 1.24.7 1.6 1.24.32.45.44.85.38 1.2-.07.35-.32.6-.75.78-.3.12-.85.22-1.67.3zm-2.35-3.38l2.08 3 .27-.03c.44-.06.7-.22.75-.48.06-.28-.1-.67-.45-1.2-.35-.5-.73-.87-1.13-1.08-.4-.2-.84-.3-1.3-.24l-.22.02zm39.7-1.18c.8.08 1.42.2 1.85.4.6.27 1.1.65 1.43 1.14.36.52.44.97.24 1.36-.25.47-.88.75-1.9.86l-3.7.4-.12-.2c.34-.03.54-.08.62-.15.08-.08.1-.16.1-.26-.03-.1-.17-.35-.43-.72l-3.12-4.5c-.26-.36-.45-.6-.57-.68-.1-.1-.25-.17-.4-.2-.17-.05-.42-.06-.75-.03l-.13-.18 3.47-.38c.82-.1 1.46-.08 1.9.02.45.1.87.3 1.26.55.4.25.7.53.92.85.23.33.32.64.25.93-.08.28-.38.54-.9.76zm-2.03.07c.5-.05.84-.14 1-.27.17-.14.25-.3.24-.52 0-.2-.12-.46-.33-.77-.2-.3-.45-.55-.72-.73-.25-.18-.53-.3-.84-.4-.3-.06-.7-.07-1.23 0l1.9 2.7zm.28.4l1.55 2.22.17.26c.13.18.27.3.43.4.17.08.34.1.54.1.27-.04.5-.13.65-.27.15-.14.22-.34.2-.58-.05-.24-.16-.5-.36-.8-.23-.3-.5-.6-.85-.83-.33-.25-.67-.4-1.02-.48-.34-.07-.8-.08-1.33-.02zm7.45-.5l1.35 1.92c.26.38.45.6.56.7.12.1.26.16.42.2.16.05.4.05.74.02l.13.2-3.7.38-.14-.2c.35-.02.55-.08.63-.15.08-.07.1-.16.1-.26-.03-.1-.17-.32-.43-.7l-3.12-4.48c-.26-.38-.45-.6-.57-.7-.1-.1-.24-.16-.4-.2-.16-.05-.4-.05-.74-.02l-.13-.2 3.36-.35c.87-.1 1.55-.1 2.03-.03s.97.25 1.44.54c.47.28.85.63 1.15 1.05.35.52.45.96.3 1.33-.1.24-.33.43-.7.58l3.37 2.17c.43.28.72.45.87.5.22.1.43.14.63.13l.13.2-2.28.23-4.53-2.9-.47.05zm-2.36-3.4l2.1 3.02.3-.03c.5-.06.84-.14 1.02-.26.2-.1.27-.3.25-.53 0-.23-.15-.53-.4-.9-.37-.52-.77-.9-1.2-1.12-.44-.22-.94-.3-1.5-.24l-.58.06z" stroke-width="1pt" fill="#8c361d"/><path d="M337.08 234.47l2.66 5.65c.2.42.35.7.44.8.1.12.23.2.4.26.15.07.38.08.66.05l.17-.02.1.2-3.9.4-.1-.18.2-.02c.32-.03.53-.1.63-.17.1-.08.15-.2.14-.3 0-.14-.12-.4-.32-.85l-1.7-3.58c-.14-.32-.25-.52-.32-.6-.07-.07-.16-.13-.28-.18-.1-.05-.23-.06-.35-.05-.18.02-.38.1-.6.23l-.18-.17 2.18-1.45.18-.02zm-1.3 7.52l-4.35.45-.05-.12c.63-1.62.98-2.7 1.02-3.25.04-.54-.05-1.06-.28-1.54-.17-.36-.42-.64-.77-.85-.35-.23-.7-.32-1.04-.28-.55.06-.86.36-.92.92l-.24-.05c-.1-.68-.03-1.2.22-1.55.25-.35.64-.55 1.17-.6.37-.05.75 0 1.14.13.38.13.73.33 1.04.6.32.26.53.52.65.76.2.46.3.93.24 1.42-.08.67-.47 1.63-1.18 2.88l1.6-.16c.4-.04.64-.1.75-.13.1-.04.18-.1.22-.18.03-.1.06-.25.07-.5l.2-.02.52 2.04zm-15.5-5.78l2.67 5.65c.2.42.35.7.45.8.1.12.22.2.38.26.17.07.4.08.67.05l.17-.02.1.2-3.92.4-.1-.2h.2c.33-.04.54-.1.64-.18.1-.08.15-.2.14-.3 0-.14-.1-.4-.32-.85l-1.68-3.58c-.15-.32-.26-.52-.33-.6-.07-.07-.17-.13-.3-.18-.1-.05-.22-.06-.33-.05-.2 0-.4.1-.6.23l-.2-.18 2.2-1.44.17-.02zm-10.6 1.67l1.32 2.8.15-.02c.47-.05.75-.22.83-.52.08-.3.02-.7-.17-1.26l.22-.02 1.7 3.62-.2.02c-.24-.4-.48-.7-.74-.94-.26-.23-.5-.4-.72-.45-.23-.07-.52-.1-.88-.05l.92 1.95c.18.38.3.6.38.7.08.07.17.13.3.18.1.05.28.06.5.04l.43-.05c.7-.08 1.2-.28 1.46-.63.28-.34.37-.83.26-1.46h.2l.7 2.22-6.4.67-.1-.2.26-.02c.2-.03.37-.08.47-.16.07-.06.1-.15.1-.27 0-.1-.08-.3-.24-.65l-2.13-4.55c-.15-.3-.25-.5-.3-.57-.1-.1-.2-.2-.33-.25-.2-.08-.4-.1-.64-.1l-.25.04-.08-.2 6.2-.63.96 2.04-.2.02c-.35-.5-.67-.83-.96-1.03-.3-.2-.64-.33-1.03-.4-.24-.03-.63-.02-1.2.03l-.76.08zm-7.9 7.64l-.1-.2h.24c.22-.03.37-.08.45-.16.1-.07.13-.17.14-.28 0-.08-.08-.3-.25-.65l-2.14-4.54c-.15-.35-.28-.56-.36-.65-.08-.08-.2-.15-.35-.2-.17-.06-.35-.08-.55-.05l-.25.02-.1-.2 3.33-.33c.88-.1 1.65-.07 2.3.1.78.2 1.48.57 2.08 1.1.6.52 1.08 1.13 1.4 1.83.24.5.37.95.4 1.37.02.43-.04.8-.18 1.1-.14.28-.35.52-.62.72-.27.2-.63.37-1.1.5-.2.07-.54.13-1.02.18l-3.3.34zm-.26-6.8l2.54 5.38c.14.3.23.46.3.52.05.06.12.1.2.13.13.04.28.06.47.04.6-.06.98-.3 1.12-.72.2-.57.03-1.4-.5-2.5-.4-.9-.9-1.58-1.44-2.08-.42-.4-.86-.64-1.3-.75-.3-.08-.77-.1-1.38-.02zm26 .02c.7.3 1.22.6 1.56.9.35.27.62.6.8 1 .27.57.27 1.06 0 1.5-.27.43-.8.68-1.56.76-.74.08-1.38-.03-1.94-.33-.56-.3-.95-.7-1.18-1.18-.18-.37-.2-.7-.1-1 .08-.3.35-.6.78-.9-.78-.35-1.32-.65-1.6-.9-.3-.24-.53-.54-.7-.9-.2-.45-.2-.88.06-1.27.26-.4.75-.64 1.5-.7.7-.1 1.3 0 1.84.28.52.27.9.63 1.1 1.06.15.32.18.62.1.9-.1.26-.3.5-.65.76zm-.53-.22c.05-.18.06-.38.03-.6-.04-.22-.1-.45-.23-.7-.2-.44-.47-.77-.8-.98-.22-.17-.48-.24-.75-.2-.24.02-.4.12-.5.3-.1.2-.1.4.03.64.1.25.33.5.65.75.32.24.84.5 1.56.8zm-.6 1.2c-.06.1-.1.2-.1.28-.03.12 0 .3.04.54.05.23.13.47.25.72.14.32.3.58.5.8.18.2.38.34.6.42.2.07.4.1.56.1.26-.04.44-.15.54-.35.1-.2.07-.47-.08-.78-.3-.66-1.08-1.24-2.3-1.74z" stroke-width="1pt" fill="#8c361d"/></svg>