<svg xmlns="http://www.w3.org/2000/svg" viewBox="0 0 512 512" version="1"><defs><clipPath id="a"><path fill-opacity=".67" d="M-85.33 0h682.67v512H-85.33z"/></clipPath></defs><g clip-path="url(#a)" fill-rule="evenodd" stroke-width="1pt"><path fill="#fff" d="M-226.62 139.08h993.54v216.28h-993.54z"/><path fill="#087bce" d="M765.1 512h-989.66V339.13H765.1zm2.43-343.9h-994.15V0h994.15zM259.3 260.72L239.7 247.2l24.44-.1 7.8-22.07 7.27 22 24.43-.13-19.94 13.7 7.3 22-19.6-13.54-19.92 13.73m150.77 14.72L382.62 284l24.45-.1 7.78-22.07 7.28 22 24.45-.13-19.95 13.7 7.32 22-19.6-13.54-19.93 13.73m7.83-98.5l-19.63-13.53 24.45-.1 7.78-22.07 7.28 22 24.45-.13-19.95 13.7 7.32 22-19.6-13.54-19.93 13.73M86.64 297.52L67 284l24.45-.1 7.8-22.07 7.27 22 24.44-.13-19.94 13.7 7.3 22-19.6-13.54-19.9 13.73m7.82-98.5L67 207.56l24.45-.1 7.8-22.07 7.27 22 24.44-.13-19.94 13.7 7.32 22-19.6-13.54-19.93 13.73"/></g></svg>