<svg xmlns="http://www.w3.org/2000/svg" height="480" width="640" version="1"><defs><clipPath id="a"><path fill-opacity=".67" d="M0 0h640v480H0z"/></clipPath></defs><g clip-path="url(#a)"><path fill-rule="evenodd" fill="#fff" d="M-148.86 135.66h936.34V305.8h-936.34z"/><path fill-rule="evenodd" fill="#003e9f" d="M-148 289.76h938.15V480H-148z"/><path fill-rule="evenodd" fill="#d61517" d="M-150.15 0h939.68v159.5h-939.68z"/><g transform="matrix(1.2 0 0 1.2 -78.8 -50)"><path d="M242.64 155.17c24.54-8.73 51.74-13.44 78.33-13.5 26.6-.07 53.7 4.1 80.5 13.7l19.94-40.23-14-24.42S382.37 101 382.17 101c-.2 0-17.64-19.2-17.64-19.2l-22.4 13.53-21-16.07-19.78 15.82-23.08-13.34-16.83 20-25.24-10.78-13.5 24.2 19.94 40z" fill-rule="evenodd" stroke="#e5141d" stroke-linecap="round" stroke-width="1.07" fill="#fff"/><path d="M370.5 144l11.42-40.36 24.46-9.93 12.88 21.65-18.5 37.84c-10.63-4.26-16.33-6.08-30.26-9.2z" fill-rule="evenodd" stroke="#0084fd" stroke-width=".35" fill="#00a7bd"/><path d="M273.7 144.1L263 104.43l16.06-19.7 22.85 13.18 3.86 41.72c-11.18.83-19.25 1.9-32.1 4.5z" fill="none"/><path d="M306.1 139.64l-3.86-41.8 19.44-15.46 20.3 15.4-3.58 41.9c-11.2-.6-19.18-.58-32.3-.04zM243.6 153.16l-18.1-38.32 12.1-21.16 25.1 10.93 10.6 39.54c-11.46 2.37-17.52 4.3-29.7 9.02z" fill-rule="evenodd" stroke="#0084fd" stroke-width=".35" fill="#00a7bd"/><path d="M237.97 131.93c5.7 1.16 9.77 1.2 14.88-.2 6.1-2.5 8.27-5.88 10.26-8.6.94 5.73-.03 10.92-7 14.58-6.27 2.9-14.72 1.08-18.13-5.77z" fill-rule="evenodd" stroke="#fff" stroke-width=".35" fill="#fff"/><g stroke-width="1pt" transform="matrix(.3 0 0 .3 215.9 72.5)"><path d="M410.94 120.56l-4.06 1.02.15 7.5-5 1.1-3.5 6.6 2.17 2.05c.1.22-1.7 4.9-1.63 4.9s1.32 1.75 1.32 1.75l1.32 4.07 3.36.46.86 4.78 5.3.86 4.94 3.5.3 2.2 5.63.16 3.84 1.25 13.36-1.57 1.8-2.8.15-3.84 7.2-.23.65-6.1h3.8l-.47-6.87 3.18.28-.8-3.28-1.98-2.68-.4-4.22-5.62-5.62-1.25-7.35s-3.6-1.64-3.6-1.72l-.23-4.92 4.06-5.7-.4-2.26-3.74-.08-2.8 2.35s-3.76.4-3.76.48v1.72s.94 3.2.94 3.28-4.3 0-4.3 0l-.15-5.08-6.1-3.05s-5.7 3.9-5.7 4l-.3 4.52-2.75.78-2.8-4.22-4.93-1.87-2.67-.16-.07 3.28 5.15 6.8-.46 3.98z" fill-rule="evenodd" stroke="#544b20" fill="#faf703"/><path d="M449.23 148.04l-1.1-4.1m4.2-2.64l-1.88-2.76" stroke="#544b20" fill="none"/><path d="M400.84 138.2l5.86-.32 1.1 5.3 2 1.77.32 9.72 1.88.78.55-3.87 4.53-.33.9 7.84-1.12 1 .44 1.2 5.42-.1s1.2-2.1 1.32-2.1c.1 0 3.1-.34 3.1-.23 0 .1 1.2 2.32 1.2 2.32l.9-3s2.87-1.2 2.87-1.1c0 .12 2.33 3.76 2.33 3.76l3.98-.55L436 158l-1-5.1 5.53-2.98 2.22 3.76s2.1.1 2 0c-.13-.1-2.45-4.3-2.45-4.3v-8.85l4.2-5.74 5.86-.68v-2.43l-5.86-5.42-1.54-7.5-3.32-1.67-.87 1-3.65.34 3.65 5.4v3.55l1.65.87-.33 9.72s-4.08.54-4.08.65l-.33 5.42-2.55 2.54s-1.44 5.1-1.55 5.1c-.1 0-2.43 3.08-2.43 3.08l-4.53.1s-2.66-2.53-2.66-2.64c0-.1-.45-3.75-.45-3.75s-1.77-.57-1.9-.57c-.1 0-.98-4.08-.98-4.08l-3.1-1.77-.2-2.43-3-1.33s-.33-2.2-.44-2.32c-.1-.1-1.44-1-1.55-1-.1 0-.1-6.07-.1-6.07l2.65-.44-1.5-1.95-.5-1.7v-1.77l2.22-2.2s-3.98-.57-3.98-.46c0 .12-3.87 1.77-3.87 1.66.1 0-.1 7.18-.1 7.18l-4.54 1.44-3.64 5.86 1.88 1.65z" fill-rule="evenodd" stroke="#544b21" fill="#544b20"/><path d="M423.7 148.04l3-1.77-.12-3.42-2.87-.67-1.1-1.1 3.2.55 3.98-.33 1.33-.66c-.54 1.43-.98 1.32-1.1 1.32-.1 0-2.2 1.1-2.2 1.1l.1 3.32s6.86.88 6.75.88c-.1 0 0 1.33-.22 1.33s-7.07-1.56-7.07-1.56l-4.3 2.66.65-1.66zm17.25-20.55l-3.98 3.08-2.54 4.53-1.32.23-3.86-5.2-4.42.12s-2.43 6.08-2.43 6.2c0 .1-1.78-.23-1.78-.23l-4.64-5.08s-1.44-2.55-1.22-2.55l11.6.1-.1-5.52s-1.77-.55-2.66-1.1c.67-.22 6.3-.22 6.3-.22l-2.43 1.65v4.76l10.05.1 3.43-.87z" fill-rule="evenodd" stroke="#544b20" fill="#544b20"/><rect fill-rule="evenodd" ry="1.33" height="2.65" width="2.65" y="130.14" x="419.51" fill="#796a3a"/><rect fill-rule="evenodd" ry="1.33" height="2.65" width="2.65" y="129.59" x="432.11" fill="#7a6b3a"/><path d="M413.55 121.3c4.2-1.7 7.18-3.06 12.37-3.54 4.9-.5 8.7.2 13.04 1" stroke="#544b20" fill="none"/><path d="M415.87 112.35h-3.42l-4.87-5.2 2.77.34 3.2 1.42 2.32 3.43zm20.66-2l7.73-5.95-2.54-.34-2.87 2.65-3.43.57 1.1 3.1zm-4.56 1.1l-12.12.46.1-1.32 4.43-.44.55-1.76s1.32-.1 1.32 0 1 1.65 1 1.65l4.3.78.42.66zm-.63-4.62l-4.2.1-.33-2.3 4.54 2.2zm-7.08-2.1l-.33 2.32-4.1.66 4.43-2.97zm-23.2 42.3l2.1-5.3-1.88-3.64-1.88 5.4 1.66 3.54zm4.2 2.9l2.54-6.3-4.86 5.07 2.32 1.22z" fill-rule="evenodd" stroke="#544b20" fill="#544b20"/></g><g stroke-width="1pt" transform="matrix(.3 0 0 .3 197.8 73.1)"><path d="M410.94 120.56l-4.06 1.02.15 7.5-5 1.1-3.5 6.6 2.17 2.05c.1.22-1.7 4.9-1.63 4.9s1.32 1.75 1.32 1.75l1.32 4.07 3.36.46.86 4.78 5.3.86 4.94 3.5.3 2.2 5.63.16 3.84 1.25 13.36-1.57 1.8-2.8.15-3.84 7.2-.23.65-6.1h3.8l-.47-6.87 3.18.28-.8-3.28-1.98-2.68-.4-4.22-5.62-5.62-1.25-7.35s-3.6-1.64-3.6-1.72l-.23-4.92 4.06-5.7-.4-2.26-3.74-.08-2.8 2.35s-3.76.4-3.76.48v1.72s.94 3.2.94 3.28-4.3 0-4.3 0l-.15-5.08-6.1-3.05s-5.7 3.9-5.7 4l-.3 4.52-2.75.78-2.8-4.22-4.93-1.87-2.67-.16-.07 3.28 5.15 6.8-.46 3.98z" fill-rule="evenodd" stroke="#544b20" fill="#faf703"/><path d="M449.23 148.04l-1.1-4.1m4.2-2.64l-1.88-2.76" stroke="#544b20" fill="none"/><path d="M400.84 138.2l5.86-.32 1.1 5.3 2 1.77.32 9.72 1.88.78.55-3.87 4.53-.33.9 7.84-1.12 1 .44 1.2 5.42-.1s1.2-2.1 1.32-2.1c.1 0 3.1-.34 3.1-.23 0 .1 1.2 2.32 1.2 2.32l.9-3s2.87-1.2 2.87-1.1c0 .12 2.33 3.76 2.33 3.76l3.98-.55L436 158l-1-5.1 5.53-2.98 2.22 3.76s2.1.1 2 0c-.13-.1-2.45-4.3-2.45-4.3v-8.85l4.2-5.74 5.86-.68v-2.43l-5.86-5.42-1.54-7.5-3.32-1.67-.87 1-3.65.34 3.65 5.4v3.55l1.65.87-.33 9.72s-4.08.54-4.08.65l-.33 5.42-2.55 2.54s-1.44 5.1-1.55 5.1c-.1 0-2.43 3.08-2.43 3.08l-4.53.1s-2.66-2.53-2.66-2.64c0-.1-.45-3.75-.45-3.75s-1.77-.57-1.9-.57c-.1 0-.98-4.08-.98-4.08l-3.1-1.77-.2-2.43-3-1.33s-.33-2.2-.44-2.32c-.1-.1-1.44-1-1.55-1-.1 0-.1-6.07-.1-6.07l2.65-.44-1.5-1.95-.5-1.7v-1.77l2.22-2.2s-3.98-.57-3.98-.46c0 .12-3.87 1.77-3.87 1.66.1 0-.1 7.18-.1 7.18l-4.54 1.44-3.64 5.86 1.88 1.65z" fill-rule="evenodd" stroke="#544b21" fill="#544b20"/><path d="M423.7 148.04l3-1.77-.12-3.42-2.87-.67-1.1-1.1 3.2.55 3.98-.33 1.33-.66c-.54 1.43-.98 1.32-1.1 1.32-.1 0-2.2 1.1-2.2 1.1l.1 3.32s6.86.88 6.75.88c-.1 0 0 1.33-.22 1.33s-7.07-1.56-7.07-1.56l-4.3 2.66.65-1.66zm17.25-20.55l-3.98 3.08-2.54 4.53-1.32.23-3.86-5.2-4.42.12s-2.43 6.08-2.43 6.2c0 .1-1.78-.23-1.78-.23l-4.64-5.08s-1.44-2.55-1.22-2.55l11.6.1-.1-5.52s-1.77-.55-2.66-1.1c.67-.22 6.3-.22 6.3-.22l-2.43 1.65v4.76l10.05.1 3.43-.87z" fill-rule="evenodd" stroke="#544b20" fill="#544b20"/><rect fill-rule="evenodd" ry="1.33" height="2.65" width="2.65" y="130.14" x="419.51" fill="#796a3a"/><rect fill-rule="evenodd" ry="1.33" height="2.65" width="2.65" y="129.59" x="432.11" fill="#7a6b3a"/><path d="M413.55 121.3c4.2-1.7 7.18-3.06 12.37-3.54 4.9-.5 8.7.2 13.04 1" stroke="#544b20" fill="none"/><path d="M415.87 112.35h-3.42l-4.87-5.2 2.77.34 3.2 1.42 2.32 3.43zm20.66-2l7.73-5.95-2.54-.34-2.87 2.65-3.43.57 1.1 3.1zm-4.56 1.1l-12.12.46.1-1.32 4.43-.44.55-1.76s1.32-.1 1.32 0 1 1.65 1 1.65l4.3.78.42.66zm-.63-4.62l-4.2.1-.33-2.3 4.54 2.2zm-7.08-2.1l-.33 2.32-4.1.66 4.43-2.97zm-23.2 42.3l2.1-5.3-1.88-3.64-1.88 5.4 1.66 3.54zm4.2 2.9l2.54-6.3-4.86 5.07 2.32 1.22z" fill-rule="evenodd" stroke="#544b20" fill="#544b20"/></g><path d="M338.7 139.62l3.6-41.94 22.2-12.77 17.18 18.6-11.44 40.4c-11.1-2.25-17.42-3.22-31.55-4.28z" fill-rule="evenodd" stroke="#001071" stroke-width=".35" fill="#001070"/><g stroke-width="1pt" transform="matrix(.3 0 0 .3 207.2 88.7)"><path d="M410.94 120.56l-4.06 1.02.15 7.5-5 1.1-3.5 6.6 2.17 2.05c.1.22-1.7 4.9-1.63 4.9s1.32 1.75 1.32 1.75l1.32 4.07 3.36.46.86 4.78 5.3.86 4.94 3.5.3 2.2 5.63.16 3.84 1.25 13.36-1.57 1.8-2.8.15-3.84 7.2-.23.65-6.1h3.8l-.47-6.87 3.18.28-.8-3.28-1.98-2.68-.4-4.22-5.62-5.62-1.25-7.35s-3.6-1.64-3.6-1.72l-.23-4.92 4.06-5.7-.4-2.26-3.74-.08-2.8 2.35s-3.76.4-3.76.48v1.72s.94 3.2.94 3.28-4.3 0-4.3 0l-.15-5.08-6.1-3.05s-5.7 3.9-5.7 4l-.3 4.52-2.75.78-2.8-4.22-4.93-1.87-2.67-.16-.07 3.28 5.15 6.8-.46 3.98z" fill-rule="evenodd" stroke="#544b20" fill="#faf703"/><path d="M449.23 148.04l-1.1-4.1m4.2-2.64l-1.88-2.76" stroke="#544b20" fill="none"/><path d="M400.84 138.2l5.86-.32 1.1 5.3 2 1.77.32 9.72 1.88.78.55-3.87 4.53-.33.9 7.84-1.12 1 .44 1.2 5.42-.1s1.2-2.1 1.32-2.1c.1 0 3.1-.34 3.1-.23 0 .1 1.2 2.32 1.2 2.32l.9-3s2.87-1.2 2.87-1.1c0 .12 2.33 3.76 2.33 3.76l3.98-.55L436 158l-1-5.1 5.53-2.98 2.22 3.76s2.1.1 2 0c-.13-.1-2.45-4.3-2.45-4.3v-8.85l4.2-5.74 5.86-.68v-2.43l-5.86-5.42-1.54-7.5-3.32-1.67-.87 1-3.65.34 3.65 5.4v3.55l1.65.87-.33 9.72s-4.08.54-4.08.65l-.33 5.42-2.55 2.54s-1.44 5.1-1.55 5.1c-.1 0-2.43 3.08-2.43 3.08l-4.53.1s-2.66-2.53-2.66-2.64c0-.1-.45-3.75-.45-3.75s-1.77-.57-1.9-.57c-.1 0-.98-4.08-.98-4.08l-3.1-1.77-.2-2.43-3-1.33s-.33-2.2-.44-2.32c-.1-.1-1.44-1-1.55-1-.1 0-.1-6.07-.1-6.07l2.65-.44-1.5-1.95-.5-1.7v-1.77l2.22-2.2s-3.98-.57-3.98-.46c0 .12-3.87 1.77-3.87 1.66.1 0-.1 7.18-.1 7.18l-4.54 1.44-3.64 5.86 1.88 1.65z" fill-rule="evenodd" stroke="#544b21" fill="#544b20"/><path d="M423.7 148.04l3-1.77-.12-3.42-2.87-.67-1.1-1.1 3.2.55 3.98-.33 1.33-.66c-.54 1.43-.98 1.32-1.1 1.32-.1 0-2.2 1.1-2.2 1.1l.1 3.32s6.86.88 6.75.88c-.1 0 0 1.33-.22 1.33s-7.07-1.56-7.07-1.56l-4.3 2.66.65-1.66zm17.25-20.55l-3.98 3.08-2.54 4.53-1.32.23-3.86-5.2-4.42.12s-2.43 6.08-2.43 6.2c0 .1-1.78-.23-1.78-.23l-4.64-5.08s-1.44-2.55-1.22-2.55l11.6.1-.1-5.52s-1.77-.55-2.66-1.1c.67-.22 6.3-.22 6.3-.22l-2.43 1.65v4.76l10.05.1 3.43-.87z" fill-rule="evenodd" stroke="#544b20" fill="#544b20"/><rect fill-rule="evenodd" ry="1.33" height="2.65" width="2.65" y="130.14" x="419.51" fill="#796a3a"/><rect fill-rule="evenodd" ry="1.33" height="2.65" width="2.65" y="129.59" x="432.11" fill="#7a6b3a"/><path d="M413.55 121.3c4.2-1.7 7.18-3.06 12.37-3.54 4.9-.5 8.7.2 13.04 1" stroke="#544b20" fill="none"/><path d="M415.87 112.35h-3.42l-4.87-5.2 2.77.34 3.2 1.42 2.32 3.43zm20.66-2l7.73-5.95-2.54-.34-2.87 2.65-3.43.57 1.1 3.1zm-4.56 1.1l-12.12.46.1-1.32 4.43-.44.55-1.76s1.32-.1 1.32 0 1 1.65 1 1.65l4.3.78.42.66zm-.63-4.62l-4.2.1-.33-2.3 4.54 2.2zm-7.08-2.1l-.33 2.32-4.1.66 4.43-2.97zm-23.2 42.3l2.1-5.3-1.88-3.64-1.88 5.4 1.66 3.54zm4.2 2.9l2.54-6.3-4.86 5.07 2.32 1.22z" fill-rule="evenodd" stroke="#544b20" fill="#544b20"/></g><path d="M344.2 132.1l-1.1 1.3.07 1.1 2.3-.04c.76-.17.94-.43 1.08-.73.23-.37.08-.58.13-1.07l-2.48-.55zm5.56 3.28l-.94.88v1l2.05-.03c.74-.18.84-.3 1-.6.22-.38.14-.38.2-.87l-2.3-.38zm9.03-2.8l-1.08 1.08.04.84 2.2.1c.73-.2.6-.15.84-.54.23-.37.16-.45.22-.94l-2.23-.55zm6.37 1.96l-1.24 1.05v1.04l2.3.2c.75-.16.8-.38 1-.64.22-.37.1-.4.17-.9l-2.23-.76z" fill-rule="evenodd" stroke="#a0210c" stroke-width=".35" fill="#a0210c"/><path d="M349.63 107.08l4.37 2.9c.82-.68 2.53-.27 3.2-.08 1.2.3 2.04 1.02 3.1 1.2 1.9.5 4.2.83 5.94.64 1.74-.2 3.2-1.1 4.5-1.76v-.42h-.86c-1.4.5-3.34.52-4.83.33s-1.9-.88-4.12-1.52l-.17-.42c2.7.13 3.25.06 4.38-.43 1.1-.3 1.6-.94 2.23-1.38l-.02-.5-.8-.04c-1.06.7-1.73.83-3.33.7-1.46-.16-2.78-1-3.76-1-1.04 0-1-.5-2-.55-1.6-.14-3.32.07-4.83.44-1.82.53-2.1 1-3 1.88z" fill-rule="evenodd" stroke="#000" stroke-width=".35" fill="#a0210c"/><path d="M350.48 106.43c.42.1.9.2 1.23.4.35.2.26.2.63.47-.06-.35-.04-.32-.28-.6-.23-.27-.62-.52-.94-.74l-.62.47zm3.65 3.13c0-.38-.2-.7-.33-1.03-.14-.33-.26-.6-.53-.93.34.1.52.24.8.58.3.35.28.7.34 1.18l-.27.2zm.83-4.6c.1.27.3.45.47 1 .14.5.2 1.22.2 1.22-.04-.38.06-.8 0-1.18-.05-.38-.26-.7-.3-1.08l-.37.05zm3.55.23l.2 2.08.2-1.97-.4-.1zm-.85 4.3c.1-.33.07-.67.03-1-.05-.35-.17-.64-.3-1.03.35.3.5.66.67 1.05 0 .4-.1.73-.4 1zm3.67-.9s.1.7-.05 1.22c-.16.5-.28.55-.58.82.4-.3.75-.4.87-.72.13-.5-.2-1.25-.25-1.32zm.64-.68c-.25.04-.3-1-.46-1.52.1-.05.22-.04.33.2.12.14.1.88.13 1.32zm2.5-.42l.1-.87.28-.03v.75c0 .03-.35.18-.38.15zm-.2 2.34c.16.27.45.58.48.87.04.3-.06.44-.28.88l.4.03c.23-.35.3-.6.26-.88-.03-.27-.17-.55-.45-.78l-.4-.1zm3.02.22l.1 1.22.33-.18-.07-1.04h-.35z" fill-rule="evenodd" stroke="#000" stroke-width=".35"/><path d="M349.36 107.3c-1 .28-1.35.82-1.83 1.3l-2.78-1.42c-.45.38-.63.9-.4 1.46.2.55 1.08 1.4 1.7 1.83-.15.76-.39 1.33-.66 2-.3.74-.96 1.68-.98 1.98-.03.35-.15 1.1.37 1.3.5.2 2.18-.15 2.73-.1-.1.28-.3.8-.23 1.03.07.22.22.3.67.3-.13.3-.4.64-.27.8.35.27.75.22 1.08.2-.53.6-1.85 1.8-2.28 2.33-.46.62-.5 1.3.38 1.22-.33.37-.64.72-.6 1.03.08.38.27.63.9.4-.37.86-.12 1.6 0 2.5-.3.66-.18 1.28-.26 2.05-.65.36-.73.84-1.15 1.58-.38.8-1.1 1.02-1.48 2.74l2.54.63c.1-.35.43-.58.52-.93.1-.36.1-.8.04-1.2.5-.72 1.53-2.23 1.86-3.04.55-.3.96-.48 1.37-.48.42 0 .7.25 1.13.5-.2.67-.74 1.4-.78 2.36v2.62c-.1.66-.85.66-1.16 2.63l2.3.6c.37-.66 1-.75 1.15-1l.17-2.74c.3-1.3 2.1-2.35 2.12-3.75.65 0 .9.06 1.15-.07.35-.12.47-.3.74-.56.1.42.44.46.72.46.28 0 .84-.4 1.07-.56.16.23.25.45.58.53.35.08 1.3-.07 1.7-.16l-1.88 3.08c-.07.3.02.48-.12.82-.14.3-.42.46-.54.75l2.13.5.33-.9c.45-.2.82-.3 1.06-.58.22-.3.22-.84.36-1.15.73-.53 1.87-1.68 2.67-2.63.55.1 1.32.54 1.62 1.22.04.72.1 2.05-.23 2.97l-1.4 2.16-.14.35 2.17.77 1.38-1.06.06-1.5c.68-1.23 1.67-1.9 2.62-2.67 0-.06.1-1.64.06-1.7-.23-.18-.4-.07-.47-.4-.07-.32-.02-1.22.03-1.57.14-.17.42-.36.4-.5-.37-.42-.25-1.5-.14-2.33-.04-.95 1.26-2.07 1.46-2.62l.08-1c-.13-.24-.33-.4-.33-.6 0-.2.26-.55.42-.77l.27-.46-.05-2.46c-.08-.26-.3-.68-.52-.72-.22-.04-.54.2-.78.47l-1.25.92c-.6.2-1.12.26-2.17 0l-1.6.03c-.85.23-1.3.27-2.1-.07l-.94.02c-.3.16-.72.42-1.04.48-.32.07-.76.08-1.08-.02-2.45.16-1.84.34-2.55.5-.56-.1-.38-.4-2.57-.4l-.87-.27c-1.1-.7-1.95-1.87-2.68-3.2 2.28-.66 3.24-1.34 3.93-2.9l-3.22.12-4.57-3.03z" fill-rule="evenodd" stroke="#544b20" stroke-width=".35" fill="#dc9103"/><path d="M348.22 111.27l.9.4c.13.12.34.27.48.28.15 0 .27-.14.4-.24l.83-.43c-.5-.07-.65-.38-1.18-.38-.53 0-.9.27-1.43.37zm4 .23c.3.17.85.53 1.3.53.48-.04.47-.4 1.17-.6l1-.84c-.6 0-1.94.12-2.67.34-.62.16-.76.4-.8.56zm-2.32 10.56c0 .07-.13.13-.2.04-.07-1.07-.3-1.82-.64-2.66.38.64.7 1.66.84 2.62zm2.6 4.4c-.4.03-.57-.03-1 0-.03-1.06-.04-2.3-.03-3.07.16 0 .62.5.9 1.26.07.56.17 1.2.14 1.8zm2.77-4.3c.2.06.45.06.5-.06.1-.23-.15-.48-.24-.76-.3-.6-.48-1.26-.6-1.55-.14-.1-.3-.08-.25.06.17.53.48 2.1.6 2.3zm2.94-.3c.03.12-.4-.07-.5-.22 0-.28-.6-2.4-.5-2.47.13-.06.52.7.65 1.06.03.2.3.97.36 1.62zm-.4 4.32c-.02.15.33.03.46-.1.4-.6.9-1.25 1.04-1.5.08-.27.52-1.96.38-1.94-.05-.05-.42.83-.9 1.7-.52.9-1 1.75-1 1.84zm2.95-.9c-.14.06.3-1.47.32-1.74l.37-2.2c.2 1.4-.04 2.9-.7 3.93zm1.77-4.7c-.1.1-1.36-2-1.25-2 .04-.1 1.07 1.3 1.2 1.54.07.12.14.3.05.47zm2.97 1.57c-.1-.07-.07-.74-.25-1.48-.2-.73-.5-1.44-.45-1.64.06-.1.27-.06.43.08.08.4.26 1.95.48 2.95 0 .1-.1.16-.2.1zm2.06-1.86c-.1-.12.28.7.55 1.7.28.98.42 2.72.5 2.6.18-.13.15-.3.44-.35.3-.07 1.4.04 1.33-.04-.68-.6-1.3-1.1-1.77-1.74-.47-.66-.77-1.52-1.04-2.17zm2.56 8.96c-.2.15-.6.28-.73.2-.65-1.33-1.02-2.2-1.9-3.64-.24-.34-.82-.3-.8-.42.03-.16.34-.1.53-.32.2-.22.22-.5.34-.6-.26.6.43 1.56.82 2.3.25.08.45.08.58.23.02.08-.28.14-.24.4l.65 1.3c.2.17.53.26.85.3.08.08-.07.2-.13.26z" fill-rule="evenodd" stroke="#000" stroke-width=".35"/><path d="M370.48 144l11.5-40.58 24.45-9.84 12.96 21.9-18.56 37.68c-10.5-3.96-16.5-6.08-30.36-9.16z" fill="none"/><path d="M371.46 117.54c.4.02.77.06.9-.15.24-.52.38-.94.2-1.27-.62.05-1.1.35-1.36.9 0 .2.06.34.26.5z" fill-rule="evenodd" stroke="#000" stroke-width=".35"/><path d="M378.12 117.16c6.27 1.32 12.07 2.83 17.87 4.7 5.8 1.88 11.32 4.1 16.94 6.53l-9.4 19c-5.25-2-10.44-3.62-15.62-5.3-5.18-1.67-10.23-3.15-15.48-4.76l5.68-20.18z" fill-rule="evenodd" stroke="#fdfcfc" stroke-width=".35" fill="#fdfcfc"/><path d="M376.87 121.65s8.76 1.95 17.24 4.68c8.5 2.73 16.77 6.23 16.74 6.23-.07 0-5.34 10.85-5.34 10.85-5.1-2.02-10.48-3.93-15.8-5.64-5.3-1.7-10.6-3.36-16.06-4.62l3.23-11.5z" fill-rule="evenodd" stroke="#e6151e" stroke-width=".35" fill="#e6151e"/><path d="M377.6 126.95c.86-.48 1.44-.6 1.9-1.4h3.1l.05 1.13c.76.36 1.2.76 1.97 1.13.76.37 1.84.7 2.6 1.06l6.68.6c.9.13 2.18.5 2.96.96.77.46 1.27 1.03 1.7 1.76 1.36.48 2.73.76 4.14.97 1.4.2 3.18.3 4.55.35.68.24.68.6.36.94 0 0-.75 1.02-2.8 1.03-2.07 0-4.4-1.15-5.42-1 .04.63 1.1 1.92 2.35 2.43l-.04 2.96-.57.5-.6-.38c.48-.7.32-1.52.12-2.22-.45-.67-.5-.94-1.37-.98-1-.2-1.75-.47-3.04-1.36l-.48.07c-.27.5-.55.83-1.2 1.12l-1.3-.07s-3.02-.67-3.02-.7c0-.04-.04-.47.04-.5.08-.05 1.03-.05 1.1-.05.65.2 2 .2 2 .2l-.04-1.14 2.03-.1c-.4-1.42-.54-2.3-2.43-2.63l-5.88.16.08.8c-1.47-.2-4.13-.22-5.5.23-.8.08-1.93.48-2.45.48l-.6-.15c-.4-.1-.4-.23-.25-.58 2.55-.2 2.95-.4 3.7-.74.04-.24-.28-.74-.4-.78-1.6-.08-2.86.04-3.3-.04-.67-.2-1.6-.54-1.6-.58 0-.04-.1-.62-.06-.62l1.06.27c1.07.2 2.94.12 3.38-.1l.04-.87c-.04-.4-.32-.74-.4-.78-.08-.04-1.75-.23-2.35-.23-.96-.18-.82-.66-.83-1.14z" fill-rule="evenodd" stroke="#010001" stroke-width=".35"/><path d="M390.44 133.9c.9.28 1.56.37 2.9.46l2.03-.12c-.4-1.4-.55-2.3-2.43-2.6l-5.88.15.08.8c1.8.67 2.66 1.03 3.3 1.3z" fill-rule="evenodd" stroke="#010001" stroke-width=".35" fill="#fdfdfd"/><path d="M273.6 144l-10.63-39.63 16.22-19.65 22.74 12.98 3.86 42c-11.6.85-19.13 1.97-32.2 4.3z" fill-rule="evenodd" stroke="#011171" stroke-width=".35" fill="#011171"/><path d="M236.92 112.42l3.7 3.26-1.05 5.24 5.13-1.78 3.78 3.26.84-4.82 4.2-1.36-3.2-3.47 1.06-4.78s-5.04 1.48-5.04 1.44-3.37-3.2-3.4-3.17c-.05.04-1.1 4.54-1.1 4.54l-4.92 1.65z" fill-rule="evenodd" stroke="#fdc605" stroke-width=".35" fill="#fbfd10"/><path d="M237 112.46l16.5 3.7-4.25 1.46-3.83-3.1s3.1 7.76 3.07 7.72-3.63-3.02-3.75-3.14l.63-4.58s-5.72 6.35-5.72 6.3l1.1-5.18-3.75-3.18zm4.8-1.7l3.66 3.52-2.53-8.13-1.13 4.62zm4.5-1.3c.04.03-.88 4.73-.84 4.73.42-.5 5.93-6.24 5.9-6.24-.06 0-4.98 1.53-5.06 1.5z" fill-rule="evenodd" fill="#ffc500"/><path d="M396.2 104.4l.8 4.83-4.2 3.42 5.14 1.8.84 4.86 3.76-3.22 4.14 1.54-.26-4.67 3.9-3.07s-4.9-1.96-4.86-2c.03-.02-.55-4.57-.6-4.56-.07 0-3.77 2.85-3.77 2.85l-4.9-1.76z" fill-rule="evenodd" stroke="#fdc605" stroke-width=".35" fill="#fbfd10"/><path d="M396.25 104.5l10.42 13.06-4.22-1.5-1-4.77s-2.55 7.93-2.56 7.88c0-.06-.88-4.58-.9-4.75l3.43-3.17s-8.52 1.4-8.5 1.37l4.2-3.36-.88-4.78z" fill-rule="evenodd" fill="#ffc500"/><path d="M401.06 106.14l.6 4.98 3.25-7.87-3.84 2.9zm4.34 1.76c0 .06-3.73 3.14-3.7 3.17.65-.13 8.6-1.18 8.57-1.2-.03-.03-4.83-1.88-4.87-1.97z" fill-rule="evenodd" fill="#fdc605"/><path d="M263.05 104.52c5.77-2.76 12.26-4.9 19.1-5.85 6.56-.94 13.13-1.02 19.88-1l.88 10.4c-5.3.05-9.24-.05-18.6 1.16-9.3 1.3-13.13 2.4-18.78 4.57l-2.47-9.28zM268 122.8c-.1 0 2.9 10.94 2.9 10.94 5.56-1.4 11.2-2.46 16.85-3.25 5.64-.8 11.64-1.26 17.1-1.62l-.96-10.66c-5.77-.35-12.33-.35-18.27.43-5.93.78-11.7 2.16-17.63 4.16z" fill-rule="evenodd" stroke="#e6141d" stroke-width=".35" fill="#e6141d"/><path d="M241.5 156.56h161.15V259.9c-4.1 40.24-42.78 70.33-78.13 70.1-38.15 1.66-80.34-29.57-83.39-70.45l.35-103z" fill-rule="evenodd" stroke="#e5141d" stroke-width="1.07" fill="#fff"/><path d="M244.84 160.17H399.3v99.03c-3.94 38.57-41 67.4-74.88 67.18-36.56 1.6-77-28.34-79.9-67.5l.32-98.7z" fill-rule="evenodd" stroke="#e5141d" stroke-width="1.02" fill="#d61517"/><rect fill-rule="evenodd" ry="0" height="32.3" width="29.76" y="160.67" x="337.68" fill="#fff"/><rect fill-rule="evenodd" ry="0" height="32.3" width="29.76" y="160.67" x="276.27" fill="#fff"/><rect fill-rule="evenodd" ry="0" height="31.53" width="30.16" y="194.04" x="245.22" fill="#fff"/><rect fill-rule="evenodd" ry="0" height="31.53" width="29.47" y="194.04" x="307.22" fill="#fff"/><rect fill-rule="evenodd" ry="0" height="31.53" width="30.36" y="194.04" x="368.33" fill="#fff"/><rect fill-rule="evenodd" ry="0" height="32.01" width="29.76" y="226.54" x="337.68" fill="#fff"/><rect fill-rule="evenodd" ry="0" height="32.01" width="29.76" y="226.54" x="276.27" fill="#fff"/><rect fill-rule="evenodd" ry="0" height="32.01" width="29.47" y="259.52" x="307.22" fill="#fff"/><path d="M368.52 259.8v31.45l18.13.02c8.27-12.08 11.1-23.84 11.88-31.46h-30zm-30.66 32.98v31.56c12.9-2.68 23.4-8.8 29.4-13.27v-18.3h-29.4zm-61.36-.06l-.04 17.83c10.12 7.4 21.7 11.7 29.4 13.37v-31.2H276.5zm-31.22-32.96c.96 12.36 6.22 23.82 11.88 31.57l18.05-.03v-31.55H245.3z" fill-rule="evenodd" stroke="#fff" stroke-width=".35" fill="#fff"/></g></g></svg>