<svg xmlns="http://www.w3.org/2000/svg" width="640" height="480" viewBox="0 0 640 480" xmlns:xlink="http://www.w3.org/1999/xlink">
  <defs>
    <polygon id="a" points=".392 0 705.019 0 705.019 524 .392 524"/>
    <rect id="c" width="640" height="480"/>
  </defs>
  <g fill="none" fill-rule="evenodd" transform="translate(-66 -7)">
    <mask id="b" fill="white">
      <use xlink:href="#a"/>
    </mask>
    <g transform="translate(66.946)" mask="url(#b)">
      <polygon fill="#FFFFFF" fill-rule="nonzero" points="709.658 492.56 0 492.56 0 0 709.658 0"/>
      <path fill="#0000CC" fill-rule="nonzero" d="M709.658195,110.854861 L0,110.854861 L0,46.1803861 L709.658195,46.1803861 L709.658195,110.854861 Z M709.658195,447.998713 L0,447.998713 L0,383.324238 L709.658195,383.324238 L709.658195,447.998713 Z"/>
      <g transform="translate(210 124)">
        <polygon fill="#0000CC" points="1.035 59.536 107.877 243.804 217.019 60.296"/>
        <polygon fill="#FFFFFF" fill-rule="nonzero" points="87.697 181.743 108.023 215.901 128.786 181.884 87.697 181.744"/>
        <polygon fill="#0000CC" fill-rule="nonzero" points=".638 184.408 107.489 .141 216.621 183.648"/>
        <path fill="#FFFFFF" fill-rule="nonzero" d="M87.6965058,60.3348078 L108.022906,26.1769263 L128.785912,60.1943513 L87.6965058,60.3338458 L87.6965058,60.3348078 Z M45.2196649,136.816292 L24.2238029,171.432101 L63.9063702,171.309923 L45.2196649,136.816292 L45.2196649,136.816292 Z M24.5827895,72.8412141 L64.5806827,73.1202031 L45.3370632,108.003456 L24.5837597,72.8412141 L24.5827895,72.8412141 Z M171.320967,137.210725 L191.53094,171.435949 L151.062483,170.923186 L171.320967,137.210725 Z M191.162251,72.8412141 L151.164358,73.1202031 L170.408947,108.003456 L191.162251,72.8412141 Z M80.2936211,72.8027328 L52.7447992,122.361773 L80.687536,170.749058 L131.847971,171.91985 L162.938146,122.360811 L134.20952,72.4121481 L80.2916806,72.8017708 L80.2936211,72.8027328 Z"/>
      </g>
    </g>
    <g transform="translate(66 7)">
      <mask id="d" fill="white">
        <use xlink:href="#c"/>
      </mask>
      <rect width="640" height="480" stroke="#999999" stroke-width="4" mask="url(#d)"/>
    </g>
  </g>
</svg>
