<svg xmlns="http://www.w3.org/2000/svg" height="480" width="640"><defs><clipPath id="a"><path fill-opacity=".67" d="M0 0h682.67v512H0z"/></clipPath></defs><g clip-path="url(#a)" transform="matrix(.9 0 0 .9 0 0)"><path fill-rule="evenodd" fill="#fff" d="M0 0h1024v512H0z"/><path d="M1024 445.24c-11.47 6.9-21.33 23.04-51.8 23.04-60.96 0-76.2-33.97-121.9-33.97-30.5 0-45.73 33.98-76.2 33.98-60.95 0-76.2-33.97-121.9-33.97-30.48 0-45.72 33.98-76.2 33.98-60.94 0-76.18-33.97-121.9-33.97-30.47 0-45.7 33.98-76.18 33.98-60.95 0-76.2-33.97-121.9-33.97-30.48 0-45.72 33.98-76.2 33.98-60.95 0-76.2-33.97-121.9-33.97-30.48 0-39.62 24.2-57.9 24.2v43.74c18.28 0 27.42-24.2 57.9-24.2 45.7 0 60.95 33.96 121.9 33.96 30.47 0 45.7-33.97 76.2-33.97 45.7 0 60.94 33.97 121.9 33.97 30.46 0 45.7-33.97 76.18-33.97 45.7 0 60.95 33.97 121.9 33.97 30.47 0 45.7-33.97 76.2-33.97 45.7 0 60.94 33.97 121.9 33.97 30.47 0 45.7-33.97 76.18-33.97 45.7 0 60.95 33.97 121.9 33.97 30.48 0 40.34-9.63 51.8-16.53v-50.23zM1024 360.32c-11.47 6.9-21.33 23.04-51.8 23.04-60.96 0-76.2-33.97-121.9-33.97-30.5 0-45.73 33.96-76.2 33.96-60.95 0-76.2-33.97-121.9-33.97-30.48 0-45.72 33.96-76.2 33.96-60.94 0-76.18-33.97-121.9-33.97-30.47 0-45.7 33.96-76.18 33.96-60.95 0-76.2-33.97-121.9-33.97-30.48 0-45.72 33.96-76.2 33.96-60.95 0-76.2-33.97-121.9-33.97-30.48 0-39.62 24.2-57.9 24.2v43.72c18.28 0 27.42-24.2 57.9-24.2 45.7 0 60.95 33.96 121.9 33.96 30.48 0 45.72-33.96 76.2-33.96 45.7 0 60.95 33.96 121.9 33.96 30.47 0 45.7-33.96 76.2-33.96 45.7 0 60.94 33.96 121.9 33.96 30.46 0 45.7-33.96 76.18-33.96 45.7 0 60.95 33.96 121.9 33.96 30.48 0 45.7-33.96 76.2-33.96 45.7 0 60.94 33.96 121.9 33.96 30.47 0 40.33-9.62 51.8-16.52v-50.24zM1024 275.4c-11.47 6.9-21.33 23.05-51.8 23.05-60.96 0-76.2-33.97-121.9-33.97-30.5 0-45.73 33.97-76.2 33.97-60.95 0-76.2-33.97-121.9-33.97-30.48 0-45.72 33.97-76.2 33.97-60.94 0-76.18-33.97-121.9-33.97-30.47 0-45.7 33.97-76.18 33.97-60.95 0-76.2-33.97-121.9-33.97-30.48 0-45.72 33.97-76.2 33.97-60.95 0-76.2-33.97-121.9-33.97-30.48 0-39.62 24.2-57.9 24.2v43.73c18.28 0 27.42-24.2 57.9-24.2 45.7 0 60.95 33.97 121.9 33.97 30.48 0 45.72-33.96 76.2-33.96 45.7 0 60.95 33.97 121.9 33.97 30.47 0 45.7-33.96 76.2-33.96 45.7 0 60.94 33.97 121.9 33.97 30.46 0 45.7-33.96 76.18-33.96 45.7 0 60.95 33.97 121.9 33.97 30.48 0 45.7-33.96 76.2-33.96 45.7 0 60.94 33.97 121.9 33.97 30.47 0 40.33-9.62 51.8-16.52V275.4zM1024 190.5c-11.47 6.9-21.33 23.04-51.8 23.04-60.96 0-76.2-33.97-121.9-33.97-30.5 0-45.73 33.97-76.2 33.97-60.95 0-76.2-33.97-121.9-33.97-30.48 0-45.72 33.97-76.2 33.97-60.94 0-76.18-33.97-121.9-33.97-30.47 0-45.7 33.97-76.18 33.97-60.95 0-76.2-33.97-121.9-33.97-30.48 0-45.72 33.97-76.2 33.97-60.95 0-76.2-33.97-121.9-33.97-30.48 0-39.62 24.2-57.9 24.2v43.73c18.28 0 27.42-24.2 57.9-24.2 45.7 0 60.95 33.97 121.9 33.97 30.48 0 45.72-33.97 76.2-33.97 45.7 0 60.95 33.96 121.9 33.96 30.47 0 45.7-33.96 76.2-33.96 45.7 0 60.94 33.96 121.9 33.96 30.46 0 45.7-33.96 76.18-33.96 45.7 0 60.95 33.96 121.9 33.96 30.48 0 45.7-33.96 76.2-33.96 45.7 0 60.94 33.96 121.9 33.96 30.47 0 40.33-9.62 51.8-16.52V190.5zM1024 105.6c-11.47 6.9-21.33 23.03-51.8 23.03-60.96 0-76.2-33.97-121.9-33.97-30.5 0-45.73 33.97-76.2 33.97-60.95 0-76.2-33.97-121.9-33.97-30.48 0-45.72 33.97-76.2 33.97-60.94 0-76.18-33.97-121.9-33.97-30.47 0-45.7 33.97-76.18 33.97-60.95 0-76.2-33.97-121.9-33.97-30.48 0-45.72 33.97-76.2 33.97-60.95 0-76.2-33.97-121.9-33.97-30.5 0-39.64 24.2-57.92 24.2v43.73c18.28 0 27.42-24.22 57.9-24.22 45.72 0 60.95 33.97 121.9 33.97 30.5 0 45.72-33.97 76.2-33.97 45.72 0 60.95 33.97 121.9 33.97 30.48 0 45.72-33.97 76.2-33.97 45.7 0 60.95 33.97 121.9 33.97 30.47 0 45.7-33.97 76.18-33.97 45.72 0 60.96 33.97 121.9 33.97 30.48 0 45.72-33.97 76.2-33.97 45.7 0 60.95 33.97 121.9 33.97 30.47 0 40.33-9.63 51.8-16.53V105.6zM1024 20.68c-11.47 6.9-21.33 23.03-51.8 23.03-60.96 0-76.2-33.96-121.9-33.96-30.5 0-45.73 33.97-76.2 33.97-60.95 0-76.2-33.96-121.9-33.96-30.48 0-45.72 33.97-76.2 33.97-60.94 0-76.18-33.96-121.9-33.96-30.47 0-45.7 33.97-76.18 33.97-60.95 0-76.2-33.96-121.9-33.96-30.48 0-45.72 33.97-76.2 33.97-60.95 0-76.2-33.96-121.9-33.96-30.5 0-39.64 24.2-57.92 24.2v43.73c18.28 0 27.42-24.2 57.9-24.2 45.72 0 60.95 33.97 121.9 33.97 30.5 0 45.72-33.97 76.2-33.97 45.72 0 60.95 33.97 121.9 33.97 30.48 0 45.72-33.97 76.2-33.97 45.7 0 60.95 33.97 121.9 33.97 30.47 0 45.7-33.97 76.18-33.97 45.72 0 60.96 33.97 121.9 33.97 30.48 0 45.72-33.97 76.2-33.97 45.7 0 60.95 33.97 121.9 33.97 30.47 0 40.33-9.63 51.8-16.53V20.68z" fill-rule="evenodd" fill="#000063"/><path fill-rule="evenodd" fill="#000063" d="M0 .06h261.3v157.9H0z"/><g stroke-width="1pt"><path d="M0 .06v17.66l232.1 140.25h29.2V140.3L29.2.07H0zm261.3 0v17.66L29.2 157.97H0V140.3L232.1.07h29.2z" fill="#fff"/><path d="M108.88.06v157.9h43.55V.07h-43.55zM0 52.7v52.63h261.3V52.7H0z" fill="#fff"/><path d="M0 63.23V94.8h261.3V63.24H0zM117.6.06v157.9h26.12V.07H117.6zM0 157.97l87.1-52.64h19.48l-87.1 52.64H0zM0 .07L87.1 52.7H67.63L0 11.83V.06zM154.73 52.7L241.83.06h19.48L174.2 52.7h-19.47zM261.3 157.97l-87.1-52.64h19.48l67.63 40.87v11.77z" fill="#c00"/></g><path d="M814.96-301.18l-17.72 708.66c0 37.3 80.1 37.3 88.58 0l-17.7-708.66h-53.16z" fill-rule="evenodd" transform="matrix(.2 0 0 .5 211.6 267.4)" stroke="#fff" stroke-width="6.93" fill="#a24300"/><path d="M496.06 549.2l17.72 70.88 35.43-53.15-17.7 88.58 35.43-35.42-35.44 88.58 35.43-35.43-35.44 88.58 35.43-35.42-35.44 106.3 35.43-35.44-35.44 106.3 35.43-35.43-35.44 106.3-17.72 53.16-17.72 17.72-17.72-17.72-17.7-53.15-35.45-106.3 35.43 35.44-35.44-106.3 35.43 35.44-35.44-106.3 35.43 35.43-35.44-88.57 35.43 35.43-35.44-88.58 35.43 35.43-17.72-88.57 35.44 53.15 17.72-70.87z" fill-rule="evenodd" transform="matrix(-.2 .1 -.1 -.2 591.3 322.6)" stroke="#fff" stroke-width="8.25" fill="#006d00"/><path d="M496.06 549.2v496.08M425.2 868.1l70.86 106.3 70.87-106.3" transform="matrix(-.2 .1 -.1 -.2 591.3 322.6)" stroke="#000" stroke-width="1pt" fill="none"/><path d="M425.2 797.24l70.87 106.3 70.86-106.3" transform="matrix(-.2 .1 -.1 -.2 591.3 322.6)" stroke="#000" stroke-width="1pt" fill="none"/><path d="M425.2 726.38l70.87 106.3 70.86-106.3" transform="matrix(-.2 .1 -.1 -.2 591.3 322.6)" stroke="#000" stroke-width="1pt" fill="none"/><path d="M425.2 673.23l70.87 88.58 70.86-88.57" transform="matrix(-.2 .1 -.1 -.2 591.3 322.6)" stroke="#000" stroke-width="1pt" fill="none"/><path d="M425.2 620.08l70.87 88.58 70.86-88.58" transform="matrix(-.2 .1 -.1 -.2 591.3 322.6)" stroke="#000" stroke-width="1pt" fill="none"/><path d="M442.9 566.93l53.16 106.3 53.15-106.3" transform="matrix(-.2 .1 -.1 -.2 591.3 322.6)" stroke="#000" stroke-width="1pt" fill="none"/><g><path d="M496.06 549.2l17.72 70.88 35.43-53.15-17.7 88.58 35.43-35.42-35.44 88.58 35.43-35.43-35.44 88.58 35.43-35.42-35.44 106.3 35.43-35.44-35.44 106.3 35.43-35.43-35.44 106.3-17.72 53.16-17.72 17.72-17.72-17.72-17.7-53.15-35.45-106.3 35.43 35.44-35.44-106.3 35.43 35.44-35.44-106.3 35.43 35.43-35.44-88.57 35.43 35.43-35.44-88.58 35.43 35.43-17.72-88.57 35.44 53.15 17.72-70.87z" fill-rule="evenodd" transform="matrix(.2 -.2 .2 .1 73.8 93.5)" stroke="#fff" stroke-width="8.25" fill="#006d00"/><path d="M496.06 549.2v496.08M425.2 868.1l70.86 106.3 70.87-106.3" transform="matrix(.2 -.2 .2 .1 73.8 93.5)" stroke="#000" stroke-width="1pt" fill="none"/><path d="M425.2 797.24l70.87 106.3 70.86-106.3" transform="matrix(.2 -.2 .2 .1 73.8 93.5)" stroke="#000" stroke-width="1pt" fill="none"/><path d="M425.2 726.38l70.87 106.3 70.86-106.3" transform="matrix(.2 -.2 .2 .1 73.8 93.5)" stroke="#000" stroke-width="1pt" fill="none"/><path d="M425.2 673.23l70.87 88.58 70.86-88.57" transform="matrix(.2 -.2 .2 .1 73.8 93.5)" stroke="#000" stroke-width="1pt" fill="none"/><path d="M425.2 620.08l70.87 88.58 70.86-88.58" transform="matrix(.2 -.2 .2 .1 73.8 93.5)" stroke="#000" stroke-width="1pt" fill="none"/><path d="M442.9 566.93l53.16 106.3 53.15-106.3" transform="matrix(.2 -.2 .2 .1 73.8 93.5)" stroke="#000" stroke-width="1pt" fill="none"/></g><g><path d="M496.06 549.2l17.72 70.88 35.43-53.15-17.7 88.58 35.43-35.42-35.44 88.58 35.43-35.43-35.44 88.58 35.43-35.42-35.44 106.3 35.43-35.44-35.44 106.3 35.43-35.43-35.44 106.3-17.72 53.16-17.72 17.72-17.72-17.72-17.7-53.15-35.45-106.3 35.43 35.44-35.44-106.3 35.43 35.44-35.44-106.3 35.43 35.43-35.44-88.57 35.43 35.43-35.44-88.58 35.43 35.43-17.72-88.57 35.44 53.15 17.72-70.87z" fill-rule="evenodd" transform="matrix(.1 .2 -.2 .1 581.8 -57.8)" stroke="#fff" stroke-width="8.25" fill="#006d00"/><path d="M496.06 549.2v496.08M425.2 868.1l70.86 106.3 70.87-106.3" transform="matrix(.1 .2 -.2 .1 581.8 -57.8)" stroke="#000" stroke-width="1pt" fill="none"/><path d="M425.2 797.24l70.87 106.3 70.86-106.3" transform="matrix(.1 .2 -.2 .1 581.8 -57.8)" stroke="#000" stroke-width="1pt" fill="none"/><path d="M425.2 726.38l70.87 106.3 70.86-106.3" transform="matrix(.1 .2 -.2 .1 581.8 -57.8)" stroke="#000" stroke-width="1pt" fill="none"/><path d="M425.2 673.23l70.87 88.58 70.86-88.57" transform="matrix(.1 .2 -.2 .1 581.8 -57.8)" stroke="#000" stroke-width="1pt" fill="none"/><path d="M425.2 620.08l70.87 88.58 70.86-88.58" transform="matrix(.1 .2 -.2 .1 581.8 -57.8)" stroke="#000" stroke-width="1pt" fill="none"/><path d="M442.9 566.93l53.16 106.3 53.15-106.3" transform="matrix(.1 .2 -.2 .1 581.8 -57.8)" stroke="#000" stroke-width="1pt" fill="none"/></g><g><path d="M496.06 549.2l17.72 70.88 35.43-53.15-17.7 88.58 35.43-35.42-35.44 88.58 35.43-35.43-35.44 88.58 35.43-35.42-35.44 106.3 35.43-35.44-35.44 106.3 35.43-35.43-35.44 106.3-17.72 53.16-17.72 17.72-17.72-17.72-17.7-53.15-35.45-106.3 35.43 35.44-35.44-106.3 35.43 35.44-35.44-106.3 35.43 35.43-35.44-88.57 35.43 35.43-35.44-88.58 35.43 35.43-17.72-88.57 35.44 53.15 17.72-70.87z" fill-rule="evenodd" transform="matrix(-.2 .2 -.2 -.1 705.9 197.8)" stroke="#fff" stroke-width="8.25" fill="#006d00"/><path d="M496.06 549.2v496.08M425.2 868.1l70.86 106.3 70.87-106.3" transform="matrix(-.2 .2 -.2 -.1 705.9 197.8)" stroke="#000" stroke-width="1pt" fill="none"/><path d="M425.2 797.24l70.87 106.3 70.86-106.3" transform="matrix(-.2 .2 -.2 -.1 705.9 197.8)" stroke="#000" stroke-width="1pt" fill="none"/><path d="M425.2 726.38l70.87 106.3 70.86-106.3" transform="matrix(-.2 .2 -.2 -.1 705.9 197.8)" stroke="#000" stroke-width="1pt" fill="none"/><path d="M425.2 673.23l70.87 88.58 70.86-88.57" transform="matrix(-.2 .2 -.2 -.1 705.9 197.8)" stroke="#000" stroke-width="1pt" fill="none"/><path d="M425.2 620.08l70.87 88.58 70.86-88.58" transform="matrix(-.2 .2 -.2 -.1 705.9 197.8)" stroke="#000" stroke-width="1pt" fill="none"/><path d="M442.9 566.93l53.16 106.3 53.15-106.3" transform="matrix(-.2 .2 -.2 -.1 705.9 197.8)" stroke="#000" stroke-width="1pt" fill="none"/></g><g><path d="M496.06 549.2l17.72 70.88 35.43-53.15-17.7 88.58 35.43-35.42-35.44 88.58 35.43-35.43-35.44 88.58 35.43-35.42-35.44 106.3 35.43-35.44-35.44 106.3 35.43-35.43-35.44 106.3-17.72 53.16-17.72 17.72-17.72-17.72-17.7-53.15-35.45-106.3 35.43 35.44-35.44-106.3 35.43 35.44-35.44-106.3 35.43 35.43-35.44-88.57 35.43 35.43-35.44-88.58 35.43 35.43-17.72-88.57 35.44 53.15 17.72-70.87z" fill-rule="evenodd" transform="matrix(-.2 -.2 .2 -.2 275.8 396.1)" stroke="#fff" stroke-width="8.25" fill="#006d00"/><path d="M496.06 549.2v496.08M425.2 868.1l70.86 106.3 70.87-106.3" transform="matrix(-.2 -.2 .2 -.2 275.8 396.1)" stroke="#000" stroke-width="1pt" fill="none"/><path d="M425.2 797.24l70.87 106.3 70.86-106.3" transform="matrix(-.2 -.2 .2 -.2 275.8 396.1)" stroke="#000" stroke-width="1pt" fill="none"/><path d="M425.2 726.38l70.87 106.3 70.86-106.3" transform="matrix(-.2 -.2 .2 -.2 275.8 396.1)" stroke="#000" stroke-width="1pt" fill="none"/><path d="M425.2 673.23l70.87 88.58 70.86-88.57" transform="matrix(-.2 -.2 .2 -.2 275.8 396.1)" stroke="#000" stroke-width="1pt" fill="none"/><path d="M425.2 620.08l70.87 88.58 70.86-88.58" transform="matrix(-.2 -.2 .2 -.2 275.8 396.1)" stroke="#000" stroke-width="1pt" fill="none"/><path d="M442.9 566.93l53.16 106.3 53.15-106.3" transform="matrix(-.2 -.2 .2 -.2 275.8 396.1)" stroke="#000" stroke-width="1pt" fill="none"/></g><g><path d="M460.63 549.2l28.64 70.88 42.23-53.15-10.2 88.58 27.9-35.42-17.7 88.58 25.24-35.43-25.24 88.58 35.43-35.42-35.43 106.3 35.43-35.44-35.43 106.3 35.43-35.43-35.43 106.3-17.72 53.16-17.72 17.72-17.7-17.72-17.73-53.15-35.43-106.3 35.43 35.44-35.43-106.3 35.43 35.44-35.43-106.3 35.43 35.43L415 673.24l45.63 35.43-53.15-88.58 42.97 35.43-25.25-88.57 35.43 53.15V549.2z" fill-rule="evenodd" transform="matrix(-.3 -.1 -.2 .2 684.1 -32.2)" stroke="#fff" stroke-width="8.25" fill="#006d00"/><path d="M467.2 584.65l28.86 124.02v336.62" transform="matrix(-.3 -.1 -.2 .2 684.1 -32.2)" stroke="#000" stroke-width="1pt" fill="none"/><path d="M436.23 885.83l59.83 88.58 60.68-88.57" transform="matrix(-.3 -.1 -.2 .2 684.1 -32.2)" stroke="#000" stroke-width="1pt" fill="none"/><path d="M434.53 814.96l61.53 88.58 60.68-88.58" transform="matrix(-.3 -.1 -.2 .2 684.1 -32.2)" stroke="#000" stroke-width="1pt" fill="none"/><path d="M435.38 744.1l60.68 88.58 59.84-88.58" transform="matrix(-.3 -.1 -.2 .2 684.1 -32.2)" stroke="#000" stroke-width="1pt" fill="none"/><path d="M432.84 690.94l63.23 70.87 53.15-70.86" transform="matrix(-.3 -.1 -.2 .2 684.1 -32.2)" stroke="#000" stroke-width="1pt" fill="none"/><path d="M425.2 637.8l70.87 70.86 45.4-70.86" transform="matrix(-.3 -.1 -.2 .2 684.1 -32.2)" stroke="#000" stroke-width="1pt" fill="none"/><path d="M436.12 593.24l53.15 86.9 35.33-95.5" transform="matrix(-.3 -.1 -.2 .2 684.1 -32.2)" stroke="#000" stroke-width="1pt" fill="none"/></g><g><path d="M460.63 549.2l28.64 70.88 42.23-53.15-10.2 88.58 27.9-35.42-17.7 88.58 25.24-35.43-25.24 88.58 35.43-35.42-35.43 106.3 35.43-35.44-35.43 106.3 35.43-35.43-35.43 106.3-17.72 53.16-17.72 17.72-17.7-17.72-17.73-53.15-35.43-106.3 35.43 35.44-35.43-106.3 35.43 35.44-35.43-106.3 35.43 35.43L415 673.24l45.63 35.43-53.15-88.58 42.97 35.43-25.25-88.57 35.43 53.15V549.2z" fill-rule="evenodd" transform="matrix(.3 .1 0 .2 240.8 -138.4)" stroke="#fff" stroke-width="8.25" fill="#006d00"/><path d="M467.2 584.65l28.86 124.02v336.62" transform="matrix(.3 .1 0 .2 240.8 -138.4)" stroke="#000" stroke-width="1pt" fill="none"/><path d="M436.23 885.83l59.83 88.58 60.68-88.57" transform="matrix(.3 .1 0 .2 240.8 -138.4)" stroke="#000" stroke-width="1pt" fill="none"/><path d="M434.53 814.96l61.53 88.58 60.68-88.58" transform="matrix(.3 .1 0 .2 240.8 -138.4)" stroke="#000" stroke-width="1pt" fill="none"/><path d="M435.38 744.1l60.68 88.58 59.84-88.58" transform="matrix(.3 .1 0 .2 240.8 -138.4)" stroke="#000" stroke-width="1pt" fill="none"/><path d="M432.84 690.94l63.23 70.87 53.15-70.86" transform="matrix(.3 .1 0 .2 240.8 -138.4)" stroke="#000" stroke-width="1pt" fill="none"/><path d="M425.2 637.8l70.87 70.86 45.4-70.86" transform="matrix(.3 .1 0 .2 240.8 -138.4)" stroke="#000" stroke-width="1pt" fill="none"/><path d="M436.12 593.24l53.15 86.9 35.33-95.5" transform="matrix(.3 .1 0 .2 240.8 -138.4)" stroke="#000" stroke-width="1pt" fill="none"/></g><g><path d="M354.33 531.5l88.58 88.58 17.73-53.15v88.6l35.43-35.45-17.7 88.6 35.42-35.45-17.72 88.6 35.44-35.45-17.72 106.3 35.43-35.43-35.42 106.3 35.43-35.43-17.7 106.3-17.72 53.15-17.72 17.72-17.7-17.73-17.73-53.15-53.15-82.3 35.43 11.43-35.42-106.3 35.43 35.44-53.14-106.3 35.44 35.42-53.15-88.6 53.15 35.45-70.87-88.58 53.15 35.42-70.87-70.87 70.88 35.44-53.15-88.6z" fill-rule="evenodd" transform="matrix(0 -.2 .2 0 115.5 229.5)" stroke="#fff" stroke-width="8.25" fill="#006d00"/><path d="M378.96 560.02l63.95 95.5 17.73 53.15 8.86 45.2 8.84 78.8 9.32 70.88 8.4 141.74" transform="matrix(0 -.2 .2 0 115.5 229.5)" stroke="#000" stroke-width="1pt" fill="none"/><path d="M425.2 903.54l63.66 70.87 50.75-88.58" transform="matrix(0 -.2 .2 0 115.5 229.5)" stroke="#000" stroke-width="1pt" fill="none"/><path d="M417.08 814.96l70.58 88.58 50.75-88.58" transform="matrix(0 -.2 .2 0 115.5 229.5)" stroke="#000" stroke-width="1pt" fill="none"/><path d="M407.48 752.44l70.87 80.23 45.95-88.58M372.05 637.8l88.58 70.87 25.83-70.87" transform="matrix(0 -.2 .2 0 115.5 229.5)" stroke="#000" stroke-width="1pt" fill="none"/><path d="M360.62 602.36l82.3 53.15 10.5-53.14M389.76 690.94l81.1 70.87 33.94-70.86" transform="matrix(0 -.2 .2 0 115.5 229.5)" stroke="#000" stroke-width="1pt" fill="none"/></g><g fill-rule="evenodd"><path d="M541.46 1173.3l-1.7-229.13-61.1-106.94c-15.28-52.62-7.75-78.08 16.97-79.78 24.73-1.7 49.23 13.58 84.87 15.28 35.65 1.7 28.86-59.4 81.47-57.7 52.62 1.7 144.28 32.24 222.37 37.33 78.07 5.1 118.8-27.16 208.77-30.55 89.98-3.4 113.74 42.44 118.83 42.44s30.54-18.67 56-22.06c25.46-3.4 33.95 10.18 33.95 10.18s-1.7 57.7-13.58 91.66c-11.87 33.95-54.3 89.96-56 89.96-1.7 0-15.28 249.52-15.28 251.2 0 1.7-675.55-6.78-675.55-11.87z" stroke="#000" stroke-width="1pt" fill="#c00" transform="matrix(.1 0 0 .1 266.4 208.2)"/><g stroke="#000" stroke-width="1pt"><path d="M531.5 584.65s-67.98-52.1-69.8-177.17c-1.07-71.93 34.37-124.02 122.95-124.02 124.02 0 301.18 53.15 301.18 53.15v17.73s-141.73-53.15-301.18-53.15c-70.87 0-106.3 52.08-106.3 105.24 0 88.58 70.86 178.23 70.86 178.23v141.73h-17.7V584.65z" fill="#fff100" transform="matrix(-.1 0 0 .1 508.4 252.7)"/><path d="M478.35 549.2c0 9.8-7.93 17.73-17.72 17.73-9.78 0-17.7-7.93-17.7-17.72 0-9.77 7.92-17.7 17.7-17.7 9.8 0 17.72 7.93 17.72 17.7z" transform="matrix(-.1 0 0 .1 506.2 252.5)" fill="#fff"/><path d="M478.35 549.2c0 9.8-7.93 17.73-17.72 17.73-9.78 0-17.7-7.93-17.7-17.72 0-9.77 7.92-17.7 17.7-17.7 9.8 0 17.72 7.93 17.72 17.7z" transform="matrix(-.1 0 0 .1 508.6 247.4)" fill="#fff"/><path d="M478.35 549.2c0 9.8-7.93 17.73-17.72 17.73-9.78 0-17.7-7.93-17.7-17.72 0-9.77 7.92-17.7 17.7-17.7 9.8 0 17.72 7.93 17.72 17.7z" transform="matrix(-.1 0 0 .1 509.9 242.2)" fill="#fff"/><path d="M478.35 549.2c0 9.8-7.93 17.73-17.72 17.73-9.78 0-17.7-7.93-17.7-17.72 0-9.77 7.92-17.7 17.7-17.7 9.8 0 17.72 7.93 17.72 17.7z" transform="matrix(-.1 0 0 .1 510.8 236.7)" fill="#fff"/><path d="M478.35 549.2c0 9.8-7.93 17.73-17.72 17.73-9.78 0-17.7-7.93-17.7-17.72 0-9.77 7.92-17.7 17.7-17.7 9.8 0 17.72 7.93 17.72 17.7z" transform="matrix(-.1 0 0 .1 510.5 230.7)" fill="#fff"/><path d="M478.35 549.2c0 9.8-7.93 17.73-17.72 17.73-9.78 0-17.7-7.93-17.7-17.72 0-9.77 7.92-17.7 17.7-17.7 9.8 0 17.72 7.93 17.72 17.7z" transform="matrix(-.1 0 0 .1 502.7 257)" fill="#fff"/><path d="M478.35 549.2c0 9.8-7.93 17.73-17.72 17.73-9.78 0-17.7-7.93-17.7-17.72 0-9.77 7.92-17.7 17.7-17.7 9.8 0 17.72 7.93 17.72 17.7z" transform="matrix(-.1 0 0 .1 508.5 225)" fill="#fff"/><path d="M478.35 549.2c0 9.8-7.93 17.73-17.72 17.73-9.78 0-17.7-7.93-17.7-17.72 0-9.77 7.92-17.7 17.7-17.7 9.8 0 17.72 7.93 17.72 17.7z" transform="matrix(-.1 0 0 .1 504.1 220.5)" fill="#fff"/><path d="M478.35 549.2c0 9.8-7.93 17.73-17.72 17.73-9.78 0-17.7-7.93-17.7-17.72 0-9.77 7.92-17.7 17.7-17.7 9.8 0 17.72 7.93 17.72 17.7z" transform="matrix(-.1 0 0 .1 498.1 217.5)" fill="#fff"/><path d="M478.35 549.2c0 9.8-7.93 17.73-17.72 17.73-9.78 0-17.7-7.93-17.7-17.72 0-9.77 7.92-17.7 17.7-17.7 9.8 0 17.72 7.93 17.72 17.7z" transform="matrix(-.1 0 0 .1 492 217.1)" fill="#fff"/><path d="M478.35 549.2c0 9.8-7.93 17.73-17.72 17.73-9.78 0-17.7-7.93-17.7-17.72 0-9.77 7.92-17.7 17.7-17.7 9.8 0 17.72 7.93 17.72 17.7z" transform="matrix(-.1 0 0 .1 485.5 217.3)" fill="#fff"/><path d="M478.35 549.2c0 9.8-7.93 17.73-17.72 17.73-9.78 0-17.7-7.93-17.7-17.72 0-9.77 7.92-17.7 17.7-17.7 9.8 0 17.72 7.93 17.72 17.7z" transform="matrix(-.1 0 0 .1 479 218.2)" fill="#fff"/><path d="M478.35 549.2c0 9.8-7.93 17.73-17.72 17.73-9.78 0-17.7-7.93-17.7-17.72 0-9.77 7.92-17.7 17.7-17.7 9.8 0 17.72 7.93 17.72 17.7z" transform="matrix(-.1 0 0 .1 472.6 219)" fill="#fff"/><path d="M478.35 549.2c0 9.8-7.93 17.73-17.72 17.73-9.78 0-17.7-7.93-17.7-17.72 0-9.77 7.92-17.7 17.7-17.7 9.8 0 17.72 7.93 17.72 17.7z" transform="matrix(-.1 0 0 .1 465.6 220.1)" fill="#fff"/><path d="M478.35 549.2c0 9.8-7.93 17.73-17.72 17.73-9.78 0-17.7-7.93-17.7-17.72 0-9.77 7.92-17.7 17.7-17.7 9.8 0 17.72 7.93 17.72 17.7z" transform="matrix(-.1 0 0 .1 459.6 221.6)" fill="#fff"/></g><path d="M478.35 549.2c0 9.8-7.93 17.73-17.72 17.73-9.78 0-17.7-7.93-17.7-17.72 0-9.77 7.92-17.7 17.7-17.7 9.8 0 17.72 7.93 17.72 17.7z" transform="matrix(.1 0 0 .1 268.6 252.5)" stroke="#000" stroke-width="1pt" fill="#fff"/><path d="M478.35 549.2c0 9.8-7.93 17.73-17.72 17.73-9.78 0-17.7-7.93-17.7-17.72 0-9.77 7.92-17.7 17.7-17.7 9.8 0 17.72 7.93 17.72 17.7z" transform="matrix(.1 0 0 .1 266.1 247.4)" stroke="#000" stroke-width="1pt" fill="#fff"/><path d="M478.35 549.2c0 9.8-7.93 17.73-17.72 17.73-9.78 0-17.7-7.93-17.7-17.72 0-9.77 7.92-17.7 17.7-17.7 9.8 0 17.72 7.93 17.72 17.7z" transform="matrix(.1 0 0 .1 264.9 242.2)" stroke="#000" stroke-width="1pt" fill="#fff"/><path d="M478.35 549.2c0 9.8-7.93 17.73-17.72 17.73-9.78 0-17.7-7.93-17.7-17.72 0-9.77 7.92-17.7 17.7-17.7 9.8 0 17.72 7.93 17.72 17.7z" transform="matrix(.1 0 0 .1 263.9 236.7)" stroke="#000" stroke-width="1pt" fill="#fff"/><path d="M478.35 549.2c0 9.8-7.93 17.73-17.72 17.73-9.78 0-17.7-7.93-17.7-17.72 0-9.77 7.92-17.7 17.7-17.7 9.8 0 17.72 7.93 17.72 17.7z" transform="matrix(.1 0 0 .1 264.2 230.7)" stroke="#000" stroke-width="1pt" fill="#fff"/><path d="M478.35 549.2c0 9.8-7.93 17.73-17.72 17.73-9.78 0-17.7-7.93-17.7-17.72 0-9.77 7.92-17.7 17.7-17.7 9.8 0 17.72 7.93 17.72 17.7z" transform="matrix(.1 0 0 .1 266.2 225)" stroke="#000" stroke-width="1pt" fill="#fff"/><path d="M478.35 549.2c0 9.8-7.93 17.73-17.72 17.73-9.78 0-17.7-7.93-17.7-17.72 0-9.77 7.92-17.7 17.7-17.7 9.8 0 17.72 7.93 17.72 17.7z" transform="matrix(.1 0 0 .1 270.6 220.5)" stroke="#000" stroke-width="1pt" fill="#fff"/><path d="M478.35 549.2c0 9.8-7.93 17.73-17.72 17.73-9.78 0-17.7-7.93-17.7-17.72 0-9.77 7.92-17.7 17.7-17.7 9.8 0 17.72 7.93 17.72 17.7z" transform="matrix(.1 0 0 .1 276.7 217.5)" stroke="#000" stroke-width="1pt" fill="#fff"/><path d="M478.35 549.2c0 9.8-7.93 17.73-17.72 17.73-9.78 0-17.7-7.93-17.7-17.72 0-9.77 7.92-17.7 17.7-17.7 9.8 0 17.72 7.93 17.72 17.7z" transform="matrix(.1 0 0 .1 282.7 217.1)" stroke="#000" stroke-width="1pt" fill="#fff"/><path d="M478.35 549.2c0 9.8-7.93 17.73-17.72 17.73-9.78 0-17.7-7.93-17.7-17.72 0-9.77 7.92-17.7 17.7-17.7 9.8 0 17.72 7.93 17.72 17.7z" transform="matrix(.1 0 0 .1 289.2 217.3)" stroke="#000" stroke-width="1pt" fill="#fff"/><path d="M478.35 549.2c0 9.8-7.93 17.73-17.72 17.73-9.78 0-17.7-7.93-17.7-17.72 0-9.77 7.92-17.7 17.7-17.7 9.8 0 17.72 7.93 17.72 17.7z" transform="matrix(.1 0 0 .1 295.7 218.2)" stroke="#000" stroke-width="1pt" fill="#fff"/><path d="M478.35 549.2c0 9.8-7.93 17.73-17.72 17.73-9.78 0-17.7-7.93-17.7-17.72 0-9.77 7.92-17.7 17.7-17.7 9.8 0 17.72 7.93 17.72 17.7z" transform="matrix(.1 0 0 .1 302.2 219)" stroke="#000" stroke-width="1pt" fill="#fff"/><path d="M478.35 549.2c0 9.8-7.93 17.73-17.72 17.73-9.78 0-17.7-7.93-17.7-17.72 0-9.77 7.92-17.7 17.7-17.7 9.8 0 17.72 7.93 17.72 17.7z" transform="matrix(.1 0 0 .1 309.1 220.1)" stroke="#000" stroke-width="1pt" fill="#fff"/><path d="M478.35 549.2c0 9.8-7.93 17.73-17.72 17.73-9.78 0-17.7-7.93-17.7-17.72 0-9.77 7.92-17.7 17.7-17.7 9.8 0 17.72 7.93 17.72 17.7z" transform="matrix(.1 0 0 .1 315.1 221.6)" stroke="#000" stroke-width="1pt" fill="#fff"/><path d="M478.35 549.2c0 9.8-7.93 17.73-17.72 17.73-9.78 0-17.7-7.93-17.7-17.72 0-9.77 7.92-17.7 17.7-17.7 9.8 0 17.72 7.93 17.72 17.7z" transform="matrix(.1 0 0 .1 272 257)" stroke="#000" stroke-width="1pt" fill="#fff"/><path d="M531.5 584.65s-67.98-52.1-69.8-177.17c-1.07-71.93 34.37-124.02 122.95-124.02 124.02 0 301.18 53.15 301.18 53.15v17.73s-141.73-53.15-301.18-53.15c-70.87 0-106.3 52.08-106.3 105.24 0 88.58 70.86 178.23 70.86 178.23v141.73h-17.7V584.65z" transform="matrix(.1 0 0 .1 266.4 252.7)" stroke="#000" stroke-width="1pt" fill="#fff100"/><path d="M1240.2 531.5s15.35-35.43 70.86-35.43c37.8 0 70.87 35.43 70.87 70.86v70.87h35.43v-70.87c0-35.47 35.44-70.86 70.87-70.86 53.15 0 70.87 35.43 70.87 35.43s0-106.3-70.87-106.3c-53.15 0-70.87 35.43-70.87 35.43s17.72-53.15 17.72-106.3-35.43-88.58-35.43-88.58c0 6.8-35.44 35.43-35.44 88.58s17.73 106.3 17.73 106.3-17.72-35.43-70.87-35.43c-70.86 0-70.86 106.3-70.86 106.3z" transform="matrix(0 0 0 0 299.4 309.1)" stroke="#000" stroke-width="2.99" fill="#fff100"/><path d="M1240.2 531.5s15.35-35.43 70.86-35.43c37.8 0 70.87 35.43 70.87 70.86v70.87h35.43v-70.87c0-35.47 35.44-70.86 70.87-70.86 53.15 0 70.87 35.43 70.87 35.43s0-106.3-70.87-106.3c-53.15 0-70.87 35.43-70.87 35.43s17.72-53.15 17.72-106.3-35.43-88.58-35.43-88.58c0 6.8-35.44 35.43-35.44 88.58s17.73 106.3 17.73 106.3-17.72-35.43-70.87-35.43c-70.86 0-70.86 106.3-70.86 106.3z" transform="matrix(0 0 0 0 347.8 309.1)" stroke="#000" stroke-width="2.99" fill="#fff100"/><path d="M531.5 832.68V673.23s35.43 53.15 88.58 53.15c43.5 0 88.58-70.87 88.58-70.87s41.52 53.16 88.6 53.16c42 0 88.5-68.57 88.5-68.57s43.2 68.56 88.65 68.56 88.6-53.15 88.6-53.15 46.28 70.88 106.3 70.88c53.14 0 70.86-53.15 70.86-53.15v159.45H531.5z" transform="matrix(.1 0 0 .1 266.4 252.7)" stroke="#000" stroke-width="1pt" fill="#fff100"/><path d="M708.66 832.68V708.66s106.3 35.43 106.3 124.02h-106.3z" transform="matrix(.1 0 0 .1 242.2 252.7)" stroke="#000" stroke-width="1pt" fill="#fff100"/><path d="M708.66 832.68V708.66s106.3 35.43 106.3 124.02h-106.3z" transform="matrix(-.1 0 0 .1 532.5 252.7)" stroke="#000" stroke-width="1pt" fill="#fff100"/><path d="M602.36 832.68c0-88.58 106.37-144.6 106.37-144.6s106.23 56.02 106.23 144.6h-212.6z" transform="matrix(.1 0 0 .1 266.4 252.7)" stroke="#000" stroke-width="1pt" fill="#fff100"/><path d="M602.36 832.68c0-88.58 106.37-144.6 106.37-144.6s106.23 56.02 106.23 144.6h-212.6z" transform="matrix(.1 0 0 .1 314.8 252.7)" stroke="#000" stroke-width="1pt" fill="#fff100"/><path d="M584.65 847.53c0-88.58 124.08-159.45 124.08-159.45s123.95 70.87 123.95 159.45H584.65z" transform="matrix(.1 0 0 .1 290.6 250.9)" stroke="#000" stroke-width="1pt" fill="#fff100"/><path d="M1275.6 655.5c-35.43-17.7-166.02-35.42-376.28-35.42s-350.1 17.7-385.53 35.43c-35.44 17.73-35.44 53.16 0 70.88 35.42 17.7 175.27 35.43 385.53 35.43s340.84-17.7 376.28-35.42c35.44-17.72 35.44-53.15 0-70.87z" transform="matrix(.1 0 0 .1 265.9 275)" stroke="#000" stroke-width="1pt" fill="#fff"/><path d="M435.76 366.34c0 4.46-40.26 4.46-48.4 4.46-8.8 0-48.4 1.2-48.4-4.46 0-4.45 39.93-4.45 48.4-4.45 8.47 0 48.4.9 48.4 4.44z" fill="gray"/><path d="M343.8 350.34c0 1.46-1.1 2.64-2.42 2.64-1.34 0-2.42-1.18-2.42-2.64s1.08-2.63 2.42-2.63c1.33 0 2.42 1.2 2.42 2.64zM435.75 350.34c0 1.46-1.08 2.64-2.42 2.64-1.33 0-2.42-1.18-2.42-2.64s1.1-2.63 2.43-2.63c1.34 0 2.42 1.2 2.42 2.64z" fill="#c00"/><path d="M392.2 348.93c0 1.46-2.17 2.64-4.85 2.64-2.67 0-4.83-1.18-4.83-2.64s2.16-2.63 4.83-2.63c2.68 0 4.84 1.18 4.84 2.63z"/><path d="M415.4 348.93c0 1.46-1.6 2.64-3.62 2.64-2 0-3.63-1.18-3.63-2.64s1.63-2.63 3.63-2.63 3.63 1.18 3.63 2.63zM365.58 348.93c0 1.46-1.63 2.64-3.63 2.64s-3.63-1.18-3.63-2.64 1.62-2.63 3.63-2.63c2 0 3.63 1.18 3.63 2.63z" fill="#006300"/><path d="M1257.9 496.06s35.44-53.15 70.87-53.15h35.43v35.44c0 53.15-53.15 70.87-53.15 70.87h141.74s-53.16-17.7-53.16-70.86V442.9h35.43c35.43 0 70.87 53.16 70.87 53.16V354.33s-35.44 53.15-70.87 53.15h-35.43v-35.43c0-53.15 53.15-70.87 53.15-70.87h-141.75s53.15 17.72 53.15 70.87v35.43h-35.43c-35.43 0-70.87-53.15-70.87-53.15v141.73z" transform="matrix(.1 0 0 .1 279.5 297.9)" stroke="#000" stroke-width="2.19" fill="#fff100"/><path d="M1381.9 549.2h70.87s-53.15-17.7-53.15-70.86V442.9h35.43c35.43 0 70.87 53.16 70.87 53.16V354.33s-35.44 53.15-70.87 53.15h-35.43v-35.43c0-53.15 53.15-70.87 53.15-70.87h-70.87V549.2z" transform="matrix(0 0 0 .1 285 307.3)" stroke="#000" stroke-width="3.31" fill="#fff100"/><path d="M1381.9 549.2h70.87s-53.15-17.7-53.15-70.86V442.9h35.43c35.43 0 70.87 53.16 70.87 53.16V354.33s-35.44 53.15-70.87 53.15h-35.43v-35.43c0-53.15 53.15-70.87 53.15-70.87h-70.87V549.2z" transform="matrix(0 0 0 .1 489.7 307.3)" stroke="#000" stroke-width="3.31" fill="#fff100"/><path d="M903.54 602.36c0 9.78-7.93 17.72-17.72 17.72-9.78 0-17.7-7.94-17.7-17.72 0-9.78 7.92-17.72 17.7-17.72 9.8 0 17.72 7.94 17.72 17.72z" transform="matrix(.1 0 0 .1 266.4 252.7)" stroke="#000" stroke-width="1pt" fill="#fff"/><path d="M1257.9 496.06s35.44-53.15 70.87-53.15h35.43v35.44c0 53.15-53.15 70.87-53.15 70.87h141.74s-53.16-17.7-53.16-70.86V442.9h35.43c35.43 0 70.87 53.16 70.87 53.16V354.33s-35.44 53.15-70.87 53.15h-35.43v-35.43c0-53.15 53.15-70.87 53.15-70.87h-141.75s53.15 17.72 53.15 70.87v35.43h-35.43c-35.43 0-70.87-53.15-70.87-53.15v141.73z" transform="matrix(.1 0 0 .1 279.5 251.2)" stroke="#000" stroke-width="2.19" fill="#fff100"/><path d="M903.54 602.36c0 9.78-7.93 17.72-17.72 17.72-9.78 0-17.7-7.94-17.7-17.72 0-9.78 7.92-17.72 17.7-17.72 9.8 0 17.72 7.94 17.72 17.72z" transform="matrix(.1 0 0 .1 266.6 206.3)" stroke="#000" stroke-width="1pt" fill="#fff"/><path stroke="#000" stroke-width=".1pt" fill="#fff100" d="M351.44 273.75h7.1v5.32h-7.1z"/><path stroke="#000" stroke-width=".1pt" fill="#fff100" d="M351.44 276.53h7.1v20.25h-7.1z"/><path d="M478.35 549.2c0 9.8-7.93 17.73-17.72 17.73-9.78 0-17.7-7.93-17.7-17.72 0-9.77 7.92-17.7 17.7-17.7 9.8 0 17.72 7.93 17.72 17.7z" transform="matrix(.1 0 0 .1 324.4 246.1)" stroke="#000" stroke-width="1pt" fill="#fff"/><path d="M478.35 549.2c0 9.8-7.93 17.73-17.72 17.73-9.78 0-17.7-7.93-17.7-17.72 0-9.77 7.92-17.7 17.7-17.7 9.8 0 17.72 7.93 17.72 17.7z" transform="matrix(.1 0 0 .1 324.4 240.3)" stroke="#000" stroke-width="1pt" fill="#fff"/><path d="M478.35 549.2c0 9.8-7.93 17.73-17.72 17.73-9.78 0-17.7-7.93-17.7-17.72 0-9.77 7.92-17.7 17.7-17.7 9.8 0 17.72 7.93 17.72 17.7z" transform="matrix(.1 0 0 .1 324.4 234.9)" stroke="#000" stroke-width="1pt" fill="#fff"/><path d="M478.35 549.2c0 9.8-7.93 17.73-17.72 17.73-9.78 0-17.7-7.93-17.7-17.72 0-9.77 7.92-17.7 17.7-17.7 9.8 0 17.72 7.93 17.72 17.7z" transform="matrix(.1 0 0 .1 324.4 229.4)" stroke="#000" stroke-width="1pt" fill="#fff"/><path d="M392.5 357.48c0 1-2.2 1.8-4.92 1.8-2.72 0-4.92-.8-4.92-1.8s2.2-1.8 4.92-1.8c2.7 0 4.92.8 4.92 1.8zM437.06 361.9c-.27.7-2.66.75-5.35.13-2.67-.6-4.62-1.67-4.35-2.36.27-.68 2.67-.74 5.35-.12 2.68.6 4.64 1.67 4.36 2.35zM418.44 358.9c-.1.88-2.44 1.44-5.2 1.25-2.78-.2-4.93-1.07-4.83-1.95.12-.88 2.45-1.44 5.22-1.25 2.77.2 4.92 1.07 4.82 1.95zM336.57 361.9c.27.7 2.66.75 5.35.13 2.68-.6 4.63-1.67 4.36-2.36-.27-.68-2.67-.74-5.35-.12-2.68.6-4.64 1.67-4.36 2.35zM356.13 358.47c.1.88 2.44 1.44 5.2 1.25 2.77-.2 4.93-1.07 4.82-1.95-.1-.88-2.44-1.44-5.2-1.25-2.77.2-4.93 1.07-4.82 1.95z"/></g></g></svg>