<svg xmlns="http://www.w3.org/2000/svg" height="480" width="640"><defs><clipPath id="a"><path fill-opacity=".67" d="M-85.3 0h682.66v512H-85.3z"/></clipPath></defs><g clip-path="url(#a)" fill-rule="evenodd" transform="matrix(.9 0 0 .9 80 0)"><path fill="#fff" d="M-191.96 0h896v512h-896z"/><path fill="#da0000" d="M-191.96 343.84h896V512h-896z"/><g stroke-width="1pt" fill="#fff"><path d="M-21.62 350.96h49.07v3.37h-49.07zM-14.3 367.84h3.36v3.28h-3.37zM27.57 367.74v3.37h-9.8v-3.36zM32.84 350.96h3.38v20.16h-3.38z"/><path d="M52.4 367.74v3.37H33.8v-3.36zM17.77 359.85h3.37v11.27h-3.37z"/><path d="M49.6 350.96H53v20.16h-3.4zM41.17 350.96h3.37v20.16h-3.37zM-3.63 358.98v3.38h-17.92v-3.38zM35.67 358.98v3.38H17.75v-3.38z"/><path d="M17.77 359.85h3.37v11.27h-3.37z"/><path d="M17.77 359.85h3.37v11.27h-3.37z"/><path d="M17.77 359.85h3.37v11.27h-3.37zM-21.54 359.85h3.38v11.27h-3.38zM7.27 359.85h3.37v11.27H7.27zM-7 359.85h3.37v11.27H-7z"/><path d="M9.64 367.74v3.37H-5.5v-3.36zM10.64 358.98v3.38h-9.6v-3.38z"/></g><g stroke-width="1pt" fill="#fff"><path d="M-102.22 350.96h49.07v3.37h-49.07zM-94.9 367.84h3.36v3.28h-3.37zM-53.03 367.74v3.37h-9.8v-3.36zM-47.76 350.96h3.38v20.16h-3.38z"/><path d="M-28.2 367.74v3.37h-18.6v-3.36zM-62.83 359.85h3.37v11.27h-3.37z"/><path d="M-31 350.96h3.4v20.16H-31zM-39.43 350.96h3.37v20.16h-3.37zM-84.23 358.98v3.38h-17.92v-3.38zM-44.93 358.98v3.38h-17.92v-3.38z"/><path d="M-62.83 359.85h3.37v11.27h-3.37z"/><path d="M-62.83 359.85h3.37v11.27h-3.37z"/><path d="M-62.83 359.85h3.37v11.27h-3.37zM-102.14 359.85h3.38v11.27h-3.38zM-73.33 359.85h3.37v11.27h-3.37zM-87.6 359.85h3.37v11.27h-3.37z"/><path d="M-70.96 367.74v3.37H-86.1v-3.36zM-69.96 358.98v3.38h-9.6v-3.38z"/></g><g stroke-width="1pt" fill="#fff"><path d="M58.3 350.96h49.07v3.37H58.3zM65.6 367.84H69v3.28H65.6zM107.5 367.74v3.37h-9.8v-3.36zM112.77 350.96h3.37v20.16h-3.37z"/><path d="M132.3 367.74v3.37h-18.58v-3.36zM97.7 359.85h3.37v11.27H97.7z"/><path d="M129.54 350.96h3.37v20.16h-3.36zM121.1 350.96h3.37v20.16h-3.37zM76.3 358.98v3.38H58.37v-3.38zM115.6 358.98v3.38H97.67v-3.38z"/><path d="M97.7 359.85h3.37v11.27H97.7z"/><path d="M97.7 359.85h3.37v11.27H97.7z"/><path d="M97.7 359.85h3.37v11.27H97.7zM58.4 359.85h3.36v11.27H58.4zM87.2 359.85h3.36v11.27H87.2zM72.92 359.85h3.37v11.27H72.9z"/><path d="M89.56 367.74v3.37H74.43v-3.36zM90.56 358.98v3.38h-9.6v-3.38z"/></g><g stroke-width="1pt" fill="#fff"><path d="M622.7 350.96h49.06v3.37H622.7zM630 367.84h3.37v3.28H630zM671.88 367.74v3.37h-9.8v-3.36zM677.15 350.96h3.38v20.16h-3.38z"/><path d="M696.7 367.74v3.37h-18.6v-3.36zM662.08 359.85h3.37v11.27h-3.37z"/><path d="M693.92 350.96h3.38v20.16h-3.38zM685.48 350.96h3.37v20.16h-3.37zM640.68 358.98v3.38h-17.92v-3.38zM679.98 358.98v3.38h-17.92v-3.38z"/><path d="M662.08 359.85h3.37v11.27h-3.37z"/><path d="M662.08 359.85h3.37v11.27h-3.37z"/><path d="M662.08 359.85h3.37v11.27h-3.37zM622.77 359.85h3.38v11.27h-3.38zM651.58 359.85h3.37v11.27h-3.37zM637.3 359.85h3.38v11.27h-3.37z"/><path d="M653.95 367.74v3.37H638.8v-3.36zM654.95 358.98v3.38h-9.6v-3.38z"/></g><g stroke-width="1pt" fill="#fff"><path d="M138.75 350.96h49.07v3.37h-49.07zM146.06 367.84h3.37v3.28h-3.37zM187.94 367.74v3.37h-9.8v-3.36zM193.2 350.96h3.4v20.16h-3.4z"/><path d="M212.76 367.74v3.37h-18.6v-3.36zM178.14 359.85h3.37v11.27h-3.36z"/><path d="M209.98 350.96h3.38v20.16h-3.38zM201.54 350.96h3.37v20.16h-3.36zM156.74 358.98v3.38h-17.92v-3.38zM196.04 358.98v3.38h-17.92v-3.38z"/><path d="M178.14 359.85h3.37v11.27h-3.36z"/><path d="M178.14 359.85h3.37v11.27h-3.36z"/><path d="M178.14 359.85h3.37v11.27h-3.36zM138.83 359.85h3.38v11.27h-3.37zM167.64 359.85H171v11.27h-3.36zM153.37 359.85h3.37v11.27h-3.37z"/><path d="M170 367.74v3.37h-15.13v-3.36zM171 358.98v3.38h-9.6v-3.38z"/></g><g stroke-width="1pt" fill="#fff"><path d="M219.5 350.96h49.06v3.37H219.5zM226.8 367.84h3.37v3.28h-3.37zM268.68 367.74v3.37h-9.8v-3.36zM273.95 350.96h3.38v20.16h-3.38z"/><path d="M293.5 367.74v3.37h-18.6v-3.36zM258.88 359.85h3.37v11.27h-3.37z"/><path d="M290.72 350.96h3.38v20.16h-3.38zM282.28 350.96h3.37v20.16h-3.37zM237.48 358.98v3.38h-17.92v-3.38zM276.78 358.98v3.38h-17.92v-3.38z"/><path d="M258.88 359.85h3.37v11.27h-3.37z"/><path d="M258.88 359.85h3.37v11.27h-3.37z"/><path d="M258.88 359.85h3.37v11.27h-3.37zM219.57 359.85h3.38v11.27h-3.38zM248.38 359.85h3.37v11.27h-3.37zM234.1 359.85h3.38v11.27h-3.37z"/><path d="M250.75 367.74v3.37H235.6v-3.36zM251.75 358.98v3.38h-9.6v-3.38z"/></g><path fill="#239f40" d="M-191.96 0h896v168.16h-896z"/><g stroke-width="1pt" fill="#fff"><path d="M300.7 350.96h49.07v3.37H300.7zM308 367.84h3.38v3.28H308zM349.9 367.74v3.37h-9.8v-3.36zM355.16 350.96h3.38v20.16h-3.38z"/><path d="M374.7 367.74v3.37h-18.58v-3.36zM340.1 359.85h3.36v11.27h-3.37z"/><path d="M371.93 350.96h3.38v20.16h-3.37zM363.5 350.96h3.36v20.16h-3.37zM318.7 358.98v3.38h-17.93v-3.38zM358 358.98v3.38h-17.93v-3.38z"/><path d="M340.1 359.85h3.36v11.27h-3.37z"/><path d="M340.1 359.85h3.36v11.27h-3.37z"/><path d="M340.1 359.85h3.36v11.27h-3.37zM300.78 359.85h3.38v11.27h-3.38zM329.6 359.85h3.36v11.27h-3.37zM315.32 359.85h3.37v11.27h-3.38z"/><path d="M331.96 367.74v3.37h-15.14v-3.36zM332.96 358.98v3.38h-9.6v-3.38z"/></g><g stroke-width="1pt" fill="#fff"><path d="M381.43 350.96h49.07v3.37h-49.07zM388.74 367.84h3.37v3.28h-3.36zM430.62 367.74v3.37h-9.8v-3.36zM435.9 350.96h3.37v20.16h-3.38z"/><path d="M455.44 367.74v3.37h-18.6v-3.36zM420.82 359.85h3.37v11.27h-3.38z"/><path d="M452.66 350.96h3.38v20.16h-3.38zM444.22 350.96h3.37v20.16h-3.38zM399.42 358.98v3.38H381.5v-3.38zM438.72 358.98v3.38H420.8v-3.38z"/><path d="M420.82 359.85h3.37v11.27h-3.38z"/><path d="M420.82 359.85h3.37v11.27h-3.38z"/><path d="M420.82 359.85h3.37v11.27h-3.38zM381.5 359.85h3.4v11.27h-3.4zM410.32 359.85h3.37v11.27h-3.38zM396.05 359.85h3.37v11.27h-3.37z"/><path d="M412.7 367.74v3.37h-15.15v-3.36zM413.7 358.98v3.38h-9.6v-3.38z"/></g><g stroke-width="1pt" fill="#fff"><path d="M462.17 350.96h49.07v3.37h-49.07zM469.48 367.84h3.37v3.28h-3.37zM511.36 367.74v3.37h-9.8v-3.36zM516.63 350.96H520v20.16h-3.37z"/><path d="M536.18 367.74v3.37h-18.6v-3.36zM501.56 359.85h3.37v11.27h-3.37z"/><path d="M533.4 350.96h3.38v20.16h-3.38zM524.96 350.96h3.37v20.16h-3.37zM480.16 358.98v3.38h-17.92v-3.38zM519.46 358.98v3.38h-17.92v-3.38z"/><path d="M501.56 359.85h3.37v11.27h-3.37z"/><path d="M501.56 359.85h3.37v11.27h-3.37z"/><path d="M501.56 359.85h3.37v11.27h-3.37zM462.25 359.85h3.38v11.27h-3.38zM491.06 359.85h3.37v11.27h-3.37zM476.8 359.85h3.36v11.27h-3.37z"/><path d="M493.43 367.74v3.37H478.3v-3.36zM494.43 358.98v3.38h-9.6v-3.38z"/></g><g stroke-width="1pt" fill="#fff"><path d="M543.38 350.96h49.07v3.37h-49.07zM550.7 367.84h3.36v3.28h-3.37zM592.57 367.74v3.37h-9.8v-3.36zM597.84 350.96h3.38v20.16h-3.38z"/><path d="M617.4 367.74v3.37h-18.6v-3.36zM582.77 359.85h3.37v11.27h-3.37z"/><path d="M614.6 350.96h3.4v20.16h-3.4zM606.17 350.96h3.37v20.16h-3.37zM561.37 358.98v3.38h-17.92v-3.38zM600.67 358.98v3.38h-17.92v-3.38z"/><path d="M582.77 359.85h3.37v11.27h-3.37z"/><path d="M582.77 359.85h3.37v11.27h-3.37z"/><path d="M582.77 359.85h3.37v11.27h-3.37zM543.46 359.85h3.38v11.27h-3.38zM572.27 359.85h3.37v11.27h-3.37zM558 359.85h3.37v11.27H558z"/><path d="M574.64 367.74v3.37H559.5v-3.36zM575.64 358.98v3.38h-9.6v-3.38z"/></g><g stroke-width="1pt" fill="#fff"><path d="M-183.78 350.96h49.07v3.37h-49.08zM-176.47 367.84h3.37v3.28h-3.37zM-134.6 367.74v3.37h-9.8v-3.36zM-129.32 350.96h3.38v20.16h-3.38z"/><path d="M-109.77 367.74v3.37h-18.6v-3.36zM-144.4 359.85h3.38v11.27h-3.37z"/><path d="M-112.55 350.96h3.38v20.16h-3.38zM-121 350.96h3.38v20.16H-121zM-165.8 358.98v3.38h-17.9v-3.38zM-126.5 358.98v3.38h-17.9v-3.38z"/><path d="M-144.4 359.85h3.38v11.27h-3.37z"/><path d="M-144.4 359.85h3.38v11.27h-3.37z"/><path d="M-144.4 359.85h3.38v11.27h-3.37zM-183.7 359.85h3.38v11.27h-3.38zM-154.9 359.85h3.38v11.27h-3.37zM-169.16 359.85h3.37v11.27h-3.36z"/><path d="M-152.52 367.74v3.37h-15.14v-3.36zM-151.52 358.98v3.38h-9.6v-3.38z"/></g><g stroke-width="1pt" fill="#fff"><path d="M-21.62 143.44h49.07v3.38h-49.07zM-14.3 160.33h3.36v3.28h-3.37zM27.57 160.22v3.37h-9.8v-3.38zM32.84 143.44h3.38v20.17h-3.38z"/><path d="M52.4 160.22v3.37H33.8v-3.38zM17.77 152.33h3.37v11.28h-3.37z"/><path d="M49.6 143.44H53v20.17h-3.4zM41.17 143.44h3.37v20.17h-3.37zM-3.63 151.47v3.37h-17.92v-3.37zM35.67 151.47v3.37H17.75v-3.37z"/><path d="M17.77 152.33h3.37v11.28h-3.37z"/><path d="M17.77 152.33h3.37v11.28h-3.37z"/><path d="M17.77 152.33h3.37v11.28h-3.37zM-21.54 152.33h3.38v11.28h-3.38zM7.27 152.33h3.37v11.28H7.27zM-7 152.33h3.37v11.28H-7z"/><path d="M9.64 160.22v3.37H-5.5v-3.38zM10.64 151.47v3.37h-9.6v-3.37z"/></g><g stroke-width="1pt" fill="#fff"><path d="M-102.22 143.44h49.07v3.38h-49.07zM-94.9 160.33h3.36v3.28h-3.37zM-53.03 160.22v3.37h-9.8v-3.38zM-47.76 143.44h3.38v20.17h-3.38z"/><path d="M-28.2 160.22v3.37h-18.6v-3.38zM-62.83 152.33h3.37v11.28h-3.37z"/><path d="M-31 143.44h3.4v20.17H-31zM-39.43 143.44h3.37v20.17h-3.37zM-84.23 151.47v3.37h-17.92v-3.37zM-44.93 151.47v3.37h-17.92v-3.37z"/><path d="M-62.83 152.33h3.37v11.28h-3.37z"/><path d="M-62.83 152.33h3.37v11.28h-3.37z"/><path d="M-62.83 152.33h3.37v11.28h-3.37zM-102.14 152.33h3.38v11.28h-3.38zM-73.33 152.33h3.37v11.28h-3.37zM-87.6 152.33h3.37v11.28h-3.37z"/><path d="M-70.96 160.22v3.37H-86.1v-3.38zM-69.96 151.47v3.37h-9.6v-3.37z"/></g><g stroke-width="1pt" fill="#fff"><path d="M58.3 143.44h49.07v3.38H58.3zM65.6 160.33H69v3.28H65.6zM107.5 160.22v3.37h-9.8v-3.38zM112.77 143.44h3.37v20.17h-3.37z"/><path d="M132.3 160.22v3.37h-18.58v-3.38zM97.7 152.33h3.37v11.28H97.7z"/><path d="M129.54 143.44h3.37v20.17h-3.36zM121.1 143.44h3.37v20.17h-3.37zM76.3 151.47v3.37H58.37v-3.37zM115.6 151.47v3.37H97.67v-3.37z"/><path d="M97.7 152.33h3.37v11.28H97.7z"/><path d="M97.7 152.33h3.37v11.28H97.7z"/><path d="M97.7 152.33h3.37v11.28H97.7zM58.4 152.33h3.36v11.28H58.4zM87.2 152.33h3.36v11.28H87.2zM72.92 152.33h3.37v11.28H72.9z"/><path d="M89.56 160.22v3.37H74.43v-3.38zM90.56 151.47v3.37h-9.6v-3.37z"/></g><g stroke-width="1pt" fill="#fff"><path d="M622.7 143.44h49.06v3.38H622.7zM630 160.33h3.37v3.28H630zM671.88 160.22v3.37h-9.8v-3.38zM677.15 143.44h3.38v20.17h-3.38z"/><path d="M696.7 160.22v3.37h-18.6v-3.38zM662.08 152.33h3.37v11.28h-3.37z"/><path d="M693.92 143.44h3.38v20.17h-3.38zM685.48 143.44h3.37v20.17h-3.37zM640.68 151.47v3.37h-17.92v-3.37zM679.98 151.47v3.37h-17.92v-3.37z"/><path d="M662.08 152.33h3.37v11.28h-3.37z"/><path d="M662.08 152.33h3.37v11.28h-3.37z"/><path d="M662.08 152.33h3.37v11.28h-3.37zM622.77 152.33h3.38v11.28h-3.38zM651.58 152.33h3.37v11.28h-3.37zM637.3 152.33h3.38v11.28h-3.37z"/><path d="M653.95 160.22v3.37H638.8v-3.38zM654.95 151.47v3.37h-9.6v-3.37z"/></g><g stroke-width="1pt" fill="#fff"><path d="M138.75 143.44h49.07v3.38h-49.07zM146.06 160.33h3.37v3.28h-3.37zM187.94 160.22v3.37h-9.8v-3.38zM193.2 143.44h3.4v20.17h-3.4z"/><path d="M212.76 160.22v3.37h-18.6v-3.38zM178.14 152.33h3.37v11.28h-3.36z"/><path d="M209.98 143.44h3.38v20.17h-3.38zM201.54 143.44h3.37v20.17h-3.36zM156.74 151.47v3.37h-17.92v-3.37zM196.04 151.47v3.37h-17.92v-3.37z"/><path d="M178.14 152.33h3.37v11.28h-3.36z"/><path d="M178.14 152.33h3.37v11.28h-3.36z"/><path d="M178.14 152.33h3.37v11.28h-3.36zM138.83 152.33h3.38v11.28h-3.37zM167.64 152.33H171v11.28h-3.36zM153.37 152.33h3.37v11.28h-3.37z"/><path d="M170 160.22v3.37h-15.13v-3.38zM171 151.47v3.37h-9.6v-3.37z"/></g><g stroke-width="1pt" fill="#fff"><path d="M219.5 143.44h49.06v3.38H219.5zM226.8 160.33h3.37v3.28h-3.37zM268.68 160.22v3.37h-9.8v-3.38zM273.95 143.44h3.38v20.17h-3.38z"/><path d="M293.5 160.22v3.37h-18.6v-3.38zM258.88 152.33h3.37v11.28h-3.37z"/><path d="M290.72 143.44h3.38v20.17h-3.38zM282.28 143.44h3.37v20.17h-3.37zM237.48 151.47v3.37h-17.92v-3.37zM276.78 151.47v3.37h-17.92v-3.37z"/><path d="M258.88 152.33h3.37v11.28h-3.37z"/><path d="M258.88 152.33h3.37v11.28h-3.37z"/><path d="M258.88 152.33h3.37v11.28h-3.37zM219.57 152.33h3.38v11.28h-3.38zM248.38 152.33h3.37v11.28h-3.37zM234.1 152.33h3.38v11.28h-3.37z"/><path d="M250.75 160.22v3.37H235.6v-3.38zM251.75 151.47v3.37h-9.6v-3.37z"/></g><g stroke-width="1pt" fill="#fff"><path d="M300.7 143.44h49.07v3.38H300.7zM308 160.33h3.38v3.28H308zM349.9 160.22v3.37h-9.8v-3.38zM355.16 143.44h3.38v20.17h-3.38z"/><path d="M374.7 160.22v3.37h-18.58v-3.38zM340.1 152.33h3.36v11.28h-3.37z"/><path d="M371.93 143.44h3.38v20.17h-3.37zM363.5 143.44h3.36v20.17h-3.37zM318.7 151.47v3.37h-17.93v-3.37zM358 151.47v3.37h-17.93v-3.37z"/><path d="M340.1 152.33h3.36v11.28h-3.37z"/><path d="M340.1 152.33h3.36v11.28h-3.37z"/><path d="M340.1 152.33h3.36v11.28h-3.37zM300.78 152.33h3.38v11.28h-3.38zM329.6 152.33h3.36v11.28h-3.37zM315.32 152.33h3.37v11.28h-3.38z"/><path d="M331.96 160.22v3.37h-15.14v-3.38zM332.96 151.47v3.37h-9.6v-3.37z"/></g><g stroke-width="1pt" fill="#fff"><path d="M381.43 143.44h49.07v3.38h-49.07zM388.74 160.33h3.37v3.28h-3.36zM430.62 160.22v3.37h-9.8v-3.38zM435.9 143.44h3.37v20.17h-3.38z"/><path d="M455.44 160.22v3.37h-18.6v-3.38zM420.82 152.33h3.37v11.28h-3.38z"/><path d="M452.66 143.44h3.38v20.17h-3.38zM444.22 143.44h3.37v20.17h-3.38zM399.42 151.47v3.37H381.5v-3.37zM438.72 151.47v3.37H420.8v-3.37z"/><path d="M420.82 152.33h3.37v11.28h-3.38z"/><path d="M420.82 152.33h3.37v11.28h-3.38z"/><path d="M420.82 152.33h3.37v11.28h-3.38zM381.5 152.33h3.4v11.28h-3.4zM410.32 152.33h3.37v11.28h-3.38zM396.05 152.33h3.37v11.28h-3.37z"/><path d="M412.7 160.22v3.37h-15.15v-3.38zM413.7 151.47v3.37h-9.6v-3.37z"/></g><g stroke-width="1pt" fill="#fff"><path d="M462.17 143.44h49.07v3.38h-49.07zM469.48 160.33h3.37v3.28h-3.37zM511.36 160.22v3.37h-9.8v-3.38zM516.63 143.44H520v20.17h-3.37z"/><path d="M536.18 160.22v3.37h-18.6v-3.38zM501.56 152.33h3.37v11.28h-3.37z"/><path d="M533.4 143.44h3.38v20.17h-3.38zM524.96 143.44h3.37v20.17h-3.37zM480.16 151.47v3.37h-17.92v-3.37zM519.46 151.47v3.37h-17.92v-3.37z"/><path d="M501.56 152.33h3.37v11.28h-3.37z"/><path d="M501.56 152.33h3.37v11.28h-3.37z"/><path d="M501.56 152.33h3.37v11.28h-3.37zM462.25 152.33h3.38v11.28h-3.38zM491.06 152.33h3.37v11.28h-3.37zM476.8 152.33h3.36v11.28h-3.37z"/><path d="M493.43 160.22v3.37H478.3v-3.38zM494.43 151.47v3.37h-9.6v-3.37z"/></g><g stroke-width="1pt" fill="#fff"><path d="M543.38 143.44h49.07v3.38h-49.07zM550.7 160.33h3.36v3.28h-3.37zM592.57 160.22v3.37h-9.8v-3.38zM597.84 143.44h3.38v20.17h-3.38z"/><path d="M617.4 160.22v3.37h-18.6v-3.38zM582.77 152.33h3.37v11.28h-3.37z"/><path d="M614.6 143.44h3.4v20.17h-3.4zM606.17 143.44h3.37v20.17h-3.37zM561.37 151.47v3.37h-17.92v-3.37zM600.67 151.47v3.37h-17.92v-3.37z"/><path d="M582.77 152.33h3.37v11.28h-3.37z"/><path d="M582.77 152.33h3.37v11.28h-3.37z"/><path d="M582.77 152.33h3.37v11.28h-3.37zM543.46 152.33h3.38v11.28h-3.38zM572.27 152.33h3.37v11.28h-3.37zM558 152.33h3.37v11.28H558z"/><path d="M574.64 160.22v3.37H559.5v-3.38zM575.64 151.47v3.37h-9.6v-3.37z"/></g><g stroke-width="1pt" fill="#fff"><path d="M-183.78 143.44h49.07v3.38h-49.08zM-176.47 160.33h3.37v3.28h-3.37zM-134.6 160.22v3.37h-9.8v-3.38zM-129.32 143.44h3.38v20.17h-3.38z"/><path d="M-109.77 160.22v3.37h-18.6v-3.38zM-144.4 152.33h3.38v11.28h-3.37z"/><path d="M-112.55 143.44h3.38v20.17h-3.38zM-121 143.44h3.38v20.17H-121zM-165.8 151.47v3.37h-17.9v-3.37zM-126.5 151.47v3.37h-17.9v-3.37z"/><path d="M-144.4 152.33h3.38v11.28h-3.37z"/><path d="M-144.4 152.33h3.38v11.28h-3.37z"/><path d="M-144.4 152.33h3.38v11.28h-3.37zM-183.7 152.33h3.38v11.28h-3.38zM-154.9 152.33h3.38v11.28h-3.37zM-169.16 152.33h3.37v11.28h-3.36z"/><path d="M-152.52 160.22v3.37h-15.14v-3.38zM-151.52 151.47v3.37h-9.6v-3.37z"/></g><g stroke-width="1pt" fill="#d90000"><path d="M-68.83 339.5h6.05V350h-6.05zM91.7 339.5h6.05V350H91.7zM-192 339.5h6.05V350H-192zM-110.53 339.5h6.05V350h-6.05zM-29.63 339.5h6.05V350h-6.05zM10.4 339.5h6.04V350H10.4zM51.25 339.5h6.05V350h-6.05zM131.73 339.5h6.05V350h-6.05zM334.78 339.5h6.05V350h-6.05zM172.6 339.5h6.04V350h-6.05zM212.62 339.5h6.05V350h-6.05zM253.06 339.5h6.05V350h-6.04zM293.5 339.5h6.06V350h-6.05zM616.65 339.5h6.05V350h-6.05zM373.98 339.5h6.05V350h-6.05zM414.84 339.5h6.05V350h-6.06zM456.13 339.5h6.04V350h-6.04zM494.9 339.5h6.05V350h-6.05zM536.18 339.5h6.04V350h-6.04zM576.62 339.5h6.05V350h-6.05zM696.3 339.5h6.04V350h-6.04zM657.52 339.5h6.05V350h-6.05zM-151.4 339.5h6.06V350h-6.05z"/></g><g stroke-width="1pt" fill="#239e3f"><path d="M-68.83 162.6h6.05v10.5h-6.05zM91.7 162.6h6.05v10.5H91.7zM-192 162.6h6.05v10.5H-192zM-110.53 162.6h6.05v10.5h-6.05zM-29.63 162.6h6.05v10.5h-6.05zM10.4 162.6h6.04v10.5H10.4zM51.25 162.6h6.05v10.5h-6.05zM131.73 162.6h6.05v10.5h-6.05zM334.78 162.6h6.05v10.5h-6.05zM172.6 162.6h6.04v10.5h-6.05zM212.62 162.6h6.05v10.5h-6.05zM253.06 162.6h6.05v10.5h-6.04zM293.5 162.6h6.06v10.5h-6.05zM616.65 162.6h6.05v10.5h-6.05zM373.98 162.6h6.05v10.5h-6.05zM414.84 162.6h6.05v10.5h-6.06zM456.13 162.6h6.04v10.5h-6.04zM494.9 162.6h6.05v10.5h-6.05zM536.18 162.6h6.04v10.5h-6.04zM576.62 162.6h6.05v10.5h-6.05zM696.3 162.6h6.04v10.5h-6.04zM657.52 162.6h6.05v10.5h-6.05zM-151.4 162.6h6.06v10.5h-6.05z"/></g><g fill="#da0000"><path d="M279.8 197.5c8.45 10.35 34.5 67.64-15.73 105.17-23.62 17.78-9 18.67-8.3 21.66 37.97-20.16 50.37-47.5 50.08-71.96-.3-24.48-13.26-46.1-26.05-54.88z"/><path d="M284.83 194.83c18.75 9.6 59.55 57.87 15.63 112.34 27.3-6.06 61.98-86.42-15.63-112.34zM227.25 194.83c-18.75 9.6-59.56 57.87-15.64 112.34-27.28-6.06-61.97-86.42 15.65-112.34z"/><path d="M232.2 197.5c-8.45 10.35-34.5 67.64 15.73 105.17 23.62 17.78 9 18.67 8.3 21.66-37.97-20.16-50.37-47.5-50.08-71.96.3-24.48 13.26-46.1 26.05-54.88z"/><path d="M304.2 319.1c-14.86.25-33.6-2.04-47.5-9.26 2.3 4.45 4.2 7.26 6.5 11.7 13.24 1.23 31.52 2.74 41-2.43z"/><path d="M209.22 319.1c14.86.25 33.6-2.04 47.5-9.26-2.3 4.45-4.2 7.26-6.5 11.7-13.24 1.23-31.52 2.74-41-2.43zM236.48 180.4c3 8 10.9 9.16 19.37 4.45 6.16 3.7 15.7 3.93 18.97-4.07 2.5 19.8-18.3 15.1-19.08 11.24-7.74 7.48-22.16 3.16-19.26-11.62z"/><path d="M256.4 331.57l7.8-8.93 1.13-120.18-9.3-8.18-9.3 7.8 1.86 120.93 7.8 8.57z"/></g></g></svg>