<svg xmlns="http://www.w3.org/2000/svg" height="480" width="640"><defs><clipPath id="a"><path fill-opacity=".67" d="M-84.33-2.1h685.48V512H-84.33z"/></clipPath></defs><g clip-path="url(#a)" fill-rule="evenodd" transform="matrix(.9 0 0 .9 78.7 2)"><path fill="#fff" d="M-116.04 1.14h750.87v509.73h-750.87z"/><path fill="#008900" d="M-116.04 364.96h750.87V512h-750.87z"/><path fill="#c23743" d="M-118 185.42h750.87v147.04H-118z"/><path d="M-116.04-2.1h750.87v160.07h-750.87z"/><path d="M158.63 436.28c37.96-70.65 165.2-304.64 163.95-305.32-20.8-12.2 16.82-30.98 44.45-74.97-19.68 47.27-17.6 91.4-37.8 78.7C295.6 198.14 191.68 392.1 165.85 440c-2.73-1.47-3.54-2.07-7.23-3.72z" stroke="#000" stroke-width="1.08" fill="#fff"/><path d="M349 439.05C311.06 368.4 183.8 134.4 185.07 133.73c20.8-12.2-16.82-30.97-44.45-74.97 19.7 47.28 17.6 91.4 37.82 78.7 33.6 63.45 137.53 257.4 163.36 305.3 2.73-1.46 3.54-2.06 7.23-3.7z" stroke="#000" stroke-width="1.08" fill="#fff"/><path d="M252.53 85.44c119.6 84.3 117.63 288.2 0 358.76-109.8-74.5-125.47-276.43 0-358.76z" stroke="#000" stroke-width="1.14" fill="#c23743"/><path d="M268.23 260.9c0 12.46-6.6 22.55-14.7 22.55-8.13 0-14.7-10.1-14.7-22.54s6.57-22.54 14.7-22.54c8.1 0 14.7 10.1 14.7 22.55z" fill="#fffffb"/><path d="M251.78 93.28c33.63 32.53 33.08 111.22 0 138.46-30.87-28.75-35.28-106.68 0-138.46zM251.78 297.17c33.63 32.53 33.08 111.22 0 138.46-30.87-28.75-35.28-106.68 0-138.46z" stroke="#000" stroke-width=".37" fill="#fff"/><path fill="#c23743" d="M244.7 93.28h13.7v141.16h-13.7zM246.65 295.2h13.72v141.17h-13.72z"/><path d="M179.28 181.5c20.4 37.98 20.07 129.85 0 161.66-18.73-33.57-21.4-124.55 0-161.66zM328.28 183.46c20.4 37.98 20.07 129.85 0 161.66-18.73-33.57-21.4-124.55 0-161.66z" stroke="#000" stroke-width=".31"/></g></svg>