<svg xmlns="http://www.w3.org/2000/svg" height="480" width="640"><defs><clipPath id="a"><path fill-opacity=".67" d="M-84.95 0h682.67v512H-84.95z"/></clipPath></defs><g clip-path="url(#a)" fill-rule="evenodd" transform="matrix(.9 0 0 .9 79.6 0)"><path fill="#be0027" d="M-128 0h768.77v512H-128z"/><path d="M105.45 261.14c13.66-16.6 41.95-.4 65.05-12.36-27.36 1.5-42.27-13.13-63.9-11.08 22.4-13.75 41.47 4.5 66.5-2.84-33.15-2.8-31.7-17.6-61.87-19.72 26.8-11.42 40.03 11.75 66.27 6.48-30.92-7.14-35.04-25.35-58.03-29.2 33.6-5.08 31.4 14.78 64.36 17.2-33.44-14.33-24.68-26.8-52.65-37.7 31.3-.75 29.23 20.94 60.93 26.63-27.13-17.22-23.78-32.94-46.13-45.23 26.52.48 29.1 27.62 56.18 36.04-24.15-19.16-17.8-35.32-38.66-52.43 26.37 6.2 22.53 29.6 50 44.55-20.36-22.6-12.55-38.8-30.3-57.3 25.37 8.16 15.73 30.42 42.06 51.58-15.1-24.85-5.78-40.7-20.63-61.68 23.56 12.17 12.15 34.88 34.02 57.56-10.3-25.5 0-41.35-10.5-63.94 20.14 15.06 8.16 39.32 24.4 62.47-5.9-31.92 7.86-37.17 3.57-65.12 15.3 18.8-1.8 37.58 9.95 65.26-1.43-31.47 15.3-38.8 12.4-64.06 15.16 22.65-8.5 42.36 1.4 66.6 2.55-29.86 22.17-37.6 22.48-60.83 11.93 21.34-14.1 36.68-9.88 64.97 8.57-31.2 29.47-35.05 31.94-56.03 7.24 24.68-21.26 36.15-19.6 63.5 8.5-27.73 34.63-31 39.97-51.47 3.3 26.1-22.4 30.74-29.63 59.58 13.5-23.54 37.14-25.47 47.78-44.1-.83 25.83-29.84 29.2-38.75 53.38 16.73-20.5 37.7-16.95 54.42-35.13-1.78 23.3-31.3 21.98-47.02 46.1 18.14-16.73 45.43-11.7 59.33-26.12-.66 20.6-36.9 19.06-54 37.48 21.1-11.55 47.77-4.77 63.24-15.5-2.83 18.08-41.08 13.86-59.36 27.96 25.2-7 44.68 3.8 65.1-4-9.94 17.6-44.63 6.46-63.05 17.9 21.88-3.72 45.13 9.54 65.1 5.3-6.57 15.2-44.6-.93-65.1 8.53 24.5-.22 40.4 15.43 63.13 14.4-12.36 13.76-45.78-5.17-65.26-1.94 23.76 4.93 41.9 24.62 59.93 25.56-14.8 11.36-42.42-14.5-64.87-11.2 23.1 6.17 42.52 32.46 55.78 33.04-14.3 9.76-42.52-22.47-61.86-21.32 23.5 10.62 34.27 37.5 49.7 41.3-19.1 6.12-37.87-29.22-58.4-30.45 23.78 15 25.12 37.92 43.42 48.13-19.25 4.7-32.96-35.17-53.26-38.54 19.5 14.33 22.43 44.94 35.35 54.6-19.6 1.05-26.7-40.7-46.8-46.67 17.22 14.38 13.1 45.58 26.5 58.87-20.44-4.2-17.8-40.54-39.13-52.78 15.32 19.32 7.53 46.85 17.5 62.34-19.86-8.04-11.23-40.57-30.2-59 10.35 20.6-.77 44.6 7.4 64.5-18.17-8.86-5.96-47.4-19.87-62.67 6.4 23.8-5.4 43.48-.64 64.8-18.56-21.53 2.8-43.2-13.28-65.12 4.27 25.17-13.34 42.7-10.57 63.77-14.7-17.2 7.9-44.78-3.52-66.48 2.46 24.75-20.28 46.44-18.7 62.03-12-19.97 13.28-43.58 6.52-66.3-1.43 23.58-24.38 36.4-28.7 57.87-7.7-23.7 19.57-40.8 17.2-64.1-7.8 22.15-29.97 31.03-37.78 52.5-6.4-23.63 25.9-36.17 26.77-61.03-10 23.3-36.53 28.43-45.3 46.27-3.26-23.5 33.82-34 35.2-56.27-11.94 21.38-40.97 22.25-51 39.26-1.5-23.43 37.6-26.33 43.73-50.84-11.9 18.28-43.74 15.9-57 30.77 2.1-21.72 44.4-23.07 51.14-42.6-15.73 15.17-44.97 8.88-61.43 20.9 9.17-21.32 48.84-16.8 57.8-32.26-17.55 9.17-48.67.28-64 9.45 13.93-20.2 44.82-8.14 62.3-22.05-28.44 4.14-45.5-7.17-65.2-1.94z" fill="#ff0"/><path d="M355.94 256.1c0 54.8-44.43 99.23-99.22 99.23-54.8 0-99.23-44.42-99.23-99.22s44.42-99.2 99.22-99.2 99.22 44.4 99.22 99.2z" fill="#ff0"/><path d="M343.17 256.3c0 47.65-38.62 86.27-86.26 86.27-47.64 0-86.26-38.62-86.26-86.26 0-47.64 38.62-86.26 86.27-86.26s86.27 38.63 86.27 86.27z" fill="#be0027"/><path d="M331.16 256.5c0 40.9-33.17 74.06-74.08 74.06-40.9 0-74.07-33.16-74.07-74.07 0-40.92 33.17-74.1 74.08-74.1 40.9 0 74.08 33.18 74.08 74.1z" fill="#ff0"/><path d="M194.04 207.95c20.5-.45 46.03 1.42 62.86 14.9 17.86-11.16 39-16.32 60.54-14.32l11.02 20.1c-15.98-1.6-31.6.66-50.1 8.14 23.6 18.7 35.4 42.8 34.63 72.14-2.72 3.37-6.97 7.1-9.68 10.46 3.93-28.5-11.1-60.28-32.88-76.98 17.73 25.6 28.3 48.67 25.34 80.46-3.16 1.87-6.9 4.5-10.06 6.38 4.64-28.04-1.93-60.93-22.63-80.07 11.92 17.53 23.85 49 16.43 81.04-3.22.95-8.2 3.66-11.4 4.63 8.3-26.24 3.08-59.06-10.84-78.72-13.8 19.8-18.32 50.04-10.46 77.96-3.87-.97-6.77-2.13-10.63-3.1-5.67-30.04 2.2-63.95 15.87-81.62-13.93 8.06-27.08 42.62-23.4 77.95-3.36-1.56-5.94-2.72-9.3-4.27-4.5-26.37 7.42-60.66 24.57-80.46-19.47 12.25-35.26 42.3-32.5 74.66-2.96-2.64-5.73-3.93-8.7-6.58-3.4-28.23 12.9-56.67 32.1-73.7-16.17-7.2-30.03-8.63-50.08-8.3 3.16-6.52 6.12-14.2 9.28-20.7z" fill="#be0027"/></g></svg>