<svg xmlns="http://www.w3.org/2000/svg" height="480" width="640"><defs><clipPath id="a"><path fill-opacity=".67" d="M0 0h682.67v512H0z"/></clipPath></defs><g clip-path="url(#a)" fill-rule="evenodd" transform="scale(.9)"><path fill="#ff0" d="M0 0h768.77v128H0z"/><path fill="#fff" d="M0 128h768.77v128H0z"/><path fill="#be0027" d="M0 256h768.77v128H0z"/><path fill="#3b5aa3" d="M0 384h768.77v128H0z"/><path d="M0 0v512l381.86-255.28L0 0z" fill="#239e46"/><path d="M157.2 141.43C72.1 137.13 33.35 204.9 33.44 257.3c-.2 61.97 58.53 113.08 112.8 110-29.26-13.85-65-52.67-65.33-110.26-.3-52.18 29.5-97.55 76.3-115.6z" fill="#fff"/><path fill="#fff" d="M155.93 197.06l-12-9.4-14.53 4.6 5.2-14.33-8.82-12.4 15.23.52 9.07-12.24 4.2 14.66 14.45 4.85-12.65 8.53M155.67 249.12l-12-9.38-14.53 4.57 5.22-14.3-8.84-12.42 15.23.53 9.07-12.23 4.2 14.65 14.44 4.85-12.64 8.52M155.93 301.7l-12-9.4-14.53 4.6 5.2-14.33-8.82-12.4 15.23.52 9.07-12.25 4.2 14.65 14.45 4.85-12.65 8.52M155.67 354.78l-12-9.4-14.53 4.6 5.22-14.33-8.84-12.4 15.23.52 9.07-12.24 4.2 14.65 14.44 4.85-12.64 8.52"/></g></svg>