<svg xmlns="http://www.w3.org/2000/svg" height="480" width="640" version="1"><defs><clipPath id="a"><path fill-opacity=".67" d="M-80.1 0h682.66v512H-80.1z"/></clipPath></defs><g fill-rule="evenodd" clip-path="url(#a)" transform="matrix(.9 0 0 .9 75.1 0)"><path fill="#ffe900" d="M-107.85.24H629.8v511.3h-737.65z"/><path d="M-108.24.24l.86 368.58L466.6 0l-574.84.24z" fill="#35a100"/><path d="M630.7 511.53l-1.36-383.25L50.36 511.82l580.33-.28z" fill="#c70000"/><path d="M-107.87 396.6l.5 115.4 125.24-.16L629.63 101.7l-.7-100.32L505.2.24-107.87 396.6z"/><path fill="#fff" d="M380.45 156.62l-9.9-42.25 33.35 27.08 38-24.64-17.43 41.33 33.4 27.02-44.12-1.54-17.38 41.34-9.83-42.27-44.14-1.48M105.2 335.53l-9.9-42.25 33.35 27.08 38.02-24.64-17.44 41.32 33.4 27.02-44.13-1.54-17.37 41.33-9.84-42.27-44.14-1.48"/></g></svg>