<svg xmlns="http://www.w3.org/2000/svg" height="480" width="640" version="1"><defs><clipPath id="a"><path fill-opacity=".67" d="M5.08.1H687.6V512H5.1z"/></clipPath></defs><g fill-rule="evenodd" clip-path="url(#a)" transform="matrix(.9 0 0 .9 -4.8 -.1)"><path stroke="#000" stroke-width="1.01" fill="#fff" d="M775.94 511.52H-75.92V.57h851.86z"/><path fill="#3e5698" d="M775.94 419.07H-75.92v92.46h851.86z"/><path fill="#c60000" d="M775.94 397.65H-75.92v-283.2h851.86z"/><path fill="#3e5698" d="M775.94.58H-75.92v92.46h851.86z"/><path d="M328.52 256.07c0 63.45-53.1 114.9-118.62 114.9-65.5 0-118.62-51.45-118.62-114.9s53.1-114.9 118.62-114.9c65.5 0 118.62 51.45 118.62 114.9z" fill="#fff"/><path fill="#c40000" d="M175.83 270.57l-57.06-40.62 71.06-.3 22.63-66.36 21.17 66.14 71.05-.4-57.97 41.17L268 336.34l-57-40.7-57.9 41.27"/></g></svg>