<svg xmlns="http://www.w3.org/2000/svg" height="480" width="640" version="1"><defs><clipPath id="a"><path fill-opacity=".67" d="M-95.8-.44h682.66v512H-95.8z"/></clipPath></defs><g fill-rule="evenodd" clip-path="url(#a)" transform="matrix(.9 0 0 .9 89.8 .4)"><path fill="#fff" d="M610.6 511.56h-730.16v-512H610.6z"/><path d="M251.87 256.02c0 62.14-50.37 112.5-112.5 112.5-62.14 0-112.5-50.36-112.5-112.5s50.36-112.5 112.5-112.5c62.13 0 112.5 50.37 112.5 112.5z" fill="#fff"/><path d="M393 262.55c0 81.08-65.02 146.8-145.25 146.8S102.5 343.63 102.5 262.55s65.02-146.8 145.25-146.8S393 181.47 393 262.55z" fill="#c70000"/><path d="M-49.42 126.44l83.66-96.77L54.06 46.8-29.6 143.6zM-22.02 150.13l83.66-96.77L81.46 70.5-2.2 167.25z"/><path d="M-49.42 126.44l83.66-96.77L54.06 46.8-29.6 143.6z"/><path d="M-49.42 126.44l83.66-96.77L54.06 46.8-29.6 143.6zM5.97 174.32l83.66-96.77 19.82 17.13-83.66 96.78z"/><path d="M-49.42 126.44l83.66-96.77L54.06 46.8-29.6 143.6z"/><path d="M-49.42 126.44l83.66-96.77L54.06 46.8-29.6 143.6zM459.4 29.64l83 97.33-19.92 17-83-97.33zM403.7 77.14l83 97.34-19.93 17-83-97.34z"/><path d="M417.55 133.2l78.6-67.82 14.64 16.95-84 75.52-9.25-24.66z" fill="#fff"/><path d="M514.23 372l-80.42 95.84-19.7-16.4 80.4-95.82zM431.85 53.14l83 97.33-19.93 17-83-97.33zM541.47 394.68l-80.4 95.83-19.73-16.4 80.42-95.82zM486.4 348.86l-80.43 95.83-19.7-16.4 80.4-95.84z"/><path d="M104.6 236.68c4.6 36.97 11.3 78.17 68.2 82.45 21.33 1.28 62.82-5.07 77.06-63.19 18.7-55.82 74.97-71.88 113.28-41.6 21.72 14.16 27.73 36.66 29.28 53.55-1.74 54.23-32.87 101.2-72.82 122.13-45.93 27.3-109.56 27.87-165.3-13.5-25.12-23.56-60.22-67-49.7-139.85z" fill="#3d5897"/><path d="M435.9 370.6l78.74 67.65-14.6 17-87.14-71.85 23-12.8z" fill="#fff"/><path d="M-1.9 357.2l83 97.33-19.92 17-83-97.33z"/><path d="M-16.2 437.25l78.6-67.8 14.66 16.94-84 75.5-9.25-24.65z" fill="#fff"/><path d="M25.67 333.7l83 97.33-19.93 17-83-97.33zM-30.03 381.2l83 97.33-19.94 17-83-97.33z"/></g></svg>