<svg xmlns="http://www.w3.org/2000/svg" height="480" width="640"><defs><clipPath id="a"><path fill-opacity=".67" d="M0 0h640v480H0z"/></clipPath></defs><g clip-path="url(#a)"><g fill-rule="evenodd" stroke-width="1pt"><path fill="#e4104d" d="M0 239.83h720.5V480H0z"/><path fill="#8a85ff" d="M0 0h720.5v239.83H0z"/></g><g fill-rule="evenodd"><path d="M149.73 167.6l82.35-.32s30.42-36.55 14.3-60.5c-16.1-23.93-79.2-.74-79.47-.74-.24 0-.5-12.86-16.1-13.1-15.58.24-15.83 13.1-16.1 13.1-.24 0-63.37-23.2-79.47.75-16.1 23.93 14.3 60.48 14.3 60.48l80.2.3z" fill="#f3ef7d"/><path d="M149.77 167.58l79.06-.3s29.2-35.5 13.74-58.76c-15.46-23.25-76.06-.73-76.3-.73-.25 0-.5-12.5-15.46-12.74-14.95.24-15.2 12.73-15.44 12.73-.25 0-60.85-22.53-76.3.72-15.46 23.26 13.73 58.76 13.73 58.76l76.98.3z"/><g stroke-width="1pt" fill="#f3ef7d"><path d="M241.7 117.92h-.95v11.24h.94zM238.28 111.8h-.93v23.12h.93zM235.02 108.66h-1.1v30.4h1.1zM230.85 106.44h-1.18v36.36h1.18zM226.12 105.13h-1.18v40.76h1.18zM221.3 103.56h-1.2v44.4h1.2zM217.2 103.22H216v46.28h1.2zM213.07 103.22h-1.2v47.58h1.2zM207.92 103.32h-1.1v49.64h1.1zM203.08 103.8h-1.35v49.65h1.35zM197.8 105h-1.36v48.94h1.36zM192.62 106.9h-1.27v47.4h1.27zM187.22 109.08h-1.2v44.86h1.2zM182.74 110.54h-1.2v41.86h1.2zM177.98 113.37h-1.02v37.74h1.02zM173.8 117.03h-.84v32.25h.85zM170.06 120.6h-1.02v26.24h1.02zM166.4 126.1h-.92v16.74h.92z"/></g><g stroke-width="1pt" fill="#f3ef7d"><path d="M59.46 116.8h.93v11.23h-.94zM62.87 110.7h.93v23.1h-.93zM66.12 107.54h1.1v30.4h-1.1zM70.3 105.3h1.18v36.38h-1.2zM75.02 104h1.2v40.76H75zM79.85 102.43h1.2v44.42h-1.2zM83.96 102.1h1.18v46.27h-1.18zM88.08 102.1h1.18v47.58h-1.18zM93.23 102.2h1.1v49.63h-1.1zM98.06 102.67h1.36v49.66h-1.36zM103.35 103.9h1.36v48.92h-1.35zM108.52 105.8h1.27v47.37h-1.28zM113.93 107.96h1.2v44.86h-1.2zM118.4 109.42h1.2v41.85h-1.2zM123.17 112.25h1.02V150h-1.03zM127.34 115.9h.85v32.25h-.86zM131.1 119.5h1v26.2h-1zM134.75 124.96h.9v16.75h-.9z"/></g><path d="M149.4 65.78l-.1-1.7c0-.34-2.4-2.27-2.4-7.14 0-4.88 2.07-6.8 3.16-6.8s3.47 1.58 3.58 6.68c.1 5.1-2.4 7.03-2.4 7.03l-.2 2.04 1.84.1c.1 0 2.4-2.04 8.25-1.8s6.2 2.7 6.3 3.5c.1.8-.87 3.18-6.73 3.18-5.87 0-7.6-2.84-7.7-2.84l-1.86-.1v1.46s2.28 1.82 2.17 7.82c-.1 6-2.37 6.35-3.03 6.35-.86 0-2.7-.34-2.82-6.23.22-6 1.74-7.7 1.74-7.82v-1.48h-1.64s-1.74 1.48-7.7 1.6c-5.98.1-6.3-1.7-6.4-2.73-.12-1 1.07-2.82 6.28-2.94 5.22-.1 7.7 1.82 7.7 1.82h1.97z" fill="#f3ef7d"/><g transform="matrix(.6 0 0 .6 21.8 33.7)" stroke-width="1pt" fill="#f3ef7d"><rect rx="5.83" ry="5.83" height="11.66" width="11.66" y="105.59" x="188.99"/><rect rx="5.83" ry="5.83" height="11.66" width="11.66" y="103.23" x="177.22"/><rect rx="5.83" ry="5.83" height="11.66" width="11.66" y="99.7" x="164.86"/><rect rx="5.83" ry="5.83" height="11.66" width="11.66" y="96.76" x="152.49"/><rect rx="5.83" ry="5.83" height="11.66" width="11.66" y="94.4" x="139.54"/><rect rx="5.83" ry="5.83" height="11.66" width="11.66" y="92.64" x="126.59"/><rect rx="5.83" ry="5.83" height="11.66" width="11.66" y="91.46" x="114.23"/><rect rx="5.83" ry="5.83" height="11.66" width="11.66" y="90.87" x="101.27"/><rect rx="5.83" ry="5.83" height="11.66" width="11.66" y="92.64" x="88.91"/><rect rx="5.83" ry="5.83" height="11.66" width="11.66" y="94.4" x="75.96"/><rect rx="5.83" ry="5.83" height="11.66" width="11.66" y="98.53" x="64.19"/><rect rx="5.83" ry="5.83" height="11.66" width="11.66" y="106.18" x="53"/><rect rx="5.83" ry="5.83" height="11.66" width="11.66" y="116.78" x="45.35"/><rect rx="5.83" ry="5.83" height="11.66" width="11.66" y="127.96" x="40.64"/><rect rx="5.83" ry="5.83" height="11.66" width="11.66" y="140.32" x="38.87"/><rect rx="5.83" ry="5.83" height="11.66" width="11.66" y="153.28" x="39.46"/><rect rx="5.83" ry="5.83" height="11.66" width="11.66" y="165.64" x="42.4"/><rect rx="5.83" ry="5.83" height="11.66" width="11.66" y="178" x="47.11"/><rect rx="5.83" ry="5.83" height="11.66" width="11.66" y="188.6" x="52.41"/></g><g transform="matrix(-.6 0 0 .6 280 33.7)" stroke-width="1pt" fill="#f3ef7d"><rect rx="5.83" ry="5.83" height="11.66" width="11.66" y="105.59" x="188.99"/><rect rx="5.83" ry="5.83" height="11.66" width="11.66" y="103.23" x="177.22"/><rect rx="5.83" ry="5.83" height="11.66" width="11.66" y="99.7" x="164.86"/><rect rx="5.83" ry="5.83" height="11.66" width="11.66" y="96.76" x="152.49"/><rect rx="5.83" ry="5.83" height="11.66" width="11.66" y="94.4" x="139.54"/><rect rx="5.83" ry="5.83" height="11.66" width="11.66" y="92.64" x="126.59"/><rect rx="5.83" ry="5.83" height="11.66" width="11.66" y="91.46" x="114.23"/><rect rx="5.83" ry="5.83" height="11.66" width="11.66" y="90.87" x="101.27"/><rect rx="5.83" ry="5.83" height="11.66" width="11.66" y="92.64" x="88.91"/><rect rx="5.83" ry="5.83" height="11.66" width="11.66" y="94.4" x="75.96"/><rect rx="5.83" ry="5.83" height="11.66" width="11.66" y="98.53" x="64.19"/><rect rx="5.83" ry="5.83" height="11.66" width="11.66" y="106.18" x="53"/><rect rx="5.83" ry="5.83" height="11.66" width="11.66" y="116.78" x="45.35"/><rect rx="5.83" ry="5.83" height="11.66" width="11.66" y="127.96" x="40.64"/><rect rx="5.83" ry="5.83" height="11.66" width="11.66" y="140.32" x="38.87"/><rect rx="5.83" ry="5.83" height="11.66" width="11.66" y="153.28" x="39.46"/><rect rx="5.83" ry="5.83" height="11.66" width="11.66" y="165.64" x="42.4"/><rect rx="5.83" ry="5.83" height="11.66" width="11.66" y="178" x="47.11"/><rect rx="5.83" ry="5.83" height="11.66" width="11.66" y="188.6" x="52.41"/></g><g stroke-width="1pt" transform="matrix(1.7 0 0 1.7 -124.2 288.5)"><path d="M227.04-79.38l-11.1 32.8s-18.36-7.68-52.8-7.68c-34.4 0-50.1 6.72-50.1 6.72L96.9-79.78c14.36-2.67 18.74 9.58 18.74 9.58s.98-14.3 12.26-16.84c9.53-1.65 17.96 10.72 17.96 10.72s1.98-13.92 16.07-14.3C176-90.24 178-76.32 178-76.32s8.42-12.37 17.95-10.72C207.23-84.5 208.2-70.2 208.2-70.2s4.4-12.25 18.84-9.2z" fill="#f3ef7d"/><rect transform="translate(13.3 -218.3)" rx="51.43" ry="8.13" height="16.26" width="102.86" y="162.27" x="100.1"/><g transform="matrix(.3 0 0 .4 86.1 -150.3)"><rect rx="3.43" ry="4.65" height="9.3" width="6.87" y="175.06" x="228.46"/><rect rx="3.43" ry="4.65" height="9.3" width="6.87" y="177.41" x="237.82"/><rect rx="3.43" ry="4.65" height="9.3" width="6.87" y="175.06" x="219.87"/><rect rx="3.43" ry="4.65" height="9.3" width="6.87" y="182.12" x="203.48"/><rect rx="3.43" ry="4.65" height="9.3" width="6.87" y="177.41" x="211.28"/><rect rx="3.43" ry="4.65" height="9.3" width="6.87" y="189.19" x="197.23"/><rect rx="3.43" ry="4.65" height="9.3" width="6.87" y="182.71" x="245.63"/><rect rx="3.43" ry="4.65" height="9.3" width="6.87" y="189.19" x="252.65"/></g><g transform="matrix(.3 .1 -.1 .4 129.4 -157.7)"><rect rx="3.43" ry="4.65" height="9.3" width="6.87" y="175.06" x="228.46"/><rect rx="3.43" ry="4.65" height="9.3" width="6.87" y="177.41" x="237.82"/><rect rx="3.43" ry="4.65" height="9.3" width="6.87" y="175.06" x="219.87"/><rect rx="3.43" ry="4.65" height="9.3" width="6.87" y="182.12" x="203.48"/><rect rx="3.43" ry="4.65" height="9.3" width="6.87" y="177.41" x="211.28"/><rect rx="3.43" ry="4.65" height="9.3" width="6.87" y="189.19" x="197.23"/><rect rx="3.43" ry="4.65" height="9.3" width="6.87" y="182.71" x="245.63"/><rect rx="3.43" ry="4.65" height="9.3" width="6.87" y="189.19" x="252.65"/></g><g transform="matrix(.3 -.1 .1 .3 42.9 -131)"><rect rx="3.43" ry="4.65" height="9.3" width="6.87" y="175.06" x="228.46"/><rect rx="3.43" ry="4.65" height="9.3" width="6.87" y="177.41" x="237.82"/><rect rx="3.43" ry="4.65" height="9.3" width="6.87" y="175.06" x="219.87"/><rect rx="3.43" ry="4.65" height="9.3" width="6.87" y="182.12" x="203.48"/><rect rx="3.43" ry="4.65" height="9.3" width="6.87" y="177.41" x="211.28"/><rect rx="3.43" ry="4.65" height="9.3" width="6.87" y="189.19" x="197.23"/><rect rx="3.43" ry="4.65" height="9.3" width="6.87" y="182.71" x="245.63"/><rect rx="3.43" ry="4.65" height="9.3" width="6.87" y="189.19" x="252.65"/></g><rect transform="matrix(1 -.2 .2 1 13.3 -218.3)" rx="1.15" ry="1.65" height="3.29" width="2.3" y="155.25" x="57.04"/><rect transform="matrix(1 -.2 .2 1 13.3 -218.3)" rx="1.15" ry="1.65" height="3.29" width="2.3" y="156.09" x="60.18"/><rect transform="matrix(1 -.2 .2 1 13.3 -218.3)" rx="1.15" ry="1.65" height="3.29" width="2.3" y="157.96" x="62.79"/><rect transform="matrix(1 -.2 .2 1 13.3 -218.3)" rx="1.15" ry="1.65" height="3.29" width="2.3" y="160.26" x="65.14"/><g transform="matrix(.3 .1 -.1 .3 148.9 -220.3)"><rect rx="3.43" ry="4.65" height="9.3" width="6.87" y="285.4" x="359.08"/><rect rx="3.43" ry="4.65" height="9.3" width="6.87" y="292.46" x="342.69"/><rect rx="3.43" ry="4.65" height="9.3" width="6.87" y="287.75" x="350.49"/><rect rx="3.43" ry="4.65" height="9.3" width="6.87" y="299.53" x="336.44"/></g><path d="M154.13-76.4c8.05 6.4 8.2 18.4 8.2 18.4s-1.3-12.62 7.33-17.77c-4.46 1.4-4.3 1.1-6.76.94l-.57-4.06s-.44 2.04-1.3 3.9c-1.87.63-2.3.63-6.9-1.4zM122.32-71.72c9.24 4.2 12.04 15.84 12.04 15.84s-4.06-11.96 3.2-19.12c-4.03 2.48-3.96 2.14-6.37 2.6l-1.47-3.8s.03 2.08-.4 4.12c-1.67 1.07-2.1 1.18-7 .36zM187.7-75.48c6.3 8.32 3.62 20 3.62 20s1.7-12.58 11.26-15.3c-4.64.2-4.43-.07-6.76-.87l.4-4.08s-.9 1.85-2.18 3.44c-1.95.12-2.37 0-6.35-3.18zM104.92-65.76c6.95 3.42 10.55 13.58 10.55 13.58s-4.5-10.4-.58-16.9c-2.4 2.3-2.4 2-4 2.46l-1.55-3.3s.33 1.83.33 3.63c-1 1-1.27 1.12-4.76.54zM211.66-70.23c1.32 8.02-4.45 16.97-4.45 16.97s5.45-9.88 12.72-10.17c-3.14-.78-2.9-.95-4.18-2.07l1.66-3.23s-1.23 1.32-2.62 2.35c-1.33-.3-1.57-.47-3.12-3.85z"/></g><g stroke-width="1pt" transform="matrix(1.7 0 0 1.7 -124.2 288.5)"><rect transform="translate(13.3 -218.3)" rx="3.36" ry="3.51" height="7.02" width="6.72" y="97.3" x="145.26" fill="#f3ef7d"/><path d="M161.66-121.02h.7v7.02h-.7z"/><rect transform="translate(13.3 -218.3)" rx="1.55" ry="1.76" height="3.51" width="3.11" y="119.51" x="147.36" fill="#f3ef7d"/><rect transform="translate(13.3 -218.3)" rx="1.45" ry="1.65" height="3.3" width="2.91" y="115.96" x="147.36" fill="#f3ef7d"/><rect transform="translate(13.3 -218.3)" rx="1.45" ry="1.55" height="3.09" width="2.91" y="112.61" x="147.36" fill="#f3ef7d"/><rect transform="translate(13.3 -218.3)" rx="1.26" ry="1.23" height="2.47" width="2.52" y="109.9" x="147.56" fill="#f3ef7d"/><rect transform="translate(13.3 -218.3)" rx="1.26" ry="1.44" height="2.88" width="2.52" y="106.76" x="147.56" fill="#f3ef7d"/><rect transform="translate(13.3 -218.3)" rx="1.06" ry="1.02" height="2.05" width="2.12" y="104.46" x="147.76" fill="#f3ef7d"/><path d="M165.37-117.9v.74l-6.72.04v-.74z"/><rect transform="translate(13.3 -218.3)" rx="1.95" ry="2.07" height="4.14" width="3.89" y="123.07" x="146.97" fill="#f3ef7d"/></g></g></g></svg>