<svg xmlns="http://www.w3.org/2000/svg" version="1" viewBox="0 0 320 240"><defs><clipPath id="a"><path d="M25-60h400v300H25z"/></clipPath></defs><g transform="matrix(.8 0 0 .8 -20 48)" clip-path="url(#a)"><path fill="#fff" d="M0-60h450v300H0z"/><path fill="#009543" d="M0 150h450v90H0z"/><path fill="#00209f" d="M0-60h450v90H0z"/><path d="M224.76 35.57c-1.7.04-3.37 1.93-3.37 1.93l.13 20.23-6.38 6.7h5.17l-.05 11.6-30.6 41.2-4.5-1.57-7.9 16.86s19.54 12.24 47.9 11.9c31.15-.37 48.07-12.47 48.07-12.47l-8.16-16.64-4 1.75-31-40.98-.03-11.95h5.17l-7.04-6.6.05-20.17s-1.76-1.82-3.47-1.78z" stroke="#000" stroke-width="1.000516"/><path d="M235.43 84h-21.15s-7.68-16.17-6.44-27.48c1.27-11.5 7.85-16.96 16.6-17.06 10.35-.1 15.77 5.07 17.4 16.6 1.63 11.43-6.4 27.95-6.4 27.95z" fill="none" stroke="#000" stroke-width="5.00258"/><path d="M187.8 122.57c-.36.46-2.9 5.53-2.9 5.53l4.4-.92-1.5-4.6zM190.32 129.14l-4.6 1.5 5.53 2.2-.93-3.7zM192.4 122.68l2.3 6.8 5.65-1.6-1.5-3.24-6.45-1.96zM195.97 131.9l.8 2.77 7.5 1.85-3-6.34-5.3 1.73zM204.27 126.14l2.65 6.34 5.65-2.2-1.84-2.75-6.46-1.4zM207.96 134.8l.92 2.4 8.76 1.28-3.7-5.77-5.98 2.1zM216.37 128l3.23 5.63 8.18-3-.92-2.18-10.5-.46zM221.1 135.7l1.73 3 10.14-.34-3.8-5.65-8.07 3zM231.82 128.22l2.76 4.72 6.46-3.1-1.73-2.54-7.48.92zM242.42 131.8l-6.45 3.22 1.73 2.76 8.64-1.38-3.92-4.6zM244.5 126.83l3.34 4.15 5.42-4.26-1.85-1.96-6.9 2.07zM254.4 129.02l-5.18 3.92 1.4 2.42 7.13-1.84-3.34-4.5zM261.56 120.84l1.26 1.84-3.57 5.3-3.7-4.72 6-2.42zM263.98 125.45l2.2 4.38-4.4 1.5-.34-2.08 2.54-3.8z" fill="#fff"/></g></svg>