<svg xmlns="http://www.w3.org/2000/svg" height="480" width="640" version="1"><defs><clipPath id="a"><path fill-opacity=".67" d="M0-48h640v480H0z"/></clipPath></defs><g fill-rule="evenodd" clip-path="url(#a)" transform="translate(0 48)" stroke-width="1pt"><path fill="#eb0013" d="M0-128h640v640H0z"/><path d="M371 263.7L204.27 380.33l42.97-131.57 22.3 16.16-16 48.08 108.75-78.37 8.73 29.1zm17.1-76.15l58.22 195.62-109.3-81.56 22.48-15.93 38.9 29.2-40.65-128.4 30.37 1.08zm-68.98-38.84l204.88.25-111.65 80.53-8.94-26.07 41.53-27.78-135.44 1.9 9.62-28.8zM261.2 201L326.06 5.1l44.65 134.7-27.56.34-16.44-51.6-41.16 130.62L261.2 201zm33.23 70.42L129.13 150.1l139.54-1.08-8.14 26.32-51.78-.2L319.2 253.8l-24.76 17.62z" fill="#0b5035"/></g></svg>