<svg xmlns="http://www.w3.org/2000/svg" viewBox="0 0 640 320"><path fill="#d3ae3b" d="M0-80h640.02v480H0z"/><path fill="#c40308" d="M32-49.62h577.52V369.6H32z"/><g transform="translate(21.4 -21.2)"><path fill="#b96b29" d="M430.57 175.12c3.5-1 15.73-4.56 24.34-11.55 8.62-6.98 10.3-12.58 11-15.6.68-3.02.98-5.4-1.24-3.67-2.23 1.73-8.9 7-13.46 9.5-4.55 2.54-8.76 3.73-11.23 4.43-2.48.7-4.46 1.13-2.08.2 2.36-.95 10.13-3.68 16.12-9.67 6-6 10.7-14.98 10.82-20.5.1-5.5-.3-5.12-2.07-3.74-1.78 1.38-8.08 9.17-11.62 12.12-3.55 2.96-9.26 6.9-12.12 8.57-2.85 1.68-6.9 3.56-1.28-.3 5.62-3.82 16.25-12.9 20.6-24.6 4.32-11.73 3.53-18.62 3.43-19.8-.1-1.2-1.08-3.55-2.06-1.38-1 2.16-8.08 16.35-13.8 22.45-5.7 6.1-4.33 4.93-5.6 5.9-1.3 1-3.46 2.77-.7-.68s8.47-11.43 11.43-19.3c2.95-7.9 3.74-15.77 3.84-20.3.1-4.53-1.88-10.83-2.77-12.7-.88-1.88-1.77-3.25-2.07-1.1-.3 2.18-4.82 16.16-7.3 22.96-2.45 6.8-7.37 14.48-8.36 15.96-.98 1.47-3.54 4.53-.8-.6 2.77-5.12 8.1-20.2 8.78-34.47.7-14.28-1.28-22.16-3.25-26.1-1.97-3.94-3.67-5.34-3.67-5.34s.33 9.76-2.58 23.77c-2.9 14-7.16 21.4-7.16 21.4s-1.8 2.02-.56-1.34c.83-2.26 2.54-7.24 3.32-15.67.82-8.85.92-18.92-1.66-27.5-2.82-9.32-7.7-14.1-7.7-14.1-1.36 13.4-1.1 30.65-6 44.64-.9-.82-2.13-2.34-2.6.75-.9 4.6-2.7 13.22-8.74 24.2-6.04 11-8.5 12.44-8.5 12.44s-1.12-2.7-1.9-4.15c-.8-1.46-1.24-2.24-2.25-.23-1 2.02-4.36 9.75-11.75 18.27-7.38 8.5-11.52 12.65-11.3 19.04.23 6.4 3.58 9.64 8.06 12.55 4.48 2.9 5.26 4.47 4.6 7.94-.68 3.48-4.7 4.7-8.18 4.82-3.47.12-7.83-.22-9.4.67-1.57.9-1.68 3.14-3.24 4.7-1.57 1.58-2.24 2.47-3.7 2.7-.5.08-.92.13-1.25.16-.32-16.85 6.2-24.37 6.2-24.37l-18.24-21.43c-.94.46-1.88.9-2.83 1.3-.12-.24-.3-.5-.53-.8-2.43-3.1-3.22-5.74-3.22-9.7.9.08 2.73.73 4.38.4 1.65-.33.4-2-.08-3.56-.5-1.58-1-7.05-.67-9.13.33-2.06.5-2.9.5-2.9s2.65 2.9 4.3 2.9c1.66 0 1.5-1.64 1.74-3.47.37-2.75 1.66-6.22 3.8-8.13 0 0 2.9 2 6.2 2 3.3 0 7.77-.92 11.33-4.32 3.56-3.4 3.47-4.23 3.47-4.23s6.62 2.32 11.66 2.57c5.05.25 10.42-.58 12.98-5.88 2.57-5.3-.74-10.2-1.32-11.04-.58-.83-2.23-1.5-2.23 0s.1 5.48-2.97 7.47c-3.06 2-5.45 1.9-8.35 1-2.9-.92-6.94-2.08-11.58-1.42-4.15.6-4.7.93-4.78 1 .2-.23 3.98-4.1 7.68-5.23 3.8-1.16 6.04.42 7.28 1.9s2.3 3.9 3.3.42.42-7.46-1.24-10.03c-1.65-2.56-5.2-4.22-8.93-3.8-3.7.4-5.03 1-5.03 1s-1.9-5.4-6.7-6.4c-5.85-1.2-12.3 1-17.36 3.82 0 0-3.96.9-8-.25-2.66-.76-5.32-2.37-6.83-3.4.47-1.54 1.38-4.4 1.38-4.4s1.15-.35 2.37-.8c1.2-.46.96-.87 1.1-1.88.16-1.02-2.27-2.77-2.27-2.77s-.35-3.03 3.64-5.1c3.98-2.1 3.54-1.75 3.54-1.75s2.34.44 3.3-.26c.95-.7.95-1.12.95-1.12s1.75-.58 2.4-1.65c.65-1.06.77-2.6.3-3.84-.47-1.23-1.07-1.47-.42-2.06.65-.6 1.24-2 1.3-3.02.06-1 .06-1.24.06-1.24s1.36-.47 1.3-2.54c-.07-2.07-1.2-2.9-1.84-3.08-.64-.18-1.05-.18-1.05-.18s-.12-1.24-1.18-2.9c-1.07-1.65-1.77-2.36-1.77-2.36s.76-.6.35-1.95-1.36-2.2-2.3-2.5c-.94-.28-1.95 0-1.95 0s-3.12-1.88-4.6-2.65c-1.47-.77-1.83-.94-1.83-.94s-.05-1.3-.58-2c-.54-.72-1.78-1.02-2.43-1.02-.65 0-1.36.36-1.36.36s-5.3-1.37-7.48-1.72c-2.18-.36-2.3-.53-2.3-.53s-4.72-2.25-6.54-2.6c-1.83-.36-2.36-.54-2.36-.54s1.9-2.3 2.02-4.97c.12-2.66-1.65-5.17-3.53-6.3-1.06-.63-1.63-.73-1.98-.95l-.03-1.82 3.53.36.3-5.7-3.46.43.53-3.43-7.23-.1.53 3.44-3.48-.23.3 5.62 3.65-.48-.35 2.12s-1.34.23-2.47 1.06c-1.9 1.13-3.5 3.32-3.37 5.98.12 2.66 1.7 5.03 1.7 5.03s-.46.1-2.3.46c-1.82.36-6.54 2.6-6.54 2.6s-.1.18-2.3.54c-2.18.35-7.5 1.7-7.5 1.7s-.7-.34-1.34-.34c-.65 0-1.9.3-2.42 1-.53.7-.6 2.02-.6 2.02l-1.82.94c-1.47.77-4.6 2.66-4.6 2.66s-1-.3-1.95 0c-.93.3-1.87 1.13-2.28 2.5-.42 1.35.35 1.94.35 1.94s-.7.7-1.77 2.36c-1.06 1.66-1.18 2.9-1.18 2.9s-.4 0-1.06.18c-.65.18-1.77 1-1.83 3.08-.06 2.06 1.3 2.54 1.3 2.54s0 .23.06 1.24c.05 1 .64 2.43 1.28 3.02.65.6.06.83-.4 2.07-.48 1.25-.36 2.8.3 3.85.63 1.07 2.4 1.64 2.4 1.64s0 .43.95 1.12c.95.7 3.3.26 3.3.26s-.44-.34 3.55 1.73 3.63 5.13 3.63 5.13-2.4 1.75-2.26 2.76c.15 1-.1 1.4 1.1 1.86 1.22.45 2.38.8 2.38.8s.9 2.87 1.37 4.42c-1.53 1.02-4.18 2.64-6.83 3.4-4.05 1.16-8.02.24-8.02.24-5.06-2.83-11.5-5.02-17.37-3.8-4.8 1-6.7 6.37-6.7 6.37s-1.32-.58-5.04-1c-3.72-.42-7.27 1.24-8.93 3.8-1.64 2.6-2.22 6.57-1.23 10.05 1 3.5 2.07 1.08 3.3-.4 1.25-1.5 3.48-3.08 7.3-1.92 3.68 1.13 7.45 5 7.67 5.2-.08-.05-.64-.38-4.8-.97-4.62-.67-8.67.5-11.57 1.4-2.9.92-5.3 1-8.35-1-3.06-1.98-2.97-5.96-2.97-7.45s-1.66-.82-2.24 0c-.56.84-3.87 5.73-1.3 11.04 2.55 5.3 7.93 6.14 12.97 5.9 5.05-.26 11.66-2.58 11.66-2.58s-.08.83 3.48 4.23 8.02 4.3 11.33 4.3c3.3 0 6.2-2 6.2-2 2.14 1.9 3.44 5.4 3.8 8.14.26 1.82.1 3.48 1.75 3.48s4.3-2.9 4.3-2.9.16.83.5 2.9-.17 7.54-.67 9.12c-.48 1.58-1.73 3.24-.07 3.57 1.65.34 3.47-.32 4.38-.4 0 3.97-.8 6.6-3.2 9.7-.23.27-.4.53-.52.76-.9-.4-1.8-.8-2.7-1.26l-18.26 21.44s6.56 7.55 6.2 24.5v-.13c-.33-.02-.77-.08-1.32-.16-1.46-.23-2.13-1.12-3.7-2.7-1.56-1.56-1.68-3.8-3.24-4.7-1.57-.9-5.93-.56-9.4-.67-3.47-.1-7.5-1.34-8.17-4.82-.68-3.47.1-5.04 4.58-7.95 4.47-2.92 7.83-6.17 8.05-12.55.23-6.4-3.9-10.54-11.3-19.05-7.38-8.52-10.74-16.25-11.75-18.27-1-2.02-1.45-1.23-2.23.23-.8 1.45-1.9 4.14-1.9 4.14s-2.47-1.45-8.5-12.44c-6.05-10.98-7.84-19.6-8.74-24.2-.47-3.1-1.7-1.57-2.6-.75-4.92-13.98-4.64-31.24-6-44.63 0 0-4.9 4.78-7.7 14.1-2.58 8.58-2.48 18.65-1.66 27.5.78 8.43 2.5 13.4 3.32 15.67 1.23 3.36-.56 1.34-.56 1.34s-4.25-7.4-7.16-21.4c-2.9-14-2.58-23.76-2.58-23.76s-1.7 1.4-3.67 5.34c-1.98 3.94-3.95 11.82-3.26 26.1.7 14.28 6 29.35 8.77 34.47 2.76 5.12.2 2.07-.78.6-1-1.48-5.9-9.17-8.38-15.96-2.46-6.8-7-20.8-7.28-22.95-.3-2.17-1.18-.8-2.07 1.1-.9 1.86-2.87 8.16-2.77 12.7.1 4.52.9 12.4 3.84 20.28 2.96 7.88 8.67 15.85 11.42 19.3 2.75 3.45.6 1.67-.7.7-1.28-1 .1.2-5.6-5.92-5.72-6.1-12.8-20.3-13.8-22.45-.98-2.17-1.97.2-2.07 1.37-.1 1.2-.9 8.08 3.45 19.8 4.33 11.72 14.97 20.78 20.6 24.62 5.6 3.84 1.56 1.97-1.3.3-2.85-1.68-8.56-5.62-12.1-8.57-3.55-2.96-9.86-10.74-11.63-12.12-1.77-1.38-2.17-1.77-2.07 3.75.1 5.5 4.83 14.5 10.82 20.5 5.98 5.98 13.75 8.7 16.13 9.65 2.37.94.4.5-2.08-.2-2.47-.7-6.68-1.9-11.23-4.43s-11.23-7.78-13.46-9.5c-2.23-1.74-1.93.64-1.24 3.66.7 3.02 2.37 8.62 10.98 15.6 8.6 7 20.83 10.56 24.34 11.55 3.5 1 1.04 1 1.04 1s-1.4-.2-8.5-1.78c-7.13-1.6-17.92-7.23-20.84-9.07-2.92-1.83-3.36-2.53-2.97 1.34.4 3.85 4.5 12.13 11.1 16 6.57 3.86 18.44 5.84 21.5 6 3.07.14 2.28.58.9.68-1.4.1-4.8.1-10.4-.54-4.57-.53-11.38-2.76-13.7-3.55-.25-1-.5-1.95-.6-2.54-.27-1.47-1.03-1.25-1.52-.92-.5.32-.76.6-2.4 1.4-1.63.84-1.68-.15-1.73-.64-.06-.5-.4-2.62-.44-3.7-.05-1.1-.65-1.16-1.4-.83-.78.33-4.42 1.86-5.78 2.46-1.36.6-.1 1.7.6 3s1.8 3.22 1.8 3.22-3.44.93-4.53 1.2c-1.08.28-.76 1.04-.5 1.8.3.77 1.97 4.6 2.4 5.68s1.42.44 1.42.44l3.42-2.02 1.2 4.58c-.06.07-1.6.37-3.32 1.58-1.73 1.23-1.3 2.8.78 3.4 2.08.6 4.5 1.65 7.2 6.52 2.67 4.87 3.37 13.64 5 27.46 1.66 13.82 10.5 20.86 11.7 21.73 1.22.88.53 1.57.53 1.57s-1.2 1.74-.68 4.44c.52 2.7 2.85 4.26 4.07 4.7 1.2.43.85 1.65.85 1.65s-.6 2.95 0 8.34c.6 5.38 5.03 11.46 6.24 12.5 1.2 1.04 1.3 1.57 1.12 2-.17.44-.96.1-2.43 1.22-1.48 1.13-3.13 2.7-4.16 4.6-1.04 1.92-.7 3.05-.35 5.65.33 2.6 4.15 4.96 4.15 4.96s-.7.17-.87 2.08c-.17 1.93 1.2 4.1 2.95 5.5 1.73 1.38 5.02 2.07 5.02 2.07l.44 2.78c.16 1.13 2.33 2.26 3.7 3.04 1.4.77 4.08.34 5.2-.18 1.13-.52 1.9.1 2.6 1.2.7 1.15.44 5.5.44 7.23 0 1.74-1.04 3.56-.43 4.43.6.87 2.26.26 3.9-.7 1.65-.95 2.08-.26 3.56.7 1.47.96 3.8 1.83 4.42 1.74.6-.1.34-1.65.34-2.96s.24-4.25.84-4.68c.3-.2 2.84-.4 4.8-1.23.9-.38 2.07-.78 2.16-1.65.1-.86-1.2-.86-4.07-2.34-2.86-1.48-3.38-2.35-5.2-3.57-1.82-1.22-.95-1.66-.95-2.18 0-.5.86-1.13 1.2-1.82.36-.7.18-2.26.18-2.26s1.48-1.48 2.17-2.26c.7-.78 1.56-2 2.5-2.78s2.44-4.52 3.4-5.74c.94-1.2 3.1-2.52 4.4-4.17 1.3-1.66 4.77-4.35 6.77-5.66 2-1.3 7.36-3.82 7.36-3.82s-.1 3.2 1.3 4.78c1.4 1.56 3.2-1.22 9.36-5.56 6.15-4.35 10.83-5.9 10.83-5.9s1.3 1.98 2.94 4.07c1.66 2.1 3.13-.08 10.67-10.5 5.94-8.23 13.78-15.75 16.82-18.56l1.66.75c-.15.4-.3.85-.46 1.34-.7 2.16-1.8 3.55-3.28 6.57-1.47 3.03-3.7 3.72-6.3 7.78-2.6 4.06-2.94 6.82-3.2 10.96-.26 4.15 2.07 5 2.07 5s-3.8 3.72-4.93 6.48c-1.12 2.77-1.73 8.38-1.73 8.38s-.6.26-1.98 3.1c-1.38 2.86-3.9 3.3-7.5 6.9-3.64 3.64-7.7 5.2-9.6 6.3-1.9 1.14-1.38 2.26-.86 3.73.52 1.46 3.1 2.93 6.13 4.05 3.02 1.13 4.06.7 6.13.6 2.07-.08.43 1.56-.43 2.42-.86.87-1.98 3.9-1.8 7.26.16 3.37 2.67 2.6 5.77 2.07 3.1-.52 6.74-2.07 6.74-2.07l-.35.95c-.35.96-.53 1.65-.53 4.33 0 2.67.44 3.97 1.2 4.65.8.7 2.35-.77 3.47-1.12 1.12-.35 3.02-1.46 5.78-2.07 2.76-.6 3.8-1.82 3.8-1.82s-.7.86-.86 2.76c-.18 1.9-.1 4.75.34 6.4.43 1.63 1.64 3.62 3.54 5.34 1.9 1.73 2.33.95 3.7-1.2 1.4-2.16 4.24-4.93 4.24-4.93s.17.7 2.07 6.82c1.9 6.13 8.12 11.23 8.12 11.23s6.2-5.1 8.1-11.23c1.9-6.13 2.08-6.82 2.08-6.82s2.86 2.77 4.24 4.93c1.37 2.15 1.8 2.93 3.7 1.2 1.9-1.72 3.1-3.7 3.54-5.35.43-1.64.52-4.5.35-6.4-.2-1.9-.88-2.75-.88-2.75s1.04 1.2 3.8 1.8c2.76.62 4.66 1.74 5.78 2.08 1.13.35 2.68 1.82 3.46 1.12.77-.68 1.2-1.98 1.2-4.65 0-2.68-.17-3.37-.5-4.32l-.36-.94s3.63 1.55 6.74 2.07c3.1.5 5.6 1.3 5.78-2.07.17-3.37-.95-6.4-1.8-7.26-.88-.86-2.5-2.5-.44-2.4 2.07.07 3.1.5 6.13-.62s5.62-2.6 6.14-4.05c.52-1.47 1.04-2.6-.86-3.72-1.9-1.1-5.96-2.66-9.6-6.3-3.6-3.6-6.12-4.04-7.5-6.9-1.38-2.84-1.98-3.1-1.98-3.1s-.6-5.6-1.73-8.38c-1.12-2.76-4.92-6.47-4.92-6.47s2.33-.86 2.07-5c-.26-4.15-.6-6.9-3.2-10.97-2.6-4.06-4.83-4.75-6.3-7.77-1.47-3-2.6-4.4-3.28-6.56l-.44-1.3 2.23-.98c3.02 2.8 10.88 10.33 16.85 18.6 7.54 10.42 9 12.6 10.66 10.5 1.64-2.08 2.94-4.08 2.94-4.08s4.68 1.56 10.83 5.9c6.16 4.35 7.98 7.13 9.37 5.57.73-.82.9-2.2.98-3.24 0 0 3.53 1.04 7.58 2.46 2.43.85 5.13 1.92 7.13 2.77 5.33 2.26 5.9 3.42 10.15 6.77 4.24 3.34 10.28 3.02 16 1.28 5.7-1.73 20.94-6.76 27.04-9.4 6.1-2.65 10.47-4.96 11.1-6.2.65-1.2 1.35-4.63 1.35-5.85 0-1.22-1.35-3.02-1.8-3.35-.45-.32-.26-1.3-.13-2.06.13-.77-.26-3.1-1.22-4.12-.96-1.03-.83-1.42-.7-4.38.27-6.3-4.22-14.2-10.57-16.73 0 0-.17-.74-.7-1.17-.5-.43-1.36-.82-1.36-.82s.13-3.6.1-4.38c-.05-.77.3-.68.72-.47.43.2 1.1 1.07 2.14 1.33 1.03.26 1.67-.47 1.9-1.63.2-1.16 1.06-3.5 1.45-4.65.38-1.16-.1-1.33-.56-1.46-.47-.13-2.02-.3-2.75-.47-.73-.18-.73-.22-.55-.6.17-.4.42-1 1.37-2.46.94-1.45.08-1.5-.82-1.8-.9-.3-4.97-1.54-6.1-1.7-1.1-.2-1.36.76-1.36 1.23 0 .48.04 2.54.1 3.32.03.77-.7.55-1.13.34-.43-.22-1.4-.83-2.18-1.43-.78-.6-1.33-.04-1.64.82-.3.85-1.23 4.38-1.53 5.4-.3 1.04-.2 1.86.22 2.03.42.17 2.43 0 3.63 0 1.2 0 .5.7.5.7s-1.27 2.1-1.7 2.9c-.43.83-1.16.96-2.14.96l-2.65-.02s-6.6.25-11.44 3.85-6.2 6.6-6.96 8.33c-.74 1.74-1.6 1.37-2.36 2-.74.6-2.86 2.85-2.86 4.22 0 1.37.5 2.1-1.6 3.48-2.13 1.37-3.87 7.34-1 10.45 2.85 3.1 3.97 6.22 4.84 7.7.87 1.5 0 2.12-.74 2.12-.75 0-2.3-1.26-3.6-2.23-1.3-.98-7.88-6.1-10.7-8.22-2.83-2.1-.75-1.86-.75-1.86s.72.06 2.37-.63c1.64-.7 1.9-1.57.26-2.1-1.65-.52-4.85-2.34-5.72-3.2-.87-.88-1.3-1.84.35-2.7 1.64-.87 5.28-3.22 2.43-4-2.87-.8-6.24-1.4-9.02-2.18-2.77-.78-3.03-1.56-3.03-1.56l1.83-2.6s1.47-2.1-.26-2.35c-1.73-.26-5.9-.78-9.7-2.43-7.62-3.3-12.4-8.9-14.15-15.72l.12-.16c1.42 2.8 4.74 8.06 9.73 8.22 6.82.23 7.6-1.9 6.04-4.14-1.56-2.24-3.35-4.26-3.8-4.93-.44-.68-.56-1.57 1.24.1 1.8 1.7 5.2 7.4 15.5 6.73 10.28-.67 10.23-2.7 10.23-3.25 0-1.97-2.1-2.3-3.33-3.52-.65-.64-1.04-1.58 1.04-.8 2.08.8 7.17 1.74 14.1.26 2.73-.6 9.98-3.75 10.68-7.43 0 0-4.6-.25-7.8-1.64-3.23-1.4-5.16-2.53-1.74-1.84 3.4.7 10.04 2.08 15.88.1 3.4-1.16 7.82-3.92 7.8-8.97 0 0-6.32-1.35-8.64-2.2-2.33-.83-3.07-1.47-3.07-1.47s9.04 2.87 17.25-1.3c8.22-4.15 8.56-9.85 8.56-11.2 0-1.33-.18-1.73-.18-1.73s-7.47 1.84-13.06 1.8c-5.6-.06-7.33-.56-7.33-.56s15.64-.44 23.5-5.25c7.87-4.8 8.32-14.28 8.32-14.28s-8.9 3.17-14.5 3.82c-5.6.64-9 .64-10.4.54-1.38-.1-2.16-.54.9-.7 3.07-.14 14.94-2.12 21.52-6 6.58-3.85 10.7-12.13 11.1-16 .38-3.85-.06-3.16-2.98-1.33-2.93 1.84-13.72 7.48-20.84 9.07-7.12 1.6-8.5 1.78-8.5 1.78s-2.5 0 1.02-1zM149.14 193.1l-3.16 1.8s-1.25-2.57-1.57-3.33c-.32-.76-.16-1.1.28-1.1.43 0 1.74-.37 2.77-.48l.4-.08c.35 1 .8 2.05 1.4 3.12l-.1.06zm95.95 56.18c-1.9 3.56-7.1 7.3-10.92 8.95-3.8 1.65-7.97 2.17-9.7 2.43-1.74.26-.26 2.35-.26 2.35l1.8 2.62s-.24.78-3.02 1.56c-2.77.78-6.15 1.4-9 2.17-2.87.78.77 3.13 2.42 4 1.64.87 1.2 1.83.34 2.7-.86.87-4.07 2.7-5.7 3.2-1.66.53-1.4 1.4.25 2.1 1.65.7 6.16 1.56 6.16 1.56s-.1.18-2.86 2.27c-2.77 2.1-7.63 3.48-10.83 3.65-3.2.17-8.27.38-14.7.1-6.43-.3-7.17-.45-7.17-.45s-.22-2.15-.66-5.33c-.44-3.17-2.36-7.68-3.84-9.74-1.48-2.07-4.58-6.2-4.58-6.2s.07-.9.3-1.93c.22-1.03.07-2.14-.68-4.1-.75-1.95-4.5-4.8-4.5-4.8s-.16-2.1-.16-4.06c0-1.94-1.35-9.6-2.55-13.2-1.2-3.6-7.06-13.07-9.77-17.57-2.7-4.5-4.3-11.18-5.12-16.37-.82-5.2-.5-6.88-.22-8.24.12-.6.38-1.14.62-1.63 1.1 1.43 2.53 2.78 4.34 3.9 7.87 4.8 23.5 5.25 23.5 5.25s-1.73.5-7.32.54c-5.6.04-13.06-1.8-13.06-1.8s-.2.4-.2 1.75c0 1.33.35 7.03 8.56 11.2 8.2 4.15 17.27 1.28 17.27 1.28s-.75.64-3.07 1.5c-2.33.83-8.66 2.17-8.66 2.17 0 5.05 4.4 7.8 7.82 8.96 5.84 1.98 12.46.6 15.88-.1 3.4-.7 1.48.45-1.73 1.84-3.22 1.38-7.82 1.63-7.82 1.63.7 3.68 7.96 6.85 10.7 7.43 6.9 1.5 12 .55 14.1-.24 2.07-.8 1.67.14 1.03.8-1.24 1.23-3.34 1.54-3.34 3.52 0 .56-.05 2.58 10.25 3.25 10.28.66 13.7-5.05 15.48-6.74 1.8-1.68 1.68-.78 1.23-.1-.44.66-2.23 2.68-3.8 4.92-1.56 2.24-.78 4.37 6.05 4.15 5.02-.17 8.35-5.5 9.75-8.3l.1.13.27.37c-.64 1.66-1.75 4.37-2.98 6.65zM328.1 26.6c-.93-1.78-1.42-2.6-1.42-2.6s3.88 1.8 6.18 4.42c2.3 2.6 2.26 3.98 2.6 5.27.35 1.27 0 3.63-.34 5.84-.34 2.22-.34 3.55.1 4.34.44.8.84 1.18.84 1.18s-1.73.44-3.34 1.08c-1.62.64-3.73 1.23-4.9.25-1.2-1-1.48-1.7-.75-2.33.73-.64 3.48-1.42 3.82-6.15.34-4.73-1.86-9.55-2.8-11.32zm-21.14 12.85c.88-2.24 1.25-4.38.57-8.98-.57-3.87-1.32-7.18-1.5-11.34 0 0 2.86.63 6.97 4.4 4.1 3.75 5.05 7.62 5.05 9.5s-1 4.18-1.14 6c-.16 1.84.52 3.46.52 3.46s-1.52.6-2.87 1.55c-1.35.94-2.3 1.52-4.37 1.4-2.08-.1-3.33-1.03-4.53-1.66-1.2-.64-1.97-.74-1.97-.74s2.4-1.36 3.28-3.6zm-20.06-15.93c4.1-3.76 6.98-4.4 6.98-4.4-.2 4.17-.94 7.48-1.5 11.35-.7 4.6-.32 6.74.56 8.98.9 2.25 3.28 3.6 3.28 3.6s-.78.1-1.98.74c-1.2.62-2.45 1.56-4.53 1.66-2.08.1-3.02-.47-4.37-1.4-1.36-.95-2.87-1.57-2.87-1.57s.67-1.63.5-3.46c-.15-1.83-1.13-4.13-1.13-6 0-1.9.94-5.76 5.05-9.52zM272.08 46.4c-1.18.97-3.28.38-4.9-.26-1.63-.64-3.34-1.08-3.34-1.08s.4-.4.83-1.18c.44-.8.44-2.12.1-4.34-.35-2.2-.7-4.57-.35-5.85.35-1.3.3-2.67 2.6-5.28 2.3-2.6 6.18-4.43 6.18-4.43s-.5.82-1.43 2.6c-.93 1.77-3.14 6.6-2.8 11.32.35 4.73 3.1 5.5 3.83 6.16.74.63.45 1.32-.73 2.3zm54.82 39.5c-4.05 2.24-6.36 1.75-6.2 3.4.17 1.66 3.8 2.9 3.8 2.9s-3.72 4-6.6 5.8c-2.9 1.84-6.3 3-6.3 3s-1.15.17-.5 2c.67 1.82 1.83 3.06 2.73 3.56.9.5 1.4.66 1.4.66s-5.03 5.4-7.26 7.13-3.48 2.32-5.3 3.07c-1.82.75-.9 3.73-.5 5.06.42 1.33 2 3.15 2.9 3.4.9.25 1.24.9.08 2.74-.86 1.36-3.75 4.98-5.12 6.98l-.1.04c-1.35-1.98-4.28-5.65-5.15-7.02-1.16-1.83-.83-2.5.08-2.74.9-.25 2.5-2.07 2.9-3.4.4-1.33 1.32-4.3-.5-5.06-1.82-.75-3.06-1.32-5.3-3.07-2.23-1.74-7.27-7.13-7.27-7.13s.5-.17 1.4-.66c.9-.5 2.07-1.74 2.73-3.57.66-1.83-.5-2-.5-2s-3.4-1.16-6.28-3c-2.9-1.8-6.62-5.8-6.62-5.8s3.64-1.24 3.8-2.9c.17-1.66-2.15-1.16-6.2-3.4s-5.37-5.05-5.37-5.05 4.7-1.58 7.03-6.3c.8-1.68 1-3.2.92-4.5l.17.07c7.52 2.45 16.32 3.43 24.18 3.43 7.85 0 16.65-.98 24.16-3.43l.18-.06c-.1 1.28.1 2.8.92 4.48 2.32 4.73 7.04 6.3 7.04 6.3s-1.32 2.83-5.37 5.06z"/><path fill="#c52126" d="M243.74 92.4c-1.6-.94-5.87-2.77-10.42-3.15-4.55-.4-8.06.3-11.84 1.32-2.7.73-4.9.84-7.07.26-3.24-.87-5.77-3.8-6.63-7.4 0 0-3 3.84.07 8.02 1.48 2 3.4 3.27 5.36 3.66 6.37 1.3 12.62-2.6 17.93-2.93 5.1-.34 9.1 2.9 9.1 2.9s1.2 1 2.9 0c1.7-.98 2.2-1.74.6-2.68zM392.17 83.42c-.86 3.6-3.4 6.54-6.64 7.4-2.17.6-4.36.48-7.07-.26-3.78-1.02-7.3-1.7-11.84-1.32-4.55.4-8.83 2.22-10.42 3.15-1.6.93-1.1 1.68.6 2.67 1.7 1 2.9 0 2.9 0s4-3.24 9.1-2.9c5.32.33 11.57 4.22 17.94 2.94 1.96-.4 3.88-1.65 5.36-3.66 3.07-4.17.07-8.02.07-8.02z"/><path fill="#d4af3a" d="M351.5 177.2c0-12.72 5.86-20.77 5.86-20.77l-15.92-18.24c-15.17 5.85-29.06 6.2-41.43-.1-12.37 6.3-26.26 5.95-41.42.1l-15.93 18.23s5.85 8.05 5.85 20.77c0 12.72-2.46 22.16-3.9 28.32-1.43 6.15-2.66 17.64.62 25.85 3.28 8.2 6.77 15.4 20.93 21.34 14.16 5.96 21.55 9.04 26.47 13.15 4.92 4.1 7.4 7.38 7.4 7.38s2.45-3.3 7.37-7.4c4.92-4.1 12.3-7.17 26.46-13.12 14.16-5.94 17.65-13.12 20.93-21.33 3.27-8.2 2.04-19.7.6-25.85-1.43-6.15-3.9-15.6-3.9-28.3zM229.38 278.75s-5.14 2.46-6.77 2.9c-1.62.44-2 .44-2 .44s-3.5 3.2-6.08 4.7c-2.7 1.6-5.8 2.74-8.9 3.1-4.02.42-15.05.3-20 .1-4.96-.18-8.03 1-10.16 3.4-2.13 2.4-2.63 5.85.06 8.5s5.7 1.32 6.7-.32c1-1.64.5-3.7.07-4.65-.44-.95.87-1.26 2.25-1.32 1.38-.06 3.7.13 5.83.45 2.14.3 5.9 1.57 7.53 2.45 1.64.88.7 1-.43.82-1.13-.2-2.38-.63-4.4-1.38-2-.76-3.7-1.14-4.94-1.2-1.25-.06-.82.63-.57 1.07.25.45.94 1.52 1.13 2.02.18.5-.38 2.4-.38 2.4l.62 1.18s.75-1.2 1-1.82c.25-.63-.06-1.82.2-2.4.24-.56 1.3-.56 2.12.4.82.93 1.76 2.07 2.2 4.45.44 2.4-.38 4.1-.38 4.1s1 .8 1.2 1.37c.18.57-.26 2.83-.26 2.83s.7.44 1.32-.88c.63-1.32 1.38-3.64 1.57-4.46.2-.83.76-2.34 1.76-1.2s1.7 2.5 1.88 3.2c.2.7.2 1.26.2 1.26s2.25-2.2 3-3.46c.75-1.26 2.32-3.15 4.45-4.9 2.12-1.77 5.82-5.3 7.64-6.48 1.82-1.2 6.46-3.7 7.9-4.6 1.44-.87 1.7-.93 1.94-3.4.25-2.45 1.45-4.64 2-6.34.58-1.7.7-2.33.7-2.33zM225.37 276.87s-.63-.06-1.5-.2c-.88-.12-2.76-.74-3.33-1-.56-.25-1.44-.3-2 .32-.57.62-5.14 3.32-5.14 3.32h7.58c2.63 0 4.4-2.45 4.4-2.45z"/><path fill="#d4af3a" d="M246.74 275.56v-.76l-1-2.17s-1.2.74-2.34 1.93c-1.48 1.53-3.07 3.7-3.78 4.6-1.27 1.62-3.03 3.14-1.52.55 1.52-2.57 2.02-3.68 3.23-5.4 1.22-1.73 2.13-2.5 1.98-2.6-.15-.1-1.1-.24-4.3-.65-3.17-.4-5.14-1.62-6.6-2.48-1.47-.86-4.1-2.28-4.1-2.28s-5.4 2.27-7.42 2.78c-2.02.5-3.23.8-1.26 1.77 1.97.96 3.63 1.27 4.6 1.87.95.6 3.93 1.57 5.75 1.57 1.82 0 4.9.04 3.7 1.3-1.23 1.28-2.6 3.7-3.9 7.4-1.32 3.7-1.37 7-1.37 8.62s.2 3.24.2 3.24 2.23-2.48 8.2-6.23c5.95-3.75 8.17-5.02 9.28-5.52 1.1-.5 1.67-.5 1.46-1.92-.2-1.4-.8-4.9-.8-5.62z"/><path fill="#d4af3a" d="M269.5 257.46l-1.1-.5c-.1.02-.2.05-.28.1-.7.35-4.33 2.8-5.8 5.17-1.47 2.38-2.94 2.6-1.33 0 1.6-2.6 2.8-4.06 4.04-5.18.5-.43.92-.8 1.27-1.06-2.9-1.42-6.1-3.13-9.16-5.27-.4.8-1.16 2.2-2.03 3.1-1.24 1.34-4.04 2.46-4.04 2.46s2.23-2.32 3-4.07c.5-1.1.82-2.3.98-3.04-2.14-1.67-4.2-3.57-6.02-5.75-.37 1.5-1.58 5.2-5.16 9.2-4.7 5.25-14.06 7.9-14.06 7.9s-3.28.35-.63 1.05c2.66.7 4.55 1.9 9.72.98 5.17-.9 5.52-1.12 6.22-1.32.7-.22 2.58-.07 0 .9-2.6.98-8.6 1.9-10.9 1.68-2.32-.2-5.47-.7-2.18 1.05s4.7 2.44 6.7 2.44c2.04 0 2.88.63 4.84.63s2.5-.35 3.9-.63 2.32.2 2.32.77c0 .57-1.9 2.1-1.82 5.95.07 3.85.35 6.37.7 7.48.35 1.12 1.2 2.94 1.75 4 .56 1.04.77 2.08 1.33-.15.56-2.24 1.82-5.46 2.3-7.62.5-2.17.78-2.24 1-3.36.2-1.12 1.38-1.96.82.07-.56 2.03-1.2 4.62-1.6 6.43-.43 1.82-1.4 5.18.27 2.52 1.68-2.65 7.97-9.72 9.02-10.97 1.05-1.26 1.9-2.45 2.66-3.5.77-1.05 2.94-2.45 4-4 .93-1.38 3.7-4.1 4.9-5.06-1.77-.76-3.65-1.55-5.63-2.44zM147.17 186.6c-.04-.4-.88-1.88-1.1-2.63-.2-.75-.95-.3-.95-.3s-1.63.93-2.84 1.26c-1.2.34-1.38-.12-1.5-.75-.13-.63-.42-2.6-.63-3.98-.2-1.38-.5-1.3-1-1.1-.5.22-2 .76-3.06 1.23-1.05.45-.72.96-.38 1.54.33.6 1.54 3.06 2.1 3.95.53.87.03 1.25-.6 1.55-.63.3-1.55.42-2.8.83-1.25.42-1.17.72-1.05 1.14.13.42.97 2.14 1.43 2.93.45.8.87.25.87.25s1.34-1.2 2.47-1.76c1.13-.54 1.2-.38 1.5.46.3.84 1.6 5.25 1.84 6.08.25.84.67.76 1.26.5.58-.24 1.37-.37 2.04-.58.67-.2.92-1.55.92-1.55s-2.46-4.44-3.13-5.58c-.67-1.14 0-1.4.5-1.47.5-.1 1.96-.3 3.22-.6 1.25-.3.9-1 .87-1.42zM175.02 307.3c-.2-1.07 0-2.14-.82-2.96-.8-.82-1.8-2.45-2.2-3.77-.36-1.32.32-1.95.2-2.7-.13-.76-1.13-.76-2.13.06-1 .82-2.32 1.57-2.32 3.96 0 2.38.88 5.2 4.2 6.2 3.32 1.02 3.26.27 3.07-.8zM178.4 306.17s-.68-.44-1 .2c-.3.62-.24.93.63 2.32.88 1.37 1.45 1.7 2.45 2.3 1 .64.3-.6.2-1-.14-.37 0-.87-.26-1.2-.25-.3-.38-.68-.38-1.68 0-1-1.63-.95-1.63-.95z"/><path fill="#d4af3a" d="M182.48 317.5c.63-.96 1.2-1.2 2.7-1.9s4.26-1.06 5.2-1.13c.94-.06 3.07-1.88 2.76-3.77-.32-1.9-1.7-2.64-2.9-2.9-1.18-.25-2.25-.25-2.62.32-.38.57-1.07 1.32-2.38 1.76-1.32.44-1.5.88-2.32 1.13-.82.26-.2.77-.88 1.33-.7.57-1.63 0-2.7-.3-1.06-.33-1.13-.52-2.32-.58l-4.32-.25s-.13-.06-.82-.06c-.7 0-.75.12-1.06.88-.3.75.06 2.64.8 3.58.77.94 3.2 1.38 4.84 1.9 1.63.5 2.45.68 3.83.93 1.37.25 1.55 0 2.18-.94zM197.72 319c1.32-.88.56-2.4.25-3.33-.3-.95-2.13-1.13-3.07-1.13s-1.44 0-1.95.43-1.2 1.07-2.57 1.52c-1.37.42-2.44.93-4.32 1.68-1.88.75-2.45 2-3.26 2.52-.82.5-2.38 0-2.38 0s-1.13-.32-1.5 0c-.4.3 0 .94.74 1.76.76.82 2.2.75 3.83 1.26 1.62.5 1.93.12 2.56-.32.62-.44 1.13-1.38 2.26-2.07 1.12-.7 3.57-.82 4.76-.94 1.2-.14 3.32-.52 4.64-1.4zM197.72 313.28c.56.5 1.2 1.2 1.7.38s1.3-2.52.74-3.52-1.25-1.9-1.25-1.9-.93 2.9-1.37 3.66c-.44.75-.37.88.2 1.38zM192.64 304.6c0-1.64-1.13-3.65-1.13-3.65s-.37 1.5-1.05 2.83c-.7 1.32-1.38 2-1.38 2s1.63.45 2.25.45c.63 0 1.32 0 1.32-1.63zM183.24 308.06c1.75-.38 2.7-1.07 3.45-1.7.74-.63 1.18-2.33.68-3.2-.5-.9-1.76-1.83-2.26-1.83h-.94s-.5 1.64-1.2 2.45c-.68.82-1.5 1.4-1.43 2.46.06 1.07-.06 2.2 1.7 1.82zM186.8 300.07c.07-.82-.24-1.7-.8-2.26l-.95-.93s-.12 1.25-.25 1.94c-.12.7-.18.83-.18.83s.5.5.94.7c.43.18 1.2.56 1.25-.26zM165.13 255.47s2.07 0 1.2-7.4c-.9-7.42-4.76-14.43-7.82-19.27-3.05-4.84-6.2-12.45-7.6-16.5-1.38-4.05-2.3-9.6-2.3-12.5 0-2.9 1.23-4.4 1.23-4.4s.54-.8.04-1.3-1.28-.03-2.07.76c-.78.78-1.6 2.24-1.94 3.27-.33 1.04-.33 1.4-.33 1.4s-1.57-.36-4.1-.15c-2.52.2-3.72.42-3.8.95-.1.54.33.96 2.15 1.75 1.82.78 2.98 1.12 3.9 2.2.9 1.07 3.22 6.5 3.94 9.1.7 2.63 2.23 9.72 2.84 15.3.62 5.56 2.5 12.3 5.13 17.94.85 1.85 5.56 10.6 9.53 8.85zM169.72 268.52c-1.72.96-1.65 7.97-.9 11.6.77 3.64 4.33 8.16 5.4 9.38 1.1 1.2 1.35 1.2 1.92.9.57-.33.83-.33.83-.33s1.52-.5 2.67-1.4c1.14-.9.7-3.13.5-5.1-.2-1.98-1.7-5.94-4.5-10.52-2.8-4.6-4.2-5.5-5.92-4.53zM171.62 262.84c0-2.3-1.98-4.02-4.26-4.02-1.08 0-2.03.28-2.62.8-2.32 2.1-.92 7.3 2.42 7.3 1.2 0 2.63-.2 3.5-1.04.78-.73.96-1.97.96-3.04zM204.77 328.73c-.9-.16-1.45-.53-2.8-1.45-1.34-.9-3.5-2.8-3.87-3.7-.38-.93-.38-.98-1.67-.55-1.3.43-3.12.38-4.52.43-1.4.06.17 1.6 1.14 3.07.97 1.45.64 6.35.64 6.35s0 .43-.2 1.13c-.23.7-.06 1.2.3 1.35.4.17.6-.16 1.57-1.3.97-1.12 2.75-4.07 2.75-4.07s.27.05 1.77.42c1.5.38 3.93.17 5.17-.2 1.24-.4.64-1.3-.27-1.47z"/><path fill="#d4af3a" d="M199.02 332.5c-.65-.1-.9-.16-1.24.26-.32.44-.6 1.25-.75 1.67-.16.44-.1.8.27 1.14.38.32.92.7.92.7s.53.6 1.07.86c.53.27.64-.54.64-1.13 0-.6.32-1.67.32-2.37 0-.7-.6-1.02-1.24-1.13zM182.56 96.05c.17 3.86 4.43 11.23 6.86 15.17 2.43 3.94 3.1 5.52 2.68 5.78-.42.25-1.43-1.76-2.77-3.52-1.33-1.76-3.93-5.86-6.1-8.96s-5.35-10.47-5.77-11.14c-.42-.67-.6-1.1-1.67-.26-1.1.84-3.2 8.97-.68 14.5 2.5 5.53 6.27 9.54 7.86 11.47 1.6 1.92 3.68 4.93 3.34 5.2-.33.24-.92-.52-2.84-2.53-1.92-2-5.1-5.44-7.2-7.96-1.7-2.03-4-6.17-4.8-7.65-.3-.56-.7-.4-1-.12-.68.7-1.78 2.3-1.3 6.7.67 6.1 3.85 9.63 6.7 12.73 2.83 3.1 5.68 5.7 5.26 6.1-.42.43-3.35-2.17-5.35-4.1-2.02-1.92-6.96-6.7-8.04-8.03-1.1-1.34-2.68-.68-2.6 4.6.1 5.28 5.94 10.64 8.37 13.57 2.42 2.93 5.43 4.7 5.18 5.28-.24.6-2.66-.92-4.25-2-1.6-1.1-7.53-4.95-8.7-5.8-1.17-.83-1.76.76-.25 5.8 1.5 5 5.86 9.03 8.45 10.87 2.6 1.85 6.77 4.1 6.52 4.7-.25.58-2-.17-4.43-1.35-2.43-1.17-5.35-2.26-7.45-2.84-2.1-.6-2.1.92-2.1.92s-.42 4.27 2.68 7.7 6.6 4.78 9.95 5.36c3.35.6 3.85.76 3.76 1.26-.1.5-.42.6-1.18.6-.75 0-3.84.32-6.7.32s-4.34.67-4.34 1.93-.08 2.93 4.2 5.78c4.25 2.85 9.02 3.27 11.03 3.7 2 .4 2.1.57 1.68 1.16-.42.57-1.34.5-4.52.83-3.18.33-5.1 1.6-5.52 2.42-.42.84.25 3.36 2.85 5.1 2.58 1.77 5.92 2.36 10.94 2.03 5.02-.34 6.28-.42 6.44.42.17.83-1.5 1.08-4 1.5-2.52.42-4.45.42-5.87 1.6-1.4 1.17-.32 3.6 2.1 5.36 2.43 1.75 8.45 1.75 10.96 1.6 2.5-.18 6.36-1.1 6.6-.43.26.67-1.83 1.68-4.42 2.6-2.6.92-3.35 1.5-3.85 2.6-.5 1.08-.1 2.1 3 3.26 3.1 1.16 7.6 1.16 9.95.07 2.35-1.1 3.6-1.5 4.02-1.1.42.44 0 .85-.5 1.44-.5.6-2.5 2.2-5.1 2.86-2.6.67-2.85.67-3.77 2.76-.92 2.1 1.42 3.77 6.1 3.94 4.7.17 10.96-1.67 12.97-2.85 2-1.16 2.76-1.4 3.1-1 .33.43.25.68-.76 1.43-1 .76-4.17 3.02-5.76 3.44-1.6.4-1.76 1.6-1.76 2.67 0 1.1-.4 3.27 3.77 4.28 4.18 1 9.1.25 13.63-2.93 1.46-1.04 2.3-1.88 2.78-2.62-.37-4.27-.17-7.2.34-9.93-.9-.1-2.57-.34-4.3-1.04-2.5-1-3.5-3.33-4.1-4.6-.58-1.25-1.4-1.25-2.42-.92-1 .34-2 .76-3.43.68-1.42-.08-4.43-.84-6.6-3.44-2.18-2.6-1.76-5.1-1.84-6.37-.08-1.25-2.08-.33-3.1-.33-1 0-3.92-.42-6.6-2.26-2.67-1.84-2.67-4.36-2.92-5.36s-1.34-1.68-2.18-2c-.83-.35-2.17-.68-4-2.2-1.85-1.5-2.52-4.43-2.6-5.43-.1-1-1.18-1.1-4.94-3.02s-3.43-5.95-3.26-7.54c.17-1.58 1.92-2.92 1.92-3.5 0-.6-1.25-.76-2.5-1.52-1.26-.75-4.44-2-4.52-6.7-.1-4.7 3-5.2 3-5.2s-.58-.24-1.83-1c-1.26-.75-4.68-3.1-4.68-5.86 0-2.76 1.24-4.02 2.16-4.7.92-.66 3.43-1.33 3.43-1.33s-1.6-1.02-2.27-3.2c-.67-2.17-.92-4.85.67-6.78 1.6-1.92 4.26-1.92 5.7-1.92 1.4 0 2.66.75 3.16.33s.6-.75.1-1.84c-.5-1.1-.6-3.78-.18-4.7.42-.92.5-2.76 4.1-3.94 3.6-1.17 7.36 1.26 8.53 1.93 1.18.66.68-.93.68-2.1s-2.43-4.1-5.2-8.3c-2.75-4.18-4-6.36-7.1-12.73-3.1-6.36-5.1-14.57-5.52-16.67-.42-2.1-1.25-1.1-1.25-1.1s-.83.35-2.75 5.2c-1.92 4.86-2.26 9.3-2.1 13.15z"/><path fill="#d4af3a" d="M245.66 181.72c-2.16-.1-4.96-1.3-7.1-4.42-2.16-3.13-5.4-3.9-11-3.78-5.6.1-8.2-2.6-9.6-6.47-1.4-3.9.23-8.3 5.94-11.12 5.7-2.8 8.3-5.93 8.5-10.8.22-4.84-5.7-10.88-11.63-17.68-5.92-6.8-10.55-16.4-10.55-16.4s-1.73 2.26-1.73 4.53.85 4.64 0 5.28c-.87.65-1.2-.97-4.64-2.48-3.45-1.5-6.25-1.72-8.4.76s0 6.8 1.94 8.85c1.94 2.04 3.55 3.55 3 4.3-.52.76-3.43-1.18-4.4-1.83-.97-.65-3.24-3.13-6.58-2.8s-4.52 1.3-4.84 4.1c-.33 2.8 3 5.28 5.17 6.36 2.15 1.08 3 2.05 2.47 2.48-.53.44-1.07 0-2.04-.3-.97-.34-3.67-.66-5.4 0-1.7.64-4.52 3-1.93 5.92 2.6 2.92 7.97 4 9.05 4.2 1.08.22 1.62-.1 1.72.76.1.87-2.26.87-5.17.98s-3.77 2.9-3.34 5.07c.44 2.16 5.3 4.53 7.98 4.96 2.7.42 3.67 0 3.88.74.22.76-.32 1.08-1.83 1.52-1.5.42-4.42.75-4.96 3.12-.53 2.38-.64 3.46 1.62 5.5 2.26 2.06 5.92 1.73 7 1.52 1.07-.2 2.37-1.4 3.44-.32 1.08 1.07-.97 1.94-2.8 3.23-1.83 1.3-1.72 3.8 1.4 5.52 3.12 1.73 6.25 1.07 7.54.64 1.3-.42 3.02-2.48 3.88-1.18.86 1.3-2.7 1.72-4.2 3.56-1.5 1.83-.97 4.85 2.04 6.68 3.02 1.84 7.98.54 8.84-.2.86-.76 1.94-1.1 2.58-.44.65.64-.32 2.37-.97 3.88-.64 1.5-1.83 5.94 2.7 7.66 4.53 1.73 8.62-2.15 9.37-2.9.76-.77 1.5-.87 2.16-.55.64.33.32.97-.22 1.73-.54.75-1.72 4 1.5 6.26 2.22 1.54 4.62 1.43 5.93 1.2.66-2.52 1.54-5.22 2.43-9h-.68c-.43 0-.5.64-.5.9s.12.47-.27.47c-.4 0-.44.22-1 .6-.56.4-1.07.87-1.38.66-.3-.23 1.17-1 1.56-1.48.4-.48 1.16-1.2 1.2-1.73.05-.53.3-.83 1.08-1.47.25-.2.44-.45.6-.68.5-2.5 1-5.46 1.48-9.03.3-2.42.5-4.7.56-6.83l-1.42-.08zM153.58 114.47c4.8 9.74 11.6 15.22 11.6 15.22s-.88-2.43-1.28-4.1c-.4-1.66-.08-3.54-.08-3.54s-1.7-2.2-4.86-7.05-4.82-12.02-4.82-12.02 2.94 7.17 5.2 11c2.3 3.8 4.92 6.9 4.92 6.9s.9-3.37 1.57-3.54c.66-.18 1.14.35 1.7 1.1.58.73 1.06.66 1.06.66s-.8-1.6-1.98-3.53c-.55-.88-1.34-1.82-1.9-2.7-1.8-2.84-5.66-8.23-7.65-13.62-1.98-5.4-6.32-18.9-7.08-22.88-.76-3.96-1.52-1.8-2.27 1.14-.76 2.94-1.8 7.1-1.13 13.34.66 6.24 2.16 13.9 6.98 23.63zM159.8 140.75c1.8 1.32 4.45 3.12 4.45 3.12s-.42-.98-.7-2.15c-.25-1.17-.36-3.6-.36-3.6l-3.6-3.12c-1.46-1.3-3.3-2.95-6.97-7.48-3.66-4.53-.72-1.8 2.26 1.44 2.97 3.25 8.66 7.96 8.66 7.96l.04-1.05c.04-.98.34-1.7.87-2.38.53-.7.25-.78-2.96-3.24-3.2-2.46-11.5-11.82-14.9-17.4-3.4-5.57-7.1-13.14-7.1-13.14s-1.78 11.16 5.02 23.45c6.8 12.3 13.5 16.26 15.3 17.58zM195.47 211.12c3.72-1.44 2.7-5.12 2.7-5.18s-2.28.73-4.38 1.5c-2.1.8-7.28 2.3-9.32 2.35-2.04.05-2.04-.25-2.1-.55-.06-.3 1.56 0 4.5-.54 2.94-.53 8.1-3.24 9-3.84.9-.6.8-.72-.53-.84-1.32-.12-2.46-.72-2.94-1.14-.47-.42-1.85.18-5.22.96-3.36.78-10.33 2-15.68 2-5.34 0-10.33-.9-11.17-1.1-.84-.18-1.74.3.84 4.64 2.6 4.33 11.66 6.68 17.96 6.6 6.3-.05 12.62-3.42 16.34-4.86zM178.7 202.18c6.5.05 8.93-1.88 8.93-1.88s0-.33-.88-1.65c-.88-1.33-.72-3.6-.72-3.6s-1.54.28-4.24.67c-2.7.4-5.86.77-9.33.17-3.48-.62-1.98-1 .77-.68 2.76.33 8.05-.66 9.76-1.27 1.7-.6 1-1.16-.16-1.55-1.16-.38-4.3-2.37-4.3-2.37s-7.9 1-15.22.17c-7.33-.83-11.97-2.7-13.46-2.93-1.5-.22-1.43.4-1.43.4s-.4.65 2.15 4.62c2.54 3.97 7.5 6.57 11.7 7.78 4.18 1.22 9.9 2.05 16.42 2.1zM177.04 186.94s-.28-.4-.66-1.7c-.4-1.34.7-2.33.7-2.33s-1.47-.43-6.33-1.04c-4.85-.6-5.12-1-8.1-1.66-2.98-.66-4.96-1.54-4.9-1.88.05-.33.98.17 2.75.83 1.76.66 9.2 1.44 12.35 1.88 3.14.44 4.9.77 5.46.44.56-.33 2.5-.83 2.5-.83s-1.34-.38-3-.66c-1.65-.28-3.13-1-4-1.6-.9-.6-1.17-.78-5.14-1.2-3.97-.45-7.17-1.73-14.28-4.32-7.1-2.6-12.47-5.7-13.9-6.85-1.43-1.15-1.32-.32-.94 1.17.4 1.5.33 3.37 3.92 7.56 3.58 4.2 5.35 6.02 14.4 9.34 9.03 3.3 19.18 2.87 19.18 2.87zM150.3 164.9c8 5.64 17.36 7.7 19.35 7.96.45-.52-.48-2.4-.05-3.53.5-1.37 1.38-1.38 3.3-1.5 1.93-.1.67-.5.23-.5-.44 0-.55-.05-3.75-.88-3.2-.82-6.45-1.32-10.86-2.98-4.42-1.66-5.74-2.87-5.63-3.2.1-.33 2.03 1.05 6.1 2.6 4.1 1.54 8.84 2.15 11.43 2.7 2.6.55.33-.55-.9-1.27-1.2-.72-2.9-3.37-2.9-3.37s-2.88-.5-7.56-1.93c-4.7-1.44-8.6-3.04-12.52-5.25-1.34-.76-2.64-1.74-4.05-2.75-2.68-1.92-5.38-3.9-6.42-4.65-1.6-1.16-1.1-.22-.94.5.16.72 1.27 4.03 3.8 7.68 2.54 3.64 3.36 4.75 11.36 10.38zM148.98 149.06c7.88 6.24 14.66 8.17 15.82 8.67 1.16.5 1.05-.17.83-.83-.22-.66-.4-2.8-.4-2.8s-2.8-1.62-5.94-3.44c-3.16-1.82-6.63-4.3-8.94-5.9-2.32-1.6-.94-1.5-.23-.9.72.62 3.92 2.5 7.12 4.48 3.2 2 8.05 4.86 8.05 4.86s.1-1.05.77-1.7c.66-.67 2.3-.5 2.3-.5s-.8-.83-1.3-1.6c-.5-.78-3.1-1.6-6.02-3-2.92-1.37-8.16-5.23-12.02-8.5-3.86-3.25-11.36-11.42-11.85-12.1-.5-.66-.83-.54-.88.28-.06.83-.33 1.38.5 5.14.82 3.75 4.3 11.6 12.18 17.83zM176.9 90.05c.88 1.86 1.86 3.26 2.57 4.47 1.06 1.83 1.66 3 1.66 3s.22-.63.05-1.73-.34-2.63-.04-4.44c.15-.97.36-1.94.3-2.8-.05-.98-.38-1.83-.5-2.4-.27-1.05-1.4-5.64-1.95-8.9-.56-3.24-1.15-7.88-1.1-11.98.03-4.1.62-2.02.62-.04s.2 5.03.85 9.7c.63 4.7 2.6 11.82 2.6 11.82s.13-1.1.72-2.66c.6-1.56 1.55-3.33 2.3-5.27.77-1.94.5-2.27.5-2.27s-2.76-13.25-3.5-19.5c-.72-6.27-1.9-22.73-1.9-22.73-4.04 4.08-7.05 14.8-7.58 24.94-.4 7.64.83 14.72 1.2 17.58.7 5.68 1.68 10.1 3.17 13.2zM167.9 110.96c.13-3 .82-5.27 2.75-5.94 0 0-1.7-3-3.2-7.28-1.03-2.93-1.87-6.68-2.3-9.57-1.06-7.1-1.9-14.4.2-2.44 2.12 11.98 4.66 16.22 4.66 16.22l3.08 4.98c-.45-2.2-.52-3.72-.4-6.12s.42-5.6 1.14-8.18c0 0-3.7-7.4-6.03-16.32-2.34-8.9-3.67-17-3.7-21.83l-.33-6.47s-3.8 2.86-5.08 17.38c-1.28 14.52 2.53 28.4 4.44 33.7 1.9 5.3 4.76 11.88 4.76 11.88zM209.46 221.7s-.6-.42-2.4-1.56c-1.8-1.14-1.26-4.57-1.26-4.57s-.48.36-1.8 1.26c-1.33.9-2.83 1.92-4.63 2.64-1.8.73-2.7 1.2-3.84 1.57-1.15.36-.84-.12.12-.66s1.26-.85 3.66-1.8c2.4-.97 7.22-5.18 7.22-5.18s-1.14-.12-3.13-.18-4.5-1.08-4.5-1.08-2 1.8-9.98 5.23c-8 3.43-14.78 4.33-14.78 4.33s.84 4.1 4.7 5.47c3.17 1.4 7.56 2.23 16.15.2 8.57-2.06 14.46-5.67 14.46-5.67zM219.98 229.9c.66-3.38-1.26-5.73-1.26-5.73s-.42.24-1.62 1.33c-1.2 1.08-2.95 3.12-6.3 4.8-3.37 1.7-4.58 1.57-1.33-.18 3.24-1.74 8-6.67 8-6.67l-1.27-.48c-1.27-.5-3.43.36-12.44 5.77-9 5.4-14.3 5.6-14.3 5.6s4.03 4.87 14.96 4.5c10.94-.35 14.9-5.58 15.56-8.95zM240.64 225.98s-1.2 1.68-2.82 2.77c-1.63 1.08-5.95 1.74-5.95 1.74s-.18.47-1.02 1.55c-.84 1.1-2.7 3.68-4.63 5.06-1.92 1.4-4.92 2.3-5.1 1.93-.18-.36 1.74-1.08 3.6-2.22 1.87-1.13 3.55-3.24 4.8-4.68 1.27-1.45-.53-1.2-.53-1.2s-2.3.05-4.4-.13c-2.1-.2-1.68 0-2.28 1.02s-1.44 1.92-3 3.72c-1.9 2.2-3.72 4.2-5.53 6.38-1.2 1.44-.3 1.86-.3 1.86s.53.9 5.4 1.45c3 .33 6.25-.05 9.68-2.02 2.12-1.22 4.3-3.17 6.54-5.6 5.82-6.38 5.52-11.62 5.52-11.62zM243.22 239.15c-1.2 1.57-1.86 2.23-1.86 2.23s.84-2.6 1.56-3.8c.38-.64.8-1.24 1.1-1.67-.8-1.8-1.46-3.74-1.94-5.83-.54 1.73-2.2 6.8-4.27 10.1-2.5 4.03-4.73 5.48-3.3 6.56 1.45 1.08 4.27 1.32 7.46-.24 3.07-1.52 3.96-4.16 4.4-6.3-.54-.82-1.05-1.7-1.52-2.6-.4.25-.97.7-1.62 1.55zM426.05 151.76c2.6-1.84 6.94-5.86 8.45-10.9 1.5-5 .92-6.6-.25-5.77-1.17.83-7.1 4.68-8.7 5.77-1.6 1.1-4.02 2.6-4.27 2-.25-.57 2.76-2.33 5.2-5.26 2.4-2.92 8.27-8.28 8.35-13.56.1-5.28-1.5-5.95-2.6-4.6-1.08 1.33-6 6.1-8.02 8.03-2 1.93-4.92 4.53-5.34 4.1-.42-.4 2.42-3 5.27-6.1 2.84-3.1 6.02-6.62 6.7-12.74.47-4.4-.63-6-1.32-6.7-.28-.28-.68-.44-.98.12-.8 1.5-3.1 5.63-4.8 7.67-2.1 2.5-5.28 5.95-7.2 7.96-1.92 2-2.5 2.76-2.85 2.5-.33-.24 1.76-3.26 3.35-5.18s5.35-5.95 7.86-11.48c2.5-5.53.42-13.65-.67-14.5-1.07-.83-1.24-.4-1.66.26-.42.67-3.6 8.04-5.77 11.14-2.17 3.1-4.77 7.2-6.1 8.97-1.35 1.74-2.35 3.75-2.77 3.5-.42-.25.25-1.84 2.68-5.78 2.42-3.93 6.7-11.3 6.85-15.16.18-3.85-.16-8.3-2.08-13.15-1.93-4.85-2.76-5.2-2.76-5.2s-.85-1-1.27 1.1c-.42 2.1-2.43 10.3-5.52 16.68-3.08 6.36-4.34 8.54-7.1 12.73-2.76 4.2-5.2 7.13-5.2 8.3s-.5 2.77.68 2.1c1.17-.68 4.94-3.1 8.53-1.93 3.6 1.17 3.7 3 4.1 3.94.43.93.35 3.6-.15 4.7s-.42 1.42.08 1.84c.5.4 1.76-.34 3.18-.34 1.43 0 4.1 0 5.7 1.93 1.6 1.93 1.33 4.6.66 6.78-.67 2.2-2.25 3.2-2.25 3.2s2.5.67 3.43 1.33c.92.68 2.18 1.93 2.18 4.7 0 2.76-3.42 5.1-4.68 5.86-1.25.74-1.84 1-1.84 1s3.1.5 3.02 5.2c-.1 4.68-3.26 5.94-4.52 6.7-1.26.74-2.5.9-2.5 1.5s1.75 1.92 1.9 3.52c.18 1.6.52 5.6-3.25 7.54-3.76 1.92-4.85 2-4.93 3s-.76 3.95-2.6 5.45c-1.84 1.52-3.17 1.86-4 2.2-.85.33-1.93 1-2.2 2-.24 1-.24 3.52-2.9 5.36-2.7 1.84-5.62 2.26-6.62 2.26s-3-.92-3.1.34c-.08 1.26.34 3.77-1.83 6.37-2.18 2.6-5.2 3.35-6.6 3.43s-2.44-.33-3.44-.67-1.83-.34-2.42.9c-.58 1.27-1.6 3.62-4.1 4.62-1.72.7-3.4.95-4.3 1.04.53 2.7.72 5.65.36 9.93.47.72 1.32 1.57 2.77 2.6 4.53 3.17 9.46 3.93 13.65 2.92 4.18-1 3.76-3.18 3.76-4.27 0-1.1-.16-2.26-1.75-2.68-1.6-.42-4.76-2.68-5.77-3.44-1-.75-1.08-1-.75-1.42.33-.4 1.1-.16 3.1 1 2 1.2 8.27 3.03 12.96 2.87 4.67-.17 7-1.85 6.1-3.94-.93-2.1-1.18-2.1-3.77-2.77-2.6-.67-4.6-2.26-5.1-2.85-.5-.57-.92-1-.5-1.4.4-.43 1.67 0 4 1.08 2.35 1.1 6.87 1.1 9.96-.1 3.1-1.16 3.5-2.17 3-3.25-.5-1.1-1.25-1.68-3.84-2.6-2.6-.92-4.7-1.93-4.44-2.6.26-.67 4.1.25 6.6.42 2.52.17 8.54.17 10.97-1.6 2.4-1.75 3.5-4.18 2.08-5.35-1.42-1.18-3.35-1.18-5.86-1.6-2.5-.4-4.18-.66-4-1.5.15-.84 1.4-.76 6.43-.42 5.02.33 8.36-.25 10.96-2 2.6-1.77 3.27-4.28 2.85-5.12-.42-.84-2.34-2.1-5.52-2.43-3.18-.34-4.1-.25-4.5-.84-.44-.6-.35-.76 1.66-1.18 2-.42 6.76-.84 11.03-3.7 4.27-2.83 4.18-4.5 4.18-5.77 0-1.26-1.5-1.92-4.34-1.92s-5.93-.34-6.7-.34c-.74 0-1.07-.1-1.16-.6-.08-.5.42-.66 3.76-1.25 3.35-.6 6.86-1.93 9.96-5.36 3.1-3.45 2.68-7.72 2.68-7.72s0-1.5-2.1-.92c-2.08.6-5 1.68-7.44 2.85-2.42 1.18-4.18 1.93-4.43 1.35-.25-.6 3.93-2.85 6.52-4.7z"/><path fill="#d4af3a" d="M415.2 140.3c-1.7-.66-4.4-.33-5.38 0-.97.3-1.5.75-2.04.3-.54-.42.32-1.4 2.47-2.47 2.16-1.08 5.5-3.56 5.18-6.36-.33-2.8-1.5-3.78-4.85-4.1-3.34-.33-5.6 2.15-6.57 2.8-.96.65-3.87 2.6-4.4 1.84-.55-.75 1.07-2.26 3-4.3s4.1-6.38 1.94-8.86c-2.15-2.48-4.95-2.26-8.4-.76-3.45 1.52-3.77 3.13-4.63 2.48-.85-.64 0-3.02 0-5.28s-1.7-4.53-1.7-4.53-4.65 9.6-10.57 16.4c-5.93 6.8-11.86 12.84-11.64 17.7.2 4.85 2.8 7.98 8.5 10.78 5.7 2.8 7.33 7.23 5.92 11.12-1.4 3.88-3.98 6.58-9.58 6.47-5.6-.1-8.84.65-11 3.78-2.14 3.13-4.95 4.3-7.1 4.42l-1.42.07c.07 2.12.25 4.4.56 6.82.46 3.57.97 6.52 1.5 9.03.14.24.33.48.57.68.78.64 1.04.94 1.08 1.46.04.5.82 1.24 1.2 1.72.4.47 1.87 1.25 1.56 1.47-.3.2-.83-.27-1.38-.66-.57-.4-.6-.6-1-.6s-.26-.22-.26-.48-.1-.9-.5-.9h-.7c.9 3.78 1.78 6.48 2.45 9 1.32.23 3.72.35 5.93-1.2 3.23-2.27 2.05-5.5 1.5-6.26-.53-.76-.85-1.4-.2-1.73.64-.32 1.4-.2 2.15.54.75.76 4.84 4.65 9.37 2.92 4.53-1.72 3.34-6.15 2.7-7.66-.65-1.5-1.62-3.24-.98-3.88.65-.65 1.73-.32 2.6.43.85.77 5.8 2.06 8.83.23 3-1.84 3.55-4.86 2.04-6.7-1.5-1.83-5.06-2.26-4.2-3.55.86-1.3 2.6.75 3.88 1.2 1.3.42 4.4 1.07 7.54-.66 3.12-1.73 3.23-4.2 1.4-5.5-1.83-1.3-3.88-2.16-2.8-3.24s2.37.1 3.45.32 4.75.54 7-1.5c2.27-2.06 2.17-3.14 1.63-5.5s-3.45-2.7-4.96-3.14c-1.5-.43-2.05-.76-1.83-1.5.2-.77 1.18-.34 3.88-.77 2.7-.44 7.54-2.8 7.97-4.97.42-2.16-.44-4.96-3.35-5.07-2.9-.1-5.28-.1-5.18-.98.1-.86.65-.53 1.73-.75 1.08-.2 6.46-1.3 9.05-4.2 2.6-2.92-.2-5.3-1.94-5.94zM434.8 129.7s6.8-5.5 11.62-15.23c4.8-9.74 6.32-17.4 6.98-23.63.66-6.24-.38-10.4-1.13-13.33-.76-2.92-1.5-5.1-2.27-1.13-.75 3.98-5.1 17.5-7.07 22.88-2 5.4-5.86 10.78-7.65 13.6-.56.9-1.36 1.84-1.9 2.72-1.2 1.93-1.97 3.53-1.97 3.53s.5.07 1.06-.67c.57-.74 1.05-1.27 1.7-1.1.67.18 1.6 3.55 1.6 3.55s2.6-3.1 4.9-6.9c2.26-3.82 5.2-11 5.2-11s-1.67 7.18-4.82 12.03c-3.15 4.87-4.86 7.06-4.86 7.06s.3 1.88-.1 3.55c-.38 1.67-1.27 4.1-1.27 4.1zM460.48 99.72s-3.68 7.56-7.08 13.14c-3.4 5.58-11.7 14.94-14.9 17.4-3.22 2.46-3.5 2.55-2.97 3.23.53.67.83 1.4.87 2.37l.04 1.05s5.7-4.7 8.67-7.96c3-3.25 5.93-5.97 2.27-1.44-3.66 4.53-5.5 6.2-6.98 7.48s-3.6 3.13-3.6 3.13-.1 2.42-.36 3.6c-.27 1.16-.7 2.14-.7 2.14s2.66-1.8 4.45-3.12c1.78-1.33 8.48-5.3 15.28-17.6 6.8-12.27 5-23.43 5-23.43zM427.48 59.27c-.54-10.14-3.55-20.86-7.6-24.94 0 0-1.16 16.46-1.9 22.72-.72 6.26-3.5 19.5-3.5 19.5s-.26.34.5 2.28c.76 1.94 1.73 3.7 2.32 5.27.6 1.57.72 2.66.72 2.66s1.98-7.13 2.6-11.8c.64-4.7.85-7.73.85-9.72s.6-4.05.63.04c.05 4.1-.54 8.74-1.1 12-.54 3.24-1.68 7.83-1.93 8.9-.13.55-.46 1.4-.52 2.38-.05.86.16 1.83.3 2.8.3 1.8.14 3.33-.03 4.43-.17 1.1.04 1.73.04 1.73s.6-1.18 1.67-3c.7-1.22 1.7-2.62 2.58-4.48 1.5-3.08 2.48-7.52 3.2-13.2.35-2.86 1.58-9.93 1.18-17.57zM436.86 99.1c1.9-5.3 5.72-19.2 4.44-33.72-1.26-14.52-5.07-17.38-5.07-17.38s-.1 1.8-.32 6.47c-.04 4.83-1.37 12.92-3.7 21.83-2.32 8.9-6.03 16.32-6.03 16.32.73 2.57 1.03 5.8 1.15 8.2.12 2.4.04 3.93-.4 6.1l3.06-4.97s2.54-4.24 4.65-16.2c2.13-12 1.28-4.68.22 2.42-.43 2.9-1.28 6.64-2.3 9.58-1.5 4.27-3.2 7.28-3.2 7.28 1.93.66 2.62 2.93 2.75 5.93 0 0 2.86-6.57 4.76-11.87zM439.67 204.74c-.84.18-5.83 1.08-11.17 1.08-5.35 0-12.3-1.2-15.68-1.98-3.36-.78-4.75-1.4-5.23-.97-.5.42-1.63 1.03-2.95 1.14-1.32.13-1.44.26-.54.86.9.6 6.08 3.3 9.02 3.85 2.95.55 4.57.25 4.5.55-.05.3-.05.6-2.1.54-2.04-.07-7.2-1.57-9.3-2.36-2.1-.78-4.4-1.56-4.4-1.5s-1 3.73 2.7 5.18c3.73 1.44 10.04 4.8 16.35 4.87 6.3.05 15.38-2.3 17.96-6.63s1.68-4.8.84-4.63zM450.14 187.27c-1.5.22-6.12 2.1-13.45 2.93-7.34.82-15.23-.17-15.23-.17s-3.14 2-4.3 2.37c-1.16.4-1.88.94-.17 1.55 1.7.6 7 1.6 9.76 1.27 2.76-.33 4.25.06.78.67-3.48.6-6.62.2-9.32-.18-2.7-.4-4.25-.66-4.25-.66s.16 2.26-.72 3.6-.88 1.64-.88 1.64 2.43 1.93 8.93 1.88c6.5-.05 12.24-.88 16.43-2.1 4.2-1.2 9.16-3.8 11.7-7.8 2.53-3.96 2.14-4.62 2.14-4.62s.06-.6-1.43-.4zM459.5 166c-1.42 1.17-6.77 4.26-13.88 6.86-7.12 2.6-10.32 3.86-14.3 4.3-3.96.44-4.23.6-5.1 1.22-.9.6-2.38 1.32-4.04 1.6-1.65.28-2.97.66-2.97.66s1.93.5 2.5.83c.54.33 2.3 0 5.45-.44 3.14-.44 10.58-1.22 12.35-1.88 1.76-.66 2.7-1.16 2.75-.83.06.33-1.93 1.22-4.9 1.88-2.98.66-3.26 1.05-8.1 1.66-4.86.6-6.35 1.05-6.35 1.05s1.1 1 .72 2.32c-.4 1.33-.67 1.72-.67 1.72s10.15.44 19.2-2.87c9.03-3.32 10.8-5.14 14.38-9.34 3.6-4.2 3.53-6.07 3.92-7.56.38-1.5.5-2.32-.94-1.16zM463.92 146.36c-1.05.76-3.74 2.73-6.43 4.65-1.42 1.02-2.7 2-4.06 2.76-3.9 2.2-7.83 3.8-12.5 5.25-4.7 1.44-7.57 1.94-7.57 1.94s-1.7 2.65-2.92 3.37c-1.2.72-3.47 1.83-.88 1.28 2.6-.56 7.33-1.16 11.4-2.7 4.1-1.55 6.02-2.94 6.13-2.6.1.33-1.2 1.54-5.62 3.2-4.42 1.65-7.66 2.15-10.86 2.98-3.2.83-3.3.88-3.75.88-.44 0-1.7.4.22.5 1.9.1 2.78.13 3.3 1.5.43 1.13-.5 3-.06 3.53 2-.25 11.36-2.32 19.35-7.95 8-5.64 8.8-6.74 11.35-10.4 2.54-3.63 3.64-6.94 3.8-7.66.17-.72.67-1.66-.93-.5zM433.93 151.5c.66.65.77 1.7.77 1.7s4.85-2.87 8.05-4.86c3.2-2 6.4-3.86 7.12-4.47.7-.6 2.1-.72-.23.88-2.3 1.6-5.78 4.1-8.93 5.9-3.13 1.83-5.94 3.44-5.94 3.44s-.17 2.14-.4 2.8c-.2.66-.32 1.33.84.83 1.16-.5 7.94-2.43 15.82-8.67 7.9-6.24 11.36-14.08 12.2-17.84.8-3.75.54-4.3.48-5.13-.05-.84-.38-.95-.88-.3-.5.68-8 8.85-11.85 12.1-3.86 3.26-9.1 7.13-12.02 8.5-2.93 1.4-5.52 2.22-6 3-.5.76-1.34 1.6-1.34 1.6s1.67-.17 2.33.5zM401.1 212.14s-2.5 1.02-4.5 1.08c-1.98.06-3.12.18-3.12.18s4.8 4.2 7.2 5.18c2.4.96 2.7 1.26 3.68 1.8.96.54 1.26 1.02.12.66-1.15-.36-2.05-.84-3.85-1.56-1.8-.72-3.3-1.75-4.63-2.65-1.32-.9-1.8-1.26-1.8-1.26s.54 3.43-1.26 4.57c-1.8 1.15-2.4 1.57-2.4 1.57s5.9 3.62 14.47 5.67c8.6 2.04 13 1.2 16.17-.18 3.85-1.4 4.7-5.5 4.7-5.5s-6.8-.9-14.8-4.32c-7.98-3.43-9.96-5.24-9.96-5.24zM383.8 222.97l-1.25.48s4.74 4.93 8 6.68c3.23 1.74 2.03 1.86-1.33.18-3.37-1.67-5.1-3.72-6.3-4.8-1.2-1.08-1.63-1.32-1.63-1.32s-1.93 2.34-1.28 5.7c.67 3.38 4.63 8.62 15.56 8.98 10.93.36 14.96-4.52 14.96-4.52s-5.3-.18-14.3-5.6c-9-5.4-11.17-6.25-12.43-5.77zM380.68 235.54c-1.56-1.8-2.4-2.7-3-3.73-.6-1-.18-1.2-2.3-1-2.1.17-4.37.1-4.37.1s-1.8-.24-.53 1.2c1.26 1.45 2.94 3.56 4.8 4.7 1.86 1.14 3.8 1.87 3.6 2.23-.17.36-3.18-.54-5.1-1.92-1.92-1.38-3.8-3.97-4.62-5.05-.85-1.08-1.03-1.56-1.03-1.56s-4.32-.68-5.94-1.76-2.83-2.76-2.83-2.76-.3 5.23 5.53 11.6c2.23 2.45 4.4 4.4 6.54 5.62 3.42 1.98 6.68 2.36 9.68 2.02 4.86-.54 5.4-1.44 5.4-1.44s.9-.42-.3-1.87c-1.8-2.16-3.6-4.16-5.52-6.36zM357.92 230.06c-.48 2.1-1.15 4.04-1.95 5.84.3.43.73 1.04 1.1 1.68.73 1.2 1.57 3.8 1.57 3.8s-.66-.67-1.86-2.24c-.65-.84-1.23-1.3-1.62-1.54-.47.9-.98 1.77-1.52 2.6.44 2.14 1.32 4.78 4.4 6.3 3.18 1.55 6 1.3 7.45.23 1.43-1.08-.8-2.53-3.3-6.56-2.08-3.3-3.74-8.38-4.28-10.1z"/><ellipse rx="1.19" transform="matrix(1.9 0 0 1.9 -300 -120)" ry="1.09" cy="105.75" cx="350.63" fill="#d4af3a"/><path fill="#d4af3a" d="M330.25 77.16c1.16.65 2.37 1.32 3.58 1.67 4.35 1.25 8.87.47 12.28-1.07 4.4-2.32 8-3.87 10.64-4.13 2.25-.22 3.35.75 5.4.8.65 0 1.22-.14 1.46-.63.43-.86.17-3-2.9-4.73-3.1-1.72-7.73-1.63-11.85-.43-4.1 1.2-6.5 2.84-8.14 4.04-1.62 1.2-3.55 3.06-4.02 2.67-.47-.4.94-1.3 1.72-2.07.76-.77 1.1-1.03 1.1-1.03-4.5.3-9.36-1.2-13.28-4.04 0 0-1.3 5.94 4.03 8.96zM376.04 74.4c-3-1.37-6-1.2-9.7.18-3.68 1.37-5.48 2.5-5.48 2.5s.52 3.17-1.7 4.63c-2.24 1.48-4.47.62-5.07-.84-.6-1.47-.78-2.24-.78-2.24s-3.52 1.98-8.32 2.84c-2.72.5-7.76 1.03-10.97-.26 0 0-2.92 2.84-5.06 4.56-2.14 1.72-4.46 3.18-4.46 3.18s.27.7 1.3 1.03c1.03.34 1.37.52.7 1.63-.7 1.12-5.67 5.6-7.82 7.14-2.14 1.55-5.3 2.75-5.3 2.75s1 1.9 2.47 2.5c1.46.6 1.72 1.54 1.12 2.57-.6 1.03-5.75 6.7-7.9 8.68-2.13 1.98-3.76 2.24-4.7 2.5-.95.26-2.66 1.2-.77 3.35 1.88 2.15 6.34 2.93 10.8 1.64s8.74-6.54 8.74-6.54-.94 7.57-.94 11.1c0 3.52.43 7.56 1.03 9.63.6 2.06 1.2 3.1 1.2 3.1s3-1.73 5.06-6.97c2.04-5.25 2.56-8.18 2.56-9.72s.08-2.4 1.46-1.64c1.37.78 2.4 1.38 2.9 1.47.52.08.87.08.87.08s-.87-3.78-.87-6.62c0-2.84.94-9.03 2.14-10.15 1.2-1.12 1.43.42 1.55 1.12.24 1.46 1.48 3.23 3.26 3.78.58-4.17 1.5-7.6 4.96-11.26.64-.66 1.03-1.55 3.18-.7 3.16 1.28 7.23 2.08 10.4.84 3.18-1.24 5.48-4.52 4.77-4.87-.18-.1-4.9 2.3-8.58 1.1-3.7-1.2-5.4-2.4-3.26-4.64 2.15-2.24 3.1-2.5 7.38-6.02 4.28-3.52 7.7-5.33 11.5-4.73 3.76.6 4.44 2.85 4.8 3.28.33.43 1.96 1.72 1.96-1.37 0-3.1-1.46-7.22-4.46-8.6z"/><path fill="#d4af3a" d="M335.77 135.38c-.74-1.07-2.1-4.06-2.1-4.06s-.12.74-.9 2.87c-.77 2.12-3 5.16-3 5.16s1.77-.37 3.74-.98c1.98-.62 3.34-1.77 3.34-1.77s-.33-.15-1.07-1.22zM320.5 123.77s-1.22 3.12-3.97 5.83c-2.75 2.7-4.8 2.38-4.8 2.38s.28-.08 2.33-1.52c2.06-1.44 4.1-5.62 4.1-5.62-2.25 1.35-7.43 2.64-10.17 2.1 0 0-.42.93-1.08 2.62-.65 1.68-2.58 4.8-3.6 6.16-1.04 1.35-.26 1.55-.26 1.55s.5.58 6.98 2.4c6.5 1.8 12.3.77 12.3.77s-.23-.58-1.34-5c-1.1-4.45-.5-11.67-.5-11.67z"/><ellipse rx="1.19" transform="matrix(1.9 0 0 1.9 -300 -120)" ry="1.09" cy="105.75" cx="289.34" fill="#d4af3a"/><path fill="#d4af3a" d="M237.8 74.43c2.04-.05 3.14-1.02 5.4-.8 2.65.26 6.25 1.8 10.62 4.13 3.42 1.54 7.93 2.32 12.28 1.07 1.2-.35 2.42-1.02 3.58-1.67 5.32-3.02 4.03-8.95 4.03-8.95-3.9 2.84-8.76 4.36-13.28 4.05 0 0 .35.26 1.12 1.04.77.76 2.18 1.66 1.7 2.05-.46.4-2.4-1.46-4.02-2.67-1.63-1.2-4.03-2.83-8.14-4.03-4.12-1.2-8.75-1.3-11.83.42-3.1 1.72-3.35 3.87-2.92 4.73.24.5.8.64 1.47.63zM295.58 117.74c-.94-.26-2.57-.52-4.7-2.5-2.16-1.97-7.3-7.65-7.9-8.68-.6-1.03-.35-1.98 1.1-2.58 1.47-.6 2.5-2.5 2.5-2.5s-3.17-1.2-5.32-2.75c-2.14-1.54-7.1-6.02-7.8-7.14-.7-1.12-.34-1.3.7-1.64 1.02-.34 1.27-1.03 1.27-1.03s-2.3-1.46-4.45-3.18c-2.15-1.72-5.06-4.56-5.06-4.56-3.2 1.28-8.25.74-10.97.25-4.8-.86-8.32-2.84-8.32-2.84s-.17.8-.77 2.25c-.6 1.46-2.83 2.32-5.06.86-2.23-1.45-1.72-4.64-1.72-4.64s-1.8-1.1-5.48-2.5c-3.7-1.37-6.7-1.54-9.7-.16-3 1.37-4.45 5.5-4.45 8.6 0 3.1 1.63 1.8 1.97 1.37.35-.43 1.03-2.67 4.8-3.27 3.78-.6 7.2 1.2 11.5 4.73 4.28 3.53 5.22 3.8 7.36 6.02 2.15 2.24.43 3.44-3.25 4.65-3.7 1.2-8.4-1.2-8.58-1.12-.7.36 1.6 3.63 4.77 4.87 3.18 1.24 7.25.44 10.4-.83 2.15-.86 2.55.03 3.18.7 3.48 3.65 4.4 7.08 4.97 11.26 1.78-.55 3-2.33 3.26-3.8.12-.7.34-2.22 1.54-1.1 1.2 1.1 2.15 7.3 2.15 10.14 0 2.84-.86 6.62-.86 6.62s.34 0 .86-.08c.5-.1 1.54-.7 2.9-1.46 1.38-.78 1.47.08 1.47 1.63s.5 4.47 2.56 9.72 5.06 6.96 5.06 6.96.6-1.02 1.2-3.08c.6-2.07 1.03-6.1 1.03-9.63s-.94-11.1-.94-11.1 4.3 5.24 8.75 6.53c4.46 1.3 8.92.52 10.8-1.63 1.9-2.15.17-3.1-.77-3.36zM266.26 131.32s-1.35 3-2.1 4.06c-.73 1.07-1.06 1.24-1.06 1.24s1.35 1.14 3.33 1.76c1.97.6 3.73.98 3.73.98s-2.22-3.04-3-5.17c-.78-2.14-.9-2.88-.9-2.88z"/><path fill="#d4af3a" d="M293.02 129.55c-.66-1.68-1.07-2.63-1.07-2.63-2.73.55-7.92-.73-10.18-2.1 0 0 2.06 4.2 4.1 5.63 2.06 1.44 2.35 1.52 2.35 1.52s-2.05.33-4.8-2.38c-2.75-2.72-3.98-5.84-3.98-5.84s.6 7.23-.5 11.66-1.35 5-1.35 5 5.8 1.03 12.3-.78c6.48-1.8 6.98-2.38 6.98-2.38s.77-.2-.25-1.56c-1.03-1.35-2.95-4.47-3.6-6.15zM270.28 292.06c1.37.46 3.92-.55 5.2-2.1 1.27-1.55 1.73-3.92 2.64-5.3l1.57-2.37s-.2 2.25-1.4 5.27c-1.16 2.88-1.36 6.82-1.1 8.5.56 3.38 2.75 3.92 4.02 3.47.97-.35 2.44-1.84 3.8-4.1.4-.7.7-1.68 1.13-2.47.86-1.64 1.64-4.33 2.02-4.25.84.16.3 2.06 0 3.34-.65 2.55-1.93 6.3-2.02 8.57-.1 2.28.18 6.38 2.46 6.57 2.3.18 3.48-1.83 4.75-6.48 1.28-4.65 1.55-6.1 2.1-6.1s.55 3.18.55 4.55c0 .47.02 1.77.2 3.07.36 2.5 1.08 5.48 1.8 6.14 1.1 1 2 .82 2 .82s.92.2 2.02-.82c1.1-1 2-7.84 2-9.2s0-4.57.55-4.57.82 1.47 2.1 6.12c1.27 4.65 2.46 6.66 4.74 6.48 2.3-.2 2.56-4.3 2.47-6.57-.1-2.28-1.37-6.02-2-8.57-.65-2.56.27-2.37 2 .9.54 1.04 1.1 2.3 1.65 3.17 1.2 1.93 2.4 3.1 3.27 3.4 1.27.46 3.46-.1 4-3.46.55-3.38-2-13.04-2-13.04l1.1 1.64c.9 1.37 1.36 3.74 2.64 5.3 1.28 1.54 3.83 2.54 5.2 2.1 1.37-.47 1.55-3.02.54-7.58-1-4.57-5.1-7.13-8.02-10.78-2.7-3.35-4.75-9.25-5.07-10.17-3.68 1.8-6.9 3.88-9.8 6.92-6.05 6.3-7.36 7.87-7.36 7.87s-1.3-1.58-7.34-7.87c-2.93-3.06-6.17-5.13-9.87-6.96-.35.8-2.85 6.43-5.57 9.82-1.34 1.7-3.2 2.96-4.52 4.58-1.54 1.88-2.47 4.13-3 6.58-1 4.57-.83 7.12.54 7.58z"/><path fill="#d4af3a" d="M270.12 307.5c1.77-1.54 2.68-2.4 2.68-2.4s1.28-1.07.96.96c-.32 2.04-1.02 6.2-.6 8.03.44 1.8.65 3.36 2.9 2.02 2.25-1.33 2.78-2.14 3.85-3.26 1.08-1.13 2.2-1.6 1.94.16-.27 1.77-1.07 4.44-.7 8.03.38 3.58 2.14 4.1 4.44 1.06 2.3-3.03 3.7-5.8 4.4-7.3.7-1.5 2.08-2.8 2.08 0 0 5.97 1.37 14.68 7.97 17 6.6-2.32 7.97-11.03 7.97-17 0-2.8 1.4-1.5 2.08 0 .7 1.5 2.1 4.27 4.4 7.3 2.3 3.06 4.06 2.53 4.43-1.05.4-3.6-.42-6.26-.68-8.03s.85-1.3 1.92-.16c1.07 1.12 1.6 1.93 3.86 3.26 2.24 1.34 2.46-.2 2.9-2.03.4-1.83-.28-6-.6-8.04-.32-2.03.96-.96.96-.96s.9.86 2.68 2.4c1.76 1.56 4.18 1.65 4.18 1.65s1.14-6.28-1.48-10.03-3.58-4.97-3.58-4.97-1.48-.1-2.6-.52c-1.15-.44-2.25-1.26-2.25-1.26v3.48s3.22 3.04 3.97 3.95c.75.9 2.25 2.46.05.97-2.2-1.5-4-3-4-3s-.44 3.16-1.35 3.96c-.9.8-2.2.9-2.73.7l-.53-.22-.15 1.24s1.98 3.7 2.24 5.2c.26 1.5-.17 1.33-1.08-.6-.9-1.92-2.67-4.38-3.47-5.72-.8-1.34-1.98-2.25-1.87-.54.1 1.72-.6 4.82-1.18 5.94-.6 1.13-.96 1.5-.96 1.5s1.22 4.34 1.4 5.14c.15.8.04 1.7-.66.7-.7-1.03-2.67-5.3-2.67-5.3s-2.6-.1-3.36-.86c-.75-.75-1.93-3.64-1.93-3.64s-1.06 3.7-1.95 4.87c-.9 1.18-2.95 2.36-2.95 2.36s-.15 6.4-.3 7.53c-.14 1.13-.2 1.62-.67 1.62-.48 0-.53-.5-.68-1.62-.14-1.14-.3-7.54-.3-7.54s-2.06-1.2-2.95-2.37c-.88-1.18-1.96-4.87-1.96-4.87s-1.17 2.9-1.92 3.64c-.75.75-3.37.85-3.37.85s-1.98 4.28-2.68 5.3c-.7 1.02-.8.1-.64-.7s1.4-5.13 1.4-5.13-.38-.37-.97-1.5c-.6-1.12-1.3-4.22-1.18-5.94.1-1.7-1.07-.8-1.87.54s-2.56 3.8-3.47 5.72c-.9 1.93-1.34 2.1-1.07.6s2.25-5.2 2.25-5.2l-.15-1.23-.54.22c-.52.22-1.8.1-2.72-.7-.9-.8-1.33-3.95-1.33-3.95s-1.82 1.5-4 3c-2.2 1.5-.7-.06.04-.97.74-.9 3.95-3.95 3.95-3.95v-3.48s-1.1.82-2.24 1.26c-1.12.43-2.6.52-2.6.52s-.96 1.22-3.58 4.97-1.5 10.03-1.5 10.03 2.43-.1 4.2-1.64z"/><path fill="#d4af3a" d="M263.03 328.9c1.58-1 2.95-2.12 6.52-4.5 3.58-2.37 4.9-5 4.9-5h-1.27c-.68 0-1.26-.96-1.32-1.9-.05-.96 0-2.9.27-5.18.26-2.26-.37-4.1-.37-4.1s-1.52 1.4-3.84 2.63c-2.3 1.2-3.26.63-3.26.63l-.58-2.32s-1 2.1-2.42 4.6c-1.42 2.47-5.26 5.2-8 7.27-2.73 2.05-5.73 4.22-8 5-2.25.8-.93 1.86-.93 1.86s2.26 2.25 8.1 3.3 8.62-1.3 10.2-2.3z"/><path fill="#d4af3a" d="M283.44 326.62c-2.08-.22-3.33-1-3.73-3.27-.26-1.48.1-7.12.1-7.12s-.67.58-1.46 1.53c-.8.95-2.58 1.16-2.58 1.16s-.26.8-1.05 2.05c-.78 1.27-1.78 2.8-3.78 4.07-2 1.26-4.3 2.74-5.84 4-1.52 1.27-3.3 2.75-5.3 3.86-2 1.1-3.8 2.9-4.48 5.85-.68 2.95-.16 3.9 2.16 3.75 2.3-.16 2.57.05 6.3-.9 3.74-.95 9.05-5.12 12.94-7.6 3.9-2.48 6.74-7.38 6.74-7.38z"/><path fill="#d4af3a" d="M293.8 330.05s-1.58-2-2.16-4.27c-.58-2.27-1.68-6.75-1.68-6.75s-.52 1.42-1.8 4.1c-1.25 2.7-3.4 3.33-3.4 3.33s-.1 1.16-1.9 3.43c-1.8 2.26-4.4 4.37-7.1 5.95-2.68 1.58-6.15 3.75-8.05 6.44-1.88 2.68-2.04 5.47-1.14 6.7.9 1.2 2.15-.17 3.94-1.07 1.8-.9 6.9-1.7 13.94-5.5 7.04-3.78 9.36-12.38 9.36-12.38z"/><path fill="#d4af3a" d="M296.85 345.82c1.95-2.9 2.26-9.97 2.26-9.97s-.67-.47-1.62-1.27c-.94-.8-2.78-3.58-2.78-3.58s-1.16 2.42-2.42 4.7c-1.26 2.26-1.9 3.05-4.53 5.48-2.63 2.43-6.2 4.8-7.73 7.38-1.52 2.6-.68 7.76.32 9.5 1 1.74 2.42 1.16 3.9-.26 1.46-1.43 1.93-1.8 4.5-4 2.6-2.23 6.17-5.08 8.1-7.98zM354.37 326.04c-2.26-.8-5.26-2.96-8-5-2.73-2.07-6.57-4.8-8-7.3-1.4-2.47-2.4-4.58-2.4-4.58l-.6 2.32s-.94.58-3.25-.63c-2.3-1.22-3.84-2.64-3.84-2.64s-.63 1.86-.36 4.12c.26 2.27.3 4.22.26 5.17-.05.94-.63 1.9-1.32 1.9h-1.26s1.32 2.63 4.9 5c3.57 2.38 4.94 3.5 6.5 4.5 1.6 1 4.38 3.36 10.22 2.3 5.83-1.05 8.1-3.3 8.1-3.3s1.3-1.07-.95-1.86z"/><path fill="#d4af3a" d="M340.27 332.9c-2-1.1-3.8-2.58-5.3-3.85-1.54-1.27-3.85-2.74-5.85-4-2-1.28-3-2.8-3.78-4.07-.8-1.27-1.06-2.06-1.06-2.06s-1.8-.2-2.57-1.16c-.78-.95-1.47-1.53-1.47-1.53s.37 5.64.1 7.12c-.4 2.27-1.64 3.05-3.72 3.27 0 0 2.85 4.9 6.74 7.4 3.9 2.47 9.2 6.63 12.93 7.58 3.74.95 4 .74 6.3.9 2.33.16 2.85-.8 2.17-3.75-.68-2.95-2.47-4.74-4.47-5.85z"/><path fill="#d4af3a" d="M324.28 335.85c-2.68-1.6-5.3-3.7-7.1-5.96-1.8-2.28-1.9-3.44-1.9-3.44s-2.15-.64-3.4-3.33c-1.27-2.68-1.8-4.1-1.8-4.1s-1.1 4.48-1.68 6.74c-.58 2.28-2.16 4.28-2.16 4.28s2.32 8.6 9.36 12.4c7.05 3.8 12.15 4.58 13.94 5.48 1.8.9 3.05 2.27 3.95 1.05.88-1.2.72-4-1.17-6.7-1.9-2.68-5.37-4.85-8.05-6.43z"/><path fill="#d4af3a" d="M312.3 341.18c-2.63-2.43-3.26-3.22-4.52-5.5-1.26-2.25-2.42-4.68-2.42-4.68s-1.84 2.8-2.8 3.6c-.94.78-1.62 1.26-1.62 1.26s.32 7.06 2.26 9.96c1.95 2.9 5.52 5.75 8.1 7.97 2.58 2.2 3.05 2.57 4.52 4 1.48 1.42 2.9 2 3.9.26s1.83-6.9.3-9.5c-1.52-2.58-5.1-4.95-7.72-7.38zM302.3 349.35c-1.7-1.98-2.26-2.96-2.26-2.96s-.56.97-2.25 2.95c-1.7 1.97-5.65 5.08-5.65 5.08s.35 5.22 2.25 8.04c1.6 2.38 3.14 4.55 5.64 6.2 2.5-1.65 4.04-3.82 5.65-6.2 1.9-2.82 2.24-8.04 2.24-8.04s-3.95-3.1-5.64-5.08z"/><path fill="#1d5e91" d="M443.66 285.2c-1.57-.37-2.24-.97-2.24-.97s-.67-.08-1.2.9c-.52.97-2.54 2.24-2.54 2.24s-2.84.75-3.22 2.7c-.37 1.94.98 2.6 2.32 2.38 1.35-.22 4.64-.9 6.06-2.6 1.42-1.73 1.64-2.7 1.94-3.38.3-.67.45-.9-1.12-1.27zM448.07 269.72c-1.02-4.32-3.8-9.67-9.2-12.34 0 0-2.02 7.1-2.6 9.35-.6 2.24-.6 2.17 1.1 2.62 1.72.44 7.26 1.64 8.38 1.94 1.12.3 3 1.26 2.32-1.58zM422.42 265.68c1.27.23 1.12-.3 1.57-2.02l2.68-10.24s-5.68-.23-10.62 2.16c-4.93 2.4-7.1 6.8-7.1 6.8s1.27.53 4.64 1.28c3.36.75 7.55 1.8 8.82 2.02zM409.26 277.42c-2.02-.37-2.77-.6-2.77-.6s1.27 4.86 3.36 7.55c2.1 2.7 4.4 4.04 8.75 4.12 4.35.06 7.63-2.33 8.16-4.2.52-1.87 1.42-3.3 1.42-3.3s-7.85-1.04-11.07-1.8c-3.2-.73-5.82-1.4-7.84-1.78z"/><path fill="#b96b29" d="M346.5 182.43c-2-12.15 5.02-22.85 5.02-22.85l-13.63-15.94c-10.52 5.9-25.14 5.1-37.84-.74-12.7 5.84-27.32 6.64-37.82.74l-13.64 15.94s7 10.7 5 22.85c-2 12.15-6.3 31.38-5.22 39.22 1.07 7.85 6.6 16.92 12.3 21.7 5.7 4.76 14.15 8.76 20.15 10.9 6 2.17 11.85 6.32 14.62 8.47 2.76 2.16 4.6 4 4.6 4s1.86-1.84 4.62-4c2.77-2.15 8.62-6.3 14.6-8.46 6-2.15 14.48-6.15 20.17-10.92 5.7-4.77 11.22-13.84 12.3-21.7 1.07-7.84-3.24-27.07-5.24-39.22zM318.68 113.7c-2 2.3-6.88 4.5-6.88 4.5l-.1.4s1.95-.36 3.9-1.46c1.93-1.1 4.77-3.6 5.37-4.58.6-1-.1-1.7-.1-1.7s-.2.55-2.2 2.84zM327.1 118.34c0 1.35-.5 10.42-.5 10.42-.02.42-.16 3.17-.88 3.54.36.07 1.07.2 1.28-1.24l1.95-13.27-1-.46s-.84-.35-.84 1zM342.36 95.33c-.86.24-2.96 1.8-4.07 2.72-1.12.92-1.86.92-2.9 1.42-1.06.5-.7-1.8-.07-3.64.6-1.86 2.7-4.08 4.32-5.87 1.6-1.8-.07-1.23-.8-.5-.75.75-2.47 2.6-4.5 5.87-2.05 3.27-3.16 10.68-3.16 10.68s1.22-.73 2.46-1.6c1.23-.86 2.6-1.6 4.94-3.33 2.34-1.73 3.7-3.02 4.93-4.38 1.24-1.37-.3-1.62-1.17-1.37zM281.26 113.7c-2-2.28-2.2-2.83-2.2-2.83s-.7.7-.1 1.7 3.45 3.48 5.4 4.58c1.94 1.1 3.88 1.44 3.88 1.44l-.1-.4s-4.9-2.2-6.88-4.5zM273.33 128.76s-.5-9.07-.5-10.42c0-1.35-.85-1-.85-1l-1 .45 1.96 13.26c.2 1.43.9 1.3 1.27 1.24-.7-.37-.84-3.13-.87-3.54zM261.1 89.47c-.74-.74-2.4-1.3-.8.5 1.6 1.78 3.7 4 4.32 5.86.62 1.85 1 4.13-.06 3.64-1.05-.5-1.8-.5-2.9-1.42-1.12-.93-3.2-2.48-4.08-2.72-.86-.25-2.4 0-1.17 1.36 1.25 1.35 2.6 2.64 4.95 4.37 2.34 1.73 3.7 2.47 4.94 3.33 1.22.87 2.45 1.6 2.45 1.6s-1.1-7.4-3.14-10.67c-2.03-3.27-3.76-5.12-4.5-5.86zM299.87 300.08c.22.04.26-.52.3-1.57.05-1.03.18-3.55.44-5.03.27-1.48-.38-1.4-.78-1.3-.4.1-.6 1.22-.6 1.87 0 .65.17 4.4.17 5.17 0 .8.25.84.47.88zM326.3 286.67c1.02 2.1 1.25 1.84.8.1-.45-1.77-1.08-3.34-2.07-4.96-1-1.6-3.5-3.9-3.5-3.9s.67 1.48 1.6 2.8c.96 1.3 2.13 3.85 3.16 5.97zM316.3 288.47c.4 1.4 2.52 5.26 2.75 5.12.22-.14-.86-3.47-1.58-5.76-.72-2.3-1.85-4.05-2.07-3.96-.23.1.18 1.44.18 1.44s.3 1.75.72 3.15zM308.43 294.8c.45 1 1 2.22 1.2 2.04.24-.18-.52-2.2-.66-2.8-.13-.58-.18-1.88-.86-3.23-.66-1.34-.93-.7-.93-.17 0 .54.8 3.15.8 3.15s0 .04.46 1.03zM273.72 286.67c1.03-2.12 2.2-4.68 3.15-5.98.94-1.32 1.62-2.8 1.62-2.8s-2.53 2.3-3.52 3.9c-1 1.63-1.62 3.2-2.07 4.96-.44 1.76-.22 2.02.82-.1zM283.7 288.47c.42-1.4.64-2.33.64-2.33s.4-1.34.18-1.43c-.22-.1-1.26.84-1.98 3.14-.72 2.3-1.8 5.62-1.57 5.75.22.13 2.33-3.74 2.74-5.13zM291.58 294.8c.45-.98.45-1.02.45-1.02s.8-2.6.8-3.15c0-.54-.26-1.17-.93.18-.68 1.36-.72 2.66-.86 3.25-.13.58-.9 2.6-.68 2.8.23.17.77-1.05 1.22-2.04zM267.14 318.8l-1.05-.62s-.64.84-1.54 1.8c-.9.94-1.9 1.3-2.58 2.2-.68.9-1.73 2-3.36 2.85-1.63.85-2.26 1.1-1.95 1.38.32.27 1.42-.36 1.42-.36s.47-.06 2.4-1.22c1.96-1.15 2.43-1.8 3.7-2.9 1.25-1.1 2.94-3.1 2.94-3.1zM275.66 328.9c.74-.8 1.52-1.33 1.1-1.75-.42-.42-.94-.37-1.63.2-.68.6-2.63 2.43-3.52 3.23-.88.8-1.62 1.26-2.5 1.95-.9.68-2.85 1.74-3.8 2.26-.95.52-.05.58-.05.58s.74-.37 1.52-.64c.8-.26 3.05-1.26 3.05-1.26s.9-.43 2.1-1.27c1.2-.83 3-2.52 3.74-3.3zM285.5 335.7c.62-1.27-.06-.9-1.1-.48-1.07.42-3.43 3-4.8 3.95-1.37.95-2.53 1.32-3.68 1.9-1.16.58-1.16.9-1.1 1.16.05.27.52.27 1 .05.47-.2 2.1-1.16 2.1-1.16s.68-.2 1.3-.26c.65-.05 1.54-.74 2.96-1.95 1.42-1.2 2.68-1.94 3.3-3.2zM290.07 344.7c-1.74 1.07-4.73 3.44-5.52 5.02-.8 1.6-1.32 2.7-1.06 2.95.26.27 1.1-.26 1.47-.9.37-.63 1.15-1.58 1.15-1.58s3-2.96 4.1-3.64c1.1-.7 2.9-2.64 3.32-3.8.42-1.16.1-1.8.1-1.8s-1.84 2.7-3.57 3.75zM341.43 325.04c-1.63-.84-2.69-1.95-3.37-2.85-.68-.9-1.68-1.28-2.58-2.22-.9-.95-1.52-1.8-1.52-1.8l-1.05.64s1.7 2 2.95 3.1c1.26 1.12 1.74 1.75 3.68 2.9 1.95 1.17 2.42 1.22 2.42 1.22s1.1.64 1.42.37c.32-.25-.3-.52-1.94-1.36zM334.75 334.8c-.95-.54-2.9-1.6-3.8-2.28-.88-.68-1.62-1.16-2.5-1.95-.9-.8-2.85-2.64-3.53-3.22-.7-.58-1.22-.63-1.64-.2-.42.42.37.94 1.1 1.74.75.78 2.53 2.46 3.74 3.3 1.2.85 2.1 1.27 2.1 1.27s2.27 1 3.06 1.27c.8.26 1.52.63 1.52.63s.9-.05-.05-.58zM324.13 341.07c-1.16-.58-2.3-.95-3.68-1.9-1.37-.95-3.73-3.54-4.8-3.96-1.04-.4-1.72-.78-1.1.5.64 1.26 1.9 2 3.32 3.2 1.42 1.22 2.3 1.9 2.95 1.96.62.05 1.3.26 1.3.26s1.64.95 2.1 1.16c.5.2.96.2 1-.05.07-.27.07-.58-1.1-1.16zM309.98 344.7c-1.73-1.05-3.57-3.73-3.57-3.73s-.3.63.1 1.8c.43 1.15 2.22 3.1 3.33 3.8 1.1.67 4.1 3.62 4.1 3.62s.8.94 1.16 1.58c.35.63 1.2 1.16 1.46.9.26-.27-.27-1.38-1.06-2.96-.78-1.58-3.78-3.96-5.52-5zM299.2 355.74c.16 1.2.05 4.27.8 4.27.73 0 .62-3.05.78-4.26.15-1.2.2-4.12.2-4.12h-2s.06 2.9.22 4.12z"/><path fill="#1d5e91" d="M345.2 183.88c-1.98-13.12 3.94-23.7 3.94-23.7l-12.3-13.7c-10.4 5.35-23.05 3.97-36.82-.8-13.77 4.77-26.4 6.15-36.82.8l-12.3 13.7s5.92 10.58 3.94 23.7c-1.97 13.12-5 27.98-4.4 36.7.03.6.1 1.2.18 1.82h11.2s.66-.76 1.9-1.3c1.25-.53 1.6-.9 1.6-.9s.25-2.25 1.6-2.73c1.38-.48 1.97-.48 2.5-.48.54 0 .95-.12 1.6-.78.66-.65 2.44-2.26 3.2-4.52.78-2.27 1.26-3.16 1.26-4.65 0-1.5.53-3.87.53-3.87s-.28-.7-1.4-.3c-1.14.42-1.32-.7-1.43-1.84-.12-1.13-.06-3.45.6-4.53s.88-1.42.88-1.42l-.48-1.78s-7.12 1.43-8.36-4.1c-1.24-5.55-1.48-8.23-1.66-8.82-.18-.6-.35-.9-1.3-.83-.96.05-2.97-.6-4.4-3.46-1.42-2.87-1.54-4.06-1.13-5.2.43-1.12 1.2-.7 1.44-.35.23.36 2.14 3.1 2.9 2.32.78-.77.36-.77-.7-2.9-1.07-2.16-.72-2.87-.6-3.95.12-1.07-.35-2.5-.35-3.1 0-.58.64-1.06 1.3-.77.65.3 1.24.78 1.54 1.14.3.34.4.88 1 .53.6-.36.24-2.33.24-2.98 0-.66.77-1.13 1.73-.6.95.54 1.43 1.55 1.43 2.26 0 .73.06 1.38.4 1.38.37 0 .8-1.07.85-1.8.05-.7.47-1.77 1.12-.88.66.9.9 2.2.66 3.58-.24 1.36.23.65-.24 3.03-.47 2.4-.7 3.47-.65 5.25.06 1.8.12 2.8 1 5 .9 2.2 1.6 4.77 3.27 4.83 1.66.06 2.14.06 2.14.06s1.84-3.58 3.26-4.4c1.43-.84 3.45-.97 4.87-1.14 1.44-.18 2.03-.6 2.03-.96s-.47-.47-2.2-.7c-1.72-.25-3.14-.67-3.2-1.98-.06-1.3.3-2.44-.83-2.5-1.13-.06-3.92-.95-4.93-2.8-1-1.84-.77-2.26-.65-3.27.12-1.02 1.42-3.05 2.26-1.14s1.36 2.14 2.07 2.56c.72.42 1.67.54 1.2-.78-.48-1.3-.78-2.14-.66-3.1.1-.95.76-1.36 1.53-1.54.77-.18 3.1-.9 4.28-1.13 1.2-.24 1.25-.36 1.25-.36s.12-.82 1.66-1.3c1.56-.47 2.57-.53 3.7-.53 1.12 0 1.95.18 3.44-.54 1.48-.7 2.67-.83 3.62-.77.95.06 1.66.42 2.37.9.72.47.48 1.12.48 1.78 0 .66.13 1 1.14 1 1 0 1.9 0 2.85.37.94.37 2.24.9 1.4 1.9-.82 1.03-.87 2.16-1.4 2.1-.54-.06-.5.53-.73.9-.23.35-.4.65.2 1 .58.36.64.72 1.47 1.5.83.77 2.08 1.6.83 2.85-1.24 1.25-3.44 2.26-3.44 2.26s-1.25.6.17 1.44c1.43.84 2.08 2.56 2.62 2.86.53.3 1.07.77 1.42.95.36.18.3 1.37.3 1.37s-.77.54-1.84.96c-1.07.4-2.2.9-3.2.9-1.02 0-1.55 0-1.13.94.4.95 1.13 1.97 1.3 2.5.18.54.42 1.5.42 1.5s1.65.35 3.13.35c1.5 0 2.14.06 5.4-.3 3.27-.35 4.22-.48 7.37-.12 3.15.36 3.62.24 4.45.54.83.3 1.66.7 1.66.7s4.46-.06 6.9-.6c2.43-.53 3.03-2.08 2.67-2.9-.35-.84-.3-2.1-4.57-2.7-4.27-.6-6-.35-9.38-1-3.38-.66-8.67-2.4-9.6-6.6-.97-4.24 2.48-6.02 4.2-6.86 1.72-.83 5.46-2.14 7.18-2.85 1.72-.73 4.87-1.44 8.2-.97 3.32.48 5.22 1.37 6.52.6 1.3-.78 2.38-.18 2.14 1-.23 1.2-1.54 3.64-5.28 4.77-3.74 1.13-8.25 1.25-10.7.6-2.42-.66-4.26-1.6-5.74-1.08-1.5.54-3.15 2.4-1.55 4.6 1.6 2.2 9.8 2.85 11.98 3.08 2.2.25 10.33-.35 12.65 3.7 2.3 4.05.47 8.57-2.26 9.58-2.73 1.02-5.04 1.67-7.12 1.97l-2.08.3s.95 2.14.95 3.04c0 .88-.12 2.54.9 3.2 1 .66 2.43 1.13 4.15.95 1.72-.17 3.8 1 3.92 2.56.1 1.56.58 3.7.76 6.8.18 3.1 0 5.66 0 5.66s-.12 1.2-.54 2.32c-.4 1.13-2.55 5.52-2.55 5.52h11.95c.1-.62.15-1.23.2-1.83.56-8.7-2.46-23.57-4.43-36.7z"/><path fill="#6d8c3e" d="M252.04 228.22c2.34 6.7 7.17 13.48 14.53 17.9 10.22 6.16 14.63 5.35 24.27 11.62 9.64 6.27 9.06 7.3 9.17 7.3.13 0-.45-1.04 9.2-7.3 9.63-6.28 14.04-5.46 24.26-11.62 7.35-4.42 12.18-11.2 14.52-17.9h-95.94z"/><path fill="#d4af3a" d="M260.4 176.5c1.1 1.15 1.9 1.5 3.58 1.33 1.68-.18 2.08 1.04 2.37 2.37.3 1.33.3 4.45 1.5 7.33 1.2 2.9 5.26 3.07 5.26 3.07.12-1.4.6-3.27 1.22-4.8.1-.27.63-1.56-.8-1.56s-1.4-.58-2.26-1.96c-.87-1.4-2.54-5.08-2.95-7.45-.4-2.37.36-5.9.76-7.17.4-1.27.47-2.13 0-2.36-.46-.24-1.38 0-1.38 0s.35 1.1-.06 1.27c-.4.17-.75-.58-1.04-1.4-.3-.8-.63-.68-1.2-.63-.6.06-.6.58-.18 1.16.4.58.17 1.62.17 1.62s-1.27-.93-1.8-1.16c-.5-.23-1.72.23-1.84.93-.12.68.46 2.47 1.56 3.4 1.1.92 1.1 2.82.74 3.7-.35.86-1.96.74-2.3.34-.36-.4-1.05-.52-1.5 0-.48.52-.94.8.16 1.96zM259.76 173.44s-.64-.52-.87-.8c-.24-.3-.7-.93-.7-.93s-.12.3-.12 1 .75 1.43.75 1.43l.93-.7zM262.2 165.4c.5-.22.9-.34.5-.9-.4-.6-.74-1.23-1.15-1.34-.4-.12-.75-.06-.75-.06s.47 1.04.58 1.68c.12.63.3.86.8.63zM265.2 162.98c-.07.52.05.75.5.52.47-.23.65-.87.4-1.33-.22-.46-.74-.8-.74-.8l-.34-.24s.23 1.33.17 1.85zM269.52 163.68c.06-.58-.17-1.2-.17-1.2s0 .68-.3 1.1c-.28.4-.22.28.06.62.3.35.36.06.42-.52zM276.3 193.03c.86 1.97 3.02-1.12 4.98-3.6 1.96-2.5 1.9-.6 1.63 1.43-.25 2.04.54 4.2 1.32 5.58s1.44.6 1.76-.4c.33-.97.6-3 1.25-4 .65-.98 1.3-.12 1.37.73s1.1 2.75 2.1 3.87c.97 1.1 1.43-.4 1.75-1.77.33-1.38.72-3.48.98-4.33.27-.85 1.18-.13 1.18-.13s.67.66 1.97 1.9c1.3 1.26 1.44-.7 1.57-1.7.13-.98-.2-3.14.2-3.47.4-.33 1.5.46 3.2 1.3 1.7.86 1.64-.78 1.44-1.7-.2-.9-1.18-3-2.55-4.2-1.37-1.17-1.57-2.55-1.1-3.14.45-.6 2.08-.07 3.13-.2 1.04-.14 1.57-.26 2.35-.4.8-.13.8-.9.8-.9s-.6-1-1.7-1.98c-1.12-1-1.77-1.77-3.14-2.1-1.38-.33-3.27 0-3.27 0l-.2-.4c-.2-.4-.6-.4-.86 0s-.9.93-1.44 1.38c-.52.46-.85.72-1.17.53-.33-.2.26-.66.26-.66s.7-.52 1.36-1.84c.66-1.3.85-2.56.33-3.14-.53-.6-1.97 0-2.76 0-.78 0-1.24.12-1.3-.28-.07-.4.78-.2 1.76-.33.98-.14 1.57-1.32 1.9-2.3.32-1 .6-.85 1.18-.26.58.6 1.1.46 1.24.06.12-.4.65-1.37 1.3-2.36.66-.98 1.05-2.36.33-3.28-.72-.92-2.5-.8-3.2-.2-.72.6-1.18 1.2-1.37 2.63-.2 1.43-.6.64-.6.18s-.58-1.18-.32-1.77c.26-.57 0-1.23 0-1.23s-.13-1.25-1.5-1.5c-1.38-.28-2.95.05-4.32.38s-1.1 1.5-1.1 1.5-1.06.08-2.17.2c-1.1.14-2.42.6-3.46.86-1.04.27-1.43.4-1.43.92 0 .53.2 1.38.2 1.38s.84 0 1.3.27c.46.26.2.72-.33.9-.52.2-.7.28-.7.93 0 .66.25.8.77.8s1.64 0 2.95.58c1.3.6 1.64 1.77 1.5 2.42-.13.66-1.96 1.5-2.87 1.5s-1.18.2-1.18.8c0 .6 1.1.53 1.1.53s1.12.06 3.28.32c2.16.26 2.5.72 3.47 1.57.98.86.26 1.05-.2 1.32-.46.26-1.18.85-1.9 1.1-.7.27-1.17.8-1.83.93-.65.13-2.3.07-5.3 1.25s-4.04 5.1-4.04 5.1.4-.12 1.76-.84c1.37-.72 3.07-1.5 4.64-2.5 1.57-.97 1.57.47.8 1.84-.8 1.38.7 1.12 1.16.72.46-.4 1.05-.78 2.55-1.57 1.5-.8.97.46.97.46s-.46.92-.58 3.08c-.15 2.18 2.14.14 3.2-1.23 1.03-1.38 1.5 0 .7 1.57-.78 1.58-2.28 2.82-3.13 2.82-.85 0-1.5-.92-1.57-1.44-.07-.53.26-2.1-.26-2.5-.53-.4-2.03.07-3.14.73-1.1.65-1.37.13-1.64-.46-.26-.6.4-.8.14-1.2-.27-.4-.85 0-1.3.2-.47.2-1.52.8-3.54 1.84-2.03 1.05-1.9 1.64-1.9 3.15 0 1.5.4 1.76 1.25 3.73z"/><path fill="#d4af3a" d="M295.92 160.2c.43-.26 1.2-.57 1.2-.57s.96-.23 1.85-.35c.9-.1.73-.62.54-1.04-.18-.43-.53-.58-1.68-.58-1.16 0-1.9.58-2.55.85-.66.28-1.43.47-1.43.47s.15.2.58.8c.42.63 1.08.7 1.5.44zM300.63 164.88c.46 0 .97-.27.97-.27s.84-.42 1.62-.7c.77-.26 1.08-.37 1.54-1.3.46-.93-.5-.93-1.85-1.27-1.34-.35-2 .1-2.15.6-.16.52-.12 1.1-.66 2.06-.55.96.06.88.53.88zM300.2 166.08c-1.3 0-2.77 1.97-3.3 2.32-.55.34-.24.7-.24.7s.38.8.54 1.57c.15.78.2 2.1.2 2.1s.18.07.96.07c.77 0 1.23-.4 1.97-.93s1.3-.73 2.35-.92c1.05-.2 1.54-.38 2.7-1 1.16-.62-.62-1.7-1.85-2.7-1.24-1-2-1.2-3.32-1.2zM282.75 170.6c1.04-.1 1.5-.63 1.5-1.2 0-.58-.53-1.2-1.85-1.1-3.25.3-6.4-.87-7-4.1 0 0-1.08 2.02.94 4.28 2.02 2.25 5.37 2.25 6.4 2.13zM271.67 221.82c.17.3.37.47.57.57h5c.84-.25.84-1.03.88-1.57.05-.64.55-2.47 1.24-5.78.7-3.3 1.87-5.68 2.36-7 .5-1.35-.5-1.8-.84-2.63-.34-.84-.88-2.32-1.03-3.06-.15-.75-1.33-.65-1.97-.6-.64.05-.74 1.1-.84 2.08-.1.98-.54 3.9-1.03 6.42-.5 2.52-3.35 5.88-4.13 6.62-.8.74-1.43 1.04-1.97 1.04-.55 0-1.73 0-2.32.35-.6.34-1.18 1.28-1.23 2.02-.05.73 1.14 1.13 1.14 1.13s.92-.55 1.27-1c.34-.44 1.13-.54 1.92-.68.77-.15.87.14.58.54-.3.38-.2.48.4 1.52zM264.03 221.58c-.38.13-.65.5-.82.82h3.26c-.04-.27-.12-.58-.3-.82-.4-.5-1.44-.25-2.13 0z"/><path fill="#d4af3a" d="M268.46 221.48c-.4.22-.88.57-1.12.92h3.5c.13-.33.17-.77-.26-1.12-.8-.64-1.58-.1-2.12.2zM298.88 220.03c-.38 0-.72.34-1.27.72-.54.38-.7.98-.8 1.45 0 .08 0 .15.02.2h1.5c.05-.05.1-.12.1-.2 0-.43.16-.8.8-1.36.63-.56.04-.8-.34-.8zM301.8 221.64c0-.47-.17-.9-.5-.85-.35.04-.9.63-1.36.97-.26.2-.45.44-.6.63h2.2c.13-.25.26-.54.26-.76z"/><path fill="#d4af3a" d="M315.34 205.47c1.06-.77.9-.98.93-1.78.04-.82.04-1.07-.38-1.37-.44-.3-2-.98-3.48-.98s-4.28.34-5.34 1.06c-1.06.74-1.56 3.33-1.56 4.68 0 1.36.2 1.57.6 1.57.37 0 1-.97 1-.97s1.4 1.82 2.25 3.1c.85 1.27.46 1.78.1 2.75-.4.98-1.8 3.57-2.9 4.12-1.1.55-1.94.04-3.25-.17-1.3-.2-2.04.17-2.8.93-.76.78-.04 1.38.43 1.38.46 0 1.1-.05 1.6.6.36.43.12 1.44-.06 2.02h6.48c1.1-.5 1.87-2 2.17-2.84.34-.93 1.73-2.16 2.4-2.8.7-.64.77-1.06.77-2.46s-.38-2.2-.9-3.18c-.5-.98-.88-2.38-.7-3.2.16-.8 1.56-1.7 2.62-2.45z"/><path fill="#d4af3a" d="M304.66 189.28c.65 1.05.33 1.25-.6 1.46-.93.2-1.94.36-3.4.24-1.45-.12-1.42.08-1.45.8-.03.74-.16 2.27-1 3.4-.86 1.14-1.9.7-2.55.25-.65-.45-1.02-.33-1.26.48-.25.82-.7 1.4-1.38 2.6-.7 1.2-1.13 1.25-1.62 1.13-.5-.12-.93-.85-1.42-.9-.48-.03-1.25-1-1.98-2.17-.72-1.17-1.1.12-1.57 1.13-.5 1-.97 1.73-1.9 1.6-.93-.1-1.98-1.85-2.5-2.9-.54-1.06-.86-2.07-1.67-2.03-.8.04-2.14 1.74-3.03 2.2-.9.43-1.13.27-1.54-.3-.4-.56-.94.2-1.46 1.54-.53 1.35.04 2.48.77 2.84.74.36 2.2-.7 3.16-1.33.97-.64 1.42-.48 2.43-.48 1 0 .92 1.66 1.36 4.08.45 2.43 1.86 2.75 1.86 2.75s.5.4 1.58-1.45c1.1-1.86 1.2-3.68 2.26-3.68 1.05 0 1.14.24 2.2 1.7 1.04 1.45 1.93 2.54 2.53 1.45.6-1.1 1.13-2.7 1.8-3.27.7-.57 1.35-.73.62.32-.73 1.05-1.05 2.18.44 1.74 1.5-.44 7.2-2.75 9.5-3.2 0 0 2.7-.44 5.83-.6 3.1-.16 3.87-.36 5.08-.36 1.2 0 1.25-.12 1.34-.93.07-.8-.57-.65-2.84-.65-2.26 0-3.84.28-5.4.53-1.6.24-2.32.2-2.04-.2.3-.4.73-.7 2.55-.97 1.8-.3 5.53-.5 7.47-.53 1.94-.04 1.34.56 1.17 1.86-.16 1.3.17 3.2.3 4.42.1 1.2.15 1.57 1.2 3.27s4.7 2.74 5.74 3.3c1.05.57.9 0 .85-1-.04-1 .8-.97 1.74-.45.93.53 2.46.97 3.55 1.26 1.1.3 1.26.5 1.26 1.06s.12 1.82.24 3c.12 1.16.08 1.52-.4 2.25-.5.74-2.55 2.84-2.55 2.84s-.93 0-2.9.5c-2 .48-2.6 1.4-2.8 2.2-.2.82.36 1.07.44 1.4.06.17.04.6.02.96h.45c.17-.28.4-.65.7-1.05.7-.9 2.44-1.1 3.57-.57.74.35.75 1.12.68 1.62h4.52c.6-1.18 2.06-4 2.44-4.86.5-1.1.77-1.77.8-3.27.05-1.5.2-7.28-.07-7.6-.27-.33.1-1.3 0-2.9-.07-1.63 0-2.84-2.98-3.13-3-.28-3.92-1.53-4.93-2.54-1.03-1-.78-3.36-1.6-6.2-.8-2.82-2.78-3.26-6.3-3.95-3.52-.7-6.1-.77-8.73-.52s-5.9.6-7.72.44c-1.82-.17-1.53.36-.9 1.4z"/><path fill="#d4af3a" d="M321.66 221.75c-.3.2-.5.43-.65.64h3.07c0-.27-.03-.57-.3-.9-.47-.55-1.36-.24-2.1.25zM327.13 221.55c-.5.25-.82.57-1 .85h3.08c.03-.12.02-.24 0-.36-.1-.5-1.03-1-2.07-.5zM250.8 223.48c.16.96.4 1.93.67 2.9h97.1c.27-.96.5-1.94.67-2.9H250.8zM316.2 177.1c3.08 2.04 12.82 2.15 17.4 3.07 4.56.9 4.24 4.4 2.84 6.24-1.4 1.84-7.83 2.06-8.98 2.2.62.44 1.56 1.8 1.56 1.8l2.63-.23c1.94-.16 5.33-.64 7.64-2.58 2.3-1.94 2.14-5.06.1-7.16-2.04-2.1-5.43-2.32-8.88-2.7-3.44-.37-6.13-.64-10-1.3-3.88-.63-5.76-2.2-5.76-4.45 0-2.27 2.1-3.45 3.6-3.9 1.5-.4 3.93-1.06 6.08-.26 2.16.8 4.68.92 8.94.38 4.25-.54 5.22-3.5 5.22-3.5s-.54.27-2.7.33c-2.15.05-3.7-.92-7.63-.97-3.94-.06-5.33 1.35-7.16 2-1.82.64-6.72 1.12-8.17 4.3s.22 4.67 3.28 6.72z"/><ellipse rx=".98" transform="matrix(1.9 0 0 1.9 -300 -120)" ry=".96" cy="150.64" cx="315.04" fill="#b96b29"/><path fill="#b96b29" d="M330.04 165.53c-2.42-.2-5.6.43-5.6.43s.6.5 1.4.43c.8-.06 2.26-.12 4.63.3 2.37.44 4.1-.7 4.1-.7s-2.1-.25-4.53-.47z"/><path fill="#d4af3a" d="M407.9 274.36c1.96.45 17.96 3.5 19.3 3.8 1.35.3 2.47.6 2.85.24.37-.38.6-.6 2.02-1.13 1.42-.52 1.34-1.94 1.34-1.94s.4-1.35.53-2.7c.16-1.34.9-1.8 2.47-.14 1.57 1.63 1.87 4.02 2.17 6.35.3 2.3 3.97 2.9 5.38 3.14 1.43.2 2.1-.24 2.92-1.58.82-1.35 1.27-4.04 1.5-5.76.22-1.72.07-1.57-1.72-2.02-1.8-.45-10.1-2.32-11.6-2.7-1.5-.37-1.2-1.34-.97-2.4.23-1.03 3.52-11.58 3.52-11.58-2.34-1.45-5.64-2.3-9.57-2.76 0 0-2.4 10.76-2.85 12.4-.44 1.65-1.5 1.65-3.2 1.35-1.73-.3-14.15-3.2-14.15-3.2l-.97 2.3c-.97 2.32-1.42 5.1-1.42 6.5 0 1.43.53 1.36 2.47 1.8z"/><path fill="#d4af3a" d="M450.38 284.1c-1.65-1.1-2.86-1.37-3.72.63-.86 2-.93 4.95-3.08 7.03s-5.16 4.23-8.16 4.02c-3-.22-4.73-.94-4.02-4.38.72-3.44 5.3-4.5 6.38-6.3s.8-3.88-.8-5.24c-1.57-1.36-3.86-1.65-4.5-1.22-.64.43-2.5 2-3.44 4.6-.93 2.57-1.5 4.65-3.5 6.3-2 1.65-7.16 3.3-11.17 2.36-4-.93-5.44-2.15-6.95-6.1-1.5-3.93-3.3-10.46-4.08-11.17-.78-.72-1.8-1.3-3.5-.08-1.72 1.22-1.87 3.02-2.08 4.45-.22 1.43 0 3.1 1.72 5.17 1.7 2.07 3.5 4.15 4.15 6.3.65 2.15 2.58 5.45-.14 5.6-2.73.14-3.95.2-6.03-1.8-2.07-2-10.17-7.53-12.38-9.32-2.23-1.8-3.16-2.37-3.16-2.37-3.75-.06-7.5-1.6-11.24-4.15 0 0 2.15 5.52 2.58 7.6.43 2.07.35 3.22.35 3.22s8.16 4.16 11.4 5.74c3.2 1.56 9.72 5.3 12.87 7.23 3.15 1.94 5.8 4.95 11.38 3.8 5.6-1.15 16.9-4.6 20.55-5.66 3.65-1.08 13.75-3.6 17.47-6.17 3.72-2.58 4.08-2.44 4.72-5.02.65-2.58 0-4.02-1.64-5.1zM428.83 245.48c.62-.08.87-.17 2.77-.4 1.9-.27 1.2 1.56.87 2.27-.33.7-.9 2.1-1.7 3.43-.78 1.34.25 1.54.8 1.75.53.2 1.32.3 2.85.7 1.53.42 1.24-.7 1.28-1.28.04-.58.12-3.6.3-4.7.16-1.06 1.15-.77 1.52-.57.38.2 1.33.74 2.12 1.16.78.42 1.15-.04 1.32-.5.17-.45.54-1.28.87-2.48.33-1.2-.4-.96-1.16-.96-.75 0-1.82 0-3.07-.04-1.24-.04-.45-1.24-.45-1.24l1.6-2.6c.72-1.13.47-1.3-.24-1.5-.7-.22-2.88-.7-3.5-.88-.62-.16-.9-.08-.9.33s-.1 2.57-.1 3.4c0 .83-.08 1.33-1.16 1.37-1.07.04-1.74-.58-2.6-1.53-.87-.95-1.24-.57-1.33-.2-.07.37-.78 3.1-.94 3.86-.17.74.25.7.87.62z"/><path fill="#d4af3a" d="M366.66 275.83c-1.2-1.27 1.87-1.32 3.7-1.32 1.8 0 4.8-.95 5.74-1.56.97-.6 2.63-.9 4.6-1.87 1.97-.97.76-1.27-1.26-1.77s-7.42-2.8-7.42-2.8-2.63 1.43-4.1 2.3c-1.46.85-3.43 2.07-6.6 2.47s-4.15.56-4.3.66c-.16.1.75.86 1.96 2.6 1.22 1.7 1.72 2.82 3.24 5.4 1.5 2.6-.26 1.07-1.52-.55-.7-.9-2.3-3.07-3.78-4.6-1.15-1.2-2.33-1.94-2.33-1.94l-1.02 2.18v.76c0 .7-.6 4.2-.8 5.62-.2 1.43.34 1.43 1.45 1.93 1.12.5 3.34 1.77 9.3 5.52 5.96 3.75 8.18 6.23 8.18 6.23s.2-1.62.2-3.24-.04-4.9-1.35-8.6c-1.3-3.7-2.68-6.14-3.9-7.4z"/><path fill="#d4af3a" d="M352.83 267.55c1.4.28 1.96.63 3.9.63s2.8-.63 4.84-.63c2.02 0 3.42-.7 6.7-2.44 3.3-1.74.15-1.26-2.16-1.05-2.3.2-8.3-.7-10.9-1.68-2.58-.97-.7-1.1 0-.9.7.2 1.06.42 6.23 1.32 5.17.9 7.06-.28 9.7-.98 2.68-.7-.6-1.05-.6-1.05s-9.38-2.66-14.07-7.9c-3.58-4-4.8-7.7-5.16-9.2-1.84 2.17-3.88 4.07-6.02 5.73.17.73.48 1.93.98 3.04.76 1.76 3 4.06 3 4.06s-2.8-1.12-4.05-2.45c-.86-.9-1.62-2.3-2.02-3.1-3.07 2.13-6.25 3.84-9.17 5.25.36.28.8.64 1.28 1.07 1.26 1.12 2.44 2.6 4.05 5.17 1.6 2.6.14 2.38-1.33 0-1.46-2.37-5.1-4.82-5.8-5.17l-.27-.1-1.1.5c-2 .9-3.86 1.68-5.65 2.43 1.2.97 3.97 3.68 4.92 5.07 1.05 1.54 3.22 2.94 4 4 .76 1.03 1.6 2.22 2.65 3.48 1.05 1.26 7.34 8.32 9.02 10.98 1.68 2.65.7-.7.28-2.52-.42-1.8-1.06-4.4-1.6-6.42-.57-2.03.62-1.2.83-.07s.5 1.2.98 3.36c.5 2.17 1.74 5.4 2.3 7.62.56 2.24.77 1.2 1.33.14.55-1.05 1.4-2.86 1.74-3.98.35-1.12.63-3.64.7-7.48.07-3.85-1.82-5.4-1.82-5.95 0-.54.9-1.03 2.3-.75zM379.78 275.9c-.57.24-2.45.87-3.32 1-.88.12-1.5.18-1.5.18s1.75 2.46 4.38 2.46h7.6s-4.6-2.7-5.16-3.33c-.56-.63-1.44-.56-2-.3zM434.84 272.64s-.08 2.17-.3 2.92c-.23.75-.75 1.87.15 2.16.9.3 1.7.68 2.23.53.53-.15.3-1.2 0-2.1-.3-.9-.75-2.02-1.42-2.76l-.66-.76zM448 281.3c.3.68.9.83 1.34.98.45.15 1.05.15 1.05-.67s.13-1.86-.54-2.76c-.67-.9-1.03-1.55-1.42-.22-.4 1.33-.75 2.02-.45 2.7zM402.15 272.56c.37.07 1.8.52 1.8.52s0-2.1.3-3.5c.3-1.43.9-2.4.37-2.4s-.82.45-1.2 1.04c-.37.6-1.42.75-1.8 2.47-.37 1.7.16 1.8.53 1.86z"/><path fill="#b96b29" d="M221.08 213.5c-1.5 1.15-3.47 1.62-3.47 1.62s-.93-.05-.93.3c0 .37 1.1 0 2.23-.2 1.14-.2 2.7-1.35 3.27-1.76.57-.42 1.4-.94 1.14-1.66-.25-.73-.72.57-2.22 1.7zM234 220.42c-.32.36-2.8 2.23-2.8 2.23s-.8.52-1.62.83c-.83.3-1.03.78-1.03.78s.15.2 1.03-.05 3.48-2.07 4.3-2.8c.83-.73 1.2-.93.9-1.24-.32-.3-.48-.1-.8.26zM181.62 127.36c.47.57 1.03 1.34 1.3 1.08.25-.25-.06-.5-.68-1.24-.62-.72-.98-1.08-.98-1.08s-.88-1.4-1.4-1.9c-.5-.53-1.28-.8-.3.4.98 1.2 1.6 2.17 2.06 2.74zM177.65 136.1c.57.5 1.08.97 1.7 1.64.62.67 1.08 1.4 1.44 1.04.36-.37-.93-1.14-1.5-1.86-.57-.73-1.03-1.2-1.75-1.76-.73-.57-1.6-1.03-1.6-1.03s1.13 1.44 1.7 1.96zM179.14 150.16c.98 1.04 2.44 1.35 2.64.94.2-.42-.1-.75-.93-1.17-.82-.4-2.16-1.3-2.83-1.75-.67-.47-1.34-.98-1.8-1.45-.47-.46-1.02-.88-1.2-.72-.17.17 1.37 1.82 1.84 2.08s1.3 1.04 2.28 2.08zM182 161.43c0-.4.1-.62-.74-.68-.83-.05-1.97-.2-1.97-.2s-1.62-.62-1.72-.3c-.1.3 1.35.92 1.97 1.03.62.1 1.4.3 1.76.5.38.22.7.06.7-.35zM183.23 173.68c-1.76 0-3.27-.42-3.37-.16-.1.26.83.68 1.7 1 .9.3 2.55.4 3.7.46 1.14.05 1.34-.2 1.3-.78-.06-.57-1.57-.52-3.33-.52zM197.02 187.08c-.26-.26-.88-.05-1.87.16-.98.2-2.6.52-3.52.47l-2.96-.1s-1.14 0-1.14.26 1.5.2 3.68.47c2.2.26 3.64-.2 4.68-.37 1.04-.15 1.4-.62 1.14-.88zM202.73 196.64c-1.1.42-1.87.52-2.7.52-.82 0-2.8.36-2.8.36s-.93.1-.77.47c.15.35.46 0 1.3-.1.82-.12 1.44 0 2.9-.07 1.45-.05 2.28-.4 3.16-.57.88-.15 1.86-.62 1.4-1.2-.47-.56-1.4.16-2.5.58zM213.82 203.85c-.62.62-3 2.23-3 2.23s-.47.37-1.4.83c-.94.48-.9.7-.73.95.14.26.7-.36 1.23-.57.52-.2 2.23-1.36 3.1-2.08.9-.73 2.03-1.3 1.82-1.82-.2-.52-.4-.15-1.03.47zM195.36 110.38s.2.47 2.12 2.87c1.92 2.4.9.14.4-.48-.47-.6-3.27-4.58-4.23-5.68-.96-1.1-1.1-.55-.6.13.47.68 2.3 3.15 2.3 3.15zM191.32 122.7c.27-.28-.34-.56-1.44-1.92-1.1-1.37-3.28-4.18-3.28-4.18s-.62-1.3-.82-1.16c-.2.14.75 2.2 1.64 3.08.9.9 2.05 2.6 2.67 3.35.6.75.95 1.1 1.22.82zM196.63 145.75c0-.67-2.17-.57-3.14-.77l-2.75-.57s-2.06-.35-2.1-.1c-.07.26.4.52 1.53.73 1.14.2 2.84.72 4.13.93 1.3.2 2.33.46 2.33-.2zM191.32 133.3c1.44 1.15 2.4 1.7 3.15 2.1.75.42 1.36 1.04 1.78.56.4-.48-.35-.82-1.58-1.37-1.23-.56-1.84-1.04-1.84-1.04s-.7-.34-1.3-.68c-.62-.34-1.65-.75-.2.4zM203.7 125.08c-.9-.75-1.64-1.17-1.64-1.17s-1.1-1-1.3-.67c-.2.34 1.23 1.37 1.9 1.98.7.63 1.93 2.4 2.54 2.07.62-.34-.6-1.44-1.5-2.2zM195.62 157.22l-1.97.52c-.78.2-.83.57.57.57s1.97-.35 3.37-.62c1.4-.25 1.86-.4 1.65-.88-.2-.47-.93-.3-1.5-.15l-2.13.57zM197.8 168.85c-.1.26.98 0 1.7-.26.74-.27 2.24-1.05 3.12-1.3.88-.27.88-.42.88-.94s-.93-.1-2.07.26c-1.14.36-2.6 1.5-2.6 1.5s-.93.47-1.03.73zM212.78 175.92c1.04-.63 1.25-1.1.88-1.4-.36-.3-.67-.26-1.5.4-.83.7-2.44 1.83-2.44 1.83s-.83.3-1.45.62c-.62.3-1.4.83-1.2 1.15.2.3 1.5 0 2.2-.58.66-.57 2.48-1.4 3.5-2.02zM219.84 185.26c.4-.37 1.66-.78 2.23-1.2.57-.4.93-1.66.47-1.8-.47-.17-.73.5-1.7 1.23-1 .72-4.37 2.95-4.37 2.95s.05 0-.88.37c-.95.36-.53.62.25.52.78-.1 1.3-.1 2.23-.83.93-.72 1.34-.88 1.76-1.24zM230.3 194.14c.9-.36 2.2-1.5 2.8-2.07.63-.58 1.4-1.3.94-1.67-.46-.36-.98.1-1.7.78-.73.68-2.65 2.7-2.65 2.7s-.27.05-1.3.88c-1.05.83.04.68.4.32.37-.37.63-.58 1.5-.94zM382.4 215.12s-1.98-.47-3.5-1.6c-1.5-1.15-1.95-2.45-2.2-1.72-.27.73.56 1.25 1.13 1.66.57.42 2.12 1.56 3.26 1.77 1.13.2 2.22.57 2.22.2 0-.36-.93-.3-.93-.3zM370.42 223.48c-.83-.3-1.6-.83-1.6-.83s-2.5-1.87-2.8-2.23c-.32-.36-.47-.57-.8-.26-.3.3.07.52.9 1.24.83.73 3.42 2.55 4.3 2.8.88.27 1.04.06 1.04.06s-.2-.47-1.04-.78zM418.37 127.36c.47-.57 1.08-1.55 2.07-2.74.97-1.2.2-.93-.3-.4-.53.5-1.4 1.9-1.4 1.9s-.37.36-.98 1.08c-.62.73-.93 1-.68 1.24.26.26.83-.5 1.3-1.08zM419.2 138.78c.36.36.82-.36 1.45-1.03.6-.67 1.13-1.14 1.7-1.65.56-.52 1.7-1.97 1.7-1.97s-.88.47-1.6 1.04c-.73.56-1.2 1.03-1.76 1.75-.57.72-1.86 1.5-1.5 1.86zM424.98 146c-.18-.15-.73.27-1.2.74-.45.46-1.12.97-1.8 1.44-.67.47-2 1.34-2.83 1.76s-1.14.74-.93 1.16c.2.4 1.66.1 2.64-.94 1-1.04 1.82-1.82 2.28-2.07.47-.28 2-1.93 1.84-2.1zM420.7 160.55s-1.13.15-1.96.2c-.83.06-.73.27-.73.68s.33.57.7.36c.35-.2 1.13-.42 1.75-.52.62-.1 2.07-.73 1.97-1.04-.1-.3-1.7.3-1.7.3zM416.77 173.68c-1.76 0-3.26-.05-3.32.52-.05.57.16.83 1.3.78 1.14-.05 2.8-.16 3.68-.47.88-.3 1.82-.72 1.7-.98-.1-.26-1.6.16-3.36.16zM411.33 187.6s-2.02.05-2.96.1c-.93.06-2.54-.26-3.53-.47-.98-.2-1.6-.4-1.86-.15-.26.26.1.73 1.14.88 1.04.16 2.5.63 4.67.37 2.16-.26 3.67-.2 3.67-.47 0-.26-1.14-.26-1.14-.26zM402.77 197.52s-1.97-.36-2.8-.36c-.83 0-1.6-.1-2.7-.52-1.08-.42-2-1.14-2.48-.57s.5 1.04 1.4 1.2c.87.15 1.7.5 3.15.56 1.45.06 2.08-.05 2.9.06.84.1 1.14.45 1.3.1.15-.38-.78-.48-.78-.48zM390.58 206.92c-.93-.47-1.4-.83-1.4-.83s-2.38-1.62-3-2.24c-.63-.62-.84-1-1.05-.47-.2.5.94 1.08 1.82 1.8.88.73 2.6 1.88 3.1 2.1.53.2 1.1.8 1.25.56.16-.26.2-.47-.72-.94zM402.52 113.25c1.9-2.4 2.12-2.87 2.12-2.87s1.84-2.47 2.33-3.15c.48-.68.34-1.23-.62-.14-.96 1.1-3.76 5.05-4.24 5.67-.47.62-1.5 2.87.42.48zM414.22 115.43c-.2-.14-.82 1.16-.82 1.16s-2.2 2.8-3.3 4.17c-1.08 1.36-1.7 1.64-1.42 1.9.27.28.6-.06 1.23-.8.62-.76 1.8-2.47 2.68-3.36.9-.88 1.84-2.93 1.64-3.07zM403.37 145.75c0 .67 1.03.4 2.32.2 1.28-.2 2.98-.72 4.12-.92 1.13-.2 1.6-.47 1.54-.73-.05-.26-2.1.1-2.1.1l-2.75.58c-.96.2-3.13.1-3.13.77zM408.47 132.88c-.62.34-1.3.68-1.3.68s-.6.48-1.85 1.03c-1.22.54-1.98.88-1.57 1.36.4.48 1.03-.14 1.78-.55.75-.4 1.7-.95 3.15-2.1 1.43-1.17.4-.76-.2-.42zM394.8 127.27c.6.34 1.84-1.44 2.52-2.05.68-.62 2.12-1.64 1.92-2-.2-.33-1.3.7-1.3.7s-.75.4-1.64 1.16c-.9.76-2.12 1.85-1.5 2.2zM402.4 157.7c1.4.25 1.97.62 3.37.62 1.4 0 1.35-.37.57-.58l-1.97-.52-2.12-.57c-.58-.15-1.3-.3-1.5.16-.22.48.25.63 1.65.9zM401.16 168.13s-1.45-1.14-2.6-1.5c-1.13-.37-2.07-.8-2.07-.27 0 .52 0 .68.88.94.88.26 2.38 1.04 3.1 1.3.73.25 1.82.5 1.72.25-.1-.25-1.04-.72-1.04-.72zM391.72 177.37c-.62-.3-1.45-.62-1.45-.62s-1.6-1.14-2.43-1.82c-.84-.67-1.14-.73-1.5-.42-.37.33-.16.8.87 1.42 1.05.62 2.86 1.45 3.54 2.02.67.57 1.97.88 2.18.57.2-.3-.58-.82-1.2-1.13zM384.4 186.82c-.92-.36-.87-.36-.87-.36s-3.37-2.23-4.36-2.96c-.98-.73-1.24-1.4-1.7-1.25-.47.16-.1 1.4.46 1.82.57.42 1.82.83 2.23 1.2.4.36.83.5 1.76 1.24s1.45.74 2.23.84c.78.1 1.2-.16.26-.52zM371.6 194.77c-1.03-.83-1.28-.88-1.28-.88s-1.92-2.04-2.65-2.72c-.73-.67-1.24-1.13-1.7-.77-.48.37.3 1.1.92 1.67.6.57 1.9 1.7 2.8 2.08.88.36 1.13.57 1.5.93.36.36 1.45.52.4-.3z"/><path fill="#d4af3a" d="M299.97 69.12c-7.06.12-15.35-.85-19.9-2.55l-4.86 1.07c7.52 2.83 13.8 3.93 24.77 4.04 10.97-.1 17.25-1.2 24.76-4.04-1.62-.35-3.24-.7-4.86-1.07-4.56 1.7-12.84 2.67-19.9 2.55zM325.65 63.24c-.56-.47-3.77-2.76-4.6-3.18-.85-.42-.2-1.54-.06-2 .13-.48 3.76-1.5 5.77-2.02 2-.5 1.68-.93 1.68-.93s-1.17-1.35-8.44-2.14c-7.25-.8-20-.6-20-.6s-12.78-.2-20.04.6c-7.27.8-8.43 2.15-8.43 2.15s-.33.43 1.67.94c2 .52 5.64 1.54 5.78 2 .14.48.8 1.6-.05 2.02-.83.42-4.05 2.7-4.6 3.18-.57.47-.6 1.2.27 1.26.9.04.9.03 3.4-.47 7.48-1.5 14.52-1.9 22-2 7.46.1 14.5.5 21.98 2 2.5.5 2.5.5 3.4.47.87-.05.83-.8.27-1.26z"/><path fill="#d4af3a" d="M277.18 58.1l-4.97-1.27-3.17 2.55 3.93 1.72M330.9 59.38l-3.2-2.55-4.97 1.28 4.2 3M317.38 66.32c-4.98-.6-8.15-1.23-17.38-1.15-9.23.08-12.4.56-17.38 1.15 3.14 1.26 8.22 1.9 17.38 1.9 9.16 0 14.24-.64 17.38-1.9z"/><path fill="#1d5e91" d="M307.02 210.72c-.6-.93-.76-.85-1.44-.25-.68.6-1.36-1.45-1.45-2.72-.08-1.27.5-5.17.5-5.17s-3.3.68-5.08 1.27c-1.78.6-3.47.76-4.92 1.1-1.44.35-2.2.68-2.96.5-.77-.16-2.38-.24-3.65-.24s-1.2.26-2.46 1.53c-1.27 1.27-1.6 1.95-2.63 4.33-1.02 2.37-1.36 4.58-1.7 7.46-.22 1.9-.58 3.2-.8 3.87h15.2c.17-.5.4-1.1.6-1.56.4-.88 1.25-1.44 1.85-1.72.6-.28 1.1-.28 1.4-.95.27-.68 1.03-1.24 1.82-1.6.8-.35 2.2-.16 3.47.2s1.7-.52 2.07-1c.36-.47.52-1.15 1.2-2.02.67-.88.16-1.68.16-1.68s-.6-.42-1.18-1.35zM331.4 211.12c-.2-.88-.1-1-.63-1.12-.5-.12-1.4-.28-2.15-.6-.75-.3-.67 1.72-.67 1.72s-1.8.2-3.83-.04c-2.03-.24-4.42-2.07-5.25-2.67-.84-.6-1.76-1.94-1.76-1.94s-.62.6-1.26.96-1 1.63-1.12 2.9c-.12 1.28 1.48 2.83 1.6 4.1.12 1.28-1.4 3.83-2.15 4.87-.52.7-1.2 2.2-1.56 3.1h7.35c.15-.38.4-.86.8-1.24.74-.76 2.02-.92 2.02-.92s0-.32.28-1c.27-.67 1.03-1.47 2.86-2.18 1.85-.72 4.04-.84 4.04-.84s.87-.72 1.5-1.7c.65-1 .17-2.52-.03-3.4z"/><path fill="#d4af3a" d="M298.7-5.63l-.24 3.55 3.8-.3-.35-3.34 4.1.57.17-3.28-4.3.4.75-3.55-4.72-.05.82 3.6-4.16-.4v3.28M306.77 3.3h-5.1v-4.36c-.5-.1-1-.15-1.52-.15-.46 0-.9.03-1.34.1v4.4h-5.27c-.18.56-.28 1.15-.28 1.76 0 .24 0 .5.05.74h13.68c.04-.25.05-.5.05-.75 0-.6-.1-1.2-.27-1.75z"/><path fill="#1d5e91" d="M300.15 11.3c3.04 0 5.62-1.78 6.53-4.26H293.6c.93 2.48 3.5 4.27 6.55 4.27zM302.97-.66v3h3.4c-.7-1.33-1.92-2.4-3.4-3zM297.32-.66c-1.48.6-2.7 1.67-3.4 3h3.4v-3z"/><path fill="#b96b29" d="M304.06 54.96c-1.3-.6-4.1-1.8-4.1-1.8l-4.13 2.04c-1.45.72-1.26.5-1.7 1.57-.46 1.06.03 1.44.67 1.72.63.27 5.23 2.62 5.23 2.62l5.65-2.63c1.1-.53.9-1.05.6-1.85-.32-.8-.93-1.08-2.22-1.7z"/><ellipse rx="2.15" transform="matrix(1.9 0 0 1.9 -300 -120)" ry="2.07" cy="94.72" cx="327.17" fill="#b96b29"/><ellipse rx="2.15" transform="matrix(1.9 0 0 1.9 -300 -120)" ry="2.07" cy="94.72" cx="312.78" fill="#b96b29"/><path fill="#d4af3a" d="M299.96 54.17l-4.38 2.13 4.5 2.3 4.44-2.3"/><ellipse rx="1.29" transform="matrix(1.9 0 0 1.9 -300 -120)" ry="1.24" cy="94.28" cx="327.17" fill="#d4af3a"/><ellipse rx="1.29" transform="matrix(1.9 0 0 1.9 -300 -120)" ry="1.24" cy="94.28" cx="312.78" fill="#d4af3a"/><path fill="#d4af3a" d="M278.07 44.27c1.03.38 2.38.2 2.38.2s.4-1.77-.58-2.64c-.98-.87-1.87-1.5-2.45-2.08-.58-.58-.72-.77-.72-.77s0 1.54-.07 2.5c-.07.98.4 2.4 1.44 2.8z"/><ellipse rx=".39" transform="matrix(1.9 0 0 1.9 -300 -120)" ry=".37" cy="88.65" cx="309.44" fill="#d4af3a"/><path fill="#d4af3a" d="M274.7 45.47c-.3.43-.98 1.13-.98 1.13s.8.03 1.5.5c.66.5 1.53.9 2.32.8.8-.1 1.13-.84.96-1.37-.17-.53-.55-1.08-1.85-1.57-1.3-.48-1.64.07-1.95.5z"/><path fill="#d4af3a" d="M277.52 50.17c-2.53.22-5.87-2.57-5.87-2.57-.3 2.25-1.7 3.4-3.82 3.84l.2.1s1.97 1 4.3 1.36c1.06.16 2-.02 3.13-.25 1.37-.28 2.9-.67 3.74-1.18 1.53-.94 1.07-3.38 1.07-3.38s-.22 1.84-2.75 2.07zM267.67 47.63c-1.04-.4-2.6-1.14-3.24-1.17-.65-.03-1.6-.2-1.43 1 .16 1.2 1.4 1.8 2.6 1.83 1.2.02 1.8-.43 2.52-.8.72-.35.6-.48-.45-.87zM259.76 43.34c-1.13-.8-2.14-1.04-2.14-1.04s-.74 1.95-.32 3.16c.42 1.2 1.3 1.52 2.36 1.5 1.07-.04 2.66-.6 2.2-1.4-.45-.82-.96-1.4-2.1-2.22z"/><ellipse rx=".47" transform="matrix(1.9 0 0 1.9 -300 -120)" ry=".34" cy="90.04" cx="299.09" fill="#d4af3a"/><path fill="#d4af3a" d="M263.2 39.12c-.7-3.32-.57-6.94 2.58-11.55 3.15-4.62 8.64-6.48 8.64-6.48s.17-.36 1.92-2.23 5.3-4.2 5.3-4.2-4.12 1.02-6.47 1.77v.12c0 1.6-1.26 2.9-2.83 2.9-.6 0-1.15-.2-1.6-.52-1.28.25-5.53 2.78-6.6 3.7.26.43.4.95.4 1.5 0 1.6-1.25 2.9-2.82 2.9-.47 0-.9-.12-1.3-.32l-.36.6c-.9 1.65-1.55 3.22-2.03 4.66.73.5 1.2 1.43 1.2 2.5 0 1.6-1.06 2.88-2.4 2.9-.08.93-.08 1.58-.04 1.86.1.93.46 1.52 2.1 1.98 1.63.47 3.84 3.33 3.84 3.33.16 0 1.33-2.1.47-5.43z"/><path fill="#d4af3a" d="M273.26 17.82c.6-.48.7-1.22.23-1.64-.48-.43-1.35-.38-1.94.1-.6.5-.7 1.24-.23 1.66.47.42 1.34.38 1.93-.12zM262.7 24.97c.66-.6.78-1.54.25-2.07-.54-.53-1.5-.47-2.18.14-.68.6-.8 1.54-.26 2.07.54.54 1.52.48 2.2-.13z"/><ellipse rx=".87" transform="matrix(1.9 0 0 1.9 -300 -120)" ry=".86" cy="82.11" cx="296.74" fill="#d4af3a"/><path fill="#d4af3a" d="M291.64 11.28c-.85.2-2.42.7-4.76 1.93h.04c1.63 0 2.9 1.05 2.9 2.4 0 1.35-1.48 2.82-3.1 2.82s-2.75-1.42-2.75-2.77c0-.32.07-.62.2-.9-.7.43-1.43.9-2.22 1.44-5.2 3.5-6.42 5.18-9 9.97-2.56 4.78-3.5 10.03-2.38 13.13 1.1 3.1 5.2 3.73 5.25 3.73.06 0-.47-.46-.53-1.04-.06-.6.1-.9.3-2.06.16-1.16.04-2.57.04-2.57s.94-.1 1.46.53c.53.64 1.3 1.4 1.8 2.04.54.64 1.94 1.87 1.94 1.87s.82-1.16.82-2.56c0-1.4-.94-2.92-1.1-5.37s1.1-6.83 3.5-10.04c2.38-3.2 6.88-6.13 8.22-6.77 1.34-.64 1.57-1.63 1.63-2.22.07-.58.2-1 .3-2.45.12-1.47-1.22-1.4-2.56-1.12z"/><path fill="#d4af3a" d="M286.47 16.82c.92 0 1.75-.82 1.75-1.58 0-.76-.7-1.34-1.63-1.34-.93 0-1.67.6-1.67 1.37s.62 1.55 1.54 1.55zM294.2 47.34c1.26.5 2.68.23 3.34-.22.67-.45.9-1.58.1-2.23-.78-.66-1.95-.63-2.68-.23-.73.4-2.37 1.56-2.37 1.56s.36.6 1.6 1.1z"/><path fill="#d4af3a" d="M298.2 48.75c-.44.7-.78 1.12-2.17 1.18-1.4.06-2.9-.03-3.8-.94-.9-.92-1.55-2.2-1.55-2.2l-1.57-.02s-.5 2.18-1.2 2.78c-.7.6-3.1.7-4.17-.1s-2.02-1.75-2.2-1.62c-.18.12 0 .9 1.1 1.85 1.07.92 1.83 1.5 3.58 1.5h9.98s2.03.12 2.6-1.1c.58-1.2.6-1.96.34-2.26-.27-.3-.46.2-.9.9z"/><path fill="#d4af3a" d="M283.06 47.06c1.5.83 2.32.32 2.87-.35.54-.65.64-.96.64-.96s-1.4-.5-2.1-.9c-.68-.4-1.15-.8-1.83-.72-.7.08-.8.18-.8.18s-.27 1.93 1.22 2.76zM302.3 44.9c-.8.64-.56 1.77.1 2.22.67.44 2.08.73 3.34.22 1.25-.5 1.6-1.1 1.6-1.1s-1.63-1.17-2.35-1.57c-.74-.4-1.9-.43-2.7.22z"/><path fill="#d4af3a" d="M316.2 49.48c-1.06.78-3.48.7-4.17.1-.7-.62-1.2-2.8-1.2-2.8l-1.58.03s-.64 1.28-1.54 2.2c-.9.9-2.4 1-3.8.93-1.4-.06-1.72-.48-2.18-1.18-.45-.7-.63-1.2-.9-.9-.27.3-.24 1.05.33 2.26.57 1.22 2.6 1.1 2.6 1.1h9.97c1.75 0 2.5-.57 3.6-1.5 1.1-.95 1.27-1.74 1.1-1.86-.2-.12-1.17.84-2.22 1.64z"/><path fill="#d4af3a" d="M315.46 44.83c-.68.4-2.1.9-2.1.9s.1.32.65.98c.55.68 1.38 1.2 2.88.36 1.5-.83 1.2-2.76 1.2-2.76s-.1-.1-.78-.18c-.7-.08-1.15.3-1.84.7zM323.3 41.5c-.06-.98-.06-2.52-.06-2.52s-.14.2-.72.78c-.58.57-1.47 1.2-2.46 2.07-.98.87-.57 2.65-.57 2.65s1.33.17 2.37-.2c1.03-.4 1.5-1.82 1.44-2.8zM320.48 46.22c0-.4-.33-.7-.73-.7-.42 0-.75.3-.75.7 0 .38.33.7.74.7.4 0 .74-.32.74-.7zM322.4 47.9c.8.1 1.66-.3 2.33-.8.67-.47 1.5-.5 1.5-.5s-.68-.7-1-1.13c-.3-.43-.64-1-1.94-.5-1.3.48-1.7 1.03-1.86 1.56-.17.53.16 1.28.96 1.38z"/><path fill="#d4af3a" d="M328.28 47.6s-3.34 2.8-5.87 2.57c-2.52-.23-2.74-2.08-2.74-2.08s-.46 2.43 1.07 3.37c.83.5 2.37.9 3.74 1.18 1.13.23 2.07.4 3.13.25 2.33-.36 4.3-1.37 4.3-1.37l.2-.1c-2.12-.42-3.5-1.6-3.82-3.83zM335.5 46.46c-.64.03-2.2.78-3.23 1.17-1.04.4-1.17.52-.46.88.73.37 1.34.82 2.54.8 1.2-.04 2.44-.63 2.6-1.83.16-1.2-.78-1.04-1.43-1zM340.17 43.34c-1.13.8-1.65 1.4-2.1 2.2-.46.82 1.13 1.38 2.2 1.4 1.07.04 1.94-.28 2.36-1.48.43-1.2-.32-3.16-.32-3.16s-1 .23-2.12 1.04z"/><ellipse rx=".47" transform="matrix(1.9 0 0 1.9 -300 -120)" ry=".34" cy="90.04" cx="340.87" fill="#d4af3a"/><path fill="#d4af3a" d="M340.7 34.48c0-1.07.48-2 1.2-2.5-.48-1.44-1.13-3-2.02-4.65l-.37-.6c-.38.2-.82.3-1.3.3-1.55 0-2.82-1.3-2.82-2.88 0-.56.16-1.08.43-1.52-1.08-.9-5.33-3.44-6.6-3.7-.46.33-1 .52-1.6.52-1.57 0-2.84-1.3-2.84-2.9v-.1c-2.35-.76-6.47-1.78-6.47-1.78s3.54 2.33 5.3 4.2c1.75 1.87 1.92 2.22 1.92 2.22s5.5 1.85 8.64 6.47c3.15 4.6 3.26 8.23 2.56 11.55-.85 3.33.32 5.43.47 5.43 0 0 2.2-2.86 3.84-3.33 1.64-.46 2-1.05 2.1-1.98.04-.28.05-.93-.04-1.87-1.33 0-2.4-1.3-2.4-2.9z"/><path fill="#d4af3a" d="M326.68 17.82c.6.5 1.46.54 1.93.12.48-.42.38-1.16-.22-1.65s-1.46-.55-1.93-.12c-.47.42-.36 1.16.23 1.64zM337.25 24.97c.67.6 1.65.67 2.18.14.53-.52.4-1.45-.26-2.06-.67-.6-1.65-.67-2.18-.14-.54.53-.42 1.46.25 2.07z"/><ellipse rx=".87" transform="matrix(1.9 0 0 1.9 -300 -120)" ry=".86" cy="82.11" cx="343.23" fill="#d4af3a"/><path fill="#d4af3a" d="M306.02 14.84c.06.6.3 1.58 1.64 2.22 1.34.64 5.83 3.56 8.22 6.77 2.4 3.2 3.68 7.6 3.5 10.04-.17 2.45-1.1 3.97-1.1 5.37s.82 2.57.82 2.57 1.4-1.22 1.92-1.86c.52-.64 1.28-1.4 1.8-2.04.53-.64 1.47-.53 1.47-.53s-.13 1.4.05 2.57c.17 1.17.35 1.46.3 2.04-.07.6-.6 1.05-.53 1.05.05 0 4.14-.64 5.25-3.73s.17-8.35-2.4-13.13c-2.56-4.8-3.8-6.5-8.98-10-.8-.52-1.54-1-2.24-1.42.13.28.2.58.2.9 0 1.35-1.1 2.77-2.73 2.77s-3.12-1.47-3.12-2.82 1.28-2.4 2.9-2.4h.06c-2.35-1.23-3.9-1.74-4.76-1.92-1.35-.3-2.7-.35-2.57 1.1.12 1.47.23 1.88.3 2.46zM299.97 38.72s-.38 1.58-.9 2.26c-.5.67-.88 1.27-.73 2.1.14.8 1.08 1.36 1.63 1.36.55 0 1.5-.55 1.63-1.37.15-.82-.24-1.42-.74-2.1-.5-.67-.9-2.25-.9-2.25z"/><circle cx="320" transform="matrix(1.9 0 0 1.9 -300 -120)" cy="88.56" r=".45" fill="#d4af3a"/><path fill="#d4af3a" d="M296.98 41.7s1.46-1.62 2-2.65c.54-1.03.98-1.95.98-1.95s.44.92 1 1.95 2 2.65 2 2.65 2.05-1.08 3.23-5.03c1.2-3.95-.28-8.12-.82-12.6-.54-4.5-.98-12.24-.98-12.24-1.55.9-3.03 1.27-4.44 1.3-1.4-.03-2.9-.4-4.44-1.3 0 0-.44 7.74-.98 12.23-.54 4.5-2 8.66-.8 12.6 1.2 3.96 3.24 5.04 3.24 5.04zM311.7 15.24c0 .76.84 1.58 1.77 1.58.92 0 1.54-.8 1.54-1.55 0-.76-.73-1.37-1.66-1.37-.92 0-1.63.58-1.63 1.34z"/><ellipse rx="1.77" transform="matrix(1.9 0 0 1.9 -300 -120)" ry="1.76" cy="81.24" cx="307.11" fill="#b96b29"/><path fill="#b96b29" d="M281.6 20.9c-1.33-.9-3.3-.54-4.37.8-1.08 1.33-.88 3.15.46 4.04 1.32.9 3.28.54 4.36-.8 1.08-1.33.88-3.15-.46-4.05z"/><ellipse rx="1.03" transform="matrix(1.9 0 0 1.9 -300 -120)" ry=".98" cy="81.01" cx="307.04" fill="#d4af3a"/><path fill="#d4af3a" d="M280.22 21.26c-.86-.24-1.92.2-2.36.94-.45.76.02 1.56 1.17 1.8 2.1.42 3.1-2.22 1.2-2.74z"/><ellipse rx="1.89" transform="matrix(1.9 0 0 1.9 -300 -120)" ry="1.83" cy="81.51" cx="319.98" fill="#b96b29"/><ellipse rx="1.82" transform="matrix(1.9 0 0 1.9 -300 -120)" ry="1.76" cy="77.22" cx="319.98" fill="#b96b29"/><ellipse rx="1.74" transform="matrix(1.9 0 0 1.9 -300 -120)" ry="1.68" cy="73.12" cx="319.98" fill="#b96b29"/><path fill="#b96b29" d="M324.12 29.02c-1.84 0-3.33 1.48-3.33 3.3 0 1.82 1.48 3.3 3.32 3.3 1.83 0 3.32-1.48 3.32-3.3 0-1.82-1.5-3.3-3.32-3.3zM322.7 21.7c-1.07-1.34-3.03-1.7-4.36-.8-1.34.9-1.54 2.7-.46 4.05 1.08 1.33 3.04 1.7 4.37.8 1.33-.9 1.54-2.72.46-4.06z"/><ellipse rx="1.03" transform="matrix(1.9 0 0 1.9 -300 -120)" ry=".98" cy="81.01" cx="332.93" fill="#d4af3a"/><path fill="#d4af3a" d="M319.72 21.26c-1.9.52-.9 3.16 1.2 2.73 1.14-.24 1.6-1.04 1.16-1.8-.45-.75-1.5-1.18-2.36-.94z"/><ellipse rx="1" transform="matrix(1.9 0 0 1.9 -300 -120)" ry=".97" cy="81.18" cx="319.98" fill="#d4af3a"/><ellipse rx=".97" transform="matrix(1.9 0 0 1.9 -300 -120)" ry=".93" cy="76.91" cx="319.98" fill="#d4af3a"/><ellipse rx=".85" transform="matrix(1.9 0 0 1.9 -300 -120)" ry=".82" cy="72.82" cx="319.98" fill="#d4af3a"/><circle cx="379.27" transform="matrix(1.9 0 0 1.9 -300 -120)" cy="207.45" r="1.56" fill="#b96b29"/><circle cx="383.65" transform="matrix(1.9 0 0 1.9 -300 -120)" cy="208.53" r="1.59" fill="#b96b29"/><circle cx="396.42" transform="matrix(1.9 0 0 1.9 -300 -120)" cy="211.24" r="1.6" fill="#b96b29"/><circle cx="388.04" transform="matrix(1.9 0 0 1.9 -300 -120)" cy="209.57" r="1.6" fill="#b96b29"/><circle cx="389.2" transform="matrix(1.9 0 0 1.9 -300 -120)" cy="205.74" r="1.6" fill="#b96b29"/><circle cx="390.32" transform="matrix(1.9 0 0 1.9 -300 -120)" cy="201.91" r="1.6" fill="#b96b29"/><circle cx="379.39" transform="matrix(1.9 0 0 1.9 -300 -120)" cy="207.3" r=".78" fill="#d4af3a"/><circle cx="383.77" transform="matrix(1.9 0 0 1.9 -300 -120)" cy="208.37" r=".8" fill="#d4af3a"/><circle cx="396.54" transform="matrix(1.9 0 0 1.9 -300 -120)" cy="211.08" r=".8" fill="#d4af3a"/><circle cx="388.16" transform="matrix(1.9 0 0 1.9 -300 -120)" cy="209.41" r=".8" fill="#d4af3a"/><circle cx="389.32" transform="matrix(1.9 0 0 1.9 -300 -120)" cy="205.58" r=".8" fill="#d4af3a"/><circle cx="390.44" transform="matrix(1.9 0 0 1.9 -300 -120)" cy="201.75" r=".8" fill="#d4af3a"/></g></svg>