<svg xmlns="http://www.w3.org/2000/svg" height="480" width="640"><defs><clipPath id="a"><path fill-opacity=".67" d="M-85.7-1.46h684.62V512h-684.6z"/></clipPath></defs><g clip-path="url(#a)" fill-rule="evenodd" transform="matrix(.9 0 0 .9 80.1 1.4)"><path fill="#ed3d00" d="M-126.62-.36h767.07v512h-767.07z"/><path d="M-126.6 200.87l.17 109.9 385.87-54.96-386.03-54.93z" fill="#ffd100"/><path d="M-128 512l159.3-.3 228.68-257.4L-128 512z" fill="#ffd100"/><path d="M311.72 511.64l-109.9-.1 54.96-253.87 54.94 253.97zM641.24-1.46l-159.3.3-228.7 259.45 388-259.76zM201.52 0l109.9.1-54.97 253.87L201.52 0z" fill="#ffd100"/><path d="M640.5 511.64l-159.3-.3L252.5 253.9l388 257.72z" fill="#ffd100"/><path d="M640.5 200.87l-.16 109.9-385.87-54.97 386.03-54.93z" fill="#ffd100"/><path d="M-126.96 0l159.3.3 228.7 257.4-388-257.7z" fill="#ffd100"/><path d="M346.43 255.8c0 48.35-40.14 87.53-89.65 87.53-49.52 0-89.66-39.18-89.66-87.52 0-48.32 40.14-87.5 89.66-87.5 49.5 0 89.65 39.18 89.65 87.5z" fill="#ed3d00"/><path d="M339.5 255.8c0 45.42-37.03 82.23-82.73 82.23s-82.73-36.8-82.73-82.22c0-45.4 37.04-82.2 82.73-82.2 45.7 0 82.74 36.8 82.74 82.2z" fill="#ffd100"/></g></svg>