<svg xmlns="http://www.w3.org/2000/svg" height="480" width="640"><defs><clipPath id="a"><path fill-opacity=".67" d="M-88 32h640v480H-88z"/></clipPath></defs><g fill-rule="evenodd" clip-path="url(#a)" transform="translate(88 -32)"><path fill="#199d00" d="M-128 32h720v480h-720z"/><path d="M230.8 300.78c-11.3 7.86-23.1 14.8-34.4 22.66-14.13 1-27.84 1.14-42.4.43 0 0-30.44-5.14-38.15-18.43-.43-1.28 9.85-6 9.85-6 15.57 11 32.86 20.72 65.14 19.3-39.85-3.58-66.85-25.58-75-45.87 21.58-15.14 57.3-14.85 86.57 6-9.13-11.43-39.7-24.14-62.55-20.57-3.3-3.43-6.15-7.7-9.43-11.14 26.28-5.86 62.85 11 76.28 24.86-14.14-22.72-24.43-48.43-7.72-79.72 3.3 3.15 7 6.3 10.3 9.43-12.58 23-8 49.86 2.13 68.57-17.56-36.28-3.42-72.14 19.73-89.57 27 16.3 34.7 59.57 18.85 90.43 9-5.14 16.3-43.7 3.86-69.43l8.57-10.28c18.72 25.28 7.44 66-8.13 81.42 11.85-10.28 42.57-30.43 78.42-25.7-2.86 3.42-7.44 6.42-10.3 9.84-29.42-1.13-53.28 11.44-63.85 22.3 25.86-17.14 61.57-25.72 87.86-6.43-12.14 32.43-46.56 42.14-75 45 24.15 1.85 46.58-5.3 64.72-18l10.3 5.57c-7.73 7.3-18.87 14.57-34.73 16.7-15.3 2-29.72 1.44-45 1.73-11.86-7.72-24.05-15.38-35.9-23.1z" fill="#feffff"/><path d="M230.8 308.36l-29.4 22.12-78.8-.3c.98 3.17 4 7.23 5.77 9.1l78.18.3 24.24-18.8 23.32 18.5h79.1c2.27-2.44 4.7-5.77 6.8-8.65l-80.14.15-29.1-22.42zM185.64 384.34c22.63 11.17 70.7 10.25 92.42-.27l-92.42.27zM133.6 346.85l194.3-.15c-3.37 3.84-7.36 7.98-11.5 11.5l-172.85-.74c-3.24-2.25-7.56-7.5-9.94-10.6zM146.95 360.8l166.87.45c-3.13 2.42-5.66 5.3-9.24 7.12l-148.33-.13c-3.43-1.84-6.94-4.97-9.3-7.45zM162.15 373.2l136.36-.32c-3.63 2.33-7.72 4.82-12.26 7H174.42c-3.8-1.3-8.18-4.14-12.27-6.67z" fill="#fff"/><path fill="#feb700" d="M303.1 180.3l-4.9-7.2-8.48 2.1 5.35-6.9-4.62-7.42 8.22 2.94 5.62-6.68-.27 8.73 8.1 3.28-8.4 2.45M241.47 170.03l-9.74-6.66-9.64 6.82 3.32-11.34-9.46-7.05 11.8-.33 3.77-11.18 3.97 11.1 11.8.15-9.33 7.2M344 228.16l-8.05-3.4-6 6.35.76-8.7-7.88-3.7 8.5-2 1.1-8.66 4.5 7.48 8.6-1.63-5.72 6.6M158.72 180.18l4.9-7.22 8.5 2.1-5.36-6.9 4.62-7.42-8.22 2.95-5.62-6.7.26 8.73-8.1 3.28 8.4 2.46M115.93 227.85l8.04-3.4 6 6.35-.76-8.7 7.9-3.72-8.5-1.98-1.1-8.67-4.5 7.48-8.6-1.62 5.72 6.6"/></g></svg>