<svg xmlns="http://www.w3.org/2000/svg" height="480" width="640" version="1"><defs><clipPath id="a"><path fill-opacity=".67" d="M0 0h640v480H0z"/></clipPath></defs><g clip-path="url(#a)"><path fill-rule="evenodd" fill="#0071bc" d="M-160 0h960v480h-960z"/><path d="M369.93 365.66s15.22-16.1 29.86-13.03c4.38-16.98 20.92-18.3 20.92-18.3s-1.6-18.73 19.6-22.83c.6-12.73 13.48-23.27 13.48-23.27s-2.63-19.76 10.83-24.3c-8.2-15.66 2.78-27.08 2.64-27.37-.15-.3-13.9-24.74-1.6-31.77-13.04-10.98-8.8-23.43-8.8-23.43s-14.2-3.65-9.07-20.63c-11.7-2.05-14.05-20.94-14.05-20.94s-18 3.66-20.2-12c-11.86 1.9-13.18-9.8-13.32-9.8-.15 0-23.57 6.3-28.25-11.42-9.08 4.68-13.03-3.66-13.03-3.66s-13.03 6.44-20.8-6c-15.5 9.66-24.14-.44-24.14-.44s-20.33 13.46-27.07 3.07c-12 12.15-22.7 6.88-22.7 6.88s-9.06 16.1-23.7 12c-3.37 14.93-20.2 15.23-20.2 15.23s1.76 13.17-18.44 16.68c-2.65 15.52-13.2 18.15-13.2 18.15s1.04 15.07-8.48 19.9c3.37 8.5-5.4 18.88-5.4 18.88s9.36 11.7-3.38 24.9c12.3 3.2 3.37 24.43 3.37 24.43s17 7.62 6.3 21.67c12.15 3.96 8.35 13.62 8.5 19.33 7.75 3.5 14.63 1.75 11.26 17.4 23.86 2.65 12.6 15.82 12.6 15.82s11.12.44 6.73 9.23c20.33-.44 23.26 15.22 23.26 15.22s18.88-4.98 21.37 2.34c2.5 7.33-8.2 56.66-8.2 56.66s-15.95 0-27.8-12.74c-27.82-.73-21.67-19.02-22.1-19.02-.45 0-9.23 3.36-13.77-11.86-18.6 3.8-18-11.86-18.15-12-.14-.15-8.33-3.8-5.26-11.57-19.18 1.76-17.7-16.98-17.7-16.98-4.2-1.7-5.77-5.62-5.13-9.52-2.48-.88-19.46-1.17-10.68-23.57-16.25-9.8-6.15-21.06-6.15-21.06s-22.4-11.57-5.12-24.9c-12.88-19.02 1.02-28.53 1.02-28.53s-17.85-18.14.3-31.02c-2.93-27.52 13.46-34.1 13.46-34.1s-8.63-22.4 14.8-31.77c1.45-22.68 17.84-23.27 17.84-23.27s.44-18 26.2-16.24c4.98-16.1 22.55-12.9 22.55-12.9s5.4-19.46 29.27-10.1c12.14-23.7 30.15-11.56 30.15-11.56s11.4-7.46 17.12-5.12c7.25-12.46 22.68-.48 32.66 1.93 3.62-1.4 16.53-11.15 26.48 1.14 13.18-8.64 24.45 6.87 24.45 6.87s18.15-9.22 26.64 11.86c38.5-3.52 32.93 21.66 32.93 21.66s30.3-6.9 23.7 23.27c27.53 1.9 24.75 20.05 24.75 20.05s17.42 13.17 9.8 25.03c15.52.73 9.8 15.66 9.8 15.66s11.87 4.55 2.06 23c22.7 18.14 4.4 36.15 4.25 36-.16-.14 12.14 14.64 1 31.62 3.38 26.93-10.23 33.8-10.23 33.8s3.5 17.43-11.7 22.4c-.3 20.5-19.63 23-19.63 23s5.12 8.9-14.05 18.26c-.77 13.7-20.8 14.8-20.8 14.8s-1.9 25.2-27.37 18.45c-6.18 20.2-36 14.2-36.6 13.9-.58-.28-5.7-43.32-5.7-43.46z" fill-rule="evenodd" stroke="#000" stroke-width="1.8536112" fill="#fff"/><path stroke-linejoin="round" d="M184.94 124.08c.07 0 6.46 5.54 5.26 13.88-1.2 8.34-6 19.93-5.04 28.57.6 3.46.37 9.67.37 9.67s-5.78-8.22-5.86-17 6.27-17.14 6.27-23.62-1.15-11.65-1-11.5zM181.77 126.57s-8.37 8-9.45 15.76c-.8 4-1.1 22.67-1.2 30.95-.2 2.54-1.24 12.57-1.46 16.2-.23 3.66 6.16-6.2 6.52-14.26-.2-8.32-.2-25.86.65-28.5.75-3.38.6-7.12 1.75-10.52 1.54-4.72 3.27-9.55 3.2-9.63z" fill-rule="evenodd" stroke="#000" stroke-width="1.8536112" fill="#217900"/><g fill-rule="evenodd" stroke="#ef8a10" fill="#ffd200"><path d="M365.96 100.45s10.86-5 13.96-14.33-9.4-9.42-11.04-6.45c-1.65 2.96 1.4 10.34.62 12.3-.8 1.94-5.2 6.66-3.54 8.48z" stroke-width="1.8542661"/><path d="M269.75 103.86s7.04-9.66 5.22-19.32c-1.83-9.66-12.8-3.66-12.8-.26 0 3.4 6.27 8.35 6.53 10.44.26 2.1-1.3 8.35 1.05 9.13zM250.7 109.6s7.04-9.66 5.2-19.32c-1.82-9.66-12.78-3.65-12.78-.26 0 3.4 6.27 8.35 6.53 10.44.26 2.1-1.3 8.35 1.04 9.14zM229.55 116.12s7.05-9.65 5.22-19.3c-1.83-9.67-12.8-3.67-12.8-.27s6.27 8.35 6.54 10.44c.27 2.08-1.3 8.34 1.05 9.12zM214.67 131s7.05-9.66 5.22-19.3c-1.84-9.67-12.8-3.67-12.8-.28 0 3.4 6.27 8.36 6.53 10.44.26 2.1-1.3 8.36 1.04 9.14zM199 145.36s7.06-9.66 5.23-19.32c-1.83-9.66-12.8-3.65-12.8-.26 0 3.4 6.28 8.35 6.54 10.44.26 2.1-1.3 8.35 1.04 9.14z" stroke-width="2.4723547999999997"/><path d="M235.02 61.73s-9.4 7.4-10.22 17.2c-.84 9.8 11.33 6.96 12.24 3.7.92-3.28-3.78-9.74-3.47-11.82.3-2.08 3.5-7.7 1.45-9.07zM266.34 52.07s-9.38 7.4-10.22 17.2c-.84 9.8 11.33 6.96 12.25 3.7.9-3.28-3.8-9.74-3.48-11.82.3-2.08 3.5-7.7 1.44-9.08zM149.62 136.62s1.98 11.8 10.16 17.24c8.2 5.44 11.56-6.6 9.13-8.97s-10.34-1.37-12.02-2.64c-1.67-1.27-5.06-6.77-7.26-5.64zM133.97 176.66s.1 11.95 7.32 18.62c7.22 6.66 12.44-4.7 10.42-7.42s-10-2.97-11.46-4.5c-1.46-1.5-3.93-7.48-6.3-6.7zM170.06 221.38s-4.26-11.17-13.36-14.9c-9.1-3.7-10.03 8.75-7.18 10.6 2.85 1.84 10.42-.7 12.3.2 1.9.92 6.3 5.65 8.24 4.1zM162.57 202.05s7.23-9.52 5.6-19.2c-1.65-9.7-12.72-3.9-12.8-.52-.06 3.4 6.1 8.48 6.33 10.57.22 2.1-1.47 8.32.87 9.15zM388.15 110.1s10.86-5 13.96-14.32-9.4-9.42-11.04-6.46c-1.65 2.97 1.4 10.35.62 12.3-.8 1.95-5.2 6.66-3.53 8.5zM420.97 126.48s6.4-10.1 3.92-19.62c-2.48-9.5-13-2.8-12.8.6.24 3.38 6.82 7.9 7.22 9.98.4 2.06-.74 8.42 1.65 9.04zM510.58 219.5s-4.28-11.15-13.38-14.86c-9.1-3.7-10.02 8.75-7.17 10.6 2.85 1.84 10.42-.73 12.3.2 1.9.9 6.32 5.62 8.25 4.07zM466.76 226.44s.25-11.95 7.56-18.52c7.3-6.58 12.4 4.84 10.33 7.54-2.06 2.7-10.04 2.85-11.52 4.35-1.47 1.5-4.02 7.44-6.37 6.64zM459.7 99.68s-11.16-4.24-20 .07c-8.83 4.32-.14 13.3 3.13 12.4 3.28-.9 6.4-8.24 8.35-9.05 1.94-.8 8.4-.94 8.53-3.42zM434.14 78.28s-11.18-4.25-20 .07c-8.84 4.3-.15 13.3 3.12 12.4 3.27-.9 6.4-8.25 8.34-9.05 1.95-.8 8.4-.95 8.54-3.42zM396 57.87s-9.47 7.3-10.43 17.07c-.96 9.78 11.25 7.1 12.2 3.84.95-3.25-3.67-9.77-3.33-11.85.33-2.08 3.6-7.65 1.56-9.06zM371.16 51.9s-4.32 11.14-.07 20 13.3.24 12.42-3.04c-.88-3.28-8.2-6.46-9-8.4-.8-1.96-.9-8.42-3.36-8.57zM300.7 94.85s7.74-9.12 6.62-18.9c-1.12-9.75-12.5-4.56-12.74-1.17-.24 3.38 5.65 8.78 5.76 10.88.1 2.1-1.9 8.24.37 9.2z" stroke-width="1.8542661"/></g><path d="M342.78 114.43s18.52 1.17 19.43 11.8-4.4 17.1-4.4 17.1 2.34 22.92-15.8 29.66c-19.43 2.32-49.88.5-49.88.5s-8.94 2.2-12.57-16.32c-3.62-18.52-4.66-31.6-4.66-31.6s1.8-10.37 14.9-11.02c13.07-.65 52.85.13 52.98-.13z" fill-rule="evenodd" stroke="#000" stroke-width="1.8536112" fill="#8c8a8c"/><path d="M357.67 143.2s-9.97 12.43-8.94 17.48" stroke="#000" stroke-linecap="round" stroke-width="1.8536112" fill="none"/><path d="M344.33 172.34c2.46 2.07 4.8 4.4 5.3 12.05l1.05 15.27 12.96 116.6 11.4 84.34.77 13.1s-2.7 9.58-10.35 10.36c-5.57 11.65-35.76 15.02-38.74 14.9-2.7-.14-12.3-4.15-18.12-3.63-5.83.5-15.94 4.4-20.47 3.75-4.53-.64-14.76-4.14-16.57-11.53-12.7-4-14.77-13.73-14.77-13.73l13.73-97.55 13.33-123.33s1.56-16.46 8.16-18.92c6.86-.65 42.36.65 52.33-1.68z" fill-rule="evenodd" stroke="#000" stroke-width="1.8536112" fill="#8c8a8c"/><path d="M274.37 341.15l-2.72 86.28M358.2 352.55l7.64 71.12" stroke="#000" stroke-width="1.8536112" fill="none"/><path d="M136.57 296.3l-.28 1M494.97 293.2l.3.98" stroke="#000" stroke-width=".9659664000000001" fill="none"/><path stroke-linejoin="round" d="M126.96 179.83s5.68 7.86 6.7 12.37c1.02 4.5 2.9 13.4 5.38 17.03 2.48 3.64 16.6 23.87 17.32 32.3.15 5.54-5.82 15-14.7 15.14-5.53-.14-19.8-3.78-20.37-16-.6-12.23 4.35-12.52 4.94-19.95.58-7.42.72-40.75.72-40.9z" stroke="#6b18b5" stroke-width="1.8536112" fill="none"/><path stroke-linejoin="round" d="M224.47 72.8s-5.88.43-10.4 2.9c-3.5 2.15-9.45 5.26-13.6 11-10.55 8.24-26.43 12.08-31.43 18.9-3 4.66-2.82 15.84 4.7 20.58 4.8 2.75 18.87 7.05 25.72-3.1 6.85-10.14 2.77-12.96 6.13-19.6 5.53-15.23 18.8-30.54 18.87-30.67zM367 57.97s-4.38-3.93-9.3-5.48c-3.98-1.02-10.62-.58-17.5-1.25-13.25-1.86-26.92-11.45-35.3-10.3-5.43 1.1-13.34 9-11.52 17.7 1.37 5.35 7.36 16.2 19.4 14.06 12.07-2.12 11.96-4.75 19.07-6.96C349.2 56 366.87 58 367 57.97zM508.37 195.36c1-2.26-.83-6.5-2.12-11.5-1.26-3.9-3.14-10-7.72-15.4-5.46-12.23-4.52-29-9.95-35.5-3.8-4-14.7-6.52-21.1-.37-3.82 4-11.37 16.62-3.17 25.7 8.2 9.1 11.78 5.67 17.43 10.53 13.45 9.03 20.04 24.88 26.64 26.53zM503.55 302.12c1.84-2.55 5.13-7.45 4.74-11.53-.32-3.25 1.47-13.05 1.67-17.33 1.2-13.32 9.55-24.14 7.28-35.72-1.34-5.37-9.2-13.02-17.8-10.78-5.28 1.62-17.05 8.1-14.34 20.03 2.73 11.94 6.58 11.74 9.13 18.73 7.32 14.46 2.64 31.64 9.32 36.6z" stroke="#6b18b5" stroke-width=".9659664000000001" fill="none"/><path d="M405.48 386.83s-2.25 4.35 6.78 8.17M423.56 376.58s10.08-2.43 16.85 0M453.62 351.2c0 .18-1.4 4.52 6.6 10.78M459.35 339.92s5.9 4.34 15.82 4.17M399.75 352.6s.35 11.47-5.56 16.85M419.56 334.87s9.73 2.43 17.72-1.56M481.94 318.02s2.1 2.96 12.86 2.44M439.9 311.25c.34.17 12.68 4.17 20.5.52M464.57 263.98s.52-.7 4.34 12.7M474.12 226.27s-.52 7.13-6.25 10.26M510.78 197.08s-8.34 6.78-6.77 9.56M469.26 192.2s4.34 7.3-2.78 12.35M448.23 160.94s7.47-.35 10.77 6.08M434.16 139.74h5.73M463.87 113.67c0 .18 1.56 1.57-1.4 4.52M410.52 114.37s4 6.26 3.3 13.9M433.64 93.17c1.73-.17 7.64-2.78 7.64-2.78M407.92 68.32c-.17 0-2.26 7.82 1.57 10.6M398.36 103.94c0 8.34 6.6 6.26 2.08 14.25M382.2 97c-.18 0-10.43 8-10.43 9.38M355.44 92.65s4.34 4.34 3.3 10.25M342.76 89.17s-2.26 6.6-5.2 8.34M319.64 87.44c-.17.34-3.64 7.8-6.08 9.2M288.02 87.6c.17 0 3.48 6.96-.87 12M280.72 51.64c.17.17.7 5.4-2.6 9.9M249.44 63.46c0 .17 1.4 5.9-7.82 7.82M231.72 116.45c.18.35 8.87 1.74 8.87 1.74M210 136.6c.18-.16 10.6-3.3 10.6-3.3M193.15 149.64c.34 0 7.3 1.22 9.03.35M188.28 156.07s2.26 1.22.35 12.86M154.4 125.5l4.16 6.25M140.15 157.64c0-.17 4.17 6.25 9.73 7.47M173 190.3c.17 0 6.77-1.38 7.8-2.08M170.03 213.93c.18 0-.17-4.34 5.22-7.3M162.9 224.7c0 .18 5.04 6.44 8.52 7.3M159.96 236.7c.52-.17 5.9-4.87 12.16-4.52M158.2 252.86s.2 5.4 16.18 4M159.78 271.8c0-.18 4.7-10.78 14.25-14.77M172.64 285.36s1.4-4.52 9.4-7.65M181.5 303.25s5.74-4.7 7.82-5.4M188.63 317.15s3.48 3.65 12.16-2.6M146.75 320.1c1.04-.17 13.72-3.12 18.07 3.48M151.8 330.53s13.37-1.74 15.1-.35M199.58 333.3s-1.74 3.66 14.77-2.42M220.08 339.92c-2.95 5.04.7 9.04-3.13 11.3M169.86 346.86c.52-.34 6.08-2.25 5.2-10.25M174.9 358.86c.7-.18 9.9-4.17 11.8-2.1M192.97 370.5s1.22-8.17 3.83-9.04M206.87 382.83s7.65-.17 10.95-2.6M221.64 355.2c.17.18 7.12 3.83 21.9.18M227.2 388.4s2.08 10.6 1.9 13.02" stroke="#000" stroke-width="1.8536112" fill="none"/><g fill-rule="evenodd" stroke="#000" stroke-width="1.48" fill="#de2010"><path d="M232.84 119.03c0-2.1-.8-4.06-2.1-5.1-1.28-1.07-2.87-1.07-4.17 0s-2.1 3-2.1 5.1c0 2.1.8 4.06 2.1 5.1 1.3 1.07 2.9 1.07 4.18 0s2.1-3 2.1-5.1z" transform="matrix(1.6 -.2 .2 1.7 94.8 74.9)"/><path d="M232.84 119.03c0-2.1-.8-4.06-2.1-5.1-1.28-1.07-2.87-1.07-4.17 0s-2.1 3-2.1 5.1c0 2.1.8 4.06 2.1 5.1 1.3 1.07 2.9 1.07 4.18 0s2.1-3 2.1-5.1z" transform="matrix(1.6 -.2 .2 1.7 93.4 57.3)"/><path d="M232.84 119.03c0-2.1-.8-4.06-2.1-5.1-1.28-1.07-2.87-1.07-4.17 0s-2.1 3-2.1 5.1c0 2.1.8 4.06 2.1 5.1 1.3 1.07 2.9 1.07 4.18 0s2.1-3 2.1-5.1z" transform="matrix(1.6 -.3 .4 1.6 78.1 74.1)"/><path d="M232.84 119.03c0-2.1-.8-4.06-2.1-5.1-1.28-1.07-2.87-1.07-4.17 0s-2.1 3-2.1 5.1c0 2.1.8 4.06 2.1 5.1 1.3 1.07 2.9 1.07 4.18 0s2.1-3 2.1-5.1z" transform="matrix(1.4 -.7 .8 1.5 55.9 162.9)"/><path d="M232.84 119.03c0-2.1-.8-4.06-2.1-5.1-1.28-1.07-2.87-1.07-4.17 0s-2.1 3-2.1 5.1c0 2.1.8 4.06 2.1 5.1 1.3 1.07 2.9 1.07 4.18 0s2.1-3 2.1-5.1z" transform="matrix(1.4 -.7 .8 1.5 48.9 147.1)"/><path d="M232.84 119.03c0-2.1-.8-4.06-2.1-5.1-1.28-1.07-2.87-1.07-4.17 0s-2.1 3-2.1 5.1c0 2.1.8 4.06 2.1 5.1 1.3 1.07 2.9 1.07 4.18 0s2.1-3 2.1-5.1z" transform="matrix(1.4 -.9 .9 1.4 40 167.4)"/><path d="M232.84 119.03c0-2.1-.8-4.06-2.1-5.1-1.28-1.07-2.87-1.07-4.17 0s-2.1 3-2.1 5.1c0 2.1.8 4.06 2.1 5.1 1.3 1.07 2.9 1.07 4.18 0s2.1-3 2.1-5.1z" transform="matrix(1.3 -1 1 1.3 33.8 193.1)"/><path d="M232.84 119.03c0-2.1-.8-4.06-2.1-5.1-1.28-1.07-2.87-1.07-4.17 0s-2.1 3-2.1 5.1c0 2.1.8 4.06 2.1 5.1 1.3 1.07 2.9 1.07 4.18 0s2.1-3 2.1-5.1z" transform="matrix(1.1 -1.2 1.2 1.2 35.4 239)"/><path d="M232.84 119.03c0-2.1-.8-4.06-2.1-5.1-1.28-1.07-2.87-1.07-4.17 0s-2.1 3-2.1 5.1c0 2.1.8 4.06 2.1 5.1 1.3 1.07 2.9 1.07 4.18 0s2.1-3 2.1-5.1z" transform="matrix(1 -1.3 1.3 1.1 34.3 262.7)"/><path d="M232.84 119.03c0-2.1-.8-4.06-2.1-5.1-1.28-1.07-2.87-1.07-4.17 0s-2.1 3-2.1 5.1c0 2.1.8 4.06 2.1 5.1 1.3 1.07 2.9 1.07 4.18 0s2.1-3 2.1-5.1z" transform="matrix(.8 -1.4 1.5 .8 51.9 315)"/><path d="M232.84 119.03c0-2.1-.8-4.06-2.1-5.1-1.28-1.07-2.87-1.07-4.17 0s-2.1 3-2.1 5.1c0 2.1.8 4.06 2.1 5.1 1.3 1.07 2.9 1.07 4.18 0s2.1-3 2.1-5.1z" transform="matrix(.7 -1.5 1.5 .7 56.8 337.4)"/><path d="M232.84 119.03c0-2.1-.8-4.06-2.1-5.1-1.28-1.07-2.87-1.07-4.17 0s-2.1 3-2.1 5.1c0 2.1.8 4.06 2.1 5.1 1.3 1.07 2.9 1.07 4.18 0s2.1-3 2.1-5.1z" transform="matrix(.6 -1.5 1.6 .6 57.9 352.4)"/><path d="M232.84 119.03c0-2.1-.8-4.06-2.1-5.1-1.28-1.07-2.87-1.07-4.17 0s-2.1 3-2.1 5.1c0 2.1.8 4.06 2.1 5.1 1.3 1.07 2.9 1.07 4.18 0s2.1-3 2.1-5.1z" transform="matrix(.4 -1.6 1.6 .5 63 370.4)"/><path d="M232.84 119.03c0-2.1-.8-4.06-2.1-5.1-1.28-1.07-2.87-1.07-4.17 0s-2.1 3-2.1 5.1c0 2.1.8 4.06 2.1 5.1 1.3 1.07 2.9 1.07 4.18 0s2.1-3 2.1-5.1z" transform="matrix(.2 -1.6 1.7 .2 94.7 408.9)"/><path d="M232.84 119.03c0-2.1-.8-4.06-2.1-5.1-1.28-1.07-2.87-1.07-4.17 0s-2.1 3-2.1 5.1c0 2.1.8 4.06 2.1 5.1 1.3 1.07 2.9 1.07 4.18 0s2.1-3 2.1-5.1z" transform="matrix(.1 -1.6 1.7 .1 106.3 427.4)"/><path d="M232.84 119.03c0-2.1-.8-4.06-2.1-5.1-1.28-1.07-2.87-1.07-4.17 0s-2.1 3-2.1 5.1c0 2.1.8 4.06 2.1 5.1 1.3 1.07 2.9 1.07 4.18 0s2.1-3 2.1-5.1z" transform="matrix(.1 -1.6 1.7 .1 88.8 428)"/><path d="M232.84 119.03c0-2.1-.8-4.06-2.1-5.1-1.28-1.07-2.87-1.07-4.17 0s-2.1 3-2.1 5.1c0 2.1.8 4.06 2.1 5.1 1.3 1.07 2.9 1.07 4.18 0s2.1-3 2.1-5.1z" transform="matrix(-.4 -1.6 1.6 -.4 172.5 473.5)"/><path d="M232.84 119.03c0-2.1-.8-4.06-2.1-5.1-1.28-1.07-2.87-1.07-4.17 0s-2.1 3-2.1 5.1c0 2.1.8 4.06 2.1 5.1 1.3 1.07 2.9 1.07 4.18 0s2.1-3 2.1-5.1z" transform="matrix(-.5 -1.5 1.6 -.5 188.3 485.8)"/><path d="M232.84 119.03c0-2.1-.8-4.06-2.1-5.1-1.28-1.07-2.87-1.07-4.17 0s-2.1 3-2.1 5.1c0 2.1.8 4.06 2.1 5.1 1.3 1.07 2.9 1.07 4.18 0s2.1-3 2.1-5.1z" transform="matrix(-.7 -1.5 1.5 -.7 221.9 499.1)"/><path d="M232.84 119.03c0-2.1-.8-4.06-2.1-5.1-1.28-1.07-2.87-1.07-4.17 0s-2.1 3-2.1 5.1c0 2.1.8 4.06 2.1 5.1 1.3 1.07 2.9 1.07 4.18 0s2.1-3 2.1-5.1z" transform="matrix(-.8 -1.4 1.5 -.8 241.4 508.3)"/><path d="M232.84 119.03c0-2.1-.8-4.06-2.1-5.1-1.28-1.07-2.87-1.07-4.17 0s-2.1 3-2.1 5.1c0 2.1.8 4.06 2.1 5.1 1.3 1.07 2.9 1.07 4.18 0s2.1-3 2.1-5.1z" transform="matrix(-.9 -1.3 1.4 -1 271.6 515.4)"/><path d="M232.84 119.03c0-2.1-.8-4.06-2.1-5.1-1.28-1.07-2.87-1.07-4.17 0s-2.1 3-2.1 5.1c0 2.1.8 4.06 2.1 5.1 1.3 1.07 2.9 1.07 4.18 0s2.1-3 2.1-5.1z" transform="matrix(-1.1 -1.2 1.3 -1.1 292.4 520.2)"/><path d="M232.84 119.03c0-2.1-.8-4.06-2.1-5.1-1.28-1.07-2.87-1.07-4.17 0s-2.1 3-2.1 5.1c0 2.1.8 4.06 2.1 5.1 1.3 1.07 2.9 1.07 4.18 0s2.1-3 2.1-5.1z" transform="matrix(-1.1 -1.2 1.2 -1.2 308.9 526.1)"/><path d="M232.84 119.03c0-2.1-.8-4.06-2.1-5.1-1.28-1.07-2.87-1.07-4.17 0s-2.1 3-2.1 5.1c0 2.1.8 4.06 2.1 5.1 1.3 1.07 2.9 1.07 4.18 0s2.1-3 2.1-5.1z" transform="matrix(-1.2 -1.1 1.1 -1.3 331.4 529.6)"/><path d="M232.84 119.03c0-2.1-.8-4.06-2.1-5.1-1.28-1.07-2.87-1.07-4.17 0s-2.1 3-2.1 5.1c0 2.1.8 4.06 2.1 5.1 1.3 1.07 2.9 1.07 4.18 0s2.1-3 2.1-5.1z" transform="matrix(-1.3 -.9 .9 -1.4 362.5 526.1)"/><path d="M232.84 119.03c0-2.1-.8-4.06-2.1-5.1-1.28-1.07-2.87-1.07-4.17 0s-2.1 3-2.1 5.1c0 2.1.8 4.06 2.1 5.1 1.3 1.07 2.9 1.07 4.18 0s2.1-3 2.1-5.1z" transform="matrix(-1.5 -.7 .7 -1.5 415.9 504.1)"/><path d="M232.84 119.03c0-2.1-.8-4.06-2.1-5.1-1.28-1.07-2.87-1.07-4.17 0s-2.1 3-2.1 5.1c0 2.1.8 4.06 2.1 5.1 1.3 1.07 2.9 1.07 4.18 0s2.1-3 2.1-5.1z" transform="matrix(-1.5 -.5 .6 -1.6 438.7 497.5)"/><path d="M232.84 119.03c0-2.1-.8-4.06-2.1-5.1-1.28-1.07-2.87-1.07-4.17 0s-2.1 3-2.1 5.1c0 2.1.8 4.06 2.1 5.1 1.3 1.07 2.9 1.07 4.18 0s2.1-3 2.1-5.1z" transform="matrix(-1.6 -.1 .2 -1.3 500.5 406)"/><path d="M232.84 119.03c0-2.1-.8-4.06-2.1-5.1-1.28-1.07-2.87-1.07-4.17 0s-2.1 3-2.1 5.1c0 2.1.8 4.06 2.1 5.1 1.3 1.07 2.9 1.07 4.18 0s2.1-3 2.1-5.1z" transform="matrix(-1.6 -.4 .4 -1.6 468.4 480.8)"/></g><path d="M480 194.65c2.16-2.3 4.15-2.95 6.68-2.1-.9-6.07-2.8-8.12-5.14-7.4-2.34.73-3.4 3.85-1.53 9.5zM483.3 212.93c2.3-2.12 4.35-2.62 6.8-1.6-.43-6.1-2.2-8.3-4.57-7.75-2.4.55-3.67 3.58-2.24 9.35zM475.53 177.95c1.5-2.77 3.26-3.9 5.9-3.73-2.4-5.64-4.76-7.14-6.84-5.84-2.08 1.3-2.3 4.58.93 9.57zM467.4 161.3c1.5-2.76 3.25-3.9 5.9-3.72-2.4-5.64-4.77-7.14-6.84-5.84-2.08 1.3-2.3 4.58.93 9.57zM447.87 130.82c1.03-2.97 2.6-4.38 5.24-4.64-3.26-5.17-5.85-6.27-7.7-4.66s-1.53 4.9 2.47 9.3zM435.12 117.53c.9-3 2.42-4.47 5.06-4.83-3.47-5.05-6.1-6.05-7.88-4.37-1.77 1.7-1.35 4.95 2.82 9.2zM408.3 94.9c-.07-3.15.9-5 3.3-6.16-4.84-3.73-7.65-3.88-8.82-1.73-1.17 2.16.23 5.13 5.5 7.9zM422.25 105.36c.5-3.1 1.77-4.76 4.34-5.48-4.15-4.52-6.9-5.15-8.4-3.24-1.54 1.92-.67 5.1 4.05 8.72zM392.36 86.1c-.38-3.1.4-5.06 2.67-6.46-5.2-3.2-8.02-3.06-8.96-.8-.94 2.25.76 5.06 6.3 7.27zM376.1 79c-.83-3.03-.33-5.07 1.7-6.78-5.6-2.43-8.37-1.9-8.98.48-.6 2.37 1.48 4.9 7.27 6.3zM358.55 73.57c-1.07-2.95-.75-5.03 1.14-6.9-5.8-1.95-8.52-1.17-8.92 1.24-.4 2.42 1.9 4.78 7.77 5.67zM341.33 70.23c-1.3-2.86-1.1-4.96.64-6.96-5.93-1.53-8.57-.55-8.8 1.88-.24 2.44 2.23 4.62 8.16 5.08zM323.1 68.84c-1.6-2.72-1.63-4.82-.1-7-6.06-.9-8.58.34-8.56 2.8.02 2.44 2.7 4.35 8.65 4.2zM287.38 71.53c-2.2-2.26-2.74-4.3-1.78-6.77-6.1.6-8.24 2.4-7.63 4.77.6 2.37 3.67 3.58 9.4 2zM304.95 69.2c-1.86-2.52-2.12-4.6-.83-6.93-6.13-.25-8.5 1.26-8.2 3.7.27 2.42 3.14 4.03 9.03 3.24zM270.13 75.25c-2.5-1.92-3.32-3.85-2.73-6.44-5.95 1.46-7.8 3.57-6.87 5.82.95 2.26 4.15 3.02 9.6.63zM237.1 90.44c-2.8-1.42-4-3.15-3.9-5.8-5.56 2.55-7 4.97-5.64 7 1.36 2.04 4.65 2.18 9.54-1.2zM253.03 82.3c-2.62-1.74-3.58-3.6-3.17-6.23-5.83 1.86-7.55 4.1-6.45 6.27 1.1 2.2 4.36 2.73 9.63-.04zM207.48 111.06c-3.04-.8-4.56-2.24-5.02-4.87-4.9 3.66-5.8 6.32-4.06 8.03 1.75 1.7 5 1.16 9.08-3.17zM221.6 99.5c-2.96-1.04-4.36-2.6-4.62-5.25-5.18 3.27-6.28 5.85-4.67 7.7 1.62 1.83 4.9 1.54 9.3-2.46zM194.92 123.43c-3.1-.52-4.74-1.82-5.44-4.4-4.56 4.1-5.2 6.84-3.3 8.38 1.9 1.55 5.07.7 8.74-3.97zM183.67 138.03c-3.14-.23-4.9-1.38-5.82-3.87-4.17 4.5-4.57 7.27-2.54 8.63 2.04 1.36 5.14.23 8.37-4.77zM174.25 152.97c-3.13.24-5.04-.62-6.34-2.94-3.42 5.07-3.4 7.88-1.18 8.92 2.22 1.04 5.1-.55 7.53-5.98zM166 168.92c-3.1.65-5.1.04-6.7-2.1-2.73 5.48-2.34 8.27 0 9 2.33.75 4.98-1.2 6.7-6.9zM159.37 185.3c-2.93 1.12-5 .83-6.92-1.02-1.84 5.84-1 8.53 1.4 8.9 2.43.35 4.74-2 5.52-7.9zM154.94 203.52c-2.85 1.32-4.94 1.18-6.97-.54-1.44 5.95-.44 8.57 2 8.77 2.44.2 4.6-2.3 4.97-8.23zM153.14 218.7c-2.68 1.42-4.77 1.6-6.97.52-.8 4.85.48 6.77 2.92 6.6 2.43-.18 4.3-2.42 4.04-7.12zM460.13 146.48c1.07-2.95 2.65-4.33 5.3-4.55-3.2-5.23-5.76-6.37-7.62-4.78-1.86 1.6-1.6 4.87 2.33 9.33zM485.3 231.47c2.3-2.13 4.35-2.63 6.8-1.6-.43-6.1-2.2-8.3-4.57-7.75-2.38.55-3.67 3.58-2.24 9.35z" fill-rule="evenodd" fill="#ffe300"/><path stroke-linejoin="round" d="M461.32 132c-.07 0-6.93 6.86-5.73 15.2 1.18 8.34 6.46 18.62 5.5 27.26-.97 8.64-2.54 14.37-2.54 14.37s8.05-9.16 8.12-17.95c.08-8.78-5.5-20.33-5.5-26.8s.3-12.22.14-12.07zM474.05 160s-5.36 3.95-4.84 13.04c.53 9.08 9.9 25.77 9.9 25.77s6.87 14.08 6.64 17.73c-.22 3.65 1.27-3.5.6-11.54-.67-8.06-11.02-25.78-11.02-25.78s-2.24-3.65-2-9.68c.2-6.03.8-9.46.73-9.53z" fill-rule="evenodd" stroke="#000" stroke-width="1.8536112" fill="#217900"/><path d="M312.93 47.43c0-1.88-2.12-3.4-4.73-3.4s-4.72 1.52-4.72 3.4 2.1 3.4 4.72 3.4 4.73-1.52 4.73-3.4zM314.95 55.35c0-1.8-2.18-3.27-4.87-3.27-2.68 0-4.86 1.47-4.86 3.27s2.18 3.26 4.86 3.26c2.7 0 4.87-1.45 4.87-3.25zM320.98 45.97s-5.55 4.17-3.26 5.84c2.3 1.67 8.6-3.6 8.6-3.6L321 45.96zM484.32 141.4c0-1.18-.55-2.28-1.46-2.87-.9-.6-2-.6-2.9 0-.92.6-1.47 1.7-1.47 2.87 0 1.2.54 2.28 1.45 2.87.9.6 2 .6 2.9 0 .92-.6 1.47-1.68 1.47-2.87zM482.2 133.46c0-1.98-1.37-3.58-3.05-3.58s-3.05 1.6-3.05 3.58 1.37 3.57 3.05 3.57 3.05-1.6 3.05-3.57zM483.66 149.62c0-1.03-.54-1.86-1.2-1.86-.65 0-1.2.83-1.2 1.86s.55 1.85 1.2 1.85c.66 0 1.2-.83 1.2-1.85zM488.56 135.17c0-1.17-.54-2.12-1.2-2.12-.65 0-1.2.95-1.2 2.12s.55 2.12 1.2 2.12c.66 0 1.2-.96 1.2-2.13zM475.17 136.63c0-.95-.53-1.72-1.2-1.72-.65 0-1.18.78-1.18 1.73s.52 1.72 1.18 1.72c.66 0 1.2-.77 1.2-1.72zM477.3 148.03c0-1.54-1.13-2.78-2.52-2.78s-2.52 1.24-2.52 2.78c0 1.54 1.13 2.8 2.52 2.8s2.52-1.26 2.52-2.8zM470.67 143c0-1.32-.95-2.4-2.12-2.4-1.18 0-2.12 1.08-2.12 2.4s.94 2.38 2.12 2.38c1.17 0 2.12-1.07 2.12-2.4zM469.6 136.23c0-.7-.34-1.37-.9-1.72-.6-.35-1.3-.35-1.87 0-.58.36-.93 1.02-.93 1.73 0 .7.35 1.37.93 1.72.57.36 1.28.36 1.86 0 .56-.35.9-1 .9-1.72zM499.82 170.6c-2.74-3.62-7.12-5.14-9.8-3.4-2.66 1.73-2.6 6.07.14 9.68 2.73 3.6 7.1 5.13 9.78 3.4 2.67-1.74 2.62-6.07-.12-9.68zM507.6 237.25c.53-4.43-1.63-8.34-4.83-8.72-3.2-.38-6.22 2.9-6.75 7.33-.53 4.44 1.63 8.34 4.83 8.72 3.2.4 6.22-2.9 6.75-7.33zM509.24 276.04c.9-4.37-.9-8.44-4.05-9.1-3.17-.66-6.46 2.35-7.37 6.72-.9 4.37.9 8.45 4.06 9.1 3.14.66 6.43-2.35 7.34-6.72zM516.72 239.73c0-1.76-1.2-3.18-2.65-3.18s-2.65 1.42-2.65 3.18c0 1.76 1.18 3.18 2.65 3.18s2.65-1.4 2.65-3.17zM510.23 247.02l-5.44 6.16s-5.1.14-4.84 1.8c.26 1.65 7.02 6.62 6.95 8.6-.05 2 4.52-.46 4.52-.46s3.64-11.06 3.64-11.13c0-.08-.2-7.7-2.18-7.56-2 .13-2.53 2.44-2.65 2.58zM152.84 244.58c0-1.42-1.16-2.58-2.6-2.58-1.42 0-2.58 1.16-2.58 2.58s1.16 2.6 2.6 2.6 2.58-1.17 2.58-2.6zM155.27 236.68c0-1.5-1.15-2.73-2.58-2.73s-2.6 1.23-2.6 2.73 1.16 2.73 2.6 2.73c1.42 0 2.57-1.2 2.57-2.72zM134.04 199.1c-.97-2.17-3-3.38-4.5-2.7-1.53.68-1.98 3-1 5.16.96 2.18 2.98 3.4 4.5 2.7 1.52-.67 1.97-2.98 1-5.15zM140.45 222.52c-1.33-2.82-4.1-4.4-6.2-3.5s-2.7 3.86-1.37 6.68 4.1 4.4 6.2 3.5 2.7-3.87 1.37-6.68zM147.32 239.7c.43-3.53-1.03-6.77-3.26-7.23-2.23-.47-4.4 2-4.82 5.52-.43 3.5 1.03 6.74 3.26 7.2 2.23.48 4.4-2 4.82-5.5zM136.3 242.2c1.38-3.27.87-6.78-1.15-7.84s-4.77.72-6.15 4-.86 6.76 1.15 7.82 4.77-.72 6.15-4z" fill-rule="evenodd" fill="#6b18b5"/><path d="M131.28 234.8c0-1.65-1.3-3-2.87-3s-2.87 1.35-2.87 3 1.3 3.03 2.88 3.03 2.88-1.35 2.88-3.02zM128.98 227.35c0-1.5-1.15-2.73-2.58-2.73-1.43 0-2.6 1.22-2.6 2.73 0 1.5 1.17 2.73 2.6 2.73s2.58-1.23 2.58-2.73zM131.43 212.98c0-2.54-1.13-4.6-2.52-4.6-1.37 0-2.5 2.06-2.5 4.6 0 2.54 1.13 4.6 2.5 4.6s2.53-2.06 2.53-4.6zM139.17 211.87c.33-2.5-.5-4.7-1.9-4.9-1.37-.17-2.75 1.72-3.1 4.24-.32 2.53.52 4.7 1.9 4.9 1.37.18 2.76-1.7 3.1-4.23zM194.3 101.9c1-3.57-.05-7.15-2.37-8-2.33-.86-5.05 1.33-6.08 4.9-1.02 3.56.04 7.15 2.37 8 2.32.86 5.04-1.34 6.07-4.9zM183.82 117.76c3.07-2.62 4.38-6.23 2.93-8.08-1.46-1.84-5.12-1.22-8.2 1.4s-4.38 6.22-2.92 8.07c1.45 1.84 5.12 1.22 8.2-1.4zM177.7 108.95c3.04-2.24 4.34-5.34 2.9-6.93s-5.06-1.05-8.1 1.2c-3.03 2.24-4.33 5.34-2.9 6.93s5.07 1.05 8.1-1.2zM201.26 93.47c2.04-1.57 2.92-3.73 1.95-4.84-.96-1.1-3.4-.73-5.45.84s-2.92 3.73-1.95 4.83c.96 1.1 3.4.73 5.46-.83z" fill-rule="evenodd" fill="#6b18b5"/><path d="M188.98 108.47c1.4-2.16 1.5-4.5.2-5.2-1.28-.72-3.45.45-4.85 2.62s-1.5 4.48-.2 5.2c1.27.7 3.45-.47 4.85-2.63zM206.7 99.2c2.2-1.86 3.06-4.32 1.9-5.5-1.13-1.17-3.84-.62-6.05 1.24s-3.06 4.3-1.9 5.5c1.13 1.16 3.84.6 6.05-1.24zM174.68 120.83c2.06-.1 3.6-1.13 3.47-2.3-.14-1.15-1.92-2-3.98-1.9-2.06.1-3.62 1.12-3.47 2.28.14 1.17 1.92 2.03 3.98 1.93zM213.44 87.7c1.4-2.16 1.5-4.5.2-5.2-1.27-.72-3.45.45-4.85 2.62s-1.5 4.5-.22 5.2c1.28.72 3.46-.45 4.86-2.62z" fill-rule="evenodd" fill="#6b18b5"/><path d="M446.83 153.37s6.4-10.1 3.92-19.62c-2.47-9.5-13-2.8-12.78.6.22 3.38 6.8 7.9 7.2 9.98.4 2.07-.74 8.42 1.66 9.05z" fill-rule="evenodd" stroke="#ef8a10" stroke-width=".9659664000000001" fill="#ffd200"/><path stroke-linejoin="round" d="M324.88 69.3s23.02.9 23.16 15.8c-.07 2.3 0 5.05-.82 11.68 4.55-2.46 7.6-9.3 7-13.7.08-15.12-20.55-25.47-29.34-13.78z" fill-rule="evenodd" stroke="#000" stroke-width="2.3235408" fill="#217900"/><path stroke-linejoin="round" d="M310.3 68.63s18.53-3.87 18.68 11.02c.15 14.9-5.88 17.28-5.88 17.28s14.22-3.05 14.3-18.17c.07-15.12-18.32-21.82-27.1-10.13z" fill-rule="evenodd" stroke="#000" stroke-width="2.3235408" fill="#217900"/><path stroke-linejoin="round" d="M373.28 389.95s86.8-24.52 113-131.04C471.1 368.26 376.1 402.93 376.1 402.93l-2.82-12.97z" fill-rule="evenodd" stroke="#000" stroke-width="2.4723547999999997" fill="#f7df73"/><path d="M382.2 396.58c2.67 0 9.3-7.34 13.12-8.2 3.8-.83 4.23-4.65-.14-4.8-4.38-.13-8.2 4.96-8.2 4.96s-3.8 3.24-7.76 3.67c-3.95.43-1.4 5.37 2.97 4.38z" fill-rule="evenodd" fill="#8c1800"/><path d="M432.17 359.3s-9.04 5.22-7.77 6.5c1.27 1.26 9.32-4.95 9.46-5.1.14-.13 3.4-4.08-1.7-1.4z" fill-rule="evenodd" stroke="#8c1800" stroke-width="2.4723547999999997" fill="#8c1800"/><path d="M400.68 383.04s-2.68-1 4.23-3.67c6.93-2.7 6.5-5.8 8.77-7.07 2.26-1.27 7.06-4.65 8.05-2.68s-5.1 5.93-6.5 6.36c-1.4.42-8.33 6.77-10.3 7.34-1.98.56-3.4.28-4.24-.28z" fill-rule="evenodd" fill="#8c1800"/><path d="M445.58 346.03c-5.93 6.64-5.93 6.5-5.93 6.5" stroke="#8c1800" stroke-linecap="round" stroke-width="3.0236231" fill="none"/><path d="M454.5 335.16l-5.66 6.92" stroke="#8c1800" stroke-linecap="round" stroke-width="2.7897516999999996" fill="none"/><path d="M463.37 321.04l-6.35 10.17" stroke="#8c1800" stroke-linecap="round" stroke-width="2.5558803" fill="none"/><path d="M470.86 306.64l-5.23 10.45M474.25 299l-1.7 3.68" stroke="#8c1800" stroke-linecap="round" stroke-width="2.3220088999999997" fill="none"/><path d="M478.06 289l-1.42 4.36" stroke="#8c1800" stroke-linecap="round" stroke-width="1.3865233" fill="none"/><g><path stroke-linejoin="round" d="M160.26 215.97s51.96-14.68 67.65-78.44c-9.1 65.45-65.95 86.2-65.95 86.2l-1.7-7.76z" fill-rule="evenodd" stroke="#000" stroke-width="1.48" fill="#f7df73" transform="matrix(-1.7 0 0 1.7 524.8 20.4)"/><path d="M243.3 394.3c-2.73 0-9.5-7.47-13.37-8.34-3.88-.86-4.3-4.74.15-4.88 4.45-.15 8.33 5.03 8.33 5.03s3.9 3.3 7.9 3.74c4.04.43 1.45 5.46-3 4.46z" fill-rule="evenodd" fill="#8c1800"/><path d="M192.43 356.35s9.2 5.32 7.9 6.6c-1.3 1.3-9.48-5.02-9.62-5.16-.13-.15-3.44-4.18 1.73-1.45z" fill-rule="evenodd" stroke="#8c1800" stroke-width="2.516" fill="#8c1800"/><path d="M224.48 380.5s2.73-1-4.3-3.73c-7.05-2.73-6.62-5.9-8.92-7.18-2.3-1.3-7.2-4.75-8.2-2.74s5.18 6.04 6.62 6.47c1.43.43 8.48 6.9 10.5 7.47 2 .57 3.44.3 4.3-.3z" fill-rule="evenodd" fill="#8c1800"/><path d="M178.78 342.86c6.04 6.75 6.04 6.6 6.04 6.6" stroke="#8c1800" stroke-linecap="round" stroke-width="3.077" fill="none"/><path d="M169.72 331.8l5.75 7.03" stroke="#8c1800" stroke-linecap="round" stroke-width="2.839" fill="none"/><path d="M160.68 317.42l6.46 10.35" stroke="#8c1800" stroke-linecap="round" stroke-width="2.601" fill="none"/><path d="M153.06 302.77l5.32 10.63M149.6 295l1.73 3.74" stroke="#8c1800" stroke-linecap="round" stroke-width="2.363" fill="none"/><path d="M145.73 284.8l1.44 4.46" stroke="#8c1800" stroke-linecap="round" stroke-width="1.4109999999999998" fill="none"/></g><path stroke-linejoin="round" d="M490.42 239.3c.43 6.68 6.97 13.08 4.4 24.74-3.26 13.22-14.78 44.64-12.8 50.2-3.4-4.7-2.83-9.1-3.12-15.65-.28-6.55 9.53-30.86 10.38-39.1 0-7.4.7-17.5 1.14-20.2z" fill-rule="evenodd" stroke="#000" stroke-width="2.3235408" fill="#217900"/><path stroke-linejoin="round" d="M490.42 239.44s10.66 13.5 10.1 24.17c-.57 10.67-6.55 23.18-4.56 28.73-3.4-4.7-4.26-7.68-4.54-14.22-.3-6.53 5.26-13.78 4.12-20.9-1.14-7.1-5.26-17.76-5.12-17.76zM141.12 242.43c-.42 6.68-5.4 12.65-2.84 24.3 3.27 13.23 14.93 30 13.08 49.2 3.4-4.7 4.4-9.95 4.7-16.5.28-6.53-12.95-28.57-13.8-36.8 0-7.4-.7-17.5-1.14-20.2z" fill-rule="evenodd" stroke="#000" stroke-width="2.3235408" fill="#217900"/><path stroke-linejoin="round" d="M141.12 242.57s-10.38 13.08-9.8 23.75c.14 7.1 13.2 36.82 11.22 42.36 3.42-4.7 4.4-4.12 4.27-11.23-3.83-18.2-10.65-29.85-9.52-36.96 1.14-7.12 3.98-17.92 3.84-17.92z" fill-rule="evenodd" stroke="#000" stroke-width="2.3235408" fill="#217900"/><path stroke-linejoin="round" fill="#fff" stroke-dashoffset="1" transform="matrix(1.2 0 0 1.2 202 -23.6)" stroke="#000" stroke-linecap="square" stroke-width="1.66" d="M99.96 125.78L122.13 194h71.74l-58.04 42.2L158 304.4l-58.04-42.15-58.04 42.16 22.16-68.23-58.04-42.17H77.8z"/></g></svg>