<svg xmlns="http://www.w3.org/2000/svg" height="480" width="640"><path fill="#006" d="M0 0h640v480H0z"/><g fill-rule="evenodd"><path d="M408.3 192.25h214.3l-.26 153.44c1.78 61.67-36.42 99.95-106.72 117.2-49.93-12.47-107.5-38.28-107.57-115.46l.25-155.2z" fill="#fff"/><path d="M44.07 22.7h169.3l-.2 120.8c1.4 48.56-28.78 78.7-84.32 92.28-39.44-9.82-84.9-30.13-84.98-90.9l.2-122.17z" stroke="#000" stroke-width="1pt" fill="#00a2bd" transform="matrix(1.2 0 0 1.2 359.7 169.2)"/><path d="M614.17 358.58c-7.4 55.63-50.23 79.93-99.85 92.83-43.92-11.78-91.18-30.6-100.34-92.54l200.2-.28z" fill="#a53d08"/></g><g stroke="#000" fill-rule="evenodd"><path stroke-linejoin="round" d="M546.62 405.8c.12.12.8 11.16-5.18 17.92 5.3 1.7 8.9-.34 10.6-2.48 1.68-2.14 2.25-4.84 2.25-4.84s1.45-.9 1.68-2.93c.1-2.82-1.13-2.82-2.14-3.38l.22-6.32s-6.08-3.72-7.44 2.02z" stroke-width="1.5" fill="#ffc6b5"/><path d="M546.3 421.58l-1.82-1.46" stroke-linecap="round" stroke-width="1.2pt" fill="#ff9a08"/></g><path d="M529.67 252.47s.14 6.75-.28 7.45c-.44.7-4.28 2.5-4.28 2.5l3.28 6.97 9.28-1.32 4-10.45s-2.07-3.47-1.56-7.08c-3.1-9.8-10.3 1.97-10.45 1.92z" fill-rule="evenodd" stroke="#000" stroke-width="1.2pt" fill="#ffc6b5"/><path stroke-linejoin="round" d="M517.44 412.9s5.18 5.2 11.15 4.52c13.52-1.47 17.46-13.53 21.63-13.64s6.76 7.33 10.7 6.42c-3.38-6.2-6.98-19.94-6.42-29.63.57-9.7.57-50.48.57-50.48s-6.76-21.08-9.9-24.57c3.14-3.38 5.28-9.35 5.17-15.9-.1-6.52 0-13.73 0-13.73s1.58-1.8 1.47-6.87c-.1-5.08-8.56-12.4-9.68-12.06-1.13.34-11.72 9.46-12.62 11.6-.9 2.14-2.14-7.77-.12-8.67 2.03-.9-4.73-1.47-9 3.6-4.3 5.07-3.05 149.63-2.94 149.4z" fill-rule="evenodd" stroke="#000" stroke-width="1.5" fill="#005121"/><path d="M466.62 223.32l39.66.14-.3-18.27 14.46.13.14 18.13h39.5l.15 14.16-39.65.14-.32 167.02-14.1.1L506 237.6l-39.4.14.02-14.44z" fill-rule="evenodd"/><path d="M506.14 267.55s-2.7-.48-4.78.16 3.18-23.5 3.18-25.5c1.83-.86 11-2.53 10.76-9-.64-3.9-14.18.25-13.94 5.2-.88 2.46-9.72 27.64-7.97 35.92 3.1 2.47 8.83 2 12.74 1.36v-8.13z" fill-rule="evenodd" stroke="#000" stroke-width="1.2pt" fill="#ffc6b5"/><path d="M508.76 233.05s-.8 4.46 3.27 5.1" stroke="#000" stroke-linecap="round" stroke-width=".756" fill="none"/><path d="M514.74 232.97c-.16.08-5.26 3.27-5.26 3.27M514.43 234.96l-3.6 2.63M513.07 232.02l-3.98 2.4" stroke="#000" stroke-width=".45599999999999996" fill="none"/><path d="M474.3 365.47L510.45 403c12.5-13.75 3.83-65.13-12.62-74.6-1.97 6.1-5.33 13.38-8.9 15.73-7.83 5.35-27.05 11.6-20.62 15.6 1.46-2.03 5.3-3.95 7.1.56 2.14 7.1-8 7.54-8 7.54s-6.43-.8-7.55-7.33c-1.13-6.52 9.56-12.5 10.47-12.94.9-.34 14.88-4.06 17.24-16.45 2.93-12.16 5.98-10.36 6.54-10.58 18.25 1.8 30.2 34.47 30.87 57.46.67 22.98-9.36 38.2-11.16 39.2-1.8 1.02-43.5-49.45-43.5-49.45l3.95-2.26z" fill-rule="evenodd" stroke="#000" stroke-width="1.2pt" fill="#ff9a08"/><path d="M500.65 330.54l.23 67.72M496.6 331.78l.22 61.52M492.2 340.68l.23 48.9M488.6 344.17l.23 40.45M484.76 345.98v34.14M480.6 348.68v27.04M477 350.82v20.73" stroke="#000" stroke-width="1.2pt" fill="none"/><path d="M473.73 369.76l37.3 42.7M512.82 342.83s16.9 36.96 1.24 67.38M469.33 361.98s1.24-3.27 2.82-1.92M466.4 352.5s-6.76 5.98-3.04 9.8" stroke="#ffdf00" stroke-linecap="round" stroke-width="1.5" fill="none"/><path d="M528.94 268.8s.56 5.18-.57 9.13 4.28 14.87 2.26 17.12M531.2 305.64l14.2-.1" stroke="#000" stroke-width="1.2pt" fill="none"/><path d="M526 311.4c.12.2 1.7 7.42 1.25 12.38M530.63 313.98c-.45 1.47-6.3 18.14-6.1 18.82M534.12 306.43c.1.34-.45 10.6-2.03 12.06M541.33 305.64s9.24 21.4 9.13 29.86 3.15 25.58 1 33.12M544.26 335.28s-.68 15.9-7.32 22.08c-6.65 6.2 15.88 23.9 15.88 23.9" stroke="#000" stroke-linecap="round" stroke-width="1.2pt" fill="none"/><path d="M544.03 380.23s2.48 21.86 6.65 23.44M523.64 343.6c.12.23-2.25 14.77-.33 17.13 1.92 2.37 17.8 24.57 17.13 47.55M535.92 401.4s-.45 13.87-13.3 15M532.1 392.3s3.82 14.4-9.25 23.54" stroke="#000" stroke-linecap="round" stroke-width="1.5" fill="none"/><path d="M537.16 357.47s14.76 15.32 15.43 22.08M541.44 305.98s2.6 10.92 1.58 12.84" stroke="#000" stroke-linecap="round" stroke-width="1.2pt" fill="none"/><path d="M495.9 328.43s-1.57-2.77-1.37-5.83-.5-7.8 9.38-11.66c6.04-6.12 12.76-9.77 16.4-11.65 5.34-3.47 8.8-2.68 11.96-3.86 2.08-2.37 1.98-7.6 4.15-12.25 2.18-4.65 6.03-14.23 10.18-12.75 4.15 1.48.9 13.92-.7 18.27-1.57 4.35-2.95 8.9-5.72 11.56-2.76 2.66-15.3 7.5-17.78 8.4s-13.73 3.45-16.6 7.4c-2.86 3.95-2.66 9.78-9.87 12.35z" fill-rule="evenodd" stroke="#000" stroke-width="1.2pt" fill="#ffc6b5"/><path d="M495.12 320.14c.3-.1 4.94-1.58 7.1 2.57" stroke="#000" stroke-width="1.2pt" fill="none"/><path stroke-linejoin="round" d="M530 235.44s-2.1 3.4-2.67 5.47c-.45 1.56-1.9-.1-2.67 3.26l1.25.22c-.5 1-.65 2.66-.75 3.05-.1.4-.8 2.2-.7 3.56.07.7 1.4 3.74 12.16-.9 10.78-4.64-3.45-17.82-6.6-14.66z" fill-rule="evenodd" stroke="#000" stroke-width="1.5" fill="#ffc6b5"/><path stroke-linejoin="round" d="M528.78 235.88c1.1-.6 8.95-1.3 7.64 14.02 1.5-.2 2.4-.4 3.32 1.1.9 1.47.8 3.25 2.4 3.25 1.62 0 1.82-.3 2.22-1.48.4-1.2 6.64 1.38 8.25-4.15-.27-1.08-3.8-2.77-4.22-4.74.9-2.77-.4-11.76-11.86-12.25-5.93-.1-7.14 2.37-7.74 4.24z" fill-rule="evenodd" stroke="#000" stroke-linecap="round" stroke-width="1.512" fill="#c59200"/><path d="M528.2 238.94c.1.1 3.56 1.08 3.96 2.76" stroke="#000" stroke-linecap="round" stroke-width="1.2pt" fill="none"/><path d="M530.33 243c0 .52-.4.94-.9.94s-.88-.42-.88-.94.4-.93.9-.93.88.42.88.93z" fill-rule="evenodd"/><path stroke-linejoin="round" d="M544.96 243.05s-1.27 6.1 4.3 8.48M540.83 243.8s2.06.1 2.06 2.02-1.7 2.15-1.56 3.7c.14 1.55 2.9 2.06 3 3.37M531.78 232.55c.1 0 9.9 1.13 9.33 3.56-.55 2.45-2.1 1.47-2.05 3.58s3.93.84 3.93.84.24-1.78 1.88-1.64.9 2 3.14 1.97" stroke="#000" stroke-linecap="round" stroke-width="1.5" fill="none"/><path d="M525.8 247.75l2.32-.08" stroke="#000" stroke-linecap="round" stroke-width="1.5" fill="none"/><path d="M531.84 257.64s.86 4.03-2.4 3.64" stroke="#000" stroke-linecap="round" stroke-width="1.2pt" fill="none"/><g stroke-width="1pt"><path fill="#fff" d="M0 .06V28.5l343.65 225.93h43.25V226L43.26.06H0zm386.9 0V28.5L43.26 254.43H0V226L343.65.05h43.25z"/><path fill="#fff" d="M161.2.06v254.37h64.5V.06h-64.5zM0 84.86v84.78h386.9v-84.8H0z"/><path fill="#c00" d="M0 101.8v50.88h386.9V101.8H0zM174.1.07v254.37h38.7V.06h-38.7zM0 254.43l128.97-84.8h28.84l-128.96 84.8H0zM0 .06l128.97 84.8h-28.84L0 19V.06zm229.1 84.8L358.07.05h28.83l-128.96 84.8H229.1zm157.8 169.57l-128.96-84.8h28.83l100.13 65.84v18.96z"/></g></svg>