<svg xmlns="http://www.w3.org/2000/svg" height="480" width="640"><g fill-rule="evenodd" stroke-width="1pt"><path fill="#ce0000" d="M320 0h320v480H320z"/><path fill="#fff" d="M0 0h320v480H0z"/></g><g transform="matrix(1.6 0 0 1.6 -12.4 -30.8)"><path d="M104.82 108.07c0 .8-.9 1.46-2.05 1.46-1.13 0-2.04-.65-2.04-1.46 0-.8.9-1.47 2.04-1.47 1.14 0 2.05.66 2.05 1.47z" fill-rule="evenodd" fill="#f1eeee"/><path d="M40.73 100.98v37.2h37.2c0 6.2 6.2 12.4 12.4 12.4v37.22h37.22v-37.2c6.2 0 12.4-6.2 12.4-12.4h37.2v-37.22h-37.2c0-6.2-6.2-12.4-12.4-12.4v-37.2h-37.2v37.2c-6.2 0-12.4 6.2-12.4 12.4H40.72z" fill-rule="evenodd" fill="#c00"/><path d="M41.97 102.22v34.73h37.2c0 6.2 6.2 12.4 12.4 12.4v37.2h34.74v-37.2c6.2 0 12.4-6.2 12.4-12.4h37.23v-34.73H138.7c0-6.2-6.2-12.4-12.4-12.4v-37.2H91.6v37.2c-6.2 0-12.4 6.2-12.4 12.4h-37.2z" fill-rule="evenodd" fill="#ffe600"/><path d="M43.2 103.46v32.25h37.22c0 6.2 6.2 12.4 12.4 12.4v37.22h32.25v-37.2c6.2 0 12.4-6.2 12.4-12.4h37.2v-32.26h-37.2c0-6.2-6.2-12.4-12.4-12.4v-37.2H92.82v37.2c-6.2 0-12.4 6.2-12.4 12.4h-37.2z" fill-rule="evenodd" fill="#707070"/><path d="M44.45 104.7v29.77h37.2c0 6.2 6.2 12.4 12.4 12.4v37.2h29.78v-37.2c6.2 0 12.4-6.2 12.4-12.4h37.2V104.7h-37.2c0-6.2-6.2-12.4-12.4-12.4V55.1H94.06v37.2c-6.2 0-12.4 6.2-12.4 12.4h-37.2z" fill-rule="evenodd" fill="#a0a0a0"/><g fill-rule="evenodd"><path d="M94.37 89.22c2.18 2.18.4 7.48-3.95 11.84s-9.66 6.13-11.84 3.95c-2.18-2.17-.4-7.47 3.95-11.83s9.66-6.13 11.84-3.95z" fill="#d0d0d0"/><path d="M91.74 91.85c2.18 2.18 1.6 6.3-1.32 9.2s-7.03 3.5-9.2 1.33c-2.18-2.18-1.6-6.3 1.3-9.2s7.04-3.5 9.22-1.33z" fill="gray"/><path d="M80.77 98.43l.88-.88 3.5 1.76-1.74-3.5.88-.88 3.5 7.02-7-3.5zM86.04 93.17l.87-.88 5.28 5.25-.88.88z" fill="#d0d0d0"/></g><g fill-rule="evenodd"><path d="M139.3 105c-2.17 2.2-7.47.42-11.83-3.94s-6.13-9.66-3.95-11.84c2.18-2.18 7.48-.4 11.84 3.95s6.13 9.66 3.95 11.84z" fill="#d0d0d0"/><path d="M136.68 102.38c-2.18 2.18-6.3 1.6-9.2-1.32s-3.5-7.03-1.33-9.2c2.18-2.18 6.3-1.6 9.2 1.3s3.5 7.04 1.33 9.22z" fill="gray"/><path d="M130.1 91.4l.88.9-1.76 3.5 3.5-1.75.9.87-7.03 3.5 3.5-7zM135.36 96.68l.88.87-5.26 5.27-.88-.88z" fill="#d0d0d0"/></g><g fill-rule="evenodd"><path d="M123.52 149.95c-2.18-2.18-.4-7.48 3.95-11.84s9.66-6.12 11.84-3.94c2.2 2.18.42 7.48-3.94 11.84s-9.66 6.13-11.84 3.95z" fill="#d0d0d0"/><path d="M126.15 147.32c-2.18-2.18-1.6-6.3 1.32-9.2s7.03-3.5 9.2-1.33c2.18 2.17 1.6 6.3-1.3 9.2s-7.04 3.5-9.22 1.32z" fill="gray"/><path d="M137.12 140.74l-.88.88-3.5-1.76 1.74 3.5-.87.9-3.5-7.03 7.02 3.5zM131.85 146l-.87.88-5.27-5.26.9-.88z" fill="#d0d0d0"/></g><g fill-rule="evenodd"><path d="M78.6 134.16c2.17-2.18 7.47-.42 11.83 3.94s6.12 9.66 3.94 11.84c-2.18 2.18-7.48.42-11.84-3.94s-6.12-9.66-3.94-11.84z" fill="#d0d0d0"/><path d="M81.2 136.8c2.2-2.2 6.32-1.6 9.22 1.3s3.5 7.03 1.32 9.2c-2.18 2.2-6.3 1.6-9.2-1.3s-3.5-7.03-1.33-9.2z" fill="gray"/><path d="M87.8 147.75l-.9-.88 1.77-3.5-3.5 1.75-.9-.88 7.03-3.5-3.5 7zM82.53 142.5l-.88-.9 5.27-5.25.87.88z" fill="#d0d0d0"/></g><path d="M269.3 414.57c0 41.1-34.12 74.4-76.2 74.4s-76.17-33.3-76.17-74.4 34.1-74.4 76.18-74.4 76.2 33.3 76.2 74.4z" transform="matrix(.3 0 0 .4 42.9 -25.5)" stroke="#707070" stroke-width="1pt" fill="none"/><path d="M269.3 414.57c0 41.1-34.12 74.4-76.2 74.4s-76.17-33.3-76.17-74.4 34.1-74.4 76.18-74.4 76.2 33.3 76.2 74.4z" transform="matrix(.3 0 0 .3 58.6 9)" stroke="#707070" stroke-width="1pt" fill="none"/><path d="M100.26 140.67c0 .68-.55 1.24-1.24 1.24s-1.24-.55-1.24-1.23.56-1.24 1.24-1.24 1.24.55 1.24 1.24zM120.1 140.67c0 .68-.54 1.24-1.23 1.24s-1.24-.55-1.24-1.23.56-1.24 1.24-1.24 1.24.55 1.24 1.24zM108.12 140.67v1.3h-1.65c-1.66 0-1.66 1.3 0 1.3h1.65v1.28c0 1.34 1.44 1.5 1.55.1l.1-1.4h1.66c1.65 0 1.65-1.3 0-1.3h-1.66v-1.28c0-1.3-1.65-1.3-1.65 0z" fill-rule="evenodd" fill="#d0d0d0"/><path d="M102.77 122.35v.73s-.4.56-2.87.74c-2.48.17-2.87 0-2.87 0 .07.64.55 1.85.4 3.3.1 1.68-.46 3.2-.46 3.2.06.1-.23.14-.76.1.42-.37.38-1.43.42-2.94.05-1.5-1.56-3.77-1.22-4.4.33-.62 7.37-.73 7.37-.73zM112.6 119.7c2.42-.12 6.47-.1 6.47-.1s.95 1.92.9 2.97c-.03 1.06-.35 1.96-.8 1.5-.46-.44.2-.35.28-1.5.08-1.14-.77-2.32-.77-2.32s-1.73.75-4.33.6c-2.6-.15-1.45-1.1-1.74-1.16z" fill-rule="evenodd" stroke="#707070" stroke-width=".15" fill="#d0d0d0"/><path d="M113.43 121.58c2.4-.1 4 .26 4 .26s.95 1.9.9 2.97c-.03 1.07-.36 1.97-.8 1.52-.46-.45.2-.37.28-1.5.1-1.15-.76-2.34-.76-2.34s-1.73.76-4.33.6c-2.6-.15-1.85-.3-2.14-.35-.3-.04-.37.72-4.3.83-3.94.1-5.95-.83-5.95-.83s-.38.57-2.85.74c-2.48.17-2.87 0-2.87 0 .06.64.54 1.85.4 3.3.1 1.68-.47 3.2-.47 3.2.08.1-.22.14-.74.1.4-.37.36-1.43.4-2.94.06-1.5-1.56-3.77-1.22-4.4.33-.62 2.12-.04 2.46-.36.34-.33-1.6-2.62-1.23-4.77.36-2.14 2.4-1.54 4.9-1.46 2.53.07 8.1.72 9.44 0 1.35-.73.77-3.4 2.06-5.14.82-1.1 2.05-1.46 3.27-1.46.82 0 2.05 2.93 2.05 3.66l-.4.37h-.42v.37c-.93.1-1.06-.8-1.64-1.47-.24 1.03.82 4.4.82 6.6 0 1.83-.76 2.64-.8 2.5z" fill-rule="evenodd" stroke="#707070" stroke-width=".15" fill="#d0d0d0"/><path d="M105.54 118.4c.03.73-3.17 2.37-3.43 3.02-.25.65.83 1 .5 1.38-.34.37-.6.23-.68.3-.07.07-1.2-2.54-1.2-2.54s3-1.36 2.9-1.94c-.13-.6-2.23-.94-2.6-2.4-.4-1.5-.18-4.33-.5-4.92-.3-.6-4-1.17-4-2.06 0-.9 3.8-3.37 4.2-3.74.4-.36.82.37.4.74-.4.36-3.36 2.63-3.36 3 0 .36 2.45.73 3.27.73.82 0 1.23-.37 1.23-.73 0-.32-.82-.37-.82-1.1s.4-1.1 1.23-1.1c.4 0 1.2.47 1.23 1.1s-.73.68-.82 1.1c-.1.4.82.73 1.64.73s3.62 2.13 4.03 2.5c.4.36.82.36.4.73-.4.37-.16.8-.57.43-.35-.35-.4-.73-.4-.73-.05-.33-3.05-1.83-3.46-1.46-.4.36 0 4.76 0 5.13 0 .73.85.73.82 1.83z" fill-rule="evenodd" stroke="#707070" stroke-width=".15" fill="#d0d0d0"/><path fill-rule="evenodd" fill="#a7a7a7" d="M100.32 109.9h4.92v5.13h-4.92z"/><rect transform="matrix(.6 .8 -.9 .5 0 0)" fill-rule="evenodd" rx=".44" ry=".2" height=".4" width="30.65" y="-25.67" x="138.6" fill="gray"/><path d="M180.7 42.52c0 3.9-3.16 7.1-7.08 7.1s-7.08-3.2-7.08-7.1 3.17-7.1 7.08-7.1 7.1 3.2 7.1 7.1z" fill-rule="evenodd" transform="matrix(.1 0 0 .1 80.7 101.5)" stroke="#707070" stroke-width="1pt" fill="#d0d0d0"/><path d="M115.88 112.54c0 .3-1.9.66-4.1.66-2.2 0-4.1-.36-4.1-.66 0-.3 1.9.44 4.1.44 2.2 0 4.1-.74 4.1-.44z" fill-rule="evenodd" fill="gray"/><path fill-rule="evenodd" fill="#a7a7a7" d="M100.73 115.03h4.1v1.47h-4.1z"/><path d="M114.05 111.42c-.4.74-.78 1.27-.84 1.18-.06-.1.2-.76.6-1.5.4-.75.78-1.28.85-1.2.06.1-.2.77-.6 1.52zM115.08 113.34c-.45.4-.83.66-.84.58 0-.08.34-.47.8-.87.45-.4.83-.65.84-.57 0 .08-.34.47-.8.86z" fill-rule="evenodd" fill="gray"/><path d="M114.56 112.4c.34.62.56 1.13.5 1.16-.07.03-.4-.44-.72-1.05-.34-.6-.56-1.1-.5-1.14.07-.02.4.45.72 1.05zM114.24 115.58c0 .1-1.28.2-2.86.2s-2.87-.1-2.87-.2 1.3-.18 2.88-.18c1.58 0 2.86.08 2.86.18zM104.82 115.22c0 .1-.9.18-2.05.18-1.13 0-2.04-.08-2.04-.18 0-.1.9-.2 2.04-.2 1.14 0 2.05.1 2.05.2z" fill-rule="evenodd" fill="gray"/><path d="M95.8 127.96s.7 1.64 3.57 1.67c2.88.02 3.87-.5 2.7-1.37-1.16-.87-3.33-.6-3.05.15.28.77-.8 1.02-1.07.5-.25-.54-1.3-2.1.57-2.2 1.85-.1 5.78-.68 6.77.4.97 1.1-1.12 2.1.46 2.32 1.58.23 1.8-.27 4.53-.42 2.7-.15 3.75.5 4.68.42.93-.1.8-1.7.06-2.1-.74-.4-2.15-.48-2.52-.93-.36-.46-1.35-.1-1.25-.6.1-.5 1.4.35 1.4.1 0-.02.23-.2.27-.23-.16-.04-.26.02-.38.1.13-.12.13-.17.17-.26-.02-.02-.2.14-.2.1-.04-.03.18-.25.08-.17-.03.02-.28.15-.3.06.02-.04.15-.13.1-.18-.04-.05-.23.04-.26.05.1-.15.1-.14 0-.26-.1-.1-.17-.1-.32.03.06-.18.08-.22-.07-.3-.13-.06-.14-.12-.3.2.07-.34-.1-.36-.03-.52.04-.14.25-.2.6-.17.68 0 1.04.8 1.26.8.22 0 .47-.85 1.42-.5.94.35 1.06.42 1.54.62s-.34.52-.06.93c.27.4 2.13 1.77 1.6 3.18-.53 1.42-1.9 1.64-2 2.25-.14.63 4.3.37 5.43.58 1.14.2 1.85 1.05 1.9 1.2.04.13-1.98.13-1.98.13s-1.05-.53-3.53-.58c-2.5-.05-3.44-1.05-4.37-1.18-.93-.12-2.9.2-4.02.16-1.1-.05-2.2-.22-2.93-.32-.72-.1-4.3 1.6-4.28 2-.75-.02-2.5-.1-2.43-.07.07.06.3-.76 1.68-.9 1.37-.15 2.7-.8 2.65-1.23-.04-.43.26-1.9.38-2.54.1-.63.62-.94.5-1.27-.12-.33-1.68-.67-3.18-.66-1.5 0-3.15.1-3.4.45-.24.37-.05 1.4.26 1.3.3-.13-.08-.8.25-.95.33-.15 1.17-.27 1.96-.3.8 0 2.15.68 2.14.9 0 .22.44.95-.2 1.23-.62.28-1.9.4-3.14.34-1.23-.06-2.48-.48-2.92-.76-.45-.26-.73-1.08-.73-1.14z" fill-rule="evenodd" stroke="gray" stroke-width=".08" fill="#d0d0d0"/><path d="M114.05 125.53c0 .18-.14.33-.33.33-.18 0-.32-.15-.32-.33 0-.18.14-.33.32-.33.2 0 .33.15.33.33z" fill-rule="evenodd"/><path d="M129.5 120.77l1.6.34 2.67-1.8-.2.95-1.4.93c-.25.17-.5.32-.76.46.17.22.34.5.53.8l.86 1.4-.2.9-1.66-2.84-1.6-.34.17-.8zM126.8 109.04l3.08-1.42-.84-1.82.4-.2 2.03 4.4-.42.18-.84-1.83-3.07 1.42-.34-.73zM122 103.23l2.85-2.6.56.6-.06 4.4 2.23-2.04.52.56-2.85 2.6-.56-.6.06-4.4-2.23 2.04-.52-.57zM109.6 98.2l.46-3.8.8.1-.42 3.36 2.98.36-.06.45-3.77-.46zM103.48 98.76l-.7-3.8.8-.13.6 3.34 2.96-.54.08.45-3.74.68zM92.2 104.33l-.28-.35 2-1.62.9 1.12c-.2.4-.4.78-.67 1.12-.27.34-.58.65-.92.92-.47.38-.94.65-1.42.83-.48.18-.9.23-1.3.15-.38-.1-.7-.28-.93-.57-.24-.3-.36-.65-.37-1.05 0-.4.12-.82.38-1.24.27-.4.64-.8 1.1-1.2.35-.26.7-.47 1.03-.62.34-.16.64-.23.9-.24.25 0 .5.07.75.2l-.5.56c-.18-.1-.37-.14-.54-.15-.17 0-.38.04-.62.15-.23.1-.47.25-.7.44-.3.22-.53.45-.7.67-.16.22-.27.43-.33.63-.05.2-.07.37-.06.53.02.3.12.54.3.75.2.27.46.44.75.5.3.06.6.03.96-.1.36-.14.7-.34 1-.6.28-.2.52-.45.72-.72.2-.28.35-.5.42-.7l-.45-.55-1.4 1.13zM92.07 132.03l-3.14 2.23-2.38-3.35.37-.25 1.9 2.7.98-.7-1.65-2.33.37-.26 1.66 2.33 1.42-1.03.47.66zM87.44 127.02c.45-.13.75-.4.9-.87.15-.45.14-.96-.02-1.53-.17-.6-.43-1.03-.8-1.33-.36-.32-.78-.4-1.26-.27-.3.1-.54.24-.72.47-.18.22-.3.5-.33.85-.02.35 0 .7.12 1.1.16.55.4 1 .76 1.32.35.32.8.4 1.36.25zm.22.8c-.62.17-1.17.05-1.67-.37-.5-.43-.87-1.05-1.1-1.88-.15-.54-.2-1.05-.17-1.53s.18-.87.4-1.18c.24-.3.53-.52.9-.63.38-.1.75-.08 1.12.08.36.16.68.44.96.84.28.4.5.84.64 1.35.15.54.2 1.06.16 1.54-.04.48-.18.88-.4 1.18-.24.3-.52.5-.84.6zM87.98 120l-3.85-.1.06-2.68c0-.55.05-.96.12-1.24.08-.28.2-.5.38-.67.18-.15.38-.23.6-.23.26 0 .5.16.67.44.18.3.3.73.33 1.3.07-.2.14-.36.2-.47.14-.23.32-.45.53-.66l1.07-1.03-.02 1-.82.8c-.24.23-.42.42-.54.57-.13.16-.22.3-.27.4-.05.13-.1.25-.1.38-.03.1-.04.24-.04.44v.94l1.7.04-.02.8zm-2.13-.85l.04-1.73c0-.37-.02-.66-.06-.87-.05-.2-.12-.37-.23-.48-.1-.1-.2-.16-.33-.17-.18 0-.33.1-.46.3-.1.2-.17.54-.18 1l-.05 1.92 1.28.03zM96.55 102.2l.03-4.5.74-.45 4.12 2.03-.8.47-1.2-.64-2.18 1.32.02 1.34-.73.44zm.7-2.26L99 98.88l-1.08-.6c-.33-.17-.6-.32-.78-.45.06.25.1.52.1.8v1.3zM115.85 98.73L120 97l.7.5-.25 4.6-.74-.55.12-1.36-2.05-1.5-1.23.54-.7-.5zm2.35-.24l1.67 1.2.1-1.23.13-.9c-.2.15-.44.3-.7.4l-1.2.52zM128.5 112.83l3.75-.9.62 2.63c.13.52.2.93.2 1.22 0 .3-.08.54-.2.75-.14.2-.3.33-.5.38-.28.07-.54 0-.78-.24-.26-.23-.48-.62-.66-1.17-.02.2-.04.38-.08.5-.07.26-.2.52-.34.77l-.77 1.27-.24-.98.6-.97.4-.7c.07-.17.12-.33.14-.46.02-.12.02-.25 0-.38 0-.1-.02-.24-.07-.44l-.22-.9-1.66.4-.2-.8zm2.28.28l.4 1.7c.1.35.18.63.27.82.1.2.2.32.34.4.12.08.24.1.36.08.18-.04.3-.18.37-.4.06-.24.04-.57-.06-1l-.45-1.88-1.24.3z" fill="#d0d0d0"/></g></svg>