<svg xmlns="http://www.w3.org/2000/svg" height="480" width="640" version="1"><g stroke-width="1pt" fill-rule="evenodd"><path fill="#f41408" d="M0 0h640v480H0z"/><path fill="#21873b" d="M0 320h640v160H0z"/><path d="M0 0h640v160H0z"/><g><path d="M220.48 141.06c22.3-49.26 84.5-72.83 138.83-52.6 27.37 10.2 46.75 27.76 58 52.56l-196.8.04zM194.5 147.43c-23.44-1.58-48.37-6.46-52.43-7.8-4.07-1.35-4.23-3.6-3.73-5.3.5-1.72 3.1-3.67 6.13-2.95 5.68 1.37 28.8 6.9 50.03 16.05zM319.14 61.5c-4.2-20.97-5.27-44.06-4.86-47.97.4-3.9 2.76-4.6 4.72-4.6s4.7 1.8 4.68 4.64c-.02 5.33-.13 27-4.54 47.94zM330.68 62c-2.2-21.23-1.1-44.32-.3-48.2.77-3.85 3.18-4.36 5.13-4.2 1.96.16 4.52 2.15 4.24 4.98-.53 5.3-2.7 26.9-9.06 47.42zM341.14 63.3c-.28-21.34 2.94-44.27 4.06-48.06 1.13-3.8 3.58-4.12 5.5-3.82 1.94.3 4.3 2.48 3.77 5.28-1 5.25-5.1 26.6-13.33 46.6zM352.15 65.52c1.8-21.26 7.22-43.85 8.7-47.54 1.5-3.68 3.97-3.82 5.87-3.36 1.9.46 4.03 2.8 3.23 5.56-1.52 5.15-7.68 26.1-17.8 45.34zM363 68.65c3.87-21.03 11.48-43.1 13.33-46.64 1.84-3.54 4.32-3.48 6.16-2.87 1.83.6 3.74 3.13 2.66 5.8-2 5-10.2 25.37-22.16 43.72zM373.1 72.48c5.85-20.65 15.52-42.04 17.7-45.44 2.16-3.4 4.62-3.14 6.4-2.4 1.78.76 3.44 3.42 2.1 6-2.46 4.83-12.54 24.48-26.2 41.84zM383.06 77.2c7.8-20.1 19.5-40.65 22-43.86 2.5-3.2 4.92-2.76 6.6-1.87 1.7.9 3.1 3.67 1.55 6.13-2.93 4.62-14.86 23.4-30.14 39.6zM392.47 82.68c9.7-19.42 23.34-38.96 26.13-41.96 2.8-3 5.17-2.36 6.77-1.35 1.6 1.02 2.73 3.9.94 6.23-3.36 4.37-17.05 22.13-33.83 37.08zM401.33 88.88c11.54-18.58 27-36.97 30.07-39.74 3.07-2.76 5.37-1.94 6.87-.8s2.35 4.1.34 6.28c-3.77 4.1-19.12 20.7-37.27 34.25zM409.58 95.77c13.3-17.6 30.46-34.68 33.8-37.2 3.3-2.5 5.53-1.5 6.9-.25 1.4 1.25 1.95 4.27-.26 6.28-4.16 3.77-21.05 19.1-40.44 31.17zM417.16 103.3c14.94-16.46 33.7-32.1 37.25-34.35 3.57-2.24 5.68-1.06 6.94.3 1.26 1.36 1.52 4.4-.88 6.23-4.5 3.43-22.82 17.35-43.3 27.83zM423.68 111.04c16.4-15.27 36.55-29.45 40.3-31.4 3.74-1.97 5.74-.64 6.87.82 1.13 1.45 1.1 4.5-1.46 6.14-4.8 3.07-24.34 15.56-45.72 24.44zM429.58 119.43c17.8-13.94 39.2-26.5 43.1-28.17 3.93-1.66 5.8-.18 6.78 1.35 1 1.55.68 4.6-2.03 6.02-5.07 2.7-25.7 13.62-47.85 20.8zM435.05 129c19.14-12.4 41.73-23.1 45.8-24.44 4.08-1.33 5.78.3 6.6 1.9.83 1.63.2 4.63-2.63 5.83-5.33 2.24-27 11.4-49.77 16.7zM439.23 138.22c20.24-10.85 43.76-19.77 47.94-20.78 4.2-1 5.73.76 6.4 2.42.67 1.67-.23 4.62-3.17 5.6-5.52 1.82-27.98 9.25-51.17 12.76zM442.6 148c21.2-9.2 45.5-16.2 49.77-16.86 4.26-.67 5.63 1.2 6.13 2.92s-.67 4.58-3.7 5.32c-5.68 1.37-28.77 6.98-52.2 8.63zM307.85 61.9c-6.33-20.53-9.74-43.44-9.73-47.36 0-3.92 2.28-4.82 4.23-4.98 1.95-.15 4.86 1.4 5.13 4.23.52 5.3 2.63 26.9.37 48.1zM296.75 63.2c-8.28-19.94-13.9-42.5-14.26-46.4-.37-3.92 1.8-5 3.73-5.3 1.93-.3 4.97 1 5.52 3.8 1.03 5.25 5.2 26.6 5 47.9zM285.72 65.4C275.52 46.2 267.75 24.2 267 20.3c-.75-3.85 1.32-5.1 3.2-5.56 1.9-.46 5.06.6 5.88 3.35 1.53 5.13 7.76 26.06 9.63 47.3zM275.32 68.36c-11.95-18.37-21.76-39.7-22.86-43.5-1.1-3.8.84-5.2 2.68-5.8 1.84-.6 5.08.22 6.16 2.9 2 5 10.17 25.36 14.03 46.4zM265.16 72.13c-13.65-17.37-25.44-37.87-26.9-41.56-1.46-3.7.34-5.24 2.12-6 1.78-.73 5.1-.17 6.4 2.4 2.48 4.84 12.55 24.5 18.37 45.16zM254.9 76.93c-15.32-16.18-29.1-35.63-30.92-39.2-1.82-3.55-.18-5.24 1.52-6.13 1.7-.9 5.05-.6 6.62 1.87 2.94 4.6 14.92 23.36 22.77 43.46zM245.54 82.3C228.74 67.4 213.17 49.1 211 45.7c-2.14-3.4-.67-5.2.94-6.23 1.6-1.02 4.97-1 6.77 1.33 3.38 4.37 17.1 22.12 26.84 41.53zM236.78 88.28c-18.14-13.57-35.38-30.6-37.85-33.82-2.46-3.23-1.16-5.14.34-6.28 1.5-1.14 4.86-1.37 6.87.8 3.78 4.1 19.1 20.72 30.64 39.3zM228.27 95.23c-19.4-12.05-38.25-27.62-41.02-30.63-2.77-3.02-1.67-5.03-.28-6.28 1.38-1.26 4.7-1.77 6.92.24 4.15 3.77 21.06 19.1 34.37 36.67zM220.92 102.36c-20.45-10.53-40.67-24.62-43.7-27.4-3.05-2.8-2.13-4.9-.87-6.24 1.26-1.36 4.53-2.12 6.92-.28 4.5 3.43 22.76 17.4 37.65 33.92zM213.88 110.5c-21.4-8.84-42.92-21.24-46.22-23.77-3.3-2.54-2.6-4.7-1.47-6.14 1.1-1.47 4.3-2.48 6.86-.85 4.8 3.06 24.37 15.5 40.82 30.75zM207.57 119.32c-22.2-7.05-44.86-17.63-48.4-19.9-3.54-2.24-3.05-4.45-2.08-6 .97-1.53 4.04-2.8 6.75-1.38 5.1 2.65 25.82 13.45 43.72 27.28zM202.33 128.3c-22.8-5.28-46.38-14.03-50.13-16-3.74-1.97-3.47-4.2-2.64-5.8.82-1.62 3.75-3.13 6.6-1.94 5.33 2.25 27 11.37 46.17 23.73zM198.13 137.28c-23.2-3.53-47.52-10.45-51.43-12.13-3.9-1.67-3.84-3.92-3.17-5.6.67-1.66 3.45-3.38 6.4-2.4 5.52 1.82 27.97 9.26 48.2 20.13z" fill="#f31509"/><path d="M194.5 147.43c-23.44-1.58-48.37-6.46-52.43-7.8-4.07-1.35-4.23-3.6-3.73-5.3.5-1.72 3.1-3.67 6.13-2.95 5.68 1.37 28.8 6.9 50.03 16.05z" fill="#f31509"/><path d="M129.4 141.52H510.6v12.56H129.4z"/></g></g></svg>