<svg xmlns="http://www.w3.org/2000/svg" height="480" width="640" version="1"><defs><clipPath id="a"><path fill-opacity=".67" d="M0 0h640v480H0z"/></clipPath></defs><g clip-path="url(#a)"><g fill-rule="evenodd" transform="translate(40)"><path fill="#f50013" d="M-40 0h720v480H-40z"/><path fill="#00189a" d="M-40 0h720v240H-40z"/><path d="M-40 0l413.15 239.7L-40 479.07V0z" fill="#feffff"/><path d="M-20.42 437.1l4.2-18.5-16.6-9.17 19.3-2.4 4.4-18.46 7.7 17 19.33-2.23-14.52 12.9 7.55 17.1-16.7-9.03-14.65 12.8zM67.45 198.5l-14.82-25.46-8.53-.96 20.3 28.83 3.05-2.4zm-11.5 11.66L24.77 186.2l-1.1-13.97 12.6-.4 25.76 31.5-6.08 6.86zm-4.74 5.5l-25.64-14.5-1.1-8.5 29.12 19.9-2.37 3.1zM104.14 193.27l7.74-28.43-5.3-6.75-6.3 34.68 3.86.5zm-16.4-.02l-4.77-39.04 9.17-10.58 9.15 8.68-4.4 40.48-9.15.47zm-7.22.48l-7.68-28.44 5.3-6.76 6.24 34.7-3.86.5zM133.87 216.2l25.84-14.16 1.2-8.5-29.35 19.54 2.32 3.1zm-11.36-11.82l24.8-30.53 14-.75.1 12.6-32.2 24.94-6.7-6.26zm-5.35-4.88l15.15-25.26 8.54-.86-20.67 28.57-3.02-2.45zM138.47 251.8l28.42 7.76 6.75-5.3-34.7-6.3-.48 3.85zm.02-16.38l39.04-4.76 10.6 9.18-8.7 9.14-40.48-4.4-.47-9.16zm-.48-7.23l28.45-7.67 6.74 5.3-34.7 6.22-.48-3.86zM116.83 280.78l14.94 25.4 8.53.92-20.43-28.74-3.04 2.42zm11.46-11.71l31.27 23.84 1.17 13.97-12.6.48-25.9-31.4 6.05-6.88zm4.7-5.5l25.72 14.36 1.1 8.5-29.17-19.78 2.35-3.1zM80.27 286.2l-7.54 28.48 5.34 6.72 6.06-34.74-3.86-.46zm16.4-.1l5.04 39-9.1 10.67-9.2-8.62 4.1-40.5 9.16-.55zm7.22-.52l7.86 28.4-5.26 6.77-6.47-34.67 3.86-.5zM50.6 263.87L25 278.44l-1.05 8.5 29.03-20-2.37-3.07zm11.56 11.63l-24.3 30.92-13.98.98-.3-12.6 31.78-25.46 6.8 6.16zm5.43 4.8l-14.75 25.5-8.52 1 20.2-28.9 3.06 2.4zM45.54 227.9l-28.47-7.55-6.72 5.34 34.73 6.06.46-3.86zm.1 16.4l-39 5.02-10.67-9.1 8.63-9.2 40.5 4.1.53 9.17zm.52 7.2l-28.4 7.88-6.77-5.26 34.65-6.46.5 3.85zM301.72 264.76l-11-15.45-17.9 6.28 11.06-16L273.03 224l17.83 5.58 11.2-15.9-.04 19.44 17.76 5.74-17.84 6.45-.22 19.46zM-9.85 92.12l-3.4-18.65-18.9-1.9 16.8-9.8-3.22-18.7 13.79 12.58L12.1 46 3.8 63.6 17.48 76.3l-18.9-1.72-8.43 17.52z" fill="#eca300"/><ellipse cx="190.68" rx="73.03" cy="353.88" transform="matrix(.7 0 0 .7 -37.1 0)" ry="73.03" fill="#eca300"/></g></g></svg>