<svg xmlns="http://www.w3.org/2000/svg" width="640" height="480" viewBox="0 0 640 480" xmlns:xlink="http://www.w3.org/1999/xlink">
  <defs>
    <rect id="b" width="640" height="480"/>
    <rect id="a" width="640" height="480"/>
    <mask id="d" width="640" height="480" x="0" y="0" fill="white">
      <use xlink:href="#a"/>
    </mask>
  </defs>
  <g fill="none" fill-rule="evenodd">
    <mask id="c" fill="white">
      <use xlink:href="#b"/>
    </mask>
    <g transform="translate(-.001)" mask="url(#c)">
      <rect width="720" height="480" x=".001" fill="#F50013" fill-rule="nonzero"/>
      <rect width="720" height="240" x=".001" fill="#00189A" fill-rule="nonzero"/>
      <polygon fill="#FEFFFF" fill-rule="nonzero" points=".001 0 413.151 239.69 .001 479.08 .002 0"/>
      <polygon fill="#ECA300" fill-rule="nonzero" points="19.579 437.1 23.79 418.61 7.185 409.435 26.486 407.025 30.877 388.567 38.594 405.57 57.911 403.337 43.38 416.254 50.928 433.332 34.23 424.313 19.577 437.1"/>
      <path fill="#ECA300" fill-rule="nonzero" d="M107.453 198.5L92.627 173.041 84.1008 172.07544 104.4018 200.90544 107.4533 198.50014 107.453 198.5zM95.945 210.165L64.772 186.179 63.6553 172.215 76.2613 171.78897 102.0323 203.30697 95.945 210.16457 95.945 210.165zM91.2111 215.6499L65.5551 201.1679 64.4746 192.6555 93.5756 212.5655 91.2117 215.6492 91.2111 215.6499zM144.14 193.27L151.8784 164.843 146.5843 158.0901 140.2851 192.7831 144.14 193.26987 144.14 193.27zM127.754 193.2537L122.9736 154.2117 132.1403 143.6187 141.2885 152.3024 136.9113 192.7794 127.754 193.25323 127.754 193.2537zM120.5243 193.72877L112.8425 165.28677 118.15 158.54447 124.3801 193.24947 120.5242 193.72857 120.5243 193.72877zM173.87 216.19L199.709 202.037 200.8979 193.5391 171.5459 213.0771 173.8703 216.1907 173.87 216.19zM162.511 204.38L187.306 173.847 201.295 173.09698 201.3902 185.70998 169.2062 210.64498 162.5107 204.37988 162.511 204.38zM157.1522 199.5038L172.3022 174.2358 180.84 173.37903 160.173 201.94703 157.1524 199.50303 157.1522 199.5038zM178.47 251.81L206.893 259.5633 213.6486 254.2727 178.9586 247.9553 178.46981 251.8099 178.47 251.81zM178.4949 235.424L217.5389 230.6641 228.1269 239.8364 219.4384 248.9801 178.9634 244.5816 178.49438 235.424 178.4949 235.424zM178.02362 228.1941L206.46962 220.5272 213.20912 225.8383 178.50012 232.0502 178.02304 228.1941 178.02362 228.1941zM156.83 280.78L171.769 306.173 180.2994 307.10091 159.8714 278.36091 156.8305 280.77971 156.83 280.78zM168.287 269.065L199.566 292.913 200.7444 306.872 188.1404 307.35368 162.2304 275.94968 168.2874 269.06528 168.287 269.065zM172.9967 263.5593L198.7167 277.9273 199.8347 286.4349 170.6467 266.6529 172.997 263.5588 172.9967 263.5593zM120.273 286.2L112.7303 314.679 118.0707 321.3953 124.1312 286.6603 120.273 286.20005 120.273 286.2zM136.659 286.1036L141.7078 325.1116 132.6141 335.7676 123.4064 327.147 127.5052 286.641 136.6591 286.10421 136.659 286.1036zM143.8852 285.57882L151.7624 313.96782 146.5014 320.74652 140.0328 286.08452 143.8853 285.57891 143.8852 285.57882zM90.609 263.87L65.001 278.437 63.9488 286.953 92.9828 266.946 90.6086 263.8702 90.609 263.87zM102.156 275.496L77.855 306.424 63.88 307.39873 63.58215 294.78873 95.36115 269.33973 102.15645 275.49643 102.156 275.496zM107.5925 280.2854L92.8505 305.7934 84.3275 306.78726 104.5325 277.89026 107.592 280.28546 107.5925 280.2854zM85.543 227.9L57.066 220.3486 50.3481 225.687 85.0821 231.7581 85.54353 227.9001 85.543 227.9zM85.63439 244.286L46.62539 249.3229 35.97239 240.226 44.59579 231.0209 85.10079 235.132 85.63479 244.286 85.63439 244.286zM86.15696 251.5124L57.76596 259.3809 50.98886 254.1178 85.65286 247.6597 86.15729 251.5123 86.15696 251.5124z"/>
      <polygon fill="#ECA300" fill-rule="nonzero" points="341.72 264.76 330.729 249.306 312.827 255.585 323.881 239.581 313.034 224.015 330.858 229.579 342.055 213.68 342.016 233.123 359.784 238.863 341.937 245.315 341.72 264.761"/>
      <polygon fill="#ECA300" fill-rule="nonzero" points="30.148 92.122 26.74 73.467 7.864 71.57 24.658 61.756 21.427 43.06 35.215 55.652 52.094 45.994 43.821 63.589 57.483 76.316 38.583 74.598 30.148 92.122"/>
      <ellipse cx="132.045" cy="239.694" fill="#ECA300" fill-rule="nonzero" rx="49.465" ry="49.465"/>
    </g>
    <use stroke="#999999" stroke-width="4" mask="url(#d)" xlink:href="#a"/>
  </g>
</svg>
