<svg xmlns="http://www.w3.org/2000/svg" height="480" width="640" version="1"><defs><linearGradient id="b" y2="-5035.4" gradientUnits="userSpaceOnUse" y1="-5035.4" gradientTransform="matrix(.1 0 0 .1 -225.7 715.4)" x2="4203.4" x1="359.59"><stop offset="0"/><stop stop-color="#fff" offset="1"/></linearGradient><clipPath id="a"><path fill-opacity=".67" d="M-72.35 0h682.67v512H-72.35z"/></clipPath></defs><g clip-path="url(#a)" transform="matrix(.9 0 0 .9 67.8 0)"><path stroke="url(#b)" stroke-width=".15" fill="#090" d="M-114.94.06H192.5v511.87h-307.44z"/><path fill-rule="evenodd" fill="red" d="M191.82 0h461.15v512H191.82z"/><g fill-rule="evenodd" stroke-width="1pt"><path d="M175.3 193.87l-.95 19.08 128.25-12.7.95-19.07z"/><path fill="#efef00" d="M176.44 195.97l-.72 14.6 125.74-12.43.72-14.6z"/><path d="M174.63 189.9l-.3 6.27 129.54-12.8.3-6.27z"/><path fill="#efef00" d="M175.67 192.05l-.08 1.77 127.23-12.6.1-1.76z"/><path d="M173.6 210.8l-.3 6.25 129.54-12.82.3-6.26z"/><path fill="#efef00" d="M174.64 212.92l-.1 1.77 127.26-12.6.08-1.77z"/><path d="M194.68 254.8l-.94 19.07L322 261.2l.94-19.1z"/><path fill="#efef00" d="M195.83 256.9l-.73 14.6 125.74-12.43.73-14.6z"/><path d="M194.02 250.84l-.3 6.26 129.54-12.8.3-6.27z"/><path fill="#efef00" d="M195.06 252.97l-.1 1.78 127.26-12.6.1-1.76z"/><path d="M193 271.7l-.32 6.28 129.54-12.82.3-6.26z"/><path fill="#efef00" d="M194.03 273.85l-.1 1.77 127.25-12.6.1-1.76z"/><path d="M186.93 323.46l-.95 19.08 128.25-12.7.95-19.07z"/><path fill="#efef00" d="M188.07 325.56l-.72 14.6 125.74-12.43.7-14.6z"/><path d="M186.26 319.5l-.3 6.27 129.54-12.82.3-6.26z"/><path fill="#efef00" d="M187.3 321.64l-.08 1.77 127.24-12.58.1-1.77z"/><g><path d="M185.23 340.38l-.3 6.26 129.54-12.8.3-6.28z"/><path fill="#efef00" d="M186.27 342.5l-.1 1.8 127.26-12.6.08-1.78z"/></g><g><path d="M202.35 318.62l.94 19.08-128.26-12.68-.95-19.08z"/><path fill="#efef00" d="M201.2 320.72l.72 14.6L76.2 322.9l-.74-14.6z"/><path d="M203 314.67l.32 6.26-129.55-12.8-.3-6.28z"/><path fill="#efef00" d="M201.97 316.8l.1 1.78-127.26-12.6-.08-1.77z"/><g><path d="M204.04 335.54l.3 6.26L74.8 329l-.3-6.27z"/><path fill="#efef00" d="M203 337.68l.1 1.77-127.25-12.6-.1-1.76z"/></g></g><g><path d="M193.4 263.42l-5.65 17.2L51 266.08l5.63-17.2z"/><path fill="#efef00" d="M191.4 265.3l-4.33 13.16L53 264.2 57.32 251z"/><path d="M195.5 259.88l-1.85 5.65-138.14-14.7 1.87-5.65z"/><path fill="#efef00" d="M193.6 261.77l-.5 1.6-135.7-14.43.53-1.6z"/><g><path d="M189.33 278.7l-1.85 5.65-138.14-14.7L51.2 264z"/><path fill="#efef00" d="M187.44 280.6l-.53 1.6-135.67-14.44.53-1.6z"/></g></g><g><path d="M176.6 260.68l-13.92 14.7L62.1 206.76l13.92-14.72z"/><path fill="#efef00" d="M173.98 261.72L163.33 273l-98.6-67.3 10.65-11.28z"/><path d="M180.2 258.02l-4.56 4.83L74.06 193.5l4.56-4.82z"/><path fill="#efef00" d="M177.67 259.14l-1.3 1.37-99.78-68.1 1.3-1.37z"/><g><path d="M165 274.12l-4.57 4.83-101.6-69.34 4.58-4.82z"/><path fill="#efef00" d="M162.45 275.24l-1.3 1.37-99.77-68.1 1.3-1.37z"/></g></g><g><path d="M304.3 260.93c.06 63.65-51.67 115.3-115.46 115.3-63.8.1-115.6-51.46-115.66-115.1-.15-63.66 51.5-115.4 115.3-115.5 63.78-.2 115.67 51.3 115.83 114.93v.37zm27.1 0c.07 78.58-63.8 142.35-142.54 142.35-78.75.13-142.72-63.55-142.77-142.12-.2-78.58 63.56-142.45 142.3-142.57 78.76-.26 142.83 63.3 143 141.88.02.16.02.3.02.45z" fill="#efef00"/><path d="M328.56 260.94c.06 77-62.53 139.5-139.7 139.5-77.18.12-139.87-62.28-139.93-139.28-.2-77 62.3-139.6 139.5-139.72 77.16-.25 139.95 62.05 140.13 139.05v.44zm-2.8 0c.06 75.46-61.27 136.7-136.9 136.7-75.64.13-137.07-61.02-137.13-136.5-.18-75.46 61.05-136.8 136.7-136.92 75.63-.24 137.15 60.8 137.33 136.27v.43z"/><path d="M310.04 260.93c.05 66.8-54.25 121.02-121.2 121.02-66.95.1-121.33-54.02-121.4-120.82-.15-66.8 54.06-121.1 121.02-121.2 66.95-.23 121.42 53.82 121.58 120.62v.38zm-2.43 0c.06 65.47-53.15 118.6-118.76 118.6-65.6.1-118.9-52.94-118.96-118.4-.16-65.48 52.97-118.7 118.6-118.8 65.6-.2 118.97 52.75 119.13 118.22v.38z"/></g><g><path d="M182.4 118.24h17.7V404.5h-17.7z"/><path fill="#efef00" d="M184.46 121.05h13.56V401.7h-13.56z"/><path d="M178.64 116.32h5.8v289.16h-5.8z"/><path fill="#efef00" d="M180.72 118.9h1.65v284h-1.65z"/><g><path d="M198.02 116.32h5.82v289.16h-5.82z"/><path fill="#efef00" d="M200.1 118.9h1.66v284h-1.65z"/></g></g><g><path d="M184 285.45l6.57 17.94-126.25 25.87-6.58-17.94z"/><path fill="#efef00" d="M183.52 287.8l5.04 13.74L64.8 326.9l-5.05-13.73z"/><path d="M183.45 281.48l2.15 5.9L58.08 313.5l-2.16-5.88z"/><path fill="#efef00" d="M183.1 283.83l.6 1.67-125.25 25.67-.62-1.67z"/><g><path d="M190.64 301.1l2.16 5.9-127.52 26.14-2.16-5.9z"/><path fill="#efef00" d="M190.3 303.45l.6 1.67L65.64 330.8l-.6-1.67z"/></g></g><g><path d="M177.3 232.04l.85 18.3L45.8 264.68l-.86-18.3z"/><path fill="#efef00" d="M176.1 234.3l.66 14.03L47 262.4l-.67-14.03z"/><path d="M178 228.07l.3 6-133.7 14.5-.3-6.02z"/><path fill="#efef00" d="M176.92 230.35l.08 1.7-131.32 14.23-.08-1.7z"/><g><path d="M178.94 248.1l.28 6-133.7 14.5-.28-6.02z"/><path fill="#efef00" d="M177.85 250.37l.08 1.7L46.6 266.32l-.07-1.7z"/></g></g><g><path d="M180.55 228.5l-10.97 17.02-111.48-49.1 10.97-17z"/><path fill="#efef00" d="M178.18 230l-8.4 13.04-109.3-48.13 8.4-13.02z"/><path d="M183.62 225.24l-3.6 5.58-112.6-49.6 3.6-5.57z"/><path fill="#efef00" d="M181.33 226.8l-1.02 1.58-110.6-48.7 1.03-1.6z"/><g><path d="M171.62 243.85l-3.6 5.58-112.6-49.6 3.6-5.57z"/><path fill="#efef00" d="M169.32 245.4l-1.02 1.6-110.6-48.7 1.03-1.6z"/></g></g><g><path d="M333.26 233.7l-.24 18.3L200 245.54l.23-18.3z"/><path fill="#efef00" d="M331.93 235.77l-.18 14-130.42-6.3.18-14.02z"/><path d="M334.2 229.87l-.07 6-134.38-6.5.08-6z"/><path fill="#efef00" d="M332.98 231.97l-.02 1.7-131.98-6.4.02-1.7z"/><g><path d="M333.94 249.88l-.07 6-134.38-6.5.07-6z"/><path fill="#efef00" d="M332.72 251.98l-.02 1.7-131.98-6.4.02-1.7z"/></g></g><g><path d="M309.3 180.94l5.2 16.38-109.84-3.46-5.2-16.38z"/><path fill="#efef00" d="M308.82 182.8l4 12.56-107.7-3.4-3.98-12.54z"/><path d="M308.92 177.5l1.7 5.37-110.93-3.5-1.72-5.37z"/><path fill="#efef00" d="M308.55 179.4l.5 1.5-109-3.42-.47-1.52z"/><g><path d="M314.63 195.4l1.7 5.4-110.94-3.5-1.72-5.38z"/><path fill="#efef00" d="M314.25 197.3l.5 1.54-109-3.44-.47-1.52z"/></g></g><g><path d="M324.06 310.45l-7.9 17-122.45-44.68 7.92-17z"/><path fill="#efef00" d="M321.94 312l-6.06 13-120.04-43.8 6.06-13z"/><path d="M326.56 307.15l-2.6 5.58-123.68-45.13 2.6-5.57z"/><path fill="#efef00" d="M324.53 308.75l-.74 1.58L202.3 266l.75-1.57z"/><g><path d="M317.9 325.75l-2.6 5.58-123.67-45.13 2.6-5.58z"/><path fill="#efef00" d="M315.87 327.35l-.73 1.58-121.48-44.32.73-1.57z"/></g></g><g><g fill="#f6f6fb"><g transform="matrix(.1 0 0 .1 194 903.5)"><path d="M-850.9-7147H740v1171.1H-850.9z"/><ellipse transform="matrix(1.1 0 0 1.1 -3130.4 -10547)" cx="2861.4" rx="740.21" cy="4267.3" ry="696.02"/></g><g transform="matrix(.1 0 0 .1 -422 546.5)"><path d="M5478.8-3340.7h859.1v632.38h-859.1z"/><ellipse transform="matrix(.6 0 0 .6 4247.9 -5088.5)" cx="2861.4" rx="740.21" cy="4267.3" ry="696.02"/></g></g><g fill="red"><g transform="matrix(.1 0 0 .1 193.7 871.5)"><path d="M-850.9-7147H740v1171.1H-850.9z"/><ellipse transform="matrix(1.1 0 0 1.1 -3130.4 -10547)" cx="2861.4" rx="740.21" cy="4267.3" ry="696.02"/></g><g transform="matrix(.1 0 0 .1 -391.5 532.4)"><path d="M5478.8-3340.7h859.1v632.38h-859.1z"/><ellipse transform="matrix(.6 0 0 .6 4247.9 -5088.5)" cx="2861.4" rx="740.21" cy="4267.3" ry="696.02"/></g></g><g fill="#400"><g transform="matrix(.1 0 0 .1 191.5 626.5)"><path d="M-850.9-7147H740v1171.1H-850.9z"/><ellipse transform="matrix(1.1 0 0 1.1 -3130.4 -10547)" cx="2861.4" rx="740.21" cy="4267.3" ry="696.02"/></g><g transform="matrix(.1 0 0 .1 -157.8 424.1)"><path d="M5478.8-3340.7h859.1v632.38h-859.1z"/><ellipse transform="matrix(.6 0 0 .6 4247.9 -5088.5)" cx="2861.4" rx="740.21" cy="4267.3" ry="696.02"/></g></g><g fill="#fff"><g transform="matrix(.1 0 0 .1 191.2 591.1)"><path d="M-850.9-7147H740v1171.1H-850.9z"/><ellipse transform="matrix(1.1 0 0 1.1 -3130.4 -10547)" cx="2861.4" rx="740.21" cy="4267.3" ry="696.02"/></g><g transform="matrix(.1 0 0 .1 -124 408.4)"><path d="M5478.8-3340.7h859.1v632.38h-859.1z"/><ellipse transform="matrix(.6 0 0 .6 4247.9 -5088.5)" cx="2861.4" rx="740.21" cy="4267.3" ry="696.02"/></g></g><g transform="matrix(.1 0 0 .1 -118 477.3)"><g fill="#3b3bff"><g transform="matrix(.1 0 0 .1 2979.2 -840.1)"><path d="M-850.9-7147H740v1171.1H-850.9z"/><ellipse transform="matrix(1.1 0 0 1.1 -3130.4 -10547)" cx="2861.4" rx="740.21" cy="4267.3" ry="696.02"/></g><g transform="matrix(.1 0 0 .1 2084.7 -1359.7)"><path d="M5478.8-3340.7h859.1v632.38h-859.1z"/><ellipse transform="matrix(.6 0 0 .6 4247.9 -5088.5)" cx="2861.4" rx="740.21" cy="4267.3" ry="696.02"/></g><g><g transform="matrix(.1 0 0 .1 2978.8 -886.7)"><path d="M-850.9-7147H740v1171.1H-850.9z"/><ellipse transform="matrix(1.1 0 0 1.1 -3130.4 -10547)" cx="2861.4" rx="740.21" cy="4267.3" ry="696.02"/></g><g transform="matrix(.1 0 0 .1 2129 -1380.3)"><path d="M5478.8-3340.7h859.1v632.38h-859.1z"/><ellipse transform="matrix(.6 0 0 .6 4247.9 -5088.5)" cx="2861.4" rx="740.21" cy="4267.3" ry="696.02"/></g><g transform="matrix(.1 0 0 .1 2975.6 -1243.3)"><path d="M-850.9-7147H740v1171.1H-850.9z"/><ellipse transform="matrix(1.1 0 0 1.1 -3130.4 -10547)" cx="2861.4" rx="740.21" cy="4267.3" ry="696.02"/></g><g transform="matrix(.1 0 0 .1 2468.4 -1537.9)"><path d="M5478.8-3340.7h859.1v632.38h-859.1z"/><ellipse transform="matrix(.6 0 0 .6 4247.9 -5088.5)" cx="2861.4" rx="740.21" cy="4267.3" ry="696.02"/></g><g><g transform="matrix(.1 0 0 .1 2975.2 -1294.8)"><path d="M-850.9-7147H740v1171.1H-850.9z"/><ellipse transform="matrix(1.1 0 0 1.1 -3130.4 -10547)" cx="2861.4" rx="740.21" cy="4267.3" ry="696.02"/></g><g transform="matrix(.1 0 0 .1 2517.4 -1560.7)"><path d="M5478.8-3340.7h859.1v632.38h-859.1z"/><ellipse transform="matrix(.6 0 0 .6 4247.9 -5088.5)" cx="2861.4" rx="740.21" cy="4267.3" ry="696.02"/></g></g></g></g><ellipse fill="#fff" transform="translate(-3.8 -7.6)" cx="2903" rx="35.69" cy="-1854.9" ry="35.69"/><ellipse fill="#fff" transform="translate(130 -7.6)" cx="2903" rx="35.69" cy="-1854.9" ry="35.69"/><ellipse fill="#fff" transform="translate(61.9 67.6)" cx="2903" rx="35.69" cy="-1854.9" ry="35.69"/><ellipse fill="#fff" transform="translate(1.4 140.4)" cx="2903" rx="35.69" cy="-1854.9" ry="35.69"/><ellipse fill="#fff" transform="translate(128.6 142.8)" cx="2903" rx="35.69" cy="-1854.9" ry="35.69"/></g><path d="M112.68 188.62v2.34h31.25v-2.34h-31.25zm2.7-6.45v6.5h26.57v-6.5H115.4zm-2.33 21.4v2.34h31.25v-2.33h-31.25zm8.37-.72c0-4.25 3.27-7.7 7.3-7.7 4.03 0 7.3 3.44 7.3 7.68v.1m-15.4.34c0-4.72 3.62-8.55 8.1-8.55 4.48 0 8.12 3.82 8.12 8.53v.1M115.4 191.6v11.7h26.55v-11.7H115.4zm-2.72-11.66v2.2h31.25v-2.2h-31.25zm0-3.12v3.14h2.4v-3.14h-2.4zm28.85 0v3.14h2.4v-3.14h-2.4zm-24.05.06v3.15h2.4v-3.15h-2.4zm19.13-.06v3.14h2.4v-3.14h-2.4zm-14.45-2.96V177h2.4v-3.14h-2.4zm9.6 0V177h2.4v-3.14h-2.4zm-4.68-.06v3.14h2.4v-3.14h-2.4zm-4.93 3.22v3h12v-3h-12z" fill="#ff0"/><g fill="red"><path d="M122.04 181.73h2.4v3.14h-2.4zM132.84 181.67h2.4v3.14h-2.4z"/></g><path d="M232.62 189v2.34h31.25V189h-31.25zm2.7-6.45v6.5h26.57v-6.5h-26.57zm-2.33 21.4v2.33h31.24v-2.34H233zm8.36-.73c0-4.25 3.27-7.7 7.3-7.7 4.03 0 7.3 3.44 7.3 7.7v.08m-15.4.34c0-4.7 3.62-8.54 8.1-8.54 4.48 0 8.12 3.8 8.12 8.53v.1m-21.45-11.75v11.7h26.56v-11.7h-26.57zm-2.7-11.66v2.2h31.24v-2.2h-31.25zm0-3.12v3.14h2.4v-3.14h-2.4zm28.84 0v3.14h2.4v-3.14h-2.4zm-24.05.06v3.14h2.4v-3.14h-2.4zm19.13-.06v3.14h2.4v-3.14h-2.4zm-14.46-2.97v3.15h2.4v-3.15h-2.4zm9.6 0v3.15h2.4v-3.15h-2.4zm-4.7-.06v3.14h2.42v-3.13h-2.4zm-4.92 3.23v3h12v-3h-12z" fill="#ff0"/><g fill="red"><path d="M241.97 182.1h2.4v3.14h-2.4zM252.77 182.04h2.4v3.14h-2.4z"/></g><path d="M173.78 189v2.34h31.24V189h-31.24zm2.7-6.45v6.5h26.57v-6.5H176.5zm-2.34 21.4v2.33h31.25v-2.34h-31.26zm8.38-.73c0-4.25 3.26-7.7 7.3-7.7 4.03 0 7.3 3.44 7.3 7.7v.08m-15.4.34c-.02-4.7 3.62-8.54 8.1-8.54 4.47 0 8.1 3.8 8.12 8.53v.1m-21.45-11.75v11.7h26.55v-11.7H176.5zm-2.72-11.66v2.2h31.24v-2.2h-31.24zm0-3.12v3.14h2.4v-3.14h-2.4zm28.85 0v3.14h2.4v-3.14h-2.4zm-24.06.06v3.14h2.4v-3.14h-2.4zm19.13-.06v3.14h2.4v-3.14h-2.4zm-14.46-2.97v3.15h2.4v-3.15h-2.4zm9.6 0v3.15h2.4v-3.15h-2.4zm-4.67-.06v3.14h2.4v-3.13h-2.4zm-4.93 3.23v3h12v-3h-12z" fill="#ff0"/><g fill="red"><path d="M183.13 182.1h2.4v3.14h-2.4zM193.93 182.04h2.4v3.14h-2.4z"/></g><path d="M110.06 261.92v2.34h31.24v-2.34h-31.24zm2.7-6.45v6.5h26.57v-6.5h-26.56zm-2.34 21.4v2.33h31.25v-2.34h-31.25zm8.38-.73c0-4.24 3.26-7.7 7.3-7.7 4.03 0 7.3 3.44 7.3 7.7v.08m-15.4.34c-.02-4.7 3.62-8.54 8.1-8.54 4.47 0 8.1 3.8 8.12 8.53v.1m-21.45-11.75v11.7h26.56v-11.7h-26.56zm-2.7-11.66v2.2h31.23v-2.2h-31.24zm-.02-3.12v3.14h2.4v-3.14h-2.4zm28.86 0v3.14h2.42v-3.14h-2.4zm-24.05.06v3.14h2.4v-3.14h-2.4zm19.13-.06v3.14h2.4v-3.14H134zm-14.46-2.96v3.14h2.4v-3.14h-2.4zm9.6 0v3.14h2.4v-3.14h-2.4zm-4.67-.07v3.13h2.4v-3.14h-2.4zm-4.93 3.22v3h12v-3h-12z" fill="#ff0"/><g fill="red"><path d="M119.42 255.03h2.4v3.14h-2.4zM130.22 254.97h2.4v3.14h-2.4z"/></g><path d="M234.87 261.18v2.33h31.25v-2.32h-31.25zm2.7-6.46v6.5h26.57v-6.5h-26.56zm-2.33 21.4v2.34h31.25v-2.34h-31.26zm8.37-.72c0-4.25 3.28-7.7 7.3-7.7 4.04 0 7.32 3.44 7.32 7.7v.08m-15.42.34c0-4.72 3.63-8.54 8.1-8.54 4.5 0 8.13 3.8 8.13 8.53v.1m-21.45-11.74v11.7h26.56v-11.7h-26.56zm-2.7-11.67v2.2h31.24v-2.2h-31.25zm0-3.13v3.15h2.4v-3.15h-2.4zm28.84 0v3.15h2.4v-3.15h-2.4zm-24.05.07v3.14h2.4v-3.14h-2.4zm19.13-.07v3.15h2.4v-3.15h-2.4zm-14.46-2.96v3.16h2.4v-3.15h-2.4zm9.6 0v3.15h2.4v-3.14h-2.4zm-4.68-.05v3.14h2.4v-3.15h-2.4zm-4.93 3.23v3h12v-3h-12z" fill="#ff0"/><g fill="red"><path d="M244.22 254.28h2.4v3.14h-2.4zM255.02 254.2h2.4v3.15h-2.4z"/></g><path d="M137.1 332.63l1.78 1.53 20.4-23.62-1.78-1.53-20.4 23.63zm-3.13-6.26l4.95 4.25 17.33-20.08-4.94-4.24-17.33 20.07zm14.72 15.74l1.77 1.54 20.4-23.62-1.78-1.53-20.4 23.6zm4.9-6.8c-3.22-2.76-3.7-7.48-1.07-10.53 2.63-3.05 7.38-3.28 10.6-.5.03 0 .05.03.08.05m-9.8 11.88c-3.6-3.08-4.12-8.32-1.2-11.7 2.92-3.4 8.2-3.65 11.78-.58l.08.07m-22.93 8.53l8.88 7.63 17.35-20.08-8.88-7.63-17.34 20.08zm-10.62-5.56l1.7 1.44 20.4-23.6-1.7-1.45-20.4 23.62zm-2.36-2.04l2.4 2.05 1.56-1.82-2.4-2.05-1.56 1.83zm18.84-21.8l2.38 2.04 1.57-1.82-2.38-2.05-1.57 1.82zm-15.66 18.22l2.4 2.05 1.56-1.82-2.4-2.05-1.56 1.82zm12.44-14.5l2.4 2.04 1.56-1.83-2.4-2.05-1.56 1.82zm-11.7 9l2.4 2.04 1.57-1.83-2.38-2.05-1.58 1.82zm6.28-7.26l2.38 2.04 1.58-1.82-2.4-2.05-1.56 1.82zm-3.1 3.48l2.4 2.05 1.56-1.82-2.4-2.04-1.56 1.82zm-.77 5.83l2.28 1.97 7.83-9.07-2.28-1.96-7.83 9.07z" fill="#ff0"/><g fill="red"><path d="M137.98 321.06l1.57-1.82 2.38 2.05-1.57 1.8zM144.97 312.86l1.58-1.82 2.38 2.05-1.57 1.8z"/></g><path d="M240.6 332.26l-1.77 1.53-20.4-23.63 1.78-1.53 20.4 23.62zm3.14-6.26l-4.94 4.25-17.34-20.08 4.94-4.25L243.74 326zm-14.72 15.74l-1.78 1.53-20.4-23.62 1.78-1.53 20.4 23.62zm-4.92-6.8c3.23-2.77 3.7-7.5 1.08-10.54-2.63-3.05-7.38-3.28-10.6-.5-.03 0-.05.03-.07.05m9.8 11.88c3.6-3.08 4.13-8.32 1.2-11.7-2.9-3.4-8.2-3.66-11.77-.58l-.08.07m22.93 8.54l-8.88 7.63-17.34-20.1 8.88-7.62 17.34 20.08zm10.62-5.56l-1.68 1.44-20.4-23.62 1.68-1.44 20.4 23.62zm2.37-2.04l-2.38 2.05-1.6-1.8 2.4-2.06 1.57 1.82zm-18.83-21.8l-2.4 2.04-1.56-1.82 2.38-2.05 1.58 1.82zm15.65 18.22l-2.4 2.05-1.57-1.82 2.4-2.04 1.56 1.82zm-12.45-14.5l-2.38 2.04-1.58-1.82 2.38-2.05 1.57 1.82zm11.7 9l-2.4 2.04-1.57-1.82 2.4-2.05 1.56 1.82zm-6.28-7.27l-2.38 2.07-1.58-1.82 2.38-2.05 1.57 1.8zm3.1 3.5l-2.4 2.06-1.56-1.82 2.4-2.05 1.57 1.8zm.77 5.84l-2.28 1.96-7.83-9.07 2.28-1.96 7.84 9.07z" fill="#ff0"/><g fill="red"><path d="M239.73 320.7l-1.57-1.83-2.38 2.05 1.57 1.82zM232.74 312.5l-1.58-1.83-2.38 2.05 1.57 1.82z"/></g><g><g transform="matrix(.1 0 0 .1 -118.3 413)"><g fill="#3b3bff"><g transform="matrix(.1 0 0 .1 2979.2 -840.1)"><path d="M-850.9-7147H740v1171.1H-850.9z"/><ellipse transform="matrix(1.1 0 0 1.1 -3130.4 -10547)" cx="2861.4" rx="740.21" cy="4267.3" ry="696.02"/></g><g transform="matrix(.1 0 0 .1 2084.7 -1359.7)"><path d="M5478.8-3340.7h859.1v632.38h-859.1z"/><ellipse transform="matrix(.6 0 0 .6 4247.9 -5088.5)" cx="2861.4" rx="740.21" cy="4267.3" ry="696.02"/></g><g><g transform="matrix(.1 0 0 .1 2978.8 -886.7)"><path d="M-850.9-7147H740v1171.1H-850.9z"/><ellipse transform="matrix(1.1 0 0 1.1 -3130.4 -10547)" cx="2861.4" rx="740.21" cy="4267.3" ry="696.02"/></g><g transform="matrix(.1 0 0 .1 2129 -1380.3)"><path d="M5478.8-3340.7h859.1v632.38h-859.1z"/><ellipse transform="matrix(.6 0 0 .6 4247.9 -5088.5)" cx="2861.4" rx="740.21" cy="4267.3" ry="696.02"/></g><g transform="matrix(.1 0 0 .1 2975.6 -1243.3)"><path d="M-850.9-7147H740v1171.1H-850.9z"/><ellipse transform="matrix(1.1 0 0 1.1 -3130.4 -10547)" cx="2861.4" rx="740.21" cy="4267.3" ry="696.02"/></g><g transform="matrix(.1 0 0 .1 2468.4 -1537.9)"><path d="M5478.8-3340.7h859.1v632.38h-859.1z"/><ellipse transform="matrix(.6 0 0 .6 4247.9 -5088.5)" cx="2861.4" rx="740.21" cy="4267.3" ry="696.02"/></g><g><g transform="matrix(.1 0 0 .1 2975.2 -1294.8)"><path d="M-850.9-7147H740v1171.1H-850.9z"/><ellipse transform="matrix(1.1 0 0 1.1 -3130.4 -10547)" cx="2861.4" rx="740.21" cy="4267.3" ry="696.02"/></g><g transform="matrix(.1 0 0 .1 2517.4 -1560.7)"><path d="M5478.8-3340.7h859.1v632.38h-859.1z"/><ellipse transform="matrix(.6 0 0 .6 4247.9 -5088.5)" cx="2861.4" rx="740.21" cy="4267.3" ry="696.02"/></g></g></g></g><ellipse fill="#fff" transform="translate(-3.8 -7.6)" cx="2903" rx="35.69" cy="-1854.9" ry="35.69"/><ellipse fill="#fff" transform="translate(130 -7.6)" cx="2903" rx="35.69" cy="-1854.9" ry="35.69"/><ellipse fill="#fff" transform="translate(61.9 67.6)" cx="2903" rx="35.69" cy="-1854.9" ry="35.69"/><ellipse fill="#fff" transform="translate(1.4 140.4)" cx="2903" rx="35.69" cy="-1854.9" ry="35.69"/><ellipse fill="#fff" transform="translate(128.6 142.8)" cx="2903" rx="35.69" cy="-1854.9" ry="35.69"/></g><g transform="matrix(.1 0 0 .1 -118.3 444.9)"><g fill="#3b3bff"><g transform="matrix(.1 0 0 .1 2979.2 -840.1)"><path d="M-850.9-7147H740v1171.1H-850.9z"/><ellipse transform="matrix(1.1 0 0 1.1 -3130.4 -10547)" cx="2861.4" rx="740.21" cy="4267.3" ry="696.02"/></g><g transform="matrix(.1 0 0 .1 2084.7 -1359.7)"><path d="M5478.8-3340.7h859.1v632.38h-859.1z"/><ellipse transform="matrix(.6 0 0 .6 4247.9 -5088.5)" cx="2861.4" rx="740.21" cy="4267.3" ry="696.02"/></g><g><g transform="matrix(.1 0 0 .1 2978.8 -886.7)"><path d="M-850.9-7147H740v1171.1H-850.9z"/><ellipse transform="matrix(1.1 0 0 1.1 -3130.4 -10547)" cx="2861.4" rx="740.21" cy="4267.3" ry="696.02"/></g><g transform="matrix(.1 0 0 .1 2129 -1380.3)"><path d="M5478.8-3340.7h859.1v632.38h-859.1z"/><ellipse transform="matrix(.6 0 0 .6 4247.9 -5088.5)" cx="2861.4" rx="740.21" cy="4267.3" ry="696.02"/></g><g transform="matrix(.1 0 0 .1 2975.6 -1243.3)"><path d="M-850.9-7147H740v1171.1H-850.9z"/><ellipse transform="matrix(1.1 0 0 1.1 -3130.4 -10547)" cx="2861.4" rx="740.21" cy="4267.3" ry="696.02"/></g><g transform="matrix(.1 0 0 .1 2468.4 -1537.9)"><path d="M5478.8-3340.7h859.1v632.38h-859.1z"/><ellipse transform="matrix(.6 0 0 .6 4247.9 -5088.5)" cx="2861.4" rx="740.21" cy="4267.3" ry="696.02"/></g><g><g transform="matrix(.1 0 0 .1 2975.2 -1294.8)"><path d="M-850.9-7147H740v1171.1H-850.9z"/><ellipse transform="matrix(1.1 0 0 1.1 -3130.4 -10547)" cx="2861.4" rx="740.21" cy="4267.3" ry="696.02"/></g><g transform="matrix(.1 0 0 .1 2517.4 -1560.7)"><path d="M5478.8-3340.7h859.1v632.38h-859.1z"/><ellipse transform="matrix(.6 0 0 .6 4247.9 -5088.5)" cx="2861.4" rx="740.21" cy="4267.3" ry="696.02"/></g></g></g></g><ellipse fill="#fff" transform="translate(-3.8 -7.6)" cx="2903" rx="35.69" cy="-1854.9" ry="35.69"/><ellipse fill="#fff" transform="translate(130 -7.6)" cx="2903" rx="35.69" cy="-1854.9" ry="35.69"/><ellipse fill="#fff" transform="translate(61.9 67.6)" cx="2903" rx="35.69" cy="-1854.9" ry="35.69"/><ellipse fill="#fff" transform="translate(1.4 140.4)" cx="2903" rx="35.69" cy="-1854.9" ry="35.69"/><ellipse fill="#fff" transform="translate(128.6 142.8)" cx="2903" rx="35.69" cy="-1854.9" ry="35.69"/></g><g transform="matrix(.1 0 0 .1 -91 444.9)"><g fill="#3b3bff"><g transform="matrix(.1 0 0 .1 2979.2 -840.1)"><path d="M-850.9-7147H740v1171.1H-850.9z"/><ellipse transform="matrix(1.1 0 0 1.1 -3130.4 -10547)" cx="2861.4" rx="740.21" cy="4267.3" ry="696.02"/></g><g transform="matrix(.1 0 0 .1 2084.7 -1359.7)"><path d="M5478.8-3340.7h859.1v632.38h-859.1z"/><ellipse transform="matrix(.6 0 0 .6 4247.9 -5088.5)" cx="2861.4" rx="740.21" cy="4267.3" ry="696.02"/></g><g><g transform="matrix(.1 0 0 .1 2978.8 -886.7)"><path d="M-850.9-7147H740v1171.1H-850.9z"/><ellipse transform="matrix(1.1 0 0 1.1 -3130.4 -10547)" cx="2861.4" rx="740.21" cy="4267.3" ry="696.02"/></g><g transform="matrix(.1 0 0 .1 2129 -1380.3)"><path d="M5478.8-3340.7h859.1v632.38h-859.1z"/><ellipse transform="matrix(.6 0 0 .6 4247.9 -5088.5)" cx="2861.4" rx="740.21" cy="4267.3" ry="696.02"/></g><g transform="matrix(.1 0 0 .1 2975.6 -1243.3)"><path d="M-850.9-7147H740v1171.1H-850.9z"/><ellipse transform="matrix(1.1 0 0 1.1 -3130.4 -10547)" cx="2861.4" rx="740.21" cy="4267.3" ry="696.02"/></g><g transform="matrix(.1 0 0 .1 2468.4 -1537.9)"><path d="M5478.8-3340.7h859.1v632.38h-859.1z"/><ellipse transform="matrix(.6 0 0 .6 4247.9 -5088.5)" cx="2861.4" rx="740.21" cy="4267.3" ry="696.02"/></g><g><g transform="matrix(.1 0 0 .1 2975.2 -1294.8)"><path d="M-850.9-7147H740v1171.1H-850.9z"/><ellipse transform="matrix(1.1 0 0 1.1 -3130.4 -10547)" cx="2861.4" rx="740.21" cy="4267.3" ry="696.02"/></g><g transform="matrix(.1 0 0 .1 2517.4 -1560.7)"><path d="M5478.8-3340.7h859.1v632.38h-859.1z"/><ellipse transform="matrix(.6 0 0 .6 4247.9 -5088.5)" cx="2861.4" rx="740.21" cy="4267.3" ry="696.02"/></g></g></g></g><ellipse fill="#fff" transform="translate(-3.8 -7.6)" cx="2903" rx="35.69" cy="-1854.9" ry="35.69"/><ellipse fill="#fff" transform="translate(130 -7.6)" cx="2903" rx="35.69" cy="-1854.9" ry="35.69"/><ellipse fill="#fff" transform="translate(61.9 67.6)" cx="2903" rx="35.69" cy="-1854.9" ry="35.69"/><ellipse fill="#fff" transform="translate(1.4 140.4)" cx="2903" rx="35.69" cy="-1854.9" ry="35.69"/><ellipse fill="#fff" transform="translate(128.6 142.8)" cx="2903" rx="35.69" cy="-1854.9" ry="35.69"/></g><g transform="matrix(.1 0 0 .1 -145.7 444.9)"><g fill="#3b3bff"><g transform="matrix(.1 0 0 .1 2979.2 -840.1)"><path d="M-850.9-7147H740v1171.1H-850.9z"/><ellipse transform="matrix(1.1 0 0 1.1 -3130.4 -10547)" cx="2861.4" rx="740.21" cy="4267.3" ry="696.02"/></g><g transform="matrix(.1 0 0 .1 2084.7 -1359.7)"><path d="M5478.8-3340.7h859.1v632.38h-859.1z"/><ellipse transform="matrix(.6 0 0 .6 4247.9 -5088.5)" cx="2861.4" rx="740.21" cy="4267.3" ry="696.02"/></g><g><g transform="matrix(.1 0 0 .1 2978.8 -886.7)"><path d="M-850.9-7147H740v1171.1H-850.9z"/><ellipse transform="matrix(1.1 0 0 1.1 -3130.4 -10547)" cx="2861.4" rx="740.21" cy="4267.3" ry="696.02"/></g><g transform="matrix(.1 0 0 .1 2129 -1380.3)"><path d="M5478.8-3340.7h859.1v632.38h-859.1z"/><ellipse transform="matrix(.6 0 0 .6 4247.9 -5088.5)" cx="2861.4" rx="740.21" cy="4267.3" ry="696.02"/></g><g transform="matrix(.1 0 0 .1 2975.6 -1243.3)"><path d="M-850.9-7147H740v1171.1H-850.9z"/><ellipse transform="matrix(1.1 0 0 1.1 -3130.4 -10547)" cx="2861.4" rx="740.21" cy="4267.3" ry="696.02"/></g><g transform="matrix(.1 0 0 .1 2468.4 -1537.9)"><path d="M5478.8-3340.7h859.1v632.38h-859.1z"/><ellipse transform="matrix(.6 0 0 .6 4247.9 -5088.5)" cx="2861.4" rx="740.21" cy="4267.3" ry="696.02"/></g><g><g transform="matrix(.1 0 0 .1 2975.2 -1294.8)"><path d="M-850.9-7147H740v1171.1H-850.9z"/><ellipse transform="matrix(1.1 0 0 1.1 -3130.4 -10547)" cx="2861.4" rx="740.21" cy="4267.3" ry="696.02"/></g><g transform="matrix(.1 0 0 .1 2517.4 -1560.7)"><path d="M5478.8-3340.7h859.1v632.38h-859.1z"/><ellipse transform="matrix(.6 0 0 .6 4247.9 -5088.5)" cx="2861.4" rx="740.21" cy="4267.3" ry="696.02"/></g></g></g></g><ellipse fill="#fff" transform="translate(-3.8 -7.6)" cx="2903" rx="35.69" cy="-1854.9" ry="35.69"/><ellipse fill="#fff" transform="translate(130 -7.6)" cx="2903" rx="35.69" cy="-1854.9" ry="35.69"/><ellipse fill="#fff" transform="translate(61.9 67.6)" cx="2903" rx="35.69" cy="-1854.9" ry="35.69"/><ellipse fill="#fff" transform="translate(1.4 140.4)" cx="2903" rx="35.69" cy="-1854.9" ry="35.69"/><ellipse fill="#fff" transform="translate(128.6 142.8)" cx="2903" rx="35.69" cy="-1854.9" ry="35.69"/></g></g></g></g></g></svg>