<svg xmlns="http://www.w3.org/2000/svg" height="480" width="640"><defs><clipPath id="a"><path fill-opacity=".67" d="M-170.67 0H512v512h-682.67z"/></clipPath></defs><g clip-path="url(#a)" fill-rule="evenodd" transform="matrix(.9 0 0 .9 160 0)"><path fill="#009af4" d="M-256 0h768v256h-768z"/><path fill="#1c8f31" d="M-256 384h768v128h-768z"/><path fill="#efef00" d="M-256 256h768v128h-768z"/><path fill="#ffda00" d="M441.32 178.2l-37.18-20.5 22.1 36.23-30.6-29.42 11.97 40.74-21.93-36.34 1.02 42.43-11.8-40.77-10 41.25-.82-42.43-20.35 37.26 10.2-41.2-29.3 30.72 20.5-37.17-36.24 22.1 29.4-30.6-40.72 11.96 36.34-21.94-42.43 1.02 40.77-11.78-41.26-10 42.45-.84-37.26-20.33 41.2 10.18-30.73-29.3 37.18 20.5-22.1-36.23 30.6 29.42-11.97-40.73 21.94 36.35-1.02-42.43 11.8 40.78 10-41.26.8 42.44 20.36-37.26-10.2 41.2 29.3-30.7-20.5 37.16 36.24-22.1-29.42 30.6L450.4 95.2l-36.33 21.95 42.43-1.02-40.78 11.8 41.26 10-42.44.82 37.25 20.34-41.2-10.2"/><path d="M406.38 128.83c0 17.88-14.5 32.37-32.38 32.37s-32.37-14.5-32.37-32.37 14.5-32.38 32.37-32.38 32.38 14.5 32.38 32.38z" fill="#0098f6"/><path d="M400.04 128.83c0 14.58-11.65 26.4-26.02 26.4S348 143.42 348 128.84s11.64-26.4 26.02-26.4 26.02 11.82 26.02 26.4z" fill="#ffd900"/></g></svg>