<svg xmlns="http://www.w3.org/2000/svg" height="480" width="640" version="1"><path d="M640 480V0H0v480h640z" fill="#006"/><path fill-rule="evenodd" fill="#006" d="M0 0h373.68v232.17H0z"/><g stroke-width="1pt"><path d="M0 0v25.96l331.9 206.2h41.78v-25.95L41.78 0H0zm373.68 0v25.96l-331.9 206.2H0v-25.95L331.9 0h41.78z" fill="#fff"/><path d="M155.7 0v232.17h62.28V0H155.7zM0 77.4v77.38h373.68v-77.4H0z" fill="#fff"/><path d="M0 92.87v46.43h373.68V92.87H0zM168.16 0v232.17h37.36V0h-37.36zM0 232.17l124.56-77.4h27.85l-124.55 77.4H0zM0 0l124.56 77.4H96.7L0 17.3V0zm221.27 77.4L345.83 0h27.85L249.12 77.4h-27.85zm152.4 154.77l-124.55-77.4h27.85l96.7 60.1v17.3z" fill="#c00"/></g><g><path d="M612.54 212.44v79.9c0 65.62-25.77 125.68-102.22 162.18-76.4-36.5-102.2-96.56-102.2-162.17v-79.9H612.6z" fill="#fff"/><path d="M605.7 220.6v74.52c0 61.2-24.04 117.2-95.35 151.26C439.05 412.33 415 356.3 415 295.12V220.6h190.7z" fill="#fdc300"/><g stroke="#000" stroke-width=".09"><path d="M205.96 52.85c-.35-.27-.74-.43-1.26-.44.1-1.3-.83-1.85-1.5-2.08-.68-.24-.92-.5-1.03-1.03-.12-.54-.48-.87-1.1-1.04-.6-.18-1.14-.8-1.38-1.1-.24-.3-.33-.23-.5.27-.18.5-.9 1.45-.24 1.47-.47.4-.74.83-.44 1.42-.33.26-.56.64-.12.8.44.14.56.26.6.37-.4 0-.5.8.43.96-.2.03-.3.68.1.68-.54 0-.98.8-1.66.8-.68 0-1.03.14-1.06.44-.02.3-.37.64-.55.8.5.05.82 0 1.1-.2s.7-.28 1-.04c.28.23.9.35 1.2.3-.65.43-1.12 1.02-1.18 1.58-.06.56-.44 1.2-.88 1.38-.45.18-1.04.65-1.25 1.2.56 1.4 1.35 1.73 2.15 2.1 1.4.64 2.3 1.12 2.88 1.76.6.65.83.18 1.7 1.3.9 1.12 1.7 3.23 2.6 3.6.88.34 2 .1 2.64-1 .65-1.13 1.06-12.43-2.26-14.3z" fill="#ff9e3d" transform="matrix(3.9 0 0 3.9 -339.1 46.6)"/><path d="M470 234.34c-3.22 3.44-7.35 6.9-6.66 13.08s1.37 16.3-4.36 19.74c-5.74 3.44-8.5 12.16-1.6 17.2 6.87 5.06 7.1 11.26 8.25 17 1.15 5.73 4.13 10.32 8.72 6.42 4.6.7 7.12-1.15 7.12-4.82s.23-5.74 3.67-6.88c3.44-1.15 4.36-2.3 5.96-5.4 1.6-3.1 2.53-4.47 1.6-6.3-.9-1.84-1.25-5.63-.56-8.38.7-2.76-.92-4.25-1.84-5.97-.92-1.72-1.26-3.2-.8-5.5.46-2.3-.7-3.8-2.3-4.94-1.6-1.16-2.3-2.3-1.95-4.14.35-1.84-1.15-3-2.87-4.36s-2.98-3.22-2.98-5.97c0-2.76-5.28-9.18-9.4-10.8z" fill="#ff927f" stroke-width=".351"/><path d="M471.28 309.27c7.7-1.95 7-14.57 5.85-19.85-1.15-5.28-4.1-12.84-1.83-18.82 3.2-8.5-3.9-16.52-2.07-19.73 1.84-3.22 1.6-4.94 1.38-5.97-.22-1.03-1.94-1.84-2.06.34-.1 2.18-.7 3-2.06 4.36s-1.04 4.36 0 7.7c1.03 3.32 3.2 8.37-.23 15.02-3.44 6.66-2.03 9.63-.7 12.74 2.07 4.82 7 21.57 1.73 24.2z" fill="#ff9ee1" stroke-width=".351"/><path d="M436.84 237.33c.87 0 2.53-.35 2.53.8M435.13 242.83c1.03-.74 2.87.12 4.7-.97M436.96 247.42c1.38 0 3.2-.05 4.93-1.43M438.68 251.2c1.26 0 3.6-.8 4.2-2.46M439.03 253.85c2.46-.1 5.73.8 6.2-.06M439.14 262c1.72-1.6 5.8-2.7 6.72-4.36M443.5 236.4c2.88.93 1.7 2.7 3.1 3.8 2.54 1.95.24 4.13 2.3 4.7 2.07.57 2.03.92 1.5 3.2-.64 2.7 1.95 2.82 1.03 4.6M459.23 250.98c-1.15 0-4.53.12-5.97 3.16M434.74 284.1c1.32.22 1.98-.54 2.35-1.28.4-.8.56-1.37 1.77-1.43 1.2-.07 3.04-.4 3.44-1.33.4-.92 1.85-.06 3.05-2.47 1.2-2.4 2-5.28 5.22-6.3" fill="none" stroke-width=".351"/></g><g stroke="#000" stroke-width=".09"><path d="M221.76 73.75c.33.48 0 1 .55 1.22.67.24.1 1.1.88 1.42.7.26 0 1.1.75 1.47.67.33-.1 1.1.78 1.56.9.44-.16 1.45.5 1.84.68.4-.2 1.4.57 1.78.78.4-.33 1.18.4 1.73.72.56-.18 1.4.55 1.9s-.45 1.17.28 1.9c.56.55-.2 1.1.22 1.95.28.56-.28 2.8-1.84 2.57-.56.94-2.73 1.78-3.5 1.5-.8.56-3.3 1.34-4.6.1-1.27 1.24-3.78.46-4.56-.1-.78.28-2.96-.56-3.52-1.5-1.56.22-2.12-2-1.84-2.57.43-.85-.33-1.4.23-1.95.7-.73-.46-1.4.26-1.9s-.16-1.34.56-1.9c.73-.55-.4-1.34.4-1.73.77-.4-.12-1.4.55-1.78.67-.4-.4-1.4.5-1.84.9-.45.1-1.23.78-1.56.75-.38.06-1.2.76-1.48.8-.32.2-1.2.87-1.43.58-.22.2-.75.57-1.24 1.66.65 6.8 1.12 8.92.02z" fill="#00a728" transform="matrix(3.9 0 0 3.9 -339.1 46.6)"/><g fill="#fdc300"><path d="M493.6 345.6c0 .98-.03 1.96-.94 3.16-1.95 2.6.87 3.92-1.3 6.74-2.17 2.83.43 4.57-1.96 6.97-2.4 2.4.44 4.56-1.96 7.18-2.4 2.6.44 4.35-1.96 6.74-2.4 2.38.44 5-1.95 7.4-2.4 2.38.43 5.43-2.18 8.25-2.6 2.83.44 5-1.74 7.18-2.16 2.18-.2 4.35-1.73 5.88 2.6-1.95 2.6-5 4.57-6.52 1.96-1.52-.65-3.7.44-4.8s.2-5.64 2.17-7.82c1.96-2.17.22-6.52 1.96-8.05s.44-6.08 2.62-7.6 0-5.22 1.74-7.18 0-5 1.74-7.4c1.74-2.4.08-4.56 1.3-6.52.55-.87.55-7.18-.8-3.6zM499.87 348.32c-1.52 2.83 1.1 3.48-.87 6.3s1.1 5.02-1.1 7.84 1.1 4.36-.86 7.18c-1.96 2.83.87 4.35-.87 6.53-1.74 2.18 1.3 4.35-.87 6.96-2.18 2.6.87 4.57-.87 6.96-1.74 2.4.65 5-.87 6.96-1.52 1.95 1.1 4.78-1.1 7.4s.45 4.34-.86 6.08c2.6-.87 1.63-4.46 2.6-5.22 1-.76-.3-5.76 1.2-7.07 1.53-1.3-.97-5.33.44-7.07 2.4-2.93.33-4.9 1.74-7.18 1.42-2.28-.54-5.2.55-6.74 1.85-2.6-.82-4.97.54-6.85 1.96-2.7-.38-4.95.98-6.74 2.07-2.72-.22-5.44.65-6.85.87-1.4 2.3-7.5-.43-8.48zM508.33 350.7c-1.52 3.8 1.1 5.3.22 8.34-.87 3.03 1.1 5.3-.22 8.6-1.3 3.28 1.74 5.8 0 10.1s1.12 5.36 0 9.6c-1.3 4.93 2.18 7.54 0 11.02-2.17 3.48 2.5 4.63.22 8.27-1.1 1.74.1 6.2 1.85.87 1.74-5.33-1.3-5.98.22-8.16 1.52-2.18-.55-7.94.1-11 .66-3.03-1.52-7.17-.1-10.43 1.4-3.25-2.18-6.73-.76-9.56 1.4-2.83-.66-6.3.65-8.6 1.3-2.28-.97-5.32-.43-6.63.55-1.3-.54-6.12-1.74-2.4z" stroke-width=".351"/></g><path d="M524.63 336.8c0-24.6-3.48-33.08-16.3-33.08-12.85 0-16.33 8.5-16.33 33.07h32.63z" fill="#ef072d" stroke-width=".351"/><g fill="none"><path d="M496.8 334.83c-2.4 2.4.42 4.14-1.97 6.96-2.4 2.82-.22 4.35-2.18 6.96s.87 3.9-1.3 6.74c-2.18 2.83.43 4.57-1.96 6.96-2.4 2.4.43 4.57-1.97 7.18-2.4 2.6.44 4.35-1.96 6.75-2.4 2.38.44 5-1.95 7.38-2.4 2.4.43 5.44-2.18 8.27-2.6 2.83.44 5-1.74 7.18-2.18 2.18-.22 4.35-1.74 5.87-1.52 1.53-1.74 3.65-1.1 4.57M501.35 335.7c-2.17 2.83 1.1 4.14-.87 6.53-1.96 2.4.87 3.26-.65 6.1s1.1 3.47-.87 6.3 1.1 5-1.1 7.83 1.1 4.35-.86 7.18.87 4.35-.87 6.53c-1.74 2.17 1.3 4.35-.87 6.96-2.17 2.6.87 4.57-.87 6.96-1.75 2.4.64 5-.88 6.95-1.52 1.96 1.1 4.8-1.1 7.4s.45 4.35-.86 6.1c-1.3 1.73-2.34 4.3-1.1 5M508.33 338.32c-1.08 4.54 1.53 8.6 0 12.38-1.52 3.8 1.1 5.3.22 8.34-.87 3.03 1.1 5.3-.22 8.6-1.3 3.28 1.74 5.8 0 10.1s1.12 5.36 0 9.6c-1.3 4.93 2.18 7.54 0 11.02-2.17 3.48 1.96 4.35.22 8.27-1.74 3.9 1.1 5.44-.22 9.35M519.88 334.83c2.4 2.4-.44 4.14 1.95 6.96 2.4 2.82.22 4.35 2.18 6.96s-.86 3.9 1.32 6.74c2.17 2.83-.44 4.57 1.95 6.96 2.4 2.4-.43 4.57 1.96 7.18 2.4 2.6-.44 4.35 1.96 6.75 2.38 2.38-.45 5 1.95 7.38 2.4 2.4-.44 5.44 2.17 8.27 2.6 2.83-.43 5 1.74 7.18 2.18 2.18.22 4.35 1.74 5.87 1.53 1.53 1.75 3.65 1.1 4.57M515.3 335.7c2.18 2.83-1.08 4.14.88 6.53 1.96 2.4-.87 3.26.65 6.1 1.53 2.82-1.1 3.47.87 6.3s-1.1 5 1.1 7.83-1.1 4.35.86 7.18-.87 4.35.87 6.53c1.74 2.17-1.3 4.35.87 6.96 2.18 2.6-.87 4.57.87 6.96 1.74 2.4-.65 5 .87 6.95 1.52 1.96-1.08 4.8 1.1 7.4s-.45 4.35.86 6.1c1.3 1.73 2.34 4.3 1.1 5" stroke-width=".351"/></g><path d="M492.03 336.8c0-24.6 3.48-33.08 16.3-33.08-5.86 0-9.45 4.57-10.43 7.62s-.43 2.83.87 1.63.65 1.4-.43 2.83c-1.1 1.4-2.18 5.44-.66 4.13 1.53-1.3 2.72.22 1.1 2.5s-3.05 7.62-1.42 5.77c1.63-1.85 1.95 1.2.98 2.72-.98 1.52-.87 2.83 0 2.17.87-.66.76 2.5-.1 3.7h-6.2zM522.14 335.38c0-19.25-2.4-25.02-7.18-26.98-2.7-1.1-2.8-.87-1.5.87s1.1 4.25-.1 2.5c-1.2-1.74-1.6-2.06-2.08-1.3-.5.76 1.4 4.35 2.78 7.6 1.13 2.64.4 3.93-1.3 1.32s-1.68-.26-.2 1.95c1.9 2.83 1.85 11.42 1.85 15l7.74-.97z" stroke-width=".351"/><path d="M508.33 340.38c5.1 0 10.7-.9 14.47-2.37 4.46-1.72 4.7-3.24 3.16-5.18-1.1-1.37-3.5-.55-5.77.45-2.3 1-8.6 1.64-11.87 1.64-3.26 0-9.57-.63-11.86-1.63-2.28-1-4.67-1.82-5.76-.45-1.53 1.94-1.3 3.46 3.17 5.2 3.75 1.45 9.35 2.36 14.46 2.36z" fill="#ef072d" stroke-width=".351"/></g><g fill-rule="evenodd" fill="#b95a1e"><path d="M779.4 912.6s-.1 103.6 0 179.24c.13 75.63 19.83 104.9 54.27 103.6 34.44-1.34 41.1-58.84 34.53-92.1-6.57-33.25-53.24-198.96-53.24-198.96l-35.55 8.22z" transform="matrix(.1 0 0 .1 489 284.2)" stroke="#000" stroke-width="6.38"/><path d="M779.4 912.6s-.1 103.6 0 179.24c.13 75.63 19.83 104.9 54.27 103.6 34.44-1.34 41.1-58.84 34.53-92.1-6.57-33.25-53.24-198.96-53.24-198.96l-35.55 8.22z" transform="matrix(.1 0 0 .1 500 261.1)" stroke="#000" stroke-width="6.38"/><path d="M779.4 912.6s-.1 103.6 0 179.24c.13 75.63 19.83 104.9 54.27 103.6 34.44-1.34 41.1-58.84 34.53-92.1-6.57-33.25-53.24-198.96-53.24-198.96l-35.55 8.22z" transform="matrix(.1 0 0 .1 509.3 249.3)" stroke="#000" stroke-width="6.38"/><path d="M779.53 255.12c159.57-1.4 177.16-35.43 177.16-35.43s35.42-70.88 17.7-88.6c-17.7-17.7-194.87-17.7-194.87-17.7V255.1z" transform="matrix(0 0 0 .1 527.7 292.3)" stroke="#000" stroke-width="8.1"/><path d="M779.53 255.12c106.3 0 124.02-35.43 124.02-35.43s35.43-70.88 17.72-88.6c-17.72-17.7-141.73-17.7-141.73-17.7V255.1z" transform="matrix(.1 0 0 .1 509.3 287.7)" stroke="#000" stroke-width="6.38"/><path d="M779.53 255.12c88.58 0 141.73-35.43 141.73-35.43s35.43-70.88 17.72-88.6c-17.72-17.72-159.45-17.7-159.45-17.7V255.1z" transform="matrix(.1 0 0 .1 509.3 283)" stroke="#000" stroke-width="6.38"/><path d="M832.68 113.4s70.87-88.6 194.88-177.18c124-88.58 213.73-156.72 230.3-141.73 0 17.7-106.3 106.3-194.87 177.16-88.6 70.86-194.9 177.16-194.9 177.16l-35.43-35.43z" transform="matrix(.1 0 0 .1 497.2 249.5)" stroke="#000" stroke-width="5.72"/><path d="M832.68 113.4s70.05-52.04 204.38-124.03c132.23-63.92 318.9-53.15 318.9-35.43-17.72 17.7-177.17 17.7-283.47 70.86-101.5 50.73-204.4 124-204.4 124l-35.43-35.42z" transform="matrix(.1 0 0 .1 497.9 254.1)" stroke="#000" stroke-width="5.72"/><path d="M832.68 113.4s61.67-35.08 204.38-88.6c141.72-53.14 329.87-17.7 329.87 0-17.7 17.72-170.4 6.95-276.7 35.44-110 27.75-222.1 88.58-222.1 88.58l-35.42-35.43z" transform="matrix(.1 0 0 .1 497.9 262.1)" stroke="#000" stroke-width="5.72"/><path d="M832.68 113.4s71.08-71 222.47-88.6c152.3-17.7 276.3 88.6 276.3 106.3-17.7 17.72-159.5-77.97-265.7-64.3-112.67 13.67-197.7 82.02-197.7 82.02l-35.42-35.44z" transform="matrix(.1 0 0 .1 498.4 270.3)" stroke="#000" stroke-width="5.72"/><path d="M779.53 255.12c159.57-1.4 159.45-45.5 159.45-45.5s35.43-70.87 17.72-88.6c-17.72-17.7-177.16-7.63-177.16-7.63V255.1z" transform="matrix(.1 0 0 .1 509.3 277.2)" stroke="#000" stroke-width="6.38"/><path d="M779.53 255.12c159.57-1.4 177.16-35.43 177.16-35.43s35.42-70.88 17.7-88.6c-17.7-17.7-194.87-17.7-194.87-17.7V255.1z" transform="matrix(.1 0 0 .1 509.3 272.6)" stroke="#000" stroke-width="6.38"/><path d="M779.53 255.12c159.57-1.4 194.88-35.43 194.88-35.43s35.44-70.88 17.73-88.6c-17.72-17.7-212.6-17.7-212.6-17.7V255.1z" transform="matrix(.1 0 0 .1 509.3 266.8)" stroke="#000" stroke-width="6.38"/><path d="M779.53 255.12c159.57-1.4 212.6-35.43 212.6-35.43s17.7-70.88 0-88.6c-17.72-17.7-212.6-17.7-212.6-17.7V255.1z" transform="matrix(.1 0 0 .1 509.3 261)" stroke="#000" stroke-width="6.38"/><path d="M832.68 113.4s114.2-88.6 114.2-159.46c0-70.87-50.34-141.73-64.62-177.17 28.56 0 93.18 106.3 93.18 177.17 0 77.44-107.32 194.88-107.32 194.88L832.7 113.4z" transform="matrix(.1 0 0 .1 495.7 244.7)" stroke="#000" stroke-width="5.72"/><path d="M832.68 113.4S818.4 60.23 818.4-46.07c0-124.02 63-202.9 85.66-230.32 5.9 27.42-57.1 124.02-57.1 230.32 0 77.44 21.15 194.88 21.15 194.88L832.7 113.4z" transform="matrix(.1 0 0 .1 495.7 244.7)" stroke="#000" stroke-width="5.72"/><path d="M779.53 255.12c159.57-1.4 212.6-35.43 212.6-35.43s0-70.88-17.72-88.6c-17.7-17.7-194.87-17.7-194.87-17.7V255.1z" transform="matrix(.1 0 0 .1 509.3 255.2)" stroke="#000" stroke-width="6.38"/><path d="M779.53 255.12c159.57-1.4 194.88-35.43 194.88-35.43s0-70.88-17.7-88.6c-17.72-17.7-177.17-17.7-177.17-17.7V255.1z" transform="matrix(.1 0 0 .1 509.3 249.3)" stroke="#000" stroke-width="6.38"/><path d="M318.9 1318.1c55.06-122.32 70.87-336.6 70.87-372.05 0-99.78-32.95-585.1-35.44-779.53s124.02-301.18 248.03-301.18c106.3 0 177.17 70.87 177.17 177.17h-53.15c0-70.86-53.15-124-124.02-124-106.3 0-188 83.73-194.88 248.02-7.6 189.9 21.32 682.94 17.72 814.96s-51.23 249.72-106.3 336.6z" transform="matrix(-.1 0 0 .1 606.2 249.3)" stroke="#fdc301" stroke-width="16.07"/><path d="M779.4 912.6s-.1 103.6 0 179.24c.13 75.63 19.83 104.9 54.27 103.6 34.44-1.34 41.1-58.84 34.53-92.1-6.57-33.25-53.24-198.96-53.24-198.96l-35.55 8.22z" transform="matrix(-.1 0 0 .1 626.5 284.2)" stroke="#000" stroke-width="6.38"/><path d="M779.53 32.88c124.13.14 177.77 102.4 177.46 100.3l-35.74 33.36c-19 17.72-141.73 17.72-140.2 17.63l-1.53-151.3z" transform="matrix(.1 0 0 .1 509.3 249.3)" stroke="#000" stroke-width="6.38"/><path d="M779.4 912.6s-.1 103.6 0 179.24c.13 75.63 19.83 104.9 54.27 103.6 34.44-1.34 41.1-58.84 34.53-92.1-6.57-33.25-53.24-198.96-53.24-198.96l-35.55 8.22z" transform="matrix(-.1 0 0 .1 615.5 261.1)" stroke="#000" stroke-width="6.38"/><path d="M779.4 912.6s-.1 103.6 0 179.24c.13 75.63 19.83 104.9 54.27 103.6 34.44-1.34 41.1-58.84 34.53-92.1-6.57-33.25-53.24-198.96-53.24-198.96l-35.55 8.22z" transform="matrix(-.1 0 0 .1 606.2 249.3)" stroke="#000" stroke-width="6.38"/><path d="M779.53 255.12c159.57-1.4 177.16-35.43 177.16-35.43s35.42-70.88 17.7-88.6c-17.7-17.7-194.87-17.7-194.87-17.7V255.1z" transform="matrix(0 0 0 .1 587.8 292.3)" stroke="#000" stroke-width="8.1"/><path d="M779.53 255.12c106.3 0 124.02-35.43 124.02-35.43s35.43-70.88 17.72-88.6c-17.72-17.7-141.73-17.7-141.73-17.7V255.1z" transform="matrix(-.1 0 0 .1 606.2 287.7)" stroke="#000" stroke-width="6.38"/><path d="M779.53 255.12c88.58 0 141.73-35.43 141.73-35.43s35.43-70.88 17.72-88.6c-17.72-17.72-159.45-17.7-159.45-17.7V255.1z" transform="matrix(-.1 0 0 .1 606.2 283)" stroke="#000" stroke-width="6.38"/><path d="M832.68 113.4s70.87-88.6 194.88-177.18c124-88.58 213.73-156.72 230.3-141.73 0 17.7-106.3 106.3-194.87 177.16-88.6 70.86-194.9 177.16-194.9 177.16l-35.43-35.43z" transform="matrix(-.1 0 0 .1 618.3 249.5)" stroke="#000" stroke-width="5.72"/><path d="M832.68 113.4s70.05-52.04 204.38-124.03c132.23-63.92 318.9-53.15 318.9-35.43-17.72 17.7-177.17 17.7-283.47 70.86-101.5 50.73-204.4 124-204.4 124l-35.43-35.42z" transform="matrix(-.1 0 0 .1 617.6 254.1)" stroke="#000" stroke-width="5.72"/><path d="M832.68 113.4s61.67-35.08 204.38-88.6c141.72-53.14 329.87-17.7 329.87 0-17.7 17.72-170.4 6.95-276.7 35.44-110 27.75-222.1 88.58-222.1 88.58l-35.42-35.43z" transform="matrix(-.1 0 0 .1 617.6 262.1)" stroke="#000" stroke-width="5.72"/><path d="M832.68 113.4s71.08-71 222.47-88.6c152.3-17.7 276.3 88.6 276.3 106.3-17.7 17.72-159.5-77.97-265.7-64.3-112.67 13.67-197.7 82.02-197.7 82.02l-35.42-35.44z" transform="matrix(-.1 0 0 .1 617 270.3)" stroke="#000" stroke-width="5.72"/><path d="M779.53 255.12c159.57-1.4 159.45-45.5 159.45-45.5s35.43-70.87 17.72-88.6c-17.72-17.7-177.16-7.63-177.16-7.63V255.1z" transform="matrix(-.1 0 0 .1 606.2 277.2)" stroke="#000" stroke-width="6.38"/><path d="M779.53 255.12c159.57-1.4 177.16-35.43 177.16-35.43s35.42-70.88 17.7-88.6c-17.7-17.7-194.87-17.7-194.87-17.7V255.1z" transform="matrix(-.1 0 0 .1 606.2 272.6)" stroke="#000" stroke-width="6.38"/><path d="M779.53 255.12c159.57-1.4 194.88-35.43 194.88-35.43s35.44-70.88 17.73-88.6c-17.72-17.7-212.6-17.7-212.6-17.7V255.1z" transform="matrix(-.1 0 0 .1 606.2 266.8)" stroke="#000" stroke-width="6.38"/><path d="M779.53 255.12c159.57-1.4 212.6-35.43 212.6-35.43s17.7-70.88 0-88.6c-17.72-17.7-212.6-17.7-212.6-17.7V255.1z" transform="matrix(-.1 0 0 .1 606.2 261)" stroke="#000" stroke-width="6.38"/><path d="M832.68 113.4s114.2-88.6 114.2-159.46c0-70.87-50.34-141.73-64.62-177.17 28.56 0 93.18 106.3 93.18 177.17 0 77.44-107.32 194.88-107.32 194.88L832.7 113.4z" transform="matrix(-.1 0 0 .1 619.8 244.7)" stroke="#000" stroke-width="5.72"/><path d="M832.68 113.4S818.4 60.23 818.4-46.07c0-124.02 63-202.9 85.66-230.32 5.9 27.42-57.1 124.02-57.1 230.32 0 77.44 21.15 194.88 21.15 194.88L832.7 113.4z" transform="matrix(-.1 0 0 .1 619.8 244.7)" stroke="#000" stroke-width="5.72"/><path d="M779.53 255.12c159.57-1.4 212.6-35.43 212.6-35.43s0-70.88-17.72-88.6c-17.7-17.7-194.87-17.7-194.87-17.7V255.1z" transform="matrix(-.1 0 0 .1 606.2 255.2)" stroke="#000" stroke-width="6.38"/><path d="M779.53 255.12c159.57-1.4 194.88-35.43 194.88-35.43s0-70.88-17.7-88.6c-17.72-17.7-177.17-17.7-177.17-17.7V255.1z" transform="matrix(-.1 0 0 .1 606.2 249.3)" stroke="#000" stroke-width="6.38"/><path d="M318.9 1318.1c55.06-122.32 70.87-336.6 70.87-372.05 0-99.78-32.95-585.1-35.44-779.53s124.02-301.18 248.03-301.18c106.3 0 177.17 70.87 177.17 177.17h-53.15c0-70.86-53.15-124-124.02-124-106.3 0-188 83.73-194.88 248.02-7.6 189.9 21.32 682.94 17.72 814.96s-51.23 249.72-106.3 336.6z" transform="matrix(.1 0 0 .1 509.3 249.3)" stroke="#fdc301" stroke-width="16.07"/><path d="M779.53 32.88c124.13.14 177.77 102.4 177.46 100.3l-35.74 33.36c-19 17.72-141.73 17.72-140.2 17.63l-1.53-151.3z" transform="matrix(-.1 0 0 .1 606.2 249.3)" stroke="#000" stroke-width="6.38"/></g></g></svg>