<svg xmlns="http://www.w3.org/2000/svg" height="480" width="640"><defs><clipPath id="a"><path fill-opacity=".67" d="M-85.65 0h682.67v512H-85.65z"/></clipPath></defs><g clip-path="url(#a)" fill-rule="evenodd" transform="matrix(.9 0 0 .9 80.3 0)"><path fill="#fff" d="M-256 0H767.4v512H-256z"/><path fill="#239f40" d="M-256 372.43H766.6v139.12H-256z"/><path fill="#cd1738" d="M-256 0H766.6v139.12H-256z"/><path fill="#ff0" d="M159.88 212.26l3.68 12.1 11.92-.25-9.9 7.4 3.94 11.8-9.78-7.55-9.5 7.54 3.84-12.08-9.8-7.1 12.16.07M148.04 264.18l3.68 12.12 11.92-.27-9.9 7.4 3.94 11.78-9.78-7.52-9.5 7.53 3.84-12.05-9.8-7.12 12.16.1M199.96 169.9l3.68 12.1 11.92-.26-9.9 7.4 3.94 11.78-9.78-7.54-9.5 7.54 3.84-12.06-9.8-7.12 12.16.1M253.94 155.77l3.68 12.12 11.92-.28-9.9 7.4 3.94 11.78-9.78-7.54-9.5 7.54 3.84-12.06-9.8-7.12 12.16.1M308.37 169.9l3.68 12.1 11.92-.26-9.9 7.4 3.94 11.78-9.77-7.54-9.5 7.54 3.84-12.06-9.8-7.12 12.16.1M348.46 212.48l3.68 12.12 11.9-.27-9.87 7.4 3.92 11.78-9.8-7.52-9.48 7.53 3.83-12.05-9.8-7.12 12.16.1M360.07 264.18l3.68 12.12 11.92-.27-9.9 7.4 3.94 11.78-9.77-7.52-9.5 7.53 3.84-12.05-9.8-7.12 12.16.1M274.72 235.85c0 8.6-9.25 15.58-20.66 15.58s-20.65-6.97-20.65-15.58c0-8.6 9.26-15.58 20.66-15.58s20.66 6.98 20.66 15.58z"/><path fill="#ff0" d="M248.1 246.85h11.8v54.92h-11.8z"/><path d="M357.58 297.62c-5.13 10.9-12.04 14.76-23.32 14.46-19.73.47-24.2-14.03-26.77-20.43-6.98 9.2-10.95 12.85-22.53 12.63-16.5.37-24.82-9.02-30.97-26.78-6.15 17.64-14.48 27.03-30.98 26.67-11.58.22-15.55-3.44-22.52-12.63-2.57 6.4-7.03 20.9-26.77 20.42-11.28.3-18.18-3.56-22.8-14.6 5.36 15.42 10.67 24.05 27.15 24.6 14.92.17 21.75-8.47 24.98-14.38 10.75 5.7 11.86 6.98 27.1 6.62 11.37-.37 17.9-7.8 23.8-14.87 5.88 7.07 12.4 14.5 23.8 14.87 15.23.36 16.33-.9 27.08-6.62 3.24 5.9 10.07 14.55 25 14.37 16.46-.54 21.78-9.17 27.74-24.33z" fill="#ff0"/><path d="M204.17 313.52l5.4 7.46 10.3-.3-7.96 9.03-15.6.4-4.87-6.53 9-1.45 3.8-8.58M303.62 313.52l-5.4 7.46-10.3-.3 7.96 9.03 15.6.4 4.88-6.53-9-1.45-3.8-8.58M241.02 318.3c0-.03 7.1.05 7.1.05l5.94-4.75 5.82 4.7 7.03.1-6.3 9.33h-13.3l-6.28-9.42zM330.66 351.58c-27.55-5.7-46-8.5-76.7-8.5s-49.14 2.8-76.52 8.43l-.04-11.87c27.42-5.67 45.86-8.47 76.56-8.47s49.15 2.8 76.56 8.47l.14 11.95z" fill="#ff0"/><path d="M264.82 235.9c0 3.4-4.83 6.13-10.8 6.13-5.95 0-10.78-2.74-10.78-6.12s4.83-6.1 10.8-6.1c5.95 0 10.78 2.73 10.78 6.1z" fill="#fff"/></g></svg>