<svg xmlns="http://www.w3.org/2000/svg" height="480" width="640" version="1"><defs><clipPath id="a"><path fill-opacity=".67" d="M-85.33 0h682.67v512H-85.33z"/></clipPath></defs><g fill-rule="evenodd" clip-path="url(#a)" transform="matrix(.9 0 0 .9 80 0)"><path fill="#e70013" d="M-128 0h768v512h-768z"/><path d="M385.8 255.77c0 71.32-57.8 129.13-129.12 129.13-71.32 0-129.13-57.8-129.13-129.13 0-71.3 57.8-129.13 129.13-129.13 71.32 0 129.13 57.82 129.13 129.13z" fill="#fff"/><path d="M256.68 341.4c-47.27 0-85.64-38.35-85.64-85.62s38.37-85.64 85.64-85.64c11.82 0 25.27 2.72 34.4 9.43-62.62 2.36-78.46 55.48-78.46 76.88s10.12 69.16 78.47 76.2c-7.8 5.02-22.6 8.76-34.42 8.76z" fill="#e70013"/><path fill="#e70013" d="M332.1 291.8l-38.88-14.2-25.72 32.42 1.48-41.35-38.8-14.45 39.8-11.38 1.75-41.35 23.12 34.32 39.87-11.1-25.5 32.58"/></g></svg>