<svg xmlns="http://www.w3.org/2000/svg" height="480" width="640"><g fill-rule="evenodd"><path fill="#f31930" d="M0 0h640v480H0z"/><path d="M406.98 247.47c0 66.22-54.6 119.9-121.97 119.9s-121.96-53.68-121.96-119.9 54.6-119.9 121.97-119.9S407 181.28 407 247.48z" fill="#fff"/><path d="M413.08 247.47c0 52.97-43.7 95.9-97.58 95.9s-97.57-42.93-97.57-95.9 43.68-95.9 97.57-95.9 97.58 42.93 97.58 95.9z" fill="#f31830"/><path d="M430.73 191.47l-1 44.3-41.33 11.24 40.75 14.52-.98 40.64 26.58-31.73 40.16 13.93-23.22-34.06 28.35-33.87-43.5 12-25.8-36.96z" fill="#fff"/></g></svg>