<svg xmlns="http://www.w3.org/2000/svg" height="480" width="640"><defs><clipPath id="a"><path fill-opacity=".67" d="M0 0h640v480H0z"/></clipPath></defs><g clip-path="url(#a)"><g fill-rule="evenodd" transform="matrix(.6 0 0 .9 0 23.3)" stroke-width="1pt" fill="#009fca"><path d="M505.97-19.8h486.16v515.86H505.97z"/><rect ry="0" height="521.41" width="523.49" y="-25.34"/></g><path fill-rule="evenodd" fill="#fff" d="M.02 0h395.85v196.6H.02z"/><path d="M.02 0L0 14.76 94.47 63.3 130 64.3.03 0z" fill="#c00"/><path d="M40.46 0L155 59.82V0H40.45z" fill="#006"/><path fill="#c00" d="M170.26 0v76.37H.02V120h170.24v76.37h52.4V120h170.23V76.38H222.64V0h-52.4z"/><path d="M237.92 0v56.37L349.97.44 237.92 0z" fill="#006"/><path d="M241.46 62.5l31.52-.24L395.38.44 362.9.97 241.46 62.5z" fill="#c00"/><path d="M.02 132.74v41.82l78.57-41.4L0 132.74z" fill="#006"/><path d="M302.6 134.46l-32.77-.25L393.3 195.7l-.8-14.06-89.9-47.16zM30.7 196.7l115.78-60.76-30.4.2L0 196.64" fill="#c00"/><path d="M394.55 17.27l-93.5 46.37 92.25.34v69.1h-78.57l77.85 42.18 1.14 21.46-41.58-.5-113.8-55.87v56.37H155.4v-56.37L48.65 196.57l-48.2.15V393.1h785.74V.34L395.36 0M.42 22.18L0 62.95 82.72 64 .42 22.16z" fill="#006"/><g fill-rule="evenodd" transform="matrix(.8 0 0 .8 0 0)" fill="#009fca"><path d="M496.06 0h496.06v496.06H496.06z"/><rect rx="0" ry="0" height="251.45" width="525.79" y="244.61" x="-2.3"/></g><g fill-rule="evenodd" stroke-width="1pt" fill="#fff40d"><path d="M593.34 122.7l27.57-.03-22.3 15.24 8.53 24.68-22.3-15.27-22.28 15.28 8.54-24.67-22.33-15.23 27.58.02 8.5-24.7M524.14 319.47l27.57-.02-22.3 15.24 8.53 24.66-22.3-15.27-22.3 15.26 8.56-24.67-22.33-15.25 27.57.02 8.5-24.68M593.34 274.93l27.57-.02-22.3 15.24 8.53 24.67-22.3-15.25-22.28 15.26 8.54-24.66-22.33-15.24 27.58.03 8.5-24.7M295.8 417.65l27.56-.02-22.32 15.23 8.54 24.67-22.3-15.27-22.3 15.27 8.56-24.67-22.32-15.24 27.57.03 8.5-24.7M358.36 341.16l-27.57.02 22.3-15.23-8.53-24.68 22.3 15.27 22.3-15.26-8.56 24.67 22.33 15.24-27.57-.04-8.5 24.68M439.67 228.72H412.1l22.32-15.22-8.54-24.67 22.3 15.27 22.28-15.27-8.54 24.67 22.32 15.24-27.58-.02-8.5 24.68M508 205.35l-27.57.02 22.32-15.23-8.54-24.67 22.3 15.27 22.3-15.27-8.55 24.67 22.32 15.24-27.57-.03-8.5 24.7M439.67 399.97l-27.57.02 22.32-15.24-8.54-24.68 22.3 15.27 22.28-15.26-8.54 24.66L484.24 400l-27.58-.03-8.5 24.7M358.36 419.87l-27.57.02 22.3-15.25-8.53-24.67 22.3 15.27 22.3-15.26-8.56 24.65 22.33 15.24-27.57-.03-8.5 24.68"/></g></g></svg>