<svg xmlns="http://www.w3.org/2000/svg" height="480" width="640"><defs><clipPath id="a"><path fill-opacity=".67" d="M-85.33 0h682.67v512H-85.33z"/></clipPath></defs><g clip-path="url(#a)" transform="matrix(.9 0 0 .9 80 0)"><path fill-rule="evenodd" fill="#ffe700" d="M-128 341.36h768v85.32h-768z"/><path fill-rule="evenodd" d="M-128 256h768v85.32h-768z"/><path fill-rule="evenodd" fill="#de3908" d="M-128 170.68h768V256h-768z"/><path fill-rule="evenodd" fill="#ffe700" d="M-128 85.36h768v85.32h-768z"/><path fill-rule="evenodd" d="M-128 0h768v85.32h-768z"/><path d="M335.7 256c0 44.02-35.68 79.7-79.7 79.7s-79.7-35.68-79.7-79.7 35.68-79.7 79.7-79.7 79.7 35.67 79.7 79.7z" fill-rule="evenodd" stroke="#000" stroke-width=".9842446" fill="#fffdff"/><path d="M241.94 194.9l-5.18-9.54c2-2 5.36-3.54 10.7-3.54 0 .36-.53 10.44-.53 10.44l-5 2.63z" fill-rule="evenodd" stroke="#000" stroke-width=".9842446" fill="#de3108"/><path d="M246.93 192.35l.72-10.53s10.72-.63 16.52 6.36c.1-.1-5.7 8.17-5.7 8.17l-11.54-4z" fill-rule="evenodd" stroke="#000" stroke-width=".9842446" fill="#ffe700"/><path d="M258.64 196.26l5.27-8.17c3.55 3.7 5 6.34 5.54 10.34.1.1-8.35 2.08-8.35 2s-2.37-4.1-2.46-4.18z" fill-rule="evenodd" stroke="#000" stroke-width=".9842446" fill="#de3108"/><path stroke-linejoin="round" d="M244.57 331.15s9.9-11.34 29.14-8.9c-2.9-4.7-12.25-4.17-12.25-4.17s-2.9-22.06-.63-23.15 11.9.1 11.9.1c1.26 0 3.44-3.46 1.72-5.64-1.73-2.18-6.8-10.54-4.72-12.17 2.08-1.63 13.43.9 13.43.9L251.1 237.1s-3.26-15.43 3.27-22.87c7.9-6.54 7.08-13.62 6.8-13.53-1.08-7.17-11.97-12.35-19.32-5.72-4.36 5.27-1.46 9.26-1.46 9.26s-11.44 3.1-11.9 5.1c-.45 1.98 12.9-.38 12.9-.38l-1.28 9.17s-25.96 23.6-6.08 44.03c.18-.1.63-.9.63-.9s7 8.62 14.35 10.52c6.9 7.08 6.26 6 6.26 6s1.36 11.16.1 13.34c-1.73-.55-19.34-1.18-21.98-.18-2.36.72-11.43.27-9.17 15.07l3.27-7.53s-.27 5.36 1.9 7.26c-.35-5.62 2.1-9.44 2.1-9.44s.45 6.17 1.8 7.07c1.37.9 1.37-9.98 8.9-9.07 7.54.9 13 .63 13 .63s2.53 21.33 1.72 23.33c-5.45-1.27-18.43.55-19.25 3.82 7.63-.46 11.17.45 11.17.45s-6.18 5.45-4.27 8.62z" fill-rule="evenodd" stroke="#000" stroke-linecap="round" stroke-width=".9218629"/><path stroke-linejoin="round" d="M247.63 214.75s-18.9 20.82-10.75 36.76c.44-2.22.25-3.6.52-3.52-.45-.27 2.34 1.92 2.13 1.5.06-1.16-.85-3.63-.85-3.63.85.2 1.7.43 2.56.64l-1.5-2.78 3.63.42s-1.28-3.4-.86-3.4c.44 0 3 .2 3 .2-5.38-9.63-.3-17.64 2.13-26.2z" fill-rule="evenodd" stroke="#9ca69c" stroke-linecap="round" stroke-width=".9218629" fill="#9ca69c"/><path d="M254.2 196.9s1 7.16-2.9 9.25c-.65.45-3.1 1.27-2.74 2.72.46 2 1.54 1.63 3.1 1.27 4.07-.73 8.8-9.44 2.53-13.25z" fill-rule="evenodd" stroke="#9ca69c" stroke-width=".9842446" fill="#9ca69c"/><path d="M247.2 203.06c0 .86-.7 1.55-1.54 1.55-.85 0-1.54-.68-1.54-1.54 0-.85.7-1.54 1.54-1.54.85 0 1.54.7 1.54 1.54z" fill-rule="evenodd" fill="#fff"/><path d="M241.12 209.05c-1 .82-6.27 6.27-1.1 8.26 5.36-1.44 3.9-2.44 5.1-3.62.02-2.45-2.67-3.08-4-4.63z" fill-rule="evenodd" stroke="#000" stroke-width=".9842446" fill="#de3108"/><path stroke-linejoin="round" d="M252.55 260.53c-.27 1.18-1.45 5.54.2 8.9 4.53-1.9 6.6-1.37 8.16-.37-3.7-3-5.17-4.26-8.35-8.53z" fill-rule="evenodd" stroke="#9ca69c" stroke-linecap="round" stroke-width=".9218629" fill="#9ca69c"/><path stroke-linejoin="round" d="M260.37 281.14l.27 10.16s3.54.64 5.17 0c1.65-.63-.08-7.08-5.43-10.16z" fill-rule="evenodd" stroke="#fff" stroke-linecap="round" stroke-width=".9218629" fill="#fff"/><path d="M286.05 282.4s-6.53-15.8-23.24-19.78-14.5-21.8-13.15-22.88c.73-1.55 1.27-3.9 6.08-1.64 4.8 2.27 26.96 13.44 30.14 13.98s.46 30.7.18 30.33z" fill-rule="evenodd" stroke="#000" stroke-width=".9842446" fill="#9ca69c"/><path stroke-linejoin="round" d="M270.17 262.53c-.28.18 22.33 13.34 15.52 24.7 6.44-4.28 4.35-11.72 4.35-11.72s5.26 13.72-7.54 20.43c1.37 1.18 2.28.9 2.28.9l-2.18 2.2s-1 1.62 7.63-2.55c-2.36 1.9-2.54 3.27-2.54 3.27s.62 1.8 6.25-3.1c-4.54 4.9-5.54 7.45-5.54 7.36 12.27-1.08 38.96-40.93-8.43-52.73 2.54 2.63 2.18 2.27 2.18 2.27l-11.98 9z" fill-rule="evenodd" stroke="#000" stroke-width=".9218629" fill="#de3108"/><path stroke-linejoin="round" d="M271.17 258.62c3.08 2.18 4.17 2.9 4.53 4-2.8-.64-5.35-.46-5.35-.46s-6.08-5.8-7.17-6.26c-.82 0-5.54-3-5.54-3-2.36-1.18-4.54-9.35 4.17-7 9 4.28 10.27 4.65 10.27 4.65 3.57 1.1 7.14 2.23 10.7 3.35l6.2 6.9s-11-5.44-12.36-5.53c3 2.45 4.73 5.8 4.73 5.8-3.48-1-6.5-1.9-10.16-2.45z" fill-rule="evenodd" stroke="#000" stroke-linecap="round" stroke-width=".9218629" fill="#fff"/><path d="M228.4 209.87s10.54-2.54 11.8-2.18" stroke="#fff" stroke-linecap="round" stroke-width=".9218629" fill="none"/><path fill-rule="evenodd" fill="#de3908" d="M-128 426.68h768V512h-768z"/></g></svg>