<svg xmlns="http://www.w3.org/2000/svg" height="480" width="640" version="1" xmlns:xlink="http://www.w3.org/1999/xlink"><defs><linearGradient id="a"><stop stop-color="red" offset="0"/><stop stop-color="#ff0" offset="1"/></linearGradient><linearGradient id="c" y2="107.76" xlink:href="#a" gradientUnits="userSpaceOnUse" y1="111.28" gradientTransform="matrix(.6 0 0 1.5 -94.7 29.2)" x2="92.55" x1="103.08"/><linearGradient id="d" y2="107.76" xlink:href="#a" gradientUnits="userSpaceOnUse" y1="111.28" gradientTransform="matrix(.6 0 0 1.5 -94.7 30.2)" x2="92.55" x1="103.08"/><linearGradient id="e" y2="107.76" xlink:href="#a" gradientUnits="userSpaceOnUse" y1="111.28" gradientTransform="matrix(.6 0 0 1.5 -98 31)" x2="92.55" x1="103.08"/><linearGradient id="f" y2="107.76" xlink:href="#a" gradientUnits="userSpaceOnUse" y1="111.28" gradientTransform="matrix(.6 0 0 1.5 -94.7 31.9)" x2="92.55" x1="103.08"/><linearGradient id="g" y2="107.76" xlink:href="#a" gradientUnits="userSpaceOnUse" y1="111.28" gradientTransform="matrix(.6 0 0 1.5 -94.8 32.8)" x2="92.55" x1="103.08"/><linearGradient id="h" y2="107.76" xlink:href="#a" gradientUnits="userSpaceOnUse" y1="111.28" gradientTransform="matrix(.6 0 0 1.5 -94.8 33.8)" x2="92.55" x1="103.08"/><linearGradient id="i" y2="107.76" xlink:href="#a" gradientUnits="userSpaceOnUse" y1="111.28" gradientTransform="matrix(.6 0 0 1.5 -98 33.7)" x2="92.55" x1="103.08"/><linearGradient id="j" y2="107.76" xlink:href="#a" gradientUnits="userSpaceOnUse" y1="111.28" gradientTransform="matrix(.6 0 0 1.5 -98 32.8)" x2="92.55" x1="103.08"/><linearGradient id="k" y2="107.76" xlink:href="#a" gradientUnits="userSpaceOnUse" y1="111.28" gradientTransform="matrix(.6 0 0 1.5 -97.9 31.9)" x2="92.55" x1="103.08"/><linearGradient id="l" y2="107.76" xlink:href="#a" gradientUnits="userSpaceOnUse" y1="111.28" gradientTransform="matrix(.8 0 0 1.9 602.8 148.2)" x2="92.55" x1="103.08"/><linearGradient id="m" y2="107.76" xlink:href="#a" gradientUnits="userSpaceOnUse" y1="111.28" gradientTransform="matrix(.6 0 0 1.5 -98 30.1)" x2="92.55" x1="103.08"/><linearGradient id="n" y2="107.76" xlink:href="#a" gradientUnits="userSpaceOnUse" y1="111.28" gradientTransform="matrix(.6 0 0 1.5 -95.3 30.9)" x2="92.55" x1="103.08"/><clipPath id="b"><path fill-opacity=".67" d="M0 0h640v480H0z"/></clipPath></defs><g clip-path="url(#b)"><path fill="#006" d="M0 0h960v480H0z"/><path fill-rule="evenodd" fill="#006" d="M0 0h350v175H0z"/><g stroke-width="1pt"><path d="M0 0v19.57L310.87 175H350v-19.56L39.13 0H0zm350 0v19.57L39.13 175H0v-19.56L310.87 0H350z" fill="#fff"/><path d="M145.83 0v175h58.34V0h-58.34zM0 58.33v58.34h350V58.33H0z" fill="#fff"/><path d="M0 70v35h350V70H0zM157.5 0v175h35V0h-35zM0 175l116.67-58.33h26.08L26.1 175H0zM0 0l116.67 58.33h-26.1L0 13.03V0zm207.25 58.33L323.9 0H350L233.33 58.33h-26.08zM350 175l-116.67-58.33h26.1l90.57 45.3V175z" fill="#c00"/></g><g><path d="M378.47 154.46l219.35-.82-.4 195.34s7.72 29.7-91.98 74.87c35.8-3.66 74.88-41.9 74.88-41.9s15.87-20.36 23.6-8.96c7.73 11.38 15.06 17.08 20.75 21.55 5.7 4.48 10.18 16.7 1.63 25.64-8.54 8.94-21.97 10.16-25.63-.82-5.7 2.84-40.7 45.17-112.3 47.2-72.86-1.22-112.73-47.6-112.73-47.6s-9.77 15.45-23.6 3.24c-13.44-15.87-3.26-26.04-3.26-26.04s11.4-6.5 14.65-11c5.3-6.1 6.92-14.23 15.87-14.23 10.58.8 14.65 9.36 14.65 9.36s36.62 38.67 76.1 43.55c-89.13-42.73-92.38-69.18-91.97-75.7l.4-193.7z" fill-rule="evenodd" fill="#fff"/><path d="M383.76 159.74l209.16-1.22v188c.4 24.42-40.7 49.25-105 81-66.3-34.2-104.56-54.95-104.97-81.4l.8-186.37z" fill-rule="evenodd" stroke="#000" stroke-width="1.7142549999999999" fill="#006129"/><path d="M408.9 366.9l12.36-18.13 12.4 18.17" stroke="#f7c600" stroke-width="1.719302" fill="none"/><path d="M423.74 360.12c0 1.35-1.1 2.45-2.45 2.45-1.37 0-2.47-1.1-2.47-2.45 0-1.36 1.1-2.46 2.46-2.46 1.34 0 2.44 1.1 2.44 2.46z" fill-rule="evenodd" stroke="#000" stroke-width=".8050560000000001" fill="#f7c600"/><path d="M411.23 380.3l19.14.05s.3-2.48-2-4c10.03-1.37 7.43-10.2 15.82-10.7 1.62.24-4.4 3.75-4.4 3.75s-5.06 3.57-2.75 5.4c1.83 1.43 2.63-.9 2.88-2.65s8.15-2.88 7.02-7.9c-1.88-4.13-12.9 2.77-12.9 2.77l-7.88-.05c-.5-.88-2.66-4.42-4.9-4.44-2.65.1-4.52 4.5-4.52 4.5h-17.8s-.6 4.55 8.42 5.43c2.03 2.65 3.6 3.4 5.37 4.08-1.18.98-1.5 2.17-1.5 3.76z" fill-rule="evenodd" stroke="#000" stroke-width=".8067494000000001" fill="#f7c600"/><path d="M412.6 376.4l15.95-.04M405.3 367s1.28 7.46 7.17 9.23" stroke="#000" stroke-width=".8067494000000001" fill="none"/><path d="M66.32 170.54c.45-2.15 1.26-2.52 2.15-5.27.15-2.67-2.15-2.37-1.48-4.08 1.17-1.86.58-3.64-1.64-5.05.44 2.45-2.9 4.75-2.9 6.75s1.7 1.56 1.5 4.6c.13 1.78-.46 1.33-.6 3.04h2.96z" fill-rule="evenodd" stroke="#000" stroke-width=".61" fill="url(#c)" transform="matrix(1.3 0 0 1.3 316.6 141.4)"/><path d="M423.54 349.23c0 1.24-1 2.25-2.25 2.25-1.26 0-2.27-1-2.27-2.25s1-2.26 2.26-2.26c1.23 0 2.24 1 2.24 2.26z" fill-rule="evenodd" stroke="#000" stroke-width=".8067494000000001" fill="#f7c600"/><path d="M408.2 329.58l12.36-18.13 12.4 18.17" stroke="#f7c600" stroke-width="1.719302" fill="none"/><path d="M423.04 322.8c0 1.35-1.1 2.45-2.45 2.45-1.37 0-2.46-1.1-2.46-2.46 0-1.36 1.1-2.46 2.45-2.46 1.34 0 2.44 1.1 2.44 2.45z" fill-rule="evenodd" stroke="#000" stroke-width=".8050560000000001" fill="#f7c600"/><path d="M410.53 342.98l19.15.05s.3-2.48-2-4c10.02-1.37 7.42-10.2 15.8-10.72 1.64.27-4.37 3.77-4.37 3.77s-5.05 3.58-2.75 5.4c1.83 1.43 2.63-.88 2.88-2.64.25-1.75 8.15-2.88 7.02-7.9-1.88-4.13-12.9 2.76-12.9 2.76l-7.87-.05c-.5-.88-2.66-4.42-4.9-4.44-2.66.1-4.53 4.5-4.53 4.5h-17.8s-.6 4.56 8.42 5.44c2.03 2.65 3.6 3.4 5.37 4.08-1.18.98-1.5 2.17-1.5 3.76z" fill-rule="evenodd" stroke="#000" stroke-width=".8067494000000001" fill="#f7c600"/><path d="M411.9 339.1l15.96-.07M404.6 329.7s1.3 7.44 7.17 9.2" stroke="#000" stroke-width=".8067494000000001" fill="none"/><path d="M66.32 170.54c.45-2.15 1.26-2.52 2.15-5.27.15-2.67-2.15-2.37-1.48-4.08 1.17-1.86.58-3.64-1.64-5.05.44 2.45-2.9 4.75-2.9 6.75s1.7 1.56 1.5 4.6c.13 1.78-.46 1.33-.6 3.04h2.96z" fill-rule="evenodd" stroke="#000" stroke-width=".61" fill="url(#d)" transform="matrix(1.3 0 0 1.3 315.9 104)"/><path d="M422.84 311.9c0 1.25-1 2.26-2.25 2.26-1.26 0-2.27-1-2.27-2.26 0-1.24 1-2.25 2.26-2.25 1.23 0 2.24 1 2.24 2.25z" fill-rule="evenodd" stroke="#000" stroke-width=".8067494000000001" fill="#f7c600"/><path d="M539.38 295.65l12.35-18.13 12.4 18.17" stroke="#f7c600" stroke-width="1.719302" fill="none"/><path d="M554.2 288.86c0 1.36-1.1 2.46-2.44 2.46-1.36 0-2.46-1.1-2.46-2.46 0-1.35 1.1-2.45 2.46-2.45 1.35 0 2.45 1.1 2.45 2.46z" fill-rule="evenodd" stroke="#000" stroke-width=".8050560000000001" fill="#f7c600"/><path d="M541.7 309.05l19.14.05s.3-2.48-2-4c10.03-1.37 7.42-10.2 15.82-10.7 1.63.24-4.4 3.75-4.4 3.75s-5.05 3.57-2.74 5.38c1.83 1.45 2.63-.87 2.88-2.63.25-1.75 8.15-2.88 7.02-7.9-1.88-4.13-12.9 2.77-12.9 2.77l-7.88-.05c-.5-.88-2.66-4.42-4.9-4.44-2.65.1-4.52 4.5-4.52 4.5h-17.8s-.6 4.55 8.4 5.43c2.04 2.66 3.62 3.4 5.4 4.1-1.2.97-1.52 2.16-1.52 3.75z" fill-rule="evenodd" stroke="#000" stroke-width=".8067494000000001" fill="#f7c600"/><path d="M543.08 305.16l15.94-.05M535.78 295.76s1.27 7.45 7.16 9.22" stroke="#000" stroke-width=".8067494000000001" fill="none"/><path d="M66.32 170.54c.45-2.15 1.26-2.52 2.15-5.27.15-2.67-2.15-2.37-1.48-4.08 1.17-1.86.58-3.64-1.64-5.05.44 2.45-2.9 4.75-2.9 6.75s1.7 1.56 1.5 4.6c.13 1.78-.46 1.33-.6 3.04h2.96z" fill-rule="evenodd" stroke="#000" stroke-width=".61" fill="url(#e)" transform="matrix(1.3 0 0 1.3 447.1 70.1)"/><path d="M554 277.98c0 1.24-1 2.25-2.25 2.25-1.24 0-2.25-1-2.25-2.25s1-2.26 2.25-2.26 2.26 1 2.26 2.26z" fill-rule="evenodd" stroke="#000" stroke-width=".8067494000000001" fill="#f7c600"/><path d="M411.27 259.37l12.35-18.13 12.4 18.17" stroke="#f7c600" stroke-width="1.719302" fill="none"/><path d="M426.1 252.58c0 1.36-1.1 2.46-2.45 2.46-1.36 0-2.45-1.1-2.45-2.46 0-1.35 1.1-2.45 2.45-2.45s2.45 1.1 2.45 2.45z" fill-rule="evenodd" stroke="#000" stroke-width=".8050560000000001" fill="#f7c600"/><path d="M413.6 272.77l19.14.05s.3-2.48-2-4c10.02-1.37 7.42-10.2 15.8-10.7 1.64.24-4.37 3.75-4.37 3.75s-5.07 3.57-2.76 5.38c1.84 1.45 2.64-.87 2.9-2.63.24-1.75 8.14-2.88 7-7.9-1.87-4.13-12.9 2.76-12.9 2.76l-7.87-.04c-.5-.88-2.65-4.42-4.9-4.44-2.65.1-4.52 4.48-4.52 4.48h-17.8s-.6 4.57 8.43 5.45c2.03 2.65 3.6 3.4 5.37 4.08-1.18 1-1.5 2.18-1.5 3.77z" fill-rule="evenodd" stroke="#000" stroke-width=".8067494000000001" fill="#f7c600"/><path d="M414.97 268.88l15.95-.05M407.67 259.48s1.28 7.45 7.16 9.22" stroke="#000" stroke-width=".8067494000000001" fill="none"/><path d="M66.32 170.54c.45-2.15 1.26-2.52 2.15-5.27.15-2.67-2.15-2.37-1.48-4.08 1.17-1.86.58-3.64-1.64-5.05.44 2.45-2.9 4.75-2.9 6.75s1.7 1.56 1.5 4.6c.13 1.78-.46 1.33-.6 3.04h2.96z" fill-rule="evenodd" stroke="#000" stroke-width=".61" fill="url(#f)" transform="matrix(1.3 0 0 1.3 319 33.8)"/><path d="M425.9 241.7c0 1.24-1 2.25-2.25 2.25s-2.26-1-2.26-2.25 1-2.26 2.25-2.26c1.24 0 2.25 1 2.25 2.26z" fill-rule="evenodd" stroke="#000" stroke-width=".8067494000000001" fill="#f7c600"/><g><path d="M411.55 223.7l12.35-18.12 12.4 18.17" stroke="#f7c600" stroke-width="1.719302" fill="none"/><path d="M426.38 216.93c0 1.35-1.1 2.45-2.46 2.45-1.35 0-2.45-1.1-2.45-2.45 0-1.36 1.1-2.46 2.45-2.46 1.36 0 2.46 1.1 2.46 2.46z" fill-rule="evenodd" stroke="#000" stroke-width=".8050560000000001" fill="#f7c600"/><path d="M413.87 237.1l19.14.06s.3-2.48-2-4c10.04-1.37 7.43-10.2 15.83-10.7 1.63.24-4.4 3.75-4.4 3.75s-5.05 3.58-2.74 5.4c1.82 1.44 2.62-.88 2.87-2.64.25-1.75 8.15-2.88 7.02-7.9-1.9-4.13-12.92 2.77-12.92 2.77l-7.87-.05c-.48-.88-2.65-4.42-4.9-4.44-2.64.1-4.5 4.5-4.5 4.5h-17.82s-.6 4.55 8.42 5.43c2.03 2.65 3.6 3.4 5.38 4.08-1.18.98-1.5 2.17-1.5 3.76z" fill-rule="evenodd" stroke="#000" stroke-width=".8067494000000001" fill="#f7c600"/><path d="M415.25 233.22l15.94-.05M407.95 223.82s1.27 7.46 7.16 9.22" stroke="#000" stroke-width=".8067494000000001" fill="none"/><path d="M66.32 170.54c.45-2.15 1.26-2.52 2.15-5.27.15-2.67-2.15-2.37-1.48-4.08 1.17-1.86.58-3.64-1.64-5.05.44 2.45-2.9 4.75-2.9 6.75s1.7 1.56 1.5 4.6c.13 1.78-.46 1.33-.6 3.04h2.96z" fill-rule="evenodd" stroke="#000" stroke-width=".61" fill="url(#g)" transform="matrix(1.3 0 0 1.3 319.3 -1.8)"/><path d="M426.18 206.04c0 1.24-1 2.25-2.26 2.25-1.24 0-2.25-1.02-2.25-2.26 0-1.25 1-2.26 2.25-2.26s2.26 1 2.26 2.26z" fill-rule="evenodd" stroke="#000" stroke-width=".8067494000000001" fill="#f7c600"/></g><g><path d="M412.23 187.53l12.34-18.13 12.4 18.17" stroke="#f7c600" stroke-width="1.719302" fill="none"/><path d="M427.05 180.75c0 1.35-1.1 2.45-2.45 2.45s-2.45-1.1-2.45-2.45c0-1.36 1.1-2.46 2.45-2.46 1.36 0 2.45 1.1 2.45 2.45z" fill-rule="evenodd" stroke="#000" stroke-width=".8050560000000001" fill="#f7c600"/><path d="M414.55 200.93l19.14.05s.3-2.48-2-4c10.02-1.37 7.4-10.2 15.8-10.7 1.64.24-4.38 3.75-4.38 3.75s-5.06 3.57-2.76 5.4c1.84 1.43 2.64-.9 2.9-2.65.24-1.75 8.13-2.88 7-7.9-1.87-4.13-12.9 2.77-12.9 2.77l-7.87-.05c-.5-.88-2.67-4.42-4.9-4.44-2.67.1-4.54 4.5-4.54 4.5h-17.8s-.6 4.55 8.42 5.43c2.03 2.64 3.6 3.38 5.37 4.07-1.17.98-1.5 2.17-1.5 3.76z" fill-rule="evenodd" stroke="#000" stroke-width=".8067494000000001" fill="#f7c600"/><path d="M415.93 197.04l15.94-.05M408.62 187.64s1.28 7.46 7.17 9.22" stroke="#000" stroke-width=".8067494000000001" fill="none"/><path d="M66.32 170.54c.45-2.15 1.26-2.52 2.15-5.27.15-2.67-2.15-2.37-1.48-4.08 1.17-1.86.58-3.64-1.64-5.05.44 2.45-2.9 4.75-2.9 6.75s1.7 1.56 1.5 4.6c.13 1.78-.46 1.33-.6 3.04h2.96z" fill-rule="evenodd" stroke="#000" stroke-width=".61" fill="url(#h)" transform="matrix(1.3 0 0 1.3 319.9 -38)"/><path d="M426.86 169.86c0 1.24-1 2.25-2.26 2.25-1.24 0-2.25-1-2.25-2.24 0-1.25 1-2.26 2.25-2.26s2.26 1 2.26 2.26z" fill-rule="evenodd" stroke="#000" stroke-width=".8067494000000001" fill="#f7c600"/></g><g><path d="M540.36 188.12L552.7 170l12.4 18.16" stroke="#f7c600" stroke-width="1.719302" fill="none"/><path d="M555.18 181.34c0 1.35-1.1 2.45-2.45 2.45s-2.45-1.1-2.45-2.46c0-1.36 1.1-2.46 2.45-2.46s2.45 1.1 2.45 2.46z" fill-rule="evenodd" stroke="#000" stroke-width=".8050560000000001" fill="#f7c600"/><path d="M542.68 201.52l19.14.05s.3-2.48-2-4c10.02-1.37 7.42-10.2 15.82-10.7 1.62.24-4.4 3.75-4.4 3.75s-5.05 3.57-2.75 5.38c1.82 1.45 2.62-.87 2.87-2.63.26-1.75 8.15-2.88 7.02-7.9-1.9-4.13-12.9 2.77-12.9 2.77l-7.88-.05c-.5-.9-2.66-4.43-4.9-4.45-2.66.1-4.53 4.5-4.53 4.5h-17.8s-.6 4.55 8.4 5.43c2.04 2.65 3.6 3.4 5.38 4.08-1.18.98-1.5 2.17-1.5 3.76z" fill-rule="evenodd" stroke="#000" stroke-width=".8067494000000001" fill="#f7c600"/><path d="M544.05 197.63l15.95-.05M536.75 188.23s1.28 7.45 7.16 9.22" stroke="#000" stroke-width=".8067494000000001" fill="none"/><path d="M66.32 170.54c.45-2.15 1.26-2.52 2.15-5.27.15-2.67-2.15-2.37-1.48-4.08 1.17-1.86.58-3.64-1.64-5.05.44 2.45-2.9 4.75-2.9 6.75s1.7 1.56 1.5 4.6c.13 1.78-.46 1.33-.6 3.04h2.96z" fill-rule="evenodd" stroke="#000" stroke-width=".61" fill="url(#i)" transform="matrix(1.3 0 0 1.3 448.1 -37.4)"/><path d="M554.98 170.45c0 1.24-1 2.25-2.25 2.25s-2.26-1-2.26-2.25 1-2.26 2.26-2.26c1.25 0 2.26 1 2.25 2.25z" fill-rule="evenodd" stroke="#000" stroke-width=".8067494000000001" fill="#f7c600"/></g><g><path d="M539.2 223.64l12.33-18.14 12.4 18.18" stroke="#f7c600" stroke-width="1.719302" fill="none"/><path d="M554 216.85c0 1.36-1.1 2.45-2.44 2.45-1.35 0-2.45-1.1-2.45-2.45s1.1-2.45 2.46-2.45c1.35 0 2.45 1.1 2.45 2.45z" fill-rule="evenodd" stroke="#000" stroke-width=".8050560000000001" fill="#f7c600"/><path d="M541.5 237.04l19.15.05s.3-2.5-2-4c10.02-1.38 7.42-10.23 15.82-10.73 1.62.25-4.4 3.76-4.4 3.76s-5.05 3.57-2.75 5.4c1.83 1.43 2.63-.9 2.88-2.64.26-1.77 8.15-2.9 7.02-7.9-1.88-4.14-12.9 2.75-12.9 2.75l-7.87-.04c-.5-.88-2.66-4.42-4.9-4.43-2.66.1-4.53 4.48-4.53 4.48h-17.8s-.6 4.57 8.42 5.44c2.03 2.65 3.6 3.4 5.37 4.08-1.17.98-1.5 2.16-1.5 3.76z" fill-rule="evenodd" stroke="#000" stroke-width=".8067494000000001" fill="#f7c600"/><path d="M542.88 233.15l15.95-.06M535.58 223.74s1.28 7.46 7.16 9.23" stroke="#000" stroke-width=".8067494000000001" fill="none"/><path d="M66.32 170.54c.45-2.15 1.26-2.52 2.15-5.27.15-2.67-2.15-2.37-1.48-4.08 1.17-1.86.58-3.64-1.64-5.05.44 2.45-2.9 4.75-2.9 6.75s1.7 1.56 1.5 4.6c.13 1.78-.46 1.33-.6 3.04h2.96z" fill-rule="evenodd" stroke="#000" stroke-width=".61" fill="url(#j)" transform="matrix(1.3 0 0 1.3 446.9 -1.9)"/><path d="M553.8 205.96c.02 1.25-1 2.26-2.24 2.26-1.25 0-2.26-1-2.26-2.26 0-1.24 1-2.25 2.26-2.25 1.25 0 2.26 1.02 2.25 2.26z" fill-rule="evenodd" stroke="#000" stroke-width=".8067494000000001" fill="#f7c600"/></g><g><path d="M537.6 259.94l12.36-18.13 12.4 18.18" stroke="#f7c600" stroke-width="1.719302" fill="none"/><path d="M552.44 253.15c0 1.36-1.1 2.46-2.45 2.46-1.37 0-2.46-1.1-2.46-2.45s1.1-2.45 2.45-2.45c1.34 0 2.44 1.1 2.44 2.45z" fill-rule="evenodd" stroke="#000" stroke-width=".8050560000000001" fill="#f7c600"/><path d="M539.94 273.34l19.14.05s.3-2.5-2-4c10.02-1.38 7.42-10.22 15.82-10.73 1.62.25-4.4 3.76-4.4 3.76s-5.05 3.58-2.75 5.4c1.83 1.43 2.63-.88 2.88-2.64.25-1.76 8.15-2.9 7.02-7.9-1.88-4.14-12.9 2.75-12.9 2.75l-7.87-.04c-.5-.87-2.66-4.42-4.9-4.43-2.66.1-4.53 4.48-4.53 4.48h-17.8s-.6 4.57 8.42 5.45c2.03 2.65 3.6 3.4 5.37 4.08-1.18.98-1.5 2.17-1.5 3.76z" fill-rule="evenodd" stroke="#000" stroke-width=".8067494000000001" fill="#f7c600"/><path d="M541.3 269.45l15.96-.06M534 260.04s1.3 7.46 7.17 9.23" stroke="#000" stroke-width=".8067494000000001" fill="none"/><path d="M66.32 170.54c.45-2.15 1.26-2.52 2.15-5.27.15-2.67-2.15-2.37-1.48-4.08 1.17-1.86.58-3.64-1.64-5.05.44 2.45-2.9 4.75-2.9 6.75s1.7 1.56 1.5 4.6c.13 1.78-.46 1.33-.6 3.04h2.96z" fill-rule="evenodd" stroke="#000" stroke-width=".61" fill="url(#k)" transform="matrix(1.3 0 0 1.3 445.3 34.4)"/><path d="M552.24 242.26c0 1.25-1 2.26-2.25 2.26-1.26 0-2.27-1-2.27-2.26 0-1.24 1-2.25 2.26-2.25 1.23 0 2.24 1.02 2.24 2.26z" fill-rule="evenodd" stroke="#000" stroke-width=".8067494000000001" fill="#f7c600"/></g><path d="M539.18 367.27l12.35-18.13 12.4 18.17" stroke="#f7c600" stroke-width="1.29339" fill="none"/><path d="M554 360.5c0 1.35-1.1 2.45-2.45 2.45s-2.45-1.1-2.45-2.45c0-1.36 1.1-2.46 2.45-2.46 1.36 0 2.46 1.1 2.46 2.46z" fill-rule="evenodd" stroke="#000" stroke-width=".80067" fill="#f7c600"/><path d="M541.5 380.67l19.14.05s.3-2.48-2-4c10.03-1.37 7.43-10.2 15.82-10.72 1.63.26-4.38 3.76-4.38 3.76s-5.07 3.58-2.76 5.4c1.83 1.43 2.63-.88 2.88-2.64.25-1.75 8.15-2.88 7.02-7.9-1.88-4.13-12.9 2.76-12.9 2.76l-7.88-.04c-.5-.88-2.66-4.42-4.9-4.44-2.65.1-4.52 4.48-4.52 4.48h-17.8s-.6 4.57 8.4 5.45c2.05 2.65 3.62 3.4 5.4 4.08-1.2 1-1.52 2.18-1.52 3.77z" fill-rule="evenodd" stroke="#000" stroke-width=".80067" fill="#f7c600"/><path d="M542.88 376.78l15.94-.06M535.58 367.38s1.28 7.46 7.16 9.23" stroke="#000" stroke-width=".80067" fill="none"/><path d="M814.5 330.27c.57-2.77 1.62-3.25 2.77-6.8.2-3.43-2.77-3.04-1.9-5.24 1.52-2.4.75-4.7-2.1-6.5.56 3.15-3.74 6.1-3.74 8.7 0 2.58 2.2 2 1.9 5.92.2 2.3-.56 1.72-.75 3.92h3.82z" fill-rule="evenodd" stroke="#000" stroke-width=".78" fill="url(#l)" transform="matrix(1 0 0 1 -301.5 28.3)"/><path d="M531.72 341.35c0 1.2-.98 2.2-2.2 2.2-1.2 0-2.2-1-2.2-2.2 0-1.2 1-2.2 2.2-2.2s2.2 1 2.2 2.2z" fill-rule="evenodd" stroke="#000" stroke-width=".78" fill="#f7c600"/><g><path d="M539 331.36l12.34-18.13 12.4 18.17" stroke="#f7c600" stroke-width="1.719302" fill="none"/><path d="M553.82 324.58c0 1.35-1.1 2.45-2.46 2.45-1.35 0-2.45-1.1-2.45-2.45 0-1.36 1.1-2.46 2.46-2.46 1.36 0 2.46 1.1 2.46 2.46z" fill-rule="evenodd" stroke="#000" stroke-width=".8050560000000001" fill="#f7c600"/><path d="M541.3 344.76l19.15.06s.3-2.5-2-4c10.03-1.38 7.42-10.22 15.82-10.72 1.63.25-4.4 3.76-4.4 3.76s-5.05 3.57-2.74 5.4c1.83 1.43 2.63-.9 2.88-2.64.26-1.76 8.16-2.9 7.03-7.9-1.88-4.14-12.9 2.76-12.9 2.76l-7.88-.05c-.5-.88-2.66-4.42-4.9-4.44-2.65.1-4.52 4.48-4.52 4.48h-17.8s-.6 4.56 8.4 5.44c2.04 2.65 3.62 3.4 5.4 4.08-1.2.98-1.52 2.17-1.52 3.76z" fill-rule="evenodd" stroke="#000" stroke-width=".8067494000000001" fill="#f7c600"/><path d="M542.7 340.87l15.93-.05M535.4 331.47s1.26 7.46 7.15 9.22" stroke="#000" stroke-width=".8067494000000001" fill="none"/><path d="M66.32 170.54c.45-2.15 1.26-2.52 2.15-5.27.15-2.67-2.15-2.37-1.48-4.08 1.17-1.86.58-3.64-1.64-5.05.44 2.45-2.9 4.75-2.9 6.75s1.7 1.56 1.5 4.6c.13 1.78-.46 1.33-.6 3.04h2.96z" fill-rule="evenodd" stroke="#000" stroke-width=".61" fill="url(#m)" transform="matrix(1.3 0 0 1.3 446.7 105.8)"/><path d="M553.62 313.7c0 1.23-1 2.24-2.26 2.24-1.24 0-2.25-1-2.25-2.25 0-1.26 1.02-2.27 2.26-2.27 1.25 0 2.26 1 2.26 2.26z" fill-rule="evenodd" stroke="#000" stroke-width=".8067494000000001" fill="#f7c600"/></g><g><path d="M434.68 298l12.34-18.14 12.4 18.17" stroke="#f7c600" stroke-width="1.719302" fill="none"/><path d="M449.5 291.2c0 1.36-1.1 2.46-2.45 2.46s-2.45-1.1-2.45-2.46c0-1.35 1.1-2.45 2.45-2.45 1.36 0 2.45 1.1 2.45 2.45z" fill-rule="evenodd" stroke="#000" stroke-width=".8050560000000001" fill="#f7c600"/><path d="M437 311.4l19.14.04s.3-2.48-2-4c10.03-1.37 7.42-10.2 15.82-10.72 1.63.25-4.4 3.76-4.4 3.76s-5.05 3.58-2.75 5.4c1.84 1.43 2.65-.88 2.9-2.64.25-1.75 8.14-2.88 7-7.9-1.87-4.13-12.9 2.76-12.9 2.76l-7.86-.04c-.5-.88-2.66-4.43-4.9-4.44-2.66.1-4.53 4.48-4.53 4.48h-17.78s-.6 4.57 8.4 5.45c2.04 2.65 3.62 3.4 5.38 4.08-1.17.98-1.5 2.17-1.5 3.76z" fill-rule="evenodd" stroke="#000" stroke-width=".8067494000000001" fill="#f7c600"/><path d="M438.38 307.5l15.94-.06M431.07 298.1s1.28 7.45 7.17 9.22" stroke="#000" stroke-width=".8067494000000001" fill="none"/><path d="M66.32 170.54c.45-2.15 1.26-2.52 2.15-5.27.15-2.67-2.15-2.37-1.48-4.08 1.17-1.86.58-3.64-1.64-5.05.44 2.45-2.9 4.75-2.9 6.75s1.7 1.56 1.5 4.6c.13 1.78-.46 1.33-.6 3.04h2.96z" fill-rule="evenodd" stroke="#000" stroke-width=".61" fill="url(#n)" transform="matrix(1.3 0 0 1.3 342.4 72.5)"/><path d="M449.3 280.3c0 1.26-1 2.27-2.25 2.27s-2.26-1-2.25-2.26c0-1.23 1-2.24 2.25-2.24s2.26 1 2.26 2.25z" fill-rule="evenodd" stroke="#000" stroke-width=".8067494000000001" fill="#f7c600"/></g><g stroke="#000"><path d="M500.74 384.17s5 11.52 10.7 4.44 3.6-10.1 3.6-10.1l-12.77-6.95-3.75 7.9 2.22 4.72z" fill-rule="evenodd" stroke-width=".8067494000000001" fill="#f7c600"/><path d="M511.7 382.65s.84.14 1.53-1.1-1.52-1.8-2.5-3.2l-1.1 2.22 2.08 2.08zM482.83 379.6l-11.23 6.1s-5.55 1.1-5.97 0c-.42-1.1.14-2.08 3.05-2.22 2.92-.14 10.82-7.35 10.82-7.35l3.33 3.47zM482.98 179.93l.42 4.03s-2.22 4.3-2.36 4.16-1.25.14-1.1.97 1.8 1.1 1.8 1.1-.7 2.92 0 3.05c.68.14-1.8 3.75 0 4.72 1.8.97 4.85 2.22 6.23 1.94 1.4-.26 0 5.43 0 5.43l-3.88 8.32 21.36-2.22-4.44-7.08s-2.08-1.38-1.53-5.4c.55-4.03-.3-22.2-.3-22.2l-15.25-2.1-.97 5.28zM479.1 211.57s-6.95 3.2-6.67 11.8c-1.8 8.32-2.77 16.64-2.77 16.64s-8.2 9.3-10.7 12.64c-2.48 3.33-6.23 10.13-7.62 11.93s-6.8 7.77-6.66 10c.14 2.2-1.25 12.06 4.16 13.17 1.4.56 5.83-11.38 5.83-11.38s.28-5.13-1.25-6.1 3.33-4.3 3.33-4.3 9.3-6.8 11.38-8.47 7.77-8.05 7.77-8.05l3.2-37.88z" fill-rule="evenodd" stroke-width=".8067494000000001" fill="#ffc6b5"/><path d="M487 205.05s1.8 4.85 5.83 4.02c4.02-.83 8.74-4.58 8.74-4.58s3.75-.15 4.3.4c.56.56 10.13 9.86 9.85 12.77-.28 2.92-4.44 2.08-5.96 4.03s-4.03 6.8-3.33 10.4 2.77 8.33 2.5 10.13-1.8 2.36-1.8 3.33c0 .97 1.24 2.64 1.24 4.44s-1.67 4.44-1.4 6.25c.3 1.8.43 7.07.43 7.07l-.42 24.42s1.4.84 1.53 2.22c.15 1.4 9.44 41.77 9.44 41.77s-.4 1.25-1.4 1.1 3.76 6.25 3.9 8.05 4.86 15.96 4.72 17.9c-.14 1.95-.84 6.25-1.25 6.4-.4.12 3.06 8.87 2.5 10.25-.55 1.4-6.24 1.25-6.24 1.25l-1.52-.28s.13 1.8-.98 1.95-9.3-.42-9.3-.42-2.35 3.6-3.74 3.47c-1.4-.14-3.2-2.64-3.6-2.22-.42.42 1.24 2.77.83 3.47-.42.7-7.5 2.22-8.88-1.1-1.4-3.34.83-2.5.4-3.2-.4-.7-3.6-2.5-4.57-1.95s2.5 1.4 2.36 2.78c-.14 1.4-3.05 3.47-4.16 3.47s-3.75-5.14-7.63-4.58c-3.9.55-6.38 1.53-6.38 1.53s-4.6 1.94-6.53 1.52c-1.95-.4-2.78-1.94-2.78-2.77 0-.84 1.38-4.44 1.24-5.55s-1.25-2.22-1.25-3.9c0-1.65 3.18-7.34 3.18-7.34l-.14-25.53s-2.9 0-3.05-1.8 4.43-40.38 5.12-42.88c.7-2.5 2.5-11.38 2.5-11.38s-2.08.97-2.22 0 6.25-23.03 6.25-23.03 1.1-10.96 1.1-13.87c0-2.92-.55-6.94-.55-6.94s-5.7-2.4-5.83-6.1c-.52-5.88 5.4-9.16 6.1-11.1l2.78-7.78s3.06-5.27 8.05-6.1z" fill-rule="evenodd" stroke-width=".8067494000000001" fill="#fff"/><path d="M484.92 381.26s-13.45 7.08-15.4 7.64c-1.94.55-3.2-2.36-1.25-2.92 1.95-.55 5-.83 5-.83s-4.58-3.6-4.44-3.75c.14-.14 6.24-2.36 6.38-2.36s1.95 3.6 3.2 3.33 4.86-3.05 4.86-3.05 1.94 2.22 1.66 1.94z" fill-rule="evenodd" stroke-width=".8067494000000001" fill="#f7c600"/><path d="M503.9 385.14c1.26 1.64 1.76 4.5 4.67 2.82 2.92-1.66-1.5-4.75-1.5-4.75l-3.18 1.94z" fill-rule="evenodd" stroke-width=".8067494000000001" fill="#ffc6b5"/><path d="M509.2 384.86s1.4 1.1 2.64-.14-2.5-3.88-2.5-3.88l-1.8 2.08 1.67 1.94z" fill-rule="evenodd" stroke-width=".8067494000000001" fill="#ffc6b5"/><path d="M505.04 210.46s-12.35 7.9-12.07 10.68M507.82 211.85s-2.78 3.05-2.92 3.05M511.56 215.18s-6.1 5-5.13 8.18M482.7 209.77s-1.8 3.74-1.4 5c.43 1.24 3.48 5.96 3.9 8.87.42 2.9 0 5 0 5M479.5 216.7s.57 4.44 1.4 5.27c.83.84 3.05 4.58 3.33 6.1M478.4 235.16s3.6 1.8 6.94-5.14M490.74 225.17c-.14 0-2.63 6.8 1.8 9.3s7.78 2.2 9.72 1.52c1.94-.7 4.02-1.95 4.02-1.95M488.8 233.5s.3 9.15 13.75 18.17M489.37 242.1s-.14 8.04 5.13 11.65M486.6 232.66s-4.03 11.93-7.22 13.18M485.33 241.4s-.14 8.6-1.25 11.66M482.98 255.14s2.77 3.46 5.83 3.2c3.06-.3 4.3-3.9 6.4-3.34 2.07.55 4 2.22 8.87 1.8M497.13 260.4s0 7.08 1.25 7.78.7 7.2.7 7.2M480.2 257.08s-.14 6.66-.97 9.02c-.83 2.36-2.5 6.38-2.22 9.85M471.74 279.84c.7-.28 3.05-2.36 3.05-2.36M476.04 279s-5.97 25.54-4.3 40.8M477.42 280.25s-3.05 19.15-1.66 22.75M475.9 279.7l11.66.83M489.22 279s3.2 1.67 7.63 1.4M487.83 288.3s-.55 32.75-1.38 39.96M504.9 295.8s3.6 28.7 5.7 31.35M497.96 299.4s2.22 25.4 3.47 27.6M466.47 335.9s4.3-1.4 8.2-5.56c4.43 5.96 11.23.28 11.23.28s10.54 7.2 15.26-.84c7.22 4.72 10.82-.7 10.82-.7s2.64 4.03 4.58 3.62M505.04 335.48s5.4 25.4 13.46 32.6M477.15 332.83s.7 21.23 1.94 36.22M476.18 356.84s-.7 13.87-1.52 14.84M468 373.08s1.52 5.96 9.15.4c7.63-5.54 7.77 2.1 8.05 2.93.28.84 1.53 6.8 4.44 1.8M495.74 370.02s-1.25 12.35 9.7 3.33c10.98-9.02 12.78-.14 13.06 2.64" stroke-width=".8067494000000001" fill="none"/><path d="M482.56 179.1s3.05.42 4.7-.55c1.68-.98 3.62-1.4 5 .55s2.37 1.8 2.37 1.8-2.08 5.14 0 5.7c2.08.55 3.05.55 3.2 1.24.13.7-1.8 2.22-1.26 2.92.56.7 1.53 1.52 1.67 2.08.13.55-1.25 2.9-.84 3.47.42.56 1.67 2.78 2.5 2.78.83 0 .28 3.47 2.78 2.64s2.35-3.06 2.35-3.06 2.64-.4 3.33-2.77c.7-2.37 2.36-2.92 2.36-2.92s3.33-1.8-1.1-4.58c0-19.43-12.77-17.35-12.77-17.35s-1.53-3.47-4.03-3.05c-2.5.42-2.63 3.33-4.44 3.05-1.8-.27-2.22-1.52-2.35-1.38-.14.13-1.67 2.9-1.67 3.6 0 .7-4.86-.97-4.44 2.64s2.78 3.48 2.64 3.2z" fill-rule="evenodd" stroke-width=".8067494000000001" fill="#9c5100"/><path d="M495.9 174.38s-.98 6.1 5.54 5.55c-.83 3.33 1.66 4.44 1.66 4.44M507.95 188.12c.14 0 2.9 1.8-.14 4.02M498.52 192.98s1.4 1.66 2.9 1.24c1.54-.4 4.04 1.53 4.04 1.53s2.08.7 2.36.28M490.06 198.25s4.7 1.8 7.77-5.7M481.3 190.34l2.8.14" stroke-width=".8067494000000001" fill="none"/><path stroke-linejoin="round" d="M481.74 193.1h2.5l-2.23 1" stroke-width=".8067494000000001" fill="none"/><path stroke-linejoin="round" d="M485.2 185.34c.42 0 1.94-.55 2.22-.13.28.42-1.66.7-2.22.14z" stroke-width="1.4547940000000001" fill="none"/><path d="M515.17 218.3c.14 0 4.58 13.75 5.13 17.2.56 3.48 2.36 17.36 1.67 19.3-.7 1.94-7.77 11.24-8.6 13.6-.84 2.36-5.83 11.38-5.83 11.38s-1.25 8.88-1.8 9.3c-.56.4 1.43 2.6 1.24 3.32-.27.83-4.02 4.72-5.68 4.3-1.67-.4-4.3-2.35-4.44-4.16s.13-7.77 1.38-9.3 7.77-16.92 8.2-17.9c.4-.97 5.96-13.04 6.1-15.12.13-2.08-1.73-6.9-3.7-8.66-4.36-12.85-2.65-20.6 6.33-23.25z" fill-rule="evenodd" stroke-width=".8067494000000001" fill="#ffc6b5"/><path d="M450.52 277.84l.22 6.08M444.83 277.4s3.9 6.5 3.57 10" stroke-width=".8067494000000001" fill="none"/><path stroke-linejoin="round" d="M497.08 291s2.9-.3 2.82 4.57c1.86-6.04 5.65-6.18 5.65-6.18" stroke-width=".8067494000000001" fill="none"/></g><path d="M466.75 419.62c57.1-1.6 93.95-42.8 93.56-43.2-.4-.4 7.54-11.5 13.88-9.92 6.34 1.58 15.46 20.22 26.56 24.18 5.55 8.72-1.58 16.65-3.96 18.24-2.38 1.58-13.08 5.94-14.67-.4-1.57-6.34-4.75-5.15-4.75-5.15s-50.74 49.55-109.4 47.57c-60.66.4-110.6-47.57-110.6-47.57l-4.37 4.76s-4.75 5.15-7.13 4.75c-2.38-.4-12.7-7.13-13.48-13.87-.8-6.73 6.34-11.1 6.34-11.1s17.45-13.47 19.44-20.6c3.96-3.97 11.5 2.77 11.5 2.77s45.98 52.72 97.12 49.55z" fill-rule="evenodd" stroke="#000" stroke-width="1.67" fill="#f7c600"/><path d="M337.52 388.96s4.72-1.26 6.45.7c1.73 1.97 13.6 13.6 13.6 13.6" stroke="#000" stroke-width="1.67" fill="none"/><path d="M348.3 394.46l-4.73 3.54s11.87 2.36 9.2 10.14M596.5 388.56s-2.37-1.26-6.06 1.5c-3.7 2.75-13.05 13.2-13.05 13.2" stroke="#000" stroke-width="1.67" fill="none"/><path d="M585.88 394.15l5.1 3.93s-10.68.7-8.32 10.85" stroke="#000" stroke-width="1.67" fill="none"/><path d="M397.95 401.54l-.34.48c-.7-.35-1.53-.42-2.45-.2-.67.18-1.94.8-3.8 1.9l-15.72 9.16-.43-.3 3.96-18.37c.48-2.2.7-3.55.66-4.02-.04-.47-.37-1-1-1.55l.35-.5 8.46 6.05-.34.48-.3-.2c-.76-.55-1.35-.82-1.76-.83-.3 0-.53.1-.7.36-.12.15-.22.36-.3.63-.1.25-.26 1-.52 2.2l-2.5 11.48 9.07-5.33c1.08-.65 1.8-1.1 2.1-1.35.34-.25.58-.5.74-.72.2-.26.28-.54.28-.84 0-.3-.1-.6-.28-.9-.27-.4-.7-.83-1.33-1.27l.35-.5 5.8 4.14m5.64 27.3l-.3.5-9.95-5.43.3-.5.62.34c.55.3 1.05.44 1.5.43.3 0 .62-.12.92-.37.22-.16.6-.72 1.12-1.68l6.84-12.52c.54-.97.82-1.6.85-1.9.04-.3-.06-.64-.28-1-.2-.34-.57-.67-1.1-.96l-.64-.35.28-.52 9.96 5.44-.3.52-.62-.35c-.55-.3-1.05-.45-1.5-.44-.3 0-.62.12-.94.36-.22.17-.6.73-1.12 1.68l-6.85 12.52c-.54.98-.82 1.6-.85 1.9-.02.32.07.65.28 1 .22.36.6.68 1.13.97l.63.33m36.35-8.52l-2.57 7.2-.55-.2c.03-2.2-.45-4.05-1.43-5.56-.98-1.5-2.27-2.54-3.87-3.1-1.53-.55-2.95-.57-4.28-.07-1.32.5-2.46 1.43-3.43 2.82-.97 1.38-1.74 2.88-2.32 4.5-.7 1.96-1.08 3.76-1.14 5.4s.3 3 1.07 4.05c.8 1.06 1.9 1.84 3.3 2.35.5.17 1.02.3 1.57.38.56.08 1.15.1 1.76.1l1.52-4.24c.28-.8.4-1.35.38-1.62-.02-.28-.18-.57-.46-.9-.27-.3-.66-.55-1.15-.72l-.53-.2.2-.55 9.94 3.54-.2.55c-.77-.22-1.34-.3-1.7-.25-.34.05-.66.22-.95.53-.15.16-.36.6-.63 1.35l-1.5 4.25c-1.52.12-3.04.07-4.56-.14-1.5-.2-3.02-.58-4.54-1.12-1.94-.7-3.46-1.53-4.56-2.5-1.08-1-1.97-2.1-2.65-3.3-.66-1.2-1.08-2.45-1.25-3.72-.2-1.64 0-3.32.6-5.04 1.1-3.07 3.1-5.28 6.02-6.63 2.9-1.36 6-1.46 9.28-.3 1.02.37 1.9.78 2.66 1.23.42.24 1.05.72 1.9 1.45.86.73 1.38 1.13 1.56 1.2.28.1.58.08.9-.03.3-.13.67-.44 1.07-.94l.55.2m15.32 24.6l-.1.58-11.2-1.7.08-.6.7.12c.64.1 1.15.06 1.57-.1.3-.1.54-.33.75-.67.15-.23.3-.9.47-1.96l2.14-14.1c.17-1.1.2-1.8.14-2.1-.08-.3-.28-.56-.6-.82-.32-.26-.78-.44-1.38-.53l-.72-.1.1-.6 11.2 1.7-.08.6-.7-.1c-.63-.1-1.15-.07-1.56.1-.3.1-.56.32-.77.65-.14.24-.3.9-.46 1.97l-2.14 14.1c-.17 1.1-.2 1.8-.14 2.1.1.28.3.56.6.83.33.25.8.42 1.4.52l.7.1m29.12-7.08l-.42 7.65-19.24.98-.03-.6.7-.03c.63-.03 1.13-.17 1.5-.4.28-.17.48-.44.6-.8.1-.27.14-.95.08-2.03l-.73-14.27c-.05-1.1-.15-1.8-.28-2.06-.13-.27-.38-.5-.76-.7-.35-.18-.83-.26-1.44-.23l-.72.03-.03-.6 11.56-.58.03.6-.95.03c-.63.04-1.13.17-1.5.42-.27.16-.47.43-.62.8-.1.26-.12.93-.07 2.02l.7 13.8c.06 1.1.16 1.82.3 2.12.15.28.4.5.8.62.26.1.9.1 1.93.05l1.8-.1c1.15-.05 2.1-.3 2.84-.75.75-.44 1.38-1.1 1.9-2.02.5-.9.97-2.2 1.4-3.94l.64-.04m21.05-3.65l-7.35 2.2-.26 2.28c-.1.76-.07 1.36.06 1.8.18.58.54.94 1.1 1.08.32.08 1.04 0 2.14-.25l.17.57-6.92 2.07-.17-.57c.72-.34 1.24-.83 1.57-1.47.33-.65.6-1.88.84-3.67l2.5-18.8.3-.1 12.57 14.82c1.2 1.4 2.1 2.24 2.68 2.52.44.22 1 .25 1.64.1l.15.58-10.05 3-.17-.56.4-.12c.82-.25 1.35-.53 1.6-.85.2-.24.23-.5.14-.82-.06-.18-.14-.36-.26-.54-.04-.08-.3-.42-.8-1l-1.87-2.27m-.86-.98l-5.24-6.24-1.05 8.1 6.3-1.87m27.7-28.26l2.8 5.17-.5.28c-.96-1.03-1.75-1.7-2.4-2.02-.64-.33-1.37-.48-2.18-.45-.44.04-1.1.3-2 .77l-1.43.76 7.93 14.74c.52.98.9 1.56 1.14 1.75.24.2.57.3.98.3.4.02.9-.13 1.44-.42l.63-.34.27.52-10 5.38-.28-.52.62-.34c.56-.3.95-.64 1.18-1.02.17-.26.25-.6.2-1 0-.27-.27-.9-.78-1.84L522 411.9l-1.4.74c-1.28.7-2.07 1.46-2.36 2.32-.4 1.2-.34 2.57.2 4.1l-.53.28-2.77-5.17 17.16-9.23m13-7.72l5.32 7.05.35-.26c1.1-.8 1.63-1.76 1.6-2.82s-.47-2.32-1.35-3.77l.5-.35 6.83 9.06-.5.38c-.84-.9-1.66-1.56-2.47-1.93-.8-.4-1.5-.53-2.1-.4-.6.1-1.3.46-2.13 1.08l3.68 4.88c.72.97 1.2 1.52 1.43 1.67.25.15.53.2.86.18.32-.03.73-.23 1.23-.6l1.03-.78c1.62-1.22 2.63-2.58 3.04-4.06.4-1.48.25-3.15-.48-5l.47-.36 3.4 6.1-14.98 11.3-.36-.48.57-.44c.5-.38.84-.77 1.02-1.18.13-.3.14-.62.04-1-.07-.28-.42-.85-1.08-1.72l-8.6-11.4c-.6-.77-.97-1.24-1.15-1.38-.3-.24-.64-.35-1-.34-.5 0-1.03.22-1.6.65l-.56.43-.35-.47 14.5-10.93 3.86 5.12-.47.36c-1.2-1.07-2.22-1.7-3.08-1.9-.86-.22-1.8-.14-2.8.22-.6.2-1.54.8-2.86 1.8l-1.8 1.34"/><path d="M362.92 403.17c70.9 57.52 140.4 58.57 208.4 0" fill="none"/></g></g></svg>