<svg xmlns="http://www.w3.org/2000/svg" height="480" width="640" version="1"><defs><clipPath id="a"><path fill-opacity=".67" d="M-71.87 0H610.8v512H-71.86z"/></clipPath></defs><g clip-path="url(#a)" transform="matrix(.9 0 0 .9 67.4 0)"><g fill-rule="evenodd" stroke-width="1pt"><path d="M-71.88 407.84v-303.4l225.83 151.6-225.83 151.8z"/><path d="M82.22 512.12l253.54-170.64h360.37v170.64H82.23z" fill="#00c"/><path d="M65.92.06h630.2v170.7H335.7S69.3-1.65 65.93.05z" fill="red"/><path d="M-71.88 64.07v40.33l225.83 151.63-225.83 151.8v40.32l284.44-192.12L-71.88 64.07z" fill="#fc0"/><path d="M-71.88 64.07v-64h94.9l301.3 203.87H696.1V308.2H324.33L23 512.05h-94.88v-63.9l284.44-192.12L-71.88 64.07z" fill="#093"/><path d="M23 .06h59.2l253.54 170.67h360.38v33.2H324.34L23.04.07zM23 512.12h59.2l253.54-170.64h360.38v-33.2H324.34L23.04 512.1z" fill="#fff"/></g></g></svg>