<?xml version="1.0" encoding="UTF-8" standalone="no"?>
<svg width="144px" height="57px" viewBox="0 0 144 57" version="1.1" xmlns="http://www.w3.org/2000/svg" xmlns:xlink="http://www.w3.org/1999/xlink" xmlns:sketch="http://www.bohemiancoding.com/sketch/ns">
    <!-- Generator: Sketch 3.3.3 (12072) - http://www.bohemiancoding.com/sketch -->
    <title>Top Nav - Mobile - Default</title>
    <desc>Created with Sketch.</desc>
    <defs>
        <path id="path-1" d="M34.0954536,5.97345472 C33.6635169,5.95617725 33.2367634,5.98324528 32.843413,6.05408291 C33.2269728,8.95842554 34.310846,11.1100464 36.0668129,12.451354 C37.4766544,13.5271644 39.206705,14.069101 40.8808918,14.5931843 C41.6658648,14.8391002 42.4756022,15.0925031 43.2513606,15.4000421 L43.2565438,15.3925552 L44.6024587,15.9788373 L44.5863331,16.0018739 C44.9059663,16.1706172 45.1910445,16.342816 45.4496306,16.5248054 C45.5077981,16.5703027 45.5723007,16.6221351 45.6396828,16.6791507 L45.6540807,16.6584178 L46.6918807,17.6904586 L46.6803624,17.7077361 C47.413503,18.5566358 47.9865391,19.531085 48.3862245,20.6109269 L48.4069575,20.6051677 L48.6160149,21.3037534 C49.3871659,24.1533841 48.5313553,26.9310252 47.6450211,28.8044789 C47.9151255,29.2479339 48.151251,29.6666246 48.3597324,30.0703415 C50.0822961,26.8417583 50.5516674,23.7876776 49.7534483,20.9835443 L49.659574,20.5383615 C48.9794177,18.3740705 47.8442879,16.7396219 46.1948655,15.5699372 C46.1205724,15.516953 45.5135573,15.1523984 45.1040812,14.9105138 C44.0109933,14.3236557 42.7865967,13.9406718 41.6025141,13.5692062 C40.353353,13.1793113 39.0621502,12.7755945 37.8826749,12.1219302 C35.8116822,10.9741303 34.5055055,8.85130522 34.0954536,5.97345472"></path>
    </defs>
    <g id="Page-1" stroke="none" stroke-width="1" fill="none" fill-rule="evenodd" sketch:type="MSPage">
        <g id="Mobile---symbol-+-word-mark" sketch:type="MSArtboardGroup" transform="translate(-8.000000, -16.000000)">
            <g id="Top-Nav---Mobile---Default" sketch:type="MSLayerGroup">
                <rect id="nav-bar" sketch:type="MSShapeGroup" x="0" y="0" width="640" height="90"></rect>
                <g id="Logo" transform="translate(9.000000, 16.000000)">
                    <g id="Imported-Layers" transform="translate(0.000000, 2.000000)">
                        <path d="M37.9317429,10.4575916 C38.9908518,11.2229835 40.2924212,11.6232448 41.5507969,12.0108361 L41.5669225,12.0160193 C40.8136248,9.65418923 39.7003799,8.10555205 38.088392,7.16450588 C37.7146227,6.94623384 36.3416398,6.44749089 35.595829,6.21712463 C35.630384,6.41581553 35.6666667,6.6024122 35.7075567,6.77806647 C36.08075,8.42288157 36.8288644,9.66110022 37.9317429,10.4575916" id="Fill-1" fill="#FFFFFF" sketch:type="MSShapeGroup"></path>
                        <path d="M5.55388023,18.4124265 C5.61089588,18.818447 5.70880154,19.2181325 5.84932496,19.624153 C8.93968834,18.8207507 10.9801575,17.3654118 11.9154445,15.2932673 C12.5846585,13.8114364 12.8852865,12.3549457 13.2043437,10.8149472 C13.4750241,9.50301137 13.755495,8.14673002 14.2836097,6.79275232 C15.0219335,4.89914166 16.9437641,3.44207507 16.9633452,3.42767718 C18.1376372,2.56034821 20.3664308,1.53982567 22.7155907,1.62678894 C24.5418192,1.69186741 26.4786236,2.30348983 28.3255851,3.39830548 L29.691657,2.81547884 C25.9585717,0.227889823 21.983026,-0.276036371 18.1825586,1.31579449 C15.5897864,2.40139549 13.7359139,4.44013689 12.8213598,7.211443 C12.5167004,8.1352117 12.3260724,9.15688607 12.1417794,10.1445814 C11.7576436,12.2017521 11.3608377,14.3291845 9.91989678,15.9584499 C8.92644228,17.0809095 7.45843329,17.9056207 5.55388023,18.4124265" id="Fill-3" fill="#FFFFFF" sketch:type="MSShapeGroup"></path>
                        <path d="M22.253188,5.71976387 L22.253188,5.71976387 C22.3683712,5.71976387 22.4841302,5.71515655 22.6004652,5.70709373 C23.9797831,5.60112525 25.2427662,4.94976465 26.4648592,4.31971293 C26.5581575,4.27133601 26.650304,4.22353501 26.7430264,4.17573402 C24.0275841,2.83327463 21.1503096,2.73767264 18.8616208,3.9655248 C18.8581653,3.96725255 18.6047624,4.10489639 18.3553909,4.24772347 C18.4757573,4.33411082 18.5978514,4.41877042 18.7216733,4.50055044 C19.9466458,5.30971193 21.1347598,5.71976387 22.253188,5.71976387" id="Fill-5" fill="#FFFFFF" sketch:type="MSShapeGroup"></path>
                        <path d="M9.45173495,14.1577344 C10.0086454,13.1832852 10.4377025,11.2217165 10.6173882,10.3048587 C8.3937779,11.2004076 6.66891052,12.9028142 5.84419931,15.0365817 C5.6927335,15.4299321 5.57755036,16.3041721 5.52802162,16.9186741 C5.73765492,16.857627 5.93058666,16.796004 6.11142417,16.7326533 C7.66754826,16.1797743 8.79173561,15.3130212 9.45173495,14.1577344" id="Fill-7" fill="#FFFFFF" sketch:type="MSShapeGroup"></path>
                        <path d="M47.2267912,21.6896169 C46.9532312,20.7168954 46.4850118,19.7885193 45.8630229,18.9828133 C44.9162176,20.6120787 44.5735478,22.0639621 44.8160082,23.4116047 C45.0722907,24.8318127 45.8946983,26.0919161 46.6911896,27.3088259 L46.7084671,27.3358939 C46.9993045,26.6004497 47.2100896,25.8794033 47.3339115,25.1854249 C47.5475762,23.996735 47.5182045,22.8172597 47.2509796,21.7737006 L47.2267912,21.6896169 Z" id="Fill-9" fill="#FFFFFF" sketch:type="MSShapeGroup"></path>
                        <path d="M17.1590989,46.9629841 C17.554753,46.9583768 17.9717159,46.9071203 18.401349,46.8115183 C18.0137577,43.925605 16.9298845,41.7866543 15.1756454,40.4511059 C13.7940238,39.3994839 12.3830304,38.9600602 10.7485818,38.4492231 C9.79025817,38.1503228 8.79968325,37.8416321 7.6904697,37.3768681 C6.36471188,36.8228373 4.66057747,35.6675505 3.8410495,34.3371853 C3.45173052,33.7048299 2.76927047,32.4118993 2.54120787,31.6459315 C1.84838134,29.32096 2.15995171,26.7477689 3.46728024,23.9966198 C3.1971758,23.5531648 2.9616263,23.1344741 2.75372075,22.731909 C0.120058478,27.6853596 0.929219967,31.4138375 2.10178423,33.6944635 L2.20775271,33.9017931 C2.7923071,35.097394 3.64639001,36.1847227 4.61565605,36.9685439 C4.82298568,37.1516851 4.97905882,37.2806902 5.08733096,37.3665016 L5.25492242,37.4592241 C6.60141321,38.3593802 8.13738025,38.8483326 9.62266671,39.3211594 C10.7958069,39.6949286 12.0092612,40.081368 13.1392077,40.6653465 C15.3536033,41.8102668 16.7398323,43.9837725 17.1590989,46.9629841" id="Fill-11" fill="#FFFFFF" sketch:type="MSShapeGroup"></path>
                        <path d="M28.2435171,5.03586404 C27.9716849,5.17178013 27.6998527,5.31172764 27.4268687,5.4539788 C25.8079698,6.28963241 24.133783,7.15523363 22.2280781,7.16041687 C20.5757761,7.16041687 18.9050448,6.49753796 17.1254654,5.13549745 C16.8133192,5.42057569 16.5391833,5.72811465 16.2949951,6.06732897 C18.6435791,7.88895017 20.9627914,8.66701222 23.1760353,8.36811199 C24.8600126,8.14235306 26.3959797,7.33837481 27.8806902,6.56031277 C29.0371288,5.95617725 30.2333056,5.32958102 31.5141421,4.95984317 C32.5104761,4.67246126 33.3012083,4.53942475 34.0026736,4.53942475 C34.430003,4.53942475 34.7870707,4.585498 35.1769656,4.64251365 C36.0108915,4.76403185 37.9171723,5.42518302 38.7551295,5.88418779 C41.1221428,7.18057392 42.6057016,10.1459636 43.2259627,12.5475319 C43.7149151,12.7162752 44.1641293,12.8873221 44.5805163,13.0647041 C43.5622975,8.21319068 40.6879024,4.81298468 36.635184,3.69628424 C35.3681696,3.34727935 34.2572283,3.21136326 33.2159728,3.30178202 C33.1762346,3.30811709 32.4563401,3.42560388 32.2202146,3.4814677 C32.0871781,3.51314306 31.8706338,3.58110111 31.6823094,3.63869267 L31.4162364,3.71989678 C30.5160802,3.98136248 29.5992225,4.35225216 28.6132549,4.85387469 L28.2481244,5.03874362 L28.2435171,5.03586404 Z" id="Fill-14" fill="#FFFFFF" sketch:type="MSShapeGroup"></path>
                        <g id="Fill-16">
                            <use fill="#FFFFFF" fill-rule="evenodd" sketch:type="MSShapeGroup" xlink:href="#path-1"></use>
                            <use fill="none" xlink:href="#path-1"></use>
                        </g>
                        <path d="M28.2744437,47.2200153 C26.9026127,47.3697534 25.630415,48.0389673 24.3996832,48.6862965 L24.3184791,48.7289143 C25.7346557,49.4286518 27.2147589,49.796086 28.628056,49.796086 C30.1012482,49.796086 31.4650164,49.4084948 32.6865335,48.6436788 C32.5500415,48.5451972 32.4118218,48.4495952 32.2701465,48.3580246 C30.9000432,47.4665072 29.5817723,47.0777641 28.2744437,47.2200153" id="Fill-19" fill="#FFFFFF" sketch:type="MSShapeGroup"></path>
                        <path d="M41.6205978,38.7364898 C40.957143,39.8917766 40.6997087,41.2555448 40.4537927,42.5755435 C41.9511734,41.8867484 43.7578208,40.7032417 44.7846784,38.7664374 L44.8094428,38.7128773 C45.04672,38.2682704 45.4487092,36.8244498 45.5679237,35.983613 C45.3686569,36.0406286 45.1388666,36.1097385 44.9850971,36.1638746 C43.4180306,36.713874 42.2857804,37.5794753 41.6205978,38.7364898" id="Fill-21" fill="#FFFFFF" sketch:type="MSShapeGroup"></path>
                        <path d="M5.44336202,24.4629387 C6.13273305,25.4909482 6.84629254,26.5535125 7.30760098,27.7387469 C8.16974671,29.9519908 7.812679,32.4295799 6.27671196,34.9163837 C6.36540297,34.9952841 6.45582173,35.071305 6.54969598,35.1444463 L6.63953882,35.2152839 C6.82843916,35.3477445 7.04901485,35.4802051 7.31451197,35.6207285 C8.80325392,33.2542911 9.36477168,31.0145552 8.98236369,28.9631436 C8.63566247,27.1040879 7.59095148,25.4938277 6.58137134,23.9359759 C5.99163372,23.0266051 5.38116313,22.0855589 4.9054568,21.0944081 C4.87205369,21.0224186 4.11990785,19.3971847 4.0772901,18.4066097 C3.87802328,13.7676092 6.19262828,10.4762512 10.9583303,8.62468242 L11.3407383,7.19929118 C7.90137001,8.26415922 5.48828344,10.061016 4.16425336,12.5460921 C2.07828687,16.4617426 3.44205513,20.7344608 3.50137444,20.9147224 C3.92179287,22.1949829 4.69524759,23.347966 5.44336202,24.4629387" id="Fill-23" fill="#FFFFFF" sketch:type="MSShapeGroup"></path>
                        <path d="M45.7836041,28.7563899 C45.1293639,27.6886423 44.453239,26.5840361 43.9251243,25.3573357 C42.9299421,23.0427307 43.2449679,20.4632045 44.835647,17.8854061 C44.7555947,17.8145685 44.6743906,17.7454586 44.5908828,17.6792283 C44.3685794,17.5248829 44.1053859,17.3699616 43.7822972,17.2075534 C42.2843406,19.5981792 41.7349171,21.8598 42.1490005,23.9348241 C42.5124032,25.7547175 43.4926117,27.2636165 44.5304117,28.8606306 C45.0988404,29.7348706 45.6845466,30.6373304 46.153342,31.5887431 L46.1625566,31.5864394 L46.4113522,32.1272242 L46.7557497,32.9283229 L46.7206189,32.9358098 C46.924493,33.5992646 47.0903567,34.7677975 47.0558018,35.0551794 L47.0771107,35.6092102 L47.0396762,35.617849 C47.0149118,36.1609374 46.9354354,36.7115128 46.8012471,37.2580567 C46.6538127,37.8587368 46.1556456,39.2282642 46.1337608,39.2864316 C44.7285267,42.0508268 42.1155973,43.5234431 40.1131386,44.2859554 C40.0019869,44.7916094 39.8827724,45.2552215 39.7531913,45.6906137 C45.2842853,43.872448 47.2481576,40.4215614 47.9173716,37.8069043 C47.9173716,37.8069043 47.9185234,37.8063284 47.9185234,37.8057525 L47.9208271,37.795386 C48.0751725,37.180884 48.1730782,36.6631359 48.2203032,36.2265918 C48.2214551,36.2121939 48.3890465,34.019683 47.9444396,32.8620926 C47.3483669,31.3117276 46.5530274,30.0130378 45.7836041,28.7563899" id="Fill-25" fill="#FFFFFF" sketch:type="MSShapeGroup"></path>
                        <path d="M45.5687876,34.4790333 C45.5440232,34.2509708 45.5100442,34.0465207 45.4680023,33.8581963 C45.4259605,33.6733274 45.3700967,33.4792438 45.2958036,33.2603958 C42.2699427,34.0344265 40.1908872,35.5214407 39.1145009,37.683428 C38.4418314,39.0345261 38.1924599,40.401174 37.9298424,41.84845 C37.6499474,43.391904 37.3608377,44.9866144 36.5343988,46.7011153 C36.1629332,47.4734182 35.2598974,48.6494379 34.3902648,49.2806415 C34.3631968,49.3007985 31.548697,51.2865557 28.6771816,51.2865557 L28.6086476,51.2865557 C26.6436234,51.264095 24.7287039,50.6876034 22.761376,49.5225261 C22.3046749,49.7431017 21.8514293,49.9417926 21.4068224,50.1151433 C24.9861382,52.458544 28.9254012,53.0384911 32.4678584,51.7040945 C33.7078048,51.2376029 35.7119912,49.8294891 36.71754,48.4801187 C37.720785,47.1347798 38.3779048,45.5878703 38.7850771,43.6130556 C38.8599462,43.2496528 38.9256006,42.8914333 38.9929827,42.5326378 C39.2947625,40.9079798 39.6074847,39.2274579 40.5168555,37.7870928 C41.5114618,36.2096599 43.2098371,35.0975668 45.5687876,34.4790333" id="Fill-27" fill="#FFFFFF" sketch:type="MSShapeGroup"></path>
                        <path d="M4.41558295,25.4820215 L4.40348872,25.4641681 C3.63694499,27.3888782 3.44689282,29.1546356 3.82066208,30.8484035 C3.98422213,31.5919106 4.76170825,33.1370923 5.23683867,33.8132173 C5.46835676,33.3933748 5.83636686,32.6999723 5.99474366,32.2640042 C6.43935054,31.0396075 6.47851281,29.8284569 6.11223045,28.6651073 C5.753435,27.5253702 5.07327862,26.4864184 4.41558295,25.4820215" id="Fill-29" fill="#FFFFFF" sketch:type="MSShapeGroup"></path>
                        <path d="M13.3248253,42.4546588 C12.2645646,41.6858114 10.9589638,41.2832464 9.69482894,40.8950792 C10.2534671,42.5744493 11.333309,44.6344996 13.4008462,45.8594722 L13.4509508,45.8825088 C14.1299554,46.2643409 14.7582793,46.5263825 15.388907,46.6916703 L15.5086974,46.7233456 C15.5605298,46.7371676 15.6135141,46.7486859 15.6659224,46.7613561 C15.6302156,46.5425081 15.5910534,46.3403617 15.5484356,46.1514614 C15.1763941,44.4991594 14.4282797,43.2557575 13.3248253,42.4546588" id="Fill-31" fill="#FFFFFF" sketch:type="MSShapeGroup"></path>
                        <path d="M28.6276528,45.7521215 C30.3553998,45.6951058 32.0750839,46.3522256 33.918014,47.7568839 L33.9208936,47.7551561 L33.9456579,47.7753132 C34.2468618,47.4982977 34.5215736,47.1861514 34.7692173,46.8429057 C32.3999003,45.0057348 30.0541959,44.2288246 27.8173395,44.5524892 C25.8108494,44.8410229 23.3845167,46.0999745 21.6124243,47.0202877 C20.8072942,47.4384025 20.1709074,47.7678263 19.7499131,47.9164125 C18.9706992,48.1899724 18.1264068,48.3299199 17.2389208,48.3299199 C15.6822208,48.3299199 14.0454685,47.8985591 12.7485065,47.1452614 C10.4926449,45.8362052 8.82076176,43.4311814 8.02945366,40.361551 C7.53474211,40.19108 7.08264833,40.0188812 6.66280582,39.8391955 C7.47139139,43.7911287 9.31489739,46.6010211 12.1489783,48.1968834 L12.1789259,48.2170405 L12.2301824,48.2435326 C13.6031653,49.0048931 15.1978758,49.4702329 16.841539,49.5877197 C16.9970362,49.5980862 17.8177161,49.5785051 18.4293385,49.4742643 C19.6980807,49.25772 21.020383,48.7952598 22.4722663,48.0598155 L22.6104861,47.9895538 C22.9036272,47.8409675 23.1961923,47.6860462 23.4910611,47.5317008 C25.0949862,46.6874085 26.7536233,45.8131685 28.6276528,45.7521215" id="Fill-33" fill="#FFFFFF" sketch:type="MSShapeGroup"></path>
                    </g>
                    <path d="M78.548,42 L85.562,42 L76.742,29.358 L84.68,22.008 L77.666,22.008 L70.736,28.392 L70.736,12.6 L64.688,12.6 L64.688,42 L70.736,42 L70.736,34.608 L72.458,33.054 L78.548,42 Z M87.83,15.582 C87.83,17.514 89.174,19.068 91.442,19.068 C93.71,19.068 95.054,17.514 95.054,15.582 C95.054,13.44 93.584,12.012 91.442,12.012 C89.3,12.012 87.83,13.44 87.83,15.582 L87.83,15.582 Z M88.418,42 L94.466,42 L94.466,22.008 L88.418,22.008 L88.418,42 Z M104.546,42 L111.518,42 L118.49,22.008 L112.484,22.008 C112.484,22.008 109.208,32.886 108.242,36.33 L108.158,36.33 C107.192,32.886 103.874,22.008 103.874,22.008 L97.49,22.008 L104.546,42 Z M141.044,22.008 L135.206,22.008 L135.206,24.738 C134.198,22.638 131.846,21.42 129.116,21.42 C124.16,21.42 120.254,25.494 120.254,32.004 C120.254,38.556 124.034,42.588 128.822,42.588 C132.182,42.588 134.198,40.908 135.206,39.102 L135.206,42 L141.044,42 L141.044,22.008 Z M135.038,32.508 C135.038,36.204 132.77,37.926 130.502,37.926 C128.024,37.926 126.428,35.406 126.428,32.004 C126.428,28.644 128.108,26.082 130.712,26.082 C132.854,26.082 135.038,27.846 135.038,31.5 L135.038,32.508 Z" id="kiva" fill="#FFFFFF" sketch:type="MSShapeGroup"></path>
                </g>
            </g>
        </g>
    </g>
</svg>