<svg width="80" height="33" viewBox="0 0 80 33" xmlns="http://www.w3.org/2000/svg"><title>Kiva logo</title><path d="M15.55 31h7l-8.8-12.64L21.67 11h-7l-6.94 6.4V1.6H1.7V31h6.04v-7.4l1.72-1.55 6.1 8.95zm9.28-26.42c0 1.93 1.34 3.5 3.6 3.5 2.28 0 3.62-1.57 3.62-3.5 0-2.14-1.47-3.57-3.6-3.57-2.15 0-3.62 1.44-3.62 3.58zm.6 26.42h6.04V11h-6.05v20zm16.12 0h6.97l6.97-20h-6.02s-3.27 10.9-4.24 14.33h-.08C44.2 21.9 40.86 11 40.86 11H34.5l7.05 20zm36.5-20H72.2v2.74c-1-2.1-3.35-3.32-6.08-3.32-4.96 0-8.87 4.07-8.87 10.58 0 6.56 3.78 10.6 8.57 10.6 3.36 0 5.38-1.7 6.4-3.5V31h5.82V11zm-6 10.5c0 3.7-2.28 5.43-4.55 5.43-2.48 0-4.07-2.52-4.07-5.93 0-3.36 1.68-5.92 4.28-5.92 2.15 0 4.34 1.77 4.34 5.42v1z" fill="#FFF" fill-rule="evenodd"/></svg>