<svg width="100" height="38" viewBox="0 0 100 38" xmlns="http://www.w3.org/2000/svg"><title>Kiva logo</title><g fill="#FFF" fill-rule="evenodd"><path d="M26.1 8.1c.7.52 1.6.8 2.44 1.06-.5-1.6-1.25-2.65-2.35-3.3-.26-.14-1.2-.48-1.7-.64l.07.38c.26 1.12.77 1.96 1.52 2.5"/><path d="M4.1 13.5c.03.28.1.55.2.83 2.1-.55 3.48-1.53 4.1-2.94.47-1.02.67-2 .9-3.05.17-.9.36-1.82.72-2.74.5-1.27 1.8-2.26 1.82-2.27.8-.6 2.3-1.28 3.9-1.23 1.25.05 2.57.46 3.82 1.2l.93-.4c-2.55-1.75-5.25-2.1-7.83-1-1.76.73-3.02 2.12-3.64 4-.2.63-.34 1.32-.46 2-.26 1.4-.53 2.83-1.5 3.94-.7.76-1.68 1.32-2.98 1.67" stroke="#FFF" stroke-width=".5"/><path d="M15.44 4.9l.23-.02c.94-.08 1.8-.52 2.63-.95l.2-.1c-1.86-.9-3.8-.97-5.37-.14l-.34.2.24.16c.83.55 1.64.83 2.4.83M6.74 10.62c.38-.67.67-2 .8-2.62-1.52.6-2.7 1.76-3.25 3.2-.1.28-.2.87-.22 1.3.14-.05.27-.1.4-.13 1.05-.38 1.8-.97 2.26-1.75M32.4 15.73c-.2-.66-.5-1.3-.93-1.84-.64 1.1-.87 2.1-.7 3 .17.97.72 1.82 1.27 2.65v.02c.2-.5.35-1 .43-1.46.15-.8.13-1.6-.05-2.3l-.02-.07z"/><path d="M11.98 32.9c.26 0 .55-.04.84-.1-.26-1.96-1-3.42-2.2-4.32-.93-.72-1.9-1.02-3-1.36-.65-.2-1.32-.42-2.08-.73-.9-.4-2.05-1.17-2.6-2.08-.27-.43-.74-1.3-.9-1.82-.46-1.58-.25-3.33.64-5.2-.2-.3-.35-.6-.5-.86C.4 19.8.96 22.34 1.76 23.9l.07.13c.4.8.98 1.55 1.64 2.08.14.14.24.22.32.28l.1.06c.92.62 1.97.95 2.98 1.27.8.26 1.62.53 2.4.92 1.5.78 2.43 2.26 2.72 4.28M19.5 4.42c-.18.1-.36.2-.55.28-1.1.57-2.24 1.16-3.53 1.16-1.12 0-2.26-.45-3.47-1.37-.2.18-.4.4-.56.62 1.58 1.24 3.16 1.77 4.66 1.56 1.15-.15 2.2-.7 3.2-1.22.78-.4 1.6-.84 2.47-1.1.67-.2 1.2-.28 1.7-.28.28 0 .52.03.78.07.58.1 1.88.54 2.44.85 1.6.88 2.62 2.9 3.04 4.52.33.12.64.23.92.35-.7-3.3-2.64-5.6-5.4-6.36-.86-.23-1.6-.32-2.32-.26-.02 0-.5.1-.67.12l-.36.1-.18.07c-.6.17-1.23.43-1.9.77l-.25.12z" stroke="#FFF" stroke-width=".5"/><path d="M23.48 5.06c-.3 0-.58 0-.85.05.26 1.98 1 3.45 2.2 4.36.95.73 2.12 1.1 3.26 1.45.52.18 1.07.35 1.6.56l.92.4c.2.12.4.24.57.36.03.04.08.07.12.1l.72.7c.5.58.88 1.25 1.15 1.98l.14.47c.53 1.94-.05 3.82-.66 5.1.2.3.35.58.5.86 1.16-2.2 1.48-4.27.94-6.18l-.07-.3c-.46-1.47-1.23-2.58-2.35-3.37-.05-.04-.46-.3-.74-.45-.74-.4-1.58-.66-2.38-.9-.85-.28-1.73-.55-2.53-1-1.4-.78-2.3-2.22-2.57-4.17" stroke="#FFF" stroke-width=".5"/><path d="M19.53 33.07c-.94.1-1.8.56-2.64 1l-.06.03c.96.47 1.97.72 2.93.72 1 0 1.92-.26 2.75-.78l-.28-.2c-.93-.6-1.83-.86-2.7-.77M28.6 27.3c-.46.8-.63 1.72-.8 2.62 1.02-.47 2.24-1.27 2.94-2.6l.02-.02c.16-.3.43-1.3.5-1.86-.12.04-.28.1-.38.12-1.07.38-1.84.97-2.3 1.75"/><path d="M4.02 17.62c.47.7.95 1.42 1.26 2.22.6 1.5.35 3.2-.7 4.88l.2.15.05.05c.13.1.28.18.46.28 1-1.6 1.38-3.13 1.12-4.53-.23-1.26-.94-2.35-1.63-3.4-.4-.63-.82-1.27-1.15-1.94-.02-.05-.53-1.15-.56-1.83-.15-3.15 1.43-5.38 4.66-6.64l.26-.97C5.7 6.6 4.05 7.82 3.15 9.5c-1.42 2.66-.5 5.56-.45 5.7.28.86.8 1.64 1.32 2.4M31.42 20.53c-.45-.72-.9-1.47-1.26-2.3-.68-1.58-.47-3.33.62-5.08-.06-.05-.1-.1-.17-.14-.14-.1-.32-.2-.54-.3-1.02 1.6-1.4 3.15-1.1 4.56.24 1.23.9 2.26 1.6 3.34.4.6.8 1.2 1.1 1.86h.02l.17.36.23.55h-.02c.13.45.25 1.25.22 1.44l.02.4h-.03c0 .36-.07.74-.16 1.1-.1.42-.43 1.35-.44 1.4-.96 1.86-2.73 2.86-4.1 3.38-.07.34-.15.66-.24.96 3.76-1.24 5.1-3.58 5.55-5.36.1-.43.17-.78.2-1.07 0 0 .12-1.5-.18-2.28-.42-1.05-.96-1.93-1.48-2.8" stroke="#FFF" stroke-width=".5"/><path d="M31.27 24.42c0-.16-.04-.3-.07-.42-.02-.13-.06-.26-.1-.4-2.07.52-3.48 1.53-4.2 3-.47.9-.64 1.84-.82 2.83-.2 1.04-.38 2.13-.94 3.3-.26.52-.87 1.3-1.46 1.74-.02.02-1.93 1.37-3.88 1.37h-.05c-1.33-.02-2.63-.4-3.97-1.2-.3.15-.62.28-.92.4 2.43 1.6 5.1 2 7.5 1.08.86-.32 2.22-1.27 2.9-2.2.68-.9 1.13-1.95 1.4-3.3.06-.24.1-.5.15-.73.2-1.1.42-2.25 1.04-3.23.68-1.07 1.83-1.83 3.43-2.25" stroke="#FFF" stroke-width=".5"/><path d="M3.32 18.3c-.53 1.3-.66 2.5-.4 3.65.1.5.64 1.56.96 2.02.16-.3.4-.76.5-1.05.3-.84.34-1.66.1-2.45-.25-.77-.7-1.48-1.16-2.16M9.37 29.84c-.72-.53-1.6-.8-2.46-1.06.4 1.14 1.12 2.54 2.52 3.37l.04.02c.46.25.9.43 1.3.55l.1.02c.03 0 .07 0 .1.02l-.08-.4c-.25-1.13-.76-1.98-1.5-2.52"/><path d="M19.77 32.08c1.17-.04 2.34.4 3.6 1.36.2-.18.4-.4.57-.62-1.6-1.25-3.2-1.78-4.72-1.56-1.37.2-3.02 1.05-4.22 1.68-.55.28-.98.5-1.26.6-.53.2-1.1.3-1.7.3-1.07 0-2.18-.3-3.06-.82-1.53-.9-2.67-2.52-3.2-4.6-.34-.12-.65-.24-.93-.36.55 2.68 1.8 4.6 3.72 5.68h.02l.03.03c.93.52 2 .83 3.13.9.1.02.66 0 1.08-.06.86-.14 1.76-.46 2.74-.96l.1-.04.6-.3c1.1-.6 2.2-1.18 3.5-1.22" stroke="#FFF" stroke-width=".5"/><path d="M57.03 27h4.68l-5.87-8.43 5.3-4.9h-4.7l-4.6 4.26V7.4h-4.04V27h4.02v-4.93l1.15-1.03L57.03 27zm6.2-17.6c0 1.28.9 2.3 2.4 2.3s2.4-1.02 2.4-2.3c0-1.44-.97-2.4-2.4-2.4s-2.4.96-2.4 2.4zM63.6 27h4.04V13.67H63.6V27zm10.76 0H79l4.66-13.33h-4s-2.2 7.25-2.83 9.55h-.06c-.64-2.3-2.85-9.55-2.85-9.55h-4.26L74.36 27zM98.7 13.67h-3.9v1.82c-.67-1.4-2.24-2.22-4.06-2.22-3.3 0-5.9 2.72-5.9 7.06 0 4.36 2.52 7.05 5.7 7.05 2.25 0 3.6-1.13 4.26-2.33V27h3.9V13.67zm-4 7c0 2.47-1.52 3.6-3.03 3.6-1.65 0-2.72-1.67-2.72-3.93 0-2.24 1.12-3.95 2.86-3.95 1.44 0 2.9 1.16 2.9 3.6v.67z"/></g></svg>