<?xml version="1.0" encoding="UTF-8" standalone="no"?>
<svg width="100px" height="38px" viewBox="0 0 100 38" version="1.1" xmlns="http://www.w3.org/2000/svg" xmlns:xlink="http://www.w3.org/1999/xlink" xmlns:sketch="http://www.bohemiancoding.com/sketch/ns">
    <!-- Generator: Sketch 3.3.3 (12072) - http://www.bohemiancoding.com/sketch -->
    <title>Kiva logo</title>
    <desc>Created with Sketch.</desc>
    <defs></defs>
    <g id="Page-1" stroke="none" stroke-width="1" fill="none" fill-rule="evenodd" sketch:type="MSPage">
        <g id="Desktop---symbol-+-word-mark-horizontal" sketch:type="MSArtboardGroup" transform="translate(-29.000000, -13.000000)" fill="#FFFFFF">
            <g id="Top-Nav---Desktop---Default" sketch:type="MSLayerGroup" transform="translate(-116.000000, 0.000000)">
                <g id="Logo-Copy" transform="translate(132.000000, 6.000000)" sketch:type="MSShapeGroup">
                    <g id="Imported-Layers" transform="translate(13.000000, 8.000000)">
                        <path d="M26.0857122,7.10326974 C26.8051069,7.62315858 27.6891917,7.89503423 28.5439375,8.15830375 L28.5548908,8.16182444 C28.0432169,6.5575625 27.2870505,5.505658 26.1921153,4.86645682 C25.9382343,4.71819657 25.0056421,4.37942777 24.4990537,4.22295258 C24.522525,4.35791244 24.5471698,4.48465734 24.5749442,4.60396968 C24.828434,5.72120258 25.3365872,6.56225675 26.0857122,7.10326974" id="Fill-1"></path>
                        <path d="M4.09320167,12.5065538 C4.13192928,12.7823414 4.19843124,13.0538258 4.29388111,13.3296134 C6.39299585,12.7839061 7.7789749,11.7953741 8.41426419,10.3878797 C8.86882464,9.381353 9.07302477,8.39203857 9.28974291,7.34600189 C9.47360127,6.45487565 9.66410982,5.53362794 10.0228292,4.61394497 C10.5243322,3.32771887 11.8297265,2.33801325 11.8430269,2.32823355 C12.6406592,1.73910444 14.1545567,1.04591933 15.7502126,1.10498871 C16.9906697,1.14919296 18.3062349,1.5646346 19.5607748,2.30828297 L20.4886727,1.91240072 C17.9529921,0.154793087 15.2526214,-0.187496403 12.6711719,0.893747199 C10.9100436,1.63113656 9.65080943,3.01594204 9.0296029,4.89833864 C8.82266445,5.52580418 8.69318123,6.21977167 8.56800107,6.89065907 C8.30707868,8.28798257 8.03755016,9.733031 7.05879781,10.8397018 C6.38399853,11.6021272 5.38686035,12.1623084 4.09320167,12.5065538" id="Fill-3" stroke="#FFFFFF" stroke-width="0.5"></path>
                        <path d="M15.4361277,3.88512263 L15.4361277,3.88512263 C15.5143653,3.88512263 15.5929941,3.88199313 15.6720141,3.8765165 C16.6089093,3.80453791 17.4667846,3.36210429 18.2968855,2.93414463 C18.3602579,2.90128484 18.422848,2.86881624 18.4858293,2.83634763 C16.6413779,1.92448843 14.6870027,1.85955122 13.1324216,2.69356402 C13.1300745,2.69473758 12.9579518,2.78823151 12.7885674,2.88524613 C12.8703257,2.94392433 12.9532575,3.00142896 13.037363,3.05697766 C13.8694198,3.60659678 14.6764406,3.88512263 15.4361277,3.88512263" id="Fill-5"></path>
                        <path d="M6.7408011,9.61657433 C7.11907988,8.95468426 7.41051493,7.62229797 7.53256559,6.99952669 C6.02218876,7.60782401 4.85058073,8.76417571 4.29039953,10.2135272 C4.18751709,10.4807086 4.10927949,11.074532 4.07563733,11.4919296 C4.21802975,11.4504636 4.34907773,11.4086065 4.47191076,11.3655758 C5.52890071,10.9900354 6.29249966,10.4012974 6.7408011,9.61657433" id="Fill-7"></path>
                        <path d="M32.3993298,14.73257 C32.2135155,14.0718535 31.8954797,13.4412584 31.4729967,12.8939864 C30.8298836,14.0006572 30.5971268,14.9868422 30.7618169,15.9022221 C30.9358956,16.8668916 31.494512,17.722811 32.035525,18.5493912 L32.0472606,18.567777 C32.2448106,18.06823 32.3879854,17.5784626 32.4720908,17.1070811 C32.6172215,16.2996691 32.597271,15.4985161 32.4157597,14.7896834 L32.3993298,14.73257 Z" id="Fill-9"></path>
                        <path d="M11.9759917,31.8993854 C12.2447379,31.8962559 12.527958,31.8614402 12.8197842,31.796503 C12.5565147,29.83626 11.8202989,28.3833878 10.6287403,27.4762229 C9.69028029,26.7619136 8.73186972,26.4634372 7.62167821,26.1164534 C6.9707414,25.9134268 6.29789805,25.7037501 5.54446999,25.3880614 C4.64395524,25.0117385 3.48642998,24.2270154 2.92976947,23.3233712 C2.66532639,22.8938468 2.20176862,22.0156297 2.04685818,21.4953497 C1.57625903,19.9161238 1.78789173,18.1682958 2.67588846,16.2995908 C2.4924213,15.9983761 2.33242541,15.7139824 2.19120655,15.440542 C0.402303872,18.8051499 0.951922996,21.3377009 1.74838174,22.8868054 L1.82036033,23.027633 C2.21741614,23.8397393 2.79754793,24.5783022 3.45591731,25.1107091 C3.59674499,25.2351069 3.70275693,25.322733 3.77630028,25.38102 L3.89013598,25.4440013 C4.8047335,26.0554281 5.84803187,26.3875467 6.85690569,26.708712 C7.65375562,26.962593 8.47798872,27.2250802 9.24549955,27.6217448 C10.7496174,28.3994265 11.6912069,29.87577 11.9759917,31.8993854" id="Fill-11" stroke="#FFFFFF" stroke-width="0.5"></path>
                        <path d="M19.5050305,3.42058689 C19.3203897,3.51290726 19.135749,3.60796594 18.9503259,3.70458937 C17.8506965,4.27220315 16.713513,4.86015869 15.4190719,4.86367939 C14.2967536,4.86367939 13.1619172,4.41342201 11.9531463,3.48826242 C11.7411224,3.68190047 11.554917,3.89079486 11.3890533,4.12120458 C12.9843179,5.35853219 14.5596319,5.88702717 16.0629673,5.6840006 C17.206801,5.53065491 18.2500994,4.98455647 19.258582,4.4560615 C20.0440875,4.0457053 20.856585,3.62009277 21.7265871,3.36895008 C22.4033423,3.17374727 22.9404434,3.08338285 23.4169104,3.08338285 C23.7071718,3.08338285 23.9497084,3.11467789 24.2145427,3.1534055 C24.7809829,3.23594616 26.0758151,3.68502998 26.6449936,3.9968068 C28.2527763,4.87737097 29.2604765,6.89159792 29.681786,8.52285184 C30.0139046,8.63746992 30.3190312,8.75365275 30.6018601,8.87413865 C29.9102398,5.57877103 27.9578205,3.26919714 25.2050307,2.51068363 C24.3444171,2.27362371 23.5898154,2.18130335 22.8825476,2.24271986 C22.8555556,2.24702293 22.3665706,2.32682528 22.2061835,2.36477051 C22.1158191,2.38628585 21.9687324,2.43244603 21.8408139,2.47156483 L21.6600851,2.52672234 C21.0486583,2.70432169 20.425887,2.95624675 19.7561732,3.29697149 L19.50816,3.42254283 L19.5050305,3.42058689 Z" id="Fill-14" stroke="#FFFFFF" stroke-width="0.5"></path>
                        <path d="M23.4799307,4.05744094 C23.1865397,4.0457053 22.8966694,4.06409114 22.6294881,4.11220726 C22.8900193,6.08496829 23.626235,7.54644662 24.8189672,8.45752344 C25.7765954,9.1882626 26.9517241,9.5563705 28.0889076,9.91235157 C28.6220969,10.0793888 29.1721072,10.2515116 29.6990374,10.4604059 L29.7025581,10.4553205 L30.6167644,10.8535499 L30.6058111,10.8691974 C30.8229205,10.9838155 31.0165585,11.1007807 31.1922019,11.2243961 C31.2317119,11.2552999 31.275525,11.2905069 31.321294,11.3292345 L31.3310737,11.3151517 L32.0359944,12.0161606 L32.0281707,12.0278962 C32.526153,12.6045073 32.915385,13.2663974 33.1868695,13.9998749 L33.2009523,13.995963 L33.3429535,14.470474 C33.8667542,16.4060722 33.2854489,18.2927719 32.6834106,19.5653064 C32.8668777,19.8665211 33.0272648,20.1509148 33.1688749,20.4251376 C34.3389181,18.2321377 34.6577363,16.1576678 34.1155498,14.2529735 L34.0517861,13.9505852 C33.5897931,12.4805007 32.8187616,11.3703092 31.6983992,10.5758064 C31.647936,10.5398171 31.2356238,10.2921951 30.9574891,10.1278962 C30.2150143,9.72927559 29.3833487,9.46913558 28.5790662,9.21681933 C27.7305794,8.95198506 26.853536,8.67776228 26.052383,8.23376391 C24.6456709,7.45412625 23.7584566,6.01220732 23.4799307,4.05744094" id="Fill-16" stroke="#FFFFFF" stroke-width="0.5"></path>
                        <path d="M19.5260373,32.0739726 C18.5942275,32.1756815 17.7300932,32.630242 16.8941245,33.0699373 L16.838967,33.0988852 C17.8008982,33.5741786 18.8062514,33.8237565 19.7662267,33.8237565 C20.7668856,33.8237565 21.6932187,33.560487 22.5229284,33.0409894 C22.4302169,32.9740962 22.3363318,32.909159 22.2400995,32.8469601 C21.3094633,32.2414011 20.414034,31.9773492 19.5260373,32.0739726" id="Fill-19"></path>
                        <path d="M28.5913495,26.311578 C28.1407009,27.0963011 27.9658399,28.0226342 27.7988026,28.9192371 C28.8158914,28.4513763 30.0430481,27.647485 30.7405363,26.3319197 L30.7573574,26.2955393 C30.9185268,25.9935421 31.191576,25.0128338 31.272552,24.4416994 C31.1372009,24.480427 30.9811169,24.5273696 30.8766697,24.5641412 C29.8122472,24.9377258 29.0431716,25.5256813 28.5913495,26.311578" id="Fill-21"></path>
                        <path d="M4.01813269,16.6163357 C4.48638471,17.3146063 4.97106663,18.0363481 5.28440821,18.841413 C5.87001663,20.3447485 5.62748008,22.0276392 4.58418171,23.7167889 C4.64442466,23.7703817 4.70584118,23.8220185 4.76960482,23.8716994 L4.83063014,23.9198155 C4.95893981,24.0097887 5.10876481,24.099762 5.28910247,24.1952118 C6.30032342,22.5878204 6.68173171,21.0664903 6.42198288,19.6730787 C6.18648771,18.4103239 5.4768727,17.3165622 4.79112016,16.2583987 C4.39054366,15.6407129 3.97588439,15.0015117 3.65276311,14.3282772 C3.63007421,14.2793787 3.11918269,13.1754462 3.09023478,12.5026028 C2.95488374,9.35158359 4.52706827,7.11594423 7.76414887,5.85827485 L8.0238977,4.89008458 C5.68772303,5.61339117 4.04864535,6.83389769 3.14930417,8.52187387 C1.73242127,11.181561 2.65875443,14.0837847 2.69904679,14.2062265 C2.98461402,15.0758374 3.50997949,15.8589958 4.01813269,16.6163357" id="Fill-23" stroke="#FFFFFF" stroke-width="0.5"></path>
                        <path d="M31.4190519,19.5326422 C30.9746623,18.8073797 30.5154076,18.0570811 30.1566882,17.2238507 C29.4807154,15.6516662 29.6946952,13.8995352 30.7751564,12.1485777 C30.7207813,12.1004616 30.6656238,12.053519 30.6089015,12.0085324 C30.457903,11.903694 30.2791301,11.7984645 30.0596736,11.6881494 C29.0421936,13.3119708 28.6690003,14.848166 28.9502645,16.2576163 C29.1971041,17.4937704 29.862906,18.5186829 30.5678268,19.6034472 C30.9539293,20.1972706 31.3517675,20.8102622 31.6701945,21.4565047 L31.6764536,21.45494 L31.8454468,21.8222655 L32.0793772,22.366408 L32.0555147,22.3714934 C32.1939953,22.822142 32.3066574,23.6158624 32.2831861,23.8110652 L32.2976601,24.1873881 L32.2722329,24.1932559 C32.2554118,24.5621462 32.2014278,24.9361219 32.110281,25.3073593 C32.0101369,25.7153684 31.6717593,26.6456134 31.6568942,26.6851234 C30.7023955,28.5628257 28.9275756,29.5630934 27.5674149,30.0810263 C27.4919156,30.4244894 27.4109397,30.7393957 27.3229224,31.0351338 C31.0798919,29.8001533 32.4138429,27.4561549 32.8684034,25.6801614 C32.8684034,25.6801614 32.8691857,25.6797703 32.8691857,25.6793791 L32.8707505,25.6723377 C32.9755889,25.2549401 33.0420908,24.9032621 33.0741682,24.6067416 C33.0749506,24.5969619 33.1887863,23.1077092 32.8867892,22.3214214 C32.4819096,21.2683433 31.941679,20.3862144 31.4190519,19.5326422" id="Fill-25" stroke="#FFFFFF" stroke-width="0.5"></path>
                        <path d="M31.2731387,23.4197208 C31.2563177,23.2648103 31.2332376,23.1259386 31.2046808,22.9980201 C31.1761241,22.8724488 31.1381789,22.7406184 31.0877156,22.591967 C29.0324139,23.1177236 27.6202253,24.127771 26.8890949,25.5962907 C26.4321874,26.5140178 26.262803,27.4423069 26.0844213,28.4253623 C25.8943039,29.4737461 25.6979275,30.5569456 25.1365728,31.7215123 C24.8842565,32.2460954 24.2708737,33.0449012 23.6801799,33.4736433 C23.661794,33.4873349 21.7500583,34.836151 19.799595,34.836151 L19.7530436,34.836151 C18.4183102,34.8208947 17.1176102,34.4293155 15.781312,33.6379422 C15.4710999,33.7877672 15.163235,33.9227271 14.8612378,34.0404747 C17.2924712,35.6322186 19.968197,36.0261449 22.3743944,35.1197623 C23.2166221,34.8029001 24.5779563,33.8464454 25.2609705,32.929892 C25.94242,32.0160768 26.3887655,30.9653459 26.6653354,29.6239623 C26.7161899,29.3771226 26.7607853,29.1338037 26.8065543,28.8900936 C27.0115368,27.7865523 27.2239519,26.6450657 27.8416377,25.6667046 C28.5172194,24.5952407 29.6708327,23.8398567 31.2731387,23.4197208" id="Fill-27" stroke="#FFFFFF" stroke-width="0.5"></path>
                        <path d="M3.32001861,17.3085429 L3.31180366,17.2964161 C2.79113245,18.6037663 2.66204041,19.8031487 2.91592141,20.9536326 C3.0270188,21.4586563 3.55512259,22.5082136 3.87785268,22.9674683 C4.03511025,22.6822923 4.28507938,22.2113019 4.39265607,21.9151726 C4.6946532,21.083507 4.72125398,20.2608386 4.47245842,19.4706389 C4.22874831,18.6964779 3.76675529,17.9907747 3.32001861,17.3085429" id="Fill-29"></path>
                        <path d="M9.37157944,28.8371267 C8.65140235,28.3148908 7.76457918,28.0414504 6.90592155,27.7777897 C7.28537389,28.9184939 8.01885137,30.3177733 9.42321625,31.1498301 L9.45724961,31.1654777 C9.91846025,31.4248353 10.3452463,31.6028258 10.7735972,31.7150968 L10.8549643,31.7366121 C10.8901712,31.7460006 10.9261605,31.7538244 10.9617586,31.7624305 C10.937505,31.6137791 10.9109042,31.4764721 10.8819563,31.3481625 C10.6292488,30.2258441 10.1210956,29.3812692 9.37157944,28.8371267" id="Fill-31"></path>
                        <path d="M19.7659529,31.0769127 C20.9395168,31.0381851 22.1076042,31.4845306 23.3594057,32.4386381 L23.3613617,32.4374645 L23.3781827,32.4511561 C23.5827741,32.2629947 23.7693707,32.0509708 23.9375816,31.8178228 C22.3282342,30.5699331 20.7349255,30.0422205 19.2155514,30.2620681 C17.8526524,30.4580533 16.2045774,31.3131902 15.000892,31.9383087 C14.4540112,32.2223111 14.0217484,32.4460707 13.73579,32.5469972 C13.2065127,32.7328115 12.6330311,32.8278701 12.0302104,32.8278701 C10.9728292,32.8278701 9.86107297,32.5348703 8.98011762,32.0231964 C7.44783427,31.1340261 6.31221553,29.5004251 5.77472324,27.4153931 C5.43869276,27.2996015 5.13161018,27.1826363 4.84643414,27.0605856 C5.39566208,29.7449176 6.64785483,31.6535238 8.57289092,32.7375057 L8.5932327,32.7511973 L8.62804843,32.7691919 C9.5606406,33.2863425 10.6438401,33.6024224 11.7602907,33.6822247 C11.8659114,33.6892661 12.4233543,33.6759657 12.8387959,33.6051607 C13.7005831,33.458074 14.5987507,33.14395 15.5849356,32.644403 L15.6788207,32.596678 C15.8779354,32.4957515 16.0766589,32.390522 16.2769472,32.2856836 C17.3664057,31.712202 18.4930271,31.1183786 19.7659529,31.0769127" id="Fill-33" stroke="#FFFFFF" stroke-width="0.5"></path>
                    </g>
                    <path d="M70.032,34 L74.708,34 L68.828,25.572 L74.12,20.672 L69.444,20.672 L64.824,24.928 L64.824,14.4 L60.792,14.4 L60.792,34 L64.824,34 L64.824,29.072 L65.972,28.036 L70.032,34 Z M76.22,16.388 C76.22,17.676 77.116,18.712 78.628,18.712 C80.14,18.712 81.036,17.676 81.036,16.388 C81.036,14.96 80.056,14.008 78.628,14.008 C77.2,14.008 76.22,14.96 76.22,16.388 L76.22,16.388 Z M76.612,34 L80.644,34 L80.644,20.672 L76.612,20.672 L76.612,34 Z M87.364,34 L92.012,34 L96.66,20.672 L92.656,20.672 C92.656,20.672 90.472,27.924 89.828,30.22 L89.772,30.22 C89.128,27.924 86.916,20.672 86.916,20.672 L82.66,20.672 L87.364,34 Z M111.696,20.672 L107.804,20.672 L107.804,22.492 C107.132,21.092 105.564,20.28 103.744,20.28 C100.44,20.28 97.836,22.996 97.836,27.336 C97.836,31.704 100.356,34.392 103.548,34.392 C105.788,34.392 107.132,33.272 107.804,32.068 L107.804,34 L111.696,34 L111.696,20.672 Z M107.692,27.672 C107.692,30.136 106.18,31.284 104.668,31.284 C103.016,31.284 101.952,29.604 101.952,27.336 C101.952,25.096 103.072,23.388 104.808,23.388 C106.236,23.388 107.692,24.564 107.692,27 L107.692,27.672 Z" id="kiva"></path>
                </g>
            </g>
        </g>
    </g>
</svg>