<svg width="114" height="114" fill="none" xmlns="http://www.w3.org/2000/svg"><circle cx="57" cy="57" r="57" fill="#EAF6F0"/><path d="M57 29c-16.01 0-29 12.766-29 28.5S40.99 86 57 86c16.01 0 29-12.766 29-28.5" stroke="#000" stroke-width="4" stroke-miterlimit="10" stroke-linecap="round" stroke-linejoin="round"/><path d="m79 61 7-7 7 7" stroke="#000" stroke-width="4" stroke-miterlimit="10" stroke-linecap="round" stroke-linejoin="round"/><path d="M45.148 54.16c.25 1.248.74 2.394 1.372 3.487.937 1.627 2.13 3.053 3.417 4.386 2.13 2.216 4.533 4.115 6.983 5.936a.145.145 0 0 0 .085.031c.031 0 .063-.016.102-.046 1.825-1.357 3.62-2.767 5.297-4.31 1.497-1.378 2.917-2.858 4.119-4.525.874-1.216 1.622-2.51 2.075-3.967.32-1.008.468-2.038.374-3.1a6.963 6.963 0 0 0-1.28-3.433C66.453 46.883 64.854 46 62.888 46c-.312 0-.64.023-.975.07-1.552.209-2.855.968-3.963 2.1-.32.325-.663.627-.99.937 0 .031-.625-.635-.905-.914-1.163-1.209-2.56-1.968-4.229-2.154a7.251 7.251 0 0 0-.702-.039 5.583 5.583 0 0 0-3.23 1.007c-1.677 1.155-3.416 3.836-2.745 7.153Z" fill="#2AA967" stroke="#212121" stroke-width="4" stroke-miterlimit="10"/></svg>