<?xml version="1.0" encoding="UTF-8" standalone="no"?>
<!-- Created with Inkscape (http://www.inkscape.org/) -->
<svg xmlns="http://www.w3.org/2000/svg" version="1.1" viewBox="0 0 2030 1020">
  <title>Simple world map</title>
  <defs>
    <linearGradient id="greenBluePurple" x1="0" y1="0" x2="1" y2="0">
      <stop offset="0%" stop-color="#aee15c" />
      <stop offset="50%" stop-color="#118aec" />
      <stop offset="100%" stop-color="#6859c0" />
    </linearGradient>
  </defs>
  <g id="layer1">
    <path id="map" fill="url(#greenBluePurple)"
       d="m 815.93483,6.9152639 c -1.65992,-0.005 -3.40721,0.006 -5.15449,0.0273 -4.54292,0.0542 -9.08586,0.21231 -13.45406,0.46389 -7.95013,0.46129 -19.74426,1.04226 -26.2092,1.2834 -22.4497,-0.35248 -55.19224,5.1098501 -74.43418,5.2147001 -10.87651,-5.8539601 -27.50528,-4.2745201 -37.56652,-4.3411301 -26.03833,-0.92246 -49.73329,3.0291301 -73.75274,4.3952601 -22.97264,2.0744 -19.33253,1.30444 -28.7253,3.93139 -11.24604,4.30252 -23.33732,1.67405 -14.41506,13.97823 17.55208,4.00852 10.41444,5.17047 7.45215,8.2725 -10.55743,3.34718 -14.76054,0.57506 -22.74086,0.46394 -3.70971,-3.1851 -16.80832,1.49729 -13.34922,1.66515 0.58359,7.35649 -7.94409,7.8277 -6.69209,0.21839 -7.80308,1.7722 -10.76752,1.99897 -27.24011,-0.40883 -2.04432,0.78274 -4.97101,3.76713 -3.68676,3.76713 3.92778,3.55207 13.81035,6.421972 16.38076,6.333872 11.75219,-5.187992 10.09788,3.203923 11.87277,3.27615 10.78907,0.128889 17.28549,-9.537982 22.63603,-9.036932 1.33053,2.22517 -7.95231,6.449382 -4.86618,7.398872 6.77071,1.33053 35.80178,1.96919 37.19087,0.81859 4.60488,-0.20219 21.98274,0.980773 22.35646,-5.186802 -16.02973,-0.17557 -49.61167,4.016502 -40.51945,-3.60375 16.78016,-5.36252 31.24174,0.9988 44.52945,1.7472 0.8128,-2.44426 12.38134,-4.83227 12.58917,-6.7436 5.1388,-6.11242 17.40939,-6.20212 21.35177,-8.02615 7.10362,-4.53959 13.93308,-6.13426 19.65691,-6.6886 11.08569,-3.06723 17.94467,-4.44175 29.75619,-1.28337 0,1.7202 -4.10611,2.90573 -12.23097,3.5758 -5.37742,1.00517 -35.24595,1.17316 -32.81393,9.66509 22.04452,15.164552 19.34134,2.77497 45.39436,8.70934 21.46967,4.1892 -2.58946,18.092177 3.4072,26.511477 -3.98499,9.93506 -6.65106,21.799553 -8.12486,28.148699 3.80628,3.12901 -1.8042,8.35747 0.61155,19.84911 -1.51015,5.55371 7.08437,16.17619 8.12485,21.48281 9.20303,-0.67573 19.65828,9.66468 25.07348,6.03687 2.44265,-3.41332 4.57042,-6.5732 7.60068,-9.6712 4.03807,-6.01332 7.80384,-11.29639 14.67715,-14.32773 0.67943,-5.76995 9.77979,-9.73642 10.65844,-12.69398 6.37551,-4.5461 12.18103,2.13421 16.24972,-2.56852 8.73597,0.0528 18.363,-11.067956 24.63666,-12.667756 10.20594,-5.083883 25.11065,-1.96544 38.96435,-8.273363 8.87826,-2.44232 16.10187,-8.67436 20.70528,-13.15706 -7.44696,-8.95536 -4.386,-7.16067 13.89088,-18.322005 4.74958,-1.839292 9.58629,-3.63896 13.19197,-5.21479 -7.59542,-7.878112 0.5902,-10.067762 0.26209,-11.985442 -2.13884,-19.22862 -1.16085,-14.21037 28.21853,-22.00533 8.7364,-1.56469 6.6397,-2.81397 -5.6786,-3.35737 -14.2348,0.60746 -28.87235,-2.6532 -39.83801,-5.8700101 -3.58192,-1.10515 -14.15298,-1.76562 -25.94711,-1.80145 z M 1170.196,16.579474 c -3.8577,-0.41985 -11.007,5.73893 -13.7161,5.296 -2.2974,1.10236 2.2088,1.58095 3.2325,1.69314 6.2903,-1.80149 1.3418,-2.53749 6.4649,-0.98286 4.1632,0.23277 19.8255,3.68499 29.529,-2.15699 -4.3173,-2.52017 -10.6537,-3.22074 -15.2013,-3.3583 1.4197,-2.88717 -1.611,-4.65135 -10.309,-0.49099 z m 148.781,8.79058 c 7.5904,1.13367 38.974,8.69283 42.2842,4.69667 -7.1577,-5.49522 -22.1028,-5.07514 -19.7443,-8.98274 -2.6115,-6.75026 -28.432,-2.78992 -22.5399,4.28607 z m -174.1165,-6.47019 c -5.5969,4.37083 -7.8441,0.23712 -16.8613,1.5837 -4.4135,2.56434 18.7747,4.06287 23.5883,4.25912 3.1228,-2.95156 -2.7109,-1.82842 0.8736,-4.23192 -2.3975,-1.47327 -5.846,-2.11876 -7.6006,-1.6109 z m -130.784,4.09562 c -25.77993,0.17082 -30.30153,1.52557 -30.05323,3.41245 4.5398,8.22296 2.4759,5.91522 21.66633,15.07029 5.1544,2.4995 7.1638,2.27757 7.8627,-0.87362 4.5131,-9.60839 20.1682,-6.26309 15.5508,-3.57669 -2.8988,4.16438 13.8658,2.29789 15.9003,-0.79153 -6.6018,-2.36848 -29.0791,-5.48872 -14.2404,-8.35375 -1.2914,2.13608 27.299,-1.08098 21.0548,-4.58661 -8.4221,0.10065 -31.295,-5.03777 -37.7413,-0.30054 z m 351.0287,4.36851 c -0.1917,2.71823 -0.7633,5.59555 0.087,7.99906 1.922,0 20.0063,-1.86437 21.6663,-2.23827 3.4705,-2.27036 -18.6173,-7.01178 -21.7537,-5.76079 z m 21.3168,9.00909 c -1.3978,-0.013 -2.7083,0.0681 -3.6693,0.27344 -3.3198,0.71901 -5.0671,3.45526 -3.4945,5.3231 -0.074,1.00775 -12.347,3.80647 -13.5414,2.8673 0.8736,-1.48783 -15.9877,-0.19658 -17.5602,1.33752 -7.3422,2.34824 -15.3263,3.17481 -22.7147,5.787872 -0.3644,3.901852 -4.8673,-0.411822 -6.0281,2.32039 -0.451,2.39618 5.8791,1.287745 8.8238,3.57669 -5.8,2.634832 -19.2062,1.250019 -26.1219,2.29329 4.8867,5.883875 19.6407,10.702295 16.9487,10.924905 -9.6301,-0.27041 -37.4862,-12.433826 -41.3232,-8.0585 2.2584,5.58198 12.311,0.1383 0.7862,10.10279 5.2455,3.40476 8.9234,8.45948 11.5321,14.55486 2.0733,2.01956 15.2281,-0.49447 9.348,1.14447 -4.7088,3.18687 -1.3935,6.632953 -1.4852,11.732969 -1.2416,2.43802 -6.102,5.6004 -8.0375,5.21565 -6.8446,-1.73364 -1.6407,-1.81422 -0.2621,-4.85743 3.2375,-4.633626 3.6161,-8.723799 -1.1357,-10.841909 -3.9448,-2.12113 -6.7931,-6.87217 -7.7754,-11.29613 -9.4379,-7.42455 -5.726,-10.78334 -6.7271,-12.23273 -2.0132,-2.04607 -13.6623,-2.94598 -10.1342,-3.13986 7.1175,-0.82456 -7.1568,-4.348071 -6.8144,-1.610995 -0.8661,3.338965 -3.0429,10.706505 -4.5429,11.575745 -5.9664,4.62518 1.6989,3.84914 1.7472,8.15978 -0.2681,5.18075 15.8038,6.87581 13.5415,10.59726 -12.2823,-2.40603 -26.1374,-7.9875 -38.877,-8.81504 -3.797,0.84297 -12.562,-5.92892 -15.0266,-3.52948 -0.4906,5.20389 9.4808,5.24848 13.0172,8.46555 1.8091,2.00735 -3.3925,4.75942 -4.8924,3.17134 -3.0915,-4.01147 -7.7529,-0.54992 -15.2013,-0.35823 -1.2619,2.72395 -12.5734,2.71435 -9.6101,-1.79969 -2.7215,-2.10736 -8.862,1.81819 -12.0562,2.18412 -4.3682,-0.005 -7.5148,4.018753 -11.7068,4.228433 -4.7013,0.5261 -1.8333,9.179036 -14.4151,5.652436 -4.902,-2.638216 0.088,-4.240506 3.7567,-5.241846 -5.1316,-5.773743 -22.6856,-7.518713 -16.8613,-3.494553 4.8975,1.442343 1.0014,7.231553 4.8051,9.007239 6.6017,5.52231 -4.5928,5.99948 -6.5523,2.29768 -2.4316,-0.36995 -4.0103,2.91386 -6.9892,3.98378 -2.6252,0.82844 -4.2227,2.34728 -6.3775,4.07117 8.9525,9.61339 0.4111,4.26048 -13.2794,2.0705 -4.6619,4.46022 5.0137,4.48283 6.9014,6.52606 0.8737,2.23653 -4.4555,1.93075 -8.9985,-0.51544 -4.2402,-0.64996 -5.7393,-3.42504 -7.9501,-5.57383 -2.0919,-8.54705 -3.9296,-5.8065 -8.1249,-9.53141 -0.3494,-0.82995 1.2231,-0.75135 6.6397,0.35818 18.2591,3.73046 23.3262,3.72173 28.7428,-0.10481 7.343,-3.98383 -5.6817,-12.291329 -7.8628,-10.894306 -4.3625,-1.446543 -9.7937,-3.446453 -13.2793,-4.944813 -6.0202,-3.37245 -15.0397,-0.83354 -20.0938,-4.61281 -4.8342,-2.93586 -11.2899,-1.16136 -16.1623,-1.74729 2.002,-0.55082 4.3502,-1.68084 5.3292,-2.91797 -3.2319,-0.51608 -13.1031,-4.48314 -15.7255,-4.50797 -7.8688,1.33904 -9.1296,-2.24244 -12.3183,0 -3.3599,1.60357 -16.5154,0.64787 -15.7256,3.49455 -2.583,2.15921 -8.1254,3.07816 -8.3869,2.83931 -2.0968,-1.97446 -7.7754,-1.11827 -7.7754,1.17068 0,1.26674 -0.087,1.33666 -3.2325,1.66864 -5.1103,3.61766 -17.244,3.88592 -16.2497,7.20754 0.1012,2.358923 -7.08141,0.52371 -7.60071,3.660533 2.3093,1.58568 3.947,-0.63183 6.98921,-1.28426 4.7149,1.90533 -5.21171,11.330546 -7.86281,12.064996 -4.183,4.09358 -8.35652,10.72648 -8.64942,10.84187 -7.6472,6.60614 -11.2185,4.9879 -12.5804,6.46492 -4.9676,5.10946 -11.2586,6.63364 -16.075,9.50522 -2.6209,1.59003 -2.7083,1.85214 -2.7957,8.24719 0.7612,5.43702 1.5181,13.57815 1.7477,13.62004 3.7383,5.76114 11.5606,9.43877 17.4728,5.70503 1.6599,-1.17945 4.6303,-2.97915 6.727,-4.01003 2.0094,-1.03088 3.7567,-2.54227 3.7567,-3.33729 0.3568,-2.1136 3.3765,4.27584 3.4072,4.971 0.9732,4.18592 3.90632,8.52717 6.55232,11.35731 2.3824,2.30041 2.4394,4.27791 0.6115,6.17666 -6.10262,-0.37864 -8.20402,2.28217 -8.91112,-0.33199 2.9791,-3.17957 -5.0296,-3.88792 -1.8347,-6.08926 1.0484,-0.6203 0.961,-5.70488 -0.087,-5.70488 -1.8092,1.70617 -4.9012,4.32299 -7.7754,4.36821 -4.7176,0 -7.9501,9.30428 -4.4555,12.93862 1.8464,2.36103 -0.3899,3.03441 -0.087,5.02341 2.3974,2.49865 2.4387,7.51024 -2.4466,6.83188 -3.7707,-0.94133 -6.6122,2.12063 -10.0468,1.65991 -4.1061,-0.60283 -7.8628,1.70363 -8.5617,5.24184 -0.8736,4.64775 -6.6397,9.8896 -13.192,12.03879 -3.844,1.26674 -4.4555,1.78218 -5.0671,4.61281 -0.8819,5.26072 -6.3339,2.94708 -8.649,6.7183 -3.9713,3.812 -11.3139,-6.04799 -11.6194,0.13975 1.8346,5.90585 1.6599,6.40382 -1.922,6.38631 -4.7067,-0.48241 -9.8402,-1.64638 -14.2404,0.48923 -2.6006,2.995 -0.309,6.29674 2.0094,6.4475 11.9441,0.68807 18.0801,16.42439 14.4151,28.22732 -0.961,3.1975 -3.4072,4.92733 -5.8534,4.14978 -10.5838,-2.79294 -19.8807,0.92415 -29.4417,-2.42874 -3.6749,-1.22692 -13.0864,3.79277 -11.7942,7.45219 0.4369,1.19687 0.9611,4.88365 1.0484,8.18601 -0.044,7.60054 -1.9515,11.93398 -5.1545,16.93114 -0.7132,8.70809 3.4872,9.86927 2.0964,15.72553 1.5644,6.49676 12.0278,-3.36552 15.6382,4.99724 4.8488,8.10412 3.7086,2.67531 0.4368,10.50989 -2.9704,7.23374 -4.9798,9.56636 -10.3963,12.15234 -9.0513,3.88253 -8.6491,8.07065 -12.49309,13.50647 -6.57213,15.19644 2.22928,20.91318 -21.22946,28.72528 -2.30641,1.13515 -15.16873,18.68262 -15.28871,21.21201 -6.175,10.33509 -13.59985,20.2281 -16.33707,31.97524 0.29952,3.31349 3.42509,-0.0895 4.54293,14.30149 1.50717,12.62834 -3.87992,26.00391 -9.17323,32.97991 9.40535,6.62179 0.90249,14.27464 6.98909,20.45193 7.47458,7.61424 9.47237,9.51417 15.72553,16.16237 3.16992,3.42628 6.98597,13.6786 7.42595,16.8962 8.02611,5.78142 15.21095,11.29888 20.44318,15.99633 10.57108,9.56639 13.19198,10.38761 21.14208,6.5261 4.6303,-2.23653 6.9018,-2.76071 13.5414,-3.08396 7.3386,-0.35818 11.27,0.23592 15.3761,2.28895 6.925,0.75172 12.7118,-6.74561 19.7443,-7.09395 6.0314,-3.08509 12.4747,-4.35863 18.2591,-4.56041 6.7175,-0.72471 12.9892,3.9001 13.3667,11.03406 3.1113,7.66298 12.965,3.603 19.8316,2.83935 8.4636,0.87185 10.5165,15.16514 7.1639,22.30405 -0.9093,2.24517 -0.5527,18.02211 -4.4556,15.89153 -2.7744,11.14279 21.18202,27.55588 22.01572,37.96838 6.44341,10.29059 5.87261,27.64951 7.86321,32.65667 1.922,4.84873 2.7956,8.52673 2.7083,11.16515 -6.1487,8.93916 -6.33281,24.72244 -13.01731,33.19832 -3.84092,16.54602 5.7268,26.59981 10.74581,38.877 7.4021,12.98324 6.9017,25.39119 9.61,40.10884 1.6715,12.55301 26.2971,40.63562 17.7349,49.65774 1.2919,10.8579 4.3978,8.43165 9.348,13.75983 1.922,2.18409 3.6693,2.18409 5.8534,0.26206 6.8127,-5.8022 21.7802,-3.59489 29.0922,-3.75665 9.4427,-2.60212 20.1131,-7.03377 27.0829,-14.71208 9.9944,-3.8232 11.827,-23.90877 21.4041,-25.47538 10.0471,-15.54903 3.9391,-24.36198 14.4151,-28.72529 13.6498,-9.81696 5.8359,-25.05854 5.6783,-35.38244 1.6498,-4.32326 21.2274,-22.09012 24.1999,-23.30871 7.5936,-2.80831 13.8577,-9.20312 16.6865,-16.73895 1.1141,-7.36464 -0.7761,-15.02947 -0.6989,-22.05945 0.8878,-20.55859 -3.5211,-13.36432 -5.5039,-22.00697 0.05,-11.30985 -2.2064,-16.1044 -4.9798,-23.88536 1.6377,-16.2958 14.554,-25.354 20.6179,-35.92408 3.7567,-7.39099 15.5508,-20.11118 22.802,-24.62791 4.7177,-2.94418 18.5212,-18.12806 18.6086,-20.42573 6.6702,-12.67915 17.1822,-25.13687 17.4728,-39.3138 4.2425,-4.9348 2.5835,-20.68865 -3.3199,-15.22755 -7.9034,5.74273 -26.8222,4.83502 -33.8098,8.94605 -18.1562,6.48081 -13.3322,-13.71522 -16.3371,-16.8962 -13.4412,-17.21956 -22.9952,-16.27787 -25.1609,-25.55398 -2.7446,-15.67117 -13.8311,-17.48827 -14.3277,-31.01423 -4.3809,-18.32001 -10.0921,-22.61452 -16.9486,-35.51346 0.5526,-4.27272 -15.7532,-27.53105 -15.9002,-30.25419 1.0549,-3.41232 6.3608,9.98116 10.0468,10.70209 1.6787,-0.78919 2.9643,-2.57718 4.8924,-2.62092 3.2113,2.24154 6.1234,7.14463 8.2122,11.08651 2.6052,3.1072 9.3759,17.57469 10.7458,17.74363 3.6072,1.48956 8.3291,10.98303 7.688,14.8519 -2.3732,8.5322 15.1595,19.57121 15.2014,23.6931 0.3057,2.93326 12.0038,16.63515 3.2325,15.40229 5.8949,11.15175 12.2178,11.86234 13.8035,27.30128 2.3962,15.36621 14.3141,0.98028 20.1811,0.87362 21.8077,-0.71378 36.0197,-27.00419 53.9909,-27.08284 23.5707,-15.53634 31.0704,-21.68944 31.9753,-41.4455 -7.0288,-9.531 -24.4114,-12.22501 -24.6367,-25.00357 0,-5.44281 -1.0484,-6.4737 -2.883,-2.81316 -20.6236,30.74063 -30.8232,15.3722 -29.529,0.0524 -15.5792,-0.68549 -12.3551,-6.7948 -18.7833,-14.65971 -11.3075,-12.41633 -0.5442,-13.72509 4.8924,-15.23629 6.4507,3.16046 7.6435,14.64882 15.0266,17.34177 12.7941,6.63772 13.1384,10.08872 24.1998,8.71035 4.1824,-0.49159 6.4209,-5.83555 8.7364,-2.73447 2.9712,8.74728 7.0349,10.74419 14.153,11.57571 14.0405,1.91098 29.7261,3.08188 42.6337,1.17067 10.1103,-3.81276 11.8628,11.23897 16.6865,11.49714 12.2375,7.82404 5.7405,6.63954 8.0375,10.5361 0,1.65991 12.0562,13.04343 13.8035,12.99976 14.6672,-6.13505 9.5465,-3.83723 13.1046,8.64904 3.1111,10.20554 4.8186,20.73253 9.348,29.98335 3.0068,5.64852 6.1899,11.73999 7.688,17.66498 2.2782,9.5455 11.4295,17.48782 11.9689,27.37988 0,2.27148 4.7176,9.51399 6.9891,10.72834 7.8055,1.01801 5.6226,-9.62476 13.2793,-7.37353 3.7132,0.001 -2.0821,-1.30675 -0.6989,-5.94949 8.4138,-2.1016 1.6636,-13.06618 4.7177,-17.47282 1.3978,-1.65118 1.4852,-8.78884 0.2621,-15.50713 -1.7473,-9.35669 -1.3105,-11.83782 2.1841,-10.9729 1.2881,-0.22108 9.9248,-7.49084 9.9595,-8.38698 2.0788,-6.13116 9.8422,-9.93211 13.8035,-15.61194 2.6854,-4.57565 7.6646,-5.94376 11.3574,-9.28677 3.5821,-3.54221 0.1674,-6.69883 2.7955,-9.8809 5.3482,-3.50718 9.1798,-0.15204 14.3277,-1.7997 7.8129,-2.30316 9.1851,-2.27419 10.9205,-7.37352 2.0295,1.6327 4.3995,5.03796 4.4556,6.63094 -2.2877,4.48485 14.0037,16.71705 13.7161,17.61258 -0.3842,10.40044 2.4619,0.95481 6.2903,9.44386 2.2273,6.65341 1.2514,10.14361 0.7862,17.14954 5.651,2.33106 17.4439,-2.06032 17.6476,-7.86277 0.087,-2.73446 5.8534,9.39166 6.6397,13.78609 0.5036,3.62929 10.7968,27.96224 3.8439,25.33555 1.2751,4.44552 11.0447,6.11868 0.8737,6.38631 3.2067,3.96406 3.3555,9.31246 2.3588,13.70743 -0.8736,3.67801 0.2622,11.31365 1.3978,10.09926 3.7649,-1.97949 6.038,2.86276 8.4743,6.08927 1.8749,10.54497 4.9695,0.98828 5.0675,11.2525 -0.5894,6.05791 6.9443,16.09711 7.1639,18.8357 0,1.3978 1.6599,3.07522 6.2902,6.19412 2.3682,6.82651 12.866,6.52256 12.9299,10.89428 0.8133,2.64187 7.1678,-3.2662 1.0484,-3.62562 0.2046,0.0386 -0.6664,-3.38852 -0.7863,-4.80502 -6.4239,-8.23747 -3.0286,-15.45251 -5.766,-23.48348 -0.636,-1.39847 -13.2044,-15.35011 -14.5899,-15.01785 -4.3775,-4.27411 -8.6342,-20.19896 -9.8721,-21.77986 -6.8604,9.96992 -4.0632,-7.23451 -2.883,-11.6893 1.9406,-4.04522 0.2909,-15.08417 4.1935,-15.55954 4.9491,0.83594 0.8447,6.69213 5.504,6.65712 4.9748,1.05931 11.3885,5.66383 12.6677,11.3049 0,1.34544 3.1451,4.58661 4.4556,4.58661 -1.7841,1.62741 11.6047,2.01049 8.8238,4.28961 -1.5726,0.96097 -1.2232,10.5623 0.4368,10.5623 5.4125,-1.49704 12.2051,-13.49048 13.2793,-14.19667 5.2052,-0.4353 7.6793,-5.2808 12.0563,-6.7707 4.5234,-5.91217 1.5464,-12.50169 0.8735,-18.10181 -0.486,-4.63203 -6.1052,-18.58544 -10.1341,-19.87536 -2.0095,-0.63772 -12.3184,-10.46617 -12.3184,-11.74169 -2.5107,-3.82536 -5.9185,-7.17635 -5.9407,-11.05158 0.017,-5.82477 12.4641,-18.52199 17.9096,-16.54675 1.6935,0.7381 5.8338,-0.14105 5.1545,1.77349 -0.7863,2.14916 2.1841,8.22095 4.1061,8.24719 4.6384,-2.49334 -1.9782,-7.83656 5.417,-9.12081 3.017,-3.51884 15.8645,-1.40692 14.8518,-8.326 -1.2199,-4.12178 4.5112,6.20993 4.805,1.8259 2.9274,-3.94154 12.7025,-3.14538 14.2404,-7.01534 1.4599,-3.66199 13.4553,-9.37058 11.4447,-13.40161 2.8371,-1.69652 7.4133,-16.28737 7.5134,-18.51244 2.364,-11.04014 7.1518,-14.71278 4.1934,-24.05134 -5.1688,5.13028 -2.6634,-2.21678 -5.9408,-8.92858 -2.9135,-4.49719 -7.1703,-5.21169 -9.61,-9.49648 -3.4946,-6.14171 -7.3386,-10.13424 -11.3573,-12.07373 -3.9315,-1.84337 -4.2809,-2.2802 -3.7567,-4.28082 0.3635,-8.43881 14.2047,-11.14985 14.2403,-14.52866 3.4344,-1.64533 -18.354,-6.78674 -17.1233,-4.08864 -0.5709,4.33333 -5.2798,3.98854 -6.465,0.34949 -0.9666,-6.79043 -11.969,-3.36552 -12.2309,-9.52272 2.5797,-4.2858 9.4617,-3.97711 13.1046,-11.5233 2.1247,-5.95753 9.9204,-2.18846 7.8628,2.26274 -0.8541,1.80097 0.8379,10.67212 0.9609,10.67587 0.4369,0 2.2715,-1.62496 4.1935,-3.5994 4.3262,-4.44334 11.9688,-5.65859 17.5603,-2.48986 2.0266,0.39078 1.6523,12.67423 2.6208,11.33111 1.6772,-2.10645 17.918,6.16344 13.1047,6.98914 -1.4852,0 -0.9611,1.52013 1.5725,4.20218 3.6693,4.03624 4.4556,5.18071 3.9314,5.76602 -2.1021,3.44274 1.007,5.74477 1.0479,8.54424 0,1.83464 0.3495,1.98316 3.9314,1.77346 4.2818,-0.91196 13.765,-3.67138 13.9782,-8.35201 0,-3.48581 -5.1545,-12.57166 -9.3479,-16.49431 -3.6195,-6.10193 -11.7384,-8.16809 -15.6382,-13.54144 -1.8221,-5.00207 10.2462,-7.08254 6.9018,-13.68119 -5.1822,-15.79419 12.6832,-10.13027 16.5118,-10.94671 2.7956,-1.04836 7.6881,-6.6921 7.6881,-8.81504 5.1643,-6.80025 2.6119,-25.15057 5.067,-31.45106 0.5607,-3.41862 -3.9858,-13.82854 -6.0281,-15.53331 -3.2325,-2.23653 -6.6397,-11.54955 -4.2808,-11.54955 7.2149,4.21495 13.687,11.86064 17.2981,19.29873 1.8616,4.4663 6.4228,7.25933 8.0376,11.6369 2.6657,5.2156 5.3037,9.85049 9.7846,14.05688 -0.4792,-2.98316 -1.6794,-6.4219 1.2231,-5.87087 1.892,0.14082 5.4587,4.23143 5.5913,2.73451 0,-1.64244 -2.7957,-5.16323 -4.1935,-5.16323 -8.5679,-5.4795 -9.4238,-7.64316 -12.8425,-15.94394 1.9003,-4.1345 11.753,3.57285 11.7942,2.15789 -2.7973,-2.75024 -6.4477,-4.84997 -9.2606,-7.56573 -1.922,-1.95695 -6.9018,-6.69209 -11.1826,-10.53608 -6.0956,-5.64694 -21.0782,-23.52503 -24.462,-22.60982 -1.223,0.46299 -0.9609,0.86489 1.3105,2.24523 4.1708,16.14571 -2.5158,4.95968 -13.454,-0.70765 -14.0644,-0.56635 -35.7653,0.0752 -29.2671,-9.26056 3.7568,-4.79632 5.1546,-7.48712 4.0188,-7.86277 0.7142,-2.93725 5.8435,-18.36837 7.2513,-18.88813 2.883,-1.09202 15.3761,-1.23182 16.075,-0.1922 0.2621,0.50671 1.3104,0.92608 2.2715,0.92608 0.9609,0 1.5725,-0.31452 1.3104,-0.68144 -0.1748,-0.37569 2.7956,-0.55915 6.6397,-0.43684 8.3754,2.18658 5.6114,-3.45846 7.5132,-2.91796 8.6743,-1.05401 14.0563,5.79386 15.2014,5.80973 4.4268,-0.25423 25.4783,-1.90397 12.4057,-5.3467 -6.0766,-1.8864 -2.348,-14.16198 1.8346,-14.58106 4.8081,-4.68648 15.4775,5.79229 16.2498,5.46025 17.4112,4.90311 7.5145,-10.95831 7.688,-11.03407 6.2385,-1.91248 4.5847,7.29174 9.348,8.00256 0.3329,4.25049 -4.6874,10.23218 -3.7567,15.72553 0.793,3.75584 -2.7353,8.69505 -5.6787,8.73639 -1.9648,2.99296 -0.3613,2.44531 2.1841,6.38631 -0.6989,3.66927 3.8441,9.63627 13.9782,18.37266 6.7026,7.58821 1.5697,2.37574 15.4635,13.54144 4.2592,3.02556 11.5639,14.36969 14.4151,8.84998 2.5556,-5.57986 -5.0457,-10.13563 2.3588,-13.37525 1.9255,-2.08993 -6.1203,-4.71184 -4.9798,-8.33454 5.4826,-8.74228 -8.8993,-15.36828 2.7957,-12.63284 0.7863,-0.82122 -3.2324,-4.93607 -4.8924,-4.971 -5.4128,-1.45176 -6.5273,-9.51155 -11.9689,-8.3258 -4.5326,1.79587 -8.7667,-13.69446 -7.9501,-13.56765 8.0326,-6.84162 35.1081,2.04936 33.111,-2.18409 -2.7878,-13.49002 26.8913,-14.29939 26.9082,-15.91772 -2.8107,-5.55111 -20.1712,-9.02083 -21.8411,-13.5152 4.1527,-9.6725 -2.0386,-6.51713 -4.805,-10.26529 10.24,0.79627 23.5158,8.02327 33.373,8.76259 5.3458,1.08126 17.2319,2.93757 17.7349,2.62091 -10.3668,-9.91801 -3.2528,-7.38283 7.8628,-5.94948 -13.5172,-13.15021 -36.2386,-8.72282 -49.3607,-14.528646 -4.7176,-2.29767 -43.9441,-12.091153 -56.7866,-14.170443 -4.2809,-0.69889 -11.1826,-1.4153 -15.2887,-1.60749 -17.4057,0.37969 -17.3772,2.63085 -38.4402,1.60749 -7.0765,-0.22712 -23.1515,-0.29703 -24.4619,-0.10484 -16.9096,-5.10666 -24.7426,-9.21996 -41.1485,-8.57041 -23.9664,0.046 -45.367,-8.19199 -68.4935,-10.40503 -20.9968,-3.41547 -18.5824,1.59348 -18.2591,2.62112 13.4383,7.16508 4.7694,3.96173 -5.5913,3.93139 0.075,2.63648 -21.9892,-1.31009 -21.6663,0 5.1189,11.32563 -12.7017,0.36146 -15.9002,-2.51173 -9.2202,-7.993127 -21.6955,-8.115625 -33.3731,-10.675035 -7.7632,-0.908348 -6.0725,0.526722 -2.6209,4.450465 -19.9859,-0.76211 -18.9353,-3.679852 -46.0407,-3.221965 -5.9675,-2.097713 -10.4369,-4.988931 -12.93,-8.926862 -1.5409,-7.14259 -19.6457,-9.13685 -24.1998,-9.17327 -14.4237,-1.0675 -19.855,-5.06524 -34.5088,-5.62448 z m -954.76665,1.39256 c -7.15617,-0.169 -37.8886,5.98916 -38.82458,8.49095 2.79056,-0.69979 25.16128,6.043012 26.64603,7.398832 3.49401,4.973539 13.01807,1.268805 14.55485,1.00992 5.45151,-0.91904 13.655,-1.8809 18.23287,-2.12994 11.30085,0.27066 26.78239,-7.503652 7.56573,-6.606462 3.31968,-4.37173 -0.5952,-4.55823 -3.90517,-3.57668 -7.63555,2.05481 -3.47627,5.87713 -9.19944,6.00631 -6.50124,0.10821 -6.4008,-4.07996 -12.88619,-4.83211 -8.86057,0.26404 -1.23546,-3.32031 0.43682,-3.68589 5.22755,-1.61147 -0.97419,-2.08266 -2.62092,-2.07493 z m 793.92945,4.39536 c -6.2006,3.27167 -24.4237,0.51569 -28.1312,4.45031 -1.6553,2.47563 -10.7211,2.7561 -10.3963,5.07847 -3.4161,9.351696 -6.4035,9.911844 -11.4447,18.916097 2.0258,5.634 30.2793,11.63543 32.15,7.64431 -0.6094,1.61203 -19.6623,-6.02352 -12.9299,-12.30958 3.6982,-2.52503 6.477,-10.303796 11.27,-11.357325 7.3958,-4.467992 13.7679,-5.823372 19.7442,-7.016182 15.2887,-3.01494 18.3465,-4.95881 11.0079,-6.93499 -3.7991,-0.88293 -8.1712,-0.36728 -11.27,1.52889 z m 321.29,5.24164 c 0,2.46891 3.0577,3.96543 13.1046,6.279722 7.0974,0.57476 24.7287,-0.0928 25.8597,-3.740042 -4.9644,-4.68823 -11.0133,-2.53851 -19.0453,-4.20482 -4.8629,0.25495 -19.8239,-2.24845 -19.919,1.66514 z M 367.04964,59.824966 c -5.7338,3.121335 -17.62844,6.072995 -21.7886,10.562295 35.00343,5.71825 34.31183,9.57369 -6.46489,14.38885 5.86628,-5.97595 -27.72777,4.14974 -24.84633,-3.71298 -8.11374,-8.14758 -50.79235,13.097473 -50.81093,4.72639 -9.19064,-9.42913 -57.36845,0.44455 -62.08089,-10.09926 -24.17031,0.17149 -61.9822,2.66247 -82.55895,18.643463 12.33073,12.259236 -9.72685,10.308616 -10.9205,10.562276 -2.95994,1.06341 -28.014756,4.81793 -22.880656,6.9629 3.21121,12.04438 11.314526,7.2039 21.491586,7.37353 -0.76762,3.77206 -19.846996,7.73118 -22.417596,7.32133 -8.3467,1.02289 -17.68587,7.77427 -24.92496,9.61005 -20.71071,19.74947 15.78476,12.83275 -5.62625,21.50902 -4.14317,3.83602 13.98318,-2.18347 13.37543,1.41523 26.733546,-7.54736 -15.73471,12.78743 -30.14058,17.85721 -23.06739,2.98009 -29.0824402,4.46461 -34.3166102,11.4971 4.22842,1.22761 27.4165802,-8.52756 28.7515102,-4.56037 11.50596,-2.06615 23.29423,-10.38932 34.29039,-12.6678 1.88287,-2.79933 46.769466,-21.97071 46.329146,-16.95734 5.37954,-1.66431 27.0161,-3.01556 31.86166,-5.32046 9.806,1.21885 11.48103,0.83469 21.07219,0.2184 12.89042,-1.04969 23.81973,12.46658 18.37265,19.7967 3.5109,7.47884 -5.10187,16.61003 2.70829,17.30681 2.71146,-0.0313 8.24441,15.39643 5.65244,19.8491 3.60319,10.25481 -7.44734,9.79602 -7.42594,10.3177 -5.68104,0.72863 13.6009,16.3706 10.34392,16.13617 -2.65588,-0.20097 -3.01407,0.25332 -5.18943,7.04153 -1.45025,4.52544 -6.4562,13.82098 -8.64904,16.08372 -10.6552,9.09124 -14.14452,23.36836 -21.51776,32.4295 -2.25584,2.43039 -4.31916,14.48824 -3.5994,16.10996 1.26065,11.30462 2.78249,18.432 3.05775,29.04853 16.28032,9.22037 13.25267,15.96357 16.18855,30.1406 -0.54342,6.28559 3.33494,10.54097 6.1679,14.87811 0.87275,0.41687 -1.94412,9.96132 1.91328,16.46811 9.92112,4.53606 5.38147,8.34637 4.17599,14.57233 5.67069,4.28944 9.49968,12.76111 12.44938,14.44126 8.41567,-3.0486 0.61923,-8.48247 -1.42403,-17.1146 -0.37708,-4.00756 -3.85948,-17.26467 -6.87555,-19.08033 0.32955,-14.21825 -0.31646,-7.55281 -5.62626,-15.83908 -2.27491,-3.80921 -0.45666,-14.99743 2.97911,-13.54144 7.58405,1.97909 5.62595,5.18364 6.3601,10.89428 1.46204,13.35818 -3.44825,5.83475 4.12359,13.81228 5.0248,7.96189 9.2911,14.73154 8.10738,18.59106 9.20259,11.82847 19.28453,18.95028 19.29871,33.99333 0.19799,6.23413 -4.00541,8.18447 -0.73386,13.34926 6.99184,7.67789 29.1491,21.51263 36.01147,22.47002 14.57231,8.5444 16.70255,4.85002 28.44572,3.49455 3.54698,0 7.92392,2.82185 11.19134,7.20753 5.44278,7.28619 8.08991,9.35669 12.88619,10.1255 14.75631,3.48818 29.76887,14.48274 30.63857,25.25695 5.30998,2.08453 13.91895,15.90156 14.5199,15.94411 9.29429,2.0619 16.16155,10.94581 20.28594,8.98103 1.97158,-10.65292 7.87227,-12.67592 15.89154,-0.97848 5.51962,9.16737 3.49032,32.22772 -2.78694,35.67949 -5.76911,3.31184 -3.71385,9.80104 -8.68398,11.7155 -7.21227,0.12321 -7.71648,23.74513 -9.47027,24.12994 1.35953,7.69277 0.97553,7.28426 0.89985,12.42318 -6.53972,2.41005 -1.04517,18.18246 2.32389,19.92776 7.03653,5.06897 11.75819,14.6938 15.34112,22.66222 1.38214,4.45301 17.29982,31.1444 17.16703,31.9403 3.86073,21.14855 37.81165,23.58874 43.74318,40.37964 1.40319,12.83139 6.31766,63.24725 3.7916,73.08877 3.45779,20.96035 7.15253,32.94917 4.805,55.96539 -3.08333,13.18667 4.01528,30.84401 6.9105,45.16727 2.97296,12.78387 5.22071,26.10869 4.52547,35.12034 12.57048,27.05337 29.45428,43.92977 38.77217,52.5928 10.4724,3.4726 14.8815,10.6171 29.31936,10.6585 9.37328,4.116 12.52408,-1.9604 14.85189,-3.3199 11.96766,-3.9469 -6.35456,-2.9176 -17.44659,-13.54141 -3.30971,-6.19782 -13.16721,-11.76772 -13.62007,-18.69592 8.36211,-6.7669 1.22375,-9.5852 8.51801,-16.07497 8.48287,-9.37613 -10.34265,-11.15374 -12.83378,-15.376 12.56688,-8.54647 0.17327,-20.93996 12.69399,-25.42298 -3.93157,-13.48358 -10.72541,-1.50923 -11.70678,-14.67725 13.52378,6.39194 21.13115,-2.25457 14.14424,-11.70669 -3.90738,-4.51413 21.47306,2.49718 25.87719,-10.13432 2.55662,-8.48769 -1.33475,-20.12481 -8.90239,-24.46189 -2.34272,-0.62842 -4.65879,-6.00124 -1.8259,-3.45088 17.75247,3.22373 24.58164,11.13599 29.86976,-4.5866 2.9299,-9.51646 12.98036,-18.37117 14.93052,-26.61982 1.02216,-4.60408 3.68676,-9.61005 5.73108,-10.75452 4.66439,-4.60116 -1.04552,-25.07009 1.17941,-25.30936 12.99783,-9.19569 18.56509,-17.26966 34.42144,-17.79608 3.82644,0.43868 11.16938,-8.11535 10.75451,-9.74981 2.40351,-2.18242 7.79984,-28.02527 7.84529,-28.07008 4.79229,-5.10922 -1.20293,-37.80949 4.3682,-38.08197 4.15053,-10.31736 17.04991,-21.71236 21.31683,-31.80925 2.36974,-10.44684 0.93297,-17.95732 -2.97038,-27.37989 -10.18935,-1.95786 -13.44126,-3.86151 -18.43381,-8.65778 -18.08273,-9.04231 -33.04378,-11.04527 -45.86612,-21.26438 -6.87696,1.64722 -18.22533,-5.99202 -25.99081,-8.15983 -7.27422,-4.01866 -13.9578,-18.31368 -14.22285,-28.31469 -0.42446,-6.22854 -20.9609,-20.81806 -32.27227,-17.71742 -12.95468,0.96839 -13.86095,-8.27789 -18.26782,-13.68119 -3.13369,-4.34632 -15.23276,-6.653 -13.45407,-9.25186 -4.8947,-4.95994 1.76964,-15.29676 -1.23182,-14.22289 -13.55232,2.99865 -14.6412,-0.834 -24.21732,4.80506 -1.71373,-3.74647 -23.11338,-1.34961 -23.2301,-4.70021 -6.22148,-7.31351 -9.75858,-12.67731 -11.82035,-10.3963 -3.2086,10.94002 -10.62495,13.53738 -7.67057,-1.01345 -3.94622,-0.0661 -18.49769,10.56026 -22.82822,9.55764 -3.53824,-0.89112 -8.36947,6.22907 -7.5832,11.19133 -1.64312,2.79205 -9.42638,6.09091 -8.84998,9.19943 -7.43547,-4.52836 -12.47002,-11.34272 -21.76238,-6.52611 -12.3471,6.4045 -15.83879,-1.39784 -21.80606,-13.04348 0.2613,-5.57671 4.20692,-26.34852 6.1941,-29.57276 -0.0698,-5.64449 -15.11704,-10.45913 -18.92305,-8.15978 -5.13841,1.94281 -13.20196,-0.15788 -17.0622,0.32325 -0.8436,-15.07817 19.86961,-30.41014 18.18044,-41.11352 -2.0089,-3.64092 -21.83272,-0.91489 -23.99891,3.5732 -9.32503,24.21878 -23.87296,18.66273 -35.70568,15.81287 -4.11086,-2.13499 -11.07597,-21.0411 -10.18665,-27.24884 4.91944,-19.32277 10.79288,-39.78106 23.43104,-47.39498 6.75923,-4.72007 22.7696,-10.55788 29.34558,-4.88366 27.00885,3.4263 17.60207,-14.77669 36.47448,-6.15045 13.0776,12.54701 16.05601,-5.38264 16.43318,14.23161 -0.69891,1.3454 -1.17068,3.381 -1.03089,4.52548 1.33241,8.9686 4.69583,16.08888 10.25653,20.0937 11.23745,-0.94744 5.27585,-28.86446 4.59535,-31.66946 -3.04104,-11.46747 4.63583,-21.70532 13.18323,-26.09563 4.05634,-3.06853 19.62885,-14.55859 24.34836,-14.82566 13.05188,-12.07902 20.70062,-22.1777 19.49972,-31.20646 -0.25335,-1.55506 -0.0961,-3.04898 0.34946,-3.32856 0.45429,-0.27957 0.82122,0.0961 0.82122,0.84743 0,1.93075 0.55039,1.75602 4.7002,-1.64244 2.01811,-1.65992 4.20219,-4.37696 4.85743,-6.02813 1.05711,-2.70827 1.67739,-3.11017 6.08928,-4.01873 6.08053,-1.24059 10.99039,-3.31982 8.3782,-3.547 16.15301,-0.62219 10.71321,-9.5568 11.43595,-10.1517 3.4976,-6.02107 8.90853,-9.37032 14.33646,-11.25246 9.58231,0.11119 19.0851,-12.16077 28.3933,-10.0469 -3.32489,4.53678 -16.09564,6.86228 -10.50989,12.77263 13.06768,1.9714 18.11417,-9.52647 32.68289,-11.43596 3.51894,-3.82156 10.10862,-4.72379 10.58852,-7.2075 -4.95176,-1.8603 0.44043,-4.46858 -1.52888,-6.4999 -14.64298,8.49076 -19.91933,4.62075 -26.13058,-0.24464 4.01164,-6.43976 11.00842,-16.58336 2.05305,-16.48557 -8.39446,2.82298 -4.9038,0.54593 -7.64435,-2.29768 6.90605,-6.56553 18.86515,-4.36565 25.58019,-4.34201 23.805,3.0455 25.90307,-8.65931 36.85889,-8.81499 4.85849,-0.64607 0.6701,1.97531 -1.23183,3.82652 -17.16833,18.49735 -26.20244,23.69989 -10.92051,24.61899 22.2691,0.89109 20.54803,0.69016 19.16767,2.21033 -1.01529,13.45786 10.76879,-1.55799 9.22565,-5.75733 -4.02961,0.52958 -5.97992,-5.29086 -1.31046,-7.75791 1.72073,-2.46903 -1.06915,-3.07599 -0.95227,-5.04966 -8.27597,4.0544 -7.57913,-2.31993 -13.02598,-3.4596 6.55267,-5.9288 5.41053,-2.64199 8.10738,-7.75791 -7.54514,-2.10946 1.58882,-4.14452 3.38973,-10.62348 0.67478,-10.20611 -6.48495,-17.30454 -17.61259,-18.78329 -0.008,-14.2605 -6.12603,-19.96933 -4.42063,-37.86353 0.30243,2.17848 -8.52613,7.30618 -9.55762,8.27335 -2.9511,2.68341 -12.50406,9.97323 -15.97015,7.28614 -6.84654,-4.74184 -4.81252,-11.87367 0.48923,-16.79135 -8.18819,-3.62756 -8.48515,-3.41782 -15.45469,-11.21752 -8.4711,1.00661 -24.57637,-3.97504 -25.77237,5.04961 -16.36848,18.17253 -12.95583,14.63054 -11.87279,28.53309 0,2.15792 -3.25866,8.95482 -5.07584,10.58854 -7.28812,5.22349 -15.20536,8.02693 -23.8067,9.53141 3.4209,10.32857 -14.50743,32.53631 -15.67311,23.3961 -12.00906,-2.98031 9.36188,-20.29012 3.59939,-25.71998 -14.36346,2.49957 -20.40259,-9.22908 -29.94839,-12.25718 -5.6322,-2.86648 -9.26048,-2.46362 -14.85189,-1.33666 -0.6465,0.008 0.34072,-4.54295 1.78223,-8.15982 -0.70575,-3.73034 -8.57464,-2.05384 2.55976,-15.42848 0.33198,-0.009 2.94417,-1.76476 5.79224,-3.90517 10.91475,-7.46672 24.63117,-11.39138 35.21645,-18.04068 7.03257,-4.37319 12.40658,1.24278 17.20199,1.11827 8.95502,4.1991 1.7465,2.36655 13.13082,-0.13985 8.93517,-6.77345 7.75585,3.10571 17.4204,-0.0786 0.83716,-12.02243 12.64429,-29.794026 19.35112,-32.246069 1.89864,-7.97982 17.42729,-7.43773 10.43127,2.428723 15.71349,-2.587623 3.41552,1.83677 5.24185,5.460046 18.57622,-2.297376 20.80359,-0.352956 13.10459,4.7526 3.43475,8.11533 -35.2609,8.24724 -31.06665,13.95204 15.19059,0.36382 25.67676,-3.93208 26.01701,7.47837 3.72137,5.94626 31.85619,14.59645 31.06666,10.45748 -5.20748,1.14728 -8.31177,-8.70595 -1.65991,-7.50457 6.44501,4.29475 5.31951,1.57499 10.5099,-3.44215 -11.90736,-13.6452 -2.49084,-16.09403 7.55698,-10.84187 7.80607,-2.17852 14.82036,-6.29128 21.13322,-11.11263 -5.30829,-4.948246 -18.93625,-8.365726 -23.8067,-13.235669 20.5145,-15.01782 -26.03632,-19.72925 -20.09369,-26.6495 0,-2.506485 -3.09269,-3.843155 -10.04687,-4.340275 -9.98725,0.475041 -16.06833,0.595536 -27.51967,-0.7373 -5.96696,-2.32826 -22.75833,2.85769 -29.92218,9.255335 -11.18061,8.40592 -7.4426,16.17447 -0.16599,13.51699 -21.57212,30.609649 -21.41171,-3.78101 -22.16428,-10.45753 3.95259,-4.25447 30.73942,-11.803714 29.45917,-13.134315 -3.81382,-1.263457 -7.69811,-0.752132 -11.71552,-1.2825 -2.44918,-0.339902 -12.96357,2.238695 -14.6859,3.74003 -5.87191,2.764135 -5.56053,8.529595 -10.86809,10.702985 -5.05408,1.39497 -10.1401,7.26648 -12.9124,8.78884 -12.15519,4.93138 -19.12795,8.93862 -24.21732,14.144233 -1.8259,1.90455 -2.69954,2.07054 -11.82035,2.21028 -13.74932,-0.47144 -17.06635,-3.616733 -2.23648,-4.918793 3.03731,-3.37355 14.62868,-5.4679 15.12271,-9.11205 -0.0175,-0.91734 -3.68676,-2.91797 -8.05496,-4.39442 -4.39463,-3.30742 13.80296,-16.04721 15.0703,-17.202835 -1.35117,-1.884414 -20.89435,2.544465 -22.03321,3.712955 -8.59244,11.10773 -2.5088,4.06729 -5.53888,0.62817 -7.63735,-2.14455 -18.44267,2.52792 -23.09906,-5.597425 -8.13371,-8.362802 -29.34593,-5.34821 -38.87707,0.41036 z m 104.91548,-0.05417 c -0.54277,7.689385 -6.70782,1.810292 -11.95141,4.476585 -2.67148,4.88066 5.73485,4.39844 5.67867,8.54245 5.43763,3.7019 14.67875,0.40839 20.17235,-4.8015 3.5608,-3.13918 6.40977,-6.893624 5.67866,-10.730075 -12.03313,1.663394 -13.70497,0.584452 -19.57827,2.51254 z M 831.8176,108.53105 c -4.2773,4.48005 -6.56106,0.0127 -10.48368,-2.26273 -5.15001,-3.3791 -9.27798,1.69714 -13.19197,4.69146 -0.47111,2.11919 16.99656,1.69216 4.6303,3.60814 -4.10611,0.56784 -5.15449,1.05708 -4.54293,2.04429 8.02173,0.7617 13.03973,-1.09098 4.80502,5.57382 0,0.88241 1.04836,1.13575 4.19347,0.95228 7.84353,0.82496 14.42569,3.9238 21.84101,1.44152 5.08689,-1.97865 23.25355,-6.37543 23.76305,-11.38352 -7.20953,-3.24697 -3.36049,-8.09047 -6.29024,-7.58323 -6.11049,-2.5686 -24.05543,4.36541 -24.72403,2.91797 z m 224.0014,2.50692 c 5.83,1.66863 -3.808,6.71374 -7.7203,11.40267 -5.5786,6.72837 -6.3801,11.16171 -6.6951,19.17476 -0.2591,6.50159 4.3792,5.22379 8.5617,8.27336 0.1747,0.57662 2.6209,0.28831 6.727,-0.81249 5.8741,-0.24678 11.2101,-2.72464 16.2497,-3.11889 9.8354,0.0104 8.3556,1.30469 4.805,5.43403 0,1.09207 -4.3682,1.06587 -13.1046,-0.0787 -11.6204,1.16111 -7.0296,8.50232 -14.1529,3.79159 -2.6009,0.37061 -5.1046,4.09824 -4.6303,5.84468 0.1483,6.13885 -3.5921,-0.33451 -3.6693,15.97013 0.5242,4.44682 -0.961,6.96293 -4.0188,6.96293 -0.3747,1.9837 -6.9018,7.47747 -8.0374,2.64712 1.5725,-2.56851 -10.8332,-1.37163 -13.1047,1.25801 -3.601,2.04666 -14.2583,4.388 -14.415,0 -4.17001,-3.62324 -14.79313,5.36555 -14.85193,2.26274 6.95732,-7.07306 7.47332,-1.79541 7.25082,-9.08584 3.2042,-4.74919 1.6547,0.71527 6.72711,0.73384 3.2324,0 3.9314,-0.3145 4.1935,-1.72105 6.9386,-4.24672 10.2176,-5.68747 11.7941,-4.85745 1.0484,-1.07456 3.1451,-7.29488 2.7083,-7.75792 -3.8572,5.05529 -1.8338,-2.2835 -1.3105,-8.04623 4.0537,-2.47519 17.8316,-8.48827 6.6397,-13.70742 -8.5745,-4.69326 -4.5905,-4.62145 -4.5429,-10.72829 1.429,-4.33035 7.9531,-10.12917 12.9298,-10.40508 5.6659,-3.56875 8.0684,-10.60738 10.3964,-13.05217 3.5188,-1.44875 7.7678,-1.04815 11.2706,-0.38433 z m -146.21243,44.45067 c -2.5806,5.03226 -8.2177,1.16806 -10.7458,4.77885 -2.3013,5.2337 -6.0528,3.90976 -7.7754,5.29425 0.1797,3.08648 -2.0511,5.0374 -2.9704,7.94143 8.8657,1.18765 4.848,1.08662 1.7473,5.05837 3.9338,0.58321 7.0491,7.78885 8.5617,8.27341 7.9419,-2.92604 5.4894,0.11981 7.8627,2.75193 2.7484,4.68704 -0.3739,6.52829 -4.3682,6.03686 -5.0206,0.13003 -0.4682,0.36002 -5.5039,5.02346 12.3042,1.05929 -10.1458,7.39103 2.0968,8.2122 4.1934,0.2184 7.3385,2.10549 3.4945,2.10549 -3.3953,1.87851 -9.5593,5.88713 -11.7068,8.78879 2.4227,0.40198 12.9807,-1.72229 13.8035,-2.67332 3.9599,-1.25882 12.7509,-2.47075 17.3855,-2.23649 3.9314,0.20965 11.1826,-2.26275 11.1826,-3.82658 -6.6645,-3.94073 4.228,-5.39209 1.835,-10.39631 -9.7049,-6.87882 -6.1784,2.816 -9.1732,-9.313 -1.5261,-3.69721 -6.2005,-4.4519 -7.2512,-8.10737 -0.7863,-3.33733 -3.0578,-6.24657 -4.8051,-6.28151 -2.2521,-2.09195 1.5436,-7.38206 3.3199,-9.12078 2.0967,-2.16666 0.6115,-3.1364 -4.8924,-3.1364 -1.5941,-0.18933 -6.7573,0.0798 -5.2419,-1.74726 11.5565,-4.59005 7.3082,-14.4792 3.1448,-7.42602 z m -31.5297,28.82992 c -0.1864,7.04183 -8.4134,2.67941 -10.1342,5.67867 0.1644,3.08493 -0.8795,5.89765 1.3104,6.47366 6.0978,2.06154 -9.3924,10.66695 -3.844,10.99916 1.7361,3.7046 9.2468,1.77286 13.7162,-0.54168 4.38,-2.05639 9.3894,-1.76931 10.4837,-5.46897 0.3366,-7.57132 6.1326,-14.42778 3.6692,-17.47282 -4.4877,-2.77075 -12.04,-3.52968 -15.2013,0.33198 z m -457.25466,60.28097 c -3.29272,1.2736 -4.8401,-2.27158 -10.75452,0.54165 -5.80835,-9.87012 -17.83469,-1.34699 -29.53778,-2.31515 13.70645,-10.97745 15.14639,-8.36988 28.09628,-12.25718 14.78545,-3.33234 13.21654,4.16061 12.19602,14.03068 z m 822.48009,45.2633 c 1.5157,8.00219 8.6981,12.40258 9.7847,18.94928 2.5064,10.54984 0.4672,8.76945 -8.9985,10.92048 -5.8127,-0.18709 -20.2432,-7.85503 -21.1421,-13.07837 1.8183,-10.13961 0.227,-8.82212 6.7271,-14.08309 -4.1519,-4.0826 -9.06,-7.72475 -12.6678,-11.57575 -7.1639,-7.78411 -8.2996,-9.44407 -8.2996,-12.03874 0,-2.8743 -2.5335,-6.43003 -5.5039,-7.6531 5.9358,-12.00261 25.2316,-17.01781 29.0048,-17.55144 5.374,-1.96385 8.3373,12.46405 5.3292,11.33111 -4.9422,-0.99832 -11.1001,-2.243 -10.9205,3.98379 -1.4624,1.61526 -5.2084,0.23454 -3.9313,2.56851 2.2609,2.56256 7.8258,5.13441 7.8627,8.78884 13.0519,7.99748 8.5678,5.13918 9.348,12.17854 4.0694,2.49934 2.8352,-1.27032 5.7136,-2.23639 3.6101,-0.0346 8.0593,6.79728 8.4743,7.91517 -5.955,3.52776 -2.9012,0.48211 -6.1155,0.43683 -3.8775,-0.47182 -3.5016,-0.8417 -4.6652,1.14433 z m -84.5684,-23.42231 c 2.6209,2.16662 6.5523,4.78755 8.8237,5.81847 2.8831,1.33666 4.543,2.77818 5.5913,5.04965 1.9221,3.78286 1.3979,5.29425 -2.0967,7.37352 -1.922,1.11824 -4.8924,1.65118 -10.9205,1.85211 -5.0462,0.51247 -22.8536,-4.06815 -24.724,-6.33391 -1.3105,-1.57253 -2.0094,-1.6599 -8.4743,-1.06582 -5.3292,0.48924 -8.1249,1.25802 -11.1826,3.03151 -5.3566,4.65405 -15.0182,4.6963 -21.4042,1.36287 -2.2715,-1.19688 -5.504,-8.02872 -4.4556,-9.14698 2.2352,-3.77172 5.7529,-14.46958 7.1639,-15.17515 3.9649,-2.23956 4.5735,-13.21728 9.8721,-13.29681 1.3105,0 2.1841,0.50672 2.1841,1.28426 3.4148,3.28825 8.9565,1.46867 11.7068,3.16256 -1.4419,0.83521 -6.0809,4.11523 -5.0671,4.39443 8.4636,1.40467 5.524,6.38212 8.5616,6.7445 4.2807,-0.6894 7.9849,-4.18946 12.4057,-4.22843 5.4981,-0.86833 -0.4156,-2.61911 -2.0967,-3.30236 -1.8034,-0.30514 -3.5122,-2.87177 -4.4556,-3.85273 2.0133,-2.14026 4.4489,-4.94378 7.3386,-5.3729 3.8908,-0.74756 7.7807,-2.24337 11.4447,-2.76071 l 4.2808,-0.60283 c -1.7821,1.88385 -6.7415,2.38867 -7.4259,3.93139 1.9409,2.93547 2.1533,2.66456 0.5242,6.36012 -0.6116,2.20158 1.2673,1.99486 -2.9886,2.89664 2.7343,0.74122 10.8711,8.24006 15.3943,11.8766 z M 415.2047,249.57066 c -10.03476,6.20671 -14.41298,21.32529 -21.02853,28.33217 -4.23715,4.24588 -6.60472,4.90112 -6.76198,1.86088 2.78717,-14.75539 12.18543,-29.56814 27.79051,-30.19305 z m 23.44851,0.70767 c 1.2231,-0.0175 2.31515,0.9173 2.9529,2.72573 2.09674,6.03687 -1.79969,9.45282 -4.86617,4.26337 -5.56959,-3.14214 -7.7174,10.16841 -11.26997,12.61536 -3.56722,-3.58042 5.55331,-14.14907 -9.53141,-3.0053 7.22555,-9.98503 8.72349,-7.02976 3.90517,-15.53334 8.09282,-1.07505 14.90286,-0.90308 18.80948,-1.06582 z m 564.08339,2.48115 c 2.8067,14.03026 24.8015,19.98215 36.4309,28.5331 -1.4233,5.40707 2.6184,17.81477 4.0187,17.90962 3.9648,0.96063 3.5689,5.05381 2.6206,7.28618 -0.017,7.75134 6.0794,2.4389 7.8627,9.8896 6.0228,2.05618 7.7434,1.51387 9.1732,7.28614 4.4796,-8.44355 -1.7184,-9.26986 2.0094,-8.73639 -0.3269,-2.68017 5.7602,-6.37533 9.348,-1.5813 4.7995,-4.29438 -18.7654,-14.86698 -14.6772,-21.29936 2.5282,0.58661 8.9845,5.47974 9.5227,-0.1922 -4.5794,-6.46635 14.9374,-3.12687 11.7068,0.13985 -4.8969,4.08032 -3.1648,8.22964 -0.2625,9.49647 10.0101,0.28183 -6.1119,9.72724 5.9408,10.81567 5.1415,1.67177 0.5058,5.84038 0.7863,7.78417 6.9952,-1.83278 4.596,3.21712 5.4162,4.44682 4.2082,1.7585 1.252,-5.7463 4.6302,-4.90987 4.0701,2.66461 13.5569,6.70663 12.8426,-0.11358 -0.3495,-2.55978 6.727,-0.31452 10.7457,3.41593 2.621,2.41128 9.8722,1.49394 12.1436,-1.52885 1.8347,-2.35012 3.3199,-2.60345 5.8534,-1.03966 5.6505,-0.6274 2.1858,-0.84175 4.2809,8.21222 1.0483,1.13574 1.7473,6.98913 1.0483,7.86277 -1.1357,1.26679 -4.2808,10.93799 -5.3292,16.16236 -0.6362,7.94041 -10.7469,10.40216 -15.114,7.05028 -3.2324,-2.83936 -12.8425,-1.81717 -16.6865,1.77349 -8.0905,3.88481 -17.3138,-5.34705 -26.1218,-3.93138 -6.145,-3.7107 -13.9574,-4.9283 -20.2685,-9.36542 -1.3104,-2.08801 -9.61,-0.14853 -13.5414,3.16256 0.8849,10.19594 5.5545,19.46229 -11.8815,13.6026 -3.582,-2.55979 -9.0859,-4.53422 -12.7552,-4.53422 -11.8242,-12.78909 -17.453,-8.31004 -29.35431,-14.00444 -10.29372,1.11741 -16.20712,-10.969 -4.97972,-11.62815 2.02182,0.15801 -1.1581,-8.34569 -1.2231,-8.38694 3.81742,-9.96865 -2.7473,-7.50175 -3.2325,-9.41787 -0.6989,-2.72573 -4.2808,-3.24995 -8.2122,-1.19687 -6.9077,-3.46078 -20.0233,5.70718 -24.462,2.89181 -2.3588,-1.45025 -4.805,-1.34544 -16.5991,0.62899 -9.8722,1.65118 -15.7255,3.68678 -15.7255,5.46028 0,0.49797 -0.6116,0.68143 -1.3105,0.41059 -5.4463,-0.17998 -10.2918,9.5712 -16.4244,4.74387 -4.2617,-0.87074 -9.5354,1.51013 -12.8426,-0.84736 -7.031,-7.1596 4.6619,-9.6242 10.0469,-9.68867 8.1518,2.84953 8.6875,-4.76996 13.6288,-5.84461 1.616,-0.889 10.1596,-9.60889 8.4743,-11.02534 -5.491,-4.51594 6.8097,-16.04976 8.8238,-16.35456 9.7592,-4.03819 10.6721,-6.08405 10.571,-12.77263 0,-4.28956 9.2606,-5.82715 14.5898,-2.43745 6.2795,2.87321 13.5174,-5.31602 18.958,-8.67526 13.9332,-0.58748 8.8653,10.11256 9.348,12.1174 6.1417,-2.19072 11.44562,10.39478 19.39483,11.3049 5.1614,1.99686 14.4326,9.43192 15.9002,13.54145 3.2268,8.55131 -9.1149,9.72419 -14.7645,9.30428 -5.15451,-0.45431 -6.63971,0.0175 -6.63971,2.07923 2.6247,1.6171 11.55391,8.16307 14.67721,8.95483 6.0622,0.22113 0.498,-10.88589 5.5039,-9.36542 4.2343,-0.75169 11.5022,-9.99378 7.3386,-12.72022 -3.3604,-3.33532 2.8747,-6.39176 7.2512,-2.01809 1.3105,1.29298 1.4852,1.25805 2.2715,-0.47178 -2.0571,-9.91157 -13.5774,-8.25947 -14.0656,-15.00911 -12.105,1.23637 -12.9345,-10.52008 -19.65691,-14.65972 -4.3018,-2.8481 -4.6145,-10.95407 -1.3109,-12.20473 0.8535,-0.67639 6.03541,-1.45531 4.28231,-0.30601 z m 765.2217,0.13979 c -7.5041,5.40687 7.663,4.93453 5.5039,13.489 -0.1346,9.25375 -8.5175,3.44204 -4.0187,12.09118 0.5241,-1.65991 4.2808,1.17941 4.8923,3.73919 2.7448,4.80453 7.797,-1.53236 3.1452,-3.65185 -2.5275,-1.0593 5.587,-2.29239 8.1248,-1.258 14.5606,6.38483 0.4074,-4.05313 10.4837,-4.34203 2.9704,-0.026 5.8535,-1.70357 5.8535,-3.32855 -4.0358,-2.25384 -3.0814,-5.62087 0,-7.81036 -2.2366,-2.76807 -3.7614,-0.0296 -4.0189,1.60751 -1.1485,0.53284 -6.7583,0.90976 -11.0952,-0.65523 -7.313,-0.059 -12.1182,-9.17517 -18.8706,-9.88086 z M 460.03119,264.25658 c 3.10142,0 1.87833,2.45493 -2.10548,4.20222 -3.60963,-0.068 -23.93954,3.21954 -14.71203,-1.31046 4.8856,-0.85696 13.30338,-2.85108 16.81758,-2.89176 z m 518.41818,7.37353 c -1.5152,1.98715 -4.677,2.50793 -5.766,4.69146 -0.8215,4.97349 4.8424,8.06731 1.5726,10.23905 -2.0824,1.8057 -6.9693,-1.35686 -3.4946,4.34197 2.0638,3.49461 -1.8434,9.21216 1.0484,11.57575 3.1478,2.1152 3.148,-1.22518 5.6786,-1.28426 1.7473,0.68144 2.2715,-0.8911 2.5336,-8.4044 0.1747,-4.98848 0,-6.15919 -1.3978,-7.15513 -2.3087,-3.19257 0.3196,-6.70715 0.3494,-10.81567 0,-2.29767 -0.1747,-3.21498 -0.5242,-3.18877 z m -537.03546,1.44151 c -4.58808,3.23 -21.63182,12.36357 -27.03043,9.47901 -1.28765,-1.42741 4.19365,-2.90488 8.51799,-5.11104 9.37083,-2.79541 9.99137,-2.59753 17.03599,-4.08864 0.7688,-0.17473 1.24931,-0.27953 1.47645,-0.27953 z m 1336.85339,16.10992 c -0.4107,7.83948 8.8173,14.14092 4.805,20.50433 -7.5636,13.63851 -8.7005,2.25803 -11.0079,3.82654 -3.0135,3.91244 6.0057,3.72576 -0.8737,8.40444 -1.9507,2.0319 1.195,3.66277 0.1748,5.1894 -2.5826,0.79641 -5.115,-0.6112 -7.7754,0.0262 -2.1486,1.09482 -11.3477,0.0687 -11.4447,1.99194 -4.4498,4.37116 -6.153,7.59992 -8.9112,11.98634 -3.3198,2.6285 -5.4101,4.10719 -2.7956,6.9367 4.1589,2.77528 6.1208,5.67517 7.7754,11.43596 1.6727,2.21104 4.3041,3.44993 5.9407,1.74726 2.8482,-5.01147 1.9417,-8.49642 1.398,-14.46747 -0.4996,-4.4707 9.5834,7.13096 7.6006,1.74728 -0.028,-9.80581 7.64,1.75809 6.8143,-8.65778 0.3815,-4.71285 4.3951,3.46767 6.9891,4.04497 3.7043,-4.27017 4.2328,-6.17222 9.6975,-8.43939 6.5067,0.57254 2.3829,-7.39893 5.3288,-1.93949 5.1204,5.41504 0.8196,-6.60552 5.9407,-1.50266 4.1461,2.77111 4.5614,-5.83793 3.1452,-7.47854 -3.1045,-4.32243 -1.1982,-9.37931 -4.3681,-13.10461 -3.186,-3.74954 -0.4433,-3.16997 1.7471,-4.3158 -0.7709,-11.01164 -10.2364,-15.11058 -13.1045,-22.49623 -6.3694,-5.68496 -6.2424,2.82956 -7.0761,4.56061 z m -642.7286,37.34814 c -4.0384,0.64769 -8.2311,3.74691 -12.493,4.12357 -2.4462,0 -1.8347,2.69953 0.961,4.12357 4.3867,1.93262 4.8534,-0.89722 8.649,-2.37628 0.4293,-1.96298 3.0515,-4.94648 2.883,-5.87086 z m -69.1923,2.32388 c 0.2113,3.71663 19.8477,5.42581 17.9096,1.7997 -4.4464,-0.95996 -17.4684,-5.27951 -17.9096,-1.7997 z m 634.2192,83.04835 c -3.6742,11.31787 1.0551,11.23081 3.582,18.2416 2.0133,2.69953 2.6313,-4.29698 3.0577,-5.46902 0.6989,-1.98316 1.3978,-6.67458 1.5726,-10.42251 1.1657,-11.60477 -5.2581,-10.18436 -8.2123,-2.35007 z m -1318.10495,9.22564 c -1.54634,0.008 -2.93543,0.13978 -4.01,0.43679 -1.44151,0.40189 -4.45557,1.18818 -6.7183,1.74729 -5.10494,1.0772 -13.25117,8.01505 -9.11213,8.87618 15.26472,-3.96904 13.98769,-2.33237 25.00359,-1.93948 10.1489,2.79627 17.91426,8.5118 18.86189,15.39353 -0.55912,1.47646 17.85721,1.08334 21.70996,-0.46298 l 2.59471,-1.03093 c -3.53607,-1.8526 -11.42524,-7.67028 -13.29679,-8.24715 -3.69551,-1.10954 -8.9024,-5.52142 -8.9024,-7.53952 0,-0.55912 -0.24462,-0.78629 -0.54166,-0.48924 -6.72486,0.84843 -15.25106,-6.62022 -25.58893,-6.74449 z M 1636.056,445.53704 c -6.3959,-0.84769 -8.5313,10.01669 -4.1061,12.52799 9.3535,3.30419 9.1243,-4.17677 12.3183,-9.71487 1.4798,-5.30365 -5.3585,-3.05329 -8.2122,-2.81312 z m -1199.91014,0.2708 c -3.12764,1.41532 -3.31983,2.78691 -0.41062,2.78691 8.89826,13.17986 -7.72804,4.37612 -9.71487,7.94143 2.12544,7.94586 14.52972,1.58289 17.69121,5.43403 l 1.7997,2.42873 c 5.00449,-7.87233 10.43294,-6.72171 18.78328,-4.44683 5.01319,-6.40363 -5.54061,-9.22288 -6.77072,-10.81567 -2.57981,-2.15943 -18.61056,-4.56734 -21.37798,-3.3286 z m 1272.18654,12.8338 c -1.2656,2.4949 2.2585,18.1787 -0.088,15.07031 -2.7956,-3.45965 -3.1451,-0.58535 -0.8736,6.43873 2.443,4.39314 1.9713,7.81017 3.1451,11.25245 -0.1013,3.04158 3.3918,5.77952 5.2419,9.33922 1.9221,3.67805 3.2325,4.38569 4.6302,2.45493 1.4852,-1.94818 0.7863,-5.62624 -1.3977,-7.53078 4.7262,-4.50368 13.0635,6.76645 13.1042,8.26446 0,2.41125 0.2621,3.24121 0.7863,2.42872 2.5591,-1.73738 7.2384,3.72375 4.805,-1.08333 -1.571,-2.70349 0.2066,-3.83456 0.6989,-6.17665 -1.5789,-3.42895 -0.8484,-2.66658 0.5241,-4.971 0.9611,-0.57658 1.0484,-1.17067 0.2621,-2.62092 -1.223,-2.15788 -2.7082,-2.44619 -2.7082,-0.51544 -2.5766,2.22348 -8.3051,-3.0928 -11.7068,-2.69933 -5.1073,0.32489 -3.3338,-2.84494 0.3495,-2.78691 0,-0.87366 -3.0578,-2.78691 -4.543,-2.81315 -3.0031,-0.95442 -2.413,-6.93514 0.1748,-7.01531 5.0007,-5.53932 -0.1046,-10.56716 -0.1748,-15.83037 0.4828,-3.4673 -10.6043,-6.39082 -12.2305,-1.20563 z m -1306.07505,1.91321 c 5.41734,4.52713 5.62563,1.18794 9.82845,1.14447 6.30726,-4.91577 -18.46747,-7.27834 -9.82845,-1.14447 z m 71.09686,-1.33661 c 1.09226,3.723 15.10066,2.45709 11.13891,-1.03961 -2.67185,-1.95398 -10.68583,-2.64868 -11.13891,1.03961 z m 1265.72149,43.59457 c 7.8654,15.32141 -0.5466,10.16722 9.348,20.31214 1.4508,5.9522 -0.5244,5.34445 -4.1062,3.22375 -0.7487,2.99772 -2.2966,9.22175 -5.2418,5.92327 -2.4052,-2.43711 -4.7567,-1.04156 -6.1155,1.47645 -4.5313,3.15375 -6.869,4.45921 -6.2902,9.88087 4.4575,-0.25058 6.9468,-1.46347 7.6007,-2.40253 3.1916,0.24742 2.9741,-3.61665 4.7178,-2.67332 3.2588,3.65422 0.5298,9.05104 4.0186,11.9252 3.7592,1.53879 8.6078,7.42963 8.8238,4.62156 1.9597,-5.1565 -1.4955,-10.39697 0.5241,-10.89428 2.2606,0.36902 1.6913,2.83975 2.883,4.47304 5.0523,1.23766 0.754,-20.12139 -1.4852,-22.66223 -0.5241,0.297 -0.6115,-0.84747 -0.1745,-2.77819 -4.5165,-6.47167 -5.4767,-5.36616 -5.7665,-17.08843 1.9322,-4.74895 -8.6879,-6.69129 -8.7361,-3.3373 z m -15.1052,3.77412 c -0.2637,1.97526 1.0193,5.0127 0.8736,7.45218 9.1049,5.60262 1.1987,5.8265 3.9314,10.5623 0.9792,1.57042 2.7696,1.78071 3.6693,3.05776 1.6755,-5.01555 5.9355,-2.25321 9.61,-3.5732 1.0925,-6.56796 -2.8526,-11.99548 -8.1249,-10.84188 -2.6762,-0.81821 0.047,-4.33747 -2.6208,-4.36821 -2.7574,-0.1258 -4.774,-1.83896 -7.3386,-2.28895 z m -14.5898,3.40718 c -3.2552,1.71441 -2.3964,5.66832 -4.5429,8.7102 -0.3696,5.72249 -6.6073,6.73856 -9.348,11.87276 -1.2902,1.42228 -0.4808,5.81701 0.8738,3.46838 4.1406,-3.05752 9.5523,-14.50676 14.2402,-15.66438 2.3589,-0.45431 2.7083,-2.20156 0.5242,-2.76072 -2.6858,-1.84551 -1.2221,-4.01954 0,-4.8924 0,-0.46746 0.6017,1.04691 -1.7473,-0.73384 z m -262.2057,12.23098 c -2.9965,4.19232 -0.4166,4.42802 -2.5336,5.79222 2.5063,3.78892 0.7347,9.58704 1.3975,13.62005 1.1159,6.15754 1.9579,12.68255 8.649,9.39162 4.543,-2.2802 5.6787,-3.75666 5.6787,-7.47834 0,-3.55573 -3.4945,-11.89899 -5.766,-13.78608 -3.6123,-3.3732 -3.7135,-7.07513 -7.4256,-7.53947 z m 242.7846,25.96455 c -5.8954,10.3193 -11.5691,11.91112 -19.0453,20.96737 -12.9103,2.48828 -17.3208,18.77549 -23.2389,12.74643 -0.6989,-1.93949 -3.2324,-0.38443 -4.8924,3.05771 -1.4852,2.90924 -1.3978,6.08928 0,13.6288 5.806,12.54479 4.6863,3.42868 6.7271,17.03598 19.8742,2.39275 6.441,11.04664 29.2669,10.39635 0.062,-0.0545 12.0716,-0.22228 12.1437,-0.41064 1.788,-6.74251 0.8335,-15.45005 5.0671,-19.54333 8.4966,-4.5358 0.8273,-15.63524 9.2606,-15.23628 6.2257,-1.27992 -13.3482,-23.23872 -0.7863,-26.53247 7.2398,-9.28823 -5.1433,-12.94503 -4.8924,-14.93924 -2.8217,-13.04339 -5.1091,-6.29002 -9.6101,-1.17068 z m -140.0445,9.505 c 6.6368,10.87933 15.8821,17.18167 23.8503,26.94306 -0.4368,1.81717 2.9704,10.66715 4.3682,11.13892 2.4463,0.83869 8.9112,12.43191 9.4354,16.81759 3.7892,8.09656 10.9575,15.45845 16.8612,21.31683 7.6881,7.59193 7.8628,7.69677 10.5711,6.7445 10.9214,-1.48668 0.4463,6.18968 0.3494,6.71829 1.6505,2.65033 7.8284,0.51445 7.9501,4.31577 6.5113,5.00747 18.8748,2.79103 24.9861,5.73108 2.9974,2.3922 18.8682,2.41961 20.0065,3.44215 5.3474,0.77306 14.0974,1.67392 14.8518,1.55515 3.5988,1.81891 7.3055,3.3061 11.0953,3.27615 9.0279,-5.71487 26.6848,-0.66384 35.208,-2.81316 4.4875,-2.86479 14.9202,-0.50008 18.1718,-3.22371 1.3104,-1.34539 -0.961,-1.61624 -8.9985,-1.11826 -9.508,2.25708 -24.4409,0.42245 -29.1796,1.88703 -0.026,-2.86452 -5.6366,-0.66863 -7.688,-2.42869 -11.2605,5.33253 -23.152,-1.38168 -30.8392,-3.55572 -12.4822,-1.58962 4.3831,-3.76667 4.1935,-5.15446 -0.2622,-0.55916 -2.7957,-0.83 -6.5524,-0.70768 -20.6146,-5.44187 -16.2411,0.10878 -20.1811,-0.30578 -8.5696,2.66852 -13.3003,-7.98653 -20.9673,-6.79691 -9.9354,3.97774 -6.2469,-6.66683 -5.8534,-12.03878 0.4368,-8.91985 1.0484,-10.68462 3.1451,-9.55761 10.1542,1.35646 -0.2784,-4.96754 -1.3105,-9.88086 -6.3682,-2.27735 -6.6335,0.46763 -3.1451,3.71298 -4.5841,1.93854 -9.9647,-8.19393 -13.5414,-10.84191 -3.1298,-2.59676 3.1676,-6.33954 0.087,-9.19943 -0.5739,-4.81144 -4.8219,-3.56618 -7.5133,-7.55699 -1.6026,-0.0821 -6.3742,-5.42317 -6.5523,-5.46024 -7.9141,-2.47002 -14.4783,-8.92777 -19.4822,-13.87342 -4.5974,-3.63361 -5.8257,-10.01732 -12.3183,-10.04686 -4.5707,0.19588 -12.8374,-7.70323 -11.0086,0.96101 z m 199.7142,25.60642 c -8.0397,6.10639 -12.0538,9.30969 -23.6757,4.20221 -3.8701,-3.60501 -4.6036,1.42625 -6.9891,2.15789 -7.3495,1.28109 -6.5726,25.98318 -11.4447,26.67226 -2.7628,9.50292 3.9823,5.18928 4.2809,10.40504 0.526,4.14826 -1.5467,8.05738 -1.2231,12.06499 3.0673,2.38589 7.1265,-0.10243 7.2512,-3.03156 0.1748,-13.65498 0.6989,-17.70869 2.2714,-18.20665 2.3589,-0.74258 2.883,0.23585 1.66,3.32854 8.288,11.40918 6.5558,14.52327 9.5228,17.79607 4.5169,3.09375 5.5365,-5.50253 5.5911,-8.95488 -2.3477,-2.57151 -10.3326,-17.67262 -9.0858,-19.15894 2.0641,-1.7619 11.2623,-6.74861 11.2699,-7.34728 0,-2.35012 -2.1841,-3.1364 -4.8923,-1.7211 -6.315,2.31304 -14.8605,12.0906 -17.4728,-3.81779 0.8736,-4.42935 1.6599,-4.66527 12.7551,-3.90518 8.4662,-0.0782 24.8987,1.03573 21.3169,-9.23437 -0.3495,-0.89113 -0.6116,-1.34543 -1.1358,-1.24931 z m 50.1469,15.55951 c -6.316,5.83756 -12.6609,3.05073 -14.415,4.00999 2.3352,4.78714 14.4164,11.39024 17.735,11.1739 7.6404,5.54702 -7.7424,3.2182 -8.125,4.14105 -0.9179,2.54761 13.308,13.95155 10.7459,9.64498 -1.7411,-3.27469 2.8331,-1.89593 3.6692,-1.50268 1.7473,0.83873 3.9314,2.14045 4.805,2.89176 0.8737,0.75135 2.7956,1.47645 4.1935,1.6337 30.4641,6.02299 26.0445,17.19182 12.4057,28.96994 0,1.27552 7.8627,1.22308 8.8238,-0.0524 9.8483,-4.32354 8.8659,7.0663 17.9097,7.01534 12.3752,0.12113 6.0429,0.007 8.0375,4.58661 1.9777,-3.99854 9.1879,-19.60426 13.6287,-15.91772 3.2411,1.47858 10.0878,3.71989 10.1343,7.95014 4.7919,14.69557 26.9801,12.11375 27.7817,11.60191 -9.2818,-5.48229 -13.1004,-14.14414 -19.2201,-20.3121 -8.9051,-9.67375 2.5253,-5.8256 2.7956,-8.51799 -1.0709,-4.41251 -5.0627,-4.24779 -7.688,-6.49991 -7.9053,-2.56048 -2.6529,-10.47608 -4.9796,-8.46558 -3.5161,-6.94433 -37.3702,-15.74847 -46.7399,-20.69653 -9.4775,-6.91241 -9.4756,2.24855 -14.3277,2.32387 -4.5222,0.17872 -4.8598,8.59458 -9.7848,8.73639 -1.5502,0.38984 -9.6107,-7.40717 -5.5039,-9.61002 2.0212,-6.86164 -6.0377,-11.81087 -11.8816,-13.1046 z m 62.3431,78.62689 c -5.7216,2.09756 -10.3198,22.13468 -10.8331,27.16145 -0.5801,4.5949 -5.2423,25.01877 -12.3185,25.25694 -12.1174,-9.51035 -20.0653,-13.49165 -28.1312,-21.21197 9.0712,-8.60212 6.93,-8.40167 10.9205,-15.45469 -11.7731,-13.75251 -26.5411,-8.19732 -38.178,-4.34201 -7.1823,4.011 -12.1129,19.32553 -15.3761,19.52585 -13.8524,-8.86462 -20.9911,-8.35624 -26.2092,1.19693 -19.3091,8.02748 -12.8314,8.22404 -29.442,31.97522 -11.0283,10.02512 -40.7542,8.24943 -48.7492,22.24287 -3.6887,-5.81291 -4.7788,6.77988 -8.2121,12.17858 -4.1489,28.775 -5.2993,1.68328 -2.621,30.22794 1.4946,9.0845 2.9507,43.75045 -5.7661,44.22368 -11.2643,7.50464 16.8394,15.48972 17.5603,9.61002 11.0972,-6.44606 22.6719,-6.83933 34.7708,-6.22032 12.0112,-12.76358 32.2498,-16.66142 48.0503,-17.88342 9.8749,-4.5533 25.0021,13.39498 23.5009,20.95864 -2.8664,5.90958 18.3386,4.73866 21.2295,11.96888 0.9218,5.37762 -4.5303,13.44992 7.0764,17.99701 10.0489,4.19062 20.4905,-2.00958 24.3746,5.32921 6.0674,-5.73003 30.8332,-8.3646 31.4511,-15.28873 8.2795,-10.6778 18.5372,-26.70955 29.9659,-32.99739 3.0721,-2.4712 10.9456,-10.8397 11.0952,-13.75983 7.1404,-19.11646 16.0364,-33.75961 16.5118,-45.77876 -0.087,-1.24058 -0.1746,-1.31919 -0.5242,-0.33197 -3.6122,6.16084 -12.5135,-10.44123 -11.9688,-14.51993 -10.4849,-7.81329 -2.9997,-24.59174 -17.6476,-26.83824 -9.8633,-1.36878 -2.4385,-14.44792 -6.0281,-19.77047 -3.2015,-15.07619 -9.9376,-20.62847 -9.8721,-21.86725 -2.0342,-15.50574 -0.6703,-11.91089 -3.9311,-23.29124 -0.1747,-0.17474 -0.4367,-0.27954 -0.6988,-0.29701 z m -620.2848,9.55761 c -4.0454,10.01385 -11.2621,16.19796 -13.8908,21.31663 -3.5828,3.98878 -13.3266,10.14036 -18.0844,10.18664 -3.2009,0.94245 -1.9709,4.54996 -3.6693,7.28614 -3.516,14.4389 4.9632,17.82377 -4.7176,31.23267 -3.8839,3.70705 -2.9203,30.98782 4.805,31.37241 4.3527,3.18181 8.3742,-0.66718 12.1436,-0.87363 7.0927,-1.53949 9.5246,-17.6251 12.231,-23.69315 2.8366,-11.03812 9.019,-20.6466 10.8331,-31.92278 0.8773,-17.46668 16.0136,-19.25292 0.6112,-44.80031 -0.087,-0.12229 -0.1748,-0.15722 -0.2621,-0.10481 z m 767.0127,169.53883 c -0.8738,0 -1.6601,0.43683 -1.6601,0.961 1.2822,3.79582 0.4124,20.88146 -1.0488,23.763 -4.077,7.892 -9.0959,8.58216 -14.8518,13.1046 3.5099,2.42492 9.2202,9.06216 0.8736,10.2216 -5.3123,1.52934 -5.0906,-8.43761 -19.045,2.09674 -8.0495,7.61563 -19.9454,14.32227 -27.5196,17.56017 -10.9558,4.294 -22.2527,10.43045 -31.1889,16.42448 -3.4073,2.0967 -3.3199,4.9797 0.1747,4.9797 7.1406,1.60684 3.0246,6.6268 17.298,0.0874 6.4967,-2.89549 11.8138,-7.6223 15.813,-11.35735 3.7566,-3.4072 7.7753,-5.32921 13.1918,-6.11549 5.4163,-5.66998 16.2139,-10.51108 22.8021,-17.4728 7.0767,-3.36961 6.3589,2.89748 15.0266,-4.01875 4.9921,-1.68943 14.1865,-16.49123 18.9579,-13.97825 5.105,-1.37511 18.5599,-17.03244 6.1156,-10.9205 -5.0279,3.92339 -9.1563,-2.29056 -6.6397,-5.67861 3.663,-7.62236 -6.8541,0.44138 -4.805,-3.75665 3.218,-5.77399 1.485,-11.34352 -3.4945,-15.90026 z m -202.0732,47.87547 c -1.9988,3.95089 -7.6102,19.24702 -2.7083,21.31682 9.8858,1.90634 19.3041,-11.45272 22.8021,-16.86126 2.6209,-4.28083 1.5725,-5.24184 -4.2809,-3.58192 -4.0324,1.6837 -13.0862,1.40608 -13.0173,-3.05774 0.5218,-2.71797 -2.6568,1.99918 -2.7956,2.1841 z" />
  </g>
</svg>
