<svg xmlns="http://www.w3.org/2000/svg" width="640" height="480" viewBox="0 0 640 480"><title>Flag of Kosovo</title><path fill="#244AA5" d="M0 0h640v480H0z"/><path fill="#D0A650" d="M253.02 224.83s1.2-.8 1.62-.9c.44-.1 1.97-.6 1.97-.6s1-.5 1.52-.5c.55 0 1.62.6 1.97 1.1.3.5 2.04 1.38 2.04 1.38s1.2.4 1.42 0c.23-.4.76-.68 1.3-.68.56 0 .64-.5.64-.9s.23-.9.64-1.4c.43-.5 1.3-.8 1.3-.8s1.2-.5 1.3-1.2c.12-.7 1.3-1.2 1.97-1.3.65-.1 0-.4 1.75-.2 1.74.2 1.97-.4 2.06-.92.12-.5 0-1 1.1-.9 1.1.1 1.63.1 1.63-.5s.98-.92-.75-1.4c-1.74-.5-1.62-.1-1.74-.9-.12-.8 0-.7-1.2-.8-1.18-.1-.54-.7-.62-1.3-.12-.6-.44-.92-.64-1.32-.23-.4-.87-.4-.87-1 0-.57-.1-.9-.74-.9s-.87 0-.87-.58c0-.6.1-1.1.74-1.1s1-.5.87-1.1c-.1-.57-.1-1.88-.1-1.88l.86-1s2.6-2.12 2.84-2.52c.23-.4 1.1-.7 1.5.1.44.8.64 1.02 1 1.4.3.4 1.3.1 1.5-.3.23-.4.3-1.87.9-2.67.57-.77.98-1.17 1.12-1.8.15-.65.44-1.18 1.13-1.18s1.13-.9 1.13-1.44.3-1.03 1.13-1.16c.85-.14 1.28-.64 1.57.13.3.77.58.77 1.13 1.04.58.28 1.42.65 1.83.28.43-.4.63-1.04 1.27-.64.6.4 1.04 0 1.2-.78.13-.77.28-1.8.28-1.8s.14-.54 1.13-.54.3-.64.85-1.04c.57-.4.57-.78 1.27-.54.7.27 1.82-.32 1.27-.96-.6-.64-1.83-1.68-1.14-2.48.7-.77 1-2.08.3-2.2-.7-.14-1.7.12-1.83-.65-.14-.77-.43-1.3.43-1.44.84-.12 2.26-.12 2.7-.52s1.82-.64 1.82-1.82.44-1.3.58-1.94c.14-.64.14-2-.43-2.64-.58-.64-1.42-1.58-1.57-1.95-.14-.4-.7-1.04-1.56-1.3-.84-.27-1.56-.4-1.56-1.05 0-.64.57.14.57-1.57 0-1.67-1.1-1.94-1.1-1.94l-1.72-1.04s-3-.8-3.82-.8c-.82 0-1.74-.85-.82-1.38.93-.54 1.16-1.5.82-2.24-.35-.75-.58-1.28-1.86-1.6-1.27-.32-1.62-.64-1.04-1.4.58-.74.7-1.27 1.4-.74s1.84.75 2.77.32 1.27-.74 1.74-.32c.46.43 1.04.86 1.73.22s1.97-.75 2.55-.43c.58.32 1.97.2 2.43 0 .47-.2 1.4-.96 1.4-1.4s.57-1.16 1.15-1.48c.58-.32 1.28-1.4 1.86-1.4.57 0 .8-.63.8-1.05 0-.43.46-1.28.57-1.6.12-.32 1.28-.78 2.1-.1.8.63 1.84.84 1.84.84s1.17.22 1.75 0c.58-.2 1.4-.42 2.2.1.8.54 1.97.54 1.97.54s.23-.85.23-1.28c0-.42.23-1.17-.23-1.5-.46-.3-1.04-.74-.12-1.38.93-.64.93-.53 1.86-.53s1.5.1 2.2.1 1.85.65 1.85 1.3c0 .63.47 1.06 1.05 1.38.58.32 1.28.64 1.04 1.17-.24.54-.24.96.46.86.7-.1.92.33.92.86s.23.85.93 1.07c.7.2 1.05.64 1.05 1.17s-.1.85.12 1.4c.23.52.92 1.37.92 1.37s1.27 1.5-.35.75-1.97-1.07-2.55-.96c-.58.1-.93.43-.93.43s-.8.2-1.4.2c-.57 0-1.14 1.17-.22 1.4.93.2 1.28.4 1.28 1.16 0 .75-.35.53-.82 1.07-.45.53-.8.2-1.6.2-.82 0-1.05.65-1.05 1.3 0 .63.35.52.7 1.06.35.52.92.63 1.5.1.58-.54 1.04-.86 1.4.1.34.96.8.96 1.5.96s.92 0 1.5-.32 1.28 0 1.4.85c.1.85.7.95 1.27 1.27.58.32.92.54 1.04 1.07.1.53.46.75 1.04.43.58-.32 1.5-.54 1.85-.1.35.42.93 1.27.93 1.27l.12 1.07 2.2.75s.23.54.23.96.34.65.92.55c.58-.1 1.62 0 1.62 0s.82-.32.82-.96c0-.65.33-.87.9-.87.6 0 1.87.43 2.2-.2.36-.65 1.4-.86 2.2-.54.82.3 2.9 1.16 2.9 1.16s-.22.1.47 1.17c.7 1.07 1.97 1.07 1.97 1.07s.12.96.35 1.38c.22.43 1.26.64 1.84.22.58-.43 1.4-.96 2.08-.96.7 0 1.16 0 1.16-.43s-.7-.74-.7-1.38c0-.64.7-.64.82-1.28s.8 0 1.27.32 1.04.86 1.04 1.28.94 1.92 1.52 2.14c.58.2 2.08.32 2.55-.22.46-.53 1.62-.74 1.5.54-.1 1.28-.35 1.38.47 1.8.8.44.92 1.93.23 2.36-.7.42-.93.53-.93 1.28s-.23 1.6.35 2.02c.57.43.9.75.9 1.18s.7 2.34.7 2.34.36 1.92.24 2.35-.35 1.17.7 1.07c1.04-.1 1.27-.1 1.27.74s.36 1.18-.22 1.5c-.58.32-.93 1.38-.35 1.6.58.2 1.04.53 1.16.96s1.03 1.17 1.6.74c.6-.42.7-.64 1.17-.74.46-.1.8-.43.35-.96-.47-.54-.58-1.07-.12-1.4.46-.3.7-1.38.7-1.38s.7-.96 1.5 0 .93.64 1.5.64c.6 0 .82.54.82 1.07s1.16.43 1.16 1.28c0 .85.23 2.88.23 2.88s0 1.17.7 1.6c.7.43.58.53.23 1.06s-.23 1.38-.23 1.8.23.65-.35 1.07c-.58.43-.8.96-.46 1.6.34.64.22 1.07 1.15 1.82.92.73.8 1.05.8 1.6s.94 1.27.94 1.8.68 1.17 1.26 1.28c.58.1 1.27 1.07 1.27 1.6s.12 1.92.12 1.92-.12.32.58.32 1.16.75 1.4-.1c.22-.86.9-.97 1.38-1.18.47-.2 1.4-.64 1.86-.32.46.32 1.04.32 1.5.32.47 0 2.67.1 2.67.1s.58-.1.93.75c.34.85 1.4 1.8.8 2.23-.57.43-.57 1.28.12 1.28.7 0 1.4 0 1.4.55s.1.96.7.64c.57-.33.9-.44 1.15 0 .23.4.7.4 1.27.73.58.32.8.1 1.16-.32.34-.4 1.73-.84 1.73-.84s1.85-.43 2.54-.2c.7.2 1.62.63 1.62.63s.47 1.05.24 1.7c-.24.63-.47.53-.24 1.5.24.95-.23 1.05-.7.95-.45-.1-.92-.1-.92.74 0 .85-.46 1.06-.46 1.8s0 .65-.46.97c-.47.32-.58.85.1.96s.48.85.48 1.28-.12 1.4-.12 1.4.12.53-.7.53c-.8 0-1.5-.1-1.62.42-.1.54-1.04 1.4-.23 1.92.8.54.58.86.12 1.07-.46.2-.8 1.28.1 1.6s.82.64.25 1.07c-.58.43-1.74.75-1.74 1.4 0 .63-.23.63-.93.74-.7.1-1.04.96-.23 2.03.8 1.06 1.04.85 1.62.85.58 0 .58-.85.58-.85s1.97.1 2.55.1c.58 0 1.4 0 1.85-.32.47-.32 1.74-.85 1.74.1 0 .97.23.86.8 1.3.6.42.7.1 1.17.74.47.63.6.1.93-.65.35-.75 1.05-1.5 1.63-.64.58.86.58.65 1.27.65.7 0 .93.32.93.85s.7.53 1.5.43c.8-.1.93.42 1.27.96.35.52.47.4.93.4.46 0 .93 0 1.27-.4.35-.44.82-.97 1.28-.33.47.64 1.4.53 1.63-.22.23-.74 1.27-1.38 1.85-.53.58.85 1.04.85 1.62.96.58.1 1.4.1 1.74.64.35.53 1.5 1.4.7 2.03-.82.64-1.74 1.5-1.05 1.7.7.22 1.15.43 1.6.96.48.55 1.98.76 2.68.87.7.1 1.27.2 2.08-.43.8-.64 1.62-.64 1.5.2-.1.87.36 1.83.36 1.83s.58 1.38.58 1.9c0 .55-.12.66.92 1.3 1.04.63.93 1.06 1.74.42.8-.65 1.04-.97 1.04-1.5v-1.7s1.16-.22 1.62-.54c.47-.32 2.32-1.28 2.78-.86.46.43 1.04.32 1.5.1.47-.2 1.4-.2 1.86-.2.46 0 1.27.1 2.2-.64.93-.75.93-.54 1.5 0 .6.53.6 1.17.24 1.6s0 1.38.8 1.38 1.05.43 1.05.96c0 .54.12 1.28.23 1.7.12.44.12.65 1.4.97 1.27.32 1.03 1.07 1.27 1.6.23.53.23.96-.47.96s-.92.32-1.04.85c-.12.54-1.16.75-1.16.75l-1.04-.2s-.7 0-1.04.4-1.05 1.3-.58 2.04c.46.75.46 1.17 0 1.5-.47.3-.7 1.9-1.16 1.6-.46-.33-1.04.1-1.5.3-.47.23-.35 1.72.57 2.25.93.54 1.16 1.28 1.16 1.28l1.03 1.6s-.34.33-.58.86c-.23.53-.92 1.6-.23 1.8.7.23.35 1.4-.34 1.4-.7 0-1.5-.32-1.63.53-.1.84-.46.63-1.15.52-.7-.1-2.44-.53-2.9.32-.46.86-.58 1.18-1.4 1.07-.8-.1-.45 1.3-.22 1.83s1.04 1.28 1.04 1.28.7.54.7 1.6-.47.97-.93.22c-.47-.75-1.4-.64-1.52.2-.1.87-.23 2.14-1.04 2.14-.8 0-1.16.22-1.5.65s-.93 1.18-.93 1.6-.1.86-.68.97c-.58.1-.7 1.28-.7 1.28s-1.4.2-1.5.74c-.12.53.1 1.38-1.05 1.5-1.16.1-1.85.84-2.2 1.37-.35.54-.46.96 0 1.5.47.53.8 2.24 1.4 2.56s1.03.42.92 1.28c-.13.86-.82 1.5.1 1.5.93 0 1.5.2 1.16.96-.35.75-.35.85-1.04 1.17s-1.04.32-1.04 1.18.23.86-.35 1.18-.58.75-.58 1.4c0 .63-.23.4-.93 1.16-.7.75-1.62.75-2.2.53-.57-.2-.7-.2-.8-.85-.12-.64-1.16-.64-1.74-.53-.58.1-1.4.73-1.4.73s-1.04.64-.57 1.18.24 1.4-.57 1.3c-.8-.12-2.66.84-3.24-.12-.6-.96-2.2-1.6-2.45-.32-.23 1.28.7 1.17.58 2.45-.1 1.3-.34 1.3-.8 1.72-.47.43-.47.75-.6 1.28-.1.53-.22 1.7.6 2.13.8.43 1.15 1.6 1.15 2.24 0 .64 0 1.28.8 1.28.82 0 1.52-.1 1.63-.85.13-.75 1.75-1.17 1.87.32s.1 2.24.7 2.88c.57.64 1.03 1.5 1.5 1.8.46.33 1.24 3.05 1.24 3.05-1.12.24-1.4 1.7-2.13 2-.4.16-.84.03-1.22.3-.3.2-.3.6-.7.8-.83.37-.7-.94-1.7-.46-.93.42-1.02 1.5-2.35 1.03-.7-.24-1.13-2.96-1.33-3.6-.1-.37-.84-1.5-1.07-1.84-.78-1.18-2.34 0-2.84-.35-.78-.54-.43-1.44-1.62-1.55-2.4-.16-.7 1.47-1.7 1.84-1.95.7-1.95-1.8-3.4-.67-.54.43.87.7.53 1.44-.3.62-1.7 1.56-1.62 2.28.1.98 1.18 1.28 1.5 2.1.87 2.2-.58 3.7-2.75 2-1.22-.96-1.45-2.74-3.33-2.6-.43.02-.58.47-1 .52-.45.03-.8-.4-1.26-.26-.68.24-.07.72-.22 1.12 0 0-.93.77-1.07.98-.5.7-.34 1.3-1.1 1.87-.63.5-1.12.2-1.82.94-.72.78-.78 1.92-1.7 2.67-.47.38-.8-1.1-1.36-.12-.1.13-.18.26-.24.4-.14.3-.17.42-.02.74 1.2 2.35-1.34 3.23-2.12 4.88-.35.7.6 1.34.23 1.87-.26.4-1.4 1.5-1.47 1.73-.1.24-.2.78-.4.96-.2.22-.9.1-.96.43-.06.36.72.66.92.9.26.3-.1.7-.03.77 1.3 1.3.52.9 1.2 2.05.08.16.48-.13.63.3.14.4-.32.37-.15.82.04.14.97 1.34.97 1.36.06.4-1.77 1.23-2.17 1.23-1.1.03.95-2.27-.84-2.27-.78 0-.84 1.8-1.04 1.98-.1.08-.82 0-1 0-1.15 0-1.9 1.44-2.36 1.57-.3.12-.93-.15-1.42-.07-.47.08-1.02.53-1.45.53-.3 0-.44-.18-.68-.32-.52-.3-1.47-.42-2.05-.6-.32-.12-.93.4-1.13.26-.38-.24.26-.9-.6-1.4-.12-.04-.76-1.6-.73-1.67.3-1 .62-2.1.47-3.17-.17-1.1-1.88-2.03-2.34-2.9-.35-.68-.67-2.44-1.34-2.9-.73-.47-1.4-1.4-1.77-2.12-.12-.22.23-.6-.03-.96-.3-.4-.84-.56-1-1.1-.1-.42 0-1.8-.48-2.1-.55-.32-4.08-.75-4.95-.83-.46-.03-.8-.03-1.16-.37-.13-.14-.36-.7-.48-.7-.35-.02-.75.16-1.1.2-.26.02-.7-.17-.93 0-1.13.76-1.42 1.75-2.5 2.58-1.1.82-2.3.8-3.4 1.76-.7.6-1.17 2.08-1.87 2.77-.28.28-.75 0-.86.12-.58.72-1.4 1.15-1.97 1.82-.12.13-.1.4-.23.5l-1.25.32c-.32.06-.93-.02-1.2.06-.57.18-.54.8-2.5 1.2-.15.02-.4.16-.53.24-.24.16-.4.4-.64.56-.15.1-.58-.08-.84-.06-.5.08-.8.5-1.25.56-1.04.14-2.72-.48-3.53-.16-.5.2-1.86 1.7-2.35 1.87-.32.1-.56-.03-.9-.16-.18.2-.58 1.87-.73 2.24 0 .04-2.23 1.9-2.4 2.12-.3.32-.4.66-.75 1-.23.25-.6.46-1 .46-.45 0-1.15-.34-1.58-.42-.84-.14-3.36-.24-4.1-.08-.8.16-.56 2.4-2.5 2.6-1.13.14-2.17.36-3.33.46-.1 0-.8-.48-1.5-.3-.26.1-1.1.94-1.1 1.2v.5c0 .07.23.36.2.4-.43.5-1.4 1.3-1.73 1.88-.1.16-.2.35-.35.46-.26.18-1.6.7-1.7.93-.33.8.92 1.56.8 1.88-.34 1.04-1.73 2.02-2.17 2.98-.17.4.46 1.74.44 2.2-.16 1.24-.6 2.84-.54 4.07 0 .24.18 1.5.26 1.63.15.24.47.37.67.58.2.22 1.73 3.2 1.78 3.52.3 2.22-2.92 1.44-1.07 3.66.3.34.54.72.85 1 .4.4 2.78 2.14 2.8 2.33.07.32-1.9.64-2.25 1-.92.9-1.7 2.57-2.6 3.5-.55.6-1.04-.05-1.77 1.3-.26.52 0 1.67-.32 2-.45.47-.83-.17-1.3.04-.2.07-.3.66-.5.82-.53.45-5.16 2.9-5.6 2.7-.23-.12-.5-.9-.52-1.13-.06-.28-.35-.86-.58-1.05-1.2-1-3-1.2-4.17.03-.3.32-.32.8-.7 1.12-.63.53-1.35 1-1.96 1.54-.12.1-.47.5-.6.48-.47-.05-1.6-1.33-1.9-1.68-.5-.6-2.02-2.08-2.16-2.77 0-2.37-1.85-4.85-2.63-7.17l1.16.02c1.3-.88.93-3.04 3.27-2.18.3-.4.26-.83.8-1.12.2-.1.6-.22.7-.4.8-1.2 1.7-5.8.9-6.96-.72-1.07-1.47-1.02-2.05-2.78-.18-.48.14-1.04 0-1.57-.12-.42-.9-2.95-1.02-3.14-.14-.2-.63-.48-.66-.6-.03-.22-.2-2.97-.12-3.18-.78-2.14-3.4-3.5-3.56-3.74-.33-.5-.65-1.17-1-1.73-.4-.66-.4-1-.63-1.64-.1-.3-.52-.54-.55-.86-.06-.56 1.53-1.73 1.48-2.72-.03-.32-1.02-1.28-.8-1.8.2-.57 1.2-1.82 1.17-2.44-.06-.82-1.6-2.6-1.8-3.5-.08-.42.62-.76.44-1.06-.2-.37-1.8-1.84-2.07-2.26-.2-.32.6-.75.03-1.34-.52-.53-.1-.34-.24-.8-.17-.5-.75-.96-.98-1.5-.2-.44-1.6-5.46-1.56-5.75-.23-.35-.64-.64-.84-1-.2-.33-.3-1-.46-1.27-.03-.02-1.57-.47-1.86-.93-.23-.37-.3-1.6-.7-2.2-.2-.3-.5-.25-.75-.47-.2-.16-.17-.45-.3-.64-.48-.64-1.4-.05-2.04-2.4-.84-.58-1.62-1.1-2.35-1.8-.14-.14-.23-.3-.4-.38-.58-.24-1.45-.32-1.94-.75-.3 0-1.82-.06-2-.17-.17-.1-.35-.77-.46-.8-.8-.16-2.14-.08-2.84-.67-.55-.47-.66-2.8-1.65-2.47-.12-.07-.27-.12-.4-.1-.65-.82-2.85-.93-3.75-1.46-.26-.16-1.1-.03-1.1-.27.2-.45.14-.82.17-1.28-.5-.5-.8-1.05-1.16-1.4-.83-.18-.52-.26-1.04-.58-1.45-.1-1.6.13-2.52.98-.23.22-.7.27-.98.43-.5.27-.64 1.15-1.33.75-.24-.14-.4-.35-.56-.5-.4-.36-.64-.17-.84-.8-1.2-.65-4.46 1.56-5.24.02-.55-.3-.96.08-1.42-.4-.23-.24.64-2.9-1.74-4 .55-.43 1.13-.72 1.65-1.12.15-.3-.03-.75-.03-1.04 0-.46.3-1.34.2-1.66-.08-.32-.43-.58-.55-.96-.14-.37.03-.85-.17-1.25-.14-.1-.58-.37-.75-.37-.6-.5-1.28-.83-1.77-1.44-.1-.14-.2-.38-.35-.48-.43-.32-1.85-.75-1.8-1.42.04-.2.33-.24.4-.45.1-.26.04-.6.25-.84.66-.9 2.14-.5 1.9-2.2-.1-.74-.63-1.38-.77-2.18-.25-.18-.28-.5-.5-.7-1.46-.12-1.26-1.62-1.78-1.96-1.54-1.04-2.72-.4-1-2.46.22-.66-1.5-1.73-1.84-2.1-.6-.6-.32-1.82-.55-2.46-.1-.32-1.13-.88-1.45-1.33-.08-.13-.34-.83-.5-.9l.04-.22c.32-.24.15-.72.06-1.04-.2-.17-.64-.12-.78-.25-1.4-1.26-3.07-1.82-4.9-2.54-.5-.17-.34-.57-.75-.76-.35-.16-2.8-1.25-2.98-1.2-.3-.08-.5-1.17-.7-1.52-.17-.32-.87-.9-.87-.93.06-1.03-.57-1.16-1.36-1.7.06-.13-.08-.45-.08-.6 0-.14.52-1.9.6-2.14.15-.37.64-.72.55-1.15-.1-.65-.2-1.7-.42-2.28-.78-2.08-1.7-1.8-1.22-4.53.12-.57-.08-.9.35-1.4-.05-.03.22-.3.24-.35.26-.24 1-.64 1.13-.82.44-.6.7-1.92 1.25-2.35.4-.32 1.56-.93 1.76-1.2.18-.2.44-.88.3-1.15-.4-.24-.82-.13-1.22-.18-.15-.03-.67-.4-1.07-.48-.13-.14-.33-.3-.33-.48l-.18-.17c-.47-.06-1-.35-1.4-.48-.52-.22-1.24-.24-1.73-.54-.93-.52-1.97-2-2.87-2.2-1.2-.27-2 .1-3.15.16-.76.05-.76-.4-1.37-.6-.8-.23-.2.44-2.05-.15-.23-.17.1-.8.14-1.05-.3-.08-.63.08-.98 0-1.54-.38-.97-1.76-1.37-2.67-.17-.2-.8-.16-1.1-.2-.1 0-.12-.15-.1-.2l.16-.1c.25-.4-.68-1.42-.65-1.55.06-.32 1.94-.62 2.2-.64.1-.25-.17-.47-.2-.7-.06-.54.3-1.23.46-1.7l-.05-.17c-.52-.3-.7-.72-1.16-1.07.02-.24.34-.4.4-.64.9-2.48 2.3-.5 3.5-2.8.12-.2.47-.77.58-1.15l.23-.05c.25.05.56.24.8.16.17-.24.55-.32.84-.4l.43.1c2.26-.47 1.74-1.3 3.04-2.23.36-.24 1.37-.35 1.83-.5.5.2 1.2.98 2.12 1.32.66.27 2.95.75 3.33.96.5.27.58.9 1 1.15 1.3.7.56-.48 1.8-.24 1.28.27 2.32 1.3 3.5 1.8.2.1.7 0 .93-.07.4-.08 2.42-.45 2.62-.37.23.08.58.3.8.35.3.05.53-.56.74-.54.86.15.9.5 2.05.4.07 0 .62-3.27 1.17-3.43.32-.08 1.2.78 1.45.83.43.1-.03-.67-.06-.72-.12-.27-.73-2.27-.7-2.45.03-.1.58.16.84.08.64-.2 1.5-.37 1.97-.87.06-.06 1.04-1.47 1.07-1.52.06-.23-.26-.8-.1-.98.13-.16.68-.37.94-.64.38-.37.44-1 .96-1.28 2.06-.2 2.78-1.8 4.63-2 .12 0 .52-.08.6-.05l.4.6c.1.17 1.35.92 1.55.86.17 0 .26-.3.43-.36.38.05 1.42-.6 1.54-.9.02-.06-.24-.38-.13-.6.1-.15 1.4-1.1 1.6-1.22.46 0 .95-.1 1.38.05.26.1.3.5.58.56.32.03.9-.1 1.13-.05.26.05.38-.48.7-.5l.06.05z"/><path fill="#FFF" d="M351.87 73.4L368 123l-42.2-30.66h52.16L335.76 123l16.1-49.6zM414.65 84.46l16.13 49.62-42.2-30.66h52.16l-42.2 30.66 16.1-49.62zM474.56 106.27l16.12 49.6-42.2-30.65h52.16l-42.2 30.66 16.12-49.6z"/><g><path fill="#FFF" d="M288.13 73.4L272 123l42.2-30.66h-52.16l42.2 30.67-16.1-49.6zM225.35 84.46l-16.13 49.62 42.2-30.66h-52.16l42.2 30.66-16.1-49.62zM-165.44 106.27l16.12 49.6-42.2-30.65h52.16l-42.2 30.66 16.12-49.6z"/></g></svg>