<?xml version="1.0" encoding="UTF-8"?>
<svg width="122px" height="119px" viewBox="0 0 122 119" version="1.1" xmlns="http://www.w3.org/2000/svg" xmlns:xlink="http://www.w3.org/1999/xlink">
    <!-- Generator: Sketch 40.2 (33826) - http://www.bohemiancoding.com/sketch -->
    <title>100k_godaddy</title>
    <desc>Created with Sketch.</desc>
    <defs></defs>
    <g id="Page-1" stroke="none" stroke-width="1" fill="none" fill-rule="evenodd">
        <g id="Our-partners" transform="translate(-991.000000, -3183.000000)">
            <g id="Content" transform="translate(376.000000, 150.000000)">
                <g id="Support-of-$100k+" transform="translate(1.000000, 2965.000000)">
                    <g id="100k_godaddy" transform="translate(614.000000, 68.000000)">
                        <rect id="Rectangle-2-Copy" fill="#FFFFFF" x="0" y="0" width="121.875269" height="119"></rect>
                        <g id="Layer_1" transform="translate(1.000000, 33.000000)">
                            <g id="Group">
                                <path d="M7.87589,30.968135 C4.96342,31.98756 4.45401,33.15884 4.598605,34.90003 C4.7432,36.64848 6.775395,37.372665 8.81364,37.226255" id="Shape" fill="#FFFFFF"></path>
                                <path d="M8.32601,37.47975 C6.43478,37.47975 4.51209,36.714425 4.363865,34.919995 C4.21564,33.136455 4.73836,31.816345 7.797845,30.745495 L7.953935,31.19138 C5.1546,32.17027 4.697825,33.24354 4.834555,34.88067 C4.970075,36.517195 6.98533,37.120985 8.797305,36.99091 L8.831185,37.4616 C8.6636,37.473095 8.494805,37.47975 8.32601,37.47975 L8.32601,37.47975 Z" id="Shape" fill="#000000"></path>
                                <path d="M3.933105,16.749425 C10.004885,13.98155 17.606105,13.354165 22.84964,17.433075 C28.09378,21.510775 29.942055,31.690505 29.942055,34.17161 C29.942055,34.75362 25.717945,35.189825 24.55211,36.209855 C23.01783,37.552955 27.247385,42.54602 27.17539,44.949685 C27.17539,44.949685 27.684195,48.300175 24.480115,49.028595 C20.920295,49.835665 18.50816,46.98914 15.59448,49.028595 C15.113505,49.36437 13.701435,50.339025 12.1,51.212645 L3.933105,16.749425" id="Shape" fill="#FFFFFF"></path>
                                <path d="M11.94149,51.56778 L3.658435,16.615115 L3.835095,16.53465 C7.06035,15.0645 10.45803,14.28768 13.661505,14.28768 C17.2788,14.28768 20.505265,15.310735 22.994235,17.246735 C28.38176,21.435755 30.178005,31.770365 30.178005,34.17161 C30.178005,34.61205 29.49012,34.80686 27.93406,35.20616 C26.751285,35.509265 25.27932,35.886785 24.707595,36.38712 C23.97615,37.02721 24.942335,38.929935 25.87706,40.769135 C26.643595,42.2774 27.43554,43.83709 27.411945,44.937585 C27.449455,45.24795 27.76708,48.522815 24.533355,49.258495 C24.075975,49.36195 23.62162,49.412165 23.144275,49.412165 C22.092785,49.412165 21.151405,49.16472 20.24088,48.92514 C19.43381,48.71218 18.67151,48.511925 17.91647,48.511925 C17.11666,48.511925 16.42212,48.73759 15.730605,49.220985 C14.53331,50.05649 13.317865,50.81637 12.21374,51.41895 L11.94149,51.56778 L11.94149,51.56778 Z M4.207775,16.884945 L12.257905,50.85509 C13.273095,50.28639 14.374195,49.592455 15.459565,48.834995 C16.223075,48.300175 17.026515,48.04063 17.915865,48.04063 C18.732615,48.04063 19.52335,48.24875 20.36067,48.46897 C21.242155,48.700685 22.153285,48.94087 23.144275,48.94087 C23.585925,48.94087 24.0064,48.894285 24.429295,48.798695 C27.38472,48.12654 26.96243,45.11364 26.94307,44.98538 L26.940045,44.964205 L26.94065,44.942425 C26.970295,43.96172 26.200735,42.44801 25.45719,40.983305 C24.394205,38.891215 23.389905,36.914075 24.39844,36.031985 C25.05426,35.45784 26.522595,35.080925 27.8179,34.748175 C28.54632,34.56123 29.535495,34.30713 29.707315,34.135915 C29.68977,31.719545 27.93043,21.681385 22.70565,17.619415 C20.300775,15.748755 17.17353,14.75958 13.662715,14.75958 C10.58387,14.75958 7.318685,15.49405 4.207775,16.884945 L4.207775,16.884945 Z" id="Shape" fill="#000000"></path>
                                <path d="M14.87937,9.77922 C15.19881,10.551805 14.984035,11.17677 14.531495,11.708565 C14.28889,11.919105 13.77706,11.929995 13.61492,12.257905 C13.53506,12.701975 13.836955,13.01234 14.26348,13.190815 C15.26657,13.575595 16.249695,12.93611 16.688925,12.19922 C17.975155,9.87844 15.49163,7.79603 15.19155,5.495215 C15.005815,3.9809 16.356175,2.43815 16.350125,1.058145 C16.340445,0.546315 14.812215,0.525745 14.306435,1.35399 C13.548975,3.00322 12.26093,4.761955 13.15754,6.3041 C13.662715,7.46691 14.342735,8.508115 14.87937,9.77922" id="Shape" fill="#F58220"></path>
                                <g id="Shape" fill="#F58220">
                                    <path d="M19.49794,9.806445 C19.723605,10.618355 19.50036,11.315315 19.22327,12.10968 C18.839095,13.153305 20.108385,13.58467 20.663775,12.98451 C23.019645,10.43141 21.901605,8.978805 20.974745,7.59033 C20.02671,6.16979 19.86215,5.919925 19.353345,4.827295 C19.160955,4.418315 18.47791,3.37106 19.643745,2.27964 C20.061195,1.888205 20.035785,0.782265 19.49794,0.312785 C17.92373,-0.791945 17.40464,1.244485 16.843805,3.0855 C16.115385,5.477065 18.871765,7.37374 19.49794,9.806445"></path>
                                    <path d="M3.548325,11.8701 C4.096455,12.501115 4.090405,13.162985 3.82723,13.810335 C3.664485,14.087425 3.22949,14.800115 3.179275,15.163115 C3.244615,15.61021 3.582205,15.265965 4.043215,15.30166 C5.11588,15.35006 5.84672,14.433485 6.030035,13.59435 C6.516455,10.98559 3.502345,9.795555 2.490785,7.7077 C1.834965,6.330115 2.62812,4.438885 2.18526,3.130875 C2.014045,2.648085 0.55781,3.112725 0.339405,4.057735 C0.143385,5.86366 -0.52151,7.939415 0.814935,9.11735 C1.66254,10.05994 2.63659,10.833735 3.548325,11.8701"></path>
                                    <path d="M7.900695,9.21415 C8.17113,10.01154 7.98842,10.71939 7.75731,11.529485 C7.432425,12.594285 9.03991,12.55375 9.57715,11.937255 C10.79199,10.29831 10.090795,8.35505 9.249845,6.918175 C8.40829,5.43169 7.16804,4.055315 7.02647,2.449645 C7.014975,1.997105 7.96906,1.974115 8.416155,1.76176 C8.965495,1.596595 10.10592,1.015795 9.542665,0.577775 C7.907955,-0.43681 5.325815,0.783475 4.869645,2.65474 C4.27856,5.082605 7.13658,6.82077 7.900695,9.21415"></path>
                                </g>
                                <path d="M26.37316,44.89342 C26.362875,44.89342 26.351985,44.892815 26.341095,44.891605 C20.86161,44.152295 19.16035,41.69418 16.584865,37.97464 C16.51045,37.867555 16.527995,37.70723 16.63508,37.632815 C16.742165,37.5584 16.880105,37.572315 16.95452,37.680005 L16.97267,37.70602 C19.5657,41.451575 21.130835,43.71246 26.404015,44.42394 C26.533485,44.441485 26.624235,44.560065 26.60669,44.689535 C26.59096,44.80751 26.48932,44.89342 26.37316,44.89342 L26.37316,44.89342 Z" id="Shape" fill="#000000"></path>
                                <path d="M5.732375,18.17541 C6.10203,17.84871 7.20797,14.57082 7.126295,14.324585 C7.04341,14.078955 8.560145,17.602475 8.642425,17.724685 C8.723495,17.84871 11.71401,18.012665 11.9185,18.298225 C12.1242,18.583785 10.07446,19.198465 9.83004,19.52698 C9.583805,19.854285 12.73888,23.66397 12.57432,23.908995 C12.40976,24.15644 8.31391,21.370415 8.067675,21.533765 C7.82265,21.69893 4.954345,24.647095 4.832135,24.647095 C4.708715,24.647095 5.691235,20.96083 5.569025,20.674665 C5.44621,20.38729 3.39768,20.838015 3.234935,20.470175 C3.06977,20.101125 5.732375,18.17541 5.732375,18.17541" id="Shape" fill="#FFD520"></path>
                                <path d="M6.907285,21.93488 C6.3646,22.407385 6.01007,23.08317 5.50308,23.601655 C5.3845,23.712975 5.420195,23.492755 5.420195,23.445565 C5.621055,22.721985 5.703335,22.04499 5.84551,21.254255 C5.904195,21.00197 6.05847,20.79627 6.164345,20.52886 C6.24602,20.32437 6.24602,20.104755 6.129255,19.94806 C5.927185,19.788945 5.62045,19.89966 5.420195,20.010375 C4.87751,20.277785 4.28824,20.263265 3.709255,20.10536 C3.899225,19.78955 4.216245,19.695775 4.4407,19.53787 C4.75893,19.38057 5.101965,19.222665 5.383895,18.95586 C5.502475,18.86269 5.691235,18.86269 5.73903,18.75137 C5.92658,18.547485 6.16374,18.391395 6.31741,18.074375 C6.87159,17.1941 6.907285,16.092395 7.29509,15.117135 C7.80329,16.092395 7.99205,17.240685 8.428255,18.341785 C8.46395,18.49969 8.699295,18.27947 8.78218,18.49969 C9.17059,18.184485 9.632205,18.27947 10.06841,18.27947 C10.303755,18.27947 10.61049,18.184485 10.84644,18.49969 C10.33945,18.75137 9.86755,19.06718 9.359955,19.222665 C9.206285,19.332775 8.970335,19.74236 9.17059,20.00977 C9.242585,20.214865 9.47793,20.26266 9.595905,20.419355 C10.315855,21.112685 10.92872,21.93488 11.471405,22.81576 C11.27115,22.972455 11.11748,22.76857 10.964415,22.61127 C10.1398,21.934275 9.27707,21.698325 8.428255,20.938445 C7.875285,20.45021 7.426375,21.491415 6.907285,21.93488 L6.907285,21.93488 Z M6.907285,23.02025 C7.213415,22.61127 7.56734,22.10791 7.95696,22.139975 C9.08952,22.265815 10.021825,23.14609 11.047905,23.807355 C11.62568,24.18427 12.13267,24.751155 12.793935,24.64044 C12.959705,24.64044 13.03049,24.326445 13.19505,24.12256 C13.265835,23.964655 13.14786,23.75956 13.07768,23.697245 C12.522895,23.241075 12.41702,22.50116 12.0153,21.982675 C11.43692,21.239735 10.92993,20.529465 10.376355,19.78955 C11.04851,19.22327 11.82654,19.113765 12.57069,18.79977 C12.72315,18.735035 12.84173,18.43677 12.79454,18.18509 C12.758845,18.027185 12.641475,17.91768 12.57069,17.869885 C11.980815,17.822695 11.47322,17.666 10.92993,17.44578 C10.25838,17.30421 9.597115,17.492365 8.937665,17.193495 C8.665415,17.067655 8.630325,16.61088 8.548045,16.31201 C8.239495,15.16372 7.88678,14.064435 7.41488,13.091595 C7.33139,12.91917 7.06035,12.825395 6.872195,12.9833 C6.70703,13.13939 6.564855,13.43705 6.63564,13.766775 C6.872195,14.89631 6.318015,16.0446 6.045765,17.08278 C5.963485,17.24008 5.80921,17.35019 5.69184,17.445175 L5.69184,17.66479 C5.149155,18.121565 4.60647,18.450685 4.01599,18.79856 C3.473305,19.127075 3.001405,19.694565 2.45993,20.10415 C2.17558,20.30864 2.1417,20.92332 2.377045,20.98624 C3.32024,21.238525 4.21685,21.207065 5.11467,21.095745 C5.14976,22.200475 4.86662,23.288265 4.488495,24.232065 C4.406215,24.435345 4.28824,24.639835 4.21685,24.79774 C4.052895,25.158925 4.37052,25.58424 4.559885,25.47292 C5.50308,24.908455 6.187335,23.997325 6.907285,23.02025 L6.907285,23.02025 Z" id="Shape" fill="#000000"></path>
                                <path d="M4.72505,34.00705 C4.37052,33.936265 4.096455,33.667645 3.9325,33.230835 C3.595515,32.333015 3.802425,30.979025 4.39351,30.21128 C5.426245,28.87181 7.13537,27.47547 11.98021,27.270375 L12.000175,27.74167 C7.348935,27.9389 5.733585,29.2457 4.7674,30.49926 C4.222295,31.206505 4.124285,32.39654 4.374755,33.06446 C4.44675,33.25685 4.58227,33.49643 4.81701,33.54362 L4.72505,34.00705 L4.72505,34.00705 Z" id="Shape" fill="#000000"></path>
                                <path d="M17.048295,30.999595 C19.569935,30.999595 21.614835,29.340685 21.614835,27.29276 C21.614835,25.24544 19.569935,23.58532 17.048295,23.58532 C14.52484,23.58532 12.47994,25.24544 12.47994,27.29276 C12.47994,29.340685 14.52484,30.999595 17.048295,30.999595" id="Shape" fill="#BED73D"></path>
                                <path d="M17.048295,31.235545 C14.399605,31.235545 12.24399,29.466525 12.24399,27.292155 C12.24399,25.117785 14.399,23.348765 17.048295,23.348765 C19.69638,23.348765 21.850785,25.117785 21.850785,27.292155 C21.850785,29.466525 19.696985,31.235545 17.048295,31.235545 L17.048295,31.235545 Z M17.048295,23.82127 C14.659755,23.82127 12.716495,25.37854 12.716495,27.29276 C12.716495,29.20698 14.659755,30.763645 17.048295,30.763645 C19.43623,30.763645 21.378885,29.206375 21.378885,27.29276 C21.378885,25.379145 19.43623,23.82127 17.048295,23.82127 L17.048295,23.82127 Z" id="Shape" fill="#000000"></path>
                                <path d="M28.82704,30.14231 C31.64634,30.14231 33.93203,28.95167 33.93203,27.483335 C33.93203,26.01379 31.64634,24.82315 28.82704,24.82315 C26.00774,24.82315 23.72205,25.85044 23.72205,27.483335 C23.72205,29.11502 26.00774,30.14231 28.82704,30.14231" id="Shape" fill="#BED73D"></path>
                                <path d="M28.82704,30.37826 C25.68225,30.37826 23.4861,29.18762 23.4861,27.483335 C23.4861,25.77784 25.68225,24.586595 28.82704,24.586595 C31.82179,24.586595 34.16798,25.85891 34.16798,27.483335 C34.16798,29.10655 31.82179,30.37826 28.82704,30.37826 L28.82704,30.37826 Z M28.82704,25.058495 C26.00532,25.058495 23.958,26.078525 23.958,27.48273 C23.958,28.886935 26.00532,29.905755 28.82704,29.905755 C31.46605,29.905755 33.695475,28.796185 33.695475,27.48273 C33.695475,26.16867 31.46605,25.058495 28.82704,25.058495 L28.82704,25.058495 Z" id="Shape" fill="#000000"></path>
                                <path d="M21.616045,27.292155 C21.616045,27.292155 23.746855,26.626655 23.72205,27.48152" id="Shape" fill="#BED73D"></path>
                                <path d="M21.686225,27.51782 L21.545865,27.067095 C21.815695,26.983 23.190255,26.583095 23.727495,26.99026 C23.88419,27.109445 23.96405,27.28187 23.958,27.48878 L23.4861,27.474865 C23.487915,27.407105 23.46553,27.384115 23.44254,27.36657 C23.18844,27.174785 22.24464,27.342975 21.686225,27.51782 L21.686225,27.51782 Z" id="Shape" fill="#000000"></path>
                                <path d="M39.988685,20.45747 C42.124335,18.441005 44.727045,18.63521 46.712655,20.45747 C47.384205,21.038875 47.00487,21.928225 46.44948,22.315425 C45.04709,23.250755 43.6447,21.812065 42.2411,22.315425 C40.9827,22.743765 40.398875,24.72756 39.98808,26.205575 C38.994065,29.785965 38.40782,35.039785 41.392285,36.866885 C42.065045,37.295225 42.9429,37.0623 43.20547,36.322385 C43.644095,35.19285 44.345895,33.67672 43.498895,32.938015 C43.20547,32.743205 42.65008,32.392305 42.65008,32.198705 C41.94828,30.718875 43.351275,29.903335 44.200695,29.589945 C45.718035,28.96861 47.968635,30.135655 47.15007,32.58772 C47.15007,32.743205 46.56564,32.938015 46.56564,33.13222 C46.56564,34.454145 46.1857,35.54375 46.010855,36.866885 C45.89409,37.801005 45.16446,38.189415 44.75548,38.92933 C44.2013,39.47383 43.4995,39.317135 42.943505,39.670455 C40.281505,41.193845 37.17604,38.92933 36.620045,34.999855 C35.829915,29.589945 36.356265,23.83337 39.988685,20.45747" id="Shape" fill="#000000"></path>
                                <path d="M51.35966,31.16597 C48.290495,30.24032 51.446175,24.902405 52.08808,25.800225 C53.6635,28.077445 53.45901,31.789725 51.35966,31.16597 L51.35966,31.16597 Z M50.42554,35.032525 C51.212645,35.618165 52.728775,35.58005 53.372495,34.68102 C54.91948,32.492735 56.000615,29.891235 55.387145,26.84143 C55.123365,25.526765 54.715595,24.19879 53.95632,23.02509 C52.847355,21.384935 50.80548,20.761785 50.104285,22.87021 C49.754595,23.963445 48.699475,25.097215 48.231205,27.266745 C47.588695,30.20039 48.435695,33.470415 50.42554,35.032525 L50.42554,35.032525 Z" id="Shape" fill="#000000"></path>
                                <path d="M65.57474,34.927255 C65.311565,34.927255 65.01935,22.542905 65.01935,21.256675 C67.26874,21.607575 68.9337,24.3331 69.576815,26.787585 C70.161245,28.92989 69.16844,31.07159 68.291795,32.90232 C67.82292,33.87516 66.68552,35.238225 65.57474,34.927255 L65.57474,34.927255 Z M63.20919,38.15977 C64.5535,38.822245 65.925035,38.353975 67.15258,37.497295 C70.894505,35.043415 73.76039,28.42411 70.894505,23.16545 C69.7807,21.14112 68.64088,19.699405 67.15258,18.37506 C66.042405,17.401615 64.698095,17.050715 63.588525,17.050715 C62.946015,16.895835 61.83584,17.050715 61.60231,18.37506 C61.60231,18.53115 61.48615,19.037535 61.60231,19.192415 C61.83584,19.699405 62.332545,20.205185 62.332545,20.67285 C62.71188,25.30715 63.062175,29.82408 62.97566,34.264175 C62.94541,34.927255 62.215175,35.20011 61.98104,35.705285 C61.719075,36.67994 62.47835,37.80887 63.20919,38.15977 L63.20919,38.15977 Z" id="Shape" fill="#000000"></path>
                                <path d="M79.07229,36.25644 C78.83876,36.99696 74.698745,36.139675 74.727785,34.4245 C74.78647,31.074615 77.751575,31.737695 79.455255,30.88162 C80.102,32.944065 79.33849,34.267805 79.07229,36.25644 L79.07229,36.25644 Z M79.60227,40.967575 C81.21399,42.408685 81.38944,37.23049 81.507415,34.85284 C81.7113,31.230705 83.11611,27.920145 81.94725,24.6114 C80.628955,20.952965 76.254805,22.043175 74.142145,23.950135 C73.878365,24.29922 74.142145,27.454295 75.31524,26.907375 C76.87251,26.206785 77.95788,25.155295 79.68939,25.662285 C80.334925,25.817165 80.16008,27.570455 79.89509,28.114955 C79.8358,28.23172 75.698205,26.907375 73.32237,31.15266 C72.59032,32.438285 72.269065,35.20495 73.05738,36.60613 C74.229265,39.21489 76.57727,39.059405 78.661495,39.565185 C79.07229,39.565185 79.103145,40.53984 79.60227,40.967575 L79.60227,40.967575 Z" id="Shape" fill="#000000"></path>
                                <path d="M85.75391,30.87194 C85.461695,28.457385 87.857495,27.328455 89.405085,27.328455 C89.405085,29.5482 88.850905,31.611855 89.11287,33.870925 C87.565885,34.61205 85.9584,32.74139 85.75391,30.87194 L85.75391,30.87194 Z M82.803325,31.41644 C82.803325,34.261755 84.6153,35.58852 86.04552,36.87717 C87.12605,37.85243 88.26587,37.423485 89.405085,37.423485 C90.102045,37.619505 90.102045,40.073385 91.35379,39.87797 C91.789995,39.87797 92.48998,39.288095 92.48998,38.935985 C91.644795,32.351165 91.500805,25.61328 93.191175,19.46043 C93.308545,18.720515 92.6376,18.136085 92.344175,17.94067 C91.644795,17.55105 90.80203,18.3315 90.39305,19.266225 C89.956845,20.589965 90.24664,22.615505 89.54847,23.39535 C87.30271,25.808695 82.803325,26.54861 82.803325,31.41644 L82.803325,31.41644 Z" id="Shape" fill="#000000"></path>
                                <path d="M96.562235,30.87194 C96.270625,28.457385 98.66461,27.328455 100.2122,27.328455 C100.2122,29.5482 99.65681,31.611855 99.921195,33.870925 C98.372395,34.61205 96.766725,32.74139 96.562235,30.87194 L96.562235,30.87194 Z M93.611045,31.41644 C93.611045,34.261755 95.422415,35.58852 96.85324,36.87717 C97.93377,37.85243 99.072985,37.423485 100.212805,37.423485 C100.91037,37.619505 100.91037,40.073385 102.162115,39.87797 C102.59832,39.87797 103.299515,39.288095 103.299515,38.935985 C102.452515,32.351165 102.307315,25.61328 104.00071,19.46043 C104.116265,18.720515 103.444715,18.136085 103.1525,17.94067 C102.452515,17.55105 101.607935,18.3315 101.20077,19.266225 C100.76517,20.589965 101.05557,22.615505 100.356795,23.39535 C98.109825,25.808695 93.611045,26.54861 93.611045,31.41644 L93.611045,31.41644 Z" id="Shape" fill="#000000"></path>
                                <path d="M105.304485,21.99659 C105.88831,20.82773 107.43711,20.671035 107.904775,21.99659 C108.605365,23.942875 108.049975,26.24127 108.342795,28.53785 C108.4886,29.12349 108.78142,28.53785 108.92662,28.343645 C109.803265,25.85165 110.38709,22.97064 112.11013,21.60697 C112.84097,21.060655 114.680775,21.37223 113.980185,23.16424 C112.49128,26.981185 110.35926,30.681365 110.09548,35.27634 C109.92124,38.003075 107.901145,45.97153 106.47032,48.38548 C105.41883,50.10489 102.84879,50.301515 102.11795,48.38548 C101.679325,47.218435 101.271555,45.50447 102.26315,44.724625 C102.994595,44.140195 103.9874,45.113035 104.13381,46.24378 C106.17992,44.140195 106.386225,39.95057 106.912575,36.64001 C107.23383,34.536425 105.88952,32.78374 105.74432,30.876175 C105.59791,28.733265 105.30509,26.8257 105.15989,24.684605 C105.099995,23.749275 104.86465,22.580415 105.304485,21.99659" id="Shape" fill="#000000"></path>
                                <path d="M121,21.695905 C121,22.12001 120.89352,22.51568 120.68177,22.880495 C120.470625,23.245915 120.182645,23.53571 119.816015,23.745645 C119.4512,23.957395 119.05674,24.06206 118.63324,24.06206 C118.21216,24.06206 117.818305,23.957395 117.451675,23.745645 C117.08686,23.53571 116.79888,23.24652 116.58592,22.880495 C116.373565,22.51568 116.268295,22.12001 116.268295,21.695905 C116.268295,21.27543 116.37417,20.88097 116.58592,20.513735 C116.79888,20.14771 117.08686,19.857915 117.451675,19.64798 C117.818305,19.43623 118.21216,19.331565 118.63324,19.331565 C119.05674,19.331565 119.451805,19.43623 119.816015,19.64798 C120.18204,19.857915 120.470625,20.14771 120.68177,20.513735 C120.89352,20.88097 121,21.27543 121,21.695905 L121,21.695905 Z M120.53415,21.695905 C120.53415,21.17258 120.348415,20.724275 119.976945,20.354015 C119.60608,19.98194 119.157775,19.79681 118.633845,19.79681 C118.108705,19.79681 117.662215,19.98194 117.290745,20.354015 C116.91988,20.724275 116.732935,21.17258 116.732935,21.695905 C116.732935,22.221045 116.91988,22.66814 117.290745,23.04082 C117.66161,23.41229 118.108705,23.596815 118.633845,23.596815 C119.157775,23.596815 119.605475,23.411685 119.976945,23.04082 C120.34902,22.66814 120.53415,22.221045 120.53415,21.695905 L120.53415,21.695905 Z M117.5636,20.42601 L118.69253,20.42601 C119.01197,20.42601 119.243685,20.489535 119.38707,20.620215 C119.530455,20.74908 119.60245,20.92211 119.60245,21.138095 C119.60245,21.3081 119.54679,21.45451 119.437285,21.57793 C119.328385,21.703165 119.155355,21.7921 118.919405,21.848365 C119.016205,21.885875 119.086385,21.925805 119.133575,21.966945 C119.196495,22.026235 119.26365,22.11275 119.333225,22.2277 C119.33746,22.23617 119.472375,22.48301 119.7416,22.967615 L118.999265,22.967615 C118.759685,22.4818 118.59815,22.189585 118.51587,22.0946 C118.4348,21.99901 118.35252,21.95182 118.270845,21.95182 C118.25209,21.95182 118.22668,21.954845 118.193405,21.960895 L118.193405,22.96822 L117.5636,22.96822 L117.5636,20.42601 L117.5636,20.42601 Z M118.193405,21.495045 L118.46626,21.495045 C118.64776,21.495045 118.77481,21.46661 118.84862,21.40732 C118.92364,21.34924 118.961755,21.27301 118.961755,21.180445 C118.961755,21.088485 118.92606,21.01286 118.854065,20.954175 C118.783885,20.896095 118.662885,20.865845 118.49046,20.865845 L118.193405,20.865845 L118.193405,21.495045 L118.193405,21.495045 Z" id="Shape" fill="#000000"></path>
                            </g>
                        </g>
                    </g>
                </g>
            </g>
        </g>
    </g>
</svg>