<?xml version="1.0" encoding="UTF-8"?>
<svg width="122px" height="119px" viewBox="0 0 122 119" version="1.1" xmlns="http://www.w3.org/2000/svg" xmlns:xlink="http://www.w3.org/1999/xlink">
    <!-- Generator: Sketch 40.2 (33826) - http://www.bohemiancoding.com/sketch -->
    <title>100k_keen</title>
    <desc>Created with Sketch.</desc>
    <defs></defs>
    <g id="Page-1" stroke="none" stroke-width="1" fill="none" fill-rule="evenodd">
        <g id="Our-partners" transform="translate(-684.000000, -3342.000000)">
            <g id="Content" transform="translate(376.000000, 150.000000)">
                <g id="Support-of-$100k+" transform="translate(1.000000, 2965.000000)">
                    <g id="100k_keen" transform="translate(307.000000, 227.000000)">
                        <rect id="Rectangle-2" fill="#FFFFFF" x="0" y="0" width="121.875269" height="119"></rect>
                        <g id="Layer_1" transform="translate(0.000000, 41.000000)">
                            <g id="Group">
                                <path d="M57.98683,0 C43.340385,0.25047 30.129,1.78959 15.39483,4.68996 C12.123595,5.33368 3.207105,7.13537 1.478015,10.21724 C-0.107085,13.0438 -0.03388,15.703985 0.02299,18.70902 C-0.03388,21.714055 -0.10648,24.37303 1.478015,27.19959 C3.20771,30.28267 12.1242,32.08315 15.39483,32.727475 C30.129,35.62724 43.33978,37.16757 57.98683,37.41804 C72.63267,37.16757 85.84466,35.62724 100.57762,32.727475 C103.84946,32.083755 112.76595,30.28267 114.494435,27.19959 C116.079535,24.37303 116.006935,21.714055 115.94946,18.70902 C116.006935,15.703985 116.079535,13.044405 114.494435,10.21724 C112.76595,7.134765 103.84946,5.33368 100.57762,4.68996 C85.84466,1.78959 72.63267,0.25047 57.98683,0 L57.98683,0 L57.98683,0 Z" id="Shape" fill="#231F20"></path>
                                <path d="M57.98683,1.926925 C51.77832,2.03401 45.586145,2.384305 39.407885,3.00443 C31.466655,3.80061 23.59621,5.039045 15.766905,6.580585 C13.47577,7.03131 11.190685,7.530435 8.95642,8.214085 C7.621185,8.62246 3.872,9.88812 3.1581,11.160435 C1.798665,13.584065 1.897885,15.989545 1.948705,18.67272 L1.94931,18.709625 L1.948705,18.745925 C1.897885,21.429705 1.798665,23.833975 3.1581,26.25821 C3.872,27.530525 7.621185,28.796185 8.95642,29.203955 C11.190685,29.887 13.47577,30.387335 15.766905,30.83806 C23.596815,32.378995 31.466655,33.618035 39.40849,34.414215 C45.58675,35.033735 51.77953,35.384635 57.98683,35.49172 C64.19413,35.384635 70.386305,35.033735 76.564565,34.414215 C84.5064,33.618035 92.37624,32.378995 100.20615,30.83806 C102.49668,30.387335 104.78237,29.887605 107.016635,29.203955 C108.35187,28.796185 112.101055,27.530525 112.814955,26.25821 C114.173785,23.833975 114.07517,21.429705 114.02435,18.745925 L114.02314,18.709625 L114.02435,18.67272 C114.07517,15.989545 114.173785,13.584065 112.814955,11.160435 C112.101055,9.887515 108.35187,8.62246 107.016635,8.214085 C104.782975,7.53104 102.49668,7.03131 100.20615,6.580585 C92.37624,5.039045 84.5064,3.801215 76.56517,3.00443 C70.387515,2.384305 64.193525,2.03401 57.98683,1.926925 L57.98683,1.926925 L57.98683,1.926925 Z M57.98683,3.46786 C51.833375,3.574945 45.685365,3.92282 39.561555,4.5375 C31.67538,5.328235 23.83942,6.56183 16.06396,8.091875 C13.82546,8.532315 11.589985,9.01934 9.40654,9.68726 C8.45548,9.97766 5.03723,11.15862 4.501805,11.913055 C3.316005,14.02874 3.44487,16.30112 3.489035,18.640655 L3.49085,18.708415 L3.489035,18.774965 C3.44487,21.116315 3.311165,23.37962 4.49757,25.4947 C5.04207,26.26547 8.456085,27.43796 9.407145,27.728965 C11.59059,28.396885 13.826065,28.88391 16.064565,29.32435 C23.84063,30.854395 31.675985,32.08799 39.562765,32.878725 C45.68597,33.493405 51.834585,33.841885 57.987435,33.94897 C64.140285,33.841885 70.28769,33.49401 76.410895,32.878725 C84.29828,32.087385 92.13303,30.854395 99.9097,29.323745 C102.147595,28.883305 104.383675,28.39628 106.56712,27.728965 C107.517575,27.438565 110.93643,26.257605 111.47125,25.50317 C112.65705,23.387485 112.528185,21.116315 112.48402,18.776175 L112.48281,18.70781 L112.48402,18.64126 C112.528185,16.29991 112.662495,14.035395 111.47609,11.92092 C110.93159,11.149545 107.517575,9.977055 106.56712,9.686655 C104.383675,9.018735 102.147595,8.53171 99.909095,8.09127 C92.133635,6.561225 84.29828,5.32763 76.4115,4.536895 C70.28769,3.92282 64.13968,3.574945 57.98683,3.46786 L57.98683,3.46786 L57.98683,3.46786 Z" id="Shape" fill="#FFDD00"></path>
                                <path d="M31.540465,8.666625 C25.35555,11.28446 19.170635,13.90169 12.98572,16.519525 C12.64571,18.073165 12.85262,19.6262 12.98572,21.17984 C19.170635,23.62525 25.35555,26.070055 31.540465,28.515465 C32.64822,27.823345 33.374825,26.98905 33.26653,25.840155 C28.117375,23.567775 22.96822,21.29479 17.81846,19.02241 C22.79519,16.577 27.77192,14.132195 32.74865,11.686785 C32.877515,10.527605 32.474585,9.520885 31.540465,8.666625 L31.540465,8.666625 L31.540465,8.666625 Z M9.18874,13.240425 C6.8002,17.21104 7.715565,20.898515 9.102225,24.54606 C10.31041,24.80137 11.518595,24.80137 12.72678,24.54606 C11.430265,20.568185 10.634085,16.698 13.331175,13.58588 C11.94996,13.02323 10.56935,12.780625 9.18874,13.240425 L9.18874,13.240425 L9.18874,13.240425 Z M34.662265,18.62795 L34.662265,21.77032 C34.662265,26.193475 35.8402,28.197235 40.7528,29.137405 C45.00716,29.951735 49.150805,30.340145 53.72884,30.701935 C55.5269,30.843505 55.44704,30.058215 55.44704,28.393255 C55.44704,27.288525 54.68837,27.04955 53.79418,27.00357 C51.765615,26.89951 49.813885,26.76278 47.78532,26.57402 C45.79971,26.389495 43.813495,26.1965 41.826675,26.00774 C40.084275,25.727625 39.116275,25.01554 38.922675,23.8733 L38.954135,18.627345 L38.922675,13.38139 C39.116275,12.238545 40.084275,11.52767 41.826675,11.24695 C43.813495,11.05819 45.79971,10.8658 47.78532,10.681275 C49.813885,10.492515 51.765615,10.355785 53.79418,10.251725 C54.68837,10.205745 55.44704,9.96677 55.44704,8.86204 C55.44704,7.197685 55.5269,6.41179 53.72884,6.55336 C49.150805,6.91515 45.006555,7.30356 40.7528,8.11789 C35.8402,9.05806 34.662265,11.06182 34.662265,15.484975 L34.662265,18.62795 L34.662265,18.62795 L34.662265,18.62795 Z M40.38738,16.692555 L50.151475,16.692555 C50.61551,16.692555 50.99545,17.05132 50.99545,17.489945 L50.99545,19.76414 C50.99545,20.202765 50.616115,20.562135 50.151475,20.562135 L40.38738,20.562135 C39.923345,20.562135 39.543405,20.202765 39.543405,19.76414 L39.543405,17.49055 C39.54401,17.051925 39.923345,16.692555 40.38738,16.692555 L40.38738,16.692555 L40.38738,16.692555 Z M62.44689,21.87196 L62.44689,21.809645 L62.44689,21.680175 L62.44689,21.66747 L62.44689,21.553125 L62.44689,21.468425 L62.44689,21.42668 L62.44689,21.30205 L62.44689,21.27422 L62.44689,21.17863 L62.44689,21.084855 L62.44689,21.057025 L62.44689,20.934815 L62.44689,20.90033 L62.44689,20.813815 L62.44689,20.72125 L62.44689,20.695235 L62.44689,20.575445 L62.44689,20.54701 L62.44689,20.45505 L62.44689,20.37519 L62.44689,20.33526 L62.44689,20.21547 L62.44689,20.208815 L62.44689,20.09568 L62.44689,20.045465 L62.44689,19.974075 L62.44689,19.88635 L62.44689,19.853075 L62.44689,19.73026 L62.44689,19.60805 L62.44689,19.57901 L62.44689,19.482815 L62.44689,19.429575 L62.44689,19.356975 L62.44689,19.28377 L62.44689,19.229925 L62.44689,19.140385 L62.44689,19.100455 L62.44689,19.001235 L62.44689,18.969775 L62.44689,18.863295 L62.44689,18.83728 L62.44689,18.72838 L62.44689,18.70176 L62.44689,18.59528 L62.44689,18.56382 L62.44689,18.463995 L62.44689,18.42346 L62.44689,18.33513 L62.44689,18.281285 L62.44689,18.207475 L62.44689,18.134875 L62.44689,18.08103 L62.44689,17.986045 L62.44689,17.957005 L62.44689,17.833585 L62.44689,17.711375 L62.44689,17.6781 L62.44689,17.58977 L62.44689,17.518985 L62.44689,17.46877 L62.44689,17.355635 L62.44689,17.348375 L62.44689,17.228585 L62.44689,17.188655 L62.44689,17.108795 L62.44689,17.018045 L62.44689,16.989005 L62.44689,16.869215 L62.44689,16.842595 L62.44689,16.749425 L62.44689,16.66291 L62.44689,16.628425 L62.44689,16.50682 L62.44689,16.478385 L62.44689,16.38461 L62.44689,16.28902 L62.44689,16.26119 L62.44689,16.135955 L62.44689,16.094815 L62.44689,16.010115 L62.44689,15.89577 L62.44689,15.883065 L62.44689,15.7542 L62.44689,15.69128 L62.44689,12.345025 C62.584225,11.418165 63.039185,10.74601 64.191105,10.631665 C67.91367,11.178585 71.36459,11.72732 75.36606,12.27424 C76.48773,12.427305 78.256145,12.87561 79.10012,11.834405 C79.80555,10.96381 79.174535,9.63402 76.92333,9.16817 C73.215285,8.39982 69.50603,7.630865 65.79738,6.862515 C61.293155,5.92053 57.811985,8.75314 57.86946,13.119425 C57.89487,15.014285 57.84284,16.82989 57.868855,18.779805 L57.868855,18.781015 C57.84284,20.731535 57.89487,22.54593 57.86946,24.44079 C57.811985,28.807075 61.29255,31.639685 65.79738,30.698305 C69.50603,29.929955 73.215285,29.160395 76.92333,28.392045 C79.174535,27.92559 79.80555,26.59701 79.10012,25.72581 C78.256145,24.684605 76.488335,25.133515 75.36606,25.285975 C71.365195,25.832895 67.914275,26.382235 64.191105,26.929155 C63.039185,26.81481 62.584225,26.142655 62.44689,25.21519 L62.44689,21.87196 L62.44689,21.87196 L62.44689,21.87196 Z M64.251605,16.71857 C65.87845,16.76697 67.506505,16.815975 69.13335,16.864375 C70.760195,16.91338 72.38704,16.962385 74.0157,17.01139 C74.47913,17.0247 74.849995,17.332645 74.83971,17.693225 C74.830635,18.005405 74.820955,18.31819 74.812485,18.63037 C74.80341,18.941945 74.79494,19.255335 74.785865,19.56691 C74.77558,19.9287 74.38959,20.23483 73.92979,20.248745 C72.31444,20.297145 70.7003,20.345545 69.086765,20.393945 C67.472625,20.442345 65.857275,20.49014 64.24374,20.537935 C63.783335,20.55185 63.40763,20.203975 63.40763,19.76535 L63.40763,18.628555 L63.40763,17.49055 C63.40884,17.05253 63.788175,16.704655 64.251605,16.71857 L64.251605,16.71857 L64.251605,16.71857 Z M86.64447,27.802775 C85.385465,28.592905 84.12525,28.592905 82.865035,27.802775 C82.80151,22.615505 82.736775,17.42763 82.672645,12.239755 C82.63816,9.40896 83.957665,8.967915 86.576105,10.336425 C92.007795,13.1769 97.439485,16.017375 102.871175,18.85785 C103.00851,20.49619 102.880855,22.133925 102.36721,23.771055 C97.72686,21.06247 93.085905,18.353885 88.44616,15.6453 C86.6723,14.33487 86.96754,16.542515 86.936685,17.63091 C86.838675,21.02133 86.741875,24.412355 86.64447,27.802775 L86.64447,27.802775 L86.64447,27.802775 Z M103.291045,13.114585 L107.546615,13.114585 C108.61081,16.617535 108.37365,20.49256 107.546615,24.538195 L103.291045,24.538195 C104.8828,20.606905 105.21192,16.77423 103.291045,13.114585 L103.291045,13.114585 L103.291045,13.114585 Z" id="Shape" fill="#FFDD00"></path>
                                <path d="M119.24066,29.380615 L119.86865,30.449045 L119.24066,30.449045 L118.67438,29.380615 L118.171625,29.380615 L118.171625,30.449045 L117.669475,30.449045 L117.669475,27.935875 L118.92606,27.935875 C119.177135,27.935875 119.42821,27.935875 119.617575,27.998795 C119.86865,28.18695 119.932175,28.439235 119.932175,28.69031 C119.93157,29.12954 119.679285,29.3183 119.24066,29.380615 L119.24066,29.380615 L119.24066,29.380615 Z M118.23515,28.313395 L118.800825,28.313395 C119.052505,28.313395 119.428815,28.313395 119.428815,28.62739 C119.42942,28.94199 119.24066,29.00491 118.926665,29.00491 L118.23515,29.00491 L118.23515,28.313395 L118.23515,28.313395 L118.23515,28.313395 Z M118.67438,31.07764 C117.60595,31.07764 116.7892,30.26089 116.7892,29.19246 C116.7892,28.12403 117.60595,27.24436 118.67438,27.24436 C119.74281,27.24436 120.55956,28.12403 120.55956,29.19246 C120.560165,30.261495 119.74281,31.078245 118.67438,31.07764 L118.67438,31.07764 L118.67438,31.07764 Z M118.67438,31.51808 C119.99449,31.51808 121,30.44965 121,29.193065 C121,27.87356 119.99449,26.80513 118.67438,26.80513 C117.35427,26.80513 116.28705,27.87356 116.28705,29.193065 C116.28705,30.44965 117.354875,31.51808 118.67438,31.51808 L118.67438,31.51808 L118.67438,31.51808 Z" id="Shape" fill="#231F20"></path>
                            </g>
                        </g>
                    </g>
                </g>
            </g>
        </g>
    </g>
</svg>