<?xml version="1.0" encoding="UTF-8"?>
<svg width="122px" height="119px" viewBox="0 0 122 119" version="1.1" xmlns="http://www.w3.org/2000/svg" xmlns:xlink="http://www.w3.org/1999/xlink">
    <!-- Generator: Sketch 40.2 (33826) - http://www.bohemiancoding.com/sketch -->
    <title>100k_bader</title>
    <desc>Created with Sketch.</desc>
    <defs></defs>
    <g id="Page-1" stroke="none" stroke-width="1" fill="none" fill-rule="evenodd">
        <g id="Our-partners" transform="translate(-377.000000, -3183.000000)">
            <g id="Content" transform="translate(376.000000, 150.000000)">
                <g id="Support-of-$100k+" transform="translate(1.000000, 2965.000000)">
                    <g id="100k_bader" transform="translate(0.000000, 68.000000)">
                        <rect id="Rectangle-2" fill="#FFFFFF" x="0" y="0" width="121.875269" height="119"></rect>
                        <g id="Layer_1" transform="translate(1.000000, 0.000000)">
                            <polygon id="Shape" fill="#E6B333" points="0 0 119 0 119 62.42264 107.534945 73.887695 119 85.35275 119 118.99286 0 118.99286"></polygon>
                            <path d="M9.705045,109.041485 L10.10429,109.041485 C10.325035,109.041485 10.509485,109.01947 10.658235,108.974845 C10.80401,108.93022 10.915275,108.86358 10.99203,108.776115 C11.06819,108.688055 11.1265,108.55894 11.165175,108.38996 C11.204445,108.2186 11.224675,108.00559 11.224675,107.75093 C11.224675,107.495675 11.204445,107.281475 11.16458,107.10833 C11.12531,106.937565 11.066405,106.80726 10.98965,106.718605 C10.912895,106.63114 10.80163,106.563905 10.655855,106.51928 L10.655855,106.51928 C10.5077,106.47406 10.323845,106.45145 10.104885,106.45145 L9.70564,106.45145 L9.70564,109.041485 L9.705045,109.041485 L9.705045,109.041485 Z M9.705045,111.40661 L10.36609,111.40661 L10.398815,111.40661 L10.398815,111.439335 L10.398815,111.557145 L10.398815,111.590465 L10.36609,111.590465 L7.883155,111.590465 L7.85043,111.590465 L7.85043,111.557145 L7.85043,111.439335 L7.85043,111.40661 L7.883155,111.40661 L8.473395,111.40661 L8.473395,106.45026 L7.883155,106.45026 L7.85043,106.45026 L7.85043,106.417535 L7.85043,106.29913 L7.85043,106.267 L7.883155,106.267 L10.003735,106.267 C10.23995,106.267 10.446415,106.27057 10.62194,106.277115 C10.799845,106.28366 10.945025,106.292585 11.058075,106.30627 L11.058075,106.30627 C11.169935,106.318765 11.271085,106.33602 11.361525,106.358035 L11.361525,106.358035 C11.451965,106.379455 11.531695,106.40504 11.600715,106.43598 C11.750655,106.500835 11.881555,106.575805 11.992225,106.660295 C12.10349,106.745975 12.194525,106.84058 12.26652,106.9453 L12.26652,106.9453 C12.33792,107.050615 12.39147,107.168425 12.42717,107.29992 C12.462275,107.42963 12.480125,107.57243 12.480125,107.727725 C12.480125,107.976435 12.433715,108.1948 12.3403,108.38282 C12.246885,108.57084 12.10706,108.72792 11.92023,108.853465 L11.92023,108.853465 C11.735185,108.978415 11.503135,109.07183 11.225865,109.134305 C10.95038,109.196185 10.628485,109.22653 10.261965,109.22653 L9.70445,109.22653 L9.70445,111.40661 L9.705045,111.40661 L9.705045,111.40661 Z M13.746285,111.557145 L13.746285,111.439335 L13.746285,111.40661 L13.77901,111.40661 L14.32998,111.40661 L14.32998,106.45026 L13.77901,106.45026 L13.746285,106.45026 L13.746285,106.417535 L13.746285,106.29913 L13.746285,106.267 L13.77901,106.267 L16.167935,106.267 L16.20066,106.267 L16.20066,106.299725 L16.20066,106.41813 L16.20066,106.450855 L16.167935,106.450855 L15.56163,106.450855 L15.56163,108.67913 L17.506685,108.67913 L17.506685,106.450855 L16.90038,106.450855 L16.867655,106.450855 L16.867655,106.41813 L16.867655,106.299725 L16.867655,106.267 L16.90038,106.267 L19.289305,106.267 L19.32203,106.267 L19.32203,106.299725 L19.32203,106.41813 L19.32203,106.450855 L19.289305,106.450855 L18.738335,106.450855 L18.738335,111.407205 L19.289305,111.407205 L19.32203,111.407205 L19.32203,111.43993 L19.32203,111.55774 L19.32203,111.59106 L19.289305,111.59106 L16.90038,111.59106 L16.867655,111.59106 L16.867655,111.55774 L16.867655,111.43993 L16.867655,111.407205 L16.90038,111.407205 L17.506685,111.407205 L17.506685,108.862985 L15.56163,108.862985 L15.56163,111.407205 L16.167935,111.407205 L16.20066,111.407205 L16.20066,111.43993 L16.20066,111.55774 L16.20066,111.59106 L16.167935,111.59106 L13.77901,111.59106 L13.746285,111.59106 L13.746285,111.557145 L13.746285,111.557145 L13.746285,111.557145 Z M23.027095,106.29913 L23.027095,106.417535 L23.027095,106.45026 L22.99437,106.45026 L22.411865,106.45026 L22.411865,111.40661 L22.99437,111.40661 L23.027095,111.40661 L23.027095,111.439335 L23.027095,111.557145 L23.027095,111.590465 L22.99437,111.590465 L20.589975,111.590465 L20.55725,111.590465 L20.55725,111.557145 L20.55725,111.439335 L20.55725,111.40661 L20.589975,111.40661 L21.180215,111.40661 L21.180215,106.45026 L20.589975,106.45026 L20.55725,106.45026 L20.55725,106.417535 L20.55725,106.29913 L20.55725,106.267 L20.589975,106.267 L22.99437,106.267 L23.027095,106.267 L23.027095,106.29913 L23.027095,106.29913 L23.027095,106.29913 Z M24.26291,111.557145 L24.26291,111.439335 L24.26291,111.40661 L24.295635,111.40661 L24.885875,111.40661 L24.885875,106.45026 L24.295635,106.45026 L24.26291,106.45026 L24.26291,106.417535 L24.26291,106.29913 L24.26291,106.267 L24.295635,106.267 L26.72383,106.267 L26.756555,106.267 L26.756555,106.299725 L26.756555,106.41813 L26.756555,106.450855 L26.72383,106.450855 L26.11812,106.450855 L26.11812,111.407205 L26.83569,111.407205 C27.12843,111.407205 27.382495,111.373885 27.59848,111.308435 C27.81268,111.242985 27.989395,111.145405 28.127435,111.0151 C28.265475,110.88539 28.37079,110.719385 28.441,110.51768 C28.5124,110.314785 28.54929,110.075595 28.55167,109.799515 L28.55167,109.768575 L28.583205,109.767385 L28.70161,109.76322 L28.73493,109.76203 L28.73493,109.795945 L28.73493,111.55774 L28.73493,111.59106 L28.702205,111.59106 L24.295635,111.59106 L24.26291,111.59106 L24.26291,111.557145 L24.26291,111.557145 L24.26291,111.557145 Z M31.097675,109.71919 L32.36086,109.71919 L31.73016,107.933 L31.097675,109.71919 L31.097675,109.71919 L31.097675,109.71919 Z M31.03639,109.903045 L30.71985,110.749135 L30.71985,110.749135 C30.706165,110.786025 30.69367,110.82232 30.68296,110.858615 C30.67225,110.89491 30.663325,110.93061 30.65678,110.96393 L30.65678,110.964525 C30.64131,111.03414 30.633575,111.096615 30.633575,111.15076 C30.633575,111.18646 30.64131,111.216805 30.656185,111.24239 C30.67106,111.26857 30.69367,111.290585 30.725205,111.308435 L30.7258,111.308435 C30.75912,111.328665 30.80791,111.34592 30.871575,111.363175 C30.938215,111.37924 31.01973,111.39471 31.117905,111.40661 L31.14587,111.410775 L31.14587,111.439335 L31.14587,111.557145 L31.14587,111.590465 L31.113145,111.590465 L29.71787,111.590465 L29.685145,111.590465 L29.685145,111.557145 L29.685145,111.439335 L29.685145,111.4078 L29.716085,111.40661 C29.823185,111.401255 29.91779,111.38519 29.99871,111.35782 C30.07844,111.33045 30.145675,111.292965 30.19982,111.242985 L30.19982,111.242985 C30.25456,111.1936 30.309895,111.11863 30.36404,111.01748 C30.419375,110.914545 30.475305,110.786025 30.52945,110.63073 L32.116315,106.162875 L32.12405,106.14086 L32.147255,106.14086 L32.24662,106.14086 L32.26923,106.14086 L32.276965,106.16228 L34.286875,111.40661 L34.753355,111.40661 L34.78608,111.40661 L34.78608,111.439335 L34.78608,111.557145 L34.78608,111.590465 L34.753355,111.590465 L32.404295,111.590465 L32.37157,111.590465 L32.37157,111.557145 L32.37157,111.439335 L32.37157,111.40661 L32.404295,111.40661 L32.96657,111.40661 L32.4275,109.903045 L31.03639,109.903045 L31.03639,109.903045 L31.03639,109.903045 Z M37.16251,106.279495 L39.948895,109.888765 L39.948895,107.1952 C39.948895,107.0286 39.93759,106.892345 39.91498,106.78822 C39.89356,106.68826 39.86143,106.61805 39.81978,106.57878 C39.777535,106.53951 39.715655,106.50857 39.63533,106.487745 C39.55203,106.465135 39.449095,106.45264 39.326525,106.45026 L39.295585,106.449665 L39.294395,106.418725 L39.29023,106.30032 L39.28904,106.266405 L39.322955,106.266405 L40.80867,106.266405 L40.841395,106.266405 L40.841395,106.29913 L40.841395,106.417535 L40.841395,106.44907 L40.809265,106.45026 C40.68372,106.454425 40.579,106.467515 40.495105,106.49072 C40.414185,106.512735 40.353495,106.54427 40.31244,106.58473 L40.311845,106.58473 C40.271385,106.624 40.240445,106.693615 40.21962,106.79298 C40.197605,106.89651 40.186895,107.030385 40.186895,107.1952 L40.186895,111.68388 L40.186895,111.716605 L40.15417,111.716605 L39.872735,111.716605 L39.85667,111.716605 L39.84715,111.703515 L36.394365,107.16902 L36.394365,110.657505 C36.394365,110.824105 36.40567,110.95917 36.42709,111.062105 C36.447915,111.162065 36.47826,111.231085 36.51753,111.27095 C36.557395,111.31022 36.61868,111.34116 36.6996,111.364365 C36.78409,111.38757 36.890595,111.40185 37.01733,111.407205 L37.048865,111.408395 L37.048865,111.43993 L37.048865,111.55774 L37.048865,111.59106 L37.01614,111.59106 L35.533995,111.59106 L35.50127,111.59106 L35.50127,111.55774 L35.50127,111.43993 L35.50127,111.4078 L35.532805,111.407205 C35.65716,111.40304 35.76188,111.38995 35.84518,111.36734 C35.9261,111.34473 35.987385,111.31379 36.029035,111.27452 C36.069495,111.23525 36.10103,111.164445 36.121855,111.064485 C36.14387,110.960955 36.155175,110.825295 36.155175,110.657505 L36.155175,106.860215 L35.819,106.450855 L35.564935,106.450855 L35.5334,106.450855 L35.5334,106.41813 L35.5334,106.299725 L35.5334,106.267 L35.566125,106.267 L37.13633,106.267 L37.152395,106.267 L37.16251,106.279495 L37.16251,106.279495 L37.16251,106.279495 Z M43.06134,111.557145 L43.06134,111.439335 L43.06134,111.40661 L43.094065,111.40661 L43.723575,111.40661 L43.723575,106.45026 L43.62064,106.45026 C43.402275,106.45026 43.20652,106.481795 43.034565,106.544865 C42.8638,106.60734 42.71505,106.70254 42.58891,106.828085 L42.58891,106.828085 C42.462175,106.954225 42.362215,107.107735 42.29022,107.28802 C42.21763,107.47009 42.17241,107.680125 42.15456,107.91753 L42.15218,107.94847 L42.12243,107.94847 L42.006405,107.94847 L41.973085,107.94847 L41.974275,107.914555 L42.02009,106.29794 L42.020685,106.266405 L42.052815,106.266405 L46.62777,106.266405 L46.659305,106.266405 L46.6599,106.29794 L46.705715,107.914555 L46.706905,107.94847 L46.67299,107.94847 L46.55399,107.94847 L46.52305,107.94847 L46.52067,107.91753 C46.503415,107.68072 46.458195,107.47009 46.3862,107.28802 C46.314205,107.10714 46.215435,106.95363 46.08989,106.828085 L46.08989,106.828085 C45.96494,106.70254 45.81619,106.607935 45.64483,106.544865 C45.472875,106.481795 45.276525,106.45026 45.057565,106.45026 L44.95463,106.45026 L44.95463,111.40661 L45.577,111.40661 L45.609725,111.40661 L45.609725,111.439335 L45.609725,111.557145 L45.609725,111.590465 L45.577,111.590465 L43.094065,111.590465 L43.06134,111.590465 L43.06134,111.557145 L43.06134,111.557145 L43.06134,111.557145 Z M47.926655,111.557145 L47.926655,111.439335 L47.926655,111.40661 L47.95938,111.40661 L48.509755,111.40661 L48.509755,106.45026 L47.95938,106.45026 L47.926655,106.45026 L47.926655,106.417535 L47.926655,106.29913 L47.926655,106.267 L47.95938,106.267 L50.34771,106.267 L50.380435,106.267 L50.380435,106.299725 L50.380435,106.41813 L50.380435,106.450855 L50.34771,106.450855 L49.742,106.450855 L49.742,108.67913 L51.687055,108.67913 L51.687055,106.450855 L51.081345,106.450855 L51.04862,106.450855 L51.04862,106.41813 L51.04862,106.299725 L51.04862,106.267 L51.081345,106.267 L53.469675,106.267 L53.5024,106.267 L53.5024,106.299725 L53.5024,106.41813 L53.5024,106.450855 L53.469675,106.450855 L52.9193,106.450855 L52.9193,111.407205 L53.469675,111.407205 L53.5024,111.407205 L53.5024,111.43993 L53.5024,111.55774 L53.5024,111.59106 L53.469675,111.59106 L51.081345,111.59106 L51.04862,111.59106 L51.04862,111.55774 L51.04862,111.43993 L51.04862,111.407205 L51.081345,111.407205 L51.687055,111.407205 L51.687055,108.862985 L49.742,108.862985 L49.742,111.407205 L50.348305,111.407205 L50.38103,111.407205 L50.38103,111.43993 L50.38103,111.55774 L50.38103,111.59106 L50.348305,111.59106 L47.959975,111.59106 L47.92725,111.59106 L47.92725,111.557145 L47.926655,111.557145 L47.926655,111.557145 Z M56.59283,108.695195 L56.992075,108.695195 C57.16998,108.695195 57.32468,108.67199 57.4532,108.626175 C57.58053,108.580955 57.68525,108.51253 57.76498,108.4209 L57.76498,108.4209 C57.845305,108.33046 57.905995,108.210865 57.94705,108.065685 C57.9887,107.918125 58.00893,107.742005 58.00893,107.538515 C58.00893,107.331455 57.9887,107.156525 57.948835,107.013725 C57.909565,106.8739 57.85066,106.763825 57.772715,106.68588 C57.69477,106.607935 57.585885,106.54903 57.44725,106.50976 C57.30564,106.469895 57.13309,106.449665 56.9296,106.449665 L56.59164,106.449665 L56.59164,108.695195 L56.59283,108.695195 L56.59283,108.695195 Z M56.59283,111.40661 L57.253875,111.40661 L57.2866,111.40661 L57.2866,111.439335 L57.2866,111.557145 L57.2866,111.590465 L57.253875,111.590465 L54.77094,111.590465 L54.738215,111.590465 L54.738215,111.557145 L54.738215,111.439335 L54.738215,111.40661 L54.77094,111.40661 L55.36118,111.40661 L55.36118,106.45026 L54.77094,106.45026 L54.738215,106.45026 L54.738215,106.417535 L54.738215,106.29913 L54.738215,106.267 L54.77094,106.267 L57.19616,106.267 C57.87208,106.267 58.38616,106.372315 58.73721,106.582945 C58.915115,106.68945 59.049585,106.822135 59.138835,106.979215 C59.228085,107.13808 59.273305,107.32015 59.273305,107.526615 C59.273305,107.88659 59.14181,108.16862 58.878225,108.373895 L58.878225,108.373895 C58.747325,108.47445 58.58013,108.559535 58.376045,108.629745 C58.19814,108.690435 57.99227,108.739225 57.758435,108.77671 C57.965495,108.8017 58.14935,108.84454 58.31,108.905825 C58.497425,108.97663 58.654505,109.072425 58.78005,109.19321 C58.905595,109.313995 59.003175,109.462745 59.072195,109.63946 C59.14062,109.814985 59.181675,110.01788 59.19536,110.248145 C59.19774,110.28325 59.200715,110.326685 59.204285,110.37964 L59.204285,110.37964 L59.214995,110.55576 L59.214995,110.556355 C59.23939,111.103755 59.363745,111.37686 59.58806,111.37686 C59.600555,111.37686 59.61424,111.375075 59.629115,111.3721 L59.629115,111.3721 C59.645775,111.369125 59.663625,111.364365 59.681475,111.35901 C59.70111,111.35187 59.721935,111.34473 59.74395,111.33521 C59.76537,111.326285 59.78917,111.31498 59.81535,111.302485 L59.842125,111.28999 L59.857595,111.315575 L59.907575,111.400065 L59.923045,111.426245 L59.89746,111.4435 C59.82844,111.48872 59.757635,111.528585 59.68564,111.5625 C59.612455,111.59701 59.537485,111.62557 59.46192,111.648775 C59.386355,111.671385 59.309005,111.68864 59.229275,111.699945 C59.150735,111.711845 59.069815,111.7172 58.98711,111.7172 C58.90738,111.7172 58.83003,111.70887 58.75625,111.6934 C58.683065,111.67793 58.612855,111.65413 58.546215,111.622 L58.546215,111.622 C58.48017,111.58987 58.418885,111.5506 58.361765,111.504785 C58.30524,111.45778 58.253475,111.40423 58.207065,111.34354 L58.207065,111.342945 C58.13507,111.246555 58.078545,111.10911 58.03868,110.932395 C57.99941,110.758655 57.97561,110.54505 57.966685,110.290985 L57.966685,110.29039 C57.965495,110.225535 57.96371,110.16782 57.961925,110.11546 C57.96014,110.066075 57.95776,110.022045 57.95538,109.982775 L57.95538,109.982775 C57.941695,109.77036 57.909565,109.590075 57.858395,109.44311 C57.80901,109.29912 57.740585,109.186665 57.6555,109.10872 C57.570415,109.03018 57.45439,108.971275 57.30802,108.932005 C57.158675,108.891545 56.977795,108.871315 56.765975,108.871315 C56.75467,108.871315 56.740985,108.87191 56.725515,108.872505 L56.666015,108.87548 L56.60592,108.878455 L56.60473,108.878455 L56.593425,108.878455 L56.593425,111.40661 L56.59283,111.40661 L56.59283,111.40661 Z M62.52974,108.932005 C62.52974,109.46572 62.54997,109.908995 62.59162,110.26064 C62.632675,110.609905 62.694555,110.86873 62.776665,111.03771 L62.776665,111.03771 C62.85699,111.20193 62.96885,111.326285 63.113435,111.408395 C63.25802,111.4911 63.437115,111.532155 63.647745,111.532155 C63.858375,111.532155 64.034495,111.491695 64.178485,111.409585 C64.32188,111.32807 64.434335,111.204905 64.51347,111.04128 L64.51347,111.04128 C64.59439,110.87468 64.655675,110.615855 64.69673,110.2654 C64.737785,109.913755 64.75861,109.468695 64.75861,108.932005 C64.75861,108.39591 64.73838,107.951445 64.69673,107.59861 C64.65627,107.249345 64.59439,106.991115 64.51347,106.823325 C64.433145,106.659105 64.32188,106.536535 64.178485,106.45502 C64.03509,106.37291 63.858375,106.331855 63.647745,106.331855 C63.437115,106.331855 63.25802,106.37291 63.113435,106.45621 C62.96885,106.53832 62.856395,106.66208 62.776665,106.82749 L62.776665,106.82749 C62.694555,106.995875 62.63327,107.2547 62.59162,107.603965 C62.54997,107.955015 62.52974,108.398885 62.52974,108.932005 L62.52974,108.932005 L62.52974,108.932005 Z M61.202295,108.932005 C61.202295,108.728515 61.21717,108.534545 61.246325,108.351285 C61.276075,108.168025 61.320105,107.99607 61.379605,107.836015 C61.439105,107.67477 61.515265,107.518285 61.60868,107.36775 C61.7015,107.217215 61.811575,107.07263 61.937715,106.9334 C62.054335,106.801905 62.1775,106.68707 62.3084,106.587705 C62.438705,106.488935 62.575555,106.405635 62.71776,106.33959 L62.718355,106.33959 C62.861155,106.27414 63.0105,106.22416 63.165795,106.190245 C63.32109,106.156925 63.481145,106.14086 63.647745,106.14086 C63.814345,106.14086 63.974995,106.156925 64.13029,106.190245 C64.28499,106.22416 64.434335,106.27414 64.57773,106.33959 L64.57773,106.33959 C64.721125,106.405635 64.85738,106.48953 64.987685,106.587705 C65.1168,106.686475 65.239965,106.80131 65.35599,106.9334 C65.48213,107.070845 65.59161,107.21543 65.68324,107.36537 L65.683835,107.36537 C65.775465,107.514715 65.850435,107.67001 65.90934,107.831255 C65.968245,107.99131 66.01168,108.16386 66.04143,108.34712 C66.070585,108.530975 66.084865,108.72673 66.084865,108.932005 C66.084865,109.13847 66.070585,109.33363 66.04143,109.51808 C66.01168,109.701935 65.968245,109.873295 65.90934,110.033945 C65.850435,110.194 65.775465,110.349295 65.683835,110.49864 L65.68324,110.49864 C65.59161,110.64858 65.482725,110.79257 65.35599,110.9318 C65.241155,111.06151 65.11918,111.176345 64.990065,111.27333 C64.86095,111.37091 64.72529,111.45302 64.5813,111.51847 C64.43731,111.58392 64.28856,111.633305 64.132075,111.666625 C63.97678,111.69935 63.81494,111.71601 63.647745,111.71601 C63.48055,111.71601 63.31871,111.69935 63.163415,111.666625 C63.007525,111.633305 62.85818,111.58392 62.714785,111.51847 C62.57139,111.45302 62.43454,111.371505 62.305425,111.27333 C62.175715,111.176345 62.05374,111.06151 61.937715,110.931205 L61.937715,110.931205 C61.81098,110.79138 61.7015,110.6462 61.608085,110.49626 C61.515265,110.345725 61.439105,110.18924 61.379605,110.029185 C61.320105,109.86794 61.276075,109.69658 61.246325,109.513915 C61.217765,109.33006 61.202295,109.136685 61.202295,108.932005 L61.202295,108.932005 L61.202295,108.932005 Z M69.300245,109.041485 L69.700085,109.041485 C69.920235,109.041485 70.10528,109.01947 70.253435,108.974845 C70.39921,108.93022 70.51107,108.86358 70.587825,108.776115 C70.663985,108.688055 70.722295,108.55894 70.760375,108.38996 C70.80024,108.2186 70.82047,108.00559 70.82047,107.75093 C70.82047,107.495675 70.80024,107.281475 70.75978,107.10833 C70.721105,106.937565 70.6622,106.80726 70.58485,106.718605 C70.508095,106.63114 70.39683,106.563905 70.25046,106.51928 L70.25046,106.51928 C70.1029,106.47406 69.919045,106.45145 69.700085,106.45145 L69.300245,106.45145 L69.300245,109.041485 L69.300245,109.041485 L69.300245,109.041485 Z M69.300245,111.40661 L69.96129,111.40661 L69.994015,111.40661 L69.994015,111.439335 L69.994015,111.557145 L69.994015,111.590465 L69.96129,111.590465 L67.47776,111.590465 L67.445035,111.590465 L67.445035,111.557145 L67.445035,111.439335 L67.445035,111.40661 L67.47776,111.40661 L68.068,111.40661 L68.068,106.45026 L67.47776,106.45026 L67.445035,106.45026 L67.445035,106.417535 L67.445035,106.29913 L67.445035,106.267 L67.47776,106.267 L69.59834,106.267 C69.83396,106.267 70.040425,106.27057 70.216545,106.277115 C70.39445,106.28366 70.53963,106.292585 70.65268,106.30627 L70.65268,106.30627 C70.76454,106.318765 70.865095,106.33602 70.95613,106.358035 L70.95613,106.358035 C71.04657,106.379455 71.1263,106.40504 71.19532,106.43598 C71.34526,106.500835 71.47616,106.575805 71.586235,106.660295 C71.698095,106.745975 71.789725,106.84058 71.861125,106.9453 L71.861125,106.9453 C71.93193,107.050615 71.98548,107.168425 72.02118,107.29992 C72.05688,107.42963 72.074135,107.57243 72.074135,107.727725 C72.074135,107.976435 72.027725,108.1948 71.934905,108.38282 C71.84149,108.57084 71.701665,108.72792 71.514835,108.853465 L71.514835,108.853465 C71.32979,108.978415 71.098335,109.07183 70.821065,109.134305 C70.544985,109.196185 70.223685,109.22653 69.857165,109.22653 L69.29965,109.22653 L69.29965,111.40661 L69.300245,111.40661 L69.300245,111.40661 Z M75.810735,106.29913 L75.810735,106.417535 L75.810735,106.45026 L75.77801,106.45026 L75.195505,106.45026 L75.195505,111.40661 L75.77801,111.40661 L75.810735,111.40661 L75.810735,111.439335 L75.810735,111.557145 L75.810735,111.590465 L75.77801,111.590465 L73.37302,111.590465 L73.34089,111.590465 L73.34089,111.557145 L73.34089,111.439335 L73.34089,111.40661 L73.37302,111.40661 L73.96326,111.40661 L73.96326,106.45026 L73.37302,106.45026 L73.34089,106.45026 L73.34089,106.417535 L73.34089,106.29913 L73.34089,106.267 L73.37302,106.267 L75.77801,106.267 L75.810735,106.267 L75.810735,106.29913 L75.810735,106.29913 L75.810735,106.29913 Z M77.045955,111.557145 L77.045955,111.439335 L77.045955,111.40661 L77.079275,111.40661 L77.669515,111.40661 L77.669515,106.45026 L77.079275,106.45026 L77.045955,106.45026 L77.045955,106.417535 L77.045955,106.29913 L77.045955,106.267 L77.079275,106.267 L81.2413,106.267 L81.274025,106.267 L81.274025,106.299725 L81.274025,107.7426 L81.274025,107.775325 L81.2413,107.775325 L81.13896,107.775325 L81.10921,107.775325 L81.106235,107.745575 C81.08065,107.507575 81.03424,107.302895 80.965815,107.1357 C80.897985,106.9691 80.80933,106.837605 80.69985,106.74181 C80.589775,106.64542 80.443405,106.573425 80.26193,106.52523 C80.078075,106.475845 79.857925,106.45145 79.602075,106.45145 L78.90176,106.45145 L78.90176,108.688055 L79.301005,108.688055 C79.42179,108.688055 79.529485,108.66723 79.6229,108.624985 C79.71572,108.583335 79.796045,108.51967 79.862685,108.435775 C79.92992,108.350095 79.98109,108.24835 80.015005,108.12816 C80.049515,108.00797 80.066175,107.869335 80.066175,107.713445 L80.066175,107.64145 L80.066175,107.608725 L80.0989,107.608725 L80.21671,107.608725 L80.25003,107.608725 L80.25003,107.64145 L80.25003,109.919705 L80.25003,109.95243 L80.21671,109.95243 L80.0989,109.95243 L80.066175,109.95243 L80.066175,109.919705 L80.066175,109.8489 C80.066175,109.691225 80.049515,109.553185 80.015005,109.431805 C79.98109,109.312805 79.92992,109.20987 79.862685,109.12538 C79.79545,109.040295 79.71572,108.977225 79.6229,108.93498 C79.529485,108.89333 79.42179,108.872505 79.301005,108.872505 L78.90176,108.872505 L78.90176,111.40899 L79.63242,111.40899 C79.93349,111.40899 80.19172,111.378645 80.407705,111.317955 L80.4083,111.317955 C80.62131,111.258455 80.793265,111.169205 80.922975,111.04961 C81.05209,110.931205 81.14967,110.77353 81.215715,110.57956 C81.282355,110.38202 81.31746,110.1464 81.31984,109.8727 L81.320435,109.84057 L81.352565,109.84057 L81.470375,109.84057 L81.503695,109.84057 L81.503695,109.873295 L81.503695,111.56012 L81.503695,111.59344 L81.470375,111.59344 L77.07987,111.59344 L77.04655,111.59344 L77.04655,111.557145 L77.045955,111.557145 L77.045955,111.557145 Z M83.224435,111.5744 L83.1929,109.6109 L83.192305,109.57758 L83.225625,109.57758 L83.34522,109.57758 L83.3714,109.57758 L83.376755,109.603165 C83.443395,109.900665 83.53443,110.16782 83.648075,110.40344 C83.762315,110.63906 83.90095,110.84255 84.06279,111.01629 L84.06279,111.01629 C84.224035,111.18884 84.396585,111.31855 84.57925,111.40423 C84.76132,111.48991 84.954695,111.532155 85.158185,111.532155 C85.30039,111.532155 85.43129,111.509545 85.5491,111.46254 C85.666315,111.415535 85.77282,111.345325 85.86683,111.25191 C85.961435,111.1579 86.03224,111.05199 86.079245,110.935965 C86.12625,110.819345 86.15005,110.69023 86.15005,110.54981 C86.15005,110.45104 86.14053,110.362385 86.12387,110.281465 C86.10721,110.201735 86.08103,110.12974 86.045925,110.06667 C86.011415,110.004195 85.9656,109.9441 85.907885,109.887575 C85.85017,109.830455 85.77996,109.776905 85.698445,109.72633 C85.648465,109.69539 85.569925,109.66326 85.46342,109.62994 C85.35632,109.596025 85.221255,109.56211 85.058225,109.527005 C84.972545,109.509155 84.89698,109.492495 84.83153,109.47762 L84.83153,109.47762 C84.75656,109.46096 84.691705,109.444895 84.638155,109.430615 C84.379925,109.36457 84.1568,109.28246 83.969375,109.184285 C83.78076,109.086705 83.62725,108.971275 83.508845,108.84097 C83.391035,108.708285 83.30119,108.554775 83.24288,108.37806 C83.18338,108.20194 83.154225,108.003805 83.154225,107.78425 C83.154225,107.320745 83.310115,106.92983 83.6213,106.615075 L83.6213,106.615075 C83.77719,106.4574 83.95212,106.338995 84.145495,106.25986 C84.338275,106.180725 84.550095,106.141455 84.77917,106.141455 C84.84938,106.141455 84.920185,106.146215 84.9898,106.154545 C85.059415,106.164065 85.128435,106.17656 85.197455,106.19441 C85.26588,106.211665 85.334305,106.23368 85.40273,106.25867 L85.40273,106.25867 C85.47056,106.284255 85.538985,106.314005 85.60622,106.34792 L85.606815,106.348515 C85.63121,106.36101 85.66334,106.379455 85.70142,106.402065 C85.736525,106.422295 85.77401,106.444905 85.81209,106.468705 L85.81209,106.468705 C85.89539,106.5169 85.96798,106.55379 86.028075,106.578185 C86.08698,106.601985 86.135175,106.613885 86.172065,106.613885 C86.20122,106.613885 86.226805,106.609125 86.248225,106.600795 L86.248225,106.600795 C86.268455,106.59187 86.285115,106.57997 86.299395,106.563905 L86.299395,106.563905 C86.313675,106.544865 86.32855,106.517495 86.341045,106.48239 C86.35473,106.4455 86.36782,106.40028 86.37853,106.347325 L86.38448,106.321145 L86.41066,106.321145 L86.529065,106.321145 L86.56179,106.321145 L86.56179,106.35387 L86.56179,107.98655 L86.56179,108.01987 L86.529065,108.01987 L86.41066,108.01987 L86.38448,108.01987 L86.37853,107.99369 C86.325575,107.73189 86.25239,107.499245 86.160165,107.295755 C86.068535,107.09286 85.956675,106.92031 85.826965,106.77632 C85.697255,106.63352 85.55505,106.52642 85.40154,106.45502 C85.24803,106.384215 85.082025,106.348515 84.903525,106.348515 C84.75656,106.348515 84.622685,106.369935 84.503685,106.41337 C84.384685,106.45621 84.277585,106.522255 84.18417,106.60853 C84.09135,106.6954 84.021735,106.79417 83.974135,106.90365 C83.927725,107.013725 83.90452,107.136295 83.90452,107.27017 C83.90452,107.343355 83.912255,107.411185 83.92713,107.47366 C83.942005,107.536135 83.96402,107.592065 83.994365,107.644425 C84.02471,107.69619 84.062195,107.74498 84.108605,107.79139 C84.15442,107.837205 84.209755,107.880045 84.272825,107.920505 C84.32578,107.95204 84.4067,107.983575 84.514395,108.016895 C84.625065,108.050215 84.76132,108.08294 84.92435,108.11626 L84.92435,108.11626 C84.998725,108.13054 85.06715,108.145415 85.129625,108.15791 C85.19091,108.170405 85.24208,108.1829 85.284325,108.19242 C85.586585,108.26144 85.84303,108.34593 86.054255,108.445295 C86.26667,108.54585 86.43446,108.661875 86.55465,108.793965 C86.67484,108.926055 86.76528,109.08968 86.825375,109.28365 C86.88547,109.477025 86.91522,109.701935 86.91522,109.956 C86.91522,110.22018 86.875355,110.45937 86.795625,110.67238 C86.714705,110.88539 86.59511,111.07341 86.43565,111.233465 C86.275595,111.39471 86.089955,111.515495 85.879325,111.595225 C85.668695,111.674955 85.433075,111.71601 85.17306,111.71601 C85.00051,111.71601 84.82796,111.698755 84.654815,111.66365 C84.48286,111.62914 84.3115,111.577375 84.14133,111.508355 C83.966995,111.438145 83.83907,111.38638 83.75696,111.354845 L83.75696,111.354845 C83.673065,111.32212 83.630225,111.30546 83.62725,111.30546 C83.590955,111.30546 83.55942,111.31141 83.532645,111.32212 C83.50706,111.332235 83.48564,111.347705 83.46898,111.367935 L83.468385,111.36853 C83.45113,111.38995 83.43685,111.417915 83.426735,111.452425 L83.426735,111.452425 C83.41543,111.489315 83.40948,111.532155 83.4071,111.582135 L83.405315,111.615455 L83.37259,111.61367 L83.2524,111.604745 L83.22265,111.60296 L83.224435,111.5744 L83.224435,111.5744 L83.224435,111.5744 Z M88.89062,112.786415 L88.84064,112.686455 L88.82398,112.65254 L88.86087,112.640045 C89.00962,112.59304 89.141115,112.53235 89.252975,112.45976 L89.252975,112.459165 C89.364835,112.38717 89.458845,112.30268 89.535005,112.205695 L89.535005,112.205695 C89.61057,112.109305 89.66769,112.003395 89.705175,111.88618 C89.743255,111.76956 89.76289,111.642825 89.76289,111.50419 L89.76289,111.4911 C89.75218,111.502405 89.74147,111.51133 89.730165,111.520255 C89.69744,111.546435 89.663525,111.56845 89.626635,111.58511 C89.589745,111.602365 89.55107,111.61605 89.511205,111.623785 C89.470745,111.63271 89.42731,111.63628 89.382685,111.63628 C89.2857,111.63628 89.197045,111.622595 89.118505,111.594035 C89.039965,111.565475 88.969755,111.522635 88.90966,111.46611 C88.85016,111.408395 88.80494,111.341755 88.774595,111.26619 C88.744845,111.19122 88.72997,111.107325 88.72997,111.0151 C88.72997,110.92823 88.74425,110.847905 88.77281,110.77591 C88.80256,110.702725 88.845995,110.63906 88.904305,110.58194 C88.962615,110.52601 89.028065,110.482575 89.101845,110.45461 C89.17503,110.426645 89.25595,110.412365 89.344605,110.412365 C89.45468,110.412365 89.55345,110.432 89.638535,110.471865 C89.725405,110.511135 89.79978,110.57123 89.86047,110.650365 L89.86047,110.650365 C89.92116,110.7295 89.965785,110.8247 89.99613,110.935965 C90.02588,111.04604 90.040755,111.171585 90.040755,111.31498 C90.040755,111.504785 90.01636,111.67912 89.968165,111.837985 L89.96876,111.83858 C89.91997,111.99804 89.84738,112.14203 89.750395,112.27055 C89.65341,112.40026 89.53679,112.50855 89.399345,112.5978 C89.262495,112.68586 89.105415,112.75488 88.9287,112.803075 L88.903115,112.810215 L88.89062,112.786415 L88.89062,112.786415 L88.89062,112.786415 Z M96.153785,106.29913 L96.153785,106.417535 L96.153785,106.45026 L96.120465,106.45026 L95.53796,106.45026 L95.53796,111.40661 L96.120465,111.40661 L96.153785,111.40661 L96.153785,111.439335 L96.153785,111.557145 L96.153785,111.590465 L96.120465,111.590465 L93.71607,111.590465 L93.683345,111.590465 L93.683345,111.557145 L93.683345,111.439335 L93.683345,111.40661 L93.71607,111.40661 L94.30631,111.40661 L94.30631,106.45026 L93.71607,106.45026 L93.683345,106.45026 L93.683345,106.417535 L93.683345,106.29913 L93.683345,106.267 L93.71607,106.267 L96.120465,106.267 L96.153785,106.267 L96.153785,106.29913 L96.153785,106.29913 L96.153785,106.29913 Z M98.96992,106.279495 L101.756305,109.888765 L101.756305,107.1952 C101.756305,107.0286 101.745,106.892345 101.72239,106.78822 C101.700375,106.68826 101.66884,106.618645 101.62719,106.57878 C101.584945,106.53951 101.523065,106.50857 101.44274,106.487745 C101.358845,106.465135 101.256505,106.45264 101.13334,106.45026 L101.1024,106.449665 L101.10121,106.418725 L101.09764,106.30032 L101.09645,106.266405 L101.130365,106.266405 L102.61608,106.266405 L102.648805,106.266405 L102.648805,106.29913 L102.648805,106.417535 L102.648805,106.44907 L102.616675,106.45026 C102.49113,106.454425 102.38641,106.467515 102.30311,106.49072 C102.221595,106.512735 102.1615,106.54427 102.11985,106.58473 L102.11985,106.58473 C102.07939,106.624 102.04845,106.693615 102.027625,106.79298 C102.00561,106.89651 101.994305,107.030385 101.994305,107.1952 L101.994305,111.68388 L101.994305,111.716605 L101.96158,111.716605 L101.680145,111.716605 L101.66408,111.716605 L101.65456,111.703515 L98.201775,107.16902 L98.201775,110.657505 C98.201775,110.824105 98.21308,110.95917 98.2345,111.062105 C98.255325,111.162065 98.28567,111.231085 98.32494,111.27095 C98.364805,111.309625 98.42609,111.34116 98.50701,111.364365 C98.592095,111.38757 98.698005,111.40185 98.825335,111.407205 L98.85687,111.408395 L98.85687,111.43993 L98.85687,111.55774 L98.85687,111.59106 L98.82355,111.59106 L97.342,111.59106 L97.309275,111.59106 L97.309275,111.55774 L97.309275,111.43993 L97.309275,111.4078 L97.34081,111.407205 C97.465165,111.40304 97.569885,111.38995 97.653185,111.36734 C97.734105,111.34473 97.79539,111.31379 97.83704,111.27452 C97.8775,111.23525 97.90844,111.164445 97.92986,111.064485 C97.951875,110.960955 97.96318,110.825295 97.96318,110.657505 L97.96318,106.860215 L97.6276,106.450855 L97.373535,106.450855 L97.340215,106.450855 L97.340215,106.41813 L97.340215,106.299725 L97.340215,106.267 L97.373535,106.267 L98.94374,106.267 L98.95921,106.267 L98.96992,106.279495 L98.96992,106.279495 L98.96992,106.279495 Z M108.08651,109.695985 L108.20432,109.695985 L108.23764,109.695985 L108.23764,109.728115 L108.23764,111.557145 L108.23764,111.590465 L108.20432,111.590465 L108.08651,111.590465 L108.06152,111.590465 L108.054975,111.56607 C108.040695,111.515495 108.024035,111.47206 108.00678,111.43636 C107.989525,111.401255 107.970485,111.373885 107.951445,111.354845 C107.933,111.3364 107.91158,111.32212 107.88659,111.3126 C107.862195,111.30308 107.83304,111.298915 107.80091,111.298915 C107.7426,111.298915 107.633715,111.340565 107.474255,111.425055 C107.4213,111.45421 107.3737,111.479795 107.33205,111.50062 C107.28683,111.52323 107.24756,111.541675 107.214835,111.555955 C107.15474,111.58392 107.091075,111.60772 107.02503,111.627355 C106.958985,111.64818 106.88937,111.664245 106.817375,111.67793 L106.817375,111.67793 C106.744785,111.690425 106.66684,111.70054 106.584135,111.707085 C106.50143,111.71363 106.413965,111.7172 106.319955,111.7172 C106.0528,111.7172 105.784455,111.66365 105.51611,111.55774 C105.382235,111.505975 105.2555,111.442905 105.137095,111.369125 C105.0175,111.295345 104.90564,111.210855 104.801515,111.115655 C104.649195,110.97702 104.51651,110.828865 104.402865,110.67119 C104.291005,110.51292 104.19759,110.345725 104.125,110.168415 C104.05241,109.9917 103.99767,109.800705 103.961375,109.596025 C103.92508,109.391345 103.906635,109.17298 103.906635,108.94093 C103.906635,108.722565 103.924485,108.514315 103.95959,108.31618 C103.99529,108.119235 104.048245,107.93181 104.119645,107.75688 C104.189855,107.580165 104.280295,107.41297 104.388585,107.254105 C104.496875,107.09524 104.6248,106.9453 104.77117,106.804285 C104.88422,106.693615 105.003815,106.59663 105.128765,106.513925 C105.25431,106.430625 105.385805,106.36101 105.521465,106.30627 C105.65772,106.250935 105.79933,106.20988 105.9457,106.181915 C106.09207,106.15395 106.243795,106.14086 106.40028,106.14086 C106.67041,106.14086 106.95482,106.20274 107.25232,106.324715 C107.395715,106.38481 107.512335,106.43003 107.600395,106.460375 C107.68548,106.48953 107.74022,106.50381 107.7664,106.50381 C107.797935,106.50381 107.826495,106.50024 107.85089,106.492505 C107.874095,106.484175 107.89492,106.473465 107.91277,106.45859 L107.91396,106.457995 C107.93181,106.443715 107.94847,106.423485 107.96156,106.3979 L107.962155,106.397305 C107.976435,106.37053 107.99012,106.336615 108.00083,106.29794 L108.00797,106.274735 L108.032365,106.274735 L108.150175,106.274735 L108.183495,106.274735 L108.183495,106.30746 L108.183495,108.041885 L108.183495,108.07461 L108.150175,108.07461 L108.032365,108.07461 L108.007375,108.07461 L108.00083,108.050215 C107.930025,107.778895 107.839585,107.53792 107.731295,107.324315 L107.731295,107.324315 C107.623005,107.112495 107.495675,106.929235 107.3499,106.77513 L107.3499,106.77513 C107.205315,106.62162 107.0524,106.506785 106.891155,106.430625 C106.730505,106.354465 106.561525,106.316385 106.384215,106.316385 C105.984375,106.316385 105.69104,106.522255 105.504805,106.931615 L105.50421,106.93221 C105.409605,107.14165 105.338205,107.41178 105.290605,107.744385 C105.243005,108.078775 105.21861,108.475045 105.21861,108.932005 C105.21861,109.394915 105.2436,109.793565 105.29239,110.12736 C105.34118,110.46056 105.414365,110.72831 105.510755,110.9318 L105.510755,110.9318 C105.60774,111.13291 105.73269,111.28404 105.885605,111.383405 C106.039115,111.483365 106.221185,111.53275 106.433005,111.53275 C106.61686,111.53275 106.79179,111.49229 106.958985,111.409585 C107.126775,111.32688 107.28802,111.201335 107.44034,111.03533 C107.746765,110.70094 107.951445,110.263615 108.05557,109.72276 L108.06033,109.69658 L108.08651,109.69658 L108.08651,109.695985 L108.08651,109.695985 Z M110.062505,111.022835 C110.062505,110.85564 110.12141,110.71284 110.23803,110.596815 C110.29634,110.53791 110.3606,110.494475 110.431405,110.46532 C110.501615,110.43557 110.578965,110.42129 110.66167,110.42129 C110.745565,110.42129 110.822915,110.43557 110.894315,110.46532 C110.965715,110.494475 111.03057,110.53791 111.088285,110.596815 L111.088285,110.596815 C111.146595,110.65453 111.19003,110.719385 111.21978,110.790785 C111.248935,110.86159 111.26381,110.93894 111.26381,111.022835 C111.26381,111.108515 111.24953,111.187055 111.22097,111.25905 L111.22097,111.25905 C111.191815,111.331045 111.148975,111.3959 111.09126,111.45421 L111.09126,111.453615 C110.97583,111.57083 110.832435,111.62914 110.66167,111.62914 C110.49269,111.62914 110.35108,111.57083 110.235055,111.453615 L110.235055,111.45421 C110.17734,111.3959 110.1345,111.331045 110.105345,111.25905 C110.07738,111.187055 110.062505,111.108515 110.062505,111.022835 L110.062505,111.022835 L110.062505,111.022835 Z" id="Shape" fill="#333333"></path>
                            <path d="M11.650695,73.863895 L12.373025,73.863895 C12.89008,73.863895 13.33395,73.80261 13.704635,73.680635 C14.07294,73.559255 14.36925,73.37659 14.59178,73.134425 L14.59178,73.134425 C14.814905,72.892855 14.98329,72.57096 15.095745,72.16874 C15.2082,71.764735 15.26532,71.280405 15.26532,70.717535 C15.26532,70.182035 15.20582,69.71496 15.087415,69.31869 C14.96901,68.92361 14.7917,68.59755 14.555485,68.339915 C14.319865,68.084065 14.02058,67.89188 13.658225,67.76336 C13.294085,67.634245 12.865685,67.57058 12.37243,67.57058 L11.6501,67.57058 L11.6501,73.863895 L11.650695,73.863895 L11.650695,73.863895 Z M11.650695,81.37696 L12.746685,81.37696 C13.22804,81.37696 13.655845,81.302585 14.0301,81.15324 C14.40257,81.00449 14.722085,80.78196 14.98686,80.485055 L14.98686,80.48446 C15.254015,80.186365 15.45453,79.82877 15.58781,79.41227 C15.721685,78.99458 15.78773,78.515605 15.78773,77.976535 C15.78773,77.30954 15.721685,76.73715 15.589595,76.259365 C15.4581,75.78396 15.26056,75.40316 14.99757,75.11637 L14.99757,75.11637 C14.73696,74.83077 14.387695,74.61538 13.95156,74.471985 C13.513045,74.327995 12.985875,74.256 12.37243,74.256 L11.6501,74.256 L11.6501,81.37696 L11.650695,81.37696 L11.650695,81.37696 Z M6.641985,81.73634 L6.641985,81.409685 L6.641985,81.376365 L6.67471,81.376365 L8.36213,81.376365 L8.36213,67.57058 L6.67471,67.57058 L6.641985,67.57058 L6.641985,67.53726 L6.641985,67.210605 L6.641985,67.17788 L6.67471,67.17788 L12.70325,67.17788 C13.63264,67.17788 14.449575,67.25047 15.155245,67.396245 C15.862105,67.54202 16.457105,67.76098 16.94084,68.053125 C17.42636,68.345865 17.79169,68.70822 18.035045,69.13781 C18.278995,69.567995 18.40097,70.066605 18.40097,70.63245 C18.40097,71.06204 18.318265,71.454145 18.152855,71.808765 C17.987445,72.163385 17.739925,72.478735 17.409105,72.75541 C17.08007,73.03387 16.677255,73.266515 16.20185,73.45513 C15.73418,73.640175 15.195705,73.781785 14.586425,73.87996 L14.586425,73.931725 C15.334935,74.00729 15.99598,74.14533 16.566585,74.345845 C17.147305,74.550525 17.636395,74.819465 18.033855,75.15207 L18.033855,75.15207 C18.431315,75.487055 18.7306,75.880945 18.929925,76.33136 C19.128655,76.78118 19.228615,77.28812 19.228615,77.85218 C19.228615,79.057055 18.722865,80.00965 17.71196,80.713535 C17.210375,81.065775 16.615375,81.32936 15.92934,81.504885 C15.243305,81.68041 14.46445,81.767875 13.595155,81.767875 L6.67471,81.767875 L6.641985,81.767875 L6.641985,81.73634 L6.641985,81.73634 L6.641985,81.73634 Z M28.802165,76.71692 L32.451895,76.71692 L30.628815,71.55232 L28.802165,76.71692 L28.802165,76.71692 L28.802165,76.71692 Z M28.67305,77.109025 L27.784715,79.483075 L27.784715,79.483075 C27.74723,79.58601 27.71272,79.68716 27.68297,79.787715 C27.65322,79.888865 27.627635,79.98823 27.608,80.084025 L27.608,80.085215 C27.56516,80.281565 27.54374,80.457685 27.54374,80.611195 C27.54374,80.72008 27.566945,80.81528 27.613355,80.895605 C27.659765,80.97593 27.729975,81.04376 27.825175,81.099095 L27.825175,81.09969 C27.92216,81.157405 28.06139,81.209765 28.24465,81.254985 C28.429695,81.301395 28.65758,81.341855 28.930685,81.37815 L28.959245,81.38172 L28.959245,81.410875 L28.959245,81.73753 L28.959245,81.770255 L28.92652,81.770255 L25.07211,81.770255 L25.039385,81.770255 L25.039385,81.73753 L25.039385,81.410875 L25.039385,81.37934 L25.070325,81.377555 C25.37199,81.36387 25.637955,81.318055 25.86703,81.240705 C26.094915,81.16276 26.287695,81.05328 26.443585,80.911075 L26.443585,80.91048 C26.600665,80.77006 26.75596,80.55705 26.910065,80.27264 C27.06536,79.986445 27.21887,79.627065 27.370595,79.19688 L31.75515,66.85301 L31.762885,66.830995 L31.78609,66.830995 L32.061575,66.830995 L32.084185,66.830995 L32.092515,66.852415 L37.65874,81.377555 L38.986185,81.377555 L39.01891,81.377555 L39.01891,81.410875 L39.01891,81.73753 L39.01891,81.770255 L38.986185,81.770255 L32.498305,81.770255 L32.46558,81.770255 L32.46558,81.73753 L32.46558,81.410875 L32.46558,81.377555 L32.498305,81.377555 L34.13277,81.377555 L32.60243,77.10962 L28.67305,77.10962 L28.67305,77.109025 L28.67305,77.109025 Z M44.744,81.73634 L44.744,81.409685 L44.744,81.376365 L44.776725,81.376365 L46.355855,81.376365 L46.355855,67.57058 L44.776725,67.57058 L44.744,67.57058 L44.744,67.53726 L44.744,67.210605 L44.744,67.17788 L44.776725,67.17788 L51.64005,67.17788 C52.880625,67.17788 53.978995,67.33615 54.933375,67.65269 C55.888945,67.96923 56.701715,68.444635 57.37109,69.077715 L57.37109,69.077715 C58.04106,69.71258 58.542645,70.480725 58.877035,71.382745 L58.877035,71.382745 C59.21083,72.283575 59.378025,73.31709 59.378025,74.483885 C59.378025,75.64711 59.210235,76.67765 58.87406,77.57491 C58.537885,78.473955 58.033325,79.239125 57.36038,79.872205 C56.687435,80.50469 55.873475,80.978905 54.91969,81.295445 C53.9665,81.610795 52.873485,81.76847 51.639455,81.76847 L44.77613,81.76847 L44.744,81.76847 L44.744,81.73634 L44.744,81.73634 L44.744,81.73634 Z M49.643825,81.37696 L51.33184,81.37696 C52.178525,81.37696 52.894905,81.25677 53.48098,81.0152 C54.064675,80.775415 54.520445,80.413655 54.846505,79.932895 C55.172565,79.452135 55.417705,78.75777 55.581925,77.85099 C55.746145,76.94183 55.828255,75.820255 55.828255,74.485075 C55.828255,73.14216 55.74555,72.014635 55.58133,71.10131 C55.417705,70.191555 55.172565,69.496595 54.846505,69.015835 C54.51985,68.53448 54.064675,68.173315 53.48098,67.93353 C52.894905,67.69196 52.178525,67.57177 51.33184,67.57177 L49.643825,67.57177 L49.643825,81.37696 L49.643825,81.37696 L49.643825,81.37696 Z M66.66975,81.73634 L66.66975,81.409685 L66.66975,81.376365 L66.70188,81.376365 L68.389895,81.376365 L68.389895,67.57058 L66.70188,67.57058 L66.66975,67.57058 L66.66975,67.53726 L66.66975,67.210605 L66.66975,67.17788 L66.70188,67.17788 L78.200255,67.17788 L78.233575,67.17788 L78.233575,67.210605 L78.233575,71.19532 L78.233575,71.22864 L78.200255,71.22864 L77.917035,71.22864 L77.88788,71.22864 L77.884905,71.19889 C77.814695,70.533085 77.6832,69.96486 77.492205,69.495405 C77.301805,69.027735 77.05131,68.65824 76.741315,68.38573 C76.43132,68.1156 76.02077,67.911515 75.510855,67.77526 C74.997965,67.639005 74.383925,67.57058 73.67052,67.57058 L71.67727,67.57058 L71.67727,73.8633 L72.839305,73.8633 C73.180835,73.8633 73.485475,73.803205 73.750845,73.68361 C74.016215,73.564015 74.244695,73.38373 74.43569,73.142755 C74.626685,72.901185 74.77008,72.61142 74.865875,72.27465 C74.961075,71.936095 75.00927,71.54875 75.00927,71.112615 L75.00927,70.912695 L75.00927,70.87997 L75.041995,70.87997 L75.36865,70.87997 L75.401375,70.87997 L75.401375,70.912695 L75.401375,77.206605 L75.401375,77.23933 L75.36865,77.23933 L75.041995,77.23933 L75.00927,77.23933 L75.00927,77.206605 L75.00927,77.010255 C75.00927,76.572335 74.961075,76.18261 74.865875,75.84346 C74.770675,75.506095 74.62728,75.21633 74.43569,74.976545 C74.244695,74.73557 74.016215,74.555285 73.750845,74.43569 C73.485475,74.316095 73.180835,74.255405 72.839305,74.255405 L71.67727,74.255405 L71.67727,81.376365 L73.753225,81.376365 C74.590985,81.376365 75.31034,81.29247 75.91129,81.124085 C76.510455,80.95689 76.992405,80.705205 77.357735,80.368435 C77.72128,80.03345 77.996765,79.59077 78.182405,79.04337 C78.368045,78.492995 78.465625,77.837305 78.47217,77.074515 L78.472765,77.04179 L78.504895,77.04179 L78.83155,77.04179 L78.86487,77.04179 L78.86487,77.074515 L78.86487,81.73515 L78.86487,81.767875 L78.83155,81.767875 L66.701285,81.767875 L66.669155,81.767875 L66.669155,81.73634 L66.66975,81.73634 L66.66975,81.73634 Z M91.38248,73.88591 L92.54392,73.88591 C93.04253,73.88591 93.47331,73.82165 93.836855,73.691345 C94.198615,73.56223 94.493735,73.36826 94.722215,73.10884 L94.722215,73.10884 C94.95129,72.851205 95.123245,72.516815 95.23808,72.105075 C95.352915,71.692145 95.41063,71.20008 95.41063,70.633045 C95.41063,70.05649 95.3547,69.569185 95.24284,69.169345 C95.131575,68.771885 94.96438,68.46189 94.74185,68.23936 L94.74185,68.238765 C94.51932,68.016235 94.210515,67.84904 93.81722,67.737775 C93.421545,67.625915 92.939595,67.57058 92.37256,67.57058 L91.381885,67.57058 L91.381885,73.88591 L91.38248,73.88591 L91.38248,73.88591 Z M91.38248,81.37696 L93.265655,81.37696 L93.298975,81.37696 L93.298975,81.41028 L93.298975,81.736935 L93.298975,81.76966 L93.265655,81.76966 L86.406495,81.76966 L86.37377,81.76966 L86.37377,81.736935 L86.37377,81.41028 L86.37377,81.37696 L86.406495,81.37696 L88.09451,81.37696 L88.09451,67.571175 L86.406495,67.571175 L86.37377,67.571175 L86.37377,67.537855 L86.37377,67.2112 L86.37377,67.178475 L86.406495,67.178475 L93.10679,67.178475 C94.034395,67.178475 94.850735,67.25047 95.55462,67.39446 C96.26029,67.537855 96.853505,67.754435 97.333075,68.04301 C97.81681,68.33218 98.180355,68.69156 98.42252,69.11758 C98.66528,69.54479 98.78666,70.03983 98.78666,70.600915 C98.78666,71.08822 98.69741,71.523165 98.519505,71.905155 C98.341005,72.28774 98.07385,72.61737 97.717445,72.89464 L97.717445,72.89464 C97.360445,73.16953 96.903485,73.40158 96.34597,73.591385 C95.79738,73.779405 95.15002,73.92637 94.40508,74.03347 L94.40508,74.084045 C95.074455,74.14533 95.65934,74.270875 96.162115,74.462465 C96.67322,74.65584 97.09924,74.917045 97.43958,75.244295 C97.780515,75.572735 98.04529,75.97674 98.232715,76.456905 C98.41895,76.93588 98.53081,77.491015 98.5677,78.12231 C98.57484,78.219295 98.582575,78.33889 98.592095,78.48169 C98.60102,78.621515 98.611135,78.785735 98.621845,78.971375 L98.621845,78.97197 C98.656355,79.75142 98.765835,80.335115 98.951475,80.723055 C99.132355,81.102665 99.38523,81.29247 99.710695,81.29247 C99.747585,81.29247 99.789235,81.28771 99.835645,81.279975 C99.882055,81.270455 99.933225,81.257365 99.987965,81.24011 C100.0433,81.22226 100.102205,81.19965 100.16468,81.174065 C100.22656,81.147885 100.293795,81.11635 100.3646,81.082435 L100.39197,81.06994 L100.406845,81.09612 L100.54429,81.32817 L100.55976,81.354945 L100.534175,81.371605 C100.34675,81.49596 100.153375,81.60425 99.955835,81.69707 C99.757105,81.790485 99.552425,81.869025 99.34596,81.9315 C99.139495,81.99338 98.92827,82.040385 98.71288,82.071325 C98.49749,82.10167 98.276745,82.117735 98.05243,82.117735 C97.83466,82.117735 97.625815,82.096315 97.427085,82.05407 C97.228355,82.011825 97.039145,81.946375 96.85886,81.860695 L96.858265,81.860695 C96.68036,81.773825 96.51495,81.66851 96.362035,81.542965 C96.20912,81.41742 96.06989,81.27224 95.943155,81.107425 L95.94256,81.10683 C95.749185,80.846815 95.596865,80.475535 95.48798,79.993585 C95.37969,79.516395 95.313645,78.92913 95.289845,78.232385 L95.289845,78.23179 C95.28687,78.05091 95.281515,77.889665 95.276755,77.748055 C95.2714,77.607635 95.264855,77.485065 95.257715,77.380345 L95.257715,77.380345 C95.22023,76.786535 95.12979,76.28376 94.98818,75.8744 C94.847165,75.46623 94.654385,75.15088 94.411625,74.92716 C94.16946,74.70463 93.840425,74.53803 93.426305,74.42617 C93.008615,74.31312 92.50465,74.25719 91.915005,74.25719 C91.885255,74.25719 91.84777,74.25838 91.80255,74.260165 C91.75733,74.26195 91.701995,74.26433 91.637735,74.268495 C91.575855,74.27147 91.519925,74.274445 91.471135,74.27623 C91.43722,74.27742 91.408065,74.27861 91.38248,74.279205 L91.38248,81.37696 L91.38248,81.37696 L91.38248,81.37696 Z" id="Shape" fill="#FFFFFF"></path>
                        </g>
                    </g>
                </g>
            </g>
        </g>
    </g>
</svg>