<?xml version="1.0" encoding="UTF-8"?>
<svg width="123px" height="119px" viewBox="0 0 123 119" version="1.1" xmlns="http://www.w3.org/2000/svg" xmlns:xlink="http://www.w3.org/1999/xlink">
    <!-- Generator: Sketch 40.2 (33826) - http://www.bohemiancoding.com/sketch -->
    <title>100k_yelp</title>
    <desc>Created with Sketch.</desc>
    <defs></defs>
    <g id="Page-1" stroke="none" stroke-width="1" fill="none" fill-rule="evenodd">
        <g id="Our-partners" transform="translate(-530.000000, -3501.000000)">
            <g id="Content" transform="translate(376.000000, 150.000000)">
                <g id="Support-of-$100k+" transform="translate(1.000000, 2965.000000)">
                    <g id="100k_yelp" transform="translate(153.000000, 386.000000)">
                        <rect id="Rectangle-2" fill="#FFFFFF" x="0.531182796" y="0" width="121.875269" height="119"></rect>
                        <g id="Layer_1" transform="translate(1.000000, 34.000000)">
                            <path d="M66.867625,19.77624 C66.51612,19.027855 65.870585,18.45734 65.09316,18.20566 L63.14869,17.54137 L64.71564,17.145095 C65.542675,16.95452 66.25355,16.436035 66.67221,15.716085 C67.11507,14.95681 67.20703,14.047495 66.929335,13.15149 C66.516725,11.76967 65.21053,9.78043 64.20623,8.72168 C63.551015,7.949095 62.63444,7.50926 61.66886,7.50926 C60.886595,7.50926 60.15636,7.799055 59.61186,8.326615 L59.475735,8.458505 L59.363205,8.61157 L57.90939,10.605045 C57.77145,8.15177 57.6202,5.658565 57.40361,3.23796 C57.33948,1.74845 56.25653,0.191785 53.971445,0.191785 C53.90187,0.191785 53.828665,0.19239 53.753645,0.19481 L53.61268,0.20086 L53.474135,0.224455 C51.869675,0.494285 50.46789,0.86878 48.789015,1.479225 L48.74001,1.49677 L48.691005,1.51613 C47.23114,2.12476 46.644895,3.051015 46.40955,3.72075 C46.127015,4.526005 46.20022,5.388735 46.618275,6.151035 L46.635215,6.18068 L46.653365,6.21093 C47.94867,8.40829 49.32686,10.572375 50.66391,12.66991 L48.55488,11.81928 L48.39032,11.753335 L48.21971,11.714615 C48.012195,11.667425 47.798025,11.643225 47.58446,11.643225 C46.030215,11.643225 44.701635,12.831445 44.441485,14.428645 C44.429385,14.48733 44.419705,14.5563 44.406395,14.618615 C43.89517,14.031765 43.2454,13.5036 42.396585,13.10067 C41.486665,12.669305 40.46724,12.44001 39.44963,12.44001 C38.61231,12.44001 37.797375,12.59247 37.047175,12.88529 C36.51054,12.571295 35.878315,12.392215 35.197085,12.392215 C34.16193,12.392215 33.245355,12.80785 32.60345,13.477585 L32.60345,12.06491 C32.60345,10.09624 31.052835,8.61157 28.995835,8.61157 C26.93944,8.61157 25.388825,10.09624 25.388825,12.06491 L25.388825,15.085675 C25.214585,14.847305 25.02885,14.618615 24.82315,14.409285 C23.994905,13.5641 22.48785,12.55496 20.018845,12.55496 C19.903895,12.55496 19.786525,12.557985 19.667945,12.56222 C18.29641,12.61183 16.463865,12.9591 14.98706,14.231415 C14.62648,13.688125 14.103155,13.22893 13.438865,12.917355 C12.91796,12.672935 12.337765,12.54407 11.760595,12.54407 C10.162185,12.54407 8.83784,13.500575 8.39014,14.979195 L7.981765,16.327135 L7.086365,14.56719 C6.49165,13.396515 5.35667,12.697135 4.048055,12.697135 C3.572525,12.697135 3.080055,12.789095 2.58819,12.969385 C1.62019,13.32452 0.84337,14.07714 0.457985,15.03425 C0.05808,16.03129 0.109505,17.137835 0.605,18.15242 L4.36568,25.857095 C3.207105,26.21465 2.341955,27.076775 1.999525,28.279515 C1.693395,29.351575 1.885785,30.46659 2.52769,31.33779 C3.035285,32.028095 4.04261,32.85876 5.953805,32.90474 C6.030035,32.906555 6.105055,32.90716 6.180075,32.90716 C9.00119,32.90716 10.926905,31.499325 11.75152,28.833695 L12.96515,24.9139 C13.947065,27.951605 16.260585,29.68251 19.543315,29.68251 L19.63467,29.680695 C22.767965,29.649235 24.55453,28.430765 25.55157,27.25646 C25.99927,28.67216 27.332085,29.64621 28.99644,29.64621 C30.07213,29.64621 31.00746,29.236625 31.65602,28.56689 L31.65602,29.972305 C31.65602,31.940975 33.200585,33.42625 35.2473,33.42625 C37.295225,33.42625 38.837975,31.940975 38.837975,29.972305 L38.837975,29.5845 C38.89182,29.58692 38.94506,29.589945 39.000115,29.59176 C39.099335,29.59539 39.198555,29.5966 39.295355,29.5966 C41.74258,29.5966 43.24782,28.578385 44.07788,27.72352 C45.799105,25.9545 46.14214,23.417735 46.193565,21.79089 C46.57774,21.958475 46.995795,22.05951 47.44168,22.05951 C47.777455,22.05951 48.10718,22.00627 48.423595,21.900395 L49.70317,21.50533 L48.61054,22.803055 C48.050915,23.444355 47.779875,24.2847 47.864575,25.11718 C47.955325,25.991405 48.41694,26.78093 49.168955,27.34116 C50.31543,28.214175 52.54304,29.052705 53.978705,29.31588 C54.255795,29.38364 54.538935,29.41873 54.817235,29.41873 C56.367245,29.41873 57.674045,28.372685 57.92391,26.93218 L57.955975,26.74463 L57.955975,26.554055 L57.95658,24.47467 L59.02138,26.24006 L59.1206,26.40462 L59.24644,26.549215 C59.80062,27.18628 60.6331,27.5517 61.53092,27.5517 C62.416035,27.5517 63.278765,27.195355 63.922485,26.568575 C65.109495,25.54431 66.37455,23.80191 66.901505,22.45639 C67.264505,21.567645 67.25301,20.59178 66.867625,19.77624" id="Shape" fill="#FFFFFF"></path>
                            <path d="M35.247905,33.55209 C33.129195,33.55209 31.53139,32.01418 31.53139,29.972305 L31.53139,28.8585 C30.854395,29.44898 29.966255,29.771445 28.997045,29.771445 C27.385325,29.771445 26.038595,28.88633 25.504985,27.500275 C24.528515,28.57173 22.742555,29.775075 19.636485,29.806535 L19.54513,29.80835 C16.368275,29.80835 14.048705,28.216595 12.97362,25.316225 L11.87252,28.87181 C11.00737,31.6657 8.96489,33.09471 5.952595,33.03058 C3.989975,32.982785 2.9524,32.123685 2.427865,31.41281 C1.76418,30.508335 1.563925,29.355205 1.880945,28.245635 C2.2143,27.07254 3.05283,26.18198 4.190835,25.783285 L0.493075,18.207475 C-0.01815,17.16143 -0.07139,16.01798 0.343035,14.98948 C0.741125,13.999095 1.543355,13.221065 2.545235,12.853225 C3.052225,12.666885 3.558005,12.57311 4.04866,12.57311 C5.404465,12.57311 6.5824,13.2979 7.198895,14.512135 L7.95333,15.99378 L8.27156,14.94471 C8.735595,13.411035 10.10592,12.420045 11.76241,12.420045 C12.35894,12.420045 12.95789,12.553145 13.49392,12.804825 C14.11223,13.09462 14.63495,13.52296 15.013075,14.047495 C16.52376,12.80422 18.368405,12.48478 19.66492,12.43759 C22.37774,12.343815 24.02939,13.419505 24.914505,14.32277 C25.03127,14.44135 25.146825,14.57203 25.2648,14.717835 L25.2648,12.06612 C25.2648,10.025455 26.86926,8.48694 28.99765,8.48694 C31.12604,8.48694 32.7305,10.025455 32.7305,12.06612 L32.7305,13.184765 C33.400235,12.591865 34.266595,12.26819 35.1989,12.26819 C35.858955,12.26819 36.50086,12.43396 37.059275,12.747955 C37.81492,12.461185 38.61957,12.315985 39.451445,12.315985 C40.487205,12.315985 41.52478,12.548305 42.452245,12.98814 C43.16675,13.327545 43.79716,13.783715 44.32956,14.347575 C44.624195,12.706815 45.98484,11.518595 47.58567,11.518595 C47.807705,11.518595 48.03095,11.544005 48.24875,11.59301 L48.41936,11.632335 L48.60328,11.70433 L50.34931,12.407945 C49.13931,10.51006 47.793185,8.389535 46.546885,6.275665 L46.50998,6.21214 C46.074985,5.41959 45.997545,4.52056 46.29218,3.680215 C46.535995,2.98628 47.1416,2.027355 48.64442,1.40118 L48.74727,1.36246 C50.42917,0.750805 51.837005,0.37389 53.45417,0.10164 L53.592715,0.078045 L53.74941,0.070785 C53.82685,0.06776 53.90066,0.067155 53.972655,0.067155 C56.33518,0.067155 57.46169,1.657095 57.530055,3.233725 C57.73757,5.546035 57.8864,7.962405 58.016475,10.249305 L59.376515,8.3853 L59.526555,8.23768 C60.094045,7.68713 60.855135,7.38463 61.670675,7.38463 C62.66711,7.38463 63.62664,7.842615 64.30424,8.641215 C65.29281,9.683025 66.62744,11.694045 67.051545,13.1164 C67.339525,14.043865 67.243935,14.990085 66.782925,15.77961 C66.34793,16.526785 65.6062,17.06947 64.746495,17.267305 L63.590945,17.55952 L65.13672,18.087685 C65.944395,18.349045 66.61776,18.945575 66.983785,19.723605 C67.38248,20.56758 67.397,21.58156 67.021295,22.505395 C66.48708,23.870275 65.219605,25.62054 64.008395,26.665375 C63.348945,27.30728 62.445075,27.67875 61.535155,27.67875 C60.60043,27.67875 59.733465,27.2976 59.155085,26.632705 L59.02985,26.48811 L58.08605,24.926 L58.085445,26.74584 L58.051565,26.954565 C57.79081,28.45557 56.43198,29.545175 54.82147,29.545175 C54.530465,29.545175 54.23825,29.508875 53.95269,29.4393 C52.541225,29.18157 50.27913,28.34304 49.09696,27.4428 C48.31893,26.86321 47.837955,26.04283 47.74418,25.132305 C47.65585,24.26655 47.93899,23.3893 48.520395,22.723195 L49.33654,21.752775 L48.463525,22.022 C47.781085,22.250085 47.02665,22.244035 46.31517,21.97602 C46.205665,24.49887 45.48511,26.462095 44.170445,27.812455 C43.32405,28.683655 41.791585,29.723045 39.29838,29.723045 C39.199765,29.723045 39.09994,29.72123 38.998905,29.7176 L38.96684,29.715785 L38.96684,29.97291 C38.963815,32.01418 37.36601,33.55209 35.247905,33.55209 L35.247905,33.55209 Z M31.782465,28.257735 L31.782465,29.97291 C31.782465,31.8714 33.271975,33.30162 35.247905,33.30162 C37.223835,33.30162 38.713345,31.8714 38.713345,29.97291 L38.713345,29.45382 L39.004955,29.466525 C41.572575,29.553645 43.143155,28.50639 43.988945,27.637005 C45.288485,26.30056 45.989075,24.332495 46.068935,21.787865 L46.074985,21.602735 L46.24499,21.67715 C46.951025,21.986305 47.702435,22.01111 48.384875,21.783025 L50.07464,21.261515 L48.707945,22.88594 C48.17131,23.50183 47.90995,24.31011 47.99102,25.10629 C48.07814,25.94603 48.52342,26.7047 49.245185,27.242545 C50.39892,28.12161 52.61322,28.93957 54.0023,29.19488 C54.27576,29.262035 54.547405,29.29531 54.818445,29.29531 C56.30735,29.29531 57.561515,28.292825 57.801095,26.91282 L57.833765,26.72527 L57.83195,26.55587 L57.832555,24.026365 L59.228895,26.3417 L59.34203,26.46875 C59.871405,27.07859 60.67061,27.42828 61.53213,27.42828 C62.37671,27.42828 63.217055,27.082825 63.836575,26.48085 C65.026005,25.45477 66.26444,23.745645 66.786555,22.41283 C67.13564,21.553125 67.12475,20.611745 66.755095,19.83069 C66.41811,19.11558 65.799195,18.56745 65.055045,18.326055 L62.708855,17.52443 L64.685995,17.0247 C65.479755,16.841385 66.16401,16.341655 66.56452,15.65377 C66.989835,14.92535 67.076955,14.05052 66.81015,13.189 C66.39512,11.80113 65.08832,9.83488 64.11548,8.8088 C63.48144,8.061625 62.59088,7.635705 61.66886,7.635705 C60.91866,7.635705 60.21928,7.912795 59.69898,8.417365 L59.562855,8.54865 L59.46424,8.68659 L57.803515,10.963205 L57.78355,10.61291 C57.65045,8.22679 57.496175,5.682765 57.278375,3.25006 C57.21485,1.787775 56.167595,0.317625 53.97084,0.317625 C53.90308,0.317625 53.83048,0.31823 53.757275,0.321255 L53.616915,0.3267 L53.4941,0.349085 C51.89327,0.61831 50.49814,0.991595 48.83076,1.597805 L48.73759,1.634105 C47.32189,2.22398 46.7544,3.11817 46.527525,3.763705 C46.256485,4.53629 46.327875,5.363325 46.72778,6.09235 L46.759845,6.148615 C48.07693,8.38288 49.507755,10.625615 50.768575,12.603965 L50.97972,12.934295 L48.342525,11.87131 L48.191275,11.83743 C47.991625,11.79266 47.787135,11.76967 47.58446,11.76967 C46.08769,11.76967 44.8184,12.896785 44.564905,14.450425 L44.54857,14.542385 C44.54252,14.577475 44.53647,14.612565 44.52921,14.64584 L44.47718,14.89268 L44.31262,14.70271 C43.759045,14.069275 43.115325,13.58225 42.34274,13.21562 C41.449155,12.791515 40.448485,12.567665 39.44963,12.567665 C38.62804,12.567665 37.834885,12.71468 37.09255,13.004475 L37.036285,13.02686 L36.984255,12.996005 C36.453065,12.685035 35.83415,12.520475 35.19769,12.520475 C34.230295,12.520475 33.342155,12.891945 32.694805,13.567125 L32.47882,13.792185 L32.47882,12.06733 C32.47882,10.17005 30.98205,8.73983 28.997045,8.73983 C27.01204,8.73983 25.51527,10.17005 25.51527,12.06733 L25.51527,15.471665 L25.289,15.1613 C25.09903,14.90115 24.918135,14.68456 24.73482,14.498825 C23.8854,13.631255 22.310585,12.590655 19.67339,12.688665 C18.386555,12.73525 16.54433,13.05711 15.07055,14.327005 L14.962255,14.41957 L14.88421,14.30099 C14.52605,13.761935 14.008775,13.322705 13.38744,13.031095 C12.88408,12.79454 12.322035,12.66991 11.761805,12.66991 C10.219055,12.66991 8.942505,13.59072 8.51114,15.015495 L8.012015,16.6617 L6.97565,14.62406 C6.40211,13.49634 5.30827,12.822975 4.04866,12.822975 C3.58765,12.822975 3.111515,12.91191 2.631145,13.08736 C1.69642,13.430395 0.94622,14.157605 0.57475,15.08144 C0.188155,16.043995 0.23837,17.114845 0.71753,18.096155 L4.54234,25.93272 L4.402585,25.975675 C3.276075,26.322945 2.4442,27.174785 2.11992,28.31279 C1.82589,29.346735 2.010415,30.42182 2.628725,31.26156 C3.119985,31.928875 4.09585,32.733525 5.956225,32.778295 C6.03185,32.78011 6.106265,32.780715 6.180075,32.780715 C8.940085,32.780715 10.825265,31.402525 11.632335,28.796185 L12.96273,24.49766 L13.08494,24.874575 C14.060805,27.89292 16.35436,29.556065 19.543315,29.556065 L19.634065,29.55425 C22.803055,29.52279 24.549085,28.24261 25.45598,27.17418 L25.6036,27.00115 L25.67136,27.217135 C26.113615,28.61529 27.4186,29.51916 28.997045,29.51916 C30.00437,29.51916 30.917315,29.15011 31.567085,28.47856 L31.782465,28.257735 L31.782465,28.257735 Z" id="Shape" fill="#CDCCCC"></path>
                            <path d="M35.247905,33.493405 C33.163075,33.493405 31.59068,31.9803 31.59068,29.97291 L31.59068,28.72782 C30.91308,29.363675 29.99832,29.713365 28.997045,29.713365 C27.37504,29.713365 26.026495,28.804655 25.525555,27.38956 C24.57268,28.46888 22.79035,29.716995 19.63588,29.74906 L19.544525,29.74906 C16.334395,29.74906 14.00696,28.112535 12.968175,25.13291 L11.81686,28.855475 C10.981355,31.55075 9.033255,32.97613 6.18068,32.97613 C6.105055,32.97613 6.02943,32.974315 5.952595,32.9725 C4.014175,32.92531 2.990515,32.078915 2.473845,31.37651 C1.820445,30.48958 1.624425,29.353995 1.935395,28.261365 C2.27117,27.085245 3.119985,26.19892 4.271905,25.81656 L0.545105,18.18146 C0.04114,17.14933 -0.01089,16.023425 0.39688,15.010655 C0.78892,14.035395 1.579655,13.269465 2.565805,12.90828 C3.06614,12.724965 3.56587,12.63119 4.049265,12.63119 C5.38208,12.63119 6.540655,13.34388 7.146865,14.53815 L7.96664,16.149265 L8.32722,14.961045 C8.78339,13.45278 10.13133,12.47752 11.7612,12.47752 C12.34926,12.47752 12.93974,12.608805 13.46851,12.856855 C14.0965,13.152095 14.62527,13.591325 15.00158,14.1328 C16.50682,12.867745 18.364775,12.54286 19.665525,12.49567 C19.78471,12.49083 19.902685,12.489015 20.020055,12.489015 C22.511445,12.489015 24.03423,13.507835 24.87155,14.362095 C25.02159,14.51516 25.169815,14.687585 25.322275,14.886025 L25.322275,12.06612 C25.322275,10.059335 26.902535,8.545625 28.995835,8.545625 C31.09095,8.545625 32.67121,10.059335 32.67121,12.06612 L32.67121,13.317865 C33.34276,12.67717 34.23332,12.325665 35.198295,12.325665 C35.857745,12.325665 36.49844,12.493855 37.05383,12.81269 C37.80887,12.521685 38.61594,12.374065 39.449025,12.374065 C40.47692,12.374065 41.50542,12.605175 42.42502,13.04138 C43.168565,13.3947 43.82136,13.875675 44.36586,14.472205 C44.368885,14.45224 44.372515,14.43288 44.376145,14.415335 C44.64416,12.772155 45.992705,11.577885 47.58446,11.577885 C47.804075,11.577885 48.02248,11.602085 48.23423,11.64988 L48.40605,11.689205 L48.58029,11.75878 L50.495115,12.530155 C49.265755,10.602625 47.886355,8.43491 46.59589,6.246625 L46.560195,6.183705 C46.133065,5.405675 46.05744,4.523585 46.34663,3.699575 C46.585605,3.017135 47.182135,2.074545 48.665595,1.456235 L48.766025,1.41691 C50.449135,0.80707 51.85334,0.43076 53.462035,0.15972 L53.60058,0.136125 L53.75062,0.130075 C53.826245,0.12705 53.90066,0.12584 53.97205,0.12584 C55.03927,0.12584 55.936485,0.466455 56.568105,1.110175 C57.115025,1.667985 57.43507,2.423025 57.469555,3.236145 C57.683725,5.61803 57.834975,8.089455 57.96505,10.416285 L59.421285,8.419785 L59.564065,8.279425 C60.120665,7.74037 60.86905,7.443315 61.667045,7.443315 C62.647145,7.443315 63.59155,7.89404 64.25705,8.67933 C65.24199,9.71872 66.571175,11.718245 66.99286,13.13334 C67.276,14.045075 67.18162,14.975565 66.729685,15.75057 C66.30195,16.48504 65.572925,17.016835 64.72895,17.21104 L63.38222,17.551655 L65.113125,18.14395 C65.905675,18.399865 66.566335,18.985505 66.92631,19.747805 C67.31714,20.579075 67.331055,21.57551 66.963215,22.483615 C66.430815,23.842445 65.16939,25.58303 63.964835,26.62121 C63.31325,27.25525 62.42511,27.62067 61.530315,27.62067 C60.613135,27.62067 59.7619,27.24678 59.19562,26.595195 L59.06978,26.4506 L58.96451,26.276965 L58.023735,24.71667 L58.02313,26.74584 L57.98925,26.944885 C57.73394,28.418665 56.40052,29.487095 54.818445,29.487095 C54.53349,29.487095 54.24551,29.452005 53.962975,29.38364 C52.553325,29.124095 50.301515,28.2898 49.129025,27.396215 C48.36249,26.825095 47.89059,26.019235 47.79863,25.126255 C47.712115,24.278045 47.989205,23.416525 48.560325,22.76252 L49.505335,21.63843 L48.44356,21.966945 C47.743575,22.199265 46.975225,22.18293 46.25709,21.891925 C46.16029,24.43958 45.443365,26.41793 44.12628,27.77192 C43.28533,28.63586 41.766175,29.66436 39.29475,29.66436 C39.196135,29.66436 39.098125,29.66436 38.99709,29.66073 C38.96563,29.658915 38.934775,29.6571 38.905735,29.655285 L38.905735,29.97291 C38.90634,31.9803 37.33334,33.493405 35.247905,33.493405" id="Shape" fill="#FFFFFF"></path>
                            <path d="M35.247905,33.61864 C33.091685,33.61864 31.465445,32.05169 31.465445,29.97291 L31.465445,29.00249 C30.79087,29.543965 29.925115,29.8386 28.997045,29.8386 C27.408315,29.8386 26.050695,28.975265 25.481995,27.62309 C24.49766,28.666715 22.70807,29.842835 19.636485,29.874295 L19.54392,29.874295 C16.409415,29.874295 14.092265,28.332755 12.979065,25.52132 L11.93544,28.891775 C11.08239,31.64513 9.09194,33.101365 6.17947,33.101365 C6.10203,33.101365 6.025195,33.09955 5.94715,33.097735 C3.958515,33.04994 2.90521,32.17632 2.372205,31.45153 C1.697025,30.53314 1.49314,29.35702 1.815,28.22688 C2.147145,27.061045 2.97539,26.16383 4.09706,25.74517 L0.432575,18.236515 C-0.086515,17.172925 -0.14036,16.01072 0.281325,14.96407 C0.686675,13.95614 1.50403,13.16359 2.52406,12.79091 C3.038915,12.60215 3.55256,12.50656 4.04987,12.50656 C5.43169,12.50656 6.631405,13.245265 7.259395,14.48249 L7.938205,15.81591 L8.208035,14.92535 C8.681145,13.362635 10.07688,12.35289 11.76241,12.35289 C12.36741,12.35289 12.976645,12.48841 13.52296,12.74372 C14.12796,13.02807 14.645235,13.44431 15.026385,13.951905 C16.54312,12.73162 18.378085,12.417625 19.6625,12.37104 C19.782895,12.3662 19.90208,12.364385 20.021265,12.364385 C22.55803,12.364385 24.107435,13.403775 24.9623,14.27558 C25.041555,14.356045 25.118995,14.441955 25.197645,14.532705 L25.197645,12.066725 C25.197645,9.987945 26.831145,8.42039 28.997045,8.42039 C31.16355,8.42039 32.797655,9.987945 32.797655,12.066725 L32.797655,13.040775 C33.463155,12.497485 34.305315,12.201035 35.199505,12.201035 C35.85956,12.201035 36.50328,12.36499 37.065325,12.675355 C37.817945,12.39282 38.620175,12.249435 39.450235,12.249435 C40.49628,12.249435 41.543535,12.48478 42.480075,12.92885 C43.16191,13.25313 43.77054,13.68268 44.28842,14.208425 C44.63448,12.602755 45.99331,11.45265 47.58567,11.45265 C47.816175,11.45265 48.043655,11.47806 48.26327,11.528275 L48.43509,11.5676 L50.17991,12.268795 C49.07034,10.527605 47.732685,8.420995 46.488805,6.310755 L46.4519,6.24602 C46.00662,5.434715 45.928575,4.516325 46.228655,3.658435 C46.4761,2.9524 47.090175,1.97714 48.618405,1.340075 L48.721255,1.300145 C50.41586,0.685465 51.82672,0.307945 53.44207,0.035695 L53.580615,0.0121 L53.74578,0.00484 C53.823825,0.000605 53.89945,0 53.972655,0 C55.073755,0 56.00243,0.35332 56.65825,1.02245 C57.226345,1.601435 57.559095,2.385515 57.595395,3.230095 C57.803515,5.54785 57.95295,7.961195 58.07153,10.05873 L59.32146,8.344765 L59.47755,8.18928 C60.05835,7.62663 60.83638,7.31687 61.668255,7.31687 C62.685865,7.31687 63.66536,7.783325 64.35385,8.597655 C65.34726,9.64491 66.68794,11.666215 67.11386,13.09704 C67.40668,14.041445 67.30988,15.005815 66.83919,15.812885 C66.39512,16.576395 65.635845,17.12997 64.7592,17.33204 L63.824475,17.5692 L65.15608,18.024765 C65.97888,18.29036 66.66737,18.899595 67.041865,19.69396 C67.44782,20.556085 67.461735,21.59003 67.080585,22.5302 C66.542135,23.904155 65.2674,25.664705 64.048325,26.714985 C63.377985,27.368385 62.458385,27.7453 61.531525,27.7453 C60.57744,27.7453 59.692325,27.355075 59.101845,26.676265 L58.976005,26.53167 L58.857425,26.34049 L58.149575,25.166185 L58.14897,26.745235 L58.113275,26.96485 C57.84768,28.49913 56.461625,29.611725 54.818445,29.611725 C54.523205,29.611725 54.225545,29.57603 53.93333,29.50464 C52.514605,29.24328 50.239805,28.399305 49.0534,27.49483 C48.25964,26.90314 47.768985,26.066425 47.674605,25.13775 C47.585065,24.25445 47.873045,23.35784 48.46655,22.67903 L49.13568,21.88285 L48.48107,22.08492 C47.80226,22.309375 47.057505,22.304535 46.375065,22.068585 C46.25104,24.564815 45.525645,26.511705 44.216425,27.85783 C43.35914,28.73871 41.809735,29.788385 39.295355,29.788385 C39.208235,29.788385 39.119905,29.788385 39.031575,29.784755 L39.031575,29.972305 C39.03218,32.05169 37.40473,33.61864 35.247905,33.61864 L35.247905,33.61864 Z M31.715915,28.438025 L31.715915,29.97291 C31.715915,31.90891 33.234465,33.367565 35.2473,33.367565 C37.261345,33.367565 38.7805,31.908305 38.7805,29.97291 L38.7805,29.52279 L39.00072,29.53489 C41.61069,29.617775 43.179455,28.563865 44.03674,27.68359 C45.33144,26.35259 46.03687,24.40207 46.131855,21.885875 L46.139115,21.7074 L46.30428,21.774555 C46.97946,22.048015 47.721795,22.072215 48.40484,21.847155 L49.8762,21.392195 L48.65652,22.84238 C48.107785,23.47158 47.84098,24.298615 47.923865,25.112945 C48.012195,25.97023 48.46655,26.745235 49.20465,27.294575 C50.363225,28.177875 52.58781,29.001885 53.985965,29.25901 C54.265475,29.32677 54.543775,29.36065 54.818445,29.36065 C56.339415,29.36065 57.620805,28.335175 57.86583,26.9225 L57.89971,26.72406 L57.899105,24.26534 L59.178075,26.384655 L59.29121,26.511705 C59.833895,27.136065 60.65004,27.494225 61.531525,27.494225 C62.394255,27.494225 63.249725,27.14272 63.87953,26.53046 C65.076825,25.49833 66.321915,23.77892 66.848265,22.43703 C67.2034,21.55978 67.19009,20.599645 66.81499,19.801045 C66.46893,19.068995 65.835495,18.507555 65.07622,18.26253 L62.943595,17.533505 L64.69991,17.08883 C65.512425,16.90128 66.211805,16.39066 66.6226,15.687045 C67.057595,14.941685 67.145925,14.0481 66.87428,13.170245 C66.45804,11.773905 65.14519,9.79737 64.1663,8.76524 C63.52016,8.002335 62.610845,7.567945 61.667045,7.567945 C60.90051,7.567945 60.184795,7.852295 59.651185,8.368965 L59.50901,8.508115 L57.859175,10.773235 L57.83921,10.422335 C57.71821,8.249175 57.56454,5.696075 57.34432,3.24643 C57.31044,2.45751 57.0031,1.732115 56.477355,1.197295 C55.87054,0.577775 55.00297,0.249865 53.97084,0.249865 C53.901265,0.249865 53.828665,0.25047 53.756065,0.2541 L53.60542,0.26015 L53.482605,0.282535 C51.882985,0.55176 50.48483,0.92565 48.80777,1.53428 L48.71218,1.573 C47.272885,2.17316 46.69632,3.083685 46.46642,3.74132 C46.188725,4.53145 46.26193,5.377845 46.67091,6.124415 L46.706,6.186125 C48.026715,8.42523 49.454515,10.664335 50.601595,12.463605 L50.81274,12.79333 L48.36128,11.806575 L48.208215,11.7733 C48.00675,11.726715 47.798025,11.703725 47.586275,11.703725 C46.05744,11.703725 44.76032,12.85262 44.50138,14.435905 L44.446325,14.745665 L44.274505,14.55751 C43.7415,13.973685 43.10141,13.501785 42.37178,13.155725 C41.46912,12.727385 40.45877,12.50051 39.44963,12.50051 C38.629855,12.50051 37.83912,12.645105 37.099205,12.93006 L37.043545,12.95184 L36.991515,12.922195 C36.45609,12.61425 35.83536,12.451505 35.1989,12.451505 C34.27204,12.451505 33.405075,12.791515 32.757725,13.40922 L32.545975,13.61129 L32.545975,12.066725 C32.545975,10.13133 31.020165,8.671465 28.99644,8.671465 C26.97332,8.671465 25.448115,10.13133 25.448115,12.066725 L25.448115,15.255075 L25.223055,14.96286 C25.073015,14.768655 24.92963,14.60107 24.78201,14.450425 C23.96163,13.613105 22.4697,12.614855 20.020055,12.614855 C19.9045,12.614855 19.78834,12.61667 19.67097,12.62151 C18.395025,12.66749 16.564295,12.983905 15.08265,14.228995 L14.97738,14.317325 L14.899335,14.204795 C14.53694,13.683285 14.0239,13.25676 13.415875,12.970595 C12.902835,12.731015 12.330505,12.603965 11.761805,12.603965 C10.1882,12.603965 8.888055,13.54353 8.447615,14.998555 L7.996285,16.48504 L7.035545,14.595625 C6.451115,13.44431 5.33489,12.757635 4.049265,12.757635 C3.5816,12.757635 3.09639,12.84778 2.60876,13.026255 C1.655885,13.37534 0.89177,14.11586 0.51304,15.057845 C0.119185,16.037945 0.17061,17.128155 0.657635,18.12701 L4.447355,25.890975 L4.31123,25.935745 C3.20045,26.30419 2.37886,27.1645 2.05579,28.295245 C1.755105,29.35097 1.945075,30.446625 2.57488,31.302095 C3.07461,31.98272 4.06681,32.801285 5.95441,32.84666 C6.031245,32.848475 6.106265,32.85029 6.180075,32.85029 C8.97094,32.85029 10.87911,31.45516 11.69707,28.81857 L12.960915,24.73119 L13.086755,25.091165 C14.10497,28.014525 16.39913,29.623825 19.544525,29.623825 L19.63588,29.623825 C22.763125,29.592365 24.513995,28.346065 25.43178,27.306675 L25.572745,27.146955 L25.644135,27.347815 C26.12511,28.70846 27.44159,29.58813 28.997045,29.58813 C29.96081,29.58813 30.851975,29.249935 31.504165,28.636465 L31.715915,28.438025 L31.715915,28.438025 Z" id="Shape" fill="#CDCCCC"></path>
                            <path d="M48.56456,5.086235 C48.245725,4.50604 48.683745,3.924635 49.54587,3.56587 C51.062605,3.01532 52.32766,2.66805 53.84258,2.413345 C54.883785,2.3716 55.185075,2.821115 55.188705,3.371665 C55.475475,6.549125 55.65153,9.893565 55.82456,13.07042 C55.867515,14.32398 54.60851,14.693635 53.90187,13.623995 C52.08687,10.75932 50.270055,7.978135 48.56456,5.086235 L48.56456,5.086235 Z M47.726635,13.8787 C47.30495,13.782505 46.71084,14.137035 46.625535,14.836415 C46.350865,16.00588 46.2946,18.109465 46.554145,19.085935 C46.713865,19.749015 47.29406,19.947455 47.742365,19.79076 L52.86611,18.206265 C54.02892,17.86807 54.027105,16.29386 52.836465,15.93691 L47.726635,13.8787 L47.726635,13.8787 Z M55.739255,26.554055 C55.665445,26.981185 55.12881,27.33995 54.45121,27.14877 C53.267225,26.94791 51.30642,26.18803 50.5054,25.57093 C49.955455,25.16679 49.976025,24.60656 50.29365,24.25324 L53.78329,20.10294 C54.628475,19.10469 55.87417,19.55723 55.741675,21.013465 L55.739255,26.554055 L55.739255,26.554055 Z M60.92229,25.096005 C61.20664,25.422705 61.93385,25.452955 62.41664,24.939915 C63.353785,24.15765 64.44702,22.659065 64.8439,21.6348 C65.105865,21.004995 64.855395,20.452025 64.39983,20.31348 L59.267615,18.55898 C58.129005,18.14516 57.31044,19.36 58.061245,20.35099 L60.92229,25.096005 L60.92229,25.096005 Z M61.15703,9.91958 C61.468,9.61829 62.112325,9.6437 62.54732,10.197275 C63.38706,11.05698 64.523855,12.827815 64.80881,13.79763 C65.0133,14.448005 64.66845,14.888445 64.201995,14.98706 L58.965115,16.313825 C57.79444,16.627215 57.05755,15.317995 57.891845,14.395975 L61.15703,9.91958 L61.15703,9.91958 Z" id="Shape" fill="#C32026"></path>
                            <path d="M30.386125,12.066725 L30.386125,26.192265 C30.386125,27.840285 27.609175,27.840285 27.609175,26.192265 L27.609175,12.066725 C27.60857,10.41931 30.386125,10.419915 30.386125,12.066725" id="Shape" fill="#191614"></path>
                            <path d="M13.27612,16.410625 L9.63402,28.179085 C9.07621,29.979565 7.97269,30.735815 6.007045,30.687415 C4.213825,30.645065 3.93492,29.58571 4.133965,28.88875 C4.351765,28.121005 4.993065,27.89292 5.62045,27.892315 C6.73123,27.89171 6.90789,27.90381 7.1874,27.03261 C7.18135,26.502025 6.88611,25.964785 6.701585,25.584845 L2.598475,17.180185 C2.130205,16.21763 2.60392,15.32828 3.35412,15.053005 C4.073465,14.789225 4.758325,14.881185 5.11104,15.57391 L8.50751,22.25069 L10.514295,15.624125 C10.784125,14.73538 11.7975,14.59744 12.498695,14.92535 C13.044405,15.18308 13.488475,15.720925 13.27612,16.410625" id="Shape" fill="#191614"></path>
                            <path d="M43.9714,20.51918 C43.999835,21.776975 44.34408,27.54444 39.0709,27.375645 C38.23479,27.34842 37.332735,26.898905 36.77553,26.3901 C36.690225,26.716195 36.62065,27.070725 36.62065,27.546255 L36.62065,29.973515 C36.62065,31.620325 33.875765,31.62093 33.875765,29.973515 L33.875765,15.84858 C33.875765,14.23565 36.408295,14.20177 36.5178,15.74331 C36.755565,15.557575 37.036285,15.374865 37.319425,15.211515 C38.548785,14.50064 40.1478,14.48975 41.44613,15.10685 C43.74634,16.19948 43.9714,18.696315 43.9714,20.51918 M38.626225,24.088075 C37.672745,22.890175 37.79677,19.20754 38.60263,17.923125 C39.200975,16.969645 41.242245,16.9158 41.79703,17.923125 C42.52182,19.23779 42.644635,22.87263 41.70991,24.0669 C41.02263,24.94415 39.302615,24.936285 38.626225,24.088075" id="Shape" fill="#191614"></path>
                            <path d="M24.64528,20.64986 C24.650725,20.90517 24.743895,22.04983 24.02334,22.164175 L18.230465,22.17325 C17.72892,22.192005 17.579485,22.36201 17.65027,22.82907 C17.74828,23.37962 17.938855,23.84426 18.18872,24.158255 C18.864505,25.006465 20.26629,25.11113 21.492625,24.397835 C22.142395,23.86846 22.48422,23.51151 22.842985,23.391115 C23.631905,23.12794 24.31011,23.86241 24.324025,24.61503 C24.330075,24.94173 24.23267,25.224265 24.082025,25.538865 C23.27193,26.687155 21.85865,27.440985 19.614705,27.462765 C15.20607,27.505115 14.68577,23.525425 14.65915,21.4049 C14.608935,17.325385 16.01919,14.915065 19.75083,14.77894 C23.314885,14.64826 24.716065,17.10335 24.64528,20.64986 M21.753985,19.871225 C21.664445,18.58076 21.269985,17.25581 19.34911,17.30058 C17.838425,17.337485 17.00655,18.33392 16.875265,19.688515 C16.90491,19.98557 16.974485,19.99525 17.34656,19.980125 L21.466005,19.980125 C21.6711,19.98073 21.73886,19.974075 21.753985,19.871225" id="Shape" fill="#191614"></path>
                            <path d="M12.213135,40.22161 L10.430805,40.22161 C10.14222,40.22161 9.90143,39.980215 9.90143,39.691025 L9.90143,39.209445 C9.90143,38.89666 10.142825,38.68007 10.430805,38.68007 L12.213135,38.68007 L12.213135,36.922545 C12.213135,34.152855 13.512675,32.708115 15.921785,32.708115 C17.439125,32.708115 18.47428,33.382085 18.98006,33.864875 C19.148855,34.033065 19.196045,34.322255 19.076255,34.490445 L18.618875,35.068825 C18.426485,35.333815 18.234095,35.30901 17.92131,35.09363 C17.319335,34.659845 16.81295,34.32286 15.87399,34.32286 C14.596835,34.32286 13.995465,35.26182 13.995465,36.92315 L13.995465,38.680675 L17.295135,38.680675 C17.584325,38.680675 17.82451,38.89787 17.82451,39.21005 L17.82451,39.69163 C17.82451,39.98082 17.584325,40.222215 17.295135,40.222215 L13.995465,40.222215 L13.995465,49.27604 C13.995465,49.56523 13.755885,49.806625 13.466695,49.806625 L12.744325,49.806625 C12.455135,49.806625 12.21374,49.56523 12.21374,49.27604 L12.21374,40.22161 L12.213135,40.22161 Z" id="Shape" fill="#555655"></path>
                            <path d="M24.73482,38.439885 C27.81669,38.439885 30.32139,41.088575 30.32139,44.218845 C30.32139,47.396305 27.81669,50.07101 24.73482,50.07101 C21.652345,50.07101 19.14825,47.39691 19.14825,44.218845 C19.14825,41.088575 21.65295,38.439885 24.73482,38.439885 M24.73482,48.45687 C26.925525,48.45687 28.53906,46.53055 28.53906,44.218845 C28.53906,41.95433 26.925525,40.052815 24.73482,40.052815 C22.54351,40.052815 20.905775,41.95433 20.905775,44.218845 C20.90638,46.53055 22.544115,48.45687 24.73482,48.45687" id="Shape" fill="#555655"></path>
                            <path d="M33.23386,39.209445 C33.23386,38.944455 33.45045,38.68007 33.764445,38.68007 L34.48621,38.68007 C34.774795,38.68007 35.015585,38.94506 35.015585,39.209445 L35.015585,45.2298 C35.015585,47.44531 35.73856,48.456265 37.350885,48.456265 C39.013425,48.456265 39.99897,47.421715 40.50596,46.843335 L40.50596,39.209445 C40.50596,38.944455 40.72255,38.68007 41.01174,38.68007 L41.757705,38.68007 C42.022695,38.68007 42.26288,38.94506 42.26288,39.209445 L42.26288,49.275435 C42.26288,49.564625 42.022695,49.80481 41.757705,49.80481 L41.371715,49.80481 C41.05893,49.80481 40.93914,49.61242 40.86654,49.32323 L40.650555,48.624455 C40.24097,49.05824 39.20521,50.070405 37.20629,50.070405 C34.004025,50.070405 33.233255,48.14348 33.233255,45.206205 L33.233255,39.209445 L33.23386,39.209445 Z" id="Shape" fill="#555655"></path>
                            <path d="M46.019325,39.209445 C46.019325,38.944455 46.25951,38.68007 46.5487,38.68007 L46.93469,38.68007 C47.174875,38.68007 47.31947,38.776265 47.36787,39.01766 L47.60866,39.85982 C47.60866,39.85982 49.029805,38.439885 51.3403,38.439885 C54.567975,38.439885 55.361735,40.535 55.361735,43.40028 L55.361735,49.27604 C55.361735,49.56523 55.096745,49.805415 54.83236,49.805415 L54.1112,49.805415 C53.82201,49.805415 53.580615,49.56523 53.580615,49.27604 L53.580615,43.15949 C53.580615,41.04078 52.858245,40.052815 51.221115,40.052815 C49.125395,40.052815 47.801655,41.594355 47.801655,41.594355 L47.801655,49.275435 C47.801655,49.564625 47.536665,49.80481 47.27228,49.80481 L46.5487,49.80481 C46.25951,49.80481 46.019325,49.564625 46.019325,49.275435 L46.019325,39.209445 L46.019325,39.209445 Z" id="Shape" fill="#555655"></path>
                            <path d="M63.57219,38.439885 C65.402315,38.439885 66.65527,39.13866 66.65527,39.13866 L66.65527,33.478885 C66.65527,33.213895 66.89485,32.94951 67.18404,32.94951 L67.85922,32.94951 C68.149015,32.94951 68.41219,33.2145 68.41219,33.478885 L68.41219,49.27604 C68.41219,49.56523 68.14841,49.806625 67.85922,49.806625 L67.42604,49.806625 C67.18404,49.806625 67.039445,49.613025 66.94446,49.34864 L66.799865,48.625665 C66.799865,48.625665 65.378115,50.071615 63.283605,50.071615 C60.46612,50.071615 58.29901,47.397515 58.29901,44.21945 C58.298405,40.967575 60.22533,38.439885 63.57219,38.439885 M63.500195,48.45687 C65.49972,48.45687 66.65527,46.67454 66.65527,46.67454 L66.65527,40.679595 C66.65527,40.679595 65.355125,40.05342 63.81298,40.05342 C61.429885,40.05342 60.10554,42.027535 60.10554,44.24365 C60.10554,46.410155 61.477075,48.45687 63.500195,48.45687" id="Shape" fill="#555655"></path>
                            <path d="M75.756285,42.749905 C76.93664,42.749905 78.14059,43.110485 78.14059,43.110485 C78.16358,41.064375 77.899195,40.052815 76.310465,40.052815 C74.79252,40.052815 73.516575,40.534395 73.012005,40.702585 C72.722815,40.823585 72.57822,40.67899 72.480815,40.413395 L72.241235,39.763625 C72.144435,39.42664 72.31202,39.282045 72.57822,39.16165 C73.13119,38.920255 74.57714,38.439885 76.40666,38.439885 C79.24774,38.439885 79.85032,39.836225 79.85032,43.11109 L79.85032,49.27604 C79.85032,49.56523 79.608925,49.806625 79.319735,49.806625 L78.862355,49.806625 C78.57256,49.806625 78.47697,49.63783 78.40558,49.39704 L78.188385,48.649865 C77.61061,49.228245 76.454455,50.071615 74.744725,50.071615 C72.794205,50.071615 71.302275,48.674065 71.302275,46.43375 C71.30167,44.314435 72.889795,42.749905 75.756285,42.749905 M75.058115,48.45687 C76.431465,48.45687 77.63481,47.6861 78.115785,46.96373 L78.115785,44.700425 C77.753995,44.508035 76.86404,44.26785 75.756285,44.26785 C74.21535,44.26785 73.059195,45.01321 73.059195,46.43375 C73.059195,47.565705 73.829965,48.45687 75.058115,48.45687" id="Shape" fill="#555655"></path>
                            <path d="M82.76279,40.22161 C82.4252,40.22161 82.20861,39.980215 82.20861,39.691025 L82.20861,39.209445 C82.20861,38.89666 82.4252,38.68007 82.76279,38.68007 L84.23173,38.68007 L84.23173,35.5982 C84.23173,35.30901 84.49672,35.093025 84.761105,35.068825 L85.50828,35.01982 C85.796865,34.996225 86.01285,35.261215 86.01285,35.550405 L86.01285,38.68007 L89.28832,38.68007 C89.602315,38.68007 89.8425,38.897265 89.8425,39.209445 L89.8425,39.691025 C89.8425,39.980215 89.602315,40.22161 89.28832,40.22161 L86.01285,40.22161 L86.01285,46.86814 C86.01285,48.023085 86.375245,48.456265 87.000815,48.456265 C88.036575,48.456265 88.73414,48.023085 89.19273,47.733895 C89.62591,47.468905 89.7699,47.68489 89.890295,47.94988 L90.106885,48.45566 C90.25148,48.81745 90.203685,48.986245 89.914495,49.177425 C89.432915,49.51562 88.27676,50.0698 86.78362,50.0698 C84.66491,50.0698 84.231125,48.72065 84.231125,46.986115 L84.231125,40.22161 L82.76279,40.22161 L82.76279,40.22161 Z" id="Shape" fill="#555655"></path>
                            <path d="M92.1778,34.51404 C92.1778,33.74327 92.75497,33.165495 93.47734,33.165495 C94.224515,33.165495 94.801685,33.74327 94.801685,34.51404 C94.801685,35.212815 94.224515,35.81479 93.47734,35.81479 C92.75497,35.81479 92.1778,35.212815 92.1778,34.51404 L92.1778,34.51404 Z M92.63518,39.209445 C92.63518,38.944455 92.875365,38.68007 93.164555,38.68007 L93.886925,38.68007 C94.151915,38.68007 94.41751,38.94506 94.41751,39.209445 L94.41751,49.275435 C94.41751,49.564625 94.15252,49.80481 93.886925,49.80481 L93.164555,49.80481 C92.875365,49.80481 92.63518,49.564625 92.63518,49.275435 L92.63518,39.209445 L92.63518,39.209445 Z" id="Shape" fill="#555655"></path>
                            <path d="M103.03755,38.439885 C106.120025,38.439885 108.624725,41.088575 108.624725,44.218845 C108.624725,47.396305 106.11942,50.07101 103.03755,50.07101 C99.95568,50.07101 97.451585,47.39691 97.451585,44.218845 C97.45098,41.088575 99.95568,38.439885 103.03755,38.439885 M103.03755,48.45687 C105.228255,48.45687 106.842395,46.53055 106.842395,44.218845 C106.842395,41.95433 105.228255,40.052815 103.03755,40.052815 C100.846845,40.052815 99.20911,41.95433 99.20911,44.218845 C99.208505,46.53055 100.84624,48.45687 103.03755,48.45687" id="Shape" fill="#555655"></path>
                            <path d="M111.65759,39.209445 C111.65759,38.944455 111.897775,38.68007 112.186965,38.68007 L112.572955,38.68007 C112.81314,38.68007 112.95834,38.776265 113.006135,39.01766 L113.24753,39.85982 C113.24753,39.85982 114.66807,38.439885 116.97917,38.439885 C120.206845,38.439885 121,40.535 121,43.40028 L121,49.27604 C121,49.56523 120.73501,49.805415 120.470625,49.805415 L119.749465,49.805415 C119.45967,49.805415 119.21888,49.56523 119.21888,49.27604 L119.21888,43.15949 C119.21888,41.04078 118.497115,40.052815 116.85938,40.052815 C114.764265,40.052815 113.43992,41.594355 113.43992,41.594355 L113.43992,49.275435 C113.43992,49.564625 113.17493,49.80481 112.910545,49.80481 L112.18757,49.80481 C111.89838,49.80481 111.658195,49.564625 111.658195,49.275435 L111.658195,39.209445 L111.65759,39.209445 Z" id="Shape" fill="#555655"></path>
                        </g>
                    </g>
                </g>
            </g>
        </g>
    </g>
</svg>