<?xml version="1.0" encoding="UTF-8"?>
<svg width="122px" height="119px" viewBox="0 0 122 119" version="1.1" xmlns="http://www.w3.org/2000/svg" xmlns:xlink="http://www.w3.org/1999/xlink">
    <!-- Generator: Sketch 40.2 (33826) - http://www.bohemiancoding.com/sketch -->
    <title>100k_staples</title>
    <desc>Created with Sketch.</desc>
    <defs></defs>
    <g id="Page-1" stroke="none" stroke-width="1" fill="none" fill-rule="evenodd">
        <g id="Our-partners" transform="translate(-991.000000, -3342.000000)">
            <g id="Content" transform="translate(376.000000, 150.000000)">
                <g id="Support-of-$100k+" transform="translate(1.000000, 2965.000000)">
                    <g id="100k_staples" transform="translate(614.000000, 227.000000)">
                        <rect id="Rectangle-2-Copy" fill="#FFFFFF" x="0" y="0" width="121.875269" height="119"></rect>
                        <g id="Layer_1" transform="translate(1.000000, 30.000000)" fill="#C83248">
                            <g id="Group">
                                <path d="M59.541075,22.44792 L56.56024,22.707465 L57.156165,28.28012 L60.603455,27.943135 C63.32535,27.632165 63.14385,25.558225 63.065805,24.702755 C62.85829,22.836935 61.796515,22.188375 59.541075,22.44792 L59.541075,22.44792 Z" id="Shape"></path>
                                <polygon id="Shape" points="42.199355 32.790395 46.658205 32.32394 43.651355 25.09177"></polygon>
                                <path d="M110.99451,14.023295 C110.76098,13.91984 110.553465,13.86781 110.346555,13.893825 C110.139645,13.91984 109.931525,13.971265 109.724615,14.10134 C109.517705,14.231415 109.38763,14.386295 109.28357,14.619825 C109.180115,14.82734 109.1541,15.06087 109.1541,15.26778 C109.180115,15.500705 109.232145,15.70822 109.361615,15.88972 C109.491085,16.09663 109.672585,16.226705 109.879495,16.33016 C110.086405,16.433615 110.32054,16.45963 110.52745,16.45963 C110.76098,16.433615 110.968495,16.38219 111.14939,16.252115 C111.356905,16.122645 111.48698,15.941145 111.590435,15.73363 C111.694495,15.526115 111.719905,15.292585 111.719905,15.085675 C111.694495,14.85275 111.642465,14.645235 111.51239,14.463735 C111.38292,14.25622 111.202025,14.127355 110.99451,14.023295 L110.99451,14.023295 Z M110.839025,16.01919 L110.682935,15.76025 C110.553465,15.552735 110.45001,15.44928 110.371965,15.39725 C110.319935,15.37184 110.242495,15.345825 110.16445,15.345825 L110.008965,15.345825 L110.060995,16.04581 L109.80145,16.071825 L109.671375,14.412915 L110.24189,14.360885 C110.449405,14.335475 110.578875,14.360885 110.65692,14.3869 C110.73436,14.412915 110.812405,14.46434 110.864435,14.542385 C110.91586,14.619825 110.941875,14.69787 110.96789,14.77531 C110.96789,14.90478 110.941875,15.00884 110.864435,15.112295 C110.78639,15.21575 110.68233,15.26778 110.526845,15.293795 C110.578875,15.31981 110.630905,15.345825 110.68233,15.37184 C110.760375,15.423265 110.83842,15.527325 110.941875,15.68281 L111.175405,15.99378 L110.839025,16.01919 L110.839025,16.01919 Z" id="Shape"></path>
                                <path d="M110.734965,14.826735 C110.734965,14.774705 110.70895,14.72328 110.682935,14.697265 C110.657525,14.67125 110.605495,14.64584 110.553465,14.619825 C110.501435,14.59381 110.423995,14.59381 110.29392,14.619825 L109.98295,14.64584 L110.008965,15.13831 L110.34595,15.112295 C110.501435,15.112295 110.605495,15.06087 110.657525,15.00884 C110.70895,14.95681 110.734965,14.90478 110.734965,14.826735 L110.734965,14.826735 Z" id="Shape"></path>
                                <path d="M116.022665,0 L0,12.07943 L4.97673,59.2295 L121,47.12466 L116.022665,0 L116.022665,0 Z M19.25957,43.05543 C12.80543,43.7294 11.27599,39.86708 11.016445,37.48217 L14.54178,37.145185 C14.67125,38.130125 15.39725,40.12602 18.5856,39.789035 C20.374585,39.58152 22.240405,38.933565 22.03289,36.93767 C21.90342,35.46026 20.50345,35.200715 18.5856,34.941775 L16.66775,34.60479 C13.816385,34.215775 11.01705,33.87879 10.498565,29.965045 L10.498565,29.62806 C10.239625,27.580135 10.88758,23.717815 16.66775,23.12189 C22.033495,22.525965 23.89992,26.154755 24.15886,28.487635 L20.633525,28.87665 C20.42601,27.995165 19.907525,26.025285 16.719175,26.4143 C15.31981,26.54377 13.660295,27.26977 13.86781,29.00612 C13.945855,29.42115 13.99728,29.68009 14.204795,29.93903 C14.59381,30.534955 15.39725,30.66503 15.915735,30.768485 L20.374585,31.494485 C22.836935,31.83147 25.169815,32.68694 25.55883,36.0822 C26.15415,41.78493 20.78901,42.847915 19.25957,43.05543 L19.25957,43.05543 Z M31.338395,41.24043 L29.679485,25.66168 L24.36577,26.180165 L23.976755,22.862345 L38.389065,21.332905 L38.72605,24.72877 L33.412335,25.247255 L34.993805,40.851415 L31.338395,41.24043 L31.338395,41.24043 Z M49.58701,39.296565 L48.05757,35.51229 L41.5514,36.21167 L40.74796,40.25549 L36.834215,40.644505 L41.136975,21.04795 L45.38831,20.581495 L53.63083,38.90755 L49.58701,39.296565 L49.58701,39.296565 Z M64.80276,29.965045 C64.077365,30.56097 63.065805,31.027425 61.74388,31.1575 L57.492545,31.546515 L58.218545,38.38967 L54.56374,38.778685 L52.59386,19.8561 L60.62947,19.00063 C64.077365,18.68966 66.40964,20.815025 66.798655,24.52186 C66.92873,25.71371 66.721215,28.383575 64.80276,29.965045 L64.80276,29.965045 Z M71.205475,37.145185 C71.205475,37.145185 71.0754,37.145185 70.867885,37.222625 C69.830915,37.24864 68.81996,36.2637 68.768535,35.252745 L67.31714,21.255465 C67.109625,19.337615 68.587035,17.60066 70.58293,17.393145 C72.578825,17.18563 74.289765,18.455525 74.62675,20.452025 L76.207615,26.232195 L73.019265,27.37262 L71.02337,20.86645 L70.893295,20.94389 L72.215825,33.489775 L80.89939,32.556865 L81.288405,36.0822 L71.205475,37.145185 L71.205475,37.145185 Z M82.11786,35.926715 L80.173995,16.92669 L93.186335,15.604765 L93.52332,18.922585 L84.165785,19.907525 L84.5548,23.899315 L93.18694,22.966405 L93.575955,26.36227 L84.943815,27.29518 L85.4623,32.14244 L95.208245,31.1575 L95.59726,34.47532 L82.11786,35.926715 L82.11786,35.926715 Z M110.37257,29.93903 C109.309585,33.20482 105.60275,33.93082 104.33346,34.06029 C99.019745,34.656215 97.04926,32.141835 96.37529,29.93903 C96.24582,29.420545 96.16838,28.95409 96.090335,28.51365 L99.61567,28.124635 C99.69311,28.64312 99.900625,29.31709 100.41911,29.913015 C101.015035,30.50894 101.999975,30.976 103.736325,30.768485 C104.643825,30.716455 105.65478,30.4315 106.38078,29.913015 C106.89866,29.44656 107.235645,28.850635 107.106175,27.995165 C106.976705,26.465725 105.576735,26.206785 103.658885,25.94724 L101.74043,25.6883 C98.837035,25.299285 95.96026,24.88486 95.571245,20.710965 C95.312305,18.5856 95.960865,14.80072 101.74043,14.127355 C107.106175,13.60887 108.9726,17.23766 109.232145,19.57054 L105.70681,19.907525 C105.499295,19.104085 104.98081,17.10819 101.79246,17.445175 C100.393095,17.574645 98.73358,18.300645 98.941095,20.0376 C99.070565,21.56704 100.26302,21.69651 100.98902,21.82598 L105.447265,22.49995 C107.909615,22.888965 110.294525,23.744435 110.63151,27.139695 C110.76098,28.202075 110.63151,29.13559 110.37257,29.93903 L110.37257,29.93903 Z M111.823965,15.83769 C111.694495,16.09663 111.538405,16.304145 111.30548,16.45963 C111.072555,16.615115 110.813615,16.69316 110.55407,16.71857 C110.294525,16.744585 110.03619,16.69316 109.776645,16.563085 C109.5171,16.43301 109.31019,16.27813 109.154705,16.0446 C108.99922,15.81107 108.921175,15.55213 108.89516,15.292585 C108.869145,15.033645 108.921175,14.74869 109.050645,14.51516 C109.18072,14.255615 109.36222,14.048705 109.595145,13.89322 C109.80266,13.737735 110.0616,13.65969 110.32054,13.63428 C110.580085,13.608265 110.839025,13.65969 111.097965,13.789765 C111.35751,13.89322 111.56442,14.07472 111.719905,14.30825 C111.875995,14.54178 111.953435,14.80072 111.97945,15.060265 C112.005465,15.319205 111.953435,15.57875 111.823965,15.83769 L111.823965,15.83769 Z" id="Shape"></path>
                            </g>
                        </g>
                    </g>
                </g>
            </g>
        </g>
    </g>
</svg>