<?xml version="1.0" encoding="UTF-8"?>
<svg width="122px" height="119px" viewBox="0 0 122 119" version="1.1" xmlns="http://www.w3.org/2000/svg" xmlns:xlink="http://www.w3.org/1999/xlink">
    <!-- Generator: Sketch 40.2 (33826) - http://www.bohemiancoding.com/sketch -->
    <title>100k_vita_coco</title>
    <desc>Created with Sketch.</desc>
    <defs>
        <radialGradient cx="20.0016167%" cy="72.9992144%" fx="20.0016167%" fy="72.9992144%" r="61.2670697%" id="radialGradient-1">
            <stop stop-color="#008C44" offset="0%"></stop>
            <stop stop-color="#008E44" offset="11.61%"></stop>
            <stop stop-color="#009544" offset="29.76%"></stop>
            <stop stop-color="#36A242" offset="52.17%"></stop>
            <stop stop-color="#78B63D" offset="77.72%"></stop>
            <stop stop-color="#AECD33" offset="100%"></stop>
        </radialGradient>
        <linearGradient x1="49.9997891%" y1="24.2301762%" x2="49.9997891%" y2="73.1698626%" id="linearGradient-2">
            <stop stop-color="#0066B3" offset="0%"></stop>
            <stop stop-color="#0097DC" offset="24.72%"></stop>
            <stop stop-color="#009BDF" offset="38.2%"></stop>
            <stop stop-color="#0066B3" offset="74%"></stop>
            <stop stop-color="#0066B3" offset="100%"></stop>
        </linearGradient>
        <linearGradient x1="50.0016482%" y1="-12.17813%" x2="50.0016482%" y2="110.09915%" id="linearGradient-3">
            <stop stop-color="#009BDF" offset="10.11%"></stop>
            <stop stop-color="#0066B3" offset="39.89%"></stop>
            <stop stop-color="#0066B3" offset="69.1%"></stop>
            <stop stop-color="#009BDF" offset="87.08%"></stop>
        </linearGradient>
        <linearGradient x1="50.0014878%" y1="-12.17813%" x2="50.0014878%" y2="110.09915%" id="linearGradient-4">
            <stop stop-color="#009BDF" offset="10.11%"></stop>
            <stop stop-color="#0066B3" offset="39.89%"></stop>
            <stop stop-color="#0066B3" offset="69.1%"></stop>
            <stop stop-color="#009BDF" offset="87.08%"></stop>
        </linearGradient>
        <radialGradient cx="63.9975947%" cy="21.0078172%" fx="63.9975947%" fy="21.0078172%" r="61.3084787%" id="radialGradient-5">
            <stop stop-color="#00984A" offset="0%"></stop>
            <stop stop-color="#009A4A" offset="11.82%"></stop>
            <stop stop-color="#00A248" offset="31.94%"></stop>
            <stop stop-color="#51AF43" offset="57.93%"></stop>
            <stop stop-color="#95C33A" offset="88.46%"></stop>
            <stop stop-color="#AECD33" offset="100%"></stop>
        </radialGradient>
        <radialGradient cx="63.9983165%" cy="20.9935127%" fx="63.9983165%" fy="20.9935127%" r="61.2938913%" id="radialGradient-6">
            <stop stop-color="#00984A" offset="0%"></stop>
            <stop stop-color="#009A4A" offset="11.82%"></stop>
            <stop stop-color="#00A248" offset="31.94%"></stop>
            <stop stop-color="#51AF43" offset="57.93%"></stop>
            <stop stop-color="#95C33A" offset="88.46%"></stop>
            <stop stop-color="#AECD33" offset="100%"></stop>
        </radialGradient>
        <radialGradient cx="63.9932725%" cy="20.9933934%" fx="63.9932725%" fy="20.9933934%" r="61.2962518%" id="radialGradient-7">
            <stop stop-color="#00984A" offset="0%"></stop>
            <stop stop-color="#009A4A" offset="11.82%"></stop>
            <stop stop-color="#00A248" offset="31.94%"></stop>
            <stop stop-color="#51AF43" offset="57.93%"></stop>
            <stop stop-color="#95C33A" offset="88.46%"></stop>
            <stop stop-color="#AECD33" offset="100%"></stop>
        </radialGradient>
        <radialGradient cx="20.0008069%" cy="72.9992144%" fx="20.0008069%" fy="72.9992144%" r="61.2675806%" id="radialGradient-8">
            <stop stop-color="#008C44" offset="0%"></stop>
            <stop stop-color="#008E44" offset="11.61%"></stop>
            <stop stop-color="#009544" offset="29.76%"></stop>
            <stop stop-color="#36A242" offset="52.17%"></stop>
            <stop stop-color="#78B63D" offset="77.72%"></stop>
            <stop stop-color="#AECD33" offset="100%"></stop>
        </radialGradient>
        <linearGradient x1="75.539395%" y1="25.5759913%" x2="32.1375486%" y2="103.421129%" id="linearGradient-9">
            <stop stop-color="#EDE947" offset="0%"></stop>
            <stop stop-color="#F8FBF2" offset="100%"></stop>
        </linearGradient>
        <linearGradient x1="75.5407171%" y1="25.5788827%" x2="32.1390623%" y2="103.421129%" id="linearGradient-10">
            <stop stop-color="#EDE947" offset="0%"></stop>
            <stop stop-color="#F8FBF2" offset="100%"></stop>
        </linearGradient>
    </defs>
    <g id="Page-1" stroke="none" stroke-width="1" fill="none" fill-rule="evenodd">
        <g id="Our-partners" transform="translate(-377.000000, -3501.000000)">
            <g id="Content" transform="translate(376.000000, 150.000000)">
                <g id="Support-of-$100k+" transform="translate(1.000000, 2965.000000)">
                    <g id="100k_vita_coco" transform="translate(0.000000, 386.000000)">
                        <rect id="Rectangle-2" fill="#FFFFFF" x="0" y="0" width="121.875269" height="119"></rect>
                        <g id="Layer_1" transform="translate(1.000000, 10.000000)">
                            <g id="Group">
                                <path d="M119.163825,79.216885 C119.17169,79.08923 119.16927,78.959155 119.14749,78.82908 C117.52972,69.253745 110.01925,67.44056 108.94719,67.229415 C107.8957,66.936595 106.818195,66.78837 105.7419,66.78837 C101.296965,66.78837 97.682695,69.310615 95.847125,71.105045 C93.169395,73.377425 91.22795,76.648055 90.55519,80.470445 C90.098415,83.06045 90.277495,85.656505 91.03072,88.060775 C90.756655,88.19206 90.46323,88.314875 90.15226,88.43164 C89.774135,88.544775 89.373625,88.64944 88.94952,88.74624 C85.143465,89.60171 82.65268,89.16853 81.363425,87.35353 C80.367595,85.938435 79.86363,83.945565 79.86363,81.43179 C79.86363,79.042645 80.46016,77.231275 81.696175,75.885755 C82.304805,75.2136 82.96486,74.71992 83.684205,74.39806 C84.11678,74.29158 84.568715,74.23713 85.04485,74.23713 C86.44603,74.23713 87.09943,74.441015 87.374705,74.568065 C87.94885,74.828215 88.43769,75.113775 88.8261,75.419905 C89.22903,75.73632 89.75175,75.860345 90.25511,75.758705 C90.478355,75.71333 90.686475,75.623185 90.87221,75.50037 C90.951465,75.496135 91.03072,75.487665 91.108765,75.47254 C91.61515,75.37211 92.05196,75.053275 92.30122,74.60134 L94.920265,69.85814 C95.359495,69.06317 95.117495,68.064315 94.363665,67.55914 C93.141565,66.738155 91.667785,66.136785 90.00585,65.77681 C89.97802,65.770155 89.95019,65.764105 89.92236,65.75866 L75.977715,33.527285 C75.700625,32.88659 75.069005,32.47156 74.37144,32.47156 L71.87279,32.47156 C71.39484,32.47156 70.957425,32.67726 70.634355,33.00517 C70.10135,33.130405 69.645785,33.48917 69.423145,34.00584 L69.27008,34.36279 C69.20837,33.45166 68.457565,32.72929 67.53131,32.72929 L64.52204,32.72929 C64.413745,32.55384 64.27399,32.39533 64.102775,32.26344 C63.98964,32.17632 63.8517,32.08557 63.69803,31.9924 C63.61696,31.588865 63.39674,31.214975 63.05068,30.94817 C63.00833,30.9155 62.94662,30.879805 62.897615,30.845925 C63.02527,30.40367 62.99502,29.926325 62.76875,29.51674 C63.138405,28.84882 63.035555,27.996375 62.476535,27.43433 L62.372475,27.32906 C62.232115,27.18749 62.034885,26.994495 61.81285,26.783955 C61.728755,26.543165 61.610175,26.31145 61.418995,26.12027 L61.30828,26.00895 C61.034215,25.732465 60.586515,25.292025 60.00511,24.810445 C60.073475,24.079605 59.68204,23.358445 58.97903,23.046265 L58.932445,23.024485 C58.87739,22.714725 58.73945,22.426745 58.53133,22.187165 C58.487165,21.591845 58.139895,21.03585 57.57059,20.75029 C57.52824,20.729115 57.491335,20.713385 57.44959,20.692815 C57.355815,20.165255 57.026695,19.687305 56.51305,19.43139 C56.16215,19.25594 55.832425,19.10227 55.51359,18.958885 C55.500885,18.90625 55.499675,18.84938 55.48213,18.79856 C56.023605,18.75984 56.582625,18.74774 57.15556,18.76347 C57.9953,18.784645 58.73582,18.19235 58.913085,17.38165 C59.32751,17.503255 59.697165,17.633935 59.97365,17.76038 C60.79161,18.13548 61.7584,17.83056 62.212755,17.05495 C62.66711,16.28055 62.46141,15.28714 61.73662,14.756555 C61.62409,14.674275 61.494015,14.59623 61.369385,14.51637 C61.30828,14.20782 61.16429,13.91621 60.944675,13.676025 C61.121335,13.580435 61.273795,13.504205 61.386325,13.46004 C62.21578,13.389255 62.895195,12.73646 62.978685,11.88704 C63.05673,11.10296 62.598745,10.38906 61.899365,10.10229 C61.785625,9.457965 61.322195,8.9177 60.680895,8.728335 C60.42982,8.130595 59.855675,7.697415 59.167185,7.65688 C58.379475,7.607875 57.43991,7.855925 56.30977,8.399215 C56.21902,8.339925 56.12343,8.28971 56.023,8.247965 C56.019975,8.23405 56.021185,8.220135 56.01816,8.205615 C55.831215,7.278755 54.945495,6.670125 54.00835,6.826215 C53.218825,6.96113 52.47044,7.317475 51.76985,7.813575 C51.72871,7.69681 51.674865,7.58307 51.607105,7.47417 C51.124315,6.69372 50.11941,6.41905 49.30629,6.84497 C49.23853,6.880665 49.171375,6.91757 49.10422,6.956895 C48.64321,6.797175 48.12049,6.83045 47.666135,7.087575 C46.82458,7.56492 46.205665,8.368965 45.707145,9.245005 C45.46333,8.614595 44.87043,8.15903 44.160765,8.125755 C44.134145,8.12515 44.033715,8.12273 44.007095,8.12273 C42.423205,8.12273 40.442435,9.289775 38.625015,11.17314 C38.24689,10.733305 37.66367,10.508245 37.071375,10.585685 C37.20387,9.355115 37.22202,8.2401 37.11917,7.37858 C37.04173,6.730625 36.61339,6.21093 36.045295,5.97619 C35.935185,5.3482 35.50624,4.841815 34.933305,4.63188 C34.78024,4.429205 34.588455,4.26646 34.37368,4.1503 C34.34827,4.090405 34.32044,4.032325 34.2914,3.975455 C34.047585,3.51142 33.61985,3.19682 33.13706,3.084895 C33.12254,3.067955 33.103785,3.05646 33.08866,3.040125 C33.03058,2.92578 32.969475,2.81567 32.900505,2.71887 C32.76438,2.527085 32.594375,2.370995 32.40501,2.249995 C32.343905,2.127785 32.278565,2.014045 32.205965,1.913615 C31.690505,1.19669 30.71222,0.950455 29.93661,1.37335 C29.695215,1.50524 29.501615,1.68795 29.350365,1.89728 C29.14043,1.657095 28.874835,1.47983 28.580805,1.383635 C28.25955,1.031525 27.811245,0.85184 27.34721,0.834295 C26.82086,0.540265 26.159595,0.519695 25.60239,0.84942 C25.578795,0.863335 25.56004,0.88209 25.537655,0.897215 C25.020985,0.656425 24.430505,0.680625 23.94348,0.96921 C23.77892,0.87967 23.610125,0.79981 23.43649,0.730235 C22.61127,0.398695 21.66626,0.742335 21.24518,1.526415 C21.115105,1.76902 21.04674,2.03038 21.03706,2.29053 C20.79869,2.17679 20.570605,2.08967 20.357645,2.035825 C19.637695,1.8513 18.894755,2.144725 18.485775,2.73823 C18.39805,2.712215 18.315165,2.689225 18.23954,2.669865 C17.364105,2.44783 16.455395,2.93183 16.15592,3.78851 C16.04581,4.102505 16.030685,4.42739 16.09663,4.73231 C16.065775,4.803095 16.039155,4.8763 16.01798,4.95253 C15.98531,5.055985 15.96595,5.160045 15.955665,5.2635 C15.46259,5.353645 14.9919,5.443185 14.625875,5.53575 C13.747415,5.757785 13.18295,6.61386 13.326335,7.508655 C13.425555,8.128175 13.839375,8.624275 14.385085,8.850545 C14.440745,9.16212 14.590785,9.427715 14.78378,9.656405 C14.768655,9.882675 14.795275,10.114995 14.872715,10.341265 C15.013075,10.74964 15.290165,11.074525 15.637435,11.280225 C15.708825,11.46112 15.812885,11.63294 15.948405,11.78661 C15.981075,11.82412 16.02403,11.84711 16.05912,11.88099 C16.21158,12.1726 16.417885,12.424885 16.690135,12.587025 C16.75245,12.74493 16.85046,12.89134 16.961175,13.029885 C17.00655,13.130315 17.070075,13.21562 17.132995,13.304555 C16.82747,13.72745 16.710705,14.278605 16.86619,14.81524 C16.88192,14.86969 16.90007,14.923535 16.92064,14.975565 C16.51166,15.302265 16.26603,15.80018 16.263005,16.330765 C16.23457,16.3471 16.208555,16.36404 16.18496,16.380375 C15.517645,16.836545 15.250235,17.6902 15.535795,18.445845 C15.55939,18.50695 15.585405,18.565635 15.614445,18.622505 C15.52914,18.69329 15.45896,18.755605 15.405115,18.80824 C14.755345,19.452565 14.71118,20.48893 15.30408,21.18589 C15.478925,21.39038 15.690675,21.545865 15.92118,21.64932 C15.8389,21.928225 15.77961,22.21076 15.74573,22.492085 C15.651955,23.279795 16.10147,24.01608 16.817185,24.311925 C16.882525,24.684 17.06463,25.02159 17.335065,25.27811 C16.96178,25.587265 16.72099,26.03194 16.69316,26.516545 C16.18254,26.646015 15.651955,26.790005 15.098985,26.948515 C14.523025,27.113075 14.1086,27.548675 13.94283,28.079865 C13.148465,28.313395 12.35168,28.606215 11.61721,28.97466 C11.01705,29.275345 10.672805,29.875505 10.67099,30.510755 C10.19425,30.787845 9.880255,31.26398 9.79495,31.77944 C9.4138,31.986955 9.0266,32.22714 8.63819,32.491525 L1.88639,35.468125 C1.711545,35.54496 1.56211,35.653255 1.427195,35.774255 L1.044835,35.94305 C0.162745,36.332065 -0.238975,37.36117 0.14641,38.245075 L14.906595,72.057315 C15.184895,72.694985 15.8147,73.107595 16.51045,73.107595 L19.997065,73.107595 C20.479855,73.107595 20.9209,72.89766 21.244575,72.5637 C21.779395,72.43544 22.23617,72.071835 22.45397,71.54851 C22.494505,71.45413 26.492345,61.89755 30.70375,52.420225 C31.39708,50.864165 32.149095,49.417005 32.993675,48.019455 L32.993675,65.541465 C29.748455,66.190025 27.0677,67.710995 25.00828,70.103165 C22.251295,73.28365 20.852535,77.16049 20.852535,81.624785 C20.852535,86.629345 22.20955,90.64957 24.883045,93.5693 C27.37625,96.30632 30.87678,97.78736 35.27634,98.010605 C35.92006,98.06808 36.578905,98.103775 37.26316,98.103775 C38.56996,98.103775 40.03769,97.9253 41.61916,97.57561 C43.296825,97.214425 44.711315,96.679605 45.82391,95.98688 C46.33695,95.668045 46.64913,95.106 46.64913,94.501605 L46.64913,94.159175 C48.62143,96.337175 51.229585,97.88779 54.254585,98.422005 C55.01507,98.55692 55.79068,98.62468 56.55903,98.62468 C58.74792,98.62468 60.8388,98.092885 62.718535,97.135775 C65.95105,95.82595 68.663265,93.30189 70.334275,90.029445 C70.96892,91.479025 71.79414,92.78038 72.82627,93.913545 C75.54877,96.888935 79.435895,98.3972 84.379955,98.3972 C85.668,98.3972 87.13573,98.218725 88.73898,97.86843 C89.576905,97.687535 90.3507,97.462475 91.05613,97.196275 C92.103385,96.87381 93.026615,96.47209 93.804645,95.991115 C94.321315,95.67228 94.63652,95.109025 94.63652,94.50221 L94.63652,94.10291 C96.59914,96.091545 99.069355,97.4171 101.82271,97.90231 C102.581985,98.037225 103.356385,98.10438 104.12413,98.10438 C107.431665,98.10438 110.51898,96.89438 112.9898,94.834355 C116.114625,92.563185 118.400315,89.005785 119.14507,84.782885 C119.474795,82.904965 119.47419,81.02523 119.163825,79.216885 L119.163825,79.216885 Z M70.208435,59.26459 L71.978665,54.89528 L73.76402,59.26459 L70.208435,59.26459 L70.208435,59.26459 Z M65.58442,42.94653 L60.734135,54.2443 L60.734135,43.743315 C61.053575,43.559395 61.30223,43.27928 61.451665,42.94653 L65.58442,42.94653 L65.58442,42.94653 Z M18.753185,46.90928 C19.30797,46.195985 19.228715,45.17777 18.56987,44.55946 C18.29641,44.302335 18.21655,43.55758 18.266765,42.673675 C18.40652,42.80738 18.55051,42.927775 18.699945,43.031835 C19.361815,43.494055 20.25298,43.44505 20.85798,42.91265 C21.46419,42.380855 21.628145,41.503605 21.255465,40.788495 C21.03101,40.357735 20.88339,39.933025 20.81079,39.51739 C20.85435,39.510735 20.89791,39.50287 20.94026,39.492585 C21.19315,39.93847 21.637825,40.266985 22.175065,40.356525 C23.024485,40.500515 23.850915,40.000785 24.12377,39.186455 C24.25445,39.239695 24.392995,39.27781 24.538195,39.298985 C24.96835,39.363115 25.39185,39.260265 25.7367,39.03823 C25.83108,39.24393 25.97507,39.416355 26.136605,39.56942 C23.43528,43.004005 21.032825,46.60436 19.23295,50.752845 C19.156115,50.93011 19.084725,51.09709 19.012125,51.268305 L17.44578,47.575385 C17.94309,47.55542 18.42709,47.328545 18.753185,46.90928 L18.753185,46.90928 Z M42.99009,80.98893 C42.584135,83.29277 42.709975,85.551235 43.233905,87.65603 C42.389325,88.07953 41.35175,88.432245 40.139935,88.702075 C38.871855,88.98703 37.764705,89.114685 36.787025,89.111055 C35.25456,88.95557 34.1099,88.38808 33.37906,87.358975 C32.38323,85.932385 31.878055,83.9377 31.878055,81.432395 C31.878055,79.046275 32.474585,77.2343 33.70697,75.88878 C34.897005,74.578955 36.27459,73.94189 37.90809,73.94189 C37.99037,73.9431 38.061155,73.94673 38.13799,73.94794 C38.84947,74.01328 39.23425,74.14033 39.435715,74.23471 C39.991105,74.483365 40.484785,74.77195 40.901025,75.090785 C41.291855,75.390865 41.790375,75.50642 42.27377,75.421115 C42.54965,75.50642 42.84126,75.53062 43.13287,75.47254 C43.636835,75.371505 44.07062,75.05388 44.319275,74.604365 L46.94558,69.86056 C47.386625,69.062565 47.1416,68.058265 46.381115,67.5543 C46.059255,67.340735 45.71985,67.144715 45.36653,66.9614 L45.36653,42.94653 L48.387295,42.94653 L48.387295,71.11533 C48.387295,71.24843 48.40484,71.37669 48.433275,71.50132 C45.68113,73.77733 43.67858,77.095755 42.99009,80.98893 L42.99009,80.98893 Z M72.94122,70.443175 C71.8377,71.72033 70.962265,73.11183 70.301605,74.605575 C69.17933,72.438465 67.70071,70.948955 66.279565,69.93195 L67.435115,66.792605 L76.90518,66.792605 L77.07821,67.20945 C75.50763,68.009865 74.117945,69.077085 72.94122,70.443175 L72.94122,70.443175 Z" id="Shape" fill="#FFFFFF"></path>
                                <g transform="translate(8.470000, 1.815000)" id="Shape" fill="#FDE92D">
                                    <path d="M10.383615,24.70336 C10.214215,24.73482 10.07325,24.768095 9.9704,24.801975 C10.11076,24.76991 10.24628,24.736635 10.383615,24.70336 L10.383615,24.70336 Z"></path>
                                    <path d="M0.99341,32.22956 C0.940775,32.26223 0.894795,32.294295 0.85789,32.324545 C0.90266,32.291875 0.948035,32.26102 0.99341,32.22956 L0.99341,32.22956 Z"></path>
                                    <path d="M0.22264,34.863125 C0.265595,34.8117 0.31581,34.756645 0.36421,34.7028 C0.29282,34.76693 0.243815,34.82138 0.22264,34.863125 L0.22264,34.863125 Z"></path>
                                    <path d="M51.615575,8.592815 C51.648245,8.59221 51.68031,8.591605 51.71056,8.592815 C51.68394,8.587975 51.65127,8.589185 51.615575,8.592815 L51.615575,8.592815 Z"></path>
                                    <path d="M6.58482,5.41838 C12.317195,5.02029 11.403645,6.193385 8.754955,6.176445 C10.928115,6.255095 11.962665,6.298655 8.059205,7.95817 C9.65096,7.53709 11.024915,7.108145 11.024915,7.108145 C10.18457,7.636915 9.22867,8.384695 8.80154,8.805775 C9.33515,8.384695 10.49917,8.171735 10.49917,8.171735 C9.864525,8.695665 10.07809,10.50038 10.07809,10.50038 C11.552475,5.34215 15.73847,6.247835 18.38595,7.817205 C18.3557,7.884965 18.32424,7.950305 18.290965,8.010805 C19.76777,6.84134 19.820405,3.61548 18.02295,0.541475 C18.62432,1.543355 19.175475,5.813445 18.43072,7.70891 C18.25406,5.489165 18.6098,2.30626 16.325925,0.64977 C17.174135,1.60083 17.70351,4.56896 17.49539,5.627105 C17.280615,3.508395 15.90545,1.177935 14.314905,0.54208 C15.69249,1.497375 16.219445,3.718935 15.90545,4.88477 C15.90545,4.034745 15.5848,2.76848 14.737195,2.23971 C15.163115,2.76848 14.842465,4.88477 14.842465,4.88477 C13.995465,3.508395 12.30328,2.13444 11.45507,1.91906 C12.30328,2.44783 13.57257,4.034745 13.57257,4.356 C12.30328,3.61669 10.18578,2.76848 9.33636,2.5531 C11.45507,3.509 11.45507,4.14304 9.22988,3.61669 C12.403105,4.66939 8.27277,4.99125 6.58482,5.41838 L6.58482,5.41838 Z"></path>
                                    <path d="M8.754955,6.176445 C8.566195,6.16979 8.370175,6.16253 8.166895,6.15406 C8.370175,6.16858 8.567405,6.17584 8.754955,6.176445 L8.754955,6.176445 Z"></path>
                                    <path d="M18.762865,8.21832 C20.293515,7.12327 20.481065,3.89015 18.81792,0.74536 C19.40477,1.832545 19.78471,6.568485 18.762865,8.21832 L18.762865,8.21832 Z"></path>
                                    <path d="M19.23779,8.69506 C19.626805,8.43612 19.93838,8.043475 20.16344,7.551005 C20.039415,8.16629 19.85973,8.699295 19.612285,9.067135 C20.022475,8.794885 20.34494,8.373805 20.57242,7.84443 C20.43448,8.488755 20.240275,9.052615 19.980125,9.442235 C20.3643,9.186925 20.68132,8.81001 20.919085,8.34053 C20.7757,8.94311 20.586335,9.461595 20.34736,9.817335 C21.916125,8.76645 22.48664,5.33852 20.927555,2.13323 C21.130835,2.536765 21.25365,3.462415 21.27301,4.55081 C21.12539,3.77399 20.859795,2.955425 20.45989,2.127785 C20.652885,2.513775 20.78417,3.33355 20.82652,4.30397 C20.67285,3.4364 20.38245,2.518615 19.93959,1.60083 C20.08963,1.90454 20.21426,2.48292 20.293515,3.19561 C20.126535,2.5531 19.88635,1.893045 19.565095,1.23178 C20.11383,2.335905 20.32679,7.082735 19.23779,8.69506 L19.23779,8.69506 Z"></path>
                                    <path d="M21.83687,6.84134 C21.73039,8.75314 21.30205,10.28621 20.88097,10.60444 C21.63238,10.485255 22.17567,9.401095 22.49027,8.111235 C22.34386,9.79737 21.95545,11.11022 21.570065,11.39941 C21.97239,11.33528 22.31482,10.993455 22.59433,10.49191 C22.48059,11.16225 22.351725,11.74305 22.15147,12.09032 C22.417065,12.457555 23.634325,14.473415 23.688775,14.633135 C25.437225,11.34859 26.128135,6.68646 25.859515,4.463085 C25.753035,7.10875 24.85098,8.27156 24.6961,8.5426 C25.064545,7.218255 25.3858,4.355395 25.064545,3.875025 C25.22366,5.418985 24.32221,8.17234 23.95437,8.487545 C23.58048,8.80638 24.79774,3.98332 24.26897,2.9766 C24.339755,3.9567 23.902945,5.209655 23.50667,6.37428 C23.57685,4.63188 23.42439,2.517405 23.000285,1.91906 C23.26225,2.581535 23.0505,3.91193 22.83028,5.281045 C22.873235,3.603985 22.718355,1.68795 22.3124,1.122275 C22.73348,2.184655 21.94456,4.93801 21.83687,6.84134 L21.83687,6.84134 Z"></path>
                                    <path d="M50.856905,34.790525 C51.62586,35.188615 52.871555,35.681085 53.82806,36.0338 C49.913105,33.595045 49.277855,32.21867 51.28948,32.961005 C48.21729,30.842295 52.346415,32.43163 52.986505,32.961005 C52.66646,32.43163 50.65544,30.52104 49.80723,29.99348 C50.22831,29.99348 52.552115,30.207045 53.514065,30.52104 C52.552115,29.78173 48.422385,28.29464 44.92851,27.34479 C44.92851,27.34479 45.990285,26.705305 46.946185,26.705305 C45.777325,26.286645 44.293865,26.815415 43.553345,26.181375 C43.097175,25.78873 42.199355,25.518295 41.20776,25.44146 C41.10733,25.327115 41.003875,25.210955 40.89558,25.093585 C41.624,24.91027 42.414735,24.751155 42.811615,24.801975 C42.307045,24.62229 41.28762,24.417195 40.10061,24.279255 C39.09268,23.295525 37.907485,22.299695 36.82151,21.531345 C42.108605,21.595475 47.01818,24.612005 50.862955,29.144665 C50.862955,29.144665 49.502915,26.109985 47.092595,24.7203 C47.57599,24.989525 50.382585,26.11301 51.71177,27.241335 C50.862955,26.39131 47.57599,23.422575 45.991495,23.214455 C46.839705,23.214455 49.16593,23.64098 51.71177,25.542495 C50.862955,24.69368 48.324375,21.941535 44.080905,21.941535 C45.14389,21.941535 45.572835,20.458075 48.744245,21.51501 C46.839705,20.67285 44.295075,19.18334 40.488415,20.458075 C40.488415,20.458075 44.50985,18.125195 47.2626,19.18334 C43.873995,17.493575 41.963405,17.278195 38.789575,18.97522 C39.844695,18.125195 40.907075,16.644155 44.295075,16.219445 C40.90647,16.219445 36.66542,17.705325 34.97384,18.76226 C35.823865,17.493575 40.69351,13.677235 47.689125,13.890195 C43.348855,13.58588 39.86103,14.105575 37.068955,15.15767 C43.289565,11.235455 48.447795,11.79266 51.183605,13.043195 C50.02019,12.192565 47.84219,11.452045 46.78707,11.559735 C47.69578,10.795015 50.800035,8.675095 51.616785,8.59221 C50.362015,8.630325 46.97099,10.30315 46.09132,10.977725 C46.894155,9.91958 49.540425,7.59033 50.59615,7.59033 C48.637765,7.477195 44.60907,10.76174 43.974425,11.237875 C43.33857,11.718245 40.799385,12.88166 41.490295,11.879175 C42.17818,10.870035 43.554555,7.269075 45.83238,6.737885 C43.659825,7.10754 41.542325,10.344895 40.58582,11.879175 C40.747355,9.488215 38.36184,11.71885 38.14888,12.192565 C39.157415,10.02243 40.113315,7.69076 41.64941,6.58119 C40.53984,7.162595 39.265105,8.541995 38.896055,9.226855 C39.10962,8.17113 39.52586,7.21765 40.05947,6.795965 C38.576615,7.636915 37.83549,10.706685 37.041125,11.81928 C36.246155,12.9349 34.921205,12.988745 36.82635,10.285605 C35.556455,10.870035 34.233925,14.258035 33.914485,14.786805 C33.720885,15.11411 33.74448,13.58709 34.048795,12.0516 C34.17766,11.99352 34.30834,11.936045 34.440835,11.879175 C34.367025,11.89793 34.23695,11.91971 34.069365,11.946935 C34.15588,11.530695 34.26236,11.118085 34.391225,10.74359 C34.64956,10.62501 34.913945,10.508245 35.18317,10.395715 C35.09121,10.40721 34.81896,10.47013 34.454145,10.568745 C34.60116,10.177915 34.773585,9.839115 34.974445,9.600745 C34.707035,9.868155 34.4608,10.22208 34.235135,10.629245 C33.2871,10.89605 31.903465,11.3498 31.265795,11.773905 C31.37409,11.237875 33.91388,9.862105 35.39613,9.33152 C35.074875,9.33152 33.06446,9.64733 32.535085,10.075065 C32.963425,9.44163 33.91388,8.27035 35.6103,8.05981 C33.823735,7.97753 30.19555,10.96502 28.17727,15.32586 C27.618855,14.266505 27.034425,13.32694 26.81844,12.728595 C26.891645,13.90169 27.42344,15.282905 27.77676,16.265425 C27.71747,16.41728 27.6606,16.570345 27.605545,16.72462 C26.961825,16.125065 26.181375,15.794735 26.181375,15.794735 C26.66235,16.36404 27.051365,16.970855 27.31454,17.620625 C27.206245,17.994515 27.11126,18.374455 27.0314,18.76105 C27.0072,18.899595 26.986025,19.02846 26.96606,19.151275 C26.90072,19.072625 26.833565,18.997605 26.7652,18.925005 C26.50747,17.97334 26.10938,17.13723 25.540075,16.42938 C24.27018,14.838835 26.497185,11.66561 28.828855,10.49917 C26.181375,11.13805 23.314885,14.10255 24.591435,17.913445 C23.63614,15.15767 22.580415,11.137445 18.76468,9.44163 C21.090905,11.027335 21.30447,13.570755 21.30447,13.88959 C19.614705,10.816795 17.068865,9.44163 15.372445,9.22625 C17.596425,9.862105 18.55172,11.98626 18.660015,12.7292 C17.80999,11.138655 14.738405,9.967375 13.895035,9.967375 C16.00709,10.603835 17.80999,13.04259 18.13064,13.67663 C16.22005,11.666215 12.726175,10.499775 12.090925,10.499775 C14.843675,11.559735 16.74882,13.890195 17.175345,14.416545 C14.31551,12.407945 12.405525,11.666215 10.0793,12.513215 C12.519265,11.98626 15.27141,14.2054 16.006485,15.053005 C13.89443,13.7819 10.50038,14.2054 9.54448,14.526655 C11.663795,14.311275 13.35961,15.053005 14.208425,15.580565 C12.826,15.0524 9.01571,15.794735 8.70353,16.0083 C10.393295,15.794735 12.404315,15.900005 13.03896,16.0083 C11.45507,16.0083 8.70353,17.704115 8.16871,18.2347 C9.336965,17.384675 12.19801,16.858325 12.61788,16.858325 C10.92751,17.384675 9.230485,19.082305 9.01571,20.882785 C10.3939,17.597635 15.47711,16.0083 18.130035,16.537675 C18.2831,16.56853 18.4404,16.604225 18.600725,16.64355 C15.71669,17.091855 12.39282,18.639445 11.242715,19.931725 C13.154515,18.714465 16.42091,18.064695 17.883195,17.929175 C17.84629,17.9927 17.8112,18.057435 17.77611,18.122775 C16.18738,18.578945 14.22113,19.343665 12.40492,20.882785 C13.84845,20.092655 15.576935,19.34306 17.376205,18.95707 C16.865585,20.153155 16.565505,21.427285 16.54191,22.25916 C16.079085,22.638495 15.65377,23.02509 15.28472,23.40866 C13.77464,23.800095 12.18349,24.2726 10.38543,24.70215 C11.7975,24.438975 15.34401,24.28712 17.83661,24.90664 C16.19222,25.09419 16.33258,25.49712 14.80193,25.49712 C12.952445,25.49712 10.687325,25.78994 7.112985,26.81481 C7.641755,26.7047 10.18578,26.7047 11.13442,27.02535 C10.60807,27.133645 6.68525,27.34358 3.9325,28.72298 C4.673625,28.50518 11.563365,27.659995 13.466695,27.659995 C10.821635,28.93352 5.63013,28.83067 3.083685,30.20644 C3.61911,29.992875 7.219465,29.568165 8.596445,29.992875 C6.818955,30.098145 4.016595,30.10117 0.995225,32.228955 C1.857955,31.69111 4.801885,30.854395 6.90063,31.04981 C4.149695,31.559825 1.509475,33.431695 0.366025,34.7028 C1.012165,34.12321 3.54167,32.75591 4.781315,32.85271 C4.460665,33.066275 1.70731,34.7633 1.18096,36.453065 C1.18096,36.453065 2.65595,34.7633 3.717725,34.442045 C3.717725,34.442045 1.70731,36.9897 1.280785,38.363655 C1.280785,38.363655 2.975995,36.77432 4.032325,35.28723 C3.82602,35.71557 2.44904,38.577825 2.557335,40.16111 C2.610575,39.931815 2.67531,39.704335 2.746095,39.47867 C3.046175,38.781105 3.628185,37.900225 3.9325,37.51605 C3.9325,37.51605 3.717725,38.892425 3.51263,41.6482 C3.51263,41.6482 4.35479,37.61648 5.415355,36.240105 C5.20179,36.87596 4.881745,39.31653 5.942915,41.32997 C5.73661,40.69351 5.73661,39.20642 6.15769,38.468925 C6.257515,39.106595 6.685855,41.967035 7.85532,42.70937 C6.15769,41.11943 7.319895,35.926715 8.38167,34.548525 C8.274585,35.28723 9.1234,37.729615 10.18578,38.46832 C8.91044,36.033195 9.33636,33.38632 11.769065,31.47573 C11.663795,31.796985 11.026125,33.486145 11.026125,34.6544 C11.45507,33.8074 12.51866,30.841085 14.314905,29.462895 C14.10134,29.78052 13.03896,32.53327 12.93974,35.497165 C13.03896,35.183775 13.995465,30.625705 16.74761,28.82946 C16.4318,29.249935 15.163115,31.685665 15.2702,34.44144 C15.5848,33.48554 16.538885,30.841085 18.87116,29.24933 C18.44282,30.098145 17.808175,31.896205 17.808175,35.183775 C17.808175,34.54792 19.07807,30.420005 20.990475,28.72177 C20.66922,29.462895 20.247535,32.532665 20.347965,34.6544 C20.668615,32.74381 21.51622,28.401725 23.10737,27.240125 C22.89441,27.87477 22.258555,32.43042 22.258555,34.0131 C22.56892,32.85997 24.059035,29.11744 25.45961,26.677475 C25.66168,29.032135 27.093715,27.538995 28.049615,26.00653 C29.537915,29.799275 32.963425,33.925375 34.126235,35.714965 C33.49038,33.702735 32.114005,31.0486 32.641565,29.672225 C33.17094,30.519225 33.69729,32.8515 34.01794,33.702735 C34.126235,32.429815 33.804375,30.20523 33.59686,29.78052 C34.866755,31.47573 34.65198,34.12079 36.24434,36.03259 C35.07306,33.8074 36.34961,30.733395 35.921875,29.462895 C37.091945,31.158105 36.777345,33.593835 36.98365,34.337985 C36.98365,32.21746 37.618295,33.486145 37.72659,35.71557 C38.04119,32.643985 37.30551,28.19058 36.98365,27.45369 C38.89424,30.31413 38.788365,33.38632 39.107805,34.7633 C39.317135,34.01431 39.317135,31.897415 39.317135,31.897415 C40.05826,33.066275 40.487205,35.397945 40.6923,36.35445 C41.013555,34.863125 40.6923,32.32394 40.58461,31.897415 C41.74742,33.910855 41.962195,36.137255 42.06928,36.774925 C42.28345,33.703945 41.013555,29.464105 40.6923,28.83067 C41.962195,30.314735 44.187385,35.184985 44.400345,35.926715 C44.293865,33.171545 43.237535,31.263375 42.91628,30.520435 C45.25037,33.171545 46.412575,36.240105 46.838495,37.306115 C46.838495,36.35445 46.1978,34.44265 45.990285,33.910855 C47.36787,35.397945 48.530075,39.106595 48.636555,39.740635 C48.85012,38.36426 48.323165,36.56136 48.323165,36.0338 C49.06429,36.67147 50.2271,38.78534 50.33237,39.106595 C50.2271,37.306115 49.69833,36.0338 49.48537,35.498375 C50.54049,36.0338 51.49639,37.196005 51.49639,37.196005 C51.109795,36.321175 50.672985,35.48688 50.190195,34.69312 C51.2314,35.57279 52.31314,36.394985 53.514065,37.196005 C53.241815,36.918915 51.84729,35.45179 50.856905,34.790525 L50.856905,34.790525 Z M40.931275,25.42573 C40.39343,25.40395 39.83804,25.438435 39.317135,25.542495 C39.317135,25.542495 39.913665,25.351315 40.631195,25.16195 C40.732835,25.25028 40.83266,25.338005 40.931275,25.42573 L40.931275,25.42573 Z M28.66127,22.447315 C28.7254,22.401335 28.79195,22.351725 28.861525,22.29788 C28.80889,22.39831 28.75565,22.49874 28.705435,22.599775 C28.69152,22.548955 28.67579,22.49874 28.66127,22.447315 L28.66127,22.447315 Z M30.47264,15.134075 C30.89614,14.86848 31.36925,14.624665 31.90407,14.386295 C31.60641,15.81591 31.41644,17.341115 31.051625,17.70472 C30.62389,18.133665 30.38794,16.54312 30.47264,15.134075 L30.47264,15.134075 Z M31.93795,14.228995 C31.570715,14.2538 31.006855,14.297965 30.557945,14.362095 C30.58396,14.204795 30.616025,14.058385 30.65414,13.924075 C31.080665,13.628835 31.63666,13.28459 32.284615,12.92885 C32.1497,13.319075 32.03717,13.76617 31.93795,14.228995 L31.93795,14.228995 Z M32.48003,16.53828 C32.36508,15.46985 32.44252,13.80005 32.61555,12.75098 C32.896875,12.60215 33.192115,12.45332 33.499455,12.306305 C32.92047,13.94162 32.576225,15.743915 32.48003,16.53828 L32.48003,16.53828 Z M34.10022,10.87911 C33.91993,11.23364 33.75416,11.621445 33.60291,12.023165 C33.34034,12.067935 33.04147,12.12299 32.73292,12.19196 C32.771035,12.055835 32.810965,11.94875 32.85392,11.879175 C32.76075,11.971135 32.67605,12.088505 32.59619,12.224025 C31.938555,12.380115 31.260955,12.603965 30.836245,12.9349 C31.27366,12.41702 32.552025,11.61479 34.10022,10.87911 L34.10022,10.87911 Z M30.33349,14.153975 C30.28993,14.24049 30.25,14.33003 30.21249,14.421385 C30.06124,14.45345 29.94508,14.48854 29.887605,14.52726 C29.990455,14.425015 30.141705,14.297965 30.33349,14.153975 L30.33349,14.153975 Z M29.35339,16.008905 C29.52521,15.83769 29.70913,15.678575 29.904545,15.527325 C29.68614,16.67259 29.66678,17.88864 29.35339,18.44887 C29.27474,17.914655 29.1005,17.360475 28.878465,16.811135 C29.068435,16.42333 29.234205,16.128695 29.35339,16.008905 L29.35339,16.008905 Z M27.68359,19.454985 C27.68601,19.672785 27.67391,19.895425 27.646685,20.1223 C27.59526,20.03639 27.542625,19.95169 27.489385,19.868805 C27.5517,19.739335 27.616435,19.600185 27.68359,19.454985 L27.68359,19.454985 Z M23.526635,21.51501 C23.193885,21.584585 22.649385,22.075845 22.2398,22.721985 C21.86954,22.64636 21.486575,22.59433 21.08909,22.582835 C20.86766,22.576785 20.648045,22.575575 20.430245,22.57981 C21.31052,21.94577 22.50479,21.338955 23.526635,21.51501 L23.526635,21.51501 Z M19.46406,22.63184 C18.952835,22.673585 18.44645,22.73832 17.94067,22.823625 C18.33997,22.05104 19.37089,21.440595 20.56032,21.51501 C20.56032,21.51501 19.929305,21.658395 19.46406,22.63184 L19.46406,22.63184 Z M23.244705,22.99726 C23.84063,22.869 24.408725,23.05534 24.817705,23.671835 C24.33552,23.429835 23.809775,23.19086 23.244705,22.99726 L23.244705,22.99726 Z M18.24559,17.90558 C18.350255,17.90195 18.434955,17.90316 18.497875,17.908605 C18.49485,17.91526 18.491825,17.92252 18.488195,17.92978 C18.384135,17.9564 18.27826,17.98423 18.16936,18.01327 C18.195375,17.977575 18.219575,17.940065 18.24559,17.90558 L18.24559,17.90558 Z M17.659345,18.9002 C17.82451,18.868135 17.989675,18.839095 18.155445,18.81429 C17.886825,19.649795 17.701695,20.54217 17.701695,20.88339 C17.98423,20.098705 18.5009,19.31644 18.972195,18.720515 C19.11316,18.70902 19.25473,18.701155 19.395695,18.695105 C19.13736,19.292845 18.97038,19.82464 18.97038,19.82464 C19.20391,19.50036 19.698195,19.07444 20.22636,18.697525 C20.800505,18.72354 21.370415,18.802795 21.928225,18.94618 C20.164045,19.7351 18.15242,20.943285 16.573975,22.23133 C16.82989,21.31173 17.132995,20.010375 17.659345,18.9002 L17.659345,18.9002 Z M17.7023,22.049225 C17.7023,22.049225 17.63454,22.431585 17.63454,22.87747 C16.869215,23.01783 16.099655,23.198725 15.310735,23.403215 C15.545475,23.283425 16.83594,22.625185 17.7023,22.049225 L17.7023,22.049225 Z M28.9069,23.90234 C28.9069,23.840025 28.90448,23.775895 28.900245,23.709345 C30.59364,22.7359 32.2828,22.10912 33.948365,21.789075 C35.131745,22.264605 36.63638,23.023275 37.61769,23.739595 C37.45434,23.41834 36.24555,22.292435 35.351965,21.59003 C35.46631,21.57914 35.580655,21.57067 35.695,21.562805 C36.721685,22.13695 38.148275,23.14004 39.493795,24.21694 C37.856665,24.066295 36.025935,24.061455 34.803835,24.41659 C32.90958,24.049355 30.93365,23.876325 28.9069,23.90234 L28.9069,23.90234 Z"></path>
                                </g>
                                <g transform="translate(9.680000, 3.630000)" id="Shape" fill="#00A156">
                                    <path d="M10.226315,24.195765 C10.0551,24.227225 9.912925,24.2605 9.80947,24.29438 C9.95104,24.262315 10.08777,24.228435 10.226315,24.195765 L10.226315,24.195765 Z"></path>
                                    <path d="M0.06897,34.36158 C0.114345,34.306525 0.167585,34.248445 0.219615,34.19097 C0.14278,34.259335 0.090145,34.31802 0.06897,34.36158 L0.06897,34.36158 Z"></path>
                                    <path d="M0.84216,31.72136 C0.787105,31.75524 0.739915,31.78791 0.702405,31.81937 C0.74899,31.78549 0.79497,31.753425 0.84216,31.72136 L0.84216,31.72136 Z"></path>
                                    <path d="M50.710495,34.29503 C51.478845,34.69554 52.72091,35.186195 53.67439,35.531045 C49.75157,33.08987 49.116925,31.713495 51.13581,32.45341 C48.05394,30.33591 52.190325,31.926455 52.823155,32.45341 C52.510975,31.926455 50.49209,30.01889 49.65114,29.487095 C50.07222,29.487095 52.397235,29.70308 53.35253,30.01889 C52.397235,29.28079 48.268715,27.79491 44.774235,26.84264 C44.774235,26.84264 45.836615,26.2086 46.7907,26.2086 C45.62184,25.783285 44.13838,26.31508 43.39665,25.676805 C42.941085,25.285975 42.04508,25.016145 41.05167,24.939915 C40.950635,24.824965 40.84718,24.7082 40.737675,24.590225 C41.46791,24.4057 42.25925,24.24598 42.65613,24.294985 C42.150955,24.115905 41.130925,23.91323 39.942705,23.7765 C38.93417,22.792165 37.74958,21.796335 36.66421,21.02859 C41.952515,21.093325 46.8633,24.11288 50.70747,28.64433 C50.70747,28.64433 49.35106,25.612675 46.944975,24.22178 C47.454385,24.50371 50.237385,25.613885 51.55568,26.734345 C50.70747,25.887345 47.426555,22.92345 45.83722,22.71412 C46.67817,22.71412 49.01105,23.13399 51.55568,25.04095 C50.70747,24.18911 48.16889,21.4412 43.91816,21.4412 C44.979935,21.4412 45.40888,19.953505 48.588155,21.01649 C46.677565,20.167675 44.138985,18.68603 40.32446,19.953505 C40.32446,19.953505 44.345895,17.62244 47.105905,18.686635 C43.71125,16.98719 41.807315,16.780885 38.63288,18.47065 C39.689815,17.623045 40.75159,16.1414 44.138985,15.7179 C40.75159,15.7179 36.50812,17.20257 34.81291,18.25769 C35.66838,16.987795 40.53258,13.17811 47.526985,13.38623 C44.555225,13.17811 41.98337,13.35719 39.7606,13.82788 C39.87918,13.613105 40.03406,13.30153 40.15385,12.948815 C44.903705,10.95413 48.776915,11.51194 51.021465,12.541045 C49.85805,11.68981 47.686705,10.949895 46.623115,11.053955 C47.540295,10.29105 50.646365,8.170525 51.463115,8.08885 C50.216815,8.128175 46.816715,9.802815 45.935835,10.47376 C46.73141,9.418035 49.384335,7.08334 50.44006,7.08334 C48.48228,6.981095 44.45298,10.258985 43.819545,10.740565 C43.18369,11.21549 40.64511,12.383745 41.325735,11.374605 C42.021485,10.365465 43.39665,6.766925 45.675685,6.23513 C43.50313,6.6066 41.37958,9.8373 40.430335,11.374605 C40.591265,8.99272 38.205145,11.214885 37.992185,11.689205 C39.001325,9.517255 39.94936,7.19103 41.48485,6.07662 C40.37649,6.656815 39.101755,8.04045 38.733915,8.7241 C38.94748,7.665955 39.36856,6.71066 39.90217,6.290185 C38.413265,7.134765 37.67698,10.211795 36.88201,11.32076 C36.08704,12.430935 34.75846,12.486595 36.66905,9.784665 C35.39976,10.36486 34.076625,13.76012 33.75537,14.28768 C33.558745,14.611355 33.584155,13.08373 33.88847,11.54824 C34.018545,11.489555 34.150435,11.43208 34.28293,11.374605 C34.20912,11.39336 34.07844,11.41514 33.909645,11.44297 C33.995555,11.027335 34.102035,10.615935 34.230295,10.242045 C34.490445,10.12165 34.75604,10.003675 35.025265,9.889935 C34.933305,9.902035 34.659845,9.96556 34.29382,10.06478 C34.440835,9.67395 34.612655,9.334545 34.812305,9.09678 C34.54671,9.36419 34.301685,9.718115 34.076625,10.124675 C33.12738,10.39148 31.742535,10.844625 31.109705,11.26994 C31.21074,10.740565 33.755975,9.36419 35.23883,8.829975 C34.917575,8.829975 32.90716,9.14518 32.380205,9.57473 C32.800075,8.940085 33.75537,7.77062 35.453,7.56371 C33.66583,7.47538 30.03583,10.467105 28.018155,14.82855 C27.71142,14.24775 27.39924,13.705065 27.14151,13.231955 C27.84694,12.26456 28.563865,11.58817 28.563865,11.58817 C28.09136,11.74547 27.485755,12.21011 26.90677,12.786675 C26.800895,12.57674 26.712565,12.386165 26.65388,12.22221 C26.6684,12.457555 26.70228,12.70137 26.748865,12.947605 C26.007135,13.71777 25.335585,14.644025 25.075435,15.304685 C24.64528,13.615525 26.61637,11.026125 28.67216,9.99823 C26.561315,10.5028 24.32221,12.485385 24.132845,15.190945 C23.94348,14.82008 23.749275,14.452845 23.550835,14.092265 C25.28174,10.807115 25.963575,6.17584 25.698585,3.958515 C25.59755,6.60781 24.6961,7.77062 24.54243,8.041055 C24.9018,6.71187 25.229105,3.85385 24.9018,3.37469 C25.06394,4.91381 24.167935,7.667165 23.792835,7.987815 C23.427415,8.30181 24.649515,3.4848 24.11409,2.47687 C24.184875,3.453945 23.74746,4.707505 23.35058,5.87455 C23.417735,4.13215 23.270115,2.011625 22.845405,1.412675 C23.109185,2.079385 22.89562,3.40978 22.67419,4.77829 C22.715935,3.10123 22.558635,1.183985 22.156915,0.622545 C22.577995,1.68069 21.781815,4.43707 21.67473,6.344635 C21.588215,8.019275 21.24639,9.407145 20.874315,9.93531 C20.68374,9.68726 20.49498,9.45252 20.30743,9.230485 C21.78726,8.09732 22.29425,4.75651 20.779935,1.626845 C20.97898,2.0328 21.09877,2.960265 21.11813,4.049265 C20.97051,3.272445 20.70552,2.454485 20.30501,1.626845 C20.49982,2.0207 20.63171,2.856205 20.672245,3.84175 C20.520995,2.96208 20.22878,2.029775 19.77866,1.098075 C19.92991,1.40481 20.05575,1.99045 20.136215,2.7104 C19.968025,2.063655 19.72663,1.39876 19.40356,0.73326 C19.941405,1.805925 20.15255,6.297445 19.179105,8.038635 C19.01878,7.892225 18.862085,7.75973 18.70902,7.642965 C20.14529,6.474105 20.289885,3.324475 18.662435,0.25047 C19.237185,1.312245 19.607445,5.870315 18.66909,7.612715 C18.542645,7.517125 18.418015,7.430005 18.298225,7.357405 C19.612285,6.084485 19.59232,2.9887 17.86081,0.03751 C18.467625,1.0406 19.01878,5.308875 18.26979,7.202525 C18.091315,4.983385 18.453105,1.80411 16.17044,0.14278 C17.018045,1.09868 17.546815,4.06439 17.331435,5.122535 C17.125735,3.005035 15.741495,0.678205 14.15216,0.03751 C15.528535,0.992805 16.06275,3.219205 15.741495,4.3802 C15.741495,3.538645 15.428105,2.26512 14.57324,1.734535 C15.000975,2.264515 14.67851,4.3802 14.67851,4.3802 C13.83877,3.005035 12.141745,1.62745 11.29414,1.412675 C12.141745,1.9481 13.41769,3.538645 13.41769,3.85385 C12.141745,3.111515 10.02243,2.26512 9.174825,2.05579 C11.293535,3.005035 11.293535,3.64573 9.074395,3.111515 C12.24883,4.17087 8.111235,4.48789 6.42147,4.91381 C12.162315,4.515115 11.2409,5.690025 8.589185,5.676715 C10.763555,5.75234 11.80839,5.79711 7.906745,7.454205 C9.49487,7.033125 10.871245,6.608415 10.871245,6.608415 C10.021825,7.135975 9.074395,7.88073 8.64545,8.30181 C9.174825,7.88073 10.337635,7.667165 10.337635,7.667165 C9.702385,8.195935 9.91595,9.998835 9.91595,9.998835 C10.039975,9.564445 10.18457,9.17664 10.344895,8.825135 C11.83138,5.786825 15.44928,5.58899 18.393815,7.771225 C19.39509,8.51598 20.42601,9.675765 21.41458,11.05577 C20.68737,10.2003 19.77866,9.460385 18.60859,8.94069 C20.933,10.52821 21.146565,13.06558 21.146565,13.38623 C19.45075,10.312225 16.904305,8.94069 15.21454,8.724705 C17.437915,9.364795 18.39321,11.482295 18.501505,12.222815 C17.64664,10.63348 14.572635,9.464015 13.72987,9.464015 C15.847975,10.104105 17.64664,12.541045 17.96729,13.17811 C16.062145,11.16467 12.561615,9.998835 11.927575,9.998835 C14.677905,11.05456 16.59031,13.38623 17.01744,13.918025 C14.151555,11.903375 12.248225,11.165275 9.91595,12.01167 C12.35531,11.482295 15.10685,13.707485 15.847975,14.55751 C13.72987,13.280355 10.337635,13.707485 9.38113,14.020875 C11.506495,13.81578 13.19626,14.55751 14.04568,15.08386 C12.674145,14.556905 8.852965,15.2944 8.538365,15.50373 C10.235995,15.2944 12.24762,15.39725 12.881055,15.50373 C11.29293,15.50373 8.538365,17.20257 8.010805,17.736785 C9.17422,16.881315 12.040105,16.352545 12.461185,16.352545 C10.76416,16.881315 9.07379,18.57592 8.85357,20.380635 C10.2366,17.094275 15.322835,15.50373 17.96729,16.039155 C18.121565,16.07001 18.280075,16.105705 18.44161,16.14503 C15.558785,16.590915 12.233705,18.13548 11.080575,19.42897 C12.99661,18.21171 16.260585,17.566175 17.72287,17.42763 C17.687175,17.489945 17.65269,17.55347 17.618205,17.616995 C16.024635,18.073165 14.05899,18.836675 12.248225,20.38003 C13.689335,19.586875 15.418425,18.83607 17.2183,18.450685 C16.70768,19.64677 16.409415,20.9209 16.385215,21.755195 C15.91997,22.13574 15.492235,22.523545 15.12137,22.908325 C13.613105,23.299155 12.02256,23.76924 10.225105,24.195765 C11.6402,23.9338 15.181265,23.784365 17.67205,24.40812 C16.02887,24.592645 16.17528,24.993155 14.64705,24.993155 C12.79575,24.993155 10.52337,25.29263 6.950845,26.31508 C7.477195,26.2086 10.021825,26.2086 10.978935,26.521385 C10.451375,26.6321 6.528555,26.84264 3.768545,28.219015 C4.50967,28.008475 11.398805,27.16087 13.304555,27.16087 C10.657075,28.431975 5.46678,28.326705 2.9282,29.703685 C3.45576,29.4877 7.056115,29.06662 8.433095,29.4877 C6.65742,29.599625 3.85627,29.60265 0.841555,31.721965 C1.71094,31.18291 4.64277,30.349825 6.74333,30.55129 C3.999655,31.05586 1.36609,32.91805 0.21901,34.19218 C0.87604,33.605935 3.38558,32.25981 4.616755,32.35177 C4.304575,32.56715 1.550615,34.25994 1.0164,35.956965 C1.0164,35.956965 2.500465,34.259335 3.56224,33.938685 C3.56224,33.938685 1.55001,36.48755 1.123485,37.865135 C1.123485,37.865135 2.813855,36.270355 3.875025,34.78871 C3.66872,35.21463 2.29174,38.075675 2.39217,39.65775 C2.44541,39.428455 2.510145,39.200975 2.58093,38.97531 C2.88101,38.277745 3.463625,37.399285 3.76794,37.020555 C3.76794,37.020555 3.561635,38.38967 3.34686,41.149075 C3.34686,41.149075 4.19749,37.123405 5.2514,35.739165 C5.037835,36.376835 4.723235,38.81559 5.786825,40.82782 C5.571445,40.19257 5.571445,38.7079 5.994945,37.967985 C6.09961,38.60263 6.52795,41.46549 7.690155,42.205405 C5.994945,40.61244 7.163805,35.42759 8.21953,34.046375 C8.111235,34.78871 8.96005,37.22565 10.021825,37.967985 C8.752535,35.532255 9.174825,32.88296 11.61358,30.97479 C11.506495,31.29181 10.871245,32.98823 10.871245,34.15709 C11.293535,33.30404 12.355915,30.33712 14.151555,28.961955 C13.944645,29.281395 12.88166,32.03475 12.783045,35.002275 C12.88166,34.68102 13.838165,30.12658 16.59031,28.32731 C16.270265,28.75081 15.00037,31.18533 15.10685,33.938685 C15.428105,32.98823 16.3834,30.336515 18.70902,28.75081 C18.28189,29.60144 17.647245,31.396475 17.647245,34.68102 C17.647245,34.04698 18.92198,29.909385 20.834385,28.21962 C20.51313,28.961955 20.084185,32.03475 20.19853,34.15709 C20.51313,32.24892 21.36255,27.90623 22.944625,26.73495 C22.737715,27.374435 22.097625,31.927665 22.097625,33.52305 C22.4092,32.36024 23.899315,28.613475 25.29989,26.172905 C25.503775,28.53301 26.93823,27.03987 27.894735,25.504985 C29.381825,29.29652 32.808545,33.423225 33.96349,35.215235 C33.3355,33.204215 31.960335,30.551895 32.486685,29.171285 C33.01485,30.0201 33.54362,32.352375 33.86306,33.20482 C33.96349,31.92827 33.649495,29.704895 33.43593,29.282 C34.711875,30.975395 34.4971,33.626505 36.08825,35.53286 C34.918785,33.304645 36.18868,30.23064 35.76881,28.96256 C36.93767,30.65898 36.617625,33.091685 36.824535,33.839465 C36.824535,31.71531 37.46402,32.98944 37.57171,35.21584 C37.89236,32.145465 37.14337,27.691455 36.824535,26.95154 C38.735125,29.810165 38.633485,32.88417 38.948085,34.26115 C39.156205,33.52426 39.156205,31.397685 39.156205,31.397685 C39.90338,32.568965 40.325065,34.895795 40.53258,35.850485 C40.852625,34.364 40.53258,31.821185 40.43094,31.397685 C41.59375,33.411125 41.80792,35.637525 41.9144,36.27217 C42.127965,33.205425 40.85323,28.963165 40.53258,28.329125 C41.80792,29.81077 44.03311,34.68223 44.24607,35.43001 C44.13959,32.671815 43.083865,30.763645 42.75656,30.02131 C45.096095,32.671815 46.25709,35.74098 46.67817,36.806385 C46.67817,35.85109 46.043525,33.9405 45.83722,33.41173 C47.212385,34.8964 48.375195,38.604445 48.48228,39.240905 C48.69645,37.86695 48.16889,36.058 48.16889,35.53407 C48.910015,36.16932 50.072825,38.28561 50.181725,38.604445 C50.07343,36.806385 49.538005,35.53407 49.331095,35.00409 C50.39408,35.53407 51.33425,36.69325 51.33425,36.69325 C50.947655,35.81721 50.509635,34.98231 50.026845,34.187945 C51.069865,35.070035 52.15221,35.894045 53.35374,36.69325 C53.08149,36.41858 51.697855,34.96174 50.710495,34.29503 L50.710495,34.29503 Z M39.50892,13.233165 C39.536145,13.446125 39.560345,13.668765 39.57305,13.86902 C38.61594,14.08077 37.723565,14.346365 36.89411,14.659755 C37.788905,14.09408 38.66192,13.6246 39.50892,13.233165 L39.50892,13.233165 Z M19.232345,8.085825 C19.549365,7.83354 19.8077,7.485665 20.00251,7.063375 C19.89603,7.584885 19.74962,8.0465 19.554205,8.39861 C19.44591,8.287895 19.33822,8.18444 19.232345,8.085825 L19.232345,8.085825 Z M19.60805,8.45185 C19.952295,8.175365 20.226965,7.784535 20.425405,7.309005 C20.304405,7.88678 20.138635,8.39982 19.92144,8.783995 C19.815565,8.66844 19.711505,8.55833 19.60805,8.45185 L19.60805,8.45185 Z M19.96742,8.837235 C20.289885,8.58616 20.559715,8.24373 20.76844,7.829305 C20.64139,8.36957 20.477435,8.839655 20.27355,9.18753 C20.1707,9.06653 20.068455,8.949765 19.96742,8.837235 L19.96742,8.837235 Z M24.12014,15.545475 C24.11893,16.137165 24.212705,16.75971 24.42869,17.407665 C23.987645,16.13535 23.524215,14.59381 22.77946,13.13576 C23.24894,13.914395 23.69906,14.7257 24.12014,15.545475 L24.12014,15.545475 Z M20.94994,10.03332 C21.584585,9.753205 22.054065,8.759795 22.3366,7.600615 C22.204105,9.150625 21.864095,10.387245 21.51017,10.798645 C21.323225,10.53305 21.13628,10.27774 20.94994,10.03332 L20.94994,10.03332 Z M22.43461,9.99097 C22.32571,10.632875 22.20229,11.19008 22.017765,11.542795 C21.86228,11.308055 21.706795,11.080575 21.55131,10.85854 C21.89253,10.749035 22.18777,10.433225 22.43461,9.99097 L22.43461,9.99097 Z M18.09192,17.40101 C18.19719,17.396775 18.282495,17.397985 18.345415,17.402825 C18.34239,17.40948 18.339365,17.416135 18.33634,17.42279 C18.232885,17.448805 18.126405,17.476635 18.01811,17.505675 C18.042915,17.470585 18.06651,17.43489 18.09192,17.40101 L18.09192,17.40101 Z M17.47603,22.375925 C16.71131,22.516285 15.942355,22.696575 15.15283,22.90046 C15.39725,22.77583 16.68469,22.115775 17.548025,21.542235 C17.54742,21.542235 17.47724,21.92883 17.47603,22.375925 L17.47603,22.375925 Z M16.422725,21.724945 C16.67743,20.80232 16.978115,19.500965 17.50507,18.392605 C17.67084,18.361145 17.83661,18.332105 18.002985,18.306695 C17.73376,19.142805 17.548025,20.038205 17.548025,20.379425 C17.826325,19.59595 18.342995,18.811265 18.8155,18.213525 C18.95707,18.20203 19.099245,18.194165 19.24142,18.18872 C18.983085,18.78888 18.81671,19.32249 18.81671,19.32249 C19.048425,18.995185 19.54392,18.568055 20.072085,18.191745 C20.64865,18.218365 21.22098,18.29883 21.783025,18.44403 C20.01703,19.23174 18.00359,20.43811 16.422725,21.724945 L16.422725,21.724945 Z M19.307365,22.130295 C18.794325,22.17204 18.286125,22.23738 17.77853,22.322685 C18.176015,21.5501 19.210565,20.94026 20.407255,21.01649 C20.40665,21.01649 19.770795,21.155035 19.307365,22.130295 L19.307365,22.130295 Z M22.0825,22.219835 C21.712845,22.144815 21.330485,22.09339 20.93421,22.0825 C20.71157,22.075845 20.490745,22.07524 20.271735,22.079475 C21.152615,21.443015 22.34991,20.83378 23.37236,21.017095 C23.039005,21.083645 22.492085,21.573695 22.0825,22.219835 L22.0825,22.219835 Z M23.09285,22.49511 C23.68212,22.369875 24.24477,22.555005 24.651935,23.162425 C24.17338,22.922845 23.652475,22.68629 23.09285,22.49511 L23.09285,22.49511 Z M27.486965,19.61773 C27.436145,19.53303 27.384115,19.44954 27.330875,19.36726 C27.393795,19.23779 27.45853,19.099245 27.525685,18.952835 C27.5275,19.17003 27.513585,19.39146 27.486965,19.61773 L27.486965,19.61773 Z M27.44885,16.22368 C26.80392,15.621705 26.019235,15.29319 26.019235,15.29319 C26.503235,15.864915 26.89346,16.47173 27.15724,17.120895 C27.04955,17.49297 26.95517,17.8717 26.87531,18.25648 C26.850505,18.398655 26.828725,18.52994 26.80876,18.65457 C26.741605,18.574105 26.67324,18.497875 26.60427,18.424065 C26.36953,17.56073 26.01863,16.79359 25.53221,16.1293 C25.705845,15.89214 25.90973,15.51462 26.13358,14.97496 C26.335045,14.486725 26.60669,14.016035 26.89467,13.586485 C27.100975,14.370565 27.396215,15.147385 27.620065,15.766905 C27.56017,15.91755 27.5033,16.07001 27.44885,16.22368 L27.44885,16.22368 Z M32.460065,12.247015 C32.74139,12.098185 33.037235,11.949355 33.344575,11.801735 C32.764985,13.438865 32.41953,15.24237 32.3191,16.03734 C32.208385,14.97133 32.289455,13.2979 32.460065,12.247015 L32.460065,12.247015 Z M33.94292,10.376355 C33.763235,10.73028 33.598675,11.11748 33.44803,11.51799 C33.18425,11.56276 32.88417,11.61842 32.57562,11.687995 C32.61313,11.551265 32.65306,11.443575 32.6942,11.374 C32.601635,11.466565 32.51633,11.58454 32.43768,11.72006 C31.78186,11.876755 31.10789,12.100605 30.683785,12.429725 C31.114545,11.915475 32.393515,11.115665 33.94292,10.376355 L33.94292,10.376355 Z M30.50168,13.414665 C30.928205,13.12124 31.482385,12.779415 32.12792,12.42549 C31.99361,12.81632 31.881685,13.26523 31.78186,13.729265 C31.414625,13.75407 30.85258,13.79763 30.403065,13.859945 C30.429685,13.700225 30.46296,13.55079 30.50168,13.414665 L30.50168,13.414665 Z M30.317155,14.631925 C30.739445,14.36633 31.21195,14.12312 31.748585,13.885355 C31.450925,15.314365 31.25793,16.83715 30.88888,17.201965 C30.467195,17.62849 30.23185,16.037945 30.317155,14.631925 L30.317155,14.631925 Z M30.185265,13.64033 C30.13989,13.729265 30.098145,13.82183 30.059425,13.916815 C29.90515,13.94767 29.78657,13.982155 29.727885,14.01906 C29.833155,13.91621 29.98864,13.787345 30.185265,13.64033 L30.185265,13.64033 Z M28.54995,22.10065 C28.536035,22.04741 28.5197,21.993565 28.50397,21.93972 C28.569915,21.891925 28.637675,21.842315 28.70967,21.78605 C28.65401,21.890715 28.602585,21.99538 28.54995,22.10065 L28.54995,22.10065 Z M29.19972,15.50252 C29.370935,15.33312 29.55425,15.175215 29.74906,15.02457 C29.53005,16.16802 29.50948,17.38286 29.19972,17.94309 C29.11865,17.410085 28.943805,16.85651 28.72056,16.307775 C28.91174,15.91876 29.07872,15.62231 29.19972,15.50252 L29.19972,15.50252 Z M28.75202,23.402005 C28.75202,23.33848 28.750205,23.27314 28.74597,23.20417 C29.064805,23.020855 29.38364,22.851455 29.702475,22.69234 C29.806535,22.93192 29.936005,23.181785 30.066685,23.41471 C29.631085,23.4014 29.19246,23.395955 28.75202,23.402005 L28.75202,23.402005 Z M34.65924,23.91444 C33.355465,23.662155 32.01176,23.503645 30.63962,23.437095 C30.58638,23.0747 30.50168,22.691735 30.404275,22.3608 C31.541675,21.85502 32.67484,21.50049 33.79651,21.28511 C34.97989,21.76185 36.483315,22.52173 37.463415,23.241075 C37.30067,22.91377 36.090065,21.78968 35.19648,21.086065 C35.31143,21.075175 35.425775,21.066705 35.540725,21.05884 C36.56862,21.63359 37.99642,22.63668 39.342545,23.714185 C37.70965,23.566565 35.881945,23.562935 34.65924,23.91444 L34.65924,23.91444 Z M39.1556,25.04095 C39.1556,25.04095 39.75576,24.847955 40.47692,24.65738 C40.57977,24.746315 40.6802,24.83525 40.780025,24.92358 C40.23976,24.901195 39.681345,24.936285 39.1556,25.04095 L39.1556,25.04095 Z"></path>
                                    <path d="M8.58979,5.675505 C8.404055,5.669455 8.211665,5.6628 8.012015,5.654935 C8.21227,5.668245 8.405265,5.6749 8.58979,5.675505 L8.58979,5.675505 Z"></path>
                                </g>
                                <path d="M18.55535,56.36906 C21.495045,48.52221 25.429965,42.46737 29.919065,37.475515 C34.122,32.791 38.39935,28.494895 42.22053,22.642125 C44.21098,19.580825 45.84932,18.20445 47.46588,17.53653 C47.330965,25.72944 43.52249,31.56648 40.891345,34.688885 L65.84578,34.688885 L65.84578,40.727995 L57.613545,40.727995 L57.613545,64.261285 L70.110425,34.688885 L72.7815,34.688885 L86.959675,67.59181 C88.958595,67.930005 90.768755,68.588245 92.03744,69.461865 L89.50007,73.999365 C88.049885,73.026525 86.551905,72.479 84.96257,72.48747 C84.487645,72.48747 84.00062,72.538895 83.506335,72.655055 C79.00937,73.17475 77.086075,77.55132 77.003795,81.886145 C76.92575,86.88526 79.22475,90.571525 83.160275,90.87463 C83.581355,90.9194 84.027845,90.938155 84.4701,90.938155 C86.306275,90.95086 88.49093,90.60843 91.54497,89.269565 L91.54497,94.46833 C89.17942,95.572455 86.63963,96.198025 83.8409,96.16717 C82.906175,96.16717 81.95572,96.091545 80.95384,95.92517 C73.884415,94.77809 70.58535,88.956175 70.478265,82.641185 C70.35061,76.429045 73.124535,70.647665 78.79762,68.330515 L77.332915,64.261285 L64.851765,64.261285 L62.60782,70.515775 L61.410525,70.515775 L61.502485,70.543 L61.811035,70.660975 L61.852175,70.69909 L62.1456,70.82251 L62.20489,70.837635 L62.481375,70.97497 L62.54611,71.002195 L62.820175,71.13953 L62.845585,71.16978 L63.120255,71.32345 L63.140825,71.32345 L63.40763,71.49527 L63.460265,71.523705 L63.701055,71.69008 L63.749455,71.72033 L63.995085,71.89094 L64.04167,71.932685 L64.26915,72.116605 L64.309685,72.151695 L64.516595,72.3217 L64.562575,72.368285 L64.754965,72.552205 L64.817885,72.60726 L65.017535,72.791785 L65.082875,72.8541 L65.257115,73.039835 L65.323665,73.09489 L65.496695,73.28123 L65.552355,73.355645 L65.704815,73.5438 L65.7514,73.59946 L65.904465,73.79911 L65.98493,73.87655 L66.11803,74.082855 L66.19305,74.162715 L66.334015,74.36297 L66.398145,74.457955 L66.48587,74.610415 L66.580855,74.751985 L66.666765,74.90505 L66.734525,75.004875 L66.855525,75.212995 L66.914815,75.33097 L67.020085,75.520335 L67.089055,75.654645 L67.16105,75.78835 L67.24817,75.97832 L67.302015,76.09448 L67.402445,76.30865 L67.435115,76.40182 L67.562165,76.67649 L67.575475,76.735175 L67.78904,77.251845 L67.78904,77.269995 L67.891285,77.59851 L67.91609,77.652355 L68.01652,77.992365 L68.01652,78.006885 C68.124815,78.29668 68.19681,78.621565 68.257915,78.92104 L68.27546,78.933745 C69.08737,82.475415 68.67113,86.27905 67.374615,88.75713 C64.51599,94.24448 60.231985,96.567075 56.090155,96.426715 C54.50082,96.386785 52.923585,95.972965 51.4613,95.22095 C43.75723,91.368915 42.895105,82.60912 46.18207,76.495595 C46.629165,75.70123 47.150675,74.917755 47.738735,74.183285 L47.79258,74.123995 L47.91237,74.000575 L47.952905,73.943705 L48.059385,73.81847 L48.10597,73.756155 L48.220315,73.646045 L48.280815,73.57647 L48.400605,73.45063 L48.841045,73.0114 L48.887025,72.96421 L49.02799,72.834135 L49.054005,72.811145 L49.18771,72.68107 L49.25426,72.62299 L49.37526,72.523165 L49.429105,72.48747 L49.885275,72.104505 L49.91734,72.07607 L50.06375,71.965355 L50.11094,71.920585 L50.2513,71.831045 L50.33116,71.78083 L50.452765,71.670115 L50.513265,71.648335 L50.66754,71.544275 L51.027515,71.295015 L51.04022,71.295015 L51.23503,71.18188 L51.247735,71.169175 L51.414715,71.08387 L51.474005,71.053015 L51.62949,70.955005 L51.67547,70.94714 L51.828535,70.847315 L51.889035,70.821905 L52.437165,70.559335 L52.47044,70.54179 L52.54546,70.514565 L49.50473,70.514565 L49.50473,40.727995 L42.44075,40.727995 L42.44075,68.54287 C43.094755,68.80423 43.676765,69.107335 44.164395,69.461865 L41.624605,73.999365 C40.176235,73.026525 38.672205,72.479 37.095575,72.48747 C36.607945,72.48747 36.126365,72.538895 35.63329,72.655055 C31.15508,73.17475 29.21061,77.55132 29.138615,81.886145 C29.05815,86.88526 31.37046,90.571525 35.28723,90.87463 C35.713755,90.9194 36.139675,90.938155 36.594635,90.938155 C38.433835,90.95086 40.6318,90.60843 43.677975,89.269565 L43.677975,94.46833 C41.31182,95.572455 38.76719,96.198025 35.9733,96.16717 C35.05128,96.16717 34.08933,96.091545 33.10197,95.92517 C26.019235,94.77809 22.703835,88.956175 22.604615,82.641185 C22.477565,76.23363 25.43057,70.274985 31.49025,68.109085 C32.37234,67.79388 33.340945,67.57729 34.316205,67.47323 L34.316205,41.98337 C30.69528,45.31087 25.651395,56.626185 20.151945,70.515775 L16.6375,70.515775 L2.15138,37.36238 L9.132475,34.166165 L18.55535,56.36906 L18.55535,56.36906 Z M65.84578,60.8993 L75.74721,60.8993 L70.8697,49.139915 L65.84578,60.8993 L65.84578,60.8993 Z M104.57183,69.599805 L104.405455,69.61251 L104.2052,69.61251 L104.09146,69.625215 L103.951705,69.625215 L103.830705,69.63792 L103.67159,69.65849 L103.558455,69.6718 L103.39571,69.684505 L103.28923,69.703865 L103.143425,69.71657 L103.03634,69.747425 L102.800995,69.778885 L102.661845,69.81216 L102.548105,69.838175 L102.40714,69.858745 L102.2813,69.884155 L102.140335,69.918035 L102.03325,69.944655 L101.914065,69.99608 L101.774915,70.025725 L101.652705,70.051135 L101.547435,70.09772 L101.211055,70.20541 L101.191695,70.20541 L101.05194,70.273775 L100.9503,70.300395 L100.810545,70.342745 L100.71677,70.386305 L100.58488,70.43894 L100.498365,70.486735 L100.35135,70.54179 L100.297505,70.559335 L99.77539,70.821905 L99.696135,70.847315 L99.56243,70.92536 L99.488015,70.974365 L99.341605,71.053015 L99.26719,71.08387 L99.11473,71.169175 L99.087505,71.18188 L98.920525,71.295015 L98.90782,71.295015 L98.36574,71.66467 L98.325205,71.670115 L98.178795,71.78083 L98.103775,71.831045 L97.99306,71.920585 L97.940425,71.965355 L97.79099,72.07607 L97.77163,72.086355 L97.282185,72.48747 L97.25133,72.523165 L97.110365,72.62299 L97.055915,72.68107 L96.93552,72.811145 L96.88954,72.834135 L96.7637,72.96421 L96.71651,73.0114 L96.262155,73.45063 L96.14781,73.57647 L96.08852,73.646045 L95.98688,73.756155 L95.94211,73.81847 L95.81506,73.943705 L95.775735,74.000575 L95.66139,74.123995 L95.6142,74.183285 C95.02614,74.917755 94.48648,75.70123 94.04967,76.495595 C90.77057,82.60912 91.625435,91.368915 99.33495,95.22095 C100.798445,95.972965 102.37568,96.386785 103.965015,96.426715 C108.10866,96.567075 112.370885,94.245085 115.23072,88.75713 C116.45403,86.44603 116.899915,83.006605 116.3052,79.688785 L116.292495,79.673055 L116.22776,79.325785 L116.212635,79.288275 L116.046865,78.55925 L115.884725,78.006885 L115.884725,77.97966 L115.779455,77.652355 L115.770985,77.61182 L115.65906,77.303875 L115.645145,77.238535 L115.58646,77.095755 L115.519305,76.90397 L115.44489,76.736385 L115.432185,76.69343 L115.303925,76.403635 L115.279725,76.310465 L115.17022,76.090245 L115.11093,75.980135 L115.03107,75.790165 L114.956655,75.63589 L114.874375,75.52215 L114.789675,75.332785 L114.708605,75.21481 L114.622695,75.04178 L114.547675,74.906865 L114.455715,74.7538 L114.373435,74.62675 L114.25546,74.447065 L114.1998,74.36418 L114.055205,74.163925 L113.988655,74.084065 L113.854345,73.87776 L113.78114,73.80032 L113.625655,73.60067 L113.58028,73.54501 L113.4254,73.356855 L113.366715,73.30059 L113.186425,73.0961 L113.138025,73.041045 L112.952895,72.835345 L112.888765,72.7936 L112.692745,72.59395 L112.652815,72.564305 L112.43925,72.350135 L112.40295,72.336825 L112.163975,72.135965 L112.143405,72.11963 L111.91532,71.93571 L111.86934,71.893965 L111.623105,71.723355 L111.58257,71.693105 L111.329075,71.52673 L111.268575,71.498295 L111.01387,71.326475 L111.001165,71.326475 L110.719235,71.172805 L110.67991,71.142555 L110.41976,71.00522 L110.352605,70.977995 L110.079145,70.84066 L110.018645,70.825535 L109.724615,70.702115 L109.684685,70.664 L109.365245,70.546025 L109.07666,70.443175 L108.964735,70.39054 L108.775975,70.337905 L108.662235,70.29011 L108.475895,70.22961 L108.363365,70.18 L108.189125,70.128575 L108.06026,70.0832 L107.846695,70.029355 L107.784985,70.01665 L107.50003,69.942235 L107.3996,69.92227 L107.198135,69.8775 L107.08379,69.84241 L106.93254,69.816395 L106.791575,69.78312 L106.637905,69.76618 L106.49815,69.734115 L106.345085,69.72141 L106.22469,69.708705 L105.95607,69.662725 L105.875605,69.662725 L105.68745,69.642155 L105.553745,69.62945 L105.39463,69.616745 L105.12722,69.616745 L105.006825,69.60404 L104.57183,69.60404 L104.57183,69.599805 Z" id="Shape" fill="#000000"></path>
                                <path d="M62.625365,70.066865 L62.678,70.09046 L62.665295,70.12555 C62.678,70.12555 62.70583,70.139465 62.733055,70.155195 L62.74576,70.12555 L62.718535,70.07352 L62.7264,70.066865 L62.625365,70.066865 L62.625365,70.066865 Z" id="Shape"></path>
                                <polygon id="Shape" fill="#000000" points="62.727005 70.080175 62.746365 70.12555 62.733055 70.155195 62.772985 70.05174"></polygon>
                                <path d="M100.322915,94.727875 C92.59888,90.87463 91.757325,82.100315 95.043685,76.0001 C97.68935,71.106255 103.536675,67.240305 110.351395,70.05174 C117.854605,72.79481 118.862535,83.214725 116.22534,88.261635 C112.255935,95.8441 105.593675,97.36144 100.322915,94.727875 L100.322915,94.727875 Z" id="Shape" fill="url(#radialGradient-1)"></path>
                                <path d="M17.625465,70.016045 L3.1339,36.865675 L10.129515,33.673695 C13.26281,41.07587 16.403365,48.471995 19.54392,55.875985 C22.47696,48.032765 26.412485,41.97732 30.902795,36.98002 C35.097865,32.295505 39.38187,27.996375 43.20426,22.139975 C45.1935,19.09259 46.83063,17.710165 48.4484,17.043455 C48.31288,25.22487 44.50622,31.0728 41.87205,34.19702 L66.83435,34.19702 L66.83435,40.22645 L58.60998,40.22645 L58.60998,63.75853 L71.09597,34.19702 L73.763415,34.19702 L89.199385,70.016045 L80.57269,70.016045 L78.313015,63.75853 L65.83247,63.75853 L63.593365,70.016045 L50.49209,70.016045 L50.49209,40.227055 L43.422665,40.227055 L43.422665,70.01665 L35.312035,70.01665 L35.312035,41.48727 C31.67538,44.81598 26.63815,56.143395 21.153825,70.01665 L17.625465,70.01665 L17.625465,70.016045 L17.625465,70.016045 Z M66.834955,60.39715 L76.73578,60.39715 L71.852825,48.63837 L66.834955,60.39715 L66.834955,60.39715 Z" id="Shape" fill="url(#linearGradient-2)"></path>
                                <path d="M36.62186,72.151695 C38.75872,71.6804 40.73707,72.24547 42.614385,73.500845 C43.463805,71.990765 44.31383,70.47282 45.15962,68.957295 C42.294945,67.000725 36.634565,66.121055 32.479425,67.60875 C26.42519,69.780095 23.47279,75.727245 23.585925,82.14085 C23.69906,88.45584 27.006595,94.280175 34.075415,95.422415 C38.05087,96.064925 41.490295,95.422415 44.65989,93.97707 L44.65989,88.78254 C40.83145,90.42572 38.36547,90.54551 36.273985,90.379135 C32.345115,90.07724 30.040065,86.395815 30.127185,81.392465 C30.20039,77.042515 32.130945,72.680465 36.62186,72.151695 L36.62186,72.151695 Z" id="Shape" fill="url(#linearGradient-3)"></path>
                                <path d="M84.486435,72.151695 C86.617245,71.6804 88.602855,72.24547 90.48017,73.500845 C91.322935,71.990765 92.172355,70.47282 93.025405,68.957295 C90.16073,67.000725 84.49914,66.121055 80.34521,67.60875 C74.282505,69.780095 71.337365,75.727245 71.45776,82.14085 C71.5715,88.45584 74.865725,94.280175 81.9412,95.422415 C85.910605,96.064925 89.3585,95.422415 92.524465,93.97707 L92.524465,88.78254 C88.69542,90.42572 86.237305,90.54551 84.131905,90.379135 C80.21816,90.07724 77.913715,86.395815 77.99902,81.392465 C78.06678,77.042515 79.99794,72.680465 84.486435,72.151695 L84.486435,72.151695 Z" id="Shape" fill="url(#linearGradient-4)"></path>
                                <path d="M35.53286,25.541285 C34.14862,25.541285 33.020295,26.678685 33.020295,28.060505 C33.020295,29.449585 34.14862,30.57186 35.53286,30.57186 C36.922545,30.57186 38.05087,29.449585 38.05087,28.060505 C38.05087,26.67929 36.922545,25.541285 35.53286,25.541285 L35.53286,25.541285 Z" id="Shape" fill="url(#radialGradient-5)"></path>
                                <path d="M39.254215,26.68413 C37.86453,26.68413 36.73439,27.81911 36.73439,29.20335 C36.73439,30.594245 37.86453,31.72015 39.254215,31.72015 C40.637245,31.72015 41.76557,30.594245 41.76557,29.20335 C41.76557,27.81911 40.637245,26.68413 39.254215,26.68413 L39.254215,26.68413 Z" id="Shape" fill="url(#radialGradient-6)"></path>
                                <path d="M35.953335,28.494895 C34.5697,28.494895 33.43472,29.627455 33.43472,31.014115 C33.43472,32.40017 34.5697,33.53152 35.953335,33.53152 C37.336365,33.53152 38.47074,32.40017 38.47074,31.014115 C38.47074,29.62685 37.33576,28.494895 35.953335,28.494895 L35.953335,28.494895 Z" id="Shape" fill="url(#radialGradient-7)"></path>
                                <path d="M52.450475,94.727875 C44.739145,90.87463 43.890935,82.100315 47.171245,76.0001 C49.82296,71.106255 55.670285,67.240305 62.485005,70.05174 C69.989425,72.79481 70.997355,83.214725 68.357135,88.261635 C64.388335,95.8441 57.721235,97.36144 52.450475,94.727875 L52.450475,94.727875 Z" id="Shape" fill="url(#radialGradient-8)"></path>
                                <path d="M48.634135,73.809395 C51.668815,70.059605 56.73327,67.674695 62.48561,70.05174 C66.682495,71.587835 68.839925,75.51368 69.473965,79.56234 C68.19076,78.54473 66.73634,77.610005 65.131275,76.747275 C63.90857,76.921515 62.6659,77.08426 61.630745,77.44 C60.915635,76.63535 60.04625,75.993445 59.152665,75.37937 C58.14292,75.579625 57.13378,75.792585 56.12464,75.99405 C55.35024,75.559055 54.54801,75.151285 53.58727,74.899 C53.766955,74.758035 53.953295,74.617675 54.13298,74.48276 C52.803795,73.937655 51.09346,73.637575 48.634135,73.809395 L48.634135,73.809395 Z" id="Shape" fill="url(#linearGradient-9)"></path>
                                <path d="M96.473905,73.809395 C99.50798,70.059605 104.572435,67.674695 110.32538,70.05174 C114.52166,71.587835 116.678485,75.51368 117.31313,79.56234 C116.029925,78.54473 114.57611,77.610005 112.97044,76.747275 C111.747735,76.921515 110.50446,77.08426 109.46991,77.44 C108.7548,76.63535 107.885415,75.993445 106.991225,75.37937 C105.982085,75.579625 104.972945,75.792585 103.9632,75.99405 C103.189405,75.559055 102.38778,75.151285 101.426435,74.899 C101.60612,74.758035 101.79246,74.617675 101.972145,74.48276 C100.643565,73.937655 98.932625,73.637575 96.473905,73.809395 L96.473905,73.809395 Z" id="Shape" fill="url(#linearGradient-10)"></path>
                            </g>
                            <path d="M119.39433,65.891155 C119.669605,65.891155 119.93399,65.95952 120.18688,66.098065 C120.43977,66.2354 120.63821,66.43263 120.782805,66.69036 C120.926795,66.94688 121,67.216105 121,67.496825 C121,67.77573 120.92861,68.042535 120.786435,68.296635 C120.64547,68.55013 120.44703,68.746755 120.193535,68.889535 C119.94004,69.0305 119.674445,69.10189 119.39433,69.10189 C119.11482,69.10189 118.848015,69.031105 118.59452,68.889535 C118.341025,68.746755 118.143795,68.549525 118.00162,68.296635 C117.86005,68.042535 117.789265,67.77573 117.789265,67.496825 C117.789265,67.216105 117.86126,66.94688 118.00525,66.69036 C118.149845,66.432025 118.34889,66.234795 118.60178,66.098065 C118.85467,65.95952 119.11966,65.891155 119.39433,65.891155 L119.39433,65.891155 Z M119.39675,66.205755 C119.175925,66.205755 118.96357,66.261415 118.760895,66.371525 C118.558825,66.481635 118.399105,66.63954 118.28234,66.84766 C118.165575,67.053965 118.107495,67.26995 118.107495,67.496825 C118.107495,67.72128 118.164365,67.936055 118.278105,68.140545 C118.391845,68.343825 118.550355,68.50415 118.75545,68.61789 C118.959335,68.73163 119.172295,68.78971 119.39675,68.78971 C119.62181,68.78971 119.83598,68.73163 120.03926,68.61789 C120.24254,68.50415 120.40105,68.343825 120.516,68.140545 C120.63095,67.93545 120.68782,67.72128 120.68782,67.496825 C120.68782,67.26995 120.629135,67.053965 120.512975,66.84766 C120.39621,66.63954 120.23649,66.481635 120.032605,66.371525 C119.82872,66.26081 119.61697,66.205755 119.39675,66.205755 L119.39675,66.205755 Z M118.668935,68.35532 L118.668935,66.65164 L119.01439,66.65164 C119.338065,66.65164 119.52017,66.653455 119.55889,66.65648 C119.67384,66.66737 119.762775,66.68915 119.825695,66.72424 C119.88922,66.76054 119.94246,66.814385 119.985415,66.888195 C120.02837,66.962005 120.049545,67.043075 120.049545,67.132615 C120.049545,67.25543 120.00901,67.3607 119.928545,67.44782 C119.848685,67.535545 119.73555,67.58939 119.589745,67.610565 C119.641775,67.629925 119.6811,67.65231 119.709535,67.67409 C119.737365,67.697685 119.77548,67.74064 119.824485,67.805375 C119.83719,67.822315 119.87954,67.89189 119.950325,68.013495 L120.151185,68.355925 L119.72345,68.355925 L119.581275,68.08065 C119.48508,67.89431 119.405825,67.777545 119.3423,67.729145 C119.278775,67.680745 119.200125,67.656545 119.103325,67.656545 L119.01318,67.656545 L119.01318,68.355925 L118.668935,68.355925 L118.668935,68.35532 Z M119.014995,67.387925 L119.155355,67.387925 C119.355005,67.387925 119.478425,67.38006 119.526825,67.36554 C119.575225,67.34981 119.613945,67.322585 119.640565,67.283865 C119.669,67.246355 119.682915,67.20219 119.682915,67.153185 C119.682915,67.105995 119.669,67.063645 119.64238,67.026135 C119.61455,66.98923 119.576435,66.96261 119.52622,66.94688 C119.476005,66.93115 119.35198,66.92268 119.155355,66.92268 L119.014995,66.92268 L119.014995,67.387925 L119.014995,67.387925 Z" id="Shape" fill="#003E7E"></path>
                        </g>
                    </g>
                </g>
            </g>
        </g>
    </g>
</svg>