<?xml version="1.0" encoding="UTF-8"?>
<svg width="122px" height="119px" viewBox="0 0 122 119" version="1.1" xmlns="http://www.w3.org/2000/svg" xmlns:xlink="http://www.w3.org/1999/xlink">
    <!-- Generator: Sketch 40.2 (33826) - http://www.bohemiancoding.com/sketch -->
    <title>100k_kabbage</title>
    <desc>Created with Sketch.</desc>
    <defs></defs>
    <g id="Page-1" stroke="none" stroke-width="1" fill="none" fill-rule="evenodd">
        <g id="Our-partners" transform="translate(-531.000000, -3342.000000)">
            <g id="Content" transform="translate(376.000000, 150.000000)">
                <g id="Support-of-$100k+" transform="translate(1.000000, 2965.000000)">
                    <g id="100k_kabbage" transform="translate(154.000000, 227.000000)">
                        <rect id="Rectangle-2" fill="#FFFFFF" x="0" y="0" width="121.875269" height="119"></rect>
                        <g id="Layer_1" transform="translate(1.000000, 22.000000)">
                            <g id="SVGID_1_-link" transform="translate(0.000000, 42.955000)" fill="#A9CF38">
                                <polyline id="SVGID_1_" points="12.92764 24.31495 6.580585 14.099525 4.04624 17.748885 4.04624 24.31495 0 24.31495 0 0.332145 4.04624 0.332145 4.04624 11.80597 11.789635 0.332145 16.39429 0.332145 9.2565 10.81135 17.760985 24.31495 12.92764 24.31495"></polyline>
                            </g>
                            <g id="SVGID_3_-link" transform="translate(17.545000, 49.005000)" fill="#A9CF38">
                                <path d="M10.51611,16.514685 C10.15916,17.12513 9.54811,17.624255 8.672675,18.01206 C7.794215,18.39926 6.87885,18.5977 5.927185,18.5977 C4.13336,18.5977 2.7225,18.121565 1.694,17.17595 C0.66792,16.23336 0.1573,14.89389 0.1573,13.15754 C0.1573,11.128975 0.882695,9.54085 2.32562,8.393165 C3.77036,7.249715 5.82615,6.676175 8.49178,6.676175 C8.948555,6.676175 9.48882,6.756035 10.10834,6.91999 C10.10834,4.856335 8.87172,3.82723 6.394245,3.82723 C4.93196,3.82723 3.70502,4.081935 2.72129,4.594975 L1.88034,1.41933 C3.21981,0.741125 4.80975,0.40293 6.65621,0.40293 C9.19721,0.40293 11.058795,1.01398 12.242175,2.230635 C13.421925,3.446685 14.01422,5.75113 14.01422,9.14639 L14.01422,12.89618 C14.01422,15.228455 14.458895,16.699815 15.35248,17.299975 C15.0282,17.886825 14.67125,18.251035 14.27679,18.38837 C13.88354,18.525705 13.43221,18.597095 12.9228,18.597095 C12.361965,18.597095 11.86042,18.373245 11.416955,17.93825 C10.969255,17.503255 10.670385,17.02954 10.51611,16.514685 L10.51611,16.514685 Z M10.139195,10.01638 C9.477325,9.871785 8.9782,9.79979 8.647265,9.79979 C5.58052,9.79979 4.04503,10.85975 4.04503,12.977855 C4.04503,14.54783 4.91018,15.334935 6.641085,15.334935 C8.976385,15.334935 10.1398,14.10981 10.1398,11.65351 L10.1398,10.01638 L10.139195,10.01638 Z" id="SVGID_3_"></path>
                            </g>
                            <g id="SVGID_5_-link" transform="translate(34.485000, 41.745000)" fill="#A9CF38">
                                <path d="M3.387395,24.56058 L2.51559,25.8577 L0.324885,25.8577 L0.324885,1.458655 L4.21322,0.48037 L4.21322,8.662995 C5.24898,7.99689 6.378515,7.66293 7.60364,7.66293 C10.038765,7.66293 12.00441,8.47363 13.49634,10.095635 C14.990085,11.71643 15.737865,13.793395 15.737865,16.3229 C15.737865,19.260175 14.98706,21.58156 13.480005,23.29008 C11.978395,25.00102 9.943175,25.85649 7.37132,25.85649 C5.825545,25.857095 4.498175,25.419075 3.387395,24.56058 L3.387395,24.56058 Z M4.21322,12.167155 L4.21322,21.31899 C4.782525,22.02563 5.556925,22.38137 6.528555,22.38137 C8.407685,22.38137 9.735055,21.9131 10.520345,20.97414 C11.297165,20.034575 11.694045,18.53357 11.694045,16.473545 C11.694045,12.91554 10.076275,11.135025 6.840735,11.135025 C5.68942,11.135025 4.815195,11.48048 4.21322,12.167155 L4.21322,12.167155 Z" id="SVGID_5_"></path>
                            </g>
                            <g id="SVGID_7_-link" transform="translate(52.635000, 41.745000)" fill="#A9CF38">
                                <path d="M3.126035,24.56058 L2.25302,25.8577 L0.06171,25.8577 L0.06171,1.458655 L3.951255,0.48037 L3.951255,8.662995 C4.988225,7.99689 6.115945,7.66293 7.338045,7.66293 C9.774985,7.66293 11.74063,8.47363 13.23498,10.095635 C14.727515,11.71643 15.471665,13.793395 15.471665,16.3229 C15.471665,19.260175 14.722675,21.58156 13.21925,23.29008 C11.717035,25.00102 9.67758,25.85649 7.105725,25.85649 C5.562975,25.857095 4.235605,25.419075 3.126035,24.56058 L3.126035,24.56058 Z M3.951255,12.167155 L3.951255,21.31899 C4.519955,22.02563 5.291935,22.38137 6.26659,22.38137 C8.1433,22.38137 9.472485,21.9131 10.255355,20.97414 C11.04125,20.034575 11.42966,18.53357 11.42966,16.473545 C11.42966,12.91554 9.814915,11.135025 6.579375,11.135025 C5.42564,11.135025 4.550205,11.48048 3.951255,12.167155 L3.951255,12.167155 Z" id="SVGID_7_"></path>
                            </g>
                            <g id="SVGID_9_-link" transform="translate(69.575000, 49.005000)" fill="#A9CF38">
                                <path d="M10.590525,16.514685 C10.233575,17.12513 9.62192,17.624255 8.74588,18.01206 C7.87226,18.39926 6.952055,18.5977 6.000995,18.5977 C4.20475,18.5977 2.795705,18.121565 1.76902,17.17595 C0.74294,16.23336 0.2299,14.89389 0.2299,13.15754 C0.2299,11.128975 0.955295,9.54085 2.400035,8.393165 C3.844775,7.249715 5.902985,6.676175 8.566195,6.676175 C9.024785,6.676175 9.559605,6.756035 10.185175,6.91999 C10.185175,4.856335 8.947345,3.82723 6.46624,3.82723 C5.002745,3.82723 3.78488,4.081935 2.79631,4.594975 L1.95536,1.41933 C3.29604,0.741125 4.88477,0.40293 6.73123,0.40293 C9.27223,0.40293 11.136235,1.01398 12.314775,2.230635 C13.49997,3.446685 14.08924,5.75113 14.08924,9.14639 L14.08924,12.89618 C14.08924,15.228455 14.536335,16.699815 15.428105,17.299975 C15.101405,17.886825 14.74506,18.251035 14.352415,18.38837 C13.96098,18.525705 13.51086,18.597095 12.998425,18.597095 C12.44001,18.597095 11.936045,18.373245 11.491975,17.93825 C11.04609,17.503255 10.744195,17.02954 10.590525,16.514685 L10.590525,16.514685 Z M10.21361,10.01638 C9.551135,9.871785 9.057455,9.79979 8.72168,9.79979 C5.653725,9.79979 4.11884,10.85975 4.11884,12.977855 C4.11884,14.54783 4.9852,15.334935 6.7155,15.334935 C9.046565,15.334935 10.21361,14.10981 10.21361,11.65351 L10.21361,10.01638 L10.21361,10.01638 Z" id="SVGID_9_"></path>
                            </g>
                            <g id="SVGID_11_-link" transform="translate(85.305000, 47.795000)" fill="#A9CF38">
                                <path d="M0.675785,23.979175 L3.132085,20.78538 C4.49515,22.096415 6.004625,22.74921 7.67503,22.74921 C8.794885,22.74921 9.716905,22.57618 10.43988,22.227095 C11.167695,21.876195 11.530695,21.397035 11.530695,20.78538 C11.530695,19.74599 10.727255,19.229925 9.121585,19.229925 C8.6878,19.229925 8.037425,19.28498 7.17409,19.39509 C6.31499,19.5052 5.667035,19.559045 5.23325,19.559045 C2.557335,19.559045 1.217865,18.548695 1.217865,16.530415 C1.217865,15.952035 1.44111,15.38394 1.8876,14.82734 C2.33409,14.27195 2.851365,13.86418 3.44366,13.598585 C1.546985,12.30207 0.597135,10.46166 0.597135,8.08401 C0.597135,6.204275 1.249325,4.653055 2.55673,3.426115 C3.86353,2.196755 5.471015,1.58147 7.377975,1.58147 C8.869905,1.58147 10.12165,1.878525 11.12474,2.46719 L12.65176,0.60137 L15.340985,3.172015 L13.49029,4.596185 C14.1328,5.622265 14.454055,6.834685 14.454055,8.231025 C14.454055,10.22692 13.87507,11.822305 12.72194,13.01718 C11.566995,14.213265 10.104105,14.811005 8.342345,14.811005 C8.060415,14.811005 7.687735,14.78257 7.225515,14.72812 L6.58119,14.63132 C6.511615,14.63132 6.235735,14.74748 5.75476,14.982825 C5.271365,15.21696 5.02876,15.459565 5.02876,15.712455 C5.02876,16.14745 5.38813,16.365855 6.103845,16.365855 C6.423285,16.365855 6.96355,16.28176 7.716775,16.119015 C8.47968,15.958085 9.12461,15.8752 9.663665,15.8752 C13.45036,15.8752 15.34159,17.474215 15.34159,20.673455 C15.34159,22.442475 14.58171,23.826715 13.07163,24.840695 C11.55671,25.848625 9.731425,26.351985 7.59517,26.351985 C5.046305,26.350775 2.737625,25.56004 0.675785,23.979175 L0.675785,23.979175 Z M4.56533,8.09853 C4.56533,9.13308 4.83637,9.967375 5.38208,10.59355 C5.92295,11.223355 6.65984,11.535535 7.580045,11.535535 C8.502065,11.535535 9.211125,11.2288 9.71267,10.61775 C10.20998,10.0067 10.459845,9.16817 10.459845,8.09853 C10.459845,7.214625 10.192435,6.46503 9.658825,5.85519 C9.124005,5.24293 8.4337,4.937405 7.57944,4.937405 C6.689485,4.937405 5.963485,5.232645 5.403255,5.82252 C4.841815,6.41179 4.56533,7.17167 4.56533,8.09853 L4.56533,8.09853 Z" id="SVGID_11_"></path>
                            </g>
                            <g id="SVGID_13_-link" transform="translate(101.035000, 49.005000)" fill="#A9CF38">
                                <path d="M16.411835,10.750245 L4.51088,10.750245 C4.58469,12.149005 5.042675,13.235585 5.87818,14.00938 C6.718525,14.78499 7.849875,15.17219 9.270415,15.17219 C11.04488,15.17219 12.39161,14.68819 13.316655,13.71414 L14.820685,16.840175 C13.452175,18.00964 11.414535,18.597095 8.69627,18.597095 C6.15527,18.597095 4.146065,17.811805 2.669865,16.246065 C1.19185,14.676695 0.454355,12.493855 0.454355,9.686655 C0.454355,6.926645 1.263845,4.68875 2.888875,2.973575 C4.51088,1.262635 6.458375,0.40293 8.724705,0.40293 C11.143495,0.40293 13.083125,1.163415 14.54299,2.67773 C16.004065,4.196885 16.73672,6.128045 16.73672,8.47363 C16.73672,8.975175 16.628425,9.736265 16.411835,10.750245 L16.411835,10.750245 Z M4.648215,7.67382 L12.83326,7.67382 C12.562825,5.10862 11.21428,3.82723 8.787625,3.82723 C6.56667,3.82723 5.193925,5.10862 4.648215,7.67382 L4.648215,7.67382 Z" id="SVGID_13_"></path>
                            </g>
                            <g id="SVGID_15_-link" transform="translate(53.845000, 0.000000)" fill="#A9CF38">
                                <path d="M3.84054,26.301165 C3.84054,26.301165 -2.500465,17.260045 2.50833,8.31028 C7.514705,-0.635855 17.84992,-0.59048 21.25607,0.497915 C24.66706,1.58752 23.32759,7.41246 23.314885,8.86446 C23.303995,10.31283 23.468555,10.693375 23.468555,10.693375 C23.468555,10.693375 23.833975,11.639595 24.71909,11.514965 C25.606625,11.3861 26.43003,11.16467 26.43003,11.16467 C26.43003,11.16467 26.50384,17.16264 22.47938,21.394615 C18.453105,25.62901 15.72032,23.503645 12.153845,26.56555 C8.58495,29.629875 5.54906,33.461945 6.65984,27.70537 C10.21482,9.284935 20.02066,2.46477 16.79601,4.719 C7.233985,11.40667 3.84054,26.301165 3.84054,26.301165" id="SVGID_15_"></path>
                            </g>
                            <g id="SVGID_17_-link" transform="translate(37.510000, 3.025000)" fill="#00A8E1">
                                <path d="M11.600875,11.86647 C9.739895,6.35734 5.744475,2.946955 5.73782,3.037705 C5.70273,2.949375 10.38059,5.463755 13.42253,11.021285 C13.683285,11.458095 13.92105,11.91487 14.14974,12.37588 C14.2901,10.127095 14.913855,7.54798 16.386425,4.72626 C9.57594,-1.31164 1.901515,0.238975 1.901515,0.238975 C1.901515,0.238975 3.146,1.733325 2.73097,3.641495 C2.315335,5.549665 -2.66684,11.447205 2.315335,17.42763 C5.73782,21.536185 10.296495,25.17284 12.816925,27.04471 C13.280355,23.31791 13.5762,17.02591 11.600875,11.86647" id="SVGID_17_"></path>
                            </g>
                            <g id="SVGID_19_-link" transform="translate(49.005000, 0.605000)" fill="#A9CF38">
                                <path d="M6.29079,5.27923 C6.29079,5.27923 3.49932,3.13269 0.212355,2.481105 C2.67652,1.006115 7.1148,0.019965 8.264905,0.349085 C8.10095,1.33342 8.398005,1.86461 9.943175,2.370995 C8.428255,3.30572 6.29079,5.27923 6.29079,5.27923" id="SVGID_19_"></path>
                            </g>
                            <g id="SVGID_21_-link" transform="translate(37.510000, 19.965000)" fill="#A9CF38">
                                <path d="M12.816925,11.85195 C12.816925,11.85195 2.346795,5.47041 0.11616,0.53966 C1.298935,4.7432 1.083555,9.46099 12.816925,11.85195" id="SVGID_21_"></path>
                            </g>
                            <g id="SVGID_23_-link" transform="translate(64.130000, 26.015000)" fill="#A9CF38">
                                <path d="M0.535425,4.665155 C0.535425,4.665155 3.65662,1.392105 4.970075,1.23178 C6.285345,1.065405 9.899615,0.148225 9.899615,0.148225 C9.899615,0.148225 7.926105,4.322725 0.535425,4.665155" id="SVGID_23_"></path>
                            </g>
                            <path d="M119.299345,51.183605 C118.364015,51.183605 117.60353,50.42191 117.60353,49.48537 C117.60353,48.550645 118.364015,47.79016 119.299345,47.79016 C120.237095,47.79016 121,48.550645 121,49.48537 C121,50.42191 120.237095,51.183605 119.299345,51.183605 L119.299345,51.183605 Z M119.299345,48.112625 C118.541885,48.112625 117.925995,48.728515 117.925995,49.48537 C117.925995,50.24404 118.541885,50.86114 119.299345,50.86114 C120.059225,50.86114 120.67693,50.24404 120.67693,49.48537 C120.677535,48.72791 120.059225,48.112625 119.299345,48.112625 L119.299345,48.112625 Z" id="Shape" fill="#8DC63F"></path>
                            <path d="M118.86798,48.70492 C118.964175,48.68677 119.10151,48.67225 119.226745,48.67225 C119.43063,48.67225 119.55768,48.711575 119.6448,48.792645 C119.71619,48.85738 119.75854,48.9566 119.75854,49.069735 C119.75854,49.258495 119.638145,49.386755 119.489315,49.43576 L119.489315,49.442415 C119.599425,49.48174 119.66658,49.5858 119.698645,49.73342 C119.74886,49.93549 119.780925,50.077665 119.812385,50.13151 L119.616365,50.13151 C119.595795,50.08795 119.56373,49.967555 119.524405,49.786055 C119.483265,49.58943 119.402195,49.513805 119.22856,49.506545 L119.056135,49.506545 L119.056135,50.132115 L118.86798,50.132115 L118.86798,48.70492 L118.86798,48.70492 Z M119.05553,49.36437 L119.2455,49.36437 C119.444545,49.36437 119.57462,49.253655 119.57462,49.08728 C119.57462,48.902755 119.436075,48.82229 119.240055,48.82229 C119.146885,48.82229 119.087595,48.824105 119.054925,48.8356 L119.054925,49.36437 L119.05553,49.36437 Z" id="Shape" fill="#8DC63F"></path>
                        </g>
                    </g>
                </g>
            </g>
        </g>
    </g>
</svg>