<?xml version="1.0" encoding="UTF-8"?>
<svg width="122px" height="119px" viewBox="0 0 122 119" version="1.1" xmlns="http://www.w3.org/2000/svg" xmlns:xlink="http://www.w3.org/1999/xlink">
    <!-- Generator: Sketch 40.2 (33826) - http://www.bohemiancoding.com/sketch -->
    <title>50k_chegg</title>
    <desc>Created with Sketch.</desc>
    <defs></defs>
    <g id="Page-1" stroke="none" stroke-width="1" fill="none" fill-rule="evenodd">
        <g id="Our-partners" transform="translate(-684.000000, -3183.000000)">
            <g id="Content" transform="translate(376.000000, 150.000000)">
                <g id="Support-of-$100k+" transform="translate(1.000000, 2965.000000)">
                    <g id="50k_chegg" transform="translate(307.000000, 68.000000)">
                        <rect id="Rectangle-2" fill="#FFFFFF" x="0" y="0" width="121.875269" height="119"></rect>
                        <g id="Layer_1" transform="translate(1.000000, 54.000000)" fill="#EE7E22">
                            <g id="Group" transform="translate(50.215000, 0.000000)">
                                <path d="M0.17908,0.631015 C0.17908,0.395065 0.297055,0.261965 0.533005,0.261965 L5.268945,0.261965 C5.504895,0.261965 5.637995,0.395065 5.637995,0.631015 L5.637995,0.807675 C5.637995,1.043625 5.504895,1.17612 5.268945,1.17612 L1.197295,1.17612 L1.197295,5.07111 L4.649425,5.07111 C4.885375,5.07111 5.00335,5.189085 5.00335,5.425035 L5.00335,5.61682 C5.00335,5.85277 4.885375,5.98587 4.649425,5.98587 L1.197295,5.98587 L1.197295,10.26443 C1.197295,10.50038 1.064195,10.632875 0.84337,10.632875 L0.53361,10.632875 C0.29766,10.632875 0.179685,10.50038 0.179685,10.26443 L0.179685,0.631015" id="Shape"></path>
                                <path d="M9.761675,3.03589 C11.9306,3.03589 13.685705,4.68875 13.685705,6.886715 C13.685705,9.128845 11.9306,10.810745 9.776195,10.810745 C7.60727,10.810745 5.85156,9.128845 5.85156,6.886715 C5.85156,4.68875 7.60727,3.03589 9.761675,3.03589 L9.761675,3.03589 Z M9.776195,9.91111 C11.35464,9.91111 12.65297,8.61278 12.65297,6.886715 C12.65297,5.204815 11.35464,3.93613 9.776195,3.93613 C8.182625,3.93613 6.884295,5.204815 6.884295,6.886715 C6.884295,8.61278 8.182625,9.91111 9.776195,9.91111 L9.776195,9.91111 Z" id="Shape"></path>
                                <path d="M15.01731,3.5816 C15.01731,3.34565 15.135285,3.213155 15.371235,3.213155 L15.651955,3.213155 C15.88851,3.213155 16.0204,3.34565 16.0204,3.5816 L16.0204,7.668375 C16.0204,8.83421 16.197665,9.86634 17.62849,9.86634 C19.325515,9.86634 20.37277,8.376225 20.37277,6.768135 L20.37277,3.5816 C20.37277,3.34565 20.50587,3.213155 20.741215,3.213155 L21.02133,3.213155 C21.257885,3.213155 21.37586,3.34565 21.37586,3.5816 L21.37586,10.265035 C21.37586,10.500985 21.257885,10.63348 21.02133,10.63348 L20.75634,10.63348 C20.519785,10.63348 20.402415,10.500985 20.402415,10.265035 L20.402415,9.40896 C20.402415,9.11372 20.44658,8.878375 20.44658,8.878375 L20.416935,8.878375 C20.136215,9.60135 19.133125,10.810745 17.495995,10.810745 C15.740285,10.810745 15.016705,9.86634 15.016705,7.93397 L15.016705,3.5816" id="Shape"></path>
                                <path d="M23.32759,3.5816 C23.32759,3.34565 23.46069,3.213155 23.69664,3.213155 L23.96163,3.213155 C24.18306,3.213155 24.31616,3.34565 24.31616,3.5816 L24.31616,4.437675 C24.31616,4.732915 24.256265,4.968865 24.256265,4.968865 L24.286515,4.968865 C24.56663,4.290055 25.540075,3.03589 27.281265,3.03589 C29.12591,3.03589 29.77447,4.08375 29.77447,5.912665 L29.77447,10.265035 C29.77447,10.500985 29.64137,10.63348 29.406025,10.63348 L29.12591,10.63348 C28.889355,10.63348 28.77138,10.500985 28.77138,10.265035 L28.77138,6.17826 C28.77138,5.012425 28.579595,3.97969 27.148165,3.97969 C25.56972,3.97969 24.330075,5.27802 24.330075,7.004085 L24.330075,10.265035 C24.330075,10.500985 24.212705,10.63348 23.97615,10.63348 L23.696035,10.63348 C23.45948,10.63348 23.326985,10.500985 23.326985,10.265035 L23.326985,3.5816" id="Shape"></path>
                                <path d="M34.471085,3.03589 C36.271565,3.03589 36.905,4.526005 36.905,4.526005 L36.934645,4.526005 C36.934645,4.526005 36.89048,4.27493 36.89048,3.96517 L36.89048,0.631015 C36.89048,0.395065 37.02358,0.261965 37.25953,0.261965 L37.539645,0.261965 C37.7762,0.261965 37.89357,0.395065 37.89357,0.631015 L37.89357,10.265035 C37.89357,10.500985 37.7762,10.63348 37.539645,10.63348 L37.289175,10.63348 C37.05262,10.63348 36.920125,10.515505 36.920125,10.279555 L36.920125,9.71872 C36.920125,9.45373 36.979415,9.261945 36.979415,9.261945 L36.94977,9.261945 C36.94977,9.261945 36.31573,10.810745 34.36763,10.810745 C32.37597,10.810745 31.136325,9.217175 31.136325,6.915755 C31.136325,4.570775 32.52359,3.03589 34.471085,3.03589 L34.471085,3.03589 Z M34.51525,9.91111 C35.754895,9.91111 36.920125,9.025995 36.920125,6.915755 C36.920125,5.41112 36.152985,3.95065 34.56002,3.95065 C33.246565,3.95065 32.17027,5.042675 32.17027,6.915755 C32.169665,8.74588 33.127985,9.91111 34.51525,9.91111 L34.51525,9.91111 Z" id="Shape"></path>
                                <path d="M44.076065,6.08993 L44.5038,6.08993 L44.5038,5.85398 C44.5038,4.423155 43.72214,3.93613 42.67428,3.93613 C41.848455,3.93613 41.21381,4.24589 40.874405,4.4528 C40.6681,4.556255 40.50596,4.52661 40.37286,4.334825 L40.28453,4.187205 C40.16716,3.99542 40.1962,3.803635 40.387985,3.68566 C40.771555,3.44971 41.597985,3.036495 42.748695,3.036495 C44.518925,3.036495 45.507495,4.025065 45.507495,5.88423 L45.507495,10.266245 C45.507495,10.502195 45.390125,10.63469 45.15357,10.63469 L44.917015,10.63469 C44.681065,10.63469 44.54857,10.516715 44.54857,10.266245 L44.54857,9.675765 C44.54857,9.33636 44.592735,9.11493 44.592735,9.11493 L44.56309,9.11493 C44.57761,9.11493 43.899405,10.811955 42.05476,10.811955 C40.800595,10.811955 39.54643,10.07446 39.54643,8.64303 C39.54643,6.22303 42.644635,6.08993 44.076065,6.08993 L44.076065,6.08993 Z M42.232025,9.9704 C43.66285,9.9704 44.5038,8.494805 44.5038,7.196475 L44.5038,6.84255 L44.090585,6.84255 C42.92475,6.84255 40.579165,6.886715 40.579165,8.554095 C40.579165,9.247425 41.12548,9.9704 42.232025,9.9704 L42.232025,9.9704 Z" id="Shape"></path>
                                <path d="M47.54695,4.113395 L46.92743,4.113395 C46.69148,4.113395 46.573505,3.99542 46.573505,3.75947 L46.573505,3.64089 C46.573505,3.40494 46.69148,3.272445 46.92743,3.272445 L47.562075,3.272445 L47.562075,1.531255 C47.562075,1.295305 47.695175,1.162205 47.93052,1.162205 L48.196115,1.162205 C48.432065,1.162205 48.55004,1.295305 48.55004,1.531255 L48.55004,3.27184 L50.054675,3.27184 C50.29123,3.27184 50.42312,3.404335 50.42312,3.640285 L50.42312,3.75826 C50.42312,3.99421 50.290625,4.112185 50.054675,4.112185 L48.55004,4.112185 L48.55004,7.82991 C48.55004,9.541455 49.597295,9.74776 50.173255,9.777405 C50.46789,9.80705 50.571345,9.89538 50.571345,10.146455 L50.571345,10.33824 C50.571345,10.57419 50.453975,10.692165 50.15813,10.692165 C48.534915,10.692165 47.54695,9.703595 47.54695,7.96301 L47.54695,4.113395" id="Shape"></path>
                                <path d="M52.279865,1.162205 L52.279865,0.631015 C52.279865,0.395065 52.397235,0.261965 52.63379,0.261965 L53.002235,0.261965 C53.23879,0.261965 53.35616,0.395065 53.35616,0.631015 L53.35616,1.162205 C53.35616,1.398155 53.23879,1.51613 53.002235,1.51613 L52.63379,1.51613 C52.397235,1.516735 52.279865,1.39876 52.279865,1.162205 L52.279865,1.162205 Z M52.30951,3.5816 C52.30951,3.34565 52.442005,3.213155 52.677955,3.213155 L52.95807,3.213155 C53.194625,3.213155 53.3126,3.34565 53.3126,3.5816 L53.3126,10.265035 C53.3126,10.500985 53.194625,10.63348 52.95807,10.63348 L52.677955,10.63348 C52.4414,10.63348 52.30951,10.500985 52.30951,10.265035 L52.30951,3.5816 L52.30951,3.5816 Z" id="Shape"></path>
                                <path d="M58.99234,3.03589 C61.16187,3.03589 62.916975,4.68875 62.916975,6.886715 C62.916975,9.128845 61.16187,10.810745 59.007465,10.810745 C56.83854,10.810745 55.08283,9.128845 55.08283,6.886715 C55.08283,4.68875 56.83854,3.03589 58.99234,3.03589 L58.99234,3.03589 Z M59.007465,9.91111 C60.58591,9.91111 61.88424,8.61278 61.88424,6.886715 C61.88424,5.204815 60.58591,3.93613 59.007465,3.93613 C57.413895,3.93613 56.115565,5.204815 56.115565,6.886715 C56.115565,8.61278 57.413895,9.91111 59.007465,9.91111 L59.007465,9.91111 Z" id="Shape"></path>
                                <path d="M64.33812,3.5816 C64.33812,3.34565 64.470615,3.213155 64.706565,3.213155 L64.971555,3.213155 C65.192985,3.213155 65.32548,3.34565 65.32548,3.5816 L65.32548,4.437675 C65.32548,4.732915 65.266795,4.968865 65.266795,4.968865 L65.29644,4.968865 C65.576555,4.290055 66.55,3.03589 68.29119,3.03589 C70.13523,3.03589 70.784395,4.08375 70.784395,5.912665 L70.784395,10.265035 C70.784395,10.500985 70.651295,10.63348 70.41595,10.63348 L70.13523,10.63348 C69.89928,10.63348 69.781305,10.500985 69.781305,10.265035 L69.781305,6.17826 C69.781305,5.012425 69.58952,3.97969 68.15809,3.97969 C66.579645,3.97969 65.34,5.27802 65.34,7.004085 L65.34,10.265035 C65.34,10.500985 65.22263,10.63348 64.986075,10.63348 L64.70596,10.63348 C64.469405,10.63348 64.337515,10.500985 64.337515,10.265035 L64.337515,3.5816" id="Shape"></path>
                            </g>
                            <g id="Group">
                                <path d="M44.76879,2.418185 L44.900075,2.418185 C45.05314,2.418185 45.179585,2.36797 45.179585,2.23729 C45.179585,2.124155 45.098515,2.051555 44.92246,2.047925 C44.84986,2.047925 44.80025,2.057 44.76879,2.061235 L44.76879,2.418185 L44.76879,2.418185 Z M44.75548,3.110305 L44.475365,3.105465 L44.48444,1.871265 C44.592735,1.857955 44.75064,1.8392 44.95029,1.8392 C45.175955,1.8392 45.280015,1.879735 45.36169,1.939025 C45.43429,1.99287 45.4839,2.08362 45.4839,2.20583 C45.4839,2.35466 45.370765,2.449645 45.23101,2.49502 L45.23101,2.51317 C45.34838,2.54947 45.407065,2.649295 45.43913,2.81204 C45.47543,3.001405 45.506285,3.06977 45.529275,3.11454 L45.2298,3.110305 C45.1935,3.06977 45.17535,2.96087 45.13905,2.81204 C45.116665,2.685595 45.044065,2.62207 44.890395,2.62207 L44.75911,2.61723 L44.75548,3.110305 L44.75548,3.110305 Z M44.013145,2.46356 C44.00891,3.01048 44.411235,3.453945 44.949685,3.453945 C45.47422,3.467255 45.871705,3.02863 45.876545,2.485945 C45.88078,1.939025 45.488135,1.491325 44.949685,1.486485 C44.429385,1.48225 44.017985,1.920875 44.013145,2.46356 L44.013145,2.46356 Z M46.18328,2.48171 C46.17965,3.173225 45.632125,3.716515 44.940005,3.711675 C44.24849,3.70744 43.70157,3.151445 43.705805,2.459325 C43.71004,1.76781 44.26664,1.2342 44.96723,1.238435 C45.650275,1.24267 46.19296,1.78959 46.18328,2.48171 L46.18328,2.48171 Z" id="Shape"></path>
                                <path d="M7.495345,10.386035 C5.66401,11.109615 3.127245,11.01463 1.6214,9.621315 C0.03872,8.10216 -0.30008,5.74145 0.237765,3.607615 C0.52272,2.39096 1.440505,1.17491 2.56641,0.57354 C4.054105,-0.190575 6.16132,-0.190575 7.63994,0.57354 C8.34537,0.850025 9.091335,1.667985 9.416825,2.39096 C9.616475,2.77574 9.77438,3.32266 9.562025,3.756445 C8.89713,4.27614 7.929735,4.208985 7.19708,3.951255 C6.46503,3.2549 5.691235,2.13323 4.51572,2.626305 C3.65178,3.074005 3.21739,4.114 3.21739,5.11346 C3.20408,6.26175 3.2307,7.50079 4.30276,8.116075 C4.85452,8.40587 5.74508,8.40587 6.201855,7.939415 C6.631405,7.54677 6.893975,6.80504 7.495345,6.710055 C8.25462,6.75059 9.416825,6.34403 9.733845,7.243665 C9.666085,8.58132 8.648475,9.824595 7.495345,10.386035" id="Shape"></path>
                                <path d="M17.397985,10.344895 C16.819,10.45319 16.28539,10.425965 15.74694,10.277135 C15.172795,9.811285 15.276855,9.047775 15.263545,8.337505 C15.1734,7.22975 15.58964,5.7959 14.51758,5.208445 C14.178175,5.05901 13.839375,5.208445 13.563495,5.37119 L13.120635,6.203065 C12.94821,7.48748 13.19747,8.95279 12.78123,10.11439 C12.152635,10.467105 11.3256,10.52095 10.68793,10.2366 C10.059335,9.730215 10.348525,8.762215 10.217845,8.02109 C10.28137,5.54785 10.100475,2.992935 10.3576,0.600765 C10.8416,-0.136125 12.188935,-0.081675 12.790305,0.465245 C13.274305,1.256585 12.636635,2.77574 13.735315,3.074005 C14.883605,2.667445 16.37614,2.472635 17.31631,3.51263 C18.51058,5.086235 17.97213,7.44634 18.048965,9.472485 C18.012665,9.83851 17.7507,10.235995 17.397985,10.344895" id="Shape"></path>
                                <path d="M21.933065,4.959185 C21.82961,5.167305 21.815695,5.547245 22.1188,5.641625 C22.507815,5.94473 23.072885,5.781985 23.39898,5.519415 C23.556885,5.33005 23.4256,5.086235 23.37115,4.91865 C23.072885,4.53871 22.25916,4.53871 21.933065,4.959185 L21.933065,4.959185 Z M22.1551,7.39189 C21.82961,7.50079 21.65779,7.91219 21.82961,8.241915 C22.13211,8.70353 22.70686,8.84389 23.20417,8.662995 C23.999745,8.32359 24.89091,7.6956 25.803855,8.18807 C26.147495,8.37804 26.18319,8.803355 26.038595,9.10162 C24.939915,10.72907 22.76978,10.797435 21.03343,10.37212 C19.82585,10.073855 18.871765,8.816665 18.637025,7.57339 C18.428905,5.986475 18.808845,4.458245 20.074505,3.513235 C21.77516,2.242735 24.601115,2.459325 25.988985,4.291265 C26.45907,5.08684 26.94307,6.095375 26.50021,7.08092 C25.24302,8.160845 23.647635,6.971415 22.1551,7.39189 L22.1551,7.39189 Z" id="Shape"></path>
                                <path d="M31.823,5.26229 C31.478755,4.8642 30.841085,4.904735 30.47506,5.20784 C30.17256,5.53333 29.97775,5.904195 30.018285,6.370045 C29.963835,6.930275 30.21249,7.336835 30.524065,7.69439 C30.86831,7.870445 31.234335,7.95212 31.57374,7.76215 C32.00329,7.500185 32.22472,6.97081 32.26586,6.464425 C32.225325,6.013095 32.134575,5.58778 31.823,5.26229 L31.823,5.26229 Z M34.883695,10.66131 C34.7391,11.45265 34.20065,12.24399 33.454685,12.60094 C31.872005,13.094015 29.75632,13.283985 28.34062,12.149005 C28.250475,12.05402 28.159725,11.972345 28.055665,11.87736 C27.88324,11.60148 27.987905,11.357665 28.055665,11.095095 C28.919,10.66131 30.135655,10.67462 30.91792,11.248765 C31.37409,11.357665 31.85809,11.12232 32.057135,10.66131 C32.224115,10.31767 31.97546,9.933495 31.663885,9.879045 C30.786635,9.99218 29.769025,10.425965 28.96861,9.839115 C28.561445,9.62192 28.222645,9.305505 27.951,8.9661 C27.453085,8.35142 27.19112,7.5867 27.17781,6.777815 C27.109445,5.4934 27.385325,4.317885 28.27649,3.472095 C29.321325,2.37765 31.112125,2.789655 32.3191,3.214365 C33.02453,2.992935 34.00584,2.70798 34.71127,3.20045 L35.00046,3.756445 C35.105125,6.04032 35.078505,8.445195 34.883695,10.66131 L34.883695,10.66131 Z" id="Shape"></path>
                                <path d="M40.19257,5.26229 C39.853165,4.8642 39.21126,4.904735 38.845235,5.20784 C38.542735,5.53333 38.347925,5.904195 38.38846,6.370045 C38.334615,6.930275 38.582665,7.336835 38.894845,7.69439 C39.238485,7.870445 39.60451,7.95212 39.94331,7.76215 C40.37286,7.500185 40.594895,6.97081 40.63543,6.464425 C40.594895,6.013095 40.50475,5.58778 40.19257,5.26229 L40.19257,5.26229 Z M43.25387,10.66131 C43.10867,11.45265 42.57143,12.24399 41.825465,12.60094 C40.242785,13.094015 38.126495,13.283985 36.710795,12.149005 C36.620045,12.05402 36.5299,11.972345 36.42584,11.87736 C36.25402,11.60148 36.35808,11.357665 36.42584,11.095095 C37.289175,10.66131 38.50583,10.67462 39.28749,11.248765 C39.74487,11.357665 40.228265,11.12232 40.42731,10.66131 C40.59429,10.31767 40.345635,9.933495 40.03406,9.879045 C39.15681,9.99218 38.139805,10.425965 37.338785,9.839115 C36.932225,9.62192 36.59282,9.305505 36.321175,8.9661 C35.823865,8.35142 35.561295,7.5867 35.547985,6.777815 C35.47962,5.4934 35.756105,4.317885 36.646665,3.472095 C37.690895,2.37765 39.48593,2.789655 40.68867,3.214365 C41.394705,2.992935 42.37541,2.70798 43.08084,3.20045 L43.37003,3.756445 C43.4753,6.04032 43.448075,8.445195 43.25387,10.66131 L43.25387,10.66131 Z" id="Shape"></path>
                            </g>
                        </g>
                    </g>
                </g>
            </g>
        </g>
    </g>
</svg>