<?xml version="1.0" encoding="UTF-8"?>
<svg width="123px" height="119px" viewBox="0 0 123 119" version="1.1" xmlns="http://www.w3.org/2000/svg" xmlns:xlink="http://www.w3.org/1999/xlink">
    <!-- Generator: Sketch 40.2 (33826) - http://www.bohemiancoding.com/sketch -->
    <title>100k_caf</title>
    <desc>Created with Sketch.</desc>
    <defs></defs>
    <g id="Page-1" stroke="none" stroke-width="1" fill="none" fill-rule="evenodd">
        <g id="Our-partners" transform="translate(-530.000000, -3183.000000)">
            <g id="Content" transform="translate(376.000000, 150.000000)">
                <g id="Support-of-$100k+" transform="translate(1.000000, 2965.000000)">
                    <g id="100k_caf" transform="translate(153.000000, 68.000000)">
                        <rect id="Rectangle-2" fill="#FFFFFF" x="0.531182796" y="0" width="121.875269" height="119"></rect>
                        <g id="Layer_1" transform="translate(0.000000, 32.000000)">
                            <path d="M9.21415,5.79832 C0.0968,12.587025 -1.20153,25.449325 0.83127,35.844435 C2.277825,44.3344 8.99151,51.472795 17.39617,53.399115 C27.322405,55.71808 37.61043,54.185615 47.696385,54.62182 C51.43105,44.684695 55.16511,34.746965 58.835645,24.78927 C62.538245,34.746965 66.27291,44.684695 70.017255,54.62182 L93.146405,54.62182 L93.146405,37.06714 L111.764675,37.06714 L111.764675,22.970035 L93.15669,22.970035 C93.1458,20.67164 93.1458,18.37385 93.135515,16.075455 C100.562495,16.033105 107.988265,16.08574 115.41343,16.033105 C117.22238,10.87306 119.169875,5.77654 120.99879,0.627385 L77.18711,0.627385 C77.14476,9.08589 77.2827,17.533505 77.1012,25.9908 C73.889255,17.56436 70.856995,9.08589 67.72854,0.627385 C61.70758,0.627385 55.695695,0.6171 49.67413,0.63767 L49.855025,1.084765 C45.11001,13.755885 40.43941,26.45907 35.779095,39.162255 C29.885185,38.88577 21.447855,40.949425 18.13911,34.480765 C16.437245,29.4393 16.09663,22.799425 19.820405,18.543855 C24.52307,14.88421 30.94938,16.37372 36.482105,16.043995 C38.364865,10.905125 40.258515,5.766255 42.152165,0.63767 C31.142375,0.968605 18.76831,-1.031525 9.21415,5.79832 L9.21415,5.79832 Z" id="Shape" fill="#FFFFFF"></path>
                            <path d="M9.21415,5.79832 C18.76831,-1.03213 31.14177,0.968 42.15277,0.638275 C40.25912,5.76686 38.36547,10.90573 36.48271,16.0446 C30.949985,16.37372 24.523675,14.884815 19.82101,18.54446 C16.097235,22.80003 16.43785,29.4393 18.139715,34.48137 C21.44846,40.95003 29.88579,38.88698 35.7797,39.16286 C40.43941,26.459675 44.92972,13.309395 49.674735,0.638275 C52.81287,8.479075 55.85602,16.884945 58.83504,24.78927 C55.16511,34.74757 51.43105,44.6853 47.696385,54.622425 C37.61043,54.185615 27.322405,55.71808 17.39617,53.39972 C8.990905,51.472795 2.277825,44.3344 0.83127,35.844435 C-1.20153,25.449325 0.0968,12.587025 9.21415,5.79832 L9.21415,5.79832 Z" id="Shape" fill="#005388"></path>
                            <path d="M49.67534,0.638275 C55.696905,0.617705 61.70879,0.62799 67.72975,0.62799 C70.858205,9.086495 73.89107,17.56557 77.10241,25.991405 C77.28391,17.53411 77.145365,9.086495 77.18832,0.62799 L121,0.62799 C119.171085,5.777145 115.41464,16.03371 115.41464,16.03371 L93.136725,16.005275 L93.1579,22.97064 L111.765885,22.97064 L111.765885,37.067745 L93.147615,37.067745 L93.147615,54.622425 L70.018465,54.622425 C66.27412,44.6853 62.539455,34.74757 58.836855,24.789875 C55.857835,16.884945 52.99558,8.926775 49.857445,1.085975 L49.67534,0.638275 L49.67534,0.638275 Z" id="Shape" fill="#4AAA48"></path>
                        </g>
                    </g>
                </g>
            </g>
        </g>
    </g>
</svg>