<?xml version="1.0" encoding="UTF-8"?>
<svg width="200px" height="200px" viewBox="0 0 200 200" version="1.1" xmlns="http://www.w3.org/2000/svg" xmlns:xlink="http://www.w3.org/1999/xlink">
    <!-- Generator: Sketch 40.2 (33826) - http://www.bohemiancoding.com/sketch -->
    <title>corps_1m_capital_one</title>
    <desc>Created with Sketch.</desc>
    <defs>
        <linearGradient x1="12.7289558%" y1="65.6236595%" x2="92.0922942%" y2="-16.1786051%" id="linearGradient-1">
            <stop stop-color="#A9343A" offset="0%"></stop>
            <stop stop-color="#A9343A" offset="70.55%"></stop>
            <stop stop-color="#AB393D" offset="73.71%"></stop>
            <stop stop-color="#AF4645" offset="77.82%"></stop>
            <stop stop-color="#B75B54" offset="82.45%"></stop>
            <stop stop-color="#C4776B" offset="87.48%"></stop>
            <stop stop-color="#D59C90" offset="92.82%"></stop>
            <stop stop-color="#ECD0C5" offset="98.34%"></stop>
            <stop stop-color="#F7E3DA" offset="100%"></stop>
        </linearGradient>
    </defs>
    <g id="Page-1" stroke="none" stroke-width="1" fill="none" fill-rule="evenodd">
        <g id="Our-partners" transform="translate(-376.000000, -1126.000000)">
            <g id="Content" transform="translate(376.000000, 150.000000)">
                <g id="Support-of-$1m+" transform="translate(0.000000, 908.000000)">
                    <g id="corps_1m_capital_one" transform="translate(0.000000, 68.000000)">
                        <rect id="Rectangle-2" fill="#FFFFFF" x="0" y="0" width="200" height="200"></rect>
                        <g id="Layer_1" transform="translate(0.000000, 65.000000)">
                            <g id="Group" transform="translate(106.000000, 8.000000)" fill="#A9343A">
                                <path d="M26.907,45.384 C26.85,45.414 26.797,45.444 26.742,45.476 C17.815,50.381 8.944,55.18 0.93,59.402 C11.253,54.743 19.657,50.641 27.611,46.407 C27.357,46.083 27.125,45.737 26.907,45.384" id="Shape"></path>
                                <path d="M80.847,0.316 C83.25,6.945 71.619,17.508 55.035,28.541 C55.181,29.114 55.302,29.705 55.38,30.32 C55.425,30.293 55.468,30.267 55.509,30.24 C75.981,17.671 87.091,9.78 80.847,0.316" id="Shape"></path>
                            </g>
                            <path d="M131.54,50.317 C131.533,50.324 131.527,50.329 131.519,50.334 C123.266,56.177 113.488,62.315 102.969,68.752 L102.555,68.998 C102.414,69.097 102.379,69.291 102.481,69.435 C102.579,69.576 102.775,69.609 102.915,69.51 L103.269,69.327 C112.188,64.671 122.431,59.145 132.744,53.476 C132.799,53.444 132.852,53.414 132.909,53.384 C132.339,52.454 131.872,51.437 131.54,50.317 L131.54,50.317 Z M185.713,6.466 C172.704,-7.885 88.995,5.024 53.397,12.799 L52.566,12.98 C52.394,13.009 52.283,13.174 52.311,13.344 C52.34,13.513 52.503,13.628 52.678,13.599 L53.497,13.438 C82.991,8.188 144.322,0.907 157.52,13.994 C161.55,17.986 160.585,23.13 155.918,29.198 C158.436,30.816 160.229,33.358 161.034,36.542 C179.263,24.415 191.511,12.858 185.713,6.466 L185.713,6.466 Z" id="Shape" fill="url(#linearGradient-1)"></path>
                            <g id="Group" transform="translate(24.000000, 28.000000)" fill="#0E3D61">
                                <path d="M112.806,18.548 C112.977,23.598 116.168,27.732 120.337,27.732 C128.412,27.732 131.844,17.82 131.608,11.194 C131.438,6.132 128.159,2.008 123.998,2.008 C117.054,2.009 112.569,11.877 112.806,18.548 L112.806,18.548 Z M108.541,18.277 C108.242,9.662 114.992,0.852 124.8,0.852 C131.359,0.852 135.649,5.22 135.889,11.915 C136.204,20.999 129.898,29.342 119.63,29.342 C113.072,29.342 108.781,24.981 108.541,18.277 L108.541,18.277 Z" id="Shape"></path>
                                <path d="M15.656,16.001 C15.307,16.134 14.852,16.265 14.292,16.383 C13.733,16.508 12.711,16.69 11.227,16.923 C10.202,17.085 9.495,17.298 9.087,17.588 C8.701,17.878 8.473,18.218 8.41,18.634 C8.327,19.08 8.472,19.433 8.858,19.712 C9.25,19.986 9.908,20.127 10.836,20.127 C11.531,20.127 12.212,20.014 12.873,19.802 C13.539,19.584 14.102,19.287 14.535,18.918 C14.852,18.644 15.083,18.293 15.25,17.877 C15.35,17.601 15.492,16.98 15.656,16.001 L15.656,16.001 Z M24.182,10.701 C24.145,11.493 24.006,12.186 23.795,13.396 L22.353,21.491 C22.23,22.209 22.497,22.775 23.163,23.158 L23.119,23.476 L14.861,23.464 L14.789,21.407 C13.586,22.129 12.135,22.74 10.82,23.103 C9.515,23.438 8.456,23.587 6.864,23.587 C4.195,23.587 2.671,23.31 1.614,22.385 C0.543,21.431 0.029,20.8 0.078,19.486 C0.116,18.731 0.51,17.763 1.076,17.085 C1.648,16.395 2.426,15.945 3.274,15.552 C4.125,15.145 5.126,14.853 6.585,14.621 C8.048,14.381 10.081,14.146 12.806,13.918 C14.237,13.799 15.109,13.466 15.518,13.306 C16.087,13.085 16.308,12.84 16.393,12.377 C16.547,11.545 16.281,11.071 15.176,10.85 C12.201,10.265 6.628,11.229 3.752,11.949 L5.314,7.733 C9.105,7.18 12.657,6.829 16.397,6.829 C22.336,6.829 24.24,8.525 24.182,10.701 L24.182,10.701 Z" id="Shape"></path>
                                <path d="M48.115,23.477 L50.979,7.302 L58.886,7.302 L56.021,23.477 L48.115,23.477 L48.115,23.477 Z M51.419,3.558 C51.656,2.228 53.755,1.149 56.095,1.149 C58.445,1.149 60.159,2.228 59.933,3.558 C59.685,4.888 57.59,5.965 55.238,5.965 C52.886,5.965 51.18,4.888 51.419,3.558 L51.419,3.558 Z" id="Shape"></path>
                            </g>
                            <g id="Group" transform="translate(0.000000, 28.000000)" fill="#0E3D61">
                                <path d="M110.965,16.043 C110.611,16.162 110.151,16.291 109.593,16.422 C109.037,16.553 108.015,16.716 106.522,16.961 C105.504,17.124 104.783,17.337 104.392,17.626 C104.012,17.904 103.788,18.25 103.709,18.668 C103.626,19.115 103.788,19.475 104.157,19.741 C104.557,20.018 105.219,20.153 106.148,20.153 C106.835,20.153 107.511,20.049 108.176,19.842 C108.849,19.615 109.409,19.325 109.846,18.956 C110.15,18.683 110.383,18.323 110.548,17.904 C110.65,17.635 110.79,17.01 110.965,16.043 L110.965,16.043 Z M119.488,10.732 C119.451,11.528 119.314,12.228 119.093,13.425 L117.663,21.528 C117.538,22.242 117.803,22.806 118.468,23.203 L118.42,23.483 L110.165,23.499 L110.1,21.436 C108.895,22.167 107.436,22.776 106.131,23.133 C104.819,23.477 103.758,23.619 102.161,23.619 C99.494,23.619 97.98,23.348 96.922,22.417 C95.845,21.461 95.325,20.832 95.383,19.524 C95.412,18.764 95.808,17.791 96.378,17.123 C96.95,16.424 97.727,15.984 98.581,15.584 C99.433,15.186 100.441,14.886 101.883,14.645 C103.351,14.416 105.391,14.173 108.11,13.944 C109.531,13.827 110.404,13.502 110.81,13.35 C111.386,13.126 111.612,12.876 111.697,12.411 C111.846,11.595 111.584,11.108 110.487,10.886 C107.497,10.296 101.937,11.264 99.062,11.979 L100.616,7.769 C104.421,7.213 107.956,6.86 111.699,6.86 C117.64,6.858 119.535,8.56 119.488,10.732 L119.488,10.732 Z" id="Shape"></path>
                                <path d="M22.997,17.663 C20.422,18.173 18.976,18.369 16.431,18.369 C12.653,18.369 9.653,16.494 9.815,13.058 C9.931,10.769 12.644,5.935 19.535,5.935 C21.704,5.935 23.4,6.318 25.681,7.618 L26.681,2.003 C23.582,0.83 21.524,0.654 18.865,0.684 C9.834,0.78 1.156,4.888 0.08,13.236 C-1.013,21.723 9.35,23.855 13.95,23.836 C16.608,23.829 19.369,23.719 21.945,23.453 L22.997,17.663" id="Shape"></path>
                            </g>
                            <g id="Group" transform="translate(47.000000, 28.000000)" fill="#0E3D61">
                                <path d="M40.243,7.208 L40.812,3.916 L49.08,2.119 L48.201,7.208 L52.252,7.208 L51.481,10.466 L47.553,10.456 L45.165,23.465 C45.165,23.465 37.206,23.409 37.176,23.465 L39.553,10.49 L36.548,10.49 L37.157,7.207 L40.243,7.207" id="Shape"></path>
                                <polyline id="Shape" points="80.514 23.465 72.46 23.477 76.511 0.911 84.354 1.132 80.514 23.465"></polyline>
                                <path d="M14.659,11.096 C13.623,11.096 12.686,11.406 11.849,12.036 C11.023,12.664 10.498,13.581 10.287,14.804 C10.037,16.216 10.182,17.225 10.744,17.855 C11.306,18.477 12.119,18.789 13.188,18.789 C13.906,18.789 14.65,18.661 15.199,18.389 C15.873,18.033 16.343,17.654 16.747,17.059 C17.182,16.433 17.469,15.734 17.618,14.925 C17.843,13.649 17.652,12.69 17.059,12.061 C16.483,11.412 15.69,11.096 14.659,11.096 L14.659,11.096 Z M0.263,29.06 L4.112,7.384 L11.052,7.384 L10.516,10.149 C11.119,9.324 12.083,8.644 13.409,8.092 C14.75,7.543 16.257,7.138 17.894,7.138 C19.707,7.138 20.823,7.234 22.182,7.937 C23.53,8.643 24.468,9.67 24.983,11.006 C25.5,12.319 25.61,13.799 25.328,15.408 C24.859,18.081 23.554,20.188 21.422,21.736 C19.303,23.285 17.395,23.69 14.671,23.701 C13.709,23.701 12.904,23.601 12.229,23.437 C11.577,23.263 11.053,23.057 10.655,22.804 C10.278,22.549 9.874,22.195 9.354,21.628 L8.062,29.058 L0.263,29.058 L0.263,29.06 Z" id="Shape"></path>
                                <path d="M143.797,13.079 C143.75,11.774 143.094,10.897 141.748,10.897 C138.507,10.897 135.058,17.251 134.465,19.812 C139.78,19.812 143.925,16.644 143.797,13.079 L143.797,13.079 Z M144.489,23.034 L145.114,23.459 C143.534,26.682 140.308,29.272 136.527,29.272 C133.434,29.272 130.896,27.213 130.763,23.343 C130.513,16.413 137.004,9.972 142.324,9.972 C144.606,9.972 146.721,10.97 146.816,13.425 C147.011,18.94 139.27,20.622 134.172,20.739 C134.006,21.314 133.943,21.893 133.975,22.775 C134.058,25.06 135.441,26.981 138.301,26.981 C140.771,26.981 143.238,24.994 144.489,23.034 L144.489,23.034 Z" id="Shape"></path>
                                <path d="M112.772,12.896 C113.32,12.826 114.206,12.726 114.584,12.726 C115.171,12.726 115.714,12.838 115.741,13.413 C115.754,13.757 115.137,16.21 115.006,16.782 L113.774,22.218 C113.276,24.441 112.734,26.774 112.257,28.614 L115.424,28.614 L117.204,19.998 C122.638,14.338 124.73,12.494 126.013,12.494 C126.592,12.494 126.99,12.797 127.014,13.49 C127.047,14.487 126.431,16.748 126.215,17.396 L124.397,23.677 C123.985,25.09 123.678,26.363 123.709,27.272 C123.762,28.651 124.598,29.266 125.833,29.266 C128.148,29.266 129.829,26.85 131.299,24.48 L130.871,23.703 C130.272,24.658 128.902,26.739 127.816,26.739 C127.475,26.739 127.152,26.508 127.14,25.933 C127.11,25.199 127.421,24.105 127.633,23.373 L129.651,16.012 C130.192,13.984 130.451,12.684 130.437,11.987 C130.387,10.615 129.584,9.97 128.357,9.97 C126.274,9.97 123.502,11.493 117.643,18.238 L117.559,18.238 L118.298,14.944 C118.696,13.147 119.089,11.269 119.47,9.97 C117.444,10.701 114.538,11.518 112.742,11.865 L112.772,12.896" id="Shape"></path>
                                <path d="M147.304,7.041 C147.304,5.428 148.609,4.24 150.163,4.24 C151.694,4.24 153,5.428 153,7.041 C153,8.675 151.694,9.867 150.163,9.867 C148.608,9.867 147.304,8.674 147.304,7.041 L147.304,7.041 Z M150.163,9.402 C151.43,9.402 152.436,8.408 152.436,7.041 C152.436,5.711 151.429,4.706 150.163,4.706 C148.866,4.706 147.869,5.711 147.869,7.041 C147.869,8.408 148.866,9.402 150.163,9.402 L150.163,9.402 Z M149.566,8.674 L149.065,8.674 L149.065,5.427 L150.307,5.427 C151.073,5.427 151.454,5.71 151.454,6.346 C151.454,6.932 151.093,7.179 150.61,7.243 L151.536,8.673 L150.979,8.673 L150.125,7.264 L149.564,7.264 L149.564,8.674 L149.566,8.674 Z M150.146,6.854 C150.567,6.854 150.934,6.82 150.934,6.318 C150.934,5.917 150.579,5.84 150.23,5.84 L149.566,5.84 L149.566,6.854 L150.146,6.854 L150.146,6.854 Z" id="Shape"></path>
                            </g>
                        </g>
                    </g>
                </g>
            </g>
        </g>
    </g>
</svg>