<?xml version="1.0" encoding="UTF-8"?>
<svg width="200px" height="200px" viewBox="0 0 200 200" version="1.1" xmlns="http://www.w3.org/2000/svg" xmlns:xlink="http://www.w3.org/1999/xlink">
    <!-- Generator: Sketch 40.2 (33826) - http://www.bohemiancoding.com/sketch -->
    <title>corps_1m_deutsche_bank</title>
    <desc>Created with Sketch.</desc>
    <defs></defs>
    <g id="Page-1" stroke="none" stroke-width="1" fill="none" fill-rule="evenodd">
        <g id="Our-partners" transform="translate(-645.000000, -1126.000000)">
            <g id="Content" transform="translate(376.000000, 150.000000)">
                <g id="Support-of-$1m+" transform="translate(0.000000, 908.000000)">
                    <g id="corps_1m_deutsche_bank" transform="translate(269.000000, 68.000000)">
                        <rect id="Rectangle-2" fill="#FFFFFF" x="0" y="0" width="200" height="200"></rect>
                        <g id="Layer_1" transform="translate(0.000000, 47.000000)" fill="#034694">
                            <path d="M78.874,8.215 L78.874,50.479 L121.136,50.479 L121.136,8.215 L78.874,8.215 L78.874,8.215 L78.874,8.215 L78.874,8.215 Z M70.656,0 L129.353,0 L129.353,58.697 L70.656,58.697 L70.656,0 L70.656,0 L70.656,0 L70.656,0 Z M83.569,44.609 L105.875,14.088 L116.439,14.088 L94.134,44.609 L83.569,44.609 L83.569,44.609 L83.569,44.609 L83.569,44.609 Z M8.1,83.905 C14.9,83.905 18.859,87.018 18.859,94.963 C18.859,101.67 15.865,106.265 8.039,106.265 L0,106.265 L0,83.905 L8.1,83.905 L8.1,83.905 Z M7.042,87.107 L3.809,87.107 L3.809,103.062 L7.013,103.062 C12.813,103.062 14.718,100.736 14.718,94.903 C14.718,89.101 12.483,87.107 7.042,87.107 L7.042,87.107 Z M31.276,101.642 L34.811,101.642 C34.359,104.151 32.363,106.599 27.924,106.599 C22.904,106.599 20.548,103.092 20.548,98.592 C20.548,93.846 22.968,90.368 27.924,90.368 C33.27,90.368 34.933,93.996 34.933,97.892 L34.933,99.618 L24.145,99.618 C24.356,102.457 25.625,103.757 27.923,103.757 C30.584,103.757 31.124,102.518 31.276,101.642 L31.276,101.642 Z M24.204,96.987 L31.428,96.987 C31.337,94.572 30.371,93.209 27.952,93.209 C25.775,93.209 24.536,94.268 24.204,96.987 L24.204,96.987 Z M47.567,104.453 C46.688,105.57 45.206,106.599 42.61,106.599 C38.892,106.599 36.986,104.605 36.986,100.796 L36.986,90.731 L40.553,90.731 L40.553,99.918 C40.553,102.092 41.131,103.666 43.546,103.666 C45.481,103.666 46.629,102.31 46.99,101.366 C47.234,100.707 47.264,100.009 47.264,99.194 L47.264,90.731 L50.827,90.731 L50.827,106.266 L47.655,106.266 L47.567,104.453 L47.567,104.453 Z M63.042,106.205 C62.618,106.296 61.8,106.388 60.774,106.388 C57.117,106.388 55.515,105.599 55.515,101.218 L55.515,93.451 L52.582,93.451 L52.582,90.731 L55.515,90.731 L55.515,88.344 L59.08,86.353 L59.08,90.731 L62.919,90.731 L62.919,93.451 L59.08,93.451 L59.08,100.945 C59.08,103.092 59.567,103.636 61.62,103.636 C62.315,103.636 62.89,103.514 63.042,103.484 L63.042,106.205 L63.042,106.205 Z M67.935,101.549 C67.996,102.457 68.331,103.879 70.898,103.907 C73.074,103.907 73.861,103.092 73.861,101.974 C73.861,100.978 73.257,100.491 71.924,100.191 L68.572,99.435 C66.394,98.953 64.672,97.774 64.672,95.05 C64.672,92.002 67.18,90.367 70.718,90.367 C74.889,90.367 76.972,92.482 77.127,95.415 L73.707,95.415 C73.618,94.6 72.981,93.059 70.505,93.059 C68.753,93.059 67.996,93.811 67.996,94.811 C67.996,95.957 68.752,96.415 70.114,96.687 L73.377,97.353 C76.007,97.892 77.308,99.499 77.308,101.824 C77.308,104.244 75.643,106.598 70.958,106.598 C66.365,106.568 64.584,104.421 64.43,101.548 L67.935,101.548 L67.935,101.549 Z M82.586,98.562 C82.586,101.642 83.521,103.757 86.123,103.757 C88.784,103.757 89.206,102.062 89.297,100.858 L92.86,100.858 C92.497,104.393 90.262,106.599 86.153,106.599 C80.44,106.599 78.931,102.823 78.931,98.562 C78.931,94.357 80.47,90.401 86.122,90.401 C90.655,90.401 92.618,92.849 92.89,96.112 L89.325,96.112 C89.173,95.051 88.812,93.242 86.123,93.242 C83.797,93.242 82.586,94.934 82.586,98.562 L82.586,98.562 Z M98.476,106.266 L94.913,106.266 L94.913,83.906 L98.451,83.906 L98.451,92.303 C99.386,91.307 100.833,90.368 103.344,90.368 C106.938,90.368 108.753,92.546 108.753,95.811 L108.753,106.265 L105.186,106.265 L105.186,96.987 C105.186,94.45 104.127,93.45 102.319,93.45 C100.684,93.45 99.534,94.324 99.023,95.174 C98.569,95.9 98.478,96.563 98.478,97.682 L98.478,106.266 L98.476,106.266 Z M121.354,101.642 L124.888,101.642 C124.438,104.151 122.443,106.599 117.999,106.599 C112.983,106.599 110.627,103.092 110.627,98.592 C110.627,93.846 113.044,90.368 117.999,90.368 C123.347,90.368 125.01,93.996 125.01,97.892 L125.01,99.618 L114.221,99.618 C114.436,102.457 115.705,103.757 117.999,103.757 C120.658,103.757 121.204,102.518 121.354,101.642 L121.354,101.642 Z M114.286,96.987 L121.509,96.987 C121.415,94.572 120.45,93.209 118.03,93.209 C115.856,93.209 114.615,94.268 114.286,96.987 L114.286,96.987 Z M133.546,106.266 L133.546,83.906 L142.37,83.906 C147.6,83.906 149.592,86.262 149.592,89.616 C149.592,92.062 148.292,93.846 146.571,94.418 C148.628,94.753 150.653,96.442 150.653,99.618 C150.653,103.728 148.536,106.265 143.036,106.265 L133.546,106.265 L133.546,106.266 Z M141.675,87.074 L137.353,87.074 L137.353,92.998 L141.766,92.998 C144.64,92.998 145.544,92.092 145.544,90.037 C145.544,88.103 144.67,87.074 141.675,87.074 L141.675,87.074 Z M137.353,96.172 L137.353,103.091 L142.401,103.091 C145.27,103.091 146.571,102.126 146.571,99.617 C146.571,97.108 145.27,96.171 142.401,96.171 L137.353,96.171 L137.353,96.172 Z M165.726,106.266 L162.648,106.266 L162.557,104.454 C161.678,105.571 160.078,106.6 157.57,106.6 C154.483,106.6 152.283,104.815 152.283,101.706 C152.283,98.743 154.457,96.717 158.718,96.717 L162.253,96.717 L162.253,95.63 C162.253,93.695 161.257,93.121 159.383,93.121 C157.209,93.121 156.666,94.091 156.54,95.086 L152.944,95.086 C153.462,92.334 155.3,90.369 159.474,90.369 C163.735,90.369 165.726,92.062 165.726,95.871 L165.726,106.266 L165.726,106.266 Z M162.252,100.4 L162.252,99.377 L158.717,99.377 C156.692,99.377 155.878,100.162 155.878,101.614 C155.878,102.848 156.422,103.757 158.443,103.757 C160.469,103.757 161.708,102.762 162.099,101.583 C162.222,101.188 162.252,100.916 162.252,100.4 L162.252,100.4 Z M172.104,92.303 C173.039,91.307 174.491,90.368 177,90.368 C180.596,90.368 182.409,92.546 182.409,95.811 L182.409,106.265 L178.843,106.265 L178.843,96.987 C178.843,94.45 177.787,93.45 175.974,93.45 C174.344,93.45 173.196,94.324 172.683,95.174 C172.227,95.9 172.135,96.656 172.135,97.774 L172.135,106.265 L168.57,106.265 L168.57,90.731 L171.957,90.731 L172.104,92.303 L172.104,92.303 Z M188.817,106.266 L185.252,106.266 L185.252,83.906 L188.817,83.906 L188.817,106.266 L188.817,106.266 Z M188.939,97.562 L195.043,90.703 L199.152,90.703 L193.048,97.473 L200,106.266 L195.709,106.266 L188.939,97.562 L188.939,97.562 Z" id="Shape"></path>
                        </g>
                    </g>
                </g>
            </g>
        </g>
    </g>
</svg>