<?xml version="1.0" encoding="UTF-8"?>
<svg width="200px" height="200px" viewBox="0 0 200 200" version="1.1" xmlns="http://www.w3.org/2000/svg" xmlns:xlink="http://www.w3.org/1999/xlink">
    <!-- Generator: Sketch 40.2 (33826) - http://www.bohemiancoding.com/sketch -->
    <title>1m_dvfff</title>
    <desc>Created with Sketch.</desc>
    <defs></defs>
    <g id="Page-1" stroke="none" stroke-width="1" fill="none" fill-rule="evenodd">
        <g id="Our-partners" transform="translate(-913.000000, -1126.000000)">
            <g id="Content" transform="translate(376.000000, 150.000000)">
                <g id="Support-of-$1m+" transform="translate(0.000000, 908.000000)">
                    <g id="1m_dvfff" transform="translate(537.000000, 68.000000)">
                        <rect id="Rectangle-2" fill="#FFFFFF" x="0" y="0" width="200" height="200"></rect>
                        <g id="Layer_1" transform="translate(0.000000, 69.000000)">
                            <g id="Group" transform="translate(0.000000, 49.000000)" fill="#5F6163">
                                <polygon id="Shape" points="0 13.362 0 1.146 9.605 1.146 9.605 2.551 1.516 2.551 1.516 6.136 6.408 6.136 6.408 7.541 1.516 7.541 1.516 13.361 0 13.361"></polygon>
                                <path d="M8.37,13.362 L14.357,1.146 L15.619,1.146 L21.672,13.362 L20.023,13.362 L18.363,10.076 L11.613,10.076 L9.998,13.362 L8.37,13.362 L8.37,13.362 Z M12.311,8.647 L17.688,8.647 L14.988,3.236 L12.311,8.647 L12.311,8.647 Z" id="Shape"></path>
                                <polygon id="Shape" points="24.206 13.362 24.206 1.146 25.632 1.146 30.563 8.626 35.527 1.146 36.921 1.146 36.921 13.362 35.405 13.362 35.405 3.823 30.563 11.049 25.722 3.823 25.722 13.362"></polygon>
                                <polygon id="Shape" points="41.062 13.406 41.062 1.079 42.578 1.079 42.578 13.407 41.062 13.407"></polygon>
                                <polygon id="Shape" points="46.667 13.362 46.667 1.146 48.183 1.146 48.183 11.957 56.162 11.957 56.162 13.362"></polygon>
                                <polygon id="Shape" points="54.34 1.146 56.244 1.146 60.615 5.971 64.964 1.146 66.889 1.146 61.356 7.265 61.356 13.363 59.84 13.363 59.84 7.243"></polygon>
                                <polygon id="Shape" points="76.255 13.362 76.255 1.146 85.861 1.146 85.861 2.551 77.771 2.551 77.771 6.136 82.663 6.136 82.663 7.541 77.771 7.541 77.771 13.361 76.255 13.361"></polygon>
                                <path d="M87.058,7.287 C87.058,6.365 87.216,5.511 87.534,4.725 C87.851,3.939 88.288,3.26 88.845,2.69 C89.402,2.118 90.069,1.673 90.847,1.356 C91.626,1.039 92.469,0.88 93.376,0.88 C94.285,0.88 95.129,1.039 95.909,1.356 C96.688,1.674 97.363,2.118 97.932,2.69 C98.501,3.26 98.944,3.94 99.263,4.725 C99.581,5.511 99.74,6.365 99.74,7.287 C99.74,8.224 99.581,9.081 99.263,9.859 C98.945,10.638 98.501,11.312 97.932,11.88 C97.363,12.448 96.688,12.89 95.909,13.208 C95.129,13.525 94.285,13.685 93.376,13.685 C92.469,13.685 91.626,13.525 90.847,13.208 C90.069,12.891 89.402,12.449 88.845,11.88 C88.288,11.312 87.851,10.638 87.534,9.859 C87.216,9.082 87.058,8.224 87.058,7.287 L87.058,7.287 Z M88.618,7.287 C88.618,8.011 88.741,8.674 88.983,9.278 C89.227,9.883 89.559,10.41 89.979,10.855 C90.399,11.302 90.901,11.647 91.485,11.89 C92.068,12.133 92.698,12.255 93.377,12.255 C94.056,12.255 94.686,12.129 95.269,11.879 C95.852,11.628 96.355,11.284 96.779,10.844 C97.204,10.406 97.536,9.883 97.775,9.278 C98.015,8.674 98.135,8.01 98.135,7.287 C98.135,6.564 98.015,5.896 97.775,5.284 C97.536,4.672 97.204,4.146 96.779,3.707 C96.355,3.268 95.852,2.924 95.269,2.677 C94.686,2.43 94.056,2.306 93.377,2.306 C92.698,2.306 92.067,2.43 91.485,2.677 C90.902,2.924 90.4,3.267 89.979,3.707 C89.559,4.146 89.227,4.671 88.983,5.284 C88.74,5.896 88.618,6.564 88.618,7.287 L88.618,7.287 Z" id="Shape"></path>
                                <path d="M102.853,9.467 L102.853,1.146 L104.37,1.146 L104.37,9.059 C104.37,9.693 104.424,10.218 104.531,10.635 C104.637,11.052 104.824,11.376 105.089,11.609 C105.356,11.842 105.715,12.006 106.169,12.107 C106.623,12.206 107.196,12.257 107.89,12.257 C108.584,12.257 109.157,12.206 109.611,12.107 C110.064,12.007 110.424,11.842 110.689,11.609 C110.956,11.376 111.139,11.052 111.243,10.635 C111.347,10.218 111.398,9.693 111.398,9.059 L111.398,1.146 L112.914,1.146 L112.914,9.467 C112.914,10.965 112.526,12.042 111.749,12.698 C110.973,13.354 109.687,13.684 107.891,13.684 C106.09,13.684 104.801,13.353 104.023,12.693 C103.242,12.032 102.853,10.957 102.853,9.467 L102.853,9.467 Z" id="Shape"></path>
                                <polygon id="Shape" points="116.854 13.362 116.854 1.146 117.651 1.146 125.575 10.275 125.575 1.146 127.091 1.146 127.091 13.362 126.322 13.362 118.371 4.232 118.371 13.362"></polygon>
                                <path d="M131.098,13.362 L131.098,1.146 L136.327,1.146 C137.323,1.146 138.213,1.301 138.998,1.61 C139.782,1.92 140.455,2.348 141.015,2.894 C141.577,3.44 142.003,4.089 142.298,4.841 C142.593,5.594 142.739,6.409 142.739,7.287 C142.739,8.165 142.595,8.974 142.308,9.715 C142.021,10.456 141.605,11.099 141.059,11.64 C140.514,12.182 139.841,12.604 139.041,12.908 C138.241,13.21 137.337,13.361 136.326,13.361 L131.098,13.361 L131.098,13.362 Z M132.613,11.957 L136.332,11.957 C137.114,11.957 137.808,11.842 138.412,11.609 C139.016,11.376 139.524,11.052 139.933,10.635 C140.342,10.218 140.653,9.722 140.863,9.147 C141.074,8.571 141.178,7.945 141.178,7.265 C141.178,6.587 141.07,5.956 140.852,5.373 C140.634,4.79 140.317,4.292 139.9,3.879 C139.483,3.466 138.972,3.142 138.368,2.905 C137.763,2.668 137.084,2.551 136.332,2.551 L132.613,2.551 L132.613,11.957 L132.613,11.957 Z" id="Shape"></path>
                                <path d="M143.927,13.362 L149.914,1.146 L151.176,1.146 L157.229,13.362 L155.581,13.362 L153.921,10.076 L147.17,10.076 L145.555,13.362 L143.927,13.362 L143.927,13.362 Z M147.867,8.647 L153.244,8.647 L150.544,3.236 L147.867,8.647 L147.867,8.647 Z" id="Shape"></path>
                                <polygon id="Shape" points="155.36 2.551 155.36 1.146 167.179 1.146 167.179 2.551 162.022 2.551 162.022 13.362 160.506 13.362 160.506 2.551"></polygon>
                                <polygon id="Shape" points="169.002 13.406 169.002 1.079 170.518 1.079 170.518 13.407 169.002 13.407"></polygon>
                                <path d="M173.859,7.287 C173.859,6.365 174.017,5.511 174.336,4.725 C174.652,3.939 175.09,3.26 175.647,2.69 C176.205,2.118 176.872,1.673 177.651,1.356 C178.428,1.039 179.272,0.88 180.179,0.88 C181.087,0.88 181.932,1.039 182.711,1.356 C183.491,1.674 184.165,2.118 184.734,2.69 C185.302,3.26 185.746,3.94 186.064,4.725 C186.382,5.511 186.541,6.365 186.541,7.287 C186.541,8.224 186.383,9.081 186.064,9.859 C185.746,10.638 185.302,11.312 184.734,11.88 C184.165,12.448 183.491,12.89 182.711,13.208 C181.932,13.525 181.087,13.685 180.179,13.685 C179.272,13.685 178.428,13.525 177.651,13.208 C176.872,12.891 176.205,12.449 175.647,11.88 C175.09,11.312 174.653,10.638 174.336,9.859 C174.018,9.082 173.859,8.224 173.859,7.287 L173.859,7.287 Z M175.42,7.287 C175.42,8.011 175.542,8.674 175.785,9.278 C176.028,9.883 176.36,10.41 176.781,10.855 C177.202,11.302 177.703,11.647 178.286,11.89 C178.869,12.133 179.5,12.255 180.179,12.255 C180.858,12.255 181.488,12.129 182.071,11.879 C182.654,11.628 183.158,11.284 183.582,10.844 C184.007,10.406 184.339,9.883 184.578,9.278 C184.818,8.674 184.937,8.01 184.937,7.287 C184.937,6.564 184.818,5.896 184.578,5.284 C184.339,4.672 184.007,4.146 183.582,3.707 C183.158,3.268 182.654,2.924 182.071,2.677 C181.488,2.43 180.858,2.306 180.179,2.306 C179.5,2.306 178.869,2.43 178.286,2.677 C177.703,2.924 177.202,3.267 176.781,3.707 C176.36,4.146 176.028,4.671 175.785,5.284 C175.542,5.897 175.42,6.564 175.42,7.287 L175.42,7.287 Z" id="Shape"></path>
                                <polygon id="Shape" points="189.764 13.362 189.764 1.146 190.561 1.146 198.485 10.275 198.485 1.146 200 1.146 200 13.362 199.231 13.362 191.279 4.232 191.279 13.362"></polygon>
                            </g>
                            <g id="Group" transform="translate(33.000000, 0.000000)" fill="#D9B827">
                                <polygon id="Shape" points="0.232 1.472 0.232 0.067 12.05 0.067 12.05 1.472 6.893 1.472 6.893 12.283 5.377 12.283 5.377 1.472"></polygon>
                                <polygon id="Shape" points="13.904 12.283 13.904 0.067 15.42 0.067 15.42 4.892 22.635 4.892 22.635 0.067 24.151 0.067 24.151 12.283 22.635 12.283 22.635 6.297 15.42 6.297 15.42 12.283"></polygon>
                                <polygon id="Shape" points="28.424 12.283 28.424 0.067 38.03 0.067 38.03 1.472 29.94 1.472 29.94 5.057 34.831 5.057 34.831 6.462 29.94 6.462 29.94 10.877 38.527 10.877 38.527 12.282 28.424 12.282"></polygon>
                                <path d="M49.466,12.283 L49.466,0.067 L54.695,0.067 C55.69,0.067 56.58,0.222 57.365,0.531 C58.15,0.84 58.823,1.269 59.383,1.815 C59.944,2.361 60.371,3.01 60.666,3.763 C60.961,4.515 61.108,5.33 61.108,6.209 C61.108,7.088 60.964,7.896 60.677,8.637 C60.39,9.379 59.973,10.021 59.428,10.562 C58.883,11.104 58.209,11.527 57.409,11.83 C56.61,12.132 55.705,12.283 54.695,12.283 L49.466,12.283 L49.466,12.283 Z M50.982,10.878 L54.7,10.878 C55.482,10.878 56.176,10.763 56.781,10.53 C57.385,10.298 57.893,9.973 58.302,9.556 C58.712,9.139 59.022,8.643 59.232,8.068 C59.442,7.492 59.547,6.866 59.547,6.186 C59.547,5.508 59.438,4.877 59.22,4.294 C59.003,3.711 58.685,3.213 58.268,2.8 C57.851,2.387 57.34,2.063 56.736,1.826 C56.131,1.59 55.452,1.472 54.699,1.472 L50.981,1.472 L50.981,10.878 L50.982,10.878 Z" id="Shape"></path>
                                <polygon id="Shape" points="64.375 12.328 64.375 0 65.891 0 65.891 12.328"></polygon>
                                <polygon id="Shape" points="70.153 12.283 70.153 0.067 71.67 0.067 71.67 10.878 79.649 10.878 79.649 12.283"></polygon>
                                <polygon id="Shape" points="82.053 12.283 82.053 0.067 83.569 0.067 83.569 10.878 91.548 10.878 91.548 12.283"></polygon>
                                <polygon id="Shape" points="93.95 12.283 93.95 0.067 103.556 0.067 103.556 1.472 95.466 1.472 95.466 5.057 100.357 5.057 100.357 6.462 95.466 6.462 95.466 10.877 104.053 10.877 104.053 12.282 93.95 12.282"></polygon>
                                <path d="M106.611,12.23 L106.611,0.014 L113.624,0.014 C114.835,0.014 115.776,0.313 116.448,0.91 C117.12,1.507 117.456,2.341 117.456,3.411 C117.456,3.847 117.388,4.254 117.252,4.634 C117.114,5.014 116.92,5.355 116.668,5.657 C116.416,5.959 116.112,6.216 115.757,6.426 C115.402,6.636 114.998,6.781 114.546,6.864 L117.602,12.23 L115.919,12.23 L112.863,6.886 L108.128,6.886 L108.128,12.23 L106.611,12.23 L106.611,12.23 Z M108.128,5.459 L113.518,5.459 C115.074,5.459 115.852,4.791 115.852,3.456 C115.852,2.821 115.661,2.323 115.277,1.961 C114.893,1.6 114.333,1.419 113.594,1.419 L108.128,1.419 L108.128,5.459 L108.128,5.459 Z" id="Shape"></path>
                                <polygon id="Shape" points="124.735 6.873 124.735 5.533 133.768 5.533 133.768 6.872 124.735 6.872"></polygon>
                            </g>
                            <g id="Group" transform="translate(1.000000, 24.000000)" fill="#D9B827">
                                <polygon id="Shape" points="0.128 1.086 1.776 1.086 6.49 10.879 11.204 1.086 12.886 1.086 6.966 13.302 6.015 13.302"></polygon>
                                <path d="M13.72,7.229 C13.72,6.307 13.879,5.452 14.196,4.666 C14.513,3.881 14.95,3.202 15.508,2.631 C16.065,2.059 16.732,1.614 17.511,1.298 C18.289,0.981 19.133,0.821 20.04,0.821 C20.949,0.821 21.793,0.981 22.573,1.298 C23.353,1.615 24.027,2.059 24.596,2.631 C25.165,3.202 25.608,3.881 25.926,4.666 C26.244,5.452 26.403,6.307 26.403,7.229 C26.403,8.165 26.245,9.023 25.926,9.8 C25.608,10.579 25.165,11.253 24.596,11.821 C24.027,12.389 23.352,12.831 22.573,13.148 C21.794,13.465 20.949,13.625 20.04,13.625 C19.133,13.625 18.29,13.465 17.511,13.148 C16.732,12.831 16.065,12.389 15.508,11.821 C14.95,11.253 14.513,10.579 14.196,9.8 C13.878,9.022 13.72,8.165 13.72,7.229 L13.72,7.229 Z M15.28,7.229 C15.28,7.952 15.402,8.616 15.645,9.22 C15.889,9.825 16.22,10.352 16.641,10.798 C17.061,11.245 17.563,11.589 18.146,11.833 C18.729,12.076 19.359,12.198 20.038,12.198 C20.717,12.198 21.347,12.072 21.93,11.822 C22.513,11.571 23.016,11.226 23.441,10.787 C23.865,10.349 24.197,9.826 24.437,9.221 C24.677,8.617 24.796,7.953 24.796,7.23 C24.796,6.507 24.676,5.838 24.437,5.227 C24.197,4.614 23.865,4.089 23.441,3.65 C23.017,3.211 22.513,2.867 21.93,2.621 C21.347,2.373 20.717,2.249 20.038,2.249 C19.359,2.249 18.728,2.373 18.146,2.621 C17.563,2.867 17.061,3.21 16.641,3.65 C16.22,4.089 15.889,4.614 15.645,5.227 C15.402,5.837 15.28,6.505 15.28,7.229 L15.28,7.229 Z" id="Shape"></path>
                                <polygon id="Shape" points="29.624 13.303 29.624 1.086 30.421 1.086 38.344 10.215 38.344 1.086 39.86 1.086 39.86 13.302 39.091 13.302 31.139 4.172 31.139 13.302 29.624 13.302"></polygon>
                                <polygon id="Shape" points="52.34 13.303 52.34 1.086 61.945 1.086 61.945 2.491 53.855 2.491 53.855 6.076 58.747 6.076 58.747 7.481 53.855 7.481 53.855 13.301 52.34 13.301"></polygon>
                                <path d="M64.218,9.408 L64.218,1.087 L65.735,1.087 L65.735,9 C65.735,9.634 65.788,10.159 65.896,10.576 C66.002,10.993 66.189,11.318 66.454,11.55 C66.72,11.783 67.08,11.947 67.534,12.048 C67.988,12.147 68.561,12.197 69.255,12.197 C69.949,12.197 70.522,12.146 70.976,12.048 C71.43,11.947 71.789,11.783 72.055,11.55 C72.321,11.318 72.505,10.993 72.608,10.576 C72.712,10.159 72.763,9.634 72.763,9 L72.763,1.087 L74.279,1.087 L74.279,9.408 C74.279,10.906 73.891,11.983 73.114,12.639 C72.338,13.295 71.052,13.624 69.255,13.624 C67.455,13.624 66.165,13.293 65.388,12.633 C64.607,11.973 64.218,10.898 64.218,9.408 L64.218,9.408 Z" id="Shape"></path>
                                <path d="M78.153,13.303 L78.153,1.086 L85.165,1.086 C86.376,1.086 87.318,1.384 87.99,1.982 C88.662,2.579 88.997,3.414 88.997,4.483 C88.997,4.919 88.929,5.326 88.792,5.705 C88.655,6.085 88.46,6.427 88.209,6.729 C87.957,7.032 87.653,7.289 87.298,7.499 C86.943,7.708 86.539,7.854 86.087,7.936 L89.142,13.302 L87.46,13.302 L84.405,7.958 L79.669,7.958 L79.669,13.302 L78.153,13.302 L78.153,13.303 Z M79.669,6.53 L85.058,6.53 C86.614,6.53 87.393,5.863 87.393,4.528 C87.393,3.893 87.201,3.395 86.817,3.033 C86.434,2.672 85.872,2.491 85.135,2.491 L79.668,2.491 L79.668,6.53 L79.669,6.53 Z" id="Shape"></path>
                                <path d="M91.142,11.466 L92.027,10.149 C92.903,10.828 93.805,11.343 94.733,11.693 C95.66,12.044 96.577,12.219 97.483,12.219 C98.074,12.219 98.604,12.155 99.073,12.025 C99.542,11.896 99.939,11.714 100.264,11.478 C100.589,11.243 100.842,10.969 101.023,10.66 C101.204,10.351 101.294,10.015 101.294,9.654 C101.294,9.094 101.057,8.61 100.583,8.205 C100.108,7.8 99.397,7.56 98.45,7.486 C97.913,7.439 97.417,7.396 96.961,7.356 C96.504,7.316 96.065,7.278 95.643,7.241 C95.219,7.204 94.822,7.144 94.449,7.063 C94.076,6.982 93.732,6.865 93.414,6.709 C92.257,6.149 91.677,5.319 91.677,4.219 C91.677,3.74 91.785,3.296 92.002,2.886 C92.219,2.478 92.535,2.117 92.951,1.808 C93.366,1.498 93.862,1.256 94.439,1.082 C95.015,0.909 95.668,0.822 96.395,0.822 C97.437,0.822 98.449,0.991 99.431,1.331 C100.413,1.671 101.351,2.165 102.245,2.814 L101.359,4.076 C99.838,2.859 98.201,2.25 96.45,2.25 L96.417,2.25 C95.449,2.25 94.677,2.435 94.101,2.802 C93.525,3.171 93.237,3.613 93.237,4.128 C93.237,4.549 93.435,4.909 93.83,5.211 C94.09,5.411 94.396,5.554 94.748,5.642 C95.098,5.731 95.487,5.793 95.913,5.829 C96.339,5.865 96.801,5.896 97.297,5.922 C97.793,5.948 98.321,6 98.88,6.079 C100.16,6.226 101.151,6.632 101.849,7.296 C102.548,7.96 102.898,8.761 102.898,9.697 C102.898,10.228 102.778,10.732 102.538,11.207 C102.299,11.684 101.951,12.099 101.497,12.453 C101.043,12.807 100.48,13.092 99.808,13.305 C99.137,13.519 98.368,13.627 97.505,13.627 C96.297,13.627 95.172,13.451 94.131,13.101 C93.09,12.748 92.093,12.205 91.142,11.466 L91.142,11.466 Z" id="Shape"></path>
                                <polygon id="Shape" points="104.062 2.492 104.062 1.087 115.881 1.087 115.881 2.492 110.724 2.492 110.724 13.303 109.208 13.303 109.208 2.492"></polygon>
                                <polygon id="Shape" points="117.681 13.303 117.681 1.086 127.286 1.086 127.286 2.491 119.196 2.491 119.196 6.076 124.089 6.076 124.089 7.481 119.196 7.481 119.196 11.896 127.784 11.896 127.784 13.301 117.681 13.301"></polygon>
                                <polygon id="Shape" points="160.047 13.303 160.047 1.086 169.652 1.086 169.652 2.491 161.562 2.491 161.562 6.076 166.454 6.076 166.454 7.481 161.562 7.481 161.562 11.896 170.15 11.896 170.15 13.301 160.047 13.301"></polygon>
                                <polygon id="Shape" points="130.41 13.303 130.41 1.086 131.207 1.086 139.131 10.215 139.131 1.086 140.647 1.086 140.647 13.302 139.878 13.302 131.926 4.172 131.926 13.302 130.41 13.302"></polygon>
                                <path d="M144.865,13.303 L144.865,1.086 L152.092,1.086 C153.316,1.086 154.231,1.342 154.836,1.855 C155.44,2.368 155.743,3.126 155.743,4.129 C155.743,5.139 155.378,5.885 154.647,6.364 C155.96,7.117 156.617,8.205 156.617,9.629 C156.617,10.751 156.254,11.642 155.526,12.307 C154.799,12.971 153.785,13.303 152.486,13.303 L144.865,13.303 L144.865,13.303 Z M146.381,5.911 L152.241,5.911 C152.891,5.911 153.386,5.764 153.722,5.468 C154.058,5.174 154.226,4.756 154.226,4.218 C154.226,3.068 153.565,2.492 152.241,2.492 L146.381,2.492 L146.381,5.911 L146.381,5.911 Z M146.381,11.897 L152.777,11.897 C153.501,11.897 154.053,11.689 154.437,11.272 C154.82,10.856 155.012,10.3 155.012,9.607 C155.012,8.928 154.82,8.378 154.437,7.953 C154.053,7.529 153.5,7.317 152.777,7.317 L146.381,7.317 L146.381,11.897 L146.381,11.897 Z" id="Shape"></path>
                                <path d="M172.838,13.303 L172.838,1.086 L179.851,1.086 C181.061,1.086 182.003,1.384 182.675,1.982 C183.347,2.579 183.683,3.414 183.683,4.483 C183.683,4.919 183.615,5.326 183.478,5.705 C183.341,6.085 183.147,6.427 182.895,6.729 C182.643,7.032 182.338,7.289 181.984,7.499 C181.629,7.708 181.224,7.854 180.773,7.936 L183.829,13.302 L182.146,13.302 L179.09,7.958 L174.354,7.958 L174.354,13.302 L172.838,13.302 L172.838,13.303 Z M174.354,6.53 L179.744,6.53 C181.301,6.53 182.079,5.863 182.079,4.528 C182.079,3.893 181.887,3.395 181.504,3.033 C181.12,2.672 180.559,2.491 179.821,2.491 L174.354,2.491 L174.354,6.53 L174.354,6.53 Z" id="Shape"></path>
                                <path d="M186.02,7.229 C186.02,6.307 186.179,5.452 186.497,4.666 C186.813,3.881 187.251,3.202 187.808,2.631 C188.366,2.059 189.033,1.614 189.812,1.298 C190.59,0.981 191.433,0.821 192.34,0.821 C193.476,0.821 194.509,1.07 195.438,1.569 C196.368,2.067 197.121,2.769 197.696,3.676 L196.424,4.583 C196.033,3.845 195.478,3.272 194.759,2.862 C194.039,2.453 193.234,2.248 192.341,2.248 C191.662,2.248 191.031,2.372 190.448,2.62 C189.865,2.866 189.364,3.209 188.943,3.649 C188.522,4.089 188.191,4.613 187.947,5.226 C187.704,5.838 187.582,6.506 187.582,7.229 C187.582,7.952 187.704,8.616 187.947,9.22 C188.191,9.825 188.522,10.352 188.943,10.798 C189.364,11.245 189.865,11.589 190.448,11.833 C191.031,12.076 191.662,12.198 192.341,12.198 C194.045,12.198 195.384,11.464 196.358,9.995 L196.358,8.203 L193.028,8.203 L193.028,6.798 L197.875,6.798 L197.875,10.471 C197.284,11.496 196.518,12.279 195.573,12.817 C194.628,13.356 193.552,13.626 192.342,13.626 C191.435,13.626 190.592,13.466 189.814,13.149 C189.035,12.832 188.368,12.39 187.81,11.822 C187.253,11.254 186.816,10.58 186.499,9.801 C186.179,9.022 186.02,8.165 186.02,7.229 L186.02,7.229 Z" id="Shape"></path>
                            </g>
                        </g>
                    </g>
                </g>
            </g>
        </g>
    </g>
</svg>