<?xml version="1.0" encoding="UTF-8"?>
<svg width="201px" height="200px" viewBox="0 0 201 200" version="1.1" xmlns="http://www.w3.org/2000/svg" xmlns:xlink="http://www.w3.org/1999/xlink">
    <!-- Generator: Sketch 40.2 (33826) - http://www.bohemiancoding.com/sketch -->
    <title>Layer_1</title>
    <desc>Created with Sketch.</desc>
    <defs></defs>
    <g id="Page-1" stroke="none" stroke-width="1" fill="none" fill-rule="evenodd">
        <g id="Our-partners" transform="translate(-376.000000, -1365.000000)">
            <g id="Content" transform="translate(376.000000, 150.000000)">
                <g id="Support-of-$1m+" transform="translate(0.000000, 908.000000)">
                    <g id="1m_ernst_young" transform="translate(0.000000, 307.000000)">
                        <g id="Layer_1">
                            <rect id="Rectangle-2" fill="#FFFFFF" x="0" y="0" width="200" height="200"></rect>
                            <polygon id="Shape" fill="#FEE600" points="1 89.978 201 17 201 54.684"></polygon>
                            <g id="Group" transform="translate(2.000000, 111.000000)" fill="#818181">
                                <polygon id="Shape" points="21.886 44.42 48.081 44.42 48.081 29.254 21.886 29.254 21.886 17.306 50.838 17.306 41.28 0.67 0.286 0.67 0.286 72.912 58.008 72.912 58.008 56.276 21.886 56.276"></polygon>
                                <polygon id="Shape" points="96.519 0.67 84.294 24.291 71.978 0.67 48.081 0.67 73.265 44.42 73.265 72.912 94.864 72.912 94.864 44.42 120.141 0.67"></polygon>
                            </g>
                        </g>
                    </g>
                </g>
            </g>
        </g>
    </g>
</svg>