<?xml version="1.0" encoding="UTF-8"?>
<svg width="200px" height="200px" viewBox="0 0 200 200" version="1.1" xmlns="http://www.w3.org/2000/svg" xmlns:xlink="http://www.w3.org/1999/xlink">
    <!-- Generator: Sketch 40.2 (33826) - http://www.bohemiancoding.com/sketch -->
    <title>Layer_1</title>
    <desc>Created with Sketch.</desc>
    <defs></defs>
    <g id="Page-1" stroke="none" stroke-width="1" fill="none" fill-rule="evenodd">
        <g id="Our-partners" transform="translate(-645.000000, -1366.000000)">
            <g id="Content" transform="translate(376.000000, 150.000000)">
                <g id="Support-of-$1m+" transform="translate(0.000000, 908.000000)">
                    <g id="corps_1m_google" transform="translate(269.000000, 308.000000)">
                        <g id="Layer_1">
                            <rect id="Rectangle-2" fill="#FFFFFF" x="0" y="0" width="200" height="200"></rect>
                            <g id="Group" opacity="0.54" transform="translate(134.000000, 90.000000)" fill="#010101">
                                <g id="Shape">
                                    <path d="M0.986,18.208 C0.986,16.661 2.207,15.44 3.754,15.44 C5.302,15.44 6.523,16.661 6.523,18.208 C6.523,19.755 5.302,20.976 3.754,20.976 C2.207,20.976 0.986,19.755 0.986,18.208"></path>
                                    <path d="M30.135,10.758 C30.135,16.824 25.861,21.384 19.876,21.384 C13.891,21.384 9.616,16.824 9.616,10.758 C9.616,4.692 13.89,0.132 19.876,0.132 C25.86,0.132 30.135,4.692 30.135,10.758 M26.39,10.758 C26.39,6.198 23.214,3.552 19.876,3.552 C16.537,3.552 13.361,6.198 13.361,10.758 C13.361,15.318 16.537,17.964 19.876,17.964 C23.214,17.964 26.39,15.318 26.39,10.758"></path>
                                    <path d="M33.146,20.732 L33.146,0.783 L36.729,0.783 L36.729,4.04 L36.891,4.04 C37.705,1.76 40.596,0.294 42.672,0.294 C43.894,0.294 44.708,0.457 45.482,0.782 L44.057,4.283 C43.528,4.079 42.875,3.998 42.062,3.998 C39.498,3.998 36.891,6.155 36.891,9.819 L36.891,20.73 L33.146,20.73 L33.146,20.732 Z"></path>
                                    <path d="M46.784,24.355 L50.204,22.93 C50.936,25.047 53.095,26.757 55.781,26.757 C59.934,26.757 62.418,24.069 62.418,19.877 L62.418,17.963 L62.255,17.963 C61.033,19.795 58.631,21.383 55.456,21.383 C50.366,21.383 45.97,16.864 45.97,10.757 C45.97,4.65 50.366,0.131 55.456,0.131 C58.631,0.131 61.033,1.719 62.255,3.551 L62.418,3.551 L62.418,0.783 L66,0.783 L66,19.714 C66,26.961 61.033,30.177 55.781,30.177 C50.529,30.177 47.802,26.758 46.784,24.355 M62.418,10.758 C62.418,6.198 59.405,3.552 56.066,3.552 C52.727,3.552 49.714,6.28 49.714,10.758 C49.714,15.236 52.727,17.964 56.066,17.964 C59.405,17.964 62.418,15.318 62.418,10.758"></path>
                                </g>
                            </g>
                            <g id="Group" transform="translate(0.000000, 78.000000)">
                                <path d="M0,16.692 C0,7.491 7.735,0 16.937,0 C22.026,0 25.649,1.995 28.377,4.6 L25.16,7.816 C23.206,5.984 20.56,4.559 16.936,4.559 C10.218,4.559 4.966,9.974 4.966,16.691 C4.966,23.408 10.218,28.823 16.936,28.823 C21.292,28.823 23.775,27.073 25.363,25.485 C26.666,24.182 27.521,22.31 27.846,19.745 L16.937,19.745 L16.937,15.185 L32.285,15.185 C32.448,15.999 32.529,16.976 32.529,18.035 C32.529,21.454 31.593,25.689 28.58,28.701 C25.649,31.755 21.903,33.383 16.937,33.383 C7.735,33.384 0,25.893 0,16.692" id="Shape" fill="#557EBF"></path>
                                <path d="M44.933,11.888 C38.99,11.888 34.144,16.407 34.144,22.636 C34.144,28.824 38.989,33.384 44.933,33.384 C50.877,33.384 55.722,28.824 55.722,22.636 C55.722,16.407 50.876,11.888 44.933,11.888 M44.933,29.149 C41.676,29.149 38.868,26.462 38.868,22.635 C38.868,18.767 41.677,16.121 44.933,16.121 C48.19,16.121 50.999,18.767 50.999,22.635 C50.999,26.463 48.19,29.149 44.933,29.149" id="Shape" fill="#EA4535"></path>
                                <path d="M68.468,11.888 C62.524,11.888 57.679,16.407 57.679,22.636 C57.679,28.824 62.524,33.384 68.468,33.384 C74.411,33.384 79.257,28.824 79.257,22.636 C79.257,16.407 74.412,11.888 68.468,11.888 M68.468,29.149 C65.211,29.149 62.402,26.462 62.402,22.635 C62.402,18.767 65.211,16.121 68.468,16.121 C71.725,16.121 74.534,18.767 74.534,22.635 C74.534,26.463 71.725,29.149 68.468,29.149" id="Shape" fill="#F9BC15"></path>
                                <path d="M97.356,12.539 L97.356,14.289 L97.193,14.289 C96.134,13.027 94.099,11.887 91.534,11.887 C86.16,11.887 81.234,16.61 81.234,22.676 C81.234,28.701 86.16,33.383 91.534,33.383 C94.099,33.383 96.135,32.243 97.193,30.94 L97.356,30.94 L97.356,32.487 C97.356,36.599 95.158,38.797 91.616,38.797 C88.725,38.797 86.934,36.721 86.201,34.971 L82.089,36.68 C83.269,39.53 86.404,43.032 91.615,43.032 C97.152,43.032 101.834,39.775 101.834,31.836 L101.834,12.539 L97.356,12.539 L97.356,12.539 Z M91.942,29.149 C88.685,29.149 85.957,26.421 85.957,22.676 C85.957,18.89 88.686,16.121 91.942,16.121 C95.158,16.121 97.682,18.89 97.682,22.676 C97.683,26.422 95.158,29.149 91.942,29.149 L91.942,29.149 Z" id="Shape" fill="#557EBF"></path>
                                <rect id="Rectangle-path" fill="#36A852" x="105.092" y="1.14" width="4.723" height="31.592"></rect>
                                <path d="M122.761,29.149 C120.36,29.149 118.649,28.05 117.55,25.892 L131.921,19.948 L131.433,18.727 C130.537,16.325 127.809,11.887 122.232,11.887 C116.695,11.887 112.094,16.243 112.094,22.635 C112.094,28.66 116.655,33.383 122.761,33.383 C127.688,33.383 130.537,30.37 131.718,28.619 L128.054,26.177 C126.832,27.969 125.163,29.149 122.761,29.149 M122.395,16.041 C124.268,16.041 125.856,16.977 126.385,18.321 L116.777,22.311 C116.654,18.157 119.992,16.041 122.395,16.041" id="Shape" fill="#EA4535"></path>
                            </g>
                        </g>
                    </g>
                </g>
            </g>
        </g>
    </g>
</svg>