<?xml version="1.0" encoding="UTF-8"?>
<svg width="200px" height="200px" viewBox="0 0 200 200" version="1.1" xmlns="http://www.w3.org/2000/svg" xmlns:xlink="http://www.w3.org/1999/xlink">
    <!-- Generator: Sketch 40.2 (33826) - http://www.bohemiancoding.com/sketch -->
    <title>corps_1m_moodys</title>
    <desc>Created with Sketch.</desc>
    <defs></defs>
    <g id="Page-1" stroke="none" stroke-width="1" fill="none" fill-rule="evenodd">
        <g id="Our-partners" transform="translate(-645.000000, -1606.000000)">
            <g id="Content" transform="translate(376.000000, 150.000000)">
                <g id="Support-of-$1m+" transform="translate(0.000000, 908.000000)">
                    <g id="corps_1m_moodys" transform="translate(269.000000, 548.000000)">
                        <rect id="Rectangle-2" fill="#FFFFFF" x="0" y="0" width="200" height="200"></rect>
                        <g id="Layer_1" transform="translate(0.000000, 82.000000)">
                            <g id="Group">
                                <path d="M127.961,17.067 C127.961,17.498 128.012,17.498 128.488,17.498 L129.576,17.498 C130.232,17.498 130.743,17.466 130.934,17.402 C131.111,17.338 131.239,17.258 131.334,16.843 L131.477,16.203 C131.558,16.109 131.831,16.109 131.894,16.203 C131.894,16.587 131.831,17.227 131.831,17.818 C131.831,18.392 131.894,19 131.894,19.368 C131.831,19.463 131.589,19.463 131.477,19.368 L131.317,18.744 C131.239,18.457 131.111,18.232 130.807,18.136 C130.583,18.072 130.184,18.057 129.576,18.057 L128.488,18.057 C128.011,18.057 127.961,18.071 127.961,18.488 L127.961,20.709 C127.961,22.387 127.995,22.626 128.938,22.707 L129.48,22.754 C129.577,22.819 129.546,23.106 129.449,23.154 C128.507,23.123 127.962,23.106 127.325,23.106 C126.621,23.106 126.079,23.124 125.327,23.154 C125.23,23.106 125.199,22.85 125.295,22.754 L125.695,22.707 C126.621,22.595 126.651,22.388 126.651,20.709 L126.651,14.956 C126.651,13.279 126.621,13.055 125.695,12.943 L125.44,12.91 C125.342,12.847 125.375,12.559 125.47,12.511 C126.14,12.544 126.684,12.559 127.324,12.559 L130.264,12.559 C131.285,12.559 132.211,12.559 132.42,12.511 C132.42,13.246 132.436,14.013 132.468,14.62 C132.42,14.717 132.197,14.764 132.086,14.668 C131.956,13.949 131.764,13.357 130.966,13.15 C130.615,13.055 130.087,13.055 129.417,13.055 L128.439,13.055 C127.96,13.055 127.96,13.087 127.96,13.693 L127.96,17.067 L127.961,17.067 Z" id="Shape" fill="#888A8C"></path>
                                <path d="M140.283,19.608 C140.283,21.765 138.653,23.331 136.399,23.331 C133.923,23.331 132.454,21.719 132.454,19.704 C132.454,17.579 134.084,15.949 136.399,15.949 C138.973,15.949 140.283,17.658 140.283,19.608 M133.875,19.448 C133.875,21.094 134.626,22.867 136.479,22.867 C137.693,22.867 138.86,22.036 138.86,19.847 C138.86,18.139 138.045,16.412 136.288,16.412 C135.139,16.412 133.875,17.195 133.875,19.448" id="Shape" fill="#888A8C"></path>
                                <path d="M141.784,17.85 C141.784,16.748 141.706,16.716 141.032,16.572 L140.811,16.524 C140.697,16.445 140.714,16.173 140.842,16.125 C141.384,16.159 141.879,16.173 142.392,16.173 C142.902,16.173 143.398,16.158 144.021,16.125 C144.149,16.173 144.165,16.445 144.053,16.524 L143.749,16.572 C143.061,16.684 142.998,16.749 142.998,17.85 L142.998,20.104 C142.998,21.702 143.525,22.786 145.076,22.786 C146.515,22.786 147.138,21.702 147.138,20.12 L147.138,18.633 C147.138,17.036 147.041,16.668 146.355,16.571 L146.019,16.523 C145.907,16.428 145.923,16.204 146.05,16.124 C146.562,16.158 146.929,16.172 147.392,16.172 C147.857,16.172 148.208,16.157 148.72,16.124 C148.846,16.204 148.846,16.444 148.738,16.523 L148.258,16.571 C147.842,16.619 147.713,17.05 147.713,18.633 L147.713,20.216 C147.713,22.261 146.771,23.331 144.742,23.331 C143.72,23.331 142.949,23.123 142.471,22.66 C141.992,22.181 141.784,21.446 141.784,20.407 L141.784,17.85 L141.784,17.85 Z" id="Shape" fill="#888A8C"></path>
                                <path d="M155.894,18.632 C155.894,17.035 155.798,16.62 155.207,16.572 L154.695,16.523 C154.585,16.427 154.602,16.203 154.728,16.123 C155.319,16.156 155.686,16.171 156.151,16.171 C156.613,16.171 156.964,16.155 157.476,16.123 C157.605,16.203 157.605,16.443 157.493,16.523 L157.013,16.572 C156.599,16.62 156.471,17.051 156.471,18.632 L156.471,21.318 C156.471,21.638 156.471,22.931 156.52,23.171 C156.471,23.268 156.327,23.349 156.183,23.315 C156.008,23.092 155.687,22.755 154.696,21.685 L152.268,19.098 C151.662,18.459 151.246,18.042 151.039,17.867 C150.974,17.867 150.974,18.042 150.974,18.537 L150.974,20.647 C150.974,22.246 151.07,22.66 151.662,22.709 L152.172,22.756 C152.3,22.852 152.269,23.077 152.141,23.157 C151.55,23.126 151.181,23.108 150.718,23.108 C150.255,23.108 149.951,23.126 149.392,23.157 C149.264,23.093 149.264,22.837 149.376,22.756 L149.855,22.709 C150.272,22.661 150.399,22.229 150.399,20.647 L150.399,17.787 C150.399,17.259 150.384,17.037 150.065,16.796 C149.936,16.7 149.633,16.604 149.473,16.573 L149.233,16.524 C149.121,16.428 149.121,16.188 149.264,16.124 C149.871,16.172 150.304,16.172 150.639,16.172 C150.864,16.172 151.088,16.156 151.278,16.124 C151.599,16.731 152.189,17.419 152.844,18.091 L154.344,19.64 C154.697,19.992 155.624,20.999 155.799,21.127 C155.895,21.094 155.895,20.87 155.895,20.486 L155.895,18.632 L155.894,18.632 Z" id="Shape" fill="#888A8C"></path>
                                <path d="M159.33,18.042 C159.33,17.003 159.314,16.731 158.947,16.685 L158.468,16.621 C158.323,16.572 158.341,16.269 158.484,16.222 C159.38,16.158 160.273,16.125 161.569,16.125 C162.464,16.125 163.247,16.222 163.998,16.477 C165.451,16.973 166.203,18.14 166.203,19.61 C166.203,20.871 165.545,22.038 164.269,22.693 C163.549,23.06 162.654,23.188 161.856,23.188 C161.137,23.188 160.418,23.108 159.939,23.108 C159.428,23.108 158.93,23.124 158.309,23.156 C158.181,23.108 158.163,22.835 158.277,22.759 L158.58,22.709 C159.266,22.597 159.331,22.533 159.331,21.43 L159.331,18.042 L159.33,18.042 Z M160.545,21.19 C160.545,22.212 160.706,22.724 161.92,22.724 C163.838,22.724 164.778,21.526 164.778,19.577 C164.778,17.611 163.405,16.587 161.599,16.587 C161.072,16.587 160.767,16.652 160.64,16.763 C160.544,16.828 160.544,17.034 160.544,17.387 L160.544,21.19 L160.545,21.19 Z" id="Shape" fill="#888A8C"></path>
                                <path d="M168.135,20.63 C167.768,20.63 167.72,20.646 167.592,21.014 L167.223,22.036 C167.048,22.547 167.098,22.611 167.399,22.675 L167.832,22.754 C167.96,22.834 167.945,23.122 167.785,23.154 C167.386,23.122 166.969,23.107 166.522,23.107 C166.073,23.107 165.69,23.138 165.403,23.154 C165.259,23.09 165.259,22.833 165.372,22.754 L165.738,22.675 C166.234,22.564 166.411,22.387 166.729,21.621 L168.262,17.946 C168.535,17.29 168.649,16.906 168.678,16.602 C168.965,16.491 169.27,16.187 169.351,15.995 C169.478,15.949 169.575,15.98 169.606,16.076 C169.668,16.236 169.924,17.067 170.294,18.041 L171.731,21.86 C171.924,22.388 172.067,22.595 172.642,22.708 L172.898,22.755 C173.044,22.835 173.011,23.123 172.85,23.155 C172.433,23.123 172.067,23.108 171.524,23.108 C170.95,23.108 170.486,23.123 170.087,23.155 C169.925,23.108 169.909,22.82 170.054,22.755 L170.373,22.708 C170.788,22.645 170.773,22.547 170.58,22.053 L170.197,21.014 C170.069,20.646 170.022,20.63 169.654,20.63 L168.135,20.63 L168.135,20.63 Z M169.397,20.12 C169.812,20.12 169.859,20.087 169.684,19.624 L169.188,18.267 C169.061,17.898 168.997,17.772 168.949,17.691 L168.918,17.691 C168.871,17.755 168.806,17.899 168.663,18.234 L168.087,19.658 C167.912,20.088 167.944,20.121 168.293,20.121 L169.397,20.121 L169.397,20.12 Z" id="Shape" fill="#888A8C"></path>
                                <path d="M174.813,17.051 C174.813,16.637 174.796,16.637 174.478,16.637 L173.982,16.637 C173.009,16.637 172.592,16.731 172.209,17.834 C172.051,17.93 171.872,17.883 171.809,17.753 C171.986,17.066 172.162,16.268 172.241,15.868 C172.306,15.804 172.466,15.804 172.53,15.868 C172.545,16.187 172.769,16.172 173.409,16.172 L177.85,16.172 C178.441,16.172 178.553,16.157 178.682,15.868 C178.793,15.804 178.92,15.837 178.969,15.916 C178.841,16.331 178.777,17.178 178.81,17.786 C178.745,17.913 178.475,17.93 178.413,17.801 C178.299,16.763 177.883,16.636 176.925,16.636 L176.379,16.636 C176.079,16.636 176.03,16.636 176.03,17.05 L176.03,21.428 C176.03,22.531 176.092,22.627 176.779,22.707 L177.211,22.754 C177.325,22.834 177.309,23.108 177.18,23.155 C176.525,23.122 175.917,23.108 175.422,23.108 C174.911,23.108 174.335,23.122 173.664,23.155 C173.537,23.108 173.519,22.834 173.633,22.754 L174.065,22.707 C174.753,22.627 174.815,22.531 174.815,21.428 L174.815,17.051 L174.813,17.051 Z" id="Shape" fill="#888A8C"></path>
                                <path d="M180.806,17.85 C180.806,16.748 180.744,16.684 180.057,16.572 L179.752,16.524 C179.64,16.445 179.656,16.173 179.784,16.125 C180.409,16.159 180.901,16.173 181.414,16.173 C181.925,16.173 182.421,16.158 183.044,16.125 C183.173,16.173 183.187,16.445 183.075,16.524 L182.773,16.572 C182.085,16.684 182.02,16.749 182.02,17.85 L182.02,21.429 C182.02,22.532 182.085,22.596 182.773,22.708 L183.075,22.755 C183.186,22.835 183.173,23.109 183.044,23.155 C182.436,23.123 181.908,23.108 181.414,23.108 C180.901,23.108 180.409,23.123 179.784,23.155 C179.656,23.108 179.639,22.834 179.752,22.755 L180.057,22.708 C180.745,22.596 180.806,22.532 180.806,21.429 L180.806,17.85 L180.806,17.85 Z" id="Shape" fill="#888A8C"></path>
                                <path d="M191.178,19.608 C191.178,21.765 189.548,23.331 187.292,23.331 C184.817,23.331 183.346,21.719 183.346,19.704 C183.346,17.579 184.978,15.949 187.292,15.949 C189.865,15.949 191.178,17.658 191.178,19.608 M184.771,19.448 C184.771,21.094 185.521,22.867 187.374,22.867 C188.588,22.867 189.756,22.036 189.756,19.847 C189.756,18.139 188.941,16.412 187.183,16.412 C186.031,16.412 184.771,17.195 184.771,19.448" id="Shape" fill="#888A8C"></path>
                                <path d="M198.319,18.632 C198.319,17.035 198.223,16.62 197.632,16.572 L197.119,16.523 C197.008,16.427 197.025,16.203 197.153,16.123 C197.744,16.156 198.11,16.171 198.574,16.171 C199.037,16.171 199.389,16.155 199.899,16.123 C200.029,16.203 200.029,16.443 199.918,16.523 L199.437,16.572 C199.021,16.62 198.894,17.051 198.894,18.632 L198.894,21.318 C198.894,21.638 198.894,22.931 198.943,23.171 C198.894,23.268 198.752,23.349 198.608,23.315 C198.43,23.092 198.111,22.755 197.12,21.685 L194.693,19.098 C194.084,18.459 193.668,18.042 193.461,17.867 C193.399,17.867 193.399,18.042 193.399,18.537 L193.399,20.647 C193.399,22.246 193.495,22.66 194.085,22.709 L194.598,22.756 C194.726,22.852 194.695,23.077 194.564,23.157 C193.975,23.126 193.607,23.108 193.143,23.108 C192.681,23.108 192.376,23.126 191.818,23.157 C191.69,23.093 191.69,22.837 191.802,22.756 L192.281,22.709 C192.697,22.661 192.824,22.229 192.824,20.647 L192.824,17.787 C192.824,17.259 192.806,17.037 192.488,16.796 C192.36,16.7 192.056,16.604 191.897,16.573 L191.656,16.524 C191.546,16.428 191.546,16.188 191.69,16.124 C192.296,16.172 192.73,16.172 193.065,16.172 C193.288,16.172 193.512,16.156 193.703,16.124 C194.023,16.731 194.614,17.419 195.268,18.091 L196.77,19.64 C197.122,19.992 198.048,20.999 198.225,21.127 C198.321,21.094 198.321,20.87 198.321,20.486 L198.321,18.632 L198.319,18.632 Z" id="Shape" fill="#888A8C"></path>
                                <path d="M47.886,20.71 C47.886,22.388 47.917,22.627 48.843,22.708 L49.356,22.755 C49.451,22.82 49.42,23.107 49.325,23.156 C48.412,23.125 47.869,23.107 47.23,23.107 C46.591,23.107 46.032,23.125 45.009,23.156 C44.913,23.107 44.882,22.836 45.009,22.755 L45.584,22.708 C46.494,22.627 46.574,22.388 46.574,20.71 L46.574,13.568 C46.574,13.071 46.574,13.056 46.094,13.056 L45.216,13.056 C44.529,13.056 43.652,13.087 43.251,13.455 C42.867,13.805 42.707,14.158 42.532,14.558 C42.404,14.653 42.18,14.574 42.116,14.446 C42.37,13.727 42.612,12.704 42.722,12.066 C42.77,12.034 42.979,12.017 43.027,12.066 C43.122,12.577 43.651,12.56 44.383,12.56 L50.857,12.56 C51.719,12.56 51.862,12.529 52.102,12.113 C52.182,12.081 52.359,12.097 52.391,12.16 C52.216,12.815 52.102,14.11 52.151,14.59 C52.089,14.718 51.816,14.718 51.734,14.623 C51.688,14.222 51.575,13.632 51.337,13.456 C50.968,13.185 50.361,13.057 49.481,13.057 L48.348,13.057 C47.868,13.057 47.885,13.072 47.885,13.601 L47.885,20.71 L47.886,20.71 Z" id="Shape" fill="#888A8C"></path>
                                <path d="M56.753,19.24 C57.263,19.24 57.328,19.24 57.328,18.825 L57.328,17.85 C57.328,16.748 57.263,16.684 56.578,16.571 L56.274,16.524 C56.162,16.444 56.177,16.172 56.305,16.124 C56.928,16.158 57.424,16.172 57.935,16.172 C58.447,16.172 58.942,16.157 59.565,16.124 C59.691,16.172 59.707,16.444 59.596,16.524 L59.292,16.571 C58.606,16.684 58.542,16.748 58.542,17.85 L58.542,21.429 C58.542,22.532 58.606,22.612 59.292,22.708 L59.659,22.755 C59.772,22.835 59.755,23.109 59.628,23.156 C58.957,23.123 58.429,23.109 57.934,23.109 C57.423,23.109 56.927,23.123 56.304,23.156 C56.176,23.109 56.16,22.835 56.273,22.755 L56.577,22.708 C57.262,22.596 57.327,22.532 57.327,21.429 L57.327,20.168 C57.327,19.768 57.296,19.753 56.752,19.753 L53.94,19.753 C53.398,19.753 53.363,19.768 53.363,20.168 L53.363,21.429 C53.363,22.532 53.428,22.628 54.116,22.708 L54.548,22.755 C54.659,22.835 54.645,23.109 54.516,23.156 C53.781,23.123 53.254,23.109 52.759,23.109 C52.247,23.109 51.751,23.123 51.257,23.156 C51.129,23.109 51.113,22.835 51.226,22.755 L51.401,22.708 C52.072,22.532 52.152,22.532 52.152,21.429 L52.152,17.85 C52.152,16.748 52.088,16.668 51.401,16.571 L51.033,16.524 C50.923,16.444 50.939,16.172 51.064,16.124 C51.752,16.158 52.248,16.172 52.76,16.172 C53.271,16.172 53.765,16.157 54.324,16.124 C54.452,16.172 54.469,16.444 54.356,16.524 L54.117,16.571 C53.447,16.7 53.364,16.748 53.364,17.85 L53.364,18.826 C53.364,19.241 53.429,19.241 53.941,19.241 L56.753,19.241 L56.753,19.24 Z" id="Shape" fill="#888A8C"></path>
                                <path d="M61.579,17.85 C61.579,16.748 61.517,16.7 60.907,16.572 L60.685,16.524 C60.572,16.462 60.589,16.189 60.717,16.125 C61.18,16.159 61.675,16.173 62.202,16.173 L64.473,16.173 C65.176,16.173 65.814,16.158 65.957,16.125 C65.974,16.317 66.054,17.068 66.135,17.755 C66.07,17.884 65.814,17.899 65.718,17.787 C65.621,17.372 65.525,17.164 65.429,17.021 C65.176,16.637 64.457,16.637 64.071,16.637 L63.37,16.637 C62.81,16.637 62.793,16.652 62.793,17.149 L62.793,18.921 C62.793,19.208 62.793,19.241 63.097,19.241 L63.849,19.241 C64.695,19.241 64.774,19.111 64.903,18.633 L64.982,18.329 C65.062,18.218 65.303,18.233 65.382,18.361 C65.349,18.825 65.349,19.111 65.349,19.481 C65.349,19.88 65.349,20.169 65.382,20.631 C65.302,20.759 65.061,20.776 64.982,20.662 L64.903,20.359 C64.775,19.88 64.695,19.751 63.849,19.751 L63.097,19.751 C62.793,19.751 62.793,19.8 62.793,20.121 L62.793,21.271 C62.793,21.751 62.827,22.247 62.969,22.421 C63.114,22.58 63.401,22.646 64.312,22.646 C65.334,22.646 65.926,22.597 66.388,21.319 C66.5,21.207 66.757,21.239 66.805,21.382 C66.724,22.054 66.5,22.852 66.325,23.156 C65.319,23.124 64.472,23.109 63.607,23.109 L62.201,23.109 C61.69,23.109 61.194,23.124 60.428,23.156 C60.3,23.109 60.285,22.835 60.397,22.756 L60.827,22.709 C61.516,22.629 61.578,22.533 61.578,21.43 L61.578,17.85 L61.579,17.85 Z" id="Shape" fill="#888A8C"></path>
                                <path d="M75.99,18.843 C76.356,19.593 76.708,20.329 77.092,21.03 L77.123,21.03 C77.555,20.281 77.954,19.45 78.354,18.634 L79.854,15.583 C80.573,14.128 81.036,13.25 81.07,12.515 C81.612,12.562 81.947,12.562 82.268,12.562 C82.666,12.562 83.194,12.546 83.691,12.515 C83.785,12.578 83.785,12.85 83.705,12.914 L83.37,12.945 C82.362,13.042 82.237,13.345 82.251,14.464 C82.284,16.157 82.3,19.112 82.427,21.413 C82.474,22.212 82.458,22.643 83.209,22.707 L83.722,22.755 C83.815,22.851 83.8,23.09 83.69,23.156 C83.034,23.123 82.378,23.108 81.804,23.108 C81.244,23.108 80.525,23.124 79.87,23.156 C79.758,23.076 79.742,22.851 79.838,22.755 L80.301,22.707 C81.082,22.627 81.082,22.372 81.082,21.35 L81.034,14.687 L81.003,14.687 C80.892,14.863 80.285,16.142 79.967,16.764 L78.544,19.561 C77.824,20.967 77.105,22.469 76.818,23.205 C76.786,23.251 76.721,23.267 76.659,23.267 C76.626,23.267 76.548,23.251 76.514,23.205 C76.243,22.356 75.476,20.791 75.108,20.009 L73.671,16.925 C73.336,16.19 73,15.358 72.65,14.624 L72.616,14.624 C72.554,15.615 72.505,16.541 72.457,17.468 C72.409,18.443 72.346,19.865 72.346,21.223 C72.346,22.405 72.443,22.66 73.065,22.708 L73.673,22.756 C73.784,22.852 73.77,23.109 73.657,23.157 C73.113,23.124 72.49,23.109 71.884,23.109 C71.371,23.109 70.796,23.125 70.254,23.157 C70.157,23.077 70.126,22.836 70.221,22.756 L70.572,22.708 C71.244,22.612 71.469,22.517 71.563,21.399 C71.66,20.343 71.739,19.464 71.835,17.882 C71.915,16.555 71.979,15.198 72.01,14.319 C72.042,13.314 71.915,13.074 70.939,12.945 L70.685,12.914 C70.606,12.818 70.62,12.578 70.747,12.515 C71.227,12.547 71.61,12.562 72.01,12.562 C72.378,12.562 72.809,12.562 73.336,12.515 C73.272,13.138 73.672,14.128 74.166,15.151 L75.99,18.843 L75.99,18.843 Z" id="Shape" fill="#263B93"></path>
                                <path d="M91.74,19.61 C91.74,21.765 90.11,23.331 87.857,23.331 C85.381,23.331 83.912,21.717 83.912,19.705 C83.912,17.58 85.54,15.951 87.857,15.951 C90.431,15.951 91.74,17.66 91.74,19.61 M85.333,19.449 C85.333,21.095 86.084,22.868 87.937,22.868 C89.152,22.868 90.318,22.037 90.318,19.848 C90.318,18.139 89.503,16.413 87.745,16.413 C86.597,16.414 85.333,17.196 85.333,19.449" id="Shape" fill="#263B93"></path>
                                <path d="M100.064,19.61 C100.064,21.765 98.434,23.331 96.181,23.331 C93.704,23.331 92.234,21.717 92.234,19.705 C92.234,17.58 93.864,15.951 96.181,15.951 C98.755,15.951 100.064,17.66 100.064,19.61 M93.657,19.449 C93.657,21.095 94.407,22.868 96.261,22.868 C97.475,22.868 98.641,22.037 98.641,19.848 C98.641,18.139 97.827,16.413 96.068,16.413 C94.919,16.414 93.657,17.196 93.657,19.449" id="Shape" fill="#263B93"></path>
                                <path d="M101.628,18.043 C101.628,17.003 101.611,16.732 101.245,16.684 L100.765,16.621 C100.623,16.572 100.638,16.27 100.781,16.222 C101.677,16.158 102.571,16.126 103.867,16.126 C104.762,16.126 105.544,16.222 106.295,16.478 C107.747,16.974 108.498,18.14 108.498,19.611 C108.498,20.871 107.844,22.039 106.565,22.693 C105.846,23.061 104.951,23.189 104.154,23.189 C103.431,23.189 102.716,23.109 102.234,23.109 C101.725,23.109 101.227,23.125 100.606,23.157 C100.479,23.109 100.461,22.836 100.576,22.757 L100.878,22.709 C101.564,22.599 101.628,22.533 101.628,21.431 L101.628,18.043 L101.628,18.043 Z M102.842,21.192 C102.842,22.213 103.004,22.725 104.218,22.725 C106.134,22.725 107.078,21.527 107.078,19.579 C107.078,17.612 105.704,16.59 103.897,16.59 C103.37,16.59 103.065,16.654 102.938,16.765 C102.841,16.83 102.841,17.037 102.841,17.389 L102.841,21.192 L102.842,21.192 Z" id="Shape" fill="#263B93"></path>
                                <path d="M111.295,20.982 C111.295,20.487 111.244,20.359 110.845,19.625 L109.681,17.468 C109.345,16.829 109.184,16.684 108.77,16.605 L108.354,16.525 C108.243,16.43 108.275,16.174 108.403,16.126 C108.93,16.158 109.297,16.174 109.873,16.174 C110.352,16.174 110.72,16.158 111.23,16.126 C111.359,16.19 111.407,16.447 111.245,16.525 L111.022,16.572 C110.672,16.654 110.624,16.749 110.878,17.244 L111.469,18.379 C111.725,18.858 111.949,19.291 112.19,19.705 C112.444,19.275 112.683,18.891 112.955,18.379 L113.597,17.212 C113.834,16.764 113.868,16.621 113.484,16.572 L113.148,16.525 C113.004,16.446 113.021,16.19 113.18,16.126 C113.66,16.158 114.027,16.174 114.394,16.174 C114.745,16.174 115.082,16.158 115.531,16.126 C115.657,16.174 115.689,16.447 115.561,16.525 L115.177,16.605 C114.682,16.701 114.603,16.796 114.107,17.595 L113.118,19.193 C112.542,20.104 112.511,20.264 112.511,20.727 L112.511,21.59 C112.511,22.532 112.574,22.628 113.26,22.708 L113.661,22.756 C113.772,22.835 113.757,23.108 113.629,23.156 C112.925,23.124 112.397,23.108 111.902,23.108 C111.391,23.108 110.895,23.124 110.177,23.156 C110.047,23.108 110.031,22.835 110.144,22.756 L110.544,22.708 C111.231,22.628 111.296,22.532 111.296,21.59 L111.296,20.982 L111.295,20.982 Z" id="Shape" fill="#263B93"></path>
                                <path d="M118.18,14.309 C118.18,15.412 117.317,16.179 116.309,16.483 C116.183,16.419 116.119,16.259 116.198,16.147 C116.79,15.876 117.413,15.428 117.413,14.773 C117.413,14.166 116.919,13.895 116.615,13.879 C116.389,13.862 116.183,13.734 116.183,13.432 C116.183,13.192 116.326,12.777 116.949,12.777 C117.605,12.776 118.18,13.479 118.18,14.309" id="Shape" fill="#263B93"></path>
                                <path d="M119.154,19.849 C118.387,19.45 117.731,18.826 117.731,17.932 C117.731,16.765 118.625,15.951 120.242,15.951 C120.799,15.951 121.183,16.095 121.726,16.19 C121.853,16.462 121.965,17.069 121.95,17.755 C121.902,17.883 121.613,17.899 121.533,17.787 C121.406,17.228 120.991,16.413 120.049,16.413 C119.106,16.413 118.754,16.955 118.754,17.499 C118.754,18.075 119.185,18.426 119.824,18.762 L120.814,19.274 C121.388,19.561 122.11,20.231 122.11,21.302 C122.11,22.549 121.088,23.331 119.505,23.331 C118.529,23.331 117.893,22.997 117.669,22.835 C117.524,22.612 117.331,22.038 117.331,21.191 C117.395,21.028 117.635,21.014 117.746,21.158 C117.875,21.732 118.579,22.867 119.648,22.867 C120.462,22.867 120.991,22.45 120.991,21.716 C120.991,21.206 120.783,20.679 119.873,20.216 L119.154,19.849 L119.154,19.849 Z" id="Shape" fill="#263B93"></path>
                                <path d="M5.291,15.069 C5.598,14.896 5.96,14.721 6.479,14.653 C6.974,14.589 7.535,14.729 7.935,15.06 C8.673,15.671 8.777,16.8 8.167,17.434 C7.52,18.107 6.507,18.142 5.989,17.519 C5.288,16.674 5.824,15.494 6.753,15.306 C6.903,15.276 6.95,14.978 6.688,14.977 C5.385,14.971 4.586,16.262 5.02,17.329 C5.572,18.688 7.18,19.018 8.375,18.271 C9.528,17.55 9.721,15.853 8.809,14.854 C7.953,13.918 6.16,13.88 5.18,14.785 C4.969,14.979 5.134,15.157 5.291,15.069" id="Shape" fill="#888A8C"></path>
                                <path d="M14.048,2.929 C14.042,2.119 14.283,1.667 14.528,1.346 C15.12,0.571 16.365,0.583 17.044,1.092 C17.886,1.723 17.751,3.212 16.931,3.637 C15.735,4.255 14.585,3.224 14.852,2.096 C14.903,1.888 14.633,1.787 14.52,1.996 C14.267,2.466 14.242,3.481 14.717,4 C15.133,4.455 15.803,4.675 16.512,4.571 C18.099,4.336 18.746,2.593 18.111,1.235 C17.487,-0.105 15.572,-0.378 14.481,0.531 C13.774,1.12 13.559,2.12 13.718,2.929 C13.773,3.21 14.048,3.175 14.048,2.929" id="Shape" fill="#888A8C"></path>
                                <path d="M22.531,18.378 C21.759,17.925 20.798,17.953 20.103,18.458 C19.315,19.03 19.084,20.238 19.654,21.042 C20.262,21.897 21.84,21.953 22.359,21.052 C23.028,19.892 21.96,18.615 20.82,18.838 C20.611,18.878 20.518,18.622 20.728,18.518 C21.209,18.285 22.252,18.352 22.751,18.845 C23.189,19.277 23.381,19.949 23.25,20.649 C22.952,22.219 21.166,22.828 19.854,22.106 C18.459,21.336 18.364,19.447 19.279,18.367 C20.11,17.384 21.834,17.284 22.701,18.095 C22.875,18.258 22.673,18.452 22.531,18.378" id="Shape" fill="#888A8C"></path>
                                <path d="M10.759,17.002 C10.654,17.002 10.538,16.919 10.529,16.687 C10.372,12.312 12.031,8.656 12.988,7.605 C12.468,7.471 11.88,7.403 11.244,7.403 C10.222,7.403 9.134,7.584 8.18,7.913 C8.146,7.926 8.11,7.933 8.074,7.933 C7.97,7.933 7.883,7.876 7.845,7.786 C7.806,7.683 7.84,7.562 7.937,7.47 C9.645,5.848 11.731,4.715 13.935,4.229 C13.966,4.222 13.997,4.218 14.029,4.218 C14.27,4.218 14.404,4.43 14.428,4.641 C14.453,4.873 14.354,5.152 14.074,5.217 C12.314,5.63 10.857,6.079 9.226,7.033 C10.056,6.824 10.938,6.714 11.796,6.714 C12.594,6.714 13.344,6.813 13.962,7.001 C14.109,7.046 14.216,7.147 14.26,7.285 C14.31,7.44 14.273,7.628 14.168,7.764 C13.204,8.998 11.42,11.282 11.154,15.431 C11.757,14.32 12.695,12.777 13.874,11.473 C15.432,9.751 17.005,8.876 18.547,8.876 C18.925,8.876 19.308,8.93 19.683,9.036 C20.72,9.332 21.535,9.886 22.165,10.727 C22.023,8.896 21.239,7.857 19.555,7.263 C19.305,7.174 19.141,7.093 19.091,6.957 C19.058,6.87 19.078,6.765 19.151,6.639 C19.908,5.308 22.569,4.303 24.044,3.904 C23.637,3.884 23.18,3.873 22.731,3.873 C21.853,3.873 20.254,3.917 19.073,4.218 C18.993,4.239 18.917,4.249 18.843,4.249 C18.473,4.249 18.295,3.995 18.286,3.758 C18.275,3.494 18.468,3.195 18.922,3.159 C19.339,3.125 19.822,3.107 20.408,3.107 C21.527,3.107 23.781,3.173 26.325,3.621 C26.439,3.662 26.514,3.784 26.501,3.899 C26.493,3.992 26.426,4.056 26.328,4.069 C23.133,4.501 21.11,5.828 20.5,6.639 C22.191,7.399 23.062,9.512 22.527,11.573 C22.508,11.647 22.449,11.693 22.374,11.693 C22.314,11.693 22.258,11.665 22.218,11.618 C21.136,10.312 20.045,9.73 18.685,9.73 C18.621,9.73 18.556,9.731 18.491,9.734 C18.1,9.75 17.03,9.923 15.47,11.191 C13.938,12.439 12.454,14.319 11.061,16.781 C10.984,16.92 10.87,17.002 10.759,17.002" id="Shape" fill="#888A8C"></path>
                                <path d="M13.264,35.323 C13.216,35.323 13.173,35.304 13.139,35.269 C13.105,35.233 13.068,35.163 13.077,35.029 C13.392,30.085 15.975,26.858 17.743,25.786 C15.69,25.347 14.435,24.735 12.77,23.3 C12.676,23.22 12.639,23.121 12.673,23.032 C12.703,22.953 12.779,22.902 12.872,22.902 C12.925,22.902 12.979,22.919 13.029,22.952 C14.835,24.149 16.655,24.689 18.416,24.941 C18.735,24.987 18.956,25.154 19.024,25.399 C19.11,25.714 18.978,26.157 18.564,26.393 C16.86,27.359 14.733,29.815 13.921,33.253 C15.838,30.199 18.059,28.563 20.963,27.75 C22.798,27.234 26.405,28.043 27.328,29.542 C26.832,27.625 26.081,26.338 24.181,25.822 C23.927,25.753 23.75,25.547 23.739,25.309 C23.728,25.053 23.911,24.825 24.23,24.706 C25.737,24.141 27.053,23.365 28.371,22.462 C28.837,22.147 29.453,21.466 29.868,20.985 C27.607,22.085 25.777,22.578 23.588,22.678 L23.547,22.678 C23.149,22.678 22.938,22.416 22.932,22.155 C22.926,21.911 23.102,21.655 23.506,21.639 C24.91,21.581 25.782,21.53 27.333,21.14 C28.554,20.836 29.896,20.382 30.916,19.902 C30.952,19.885 30.987,19.877 31.021,19.877 C31.098,19.877 31.166,19.92 31.207,19.996 C31.259,20.094 31.257,20.224 31.194,20.321 C30.879,20.809 30.759,20.965 30.358,21.42 L30.294,21.493 C29.811,22.038 29.173,22.742 28.735,23.083 C27.725,23.871 26.753,24.529 25.395,25.117 C27.684,26.007 27.832,28.766 27.928,30.66 C27.933,30.77 27.907,30.863 27.851,30.923 C27.814,30.961 27.766,30.984 27.714,30.984 C27.626,30.984 27.541,30.916 27.493,30.803 C26.502,28.537 22.455,28.42 20.951,28.877 C17.797,29.832 15.609,31.637 13.503,35.165 C13.446,35.262 13.355,35.323 13.264,35.323" id="Shape" fill="#888A8C"></path>
                                <path d="M18.883,22.993 C14.193,22.915 10.195,21.644 7.625,19.415 C7.544,19.345 7.517,19.247 7.554,19.152 C7.591,19.051 7.69,18.98 7.796,18.98 C7.841,18.98 7.887,18.993 7.926,19.019 C10.496,20.642 13.322,21.775 18.763,22.028 C19.175,22.048 19.385,22.315 19.379,22.569 C19.374,22.775 19.222,22.993 18.897,22.993 L18.883,22.993 L18.883,22.993 Z" id="Shape" fill="#888A8C"></path>
                                <path d="M7.042,31.197 C6.98,31.197 6.917,31.172 6.873,31.128 C6.832,31.086 6.812,31.036 6.812,30.977 C6.818,29.606 6.346,26.02 4.847,23.697 C4.597,23.308 4.185,22.891 3.79,22.891 L3.77,22.891 C3.102,22.913 2.013,24.085 1.353,26.224 C1.305,26.385 1.197,26.49 1.081,26.49 C0.981,26.49 0.893,26.412 0.842,26.281 C0.62,25.714 -0.094,23.721 0.01,21.918 C0.121,19.998 0.865,18.138 2.254,17.066 C2.512,16.867 2.506,16.488 2.501,16.086 C2.498,15.951 2.497,15.81 2.505,15.672 C2.617,13.796 3.107,12.081 3.919,10.714 C4.776,9.271 5.937,8.329 7.276,7.989 C7.331,7.975 7.385,7.967 7.432,7.967 C7.554,7.967 7.64,8.015 7.67,8.097 C7.71,8.205 7.64,8.348 7.483,8.48 C6.33,9.449 5.006,11.221 5.255,14.169 C5.265,14.228 5.249,14.288 5.21,14.334 C5.164,14.385 5.096,14.416 5.028,14.416 C4.962,14.416 4.906,14.385 4.876,14.33 C4.358,12.186 5.073,10.554 5.511,9.812 C3.895,11.202 3.137,14.144 3.1,16.505 C3.097,16.608 3.106,16.69 3.11,16.762 C3.126,16.974 3.136,17.092 2.907,17.31 C1.348,18.801 0.803,20.435 0.857,22.307 C0.88,23.162 0.951,23.959 1.206,25.04 C1.754,23.752 2.146,22.789 3.147,22.267 C3.475,22.097 3.816,22.006 4.131,22.006 C4.551,22.006 4.921,22.159 5.228,22.463 C6.03,23.257 7.041,26.13 7.304,29.2 C8.053,26.436 7.86,23.9 6.73,21.658 C6.653,21.505 6.665,21.317 6.764,21.159 C6.852,21.013 6.994,20.928 7.139,20.928 C7.224,20.928 7.305,20.955 7.383,21.011 C8.371,21.706 10.02,22.279 11.393,22.399 C11.571,22.415 11.651,22.531 11.649,22.639 C11.649,22.766 11.543,22.904 11.338,22.92 C11.155,22.934 10.967,22.941 10.783,22.941 C9.57,22.941 8.619,22.649 8.125,22.456 C9.353,26.688 7.592,30.389 7.225,31.093 C7.188,31.158 7.122,31.197 7.042,31.197" id="Shape" fill="#888A8C"></path>
                                <path d="M36.461,8.604 C36.233,7.902 35.248,7.444 34.663,7.438 C34.545,7.452 34.485,7.532 34.481,7.605 C34.475,7.684 34.526,7.748 34.613,7.771 C35.188,7.925 35.593,8.366 35.674,8.92 C35.753,9.495 35.461,10.046 34.89,10.391 C34.738,10.484 34.562,10.543 34.367,10.566 C34.308,10.573 34.245,10.577 34.183,10.577 C33.773,10.577 33.334,10.423 33.006,10.163 C32.687,9.911 32.491,9.577 32.451,9.221 C32.335,8.17 33.263,7.219 34.138,7.103 C34.257,7.089 34.36,7.082 34.465,7.082 C34.908,7.082 35.36,7.208 35.842,7.469 C35.884,7.492 35.927,7.503 35.967,7.503 C35.975,7.503 35.984,7.503 35.989,7.502 C36.054,7.495 36.103,7.457 36.12,7.401 C36.138,7.332 36.103,7.25 36.021,7.183 C35.521,6.775 34.833,6.53 34.185,6.53 C34.082,6.53 33.982,6.535 33.882,6.548 C33.706,6.569 33.53,6.61 33.365,6.669 C33.26,6.706 33.157,6.752 33.06,6.803 C33.03,6.769 32.996,6.735 32.959,6.696 L32.957,6.692 L32.954,6.688 C32.417,6.122 31.807,5.636 31.12,5.23 C29.972,4.553 28.608,4.096 26.999,3.845 C26.988,3.844 26.976,3.843 26.965,3.843 C26.875,3.843 26.785,3.906 26.755,3.992 C26.729,4.063 26.752,4.134 26.812,4.18 C28.814,5.746 30.028,8.049 30.062,10.344 C28.561,10.677 25.883,12.142 24.997,14.69 C24.958,14.796 24.968,14.901 25.022,14.976 C25.07,15.045 25.15,15.082 25.244,15.082 C25.261,15.082 25.278,15.081 25.298,15.079 C25.715,15.02 26.153,14.99 26.59,14.99 C28.209,14.99 29.831,15.407 30.626,16.027 C31.043,16.352 31.648,17.217 31.853,17.642 C31.907,17.751 31.981,17.813 32.057,17.813 C32.1,17.813 32.137,17.793 32.165,17.76 C32.21,17.704 32.225,17.616 32.205,17.516 C31.813,15.241 30.501,14.225 27.953,14.225 C27.316,14.225 26.605,14.287 25.779,14.412 C26.282,13.404 27.592,11.697 30.803,11.139 C31.07,11.094 31.171,10.806 31.153,10.541 C30.965,7.873 29.379,5.607 27.84,4.48 C29.782,5.006 31.096,5.805 32.209,7.128 C32.246,7.171 32.311,7.24 32.382,7.307 C32.082,7.616 31.852,7.99 31.725,8.4 C31.519,9.07 31.616,9.723 31.996,10.24 C32.488,10.905 33.314,11.319 34.152,11.319 C34.256,11.319 34.358,11.313 34.459,11.3 C35.064,11.227 35.595,10.945 35.991,10.48 C36.478,9.909 36.654,9.208 36.461,8.604" id="Shape" fill="#888A8C"></path>
                                <path d="M35.186,17.998 C35.182,17.864 35.114,17.853 35.092,17.853 C35.024,17.853 34.963,17.936 34.947,18.053 C34.565,20.691 33.353,22.892 32.778,23.883 C33.017,22.739 33.087,20.807 32.792,19.43 L32.792,19.427 C35.348,17.953 37.036,14.838 35.8,11.396 C35.767,11.304 35.712,11.289 35.68,11.289 C35.646,11.289 35.609,11.309 35.583,11.343 C35.548,11.389 35.535,11.452 35.552,11.51 C35.74,12.223 35.802,12.885 35.771,13.491 C35.751,13.895 35.69,14.277 35.598,14.633 C35.576,14.723 35.553,14.81 35.524,14.896 C35.473,15.068 35.413,15.234 35.348,15.394 C35.315,15.474 35.282,15.552 35.245,15.629 C35.14,15.859 35.025,16.076 34.901,16.279 C34.614,16.751 34.293,17.147 33.995,17.462 C33.91,17.552 33.825,17.636 33.745,17.713 C33.705,17.751 33.665,17.789 33.629,17.824 C33.552,17.895 33.478,17.959 33.41,18.016 C33.308,18.101 33.219,18.172 33.143,18.228 C33.761,16.903 33.803,14.673 33.209,13.789 C33.192,13.766 33.166,13.752 33.135,13.752 C33.094,13.752 33.049,13.776 33.02,13.81 C33,13.836 32.993,13.866 33,13.895 C33.358,15.381 32.824,18.024 31.529,19.369 C31.377,19.528 31.319,19.699 31.373,19.829 C31.409,19.91 31.484,19.958 31.581,19.958 C31.618,19.958 31.657,19.951 31.697,19.936 C31.907,19.861 32.112,19.772 32.313,19.677 C32.4,21.601 31.996,24.559 31.402,26.258 C31.339,26.437 31.336,26.587 31.396,26.672 C31.427,26.717 31.475,26.739 31.53,26.739 C31.616,26.739 31.718,26.685 31.825,26.583 C32.287,26.142 32.943,25.298 33.554,24.187 C33.649,24.015 33.741,23.837 33.831,23.653 C33.876,23.563 33.922,23.468 33.965,23.375 C34.231,22.807 34.475,22.187 34.674,21.532 C34.708,21.423 34.739,21.314 34.771,21.201 C35.015,20.31 35.174,19.357 35.186,18.368 C35.188,18.246 35.187,18.122 35.186,17.998" id="Shape" fill="#888A8C"></path>
                            </g>
                        </g>
                    </g>
                </g>
            </g>
        </g>
    </g>
</svg>