<?xml version="1.0" encoding="UTF-8"?>
<svg width="201px" height="200px" viewBox="0 0 201 200" version="1.1" xmlns="http://www.w3.org/2000/svg" xmlns:xlink="http://www.w3.org/1999/xlink">
    <!-- Generator: Sketch 40.2 (33826) - http://www.bohemiancoding.com/sketch -->
    <title>corps_1m_metlife</title>
    <desc>Created with Sketch.</desc>
    <defs></defs>
    <g id="Page-1" stroke="none" stroke-width="1" fill="none" fill-rule="evenodd">
        <g id="Our-partners" transform="translate(-376.000000, -1606.000000)">
            <g id="Content" transform="translate(376.000000, 150.000000)">
                <g id="Support-of-$1m+" transform="translate(0.000000, 908.000000)">
                    <g id="corps_1m_metlife" transform="translate(0.000000, 548.000000)">
                        <rect id="Rectangle-2" fill="#FFFFFF" x="0" y="0" width="200" height="200"></rect>
                        <g id="Layer_1" transform="translate(1.000000, 65.000000)" fill="#096BB5">
                            <path d="M86.581,22.301 L72.596,22.301 C72.596,25.004 74.017,26.464 76.76,26.464 C78.183,26.464 79.203,25.988 79.936,24.747 L86.324,24.747 C85.267,29.163 81.067,31.173 76.798,31.173 C70.589,31.173 65.954,27.669 65.954,21.207 C65.954,14.962 70.224,11.202 76.323,11.202 C82.821,11.202 86.582,15.219 86.582,21.606 L86.582,22.301 L86.581,22.301 Z M80.411,18.469 C80.08,16.678 78.437,15.511 76.647,15.511 C74.713,15.511 73.106,16.532 72.704,18.469 L80.411,18.469 L80.411,18.469 Z" id="Shape"></path>
                            <polyline id="Shape" points="98.276 30.844 91.632 30.844 91.632 17.592 88.313 17.592 88.313 12.114 91.632 12.114 91.632 6.493 98.276 6.493 98.276 12.114 101.552 12.114 101.552 17.592 98.276 17.592 98.276 30.844"></polyline>
                            <path d="M142.059,30.762 L135.41,30.762 L135.41,18.16 L132.103,18.16 L132.103,12.683 L135.41,12.683 L135.41,11.703 C135.41,9.112 135.485,7.215 137.31,5.133 C138.957,3.195 141.329,2.138 143.847,2.138 C144.868,2.138 145.78,2.321 146.693,2.794 L146.693,8.528 C145.928,8.196 145.232,7.904 144.359,7.904 C142.641,7.904 142.059,8.929 142.059,11.044 L142.059,12.682 L146.027,12.682 L146.027,18.159 L142.059,18.159 L142.059,30.762" id="Shape"></path>
                            <path d="M168.119,22.315 L154.132,22.315 C154.132,25.015 155.559,26.475 158.295,26.475 C159.721,26.475 160.74,26.002 161.473,24.758 L167.864,24.758 C166.805,29.175 162.603,31.184 158.333,31.184 C152.126,31.184 147.492,27.679 147.492,21.217 C147.492,14.973 151.761,11.214 157.857,11.214 C164.356,11.214 168.12,15.231 168.12,21.62 L168.12,22.315 L168.119,22.315 Z M161.946,18.482 C161.616,16.69 159.978,15.524 158.186,15.524 C156.25,15.524 154.642,16.546 154.243,18.482 L161.946,18.482 L161.946,18.482 Z" id="Shape"></path>
                            <polyline id="Shape" points="35.916 4.609 42.637 4.609 47.962 18.643 53.604 4.609 60.395 4.609 64.364 30.865 57.538 30.865 55.624 15.754 55.553 15.754 49.251 30.865 46.537 30.865 40.511 15.754 40.441 15.754 38.249 30.865 31.458 30.865 35.916 4.609"></polyline>
                            <polyline id="Shape" points="111.299 24.953 119.609 24.953 119.609 30.825 104.362 30.825 104.362 4.149 111.299 4.149 111.299 24.953"></polyline>
                            <rect id="Rectangle-path" x="122.081" y="10.834" width="6.643" height="20.009"></rect>
                            <path d="M129.625,4.149 C129.625,6.443 127.768,8.3 125.476,8.3 C123.185,8.3 121.323,6.443 121.323,4.149 C121.323,1.856 123.185,8.8817842e-16 125.476,8.8817842e-16 C127.768,0 129.625,1.856 129.625,4.149" id="Shape"></path>
                            <polyline id="Shape" points="0 43.199 16.255 43.199 16.255 49.03 7.051 49.03 7.051 53.63 15.034 53.63 15.034 59.31 7.051 59.31 7.051 69.737 0 69.737 0 43.199"></polyline>
                            <path d="M27.874,70.462 C21.874,70.462 17.37,65.915 17.37,60.379 C17.37,54.799 21.913,50.293 27.874,50.293 C33.832,50.293 38.414,54.799 38.414,60.379 C38.413,65.956 33.832,70.462 27.874,70.462 L27.874,70.462 Z M27.874,55.832 C25.429,55.832 23.939,57.593 23.939,60.38 C23.939,63.165 25.428,64.885 27.874,64.885 C30.316,64.885 31.806,63.165 31.806,60.38 C31.805,57.593 30.316,55.832 27.874,55.832 L27.874,55.832 Z" id="Shape"></path>
                            <path d="M60.385,60.533 C60.385,63.474 60.312,65.804 58.132,67.979 C56.449,69.663 53.967,70.463 50.645,70.463 C47.323,70.463 44.878,69.663 43.121,67.979 C41.021,65.957 40.905,63.587 40.905,60.533 L40.905,50.906 L47.244,50.906 L47.244,60.95 C47.244,63.892 48.048,65.423 50.57,65.423 C53.091,65.423 53.892,63.893 53.892,60.95 L53.892,50.905 L60.386,50.905 L60.386,60.533" id="Shape"></path>
                            <path d="M167.761,70.109 C161.763,70.109 157.257,65.567 157.257,60.024 C157.257,54.453 161.805,49.941 167.761,49.941 C173.719,49.941 178.304,54.454 178.304,60.024 C178.304,65.604 173.719,70.109 167.761,70.109 L167.761,70.109 Z M167.761,55.481 C165.318,55.481 163.825,57.242 163.825,60.024 C163.825,62.816 165.317,64.536 167.761,64.536 C170.209,64.536 171.698,62.816 171.698,60.024 C171.697,57.243 170.209,55.481 167.761,55.481 L167.761,55.481 Z" id="Shape"></path>
                            <polyline id="Shape" points="141.755 69.786 135.111 69.786 135.111 56.536 131.789 56.536 131.789 51.058 135.111 51.058 135.111 45.432 141.755 45.432 141.755 51.058 145.03 51.058 145.03 56.536 141.755 56.536 141.755 69.786"></polyline>
                            <rect id="Rectangle-path" x="147.732" y="49.778" width="6.646" height="20.008"></rect>
                            <path d="M155.277,43.09 C155.277,45.381 153.415,47.242 151.128,47.242 C148.835,47.242 146.975,45.381 146.975,43.09 C146.975,40.801 148.835,38.941 151.128,38.941 C153.415,38.941 155.277,40.802 155.277,43.09" id="Shape"></path>
                            <path d="M69.577,53.63 L69.648,53.63 C71.152,51.41 72.977,50.654 75.524,50.654 C80.474,50.654 82.442,53.775 82.442,58.291 L82.442,69.652 L75.919,69.652 L75.919,60.689 C75.919,58.932 76.205,55.852 72.976,55.852 C70.326,55.852 69.576,57.824 69.576,60.119 L69.576,69.653 L63.05,69.653 L63.05,51.263 L69.576,51.263 L69.576,53.63" id="Shape"></path>
                            <path d="M187.135,53.63 L187.207,53.63 C188.712,51.41 190.538,50.654 193.086,50.654 C198.03,50.654 200,53.775 200,58.291 L200,69.652 L193.477,69.652 L193.477,60.689 C193.477,58.932 193.762,55.852 190.539,55.852 C187.889,55.852 187.136,57.824 187.136,60.119 L187.136,69.653 L180.613,69.653 L180.613,51.263 L187.136,51.263 L187.136,53.63" id="Shape"></path>
                            <path d="M99.219,67.867 L99.156,67.867 C98.033,69.66 95.818,70.465 93.711,70.465 C88.375,70.465 84.619,66.011 84.619,60.848 C84.619,55.684 88.305,51.262 93.64,51.262 C95.714,51.262 97.886,52.033 99.219,53.615 L99.219,41.783 L105.613,41.783 L105.613,69.873 L99.219,69.873 L99.219,67.867 L99.219,67.867 Z M91.219,60.881 C91.219,63.162 92.727,64.916 95.324,64.916 C97.925,64.916 99.432,63.162 99.432,60.881 C99.432,58.668 97.924,56.807 95.324,56.807 C92.727,56.808 91.219,58.668 91.219,60.881 L91.219,60.881 Z" id="Shape"></path>
                            <path d="M129.102,69.873 L122.709,69.873 L122.709,67.868 L122.638,67.868 C121.515,69.661 119.307,70.466 117.201,70.466 C111.862,70.466 108.103,66.012 108.103,60.849 C108.103,55.685 111.791,51.263 117.127,51.263 C119.197,51.263 121.376,52.034 122.708,53.616 L122.708,51.86 L129.101,51.86 L129.101,69.873 L129.102,69.873 Z M114.702,60.881 C114.702,63.162 116.214,64.916 118.81,64.916 C121.41,64.916 122.92,63.162 122.92,60.881 C122.92,58.668 121.409,56.807 118.81,56.807 C116.214,56.808 114.702,58.668 114.702,60.881 L114.702,60.881 Z" id="Shape"></path>
                        </g>
                    </g>
                </g>
            </g>
        </g>
    </g>
</svg>