<?xml version="1.0" encoding="UTF-8"?>
<svg width="200px" height="200px" viewBox="0 0 200 200" version="1.1" xmlns="http://www.w3.org/2000/svg" xmlns:xlink="http://www.w3.org/1999/xlink">
    <!-- Generator: Sketch 40.2 (33826) - http://www.bohemiancoding.com/sketch -->
    <title>corps_1m_pepsico</title>
    <desc>Created with Sketch.</desc>
    <defs></defs>
    <g id="Page-1" stroke="none" stroke-width="1" fill="none" fill-rule="evenodd">
        <g id="Our-partners" transform="translate(-645.000000, -1846.000000)">
            <g id="Content" transform="translate(376.000000, 150.000000)">
                <g id="Support-of-$1m+" transform="translate(0.000000, 908.000000)">
                    <g id="corps_1m_pepsico" transform="translate(268.000000, 788.000000)">
                        <rect id="Rectangle-2" fill="#FFFFFF" x="1" y="0" width="200" height="200"></rect>
                        <g id="Layer_1" transform="translate(0.000000, 64.000000)">
                            <path d="M45.164,45.453 L52.333,45.453 L52.333,39.181 L60.014,39.181 C65.1,39.181 66.931,36.186 66.931,32.315 C66.931,27.822 65.05,25.278 59.963,25.278 L45.164,25.278 L45.164,45.453 L45.164,45.453 L45.164,45.453 Z M52.333,30.026 L56.962,30.026 C58.768,30.026 59.455,30.646 59.455,32.172 C59.455,33.642 58.768,34.263 56.962,34.263 L52.333,34.263 L52.333,30.026 L52.333,30.026 L52.333,30.026 Z" id="Shape" fill="#00529C"></path>
                            <polygon id="Shape" fill="#00529C" points="69.296 25.278 88.598 25.278 88.598 30.195 76.468 30.195 76.468 32.907 87.733 32.907 87.733 37.824 76.468 37.824 76.468 40.536 88.598 40.536 88.598 45.453 69.296 45.453"></polygon>
                            <path d="M91.599,45.453 L98.769,45.453 L98.769,39.181 L106.45,39.181 C111.537,39.181 113.367,36.186 113.367,32.315 C113.367,27.822 111.485,25.278 106.399,25.278 L91.599,25.278 L91.599,45.453 L91.599,45.453 L91.599,45.453 Z M98.769,30.026 L103.398,30.026 C105.204,30.026 105.889,30.646 105.889,32.172 C105.889,33.642 105.203,34.263 103.398,34.263 L98.769,34.263 L98.769,30.026 L98.769,30.026 L98.769,30.026 Z" id="Shape" fill="#00529C"></path>
                            <path d="M120.311,36.891 C116.801,36.299 115.351,34.037 115.351,31.211 C115.351,25.983 119.953,24.571 125.855,24.571 C133.941,24.571 137.271,26.917 137.526,31.183 L129.187,31.183 C129.187,30.365 128.752,29.854 128.09,29.572 C127.456,29.263 126.644,29.149 125.855,29.149 C123.717,29.149 122.98,29.742 122.98,30.589 C122.98,31.155 123.209,31.523 123.921,31.634 L132.49,33.048 C136.102,33.642 138.34,35.507 138.34,38.926 C138.34,43.842 134.728,46.158 126.666,46.158 C121.149,46.158 115.122,45.31 115.097,39.377 L123.742,39.377 C123.769,40.054 123.998,40.507 124.506,40.817 C125.039,41.1 125.827,41.243 126.947,41.243 C129.187,41.243 129.796,40.564 129.796,39.604 C129.796,39.01 129.466,38.417 128.499,38.247 L120.311,36.891 L120.311,36.891 L120.311,36.891 Z" id="Shape" fill="#00529C"></path>
                            <polygon id="Shape" fill="#00529C" points="140.68 25.278 147.851 25.278 147.851 45.453 140.68 45.453"></polygon>
                            <path d="M174.425,37.598 C173.967,40.255 173.154,42.4 171.373,43.87 C169.618,45.34 166.873,46.158 162.498,46.158 C158.15,46.158 150.088,45.821 150.088,35.366 C150.088,24.912 158.15,24.572 162.498,24.572 C166.821,24.572 173.483,25.194 174.425,33.19 L166.337,33.19 C166.136,31.749 165.269,29.658 162.498,29.658 C159.572,29.658 157.718,31.269 157.718,35.367 C157.718,39.464 159.524,41.074 162.144,41.074 C164.406,41.074 165.752,40.029 166.337,37.599 L174.425,37.599 L174.425,37.598 L174.425,37.598 Z" id="Shape" fill="#00529C"></path>
                            <path d="M176.18,35.366 C176.18,45.821 184.242,46.158 188.591,46.158 C192.94,46.158 201,45.821 201,35.366 C201,24.912 192.939,24.572 188.591,24.572 C184.243,24.572 176.18,24.912 176.18,35.366 L176.18,35.366 L176.18,35.366 Z M183.808,35.366 C183.808,31.268 185.666,29.657 188.591,29.657 C191.515,29.657 193.37,31.268 193.37,35.366 C193.37,39.463 191.515,41.073 188.591,41.073 C185.666,41.073 183.808,39.463 183.808,35.366 L183.808,35.366 L183.808,35.366 Z" id="Shape" fill="#00529C"></path>
                            <path d="M33.645,26.71 C32.9,27.62 31.96,28.541 30.859,29.412 C28.835,17.773 20.278,7.6 14.231,4.628 L14.102,4.72 C20.184,9.709 27.441,19.399 30.262,29.868 C28.913,30.863 27.351,31.776 25.628,32.519 C19.887,25.977 14.535,13.358 12.81,5.352 L12.634,5.406 C12.674,13.176 18.193,26.372 24.929,32.809 C23.433,33.399 21.826,33.859 20.139,34.132 C13.683,31.576 9.089,23.392 9.089,15.008 C9.089,9.534 10.759,6.148 11.083,5.454 L10.944,5.4 C10.554,5.99 8.107,9.374 8.107,15.284 C8.107,24.762 12.784,32.004 18.994,34.286 C16.87,34.516 14.633,34.447 12.341,33.973 L12.296,34.118 C12.959,34.362 15.213,35.308 18.65,35.308 C26.426,35.308 31.683,30.48 33.798,26.81 L33.645,26.71 L33.645,26.71 L33.645,26.71 Z M34.326,25.478 C34.79,15.799 26.437,4.899 15.051,3.553 L15.069,3.42 C26.295,3.42 34.902,13.805 34.902,22.001 C34.889,23.705 34.756,24.763 34.515,25.529 L34.326,25.478 L34.326,25.478 L34.326,25.478 Z" id="Shape" fill="#00529C"></path>
                            <path d="M20.226,2.732 C20.226,5.707 14.509,9.345 9.731,9.345 C7.62,9.345 6.478,8.513 6.478,7.143 C6.478,4.124 12.26,0.55 16.743,0.55 C19.665,0.55 20.226,2.036 20.226,2.732 L20.226,2.732 L20.226,2.732 Z M17.874,0 C11.978,0 5.066,4.251 5.066,8.135 C5.066,9.639 6.442,10.911 9.29,10.911 C15.901,10.911 22.043,6.37 22.043,2.841 C22.043,0.984 20.258,0 17.874,0 L17.874,0 L17.874,0 Z" id="Shape" fill="#0099D8"></path>
                            <g id="Group">
                                <path d="M2.719,9.937 C2.554,10.223 1.891,11.52 1.891,12.851 C1.891,15.319 4.385,17.61 8.973,17.61 C17.8,17.61 27.997,11.117 27.997,5.091 C27.997,2.384 25.434,0.913 23.655,0.608 L23.622,0.714 C24.176,0.89 26.202,1.831 26.202,4.243 C26.202,9.045 17.199,15.587 8.229,15.587 C4.796,15.587 2.632,13.892 2.632,11.425 C2.632,10.644 2.795,10.131 2.838,9.984 L2.719,9.937 L2.719,9.937 L2.719,9.937 Z" id="Shape" fill="#F47937"></path>
                                <path d="M31.636,5.54 C31.878,5.724 33.331,6.934 33.331,9.225 C33.331,17.033 21.091,24.71 10.269,24.71 C3.815,24.71 0.873,21.527 1.003,18.7 L1.12,18.7 C1.373,20.165 3.469,22.792 9.115,22.792 C19.952,22.792 32.051,14.85 32.051,7.889 C32.051,6.696 31.725,5.951 31.542,5.622 L31.636,5.54 L31.636,5.54 L31.636,5.54 Z" id="Shape" fill="#009D57"></path>
                            </g>
                            <path d="M35.728,12.828 C35.779,12.995 36.043,13.742 36.043,14.913 C36.043,23.599 23.653,31.034 12.88,31.034 C7.335,31.034 4.44,28.342 3.83,27.251 L3.928,27.176 C5.462,28.519 8.484,29.535 12.011,29.535 C21.526,29.535 35.725,22.301 35.597,12.86 L35.728,12.828 L35.728,12.828 L35.728,12.828 Z" id="Shape" fill="#ED1C24"></path>
                            <g id="Group" transform="translate(43.000000, 56.000000)" fill="#6D6E71">
                                <path d="M0.963,14.158 L3.418,14.158 L3.418,2.524 L0.963,2.524 L0.963,1.064 L13.547,1.064 L13.547,5.908 L12.485,5.908 C11.556,3.077 11.18,2.524 9.477,2.524 L5.695,2.524 L5.695,7.766 L6.956,7.766 C8.592,7.766 8.902,7.501 9.212,5.51 L10.384,5.51 L10.384,11.394 L9.212,11.394 C8.946,9.314 8.592,9.005 6.956,9.005 L5.695,9.005 L5.695,14.158 L8.394,14.158 L8.394,15.618 L0.962,15.618 L0.962,14.158 L0.963,14.158 Z" id="Shape"></path>
                                <path d="M15.624,8.341 C15.624,4.006 18.897,0.71 22.746,0.71 C26.705,0.71 29.868,3.874 29.868,8.341 C29.868,12.698 26.595,15.972 22.746,15.972 C18.787,15.972 15.624,12.787 15.624,8.341 L15.624,8.341 Z M27.214,8.341 C27.214,4.47 25.644,2.171 22.746,2.171 C19.848,2.171 18.278,4.493 18.278,8.341 C18.278,12.19 19.848,14.512 22.746,14.512 C25.644,14.512 27.214,12.211 27.214,8.341 L27.214,8.341 Z" id="Shape"></path>
                                <path d="M33.89,11.216 L33.89,2.524 L31.766,2.524 L31.766,1.064 L38.335,1.064 L38.335,2.524 L36.167,2.524 L36.167,10.486 C36.167,13.295 37.583,14.379 40.281,14.379 C41.475,14.379 42.271,13.981 42.913,13.339 C43.665,12.587 43.82,11.613 43.82,9.955 L43.82,2.523 L41.542,2.523 L41.542,1.063 L47.536,1.063 L47.536,2.523 L45.457,2.523 L45.457,11.215 C45.457,13.715 43.4,15.97 39.596,15.97 C35.88,15.972 33.89,14.003 33.89,11.216 L33.89,11.216 Z" id="Shape"></path>
                                <polygon id="Shape" points="53.394 4.006 53.195 4.006 53.195 14.158 55.495 14.158 55.495 15.618 49.325 15.618 49.325 14.158 51.559 14.158 51.559 2.524 49.325 2.524 49.325 1.064 54.146 1.064 61.468 11.681 61.666 11.681 61.666 2.524 59.366 2.524 59.366 1.064 65.537 1.064 65.537 2.524 63.303 2.524 63.303 15.972 61.622 15.972"></polygon>
                                <path d="M67.347,14.158 L69.802,14.158 L69.802,2.524 L67.347,2.524 L67.347,1.064 L73.585,1.064 C79.025,1.064 81.812,3.939 81.812,8.12 C81.812,12.145 79.357,15.618 73.784,15.618 L67.347,15.618 L67.347,14.158 L67.347,14.158 Z M73.806,14.158 C77.522,14.158 79.158,12.544 79.158,8.12 C79.158,4.249 77.5,2.524 73.586,2.524 L72.081,2.524 L72.081,14.158 L73.806,14.158 L73.806,14.158 Z" id="Shape"></path>
                                <path d="M92.624,10.509 L87.359,10.509 L86.032,14.158 L87.868,14.158 L87.868,15.618 L82.759,15.618 L82.759,14.158 L84.329,14.158 L89.394,0.976 L91.628,0.976 L96.383,14.158 L98.396,14.158 L98.396,15.618 L91.584,15.618 L91.584,14.158 L93.884,14.158 L92.624,10.509 L92.624,10.509 Z M87.847,9.226 L92.182,9.226 L90.124,3.277 L90.036,3.277 L87.847,9.226 L87.847,9.226 Z" id="Shape"></path>
                                <path d="M101.203,14.158 L103.769,14.158 L103.769,2.303 L102.795,2.303 C100.849,2.303 100.429,2.945 99.345,6.24 L98.306,6.24 L98.306,1.064 L111.509,1.064 L111.509,6.24 L110.47,6.24 C109.386,2.945 108.966,2.303 107.02,2.303 L106.046,2.303 L106.046,14.158 L108.612,14.158 L108.612,15.618 L101.202,15.618 L101.202,14.158 L101.203,14.158 Z" id="Shape"></path>
                                <polygon id="Shape" points="113.896 14.158 116.35 14.158 116.35 2.524 113.896 2.524 113.896 1.064 121.084 1.064 121.084 2.524 118.629 2.524 118.629 14.158 121.084 14.158 121.084 15.618 113.896 15.618"></polygon>
                                <path d="M123.427,8.341 C123.427,4.006 126.701,0.71 130.549,0.71 C134.508,0.71 137.671,3.874 137.671,8.341 C137.671,12.698 134.398,15.972 130.549,15.972 C126.59,15.972 123.427,12.787 123.427,8.341 L123.427,8.341 Z M135.017,8.341 C135.017,4.47 133.447,2.171 130.549,2.171 C127.651,2.171 126.081,4.493 126.081,8.341 C126.081,12.19 127.651,14.512 130.549,14.512 C133.447,14.512 135.017,12.211 135.017,8.341 L135.017,8.341 Z" id="Shape"></path>
                                <polygon id="Shape" points="143.971 4.006 143.773 4.006 143.773 14.158 146.073 14.158 146.073 15.618 139.902 15.618 139.902 14.158 142.135 14.158 142.135 2.524 139.902 2.524 139.902 1.064 144.723 1.064 152.044 11.681 152.243 11.681 152.243 2.524 149.942 2.524 149.942 1.064 156.113 1.064 156.113 2.524 153.88 2.524 153.88 15.972 152.198 15.972"></polygon>
                            </g>
                        </g>
                    </g>
                </g>
            </g>
        </g>
    </g>
</svg>