<?xml version="1.0" encoding="UTF-8"?>
<svg width="200px" height="200px" viewBox="0 0 200 200" version="1.1" xmlns="http://www.w3.org/2000/svg" xmlns:xlink="http://www.w3.org/1999/xlink">
    <!-- Generator: Sketch 40.2 (33826) - http://www.bohemiancoding.com/sketch -->
    <title>corps_1m_pearson</title>
    <desc>Created with Sketch.</desc>
    <defs></defs>
    <g id="Page-1" stroke="none" stroke-width="1" fill="none" fill-rule="evenodd">
        <g id="Our-partners" transform="translate(-376.000000, -1846.000000)">
            <g id="Content" transform="translate(376.000000, 150.000000)">
                <g id="Support-of-$1m+" transform="translate(0.000000, 908.000000)">
                    <g id="corps_1m_pearson" transform="translate(0.000000, 788.000000)">
                        <rect id="Rectangle-2" fill="#FFFFFF" x="0" y="0" width="200" height="200"></rect>
                        <g id="Layer_1" transform="translate(0.000000, 30.000000)">
                            <g id="Group">
                                <path d="M89.325,138.591 C89.213,138.301 88.912,138.137 88.617,138.206 L88.523,138.229 C87.643,138.42 86.967,138.367 86.492,138.046 C85.82,137.59 85.492,136.565 85.492,134.908 L85.492,119.934 C85.492,114.085 82.005,111.121 75.125,111.121 C68.963,111.121 64.136,114.037 64.136,117.76 C64.136,119.675 65.302,121.058 67.025,121.266 C68.15,121.402 69.224,120.892 70.004,120.07 C71.519,118.471 71.322,116.571 69.486,114.53 C70.572,113.392 72.496,112.719 74.69,112.719 C78.267,112.719 79.793,114.84 79.793,119.811 L79.793,123.595 C78.955,123.855 78.17,124.1 76.735,124.437 C73.839,125.117 69.867,126.021 66.871,127.676 C64.397,129.031 63.143,131.172 63.143,134.039 C63.143,137.159 65.191,140.802 70.962,140.802 C74.194,140.802 77.09,139.269 80.062,135.981 C80.318,139.398 81.613,140.678 84.754,140.678 C86.265,140.678 87.473,140.326 88.91,139.631 C89.3,139.443 89.485,138.991 89.325,138.591 L89.325,138.591 Z M79.792,134.016 C79.089,134.991 76.796,137.9 73.943,137.9 C70.085,137.9 69.276,135.192 69.276,132.921 C69.276,129.187 72.136,127.459 79.792,125.568 L79.792,134.016 L79.792,134.016 Z" id="Shape" fill="#34312F"></path>
                                <path d="M153.75,140.928 C145.574,140.928 139.408,134.522 139.408,126.025 C139.408,117.705 145.842,110.936 153.75,110.936 C161.76,110.936 168.033,117.455 168.033,125.776 C168.033,135.135 160.62,140.928 153.75,140.928 L153.75,140.928 Z M153.441,112.533 C149.908,112.533 145.852,114.054 145.852,125.9 C145.852,134.936 148.517,139.328 153.999,139.328 C159.247,139.328 161.587,135.186 161.587,125.9 C161.588,116.906 158.923,112.533 153.441,112.533 L153.441,112.533 Z" id="Shape" fill="#34312F"></path>
                                <path d="M27.345,111.474 C27.345,118.365 25.646,122.162 16.961,122.162 L12.356,122.162 L12.356,101.339 L17.148,101.339 C26.132,101.338 27.345,106.462 27.345,111.474 M12.355,134.909 L12.355,124.077 L16.526,124.077 C22.749,124.077 27.483,122.761 30.597,120.162 C33.852,117.446 34.535,114.006 34.535,111.598 C34.535,101.694 24.978,99.615 16.961,99.615 L16.993,99.614 L0.731,99.614 C0.363,99.614 0.064,99.914 0.064,100.282 L0.064,100.326 L0.064,100.312 C0.064,100.652 0.271,100.955 0.591,101.072 C2.039,101.604 5.973,100.855 5.973,105.075 L5.973,134.905 C5.973,137.074 5.011,138.604 0.612,139.02 C0.264,139.053 0,139.339 0,139.684 L0,139.787 C0,140.155 0.3,140.454 0.668,140.454 L18.041,140.454 C18.409,140.454 18.708,140.155 18.708,139.787 L18.708,139.695 C18.708,139.35 18.435,139.059 18.086,139.031 C13.308,138.649 12.349,137.169 12.349,134.905 L12.349,124.096" id="Shape" fill="#34312F"></path>
                                <path d="M47.685,110.921 C40.123,110.921 33.97,117.768 33.97,126.185 C33.97,134.706 39.738,140.889 47.685,140.889 C54.363,140.889 57.612,136.9 59.475,133.899 C59.659,133.604 59.578,133.213 59.292,133.008 L59.204,132.946 C58.916,132.741 58.516,132.799 58.293,133.078 C55.837,136.157 53.689,137.938 49.977,137.938 C45.283,137.938 40.268,134.704 40.268,125.627 L40.268,125.56 C40.261,125.159 40.27,124.609 40.284,124.096 L59.49,124.096 C59.543,124.096 59.586,124.056 59.59,124.003 L59.601,123.849 C59.872,120.126 58.819,116.783 56.636,114.433 C54.499,112.135 51.403,110.921 47.685,110.921 L47.685,110.921 Z M40.389,122.183 C41.023,115.974 43.446,112.571 47.251,112.571 C49.156,112.571 50.568,113.097 51.566,114.182 C52.938,115.672 53.517,118.365 53.289,122.183 L40.389,122.183 L40.389,122.183 Z" id="Shape" fill="#34312F"></path>
                                <path d="M127.289,122.519 C127.286,122.519 127.285,122.519 127.282,122.518 C122.031,121.044 119.984,119.553 119.984,117.2 C119.984,114.517 122.113,112.571 125.046,112.571 C128.496,112.571 129.974,114.219 133.616,120.31 L133.665,120.391 C133.683,120.421 133.716,120.441 133.751,120.441 L134.25,120.441 C134.618,120.441 134.917,120.141 134.917,119.773 L134.917,111.021 C134.917,110.966 134.872,110.921 134.817,110.921 L134.158,110.921 C133.958,110.921 133.769,111.01 133.642,111.165 L132.479,112.58 C131.012,111.77 128.622,110.921 126.223,110.921 C120.191,110.921 115.978,114.65 115.978,119.987 C115.978,124.997 119.3,126.875 125.036,128.425 C130.61,129.95 132.586,131.537 132.586,134.487 C132.586,137.765 129.409,139.239 127.153,139.239 C122.956,139.239 121.182,137.679 117.161,130.454 L117.113,130.368 C117.095,130.336 117.061,130.316 117.026,130.316 L116.522,130.316 C116.154,130.316 115.854,130.615 115.854,130.983 L115.854,140.789 C115.854,140.845 115.899,140.889 115.955,140.889 L116.638,140.889 C116.814,140.889 116.986,140.818 117.111,140.694 L118.949,138.855 C121.101,140.191 124.319,140.889 126.41,140.889 C129.548,140.889 132.127,139.896 133.871,138.015 C135.424,136.339 136.281,133.964 136.281,131.327 C136.281,126.761 133.844,124.373 127.289,122.519" id="Shape" fill="#34312F"></path>
                                <path d="M95.506,136.934 C95.506,138.446 95.122,138.941 92.716,139.092 C92.367,139.113 92.092,139.405 92.092,139.757 C92.092,140.124 92.391,140.423 92.758,140.423 L104.643,140.423 C105.004,140.423 105.299,140.128 105.299,139.768 C105.299,139.412 105.022,139.12 104.666,139.102 C101.916,138.97 101.204,138.525 101.204,136.933 L101.204,119.505 C103.159,116.252 104.566,114.55 106.939,114.035 C106.824,114.445 106.749,114.938 106.749,115.338 C106.749,117.455 108.228,118.934 110.346,118.934 C112.426,118.934 113.878,117.455 113.878,115.338 C113.878,113.336 112.628,110.997 109.103,110.997 C106.213,110.997 103.452,112.653 101.081,116.618 L101.081,112.135 C101.081,111.678 100.704,111.311 100.248,111.323 L92.759,111.522 C92.397,111.533 92.113,111.825 92.113,112.187 L92.113,112.284 C92.113,112.613 92.352,112.894 92.669,112.938 C95.166,113.292 95.51,114.48 95.507,115.71 L95.506,136.934" id="Shape" fill="#34312F"></path>
                                <path d="M177.704,111.303 C177.877,111.303 178.041,111.369 178.166,111.491 C178.297,111.617 178.369,111.786 178.369,111.968 L178.396,116.939 C178.396,116.939 180.835,111.109 188.751,111.109 L188.821,111.109 C193.756,111.109 196.586,114.255 196.586,119.741 L196.586,136.906 C196.586,138.419 196.97,138.914 199.375,139.065 C199.725,139.086 199.999,139.377 199.999,139.73 C199.999,140.096 199.7,140.395 199.333,140.395 L188.655,140.395 C188.288,140.395 187.987,140.095 187.987,139.727 C187.987,139.372 188.255,139.08 188.596,139.05 C190.535,138.885 190.846,138.395 190.846,136.905 L190.846,121.414 C190.846,116.299 189.391,114.307 185.659,114.307 C183.137,114.307 181.071,116.509 179.783,118.356 C179.783,118.356 179.125,119.182 178.411,120.734 L178.49,136.905 C178.49,138.392 178.791,138.882 180.676,139.05 C181.016,139.079 181.283,139.37 181.283,139.713 C181.283,140.096 180.983,140.396 180.616,140.396 L170.005,140.396 C169.637,140.396 169.339,140.097 169.339,139.73 C169.339,139.378 169.613,139.086 169.962,139.065 C172.367,138.914 172.752,138.419 172.752,136.907 L172.752,115.718 C172.752,114.482 172.406,113.287 169.897,112.931 C169.579,112.887 169.339,112.604 169.339,112.274 L169.339,112.176 C169.339,111.812 169.625,111.519 169.988,111.508 L177.704,111.303" id="Shape" fill="#34312F"></path>
                                <path d="M62.976,25.713 C54.928,43.192 58.583,73.566 77.31,84.454 C96.033,95.341 121.162,86.208 132.669,64.825 C145.764,40.5 141.383,16.456 122.564,5.734 C101.771,-6.115 74.661,0.332 62.976,25.713 L62.976,25.713 Z M96.471,68.206 C97.119,68.336 97.763,68.643 98.336,69.09 C99.374,69.898 99.999,71.156 100.008,72.451 C100.018,73.561 99.551,74.559 98.692,75.259 C97.954,75.858 97.004,76.174 95.948,76.174 L95.947,76.174 C95.463,76.174 94.978,76.105 94.504,75.974 C93.686,75.741 93.026,75.353 92.595,74.845 C92.211,74.395 91.951,73.792 91.841,73.099 C91.667,72.008 91.935,70.886 92.591,69.946 C93.376,68.814 94.576,68.14 95.8,68.14 C96.024,68.139 96.25,68.163 96.471,68.206 L96.471,68.206 Z M122.074,24.129 L122.127,24.182 C125.812,28.116 126.959,34.084 126.318,38.979 C125.586,44.561 122.203,49.725 116.576,53.15 C112.113,55.866 106.25,56.949 100.482,57.001 C100.436,57.916 100.253,61.066 100.161,61.565 C100.025,62.3 99.768,62.696 99.453,63.107 C98.833,63.915 97.759,64.436 96.691,64.74 C95.842,64.981 95.003,65.085 94.408,65.085 C94.307,65.085 94.209,65.079 94.113,65.067 C93.486,64.996 92.789,64.701 92.359,64.221 C91.929,63.74 91.685,63.133 91.629,62.444 L91.581,61.822 C91.459,61.286 90.79,34.164 90.92,34.646 C91.016,31.396 96.263,30.83 99.11,31.404 C101.963,31.978 101.24,35.445 101.164,39.705 C101.164,39.705 101.027,45.309 100.765,51.229 C104.396,51.086 107.281,50.051 109.982,48.71 C115.435,46.006 118.322,41.86 118.322,35.752 C118.322,29.645 112.377,22.805 101.408,22.805 C90.439,22.805 85.73,25.571 80.419,29.965 C79.222,30.955 78.299,31.953 77.427,32.611 C76.555,33.267 74.239,33.369 73.617,31.83 C72.869,29.976 74.267,27.91 75.089,26.91 C76.379,25.34 79.561,22.178 83.087,20.34 C87.126,18.232 92.067,15.961 98.947,15.787 C105.17,15.631 114.996,16.135 122.074,24.129 L122.074,24.129 Z" id="Shape" fill="#0087A7"></path>
                            </g>
                        </g>
                    </g>
                </g>
            </g>
        </g>
    </g>
</svg>