<?xml version="1.0" encoding="UTF-8"?>
<svg width="201px" height="200px" viewBox="0 0 201 200" version="1.1" xmlns="http://www.w3.org/2000/svg" xmlns:xlink="http://www.w3.org/1999/xlink">
    <!-- Generator: Sketch 40.2 (33826) - http://www.bohemiancoding.com/sketch -->
    <title>corps_1m_research_now</title>
    <desc>Created with Sketch.</desc>
    <defs></defs>
    <g id="Page-1" stroke="none" stroke-width="1" fill="none" fill-rule="evenodd">
        <g id="Our-partners" transform="translate(-913.000000, -1846.000000)">
            <g id="Content" transform="translate(376.000000, 150.000000)">
                <g id="Support-of-$1m+" transform="translate(0.000000, 908.000000)">
                    <g id="corps_1m_research_now" transform="translate(537.000000, 788.000000)">
                        <rect id="Rectangle-2" fill="#FFFFFF" x="1" y="0" width="200" height="200"></rect>
                        <g id="Layer_1" transform="translate(0.000000, 67.000000)">
                            <path d="M40.027,24.292 L57.912,15.474 C55.348,5.739 48.031,0 37.087,0 C27.845,0 22.444,4.921 18.243,10.322 L18.243,1.2 L0,1.2 L0,65.533 L18.244,65.533 L18.244,29.646 C18.244,21.004 22.685,16.563 29.646,16.563 C34.981,16.563 38.616,19.182 40.027,24.292" id="Shape" fill="#073E61"></path>
                            <g id="Group" transform="translate(40.000000, 13.000000)">
                                <path d="M24.921,7.338 L29.301,7.338 L29.301,11.646 C30.496,8.786 32.704,6.831 36.07,6.976 L36.07,11.609 L35.817,11.609 C31.98,11.609 29.301,14.108 29.301,19.174 L29.301,26.449 L24.921,26.449 L24.921,7.338" id="Shape" fill="#073E61"></path>
                                <path d="M36.105,16.967 L36.105,16.895 C36.105,11.429 39.979,6.94 45.445,6.94 C51.526,6.94 54.603,11.718 54.603,17.221 C54.603,17.619 54.567,18.017 54.53,18.451 L40.486,18.451 C40.956,21.564 43.164,23.302 45.988,23.302 C48.123,23.302 49.644,22.506 51.164,21.021 L53.734,23.302 C51.924,25.473 49.426,26.885 45.915,26.885 C40.377,26.886 36.105,22.868 36.105,16.967 L36.105,16.967 Z M50.26,15.556 C49.97,12.732 48.305,10.524 45.409,10.524 C42.731,10.524 40.848,12.588 40.45,15.556 L50.26,15.556 L50.26,15.556 Z" id="Shape" fill="#073E61"></path>
                                <path d="M55.397,23.954 L57.352,20.986 C59.453,22.542 61.661,23.339 63.615,23.339 C65.498,23.339 66.584,22.542 66.584,21.276 L66.584,21.204 C66.584,19.72 64.557,19.213 62.313,18.526 C59.489,17.729 56.339,16.571 56.339,12.915 L56.339,12.84 C56.339,9.22 59.344,7.013 63.145,7.013 C65.535,7.013 68.141,7.845 70.168,9.185 L68.43,12.298 C66.584,11.175 64.629,10.488 63.036,10.488 C61.335,10.488 60.357,11.285 60.357,12.371 L60.357,12.443 C60.357,13.854 62.42,14.434 64.665,15.157 C67.453,16.026 70.603,17.293 70.603,20.732 L70.603,20.804 C70.603,24.823 67.489,26.814 63.508,26.814 C60.791,26.813 57.786,25.836 55.397,23.954" id="Shape" fill="#073E61"></path>
                                <path d="M71.973,16.967 L71.973,16.895 C71.973,11.429 75.847,6.94 81.314,6.94 C87.395,6.94 90.471,11.718 90.471,17.221 C90.471,17.619 90.436,18.017 90.399,18.451 L76.354,18.451 C76.825,21.564 79.033,23.302 81.856,23.302 C83.992,23.302 85.512,22.506 87.032,21.021 L89.603,23.302 C87.792,25.473 85.295,26.885 81.784,26.885 C76.245,26.886 71.973,22.868 71.973,16.967 L71.973,16.967 Z M86.127,15.556 C85.838,12.732 84.173,10.524 81.276,10.524 C78.598,10.524 76.715,12.588 76.317,15.556 L86.127,15.556 L86.127,15.556 Z" id="Shape" fill="#073E61"></path>
                                <path d="M91.555,20.949 L91.555,20.876 C91.555,16.75 94.777,14.722 99.446,14.722 C101.582,14.722 103.103,15.048 104.588,15.518 L104.588,15.048 C104.588,12.333 102.922,10.885 99.845,10.885 C97.709,10.885 96.116,11.356 94.379,12.08 L93.221,8.641 C95.321,7.7 97.383,7.084 100.424,7.084 C103.284,7.084 105.419,7.844 106.76,9.22 C108.17,10.595 108.822,12.623 108.822,15.121 L108.822,26.45 L104.551,26.45 L104.551,24.062 C103.248,25.619 101.257,26.85 98.324,26.85 C94.74,26.85 91.555,24.786 91.555,20.949 L91.555,20.949 Z M104.657,19.573 L104.657,18.27 C103.536,17.836 102.052,17.51 100.314,17.51 C97.491,17.51 95.826,18.705 95.826,20.696 L95.826,20.768 C95.826,22.614 97.455,23.664 99.555,23.664 C102.45,23.664 104.657,22 104.657,19.573 L104.657,19.573 Z" id="Shape" fill="#073E61"></path>
                                <path d="M112.004,7.338 L116.384,7.338 L116.384,11.646 C117.579,8.786 119.787,6.831 123.154,6.976 L123.154,11.609 L122.9,11.609 C119.063,11.609 116.384,14.108 116.384,19.174 L116.384,26.449 L112.004,26.449 L112.004,7.338" id="Shape" fill="#073E61"></path>
                                <path d="M123.188,17.004 L123.188,16.931 C123.188,11.502 127.387,6.94 133.143,6.94 C136.727,6.94 138.971,8.279 140.781,10.233 L138.031,13.166 C136.69,11.753 135.28,10.777 133.107,10.777 C129.921,10.777 127.568,13.528 127.568,16.859 L127.568,16.931 C127.568,20.334 129.922,23.048 133.288,23.048 C135.351,23.048 136.872,22.107 138.247,20.696 L140.89,23.302 C139.008,25.402 136.799,26.885 133.072,26.885 C127.387,26.886 123.188,22.434 123.188,17.004" id="Shape" fill="#073E61"></path>
                                <path d="M142.842,0.026 L147.222,0.026 L147.222,10.271 C148.452,8.498 150.227,6.941 153.195,6.941 C157.504,6.941 160.001,9.837 160.001,14.253 L160.001,26.451 L155.621,26.451 L155.621,15.592 C155.621,12.624 154.137,10.923 151.53,10.923 C148.996,10.923 147.222,12.696 147.222,15.664 L147.222,26.451 L142.842,26.451 L142.842,0.026" id="Shape" fill="#073E61"></path>
                                <path d="M0.648,15.335 C0.67,15.763 0.688,16.195 0.688,16.646 L0.688,52.533 L18.931,52.533 L18.931,10.885 C18.931,9.343 18.839,7.866 18.665,6.451 L0.648,15.335" id="Shape" fill="#007DC5"></path>
                                <path d="M94.625,37.005 L94.625,36.984 C94.625,34.938 96.283,33.215 98.372,33.215 C100.483,33.215 102.12,34.917 102.12,36.963 L102.12,36.984 C102.12,39.031 100.461,40.754 98.372,40.754 C96.262,40.753 94.625,39.052 94.625,37.005 L94.625,37.005 Z M101.688,36.984 L101.688,36.963 C101.688,35.132 100.266,33.624 98.372,33.624 C96.498,33.624 95.056,35.153 95.056,36.984 L95.056,37.005 C95.056,38.836 96.477,40.344 98.372,40.344 C100.245,40.344 101.688,38.815 101.688,36.984 L101.688,36.984 Z M96.822,34.959 L98.652,34.959 C99.556,34.959 100.224,35.369 100.224,36.252 C100.224,36.877 99.879,37.286 99.363,37.457 L100.353,38.857 L99.212,38.857 L98.371,37.63 L97.767,37.63 L97.767,38.857 L96.821,38.857 L96.821,34.959 L96.822,34.959 Z M98.587,36.855 C99.019,36.855 99.255,36.639 99.255,36.316 C99.255,35.971 98.996,35.777 98.587,35.777 L97.769,35.777 L97.769,36.855 L98.587,36.855 L98.587,36.855 Z" id="Shape" fill="#007DC5"></path>
                                <path d="M24.921,33.346 L29.301,33.346 L29.301,36.279 C30.532,34.505 32.306,32.949 35.274,32.949 C39.581,32.949 42.079,35.845 42.079,40.261 L42.079,52.46 L37.7,52.46 L37.7,41.6 C37.7,38.631 36.216,36.931 33.61,36.931 C31.076,36.931 29.302,38.704 29.302,41.672 L29.302,52.459 L24.922,52.459 L24.922,33.346" id="Shape" fill="#007DC5"></path>
                                <path d="M44.25,43.012 L44.25,42.939 C44.25,37.474 48.594,32.949 54.458,32.949 C60.323,32.949 64.631,37.401 64.631,42.867 L64.631,42.939 C64.631,48.369 60.286,52.894 54.387,52.894 C48.557,52.894 44.25,48.441 44.25,43.012 L44.25,43.012 Z M60.249,43.012 L60.249,42.939 C60.249,39.573 57.824,36.785 54.386,36.785 C50.874,36.785 48.63,39.536 48.63,42.867 L48.63,42.939 C48.63,46.27 51.056,49.057 54.458,49.057 C58.005,49.057 60.249,46.306 60.249,43.012 L60.249,43.012 Z" id="Shape" fill="#007DC5"></path>
                                <polyline id="Shape" fill="#007DC5" points="64.519 33.275 69.007 33.275 72.844 46.38 77.08 33.203 80.844 33.203 85.079 46.38 88.989 33.275 93.405 33.275 87.143 52.533 83.197 52.533 78.926 39.465 74.618 52.533 70.709 52.533 64.519 33.275"></polyline>
                            </g>
                        </g>
                    </g>
                </g>
            </g>
        </g>
    </g>
</svg>