<?xml version="1.0" encoding="UTF-8"?>
<svg width="200px" height="200px" viewBox="0 0 200 200" version="1.1" xmlns="http://www.w3.org/2000/svg" xmlns:xlink="http://www.w3.org/1999/xlink">
    <!-- Generator: Sketch 40.2 (33826) - http://www.bohemiancoding.com/sketch -->
    <title>1m_skoll</title>
    <desc>Created with Sketch.</desc>
    <defs></defs>
    <g id="Page-1" stroke="none" stroke-width="1" fill="none" fill-rule="evenodd">
        <g id="Our-partners" transform="translate(-376.000000, -2086.000000)">
            <g id="Content" transform="translate(376.000000, 150.000000)">
                <g id="Support-of-$1m+" transform="translate(0.000000, 908.000000)">
                    <g id="1m_skoll" transform="translate(0.000000, 1028.000000)">
                        <rect id="Rectangle-2" fill="#FFFFFF" x="0" y="0" width="200" height="200"></rect>
                        <g id="Layer_1" transform="translate(0.000000, 43.000000)">
                            <g id="Group">
                                <path d="M21.686,79.38 C14.426,79.38 6.39,76.764 0,71.728 L5.227,63.788 C10.744,67.95 16.747,70.083 21.981,70.083 C27.014,70.083 29.915,67.95 29.915,64.564 L29.915,64.37 C29.915,60.401 24.498,59.044 18.49,57.203 C10.939,55.074 2.514,51.975 2.514,42.196 L2.514,42.004 C2.514,32.322 10.552,26.414 20.714,26.414 C27.109,26.414 34.079,28.64 39.504,32.225 L34.854,40.552 C29.915,37.551 24.687,35.709 20.429,35.709 C15.874,35.709 13.259,37.838 13.259,40.842 L13.259,41.034 C13.259,44.716 18.783,46.263 24.785,48.2 C32.238,50.525 40.664,53.912 40.664,63.11 L40.664,63.307 C40.666,74.054 32.337,79.38 21.686,79.38" id="Shape" fill="#8A221B"></path>
                                <polygon id="Shape" fill="#8A221B" points="98.516 78.41 84.96 78.41 69.565 56.331 62.397 63.787 62.397 78.41 50.681 78.41 50.681 0 62.397 0 62.397 49.943 83.603 27.286 97.837 27.286 77.505 48.103"></polygon>
                                <path d="M128.112,58.336 C114.564,58.336 104.551,47.988 104.551,35.282 C104.551,22.493 114.648,11.976 128.28,11.976 C141.908,11.976 151.924,22.326 151.924,35.115 C151.925,47.82 141.825,58.336 128.112,58.336 M128.125,22.215 C120.716,22.215 115.982,28.023 115.982,35.125 C115.982,42.302 121.096,48.184 128.276,48.184 C135.761,48.184 140.496,42.379 140.496,35.274 C140.496,28.096 135.378,22.215 128.125,22.215" id="Shape" fill="#8A221B"></path>
                                <rect id="Rectangle-path" fill="#8A221B" x="162.997" y="0" width="11.717" height="78.41"></rect>
                                <rect id="Rectangle-path" fill="#F05425" x="107.443" y="66.695" width="41.591" height="11.716"></rect>
                                <rect id="Rectangle-path" fill="#8A221B" x="188.042" y="0" width="11.716" height="78.41"></rect>
                                <polygon id="Shape" fill="#8A221B" points="4.168 113.628 4.168 95.693 14.801 95.693 14.801 97.826 6.649 97.826 6.649 103.465 14.329 103.465 14.329 105.603 6.649 105.603 6.649 113.628"></polygon>
                                <path d="M28.653,95.32 C34.24,95.32 36.85,99.416 36.85,104.658 C36.85,109.9 34.24,113.999 28.653,113.999 C23.063,113.999 20.453,109.9 20.453,104.658 C20.454,99.416 23.063,95.32 28.653,95.32 M28.653,111.863 C33.198,111.863 34.24,108.386 34.24,104.658 C34.24,100.833 33.198,97.452 28.653,97.452 C24.105,97.452 23.063,100.833 23.063,104.658 C23.063,108.387 24.105,111.863 28.653,111.863" id="Shape" fill="#8A221B"></path>
                                <path d="M58.651,106.523 C58.726,111.14 56.29,113.999 51.425,113.999 C46.555,113.999 44.118,111.141 44.195,106.523 L44.195,95.693 L46.679,95.693 L46.679,107.118 C46.75,110.201 48.592,111.863 51.425,111.863 C54.256,111.863 56.092,110.201 56.166,107.118 L56.166,95.693 L58.651,95.693 L58.651,106.523 L58.651,106.523 Z" id="Shape" fill="#8A221B"></path>
                                <polygon id="Shape" fill="#8A221B" points="82.07 95.693 82.07 113.628 78.986 113.628 69.922 98.399 69.872 98.399 69.872 113.628 67.664 113.628 67.664 95.693 71.065 95.693 79.809 110.522 79.858 110.522 79.858 95.693"></polygon>
                                <path d="M91.839,95.693 L97.801,95.693 C99.468,95.74 101.231,95.864 102.675,96.785 C105.283,98.45 106.473,101.254 106.473,104.658 C106.473,108.065 105.284,110.868 102.675,112.536 C101.231,113.453 99.468,113.578 97.801,113.628 L91.839,113.628 L91.839,95.693 L91.839,95.693 Z M94.327,111.491 L97.952,111.491 C100.463,111.491 101.804,110.47 102.498,109.453 C103.566,107.913 103.863,106.322 103.863,104.658 C103.863,102.995 103.566,101.404 102.498,99.866 C101.804,98.846 100.462,97.826 97.952,97.826 L94.327,97.826 L94.327,111.491 L94.327,111.491 Z" id="Shape" fill="#8A221B"></path>
                                <path d="M110.945,113.628 L118.5,95.693 L121.158,95.693 L128.408,113.628 L125.703,113.628 L123.765,108.958 L115.442,108.958 L113.506,113.628 L110.945,113.628 L110.945,113.628 Z M116.288,106.818 L122.974,106.818 L119.716,98.149 L116.288,106.818 L116.288,106.818 Z" id="Shape" fill="#8A221B"></path>
                                <polygon id="Shape" fill="#8A221B" points="136.694 97.826 130.688 97.826 130.688 95.693 145.192 95.693 145.192 97.826 139.181 97.826 139.181 113.628 136.694 113.628"></polygon>
                                <rect id="Rectangle-path" fill="#8A221B" x="151.992" y="95.693" width="2.485" height="17.935"></rect>
                                <path d="M170.094,95.32 C175.686,95.32 178.29,99.416 178.29,104.658 C178.29,109.9 175.686,113.999 170.094,113.999 C164.506,113.999 161.896,109.9 161.896,104.658 C161.896,99.416 164.506,95.32 170.094,95.32 M170.094,111.863 C174.642,111.863 175.686,108.386 175.686,104.658 C175.686,100.833 174.642,97.452 170.094,97.452 C165.548,97.452 164.506,100.833 164.506,104.658 C164.506,108.387 165.548,111.863 170.094,111.863" id="Shape" fill="#8A221B"></path>
                                <polygon id="Shape" fill="#8A221B" points="200 95.693 200 113.628 196.922 113.628 187.857 98.399 187.804 98.399 187.804 113.628 185.592 113.628 185.592 95.693 188.997 95.693 197.742 110.522 197.791 110.522 197.791 95.693"></polygon>
                            </g>
                        </g>
                    </g>
                </g>
            </g>
        </g>
    </g>
</svg>