<?xml version="1.0" encoding="UTF-8"?>
<svg width="154px" height="150px" viewBox="0 0 154 150" version="1.1" xmlns="http://www.w3.org/2000/svg" xmlns:xlink="http://www.w3.org/1999/xlink">
    <!-- Generator: Sketch 40.2 (33826) - http://www.bohemiancoding.com/sketch -->
    <title>250k_maybank</title>
    <desc>Created with Sketch.</desc>
    <defs></defs>
    <g id="Page-1" stroke="none" stroke-width="1" fill="none" fill-rule="evenodd">
        <g id="Our-partners" transform="translate(-376.000000, -2883.000000)">
            <g id="Content" transform="translate(376.000000, 150.000000)">
                <g id="Support-of-$250k+" transform="translate(0.000000, 2686.000000)">
                    <g id="250k_maybank" transform="translate(0.000000, 47.000000)">
                        <rect id="Rectangle-2" fill="#FFFFFF" x="0" y="0" width="154" height="150"></rect>
                        <g id="Layer_1" transform="translate(0.000000, 45.000000)">
                            <polygon id="Shape" fill="#FFC700" points="0 0 0 59.99994 154 60.01072 154 0"></polygon>
                            <g id="Group" transform="translate(7.700000, 7.700000)">
                                <g transform="translate(30.030000, 3.850000)" id="Shape">
                                    <path d="M54.51446,17.42048 C52.43931,17.42048 50.44039,17.03086 49.27076,16.57733 L49.27076,0.18095 L53.5535,0.18095 L53.5535,5.69646 C54.09943,5.50165 55.03344,5.34919 55.76032,5.34919 C59.39472,5.34919 61.88644,7.38353 61.88644,10.95171 C61.88721,15.32146 59.26613,17.42048 54.51446,17.42048 L54.51446,17.42048 Z M54.90408,8.03341 C54.41051,8.03341 53.8923,8.14121 53.55427,8.27057 L53.55427,14.50064 C53.81453,14.58688 54.3081,14.65079 54.8009,14.65079 C56.56497,14.65079 57.6037,13.41879 57.6037,11.25586 C57.6037,9.20073 56.61656,8.03341 54.90408,8.03341 L54.90408,8.03341 Z" fill="#231F20"></path>
                                    <path d="M69.02511,17.42048 C64.61301,17.42048 62.43237,16.05758 62.43237,13.56971 C62.43237,10.47662 66.22231,9.76283 70.45269,9.56802 L70.45269,9.11449 C70.45269,8.1851 69.67345,7.75159 68.22046,7.75159 C66.87065,7.75159 65.26135,8.11965 64.24957,8.46615 L63.21084,6.08608 C64.45593,5.6749 66.18843,5.15977 68.74098,5.15977 C72.55633,5.15977 74.47671,6.45337 74.47671,9.54646 L74.47671,16.57656 C73.41334,17.03086 71.25657,17.42048 69.02511,17.42048 L69.02511,17.42048 Z M70.45269,11.79717 C68.14192,11.88341 66.40403,12.09978 66.40403,13.4827 C66.40403,14.43519 67.36345,14.95417 68.89498,14.95417 C69.49173,14.95417 70.16625,14.86716 70.45192,14.78092 L70.45192,11.79717 L70.45269,11.79717 Z" fill="#231F20"></path>
                                    <path d="M83.97774,17.16022 L83.97774,9.58958 C83.97774,8.6163 83.42565,7.97797 81.89412,7.97797 C81.09948,7.97797 80.3957,8.27057 80.3957,8.27057 L80.3957,17.16022 L76.11219,17.16022 L76.11219,6.08608 C77.66913,5.58866 79.51251,5.15977 81.95264,5.15977 C86.3401,5.15977 88.26048,6.64818 88.26048,9.1784 L88.26048,17.15945 L83.97774,17.15945 L83.97774,17.16022 Z" fill="#231F20"></path>
                                    <polygon fill="#231F20" points="98.48685 17.16022 94.20411 11.3421 94.15175 11.3421 94.15175 17.16022 89.92137 17.16022 89.92137 0.18172 94.15175 0.18172 94.15175 10.49741 94.20411 10.49741 98.07259 5.50242 102.89972 5.50242 98.53844 10.93169 103.26316 17.16022"></polygon>
                                    <polygon fill="#231F20" points="41.21348 21.81102 36.72284 21.81102 38.82494 17.15945 33.55506 5.50165 38.21433 5.50165 41.0564 13.783 43.87075 5.50165 48.53156 5.50165"></polygon>
                                    <polygon fill="#000000" points="18.9343 1.50073 13.95009 1.50073 10.65449 11.17424 7.35889 1.50073 2.37391 1.50073 0.1155 17.16022 4.19111 17.16022 5.48933 6.39562 9.30468 17.16022 12.0043 17.16022 15.81965 6.39562 17.11864 17.16022 21.19348 17.16022"></polygon>
                                    <path d="M28.3283,17.42048 C23.91543,17.42048 21.73556,16.05758 21.73556,13.56971 C21.73556,10.47662 25.5255,9.76283 29.75665,9.56802 L29.75665,9.11449 C29.75665,8.1851 28.97818,7.75159 27.52519,7.75159 C26.17461,7.75159 24.56531,8.11965 23.55353,8.46615 L22.5148,6.08608 C23.75989,5.6749 25.86353,5.15977 28.0434,5.15977 C31.86029,5.15977 33.7799,6.45337 33.7799,9.54646 L33.7799,16.57656 C32.71499,17.03086 30.55976,17.42048 28.3283,17.42048 L28.3283,17.42048 Z M29.75588,11.79717 C27.44511,11.88341 25.70799,12.09978 25.70799,13.4827 C25.70799,14.43519 26.66741,14.95417 28.19894,14.95417 C28.79492,14.95417 29.47098,14.86716 29.75588,14.78092 L29.75588,11.79717 L29.75588,11.79717 Z" fill="#231F20"></path>
                                </g>
                                <g id="Shape" fill="#231F20">
                                    <path d="M13.18009,0.13013 C5.97828,0.13013 0.14014,5.96673 0.14014,13.16931 C0.14014,20.37189 5.97828,26.20849 13.18009,26.20849 C20.3819,26.20849 26.22004,20.37112 26.22004,13.16931 C26.21927,5.96673 20.3819,0.13013 13.18009,0.13013 M13.18009,25.16437 C6.55501,25.16437 1.18657,19.79439 1.18657,13.16931 C1.18657,6.54423 6.55501,1.17502 13.18009,1.17502 C19.80517,1.17502 25.17361,6.545 25.17361,13.16931 C25.17361,19.79362 19.80517,25.16437 13.18009,25.16437"></path>
                                    <path d="M7.97797,12.57102 C7.04473,12.33463 6.22468,13.42495 5.76884,14.25424 C5.92669,13.12311 7.31192,11.27742 7.97797,12.57102"></path>
                                    <path d="M5.92669,12.58719 C6.24162,11.51304 6.98159,11.11957 7.37429,11.4345 C6.83914,11.60852 6.44567,11.92268 5.92669,12.58719"></path>
                                    <path d="M8.30907,14.30814 C8.78724,13.90158 8.74027,13.30098 7.99491,13.1054 C7.44359,12.96372 6.25702,13.95856 6.13074,15.06351 C6.60198,14.45136 7.97797,13.33024 8.30907,14.30814"></path>
                                    <path d="M15.79424,17.16484 C15.87817,15.74958 14.50834,15.09046 14.24654,13.64748 C13.98859,12.19988 16.38714,9.88988 14.87024,7.52367 C17.73156,9.82828 15.49009,11.19118 16.93307,13.10771 C16.37636,12.9437 15.82042,12.44243 15.6541,12.18217 C14.84945,13.24169 17.62684,14.69468 15.79424,17.16484"></path>
                                    <path d="M11.19118,5.78347 C11.5269,5.78578 12.10902,6.01986 11.87417,6.29321 C11.0803,7.03318 10.00923,6.73365 9.16069,7.47747 C9.50565,6.545 11.05951,6.4141 11.19118,5.78347"></path>
                                    <path d="M13.76375,6.82836 C14.09408,6.45645 13.78916,5.9444 12.42934,5.77346 C13.84845,6.46877 11.56309,6.61353 11.48532,7.80703 C10.73919,8.10348 10.14167,7.61607 9.77361,7.95102 C9.41556,8.27211 9.00207,8.05728 9.12219,7.67613 C8.69176,7.9002 8.77646,8.48232 9.19611,8.66327 C9.28081,8.70485 9.35242,8.78416 9.29082,8.84345 C8.83267,9.27311 8.61784,9.64887 9.09601,10.0793 C9.35781,9.59497 9.48948,9.42557 9.78362,9.18225 C10.05774,9.37167 10.53976,9.24462 11.19118,8.53391 C11.22121,8.49772 11.2651,8.51389 11.24816,8.5547 C10.73303,10.32955 9.41479,10.61984 8.99129,10.53283 C9.24847,10.91552 10.92245,11.15422 11.13189,10.40347 C11.61083,8.71717 13.2363,7.98259 11.83105,8.00954 C12.20912,7.56602 13.48963,7.14637 13.76375,6.82836 M10.21405,8.9012 C10.10933,8.9012 10.01462,8.75413 9.98921,8.56625 C10.1255,8.91737 10.46661,8.74335 10.2718,8.25132 C10.39269,8.25286 10.5875,8.26364 10.94478,8.24901 C10.57133,8.44613 10.40347,8.90659 10.21405,8.9012"></path>
                                    <path d="M14.47138,5.92053 C15.1536,6.35558 15.46853,6.65203 15.91513,7.17948 C15.99983,6.45799 15.58942,5.02733 14.98497,4.69931 C14.72394,4.55609 14.34587,5.55324 14.47138,5.92053"></path>
                                    <path d="M3.61592,11.70477 C4.05097,10.55516 5.12281,9.17994 6.85531,8.14891 C7.2534,7.11865 7.1225,6.4141 11.31746,4.79171 C11.42218,4.16955 11.40139,3.42958 11.58003,3.42958 C11.75867,3.42958 12.37698,3.70216 12.81896,4.34357 C13.00222,4.32432 13.16469,4.30353 13.27942,4.2889 C13.35334,3.92546 13.6059,2.9337 13.93084,2.42396 C14.23422,1.95118 14.81711,1.90421 15.5694,2.52021 C16.35095,3.16239 16.9015,3.42419 17.9718,4.79171 C18.87501,5.1975 20.29258,5.71879 21.51611,7.21721 C20.98558,6.8684 20.38113,6.73596 19.88833,6.67667 C20.88625,7.55216 21.54691,8.99668 21.04333,11.10879 C20.85006,9.13528 19.39553,8.31138 18.50849,7.68075 C18.99051,9.34857 16.90227,8.77338 16.26702,7.5229 C16.47569,7.58835 16.69283,7.57834 16.82219,7.49441 C16.75443,4.94879 15.55708,3.48579 15.0227,3.03996 C14.33971,2.47709 13.97242,3.83845 13.74142,4.86717 C13.6675,5.21059 13.37336,5.4516 13.00145,5.43928 C13.08538,5.31685 13.17932,4.98652 13.19472,4.88411 C12.14059,4.96419 10.94863,5.5902 10.21867,5.91822 C8.36605,6.75444 7.89943,7.1764 7.48979,8.58627 C6.01986,9.20381 4.32432,10.90397 3.61592,11.70477"></path>
                                    <path d="M12.87055,11.35596 C13.07537,11.58696 14.29813,13.43496 12.88056,15.78731 C13.26941,14.05866 12.19295,10.74997 11.00253,12.43935 C11.80949,12.79047 12.07206,13.44728 11.85646,14.08484 C11.5269,13.47038 10.68606,12.80587 9.85677,13.08153 C9.44174,13.22167 8.89042,13.22321 8.48155,12.61722 C7.94563,11.83105 8.84345,10.86085 7.31115,10.94016 C9.16377,9.99999 8.62785,11.82643 9.52105,12.0428 C10.55978,12.29228 10.68067,11.65087 11.03795,11.23738 C11.3267,10.89627 11.85646,10.6337 12.41317,11.00099 C12.68036,10.18864 12.29382,8.91198 13.04842,8.23438 C13.32716,7.98567 14.21882,8.01339 14.68082,8.38299 C14.02555,8.37144 13.25401,9.15299 12.87055,11.35596"></path>
                                    <path d="M22.34078,8.12427 C23.28403,11.41294 23.01684,14.57995 22.04664,16.47107 C22.16753,15.2845 21.12649,13.55123 21.54691,11.5269 C19.5734,13.44266 22.65494,18.13966 18.18278,21.22043 C18.8496,20.14859 19.15375,17.4713 18.91736,16.49956 C19.15452,16.59196 19.39553,16.88841 19.54722,17.13789 C19.9199,15.9159 19.96764,14.17031 19.26232,12.41394 C19.50487,12.4432 20.00768,12.66573 20.23945,12.88595 C20.34956,10.16477 18.35988,9.95995 17.98797,9.21998 C17.98797,10.01385 18.91736,10.68452 19.08522,11.72094 C18.4338,11.41371 17.96179,11.37752 17.62607,11.41371 C18.12965,11.77715 19.24769,13.9447 18.91659,15.68413 C18.4338,15.2768 17.9872,15.09123 17.50518,15.05581 C18.09731,15.95209 18.34063,18.30675 17.59835,19.38013 C17.5791,19.13758 17.48901,18.43534 17.21258,18.1412 C16.86069,19.45636 15.83197,20.01461 15.12742,20.17785 C16.00445,19.26232 15.83197,17.6407 14.54992,17.20026 C13.39492,16.80525 11.92576,17.58911 11.33209,20.34263 C10.49741,20.58749 7.99414,20.05003 9.48948,18.43996 C10.40347,18.74642 12.72348,17.19025 12.5664,16.10378 C12.34387,14.58842 10.9648,14.05635 9.86755,14.06867 C8.51312,14.08561 7.59913,15.34764 6.49264,15.89819 C5.56787,15.75728 5.25371,15.62561 4.78093,14.39438 C4.72395,13.64055 5.52629,13.11079 5.51089,12.33386 C4.85408,12.474 4.69238,11.48378 3.41033,12.50788 C3.311,12.32154 3.47886,11.88341 3.47886,11.88341 C3.00685,12.30845 2.91676,12.81819 2.90675,12.92291 C3.13698,13.37875 3.46192,13.79455 4.09255,14.2065 C4.84715,16.2239 5.62485,16.45028 6.42334,16.52497 C6.55963,16.71747 7.1533,17.42587 7.90482,17.53675 C7.777,17.15791 7.75698,16.08915 7.83552,15.82042 C9.47331,14.17955 10.69068,15.17901 10.84853,15.61406 C9.394,15.91513 10.42349,19.02747 8.00877,17.64147 C7.90867,17.95871 8.04573,18.75412 8.34988,19.21535 C8.59705,21.34902 11.27896,20.82542 12.10748,21.19964 C12.01816,19.12834 13.16315,17.61452 14.14875,17.73849 C15.13743,17.86477 15.39384,19.47561 13.70831,21.00175 C14.12334,21.22043 15.92899,20.91705 16.84683,20.24946 C16.93076,20.77691 16.2547,22.33308 15.40924,23.42802 C22.4917,21.8064 25.65794,14.12488 22.34078,8.12427 L22.34078,8.12427 Z M4.46677,13.9293 C4.13028,13.68906 3.60129,13.14852 3.54739,12.94601 C3.6113,12.86978 3.89389,12.56101 4.25194,12.46245 C4.51374,12.39315 4.68237,12.53945 4.64541,12.62338 C4.60845,12.70808 4.37822,12.70808 4.30892,12.90751 C4.2042,13.21705 4.53992,13.30329 4.60845,13.44266 C4.65003,13.53198 4.74012,13.74912 4.46677,13.9293 L4.46677,13.9293 Z M6.81758,16.28242 C6.89689,16.09454 7.24878,15.85199 7.40663,15.83659 C7.34734,16.36635 7.53753,17.08784 7.53753,17.08784 C7.53753,17.08784 6.82297,16.63816 6.81758,16.28242 L6.81758,16.28242 Z M10.50357,16.78369 C10.68683,16.80217 10.84391,16.95463 11.01331,16.83297 C11.17578,16.71208 11.00792,16.2162 10.88087,16.05681 C11.03949,16.02447 11.68475,16.08915 11.65241,16.32477 C11.57464,16.92768 11.19657,17.12249 10.2718,17.5714 C10.42965,17.42356 10.40347,17.10324 10.50357,16.78369 L10.50357,16.78369 Z M8.63863,18.81726 C8.55547,18.74411 8.30907,18.42456 8.3314,18.0796 C8.63863,18.28057 9.06521,18.37605 9.06521,18.37605 C9.06521,18.37605 8.86578,18.72024 8.63863,18.81726 L8.63863,18.81726 Z"></path>
                                </g>
                            </g>
                            <g id="Group" transform="translate(37.730000, 34.650000)" fill="#231F20">
                                <polygon id="Shape" points="6.39023 0.62447 8.61553 0.62447 4.14645 6.0753 8.87887 12.2969 6.49495 12.2969 2.07823 6.44259 2.07823 12.2969 0.1155 12.2969 0.1155 0.62447 2.07823 0.62447 2.07823 5.98752"></polygon>
                                <path d="M10.54207,2.50019 C9.85831,2.50019 9.3324,1.95734 9.3324,1.30823 C9.3324,0.65989 9.85831,0.11704 10.54207,0.11704 C11.24277,0.11704 11.76868,0.65989 11.76868,1.30823 C11.76945,1.95734 11.24277,2.50019 10.54207,2.50019 L10.54207,2.50019 Z M9.61345,12.2969 L9.61345,3.81458 L11.48917,3.81458 L11.48917,12.2969 L9.61345,12.2969 L9.61345,12.2969 Z" id="Shape"></path>
                                <path d="M22.84513,3.60437 C24.59765,3.60437 25.24676,4.77862 25.24676,6.30322 L25.24676,12.2969 L23.38875,12.2969 L23.38875,6.68822 C23.38875,5.7596 23.12541,5.19827 22.2145,5.19827 C21.32053,5.19827 20.67219,5.89974 20.32184,6.33787 L20.32184,12.29613 L18.46383,12.29613 L18.46383,6.68745 C18.46383,5.74112 18.13042,5.1975 17.30729,5.1975 C16.29089,5.1975 15.59019,6.23161 15.41463,6.4603 L15.41463,12.29613 L13.53891,12.29613 L13.53891,3.81458 L15.37921,3.81458 L15.37921,4.93647 C15.78192,4.44598 16.55346,3.60514 17.95486,3.60514 C19.14682,3.60514 19.81287,4.18341 20.12857,4.98883 C20.79462,4.235 21.61929,3.60437 22.84513,3.60437 L22.84513,3.60437 Z" id="Shape"></path>
                                <polygon id="Shape" points="29.29542 12.2969 29.29542 0.62447 35.69258 0.62447 35.69258 2.2715 31.25892 2.2715 31.25892 5.39154 35.16667 5.39154 35.16667 6.9685 31.25892 6.9685 31.25892 10.64833 35.81501 10.64833 35.81501 12.29613 29.29542 12.29613"></polygon>
                                <path d="M42.50862,12.2969 L42.50862,6.68822 C42.50862,5.74189 42.17521,5.19827 41.21194,5.19827 C40.14241,5.19827 39.33622,6.25009 39.16143,6.47801 L39.16143,12.2969 L37.28648,12.2969 L37.28648,3.81458 L39.12678,3.81458 L39.12678,4.95341 C39.5472,4.44521 40.40652,3.60437 41.84334,3.60437 C43.66593,3.60437 44.36663,4.79556 44.36663,6.30322 L44.36663,12.2969 L42.50862,12.2969 L42.50862,12.2969 Z" id="Shape"></path>
                                <path d="M53.67362,3.81458 L53.67362,5.11126 L52.48089,5.11126 C52.76117,5.5671 52.91979,6.11072 52.91979,6.7067 C52.91979,8.49387 51.60463,9.79132 49.36162,9.79132 C49.01204,9.79132 48.69557,9.7559 48.38064,9.70354 C48.20508,9.80903 47.95945,9.98382 47.95945,10.28181 C47.95945,10.73765 48.46842,10.86008 49.45017,10.91244 C51.25505,11.00022 53.6382,10.9648 53.6382,13.52428 C53.6382,15.29374 51.71012,16.46876 49.18683,16.46876 C47.04854,16.46876 45.61095,15.76729 45.61095,14.15568 C45.61095,13.20935 46.20693,12.49017 47.04777,12.0351 C46.59193,11.77253 46.29394,11.38676 46.29394,10.75536 C46.29394,10.07237 46.71436,9.58188 47.20562,9.28312 C46.24158,8.74027 45.69873,7.82936 45.69873,6.70747 C45.69873,4.90182 47.06548,3.60514 49.30849,3.60514 C49.8344,3.60514 50.32489,3.67521 50.74608,3.81535 L53.67362,3.81535 L53.67362,3.81458 Z M47.39966,13.85692 C47.39966,14.59304 47.96022,15.1536 49.29155,15.1536 C50.81615,15.1536 51.76325,14.54068 51.76325,13.68136 C51.76325,12.59489 50.78227,12.59489 49.66038,12.52559 C49.1876,12.50788 48.71405,12.47323 48.29363,12.40239 C47.69688,12.76968 47.39966,13.24246 47.39966,13.85692 L47.39966,13.85692 Z M51.07949,6.70593 C51.07949,5.61946 50.41344,4.91799 49.30926,4.91799 C48.18737,4.91799 47.5398,5.61946 47.5398,6.70593 C47.5398,7.77469 48.18737,8.47539 49.30926,8.47539 C50.41344,8.47616 51.07949,7.77546 51.07949,6.70593 L51.07949,6.70593 Z" id="Shape"></path>
                            </g>
                        </g>
                    </g>
                </g>
            </g>
        </g>
    </g>
</svg>