<?xml version="1.0" encoding="UTF-8"?>
<svg width="154px" height="150px" viewBox="0 0 154 150" version="1.1" xmlns="http://www.w3.org/2000/svg" xmlns:xlink="http://www.w3.org/1999/xlink">
    <!-- Generator: Sketch 40.2 (33826) - http://www.bohemiancoding.com/sketch -->
    <title>250k_silatech</title>
    <desc>Created with Sketch.</desc>
    <defs></defs>
    <g id="Page-1" stroke="none" stroke-width="1" fill="none" fill-rule="evenodd">
        <g id="Our-partners" transform="translate(-570.000000, -2883.000000)">
            <g id="Content" transform="translate(376.000000, 150.000000)">
                <g id="Support-of-$250k+" transform="translate(0.000000, 2686.000000)">
                    <g id="250k_silatech" transform="translate(194.000000, 47.000000)">
                        <rect id="Rectangle-2" fill="#FFFFFF" x="0" y="0" width="154" height="150"></rect>
                        <g id="Layer_1" transform="translate(0.000000, 55.000000)">
                            <g id="Group">
                                <path d="M91.00707,8.74104 C90.06767,8.74104 89.66881,7.89558 89.66881,7.38892 C89.66881,6.30168 90.70215,5.41002 91.61537,5.41002 C92.36766,5.41002 92.97596,6.01139 92.97596,6.83375 C92.97596,7.62993 92.20519,8.74104 91.00707,8.74104 M89.0351,24.67311 C87.74458,24.67311 86.94609,23.77991 87.25101,22.18678 C87.25101,22.18678 88.23661,16.75443 88.65934,14.43673 C88.91883,12.96449 88.12188,12.8205 87.79155,12.86824 L87.74458,12.62646 L91.99267,11.90189 L90.25709,21.46221 C90.04611,22.59719 90.23245,23.24938 91.00784,23.24938 C91.61614,23.24938 92.0843,22.91212 92.50934,22.64647 L92.71878,23.05611 C92.0843,23.53967 90.32485,24.67311 89.0351,24.67311" id="Shape" fill="#FEBE10"></path>
                                <path d="M96.57417,21.38983 C96.50333,21.75327 96.22305,23.27248 97.4897,23.27248 C98.14651,23.27248 98.59234,22.86284 98.91959,22.62183 L99.10824,23.07998 C98.78022,23.34563 97.01923,24.69698 95.65864,24.69698 C93.45105,24.69698 93.49879,22.71731 93.66357,21.77714 L96.5272,6.32709 C96.71508,5.31223 96.29081,4.70855 95.54237,4.87872 L95.49386,4.63771 L99.83743,3.83999 L96.57417,21.38983 L96.57417,21.38983 Z" id="Shape" fill="#FEBE10"></path>
                                <path d="M107.569,13.15699 C103.22851,13.15699 102.50086,19.99074 102.50086,21.12495 C102.50086,22.95909 103.36865,23.37181 103.83912,23.37181 C105.71638,23.37181 106.95839,21.00483 107.36033,18.97588 L108.43756,13.3749 C108.34439,13.30252 107.89933,13.15699 107.569,13.15699 M108.48607,24.794 C107.50047,24.794 106.88986,24.26193 106.88986,23.17623 C106.88986,22.8151 106.91296,22.76582 106.93683,22.45166 C106.44634,23.20087 105.36372,24.74549 103.0645,24.74549 C100.64747,24.74549 99.47553,22.59565 99.47553,20.37497 C99.47553,18.3953 101.28349,11.95194 108.08875,11.95194 C109.09668,11.95194 110.83303,12.2892 111.53758,12.57872 L109.84974,21.67935 C109.77967,21.99274 109.63876,23.32022 110.59972,23.32022 C111.11639,23.32022 111.7501,22.86207 112.10045,22.64416 L112.28987,23.02993 C110.85613,24.21573 109.54174,24.794 108.48607,24.794" id="Shape" fill="#FEBE10"></path>
                                <path d="M120.69519,13.61745 L117.66601,13.61745 C116.91372,17.57602 116.16374,21.82411 116.16374,21.82411 C116.07057,22.33154 116.14295,23.27325 117.12701,23.27325 C117.9948,23.27325 119.0035,22.71731 119.45087,22.33154 L119.68572,22.4532 L119.02814,24.11717 C118.888,24.19032 117.19785,24.74626 116.11908,24.74626 C113.18384,24.74626 113.16228,22.47707 113.51263,20.4974 L114.73385,13.61745 L112.99673,13.61745 L113.23312,12.28766 L114.96793,12.28766 L115.5308,9.29467 L118.72322,7.72618 C118.72322,7.72618 118.37133,9.75436 117.9024,12.28766 L120.92927,12.28766 L120.69519,13.61745 L120.69519,13.61745 Z" id="Shape" fill="#FEBE10"></path>
                                <path d="M127.4504,12.82127 C125.43146,12.82127 124.02467,17.31037 123.78905,18.73333 C127.73145,18.5416 128.52917,15.3307 128.52917,14.60536 C128.52917,13.56817 128.25043,12.82127 127.4504,12.82127 M123.53033,19.86831 C123.508,19.9892 123.38942,20.6668 123.38942,21.22197 C123.38942,21.99274 123.53033,23.51426 125.24358,23.51426 C126.86366,23.51426 128.50453,22.30844 128.83409,22.04125 L129.11514,22.11363 L128.5515,23.99705 C127.96476,24.26193 126.67501,24.7709 124.79852,24.7709 C123.06063,24.7709 120.47959,23.80455 120.47959,20.3049 C120.47959,18.32446 122.26291,11.80487 128.17882,11.80487 C130.15002,11.80487 131.25189,13.08538 131.25189,14.65464 C131.25189,16.41794 129.84279,19.41016 123.53033,19.86831" id="Shape" fill="#FEBE10"></path>
                                <path d="M140.56966,15.93361 L140.16849,15.91128 C140.35637,14.17262 139.41851,12.96526 138.292,12.96526 C135.52154,12.96526 134.18405,18.61321 134.18405,20.81079 C134.18405,22.47707 134.9348,23.61205 136.27306,23.61205 C137.79843,23.61205 139.13823,22.30921 139.51245,21.94577 L139.7935,22.09053 L139.20753,24.0471 C138.90107,24.19186 137.23479,24.79554 135.80182,24.79554 C131.90716,24.79554 131.15564,21.80101 131.15564,20.328 C131.15564,17.50441 133.29085,11.90266 138.05561,11.90266 C139.15902,11.90266 140.14462,12.43473 140.54271,12.43473 C140.75523,12.43473 140.94157,12.28843 140.94157,12.28843 L141.2488,12.28843 L140.56966,15.93361 L140.56966,15.93361 Z" id="Shape" fill="#FEBE10"></path>
                                <path d="M150.34096,24.67388 C149.68338,24.67388 148.53223,24.31121 148.53223,22.69421 C148.53223,21.4137 149.96289,16.12611 149.96289,15.71724 C149.96289,14.82327 149.86972,13.7137 148.5792,13.7137 C147.38185,13.7137 145.41219,15.11279 144.75307,18.66326 L143.7205,24.28734 L140.83377,24.6477 L144.1671,6.49572 C144.40195,5.23985 143.81444,4.87795 143.2277,5.04658 L143.15763,4.78093 L147.42805,4.00862 L145.43144,14.60613 C145.73867,14.19649 147.31024,12.02278 149.96212,12.02278 C151.37122,12.02278 152.89736,12.94062 152.89736,14.87255 C152.89736,16.34633 151.46439,20.88317 151.46439,22.23606 C151.46439,23.0076 152.0057,23.27325 152.42766,23.27325 C152.92046,23.27325 153.36706,22.93676 153.76669,22.67265 L154,23.12772 C153.60114,23.44188 151.77008,24.67388 150.34096,24.67388" id="Shape" fill="#FEBE10"></path>
                                <path d="M77.96635,10.27257 C77.9009,9.97535 77.5005,8.81573 77.5005,8.81573 C77.5005,8.81573 70.73913,6.38484 64.4721,10.43966 C63.45647,11.09647 62.55788,12.09054 62.0235,12.67959 C60.79997,14.03094 59.9522,15.40539 60.35491,17.27264 C61.10181,20.73995 66.1661,22.40315 66.6666,22.48939 L66.81752,22.03355 C57.68609,18.39607 63.0091,12.00199 70.46347,10.51127 C71.51529,10.30106 73.23932,10.26641 74.27343,10.28951 C75.52314,10.31646 77.64911,10.78924 78.13344,10.87856 C78.1704,10.88549 78.03334,10.56979 77.96635,10.27257" id="Shape" fill="#FEBE10"></path>
                                <path d="M74.77855,4.83175 C77.08085,5.23292 79.12135,6.37021 80.3033,7.44282 C85.00338,11.86724 84.38353,20.57055 77.6083,24.39206 C84.42126,21.87185 86.08369,19.19764 86.64271,15.2383 C87.32493,10.40655 85.29983,7.72849 82.54554,5.36305 C80.55586,3.65596 77.06006,1.78101 77.06006,1.78101 C77.06006,1.78101 75.14892,0.92015 75.78648,0.88704 C76.32856,0.85778 77.14476,0.85778 78.96581,1.09879 C84.30807,1.80026 85.25825,3.77839 85.27057,4.85716 C85.76414,5.25679 87.53283,7.51905 87.53668,7.51751 C88.09031,7.05012 88.52151,5.51089 87.8416,4.07176 C86.54184,1.3321 82.56479,0.7623 79.97451,0.37884 C77.38346,-0.00539 73.00909,-0.28721 71.76631,0.51513 C70.29946,1.46069 72.30916,3.41495 74.77855,4.83175" id="Shape" fill="#FEBE10"></path>
                                <path d="M7.60067,16.86839 C8.95433,15.72956 10.55054,15.04811 12.39007,14.82558 L13.37567,13.23399 C12.72887,13.44574 12.18756,13.55123 11.75405,13.55123 C10.63986,13.55123 9.77284,13.24477 9.15838,12.63031 C9.86447,11.96041 10.70223,11.62623 11.66858,11.62623 C11.91652,11.62623 12.18602,11.67089 12.48016,11.76021 C12.88749,11.30206 13.1208,10.91783 13.17932,10.60444 C13.25247,10.21251 12.96064,10.01693 12.30537,10.01693 C11.26356,10.01693 10.36343,10.35881 9.60421,11.03872 C8.62169,11.91036 8.07576,12.64263 7.96565,13.23399 C7.80934,14.0602 8.18664,14.5684 9.09293,14.75782 C8.42919,15.32531 7.931,16.03063 7.60067,16.86839" id="Shape" fill="#5D2E8B"></path>
                                <polygon id="Shape" fill="#5D2E8B" points="31.81024 12.94832 33.03531 14.15414 35.26908 12.64648 33.28094 10.65372 31.49531 11.85954 30.27024 10.65372 28.11039 12.16138 30.0608 14.15414"></polygon>
                                <path d="M58.43684,22.01276 C60.40958,23.70753 61.80636,24.37358 63.77756,25.1944 C67.22716,26.63276 69.76816,26.58887 71.81944,26.21773 C73.97467,25.82888 75.43459,25.18978 77.20097,23.93468 C78.96658,22.68266 81.67236,20.11702 82.03503,15.16438 C82.30145,11.51535 80.69061,9.1861 79.23069,7.99183 C74.80704,4.3659 68.64627,6.00908 65.90738,7.72772 C63.20776,9.42095 61.831,10.78 60.48273,13.72371 C63.83685,8.56856 69.70425,7.56987 71.67237,7.46438 C74.99569,7.28728 78.13267,8.4315 78.13267,8.4315 C78.13267,8.4315 78.9558,10.74073 79.079,11.8349 C79.08978,11.9196 76.83522,11.29436 75.45461,11.14113 C78.49611,13.39338 78.61007,18.36912 77.1309,20.46737 C76.01902,22.53944 72.63102,24.05557 68.87034,23.57124 C65.93125,23.19394 62.6703,22.01276 60.42652,19.94916 C57.89245,17.61914 55.85426,14.58765 54.51446,15.54784 C53.7922,16.06528 53.41798,17.8255 53.41798,18.79955 C55.29216,18.59627 57.72536,21.40215 58.43684,22.01276" id="Shape" fill="#5D2E8B"></path>
                                <path d="M56.16149,20.8362 C57.22178,22.01276 58.5277,23.24938 60.34798,24.41054 L54.42129,24.42286 L39.58262,24.38898 C38.85189,24.38898 38.4384,24.09638 38.28671,23.64362 C37.86398,24.14181 37.2757,24.43287 36.44333,24.36049 L36.40098,24.38898 L29.29388,24.38898 C29.14835,24.37204 29.01514,24.34355 28.89887,24.30351 C28.55622,24.19109 28.35371,23.9008 28.28287,23.43957 L28.27902,23.41801 C27.8817,24.00167 27.31729,24.39283 26.48569,24.38898 L17.15714,24.38898 C16.84529,24.38898 16.5858,24.35587 16.37559,24.28811 C16.02755,24.18108 15.82504,23.9008 15.75574,23.45728 C15.33224,24.05788 14.71624,24.43364 13.80918,24.36819 L13.76991,24.38975 L10.48971,24.38975 C10.47585,24.38975 10.46738,24.39283 10.45275,24.39283 C7.80703,24.40438 2.63494,24.409 2.63494,24.409 C0.81235,24.43441 -0.0077,23.37335 0.25872,21.90727 C0.52514,20.44119 2.14137,18.66942 2.80742,18.04649 L3.21629,18.36835 C2.83668,18.79416 2.36544,19.26078 2.23762,19.95301 C2.08362,20.80771 2.72888,21.15344 3.95626,21.16114 C3.97551,21.16114 3.99399,21.15652 4.01555,21.15652 L16.04834,21.15652 L18.95663,5.9059 C19.14913,4.89104 18.71408,4.28736 17.94177,4.45676 L17.89249,4.21421 L22.36003,3.4188 L19.24384,20.48585 C19.16145,20.93091 19.43018,21.15652 20.04849,21.15652 L28.50001,21.15652 L29.12525,17.99413 C29.31775,16.98235 28.8827,16.37713 28.11116,16.54653 L28.06342,16.30706 L32.52788,15.50857 L31.44911,21.15729 L38.46612,21.15729 L41.37133,5.9059 C41.56537,4.89181 41.13109,4.28736 40.35801,4.45753 L40.31104,4.21575 L44.7755,3.4188 L41.65315,20.48585 C41.56845,20.93091 41.84257,21.15652 42.47397,21.15652 L49.17913,21.15652 L50.66215,21.15575 C52.76348,21.15575 55.18436,21.28742 56.16149,20.8362" id="Shape" fill="#5D2E8B"></path>
                                <path d="M0.69839,32.648 L0.46354,32.648 C0.73073,31.95269 1.02564,31.40676 1.34596,31.00867 C1.66705,30.61058 1.97197,30.41346 2.26072,30.41346 C2.49634,30.41346 2.695,30.55976 2.85901,30.85313 C3.02225,31.14727 3.10387,31.55229 3.10387,32.06896 C3.10387,32.75811 2.99915,33.5643 2.79125,34.49138 C3.24709,33.43956 3.76607,32.49631 4.35204,31.66394 C4.93724,30.82926 5.4593,30.41346 5.91668,30.41346 C6.12227,30.41346 6.28936,30.46967 6.42026,30.58517 C6.55039,30.70067 6.61507,30.84466 6.61507,31.01714 C6.61507,31.11493 6.58427,31.20656 6.52344,31.29357 C6.46261,31.38135 6.38022,31.42293 6.27627,31.42293 C6.06529,31.42293 5.95749,31.27586 5.95441,30.98095 C5.95441,30.8077 5.87433,30.72146 5.71417,30.72146 C5.52629,30.72146 5.26603,30.90857 4.93031,31.28356 C4.59459,31.65855 4.20959,32.22758 3.77531,32.98988 C3.3418,33.75218 2.98837,34.55375 2.71502,35.39459 C2.44244,36.23466 2.30692,36.72438 2.30692,36.86375 C2.30692,37.0447 2.38161,37.17252 2.5333,37.24875 C2.68422,37.32421 2.85285,37.36348 3.03534,37.36348 L3.34334,37.36348 L3.26942,37.60218 L0,37.60218 L0.07315,37.36348 L0.38577,37.36348 C0.7777,37.36348 1.05875,37.25414 1.22969,37.037 C1.39909,36.82063 1.61931,36.12686 1.88804,34.95877 C2.15754,33.78914 2.29152,32.83896 2.29152,32.10592 C2.29152,31.69243 2.26149,31.38366 2.20066,31.17807 C2.13983,30.97402 2.04743,30.87161 1.92269,30.87161 C1.75175,30.87161 1.53692,31.07874 1.27666,31.49069 C1.01563,31.90495 0.82159,32.28995 0.69839,32.648" id="Shape" fill="#5D2E8B"></path>
                                <path d="M5.05505,36.82987 C5.05505,37.01775 5.10356,37.17791 5.20058,37.31035 C5.2976,37.44202 5.43158,37.50747 5.60175,37.50747 C6.06683,37.50747 6.45029,37.06703 6.75059,36.18384 C7.05089,35.30219 7.20104,34.62844 7.20104,34.16336 C7.20104,33.92312 7.15407,33.74371 7.06244,33.62359 C6.97004,33.50424 6.83221,33.44418 6.64895,33.44418 C6.2139,33.44418 5.84045,33.85382 5.52629,34.67156 C5.21213,35.4893 5.05505,36.20848 5.05505,36.82987 M4.49834,36.23004 C4.49834,35.81424 4.59459,35.36071 4.79017,34.86868 C4.98421,34.37742 5.26141,33.97933 5.62331,33.67364 C5.98444,33.36872 6.33479,33.21549 6.6759,33.21549 C6.98467,33.21549 7.23877,33.34639 7.43897,33.60819 C7.6384,33.87076 7.7385,34.22573 7.7385,34.67387 C7.7385,35.21518 7.62685,35.72954 7.40509,36.21464 C7.18256,36.70205 6.90459,37.07396 6.56887,37.33268 C6.23392,37.59217 5.90513,37.72076 5.58096,37.72076 C5.29298,37.72076 5.04119,37.60911 4.82405,37.38658 C4.60614,37.16636 4.49834,36.78059 4.49834,36.23004" id="Shape" fill="#5D2E8B"></path>
                                <path d="M12.29382,36.5288 L12.5125,36.5288 C12.21682,37.34115 11.81873,37.74771 11.31515,37.74771 C11.14498,37.74771 11.01716,37.70074 10.93246,37.6068 C10.84699,37.51286 10.80541,37.37195 10.80541,37.18253 C10.80541,36.91765 10.90243,36.49646 11.09955,35.91973 C10.49202,37.13864 9.89142,37.74771 9.29698,37.74771 C9.07907,37.74771 8.90736,37.68072 8.78185,37.5452 C8.65711,37.40968 8.59397,37.24028 8.59397,37.03931 C8.59397,36.84142 8.66327,36.51417 8.80187,36.05525 L9.3709,34.18492 C9.45406,33.90695 9.49641,33.74063 9.49641,33.68519 C9.49641,33.5951 9.45098,33.55044 9.36089,33.55044 C9.14144,33.55044 8.90197,33.84304 8.64094,34.43055 L8.39146,34.43055 C8.53083,34.0648 8.71255,33.76835 8.93739,33.53735 C9.163,33.30558 9.38476,33.19162 9.60344,33.19162 C9.73819,33.19162 9.85369,33.23243 9.94917,33.31867 C10.04542,33.4026 10.09239,33.53119 10.09239,33.70059 C10.09239,33.82148 10.03849,34.06557 9.93146,34.42978 L9.35011,36.35709 C9.23846,36.73285 9.18302,36.98002 9.18302,37.09706 C9.18302,37.20486 9.20766,37.28648 9.25617,37.34115 C9.30468,37.39736 9.37706,37.42508 9.471,37.42508 C9.77669,37.42508 10.14167,37.10168 10.56286,36.45103 C10.98482,35.80346 11.40139,34.84173 11.81257,33.56815 L11.90728,33.25707 L12.53637,33.25707 L11.56771,36.24313 C11.41217,36.729 11.3344,37.02314 11.3344,37.12401 C11.3344,37.21256 11.35211,37.27801 11.38676,37.32267 C11.42218,37.36656 11.47377,37.38735 11.54307,37.38735 C11.80718,37.38735 12.05743,37.10245 12.29382,36.5288" id="Shape" fill="#5D2E8B"></path>
                                <path d="M16.93846,36.62197 L17.20334,36.62197 C16.99544,36.99773 16.78292,37.27878 16.56578,37.46743 C16.34864,37.65377 16.12765,37.74694 15.90204,37.74694 C15.74496,37.74694 15.61175,37.70074 15.49856,37.60449 C15.38614,37.50901 15.32993,37.36733 15.32993,37.18022 C15.32993,37.02391 15.41001,36.71437 15.56863,36.2516 L16.12611,34.66309 C16.27549,34.22958 16.35095,33.9493 16.35095,33.82148 C16.35095,33.70829 16.32554,33.62359 16.27472,33.56738 C16.22467,33.51271 16.1469,33.48576 16.04372,33.48576 C15.77961,33.48576 15.43542,33.7953 15.00961,34.41361 C14.58534,35.03346 14.21959,35.84427 13.9139,36.84835 L13.65903,37.67995 L13.02378,37.67995 L13.93931,34.72161 C14.1064,34.17568 14.18956,33.86306 14.18956,33.78375 C14.18956,33.72446 14.17878,33.68057 14.15876,33.65439 C14.1372,33.62513 14.10486,33.61127 14.05943,33.61127 C13.85384,33.61127 13.61052,33.8646 13.32716,34.3728 L13.08769,34.3728 C13.52274,33.58432 13.93546,33.19085 14.32431,33.19085 C14.45983,33.19085 14.56147,33.23089 14.63,33.31328 C14.69699,33.39413 14.73164,33.51964 14.73164,33.68673 C14.73164,33.98395 14.6146,34.44749 14.38206,35.07427 C15.01038,33.81763 15.62176,33.19162 16.21466,33.19162 C16.40485,33.19162 16.57194,33.25399 16.71439,33.38104 C16.85607,33.50809 16.92768,33.69289 16.92768,33.93544 C16.92768,34.09329 16.85607,34.38435 16.71439,34.81016 L16.15691,36.47182 C16.00753,36.92073 15.93284,37.17021 15.93284,37.2218 C15.93284,37.28879 15.94901,37.33884 15.98289,37.37118 C16.01523,37.40352 16.06297,37.42123 16.12534,37.42123 C16.24392,37.42123 16.3702,37.3527 16.50572,37.22026 C16.64124,37.08551 16.78523,36.88531 16.93846,36.62197" id="Shape" fill="#5D2E8B"></path>
                                <path d="M18.65941,35.6125 C18.65941,35.80654 18.71408,35.96208 18.82342,36.08066 C18.93276,36.19847 19.06982,36.25699 19.23229,36.25699 C19.42325,36.25699 19.59419,36.17999 19.74588,36.02753 C19.8968,35.87507 20.04464,35.59248 20.1894,35.17899 C20.33262,34.76627 20.405,34.41361 20.405,34.12255 C20.405,33.88231 20.36188,33.70213 20.27718,33.58278 C20.19248,33.4642 20.06389,33.4026 19.89372,33.4026 C19.5888,33.4026 19.30621,33.65516 19.04749,34.15951 C18.78877,34.6654 18.65941,35.1505 18.65941,35.6125 M18.76875,36.34708 C18.54314,36.22157 18.37297,36.05833 18.26132,35.85967 C18.14736,35.66024 18.09192,35.42 18.09192,35.1428 C18.09192,34.63691 18.2721,34.18415 18.63323,33.78683 C18.99436,33.38951 19.40323,33.18854 19.85753,33.18854 C20.00075,33.18854 20.13319,33.21164 20.25639,33.25707 C20.38036,33.30173 20.49201,33.3718 20.59211,33.46574 C20.82542,33.27401 21.01792,33.17853 21.16961,33.17853 C21.29512,33.17853 21.39753,33.21395 21.47761,33.28479 C21.55769,33.3564 21.59773,33.44649 21.59773,33.55352 C21.59773,33.72061 21.51688,33.80454 21.35749,33.80454 C21.2674,33.80454 21.17962,33.74448 21.09184,33.62513 C21.0364,33.55044 20.98096,33.51194 20.92552,33.51194 C20.86623,33.51194 20.8054,33.55583 20.74303,33.64284 C20.8824,33.87153 20.9517,34.14411 20.9517,34.45981 C20.9517,35.06041 20.77691,35.53473 20.42579,35.88354 C20.07159,36.23004 19.64116,36.43563 19.13373,36.50339 C18.3799,36.59964 18.00337,36.80061 18.00337,37.10784 C18.00337,37.20563 18.04649,37.28571 18.1335,37.34885 C18.21974,37.41045 18.40223,37.47205 18.6802,37.53057 C19.16299,37.63914 19.55646,37.73539 19.86215,37.82163 C20.16784,37.91018 20.39422,38.03646 20.54206,38.20663 C20.68913,38.37603 20.76382,38.57546 20.76382,38.80261 C20.76382,39.15758 20.58364,39.4702 20.22174,39.73739 C19.86138,40.00535 19.34702,40.13856 18.6802,40.13856 C18.05188,40.13856 17.56216,40.03615 17.21104,39.8321 C16.86146,39.62574 16.68513,39.37087 16.68513,39.06441 C16.68513,38.83957 16.7706,38.64938 16.94077,38.49461 C17.11017,38.33984 17.2557,38.26361 17.37736,38.26361 C17.49825,38.26361 17.55908,38.30827 17.55908,38.39836 C17.55908,38.44764 17.51827,38.5154 17.43434,38.60087 C17.29189,38.7541 17.22028,38.90425 17.22028,39.05132 C17.22028,39.27539 17.33501,39.47636 17.56447,39.64884 C17.79316,39.82286 18.14428,39.9091 18.61629,39.9091 C19.12295,39.9091 19.50795,39.82209 19.76975,39.64884 C20.03232,39.47405 20.16399,39.27077 20.16399,39.03746 C20.16399,38.85343 20.07159,38.70251 19.88756,38.58855 C19.70353,38.47382 19.30467,38.346 18.68944,38.20278 C18.15429,38.07727 17.82242,37.94637 17.6946,37.81162 C17.56293,37.67918 17.49594,37.53519 17.49594,37.37888 C17.49594,37.15866 17.60759,36.9523 17.83012,36.75518 C18.05419,36.5596 18.36604,36.42331 18.76875,36.34708" id="Shape" fill="#5D2E8B"></path>
                                <path d="M26.93691,33.9339 L27.24337,33.9339 C27.76697,33.9339 28.19355,33.88693 28.52619,33.79299 C28.85652,33.69982 29.14296,33.48268 29.38397,33.14003 C29.62421,32.79738 29.74587,32.42239 29.74587,32.01121 C29.74587,31.69628 29.67349,31.43602 29.52796,31.22966 C29.38397,31.02561 29.21226,30.89779 29.01591,30.85005 C28.82033,30.80231 28.52619,30.77767 28.13503,30.77767 L27.88478,30.77767 L26.93691,33.9339 L26.93691,33.9339 Z M26.8653,34.17414 L26.2416,36.24621 C26.1415,36.58347 26.09068,36.7906 26.09068,36.8676 C26.09068,37.03238 26.15767,37.15789 26.29242,37.23874 C26.42871,37.32036 26.60119,37.36194 26.81294,37.36194 L26.97926,37.36194 L26.90688,37.60064 L24.09946,37.60064 L24.17184,37.36194 C24.39052,37.36194 24.57532,37.32344 24.72547,37.24721 C24.87485,37.17098 24.97649,37.08012 25.03039,36.9754 C25.08429,36.87145 25.1636,36.64661 25.26678,36.29934 L26.62891,31.80331 C26.73671,31.45681 26.78984,31.23659 26.78984,31.14727 C26.78984,30.9001 26.565,30.77767 26.11455,30.77767 L25.87508,30.77767 L25.94823,30.53743 L27.91481,30.53743 C28.44226,30.53743 28.8365,30.55283 29.09599,30.58286 C29.35548,30.61135 29.61805,30.70144 29.88601,30.85082 C30.1532,31.0002 30.35956,31.19578 30.50355,31.43987 C30.64831,31.68319 30.71992,31.93883 30.71992,32.21064 C30.71992,32.71037 30.50201,33.16159 30.06542,33.56661 C29.63037,33.97163 28.73332,34.17414 27.37581,34.17414 L26.8653,34.17414 L26.8653,34.17414 Z" id="Shape" fill="#5D2E8B"></path>
                                <path d="M30.72146,35.64869 C31.17037,35.44695 31.57231,35.16898 31.92959,34.81478 C32.28841,34.46058 32.46705,34.14026 32.46705,33.85074 C32.46705,33.71907 32.43933,33.62128 32.38543,33.55737 C32.3323,33.49269 32.25145,33.46112 32.14442,33.46112 C31.93575,33.46112 31.69012,33.66209 31.40753,34.06711 C31.12417,34.47213 30.89625,34.99881 30.72146,35.64869 M32.26916,36.27316 L32.51941,36.27316 C32.0782,37.25568 31.51225,37.74694 30.82002,37.74694 C30.53512,37.74694 30.30335,37.64838 30.12394,37.44741 C29.94607,37.24875 29.85598,36.97771 29.85598,36.63737 C29.85598,36.20771 29.97148,35.72184 30.20325,35.17899 C30.43425,34.63691 30.76304,34.16952 31.18731,33.77682 C31.61312,33.38489 31.98426,33.18777 32.29996,33.18777 C32.494,33.18777 32.64184,33.24937 32.74348,33.37411 C32.84358,33.49808 32.89363,33.65131 32.89363,33.83457 C32.89363,34.20956 32.70575,34.57069 32.33153,34.91642 C31.95577,35.26138 31.39367,35.59479 30.64292,35.91357 C30.54667,36.21464 30.49739,36.50262 30.49739,36.77289 C30.49739,36.99696 30.54051,37.16251 30.62675,37.27185 C30.71376,37.38427 30.84235,37.43894 31.01175,37.43894 C31.48915,37.43971 31.90803,37.05163 32.26916,36.27316" id="Shape" fill="#5D2E8B"></path>
                                <path d="M33.86075,36.82987 C33.86075,37.01775 33.90849,37.17791 34.00628,37.31035 C34.10407,37.44202 34.23728,37.50747 34.40822,37.50747 C34.8733,37.50747 35.25599,37.06703 35.55629,36.18384 C35.85736,35.30219 36.00674,34.62844 36.00674,34.16336 C36.00674,33.92312 35.96054,33.74371 35.86891,33.62359 C35.77651,33.50424 35.63868,33.44418 35.45388,33.44418 C35.02037,33.44418 34.64615,33.85382 34.33199,34.67156 C34.01706,35.4893 33.86075,36.20848 33.86075,36.82987 M33.30327,36.23004 C33.30327,35.81424 33.40029,35.36071 33.5951,34.86868 C33.78991,34.37742 34.06711,33.97933 34.42824,33.67364 C34.79014,33.36872 35.14049,33.21549 35.4816,33.21549 C35.79037,33.21549 36.0437,33.34639 36.24467,33.60819 C36.4441,33.87076 36.54343,34.22573 36.54343,34.67387 C36.54343,35.21518 36.43255,35.72954 36.21079,36.21464 C35.98903,36.70205 35.70952,37.07396 35.37457,37.33268 C35.03962,37.59217 34.71083,37.72076 34.38743,37.72076 C34.09868,37.72076 33.84612,37.60911 33.62975,37.38658 C33.41184,37.16636 33.30327,36.78059 33.30327,36.23004" id="Shape" fill="#5D2E8B"></path>
                                <path d="M38.31674,36.25545 C38.2228,36.56499 38.1766,36.78752 38.1766,36.92458 C38.1766,37.09398 38.2228,37.23874 38.31751,37.35655 C38.41145,37.47436 38.54389,37.53442 38.71483,37.53442 C38.96893,37.53442 39.22919,37.38889 39.49561,37.09937 C39.76126,36.80831 40.00458,36.32552 40.22557,35.64869 C40.44733,34.97109 40.55744,34.46366 40.55744,34.12255 C40.55744,33.90002 40.52279,33.7337 40.45272,33.62205 C40.38265,33.5104 40.2787,33.45573 40.13856,33.45573 C39.95068,33.45573 39.69966,33.59279 39.38781,33.86845 C39.07519,34.14334 38.78798,34.71237 38.52464,35.57323 L38.31674,36.25545 L38.31674,36.25545 Z M37.35886,35.45465 L37.11939,35.45465 L38.10191,33.87692 C38.38989,33.41877 38.57777,33.09306 38.66863,32.90441 C38.75872,32.71191 38.86267,32.42393 38.98048,32.03816 L39.05363,31.78791 L39.67348,31.78791 L39.32082,32.956 L38.88423,34.18569 C39.35778,33.52195 39.80823,33.18931 40.2325,33.18931 C40.49045,33.18931 40.7099,33.30943 40.89085,33.54582 C41.0718,33.78529 41.16266,34.08251 41.16266,34.43979 C41.16266,34.86098 41.05409,35.34223 40.83926,35.88354 C40.62289,36.42639 40.31874,36.87145 39.9245,37.2218 C39.52872,37.57369 39.13525,37.74848 38.74178,37.74848 C38.36679,37.74848 38.12963,37.57138 38.02799,37.21795 L37.41969,39.23227 C37.34269,39.48252 37.30573,39.63575 37.30573,39.69042 C37.30573,39.75048 37.33037,39.8013 37.38042,39.84288 C37.43047,39.88369 37.57754,39.90602 37.81932,39.90602 L38.0534,39.90602 L37.98025,40.13471 L35.80808,40.13471 L35.88123,39.90602 L35.99519,39.90602 C36.30242,39.90602 36.48491,39.88369 36.54343,39.84288 C36.60272,39.80207 36.69358,39.58416 36.81447,39.19069 L37.89555,35.61173 C38.12424,34.8656 38.38758,34.1033 38.6848,33.32637 C38.65169,33.37411 38.55852,33.53042 38.40991,33.79453 C38.39297,33.82225 38.33676,33.91003 38.24359,34.05864 L37.35886,35.45465 L37.35886,35.45465 Z" id="Shape" fill="#5D2E8B"></path>
                                <path d="M43.75987,36.35093 L43.98856,36.35093 C43.63359,37.28186 43.17852,37.74694 42.62181,37.74694 C42.43085,37.74694 42.27762,37.6838 42.16366,37.55675 C42.04816,37.43124 41.99118,37.27108 41.99118,37.08089 C41.99118,36.89224 42.1036,36.43024 42.32921,35.68873 L43.54812,31.66702 C43.65284,31.32514 43.7052,31.12802 43.7052,31.07335 C43.7052,30.98865 43.68133,30.93013 43.63513,30.89548 C43.58816,30.8616 43.47112,30.84389 43.28324,30.84389 L43.07996,30.84389 L43.14772,30.62444 C43.72137,30.6152 44.1441,30.55283 44.41514,30.4381 L44.54527,30.4381 L42.8659,35.96054 C42.84049,36.04678 42.79044,36.20617 42.71498,36.43486 C42.61334,36.73593 42.56329,36.96616 42.56329,37.1217 C42.56329,37.22719 42.58254,37.30496 42.62335,37.35655 C42.66339,37.40891 42.72268,37.43586 42.80276,37.43586 C42.92134,37.43586 43.06918,37.35424 43.24705,37.191 C43.42492,37.02622 43.59663,36.74671 43.75987,36.35093" id="Shape" fill="#5D2E8B"></path>
                                <path d="M45.26676,35.64869 C45.7149,35.44695 46.11838,35.16898 46.47566,34.81478 C46.83217,34.46058 47.01158,34.14026 47.01158,33.85074 C47.01158,33.71907 46.9854,33.62128 46.93073,33.55737 C46.87606,33.49269 46.79675,33.46112 46.68972,33.46112 C46.48028,33.46112 46.23542,33.66209 45.95206,34.06711 C45.66793,34.47213 45.44078,34.99881 45.26676,35.64869 M46.81446,36.27316 L47.06394,36.27316 C46.6235,37.25568 46.05678,37.74694 45.36609,37.74694 C45.08042,37.74694 44.84865,37.64838 44.67001,37.44741 C44.49137,37.24875 44.40205,36.97771 44.40205,36.63737 C44.40205,36.20771 44.51678,35.72184 44.74932,35.17899 C44.97955,34.63691 45.30834,34.16952 45.73338,33.77682 C46.15919,33.38489 46.52956,33.18777 46.84603,33.18777 C47.0393,33.18777 47.18791,33.24937 47.28878,33.37411 C47.38965,33.49808 47.4397,33.65131 47.4397,33.83457 C47.4397,34.20956 47.25182,34.57069 46.8776,34.91642 C46.50338,35.26138 45.93897,35.59479 45.18976,35.91357 C45.09274,36.21464 45.04423,36.50262 45.04423,36.77289 C45.04423,36.99696 45.08735,37.16251 45.17436,37.27185 C45.2606,37.38427 45.38996,37.43894 45.55936,37.43894 C46.03445,37.43971 46.45179,37.05163 46.81446,36.27316" id="Shape" fill="#5D2E8B"></path>
                                <path d="M47.53518,37.19562 C47.53518,37.04624 47.58908,36.91688 47.69688,36.80985 C47.80391,36.70282 47.93404,36.64969 48.0865,36.64969 C48.23588,36.64969 48.36447,36.70359 48.47227,36.80985 C48.5793,36.91765 48.6332,37.04624 48.6332,37.19562 C48.6332,37.34885 48.5793,37.47821 48.47227,37.58678 C48.36447,37.69458 48.23588,37.74694 48.0865,37.74694 C47.93096,37.74694 47.79929,37.69381 47.69457,37.5837 C47.58754,37.47436 47.53518,37.345 47.53518,37.19562" id="Shape" fill="#5D2E8B"></path>
                                <path d="M50.19938,37.19562 C50.19938,37.04624 50.25328,36.91688 50.36108,36.80985 C50.46811,36.70282 50.59901,36.64969 50.75224,36.64969 C50.90085,36.64969 51.02867,36.70359 51.13647,36.80985 C51.24504,36.91765 51.29894,37.04624 51.29894,37.19562 C51.29894,37.34885 51.24504,37.47821 51.13647,37.58678 C51.02944,37.69458 50.90162,37.74694 50.75224,37.74694 C50.59439,37.74694 50.46426,37.69381 50.358,37.5837 C50.25251,37.47436 50.19938,37.345 50.19938,37.19562" id="Shape" fill="#5D2E8B"></path>
                                <path d="M52.86358,37.19562 C52.86358,37.04624 52.91825,36.91688 53.02528,36.80985 C53.13231,36.70282 53.26244,36.64969 53.4149,36.64969 C53.56505,36.64969 53.69364,36.70359 53.80067,36.80985 C53.90924,36.91765 53.9616,37.04624 53.9616,37.19562 C53.9616,37.34885 53.90847,37.47821 53.80067,37.58678 C53.69364,37.69458 53.56505,37.74694 53.4149,37.74694 C53.26013,37.74694 53.12769,37.69381 53.0222,37.5837 C52.91748,37.47436 52.86358,37.345 52.86358,37.19562" id="Shape" fill="#5D2E8B"></path>
                                <path d="M61.42983,35.81501 L61.65775,35.81501 L61.11105,37.60141 L55.19514,37.60141 L55.26829,37.36271 L55.41998,37.36271 C55.63558,37.36271 55.8173,37.32267 55.96514,37.2449 C56.11298,37.16713 56.21539,37.07627 56.27083,36.97386 C56.32627,36.87068 56.40558,36.64661 56.5103,36.30011 L57.87551,31.80331 C57.97946,31.45758 58.03182,31.23736 58.03182,31.14804 C58.03182,30.90087 57.80775,30.77844 57.36192,30.77844 L57.15402,30.77844 L57.2264,30.5382 L62.26374,30.5382 L62.29069,32.13056 L62.07124,32.13056 C61.96729,31.71553 61.83023,31.40599 61.65929,31.20271 C61.48912,30.99943 61.31433,30.87777 61.13569,30.83696 C60.95705,30.79769 60.59207,30.77844 60.04306,30.77844 L59.12445,30.77844 L58.21508,33.79915 L58.72713,33.79915 C59.21454,33.79915 59.5826,33.73139 59.83362,33.59664 C60.08387,33.46189 60.31718,33.14542 60.53278,32.64877 L60.76917,32.64877 L59.93141,35.41923 L59.69425,35.41923 C59.73198,35.23597 59.752,35.05733 59.752,34.88793 C59.752,34.60303 59.71581,34.40591 59.6442,34.29349 C59.57336,34.18261 59.47788,34.11408 59.36007,34.08482 C59.24149,34.05402 59.0282,34.03939 58.72174,34.03939 L58.1427,34.03939 L57.48204,36.23081 C57.37578,36.5827 57.32342,36.79291 57.32342,36.86298 C57.32342,37.05086 57.4035,37.18099 57.56597,37.25876 C57.72613,37.33499 58.00795,37.37195 58.40681,37.37195 L58.81876,37.37195 C59.53486,37.37195 60.08541,37.24721 60.47118,36.99619 C60.85695,36.74286 61.17573,36.34939 61.42983,35.81501" id="Shape" fill="#5D2E8B"></path>
                                <path d="M66.08063,36.62197 L66.34551,36.62197 C66.13684,36.99773 65.92509,37.27878 65.70795,37.46743 C65.49081,37.65377 65.26982,37.74694 65.04498,37.74694 C64.88867,37.74694 64.75392,37.70074 64.6415,37.60449 C64.52831,37.50901 64.47133,37.36733 64.47133,37.18022 C64.47133,37.02391 64.55141,36.71437 64.7108,36.2516 L65.26828,34.66309 C65.41766,34.22958 65.49235,33.9493 65.49235,33.82148 C65.49235,33.70829 65.46694,33.62359 65.41689,33.56738 C65.36607,33.51271 65.2883,33.48576 65.18512,33.48576 C64.92178,33.48576 64.57759,33.7953 64.15255,34.41361 C63.72751,35.03346 63.36253,35.84427 63.05684,36.84835 L62.8012,37.67995 L62.16595,37.67995 L63.08225,34.72161 C63.2478,34.17568 63.33173,33.86306 63.33173,33.78375 C63.33173,33.72446 63.32018,33.68057 63.29939,33.65439 C63.27937,33.62513 63.24549,33.61127 63.20083,33.61127 C62.99524,33.61127 62.75115,33.8646 62.46933,34.3728 L62.22909,34.3728 C62.66337,33.58432 63.07609,33.19085 63.46494,33.19085 C63.60123,33.19085 63.70287,33.23089 63.77063,33.31328 C63.83916,33.39413 63.87227,33.51964 63.87227,33.68673 C63.87227,33.98395 63.75523,34.44749 63.52346,35.07427 C64.15101,33.81763 64.76316,33.19162 65.35529,33.19162 C65.54625,33.19162 65.71334,33.25399 65.85579,33.38104 C65.99747,33.50809 66.06908,33.69289 66.06908,33.93544 C66.06908,34.09329 65.99747,34.38435 65.85579,34.81016 L65.29831,36.47182 C65.14893,36.92073 65.07347,37.17021 65.07347,37.2218 C65.07347,37.28879 65.09041,37.33884 65.12352,37.37118 C65.15586,37.40352 65.2036,37.42123 65.26597,37.42123 C65.38455,37.42123 65.51083,37.3527 65.64558,37.22026 C65.78418,37.08551 65.92817,36.88531 66.08063,36.62197" id="Shape" fill="#5D2E8B"></path>
                                <path d="M69.54717,33.33561 L69.47325,33.56353 L68.69478,33.56353 L68.00332,35.83965 C67.7754,36.58732 67.66375,37.0216 67.66375,37.14403 C67.66375,37.22719 67.68069,37.29033 67.71765,37.33345 C67.75384,37.37657 67.8062,37.3989 67.8755,37.3989 C68.00178,37.3989 68.16425,37.28032 68.36522,37.04393 C68.56619,36.80754 68.74637,36.51186 68.90653,36.15227 L69.13522,36.15227 C68.92424,36.66971 68.68169,37.06472 68.40911,37.3373 C68.1373,37.61065 67.88782,37.74617 67.66298,37.74617 C67.48588,37.74617 67.34497,37.6838 67.23871,37.55829 C67.13322,37.43432 67.08009,37.2757 67.08009,37.08397 C67.08009,36.9215 67.18712,36.48645 67.40118,35.7819 L68.07339,33.56276 L67.35575,33.56276 L67.42813,33.33484 L68.14269,33.33484 L68.62163,31.75557 L69.24687,31.75557 L68.76562,33.33484 L69.54717,33.33484 L69.54717,33.33561 Z" id="Shape" fill="#5D2E8B"></path>
                                <path d="M70.38339,35.64869 C70.8323,35.44695 71.23424,35.16898 71.59152,34.81478 C71.94957,34.46058 72.12821,34.14026 72.12821,33.85074 C72.12821,33.71907 72.10126,33.62128 72.04736,33.55737 C71.99346,33.49269 71.91338,33.46112 71.80558,33.46112 C71.59691,33.46112 71.35205,33.66209 71.06869,34.06711 C70.78456,34.47213 70.55741,34.99881 70.38339,35.64869 M71.93109,36.27316 L72.18057,36.27316 C71.74013,37.25568 71.17341,37.74694 70.48118,37.74694 C70.19705,37.74694 69.96528,37.64838 69.78587,37.44741 C69.608,37.24875 69.51791,36.97771 69.51791,36.63737 C69.51791,36.20771 69.63418,35.72184 69.86518,35.17899 C70.09618,34.63691 70.42343,34.16952 70.84847,33.77682 C71.27428,33.38489 71.64465,33.18777 71.96035,33.18777 C72.15439,33.18777 72.30223,33.24937 72.4031,33.37411 C72.50397,33.49808 72.55479,33.65131 72.55479,33.83457 C72.55479,34.20956 72.36768,34.57069 71.99269,34.91642 C71.6177,35.26138 71.05483,35.59479 70.30485,35.91357 C70.20783,36.21464 70.15855,36.50262 70.15855,36.77289 C70.15855,36.99696 70.20244,37.16251 70.28868,37.27185 C70.37569,37.38427 70.50428,37.43894 70.67445,37.43894 C71.15031,37.43971 71.56919,37.05163 71.93109,36.27316" id="Shape" fill="#5D2E8B"></path>
                                <path d="M73.11381,34.5961 L72.88512,34.5961 C73.03065,34.20725 73.21314,33.87538 73.43413,33.60049 C73.65512,33.32637 73.87226,33.18854 74.08786,33.18854 C74.23647,33.18854 74.34735,33.24937 74.42127,33.36872 C74.49288,33.4873 74.52984,33.67133 74.52984,33.91311 C74.52984,34.21418 74.45053,34.64538 74.29114,35.20517 C74.31116,35.17052 74.36891,35.04501 74.46208,34.83018 C74.71849,34.25114 74.94333,33.83303 75.13583,33.57508 C75.3291,33.31867 75.52314,33.18931 75.71641,33.18931 C75.8373,33.18931 75.93432,33.22858 76.00593,33.30404 C76.07908,33.38104 76.11527,33.47267 76.11527,33.58047 C76.11527,33.68365 76.08447,33.76989 76.02441,33.83611 C75.96281,33.90156 75.8912,33.9339 75.80881,33.9339 C75.7141,33.9339 75.61862,33.87615 75.52314,33.76296 C75.48541,33.71599 75.44614,33.69366 75.40918,33.69366 C75.23516,33.69366 74.96874,34.111 74.60761,34.94645 C74.24725,35.78113 73.95465,36.5673 73.7275,37.30496 L73.612,37.67918 L72.99138,37.67918 L73.83068,34.91796 C73.98853,34.38974 74.06784,34.03323 74.06784,33.84458 C74.06784,33.74371 74.05398,33.66979 74.02857,33.62051 C74.00239,33.572 73.96389,33.5489 73.91076,33.5489 C73.79603,33.5489 73.65204,33.67133 73.47956,33.91773 C73.31093,34.16567 73.18696,34.39128 73.11381,34.5961" id="Shape" fill="#5D2E8B"></path>
                                <path d="M77.19712,36.25545 C77.10318,36.56499 77.05698,36.78752 77.05698,36.92458 C77.05698,37.09398 77.10318,37.23874 77.19789,37.35655 C77.2926,37.47436 77.42427,37.53442 77.59444,37.53442 C77.84931,37.53442 78.10803,37.38889 78.37368,37.09937 C78.64164,36.80831 78.88342,36.32552 79.10518,35.64869 C79.32694,34.97109 79.43705,34.46366 79.43705,34.12255 C79.43705,33.90002 79.40317,33.7337 79.33156,33.62205 C79.26149,33.5104 79.15831,33.45573 79.01894,33.45573 C78.83029,33.45573 78.58004,33.59279 78.26742,33.86845 C77.9548,34.14334 77.66759,34.71237 77.40425,35.57323 L77.19712,36.25545 L77.19712,36.25545 Z M76.23924,35.45465 L75.999,35.45465 L76.98152,33.87692 C77.26873,33.41877 77.45738,33.09306 77.54824,32.90441 C77.63833,32.71191 77.74151,32.42393 77.86009,32.03816 L77.93324,31.78791 L78.55309,31.78791 L78.19966,32.956 L77.76384,34.18569 C78.23739,33.52195 78.68707,33.18931 79.11134,33.18931 C79.36929,33.18931 79.58874,33.30943 79.76892,33.54582 C79.94987,33.78529 80.0415,34.08251 80.0415,34.43979 C80.0415,34.86098 79.93293,35.34223 79.7181,35.88354 C79.50173,36.42639 79.19681,36.87145 78.80257,37.2218 C78.40756,37.57369 78.01486,37.74848 77.62139,37.74848 C77.24563,37.74848 77.0077,37.57138 76.90683,37.21795 L76.29853,39.23227 C76.2223,39.48252 76.18457,39.63575 76.18457,39.69042 C76.18457,39.75048 76.20921,39.8013 76.26003,39.84288 C76.30931,39.88369 76.45561,39.90602 76.69816,39.90602 L76.93224,39.90602 L76.85909,40.13471 L74.68615,40.13471 L74.76007,39.90602 L74.8748,39.90602 C75.18049,39.90602 75.36375,39.88369 75.42227,39.84288 C75.48156,39.80207 75.57242,39.58416 75.69408,39.19069 L76.77439,35.61173 C77.00385,34.8656 77.26719,34.1033 77.56518,33.32637 C77.5313,33.37411 77.43813,33.53042 77.28952,33.79453 C77.27258,33.82225 77.21637,33.91003 77.12397,34.05864 L76.23924,35.45465 L76.23924,35.45465 Z" id="Shape" fill="#5D2E8B"></path>
                                <path d="M80.88157,34.5961 L80.65134,34.5961 C80.79687,34.20725 80.9809,33.87538 81.20112,33.60049 C81.42134,33.32637 81.63925,33.18854 81.85485,33.18854 C82.00423,33.18854 82.11588,33.24937 82.18903,33.36872 C82.26295,33.4873 82.29914,33.67133 82.29914,33.91311 C82.29914,34.21418 82.21906,34.64538 82.05967,35.20517 C82.07969,35.17052 82.13898,35.04501 82.23061,34.83018 C82.48625,34.25114 82.71032,33.83303 82.90436,33.57508 C83.09763,33.31867 83.2909,33.18931 83.48494,33.18931 C83.60506,33.18931 83.70208,33.22858 83.776,33.30404 C83.84684,33.38104 83.88534,33.47267 83.88534,33.58047 C83.88534,33.68365 83.85377,33.76989 83.79371,33.83611 C83.73211,33.90156 83.6605,33.9339 83.57811,33.9339 C83.48417,33.9339 83.38946,33.87615 83.29244,33.76296 C83.25548,33.71599 83.21698,33.69366 83.18002,33.69366 C83.00523,33.69366 82.73958,34.111 82.37768,34.94645 C82.01809,35.78113 81.72549,36.5673 81.49834,37.30496 L81.38207,37.67918 L80.76145,37.67918 L81.60152,34.91796 C81.75783,34.38974 81.83945,34.03323 81.83945,33.84458 C81.83945,33.74371 81.82559,33.66979 81.79941,33.62051 C81.77323,33.572 81.73319,33.5489 81.6816,33.5489 C81.56841,33.5489 81.42365,33.67133 81.2504,33.91773 C81.07715,34.16567 80.95472,34.39128 80.88157,34.5961" id="Shape" fill="#5D2E8B"></path>
                                <path d="M85.32909,30.89086 C85.32909,30.76689 85.37298,30.65986 85.46076,30.57054 C85.54854,30.48199 85.65711,30.4381 85.78262,30.4381 C85.90659,30.4381 86.01285,30.48199 86.1014,30.57054 C86.19072,30.65986 86.23538,30.76689 86.23538,30.89086 C86.23538,31.01637 86.19072,31.12494 86.1014,31.21426 C86.01285,31.30512 85.90659,31.35055 85.78262,31.35055 C85.65403,31.35055 85.54546,31.30435 85.45845,31.21272 C85.37221,31.11955 85.32909,31.01329 85.32909,30.89086 M85.82959,36.46027 L86.08061,36.46027 C85.9166,36.79753 85.70562,37.09629 85.44613,37.35655 C85.1851,37.61681 84.93408,37.74694 84.6923,37.74694 C84.52983,37.74694 84.38738,37.68919 84.26495,37.57292 C84.14252,37.45665 84.08169,37.28494 84.08169,37.0601 C84.08169,36.87453 84.16716,36.52341 84.33887,36.00212 L84.86863,34.4113 C84.99106,34.04093 85.05189,33.81609 85.05189,33.73601 C85.05189,33.66671 85.03572,33.61435 85.00338,33.5797 C84.9695,33.54505 84.92099,33.52734 84.85554,33.52734 C84.72002,33.52734 84.55909,33.63283 84.37275,33.84304 C84.18795,34.05325 84.05628,34.24344 83.97928,34.4113 L83.73057,34.4113 C83.92076,34.03323 84.13713,33.73601 84.38276,33.51733 C84.62916,33.29865 84.85708,33.18854 85.0696,33.18854 C85.2313,33.18854 85.36528,33.24475 85.47077,33.35563 C85.57472,33.46805 85.62554,33.61358 85.62554,33.79299 C85.62554,33.97779 85.54392,34.31351 85.38068,34.80323 L84.93639,36.15535 C84.77161,36.6443 84.69076,36.9523 84.69076,37.07858 C84.69076,37.17945 84.71001,37.25568 84.75082,37.3065 C84.79009,37.35578 84.84784,37.3835 84.92561,37.3835 C85.17894,37.3835 85.48232,37.07473 85.82959,36.46027" id="Shape" fill="#5D2E8B"></path>
                                <path d="M88.87956,36.45642 C88.87956,36.77905 88.75559,37.07473 88.50611,37.345 C88.25894,37.61373 87.89319,37.74771 87.4104,37.74771 C87.05312,37.74771 86.78439,37.66917 86.60498,37.51055 C86.42634,37.3527 86.33625,37.1833 86.33625,37.00235 C86.33625,36.90533 86.3632,36.82294 86.41787,36.7521 C86.47177,36.6828 86.54107,36.64892 86.62423,36.64892 C86.81134,36.64892 86.90451,36.74671 86.90451,36.94614 C86.90451,36.9908 86.89373,37.05394 86.87294,37.13864 C86.85908,37.17714 86.85215,37.20717 86.85215,37.22796 C86.85215,37.31112 86.90605,37.38273 87.01462,37.44279 C87.12319,37.50439 87.25101,37.53519 87.39962,37.53519 C87.63216,37.53519 87.84237,37.46204 88.0341,37.31343 C88.22583,37.16713 88.32131,36.96154 88.32131,36.70205 C88.32131,36.47644 88.18887,36.11916 87.92014,35.63329 C87.60598,35.07119 87.45044,34.65924 87.45044,34.39821 C87.45044,34.06557 87.58365,33.78452 87.84776,33.55429 C88.1111,33.32637 88.4114,33.21164 88.74943,33.21164 C88.99583,33.21164 89.20681,33.27401 89.3816,33.39952 C89.55716,33.52349 89.64571,33.65593 89.64571,33.79992 C89.64571,33.98318 89.56871,34.07558 89.41625,34.07558 C89.30152,34.07558 89.21836,33.97317 89.166,33.76604 C89.10979,33.53889 88.95887,33.4257 88.7117,33.4257 C88.51535,33.4257 88.34133,33.48037 88.1958,33.5874 C88.05027,33.6952 87.97866,33.83842 87.97866,34.01321 C87.97866,34.24883 88.09416,34.57377 88.3267,34.9888 C88.54538,35.36302 88.69168,35.64946 88.76714,35.84812 C88.84183,36.04447 88.87956,36.24775 88.87956,36.45642" id="Shape" fill="#5D2E8B"></path>
                                <path d="M90.80379,35.64869 C91.25193,35.44695 91.65464,35.16898 92.01269,34.81478 C92.37074,34.46058 92.54938,34.14026 92.54938,33.85074 C92.54938,33.71907 92.52243,33.62128 92.46853,33.55737 C92.4154,33.49269 92.33378,33.46112 92.22598,33.46112 C92.01808,33.46112 91.77322,33.66209 91.48986,34.06711 C91.20573,34.47213 90.97781,34.99881 90.80379,35.64869 M92.35149,36.27316 L92.60174,36.27316 C92.16053,37.25568 91.59304,37.74694 90.90312,37.74694 C90.61822,37.74694 90.38645,37.64838 90.20858,37.44741 C90.0284,37.24875 89.93985,36.97771 89.93985,36.63737 C89.93985,36.20771 90.05381,35.72184 90.28481,35.17899 C90.51581,34.63614 90.8446,34.16952 91.26964,33.77682 C91.69545,33.38489 92.06659,33.18777 92.38229,33.18777 C92.57633,33.18777 92.7234,33.24937 92.82427,33.37411 C92.92514,33.49808 92.97519,33.65131 92.97519,33.83457 C92.97519,34.20956 92.78731,34.57069 92.41386,34.91642 C92.0381,35.26138 91.47446,35.59479 90.72525,35.91357 C90.62746,36.21464 90.57972,36.50262 90.57972,36.77289 C90.57972,36.99696 90.62207,37.16251 90.70908,37.27185 C90.79686,37.38427 90.92468,37.43894 91.09562,37.43894 C91.57148,37.43971 91.98959,37.05163 92.35149,36.27316" id="Shape" fill="#5D2E8B"></path>
                                <path d="M93.07298,37.19562 C93.07298,37.04624 93.12534,36.91688 93.23391,36.80985 C93.34248,36.70282 93.47261,36.64969 93.62507,36.64969 C93.77445,36.64969 93.9015,36.70359 94.01007,36.80985 C94.11787,36.91765 94.17177,37.04624 94.17177,37.19562 C94.17177,37.34885 94.11787,37.47821 94.01007,37.58678 C93.9015,37.69458 93.77445,37.74694 93.62507,37.74694 C93.46953,37.74694 93.33709,37.69381 93.23237,37.5837 C93.12534,37.47436 93.07298,37.345 93.07298,37.19562" id="Shape" fill="#5D2E8B"></path>
                                <path d="M95.73718,37.19562 C95.73718,37.04624 95.79108,36.91688 95.89811,36.80985 C96.00745,36.70282 96.13681,36.64969 96.29004,36.64969 C96.43865,36.64969 96.56801,36.70359 96.67581,36.80985 C96.78284,36.91765 96.8352,37.04624 96.8352,37.19562 C96.8352,37.34885 96.78284,37.47821 96.67581,37.58678 C96.56801,37.69458 96.43865,37.74694 96.29004,37.74694 C96.13296,37.74694 96.00129,37.69381 95.89657,37.5837 C95.79031,37.47436 95.73718,37.345 95.73718,37.19562" id="Shape" fill="#5D2E8B"></path>
                                <path d="M98.40215,37.19562 C98.40215,37.04624 98.45528,36.91688 98.56385,36.80985 C98.67088,36.70282 98.80178,36.64969 98.95424,36.64969 C99.10362,36.64969 99.23144,36.70359 99.34001,36.80985 C99.44704,36.91765 99.50171,37.04624 99.50171,37.19562 C99.50171,37.34885 99.44704,37.47821 99.34001,37.58678 C99.23144,37.69458 99.10362,37.74694 98.95424,37.74694 C98.79793,37.74694 98.66626,37.69381 98.56077,37.5837 C98.45451,37.47436 98.40215,37.345 98.40215,37.19562" id="Shape" fill="#5D2E8B"></path>
                                <path d="M106.96763,35.81501 L107.19555,35.81501 L106.64808,37.60141 L100.73217,37.60141 L100.80455,37.36271 L100.95701,37.36271 C101.17261,37.36271 101.35433,37.32267 101.5014,37.2449 C101.65001,37.16713 101.75242,37.07627 101.80786,36.97386 C101.86253,36.87068 101.94415,36.64661 102.04733,36.30011 L103.41331,31.80331 C103.51726,31.45758 103.56962,31.23736 103.56962,31.14804 C103.56962,30.90087 103.34632,30.77844 102.89895,30.77844 L102.69105,30.77844 L102.7642,30.5382 L107.80154,30.5382 L107.82772,32.13056 L107.60904,32.13056 C107.50355,31.71553 107.36649,31.40599 107.19709,31.20271 C107.02615,30.99943 106.85136,30.87777 106.67118,30.83696 C106.49331,30.79769 106.12833,30.77844 105.58009,30.77844 L104.66148,30.77844 L103.75057,33.79915 L104.26262,33.79915 C104.74926,33.79915 105.11886,33.73139 105.36988,33.59664 C105.6209,33.46189 105.85344,33.14542 106.07058,32.64877 L106.3062,32.64877 L105.46767,35.41923 L105.23051,35.41923 C105.26901,35.23597 105.28749,35.05733 105.28749,34.88793 C105.28749,34.60303 105.25207,34.40591 105.17969,34.29349 C105.10808,34.18261 105.01337,34.11408 104.89556,34.08482 C104.77775,34.05402 104.56523,34.03939 104.25877,34.03939 L103.67819,34.03939 L103.01907,36.23081 C102.91204,36.5827 102.85968,36.79291 102.85968,36.86298 C102.85968,37.05086 102.94053,37.18099 103.10146,37.25876 C103.2647,37.33499 103.54344,37.37195 103.94461,37.37195 L104.35502,37.37195 C105.07112,37.37195 105.62244,37.24721 106.00744,36.99619 C106.39321,36.74286 106.7143,36.34939 106.96763,35.81501" id="Shape" fill="#5D2E8B"></path>
                                <path d="M113.8984,36.61658 L114.1217,36.61658 C113.97309,36.93998 113.78136,37.21025 113.54189,37.42431 C113.30396,37.63837 113.07296,37.74694 112.84812,37.74694 C112.69951,37.74694 112.56553,37.69458 112.44926,37.58678 C112.33299,37.47821 112.2737,37.32652 112.2737,37.12709 C112.2737,36.94922 112.34916,36.61273 112.49854,36.11685 L112.92974,34.70005 C113.05756,34.27732 113.1207,34.01167 113.1207,33.9031 C113.1207,33.78837 113.10068,33.70136 113.05679,33.64592 C113.01059,33.5874 112.94591,33.56045 112.85582,33.56045 C112.57631,33.56045 112.24521,33.80685 111.86329,34.30504 C111.48291,34.80246 111.07327,35.77574 110.63668,37.22565 L110.49423,37.67995 L109.87438,37.67995 L110.72292,34.88331 C110.86999,34.3959 110.94237,34.06788 110.94237,33.89771 C110.94237,33.79299 110.92235,33.71522 110.88308,33.66286 C110.84304,33.6105 110.78067,33.58432 110.69751,33.58432 C110.45265,33.58432 110.12463,33.8415 109.70883,34.35432 C109.29534,34.86714 108.88262,35.805 108.47452,37.16713 L108.3159,37.67918 L107.69759,37.67918 L108.64777,34.5499 C108.77482,34.12178 108.84027,33.86922 108.84027,33.79222 C108.84027,33.73755 108.83026,33.69597 108.81101,33.66902 C108.79253,33.64053 108.7625,33.6259 108.72092,33.6259 C108.63006,33.6259 108.50917,33.69982 108.35825,33.84458 C108.20656,33.99088 108.05718,34.19878 107.90703,34.46905 L107.67218,34.46905 C107.83927,34.11947 108.04332,33.82995 108.2851,33.60203 C108.52765,33.37565 108.74402,33.26246 108.93113,33.26246 C109.06588,33.26246 109.17214,33.30712 109.24991,33.39798 C109.32845,33.48653 109.36618,33.60819 109.36618,33.76065 C109.36618,34.01475 109.25992,34.44287 109.04971,35.05117 C109.28302,34.55914 109.57331,34.13718 109.92135,33.78375 C110.26939,33.42878 110.58355,33.25168 110.86768,33.25168 C111.06942,33.25168 111.21957,33.30943 111.3189,33.42647 C111.41823,33.5412 111.46828,33.71676 111.46828,33.9493 C111.46828,34.23497 111.39667,34.57916 111.25576,34.98341 C111.53681,34.37896 111.8348,33.93929 112.14896,33.66363 C112.46543,33.39028 112.7511,33.25245 113.0052,33.25245 C113.19847,33.25245 113.35863,33.31867 113.48876,33.45265 C113.61735,33.58586 113.68203,33.76835 113.68203,33.99627 C113.68203,34.14026 113.67356,34.2573 113.65277,34.34893 C113.63275,34.44056 113.56037,34.70544 113.43178,35.14357 L113.07527,36.31551 C112.92974,36.79291 112.85505,37.08551 112.85505,37.19639 C112.85505,37.27262 112.87199,37.33114 112.90587,37.37118 C112.93898,37.41122 112.98595,37.43201 113.04909,37.43201 C113.17152,37.43201 113.30319,37.36425 113.44487,37.22719 C113.58963,37.0909 113.73901,36.88839 113.8984,36.61658" id="Shape" fill="#5D2E8B"></path>
                                <path d="M115.74101,36.25545 C115.64707,36.56499 115.59856,36.78752 115.59856,36.92458 C115.59856,37.09398 115.6463,37.23874 115.74255,37.35655 C115.83495,37.47436 115.96816,37.53442 116.13833,37.53442 C116.39243,37.53442 116.65269,37.38889 116.91988,37.09937 C117.18553,36.80831 117.42885,36.32552 117.65061,35.64869 C117.87006,34.97109 117.98248,34.46366 117.98248,34.12255 C117.98248,33.90002 117.94706,33.7337 117.87699,33.62205 C117.80692,33.5104 117.7022,33.45573 117.56283,33.45573 C117.37495,33.45573 117.12393,33.59279 116.81208,33.86845 C116.50023,34.14334 116.21302,34.71237 115.94814,35.57323 L115.74101,36.25545 L115.74101,36.25545 Z M114.78236,35.45465 L114.54212,35.45465 L115.52541,33.87692 C115.81262,33.41877 116.00358,33.09306 116.09136,32.90441 C116.18222,32.71191 116.2854,32.42393 116.40244,32.03816 L116.47713,31.78791 L117.09698,31.78791 L116.74355,32.956 L116.30696,34.18569 C116.78051,33.52195 117.23173,33.18931 117.65523,33.18931 C117.91318,33.18931 118.1334,33.30943 118.31281,33.54582 C118.49453,33.78529 118.58539,34.08251 118.58539,34.43979 C118.58539,34.86098 118.47759,35.34223 118.26122,35.88354 C118.04485,36.42639 117.73993,36.87145 117.34569,37.2218 C116.95068,37.57369 116.55721,37.74848 116.16451,37.74848 C115.78952,37.74848 115.55082,37.57138 115.44918,37.21795 L114.84165,39.23227 C114.76542,39.48252 114.72846,39.63575 114.72846,39.69042 C114.72846,39.75048 114.75233,39.8013 114.80315,39.84288 C114.8532,39.88369 114.9995,39.90602 115.24128,39.90602 L115.47613,39.90602 L115.40298,40.13471 L113.23158,40.13471 L113.30396,39.90602 L113.41792,39.90602 C113.72438,39.90602 113.90687,39.88369 113.96616,39.84288 C114.02622,39.80207 114.11631,39.58416 114.2372,39.19069 L115.31828,35.61173 C115.5462,34.8656 115.81031,34.1033 116.10907,33.32637 C116.07365,33.37411 115.98125,33.53042 115.83264,33.79453 C115.8157,33.82225 115.75949,33.91003 115.66709,34.05864 L114.78236,35.45465 L114.78236,35.45465 Z" id="Shape" fill="#5D2E8B"></path>
                                <path d="M121.18414,36.35093 L121.41206,36.35093 C121.05786,37.28186 120.60202,37.74694 120.04685,37.74694 C119.85435,37.74694 119.70189,37.6838 119.58639,37.55675 C119.4732,37.43124 119.41468,37.27108 119.41468,37.08089 C119.41468,36.89224 119.5271,36.43024 119.75425,35.68873 L120.97393,31.66702 C121.07788,31.32514 121.13024,31.12802 121.13024,31.07335 C121.13024,30.98865 121.10714,30.93013 121.0594,30.89548 C121.01243,30.8616 120.89462,30.84389 120.70751,30.84389 L120.50346,30.84389 L120.57199,30.62444 C121.14487,30.6152 121.56837,30.55283 121.83941,30.4381 L121.96877,30.4381 L120.29017,35.96054 C120.26476,36.04678 120.21471,36.20617 120.13771,36.43486 C120.03684,36.73593 119.98833,36.96616 119.98833,37.1217 C119.98833,37.22719 120.00835,37.30496 120.04839,37.35655 C120.08766,37.40891 120.14772,37.43586 120.22703,37.43586 C120.34484,37.43586 120.49422,37.35424 120.67055,37.191 C120.84919,37.02622 121.0209,36.74671 121.18414,36.35093" id="Shape" fill="#5D2E8B"></path>
                                <path d="M122.49776,36.82987 C122.49776,37.01775 122.54627,37.17791 122.64406,37.31035 C122.74031,37.44202 122.87429,37.50747 123.04523,37.50747 C123.51031,37.50747 123.89377,37.06703 124.1933,36.18384 C124.4936,35.30219 124.64375,34.62844 124.64375,34.16336 C124.64375,33.92312 124.59755,33.74371 124.50438,33.62359 C124.41506,33.50424 124.27646,33.44418 124.09166,33.44418 C123.65815,33.44418 123.28393,33.85382 122.96977,34.67156 C122.65561,35.4893 122.49776,36.20848 122.49776,36.82987 M121.93951,36.23004 C121.93951,35.81424 122.0373,35.36071 122.23211,34.86868 C122.42615,34.37742 122.70258,33.97933 123.06602,33.67364 C123.42638,33.36872 123.7775,33.21549 124.11861,33.21549 C124.42661,33.21549 124.68071,33.34639 124.88014,33.60819 C125.08111,33.87076 125.18121,34.22573 125.18121,34.67387 C125.18121,35.21518 125.06879,35.72954 124.84703,36.21464 C124.62527,36.70205 124.3473,37.07396 124.01004,37.33268 C123.67509,37.59217 123.34784,37.72076 123.02367,37.72076 C122.73492,37.72076 122.4839,37.60911 122.26445,37.38658 C122.04962,37.16636 121.93951,36.78059 121.93951,36.23004" id="Shape" fill="#5D2E8B"></path>
                                <path d="M126.15141,34.60226 L125.93427,34.60226 C125.97662,34.10869 126.08288,33.74987 126.25844,33.5258 C126.434,33.30096 126.62342,33.18854 126.82439,33.18854 C127.08157,33.18854 127.28562,33.34716 127.44193,33.66132 C127.5967,33.97548 127.6737,34.45365 127.6737,35.09583 C127.6737,35.93282 127.57745,36.69974 127.38726,37.39274 C127.72529,37.02314 128.06024,36.54805 128.38441,35.97594 C128.70935,35.40306 128.87182,34.91565 128.87182,34.51217 C128.87182,34.32121 128.81638,34.13179 128.7055,33.94545 C128.59308,33.76065 128.53841,33.62205 128.53841,33.52811 C128.53841,33.43802 128.56459,33.35871 128.61849,33.29249 C128.67316,33.22319 128.73861,33.18931 128.81561,33.18931 C128.93958,33.18931 129.04199,33.26015 129.12207,33.40491 C129.20138,33.54505 129.24219,33.75603 129.24219,34.03477 C129.24219,34.45134 129.11283,34.95954 128.85719,35.5586 C128.60386,36.15612 128.22887,36.75056 127.73607,37.33884 C127.24327,37.92789 126.75278,38.45919 126.2646,38.93274 C125.77642,39.40783 125.35754,39.73662 125.0095,39.92373 C124.65915,40.1093 124.31419,40.20247 123.96923,40.20247 C123.52956,40.20247 123.3078,40.07542 123.3078,39.82132 C123.3078,39.71737 123.354,39.63575 123.44794,39.57415 C123.54342,39.51332 123.64121,39.48329 123.74516,39.48329 C123.82601,39.48329 123.95152,39.50639 124.12092,39.54951 C124.34345,39.61265 124.52517,39.64499 124.66839,39.64499 C124.87706,39.64499 125.08034,39.58647 125.279,39.47097 C125.48074,39.35316 125.72637,39.15296 126.01897,38.86575 C126.31311,38.58008 126.51793,38.32675 126.63728,38.10499 C126.75509,37.88477 126.86058,37.49592 126.95144,36.94075 C127.04384,36.38558 127.09158,35.78729 127.09158,35.14896 C127.09158,34.66232 127.04538,34.28887 126.95529,34.02322 C126.8652,33.75988 126.75432,33.62744 126.62111,33.62744 C126.36701,33.62667 126.21147,33.95315 126.15141,34.60226" id="Shape" fill="#5D2E8B"></path>
                                <path d="M136.00587,36.61658 L136.22917,36.61658 C136.08133,36.93998 135.88806,37.21025 135.64782,37.42431 C135.40989,37.63837 135.18043,37.74694 134.95328,37.74694 C134.8039,37.74694 134.67146,37.69458 134.55442,37.58678 C134.43969,37.47821 134.38117,37.32652 134.38117,37.12709 C134.38117,36.94922 134.45509,36.61273 134.60447,36.11685 L135.0349,34.70005 C135.16426,34.27732 135.2274,34.01167 135.2274,33.9031 C135.2274,33.78837 135.20661,33.70136 135.16272,33.64592 C135.11729,33.5874 135.05261,33.56045 134.96329,33.56045 C134.68224,33.56045 134.35114,33.80685 133.96922,34.30504 C133.58884,34.80246 133.17997,35.77574 132.74261,37.22565 L132.60093,37.67995 L131.97954,37.67995 L132.82962,34.88331 C132.97669,34.3959 133.04907,34.06788 133.04907,33.89771 C133.04907,33.79299 133.02982,33.71522 132.98978,33.66286 C132.9482,33.6105 132.88583,33.58432 132.80421,33.58432 C132.56012,33.58432 132.23056,33.8415 131.81553,34.35432 C131.40127,34.86714 130.98932,35.805 130.57968,37.16713 L130.42491,37.67918 L129.80275,37.67918 L130.7537,34.5499 C130.88229,34.12178 130.9462,33.86922 130.9462,33.79222 C130.9462,33.73755 130.93619,33.69597 130.91771,33.66902 C130.9,33.64053 130.8692,33.6259 130.82762,33.6259 C130.73599,33.6259 130.61587,33.69982 130.46495,33.84458 C130.31326,33.99088 130.16388,34.19878 130.01373,34.46905 L129.78042,34.46905 C129.94674,34.11947 130.15002,33.82995 130.39334,33.60203 C130.63512,33.37565 130.84995,33.26246 131.03706,33.26246 C131.17181,33.26246 131.27961,33.30712 131.35661,33.39798 C131.43515,33.48653 131.47365,33.60819 131.47365,33.76065 C131.47365,34.01475 131.36816,34.44287 131.15641,35.05117 C131.39049,34.55914 131.68078,34.13718 132.02805,33.78375 C132.37763,33.42878 132.69102,33.25168 132.97361,33.25168 C133.17612,33.25168 133.3255,33.30943 133.4256,33.42647 C133.5257,33.5412 133.57575,33.71676 133.57575,33.9493 C133.57575,34.23497 133.50414,34.57916 133.36246,34.98341 C133.64428,34.37896 133.94304,33.93929 134.25643,33.66363 C134.5729,33.39028 134.8578,33.25245 135.1119,33.25245 C135.30517,33.25245 135.4661,33.31867 135.59546,33.45265 C135.72482,33.58663 135.78873,33.76835 135.78873,33.99627 C135.78873,34.14026 135.77872,34.2573 135.76024,34.34893 C135.74099,34.44056 135.66707,34.70544 135.53771,35.14357 L135.18197,36.31551 C135.03644,36.79291 134.96329,37.08551 134.96329,37.19639 C134.96329,37.27262 134.97946,37.33114 135.01103,37.37118 C135.04568,37.41122 135.09265,37.43201 135.15579,37.43201 C135.27745,37.43201 135.40912,37.36425 135.55234,37.22719 C135.69402,37.0909 135.84571,36.88839 136.00587,36.61658" id="Shape" fill="#5D2E8B"></path>
                                <path d="M137.58129,35.64869 C138.02943,35.44695 138.43137,35.16898 138.79019,34.81478 C139.14747,34.46058 139.32611,34.14026 139.32611,33.85074 C139.32611,33.71907 139.29916,33.62128 139.24603,33.55737 C139.19213,33.49269 139.11051,33.46112 139.00502,33.46112 C138.79635,33.46112 138.55072,33.66209 138.26813,34.06711 C137.98323,34.47213 137.75531,34.99881 137.58129,35.64869 M139.12976,36.27316 L139.37924,36.27316 C138.93726,37.25568 138.36977,37.74694 137.68062,37.74694 C137.39572,37.74694 137.16395,37.64838 136.98531,37.44741 C136.80667,37.24875 136.71581,36.97771 136.71581,36.63737 C136.71581,36.20771 136.83131,35.72184 137.06308,35.17899 C137.29408,34.63691 137.62287,34.16952 138.04791,33.77682 C138.47372,33.38489 138.84332,33.18777 139.15902,33.18777 C139.35306,33.18777 139.50013,33.24937 139.60254,33.37411 C139.70341,33.49808 139.75269,33.65131 139.75269,33.83457 C139.75269,34.20956 139.56558,34.57069 139.19136,34.91642 C138.81637,35.26138 138.25196,35.59479 137.50352,35.91357 C137.40496,36.21464 137.35799,36.50262 137.35799,36.77289 C137.35799,36.99696 137.40034,37.16251 137.48812,37.27185 C137.57359,37.38427 137.70372,37.43894 137.87312,37.43894 C138.34898,37.43971 138.76709,37.05163 139.12976,36.27316" id="Shape" fill="#5D2E8B"></path>
                                <path d="M143.94072,36.62197 L144.20637,36.62197 C143.9977,36.99773 143.78595,37.27878 143.56804,37.46743 C143.35013,37.65377 143.13068,37.74694 142.90507,37.74694 C142.74799,37.74694 142.61401,37.70074 142.50005,37.60449 C142.3884,37.50901 142.33065,37.36733 142.33065,37.18022 C142.33065,37.02391 142.4115,36.71437 142.57012,36.2516 L143.12914,34.66309 C143.27775,34.22958 143.35321,33.9493 143.35321,33.82148 C143.35321,33.70829 143.3278,33.62359 143.27775,33.56738 C143.22847,33.51271 143.14993,33.48576 143.04675,33.48576 C142.78187,33.48576 142.43768,33.7953 142.01187,34.41361 C141.58606,35.03346 141.22262,35.84427 140.91616,36.84835 L140.66052,37.67995 L140.02681,37.67995 L140.94311,34.72161 C141.10866,34.17568 141.19105,33.86306 141.19105,33.78375 C141.19105,33.72446 141.18027,33.68057 141.16025,33.65439 C141.13946,33.62513 141.10712,33.61127 141.06092,33.61127 C140.85456,33.61127 140.61201,33.8646 140.32788,34.3728 L140.08918,34.3728 C140.52269,33.58432 140.93541,33.19085 141.32657,33.19085 C141.46209,33.19085 141.56373,33.23089 141.62995,33.31328 C141.69925,33.39413 141.7339,33.51964 141.7339,33.68673 C141.7339,33.98395 141.61763,34.44749 141.38432,35.07427 C142.01264,33.81763 142.62325,33.19162 143.21692,33.19162 C143.40788,33.19162 143.57497,33.25399 143.71588,33.38104 C143.8591,33.50809 143.92994,33.69289 143.92994,33.93544 C143.92994,34.09329 143.85833,34.38435 143.71588,34.81016 L143.15917,36.47182 C143.00979,36.92073 142.9351,37.17021 142.9351,37.2218 C142.9351,37.28879 142.95127,37.33884 142.98438,37.37118 C143.01672,37.40352 143.06446,37.42123 143.1276,37.42123 C143.24541,37.42123 143.37169,37.3527 143.50798,37.22026 C143.6435,37.08551 143.78749,36.88531 143.94072,36.62197" id="Shape" fill="#5D2E8B"></path>
                                <path d="M147.40726,33.33561 L147.33334,33.56353 L146.55564,33.56353 L145.86187,35.83965 C145.63626,36.58732 145.52384,37.0216 145.52384,37.14403 C145.52384,37.22719 145.54001,37.29033 145.57697,37.33345 C145.6147,37.37657 145.66629,37.3989 145.73636,37.3989 C145.85956,37.3989 146.02434,37.28032 146.22454,37.04393 C146.42628,36.80754 146.60569,36.51186 146.76585,36.15227 L146.99608,36.15227 C146.78356,36.66971 146.54101,37.06472 146.27151,37.3373 C145.99662,37.61065 145.74791,37.74617 145.52384,37.74617 C145.34597,37.74617 145.20352,37.6838 145.09726,37.55829 C144.991,37.43432 144.93787,37.2757 144.93787,37.08397 C144.93787,36.9215 145.04644,36.48645 145.25896,35.7819 L145.93117,33.56276 L145.21353,33.56276 L145.28591,33.33484 L146.00201,33.33484 L146.48018,31.75557 L147.10542,31.75557 L146.62571,33.33484 L147.40726,33.33484 L147.40726,33.33561 Z" id="Shape" fill="#5D2E8B"></path>
                                <path d="M147.38262,37.19562 C147.38262,37.04624 147.43575,36.91688 147.54432,36.80985 C147.65212,36.70282 147.78225,36.64969 147.93548,36.64969 C148.08409,36.64969 148.21268,36.70359 148.32125,36.80985 C148.42751,36.91765 148.48295,37.04624 148.48295,37.19562 C148.48295,37.34885 148.42751,37.47821 148.32125,37.58678 C148.21268,37.69458 148.08409,37.74694 147.93548,37.74694 C147.77917,37.74694 147.64904,37.69381 147.54124,37.5837 C147.43575,37.47436 147.38262,37.345 147.38262,37.19562" id="Shape" fill="#5D2E8B"></path>
                                <path d="M150.04759,37.19562 C150.04759,37.04624 150.10226,36.91688 150.20929,36.80985 C150.31632,36.70282 150.44722,36.64969 150.60045,36.64969 C150.74983,36.64969 150.87765,36.70359 150.98545,36.80985 C151.09248,36.91765 151.14638,37.04624 151.14638,37.19562 C151.14638,37.34885 151.09248,37.47821 150.98545,37.58678 C150.87765,37.69458 150.74983,37.74694 150.60045,37.74694 C150.44337,37.74694 150.31247,37.69381 150.20544,37.5837 C150.10072,37.47436 150.04759,37.345 150.04759,37.19562" id="Shape" fill="#5D2E8B"></path>
                                <path d="M152.71179,37.19562 C152.71179,37.04624 152.76569,36.91688 152.87349,36.80985 C152.98129,36.70282 153.11219,36.64969 153.26465,36.64969 C153.41326,36.64969 153.54185,36.70359 153.64888,36.80985 C153.75668,36.91765 153.81058,37.04624 153.81058,37.19562 C153.81058,37.34885 153.75668,37.47821 153.64888,37.58678 C153.54185,37.69458 153.41326,37.74694 153.26465,37.74694 C153.10757,37.74694 152.97667,37.69381 152.87041,37.5837 C152.76569,37.47436 152.71179,37.345 152.71179,37.19562" id="Shape" fill="#5D2E8B"></path>
                            </g>
                        </g>
                    </g>
                </g>
            </g>
        </g>
    </g>
</svg>