<?xml version="1.0" encoding="UTF-8"?>
<svg width="154px" height="150px" viewBox="0 0 154 150" version="1.1" xmlns="http://www.w3.org/2000/svg" xmlns:xlink="http://www.w3.org/1999/xlink">
    <!-- Generator: Sketch 40.2 (33826) - http://www.bohemiancoding.com/sketch -->
    <title>500k_tripadvisor</title>
    <desc>Created with Sketch.</desc>
    <defs></defs>
    <g id="Page-1" stroke="none" stroke-width="1" fill="none" fill-rule="evenodd">
        <g id="Our-partners" transform="translate(-764.000000, -2883.000000)">
            <g id="Content" transform="translate(376.000000, 150.000000)">
                <g id="Support-of-$250k+" transform="translate(0.000000, 2686.000000)">
                    <g id="500k_tripadvisor" transform="translate(388.000000, 47.000000)">
                        <rect id="Rectangle-2" fill="#FFFFFF" x="0" y="0" width="154" height="150"></rect>
                        <g id="Layer_1" transform="translate(0.000000, 25.000000)">
                            <g id="Group">
                                <path d="M52.12207,8.68021 C59.04591,5.66489 67.64296,4.03865 76.29006,4.03865 C84.94794,4.03865 92.79578,5.67028 99.72732,8.69715 C86.71355,9.09601 76.28698,19.76205 76.2839,32.86899 C76.28236,19.52258 65.46771,8.69869 52.12207,8.68021" id="Shape" fill="#FFDF9D"></path>
                                <path d="M52.12207,8.68021 C59.04591,5.66489 67.64296,4.03865 76.29006,4.03865 C84.94794,4.03865 92.79578,5.67028 99.72732,8.69715 C86.71432,9.09601 76.28698,19.76205 76.2839,32.86899 C76.28236,19.52258 65.46771,8.69869 52.12207,8.68021 L52.12207,8.68021 Z" id="Shape" stroke="#FFDF9D" stroke-width="2.1979"></path>
                                <path d="M51.39365,28.86884 C49.21301,28.86884 47.44663,30.63599 47.44663,32.81663 C47.44663,34.99958 49.21301,36.76519 51.39365,36.76519 C53.57429,36.76519 55.34144,34.99958 55.34144,32.81663 C55.34144,30.63599 53.57429,28.86884 51.39365,28.86884" id="Shape" fill="#EB2227"></path>
                                <path d="M100.06381,28.8134 C97.88317,28.8134 96.11525,30.57901 96.11525,32.76273 C96.11525,34.94568 97.88317,36.71129 100.06381,36.71129 C102.24445,36.71129 104.01006,34.94568 104.01006,32.76273 C104.01006,30.57978 102.24445,28.8134 100.06381,28.8134" id="Shape" fill="#09A54E"></path>
                                <path d="M51.99579,21.07028 C45.51008,21.07028 40.25175,26.33015 40.25175,32.81586 C40.25175,39.30619 45.51008,44.56144 51.99579,44.56144 C58.48381,44.56144 63.74214,39.30619 63.74214,32.81586 C63.74214,26.33015 58.48381,21.07028 51.99579,21.07028 M51.99579,40.95476 C47.5013,40.95476 43.85766,37.31112 43.85766,32.81586 C43.85766,28.3206 47.5013,24.67696 51.99579,24.67696 C56.49182,24.67696 60.13546,28.3206 60.13546,32.81586 C60.13546,37.31112 56.49182,40.95476 51.99579,40.95476 M125.08111,9.01747 L108.90803,9.01747 C100.66056,3.46731 89.39777,0 76.48025,0 C63.55811,0 51.52224,3.465 43.274,9.01747 L27.86784,9.01747 C30.38035,11.95579 32.2399,15.93361 32.70267,18.6648 C29.79823,22.65494 28.07805,27.56292 28.07805,32.87515 C28.07805,46.24158 38.91195,57.07702 52.27684,57.07702 C59.86057,57.07702 66.62656,53.58276 71.0633,48.12577 C72.87357,50.23865 75.8681,54.4929 76.47563,55.72875 C76.47563,55.72875 79.95064,50.53895 81.90336,48.14733 C86.33933,53.59431 93.09993,57.07779 100.67442,57.07779 C114.037,57.07779 124.87321,46.24235 124.87321,32.87592 C124.87321,27.56677 123.14995,22.66264 120.24705,18.67404 C120.70751,15.94208 122.56706,11.96041 125.08111,9.01747 M52.27684,52.35769 C41.51763,52.35769 32.79584,43.63513 32.79584,32.87515 C32.79584,22.11902 41.51763,13.39646 52.27684,13.39646 C63.03605,13.39646 71.75861,22.11902 71.75861,32.87515 C71.75861,43.63513 63.03605,52.35769 52.27684,52.35769 M52.3138,8.68021 C59.23764,5.66566 67.83469,4.03865 76.48025,4.03865 C85.14121,4.03865 92.98751,5.67105 99.91905,8.69715 C86.90682,9.09601 76.47794,19.76205 76.47486,32.86899 C76.47255,19.52258 65.65944,8.69869 52.3138,8.68021 M100.67442,52.35769 C89.91367,52.35769 81.19188,43.63513 81.19188,32.87515 C81.19188,22.11902 89.91367,13.39646 100.67442,13.39646 C111.43209,13.39646 120.15311,22.11902 120.15311,32.87515 C120.15311,43.63513 111.43209,52.35769 100.67442,52.35769 M100.66595,21.01638 C94.17793,21.01638 88.92114,26.27394 88.92114,32.76196 C88.92114,39.2469 94.17793,44.50677 100.66595,44.50677 C107.15089,44.50677 112.40999,39.2469 112.40999,32.76196 C112.40999,26.27394 107.15089,21.01638 100.66595,21.01638 M100.66595,40.90086 C96.17146,40.90086 92.52705,37.25722 92.52705,32.76273 C92.52705,28.26593 96.17146,24.62152 100.66595,24.62152 C105.16044,24.62152 108.80408,28.26593 108.80408,32.76273 C108.80485,37.25722 105.16044,40.90086 100.66595,40.90086" id="Shape" fill="#010101"></path>
                                <path d="M130.52347,12.93523 L129.75809,12.93523 L129.75809,9.71971 L130.89769,9.71971 C131.47057,9.71971 132.19745,9.78901 132.19745,10.65141 C132.19745,11.05951 132.01881,11.37136 131.52293,11.50611 L132.2937,12.93446 L131.45055,12.93446 L130.78219,11.6193 L130.5227,11.6193 L130.5227,12.93523 L130.52347,12.93523 Z M130.52347,11.10802 C130.96237,11.10802 131.02859,11.10802 131.1387,11.07337 C131.3851,10.99483 131.40358,10.81927 131.40358,10.64371 C131.40358,10.42041 131.32581,10.31107 131.17335,10.25871 C131.05323,10.21867 130.95775,10.21867 130.52347,10.21867 L130.52347,11.10802 L130.52347,11.10802 Z" id="Shape" fill="#231F20"></path>
                                <path d="M131.02628,8.51312 C129.41005,8.51312 128.10182,9.82289 128.10182,11.43681 C128.10182,13.0515 129.41005,14.35973 131.02628,14.35973 C132.64174,14.35973 133.95074,13.0515 133.95074,11.43681 C133.95074,9.82289 132.64174,8.51312 131.02628,8.51312 M131.02628,13.81303 C129.71574,13.81303 128.65006,12.74966 128.65006,11.43758 C128.65006,10.1255 129.71574,9.0629 131.02628,9.0629 C132.33682,9.0629 133.40173,10.1255 133.40173,11.43758 C133.40173,12.74966 132.33682,13.81303 131.02628,13.81303" id="Shape" fill="#231F20"></path>
                                <path d="M150.57273,79.92446 L149.80735,79.92446 L149.80735,76.70817 L150.94695,76.70817 C151.51906,76.70817 152.24671,76.77747 152.24671,77.64449 C152.24671,78.05105 152.06807,78.36136 151.57219,78.49457 L152.34296,79.92369 L151.49981,79.92369 L150.83145,78.61238 L150.57196,78.61238 L150.57196,79.92446 L150.57273,79.92446 Z M150.57273,78.09956 C151.01086,78.09956 151.07785,78.09956 151.18796,78.06183 C151.43436,77.98637 151.45284,77.81081 151.45284,77.63371 C151.45284,77.40887 151.37507,77.30184 151.22261,77.24871 C151.10249,77.21098 151.00624,77.21098 150.57273,77.21098 L150.57273,78.09956 L150.57273,78.09956 Z" id="Shape" fill="#09A54E"></path>
                                <path d="M151.07554,75.50466 C149.45931,75.50466 148.15031,76.80981 148.15031,78.42604 C148.15031,80.04304 149.45931,81.35358 151.07554,81.35358 C152.691,81.35358 154,80.04304 154,78.42604 C154,76.80981 152.691,75.50466 151.07554,75.50466 M151.07554,80.80226 C149.76423,80.80226 148.69932,79.73658 148.69932,78.42604 C148.69932,77.11473 149.76423,76.05059 151.07554,76.05059 C152.38608,76.05059 153.45099,77.11473 153.45099,78.42604 C153.45099,79.73658 152.38608,80.80226 151.07554,80.80226" id="Shape" fill="#09A54E"></path>
                                <path d="M10.19634,79.44783 L10.19634,76.79441 L5.87279,76.79441 L5.87279,72.82352 L2.5487,73.81297 L2.5487,76.79441 L0,76.79441 L0,79.44783 L2.5487,79.44783 L2.5487,87.95556 C2.5487,91.73857 4.09332,93.65972 7.14329,93.65972 C8.23746,93.65972 9.18995,93.50957 9.97227,93.2162 L10.06775,93.17847 L9.9176,90.56201 L9.75205,90.60975 C9.30776,90.73757 8.72333,90.80225 8.01416,90.80225 C7.2611,90.80225 6.7298,90.57741 6.39023,90.11695 C6.04681,89.64725 5.87356,88.84953 5.87356,87.75767 L5.87356,79.44783 L10.19634,79.44783 L10.19634,79.44783 Z" id="Shape" fill="#231F20"></path>
                                <path d="M21.68012,76.49411 C21.32361,76.44637 21.04333,76.42481 20.82388,76.42481 C19.80363,76.42481 18.84575,76.75668 17.97796,77.40964 C17.25416,77.95018 16.67974,78.67783 16.26548,79.57642 L16.093,76.79364 L13.06998,76.79364 L13.07845,76.9384 C13.16854,78.2705 13.21243,80.00454 13.21243,82.09124 L13.21243,93.29012 L16.60351,93.29012 L16.60351,84.57372 C16.60351,82.98521 17.00083,81.74859 17.78392,80.89235 C18.56162,80.04689 19.50641,79.61415 20.5898,79.61415 C20.9902,79.61415 21.34209,79.64649 21.63315,79.7104 L21.7987,79.74813 L21.7987,76.51028 L21.68012,76.49411 L21.68012,76.49411 Z" id="Shape" fill="#231F20"></path>
                                <rect id="Rectangle-path" fill="#231F20" x="24.74549" y="76.79287" width="3.39108" height="16.49725"></rect>
                                <path d="M26.42486,74.11866 C27.06473,74.11866 27.58756,73.90999 27.98026,73.50805 C28.3745,73.10226 28.57316,72.59868 28.57316,72.00501 C28.57316,71.42135 28.36988,70.92393 27.97102,70.52276 C27.57216,70.12698 27.06319,69.9237 26.45874,69.9237 C25.83119,69.9237 25.31067,70.12775 24.91181,70.52276 C24.51141,70.92393 24.30967,71.42135 24.30967,72.00501 C24.30967,72.59868 24.5091,73.10226 24.90257,73.50805 C25.29604,73.90999 25.80886,74.11866 26.42486,74.11866" id="Shape" fill="#231F20"></path>
                                <path d="M44.6523,78.7248 C43.32944,77.14707 41.65084,76.34473 39.66039,76.34473 C37.24952,76.34473 35.36456,77.29183 34.0494,79.15908 L33.91157,76.71356 L30.82849,76.71356 L30.84389,76.94379 C30.92782,78.30823 30.97094,80.0954 30.97094,82.26218 L30.97094,100.01068 L34.37049,100.01068 L34.37049,91.56686 C34.84173,92.18286 35.44233,92.68028 36.16151,93.04911 C37.06472,93.50957 38.07111,93.73903 39.15142,93.73903 C41.27662,93.73903 43.07611,92.9159 44.49753,91.29428 C45.91356,89.67805 46.63043,87.48432 46.63043,84.77084 C46.62966,82.33225 45.96438,80.29252 44.6523,78.7248 M36.31705,80.04689 C37.03931,79.52791 37.84242,79.26072 38.70482,79.26072 C40.06849,79.26072 41.13109,79.77508 41.95345,80.83383 C42.77966,81.89874 43.19854,83.2678 43.19854,84.90636 C43.19854,86.73588 42.77427,88.20735 41.93959,89.27226 C41.10491,90.33717 40.00535,90.85615 38.57623,90.85615 C37.42277,90.85615 36.42408,90.42726 35.60557,89.58873 C34.78552,88.74789 34.36895,87.69453 34.36895,86.45329 L34.36895,83.83683 C34.36895,83.37175 34.51448,82.75036 34.80092,81.97959 C35.08197,81.22422 35.59171,80.57665 36.31705,80.04689" id="Shape" fill="#231F20"></path>
                                <path d="M61.79712,93.12996 C61.62079,92.1613 61.5307,90.86077 61.5307,89.2661 L61.5307,83.33171 C61.5307,81.11719 60.97399,79.39393 59.87751,78.21121 C58.77641,77.02387 57.13246,76.42404 54.99263,76.42404 C52.80891,76.42404 50.90162,76.92685 49.32235,77.92246 L49.22995,77.97636 L50.02613,80.2879 L50.17166,80.19627 C51.43908,79.38854 52.90285,78.97659 54.52293,78.97659 C55.72028,78.97659 56.63119,79.2869 57.23179,79.90213 C57.83547,80.51197 58.14116,81.38438 58.14116,82.49164 L58.14116,82.65796 C54.91332,82.67413 52.4139,83.20312 50.71528,84.23646 C48.97046,85.29521 48.08496,86.85292 48.08496,88.86493 C48.08496,90.18086 48.56621,91.32046 49.51562,92.25139 C50.4658,93.18848 51.74477,93.65895 53.31634,93.65895 C55.44,93.65895 57.13631,92.89973 58.36369,91.39977 L58.69787,93.28935 L61.82638,93.28935 L61.79712,93.12996 L61.79712,93.12996 Z M57.04391,90.00992 C56.27083,90.71601 55.29678,91.07483 54.15487,91.07483 C53.35561,91.07483 52.70881,90.83921 52.2291,90.37952 C51.75093,89.92445 51.50915,89.27688 51.50915,88.45837 C51.50915,87.40963 51.98732,86.60113 52.96984,85.99822 C53.94081,85.39839 55.70257,85.08808 58.20661,85.0773 L58.20661,87.62446 C58.20661,88.50688 57.81545,89.30922 57.04391,90.00992 L57.04391,90.00992 Z" id="Shape" fill="#09A54E"></path>
                                <path d="M78.96966,93.3702 L78.95041,93.13458 C78.86802,92.11279 78.8249,90.68983 78.8249,88.8965 L78.8249,69.06669 L75.42458,69.06669 L75.42458,78.36598 C74.97644,77.8316 74.41434,77.38731 73.74906,77.03927 C72.86664,76.57419 71.85332,76.34396 70.7399,76.34396 C68.65628,76.34396 66.8822,77.19019 65.47156,78.85878 C64.06785,80.51813 63.35791,82.6903 63.35791,85.31215 C63.35791,87.73072 64.0332,89.76429 65.36838,91.34279 C66.70972,92.9313 68.41219,93.7398 70.42189,93.7398 C71.66775,93.7398 72.79734,93.44489 73.78294,92.85661 C74.56526,92.39153 75.20898,91.76552 75.70332,91.00091 L75.88812,93.3702 L78.96966,93.3702 L78.96966,93.3702 Z M75.42381,83.59967 L75.42381,86.17994 C75.42381,87.57518 75.00031,88.70477 74.16101,89.53868 C73.32171,90.36874 72.35305,90.7907 71.28121,90.7907 C69.85671,90.7907 68.77871,90.27172 67.98715,89.20296 C67.19251,88.12727 66.78826,86.75128 66.78826,85.10964 C66.78826,83.3602 67.21484,81.9203 68.05568,80.83383 C68.89498,79.75352 69.97144,79.22915 71.34512,79.22915 C72.45777,79.22915 73.42489,79.63032 74.22184,80.42727 C75.01956,81.22422 75.42381,82.29452 75.42381,83.59967 L75.42381,83.59967 Z" id="Shape" fill="#09A54E"></path>
                                <path d="M92.88895,76.79364 C92.88895,76.79364 88.65626,85.43535 88.35442,86.40863 C87.97096,85.23746 83.76291,76.79364 83.76291,76.79364 L80.08154,76.79364 L88.37059,93.29012 L96.50872,76.79364 L92.88895,76.79364 L92.88895,76.79364 Z" id="Shape" fill="#09A54E"></path>
                                <rect id="Rectangle-path" fill="#09A54E" x="98.15113" y="76.79287" width="3.39262" height="16.49725"></rect>
                                <path d="M99.83127,74.11866 C100.47114,74.11866 100.99474,73.90999 101.38744,73.50805 C101.7786,73.10226 101.97957,72.59868 101.97957,72.00501 C101.97957,71.42135 101.77629,70.92393 101.3782,70.52276 C100.97857,70.12698 100.46806,69.9237 99.86361,69.9237 C99.2376,69.9237 98.71554,70.12775 98.31668,70.52276 C97.91782,70.92393 97.71762,71.42135 97.71762,72.00501 C97.71762,72.59868 97.91551,73.10226 98.30898,73.50805 C98.70322,73.90999 99.21373,74.11866 99.83127,74.11866" id="Shape" fill="#09A54E"></path>
                                <path d="M114.92019,85.62785 C114.22719,84.85169 113.0745,84.17178 111.496,83.60583 C110.23551,83.15615 109.39544,82.73804 109.00582,82.36382 C108.6239,81.99499 108.43525,81.55609 108.43525,81.02094 C108.43525,80.42188 108.65547,79.94063 109.10746,79.55486 C109.56253,79.17525 110.19162,78.97736 110.9801,78.97736 C112.14665,78.97736 113.29472,79.29845 114.3989,79.92985 L114.54058,80.01532 L115.40221,77.50512 L115.30596,77.4466 C114.15096,76.76592 112.72954,76.42404 111.08251,76.42404 C109.30073,76.42404 107.8539,76.90606 106.77436,77.84777 C105.69405,78.79949 105.14581,79.9876 105.14581,81.39054 C105.14581,83.48802 106.6758,85.07653 109.69651,86.1091 C110.80146,86.48332 111.58224,86.87987 112.01883,87.29182 C112.44695,87.703 112.65254,88.2112 112.65254,88.86493 C112.65254,89.53868 112.40383,90.06382 111.88408,90.46422 C111.36587,90.86539 110.60896,91.07406 109.6403,91.07406 C108.26508,91.07406 106.9145,90.67289 105.62167,89.88672 L105.47229,89.79586 L104.64839,92.45005 L104.74772,92.50318 C106.15682,93.26779 107.78075,93.65895 109.57331,93.65895 C111.52988,93.65895 113.10068,93.19387 114.24259,92.27295 C115.39528,91.34202 115.97817,90.10617 115.97817,88.59697 C115.97663,87.41502 115.62089,86.41864 114.92019,85.62785" id="Shape" fill="#09A54E"></path>
                                <path d="M131.53217,78.79025 C130.07918,77.22176 128.16342,76.42404 125.84033,76.42404 C123.51108,76.42404 121.55297,77.22715 120.01836,78.80565 C118.48914,80.38415 117.71298,82.52398 117.71298,85.17817 C117.71298,87.67066 118.46527,89.72579 119.94675,91.29351 C121.43208,92.86046 123.3386,93.65741 125.6178,93.65741 C127.07849,93.65741 128.45679,93.29397 129.71343,92.58249 C130.97392,91.87024 131.96645,90.8369 132.66484,89.51173 C133.36323,88.18964 133.71589,86.6327 133.71589,84.87248 C133.71743,82.40155 132.98208,80.3572 131.53217,78.79025 M125.61934,91.07406 C124.31111,91.07406 123.20616,90.50811 122.33683,89.3893 C121.45595,88.2651 121.01166,86.8098 121.01166,85.07653 C121.01166,83.33787 121.43978,81.87102 122.28216,80.72141 C123.1153,79.5872 124.2703,79.00893 125.71482,79.00893 C127.13547,79.00893 128.27507,79.59182 129.09666,80.73681 C129.93211,81.89797 130.35407,83.32632 130.35407,84.97489 C130.35407,86.76668 129.89438,88.2497 128.9904,89.37852 C128.09335,90.50272 126.95991,91.07406 125.61934,91.07406" id="Shape" fill="#09A54E"></path>
                                <path d="M145.10111,76.49411 C144.7446,76.44637 144.46432,76.42481 144.24487,76.42481 C143.22616,76.42481 142.26751,76.75668 141.39895,77.40964 C140.67669,77.95018 140.10073,78.67783 139.68647,79.57642 L139.51476,76.79364 L136.49174,76.79364 L136.49944,76.9384 C136.58722,78.2705 136.63342,80.00454 136.63342,82.09124 L136.63342,93.29012 L140.02527,93.29012 L140.02527,84.57372 C140.02527,82.98521 140.42182,81.74859 141.20568,80.89235 C141.98338,80.04689 142.9274,79.61415 144.01233,79.61415 C144.41042,79.61415 144.76462,79.64649 145.05491,79.7104 L145.22123,79.74813 L145.22123,76.51028 L145.10111,76.49411 L145.10111,76.49411 Z" id="Shape" fill="#09A54E"></path>
                            </g>
                        </g>
                    </g>
                </g>
            </g>
        </g>
    </g>
</svg>