<?xml version="1.0" encoding="UTF-8"?>
<svg width="154px" height="150px" viewBox="0 0 154 150" version="1.1" xmlns="http://www.w3.org/2000/svg" xmlns:xlink="http://www.w3.org/1999/xlink">
    <!-- Generator: Sketch 40.2 (33826) - http://www.bohemiancoding.com/sketch -->
    <title>500k_fossil</title>
    <desc>Created with Sketch.</desc>
    <defs></defs>
    <g id="Page-1" stroke="none" stroke-width="1" fill="none" fill-rule="evenodd">
        <g id="Our-partners" transform="translate(-958.000000, -2415.000000)">
            <g id="Content" transform="translate(376.000000, 150.000000)">
                <g id="Support-of-$500k+" transform="translate(0.000000, 2211.000000)">
                    <g id="500k_fossil" transform="translate(582.000000, 54.000000)">
                        <rect id="Rectangle-2" fill="#FFFFFF" x="0" y="0" width="154" height="150"></rect>
                        <g id="Layer_1" transform="translate(0.000000, 68.000000)">
                            <g id="Group">
                                <path d="M60.62518,12.02663 C60.33874,12.85284 60.66599,13.08769 61.35283,12.54407 L67.56057,7.71925 C68.24664,7.17563 68.23894,6.2986 67.54363,5.76653 L61.35745,1.05105 C60.66214,0.52206 60.33412,0.7623 60.63057,1.58466 L61.55072,4.45137 L63.63588,3.71987 L62.86049,5.72341 L65.70102,6.75675 L62.82738,7.76545 L63.6251,9.77977 L61.67315,9.06983 L60.62518,12.02663 L60.62518,12.02663 Z" id="Shape" fill="#F7A800"></path>
                                <path d="M59.60878,12.02663 C59.89445,12.85284 59.56566,13.08769 58.88036,12.54407 L52.67416,7.71617 C51.98886,7.17255 51.99502,6.29475 52.69187,5.76345 L58.87959,1.05028 C59.57567,0.52129 59.90369,0.76153 59.60647,1.58389 L58.68478,4.45137 L56.60039,3.7191 L57.37578,5.72264 L54.53371,6.75444 L57.40812,7.76468 L56.60809,9.779 L58.56081,9.06906 L59.60878,12.02663 L59.60878,12.02663 Z" id="Shape" fill="#604F46"></path>
                                <path d="M1.92731,13.22475 L0.30569,13.22475 C0.13706,13.22475 0,13.08923 0,12.91983 L0,1.25125 C0,1.08262 0.13706,0.94556 0.30569,0.94556 L5.26372,0.94556 C5.43235,0.94556 5.56941,1.08262 5.56941,1.25125 L5.56941,2.72426 C5.56941,2.89289 5.43235,3.02995 5.26372,3.02995 L2.233,3.02995 L2.233,5.58712 L4.7047,5.58712 C4.87333,5.58712 5.01039,5.72418 5.01039,5.89281 L5.01039,7.30961 C5.01039,7.47901 4.87333,7.61607 4.7047,7.61607 L2.233,7.61607 L2.233,12.9206 C2.233,13.08923 2.09671,13.22475 1.92731,13.22475" id="Shape" fill="#604F46"></path>
                                <path d="M11.49687,13.30021 C9.24616,13.30021 8.15276,12.12057 8.15276,9.6943 L8.15276,4.34511 C8.15276,2.05975 9.30853,0.85239 11.49687,0.85239 C13.72756,0.85239 14.85946,2.00893 14.85946,4.2889 L14.85946,9.67582 C14.85946,12.14906 13.7907,13.30021 11.49687,13.30021 M11.49687,2.93601 C10.80464,2.93601 10.40501,3.16316 10.40501,4.32663 L10.40501,9.71355 C10.40501,11.14883 10.81773,11.25278 11.49687,11.25278 C12.06821,11.25278 12.62569,11.13574 12.62569,9.7328 L12.62569,4.30738 C12.62492,3.16547 12.19295,2.93601 11.49687,2.93601" id="Shape" fill="#604F46"></path>
                                <path d="M20.91628,13.30021 C18.1104,13.30021 17.65995,11.59928 17.59142,9.76206 C17.58603,9.60344 17.70153,9.46638 17.85938,9.44713 L19.49948,9.24154 C19.58033,9.23153 19.66811,9.25694 19.73279,9.31084 C19.79824,9.36474 19.83751,9.44482 19.84213,9.52875 C19.93376,11.2343 20.13011,11.2343 20.95401,11.2343 C21.79793,11.2343 21.9527,10.89704 21.9527,10.23561 C21.9527,9.42788 21.47222,8.96742 20.1894,7.73542 L20.05157,7.60298 C18.72101,6.34711 17.75851,5.43774 17.75851,3.84153 C17.75851,1.91345 18.8804,0.85162 20.91628,0.85162 C22.96987,0.85162 23.9085,1.76715 24.0548,3.91391 C24.06558,4.07792 23.94469,4.22191 23.78145,4.23885 L22.14135,4.40671 C22.05819,4.41441 21.97734,4.39054 21.9142,4.33664 C21.85106,4.28428 21.81179,4.20805 21.80563,4.12643 C21.714,2.98375 21.54999,2.93601 20.93553,2.93601 C20.13781,2.93601 19.99305,3.22861 19.99305,3.80457 C19.99305,4.44752 20.36881,4.83637 21.55769,5.96904 L21.7679,6.17155 C23.27633,7.62531 24.18647,8.50157 24.18647,10.25409 C24.1857,12.24685 23.05534,13.30021 20.91628,13.30021" id="Shape" fill="#604F46"></path>
                                <path d="M30.25407,13.30021 C27.44819,13.30021 26.99851,11.59928 26.92998,9.76206 C26.92382,9.60344 27.04086,9.46638 27.19794,9.44713 L28.83727,9.24154 C28.91966,9.23153 29.0059,9.25694 29.07135,9.31084 C29.13603,9.36474 29.17607,9.44482 29.17992,9.52875 C29.27232,11.2343 29.4679,11.2343 30.2918,11.2343 C31.13572,11.2343 31.29049,10.89704 31.29049,10.23561 C31.29049,9.42788 30.81078,8.96742 29.52719,7.73542 L29.38936,7.60298 C28.0588,6.34788 27.0963,5.43851 27.0963,3.84153 C27.0963,1.91345 28.21819,0.85162 30.25407,0.85162 C32.30766,0.85162 33.24706,1.76715 33.39259,3.91391 C33.40414,4.07792 33.28248,4.22191 33.11924,4.23885 L31.47914,4.40671 C31.39521,4.41441 31.31513,4.39054 31.25199,4.33664 C31.18885,4.28428 31.14958,4.20805 31.14265,4.12643 C31.05179,2.98375 30.88855,2.93601 30.27332,2.93601 C29.47637,2.93601 29.33084,3.22861 29.33084,3.80457 C29.33084,4.44752 29.7066,4.83637 30.89548,5.96904 L31.10569,6.17155 C32.61412,7.62531 33.52426,8.50157 33.52426,10.25409 C33.52349,12.24685 32.39236,13.30021 30.25407,13.30021" id="Shape" fill="#604F46"></path>
                                <path d="M38.5,13.22475 L36.89686,13.22475 C36.72823,13.22475 36.59194,13.08846 36.59194,12.91983 L36.59194,1.25125 C36.59194,1.08262 36.72823,0.94556 36.89686,0.94556 L38.5,0.94556 C38.66863,0.94556 38.80492,1.08262 38.80492,1.25125 L38.80492,12.91983 C38.80492,13.08923 38.66786,13.22475 38.5,13.22475" id="Shape" fill="#604F46"></path>
                                <path d="M47.55751,13.22475 L42.69265,13.22475 C42.52325,13.22475 42.38619,13.08846 42.38619,12.91983 L42.38619,1.25125 C42.38619,1.08262 42.52325,0.94556 42.69265,0.94556 L44.3135,0.94556 C44.4829,0.94556 44.61919,1.08262 44.61919,1.25125 L44.61919,11.15961 L47.55674,11.15961 C47.72614,11.15961 47.86243,11.29744 47.86243,11.4653 L47.86243,12.91983 C47.86397,13.08923 47.72691,13.22475 47.55751,13.22475" id="Shape" fill="#604F46"></path>
                                <path d="M75.51467,13.10232 L73.91846,13.10232 C73.75214,13.10232 73.61816,12.96757 73.61816,12.80125 L73.61816,1.31747 C73.61816,1.15115 73.75137,1.0164 73.91846,1.0164 L78.79795,1.0164 C78.96427,1.0164 79.09979,1.15115 79.09979,1.31747 L79.09979,2.76661 C79.09979,2.93293 78.96427,3.06768 78.79795,3.06768 L75.81497,3.06768 L75.81497,5.58404 L78.24817,5.58404 C78.41449,5.58404 78.54847,5.71956 78.54847,5.88588 L78.54847,7.28035 C78.54847,7.44667 78.41449,7.58142 78.24817,7.58142 L75.81497,7.58142 L75.81497,12.80202 C75.81574,12.96757 75.68176,13.10232 75.51467,13.10232" id="Shape" fill="#F7A800"></path>
                                <path d="M84.80934,13.17624 C82.59405,13.17624 81.51759,12.01585 81.51759,9.62885 L81.51759,4.36282 C81.51759,2.11442 82.65642,0.92554 84.80934,0.92554 C87.00538,0.92554 88.1188,2.0636 88.1188,4.30892 L88.1188,9.61114 C88.11803,12.04203 87.06544,13.17624 84.80934,13.17624 M84.80934,2.97605 C84.12789,2.97605 83.73365,3.20012 83.73365,4.34511 L83.73365,9.64656 C83.73365,11.05951 84.14021,11.16192 84.80934,11.16192 C85.37221,11.16192 85.91968,11.04642 85.91968,9.66581 L85.91968,4.32586 C85.91968,3.20243 85.49464,2.97605 84.80934,2.97605" id="Shape" fill="#F7A800"></path>
                                <path d="M94.171,13.17624 C91.9149,13.17624 90.95317,12.1429 90.95317,9.72048 L90.95317,1.31747 C90.95317,1.15115 91.08869,1.0164 91.25424,1.0164 L92.85045,1.0164 C93.01677,1.0164 93.15152,1.15115 93.15152,1.31747 L93.15152,9.64656 C93.15152,11.0187 93.4626,11.16192 94.171,11.16192 C94.7485,11.16192 95.19048,11.05104 95.19048,9.66581 L95.19048,1.31747 C95.19048,1.15115 95.32523,1.0164 95.49232,1.0164 L97.05157,1.0164 C97.21789,1.0164 97.35264,1.15115 97.35264,1.31747 L97.35264,9.70123 C97.35264,12.13674 96.40015,13.17624 94.171,13.17624" id="Shape" fill="#F7A800"></path>
                                <path d="M106.33546,13.10232 L104.79392,13.10232 C104.66225,13.10232 104.54444,13.01685 104.50671,12.8898 L102.54475,6.45645 L102.54475,12.80202 C102.54475,12.96834 102.41,13.10309 102.24445,13.10309 L100.72062,13.10309 C100.55507,13.10309 100.41955,12.96834 100.41955,12.80202 L100.41955,1.31747 C100.41955,1.15115 100.55507,1.0164 100.72062,1.0164 L102.77498,1.0164 C102.90819,1.0164 103.02523,1.10341 103.06373,1.23046 L104.52827,6.13767 L104.52827,1.31747 C104.52827,1.15115 104.66379,1.0164 104.83011,1.0164 L106.33469,1.0164 C106.49947,1.0164 106.63499,1.15115 106.63499,1.31747 L106.63499,12.80202 C106.63499,12.96757 106.50024,13.10232 106.33546,13.10232" id="Shape" fill="#F7A800"></path>
                                <path d="M112.65177,13.10232 L109.77197,13.10232 C109.60565,13.10232 109.47013,12.96757 109.47013,12.80125 L109.47013,1.31747 C109.47013,1.15115 109.60565,1.0164 109.77197,1.0164 L112.63406,1.0164 C114.87245,1.0164 115.96123,2.08131 115.96123,4.27119 L115.96123,9.64656 C115.96123,11.97196 114.87861,13.10232 112.65177,13.10232 L112.65177,13.10232 Z M111.66848,11.10648 L112.651,11.10648 C113.42177,11.10648 113.74363,10.90628 113.74363,9.66504 L113.74363,4.28967 C113.74363,3.32563 113.48414,3.03149 112.63329,3.03149 L111.66848,3.03149 L111.66848,11.10648 L111.66848,11.10648 Z" id="Shape" fill="#F7A800"></path>
                                <path d="M124.08319,13.10232 L122.48621,13.10232 C122.34145,13.10232 122.21671,12.99914 122.19053,12.85669 L121.74162,10.44274 L120.29556,10.44274 L119.84742,12.85669 C119.82201,12.99991 119.69727,13.10232 119.55097,13.10232 L118.02791,13.10232 C117.93936,13.10232 117.85466,13.06305 117.79691,12.99375 C117.73916,12.92445 117.71606,12.83436 117.73223,12.74581 L119.89747,1.18811 C119.92365,1.04566 120.04839,0.94325 120.19238,0.94325 L121.89947,0.94325 C122.04423,0.94325 122.16897,1.04566 122.19515,1.18811 L124.3781,12.74504 C124.39427,12.83359 124.37117,12.92445 124.31419,12.99375 C124.25721,13.06305 124.17174,13.10232 124.08319,13.10232 L124.08319,13.10232 Z M120.58816,8.53776 L121.47058,8.53776 L121.03784,5.9521 L120.58816,8.53776 L120.58816,8.53776 Z" id="Shape" fill="#F7A800"></path>
                                <path d="M129.53633,13.10232 L127.93935,13.10232 C127.77303,13.10232 127.63828,12.96757 127.63828,12.80125 L127.63828,3.06768 L125.8488,3.06768 C125.68248,3.06768 125.54696,2.93293 125.54696,2.76661 L125.54696,1.31747 C125.54696,1.15115 125.68248,1.0164 125.8488,1.0164 L131.58992,1.0164 C131.75624,1.0164 131.89176,1.15115 131.89176,1.31747 L131.89176,2.76661 C131.89176,2.93293 131.75624,3.06768 131.58992,3.06768 L129.83663,3.06768 L129.83663,12.80125 C129.83586,12.96757 129.70111,13.10232 129.53633,13.10232" id="Shape" fill="#F7A800"></path>
                                <path d="M136.18682,13.10232 L134.60832,13.10232 C134.44354,13.10232 134.30802,12.96757 134.30802,12.80125 L134.30802,1.31747 C134.30802,1.15115 134.44354,1.0164 134.60832,1.0164 L136.18682,1.0164 C136.35314,1.0164 136.48866,1.15115 136.48866,1.31747 L136.48866,12.80202 C136.48866,12.96757 136.35314,13.10232 136.18682,13.10232" id="Shape" fill="#F7A800"></path>
                                <path d="M142.19667,13.17624 C139.98215,13.17624 138.90492,12.01585 138.90492,9.62885 L138.90492,4.36282 C138.90492,2.11442 140.04375,0.92554 142.19667,0.92554 C144.39194,0.92554 145.50613,2.0636 145.50613,4.30892 L145.50613,9.61114 C145.50613,12.04203 144.45354,13.17624 142.19667,13.17624 M142.19667,2.97605 C141.51445,2.97605 141.12175,3.20012 141.12175,4.34511 L141.12175,9.64656 C141.12175,11.05951 141.52677,11.16192 142.19667,11.16192 C142.758,11.16192 143.30778,11.04642 143.30778,9.66581 L143.30778,4.32586 C143.30778,3.20243 142.88274,2.97605 142.19667,2.97605" id="Shape" fill="#F7A800"></path>
                                <path d="M153.69893,13.10232 L152.15893,13.10232 C152.02495,13.10232 151.90791,13.01685 151.86864,12.8898 L149.90745,6.45645 L149.90745,12.80202 C149.90745,12.96834 149.77347,13.10309 149.60792,13.10309 L148.08409,13.10309 C147.91931,13.10309 147.78302,12.96834 147.78302,12.80202 L147.78302,1.31747 C147.78302,1.15115 147.91931,1.0164 148.08409,1.0164 L150.14076,1.0164 C150.2732,1.0164 150.39024,1.10341 150.42951,1.23046 L151.89405,6.13767 L151.89405,1.31747 C151.89405,1.15115 152.02957,1.0164 152.19512,1.0164 L153.69893,1.0164 C153.86448,1.0164 154,1.15115 154,1.31747 L154,12.80202 C154,12.96757 153.86448,13.10232 153.69893,13.10232" id="Shape" fill="#F7A800"></path>
                            </g>
                        </g>
                    </g>
                </g>
            </g>
        </g>
    </g>
</svg>