<?xml version="1.0" encoding="UTF-8"?>
<svg width="154px" height="150px" viewBox="0 0 154 150" version="1.1" xmlns="http://www.w3.org/2000/svg" xmlns:xlink="http://www.w3.org/1999/xlink">
    <!-- Generator: Sketch 40.2 (33826) - http://www.bohemiancoding.com/sketch -->
    <title>500k_cisco</title>
    <desc>Created with Sketch.</desc>
    <defs>
        <rect id="path-1" x="0" y="0" width="154" height="81.02633"></rect>
        <rect id="path-3" x="0" y="0" width="154" height="81.02633"></rect>
        <rect id="path-5" x="0" y="0" width="154" height="81.02633"></rect>
        <rect id="path-7" x="0" y="0" width="154" height="81.02633"></rect>
        <rect id="path-9" x="0" y="0" width="154" height="81.02633"></rect>
        <rect id="path-11" x="0" y="0" width="154" height="81.02633"></rect>
        <rect id="path-13" x="0" y="0" width="154" height="81.02633"></rect>
        <rect id="path-15" x="0" y="0" width="154" height="81.02633"></rect>
        <rect id="path-17" x="0" y="0" width="154" height="81.02633"></rect>
        <rect id="path-19" x="0" y="0" width="154" height="81.02633"></rect>
        <rect id="path-21" x="0" y="0" width="154" height="81.02633"></rect>
        <rect id="path-23" x="0" y="0" width="154" height="81.02633"></rect>
        <rect id="path-25" x="0" y="0" width="154" height="81.02633"></rect>
        <rect id="path-27" x="0" y="0" width="154" height="81.02633"></rect>
    </defs>
    <g id="Page-1" stroke="none" stroke-width="1" fill="none" fill-rule="evenodd">
        <g id="Our-partners" transform="translate(-376.000000, -2415.000000)">
            <g id="Content" transform="translate(376.000000, 150.000000)">
                <g id="Support-of-$500k+" transform="translate(0.000000, 2211.000000)">
                    <g id="500k_cisco" transform="translate(0.000000, 54.000000)">
                        <rect id="Rectangle-2" fill="#FFFFFF" x="0" y="0" width="154" height="150"></rect>
                        <g id="Layer_1" transform="translate(0.000000, 34.000000)">
                            <g id="Group">
                                <g id="Clipped">
                                    <mask id="mask-2" fill="white">
                                        <use xlink:href="#path-1"></use>
                                    </mask>
                                    <g id="SVGID_1_"></g>
                                    <rect id="Rectangle-path" fill="#099ED9" mask="url(#mask-2)" x="43.55428" y="53.79143" width="6.7529" height="26.75981"></rect>
                                </g>
                                <g id="Clipped">
                                    <mask id="mask-4" fill="white">
                                        <use xlink:href="#path-3"></use>
                                    </mask>
                                    <g id="SVGID_1_"></g>
                                    <path d="M104.75619,61.45986 C104.48053,61.31664 102.3022,60.03151 99.07282,60.03151 C94.70769,60.03151 91.67851,63.06839 91.67851,67.16864 C91.67851,71.14492 94.5791,74.31039 99.07282,74.31039 C102.24907,74.31039 104.45897,73.05067 104.75619,72.89051 L104.75619,80.07538 C103.90688,80.31254 101.60073,81.0271 98.60235,81.0271 C91.00707,81.0271 84.34041,75.7911 84.34041,67.16941 C84.34041,59.17681 90.37182,53.31788 98.60235,53.31788 C101.76782,53.31788 104.11632,54.08788 104.75619,54.27653 L104.75619,61.45986" id="Shape" fill="#099ED9" mask="url(#mask-4)"></path>
                                </g>
                                <g id="Clipped">
                                    <mask id="mask-6" fill="white">
                                        <use xlink:href="#path-5"></use>
                                    </mask>
                                    <g id="SVGID_1_"></g>
                                    <path d="M34.27116,61.45986 C33.99935,61.31664 31.82872,60.03151 28.59857,60.03151 C24.2242,60.03151 21.1981,63.06839 21.1981,67.16864 C21.1981,71.14492 24.10023,74.31039 28.59857,74.31039 C31.77251,74.31039 33.98241,73.05067 34.27116,72.89051 L34.27116,80.07538 C33.43263,80.31254 31.1311,81.0271 28.11501,81.0271 C20.52435,81.0271 13.86385,75.7911 13.86385,67.16941 C13.86385,59.17681 19.89757,53.31788 28.11501,53.31788 C31.29126,53.31788 33.63745,54.08788 34.27116,54.27653 L34.27116,61.45986" id="Shape" fill="#099ED9" mask="url(#mask-6)"></path>
                                </g>
                                <g id="Clipped">
                                    <mask id="mask-8" fill="white">
                                        <use xlink:href="#path-7"></use>
                                    </mask>
                                    <g id="SVGID_1_"></g>
                                    <path d="M140.14,67.16787 C140.14,74.82244 134.22794,81.02556 125.99741,81.02556 C117.76919,81.02556 111.8656,74.82244 111.8656,67.16787 C111.8656,59.52331 117.76919,53.31634 125.99741,53.31634 C134.22794,53.31711 140.14,59.52408 140.14,67.16787 L140.14,67.16787 Z M125.99741,60.1293 C121.9911,60.1293 119.01813,63.28245 119.01813,67.16864 C119.01813,71.06176 121.9911,74.21029 125.99741,74.21029 C129.9991,74.21029 132.98285,71.06176 132.98285,67.16864 C132.98362,63.28245 129.99987,60.1293 125.99741,60.1293 L125.99741,60.1293 Z" id="Shape" fill="#099ED9" mask="url(#mask-8)"></path>
                                </g>
                                <g id="Clipped">
                                    <mask id="mask-10" fill="white">
                                        <use xlink:href="#path-9"></use>
                                    </mask>
                                    <g id="SVGID_1_"></g>
                                    <path d="M75.91584,59.87212 C75.81497,59.84209 72.9729,59.05746 70.63749,59.05746 C67.93171,59.05746 66.46024,59.96221 66.46024,61.24965 C66.46024,62.87974 68.4453,63.44646 69.55718,63.79681 L71.41981,64.39125 C75.79957,65.78341 77.79772,68.78487 77.79772,72.04659 C77.79772,78.76715 71.88566,81.02556 66.71819,81.02556 C63.12691,81.02556 59.76201,80.3649 59.43091,80.29406 L59.43091,74.1356 C60.02535,74.28729 62.85741,75.13044 65.80882,75.13044 C69.16679,75.13044 70.71295,74.14869 70.71295,72.63256 C70.71295,71.27582 69.37623,70.4935 67.69917,69.96759 C67.2903,69.83284 66.67661,69.64034 66.25927,69.50174 C62.49705,68.3144 59.36161,66.10296 59.36161,61.67315 C59.36161,56.66815 63.10843,53.30787 69.33311,53.30787 C72.62101,53.30787 75.71333,54.10559 75.9143,54.15872 L75.9143,59.87212" id="Shape" fill="#099ED9" mask="url(#mask-10)"></path>
                                </g>
                                <g id="Clipped">
                                    <mask id="mask-12" fill="white">
                                        <use xlink:href="#path-11"></use>
                                    </mask>
                                    <g id="SVGID_1_"></g>
                                    <path d="M6.70516,25.03193 C6.70516,23.18778 5.19904,21.69321 3.35104,21.69321 C1.50766,21.69321 0,23.18855 0,25.03193 L0,32.05587 C0,33.91234 1.50766,35.40768 3.35181,35.40768 C5.19981,35.40768 6.70593,33.91234 6.70593,32.05587 L6.70593,25.03193" id="Shape" fill="#099ED9" mask="url(#mask-12)"></path>
                                </g>
                                <g id="Clipped">
                                    <mask id="mask-14" fill="white">
                                        <use xlink:href="#path-13"></use>
                                    </mask>
                                    <g id="SVGID_1_"></g>
                                    <path d="M25.11894,15.81349 C25.11894,13.9678 23.61282,12.47015 21.76713,12.47015 C19.91913,12.47015 18.41301,13.96703 18.41301,15.81349 L18.41301,32.05587 C18.41301,33.91234 19.91913,35.40768 21.76713,35.40768 C23.61282,35.40768 25.11894,33.91234 25.11894,32.05587 L25.11894,15.81349" id="Shape" fill="#099ED9" mask="url(#mask-14)"></path>
                                </g>
                                <g id="Clipped">
                                    <mask id="mask-16" fill="white">
                                        <use xlink:href="#path-15"></use>
                                    </mask>
                                    <g id="SVGID_1_"></g>
                                    <path d="M43.53272,3.19858 C43.53272,1.35443 42.0266,-0.14014 40.18091,-0.14014 C38.33522,-0.14014 36.8291,1.3552 36.8291,3.19858 L36.8291,38.73408 C36.8291,40.58824 38.33522,42.08358 40.18091,42.08358 C42.0266,42.08358 43.53272,40.58824 43.53272,38.73408 L43.53272,3.19858" id="Shape" fill="#099ED9" mask="url(#mask-16)"></path>
                                </g>
                                <g id="Clipped">
                                    <mask id="mask-18" fill="white">
                                        <use xlink:href="#path-17"></use>
                                    </mask>
                                    <g id="SVGID_1_"></g>
                                    <path d="M61.94881,15.81349 C61.94881,13.9678 60.44269,12.47015 58.59546,12.47015 C56.74977,12.47015 55.24365,13.96703 55.24365,15.81349 L55.24365,32.05587 C55.24365,33.91234 56.74977,35.40768 58.59546,35.40768 C60.44346,35.40768 61.94881,33.91234 61.94881,32.05587 L61.94881,15.81349" id="Shape" fill="#099ED9" mask="url(#mask-18)"></path>
                                </g>
                                <g id="Clipped">
                                    <mask id="mask-20" fill="white">
                                        <use xlink:href="#path-19"></use>
                                    </mask>
                                    <g id="SVGID_1_"></g>
                                    <path d="M80.34103,25.03193 C80.34103,23.18778 78.84646,21.69321 77.01078,21.69321 C75.16509,21.69321 73.65666,23.18778 73.65666,25.03193 L73.65666,32.05587 C73.65666,33.91234 75.16432,35.40768 77.01078,35.40768 C78.84569,35.40768 80.34103,33.91234 80.34103,32.05587 L80.34103,25.03193" id="Shape" fill="#099ED9" mask="url(#mask-20)"></path>
                                </g>
                                <g id="Clipped">
                                    <mask id="mask-22" fill="white">
                                        <use xlink:href="#path-21"></use>
                                    </mask>
                                    <g id="SVGID_1_"></g>
                                    <path d="M98.76559,15.81349 C98.76559,13.9678 97.27102,12.47015 95.42302,12.47015 C93.58118,12.47015 92.08199,13.96703 92.08199,15.81349 L92.08199,32.05587 C92.08199,33.91234 93.58118,35.40768 95.42302,35.40768 C97.27102,35.40768 98.76559,33.91234 98.76559,32.05587 L98.76559,15.81349" id="Shape" fill="#099ED9" mask="url(#mask-22)"></path>
                                </g>
                                <g id="Clipped">
                                    <mask id="mask-24" fill="white">
                                        <use xlink:href="#path-23"></use>
                                    </mask>
                                    <g id="SVGID_1_"></g>
                                    <path d="M117.19169,3.19858 C117.19169,1.35443 115.69712,-0.14014 113.85066,-0.14014 C112.00266,-0.14014 110.50732,1.3552 110.50732,3.19858 L110.50732,38.73408 C110.50732,40.58824 112.00266,42.08358 113.85066,42.08358 C115.69635,42.08358 117.19169,40.58824 117.19169,38.73408 L117.19169,3.19858" id="Shape" fill="#099ED9" mask="url(#mask-24)"></path>
                                </g>
                                <g id="Clipped">
                                    <mask id="mask-26" fill="white">
                                        <use xlink:href="#path-25"></use>
                                    </mask>
                                    <g id="SVGID_1_"></g>
                                    <path d="M135.61394,15.81349 C135.61394,13.9678 134.11937,12.47015 132.23056,12.47015 C130.38487,12.47015 128.88953,13.96703 128.88953,15.81349 L128.88953,32.05587 C128.88953,33.91234 130.38487,35.40768 132.23056,35.40768 C134.11937,35.40768 135.61394,33.91234 135.61394,32.05587 L135.61394,15.81349" id="Shape" fill="#099ED9" mask="url(#mask-26)"></path>
                                </g>
                                <g id="Clipped">
                                    <mask id="mask-28" fill="white">
                                        <use xlink:href="#path-27"></use>
                                    </mask>
                                    <g id="SVGID_1_"></g>
                                    <path d="M154,25.03193 C154,23.18778 152.50081,21.69321 150.65897,21.69321 C148.81097,21.69321 147.31178,23.18778 147.31178,25.03193 L147.31178,32.05587 C147.31178,33.91234 148.81097,35.40768 150.65897,35.40768 C152.50081,35.40768 154,33.91234 154,32.05587 L154,25.03193" id="Shape" fill="#099ED9" mask="url(#mask-28)"></path>
                                </g>
                            </g>
                        </g>
                    </g>
                </g>
            </g>
        </g>
    </g>
</svg>