<?xml version="1.0" encoding="UTF-8"?>
<svg width="154px" height="150px" viewBox="0 0 154 150" version="1.1" xmlns="http://www.w3.org/2000/svg" xmlns:xlink="http://www.w3.org/1999/xlink">
    <!-- Generator: Sketch 40.2 (33826) - http://www.bohemiancoding.com/sketch -->
    <title>500k_dermalogica</title>
    <desc>Created with Sketch.</desc>
    <defs></defs>
    <g id="Page-1" stroke="none" stroke-width="1" fill="none" fill-rule="evenodd">
        <g id="Our-partners" transform="translate(-764.000000, -2415.000000)">
            <g id="Content" transform="translate(376.000000, 150.000000)">
                <g id="Support-of-$500k+" transform="translate(0.000000, 2211.000000)">
                    <g id="500k_dermalogica" transform="translate(388.000000, 54.000000)">
                        <rect id="Rectangle-2" fill="#FFFFFF" x="0" y="0" width="154" height="150"></rect>
                        <g id="Layer_1" transform="translate(0.000000, 65.000000)" fill="#999999">
                            <g id="Group">
                                <path d="M9.68429,5.76653 L9.6481,5.76653 C8.86193,4.79787 7.54677,4.33202 5.6826,4.33202 C2.72272,4.33202 0,5.9906 0,9.77438 C0,13.55816 2.72272,15.21674 5.6826,15.21674 C7.71078,15.21674 8.97204,14.69468 9.79363,13.72525 L9.82982,13.72525 L9.82982,14.80633 L14.2527,14.80633 L14.2527,1.03334 L9.68352,1.03334 L9.68352,5.76653 L9.68429,5.76653 L9.68429,5.76653 Z M7.18102,12.08515 C5.40848,12.08515 4.67775,11.11572 4.67775,9.77438 C4.67775,8.46923 5.51859,7.46361 7.16331,7.46361 C8.93585,7.46361 9.68429,8.3391 9.68429,9.77438 C9.68429,11.22814 8.93508,12.08515 7.18102,12.08515 L7.18102,12.08515 L7.18102,12.08515 Z" id="Shape"></path>
                                <path d="M22.65725,4.20112 C18.16276,4.20112 15.5309,6.17694 15.5309,9.69969 C15.5309,13.42726 18.2721,15.21674 23.07767,15.21674 C25.179,15.21674 26.75057,14.88102 27.9202,14.28504 C29.08983,13.68906 29.85675,12.81203 30.20479,11.7502 L25.34378,11.7502 C24.85021,12.38391 24.15644,12.64571 22.9691,12.64571 C20.9594,12.64571 20.21019,11.52613 20.21019,10.80002 L30.26023,10.80002 C30.33261,5.71109 27.08013,4.20112 22.65725,4.20112 L22.65725,4.20112 L22.65725,4.20112 Z M20.20942,8.45075 C20.44658,7.16485 21.36057,6.66204 22.95062,6.66204 C24.52219,6.66204 25.564,7.35119 25.65486,8.45075 L20.20942,8.45075 L20.20942,8.45075 L20.20942,8.45075 Z" id="Shape"></path>
                                <path d="M36.06988,6.5681 L36.03369,6.5681 L36.03369,4.61153 L31.61158,4.61153 L31.61158,14.80633 L36.17999,14.80633 L36.17999,10.98559 C36.17999,8.78647 37.91557,8.24516 39.54181,8.24516 C40.34646,8.24516 41.02252,8.41379 41.8264,8.61861 L41.8264,4.44367 C41.33283,4.36898 40.82078,4.33202 40.32798,4.33202 C38.75641,4.33202 37.25799,4.98421 36.06988,6.5681 L36.06988,6.5681 L36.06988,6.5681 Z" id="Shape"></path>
                                <path d="M57.92325,4.33202 C56.07833,4.33202 54.87174,5.09586 54.25035,6.02833 C53.72059,5.02194 52.91671,4.33202 50.9432,4.33202 C49.04284,4.33202 47.92865,5.05813 47.21563,6.00908 L47.17944,6.00908 L47.17944,4.61153 L42.75656,4.61153 L42.75656,14.80633 L47.32497,14.80633 L47.32497,9.40093 C47.32497,8.15276 47.92865,7.68691 48.87806,7.68691 C49.68194,7.68691 50.10313,8.02186 50.10313,9.04827 L50.10313,14.8071 L54.52447,14.8071 L54.52447,9.4017 C54.52447,8.15353 55.12738,7.68768 56.07833,7.68768 C56.88221,7.68768 57.30186,8.02263 57.30186,9.04904 L57.30186,14.80787 L61.87027,14.80787 L61.87027,7.78162 C61.87027,5.30068 60.11621,4.33202 57.92325,4.33202 L57.92325,4.33202 L57.92325,4.33202 Z" id="Shape"></path>
                                <path d="M77.43813,8.30214 C77.43813,5.26449 75.59321,4.20112 70.93317,4.20112 C68.52153,4.20112 66.8591,4.38746 65.74414,4.90952 C64.6107,5.45006 64.04398,6.30707 63.77063,7.70539 L68.33904,7.70539 C68.55849,6.71671 69.59953,6.54962 70.64134,6.54962 C71.93879,6.54962 72.76115,6.86686 72.76115,7.53753 C72.76115,8.09655 72.45007,8.31985 71.53685,8.37529 L67.68146,8.56163 C64.30116,8.71024 63.00371,9.90297 63.00371,11.76791 C63.00371,14.37667 64.94026,15.21597 68.01025,15.21597 C70.44114,15.21597 71.99423,14.76783 73.01679,13.79994 C73.0345,14.17185 73.08994,14.50757 73.18157,14.80633 L77.85855,14.80633 C77.63987,14.47061 77.4389,14.00553 77.4389,13.22167 L77.4389,8.30214 L77.43813,8.30214 L77.43813,8.30214 Z M72.86972,10.61214 C72.86972,12.36466 71.17033,12.75582 69.63572,12.75582 C68.50305,12.75582 67.93633,12.30845 67.93633,11.60005 C67.93633,10.94863 68.33827,10.66835 69.17911,10.59443 C70.80535,10.44505 72.1028,10.33263 72.86972,10.16554 L72.86972,10.61214 L72.86972,10.61214 L72.86972,10.61214 Z" id="Shape"></path>
                                <polygon id="Shape" points="79.22838 14.80633 83.79679 14.80633 83.79679 1.03334 79.22838 1.03334"></polygon>
                                <path d="M92.477,4.20112 C87.32416,4.20112 85.07576,5.95287 85.07576,9.69969 C85.07576,13.46499 87.32416,15.21674 92.477,15.21674 C97.6283,15.21674 99.8767,13.46499 99.8767,9.69969 C99.8767,5.95287 97.6283,4.20112 92.477,4.20112 L92.477,4.20112 L92.477,4.20112 Z M92.477,12.19757 C90.64902,12.19757 89.86362,11.33979 89.86362,9.69969 C89.86362,8.09655 90.64902,7.22106 92.477,7.22106 C94.32192,7.22106 95.08961,8.09655 95.08961,9.69969 C95.08884,11.33979 94.32115,12.19757 92.477,12.19757 L92.477,12.19757 L92.477,12.19757 Z" id="Shape"></path>
                                <path d="M110.76681,5.76653 C109.85359,4.85331 108.48299,4.33202 106.65578,4.33202 C103.257,4.33202 100.6082,6.04681 100.6082,9.25232 C100.6082,12.45783 102.72801,14.17262 106.65578,14.17262 C108.28202,14.17262 109.70729,13.89388 110.61974,13.07306 L110.61974,13.94932 C110.61974,15.34764 109.98064,16.03602 108.11724,16.03602 C107.4227,16.03602 106.92913,15.94285 106.59957,15.77576 C106.27078,15.60713 106.10677,15.36535 106.03439,15.02963 L100.99012,15.02963 C101.42902,17.58295 103.23775,18.60859 108.22658,18.60859 C112.79499,18.60859 115.18892,17.34117 115.18892,14.07945 L115.18892,4.61153 L110.76604,4.61153 L110.76604,5.76653 L110.76681,5.76653 L110.76681,5.76653 Z M107.98942,11.37752 C106.10754,11.37752 105.39452,10.44505 105.39452,9.34472 C105.39452,8.28289 106.10754,7.35042 107.98942,7.35042 C109.92674,7.35042 110.61974,8.28212 110.61974,9.34472 C110.61974,10.44505 109.92674,11.37752 107.98942,11.37752 L107.98942,11.37752 L107.98942,11.37752 Z" id="Shape"></path>
                                <polygon id="Shape" points="117.01613 3.60514 121.58377 3.60514 121.58377 1.03334 117.01613 1.03334"></polygon>
                                <polygon id="Shape" points="117.01613 14.80633 121.58377 14.80633 121.58377 4.61153 117.01613 4.61153"></polygon>
                                <path d="M130.40951,7.10864 C130.99394,7.10864 131.63304,7.20181 132.05346,7.42511 C132.56551,7.68614 132.85811,8.0773 132.91278,8.71101 L137.6991,8.71101 C137.2063,5.31916 134.64836,4.20112 130.35484,4.20112 C126.15141,4.20112 122.86351,5.50627 122.86351,9.68121 C122.86351,13.91082 126.15218,15.21597 130.35484,15.21597 C133.49721,15.21597 137.22555,14.73164 137.6991,10.50049 L132.91278,10.50049 C132.6017,11.82335 131.65075,12.1968 130.37255,12.1968 C128.56305,12.1968 127.6506,11.19041 127.6506,9.62423 C127.6506,8.26441 128.36285,7.10864 130.40951,7.10864 L130.40951,7.10864 L130.40951,7.10864 Z" id="Shape"></path>
                                <path d="M152.6833,8.30214 C152.6833,5.26449 150.83838,4.20112 146.17911,4.20112 C143.7667,4.20112 142.1035,4.38746 140.98931,4.90952 C139.85587,5.45006 139.28992,6.30707 139.0158,7.70539 L143.58421,7.70539 C143.80443,6.71671 144.84547,6.54962 145.88728,6.54962 C147.18473,6.54962 148.00632,6.86686 148.00632,7.53753 C148.00632,8.09655 147.69601,8.31985 146.78202,8.37529 L142.92586,8.56163 C139.54556,8.71024 138.24888,9.90297 138.24888,11.76791 C138.24888,14.37667 140.1862,15.21597 143.25542,15.21597 C145.68631,15.21597 147.2394,14.76783 148.26196,13.79994 C148.27967,14.17185 148.33588,14.50757 148.42674,14.80633 L153.10526,14.80633 C152.88504,14.47061 152.68407,14.00553 152.68407,13.22167 L152.68407,8.30214 L152.6833,8.30214 L152.6833,8.30214 Z M148.11489,10.61214 C148.11489,12.36466 146.4155,12.75582 144.88089,12.75582 C143.74822,12.75582 143.18073,12.30845 143.18073,11.60005 C143.18073,10.94863 143.58267,10.66835 144.42428,10.59443 C146.04975,10.44505 147.3472,10.33263 148.11489,10.16554 L148.11489,10.61214 L148.11489,10.61214 L148.11489,10.61214 Z" id="Shape"></path>
                                <path d="M152.79495,1.67783 C152.79495,1.16963 152.49927,0.94556 151.90252,0.94556 L150.94156,0.94556 L150.94156,3.52198 L151.32348,3.52198 L151.32348,2.40548 L151.76315,2.40548 L152.42997,3.52198 L152.85886,3.52198 L152.13968,2.387 C152.51082,2.3408 152.79495,2.13906 152.79495,1.67783 L152.79495,1.67783 L152.79495,1.67783 Z M151.32271,2.07438 L151.32271,1.27666 L151.844,1.27666 C152.11196,1.27666 152.39455,1.33595 152.39455,1.65473 C152.39455,2.05051 152.10503,2.07361 151.78009,2.07361 L151.32271,2.07361 L151.32271,2.07438 L151.32271,2.07438 Z" id="Shape"></path>
                                <path d="M151.78625,0 C150.5812,0 149.56172,0.94556 149.56172,2.22838 C149.56172,3.52198 150.58043,4.46754 151.78625,4.46754 C152.98052,4.46754 154,3.52198 154,2.22838 C154,0.94556 152.98052,0 151.78625,0 L151.78625,0 L151.78625,0 Z M151.78625,4.09563 C150.78371,4.09563 150.00216,3.30407 150.00216,2.22838 C150.00216,1.16963 150.78448,0.37191 151.78625,0.37191 C152.77724,0.37191 153.55956,1.16963 153.55956,2.22838 C153.55956,3.30407 152.77724,4.09563 151.78625,4.09563 L151.78625,4.09563 L151.78625,4.09563 Z" id="Shape"></path>
                            </g>
                        </g>
                    </g>
                </g>
            </g>
        </g>
    </g>
</svg>