<?xml version="1.0" encoding="UTF-8"?>
<svg width="154px" height="150px" viewBox="0 0 154 150" version="1.1" xmlns="http://www.w3.org/2000/svg" xmlns:xlink="http://www.w3.org/1999/xlink">
    <!-- Generator: Sketch 40.2 (33826) - http://www.bohemiancoding.com/sketch -->
    <title>500k_pershing</title>
    <desc>Created with Sketch.</desc>
    <defs></defs>
    <g id="Page-1" stroke="none" stroke-width="1" fill="none" fill-rule="evenodd">
        <g id="Our-partners" transform="translate(-570.000000, -2605.000000)">
            <g id="Content" transform="translate(376.000000, 150.000000)">
                <g id="Support-of-$500k+" transform="translate(0.000000, 2211.000000)">
                    <g id="500k_pershing" transform="translate(194.000000, 244.000000)">
                        <rect id="Rectangle-2" fill="#FFFFFF" x="0" y="0" width="154" height="150"></rect>
                        <g id="Layer_1" transform="translate(0.000000, 55.000000)">
                            <g id="Group" transform="translate(0.000000, 10.010000)" fill="#0A3D24">
                                <path d="M0.26642,7.78547 L0.26642,0.67606 L3.38954,0.67606 C4.8818,0.67606 5.7134,1.69939 5.7134,2.90367 C5.7134,4.10795 4.87102,5.13128 3.38954,5.13128 L1.51382,5.13128 L1.51382,7.78547 L0.26642,7.78547 L0.26642,7.78547 Z M4.43443,2.90367 C4.43443,2.22145 3.92238,1.77408 3.21937,1.77408 L1.51382,1.77408 L1.51382,4.03403 L3.21937,4.03403 C3.92238,4.03326 4.43443,3.58512 4.43443,2.90367 L4.43443,2.90367 Z" id="Shape"></path>
                                <polygon id="Shape" points="6.74674 7.78547 6.74674 0.67606 11.61776 0.67606 11.61776 1.77408 7.99337 1.77408 7.99337 3.61823 11.54307 3.61823 11.54307 4.71625 7.99337 4.71625 7.99337 6.68822 11.61776 6.68822 11.61776 7.78624 6.74674 7.78624"></polygon>
                                <path d="M16.95694,7.78547 L15.37921,5.13128 L14.14336,5.13128 L14.14336,7.78547 L12.89596,7.78547 L12.89596,0.67606 L16.01908,0.67606 C17.42587,0.67606 18.34294,1.59236 18.34294,2.90367 C18.34294,4.17186 17.51134,4.85408 16.65818,4.99268 L18.39607,7.78547 L16.95694,7.78547 L16.95694,7.78547 Z M17.06397,2.90367 C17.06397,2.22145 16.55192,1.77408 15.84891,1.77408 L14.14336,1.77408 L14.14336,4.03403 L15.84891,4.03403 C16.55192,4.03326 17.06397,3.58512 17.06397,2.90367 L17.06397,2.90367 Z" id="Shape"></path>
                                <path d="M19.13065,6.78293 L19.82288,5.82351 C20.31337,6.34557 21.08106,6.80372 22.07205,6.80372 C23.09538,6.80372 23.5004,6.30322 23.5004,5.83352 C23.5004,4.34126 19.35395,5.26911 19.35395,2.64649 C19.35395,1.47378 20.38806,0.56749 21.94423,0.56749 C23.05303,0.56749 23.94854,0.91938 24.6092,1.55925 L23.89464,2.48633 C23.34024,1.93193 22.58333,1.67629 21.83797,1.67629 C21.10262,1.67629 20.63369,2.02818 20.63369,2.56025 C20.63369,3.88234 24.76936,3.06152 24.76936,5.71571 C24.76936,6.89843 23.93776,7.91175 22.01969,7.91175 C20.70838,7.91329 19.75974,7.45514 19.13065,6.78293 L19.13065,6.78293 Z" id="Shape"></path>
                                <polygon id="Shape" points="30.86545 7.78547 30.86545 4.68314 27.16714 4.68314 27.16714 7.78547 25.91974 7.78547 25.91974 0.67606 27.16714 0.67606 27.16714 3.58589 30.86545 3.58589 30.86545 0.67606 32.11285 0.67606 32.11285 7.78547"></polygon>
                                <polygon id="Shape" points="33.62513 7.78547 33.62513 0.67606 34.87253 0.67606 34.87253 7.78547"></polygon>
                                <polygon id="Shape" points="41.34207 7.78547 37.63298 2.71194 37.63298 7.78547 36.38558 7.78547 36.38558 0.67606 37.66455 0.67606 41.29895 5.61099 41.29895 0.67606 42.54635 0.67606 42.54635 7.78547 41.34207 7.78547"></polygon>
                                <path d="M43.73908,4.23577 C43.73908,2.00739 45.41229,0.55825 47.46973,0.55825 C48.85573,0.55825 49.76125,1.21891 50.33721,2.03973 L49.31388,2.61492 C48.9412,2.08208 48.26976,1.66628 47.46973,1.66628 C46.06294,1.66628 45.01805,2.74274 45.01805,4.235 C45.01805,5.72726 46.06294,6.8145 47.46973,6.8145 C48.1943,6.8145 48.83417,6.47339 49.15449,6.17463 L49.15449,5.0666 L47.03314,5.0666 L47.03314,3.96858 L50.40189,3.96858 L50.40189,6.63355 C49.69811,7.41125 48.70635,7.9233 47.4705,7.9233 C45.41306,7.92407 43.73908,6.46338 43.73908,4.23577 L43.73908,4.23577 Z" id="Shape"></path>
                            </g>
                            <g id="Group" transform="translate(0.000000, 22.330000)" fill="#0A3D24">
                                <path d="M0,6.71671 L0.39424,6.25779 C0.85239,6.79063 1.59852,7.2919 2.61107,7.2919 C4.07099,7.2919 4.48756,6.48186 4.48756,5.87433 C4.48756,3.78532 0.22407,4.87256 0.22407,2.38854 C0.22407,1.22661 1.26819,0.49126 2.55794,0.49126 C3.62362,0.49126 4.41287,0.86394 4.9665,1.49303 L4.56148,1.9404 C4.04943,1.32209 3.32486,1.04489 2.5256,1.04489 C1.57696,1.04489 0.8624,1.58928 0.8624,2.3562 C0.8624,4.17879 5.12589,3.17702 5.12589,5.83121 C5.12589,6.74751 4.51836,7.8463 2.60029,7.8463 C1.42835,7.8463 0.54362,7.37737 0,6.71671 L0,6.71671 Z" id="Shape"></path>
                                <path d="M6.32016,4.16878 C6.32016,2.09055 7.6846,0.49126 9.77361,0.49126 C11.85261,0.49126 13.22706,2.09055 13.22706,4.16878 C13.22706,5.24524 12.85361,6.1831 12.21451,6.84453 L12.96064,7.62223 L12.54484,8.00646 L11.78793,7.22799 C11.24431,7.62223 10.56209,7.8463 9.77361,7.8463 C7.6846,7.8463 6.32016,6.24701 6.32016,4.16878 L6.32016,4.16878 Z M11.38291,6.80141 L10.28489,5.66104 L10.71147,5.2668 L11.80949,6.41795 C12.29998,5.85277 12.58796,5.07507 12.58796,4.16878 C12.58796,2.3562 11.47916,1.04566 9.77361,1.04566 C8.0465,1.04566 6.95926,2.35697 6.95926,4.16878 C6.95926,5.95903 8.0465,7.2919 9.77361,7.2919 C10.39192,7.2919 10.94632,7.11018 11.38291,6.80141 L11.38291,6.80141 Z" id="Shape"></path>
                                <path d="M14.72933,4.9896 L14.72933,0.60907 L15.34764,0.60907 L15.34764,4.97882 C15.34764,6.41795 16.10455,7.2919 17.50056,7.2919 C18.90735,7.2919 19.65348,6.41795 19.65348,4.97882 L19.65348,0.60907 L20.27179,0.60907 L20.27179,4.9896 C20.27179,6.74828 19.33393,7.8463 17.50056,7.8463 C15.67797,7.8463 14.72933,6.7375 14.72933,4.9896 L14.72933,4.9896 Z" id="Shape"></path>
                                <path d="M26.94307,7.71771 L26.23929,5.96981 L22.47707,5.96981 L21.77329,7.71771 L21.06951,7.71771 L23.97934,0.6083 L24.73625,0.6083 L27.64608,7.71771 L26.94307,7.71771 L26.94307,7.71771 Z M24.35356,1.25895 L22.67958,5.41541 L26.03755,5.41541 L24.35356,1.25895 L24.35356,1.25895 Z" id="Shape"></path>
                                <path d="M32.85821,7.71771 L30.86468,4.77631 L29.2985,4.77631 L29.2985,7.71771 L28.69097,7.71771 L28.69097,0.6083 L31.34516,0.6083 C32.571,0.6083 33.50963,1.38677 33.50963,2.68653 C33.50963,3.97628 32.59333,4.69084 31.53766,4.73319 L33.59433,7.71771 L32.85821,7.71771 L32.85821,7.71771 Z M32.86976,2.6873 C32.86976,1.79179 32.22989,1.16347 31.29203,1.16347 L29.2985,1.16347 L29.2985,4.22268 L31.29126,4.22268 C32.22912,4.22191 32.86976,3.58281 32.86976,2.6873 L32.86976,2.6873 Z" id="Shape"></path>
                                <polygon id="Shape" points="35.02191 7.71771 35.02191 0.6083 39.53026 0.6083 39.53026 1.1627 35.62867 1.1627 35.62867 3.79533 39.45557 3.79533 39.45557 4.34973 35.62867 4.34973 35.62867 7.16331 39.53026 7.16331 39.53026 7.71771 35.02191 7.71771"></polygon>
                            </g>
                            <g id="Group" transform="translate(101.640000, 10.780000)" fill="#0A3D24">
                                <path d="M0.70609,1.76022 C0.70609,0.82005 1.48995,0.06237 2.40317,0.06237 C3.34411,0.06237 4.10102,0.82005 4.10102,1.76022 C4.10102,2.70039 3.34411,3.45807 2.40317,3.45807 C1.48995,3.45807 0.70609,2.70039 0.70609,1.76022 L0.70609,1.76022 Z M1.04489,17.61298 L1.04489,4.99884 L3.78763,4.99884 L3.78763,17.61298 L1.04489,17.61298 L1.04489,17.61298 Z" id="Shape"></path>
                                <polygon id="Shape" points="7.41741 17.61298 7.41741 0.19327 10.47277 0.19327 10.47277 14.9226 18.15121 14.9226 18.15121 17.61298"></polygon>
                                <path d="M33.11462,17.61298 L31.83488,14.26964 L23.84305,14.26964 L22.56331,17.61298 L19.08984,17.61298 L25.93283,0.19327 L29.7451,0.19327 L36.58809,17.61298 L33.11462,17.61298 L33.11462,17.61298 Z M27.83858,3.27481 L24.70468,11.58003 L30.97325,11.58003 L27.83858,3.27481 L27.83858,3.27481 Z" id="Shape"></path>
                                <path d="M38.4923,17.61298 L38.4923,0.19327 L47.05855,0.19327 C50.24481,0.19327 52.02043,2.17833 52.02043,4.63309 C52.02043,6.82682 50.60979,8.28982 48.99048,8.62939 C50.84464,8.9166 52.35923,10.77076 52.35923,12.91213 C52.35923,15.60174 50.55666,17.61298 47.29263,17.61298 L38.4923,17.61298 L38.4923,17.61298 Z M48.88653,5.15515 C48.88653,3.84923 47.99872,2.88288 46.43177,2.88288 L41.54766,2.88288 L41.54766,7.40124 L46.43177,7.40124 C47.99872,7.40124 48.88653,6.46107 48.88653,5.15515 L48.88653,5.15515 Z M49.2261,12.49402 C49.2261,11.1881 48.31211,10.09085 46.56267,10.09085 L41.54766,10.09085 L41.54766,14.92183 L46.56267,14.92183 C48.23357,14.9226 49.2261,14.00861 49.2261,12.49402 L49.2261,12.49402 Z" id="Shape"></path>
                            </g>
                            <polygon id="Shape" fill="#00462D" points="59.48558 21.86107 56.37555 18.75104 75.12659 0 93.87763 18.75104 90.7676 21.86107 75.12659 6.22006"></polygon>
                            <polygon id="Shape" fill="#00462D" points="75.12659 38.79722 62.34998 26.02061 63.64589 24.7247 75.12659 36.2054 86.60806 24.7247 87.9032 26.02061"></polygon>
                        </g>
                    </g>
                </g>
            </g>
        </g>
    </g>
</svg>