<?xml version="1.0" encoding="UTF-8"?>
<svg width="154px" height="150px" viewBox="0 0 154 150" version="1.1" xmlns="http://www.w3.org/2000/svg" xmlns:xlink="http://www.w3.org/1999/xlink">
    <!-- Generator: Sketch 40.2 (33826) - http://www.bohemiancoding.com/sketch -->
    <title>500k_ipa</title>
    <desc>Created with Sketch.</desc>
    <defs>
        <radialGradient cx="23.96975%" cy="49.8830208%" fx="23.96975%" fy="49.8830208%" r="23.95665%" id="radialGradient-1">
            <stop stop-color="#ADD141" offset="44.79%"></stop>
            <stop stop-color="#4E7737" offset="100%"></stop>
        </radialGradient>
        <radialGradient cx="50.0008751%" cy="50.0012579%" fx="50.0008751%" fy="50.0012579%" r="49.9728416%" id="radialGradient-2">
            <stop stop-color="#ADD141" offset="44.79%"></stop>
            <stop stop-color="#4E7737" offset="100%"></stop>
        </radialGradient>
    </defs>
    <g id="Page-1" stroke="none" stroke-width="1" fill="none" fill-rule="evenodd">
        <g id="Our-partners" transform="translate(-376.000000, -2605.000000)">
            <g id="Content" transform="translate(376.000000, 150.000000)">
                <g id="Support-of-$500k+" transform="translate(0.000000, 2211.000000)">
                    <g id="500k_ipa" transform="translate(0.000000, 244.000000)">
                        <rect id="Rectangle-2" fill="#FFFFFF" x="0" y="0" width="154" height="150"></rect>
                        <g id="Layer_1" transform="translate(0.000000, 38.000000)">
                            <g id="Group">
                                <path d="M141.948925,47.1247662 L141.948925,27.1193234 C141.948925,22.5767065 141.165134,19.4967065 139.599085,17.8785572 C138.032269,16.2619403 135.020458,15.4536318 130.563652,15.4536318 C126.461582,15.4536318 123.706438,16.1133035 122.297453,17.4318806 C120.929841,18.7129154 120.229562,20.6566866 120.189721,24.2745373 C120.188955,24.3021194 120.181294,24.3281692 120.181294,24.3557512 C120.181294,24.3779701 120.187423,24.3986567 120.187423,24.4193433 C120.187423,24.4806368 120.185124,24.5388657 120.185124,24.6001592 L120.205045,24.599393 C120.328398,25.6620697 121.220219,26.4902985 122.315841,26.4902985 C123.486547,26.4902985 124.434299,25.5471443 124.448856,24.3795025 L124.451154,24.3795025 C124.451154,24.3733731 124.450388,24.36801 124.450388,24.3618806 L124.451154,24.3549851 C124.451154,24.3503881 124.449622,24.3450249 124.449622,24.3396617 C124.432,23.8822587 124.422806,23.5719602 124.422806,23.4156617 C124.422806,19.544209 127.668299,19.2032637 131.263164,19.2032637 C134.097224,19.2032637 135.934498,19.7602687 136.774219,20.8719801 C137.613174,21.9852239 138.033035,24.4231741 138.033035,28.1850647 L138.033035,32.176806 L137.948756,32.2112836 C137.017095,29.9403582 134.200657,28.8033632 129.501741,28.8033632 C125.547542,28.8033632 122.815383,29.5618706 121.304498,31.0742886 C119.795144,32.5897711 119.038935,35.3311244 119.038935,39.3006468 C119.038935,45.9762786 122.414677,49.3152438 129.166159,49.3152438 C133.734826,49.3152438 136.748169,47.8687164 137.844557,45.8238109 L137.688259,46.9539104 L137.707413,46.9546766 C137.699751,47.028995 137.685194,47.1002488 137.685194,47.1753333 C137.685194,48.3544677 138.641373,49.3106468 139.820507,49.3106468 C140.999642,49.3106468 141.955821,48.3544677 141.955821,47.1753333 C141.953522,47.16001 141.948925,47.1423881 141.948925,47.1247662 L141.948925,47.1247662 L141.948925,47.1247662 Z M129.947652,45.3250348 C127.206299,45.3250348 125.387413,44.8952139 124.492527,44.034806 C123.597642,43.174398 123.149433,41.4137413 123.149433,38.7513035 C123.149433,36.1823383 123.601473,34.5074925 124.506318,33.7275323 C125.411164,32.9475721 127.364129,32.557592 130.366746,32.557592 C133.462836,32.557592 135.546816,33.0042687 136.619453,33.8991542 C137.690557,34.7932736 138.227642,36.5378408 138.227642,39.1305572 C138.228408,43.2594428 135.467134,45.3250348 129.947652,45.3250348 L129.947652,45.3250348 L129.947652,45.3250348 Z" id="Shape" fill="#000000"></path>
                                <path d="M100.228716,52.935393 L99.7038905,52.935393 L99.7038905,58.375194 L100.228716,58.375194 L100.228716,52.935393 L100.228716,52.935393 L100.228716,52.935393 Z M101.5381,53.8670547 L101.535035,53.6601891 L101.53197,53.4571542 L101.545761,53.4571542 L101.70206,53.759791 L101.859124,54.063194 L102.176318,54.6722985 L104.12392,58.3744279 L104.985861,58.3744279 L104.985861,52.9346269 L104.460269,52.9346269 L104.460269,57.4695821 L104.4641,57.6772139 L104.467164,57.8802488 L104.453373,57.8802488 L104.235781,57.4534925 L104.014358,57.0313333 L103.570746,56.1785871 L101.871383,52.9346269 L101.013274,52.9346269 L101.013274,58.3744279 L101.5381,58.3744279 L101.5381,53.8670547 L101.5381,53.8670547 L101.5381,53.8670547 Z M106.309801,53.8670547 L106.306736,53.6601891 L106.303672,53.4571542 L106.317463,53.4571542 L106.473761,53.759791 L106.63006,54.063194 L106.947254,54.6722985 L108.895622,58.3744279 L109.757562,58.3744279 L109.757562,52.9346269 L109.232736,52.9346269 L109.232736,57.4695821 L109.235801,57.6772139 L109.238866,57.8802488 L109.225075,57.8802488 L109.006716,57.4534925 L108.785294,57.0313333 L108.342448,56.1785871 L106.642318,52.9346269 L105.784209,52.9346269 L105.784209,58.3744279 L106.308269,58.3744279 L106.308269,53.8670547 L106.309801,53.8670547 L106.309801,53.8670547 Z M114.143881,57.9760199 C114.355343,57.6733831 114.461075,56.8742687 114.461075,55.5809751 C114.461075,54.3803881 114.351512,53.6295423 114.130856,53.329204 C113.910965,53.0296318 113.361622,52.8794627 112.48206,52.8794627 C111.721254,52.8794627 111.202557,53.0112438 110.923672,53.2755721 C110.645552,53.5406667 110.506109,54.0340796 110.506109,54.7565771 L110.49998,55.2706766 L110.49998,55.652995 C110.49998,56.9041493 110.607244,57.6802786 110.821005,57.9806169 C111.036299,58.2809552 111.589473,58.4311244 112.48206,58.4311244 C113.379244,58.4311244 113.93395,58.2786567 114.143881,57.9760199 L114.143881,57.9760199 L114.143881,57.9760199 Z M113.960766,55.652995 C113.960766,56.776199 113.89794,57.4343383 113.773055,57.6258806 C113.648935,57.8174229 113.216816,57.913194 112.479761,57.913194 C111.743473,57.913194 111.313652,57.8174229 111.188,57.6258806 C111.063114,57.4343383 111.001055,56.7769652 111.001055,55.652995 C111.001055,54.5320896 111.063881,53.8762488 111.188,53.6847065 C111.312886,53.4931642 111.743473,53.397393 112.479761,53.397393 C113.119512,53.397393 113.526348,53.478607 113.698736,53.6402687 C113.871124,53.8019303 113.957701,54.1834826 113.957701,54.7849254 L113.960766,55.2982587 L113.960766,55.652995 L113.960766,55.652995 L113.960766,55.652995 Z M118.780736,52.935393 L118.219134,52.935393 L116.999393,57.0512537 C116.915114,57.3362687 116.84003,57.6120896 116.771841,57.8810149 L116.75805,57.8810149 C116.728935,57.7645572 116.691393,57.6251144 116.645423,57.4626866 L116.522836,57.0443582 L115.283174,52.9361592 L114.724637,52.9361592 L116.386458,58.3759602 L117.135771,58.3759602 L118.780736,52.935393 L118.780736,52.935393 L118.780736,52.935393 Z M118.627502,58.3744279 L118.985303,57.2228756 L121.339741,57.2228756 L121.700607,58.3744279 L122.249184,58.3744279 L120.512279,52.9346269 L119.776756,52.9346269 L118.072796,58.3744279 L118.627502,58.3744279 L118.627502,58.3744279 L118.627502,58.3744279 Z M120.153711,53.4372338 L121.185741,56.7608756 L119.134706,56.7608756 L120.153711,53.4372338 L120.153711,53.4372338 L120.153711,53.4372338 Z M122.843731,58.3744279 L123.368557,58.3744279 L123.368557,53.5046567 L124.870249,53.5046567 L124.870249,52.9346269 L121.328249,52.9346269 L121.328249,53.5046567 L122.843731,53.5046567 L122.843731,58.3744279 L122.843731,58.3744279 L122.843731,58.3744279 Z M126.001114,52.935393 L125.477055,52.935393 L125.477055,58.375194 L126.001114,58.375194 L126.001114,52.935393 L126.001114,52.935393 L126.001114,52.935393 Z M128.737104,52.8794627 C127.976299,52.8794627 127.456836,53.0112438 127.17795,53.2755721 C126.899831,53.5406667 126.761154,54.0340796 126.761154,54.7565771 L126.754259,55.2706766 L126.754259,55.652995 C126.754259,56.9041493 126.861522,57.6802786 127.07605,57.9806169 C127.291343,58.2809552 127.843751,58.4311244 128.737104,58.4311244 C129.633522,58.4311244 130.188229,58.2794229 130.398925,57.9767861 C130.609622,57.6741493 130.716119,56.8750348 130.716119,55.5817413 C130.716119,54.3811542 130.605791,53.6303085 130.385134,53.3299701 C130.165244,53.0296318 129.6159,52.8794627 128.737104,52.8794627 L128.737104,52.8794627 L128.737104,52.8794627 Z M130.215045,55.652995 C130.215045,56.776199 130.152985,57.4343383 130.027333,57.6258806 C129.902448,57.8174229 129.471095,57.913194 128.733274,57.913194 C127.997751,57.913194 127.567164,57.8174229 127.442279,57.6258806 C127.317393,57.4343383 127.254567,56.7769652 127.254567,55.652995 C127.254567,54.5320896 127.317393,53.8762488 127.442279,53.6847065 C127.567164,53.4931642 127.997751,53.397393 128.733274,53.397393 C129.373025,53.397393 129.779861,53.478607 129.953015,53.6402687 C130.125403,53.8019303 130.21198,54.1834826 130.21198,54.7849254 L130.214279,55.2982587 L130.214279,55.652995 L130.215045,55.652995 L130.215045,55.652995 Z M131.979532,53.8670547 L131.976468,53.6601891 L131.972637,53.4571542 L131.986428,53.4571542 L132.142726,53.759791 L132.299791,54.063194 L132.616985,54.6722985 L134.565353,58.3744279 L135.427294,58.3744279 L135.427294,52.9346269 L134.902468,52.9346269 L134.902468,57.4695821 L134.905532,57.6772139 L134.908597,57.8802488 L134.894806,57.8802488 L134.677214,57.4534925 L134.455791,57.0313333 L134.012179,56.1785871 L132.312816,52.9346269 L131.45394,52.9346269 L131.45394,58.3744279 L131.978766,58.3744279 L131.978766,53.8670547 L131.979532,53.8670547 L131.979532,53.8670547 Z M139.430527,55.6407363 C139.233622,55.4629851 138.77392,55.3557214 138.049124,55.3181791 C137.431592,55.2837015 137.06,55.2185771 136.935114,55.1235721 C136.810229,55.027801 136.748169,54.760408 136.748169,54.3221592 C136.748169,53.9321791 136.827851,53.6801095 136.986448,53.5674826 C137.145811,53.4548557 137.499015,53.3981592 138.049124,53.3981592 C138.512657,53.3981592 138.806866,53.4571542 138.931751,53.5751443 C139.056637,53.6931343 139.119463,53.9720199 139.119463,54.4102687 L139.640458,54.4102687 C139.640458,53.7751144 139.535493,53.3606169 139.323264,53.1683085 C139.112567,52.9752338 138.658995,52.8794627 137.96408,52.8794627 C137.278358,52.8794627 136.820955,52.9828955 136.591104,53.1905274 C136.361254,53.3981592 136.247095,53.8111244 136.247095,54.4301891 C136.247095,55.3227761 136.641672,55.8008657 137.428527,55.8652239 L137.947224,55.897403 L138.49197,55.9295821 C138.792308,55.9510348 138.988448,56.0169254 139.082687,56.1272537 C139.177692,56.2375821 139.224428,56.459005 139.224428,56.7907562 C139.224428,57.3033234 139.154706,57.6197512 139.01603,57.7369751 C138.878119,57.8557313 138.507294,57.9139602 137.905851,57.9139602 C137.381025,57.9139602 137.055403,57.8549652 136.928985,57.7369751 C136.801801,57.6189851 136.737443,57.3171144 136.737443,56.830597 L136.737443,56.6949851 L136.216448,56.6949851 L136.219512,56.9378607 C136.219512,57.5385373 136.330607,57.9377114 136.55203,58.1353831 C136.773453,58.3330547 137.219363,58.4326567 137.888995,58.4326567 C138.660527,58.4326567 139.16007,58.3345871 139.38609,58.1369154 C139.612109,57.9407761 139.724736,57.5071244 139.724736,56.8382587 C139.725502,56.2176617 139.626667,55.8192537 139.430527,55.6407363 L139.430527,55.6407363 L139.430527,55.6407363 Z M142.456129,58.3744279 L142.980189,58.3744279 L142.980189,55.8713532 L145.245751,55.8713532 L145.245751,55.3534229 L142.980189,55.3534229 L142.980189,53.4525572 L145.307045,53.4525572 L145.307045,52.9346269 L142.456129,52.9346269 L142.456129,58.3744279 L142.456129,58.3744279 L142.456129,58.3744279 Z M147.705154,52.8794627 C146.944348,52.8794627 146.424886,53.0112438 146.146766,53.2755721 C145.868647,53.5406667 145.729204,54.0340796 145.729204,54.7565771 L145.722308,55.2706766 L145.722308,55.652995 C145.722308,56.9041493 145.829572,57.6802786 146.0441,57.9806169 C146.258627,58.2809552 146.811801,58.4311244 147.705154,58.4311244 C148.601572,58.4311244 149.156279,58.2794229 149.366209,57.9767861 C149.577672,57.6741493 149.684169,56.8750348 149.684169,55.5817413 C149.684169,54.3811542 149.573841,53.6303085 149.35395,53.3299701 C149.133294,53.0296318 148.58395,52.8794627 147.705154,52.8794627 L147.705154,52.8794627 L147.705154,52.8794627 Z M149.183095,55.652995 C149.183095,56.776199 149.121035,57.4343383 148.996149,57.6258806 C148.871264,57.8174229 148.439144,57.913194 147.701323,57.913194 C146.966567,57.913194 146.535214,57.8174229 146.410328,57.6258806 C146.286209,57.4343383 146.222617,56.7769652 146.222617,55.652995 C146.222617,54.5320896 146.286209,53.8762488 146.410328,53.6847065 C146.535214,53.4931642 146.966567,53.397393 147.701323,53.397393 C148.341075,53.397393 148.74791,53.478607 148.921065,53.6402687 C149.093453,53.8019303 149.18003,54.1834826 149.18003,54.7849254 L149.183095,55.2982587 L149.183095,55.652995 L149.183095,55.652995 L149.183095,55.652995 Z M150.947582,56.1709254 L152.705174,56.1709254 C153.174836,56.1709254 153.410816,56.4881194 153.410816,57.1240398 L153.410816,58.375194 L153.935642,58.375194 L153.935642,56.984597 C153.935642,56.3256915 153.689701,55.9755522 153.196289,55.9326468 L153.196289,55.9203881 C153.509652,55.8621592 153.721881,55.734209 153.832975,55.5357711 C153.94407,55.3373333 154,54.9879602 154,54.4853532 C154,53.913791 153.897333,53.5130846 153.693532,53.2817015 C153.489731,53.0510846 153.137294,52.935393 152.637751,52.935393 L150.423522,52.935393 L150.423522,58.375194 L150.947582,58.375194 L150.947582,56.1709254 L150.947582,56.1709254 L150.947582,56.1709254 Z M150.947582,53.4533234 L152.644647,53.4533234 C152.998617,53.4533234 153.23,53.5276418 153.33803,53.6770448 C153.445294,53.8256816 153.499692,54.1459403 153.499692,54.6378209 C153.499692,55.0308657 153.426905,55.2982587 153.281333,55.4407662 C153.135761,55.5832736 152.863771,55.6537612 152.464597,55.6537612 L150.947582,55.6537612 L150.947582,53.4533234 L150.947582,53.4533234 L150.947582,53.4533234 Z M101.833841,60.9970249 L99.7046567,60.9970249 L99.7046567,66.4368259 L100.229483,66.4368259 L100.229483,64.2923184 L101.571045,64.2923184 L101.775612,64.2884876 C102.322657,64.2884876 102.695781,64.1758607 102.894219,63.9498408 C103.092657,63.7245871 103.192259,63.3008955 103.192259,62.678 C103.192259,62.0298209 103.096488,61.5885075 102.905711,61.350995 C102.715701,61.1157811 102.3579,60.9970249 101.833841,60.9970249 L101.833841,60.9970249 L101.833841,60.9970249 Z M102.47206,63.5874428 C102.325721,63.7123284 101.992438,63.7751542 101.472209,63.7751542 L100.228716,63.7751542 L100.228716,61.5157214 L101.638468,61.5157214 L101.839204,61.5195522 C102.21003,61.5195522 102.444478,61.5892736 102.543313,61.7279502 C102.641383,61.8681592 102.691184,62.2006766 102.691184,62.7255025 C102.69195,63.17601 102.619164,63.4633234 102.47206,63.5874428 L102.47206,63.5874428 L102.47206,63.5874428 Z M105.658557,60.9418607 C104.897751,60.9418607 104.378289,61.074408 104.100169,61.3387363 C103.82205,61.6030647 103.683373,62.0964776 103.683373,62.8189751 L103.676478,63.3330746 L103.676478,63.715393 C103.676478,64.9673134 103.783741,65.7426766 103.998269,66.0430149 C104.213562,66.3433532 104.76597,66.4935224 105.659323,66.4935224 C106.555741,66.4935224 107.110448,66.3418209 107.321144,66.0384179 C107.531841,65.7357811 107.638338,64.9374328 107.638338,63.6433731 C107.638338,62.4427861 107.52801,61.6919403 107.308119,61.391602 C107.086697,61.0912637 106.537353,60.9418607 105.658557,60.9418607 L105.658557,60.9418607 L105.658557,60.9418607 Z M107.136498,63.7146269 C107.136498,64.8378308 107.074438,65.4959701 106.949552,65.6875124 C106.824667,65.8790547 106.393313,65.9740597 105.655493,65.9740597 C104.91997,65.9740597 104.490149,65.8790547 104.364498,65.6875124 C104.240378,65.4959701 104.176786,64.8378308 104.176786,63.7146269 C104.176786,62.5937214 104.240378,61.9378806 104.364498,61.7471045 C104.490149,61.5555622 104.91997,61.459791 105.655493,61.459791 C106.29601,61.459791 106.70208,61.541005 106.875234,61.7026667 C107.047622,61.8643284 107.134199,62.2458806 107.134199,62.8473234 L107.136498,63.3606567 L107.136498,63.7146269 L107.136498,63.7146269 L107.136498,63.7146269 Z M110.175124,65.1128856 C110.090846,65.3979005 110.014995,65.6737214 109.946806,65.9426468 L109.933015,65.9426468 C109.903134,65.8254229 109.865592,65.6859801 109.820388,65.5243184 L109.697801,65.10599 L108.458139,60.997791 L107.899602,60.997791 L109.561423,66.437592 L110.310736,66.437592 L111.955701,60.997791 L111.3941,60.997791 L110.175124,65.1128856 L110.175124,65.1128856 L110.175124,65.1128856 Z M112.606945,66.4368259 L115.594239,66.4368259 L115.594239,65.9188955 L113.131771,65.9188955 L113.131771,63.8862488 L115.492338,63.8862488 L115.492338,63.3683184 L113.131771,63.3683184 L113.131771,61.5157214 L115.594239,61.5157214 L115.594239,60.997791 L112.606945,60.997791 L112.606945,66.4368259 L112.606945,66.4368259 L112.606945,66.4368259 Z M119.817363,63.597403 C119.929224,63.3997313 119.985154,63.049592 119.985154,62.5477512 C119.985154,61.9761891 119.882488,61.5747164 119.678687,61.3440995 C119.474119,61.1127164 119.121682,60.997791 118.622139,60.997791 L116.40791,60.997791 L116.40791,66.437592 L116.932736,66.437592 L116.932736,64.2333234 L118.689562,64.2333234 C119.159224,64.2333234 119.394438,64.5512836 119.394438,65.1864378 L119.394438,66.437592 L119.919264,66.437592 L119.919264,65.046995 C119.919264,64.3880896 119.673323,64.0379502 119.180677,63.9950448 L119.180677,63.9827861 C119.493274,63.923791 119.707035,63.7958408 119.817363,63.597403 L119.817363,63.597403 L119.817363,63.597403 Z M118.448985,63.7146269 L116.932736,63.7146269 L116.932736,61.5157214 L118.629035,61.5157214 C118.983005,61.5157214 119.214388,61.5892736 119.322418,61.7394428 C119.429682,61.8880796 119.483313,62.2075721 119.483313,62.6994527 C119.483313,63.0924975 119.410527,63.3598905 119.265721,63.502398 C119.120915,63.6441393 118.848159,63.7146269 118.448985,63.7146269 L118.448985,63.7146269 L118.448985,63.7146269 Z M120.475502,61.5670547 L121.990985,61.5670547 L121.990985,66.4368259 L122.515811,66.4368259 L122.515811,61.5670547 L124.017502,61.5670547 L124.017502,60.9970249 L120.475502,60.9970249 L120.475502,61.5670547 L120.475502,61.5670547 L120.475502,61.5670547 Z M127.045403,62.8342985 L126.850796,63.1882687 L126.758856,63.3637214 C126.738169,63.4035622 126.707522,63.4625572 126.666149,63.543005 L126.652358,63.543005 L126.560418,63.3637214 C126.522109,63.289403 126.48993,63.2311741 126.464647,63.1882687 L126.273871,62.8342985 L125.276318,60.9970249 L124.666448,60.9970249 L126.379602,64.1651343 L126.379602,66.4368259 L126.904428,66.4368259 L126.904428,64.1651343 L128.66202,60.9970249 L128.039124,60.9970249 L127.045403,62.8342985 L127.045403,62.8342985 L127.045403,62.8342985 Z M132.639204,60.9970249 L130.93601,66.4368259 L131.491483,66.4368259 L131.849284,65.2852736 L134.202955,65.2852736 L134.563821,66.4368259 L135.112398,66.4368259 L133.375493,60.9970249 L132.639204,60.9970249 L132.639204,60.9970249 L132.639204,60.9970249 Z M131.999453,64.8232736 L133.017692,61.4988657 L134.049721,64.8232736 L131.999453,64.8232736 L131.999453,64.8232736 L131.999453,64.8232736 Z M138.611493,64.942796 C138.611493,65.4024975 138.534109,65.6890448 138.381642,65.803204 C138.228408,65.9181294 137.842259,65.9748259 137.225493,65.9748259 C136.575015,65.9748259 136.195761,65.8438109 136.0839,65.5810149 C135.97204,65.3174527 135.916876,64.4225672 135.916876,62.8948259 C135.916876,62.2305572 135.999622,61.8252537 136.165881,61.6796816 C136.332139,61.5333433 136.788776,61.459791 137.538856,61.459791 C137.965612,61.459791 138.239134,61.5226169 138.360189,61.6475025 C138.48201,61.7731542 138.542537,62.0543383 138.542537,62.4925871 L138.545602,62.6603781 L139.066597,62.6603781 L139.063532,62.5132736 C139.063532,61.8965075 138.960866,61.4812438 138.755532,61.2659502 C138.549433,61.0506567 138.150259,60.943393 137.55801,60.943393 C136.683045,60.943393 136.115313,61.0552537 135.850985,61.278209 C135.626498,61.4697512 135.489353,61.6865771 135.441851,61.9294527 C135.394348,62.1723284 135.370597,62.7661095 135.370597,63.7084975 C135.370597,64.9152139 135.475562,65.6806169 135.687791,66.0062388 C135.898488,66.3310945 136.394199,66.4950547 137.172627,66.4950547 C138.042229,66.4950547 138.585443,66.4023483 138.800736,66.2177015 C139.016796,66.0330547 139.12406,65.5702886 139.12406,64.829403 L139.12406,64.6225373 L138.602299,64.6225373 L138.611493,64.942796 L138.611493,64.942796 L138.611493,64.942796 Z M139.438955,61.5670547 L140.954438,61.5670547 L140.954438,66.4368259 L141.48003,66.4368259 L141.48003,61.5670547 L142.981721,61.5670547 L142.981721,60.9970249 L139.439721,60.9970249 L139.439721,61.5670547 L139.438955,61.5670547 L139.438955,61.5670547 Z M143.587761,66.4368259 L144.112587,66.4368259 L144.112587,60.9970249 L143.587761,60.9970249 L143.587761,66.4368259 L143.587761,66.4368259 L143.587761,66.4368259 Z M147.310577,60.9418607 C146.549771,60.9418607 146.029542,61.074408 145.752189,61.3387363 C145.47407,61.6030647 145.335393,62.0964776 145.335393,62.8189751 L145.328498,63.3330746 L145.328498,63.715393 C145.328498,64.9673134 145.435761,65.7426766 145.650289,66.0430149 C145.864816,66.3433532 146.41799,66.4935224 147.311343,66.4935224 C148.207761,66.4935224 148.763234,66.3418209 148.973164,66.0384179 C149.183861,65.7357811 149.290358,64.9374328 149.290358,63.6433731 C149.290358,62.4427861 149.18003,61.6919403 148.959373,61.391602 C148.73795,61.0912637 148.189373,60.9418607 147.310577,60.9418607 L147.310577,60.9418607 L147.310577,60.9418607 Z M148.787751,63.7146269 C148.787751,64.8378308 148.725692,65.4959701 148.60004,65.6875124 C148.475154,65.8790547 148.043801,65.9740597 147.30598,65.9740597 C146.570458,65.9740597 146.140637,65.8790547 146.014985,65.6875124 C145.889333,65.4959701 145.827274,64.8378308 145.827274,63.7146269 C145.827274,62.5937214 145.8901,61.9378806 146.014985,61.7471045 C146.139871,61.5555622 146.570458,61.459791 147.30598,61.459791 C147.945731,61.459791 148.352567,61.541005 148.524955,61.7026667 C148.697343,61.8643284 148.784687,62.2458806 148.784687,62.8473234 L148.786985,63.3606567 L148.786985,63.7146269 L148.787751,63.7146269 L148.787751,63.7146269 Z M153.475174,65.5327463 L153.479005,65.7403781 L153.481303,65.9434129 L153.467512,65.9434129 L153.249154,65.5174229 L153.027731,65.0944975 L152.584886,64.2417512 L150.885522,60.997791 L150.026647,60.997791 L150.026647,66.437592 L150.551473,66.437592 L150.551473,61.9294527 L150.548408,61.7225871 L150.544577,61.5187861 L150.558368,61.5187861 L150.715433,61.8214229 L150.872498,62.1248259 L151.189692,62.7346965 L153.137294,66.4368259 L154,66.4368259 L154,60.9970249 L153.475174,60.9970249 L153.475174,65.5327463 L153.475174,65.5327463 L153.475174,65.5327463 Z" id="Shape" fill="#000000"></path>
                                <path d="M85.225592,8.72743284 C86.4047264,8.72743284 87.3609055,7.77125373 87.3609055,6.5921194 C87.3609055,5.41298507 86.4047264,4.45680597 85.225592,4.45680597 C84.0464577,4.45680597 83.0902786,5.41298507 83.0902786,6.5921194 C83.0902786,7.77125373 84.0464577,8.72743284 85.225592,8.72743284 L85.225592,8.72743284 L85.225592,8.72743284 Z M87.3555423,17.5345473 C87.3287264,16.3799303 86.3871045,15.449801 85.225592,15.449801 C84.0464577,15.449801 83.0902786,16.4059801 83.0902786,17.5851144 C83.0902786,17.6088657 83.0971741,17.6310846 83.0979403,17.6548358 L83.0979403,47.1002488 C83.0971741,47.124 83.0902786,47.1462189 83.0902786,47.1699701 C83.0902786,47.1937214 83.0971741,47.2167065 83.0979403,47.2404577 L83.0979403,47.2757015 L83.101005,47.2757015 C83.1577015,48.4050348 84.0824677,49.3045174 85.2248259,49.3045174 C86.3671841,49.3045174 87.2927164,48.4042687 87.3486468,47.2757015 L87.3616716,47.2757015 L87.3616716,17.5345473 L87.3555423,17.5345473 L87.3555423,17.5345473 L87.3555423,17.5345473 Z" id="Shape" fill="#000000"></path>
                                <path d="M112.998458,19.1703184 C111.469184,16.6932935 108.671134,15.4536318 104.600478,15.4536318 C99.9942687,15.4536318 96.9947164,17.0357711 95.5995224,20.3977214 L95.937403,17.6839502 L95.9266766,17.6839502 C95.9289751,17.6502388 95.937403,17.6180597 95.937403,17.5843483 C95.937403,16.4052139 94.9812239,15.4490348 93.8020896,15.4490348 C92.6229552,15.4490348 91.6667761,16.4052139 91.6667761,17.5843483 C91.6667761,17.5989055 91.670607,17.6126965 91.6713731,17.6272537 L91.6713731,31.0980398 C91.670607,31.121791 91.6644776,31.1447761 91.6644776,31.1685274 C91.6644776,31.1922786 91.670607,31.2144975 91.6713731,31.2382488 L91.6713731,59.5696517 C91.670607,59.593403 91.6644776,59.6163881 91.6644776,59.6393731 C91.6644776,59.6638905 91.670607,59.6861095 91.6713731,59.7098607 L91.6713731,59.7458706 L91.675204,59.7458706 C91.7319005,60.8744378 92.6566667,61.7746866 93.7990249,61.7746866 C94.9413831,61.7746866 95.8661493,60.8744378 95.9228458,59.7458706 L95.9366368,59.7458706 L95.9366368,45.2484179 C97.441393,47.9591244 100.363562,49.3183085 104.713871,49.3183085 C108.670368,49.3183085 111.421682,48.1200199 112.969343,45.7219104 C114.517771,43.3245672 115.290836,39.0401493 115.290836,32.8686567 C115.291602,26.2129453 114.526965,21.6488756 112.998458,19.1703184 L112.998458,19.1703184 L112.998458,19.1703184 Z M109.630378,42.8817214 C108.665771,44.5113632 106.672965,45.3250348 103.654259,45.3250348 C100.482318,45.3250348 98.36999,44.4822488 97.3195721,42.7951443 C96.2683881,41.1095721 95.742796,37.7315323 95.742796,32.6602587 C95.742796,27.1775522 96.2300796,23.6041393 97.2038806,21.9400199 C98.1792139,20.2766667 100.271622,19.4453731 103.482637,19.4453731 C106.672965,19.4453731 108.737025,20.2713035 109.67405,21.9231642 C110.609542,23.5742587 111.078438,27.2005373 111.078438,32.7981692 C111.078438,37.8924279 110.594985,41.2528458 109.630378,42.8817214 L109.630378,42.8817214 L109.630378,42.8817214 Z" id="Shape" fill="#000000"></path>
                                <g id="SVGID_1_-link" fill="url(#radialGradient-2)">
                                    <path d="M74.2249353,35.1886169 L74.1605771,34.5404378 C74.1582786,34.5143881 73.8862886,31.8879602 72.6841692,28.1398607 L72.6527562,28.0433234 L70.6729751,28.0433234 L70.744995,28.231801 C71.4445075,30.0637114 72.1041791,31.9737711 72.7063881,33.9098806 L73.1032637,35.1870846 L72.9776119,33.8554826 C72.8496617,32.4993632 72.6313035,31.3547065 72.325602,30.4475622 L72.57001,30.5088557 L72.9301095,31.7684378 L73.5047363,33.9213731 L74.2249353,35.1886169 L74.2249353,35.1886169 L74.2249353,35.1886169 Z M70.5036517,27.6035423 L72.5087164,27.6035423 L72.4458905,27.4196617 C72.226,26.7745473 71.9746965,26.0949552 71.6988756,25.4000398 L71.6636318,25.3119303 L69.5727562,25.3119303 L69.6539701,25.505005 C69.9175323,26.1317313 70.1918209,26.8082587 70.468408,27.5154328 L70.5036517,27.6035423 L70.5036517,27.6035423 L70.5036517,27.6035423 Z M69.3835124,24.8729154 L71.4858806,24.8729154 L71.4054328,24.680607 C71.1548955,24.1067463 70.8951642,23.5443781 70.6308358,22.9873731 L68.4870945,22.9873731 L69.3835124,24.8729154 L69.3835124,24.8729154 L69.3835124,24.8729154 Z M68.3706368,22.6625174 L70.477602,22.6625174 C65.0232438,11.3393035 56.6919204,3.58260697 43.7390647,1.1201393 C43.7390647,1.1201393 43.2548458,0.995253731 43.2724677,1.08412935 C43.2900896,1.17453731 43.4877612,1.38906468 43.595791,1.47870647 C43.7030547,1.56911443 44.2056617,1.74839801 44.2056617,1.74839801 C44.2056617,1.74839801 45.2997512,2.53755224 45.3533831,2.59118408 C45.4070149,2.64558209 46.1785473,3.00414925 46.249801,3.12903483 C46.3218209,3.25545274 46.3754527,3.6140199 46.3218209,3.63164179 C46.2681891,3.65002985 45.7479602,3.59563184 45.6399303,3.50675622 C45.5326667,3.41634826 44.8331542,2.93212935 44.6891144,2.89688557 C44.5458408,2.86087562 43.7206766,2.35826866 43.6670448,2.3398806 C43.6134129,2.32225871 42.5729552,1.73000995 42.5729552,1.73000995 L42.2680199,1.73000995 C42.2680199,1.73000995 42.196,1.89167164 42.3032637,1.96369154 C42.4112935,2.03494527 42.7874826,2.3398806 42.8418806,2.37589055 C42.8962786,2.4119005 43.2004478,2.73445771 43.2004478,2.73445771 C43.2004478,2.73445771 42.6802189,2.75284577 42.5905771,2.77046766 C42.5009353,2.78885572 41.6336318,3.00951244 41.5378607,3.05778109 C41.4420896,3.10604975 40.8674627,3.05778109 40.8437114,3.12903483 C40.8207264,3.20105473 40.4851443,3.48760199 40.4851443,3.48760199 L39.9365672,3.65539303 L39.4806965,3.91818905 L39.2416517,4.44531343 L38.8110647,4.49281592 L37.3277612,3.67991045 C37.3277612,3.67991045 38.5475025,3.77491542 38.6440398,3.77491542 C38.7390448,3.77491542 39.1458806,3.51288557 39.1458806,3.51288557 L38.8340498,3.32134328 C38.8340498,3.32134328 36.036,2.38891542 35.5341592,2.36439801 C35.0315522,2.3398806 33.9803682,2.4119005 33.8600796,2.48315423 C33.739791,2.55517413 32.186,3.77491542 31.3493433,4.37329353 C30.5119204,4.97090547 30.2483582,4.89965174 29.8660398,5.01917413 C29.4837214,5.13793035 29.0531343,5.25821891 29.0531343,5.33023881 C29.0531343,5.40225871 28.9811144,6.81277612 28.9811144,6.81277612 C28.9811144,6.81277612 29.5312239,6.81277612 29.6744975,6.83652736 C29.8185373,6.86027861 30.5356716,6.26266667 30.5356716,6.26266667 L30.99001,6.31016915 L31.1570348,6.88402985 L31.3968458,7.26711443 L31.4443483,7.84097512 L32.0427264,7.79347264 L32.8073632,7.650199 L32.8556318,6.52622886 L33.5965174,6.38295522 L33.5505473,6.04737313 C33.5505473,6.04737313 33.1919801,6.02285572 33.1444776,5.78457711 C33.096209,5.54553234 32.8334129,5.54553234 33.1207264,5.23446766 C33.4080398,4.92263682 34.4837413,4.11049751 34.4837413,4.11049751 C34.4837413,4.11049751 34.8423085,3.82318408 35.1296219,3.89520398 C35.4169353,3.96722388 35.3931841,4.13348259 35.225393,4.25377114 C35.0583682,4.37329353 34.5557612,4.82839801 34.5557612,4.82839801 C34.5557612,4.82839801 34.2676816,5.09119403 34.3879701,5.30648756 C34.5082587,5.52178109 34.8430746,5.78534328 34.8430746,5.78534328 L35.2261592,5.92861692 L37.0197612,5.47427861 L37.3070746,6.02438806 L37.1867861,6.35920398 L35.1778905,6.43122388 L35.4889552,6.7660398 L35.9195423,7.00508458 L35.8720398,7.3399005 L34.9135622,6.979801 L34.6737512,7.21884577 C34.6737512,7.21884577 34.6507662,7.60116418 34.6982687,7.72145274 C34.7457711,7.84097512 34.6982687,8.39108458 34.6982687,8.39108458 C34.6982687,8.39108458 34.2914328,8.55810945 34.1236418,8.60637811 C33.9558507,8.6538806 33.4777612,8.36733333 33.4065075,8.36733333 C33.3344876,8.36733333 32.1147463,8.84542289 32.1147463,8.84542289 L31.5408856,8.7979204 L31.4213632,8.58262687 L31.0382786,8.63012935 L30.7754826,8.94119403 C30.7754826,8.94119403 30.3678806,8.94119403 30.224607,8.70214925 C30.0805672,8.46310448 29.8660398,8.36733333 30.0338308,8.1520398 C30.2016219,7.93674627 30.2966269,7.69693532 30.3211443,7.5781791 C30.3448955,7.45865672 30.3448955,7.21961194 30.3448955,7.21961194 C30.3448955,7.21961194 29.8430547,7.19509453 29.7947861,7.43490547 C29.7472836,7.67395025 29.5794925,8.1520398 29.5794925,8.27156219 C29.5794925,8.39108458 29.5557413,8.7259005 29.5557413,8.82167164 C29.5557413,8.91744279 28.1927264,9.01321393 28.1927264,9.01321393 C28.1927264,9.01321393 26.8534627,10.1371841 26.3991244,10.4237313 C25.9447861,10.7110448 25.3709254,11.1416318 25.3709254,11.1416318 L24.5097512,11.2856716 C24.5097512,11.2856716 24.3419602,11.1178806 24.2707065,11.1416318 C24.1986866,11.1653831 24.0316617,11.500199 24.0079104,11.5959701 C23.983393,11.6917413 23.5290547,11.5959701 23.3857811,11.6197214 C23.2417413,11.6434726 22.6916318,11.6672239 22.6916318,11.6672239 L22.5966269,12.3123383 L23.3620299,12.4801294 L23.6493433,12.9582189 L23.8646368,13.4248159 L22.932209,15.182408 L19.6315522,14.7518209 C19.6315522,14.7518209 18.878408,15.1103881 18.8063881,15.6842488 C18.7343682,16.2581095 18.7343682,16.7967264 18.7343682,16.7967264 L17.6218905,18.0524776 L17.7299204,18.5543184 L17.5506368,18.8768756 L17.5866468,19.1281791 L18.7703781,19.1641891 L18.878408,19.5947761 L19.6675622,19.6307861 L19.7395821,19.3794826 L21.4259204,19.2714527 L22.6456617,18.1229652 L22.6096517,17.4058308 L24.4032537,16.0788259 L24.8338408,16.0788259 L25.4077015,14.643791 L27.0220199,14.8950945 L28.9236517,14.1059403 C28.9236517,14.1059403 29.5335224,14.7158109 29.6055423,14.9311045 C29.676796,15.146398 30.60999,15.8995423 30.9685572,16.1508458 C31.3271244,16.4021493 32.1162786,16.6534527 32.2955622,16.90399 C32.4748458,17.1545274 32.797403,17.3345771 32.8694229,17.5138607 C32.9414428,17.6931443 32.6181194,18.0517114 32.5468657,18.1589751 C32.4756119,18.267005 32.0810348,18.5535522 31.7937214,18.5895622 C31.506408,18.6255721 30.4667164,18.4462886 30.4667164,18.4462886 L30.4667164,18.8408657 C30.4667164,18.8408657 30.68201,19.0561592 31.0045672,19.1281791 C31.3271244,19.200199 32.0810348,19.3074627 32.0810348,19.3074627 L32.1522886,18.8408657 L32.403592,18.6255721 L33.3360199,17.9436816 L32.9414428,16.8672139 L33.9458905,17.4058308 L33.9098806,16.8672139 L32.7261493,16.3653731 L32.2955622,15.7915124 L31.506408,15.7915124 L30.4307065,14.3204677 L30.4307065,13.4953035 C30.4307065,13.4953035 31.112597,13.1367363 31.112597,13.3512637 C31.112597,13.5665572 31.3639005,13.9611343 31.3639005,13.9611343 L31.9377612,13.9251244 L32.1530547,14.6070149 L34.8078308,15.8627662 L34.7718209,17.1177512 L35.9203085,18.3014826 L36.3148856,19.0546269 L36.8535025,19.5924776 L36.8895124,18.7313035 L37.4273632,18.7313035 L37.4273632,18.1214328 L36.8535025,17.7628657 L36.5309453,17.1882388 L36.3156517,16.722408 L37.104806,16.722408 L37.6426567,16.4350945 L38.5398408,16.5071144 L38.7911443,17.1162189 L39.0784577,17.6908458 C39.0784577,17.6908458 39.4010149,17.8701294 39.4010149,17.9781592 C39.4010149,18.0861891 39.5090448,18.8033234 39.5090448,18.8033234 L39.8676119,19.1618905 L40.9440796,19.449204 L41.231393,19.8437811 L42.2718507,19.3059303 L43.4555821,19.879791 L43.9581891,19.5572338 L44.2807463,19.3419403 L45.3572139,19.4139602 C45.3572139,19.4139602 45.2491841,19.915801 45.285194,20.1310945 C45.321204,20.3463881 45.7157811,21.0995323 45.7157811,21.0995323 L45.5364975,22.0327264 L45.4284677,22.9651542 L45.1059104,23.6822886 L44.7113333,23.969602 L44.5672935,24.83001 L45.3564478,26.0137413 L45.6437612,25.9417214 L45.5004876,25.0453035 L45.8950647,24.794 L46.3256517,25.7984478 L47.9039602,27.8425871 L48.1552637,28.8110249 L49.7343383,30.2460597 L50.0929055,31.932398 C50.0929055,31.932398 50.9540796,32.5422687 51.2053831,32.9008358 C51.4566866,33.259403 52.0665572,33.9052836 52.101801,34.0133134 C52.1370448,34.1213433 52.9629751,35.3763284 52.9629751,35.3763284 L53.2142786,37.313204 L53.6088557,38.4969353 L54.5772935,38.3896716 L54.9006169,37.9950945 L55.9763184,37.9230746 L56.8727363,37.2051741 L58.8096119,36.38001 L58.8816318,35.4828259 L60.3526766,34.8737214 L60.7472537,34.2990945 L61.2851045,34.1918308 L61.3571244,33.4386866 L61.8229552,33.0080995 L61.6076617,32.6495323 L61.9302189,32.0749055 L62.324796,30.7831443 L61.391602,29.7197015 L60.2921493,29.3841194 L59.6217512,27.9008159 L59.095393,29.2400796 L57.3707463,29.2400796 L56.9884279,27.8050448 L56.7011144,28.0440896 L56.7011144,28.5712139 L55.8399403,27.3752239 L53.9743184,25.1272836 C53.9743184,25.1272836 53.9260498,24.4568856 54.117592,24.3611144 L55.1603483,24.5656816 L55.9694229,25.7785274 L57.1539204,26.4849353 L57.9392438,27.0235522 L58.5253632,27.2901791 L59.3857711,26.8825771 L59.8929751,27.6004776 L63.2840398,27.6004776 C63.2840398,27.6004776 63.9567363,29.4691642 64.1390846,30.0491542 L64.1697313,30.1464577 L66.179393,30.1464577 L65.7963085,28.2019204 C65.912,28.5283085 66.5816318,30.1464577 66.5816318,30.1464577 L68.6303682,30.1464577 L68.5652438,29.9610448 C68.3246667,29.2753234 68.1400199,28.7796119 67.8948458,28.1299005 L67.8611343,28.0394925 L63.7552338,27.8418209 L67.6948756,27.6004776 L67.6213234,27.4112338 C67.3769154,26.7799104 66.7739403,25.3088657 66.7739403,25.3088657 L60.046209,25.0667562 L66.5908259,24.8698507 L65.7855821,22.9843085 L62.2259602,22.891602 L65.6469055,22.6602189 L64.2202985,19.3204876 L66.0292239,22.6602189 L67.9331542,22.6602189 L65.4270149,17.0947662 L68.3706368,22.6625174 L68.3706368,22.6625174 L68.3706368,22.6625174 Z M46.4559005,15.6926766 C46.0383383,16.0405174 45.6207761,16.4580796 45.4123781,16.4580796 C45.2039801,16.4580796 44.1596915,15.970796 44.1596915,15.970796 C44.1596915,15.970796 43.8118507,15.6926766 43.6026866,15.6229552 C43.3942886,15.5532338 42.1423682,15.205393 42.1423682,15.205393 C42.1423682,15.205393 41.4466866,15.205393 41.3072438,15.413791 C41.167801,15.6221891 40.6115622,16.1094726 40.6115622,16.1094726 L39.6377612,15.9010746 L39.6377612,16.4580796 L38.6639602,16.5975224 L38.3161194,16.2496816 L38.3161194,15.4842786 L38.9420796,15.4842786 L38.246398,14.5794328 L38.5245174,14.231592 L38.7329154,13.5359104 L38.8723582,12.7705075 L39.1504776,12.7705075 L39.6377612,11.8656617 L40.2637214,12.1437811 C40.2637214,12.1437811 40.3334428,12.4916219 40.6812836,12.8394627 C41.0291244,13.1873035 41.3769652,13.5351443 41.3769652,13.5351443 L41.724806,13.5351443 L42.6288856,13.1183483 L41.724806,12.9789055 L41.724806,12.4219005 C41.724806,12.4219005 42.2120896,12.0043383 42.4204876,12.0043383 C42.6288856,12.0043383 43.6026866,11.5170547 43.6026866,11.5170547 L43.3245672,13.3957015 L44.2983682,13.8829851 L45.8988955,14.3702687 C45.8988955,14.3702687 46.8726965,15.3448358 46.4559005,15.6926766 L46.4559005,15.6926766 L46.4559005,15.6926766 Z M54.8040796,18.7535224 L54.1781194,19.1013632 L53.134597,19.1013632 C52.7867562,19.1013632 52.7867562,18.6140796 52.7867562,18.6140796 C52.7867562,18.6140796 52.0910746,18.5443582 51.5348358,18.4746368 C50.978597,18.4049154 51.186995,16.59599 51.186995,16.59599 C51.186995,16.59599 50.9088756,16.3178706 50.6997114,16.0389851 C50.4905473,15.7600995 50.0040299,15.4130249 49.6561891,15.2038607 C49.3083483,14.9954627 49.1689055,14.5081791 49.0991841,14.2997811 C49.0294627,14.0913831 48.4035025,14.0913831 48.1943383,13.9519403 C47.9859403,13.8124975 47.7775423,13.5343781 47.7775423,13.5343781 L48.6119005,12.1430149 L48.8900199,12.0035721 L49.1681393,11.7951741 C49.1681393,11.7951741 49.8638209,11.8648955 50.1419403,12.0732935 C50.4200597,12.2816915 50.6981791,12.5605771 50.6981791,12.5605771 L50.9065771,13.3259801 L50.0714527,12.9781393 L50.0714527,13.4646567 C50.0714527,13.4646567 50.4200597,13.8822189 50.7671343,14.1603383 C51.1149751,14.4384577 51.5325373,14.4384577 51.5325373,14.4384577 L51.7409353,15.3433035 L52.0190547,14.7173433 C52.0190547,14.7173433 52.7844577,15.2743483 52.9928557,15.4827463 C53.2012537,15.6911443 53.5498607,16.0389851 53.5498607,16.0389851 L52.6457811,16.0389851 L53.4801393,16.59599 L53.6885373,17.5000697 L54.8040796,18.7535224 L54.8040796,18.7535224 L54.8040796,18.7535224 Z M42.8296219,0.689552239 C42.662597,0.689552239 42.1837413,0.545512438 42.1837413,0.545512438 C42.1837413,0.545512438 42.0159502,0.737054726 42.2067264,0.784557214 C42.3982687,0.832059701 42.5668259,0.856577114 42.7568358,0.880328358 C42.9499104,0.904845771 42.8296219,0.689552239 42.8296219,0.689552239 L42.8296219,0.689552239 L42.8296219,0.689552239 Z M41.3463184,0.402238806 C40.9410149,0.402238806 40.2468657,0.354736318 40.4131244,0.402238806 C40.5816816,0.450507463 40.868995,0.593781095 40.868995,0.593781095 C41.1080398,0.737054726 41.3945871,0.641283582 41.3945871,0.641283582 C41.3945871,0.641283582 41.7539204,0.402238806 41.3463184,0.402238806 L41.3463184,0.402238806 L41.3463184,0.402238806 Z M41.0122687,2.37589055 C40.8513731,2.35826866 40.5104279,2.21499502 40.3487662,2.01732338 C40.1871045,1.82041791 40.1334726,1.58673632 40.1150846,1.51548259 C40.0974627,1.44346269 40.0974627,1.03126368 40.0974627,1.03126368 C40.0974627,1.03126368 40.0614527,0.83359204 39.7741393,1.01287562 C39.4868259,1.1921592 39.2539104,1.46185075 39.2539104,1.46185075 L39.3435522,1.44346269 C39.3435522,1.44346269 39.4868259,1.5698806 39.5588458,1.71315423 C39.6308657,1.85719403 39.7381294,2.00046766 39.935801,2.16136318 C40.1327065,2.32302488 40.2231144,2.39504478 40.438408,2.46629851 C40.6537015,2.53831841 41.0122687,2.59118408 41.0122687,2.59118408 C41.0122687,2.59118408 41.1739303,2.39427861 41.0122687,2.37589055 L41.0122687,2.37589055 L41.0122687,2.37589055 Z M33.9811343,0.522527363 C33.9566169,0.450507463 33.45401,0.450507463 33.1919801,0.450507463 L33.096209,0.450507463 C33.0249552,0.450507463 32.4028259,0.689552239 32.4028259,0.689552239 C32.4028259,0.689552239 32.5460995,1.02513433 32.6648557,1.0481194 C32.7851443,1.07187065 33.0716915,1.07187065 33.3352537,1.0481194 C33.5980498,1.02436816 33.8133433,0.904079602 34.124408,0.809074627 C34.4354726,0.714069652 34.0048856,0.594547264 33.9811343,0.522527363 L33.9811343,0.522527363 L33.9811343,0.522527363 Z M22.8249453,9.37101493 C23.1482687,9.01244776 23.4348159,8.79715423 23.5428458,8.6538806 C23.6508756,8.5098408 23.7941493,8.29531343 23.7941493,8.29531343 L22.7889353,8.29531343 L22.6816716,8.58262687 L21.8925174,8.69065672 L21.8925174,9.40855721 L21.605204,9.55183085 L21.2826468,9.80313433 L21.2826468,10.1256915 C21.2826468,10.1256915 21.5699602,10.1977114 21.7484776,10.1256915 C21.9277612,10.0529055 22.5023881,9.72958209 22.8249453,9.37101493 L22.8249453,9.37101493 L22.8249453,9.37101493 Z M24.8453333,3.70289552 C24.8453333,3.70289552 25.0606269,3.58337313 24.4630149,3.70289552 C23.8646368,3.82318408 23.2432736,3.77414925 23.1475025,3.79866667 C23.0509652,3.82241791 22.8839403,3.70289552 22.8839403,3.70289552 C22.7636517,3.79866667 22.3100796,4.39704478 22.3100796,4.39704478 C22.3100796,4.39704478 22.0947861,4.63608955 22.6203781,4.6598408 C23.1475025,4.68359204 23.3382786,4.49204975 23.3382786,4.49204975 C23.3382786,4.49204975 23.6976119,4.27675622 23.9366567,4.27675622 C24.1757015,4.27675622 24.7978308,4.25300498 24.7978308,4.25300498 L24.8453333,3.70289552 L24.8453333,3.70289552 L24.8453333,3.70289552 Z M22.932209,10.6627761 C22.8601891,10.8060498 25.4429453,10.1961791 25.4429453,10.1961791 L26.1248358,9.69433831 L26.0888259,9.33577114 L25.8015124,9.19173134 L25.5862189,8.54585075 L25.3709254,7.8639602 C25.3709254,7.8639602 25.6222289,7.50539303 25.7655025,7.3621194 C25.9095423,7.2180796 26.0880597,7.03956219 26.0880597,7.03956219 L25.622995,6.89552239 L25.5509751,6.68099502 C25.5509751,6.68099502 25.4069353,6.60897512 25.2636617,6.57296517 C25.1203881,6.53695522 24.9771144,6.78825871 24.9771144,6.78825871 C24.9771144,6.78825871 24.689801,7.21884577 24.4745075,7.25408955 C24.2592139,7.2900995 24.0799303,7.64866667 24.0799303,7.7919403 C24.0799303,7.9359801 24.2952239,8.29454726 24.2952239,8.29454726 L24.689801,8.5098408 L24.689801,9.04845771 L23.4340498,9.69433831 L23.6493433,9.90963184 L22.8601891,10.5195025 C22.8601891,10.5187363 23.0042289,10.5187363 22.932209,10.6627761 L22.932209,10.6627761 L22.932209,10.6627761 Z M28.3130149,0.642049751 L29.3894826,0.570029851 C29.3894826,0.570029851 29.3894826,0.42599005 29.3649652,0.258199005 C29.3412139,0.0919402985 29.2454428,0.0919402985 29.2454428,0.0919402985 C25.6352537,-0.314895522 22.6694129,0.761572139 22.4771045,0.737820896 C22.2863284,0.714069652 20.4452239,1.45572139 20.4452239,1.45572139 C20.4452239,1.45572139 20.7080199,1.52774129 20.9470647,1.45572139 C21.1861095,1.38370149 22.0955522,1.21667662 22.2618109,1.1201393 C22.429602,1.02436816 23.1712537,1.00138308 23.2662587,0.953114428 C23.362796,0.904845771 23.0992338,1.21591045 23.0992338,1.21591045 C20.468209,1.81352239 15.0636517,5.52024876 14.9678806,5.80756219 C14.8728756,6.09487562 15.3739502,5.90333333 15.6375124,5.73554229 C15.9003085,5.56775124 16.0918507,5.25668657 16.4986866,5.06514428 C16.9047562,4.87360199 16.8572537,4.92187065 17.3361095,4.80311443 C17.8149652,4.68359204 18.3643085,4.13271642 18.5558507,4.0139602 C18.747393,3.89443781 18.674607,3.91818905 19.4170249,3.89443781 C20.1579104,3.87068657 20.8995622,3.39183085 21.1631244,3.2960597 C21.4251542,3.20028856 21.9285274,2.93749254 21.9997811,2.91297512 C22.071801,2.88922388 23.0762488,2.76970149 23.5305871,2.69768159 C23.9841592,2.62566169 24.1052139,2.57892537 24.3197413,2.41036816 C24.5350348,2.24257711 24.5112836,2.17132338 24.6070547,2.19507463 C24.7020597,2.21882587 25.4437114,2.36286567 25.4437114,2.36286567 L25.5394826,2.02804975 C25.5394826,2.02804975 25.7065075,1.78900498 25.8497811,1.76448756 C25.9930547,1.74073632 26.5439303,1.59746269 27.0940398,1.3339005 C27.6449154,1.07110448 27.5966468,1.11860697 27.6916517,1.04658706 C27.7866567,0.974567164 28.3130149,0.642049751 28.3130149,0.642049751 L28.3130149,0.642049751 L28.3130149,0.642049751 Z M19.345005,2.22035821 C19.8713632,1.93304478 20.3969552,1.74150249 20.3969552,1.74150249 C20.3969552,1.74150249 20.2054129,1.50245771 20.0146368,1.4779403 C20.0146368,1.4779403 9.92189055,4.51503483 0.881094527,14.8460597 C0.498776119,15.5647264 1.16840796,14.942597 1.40821891,14.6552836 C1.64649751,14.3679701 2.79498507,13.3160199 2.98652736,13.3160199 C3.17653731,13.3160199 3.36884577,13.0769751 3.5121194,12.8854328 C3.65539303,12.6938905 3.89520398,12.3590746 4.0859801,12.0717612 C4.27752239,11.7844478 5.37774129,10.6367264 5.52101493,10.6367264 C5.66505473,10.6367264 6.14314428,10.5409552 6.14314428,10.5409552 C6.14314428,10.5409552 6.09487562,10.5884577 5.75929353,11.0190448 C5.42524378,11.4496318 4.6598408,12.2142687 4.75484577,12.4540796 C4.85138308,12.6931244 5.32947264,12.7888955 5.42524378,12.4540796 C5.52024876,12.1192637 5.95083582,11.3063582 5.95083582,11.3063582 L6.52469652,10.6842289 C6.52469652,10.6842289 6.33315423,10.2061393 6.76374129,10.1103682 C7.19432836,10.014597 8.29531343,9.20169154 8.29531343,9.20169154 C8.29531343,9.20169154 9.20475622,8.00570149 9.82535323,7.52761194 C10.4474826,7.04952239 11.3569254,6.18758209 11.6909751,5.99680597 C12.0265572,5.80526368 14.7525871,4.17868657 15.5654925,3.84387065 C16.3791642,3.5121194 18.8186468,2.50767164 19.345005,2.22035821 L19.345005,2.22035821 L19.345005,2.22035821 Z M9.40779104,39.6791343 L9.40625871,39.8162786 C9.39323383,40.8705274 9.40319403,41.9362687 9.4361393,42.9836219 L9.44073632,43.1184677 L13.0608856,43.1184677 L13.0647164,42.9836219 C13.0968955,41.8910647 13.1367363,40.8283881 13.1834726,39.8247065 L13.189602,39.6791343 L9.40779104,39.6791343 L9.40779104,39.6791343 L9.40779104,39.6791343 Z M9.41468657,39.2393532 L13.2110547,39.2393532 L13.2171841,39.1075721 C13.2669851,38.0908657 13.3282786,37.0573035 13.402597,35.9478905 L13.4133234,35.8000199 L9.58247761,35.8000199 L9.57251741,35.9287363 C9.49513433,36.9408458 9.443801,38.0073532 9.41775124,39.0976119 L9.41468657,39.2393532 L9.41468657,39.2393532 L9.41468657,39.2393532 Z M9.61465672,35.3602388 L13.4424378,35.3602388 L13.4516318,35.2315224 C13.5290149,34.1420299 13.6148259,33.0793532 13.7052338,32.0733731 L13.7190249,31.9216716 L10.0283881,31.9216716 L10.01,32.0396617 C9.85446766,33.0448756 9.72651741,34.1106169 9.62921393,35.2085373 L9.61465672,35.3602388 L9.61465672,35.3602388 L9.61465672,35.3602388 Z M13.497602,42.9744279 L13.4937711,43.1177015 L17.2564279,43.1177015 L17.2602587,42.9820896 C17.2901393,41.9263085 17.3284478,40.873592 17.3721194,39.8231741 L17.3782488,39.6783682 L13.6217214,39.6783682 L13.615592,39.8109154 C13.5688557,40.8375821 13.5290149,41.9025572 13.497602,42.9744279 L13.497602,42.9744279 L13.497602,42.9744279 Z M13.642408,39.2393532 L17.3966368,39.2393532 L17.4027662,39.1060398 C17.456398,37.8954925 17.5084975,36.8910448 17.5644279,35.9463582 L17.5728557,35.7992537 L13.8446766,35.7992537 L13.8354826,35.9287363 C13.7588657,37.0619005 13.6983383,38.0962289 13.6485373,39.0922488 L13.642408,39.2393532 L13.642408,39.2393532 L13.642408,39.2393532 Z M13.7688259,31.3562388 C13.8684279,30.297393 13.9795224,29.2362488 14.0990448,28.182 L14.0990448,28.0433234 L10.8780697,28.0433234 L10.8474229,28.1398607 C10.7570149,28.426408 10.4398209,29.4990448 10.1256915,31.3186965 L10.0973433,31.4818905 L13.7565672,31.4818905 L13.7688259,31.3562388 L13.7688259,31.3562388 L13.7688259,31.3562388 Z M13.8745572,35.3602388 L17.6004378,35.3602388 L17.6080995,35.22999 C17.6678607,34.2906667 17.7398806,33.2869851 17.8364179,32.0718408 L17.8486766,31.9216716 L14.1511443,31.9216716 L14.1396517,32.0480896 C14.0507761,33.0364478 13.964199,34.1006567 13.8852836,35.211602 L13.8745572,35.3602388 L13.8745572,35.3602388 L13.8745572,35.3602388 Z M17.696209,42.9744279 L17.6916119,43.1177015 L21.6726269,43.1177015 L21.6756915,42.9820896 C21.7025075,41.9048557 21.7323881,40.850607 21.7653333,39.8216418 L21.7699303,39.6783682 L17.8241592,39.6783682 L17.8180299,39.8109154 C17.764398,41.0007761 17.7260896,42.0052239 17.696209,42.9744279 L17.696209,42.9744279 L17.696209,42.9744279 Z M17.8448458,39.2393532 L21.7852537,39.2393532 L21.7898507,39.1052736 C21.8266269,38.0219104 21.8687662,36.9722587 21.9139701,35.9448259 L21.9200995,35.8000199 L18.0333234,35.8000199 L18.0256617,35.9302687 C17.9613035,36.9730249 17.9038408,38.028806 17.8525075,39.0937811 L17.8448458,39.2393532 L17.8448458,39.2393532 L17.8448458,39.2393532 Z M18.0570746,35.3602388 L21.9384876,35.3602388 L21.9446169,35.2276915 C21.9936517,34.1450945 22.0465174,33.0900796 22.1024478,32.06801 L22.1101095,31.9216716 L18.3145075,31.9216716 L18.3045473,32.0496219 C18.2072438,33.218796 18.1290945,34.2531244 18.0670348,35.2123682 L18.0570746,35.3602388 L18.0570746,35.3602388 L18.0570746,35.3602388 Z M22.1185373,42.9759602 L22.1154726,43.1184677 L26.0949552,43.1184677 L26.0964876,42.9813234 C26.1087463,41.9132836 26.1217711,40.8628657 26.1370945,39.8208756 L26.139393,39.6791343 L22.2143085,39.6791343 L22.2097114,39.8139801 C22.1752338,40.8444776 22.1445871,41.9002587 22.1185373,42.9759602 L22.1185373,42.9759602 L22.1185373,42.9759602 Z M22.230398,39.2393532 L26.1455224,39.2393532 L26.1478209,39.102209 C26.1639104,38.0372338 26.18,36.9822189 26.1983881,35.940995 L26.2006866,35.7992537 L22.3667761,35.7992537 L22.3606468,35.931801 C22.3154428,36.9638308 22.2725373,38.0150149 22.2342289,39.0945473 L22.230398,39.2393532 L22.230398,39.2393532 L22.230398,39.2393532 Z M22.3866965,35.3602388 L26.2075821,35.3602388 L26.2098806,35.2238607 C26.229801,34.1542886 26.2527861,33.1046368 26.2757711,32.0634129 L26.2788358,31.9209055 L22.5598507,31.9209055 L22.5521891,32.0526866 C22.4947264,33.0785871 22.4418607,34.1343682 22.3928259,35.2139005 L22.3866965,35.3602388 L22.3866965,35.3602388 L22.3866965,35.3602388 Z M22.5859005,31.4818905 L26.288796,31.4818905 L26.2918607,31.3462786 C26.3163781,30.2820697 26.343194,29.2278209 26.3707761,28.1904279 L26.374607,28.0471542 L22.801194,28.0471542 L22.7927662,28.1766368 C22.7222786,29.1994726 22.6556219,30.2521891 22.5935622,31.3355522 L22.5859005,31.4818905 L22.5859005,31.4818905 L22.5859005,31.4818905 Z M19.2270149,23.3972736 L19.2055622,23.5551045 L22.6893333,23.5551045 L22.7000597,23.4279204 C22.7927662,22.3322985 22.8923682,21.2512338 23.0042289,20.1234328 L23.0195522,19.9709652 L19.8468458,19.9709652 L19.7242587,19.9931841 L19.7058706,20.110408 C19.5457413,21.1225174 19.3894428,22.1982189 19.2270149,23.3972736 L19.2270149,23.3972736 L19.2270149,23.3972736 Z M18.7351343,27.4495423 L18.7190448,27.6043085 L22.3782687,27.6043085 L22.3874627,27.4748259 C22.4679104,26.3171443 22.5529552,25.2115622 22.6410647,24.1450547 L22.6533234,23.9948856 L19.1488657,23.9948856 L19.1327761,24.1159403 C18.9856716,25.2475721 18.8523582,26.3692438 18.7351343,27.4495423 L18.7351343,27.4495423 L18.7351343,27.4495423 Z M18.6761393,28.0471542 L18.6631144,28.1720398 C18.5612139,29.1542687 18.4631443,30.1870647 18.3635423,31.3317214 L18.3505174,31.4826567 L22.1330945,31.4826567 L22.1407562,31.3516418 C22.2035821,30.2636816 22.2687065,29.2140299 22.3368955,28.195791 L22.3476219,28.0471542 L18.6761393,28.0471542 L18.6761393,28.0471542 L18.6761393,28.0471542 Z M18.1827264,28.2003881 L18.1980498,28.0471542 L14.5480199,28.0471542 L14.5334627,28.1705075 C14.4139403,29.2124975 14.3028458,30.2751741 14.2032438,31.3301891 L14.1894527,31.4818905 L17.8839204,31.4818905 L17.8946468,31.3539403 C17.9973134,30.129602 18.0892537,29.1274527 18.1827264,28.2003881 L18.1827264,28.2003881 L18.1827264,28.2003881 Z M14.6185075,27.44801 L14.6001194,27.6035423 L18.2447861,27.6035423 L18.2585771,27.4786567 C18.3643085,26.4780398 18.489194,25.4199602 18.6508557,24.1504179 L18.6707761,23.9941194 L15.0697811,23.9941194 L15.0529254,24.1136418 C14.8966269,25.2146269 14.7502886,26.3370647 14.6185075,27.44801 L14.6185075,27.44801 L14.6185075,27.44801 Z M22.8341393,27.6035423 L26.3876318,27.6035423 L26.3914627,27.4679303 C26.4228756,26.3408955 26.4565871,25.2322488 26.492597,24.137393 L26.497194,23.9941194 L23.1145572,23.9941194 L23.1038308,24.1220697 C23.0134229,25.1977711 22.9268458,26.3041194 22.8456318,27.4549055 L22.8341393,27.6035423 L22.8341393,27.6035423 L22.8341393,27.6035423 Z M30.4651841,43.5574826 L26.5309055,43.5574826 L26.5293731,43.695393 C26.5194129,44.6868159 26.5109851,45.692796 26.5025572,46.7049055 L26.501791,46.8451144 L30.4659502,46.8451144 L30.4659502,43.5574826 L30.4651841,43.5574826 L30.4651841,43.5574826 Z M30.4651841,39.6791343 L26.578408,39.6791343 L26.5761095,39.8162786 C26.5607861,40.859801 26.546995,41.9102189 26.5355025,42.9774925 L26.5339701,43.1184677 L30.4651841,43.1184677 L30.4651841,39.6791343 L30.4651841,39.6791343 L30.4651841,39.6791343 Z M26.6343383,20.115005 L26.6397015,19.970199 L23.4830846,19.970199 L23.4708259,20.0958507 C23.3597313,21.206796 23.2562985,22.3200398 23.1628259,23.403403 L23.149801,23.5551045 L26.5109851,23.5551045 L26.5148159,23.4210249 C26.5523582,22.3016517 26.592199,21.197602 26.6343383,20.115005 L26.6343383,20.115005 L26.6343383,20.115005 Z M30.4651841,35.8000199 L26.6397015,35.8000199 L26.637403,35.936398 C26.6190149,36.9791542 26.6021592,38.0341692 26.5868358,39.0983781 L26.5845373,39.2401194 L30.4651841,39.2401194 L30.4651841,35.8000199 L30.4651841,35.8000199 L30.4651841,35.8000199 Z M30.4651841,31.9216716 L26.7193831,31.9216716 L26.7163184,32.0572836 C26.6933333,33.0992736 26.6695821,34.1489254 26.6504279,35.2184975 L26.6481294,35.3602388 L30.4659502,35.3602388 L30.4659502,31.9216716 L30.4651841,31.9216716 L30.4651841,31.9216716 Z M30.4651841,28.0471542 L26.8151542,28.0471542 L26.8113234,28.1827662 C26.7829751,29.2209254 26.7569254,30.2759403 26.732408,31.3401493 L26.7293433,31.4826567 L30.4651841,31.4826567 L30.4651841,28.0471542 L30.4651841,28.0471542 L30.4651841,28.0471542 Z M30.4651841,23.9941194 L26.9354428,23.9941194 L26.9308458,24.1289652 C26.895602,25.2238209 26.8618905,26.3324677 26.8297114,27.4610348 L26.8258806,27.6043085 L30.4651841,27.6043085 L30.4651841,23.9941194 L30.4651841,23.9941194 L30.4651841,23.9941194 Z M30.4651841,19.970199 L27.212796,19.970199 L27.0794826,19.9755622 L27.0741194,20.1088756 C27.0327463,21.1907065 26.9929055,22.2924577 26.9553632,23.4102985 L26.9507662,23.5543383 L30.4659502,23.5543383 L30.4659502,19.970199 L30.4651841,19.970199 L30.4651841,19.970199 Z M28.3130149,15.4214527 L28.2884975,15.9953134 L28.7190846,16.1393532 C28.7190846,16.1393532 28.8148557,16.0673333 28.838607,15.8765572 C28.8623582,15.6850149 28.8148557,15.4697214 28.8148557,15.4697214 L28.3130149,15.4214527 L28.3130149,15.4214527 L28.3130149,15.4214527 Z M28.0739701,16.641194 C28.0984876,16.7607164 28.0502189,17.6686269 28.0739701,17.7651642 C28.0984876,17.8609353 28.2892637,17.9321891 28.2892637,17.9321891 C28.2892637,17.9321891 28.5045572,17.8364179 28.5765771,17.669393 C28.648597,17.501602 28.6723483,17.3100597 28.6968657,17.1185174 C28.7206169,16.9269751 28.7688856,16.568408 28.7688856,16.568408 C28.7688856,16.568408 28.7206169,16.4726368 28.5053234,16.4726368 C28.2884975,16.4741692 28.0739701,16.641194 28.0739701,16.641194 L28.0739701,16.641194 L28.0739701,16.641194 Z M26.4780398,50.7364876 L26.4780398,50.8759303 L30.4651841,50.8759303 L30.4651841,47.2841294 L26.4987264,47.2841294 L26.4979602,47.4220398 C26.4887662,48.5161294 26.4826368,49.6201791 26.4780398,50.7364876 L26.4780398,50.7364876 L26.4780398,50.7364876 Z M34.7204876,23.9941194 L30.904199,23.9941194 L30.904199,27.6035423 L34.7373433,27.6035423 L34.7373433,27.4633333 C34.7342786,26.3286368 34.7281493,25.2207562 34.7212537,24.1320299 L34.7204876,23.9941194 L34.7204876,23.9941194 L34.7204876,23.9941194 Z M34.7373433,28.0471542 L30.904199,28.0471542 L30.904199,31.4818905 L34.7388756,31.4818905 L34.7388756,31.3424478 C34.740408,30.2721095 34.740408,29.2186269 34.7388756,28.1850647 L34.7373433,28.0471542 L34.7373433,28.0471542 L34.7373433,28.0471542 Z M34.7373433,31.9216716 L30.904199,31.9216716 L30.904199,35.3602388 L34.7250846,35.3602388 L34.7258507,35.2215622 C34.7312139,34.1496915 34.7350448,33.0985075 34.7373433,32.0611144 L34.7373433,31.9216716 L34.7373433,31.9216716 L34.7373433,31.9216716 Z M35.170995,27.6081393 L38.7712239,27.6081393 L38.767393,27.4648657 C38.7344478,26.2995224 38.6961393,25.1893433 38.6524677,24.1274328 L38.6471045,23.9948856 L35.1541393,23.9948856 L35.1549055,24.1350945 C35.161801,25.21999 35.166398,26.3378308 35.1702289,27.4702289 L35.170995,27.6081393 L35.170995,27.6081393 L35.170995,27.6081393 Z M38.7834826,28.0471542 L35.1725274,28.0471542 L35.1725274,28.186597 C35.1740597,29.2201592 35.1748259,30.2713433 35.1732935,31.3432139 L35.1732935,31.4826567 L38.8509055,31.4826567 L38.848607,31.3416816 C38.8325174,30.2483582 38.8118308,29.1971741 38.7865473,28.1835323 L38.7834826,28.0471542 L38.7834826,28.0471542 L38.7834826,28.0471542 Z M39.2133035,27.5989453 L42.6963085,27.5989453 C42.6495721,26.2819005 42.594408,25.1579303 42.5331144,23.98799 L39.0715622,23.98799 L39.0776915,24.132796 C39.1428159,25.6482786 39.1949154,26.959194 39.2094726,27.4725274 L39.2133035,27.5989453 L39.2133035,27.5989453 L39.2133035,27.5989453 Z M42.703204,28.0601791 L39.2232637,28.0601791 L39.2263284,28.1896617 C39.2516119,29.2033035 39.2722985,30.2537214 39.2883881,31.3455124 L39.2899204,31.4757612 L42.7798209,31.4757612 C42.7537711,30.1901294 42.7438109,29.2262886 42.703204,28.0601791 L42.703204,28.0601791 L42.703204,28.0601791 Z M44.1696517,20.9225473 C44.1872736,20.8505274 44.1696517,20.4207065 44.0976318,20.4383284 C44.0424677,20.4521194 43.3444876,20.59999 43.3084776,20.6896318 C43.2724677,20.7792736 43.2188358,20.9945672 43.2548458,21.0489652 C43.2900896,21.102597 43.6134129,21.1202189 43.7566866,21.1202189 C43.9007264,21.1194527 44.1512637,20.993801 44.1696517,20.9225473 L44.1696517,20.9225473 L44.1696517,20.9225473 Z M38.6823483,60.9456915 C38.6608955,61.3395025 38.6394428,61.7440398 38.6172239,62.1953134 L38.6110945,62.3316915 L42.2274129,62.3316915 C42.2841095,61.1464279 42.3369751,60.218597 42.38601,59.0808358 L38.7750547,59.0808358 L38.7696915,59.2049552 C38.7413433,59.8316816 38.7114627,60.3764279 38.6823483,60.9456915 L38.6823483,60.9456915 L38.6823483,60.9456915 Z M38.1391343,62.9262388 L38.1460299,62.7806667 L34.7595622,62.7806667 L34.7564975,62.9162786 C34.7319801,64.0164975 34.7074627,65.1251443 34.6798806,66.2468159 L34.6768159,66.3893234 L37.9552537,66.3893234 L37.9629154,66.2583085 C38.024209,65.1289751 38.0839701,64.0164975 38.1391343,62.9262388 L38.1391343,62.9262388 L38.1391343,62.9262388 Z M34.8499701,58.4901194 L34.8476716,58.6318607 L38.3429353,58.6318607 L38.3490647,58.4985473 C38.3965672,57.4205473 38.4402388,56.3601692 38.4816119,55.3204776 L38.4869751,55.1764378 L34.9143284,55.1764378 L34.9112637,55.3128159 C34.8921095,56.3617015 34.8721891,57.4174826 34.8499701,58.4901194 L34.8499701,58.4901194 L34.8499701,58.4901194 Z M38.3260796,59.2164478 L38.332209,59.0716418 L34.8392438,59.0716418 L34.8369453,59.2080199 C34.8170249,60.1933134 34.794806,61.1939303 34.7725871,62.1999104 L34.7695224,62.3424179 L38.1697811,62.3424179 L38.2349055,61.0583184 C38.2663184,60.4499801 38.296199,59.8707562 38.3260796,59.2164478 L38.3260796,59.2164478 L38.3260796,59.2164478 Z M34.7220199,35.8000199 L30.904199,35.8000199 L30.904199,39.2401194 L51.6964975,39.4255323 L30.904199,39.6799005 L30.904199,43.1192338 L57.609791,43.3046468 L30.904199,43.5582488 L30.904199,46.8458806 L34.6124577,46.8458806 L34.8614627,44.0685174 C34.8591642,44.2064279 35.0499403,46.8458806 35.0499403,46.8458806 L54.4110348,47.0312935 L35.0445771,47.2856617 L35.0422786,47.422806 C35.0269552,48.5138308 35.0100995,49.7573234 34.9924776,50.8774627 L51.907194,51.0628756 L34.9840498,51.3172438 L34.9817512,51.4543881 C34.9648955,52.4887164 34.9457413,53.5391343 34.9273532,54.5972139 L34.9242886,54.7389552 L38.5053632,54.7389552 L38.8049353,51.698796 C38.8187264,51.3494229 38.9459104,54.7328259 38.9459104,54.7328259 L48.7069055,54.923602 L38.9282886,55.1856318 L38.921393,55.3089851 C38.8800199,56.3486766 38.8371144,57.4082886 38.7888458,58.4862886 L38.7827164,58.6234328 L42.395204,58.6234328 C42.4204876,58.0388458 42.6863483,55.684408 42.6863483,55.684408 C42.6633632,56.2130647 42.8349851,58.0357811 42.8104677,58.6234328 L48.7743284,58.8157413 L42.8012736,59.0793035 C42.7522388,60.2254925 42.6993731,61.1357015 42.6411443,62.3301592 L45.6437612,62.5247662 L42.6288856,62.791393 C42.5974726,63.4449353 42.3614925,65.1266766 42.3277811,65.7947761 C42.3277811,65.7947761 42.1852736,63.4380398 42.2166866,62.791393 L38.5842786,62.791393 L38.5789154,62.9109154 C38.5237512,64.0011741 38.46399,65.1128856 38.4026965,66.2414527 L38.395801,66.3747662 L42.141602,66.573204 L38.3881393,66.8436617 L38.3812438,66.9593532 C38.3689851,67.1930348 37.9782388,71.406199 37.9552537,71.546408 C37.9008557,70.5388955 37.924607,67.1700498 37.9360995,66.9739104 L37.9437612,66.8275721 L34.6653234,66.8275721 L34.6622587,66.9631841 C34.6392736,67.9484776 34.5258806,72.3608458 34.5028955,73.2204876 L34.4990647,73.3783184 L37.4396219,73.0887065 L37.8403284,73.0381393 L38.0119502,72.8864378 L38.0104179,72.9170846 L41.5654428,69.752806 L42.2618905,69.752806 L42.7553035,68.172199 L44.1374726,67.3140896 L44.1543284,67.2727164 C44.1834428,67.1999303 44.8484776,65.5335124 44.4316816,64.3934527 L46.6198607,62.6151741 L47.9261791,62.3738308 L49.3221393,60.6790647 L49.8063582,57.8212537 L49.8101891,57.8005672 L49.4462587,55.1220398 L50.5533731,55.16801 L50.6644677,54.407204 L54.4531741,48.9114726 C54.7397214,48.7482786 56.884995,47.5047861 57.3998607,46.4765871 C57.9254527,45.4246368 59.6953035,41.933204 59.6953035,41.933204 L59.7259502,41.8734428 L58.4993134,39.1650348 L56.2375821,39.8699104 L54.203403,40.3778806 L53.089393,39.3918209 L53.3276716,38.8179602 L50.457602,36.2873035 C50.3495721,36.0022886 49.6155821,34.1167463 48.8019104,33.4302587 C48.7796915,33.0019701 48.5988756,30.6743483 47.3921592,30.188597 L47.0764975,29.1535025 L44.143602,24.9066269 L44.1826766,24.748796 L44.3221194,23.9864577 L42.9445473,23.9864577 C43.006607,25.160995 43.0617711,26.2673433 43.1085075,27.5882189 L45.5740398,27.7920199 L43.1146368,28.0172736 C43.15601,29.1933433 43.1904876,30.1771045 43.2165373,31.4734627 L47.8702488,31.6818607 L43.2318607,31.8442886 C43.2326269,31.9002189 43.0679005,33.9903284 43.0694328,34.0470249 C43.0694328,34.0470249 42.8097015,31.91401 42.8081692,31.8557811 L39.2968159,31.9293333 C39.1734627,34.4423682 39.1803582,34.3948657 39.1037413,35.0445771 L38.8555025,31.9193731 L35.1725274,31.9193731 L35.1717612,32.0580498 C35.1702289,33.0954428 35.166398,34.1466269 35.1610348,35.2184975 L35.1610348,35.3579403 L48.7283582,35.6023483 L35.1579701,35.7992537 C35.1579701,35.7992537 35.0231244,38.0364677 34.953403,38.7559005 L34.7220199,35.8000199 L34.7220199,35.8000199 L34.7220199,35.8000199 Z M34.6055622,47.2833632 L30.904199,47.2833632 L30.904199,50.8751642 L34.5519303,50.8751642 L34.5542289,50.7380199 C34.5726169,49.6178806 34.5894726,48.5153632 34.6040299,47.4235721 L34.6055622,47.2833632 L34.6055622,47.2833632 L34.6055622,47.2833632 Z M34.5442687,51.3149453 L30.904199,51.3149453 L30.904199,54.7366567 L34.4852736,54.7366567 L34.4875721,54.6002786 C34.5067264,53.5406667 34.5251144,52.4902488 34.5419701,51.4566866 L34.5442687,51.3149453 L34.5442687,51.3149453 L34.5442687,51.3149453 Z M34.4768458,55.1756716 L30.904199,55.1756716 L30.904199,58.6318607 L34.4094229,58.6318607 L34.4117214,58.4954826 C34.4331741,57.4228458 34.4538607,56.3670647 34.4737811,55.3174129 L34.4768458,55.1756716 L34.4768458,55.1756716 L34.4768458,55.1756716 Z M34.4002289,59.0716418 L30.904199,59.0716418 L30.904199,62.3424179 L34.3297413,62.3424179 L34.332806,62.2060398 C34.355791,61.2008259 34.3772438,60.1986766 34.3971642,59.2133831 L34.4002289,59.0716418 L34.4002289,59.0716418 L34.4002289,59.0716418 Z M34.3205473,62.7806667 L30.904199,62.7806667 L30.904199,66.3893234 L34.2370348,66.3893234 L34.2400995,66.2537114 C34.2676816,65.1320398 34.292199,64.0226269 34.3167164,62.9231741 L34.3205473,62.7806667 L34.3205473,62.7806667 L34.3205473,62.7806667 Z M34.2263085,66.8291045 L31.7171045,66.8291045 L31.832796,67.3799801 C31.8596119,67.6443085 31.9285672,68.3637413 31.9285672,68.5139104 C31.9285672,68.7230746 32.3377015,69.2578607 32.5790448,69.5543682 L32.9874129,70.0899204 L34.1565871,70.0899204 L34.188,68.6012537 C34.2002587,68.018199 34.2117512,67.442806 34.2232438,66.9708458 L34.2263085,66.8291045 L34.2263085,66.8291045 L34.2263085,66.8291045 Z M48.7613035,66.695791 C48.7613035,66.695791 48.2594627,67.8082687 48.976597,67.9155323 C49.6944975,68.022796 49.9090249,67.8075025 49.9090249,67.8075025 L54.0340796,61.8880796 L54.1421095,61.278209 L54.824,61.2069552 L55.0032836,58.5881891 L54.7159701,58.624199 L53.9628259,59.8439403 C53.9628259,59.8439403 53.3529552,60.6691045 53.2449254,60.7763682 C53.1368955,60.884398 51.16401,61.744806 51.16401,61.744806 L50.3748557,62.8565174 L50.4461095,64.0402488 L48.867801,65.7265871 L48.7613035,66.695791 L48.7613035,66.695791 L48.7613035,66.695791 Z M66.3264975,30.5885373 L64.3053433,30.5885373 L64.3980498,30.8942388 C64.5520498,31.3983781 64.7451244,32.0327662 64.8845672,32.5208159 L64.9136816,32.6219502 L66.9708458,32.6219502 L66.9156816,32.4419005 C66.7532537,31.91401 66.5295323,31.2099005 66.3579104,30.6850746 L66.3264975,30.5885373 L66.3264975,30.5885373 L66.3264975,30.5885373 Z M67.1064577,33.0609652 L65.0393333,33.0609652 L65.0883682,33.2371841 C65.4040299,34.37801 65.4201194,34.441602 65.5174229,34.8300498 L65.6507363,35.3594726 L67.7615323,35.3594726 L67.7140299,35.1840199 C67.5286169,34.5067264 67.33401,33.825602 67.1355721,33.1605672 L67.1064577,33.0609652 L67.1064577,33.0609652 L67.1064577,33.0609652 Z M67.5592637,33.2402488 C67.7546368,33.8983881 67.9446468,34.5749154 68.1323582,35.2583383 L68.1607065,35.3602388 L70.3136418,35.3602388 L70.2607761,35.1817214 C70.0554428,34.491403 69.8478109,33.8179403 69.6386468,33.1582687 L69.6072338,33.0617313 L67.506398,33.0617313 L67.5592637,33.2402488 L67.5592637,33.2402488 L67.5592637,33.2402488 Z M70.4400597,35.8000199 L68.3599104,35.8000199 L68.9935323,37.8319005 L71.0085572,37.8319005 L70.9610547,37.6556816 C70.7986269,37.0611343 70.6346667,36.4742488 70.4691741,35.9003881 L70.4400597,35.8000199 L70.4400597,35.8000199 L70.4400597,35.8000199 Z M72.5079502,41.5141095 C72.5079502,41.5141095 71.5762886,43.8815721 72.280398,44.5887463 C72.4121791,44.7197612 72.72401,44.6308856 72.7485274,44.4163582 C72.946199,42.6373134 72.9638209,41.5133433 72.9638209,41.5133433 L72.5079502,41.5133433 L72.5079502,41.5141095 L72.5079502,41.5141095 Z M73.0933035,35.8000199 L70.8836716,35.8000199 L70.935005,35.9777711 C71.1234826,36.6221194 72.1532139,40.8345174 72.1631741,40.8774229 L72.1892239,40.9839204 L72.9147861,40.9839204 L72.9278109,40.8582687 C72.9293433,40.8352836 73.1599602,38.5505672 73.095602,35.9356318 L73.0933035,35.8000199 L73.0933035,35.8000199 L73.0933035,35.8000199 Z M71.9808259,33.0609652 L70.0163682,33.0609652 L70.2661393,33.8317313 C70.4201393,34.30599 70.5749055,34.7794826 70.7189453,35.2606368 L70.7488259,35.3594726 L72.6711443,35.3594726 L72.6198109,35.1824876 C72.429801,34.5297114 72.2267662,33.8363284 72.0122388,33.1582687 L71.9808259,33.0609652 L71.9808259,33.0609652 L71.9808259,33.0609652 Z M71.1610249,30.5885373 L69.1896716,30.5885373 L69.2540299,30.7731841 C69.4356119,31.2957114 69.6723582,31.9967562 69.8470448,32.5261791 L69.8792239,32.6219502 L71.8398507,32.6219502 L71.7800896,32.439602 C71.6077015,31.9109453 71.3747861,31.2068358 71.193204,30.68201 L71.1610249,30.5885373 L71.1610249,30.5885373 L71.1610249,30.5885373 Z M69.4026667,32.439602 C69.2272139,31.9017512 68.9912338,31.198408 68.8142488,30.6827761 L68.7820697,30.5885373 L66.7295025,30.5885373 L66.7884975,30.7701194 C66.9562886,31.2865174 67.18001,31.9906269 67.3424378,32.5231144 L67.3730846,32.6211841 L69.463194,32.6211841 L69.4026667,32.439602 L69.4026667,32.439602 L69.4026667,32.439602 Z M70.2125075,28.0433234 L68.2633731,28.0433234 L68.335393,28.231801 C68.5361294,28.7604577 68.6878308,29.1887463 68.8640498,29.68599 L69.0287761,30.1495224 L71.0016617,30.1495224 L70.9357711,29.9633433 C70.731204,29.3894826 70.5611144,28.947403 70.3573134,28.4172139 L70.2125075,28.0433234 L70.2125075,28.0433234 L70.2125075,28.0433234 Z M66.9792736,24.8729154 L68.9268756,24.8729154 L68.0779602,22.9873731 L66.1679005,22.9873731 L66.9792736,24.8729154 L66.9792736,24.8729154 L66.9792736,24.8729154 Z M69.1092239,25.3119303 L67.1623881,25.3119303 L67.2428358,25.5042388 C67.492607,26.1064478 67.7829851,26.8082587 68.0580398,27.5146667 L68.0925174,27.6035423 L70.0408856,27.6035423 L69.9665672,27.4135323 C69.6547363,26.6236119 69.3942388,25.9830945 69.1452338,25.3977413 L69.1092239,25.3119303 L69.1092239,25.3119303 L69.1092239,25.3119303 Z" id="SVGID_1_"></path>
                                </g>
                            </g>
                        </g>
                    </g>
                </g>
            </g>
        </g>
    </g>
</svg>