<?xml version="1.0" encoding="UTF-8"?>
<svg width="154px" height="150px" viewBox="0 0 154 150" version="1.1" xmlns="http://www.w3.org/2000/svg" xmlns:xlink="http://www.w3.org/1999/xlink">
    <!-- Generator: Sketch 40.2 (33826) - http://www.bohemiancoding.com/sketch -->
    <title>500k_citi</title>
    <desc>Created with Sketch.</desc>
    <defs></defs>
    <g id="Page-1" stroke="none" stroke-width="1" fill="none" fill-rule="evenodd">
        <g id="Our-partners" transform="translate(-570.000000, -2415.000000)">
            <g id="Content" transform="translate(376.000000, 150.000000)">
                <g id="Support-of-$500k+" transform="translate(0.000000, 2211.000000)">
                    <g id="500k_citi" transform="translate(194.000000, 54.000000)">
                        <rect id="Rectangle-2" fill="#FFFFFF" x="0" y="0" width="154" height="150"></rect>
                        <g id="Layer_1" transform="translate(0.000000, 31.000000)">
                            <g id="Group">
                                <g id="Shape">
                                    <path d="M41.66701,71.06484 L41.426,71.31432 C37.48899,75.34219 32.92135,77.47124 28.21511,77.47124 C18.38914,77.47124 11.2574,70.09849 11.2574,59.93834 C11.2574,49.77742 18.38914,42.40313 28.21511,42.40313 C32.92135,42.40313 37.48899,44.53295 41.426,48.56544 L41.66701,48.81184 L47.99564,41.16882 L47.83009,40.96862 C42.57946,34.75549 36.26315,31.73401 28.52388,31.73401 C20.7438,31.73401 13.63131,34.33969 8.49387,39.0698 C2.93601,44.18876 0,51.40289 0,59.93834 C0,68.47302 2.93601,75.68792 8.49387,80.80688 C13.63131,85.53853 20.7438,88.14421 28.52388,88.14421 C36.26315,88.14421 42.57946,85.12273 47.83009,78.90806 L47.99564,78.70786 L41.66701,71.06484 L41.66701,71.06484 Z" fill="#004785"></path>
                                    <polygon fill="#004785" points="54.38125 32.61412 54.38125 87.09932 65.53624 87.09932 65.53624 80.8962 65.53624 32.61412"></polygon>
                                    <path d="M109.27147,75.2521 C106.29619,77.06314 103.52034,77.98098 101.02092,77.98098 C97.40731,77.98098 95.79647,76.08447 95.79647,71.8333 L95.79647,42.92904 L107.14704,42.92904 L107.14704,32.66956 L95.79647,32.66956 L95.79647,15.70569 L84.84476,21.57001 L84.84476,32.66956 L75.4061,32.66956 L75.4061,42.92904 L84.84476,42.92904 L84.84476,73.67822 C84.84476,82.06044 89.81896,87.78616 97.22174,87.93015 C102.256,88.02409 105.2821,86.54492 107.12009,85.42303 L107.22789,85.35681 L109.92289,74.85324 L109.27147,75.2521 L109.27147,75.2521 Z" fill="#004785"></path>
                                    <polygon fill="#004785" points="118.5107 32.61412 118.5107 87.09932 129.67262 87.09932 129.67262 80.8962 129.67262 32.61412"></polygon>
                                    <path d="M136.69348,23.8007 C127.38649,9.84522 110.1947,-0.00693 91.83713,-4.23516474e-22 C73.76446,0.00693 56.57729,9.55955 46.96307,23.8007 L59.79127,23.8007 C68.54617,14.78169 79.8952,9.87448 91.83636,9.86832 C103.56192,9.86216 115.09575,14.78169 123.86528,23.8007 L136.69348,23.8007 L136.69348,23.8007 Z" fill="#ED1C24"></path>
                                </g>
                                <path d="M153.05829,20.72455 C153.05829,23.51734 150.93078,25.64408 148.13876,25.64408 C145.3452,25.64408 143.21692,23.51734 143.21692,20.72455 C143.21692,17.93176 145.3452,15.80502 148.13876,15.80502 C150.93155,15.80425 153.05829,17.93176 153.05829,20.72455 L153.05829,20.72455 Z M154,20.72455 C154,17.39584 151.4667,14.86331 148.13953,14.86331 C144.81159,14.86331 142.27675,17.39584 142.27675,20.72455 C142.27675,24.05326 144.81159,26.58656 148.13953,26.58656 C151.4667,26.58579 154,24.05249 154,20.72455 L154,20.72455 Z M150.81759,19.34471 C150.81759,18.01338 149.85971,17.41201 148.72319,17.41201 L145.91346,17.41201 L145.91346,23.80917 L147.00147,23.80917 L147.00147,21.34132 L148.23578,21.34132 L149.48626,23.80917 L150.76908,23.80917 L149.45546,21.22736 C150.28167,20.98404 150.81759,20.3511 150.81759,19.34471 L150.81759,19.34471 Z M149.71418,19.37705 C149.71418,20.00999 149.27528,20.28642 148.69162,20.28642 L147.00224,20.28642 L147.00224,18.46768 L148.69162,18.46768 C149.27451,18.46768 149.71418,18.77645 149.71418,19.37705 L149.71418,19.37705 Z" id="Shape" fill="#004785"></path>
                            </g>
                        </g>
                    </g>
                </g>
            </g>
        </g>
    </g>
</svg>