<?xml version="1.0" encoding="UTF-8"?>
<svg width="122px" height="119px" viewBox="0 0 122 119" version="1.1" xmlns="http://www.w3.org/2000/svg" xmlns:xlink="http://www.w3.org/1999/xlink">
    <!-- Generator: Sketch 40.2 (33826) - http://www.bohemiancoding.com/sketch -->
    <title>50k_qbe</title>
    <desc>Created with Sketch.</desc>
    <defs></defs>
    <g id="Page-1" stroke="none" stroke-width="1" fill="none" fill-rule="evenodd">
        <g id="Our-partners" transform="translate(-684.000000, -3924.000000)">
            <g id="Content" transform="translate(376.000000, 150.000000)">
                <g id="Support-of-$50k+" transform="translate(0.000000, 3552.000000)">
                    <g id="50k_qbe" transform="translate(307.413793, 222.000000)">
                        <rect id="Rectangle-2" fill="#FFFFFF" x="0.586206897" y="0" width="121.875269" height="119"></rect>
                        <g id="Layer_1" transform="translate(9.000000, 0.000000)">
                            <g id="Group" transform="translate(21.543103, 0.000000)" fill="#269BD7">
                                <path d="M46.8249612,52.3399957 C48.5812371,52.9596164 50.4395862,53.2694267 52.5051595,53.1658147 C55.60275,53.0632284 58.4951681,52.2374095 60.4566164,50.8940431 L60.5602284,50.8940431 C59.1153017,57.0907629 53.5376897,61.738944 46.9285733,61.738944 L19.7678491,61.738944 C12.1256897,61.738944 5.82587069,55.5411983 5.82587069,47.9005776 C5.92896983,40.1532672 12.1256897,33.9565474 19.7678491,33.9565474 L20.490569,33.9565474 C19.1477155,37.0561897 14.0876509,44.5947371 14.2933362,47.9005776 C14.5005603,50.3780345 16.3589095,52.3399957 18.8379052,52.3399957 L46.8249612,52.3399957 L46.8249612,52.3399957 L46.8249612,52.3399957 L46.8249612,52.3399957 Z" id="Shape"></path>
                                <path d="M49.8194526,42.9430991 C53.5376897,43.0456853 55.706875,40.6697888 55.706875,38.6057543 C55.706875,37.5721983 55.2934526,36.6422543 54.673319,36.0221207 L54.4666078,35.8159224 C52.0912241,33.9565474 50.232875,33.9565474 46.9290862,33.9565474 L33.4000172,33.9565474 L28.6482241,43.0451724 L49.8194526,42.9430991 L49.8194526,42.9430991 L49.8194526,42.9430991 Z" id="Shape"></path>
                                <path d="M10.0601164,36.1267586 C8.71726293,37.366 7.58112069,38.9145388 6.65220259,40.7739138 C5.20573707,43.5627198 4.68972845,46.454625 4.89592672,48.9320819 L4.89592672,48.9320819 C0.0430862069,44.8009353 -0.784271552,36.8505043 2.31434483,31.0651552 L14.5010733,7.82937931 C18.1141595,1.11665086 26.4800647,-1.46493103 33.297431,2.14918103 C40.1122328,5.76380603 42.6943276,14.2328103 38.9760905,20.9450259 L38.6662802,21.5646466 C36.6012198,18.9830647 32.3674871,10.9279957 29.3719698,9.58514224 C26.9955603,8.55209914 24.4155172,9.2753319 23.17525,11.4440043 L10.0601164,36.1267586 L10.0601164,36.1267586 L10.0601164,36.1267586 L10.0601164,36.1267586 Z" id="Shape"></path>
                                <path d="M16.7723319,43.665306 C15.016569,46.7649483 15.946,49.8620259 17.8058879,50.7919698 C18.734806,51.3079784 19.7678491,51.4105647 20.5931552,51.2038534 L20.9039914,50.9981681 C23.6922845,49.8625388 24.7243017,47.7969655 26.2733534,44.9055733 L32.4700733,33.3374397 L26.6872888,24.7663621 L16.7723319,43.665306 L16.7723319,43.665306 L16.7723319,43.665306 Z" id="Shape"></path>
                                <path d="M41.8679957,11.5471034 C41.4545733,9.79185345 41.1452759,8.86242241 40.1117198,7.10665948 C38.459056,4.52559052 36.2914095,2.56311638 34.0196379,1.42697414 L34.0196379,1.42697414 C40.1117198,-0.5355 46.9285733,1.83988362 50.3364871,7.5200819 L64.1748534,30.8594698 C68.0987759,37.4680733 65.9295905,46.0406897 59.3209871,49.9640991 C52.7108448,53.8895603 44.1387414,51.7193491 40.2153319,45.1107457 L39.8019095,44.0787284 C43.2093103,43.7689181 52.6087716,44.8009353 55.0872543,42.9430991 C57.1518017,41.4971466 57.8745216,38.7083405 56.532694,36.540181 L42.2809052,12.3744612 L41.8679957,11.5471034 L41.8679957,11.5471034 L41.8679957,11.5471034 Z" id="Shape"></path>
                                <path d="M32.6767845,14.6457198 C30.8184353,11.4445172 27.6167198,10.2052759 25.7573448,11.3409052 C24.9310129,11.8574267 24.3119052,12.5801466 24.104681,13.5100905 L24.001069,13.8199009 C23.5876466,16.8143922 24.7237888,18.9835776 26.3759397,21.7718707 L33.8119009,32.821431 L44.3459655,32.821431 L32.6767845,14.6457198 L32.6767845,14.6457198 L32.6767845,14.6457198 Z" id="Shape"></path>
                            </g>
                            <path d="M45.2241034,118.907672 C41.2770991,119.208763 37.4844871,117.994655 34.2971336,115.870608 C30.9584655,117.843341 26.4056897,118.907672 22.3078836,118.907672 C10.1683448,118.907672 0,109.498466 0,97.2045345 C0,91.2863362 1.97273276,85.9744224 6.22185345,81.8781552 C10.3191466,77.6280086 16.0860302,75.3526466 22.0052543,75.3526466 C34.145306,75.3526466 44.4649655,84.7603147 44.4649655,97.2045345 C44.4649655,102.669302 42.9477155,106.918422 39.4567069,110.861836 C40.6697888,111.623026 42.4917198,112.077996 44.0094828,112.077996 L45.2235905,112.077996 L45.2235905,118.907672 L45.2241034,118.907672 L45.2241034,118.907672 Z M14.2646121,104.641009 C12.8991897,104.641009 11.5327414,104.793862 10.3196595,105.24678 C13.5065,109.498466 17.7556207,111.470172 23.0665086,111.470172 C24.8879267,111.470172 26.1020345,110.861836 27.7711121,110.104237 C23.8261595,107.220539 19.121556,104.641009 14.2646121,104.641009 L14.2646121,104.641009 L14.2646121,104.641009 Z M7.89093103,99.0259526 C9.71286207,98.4212069 11.8374224,98.2673276 13.8101552,98.2673276 C18.363444,98.2673276 21.8529138,99.3296078 25.9502069,101.454168 C28.53025,102.820103 31.110806,104.338892 33.2353664,106.463966 C35.6635819,104.033185 36.7258621,100.696056 36.7258621,97.356875 C36.7258621,89.465431 30.3506422,82.7886078 22.3083966,82.7886078 C18.3639569,82.7886078 14.7216336,84.4592241 11.8374224,87.3424095 C9.56052155,89.6177716 7.73961638,93.2595819 7.73961638,96.7500776 L7.89093103,99.0259526 L7.89093103,99.0259526 L7.89093103,99.0259526 Z" id="Shape" fill="#040607"></path>
                            <path d="M48.4094052,76.1102457 L56.1490216,76.1102457 C59.9421466,76.1102457 63.7383491,75.9599569 67.2262802,77.6280086 C70.7183147,79.4489138 73.1449914,83.0912371 73.1449914,87.0372155 C73.1449914,90.3758836 71.6282543,93.5627241 68.5932414,95.0804871 C73.1449914,96.5992759 75.7245216,100.391888 75.7245216,105.24678 C75.7245216,109.345612 73.7528147,112.68428 70.5659741,115.110957 C67.2257672,117.693565 62.9776724,117.843341 59.0337457,117.994655 L48.4094052,117.994655 L48.4094052,76.1102457 L48.4094052,76.1102457 L48.4094052,76.1102457 Z M59.4871767,110.408918 C61.7645905,110.408918 63.8891509,110.255552 65.8608578,108.890129 C67.2267931,107.979677 67.9869569,106.612716 67.9869569,104.793862 C67.9869569,102.819591 66.9246767,101.605483 65.1022328,100.544741 C63.434181,99.6342888 61.4614483,99.7850905 59.641569,99.7850905 L56.3013621,99.7850905 L56.3013621,110.409431 L59.4871767,110.409431 L59.4871767,110.408918 L59.4871767,110.408918 Z M57.6672974,92.1967888 C59.336375,92.1967888 61.4609353,92.1967888 62.9781853,91.5894784 C64.4959483,90.8308534 65.4064009,89.3130905 65.4064009,87.6440129 C65.4064009,85.9744224 64.3441207,84.6084871 62.8263578,84.0011767 C61.3091078,83.3943793 59.3358621,83.545694 57.6667845,83.545694 L56.3008491,83.545694 L56.3008491,92.1962759 L57.6672974,92.1962759 L57.6672974,92.1967888 L57.6672974,92.1967888 Z" id="Shape" fill="#040607"></path>
                            <polygon id="Shape" fill="#040607" points="80.1259828 76.1102457 102.586207 76.1102457 102.586207 83.5462069 87.8655991 83.5462069 87.8655991 93.258556 101.978897 93.258556 101.978897 100.846858 87.8655991 100.846858 87.8655991 110.408918 102.586207 110.408918 102.586207 117.994655 80.1259828 117.994655"></polygon>
                        </g>
                    </g>
                </g>
            </g>
        </g>
    </g>
</svg>