<?xml version="1.0" encoding="UTF-8"?>
<svg width="123px" height="119px" viewBox="0 0 123 119" version="1.1" xmlns="http://www.w3.org/2000/svg" xmlns:xlink="http://www.w3.org/1999/xlink">
    <!-- Generator: Sketch 40.2 (33826) - http://www.bohemiancoding.com/sketch -->
    <title>50k_ian_martin</title>
    <desc>Created with Sketch.</desc>
    <defs></defs>
    <g id="Page-1" stroke="none" stroke-width="1" fill="none" fill-rule="evenodd">
        <g id="Our-partners" transform="translate(-530.000000, -3765.000000)">
            <g id="Content" transform="translate(376.000000, 150.000000)">
                <g id="Support-of-$50k+" transform="translate(0.000000, 3552.000000)">
                    <g id="50k_ian_martin" transform="translate(154.000000, 63.000000)">
                        <rect id="Rectangle-2" fill="#FFFFFF" x="0.531182796" y="0" width="121.875269" height="119"></rect>
                        <g id="Layer_1" transform="translate(1.000000, 26.000000)">
                            <g id="Text" transform="translate(0.000000, 52.635000)" fill="#454545">
                                <polygon id="Shape" points="0 14.064435 0 0.772585 2.398825 0.772585 2.398825 14.064435"></polygon>
                                <path d="M16.191615,14.064435 L14.82976,11.017655 L9.263155,11.017655 L7.9013,14.064435 L5.42443,14.064435 L11.91124,0.59048 L12.2573,0.59048 L18.72475,14.064435 L16.191615,14.064435 L16.191615,14.064435 Z M12.04555,4.7795 L10.04905,9.22141 L14.04205,9.22141 L12.04555,4.7795 L12.04555,4.7795 Z" id="Shape"></path>
                                <polygon id="Shape" points="32.77285 14.31672 23.96526 5.541195 23.96526 14.064435 21.56583 14.064435 21.56583 0.59048 21.9494 0.51788 30.643855 9.167565 30.643855 0.772585 33.04147 0.772585 33.04147 14.26348"></polygon>
                                <polygon id="Shape" points="54.823285 14.064435 54.632105 6.102635 50.197455 12.4509 49.910685 12.4509 45.43792 6.08509 45.284855 14.064435 42.92475 14.064435 43.52007 0.609235 43.88428 0.571725 50.121225 9.38597 56.206315 0.571725 56.588675 0.609235 57.183995 14.064435 54.823285 14.064435"></polygon>
                                <path d="M70.71845,14.064435 L69.354175,11.017655 L63.789385,11.017655 L62.426925,14.064435 L59.950055,14.064435 L66.43747,0.59048 L66.78232,0.59048 L73.251585,14.064435 L70.71845,14.064435 L70.71845,14.064435 Z M66.57178,4.7795 L64.57528,9.22141 L68.56828,9.22141 L66.57178,4.7795 L66.57178,4.7795 Z" id="Shape"></path>
                                <path d="M83.720505,14.064435 L80.64892,9.27707 C80.40087,9.294615 80.169155,9.294615 79.89993,9.294615 C79.44013,9.294615 78.96097,9.27707 78.50117,9.258315 L78.50117,14.06383 L76.10174,14.06383 L76.10174,0.898425 C77.214335,0.772585 78.385615,0.680625 79.80434,0.680625 C83.79613,0.680625 85.560915,2.51317 85.560915,4.86904 C85.560915,6.592685 84.56448,7.98842 82.81724,8.715025 L86.503505,14.06383 L83.720505,14.06383 L83.720505,14.064435 Z M80.11168,2.712215 C79.53693,2.712215 78.98033,2.730365 78.50117,2.82172 L78.50117,7.35438 C78.942215,7.40883 79.42077,7.426375 79.88178,7.426375 C81.973265,7.426375 83.02899,6.501935 83.02899,4.979755 C83.02899,3.63726 81.953905,2.712215 80.11168,2.712215 L80.11168,2.712215 Z" id="Shape"></path>
                                <polygon id="Shape" points="95.12294 2.83987 95.12294 14.064435 92.724115 14.064435 92.724115 2.83987 88.25135 2.83987 88.25135 0.772585 99.575135 0.772585 99.575135 2.83987"></polygon>
                                <polygon id="Shape" points="102.723555 14.064435 102.723555 0.772585 105.12238 0.772585 105.12238 14.064435"></polygon>
                                <polygon id="Shape" points="120.730775 14.31672 111.92258 5.541195 111.92258 14.064435 109.52194 14.064435 109.52194 0.59048 109.906115 0.51788 118.59936 9.167565 118.59936 0.772585 121 0.772585 121 14.26348"></polygon>
                            </g>
                            <g id="Mark" transform="translate(30.855000, 0.000000)">
                                <path d="M25.44872,43.06995 C27.09795,43.06995 28.43621,41.745605 28.463435,40.102425 L28.463435,40.00139 L28.463435,22.715935 L5.1546,22.715935 C2.45993,22.715935 0.276485,24.899985 0.276485,27.594655 L0.276485,43.06995 L25.44872,43.06995 L25.44872,43.06995 Z" id="Mark_Bottom_Left_1_" fill="#485D78"></path>
                                <path d="M25.448115,0 C27.09795,0 28.43621,1.32374 28.463435,2.966315 L28.463435,3.06856 L28.463435,20.35341 L5.1546,20.35341 C2.45993,20.35341 0.27588,18.16936 0.27588,15.475295 L0.27588,0 L25.448115,0 L25.448115,0 Z" id="Mark_Top_Left_7_" fill="#2B4856"></path>
                                <path d="M33.841885,43.06995 C32.191445,43.06995 30.854395,41.745605 30.826565,40.102425 L30.826565,40.00139 L30.826565,22.715935 L54.136005,22.715935 C56.83128,22.715935 59.014725,24.899985 59.014725,27.594655 L59.014725,43.06995 L33.841885,43.06995 L33.841885,43.06995 Z" id="Mark_Bottom_Right_1_" fill="#192B44"></path>
                                <path d="M33.841885,0 C32.19326,0 30.854395,1.32374 30.827775,2.966315 L30.827775,3.06856 L30.827775,20.35341 L54.13782,20.35341 C56.83128,20.35341 59.01533,18.16936 59.01533,15.475295 L59.01533,0 L33.841885,0 L33.841885,0 Z" id="Mark_Top_Left_5_" fill="#AECB63"></path>
                            </g>
                        </g>
                    </g>
                </g>
            </g>
        </g>
    </g>
</svg>