<?xml version="1.0" encoding="UTF-8"?>
<svg width="123px" height="119px" viewBox="0 0 123 119" version="1.1" xmlns="http://www.w3.org/2000/svg" xmlns:xlink="http://www.w3.org/1999/xlink">
    <!-- Generator: Sketch 40.2 (33826) - http://www.bohemiancoding.com/sketch -->
    <title>50k_pnc</title>
    <desc>Created with Sketch.</desc>
    <defs></defs>
    <g id="Page-1" stroke="none" stroke-width="1" fill="none" fill-rule="evenodd">
        <g id="Our-partners" transform="translate(-530.000000, -3924.000000)">
            <g id="Content" transform="translate(376.000000, 150.000000)">
                <g id="Support-of-$50k+" transform="translate(0.000000, 3552.000000)">
                    <g id="50k_pnc" transform="translate(154.000000, 222.000000)">
                        <rect id="Rectangle-2" fill="#FFFFFF" x="0.531182796" y="0" width="121.875269" height="119"></rect>
                        <g id="Layer_1" transform="translate(1.000000, 41.000000)">
                            <polygon id="Shape" fill="#FFFFFF" points="18.92319 2.56157 12.12057 2.56157 7.3084 5.88181 5.981635 22.47091 7.3084 29.44051 9.796765 32.92289 12.950025 33.75295 21.74249 31.43096 34.02036 20.812 35.014375 16.334395 33.023925 12.68443"></polygon>
                            <path d="M32.65669,35.518945 C31.56043,35.518945 30.680155,34.62536 30.680155,33.53636 C30.680155,32.447965 31.56043,31.567085 32.65669,31.567085 C33.731775,31.567085 34.61931,32.447965 34.61931,33.53636 C34.61931,34.625965 33.731775,35.518945 32.65669,35.518945 L32.65669,35.518945 Z M32.65669,31.110915 C31.30633,31.110915 30.22459,32.186605 30.22459,33.53636 C30.22459,34.886115 31.30633,35.975115 32.65669,35.975115 C34.000395,35.975115 35.076085,34.88672 35.076085,33.53636 C35.076085,32.18721 34.000395,31.110915 32.65669,31.110915 L32.65669,31.110915 Z M32.351165,33.7711 L32.5127,33.7711 C33.0088,33.7711 32.95677,34.058475 32.95677,34.391225 C32.95677,34.579985 32.95677,34.76814 33.04147,34.938145 L33.667645,34.938145 C33.60896,34.820775 33.59565,34.293215 33.59565,34.1099 C33.59565,33.603515 33.1782,33.568425 33.04147,33.56177 L33.04147,33.549065 C33.45892,33.484935 33.60896,33.216315 33.60896,32.85755 C33.60896,32.37476 33.32824,32.114005 32.89143,32.114005 L31.71168,32.114005 L31.71168,34.93754 L32.351165,34.93754 L32.351165,33.7711 L32.351165,33.7711 Z M32.351165,32.5853 L32.637935,32.5853 C32.8394,32.5853 32.969475,32.68936 32.969475,32.95677 C32.969475,33.13827 32.89143,33.37301 32.637935,33.37301 L32.351165,33.37301 L32.351165,32.5853 L32.351165,32.5853 Z" id="Shape" fill="#F58025"></path>
                            <g id="Group" transform="translate(41.140000, 4.235000)" fill="#0069AA">
                                <path d="M12.393425,0.92081 L0.75141,0.92081 L0.48521,0.92081 L0.48521,2.07878 L0.719345,2.10661 C4.866015,2.60997 5.287095,3.15447 5.287095,5.26955 L5.287095,27.306675 L10.007305,27.306675 L10.007305,15.84858 L11.910635,15.84858 C16.39671,15.84858 25.72823,15.84858 25.72823,8.404055 C25.728835,0.92081 17.054345,0.92081 12.393425,0.92081 L12.393425,0.92081 Z M11.815045,13.818805 L10.007305,13.818805 L10.007305,5.266525 C10.007305,3.259135 10.007305,2.950585 13.83998,2.950585 C18.146975,2.950585 20.51918,4.887795 20.51918,8.404055 C20.51918,13.17569 16.119015,13.818805 11.815045,13.818805 L11.815045,13.818805 Z" id="Shape"></path>
                                <path d="M52.43172,0.923835 L49.65719,0.923835 L49.65719,21.490205 C48.92514,20.470175 34.89519,0.923835 34.89519,0.923835 L24.879415,0.923835 L24.879415,2.07636 L25.11113,2.107215 C29.16342,2.63538 29.681905,2.81446 29.681905,5.726325 L29.681905,27.306675 L32.721425,27.306675 L32.721425,5.18727 C33.457105,6.20972 48.635345,27.306675 48.635345,27.306675 L52.69792,27.306675 L52.69792,0.923835 L52.43172,0.923835 L52.43172,0.923835 Z" id="Shape"></path>
                                <path d="M56.31582,13.250105 C56.31582,20.45384 60.712355,27.7211 70.53211,27.7211 C75.194845,27.7211 77.495055,27.207455 79.625865,26.63694 L79.8237,26.584305 L79.8237,24.42022 L79.46191,24.517625 C77.19558,25.125045 74.96676,25.46082 73.187455,25.46082 C65.340605,25.46082 61.526685,21.141725 61.526685,12.25246 C61.526685,6.31257 64.35143,2.76727 69.083135,2.76727 C72.25636,2.76727 74.117945,4.012965 74.617675,6.46987 L74.660025,6.68283 L79.86,6.68283 L79.821885,6.383355 C79.645225,5.005165 78.37049,0.50699 69.373535,0.50699 C60.709935,0.506385 56.31582,4.793415 56.31582,13.250105 L56.31582,13.250105 Z" id="Shape"></path>
                            </g>
                            <path d="M26.94912,20.579075 L23.22716,20.579075 C23.41713,20.05817 23.33727,19.48584 22.98274,18.875395 L16.915195,8.366545 C16.03008,6.83166 15.144965,5.612585 14.27195,4.70932 C14.29131,4.718395 14.30583,4.72747 14.32398,4.73836 C16.75366,6.06815 21.603945,8.80517 30.9034,14.26711 L31.43701,14.57808 C33.15279,15.57875 34.175845,17.12029 33.869715,18.252245 C33.472835,19.73026 30.94938,20.579075 26.94912,20.579075 L26.94912,20.579075 Z M14.8346,31.05828 L14.305225,31.35957 C12.584,32.34814 10.735725,32.4643 9.90748,31.632425 C8.826345,30.547055 9.352695,27.93769 11.354035,24.476485 L13.21562,21.250625 C13.57136,21.67715 14.107995,21.89011 14.814635,21.89011 L26.94912,21.89011 C28.718745,21.89011 30.217935,21.734625 31.436405,21.432125 C31.418255,21.44241 31.403735,21.447855 31.38619,21.46177 C29.015195,22.899855 24.21573,25.73912 14.8346,31.05828 L14.8346,31.05828 Z M8.333875,8.742855 L8.339925,8.13604 C8.34658,6.15285 9.171195,4.489705 10.303755,4.189625 C11.783585,3.79698 13.778875,5.55753 15.7784,9.02176 L17.637565,12.23915 C17.09609,12.334135 16.640525,12.693505 16.285995,13.308185 L10.21845,23.82006 C9.33152,25.35071 8.718655,26.728295 8.3732,27.934665 C8.372595,27.916515 8.37078,27.898365 8.37078,27.87719 C8.31028,25.102055 8.254015,19.531215 8.333875,8.742855 L8.333875,8.742855 Z M18.029,0 C8.071305,0 0,8.071305 0,18.02537 C0,27.980645 8.071305,36.05074 18.029,36.05074 C27.98246,36.05074 36.05437,27.980645 36.05437,18.02537 C36.05437,8.071305 27.98246,0 18.029,0 L18.029,0 Z" id="Shape" fill="#F58025"></path>
                        </g>
                    </g>
                </g>
            </g>
        </g>
    </g>
</svg>