<?xml version="1.0" encoding="UTF-8"?>
<svg width="123px" height="119px" viewBox="0 0 123 119" version="1.1" xmlns="http://www.w3.org/2000/svg" xmlns:xlink="http://www.w3.org/1999/xlink">
    <!-- Generator: Sketch 40.2 (33826) - http://www.bohemiancoding.com/sketch -->
    <title>50k_stock_yards_bank</title>
    <desc>Created with Sketch.</desc>
    <defs></defs>
    <g id="Page-1" stroke="none" stroke-width="1" fill="none" fill-rule="evenodd">
        <g id="Our-partners" transform="translate(-837.000000, -3924.000000)">
            <g id="Content" transform="translate(376.000000, 150.000000)">
                <g id="Support-of-$50k+" transform="translate(0.000000, 3552.000000)">
                    <g id="50k_stock_yards_bank" transform="translate(461.000000, 222.000000)">
                        <rect id="Rectangle-2" fill="#FFFFFF" x="0.593548387" y="0" width="121.875269" height="119"></rect>
                        <g id="Layer_1" transform="translate(1.000000, 14.000000)" fill="#004B85">
                            <g id="Group">
                                <path d="M28.06837,1.095655 L28.189975,8.921935 L26.52078,8.992115 C25.998665,7.00953 25.308965,5.531515 24.451075,4.55686 C23.85999,3.87321 23.12915,3.334155 22.259765,2.939695 C21.39038,2.545235 20.4974,2.34861 19.58143,2.34861 C18.61948,2.34861 17.8596,2.638405 17.303605,3.217995 C16.838965,3.69413 16.60846,4.26162 16.60846,4.92228 C16.60846,6.02338 17.135415,6.93935 18.190535,7.67019 C18.67756,8.018065 19.193625,8.31391 19.73873,8.557725 C20.282625,8.800935 21.268775,9.183295 22.695365,9.704805 C24.086865,10.20393 25.14743,10.661915 25.87827,11.07876 C26.62,11.48532 27.25767,11.966295 27.79128,12.52229 C28.93836,13.705065 29.512505,15.316785 29.512505,17.35745 C29.512505,20.22152 28.50397,22.383185 26.486295,23.844865 C24.631365,25.17889 22.14421,25.843785 19.025435,25.84439 C17.20499,25.84439 15.43718,25.577585 13.720795,25.04458 C13.19868,24.88244 12.781835,24.80137 12.46905,24.800765 C11.99352,24.800765 11.51799,25.126255 11.04246,25.77542 L9.981895,25.77542 L9.87723,16.03613 L11.54703,15.96595 C12.034055,17.89106 12.62514,19.4326 13.32089,20.592385 C14.074115,21.856835 15.083255,22.84843 16.3471,23.56596 C17.24008,24.06569 18.201425,24.314345 19.23416,24.314345 C20.265685,24.314345 21.08909,24.013055 21.70377,23.40987 C22.329945,22.806685 22.643335,22.07645 22.643335,21.217955 C22.643335,20.16344 22.17325,19.333985 21.23429,18.731405 C20.80474,18.4646 20.38729,18.24438 19.981335,18.069535 C19.586875,17.8959 18.416805,17.439125 16.46931,16.69558 C12.25972,15.107455 10.15553,12.394635 10.15553,8.556515 C10.15553,6.167975 10.89726,4.33059 12.381325,3.04315 C13.934965,1.69884 16.20674,1.02608 19.198465,1.025475 C21.042505,1.025475 22.926475,1.280785 24.851585,1.7908 C25.22245,1.88397 25.541285,1.929345 25.80809,1.929345 C26.237035,1.929345 26.625445,1.652255 26.973925,1.09505 L28.06837,1.09505 L28.06837,1.095655 L28.06837,1.095655 Z" id="Shape"></path>
                                <path d="M44.2981,7.634495 L44.2981,8.921935 L40.575535,8.921935 L40.575535,16.2261 C40.575535,18.40652 40.68625,19.94806 40.90526,20.85193 C41.10249,21.61786 41.46186,22.231935 41.98458,22.695365 C42.5073,23.1594 43.103225,23.39051 43.77538,23.39051 C43.97261,23.39051 44.33198,23.35542 44.8547,23.28645 L45.06282,24.20847 C42.777735,25.181915 40.489625,25.66894 38.19365,25.66894 C35.596385,25.66894 34.007655,24.82799 33.428065,23.1473 C33.16126,22.394075 33.02816,20.7878 33.02816,18.329685 L33.02816,8.921935 L30.418795,8.921935 L30.418795,7.634495 L33.02816,7.634495 L33.02816,4.90413 L38.78534,1.70368 L40.57614,1.70368 L40.57614,7.63389 L44.2981,7.63389 L44.2981,7.634495 L44.2981,7.634495 Z" id="Shape"></path>
                                <path d="M55.474265,7.28662 C62.37187,7.28662 65.82158,10.34792 65.82158,16.46931 C65.82158,22.591305 62.38276,25.652605 55.508145,25.652605 C52.25022,25.652605 49.757015,24.985895 48.02974,23.65308 C46.083455,22.15631 45.108195,19.710295 45.108195,16.31322 C45.108195,14.1691 45.564365,12.377695 46.48215,10.93961 C48.036395,8.539575 51.032355,7.32171 55.474265,7.28662 L55.474265,7.28662 L55.474265,7.28662 Z M55.474265,8.660575 C54.430035,8.660575 53.740335,9.1476 53.403955,10.12165 C53.195835,10.701845 53.050635,11.443575 52.96896,12.34805 C52.89878,13.24103 52.8649,14.573845 52.8649,16.347705 C52.8649,18.260715 52.89878,19.66976 52.96896,20.57363 C53.05003,21.46661 53.195835,22.20834 53.403955,22.80003 C53.740335,23.78497 54.43064,24.27744 55.474265,24.27744 C56.505185,24.27744 57.18944,23.78497 57.52582,22.80003 C57.73394,22.20834 57.8743,21.478105 57.94327,20.60751 C58.02434,19.738125 58.064875,18.35933 58.066085,16.468705 C58.066085,14.625875 58.02434,13.246475 57.94327,12.3299 C57.8743,11.40304 57.73394,10.66615 57.52582,10.121045 C57.17734,9.171195 56.49369,8.68417 55.474265,8.660575 L55.474265,8.660575 L55.474265,8.660575 Z" id="Shape"></path>
                                <path d="M84.111335,21.2355 L84.808295,22.15631 C83.449465,23.443145 82.112415,24.35367 80.788675,24.88728 C79.467355,25.409395 77.873785,25.669545 76.00736,25.669545 C73.108805,25.669545 70.83461,24.950805 69.18901,23.513325 C67.379455,21.9252 66.4774,19.594135 66.4774,16.520735 C66.4774,13.414665 67.333475,11.08965 69.049255,9.5469 C70.74265,8.028955 73.352015,7.269075 76.876745,7.26847 C79.48611,7.26847 81.48503,7.651435 82.87653,8.41676 C83.49,8.764635 83.978235,9.22262 84.337605,9.790715 C84.696975,10.359415 84.87545,10.961995 84.87545,11.599665 C84.87545,12.503535 84.58142,13.23982 83.989125,13.807915 C83.408325,14.37601 82.6551,14.66036 81.728845,14.66036 C80.858855,14.66036 80.15645,14.411705 79.62405,13.91258 C79.08923,13.41406 78.824845,12.816925 78.824845,12.121175 C78.824845,11.69223 79.032965,11.118085 79.45102,10.39995 C79.57807,10.191225 79.63978,9.987945 79.63978,9.790715 C79.63978,9.44284 79.456465,9.15849 79.083785,8.93827 C78.724415,8.71805 78.26764,8.608545 77.71104,8.60794 C76.64382,8.60794 75.88999,8.98546 75.450155,9.73808 C74.812485,10.793805 74.494255,12.70137 74.494255,15.46017 C74.494255,18.32424 74.915335,20.3643 75.76415,21.582165 C76.504065,22.672375 77.641465,23.21627 79.173325,23.21627 C79.97253,23.21627 80.720915,23.077725 81.41485,22.80003 C82.11302,22.52173 83.00963,22.00022 84.111335,21.2355 L84.111335,21.2355 L84.111335,21.2355 Z" id="Shape"></path>
                                <path d="M108.060865,7.634495 L108.060865,8.80033 C106.461245,8.90439 105.222205,9.1597 104.338905,9.565655 C103.471335,9.960115 102.263755,10.830105 100.72161,12.174415 L106.07828,20.43569 C106.99425,21.838685 107.73114,22.77825 108.28774,23.253175 C108.84434,23.717815 109.573365,24.013055 110.478445,24.140105 L110.478445,25.305335 L100.008315,25.305335 L95.66139,16.92306 L95.035215,17.4966 L95.035215,20.627475 C95.035215,21.74128 95.08059,22.47696 95.173155,22.83633 C95.243335,23.10253 95.405475,23.34574 95.661995,23.566565 C95.916095,23.78739 96.22404,23.944085 96.582805,24.03665 L96.98271,24.14071 L96.98271,25.30594 L85.41874,25.30594 L85.41874,24.14071 L85.956585,24.03665 C86.88284,23.840025 87.398905,23.381435 87.50478,22.662695 C87.525955,22.488455 87.556205,21.809645 87.591295,20.627475 L87.591295,5.199975 C87.591295,3.86716 87.488445,3.00322 87.277905,2.60876 C87.080675,2.20341 86.609985,1.930555 85.870675,1.7908 L85.349165,1.68674 L85.349165,0.522115 L95.03582,0 L95.03582,16.07001 L99.679195,11.35706 C100.468115,10.556645 100.86197,9.995205 100.86197,9.66911 C100.86197,9.37992 100.705275,9.171195 100.39249,9.042935 C100.08999,8.915885 99.538835,8.834815 98.73963,8.799725 L98.73963,7.63389 L108.060865,7.63389 L108.060865,7.634495 L108.060865,7.634495 Z" id="Shape"></path>
                                <path d="M26.074895,42.55691 L26.074895,47.73692 C26.074895,48.90699 26.21344,49.71164 26.49295,50.15208 C26.78214,50.58163 27.34358,50.84904 28.17848,50.95189 L29.01338,51.05716 L29.01338,52.291965 L14.82976,52.291965 L14.82976,51.05716 L15.647115,50.95189 C16.480805,50.83573 17.02107,50.58163 17.263675,50.18717 C17.51838,49.79271 17.644825,48.97717 17.646035,47.73692 L17.646035,43.04454 L11.962665,32.285825 C11.53372,31.475125 11.110825,30.907635 10.693375,30.58275 C10.28863,30.246975 9.668505,29.985615 8.83421,29.79988 L8.83421,28.566285 L24.215125,28.566285 L24.215125,29.79988 C22.708675,30.05519 21.956055,30.756385 21.956055,31.90286 C21.956055,32.76075 22.210155,33.76263 22.72017,34.910315 L25.258145,40.645715 L27.18749,36.630935 C28.171825,34.592085 28.664295,33.045705 28.6649,31.99119 C28.6649,30.820515 27.899575,30.090885 26.37074,29.800485 L26.37074,28.56689 L35.21705,28.56689 L35.21705,29.800485 C34.03488,30.055795 33.131615,30.49079 32.50544,31.104865 C31.891365,31.70805 31.091555,32.958585 30.107825,34.85889 L26.074895,42.55691 L26.074895,42.55691 L26.074895,42.55691 Z" id="Shape"></path>
                                <path d="M51.08378,49.92702 L51.39717,50.793985 C50.053465,51.490945 48.947525,51.97192 48.077535,52.236305 C47.20936,52.503715 46.32727,52.63621 45.4355,52.63621 C44.463265,52.63621 43.698545,52.433535 43.141945,52.028185 C42.596235,51.611945 42.129175,50.888365 41.734715,49.856235 C40.36681,50.94463 39.24272,51.679705 38.362445,52.063275 C37.493665,52.446845 36.48634,52.63621 35.33805,52.63621 C33.63558,52.63621 32.35419,52.201215 31.496905,51.33425 C30.616025,50.41828 30.17619,49.259705 30.17619,47.85792 C30.17619,45.667215 31.21316,44.115995 33.2871,43.19942 C34.42208,42.701505 36.415555,42.24352 39.26571,41.82607 L41.40499,41.513285 L41.40499,40.191965 C41.40499,39.0225 41.375345,38.199095 41.317265,37.723565 C41.259185,37.23654 41.13758,36.82635 40.95124,36.489365 C40.61607,35.852905 39.956015,35.53407 38.97168,35.53286 C38.49615,35.53286 38.085355,35.61998 37.736875,35.793615 C37.388395,35.95636 37.215365,36.159035 37.215365,36.402245 C37.215365,36.553495 37.296435,36.73197 37.458575,36.9413 C37.899015,37.497295 38.11742,38.018805 38.119235,38.505225 C38.119235,39.317135 37.8004,39.977795 37.16394,40.4866 C36.53716,40.996615 35.73251,41.251925 34.746965,41.251925 C33.599885,41.251925 32.7426,40.938535 32.17511,40.31357 C31.698975,39.780565 31.461815,39.115065 31.461815,38.31465 C31.461815,36.8324 32.17995,35.77849 33.61743,35.152315 C34.96053,34.560625 37.104045,34.265385 40.04858,34.265385 C42.61983,34.265385 44.503195,34.549735 45.69686,35.117225 C47.260785,35.858955 48.198535,37.087105 48.511925,38.801675 C48.592995,39.277205 48.63353,40.18047 48.63353,41.513285 L48.63353,47.092595 C48.63353,48.19188 48.74969,48.964465 48.98201,49.404905 C49.22522,49.832035 49.6463,50.04802 50.25009,50.04802 C50.47031,50.04923 50.74861,50.00809 51.08378,49.92702 L51.08378,49.92702 L51.08378,49.92702 Z M41.40499,42.800725 C40.07036,42.89329 39.121115,43.233905 38.55423,43.82499 C37.98553,44.40579 37.701785,45.33749 37.701785,46.623115 C37.701785,47.539085 37.876025,48.251775 38.223295,48.759975 C38.571775,49.259705 39.05759,49.50836 39.68316,49.50836 C40.28695,49.50836 40.71892,49.32444 40.98633,48.95176 C41.26463,48.5815 41.40499,47.984365 41.40499,47.16338 L41.40499,42.800725 L41.40499,42.800725 L41.40499,42.800725 Z" id="Shape"></path>
                                <path d="M60.413485,34.28414 L60.413485,37.429535 C61.086245,36.351425 61.71847,35.604855 62.309555,35.187405 C63.166235,34.57333 64.17356,34.2672 65.332135,34.266595 C66.572385,34.266595 67.534335,34.632015 68.21738,35.36225 C68.83085,36.034405 69.13819,36.845105 69.13819,37.79556 C69.13819,38.71032 68.86594,39.48109 68.32265,40.106055 C67.75516,40.766715 67.006775,41.097045 66.08052,41.097045 C65.18875,41.097045 64.47606,40.772765 63.94366,40.124205 C63.56009,39.660775 63.36891,39.13987 63.36891,38.559675 C63.36891,38.073255 63.53589,37.5584 63.87348,37.013295 C63.97633,36.85176 64.03078,36.718055 64.03078,36.61339 C64.03078,36.335695 63.7791,36.196545 63.282395,36.196545 C62.63444,36.196545 62.05364,36.653925 61.54544,37.56929 C61.197565,38.195465 60.959195,38.85552 60.83275,39.55127 C60.71659,40.23492 60.65972,41.283385 60.65972,42.696665 L60.65972,47.61592 L60.691785,48.43146 C60.71659,49.38252 60.832145,50.019585 61.040265,50.343865 C61.24778,50.668145 61.667045,50.88413 62.2908,50.98698 L63.074275,51.12734 L63.074275,52.29136 L51.046875,52.29136 L51.046875,51.12734 L51.568385,51.02207 C52.204845,50.895625 52.623505,50.66875 52.82013,50.343865 C53.02825,50.019585 53.149855,49.38252 53.184945,48.43146 L53.220035,47.61592 L53.220035,39.324395 C53.184945,38.096245 53.14441,37.372665 53.09843,37.15184 C52.94718,36.503885 52.43656,36.086435 51.568385,35.9007 L51.011785,35.796035 L51.011785,34.63262 L60.413485,34.28414 L60.413485,34.28414 L60.413485,34.28414 Z" id="Shape"></path>
                                <path d="M88.663355,27.001755 L88.663355,47.615315 C88.69905,48.85496 88.744425,49.590035 88.803715,49.82175 C88.95194,50.44853 89.45167,50.848435 90.29746,51.02086 L90.83833,51.12613 L90.83833,52.29015 L81.243635,52.29015 L81.243635,50.029265 C80.570875,50.910145 79.922315,51.519985 79.295535,51.855155 C78.34508,52.38695 77.22099,52.654965 75.924475,52.654965 C73.537145,52.654965 71.626555,51.738995 70.18968,49.90766 C68.85505,48.216685 68.19076,46.033845 68.19076,43.35551 C68.19076,40.331115 69.031105,37.997025 70.710585,36.35082 C72.134755,34.96053 74.052,34.265385 76.46474,34.265385 C77.50776,34.265385 78.38501,34.398485 79.10617,34.66529 C79.8358,34.932095 80.540625,35.38403 81.226695,36.02049 L81.226695,31.067355 C81.191605,29.72244 80.581765,28.99281 79.400805,28.877255 L79.0009,28.842165 L79.0009,27.52145 L88.663355,27.001755 L88.663355,27.001755 L88.663355,27.001755 Z M78.82787,35.95273 C78.352945,35.95273 77.92884,36.10882 77.557975,36.421605 C77.1859,36.7235 76.915465,37.146395 76.73941,37.689685 C76.393955,38.721815 76.220925,40.442435 76.220925,42.851545 C76.220925,45.540165 76.3994,47.43926 76.75877,48.551855 C77.11814,49.654165 77.796345,50.202295 78.79278,50.202295 C79.34938,50.202295 79.81644,50.029265 80.20001,49.68381 C80.593865,49.32444 80.85341,48.843465 80.98046,48.238465 C81.143205,47.473745 81.22367,46.08043 81.22609,44.050655 C81.22609,41.143025 81.16196,39.28991 81.03491,38.489495 C80.77839,36.82151 80.04392,35.97572 78.82787,35.95273 L78.82787,35.95273 L78.82787,35.95273 Z" id="Shape"></path>
                                <path d="M106.54292,34.33617 L106.59737,39.914875 L105.432745,39.966905 C104.87675,38.657685 104.1689,37.62616 103.31222,36.872935 C102.2208,35.912195 101.07009,35.43122 99.852225,35.430615 C99.238755,35.430615 98.72874,35.581865 98.32339,35.88255 C97.92893,36.18384 97.731095,36.5662 97.731095,37.02963 C97.731095,37.70239 98.055375,38.275325 98.706355,38.749645 C99.35431,39.22578 100.69741,39.86829 102.73626,40.679595 C103.91964,41.15452 104.78721,41.55382 105.345625,41.878705 C105.913115,42.19149 106.38562,42.550255 106.76919,42.955605 C107.62587,43.882465 108.05542,45.128765 108.05542,46.69269 C108.05542,48.848305 107.2665,50.428565 105.691685,51.43589 C104.44115,52.24901 102.517855,52.65436 99.9218,52.65436 C98.171535,52.65436 96.567075,52.438375 95.10842,52.011245 C94.65709,51.8848 94.309215,51.81946 94.0654,51.81946 C93.647345,51.81946 93.225055,52.079005 92.795505,52.600515 L92.030785,52.600515 L91.979965,45.56376 L93.143985,45.509915 C95.00799,49.437575 97.12307,51.401405 99.4862,51.401405 C100.24003,51.401405 100.842005,51.239265 101.293335,50.914985 C101.747085,50.579815 101.97154,50.139375 101.97154,49.593665 C101.97154,49.12116 101.793065,48.732145 101.433695,48.429645 C101.085215,48.116255 100.425765,47.78169 99.45111,47.42232 C97.771025,46.77376 96.61245,46.292785 95.9772,45.98 C95.33711,45.65572 94.76962,45.26126 94.272915,44.79662 C92.91711,43.558185 92.238905,41.970665 92.238905,40.035875 C92.238905,38.101085 92.87113,36.63033 94.13558,35.62119 C95.245755,34.730025 96.97182,34.28414 99.31438,34.283535 C100.99386,34.283535 102.609815,34.451725 104.16285,34.7875 C104.40606,34.84558 104.61418,34.87462 104.78721,34.87462 C105.078215,34.87462 105.40794,34.694935 105.778805,34.335565 L106.54292,34.335565 L106.54292,34.33617 L106.54292,34.33617 Z" id="Shape"></path>
                                <path d="M9.41985,62.39365 C10.336425,62.56063 11.0352,62.820175 11.51799,63.179545 C12.232495,63.71497 12.589445,64.47364 12.589445,65.454345 C12.589445,66.199705 12.37467,66.845845 11.946935,67.393975 C11.36432,68.12058 10.47981,68.568885 9.295825,68.741915 C8.790045,68.81754 8.02835,68.858075 7.010135,68.858075 L1.492535,68.858075 L1.492535,68.266385 L2.15259,68.196205 C2.700115,68.13631 3.038915,68.00926 3.170805,67.812635 C3.307535,67.60996 3.3759,67.139875 3.3759,66.40238 L3.3759,59.12544 C3.3759,58.620265 3.3638,58.28812 3.340205,58.12598 C3.31661,57.966865 3.25611,57.828925 3.16173,57.715185 C3.006245,57.517955 2.67047,57.390905 2.15259,57.331615 L1.492535,57.250545 L1.492535,56.669745 L8.25946,56.669745 C9.55658,56.669745 10.491305,56.87484 11.063635,57.285635 C11.75878,57.79323 12.107865,58.49019 12.107865,59.376515 C12.107865,60.11401 11.881595,60.737765 11.42966,61.25141 C10.976515,61.75598 10.30678,62.13713 9.41985,62.39365 L9.41985,62.39365 L9.41985,62.39365 Z M5.206025,62.11535 L6.91999,62.11535 C7.789375,62.11535 8.51235,61.94837 9.088915,61.607755 C9.779825,61.20785 10.124675,60.551425 10.124675,59.635455 C10.124675,58.752155 9.79737,58.136265 9.14276,57.78476 C8.8572,57.63593 8.55954,57.536105 8.24978,57.48226 C7.94607,57.428415 7.49353,57.40119 6.89216,57.40119 L5.206025,57.40119 L5.206025,62.11535 L5.206025,62.11535 L5.206025,62.11535 Z M5.206025,68.12542 L6.74091,68.12542 C7.734925,68.12542 8.49057,67.98748 9.009055,67.714625 C9.485795,67.46355 9.85424,67.12838 10.11681,66.704275 C10.37817,66.27775 10.50885,65.799195 10.50885,65.275265 C10.50885,64.240715 10.02364,63.52016 9.05443,63.11723 C8.58979,62.920605 7.91461,62.820175 7.02768,62.820175 L5.20663,62.820175 L5.20663,68.12542 L5.206025,68.12542 L5.206025,68.12542 Z" id="Shape"></path>
                                <path d="M23.311255,67.598465 L23.525425,67.8931 C22.78188,68.619705 22.10912,68.981495 21.508355,68.981495 C21.07457,68.981495 20.72851,68.8006 20.4732,68.43639 C20.335865,68.24158 20.213655,67.91972 20.107175,67.471415 C19.60684,68.03346 19.124655,68.433365 18.660015,68.678995 C18.20203,68.91676 17.68778,69.035945 17.11545,69.035945 C16.28297,69.035945 15.639855,68.760065 15.187315,68.21496 C14.82371,67.78541 14.64221,67.234255 14.64221,66.5621 C14.64221,65.557195 15.09233,64.8439 15.990755,64.419795 C16.28781,64.284275 16.782095,64.152385 17.473005,64.02836 L18.409545,63.86622 L20.115645,63.55525 C20.103545,62.91758 20.07874,62.46625 20.04365,62.20489 C20.007955,61.945345 19.938985,61.708185 19.83795,61.491595 C19.56449,60.956775 18.99337,60.689365 18.12459,60.689365 C17.6539,60.689365 17.281825,60.77588 17.008365,60.945885 C16.829285,61.059625 16.74035,61.16187 16.74035,61.250805 C16.74035,61.29134 16.814765,61.3833 16.9642,61.52608 C17.12513,61.688825 17.20499,61.893315 17.20499,62.142575 C17.20499,62.434185 17.103955,62.677395 16.90128,62.866155 C16.70526,63.054915 16.455395,63.152925 16.15108,63.152925 C15.854025,63.152925 15.61021,63.0531 15.41903,62.85829 C15.229665,62.655615 15.134075,62.399095 15.134075,62.08873 C15.134075,61.567825 15.35974,61.138275 15.812885,60.803105 C16.431195,60.35722 17.330225,60.13579 18.508765,60.13579 C19.87788,60.13579 20.80595,60.503025 21.294185,61.24052 C21.461165,61.48615 21.5743,61.756585 21.63359,62.05364 C21.693485,62.34525 21.722525,62.7748 21.72313,63.339265 L21.72313,66.329175 C21.72313,66.81862 21.746725,67.174965 21.793915,67.40184 C21.87075,67.812635 22.079475,68.01773 22.419485,68.01773 C22.62095,68.01773 22.91861,67.876765 23.311255,67.598465 L23.311255,67.598465 L23.311255,67.598465 Z M20.14166,64.117295 C18.85059,64.34417 17.969105,64.5414 17.49902,64.713825 C16.725225,64.99515 16.33863,65.54328 16.33863,66.3564 C16.33863,66.870045 16.48988,67.275395 16.79359,67.57245 C17.102745,67.880395 17.50144,68.03709 17.989675,68.03709 C18.352675,68.03709 18.70055,67.948155 19.03451,67.76968 C19.36726,67.58334 19.63225,67.34013 19.82827,67.03521 C20.036995,66.70246 20.141055,66.205755 20.141055,65.543885 L20.141055,64.117295 L20.14166,64.117295 L20.14166,64.117295 Z" id="Shape"></path>
                                <path d="M27.588,60.143655 L27.588,61.840075 C27.9873,61.23205 28.43258,60.797055 28.926865,60.53509 C29.420545,60.275545 30.03341,60.143655 30.76667,60.143655 C32.99791,60.143655 34.11353,61.285895 34.11353,63.571585 L34.11353,66.43747 C34.120185,67.115675 34.155275,67.5422 34.22122,67.71523 C34.34706,68.03104 34.721555,68.222825 35.345915,68.29603 L35.783935,68.33112 L35.783935,68.858075 L30.86468,68.858075 L30.86468,68.33112 L31.30149,68.29603 C31.980905,68.21738 32.36629,67.988085 32.462485,67.606935 C32.503625,67.464155 32.52722,67.074535 32.533875,66.436865 L32.533875,64.00053 C32.533875,62.993205 32.391095,62.276885 32.105535,61.847335 C31.718335,61.272585 31.09942,60.983395 30.248185,60.983395 C29.807745,60.983395 29.39453,61.08322 29.007935,61.285895 C28.620735,61.48857 28.314605,61.761425 28.08773,62.10688 C27.825765,62.51223 27.69569,63.13901 27.69569,63.98964 L27.69569,66.436865 C27.701135,67.11507 27.739855,67.541595 27.811245,67.714625 C27.931035,68.030435 28.302505,68.22222 28.92747,68.295425 L29.364885,68.330515 L29.364885,68.85747 L24.446235,68.85747 L24.446235,68.330515 L24.883045,68.295425 C25.561855,68.216775 25.947845,67.98748 26.04283,67.60633 C26.084575,67.46355 26.10817,67.07393 26.11543,66.43626 L26.11543,62.86555 C26.102725,62.18795 26.076105,61.779575 26.03436,61.64224 C25.91578,61.2018 25.52858,60.953145 24.874575,60.893855 L24.293775,60.847875 L24.293775,60.32092 L27.588,60.143655 L27.588,60.143655 L27.588,60.143655 Z" id="Shape"></path>
                                <path d="M40.98875,64.473035 L39.95299,65.39203 L39.95299,66.43747 C39.958435,67.115675 39.994735,67.5422 40.05947,67.71523 C40.183495,68.03104 40.5592,68.222825 41.184165,68.29603 L41.622185,68.33112 L41.622185,68.858075 L36.70293,68.858075 L36.70293,68.33112 L37.14095,68.29603 C37.819155,68.21738 38.206355,67.988085 38.300735,67.606935 C38.34248,67.464155 38.36547,67.074535 38.372125,66.436865 L38.372125,59.098215 C38.372125,58.320185 38.27351,57.81259 38.07628,57.58027 C37.882075,57.350975 37.4495,57.223925 36.782185,57.20759 L36.39075,57.1967 L36.39075,56.669745 L39.952385,56.242615 L39.952385,64.62489 L42.210245,62.52554 C42.638585,62.12866 42.90297,61.86609 43.00582,61.742065 C43.105645,61.60957 43.15707,61.463765 43.15707,61.304045 C43.15707,61.137065 43.08568,61.023325 42.943505,60.964035 C42.80012,60.904745 42.511535,60.86663 42.075935,60.847875 L42.075935,60.32092 L46.55717,60.32092 L46.55717,60.847875 C46.05744,60.90172 45.66177,60.98037 45.37016,61.080195 C45.085205,61.183045 44.7579,61.360915 44.388245,61.615015 C43.805025,62.020365 43.06027,62.636255 42.157005,63.46329 L45.352615,67.12354 C45.7743,67.606935 46.12641,67.92819 46.40592,68.08791 C46.68543,68.25005 47.04359,68.330515 47.477375,68.330515 L47.477375,68.85747 L44.56672,68.85747 L40.98875,64.473035 L40.98875,64.473035 L40.98875,64.473035 Z" id="Shape"></path>
                                <path d="M65.64613,61.553305 L65.64613,62.11535 C64.88383,62.204285 64.38168,62.35856 64.139075,62.572125 C63.89284,62.780245 63.59639,63.312645 63.24428,64.17114 C63.071855,64.58738 62.89338,64.94675 62.70946,65.25167 C62.530985,65.55417 62.204285,66.048455 61.728755,66.732105 C62.298665,67.315325 62.874625,67.7237 63.44998,67.955415 C64.027755,68.18229 64.759805,68.290585 65.64613,68.28514 L65.64613,68.85747 L61.26472,68.85747 L60.37053,67.955415 C59.70987,68.371655 59.12302,68.65782 58.611795,68.81149 C58.099965,68.965765 57.47984,69.04381 56.75505,69.04381 C55.45672,69.04381 54.457865,68.746755 53.75546,68.152645 C53.04761,67.550065 52.69429,66.7073 52.69429,65.623745 C52.69429,64.702935 52.946575,63.938215 53.45175,63.330795 C53.96358,62.717325 54.7767,62.20126 55.889295,61.78502 C55.632775,61.29134 55.457325,60.89083 55.36234,60.580465 C55.273405,60.264655 55.228635,59.929485 55.228635,59.570115 C55.228635,58.881625 55.42163,58.26029 55.808225,57.70611 C56.3739,56.896015 57.215455,56.490665 58.33531,56.490665 C59.060705,56.490665 59.62638,56.66672 60.03173,57.01762 C60.454625,57.38788 60.665165,57.89003 60.665165,58.5277 C60.665165,59.35413 60.30277,60.021445 59.57677,60.52662 C59.141775,60.83759 58.481115,61.19091 57.594185,61.588395 C58.499265,63.32777 59.733465,64.902585 61.29981,66.31284 C61.667045,65.770155 61.923565,65.31338 62.067555,64.93828 C62.21578,64.562575 62.291405,64.17356 62.291405,63.76821 C62.291405,63.01196 62.013105,62.53401 61.45953,62.331335 C61.27077,62.25813 60.75168,62.188555 59.906495,62.11535 L59.906495,61.553305 L65.64613,61.553305 L65.64613,61.553305 L65.64613,61.553305 Z M57.35279,61.14251 C58.162885,60.66214 58.695285,60.253765 58.951805,59.9192 C59.21256,59.58161 59.34324,59.133305 59.34324,58.57126 C59.34324,58.09573 59.2295,57.726075 59.00444,57.463505 C58.778775,57.20396 58.45994,57.07207 58.049145,57.07207 C57.6323,57.07207 57.280795,57.204565 56.99584,57.463505 C56.685475,57.74967 56.5312,58.162885 56.5312,58.706175 C56.5312,59.03832 56.582625,59.357155 56.68245,59.659655 C56.78409,59.959735 57.007335,60.45402 57.35279,61.14251 L57.35279,61.14251 L57.35279,61.14251 Z M59.95187,67.536755 C59.08188,66.63228 58.391575,65.83005 57.879745,65.13551 C57.367915,64.43855 56.77199,63.48749 56.09439,62.285355 C55.47608,62.601165 55.041085,62.95267 54.79122,63.33866 C54.5468,63.71981 54.425195,64.233455 54.425195,64.875965 C54.425195,65.820975 54.681715,66.60445 55.192335,67.223365 C55.770715,67.92577 56.586255,68.27667 57.63956,68.27667 C58.0558,68.27667 58.433925,68.22222 58.772725,68.11453 C59.111525,68.00926 59.50417,67.815055 59.95187,67.536755 L59.95187,67.536755 L59.95187,67.536755 Z" id="Shape"></path>
                                <path d="M82.55588,56.669745 L82.59097,60.8025 L81.82383,60.8025 L81.52133,59.821795 C81.23456,58.905825 80.904835,58.2736 80.529735,57.928145 C80.159475,57.57664 79.633125,57.40119 78.949475,57.40119 L77.709225,57.40119 L77.709225,66.401775 C77.709225,66.90695 77.72072,67.24212 77.74492,67.401235 C77.76912,67.56035 77.82599,67.697685 77.923395,67.81203 C78.077065,68.008655 78.414655,68.135705 78.93072,68.1956 L79.59259,68.26578 L79.59259,68.85747 L73.99271,68.85747 L73.99271,68.26578 L74.655185,68.1956 C75.203315,68.135705 75.540905,68.008655 75.6734,67.81203 C75.80892,67.609355 75.8791,67.13927 75.8791,66.401775 L75.8791,57.401795 L74.63885,57.401795 C73.95278,57.401795 73.423405,57.577245 73.0477,57.92875 C72.680465,58.274205 72.353765,58.90643 72.066995,59.8224 L71.762075,60.803105 L70.99433,60.803105 L71.030025,56.67035 L82.55588,56.67035 L82.55588,56.669745 L82.55588,56.669745 Z" id="Shape"></path>
                                <path d="M87.190785,60.143655 L87.190785,62.0367 C87.42371,61.529105 87.701405,61.12678 88.02024,60.821255 C88.55264,60.321525 89.152195,60.07287 89.82435,60.07287 C90.294435,60.07287 90.688895,60.18661 91.00168,60.41893 C91.34774,60.670005 91.520165,61.018485 91.520165,61.46437 C91.520165,61.79954 91.414895,62.07542 91.19891,62.293825 C90.99079,62.515255 90.72943,62.62597 90.413015,62.62597 C90.145605,62.62597 89.91873,62.539455 89.73481,62.366425 C89.55089,62.194 89.459535,61.982855 89.459535,61.73178 C89.459535,61.507325 89.553915,61.28892 89.74328,61.0808 C89.82193,60.991865 89.85944,60.924105 89.85944,60.875705 C89.85944,60.827305 89.823745,60.783745 89.753565,60.74079 C89.68641,60.700255 89.613205,60.678475 89.529715,60.678475 C89.25686,60.678475 88.97009,60.78919 88.673035,61.01062 C88.38203,61.224185 88.124905,61.513375 87.905895,61.875165 C87.465455,62.620525 87.244025,63.59034 87.244025,64.78703 L87.244025,66.43747 C87.24947,67.115675 87.28698,67.5422 87.35958,67.71523 C87.502965,68.036485 87.873225,68.220405 88.475805,68.266385 L89.03785,68.32023 L89.03785,68.858075 L83.99457,68.858075 L83.99457,68.33112 L84.431985,68.29603 C85.11019,68.21738 85.496785,67.988085 85.593585,67.606935 C85.63412,67.464155 85.65832,67.074535 85.663765,66.436865 L85.663765,62.81231 C85.64501,62.16375 85.62081,61.774735 85.582695,61.64224 C85.464115,61.2018 85.07752,60.953145 84.42412,60.893855 L83.84332,60.847875 L83.84332,60.32092 L87.190785,60.143655 L87.190785,60.143655 L87.190785,60.143655 Z" id="Shape"></path>
                                <path d="M100.81115,68.85747 L100.81115,67.42846 C99.89518,68.50052 98.77714,69.035945 97.4534,69.035945 C96.394045,69.035945 95.605125,68.744335 95.08664,68.16051 C94.570575,67.57729 94.311635,66.688545 94.311635,65.491855 L94.311635,62.866155 C94.300745,62.188555 94.274125,61.78018 94.230565,61.642845 C94.111985,61.202405 93.72539,60.95375 93.07199,60.89446 L92.48272,60.84848 L92.48272,60.321525 L95.891895,60.143655 L95.891895,65.143375 C95.891895,67.1429 96.661455,68.141755 98.204205,68.141755 C98.90056,68.141755 99.46805,67.942105 99.90849,67.545225 C100.431815,67.07514 100.694385,66.278355 100.694385,65.151845 L100.694385,62.86676 C100.683495,62.18916 100.656875,61.780785 100.613315,61.64345 C100.494735,61.20301 100.10814,60.954355 99.454135,60.895065 L98.86547,60.849085 L98.86547,60.32213 L102.274645,60.14426 L102.274645,66.438075 C102.28009,67.11628 102.314575,67.542805 102.38294,67.715835 C102.506965,68.031645 102.882065,68.22343 103.50582,68.296635 L103.94384,68.331725 L103.94384,68.85868 L100.81115,68.85868 L100.81115,68.85747 L100.81115,68.85747 Z" id="Shape"></path>
                                <path d="M111.47004,60.321525 L111.50513,62.92847 L110.97031,62.955695 C110.78639,62.236955 110.578875,61.74025 110.346555,61.46437 C109.88736,60.92955 109.30051,60.66214 108.58782,60.66214 C108.082645,60.66214 107.68879,60.794635 107.41049,61.062045 C107.16486,61.294365 107.043255,61.594445 107.043255,61.956235 C107.043255,62.35614 107.19753,62.69131 107.5085,62.964165 C107.82431,63.233995 108.373045,63.50927 109.15894,63.79604 C110.1826,64.158435 110.84205,64.441575 111.13366,64.64425 C111.65759,64.99515 111.92016,65.570505 111.92016,66.375155 C111.92016,67.28568 111.60435,67.979615 110.972125,68.455145 C110.45364,68.84658 109.762125,69.04381 108.892135,69.04381 C108.298025,69.04381 107.6416,68.93854 106.928305,68.73042 C106.571355,68.62515 106.349925,68.5707 106.268855,68.5707 C106.130915,68.5707 106.014755,68.66508 105.920375,68.85747 L105.59912,68.85747 L105.56161,65.785885 L106.099455,65.759265 C106.25373,66.550605 106.47516,67.133825 106.76677,67.50953 C107.27497,68.163535 107.91748,68.490235 108.69551,68.490235 C109.227305,68.490235 109.654435,68.347455 109.981135,68.06371 C110.316305,67.77694 110.480865,67.407285 110.483285,66.955955 C110.483285,66.47256 110.294525,66.10835 109.91882,65.85667 C109.681055,65.697555 109.143815,65.467655 108.30347,65.1706 C107.35846,64.825145 106.693565,64.465775 106.312415,64.09007 C105.937315,63.71497 105.75037,63.225525 105.75037,62.62597 C105.75037,61.829185 106.001445,61.21632 106.509645,60.786165 C107.020265,60.356615 107.74687,60.143655 108.68704,60.143655 C109.37311,60.143655 110.01078,60.259815 110.607915,60.492135 C110.721655,60.53267 110.816035,60.55445 110.89166,60.55445 C110.99451,60.55445 111.08284,60.476405 111.16149,60.32213 L111.47004,60.32213 L111.47004,60.321525 L111.47004,60.321525 Z" id="Shape"></path>
                                <path d="M119.17653,60.321525 L119.17653,60.92955 L116.6319,60.92955 L116.6319,66.41811 C116.6319,67.504085 117.088675,68.04435 117.998595,68.04435 C118.3017,68.04435 118.739115,67.936055 119.311445,67.723095 L119.508675,68.152645 C118.520105,68.74131 117.645275,69.035945 116.882975,69.035945 C116.25922,69.035945 115.797,68.8732 115.499945,68.551945 C115.20047,68.225245 115.05164,67.725515 115.05164,67.052755 L115.05164,60.92955 L112.998875,60.92955 L112.998875,60.321525 L115.05164,60.321525 L115.05164,58.46599 L116.240465,57.2693 L116.6319,57.2693 L116.6319,60.321525 L119.17653,60.321525 L119.17653,60.321525 L119.17653,60.321525 Z" id="Shape"></path>
                                <path d="M32.15333,81.20794 C31.652995,80.643475 30.870125,80.30891 29.932375,80.30891 C28.533615,80.30891 27.364755,81.221855 27.364755,82.429435 C27.364755,83.69933 28.19905,84.252905 28.943805,84.82826 C29.675855,85.368525 31.0244,86.100575 31.0244,87.229505 C31.0244,88.23199 30.343775,88.706915 29.45745,88.706915 C28.611055,88.706915 28.032675,88.29612 27.506325,87.92344 L26.95396,88.666985 C27.59647,89.296185 28.62255,89.60413 29.48286,89.60413 C30.92034,89.60413 32.26828,88.6809 32.26828,87.25673 C32.26828,86.100575 31.54954,85.278985 30.317155,84.379955 C29.161605,83.545055 28.609845,83.069525 28.609845,82.429435 C28.609845,81.7355 29.11018,81.20794 30.008605,81.20794 C30.54766,81.20794 31.12483,81.529195 31.56164,81.85045 L32.15333,81.20794 L32.15333,81.20794 L32.15333,81.20794 Z" id="Shape"></path>
                                <polygon id="Shape" points="35.26666 89.449855 35.26666 80.461975 34.020965 80.461975 34.020965 89.449855"></polygon>
                                <path d="M45.28788,80.461975 L44.259985,80.461975 L44.259985,87.62578 L44.23518,87.62578 C43.63018,86.729775 40.31841,82.80151 38.34248,80.461975 L37.417435,80.461975 L37.417435,89.44925 L38.44533,89.44925 L38.44533,82.298755 L38.47074,82.298755 C39.008585,83.08223 42.36089,87.11274 44.310805,89.44925 L45.287275,89.44925 L45.287275,80.461975 L45.28788,80.461975 L45.28788,80.461975 Z" id="Shape"></path>
                                <path d="M54.743425,81.22125 C54.151735,80.75903 53.253915,80.308305 51.9695,80.308305 C48.74848,80.308305 46.976435,82.671435 46.976435,84.930505 C46.976435,87.4104 48.60691,89.603525 51.81583,89.603525 C52.971985,89.603525 54.03739,89.19273 54.64118,88.78254 L54.15234,88.0396 C53.6272,88.39897 52.855825,88.706915 51.880565,88.706915 C49.916735,88.706915 48.35039,87.17808 48.35039,84.906305 C48.35039,82.802115 49.66082,81.208545 51.880565,81.208545 C52.843725,81.208545 53.806885,81.646565 54.23099,81.99202 L54.743425,81.22125 L54.743425,81.22125 L54.743425,81.22125 Z" id="Shape"></path>
                                <polygon id="Shape" points="60.643385 80.461975 56.21297 80.461975 56.21297 89.449855 61.193935 89.449855 61.193935 88.55264 57.458665 88.55264 57.458665 85.162825 60.578045 85.162825 60.578045 84.262585 57.458665 84.262585 57.458665 81.36161 60.643385 81.36161"></polygon>
                                <polygon id="Shape" points="69.58468 80.308305 68.722555 80.308305 66.272305 81.285985 66.580855 82.042235 68.338985 81.3241 68.338985 89.449855 69.58468 89.449855"></polygon>
                                <path d="M73.754945,89.60292 C76.720655,89.294975 79.18482,86.701945 79.22233,83.506335 C79.249555,81.50439 78.0934,80.308305 76.26993,80.308305 C74.49728,80.308305 73.163255,81.682865 73.149945,83.22259 C73.139055,84.635265 74.035665,86.03463 75.821625,86.03463 C76.51314,86.03463 77.128425,85.856155 77.69652,85.46956 L77.72072,85.49376 C77.128425,87.10064 75.73269,88.43527 73.754945,88.75713 L73.754945,89.60292 L73.754945,89.60292 L73.754945,89.60292 Z M76.25662,81.18374 C77.2827,81.18374 77.8877,81.721585 77.8877,83.04472 C77.8877,84.64918 77.220385,85.162825 76.12957,85.162825 C75.052065,85.162825 74.486995,84.2765 74.486995,83.28793 C74.486995,82.120885 75.140395,81.18374 76.25662,81.18374 L76.25662,81.18374 L76.25662,81.18374 Z" id="Shape"></path>
                                <path d="M83.611605,89.60292 C85.421765,89.60292 86.73159,87.71774 86.73159,84.775625 C86.73159,82.746455 85.781135,80.3077 83.611605,80.3077 C81.44268,80.3077 80.492225,82.746455 80.492225,84.80285 C80.492225,87.71774 81.80205,89.60292 83.611605,89.60292 L83.611605,89.60292 L83.611605,89.60292 Z M83.611605,88.70631 C82.5341,88.70631 81.82625,87.433995 81.82625,84.77623 C81.82625,82.45303 82.5341,81.20794 83.611605,81.20794 C84.689715,81.20794 85.39454,82.453635 85.39454,84.77623 C85.39454,87.4346 84.689715,88.70631 83.611605,88.70631 L83.611605,88.70631 L83.611605,88.70631 Z" id="Shape"></path>
                                <path d="M92.904405,80.461975 L92.159045,80.461975 L87.55076,86.291755 L87.55076,86.86953 L91.69743,86.86953 L91.69743,89.449855 L92.90501,89.449855 L92.90501,86.86953 L93.99643,86.86953 L93.99643,85.9705 L92.90501,85.9705 L92.90501,80.461975 L92.904405,80.461975 L92.904405,80.461975 Z M88.92532,85.9705 L91.67202,82.453635 L91.69622,82.453635 L91.69622,85.9705 L88.92532,85.9705 L88.92532,85.9705 L88.92532,85.9705 Z" id="Shape"></path>
                                <polygon id="Shape" points="0 74.11734 121 74.11734 121 75.751445 0 75.751445"></polygon>
                            </g>
                        </g>
                    </g>
                </g>
            </g>
        </g>
    </g>
</svg>