<?xml version="1.0" encoding="UTF-8"?>
<svg width="123px" height="119px" viewBox="0 0 123 119" version="1.1" xmlns="http://www.w3.org/2000/svg" xmlns:xlink="http://www.w3.org/1999/xlink">
    <!-- Generator: Sketch 40.2 (33826) - http://www.bohemiancoding.com/sketch -->
    <title>50k_2sic</title>
    <desc>Created with Sketch.</desc>
    <defs></defs>
    <g id="Page-1" stroke="none" stroke-width="1" fill="none" fill-rule="evenodd">
        <g id="Our-partners" transform="translate(-376.000000, -3765.000000)">
            <g id="Content" transform="translate(376.000000, 150.000000)">
                <g id="Support-of-$50k+" transform="translate(0.000000, 3552.000000)">
                    <g id="50k_2sic" transform="translate(0.000000, 63.000000)">
                        <rect id="Rectangle-2" fill="#FFFFFF" x="1" y="0" width="121.875269" height="119"></rect>
                        <g id="Layer_1" transform="translate(0.000000, 28.000000)">
                            <path d="M121,14.65794 C121,6.562435 114.43817,0 106.342665,0 L14.65794,0 C6.562435,0 0,6.562435 0,14.65794 L0,14.66762 L0,14.66762 L0,47.91721 L0,47.91721 L0,47.9281 C0,56.023 6.562435,62.58604 14.65794,62.58604 L106.342665,62.58604 C114.43817,62.58604 121,56.023605 121,47.9281 L121,47.91721 L121,47.91721 L121,14.66762 L121,14.66762 L121,14.65794 L121,14.65794 Z" id="Shape" fill="#FFFFFF"></path>
                            <path d="M47.662505,28.0841 C49.075785,26.376185 50.024425,23.714185 50.024425,20.51918 L50.024425,17.313285 C50.024425,11.20823 45.07492,6.258725 38.969865,6.258725 L38.963815,6.258725 L16.933345,6.258725 C13.96945,6.35129 11.102355,7.780905 9.06895,10.180335 C7.35317,12.205875 6.36097,14.72812 6.258725,17.3151 L6.258725,45.11001 C6.258725,48.108995 7.403385,50.89623 9.48277,52.95928 C11.03036,54.49598 13.807915,56.326105 18.25406,56.326105 L18.26132,56.326105 L50.82484,56.326105 L50.82484,28.0841 L47.662505,28.0841 L47.662505,28.0841 Z" id="Shape" fill="#D4127E"></path>
                            <path d="M47.978315,6.258725 L47.97287,6.258725 C41.86721,6.258725 36.917705,11.20823 36.917705,17.313285 L36.917705,20.51918 C36.917705,23.71479 37.866345,26.37679 39.279625,28.0841 L36.11729,28.0841 L36.11729,56.32671 L66.977735,56.32671 C71.423275,56.32671 74.200225,54.49598 75.74842,52.959885 C77.827805,50.896835 78.972465,48.1096 78.972465,45.110615 L78.972465,28.08894 L80.68401,28.08894 L80.68401,17.315705 L80.68401,6.25812 L47.978315,6.258725 L47.978315,6.258725 Z" id="Shape" fill="#99CA3C"></path>
                            <path d="M111.931655,10.180335 C109.898855,7.7803 107.03176,6.35129 104.06726,6.258725 L80.049365,6.258725 C77.084865,6.35129 74.21777,7.780905 72.18497,10.180335 C70.46919,12.205875 69.476385,14.72812 69.37414,17.3151 L69.37414,45.11001 C69.37414,48.108995 70.52001,50.89623 72.59879,52.95928 C74.14638,54.49598 76.92333,56.326105 81.369475,56.326105 L102.746545,56.326105 C107.19269,56.326105 109.96964,54.495375 111.51723,52.95928 C113.596615,50.89623 114.74188,48.108995 114.74188,45.11001 L114.74188,17.315705 C114.639635,14.72812 113.647435,12.205875 111.931655,10.180335 L111.931655,10.180335 Z" id="Shape" fill="#4080C2"></path>
                            <g id="Group" transform="translate(15.125000, 23.595000)" fill="#FFFFFF">
                                <rect id="Rectangle-path" x="54.24914" y="0.044165" width="5.229015" height="24.651935"></rect>
                                <path d="M45.23585,9.76228 L45.23464,9.76228 L45.23464,9.76228 L35.0658,9.76228 C33.849145,9.76228 32.862995,8.775525 32.862995,7.55887 C32.862995,6.342215 33.849145,5.35546 35.0658,5.35546 L50.798825,5.35546 L50.798825,0.139755 L35.0658,0.139755 L35.0658,0.139755 C30.96874,0.139755 27.64729,3.461205 27.64729,7.55887 C27.64729,11.65593 30.96874,14.977985 35.0658,14.977985 L35.0658,14.977985 L45.23464,14.977985 C46.452505,14.977985 47.43805,15.96353 47.43805,17.181395 C47.43805,18.39805 46.452505,19.383595 45.23464,19.383595 L29.504035,19.383595 L29.504035,24.5993 L45.23464,24.5993 L45.23585,24.5993 C49.33291,24.5993 52.653755,21.278455 52.653755,17.181395 C52.653755,13.083125 49.33291,9.76228 45.23585,9.76228 L45.23585,9.76228 Z" id="Shape"></path>
                                <path d="M7.828095,14.97859 L17.998145,14.97859 L17.998145,14.97859 C22.095205,14.97859 25.416655,11.656535 25.416655,7.559475 C25.416655,3.462415 22.09581,0.14036 17.998145,0.14036 L17.998145,0.14036 L2.264515,0.14036 L2.264515,5.356065 L17.998145,5.356065 C19.2148,5.356065 20.20095,6.34282 20.20095,7.559475 C20.20095,8.77613 19.2148,9.762885 17.998145,9.762885 L17.998145,9.762885 L7.828095,9.762885 L7.828095,9.762885 C3.731035,9.762885 0.409585,13.08373 0.409585,17.182 L0.409585,24.599905 L24.746315,24.599905 L24.746315,19.3842 L5.624685,19.3842 L5.624685,17.182 C5.624685,15.964135 6.61144,14.97859 7.828095,14.97859 L7.828095,14.97859 Z" id="Shape"></path>
                                <path d="M69.0789,5.356065 L84.81253,5.356065 L84.81253,0.14036 L69.0789,0.14036 L69.0789,0.14036 C64.98184,0.14036 61.66039,3.46181 61.66039,7.559475 L61.66039,17.182 C61.66039,21.27906 64.981235,24.599905 69.0789,24.599905 L69.0789,24.599905 L84.739325,24.599905 L84.739325,19.3842 L69.0789,19.3842 C67.862245,19.3842 66.8767,18.398655 66.8767,17.182 L66.8767,7.559475 C66.8767,6.342215 67.862245,5.356065 69.0789,5.356065 L69.0789,5.356065 Z" id="Shape"></path>
                            </g>
                        </g>
                    </g>
                </g>
            </g>
        </g>
    </g>
</svg>