<?xml version="1.0" encoding="UTF-8"?>
<svg width="123px" height="119px" viewBox="0 0 123 119" version="1.1" xmlns="http://www.w3.org/2000/svg" xmlns:xlink="http://www.w3.org/1999/xlink">
    <!-- Generator: Sketch 40.2 (33826) - http://www.bohemiancoding.com/sketch -->
    <title>50k_kate_spade</title>
    <desc>Created with Sketch.</desc>
    <defs>
        <linearGradient x1="-2.80914307%" y1="14.8562614%" x2="124.035764%" y2="132.149785%" id="linearGradient-1">
            <stop stop-color="#D8BA5D" offset="0%"></stop>
            <stop stop-color="#D8BA5D" offset="37.42%"></stop>
            <stop stop-color="#A78D39" offset="63.8%"></stop>
            <stop stop-color="#CFAF4B" offset="75.46%"></stop>
            <stop stop-color="#D8BA5D" offset="92.02%"></stop>
        </linearGradient>
    </defs>
    <g id="Page-1" stroke="none" stroke-width="1" fill="none" fill-rule="evenodd">
        <g id="Our-partners" transform="translate(-837.000000, -3765.000000)">
            <g id="Content" transform="translate(376.000000, 150.000000)">
                <g id="Support-of-$50k+" transform="translate(0.000000, 3552.000000)">
                    <g id="50k_kate_spade" transform="translate(461.000000, 63.000000)">
                        <rect id="Rectangle-2" fill="#FFFFFF" x="0.593548387" y="0" width="121.875269" height="119"></rect>
                        <g id="Layer_1" transform="translate(1.000000, 49.000000)">
                            <g id="Group" transform="translate(27.830000, 15.730000)" fill="#000000">
                                <path d="M3.49085,1.203345 L3.336575,1.203345 C3.255505,0.914155 3.18835,0.632225 2.88585,0.50457 C2.59666,0.37752 2.2143,0.382965 1.891835,0.382965 C1.35399,0.382965 1.37456,0.335775 1.360645,0.75988 L1.360645,2.265725 C2.28206,2.305655 2.41516,1.936 2.4563,1.452605 L2.610575,1.452605 C2.60392,1.755105 2.597265,2.063655 2.583955,2.366155 C2.59666,2.642035 2.60392,2.92336 2.610575,3.199845 L2.4563,3.199845 C2.36192,2.49381 2.00618,2.4805 1.360645,2.4805 L1.360645,3.3275 C1.360645,3.53562 1.360645,4.03293 1.427195,4.213825 C1.528835,4.483655 1.857955,4.429205 2.0933,4.44312 L2.0933,4.598 C1.750265,4.59074 1.40118,4.57622 1.05875,4.570775 C0.71632,4.576825 0.379335,4.591345 0.0242,4.598 L0.0242,4.44312 C0.23958,4.44312 0.514855,4.44312 0.60137,4.213825 C0.66913,4.03293 0.66913,3.53562 0.66913,3.32024 L0.66913,1.42538 C0.66913,1.21 0.66913,0.713295 0.60137,0.5324 C0.51425,0.3025 0.23958,0.3025 0.023595,0.3025 L0.023595,0.148225 C0.433785,0.15488 0.83006,0.16819 1.226335,0.17424 C1.94568,0.16819 2.665025,0.15488 3.383765,0.148225 L3.49085,1.203345 L3.49085,1.203345 Z" id="Shape"></path>
                                <path d="M6.050605,2.385515 C6.050605,1.048465 7.22007,0.067155 8.51719,0.067155 C9.801,0.067155 10.92993,1.00793 10.92993,2.338325 C10.92993,3.71591 9.84819,4.669995 8.49057,4.669995 C7.179535,4.6706 6.050605,3.735875 6.050605,2.385515 L6.050605,2.385515 Z M6.891555,2.385515 C6.891555,3.440635 7.307795,4.489705 8.5305,4.489705 C9.72719,4.489705 10.089585,3.368035 10.089585,2.366155 C10.089585,1.358225 9.67274,0.249865 8.49057,0.249865 C7.32776,0.24926 6.891555,1.3915 6.891555,2.385515 L6.891555,2.385515 Z" id="Shape"></path>
                                <path d="M17.573435,2.815065 C17.573435,4.039585 17.09609,4.669995 15.820145,4.669995 C14.617405,4.669995 14.03237,4.2471 14.03237,3.030445 L14.03237,1.42417 C14.03237,1.20879 14.03237,0.712085 13.965215,0.53119 C13.87749,0.3025 13.602215,0.3025 13.38744,0.3025 L13.38744,0.148225 C13.70325,0.15488 14.025715,0.16819 14.341525,0.17424 C14.683955,0.16819 15.01973,0.15488 15.36337,0.148225 L15.36337,0.3025 C15.14799,0.3025 14.86485,0.295845 14.78499,0.53119 C14.72449,0.712085 14.72449,1.20879 14.72449,1.42417 L14.72449,3.077635 C14.72449,3.937945 15.060265,4.427995 15.98168,4.427995 C16.909145,4.427995 17.372575,3.9446 17.372575,3.04436 L17.372575,1.57179 C17.372575,1.336445 17.372575,0.819775 17.30542,0.611655 C17.21104,0.328515 16.94121,0.3025 16.679245,0.3025 L16.679245,0.148225 C16.94121,0.15488 17.19773,0.16819 17.4603,0.17424 C17.70835,0.16819 17.9564,0.15488 18.21292,0.148225 L18.21292,0.3025 C17.99754,0.30976 17.762195,0.3025 17.667815,0.543895 C17.573435,0.785895 17.573435,1.303775 17.573435,1.572395 L17.573435,2.815065 L17.573435,2.815065 Z" id="Shape"></path>
                                <path d="M21.491415,0.706035 C21.28269,0.410795 21.12176,0.310365 20.75876,0.303105 L20.75876,0.14883 C20.97293,0.155485 21.182865,0.168795 21.397035,0.174845 C21.572485,0.168795 21.75338,0.155485 21.927015,0.14883 L24.77717,3.60943 L24.77717,1.741795 C24.77717,1.452605 24.77717,0.98252 24.71667,0.70664 C24.636205,0.329725 24.454705,0.357555 24.11893,0.30371 L24.11893,0.149435 C24.367585,0.15609 24.609585,0.1694 24.858845,0.17545 C25.09298,0.1694 25.321065,0.15609 25.570325,0.149435 L25.570325,0.3025 C25.32046,0.328515 25.14622,0.30976 25.0591,0.59774 C24.991945,0.812515 24.978635,1.50524 24.978635,1.77386 L24.978635,4.669995 L24.77717,4.669995 C24.62955,4.4891 24.48193,4.300945 24.33431,4.112185 L21.693485,0.92807 L21.693485,3.185325 C21.693485,3.434585 21.693485,3.93855 21.793915,4.16603 C21.90826,4.4286 22.12969,4.414685 22.378345,4.442515 L22.378345,4.597395 C22.12364,4.590135 21.86107,4.575615 21.60576,4.57017 C21.357105,4.57622 21.10845,4.59074 20.859795,4.597395 L20.859795,4.442515 C21.12297,4.41529 21.37102,4.402585 21.43757,4.11279 C21.49202,3.871395 21.49202,3.44729 21.49202,3.18593 L21.49202,0.706035 L21.491415,0.706035 Z" id="Shape"></path>
                                <path d="M29.14406,1.438085 C29.14406,1.222705 29.14406,0.726 29.08356,0.543895 C29.009145,0.30976 28.72661,0.316415 28.511835,0.316415 L28.511835,0.148225 C28.787715,0.15488 29.0763,0.16819 29.35823,0.17424 C29.721835,0.16819 30.08423,0.15488 30.446625,0.148225 C31.865955,0.121 32.940435,1.007325 32.940435,2.466585 C32.940435,3.890755 32.006315,4.630065 30.62147,4.597395 C30.225195,4.590135 29.821055,4.575615 29.425385,4.57017 C29.11623,4.57622 28.814335,4.59074 28.510625,4.597395 L28.510625,4.442515 C28.724795,4.442515 29.007935,4.442515 29.08235,4.21322 C29.14285,4.032325 29.14285,3.535015 29.14285,3.319635 L29.14285,1.438085 L29.14406,1.438085 Z M29.83618,3.414015 C29.83618,3.6421 29.80956,3.96517 29.943265,4.15998 C30.09875,4.38867 30.44118,4.41529 30.69649,4.41529 C31.87261,4.41529 32.100695,3.5695 32.100695,2.574275 C32.100695,1.24509 31.717125,0.329725 30.27904,0.329725 C30.198575,0.329725 29.93661,0.31702 29.875505,0.37752 C29.835575,0.41745 29.835575,0.5324 29.835575,0.58564 L29.835575,3.414015 L29.83618,3.414015 Z" id="Shape"></path>
                                <path d="M36.22619,3.138135 C36.12576,3.393445 35.90312,3.890755 35.90312,4.153325 C35.90312,4.442515 36.246155,4.42134 36.448225,4.442515 L36.448225,4.597395 C36.198965,4.590135 35.95757,4.575615 35.70831,4.57017 C35.47236,4.57622 35.24488,4.59074 35.009535,4.597395 L35.009535,4.442515 C35.37314,4.402585 35.520155,4.294895 35.65507,3.964565 C35.843225,3.535015 36.02412,3.111515 36.21167,2.68136 L37.240775,0.040535 L37.46886,0.040535 L38.82648,3.453945 C38.90755,3.62879 39.05517,4.039585 39.175565,4.19386 C39.323185,4.38867 39.52465,4.414685 39.75334,4.442515 L39.75334,4.597395 C39.438135,4.590135 39.115065,4.575615 38.800465,4.57017 C38.47679,4.57622 38.14767,4.59074 37.825205,4.597395 L37.825205,4.442515 C38.013965,4.43586 38.34248,4.449775 38.34248,4.187205 C38.34248,4.01841 38.26867,3.818155 38.207565,3.663275 L37.944995,2.97055 L36.286085,2.97055 L36.22619,3.138135 L36.22619,3.138135 Z M37.859085,2.755775 L37.119775,0.86031 L36.37381,2.755775 L37.859085,2.755775 L37.859085,2.755775 Z" id="Shape"></path>
                                <path d="M45.761595,1.19669 L45.57949,1.19669 C45.540165,0.537845 45.284855,0.36421 44.653235,0.36421 C44.40458,0.36421 44.001045,0.329725 44.001045,0.5445 L44.001045,3.73043 C44.001045,4.227135 44.095425,4.41529 44.74701,4.442515 L44.74701,4.597395 C44.37796,4.590135 44.001045,4.575615 43.630785,4.57017 C43.275045,4.57622 42.92596,4.59074 42.562355,4.597395 L42.562355,4.442515 C43.213335,4.41529 43.308925,4.227135 43.308925,3.73043 L43.308925,0.5445 C43.308925,0.343035 43.012475,0.36421 42.743855,0.36421 C42.077145,0.36421 41.755285,0.39688 41.728665,1.19669 L41.573785,1.19669 L41.573785,0.14883 L45.699885,0.14883 L45.761595,1.19669 L45.761595,1.19669 Z" id="Shape"></path>
                                <path d="M49.22159,1.424775 C49.22159,1.209395 49.22159,0.71269 49.15383,0.531795 C49.06671,0.303105 48.791435,0.303105 48.576055,0.303105 L48.576055,0.14883 C48.89852,0.155485 49.22159,0.168795 49.54466,0.174845 C49.886485,0.168795 50.222865,0.155485 50.559245,0.14883 L50.559245,0.3025 C50.343865,0.3025 50.069195,0.3025 49.98147,0.53119 C49.914315,0.712085 49.914315,1.20879 49.914315,1.42417 L49.914315,3.31903 C49.914315,3.533805 49.914315,4.031115 49.98147,4.212615 C50.0698,4.44191 50.343865,4.44191 50.559245,4.44191 L50.559245,4.59679 C50.243435,4.58953 49.914315,4.57501 49.591245,4.569565 C49.254865,4.575615 48.91183,4.590135 48.576055,4.59679 L48.576055,4.44191 C48.791435,4.44191 49.067315,4.44191 49.15383,4.212615 C49.22159,4.03172 49.22159,3.53441 49.22159,3.31903 L49.22159,1.424775 L49.22159,1.424775 Z" id="Shape"></path>
                                <path d="M53.199465,2.385515 C53.199465,1.048465 54.36893,0.067155 55.66605,0.067155 C56.949255,0.067155 58.076975,1.00793 58.076975,2.338325 C58.076975,3.71591 56.996445,4.669995 55.638825,4.669995 C54.328395,4.6706 53.199465,3.735875 53.199465,2.385515 L53.199465,2.385515 Z M54.0386,2.385515 C54.0386,3.440635 54.45484,4.489705 55.678755,4.489705 C56.875445,4.489705 57.23784,3.368035 57.23784,2.366155 C57.23784,1.358225 56.8216,0.249865 55.63822,0.249865 C54.47662,0.24926 54.0386,1.3915 54.0386,2.385515 L54.0386,2.385515 Z" id="Shape"></path>
                                <path d="M61.18123,0.706035 C60.972505,0.410795 60.81097,0.310365 60.44918,0.303105 L60.44918,0.14883 C60.66335,0.155485 60.872075,0.168795 61.08685,0.174845 C61.261695,0.168795 61.4438,0.155485 61.61804,0.14883 L64.46759,3.60943 L64.46759,1.741795 C64.46759,1.452605 64.46759,0.98252 64.406485,0.70664 C64.32602,0.329725 64.14452,0.357555 63.808745,0.30371 L63.808745,0.149435 C64.056795,0.15609 64.2994,0.1694 64.54866,0.17545 C64.7834,0.1694 65.01209,0.15609 65.26014,0.149435 L65.26014,0.3025 C65.01209,0.328515 64.83785,0.30976 64.750125,0.59774 C64.683575,0.812515 64.669055,1.50524 64.669055,1.77386 L64.669055,4.669995 L64.46759,4.669995 C64.319365,4.4891 64.171745,4.300945 64.024125,4.112185 L61.383905,0.92807 L61.383905,3.185325 C61.383905,3.434585 61.383905,3.93855 61.484335,4.16603 C61.599285,4.4286 61.820715,4.414685 62.068765,4.442515 L62.068765,4.597395 C61.81406,4.590135 61.552095,4.575615 61.29618,4.57017 C61.04813,4.57622 60.799475,4.59074 60.55082,4.597395 L60.55082,4.442515 C60.81218,4.41529 61.062045,4.402585 61.1292,4.11279 C61.18244,3.871395 61.18244,3.44729 61.18244,3.18593 L61.18244,0.706035 L61.18123,0.706035 Z" id="Shape"></path>
                            </g>
                            <g id="Group">
                                <path d="M3.698365,5.53212 L3.698365,5.53212 L3.110305,5.53212 L3.110305,5.53212 L3.10849,5.53212 C3.094575,5.53212 3.080055,5.526675 3.069165,5.5176 L3.069165,5.5176 L3.069165,5.515785 L3.069165,5.515785 L0.549945,3.029235 L0.549945,5.47646 C0.549945,5.507315 0.52514,5.53212 0.494285,5.53212 L0.05566,5.53212 C0.026015,5.53212 0,5.507315 0,5.47646 L0,0.36542 C0,0.33396 0.026015,0.309155 0.05566,0.309155 L0.494285,0.309155 C0.52514,0.309155 0.549945,0.33396 0.549945,0.36542 L0.549945,2.52648 L2.8677,0.32428 L2.8677,0.32428 C2.87738,0.3146 2.8919,0.309155 2.90642,0.309155 L2.90763,0.309155 L2.90763,0.309155 L3.496295,0.309155 L3.496295,0.309155 C3.52594,0.31097 3.54893,0.33517 3.54893,0.36542 C3.54893,0.380545 3.54288,0.395065 3.53078,0.405955 L1.043625,2.78542 L3.734665,5.435925 C3.745555,5.44621 3.751605,5.460125 3.751605,5.47646 C3.751605,5.506105 3.727405,5.530305 3.698365,5.53212 L3.698365,5.53212 Z M10.69277,5.456495 L10.69277,5.45468 L10.69156,5.45226 L10.69156,5.451655 L8.5063,0.345455 L8.50509,0.341825 C8.49662,0.322465 8.476655,0.309155 8.45427,0.309155 L8.30302,0.309155 L8.153585,0.309155 C8.1312,0.309155 8.11063,0.322465 8.102765,0.341825 L8.10095,0.345455 L5.9169,5.451655 L5.91569,5.45226 L5.91327,5.45468 L5.91327,5.456495 C5.91206,5.46315 5.90964,5.4692 5.90964,5.47646 C5.90964,5.507315 5.93626,5.53212 5.9653,5.53212 L6.40574,5.53212 C6.429335,5.53212 6.44809,5.519415 6.455955,5.49945 L6.457165,5.497635 L7.10996,3.99179 L9.4985,3.99179 L10.14948,5.497635 L10.15069,5.49945 C10.15916,5.51881 10.17852,5.53212 10.20151,5.53212 L10.64074,5.53212 C10.67099,5.53212 10.697005,5.507315 10.697005,5.47646 C10.697005,5.4692 10.6964,5.46315 10.69277,5.456495 L10.69277,5.456495 Z M7.331995,3.462415 L8.30302,1.19548 L9.275255,3.462415 L7.331995,3.462415 L7.331995,3.462415 Z M44.827475,5.456495 L44.827475,5.45468 L44.82687,5.45226 L44.82445,5.451655 L42.6404,0.345455 L42.639795,0.341825 C42.63072,0.322465 42.61015,0.309155 42.58837,0.309155 L42.437725,0.309155 L42.287685,0.309155 C42.2653,0.309155 42.24594,0.322465 42.236865,0.341825 L42.23505,0.345455 L40.051605,5.45105 L40.049185,5.451655 L40.049185,5.454075 L40.049185,5.45589 C40.04616,5.462545 40.04616,5.468595 40.04616,5.475855 C40.04616,5.50671 40.070965,5.531515 40.100005,5.531515 L40.53984,5.531515 C40.56404,5.531515 40.58219,5.51881 40.592475,5.498845 L40.592475,5.497635 L41.24406,3.99179 L43.631995,3.99179 L44.28358,5.497635 L44.28479,5.49945 C44.293865,5.51881 44.31262,5.53212 44.33561,5.53212 L44.77484,5.53212 C44.805695,5.53212 44.832315,5.507315 44.832315,5.47646 C44.83292,5.4692 44.831105,5.46315 44.827475,5.456495 L44.827475,5.456495 Z M41.4667,3.462415 L42.43833,1.19548 L43.40996,3.462415 L41.4667,3.462415 L41.4667,3.462415 Z M107.37782,5.456495 L107.37782,5.45468 L107.3754,5.45226 L107.3754,5.451655 L105.190745,0.34606 L105.18893,0.34243 C105.18167,0.32307 105.1611,0.30976 105.13811,0.30976 L104.988675,0.30976 L104.837425,0.30976 C104.81625,0.30976 104.795075,0.32307 104.786605,0.34243 L104.786605,0.34606 L102.60195,5.451655 L102.598925,5.45226 L102.59832,5.45468 L102.59832,5.456495 C102.5959,5.46315 102.5959,5.4692 102.5959,5.47646 C102.5959,5.507315 102.620705,5.53212 102.65277,5.53212 L103.092,5.53212 C103.11499,5.53212 103.132535,5.519415 103.141005,5.49945 L103.144635,5.497635 L103.79501,3.99179 L106.18355,3.99179 L106.83332,5.497635 L106.835135,5.49945 C106.843605,5.51881 106.862965,5.53212 106.885955,5.53212 L107.325185,5.53212 C107.355435,5.53212 107.382055,5.507315 107.382055,5.47646 C107.38145,5.4692 107.38145,5.46315 107.37782,5.456495 L107.37782,5.456495 Z M104.01644,3.462415 L104.988675,1.19548 L105.959095,3.462415 L104.01644,3.462415 L104.01644,3.462415 Z M15.699145,0.309155 L14.82734,0.309155 L13.216225,0.309155 L12.345025,0.309155 C12.313565,0.309155 12.28755,0.33396 12.28755,0.36542 L12.28755,0.781055 C12.28755,0.81191 12.313565,0.83732 12.345025,0.83732 L13.216225,0.83732 L13.74802,0.83732 L13.74802,5.475855 C13.74802,5.50671 13.772825,5.531515 13.803075,5.531515 L14.241095,5.531515 C14.271345,5.531515 14.29615,5.50671 14.29615,5.475855 L14.29615,0.83732 L14.82734,0.83732 L15.699145,0.83732 C15.730605,0.83732 15.75662,0.81191 15.75662,0.781055 L15.75662,0.36542 C15.75662,0.33396 15.730605,0.309155 15.699145,0.309155 L15.699145,0.309155 Z M21.499885,5.003955 L20.62808,5.003955 L19.135545,5.003955 L19.135545,2.9161 L20.040625,2.9161 L20.914245,2.9161 C20.944495,2.9161 20.971115,2.89069 20.971115,2.859835 L20.971115,2.444805 C20.971115,2.41274 20.9451,2.387935 20.914245,2.387935 L20.040625,2.387935 L19.135545,2.387935 L19.135545,0.83732 L20.54459,0.83732 L21.41579,0.83732 C21.447855,0.83732 21.47266,0.81191 21.47266,0.781055 L21.47266,0.36542 C21.47266,0.33396 21.447855,0.309155 21.41579,0.309155 L20.54459,0.309155 L19.07928,0.309155 L18.940735,0.309155 L18.933475,0.309155 L18.643075,0.309155 C18.61101,0.309155 18.587415,0.33396 18.587415,0.36542 L18.587415,5.475855 C18.587415,5.50671 18.61101,5.531515 18.643075,5.531515 L19.079885,5.531515 L19.079885,5.531515 L20.62929,5.531515 L21.501095,5.531515 C21.531345,5.531515 21.557965,5.50671 21.557965,5.475855 L21.557965,5.060825 C21.556755,5.02876 21.530135,5.003955 21.499885,5.003955 L21.499885,5.003955 Z M57.693405,5.003955 L56.82039,5.003955 L55.32846,5.003955 L55.32846,2.9161 L56.23475,2.9161 L57.10716,2.9161 C57.13741,2.9161 57.163425,2.89069 57.163425,2.859835 L57.163425,2.444805 C57.163425,2.41274 57.13741,2.387935 57.10716,2.387935 L56.23475,2.387935 L55.32846,2.387935 L55.32846,0.83732 L56.737505,0.83732 L57.6081,0.83732 C57.64077,0.83732 57.665575,0.81191 57.665575,0.781055 L57.665575,0.36542 C57.665575,0.33396 57.64077,0.309155 57.6081,0.309155 L56.737505,0.309155 L55.2728,0.309155 L55.13365,0.309155 L55.12639,0.309155 L54.83599,0.309155 C54.803925,0.309155 54.779725,0.33396 54.779725,0.36542 L54.779725,5.475855 C54.779725,5.50671 54.803925,5.531515 54.83599,5.531515 L55.273405,5.531515 L55.273405,5.531515 L56.8216,5.531515 L57.694615,5.531515 C57.724865,5.531515 57.751485,5.50671 57.751485,5.475855 L57.751485,5.060825 C57.750275,5.02876 57.72426,5.003955 57.693405,5.003955 L57.693405,5.003955 Z M31.348075,3.63363 C31.348075,3.63363 31.237965,3.3638 30.98205,3.139345 C30.98205,3.139345 30.820515,2.98991 30.611185,2.8677 C30.611185,2.8677 30.459935,2.77816 30.26089,2.688015 C30.059425,2.59908 30.01526,2.57972 29.875505,2.52043 C29.875505,2.52043 29.706105,2.454485 29.422965,2.308075 C29.141035,2.161665 29.04242,1.992265 29.02185,1.9602 C29.02185,1.9602 28.895405,1.781725 28.92989,1.51613 C28.92989,1.51613 28.935335,1.24751 29.16947,1.023055 C29.16947,1.023055 29.361255,0.810095 29.766605,0.77077 C29.766605,0.77077 29.98743,0.74778 30.20644,0.79618 C30.424845,0.846395 30.57549,0.9438 30.743075,1.059355 C30.79813,1.10231 30.85016,1.147685 30.85016,1.147685 L30.87436,1.16765 C30.87436,1.16765 30.88162,1.180355 30.913685,1.17975 C30.94212,1.17733 30.957245,1.15313 30.957245,1.15313 L31.22647,0.84095 C31.22647,0.84095 31.24099,0.827035 31.23857,0.80223 C31.235545,0.77682 31.23131,0.772585 31.212555,0.755645 C31.212555,0.755645 30.883435,0.445885 30.4436,0.316415 C30.4436,0.316415 30.162275,0.23474 29.89668,0.23474 C29.63169,0.23474 29.299545,0.278905 28.98555,0.484605 C28.98555,0.484605 28.51123,0.76351 28.40233,1.343705 C28.337595,1.669195 28.355745,2.13323 28.77743,2.49744 C28.77743,2.49744 29.072065,2.749725 29.37396,2.881615 C29.67646,3.01048 30.193735,3.24885 30.30566,3.31177 C30.30566,3.31177 30.816885,3.547115 30.8913,3.99663 C30.8913,3.99663 31.04981,4.642165 30.377655,4.9731 C30.377655,4.9731 30.17014,5.08079 29.90636,5.08079 C29.64137,5.08079 29.41026,5.010005 29.305595,4.962815 C29.199115,4.9126 29.015195,4.82669 28.80647,4.620385 C28.80647,4.620385 28.66611,4.46732 28.613475,4.40077 C28.58504,4.35721 28.57173,4.34874 28.5439,4.346925 C28.5439,4.346925 28.527565,4.34027 28.49429,4.371125 C28.459805,4.40077 28.189975,4.638535 28.189975,4.638535 C28.189975,4.638535 28.171825,4.65366 28.168195,4.676045 C28.16517,4.69964 28.170615,4.709925 28.1809,4.72626 C28.1809,4.72626 28.3503,4.94648 28.497315,5.072925 C28.497315,5.072925 28.7496,5.31432 29.08961,5.44863 C29.08961,5.44863 29.364885,5.579915 29.77326,5.602905 C29.77326,5.602905 30.11569,5.634365 30.432105,5.53091 C30.432105,5.53091 30.7582,5.440765 31.00746,5.20663 C31.00746,5.20663 31.240385,4.999115 31.343235,4.736545 C31.343235,4.736545 31.45516,4.496965 31.45516,4.18297 C31.454555,4.182365 31.467865,3.917375 31.348075,3.63363 L31.348075,3.63363 Z M36.62065,0.309155 L35.158365,0.309155 L34.91455,0.309155 L34.72095,0.309155 C34.6907,0.309155 34.66529,0.33396 34.66529,0.36542 L34.66529,5.475855 C34.66529,5.50671 34.6907,5.531515 34.72095,5.531515 L35.158365,5.531515 C35.189825,5.531515 35.214025,5.50671 35.214025,5.475855 L35.214025,3.0613 L36.62065,3.0613 C37.78588,3.0613 38.12589,2.196755 38.12589,1.68553 C38.12589,1.173095 37.786485,0.309155 36.62065,0.309155 L36.62065,0.309155 Z M36.62065,2.53616 L35.214025,2.53616 L35.214025,0.835505 L36.62065,0.835505 C37.40957,0.835505 37.57292,1.410255 37.57292,1.68553 C37.57292,1.960805 37.40957,2.53616 36.62065,2.53616 L36.62065,2.53616 Z M99.18249,0.309155 L97.720205,0.309155 L97.476995,0.309155 L97.283395,0.309155 C97.253145,0.309155 97.226525,0.33396 97.226525,0.36542 L97.226525,5.475855 C97.226525,5.50671 97.253145,5.531515 97.283395,5.531515 L97.72081,5.531515 C97.75227,5.531515 97.777075,5.50671 97.777075,5.475855 L97.777075,3.0613 L99.183095,3.0613 C100.348325,3.0613 100.68773,2.196755 100.68773,1.68553 C100.687125,1.173095 100.347115,0.309155 99.18249,0.309155 L99.18249,0.309155 Z M99.18249,2.53616 L97.77647,2.53616 L97.77647,0.835505 L99.18249,0.835505 C99.97141,0.835505 100.134155,1.410255 100.134155,1.68553 C100.134155,1.960805 99.970805,2.53616 99.18249,2.53616 L99.18249,2.53616 Z M49.0776,0.30734 L47.983155,0.30734 L47.888775,0.30734 L47.54695,0.30734 C47.514885,0.30734 47.49008,0.33396 47.49008,0.364815 L47.49008,5.474645 C47.49008,5.506105 47.514885,5.530305 47.54695,5.530305 L47.888775,5.530305 L47.888775,5.53333 L49.076995,5.53333 C51.25318,5.53333 51.84487,3.873815 51.845475,2.920335 C51.845475,1.966855 51.253785,0.30734 49.0776,0.30734 L49.0776,0.30734 Z M51.29795,2.921545 C51.29795,3.591885 50.91196,5.00698 49.0776,5.00698 L48.040025,5.00698 L48.040025,0.834295 L49.0776,0.834295 C50.91196,0.834295 51.29795,2.248785 51.29795,2.919125 L51.29795,2.921545 L51.29795,2.921545 Z M51.89206,2.920335 L51.89206,2.920335 L51.89206,2.921545 L51.89206,2.920335 L51.89206,2.920335 Z M78.34266,4.60526 C78.34508,4.57864 78.317855,4.559885 78.317855,4.559885 L78.160555,4.42376 L78.01596,4.296105 C78.01596,4.296105 78.003255,4.27493 77.971795,4.27493 C77.93973,4.27493 77.92642,4.29792 77.92642,4.29792 C77.904035,4.32938 77.83688,4.406215 77.83688,4.406215 C77.482955,4.798255 77.058245,4.934985 77.058245,4.934985 C76.78055,5.035415 76.461715,5.12072 75.986185,5.054775 C75.5645,4.999115 75.25474,4.809145 75.25474,4.809145 C74.72839,4.5254 74.468845,4.020225 74.468845,4.020225 C74.224425,3.605195 74.196595,3.119985 74.196595,3.119985 C74.15485,2.742465 74.25165,2.35103 74.25165,2.35103 C74.399875,1.706705 74.824585,1.327975 74.824585,1.327975 C75.43624,0.731445 76.16708,0.7623 76.265695,0.7623 C77.163515,0.7623 77.72798,1.371535 77.72798,1.371535 C77.72798,1.371535 77.74371,1.389685 77.75581,1.40118 C77.76791,1.413885 77.780615,1.425985 77.806025,1.425985 C77.82962,1.42659 77.847165,1.405415 77.847165,1.405415 L78.130305,1.12288 C78.137565,1.115015 78.15632,1.10352 78.160555,1.073875 C78.162975,1.04544 78.13938,1.025475 78.13938,1.025475 C78.005675,0.87846 77.822965,0.74052 77.822965,0.74052 C77.447865,0.46222 77.03102,0.34848 77.03102,0.34848 C76.47079,0.18392 75.984975,0.247445 75.984975,0.247445 C75.5645,0.281325 75.21965,0.43318 75.21965,0.43318 C74.829425,0.593505 74.547495,0.84337 74.547495,0.84337 C74.225635,1.11562 74.03869,1.436875 74.03869,1.436875 C73.852955,1.732115 73.76281,2.050345 73.76281,2.050345 C73.64786,2.45146 73.64302,2.717055 73.64302,2.717055 C73.614585,3.019555 73.672665,3.388 73.672665,3.388 C73.727115,3.733455 73.855375,4.029905 73.855375,4.029905 C73.95278,4.279165 74.14275,4.542945 74.14275,4.542945 C74.32304,4.78676 74.49365,4.93438 74.49365,4.93438 C74.9232,5.31795 75.37332,5.448025 75.37332,5.448025 C75.845825,5.62045 76.32922,5.60593 76.32922,5.60593 C76.706135,5.61077 77.0649,5.49219 77.0649,5.49219 C77.48114,5.371795 77.774565,5.157625 77.774565,5.157625 C77.98208,5.0215 78.16358,4.83516 78.16358,4.83516 C78.20956,4.788575 78.287605,4.701455 78.31967,4.660315 C78.351735,4.620385 78.34266,4.60526 78.34266,4.60526 L78.34266,4.60526 Z M83.46459,0.234135 C82.07672,0.234135 80.86067,1.30196 80.86067,2.920335 C80.86067,4.538105 82.07672,5.60714 83.46459,5.60714 C84.851855,5.60714 86.06609,4.538105 86.06609,2.920335 C86.06609,1.30196 84.851855,0.234135 83.46459,0.234135 L83.46459,0.234135 Z M83.46459,5.07958 C82.2921,5.07958 81.41485,4.144855 81.41485,2.92094 C81.41485,1.69642 82.2921,0.761695 83.46459,0.761695 C84.63587,0.761695 85.513725,1.695815 85.513725,2.92094 C85.513725,4.144855 84.63587,5.07958 83.46459,5.07958 L83.46459,5.07958 Z M93.82703,0.309155 L93.537235,0.309155 C93.516665,0.309155 93.499725,0.317625 93.49065,0.332145 L93.49065,0.332145 L93.49065,0.332145 C93.48823,0.33517 93.486415,0.33759 93.48581,0.34122 L91.43123,3.76552 L89.376045,0.34122 C89.376045,0.33759 89.37423,0.335775 89.371205,0.332145 L89.371205,0.332145 L89.371205,0.332145 C89.36092,0.317625 89.34519,0.309155 89.32704,0.309155 L89.03422,0.309155 C89.003365,0.309155 88.977955,0.334565 88.977955,0.366025 L88.977955,5.47646 C88.977955,5.507315 89.003365,5.53212 89.03422,5.53212 L89.46982,5.53212 C89.503095,5.53212 89.527295,5.507315 89.527295,5.47646 L89.527295,1.62261 L91.24247,4.48426 C91.251545,4.5012 91.26909,4.51088 91.286635,4.51209 L91.286635,4.51209 L91.431835,4.51209 L91.574615,4.51209 L91.574615,4.51209 C91.59216,4.51088 91.610915,4.5012 91.61999,4.48426 L93.332745,1.62261 L93.332745,5.47646 C93.332745,5.507315 93.35876,5.53212 93.39022,5.53212 L93.82703,5.53212 C93.85849,5.53212 93.885715,5.507315 93.885715,5.47646 L93.885715,0.36542 C93.885715,0.33396 93.85849,0.309155 93.82703,0.309155 L93.82703,0.309155 Z M114.27482,0.309155 L113.83559,0.309155 C113.804735,0.309155 113.779325,0.334565 113.779325,0.366025 L113.779325,4.472765 L110.438515,0.334565 C110.438515,0.332145 110.436095,0.329725 110.43307,0.327305 L110.43307,0.327305 L110.43307,0.327305 C110.422785,0.316415 110.408265,0.309155 110.39314,0.309155 L110.0979,0.309155 C110.06523,0.309155 110.040425,0.334565 110.040425,0.366025 L110.040425,5.47646 C110.040425,5.507315 110.06523,5.53212 110.0979,5.53212 L110.532895,5.53212 C110.56375,5.53212 110.59037,5.507315 110.59037,5.47646 L110.59037,1.364275 L113.931785,5.507315 C113.9336,5.51034 113.934205,5.512155 113.93723,5.51397 L113.93723,5.514575 L113.93723,5.514575 C113.94691,5.525465 113.959615,5.531515 113.977765,5.531515 L114.27482,5.531515 C114.304465,5.531515 114.33169,5.50671 114.33169,5.475855 L114.33169,0.36542 C114.33169,0.33396 114.304465,0.309155 114.27482,0.309155 L114.27482,0.309155 Z M120.992135,0.39325 L120.992135,0.39325 C120.99758,0.38599 121,0.375705 121,0.36542 C121,0.33396 120.976405,0.30855 120.94434,0.30855 L120.44703,0.30855 C120.424645,0.30855 120.404075,0.32307 120.39621,0.34364 L120.39621,0.34364 L118.969015,2.54463 L118.964175,2.55552 L118.95752,2.54463 L117.531535,0.34364 L117.531535,0.34364 C117.52246,0.32307 117.502495,0.30855 117.478295,0.30855 L116.9828,0.30855 C116.95255,0.30855 116.926535,0.33396 116.926535,0.36542 C116.926535,0.375705 116.930165,0.385385 116.93319,0.392645 L116.93319,0.392645 L116.93319,0.392645 C116.936215,0.395065 116.936215,0.396275 116.938635,0.397485 L118.688295,3.092155 L118.69011,3.092155 L118.69011,5.475855 C118.69011,5.50671 118.7131,5.531515 118.74577,5.531515 L119.18379,5.531515 C119.21404,5.531515 119.23945,5.50671 119.23945,5.475855 L119.23945,3.092155 L119.23945,3.092155 L120.99153,0.397485 C120.989715,0.39688 120.990925,0.39567 120.992135,0.39325 L120.992135,0.39325 L120.992135,0.39325 Z" id="Shape" fill="#000000"></path>
                                <path d="M68.982705,4.926515 C68.982705,4.926515 68.93007,4.977335 68.84416,5.04812 C68.668105,5.20905 68.50415,5.19937 68.50415,5.19937 C68.158695,5.231435 67.882815,4.80733 67.76121,4.636115 C67.63779,4.46611 67.33771,3.89741 67.33771,3.89741 C67.581525,3.23312 67.818685,3.08187 67.818685,3.08187 L67.85075,3.106675 C67.813845,3.1944 67.85075,3.37106 67.85075,3.37106 C67.915485,3.645125 68.099405,3.74737 68.099405,3.74737 C68.33596,3.917375 68.80907,3.88531 68.9821,3.397075 C69.131535,2.89311 68.772165,2.61844 68.772165,2.61844 C68.675365,2.540395 68.31297,2.33893 67.869505,2.61844 C67.408495,2.92457 67.225785,3.743135 67.225785,3.743135 C66.93357,3.20529 66.245685,2.493205 66.245685,2.493205 C67.36191,2.09451 67.393975,1.392105 67.395185,1.197295 C67.395185,0.67155 67.00254,0.000605 65.9329,0.000605 C64.919525,0.000605 64.33933,0.64493 64.33933,1.42901 C64.33933,1.775675 64.45912,2.10177 64.63457,2.355265 C64.80518,2.60876 65.01814,2.835635 65.01814,2.835635 C64.39015,3.092155 64.10701,3.398285 64.10701,3.398285 C63.577635,3.918585 63.672015,4.580455 63.672015,4.580455 C63.7186,5.28528 64.251,5.5902 64.251,5.5902 C64.87657,5.988895 65.597125,5.767465 65.597125,5.767465 C66.280775,5.602905 66.61655,4.999115 66.61655,4.999115 C66.740575,5.25261 66.90695,5.458915 66.90695,5.458915 C67.40305,6.099005 68.188945,5.744475 68.188945,5.744475 C68.64814,5.570235 69.067405,5.012425 69.067405,5.012425 L68.982705,4.926515 L68.982705,4.926515 Z M65.85667,0.137335 C66.34793,0.10527 66.49918,0.67397 66.450175,1.3068 C66.407825,1.91785 66.09141,2.339535 66.09141,2.339535 C65.62072,1.825285 65.45616,1.52823 65.391425,1.133165 C65.33637,0.71632 65.42107,0.172425 65.85667,0.137335 L65.85667,0.137335 Z M65.81795,5.22236 C65.351495,5.21147 65.05807,4.89687 64.93949,4.601025 C64.93949,4.601025 64.764645,4.242865 64.86205,3.68566 C64.941305,3.248245 65.15971,2.980835 65.15971,2.980835 C65.15971,2.980835 65.60015,3.42672 65.895995,3.83691 C65.895995,3.83691 66.27775,4.33664 66.54879,4.85694 C66.54879,4.857545 66.285615,5.23325 65.81795,5.22236 L65.81795,5.22236 Z" id="Shape" fill="url(#linearGradient-1)"></path>
                            </g>
                        </g>
                    </g>
                </g>
            </g>
        </g>
    </g>
</svg>