<?xml version="1.0" encoding="UTF-8"?>
<svg width="122px" height="119px" viewBox="0 0 122 119" version="1.1" xmlns="http://www.w3.org/2000/svg" xmlns:xlink="http://www.w3.org/1999/xlink">
    <!-- Generator: Sketch 40.2 (33826) - http://www.bohemiancoding.com/sketch -->
    <title>50k_medc</title>
    <desc>Created with Sketch.</desc>
    <defs></defs>
    <g id="Page-1" stroke="none" stroke-width="1" fill="none" fill-rule="evenodd">
        <g id="Our-partners" transform="translate(-991.000000, -3765.000000)">
            <g id="Content" transform="translate(376.000000, 150.000000)">
                <g id="Support-of-$50k+" transform="translate(0.000000, 3552.000000)">
                    <g id="50k_medc" transform="translate(615.000000, 63.000000)">
                        <rect id="Rectangle-2-Copy" fill="#FFFFFF" x="0" y="0" width="121.875269" height="119"></rect>
                        <g id="Layer_1" transform="translate(0.000000, 41.000000)">
                            <g id="Group">
                                <g transform="translate(13.310000, 0.000000)" id="Shape" fill="#000000">
                                    <path d="M3.743135,5.86124 L9.514835,5.86124 L9.093755,7.90493 L9.15365,7.90493 C10.355785,6.431755 12.069145,5.47041 14.053545,5.47041 C16.097235,5.47041 17.871095,6.131675 18.261925,8.055575 C19.55481,6.43236 21.297815,5.47041 23.371755,5.47041 C26.40825,5.47041 28.361795,6.883085 28.361795,10.09987 C28.361795,10.82103 28.121005,11.873125 28.00061,12.56464 L26.10696,21.462375 L20.155575,21.462375 L21.74854,14.007565 C21.808435,13.70688 22.10912,12.17381 22.10912,11.723085 C22.10912,10.730885 21.538,10.220265 20.575445,10.220265 C19.402955,10.220265 18.562005,10.88153 18.321215,12.02377 L16.277525,21.462375 L10.32614,21.462375 L12.129645,13.106115 C12.21979,12.715285 12.36983,12.08427 12.36983,11.66319 C12.36983,10.67099 11.828355,10.220265 10.86701,10.220265 C9.393835,10.220265 8.642425,11.18161 8.37199,12.53439 L6.44809,21.462375 L0.4961,21.462375 L3.743135,5.86124 L3.743135,5.86124 Z"></path>
                                    <path d="M34.854655,11.903375 C35.305985,10.24991 36.357475,9.28796 37.951045,9.28796 C39.453865,9.28796 40.205275,10.220265 40.205275,11.39215 C40.205275,11.542795 40.175025,11.75273 40.14538,11.903375 L34.854655,11.903375 L34.854655,11.903375 Z M39.12293,16.923665 C38.822245,17.464535 38.070835,18.035655 36.778555,18.035655 C34.91455,18.035655 34.344035,16.652625 34.344035,14.99916 L45.46575,14.99916 C45.736185,14.03721 45.766435,13.13576 45.766435,12.2936 C45.766435,7.393705 41.588305,5.47041 38.131335,5.47041 C34.25389,5.47041 28.782875,7.814785 28.782875,14.969515 C28.782875,18.756815 31.00746,21.8526 36.53837,21.8526 C43.271415,21.8526 44.443905,17.975155 44.834735,16.92306 L39.12293,16.92306 L39.12293,16.923665 Z"></path>
                                    <path d="M54.362275,17.52443 C52.79956,17.52443 52.16794,16.38219 52.16794,14.969515 C52.16794,12.71468 52.9496,9.799185 55.324225,9.799185 C56.857295,9.799185 57.458665,10.941425 57.458665,12.685035 C57.45927,14.548435 56.67761,17.52443 54.362275,17.52443 L54.362275,17.52443 Z M55.775555,21.462375 L61.60715,21.462375 L66.05632,0 L60.10433,0 L58.481115,7.78514 C57.45927,6.011885 55.775555,5.47041 53.97205,5.47041 C49.312945,5.47041 46.216555,9.588645 46.216555,15.510385 C46.216555,17.404035 46.90807,21.8526 51.927755,21.8526 C53.73126,21.8526 55.054395,21.161085 56.075635,19.688515 L56.136135,19.688515 L55.775555,21.462375 L55.775555,21.462375 Z"></path>
                                    <path d="M75.34428,11.783585 C75.373925,11.032175 75.254135,10.5512 74.9232,10.250515 C74.622515,9.920185 74.11129,9.79979 73.42038,9.79979 C70.83582,9.79979 70.144305,13.19626 70.144305,14.669435 C70.144305,16.14261 70.474635,17.525035 72.187995,17.525035 C73.81121,17.525035 74.472475,16.11236 74.802805,15.240555 L80.514005,15.240555 C79.492765,19.689725 76.63656,21.85381 72.1281,21.85381 C65.514845,21.85381 64.192315,17.64543 64.192315,14.729935 C64.192315,9.409565 67.649285,5.47162 73.601275,5.47162 C77.929445,5.47162 81.14623,7.425165 81.05548,11.78419 L75.34428,11.78419 L75.34428,11.783585 Z"></path>
                                </g>
                                <polygon id="Shape" fill="#000000" points="18.926215 29.564535 19.72179 29.564535 18.571685 34.97505 18.01085 34.97505 19.004865 30.29961 18.98974 30.29961 15.609 34.975655 15.09354 34.975655 13.7093 30.29235 13.694175 30.29235 12.698345 34.975655 12.13751 34.975655 13.287615 29.56514 14.10618 29.56514 15.51583 34.271435"></polygon>
                                <polygon id="Shape" fill="#000000" points="24.572075 29.564535 25.13291 29.564535 23.982805 34.97505 23.42197 34.97505"></polygon>
                                <polygon id="Shape" fill="#000000" points="29.98259 29.564535 30.543425 29.564535 29.502825 34.460195 32.935595 34.460195 32.82609 34.975655 28.832485 34.975655"></polygon>
                                <polygon id="Shape" fill="#000000" points="44.683485 29.564535 45.289695 29.564535 42.32096 34.97505 41.669375 34.97505 41.02263 30.352245 41.007505 30.352245 38.41871 34.97505 37.767125 34.97505 37.120985 29.564535 37.750185 29.564535 38.25899 34.232715 38.27351 34.232715 40.864725 29.564535 41.554425 29.564535 42.16124 34.232715 42.176365 34.232715"></polygon>
                                <path d="M52.087475,32.815805 L49.692885,32.815805 L51.46977,30.12537 L52.087475,32.815805 L52.087475,32.815805 Z M52.57571,34.975655 L53.227295,34.975655 L51.92231,29.56514 L51.27012,29.56514 L47.664925,34.975655 L48.27053,34.975655 L49.355295,33.331265 L52.204845,33.331265 L52.57571,34.975655 L52.57571,34.975655 Z" id="Shape" fill="#000000"></path>
                                <path d="M62.78085,32.88417 C62.57152,33.86911 62.034885,35.11178 59.89016,35.11178 C57.74604,35.11178 57.736965,33.86911 57.946295,32.88417 L58.651725,29.56514 L59.21256,29.56514 L58.50713,32.88417 C58.205235,34.30108 59.0601,34.596925 59.999665,34.596925 C60.939835,34.596925 61.91933,34.301685 62.220015,32.88417 L62.925445,29.56514 L63.48628,29.56514 L62.78085,32.88417 L62.78085,32.88417 Z" id="Shape" fill="#000000"></path>
                                <polygon id="Shape" fill="#000000" points="68.397065 29.564535 68.9579 29.564535 68.336565 32.48971 72.451775 29.564535 73.262475 29.564535 70.104375 31.80001 72.29387 34.975655 71.4989 34.975655 69.58468 32.179345 68.196205 33.149765 67.807795 34.97626 67.24696 34.97626"></polygon>
                                <polygon id="Shape" fill="#000000" points="77.801185 29.564535 82.10576 29.564535 81.99565 30.079995 78.25191 30.079995 77.861685 31.91375 81.468695 31.91375 81.35919 32.42921 77.75218 32.42921 77.32021 34.460195 81.12445 34.460195 81.01434 34.975655 76.64987 34.975655"></polygon>
                                <polygon id="Shape" fill="#000000" points="86.780595 29.564535 91.08517 29.564535 90.97506 30.079995 87.23132 30.079995 86.841095 31.91375 90.448105 31.91375 90.3386 32.42921 86.73159 32.42921 86.29962 34.460195 90.10386 34.460195 89.99375 34.975655 85.62928 34.975655"></polygon>
                                <path d="M111.32121,15.910895 C106.30334,15.910895 102.17724,19.729655 101.691425,24.622895 L5.322185,24.622895 C4.92954,23.58169 3.931895,22.83754 2.75517,22.83754 C1.233595,22.838145 0,24.071135 0,25.5915 C0,27.111865 1.233595,28.34546 2.75517,28.34546 C3.931895,28.34546 4.92954,27.60131 5.322185,26.560105 L101.691425,26.560105 C102.177845,31.45032 106.30334,35.27029 111.32121,35.27029 C116.66578,35.27029 121,30.936675 121,25.5915 C121,20.2433 116.66578,15.910895 111.32121,15.910895 L111.32121,15.910895 Z" id="Shape" fill="#BED73D"></path>
                            </g>
                        </g>
                    </g>
                </g>
            </g>
        </g>
    </g>
</svg>