<?xml version="1.0" encoding="UTF-8"?>
<svg width="122px" height="119px" viewBox="0 0 122 119" version="1.1" xmlns="http://www.w3.org/2000/svg" xmlns:xlink="http://www.w3.org/1999/xlink">
    <!-- Generator: Sketch 40.2 (33826) - http://www.bohemiancoding.com/sketch -->
    <title>50k_intuit</title>
    <desc>Created with Sketch.</desc>
    <defs></defs>
    <g id="Page-1" stroke="none" stroke-width="1" fill="none" fill-rule="evenodd">
        <g id="Our-partners" transform="translate(-684.000000, -3765.000000)">
            <g id="Content" transform="translate(376.000000, 150.000000)">
                <g id="Support-of-$50k+" transform="translate(0.000000, 3552.000000)">
                    <g id="50k_intuit" transform="translate(308.000000, 63.000000)">
                        <rect id="Rectangle-2" fill="#FFFFFF" x="0" y="0" width="121.875269" height="119"></rect>
                        <g id="Layer_1" transform="translate(1.000000, 42.000000)" fill="#4E84C4">
                            <g id="Intuit_Logo_5_">
                                <g id="Group">
                                    <path d="M81.253315,34.73063 L78.0571,34.73063 C77.407935,34.73063 76.91002,34.381545 76.86162,33.73359 L76.810195,32.48366 C74.511195,34.33375 71.765705,35.33079 68.86957,35.33079 C63.27816,35.33079 60.98279,31.788515 60.98279,26.39373 L60.98279,11.62568 C60.98279,10.77626 61.481915,10.47618 62.27749,10.47618 L65.773785,10.47618 C66.5742,10.47618 67.023715,10.724835 67.023715,11.62568 L67.023715,25.344055 C67.023715,28.09136 67.72249,29.98743 70.719055,29.98743 C72.612705,29.98743 75.01153,28.94078 76.50951,27.59284 L76.50951,11.62568 C76.50951,10.77626 76.959025,10.47618 77.756415,10.47618 L81.30111,10.47618 C82.100315,10.47618 82.550435,10.724835 82.550435,11.62568 L82.550435,33.333685 C82.551645,34.381545 82.24975,34.73063 81.253315,34.73063 L81.253315,34.73063 Z" id="Shape"></path>
                                    <path d="M0,11.472615 C0,10.874875 0.30008,10.47497 0.89782,10.47497 L5.12193,10.47497 C5.72088,10.47497 6.069965,10.82466 6.069965,11.472615 L6.069965,33.482515 C6.069965,34.381545 5.66885,34.73063 4.82185,34.73063 L1.29833,34.73063 C0.40293,34.73063 0,34.381545 0,33.482515 L0,11.472615 L0,11.472615 Z" id="Shape"></path>
                                    <path d="M88.798875,11.472615 C88.798875,10.874875 89.10077,10.47497 89.697905,10.47497 L93.9202,10.47497 C94.520965,10.47497 94.870655,10.82466 94.870655,11.472615 L94.870655,33.482515 C94.870655,34.381545 94.46954,34.73063 93.620725,34.73063 L90.097205,34.73063 C89.200595,34.73063 88.798875,34.381545 88.798875,33.482515 L88.798875,11.472615 L88.798875,11.472615 Z" id="Shape"></path>
                                    <path d="M32.83335,34.73063 L29.239045,34.73063 C28.341225,34.73063 28.04175,34.28172 28.04175,33.4323 L28.04175,19.850655 C28.04175,17.106375 27.294575,15.15888 24.246585,15.15888 C22.298485,15.15888 19.90329,16.20916 18.3557,17.555285 L18.3557,33.482515 C18.3557,34.333145 18.00601,34.73063 17.158405,34.73063 L13.512675,34.73063 C12.763685,34.73063 12.313565,34.333145 12.313565,33.53273 L12.313565,11.729135 C12.313565,10.929325 12.665675,10.481625 13.56289,10.481625 L16.8069,10.481625 C17.50507,10.481625 17.95761,10.680065 18.00601,11.429055 L18.055015,12.76187 C20.35341,10.916015 23.249545,9.868155 26.14568,9.868155 C31.737695,9.868155 34.03367,13.362635 34.03367,18.80461 L34.03367,33.4323 C34.033065,34.28172 33.734195,34.73063 32.83335,34.73063 L32.83335,34.73063 Z" id="Shape"></path>
                                    <g transform="translate(36.905000, 0.000000)">
                                        <circle id="Oval" cx="10.06115" cy="3.662065" r="3.662065"></circle>
                                        <path d="M18.933475,10.47497 C19.532425,10.47497 19.882115,10.674015 19.882115,11.323785 L19.882115,14.840045 C19.882115,15.438995 19.48342,15.788685 18.882655,15.788685 L13.096435,15.788685 L13.096435,33.482515 C13.096435,34.381545 12.697135,34.73063 11.798105,34.73063 L8.32359,34.73063 C7.42456,34.73063 7.025865,34.381545 7.025865,33.482515 L7.025865,15.788685 L1.238435,15.788685 C0.639485,15.788685 0.240185,15.438995 0.240185,14.840045 L0.240185,11.323785 C0.240185,10.674015 0.589875,10.47497 1.188825,10.47497 L18.933475,10.47497 L18.933475,10.47497 Z" id="Shape"></path>
                                    </g>
                                    <g transform="translate(98.615000, 0.000000)" id="Shape">
                                        <path d="M13.971265,3.662065 C13.971265,1.63955 12.33111,0 10.30799,0 C8.286685,0 6.64774,1.63955 6.64774,3.662065 C6.64774,5.68458 8.286685,7.32292 10.30799,7.32292 C12.33111,7.32292 13.971265,5.68458 13.971265,3.662065 L13.971265,3.662065 Z"></path>
                                        <path d="M19.18213,10.47497 C19.779265,10.47497 20.128955,10.674015 20.128955,11.323785 L20.128955,14.840045 C20.128955,15.438995 19.73026,15.788685 19.1301,15.788685 L13.343275,15.788685 L13.343275,33.482515 C13.343275,34.381545 12.946395,34.73063 12.04555,34.73063 L8.571035,34.73063 C7.672005,34.73063 7.27331,34.381545 7.27331,33.482515 L7.2721,15.788685 L1.48709,15.788685 C0.88693,15.788685 0.487025,15.438995 0.487025,14.840045 L0.487025,11.323785 C0.487025,10.674015 0.837925,10.47497 1.43506,10.47497 L19.18213,10.47497 L19.18213,10.47497 Z"></path>
                                    </g>
                                </g>
                                <path d="M119.3786,31.652995 C120.261295,31.652995 121,32.34814 121,33.261085 C121,34.18976 120.261295,34.887325 119.3786,34.887325 C118.49288,34.887325 117.74994,34.18976 117.74994,33.261085 C117.74994,32.34814 118.49288,31.652995 119.3786,31.652995 L119.3786,31.652995 Z M119.3786,34.650165 C120.128195,34.650165 120.70597,34.053635 120.70597,33.261085 C120.70597,32.487895 120.128195,31.890155 119.3786,31.890155 C118.62235,31.890155 118.042155,32.487895 118.042155,33.261085 C118.042155,34.053635 118.62235,34.650165 119.3786,34.650165 L119.3786,34.650165 Z M118.747585,32.32273 L119.47782,32.32273 C119.92673,32.32273 120.140295,32.499995 120.140295,32.864205 C120.140295,33.204215 119.924915,33.34881 119.642985,33.378455 L120.18446,34.213355 L119.86865,34.213355 L119.35319,33.399025 L119.041615,33.399025 L119.041615,34.213355 L118.74819,34.213355 L118.74819,32.32273 L118.747585,32.32273 Z M119.041615,33.16126 L119.34956,33.16126 C119.609105,33.16126 119.84566,33.14916 119.84566,32.850895 C119.84566,32.599215 119.63028,32.5611 119.431235,32.5611 L119.04101,32.5611 L119.04101,33.16126 L119.041615,33.16126 Z" id="Shape"></path>
                            </g>
                        </g>
                    </g>
                </g>
            </g>
        </g>
    </g>
</svg>