<?xml version="1.0" encoding="UTF-8"?>
<svg width="300px" height="225px" viewBox="0 0 300 225" version="1.1" xmlns="http://www.w3.org/2000/svg" xmlns:xlink="http://www.w3.org/1999/xlink">
    <!-- Generator: Sketch 40.2 (33826) - http://www.bohemiancoding.com/sketch -->
    <title>corps_5m_hp_foundation</title>
    <desc>Created with Sketch.</desc>
    <defs></defs>
    <g id="Page-1" stroke="none" stroke-width="1" fill="none" fill-rule="evenodd">
        <g id="Our-partners" transform="translate(-814.000000, -486.000000)">
            <g id="Content" transform="translate(376.000000, 150.000000)">
                <g id="Support-of-$5m+" transform="translate(0.000000, 289.000000)">
                    <g id="corps_5m_hp_foundation" transform="translate(438.000000, 47.000000)">
                        <rect id="Rectangle-2" fill="#FFFFFF" x="0" y="0" width="300" height="225"></rect>
                        <g id="Layer_1" transform="translate(0.000000, 53.000000)">
                            <path d="M58.3776119,117.189107 C57.7970149,117.189107 57.2179104,117.17862 56.641791,117.162141 L68.5716418,84.2507374 L84.9895522,84.2507374 C87.8716418,84.2507374 91.0343284,82.027581 92.019403,79.3100569 L104.962687,43.6256997 C107.080597,37.7831727 103.746269,33.0042852 97.5537313,33.0042852 L74.7776119,33.0042852 L55.6656716,85.7173615 L55.6597015,85.7173615 L44.8253731,115.598142 C19.1208955,109.463489 0,86.2716525 0,58.5945535 C0,31.7174312 18.0328358,9.06790152 42.6164179,2.16323307 L31.4373134,33.0057833 L31.4343284,33.0057833 L12.8477612,84.2522355 L25.219403,84.2537336 L41.0253731,40.7059343 L50.3238806,40.7059343 L34.5179104,84.2537336 L46.8850746,84.2552317 L61.6149254,43.6271978 C63.7328358,37.7846708 60.4,33.0057833 54.2119403,33.0057833 L43.8104478,33.0057833 L55.7537313,0.0629195215 C56.6238806,0.0239693415 57.4970149,0 58.3776119,0 C90.6179104,0 116.753731,26.2344443 116.753731,58.5945535 C116.755224,90.9561607 90.6179104,117.189107 58.3776119,117.189107 L58.3776119,117.189107 Z M93.6985075,40.6744745 L84.4029851,40.6744745 L71.3835821,76.525119 L80.680597,76.525119 L93.6985075,40.6744745 L93.6985075,40.6744745 Z" id="Shape" fill="#0C95D3"></path>
                            <g id="Group" transform="translate(140.298507, 43.444432)" fill="#000000">
                                <path d="M13.6507463,5.00210196 L3.8358209,5.00210196 L3.8358209,12.775659 L11.6880597,12.775659 C12.2343284,12.775659 12.5104478,13.0513065 12.5104478,13.5996052 L12.5104478,15.8931715 L3.8358209,15.8931715 L3.8358209,26.7497852 L0.943283582,26.7497852 C0.371641791,26.7497852 0.0865671642,26.4756358 0.0865671642,25.925839 L0.0865671642,1.92204157 L12.8298507,1.92204157 C13.3761194,1.92204157 13.6507463,2.19619092 13.6507463,2.74598769 L13.6507463,5.00210196" id="Shape"></path>
                                <path d="M22.7522388,27.1797352 C20.061194,27.1797352 18.1179104,26.4157125 16.9164179,24.8876669 C15.7149254,23.3596214 15.1134328,20.9342237 15.1134328,17.6144699 C15.1134328,14.3186854 15.7149254,11.9052723 16.9164179,10.3772268 C18.1179104,8.84918128 20.061194,8.08515852 22.7522388,8.08515852 C25.4402985,8.08515852 27.3850746,8.84918128 28.5865672,10.3772268 C29.7895522,11.9052723 30.3895522,14.3171873 30.3895522,17.6144699 C30.3895522,20.9357218 29.7895522,23.3596214 28.5865672,24.8876669 C27.3865672,26.4157125 25.4402985,27.1797352 22.7522388,27.1797352 L22.7522388,27.1797352 Z M26.7507463,17.6129718 C26.7507463,16.3246197 26.6716418,15.2489955 26.519403,14.3890953 C26.3626866,13.5306933 26.1253731,12.8430728 25.8044776,12.3292301 C25.4820896,11.8153873 25.0656716,11.4513529 24.5552239,11.2371269 C24.041791,11.0214029 23.441791,10.9150389 22.7522388,10.9150389 C22.061194,10.9150389 21.461194,11.0229009 20.9507463,11.2371269 C20.4373134,11.452851 20.0223881,11.8168854 19.6985075,12.3292301 C19.3791045,12.8430728 19.1402985,13.5291952 18.9850746,14.3890953 C18.8298507,15.2489955 18.7537313,16.3246197 18.7537313,17.6129718 C18.7537313,18.9282894 18.8313433,20.0203925 18.9850746,20.8907792 C19.1402985,21.7641621 19.3791045,22.4562769 19.6985075,22.9701196 C20.0223881,23.4839624 20.4373134,23.8420044 20.9507463,24.0457438 C21.461194,24.2479851 22.061194,24.3513529 22.7522388,24.3513529 C23.441791,24.3513529 24.041791,24.2494832 24.5552239,24.0457438 C25.0656716,23.8420044 25.4820896,23.4839624 25.8044776,22.9701196 C26.1253731,22.4562769 26.361194,21.7641621 26.519403,20.8907792 C26.6716418,20.0203925 26.7507463,18.9282894 26.7507463,17.6129718 L26.7507463,17.6129718 Z" id="Shape"></path>
                                <path d="M47.3731343,8.5136105 C47.9447761,8.5136105 48.2298507,8.78925793 48.2298507,9.33755661 L48.2298507,26.7512832 L46.0522388,26.7512832 C45.7895522,26.7512832 45.5716418,26.6913599 45.3925373,26.5715132 C45.2149254,26.4516665 45.1014925,26.2134711 45.0522388,25.8554291 L44.9089552,24.7438509 C43.4343284,26.3438044 41.541791,27.1437812 39.2328358,27.1437812 C38.258209,27.1437812 37.4253731,26.9939728 36.7343284,26.6973522 C36.0447761,26.3977355 35.4850746,25.9797701 35.0567164,25.443456 C34.6298507,24.9056439 34.3134328,24.2479851 34.1104478,23.4734758 C33.9074627,22.6959703 33.8074627,21.8435606 33.8074627,20.9117524 L33.8074627,8.51510858 L36.5567164,8.51510858 C36.819403,8.51510858 37.0253731,8.58701661 37.180597,8.73083266 C37.3358209,8.87464871 37.4134328,9.07689002 37.4134328,9.3390547 L37.4134328,20.6256184 C37.4134328,21.8675299 37.6746269,22.7573917 38.1985075,23.2952038 C38.7208955,23.8315178 39.4820896,24.1011729 40.4820896,24.1011729 C41.4567164,24.1011729 42.2895522,23.9049239 42.980597,23.5094298 C43.6701493,23.1154337 44.2179104,22.7154454 44.6238806,22.3094646 L44.6238806,8.51510858 L47.3731343,8.51510858" id="Shape"></path>
                                <path d="M53.1164179,26.7497852 C52.5447761,26.7497852 52.2597015,26.4756358 52.2597015,25.925839 L52.2597015,8.5136105 L54.4373134,8.5136105 C54.6985075,8.5136105 54.9179104,8.57353385 55.0970149,8.69338056 C55.2761194,8.81322727 55.3865672,9.05292068 55.4358209,9.41096272 L55.580597,10.5195448 C57.0537313,8.9210893 58.9477612,8.11961445 61.2567164,8.11961445 C63.2074627,8.11961445 64.5985075,8.68738822 65.4328358,9.8214377 C66.2656716,10.9569853 66.6820896,12.4670538 66.6820896,14.3531413 L66.6820896,26.7497852 L63.9328358,26.7497852 C63.6701493,26.7497852 63.4626866,26.6778771 63.3089552,26.5340611 C63.1537313,26.390245 63.0761194,26.1895018 63.0761194,25.924341 L63.0761194,14.6377773 C63.0761194,13.3958658 62.8134328,12.5060039 62.2910448,11.9696899 C61.7686567,11.4333759 61.0074627,11.1637208 60.0074627,11.1637208 C59.0328358,11.1637208 58.1985075,11.3599698 57.5089552,11.7554639 C56.8179104,12.14946 56.2716418,12.5494484 55.8671642,12.9554291 L55.8671642,26.7497852 L53.1164179,26.7497852" id="Shape"></path>
                                <path d="M76.3029851,27.0718732 C74.1597015,27.0718732 72.6074627,26.2778887 71.6447761,24.6899199 C70.6820896,23.101951 70.1985075,20.8023923 70.1985075,17.7927418 C70.1985075,14.3531413 70.7880597,11.8872953 71.9656716,10.3952038 C73.1432836,8.9031123 74.9223881,8.15556846 77.3014925,8.15556846 C78.3014925,8.15556846 79.1283582,8.24994774 79.7820896,8.44170247 C80.4358209,8.63345721 80.9313433,8.82371385 81.2626866,9.01546859 L81.2626866,1.02618743 L84.0119403,1.02618743 C84.2746269,1.02618743 84.4820896,1.09809546 84.6373134,1.24191151 C84.7925373,1.38572756 84.8686567,1.58796888 84.8686567,1.85013355 L84.8686567,26.7512832 L82.6925373,26.7512832 C82.4283582,26.7512832 82.2089552,26.6913599 82.0313433,26.5715132 C81.8537313,26.4516665 81.741791,26.2134711 81.6925373,25.8554291 L81.5492537,24.7438509 C81.0014925,25.3415863 80.3044776,25.8779004 79.461194,26.3557891 C78.6164179,26.8321798 77.5641791,27.0718732 76.3029851,27.0718732 L76.3029851,27.0718732 Z M81.2626866,11.559215 C80.8104478,11.3689583 80.3298507,11.2131576 79.8179104,11.0933109 C79.3059701,10.9734642 78.7402985,10.9135408 78.1223881,10.9135408 C77.2880597,10.9135408 76.5925373,11.0333875 76.0343284,11.2715829 C75.4746269,11.5097782 75.0358209,11.89928 74.7134328,12.435594 C74.3925373,12.9734061 74.1656716,13.6670189 74.0358209,14.5149344 C73.9044776,15.3628498 73.838806,16.3950296 73.838806,17.6129718 C73.838806,19.8840669 74.0880597,21.5319591 74.5895522,22.5581466 C75.0880597,23.5858321 76.0164179,24.0981768 77.3716418,24.0981768 C78.3238806,24.0981768 79.1164179,23.9139124 79.7462687,23.5423876 C80.3776119,23.1723609 80.8835821,22.7963419 81.2626866,22.4143305 L81.2626866,11.559215 L81.2626866,11.559215 Z" id="Shape"></path>
                                <path d="M93.4925373,27.0718732 C91.6373134,27.0718732 90.2567164,26.5595285 89.3537313,25.531843 C88.4492537,24.5041575 87.9970149,23.083974 87.9970149,21.2697944 C87.9970149,20.1462316 88.1686567,19.2159215 88.5149254,18.47437 C88.8597015,17.7343166 89.3477612,17.1425735 89.9791045,16.7006387 C90.6074627,16.258704 91.3522388,15.9486006 92.2089552,15.7688306 C93.0656716,15.5890605 93.9925373,15.4991755 94.9940299,15.4991755 L98.6686567,15.4991755 L98.6686567,14.2812333 C98.6686567,13.0393218 98.3477612,12.1899083 97.7044776,11.7374869 C97.0626866,11.2835675 95.9686567,11.0558588 94.4208955,11.0558588 C93.3746269,11.0558588 92.4343284,11.1097898 91.6,11.2176518 C90.7671642,11.3240158 90.219403,11.3779468 89.958209,11.3779468 C89.6477612,11.3779468 89.4298507,11.3015445 89.2985075,11.1457438 C89.1671642,10.9899431 89.1029851,10.7936941 89.1029851,10.5540007 L89.1029851,9.01247242 C89.9358209,8.75030775 90.8746269,8.53608176 91.9223881,8.36679828 C92.9686567,8.20051097 94.0402985,8.11661828 95.1343284,8.11661828 C96.4910448,8.11661828 97.6208955,8.26642666 98.5238806,8.56454535 C99.4283582,8.86266403 100.153731,9.28662176 100.702985,9.83641853 C101.247761,10.3862153 101.635821,11.0543607 101.861194,11.8423528 C102.086567,12.631843 102.201493,13.5037278 102.201493,14.4595053 L102.201493,26.7482871 L100.025373,26.7482871 C99.619403,26.7482871 99.3701493,26.658402 99.2731343,26.478632 C99.1791045,26.2988619 99.1074627,26.0906283 99.0597015,25.8524329 L98.9164179,24.7768087 C98.2970149,25.3745442 97.5537313,25.9048659 96.6850746,26.3707699 C95.8164179,26.836674 94.7522388,27.0718732 93.4925373,27.0718732 L93.4925373,27.0718732 Z M94.8835821,18.0429218 C94.1701493,18.0429218 93.5746269,18.1193241 93.1,18.2766229 C92.6238806,18.4324236 92.2492537,18.6466496 91.9761194,18.920799 C91.7014925,19.1949483 91.5104478,19.5230287 91.4044776,19.9050401 C91.2985075,20.2870514 91.2447761,20.7065149 91.2447761,21.1589362 C91.2447761,22.2570317 91.5059701,23.0585066 92.0298507,23.5588666 C92.5522388,24.0607247 93.3507463,24.3109047 94.4208955,24.3109047 C95.3731343,24.3109047 96.1940299,24.1266403 96.8835821,23.7566136 C97.5731343,23.3850888 98.1686567,22.9611311 98.6671642,22.4847404 L98.6671642,18.0414238 L94.8835821,18.0414238 L94.8835821,18.0429218 Z" id="Shape"></path>
                                <path d="M114.897015,26.6419231 C114.350746,26.7857392 113.832836,26.8921031 113.344776,26.9640111 C112.858209,27.0359192 112.350746,27.0703751 111.826866,27.0703751 C110.114925,27.0703751 108.871642,26.6898618 108.097015,25.924341 C107.322388,25.1603182 106.937313,23.9543607 106.937313,22.3049704 L106.937313,11.3779468 L105.68806,11.3779468 C105.11791,11.3779468 104.832836,11.1037975 104.832836,10.5540007 L104.832836,8.51061433 L107.008955,8.51061433 L107.18806,3.78266171 L109.686567,3.78266171 C110.258209,3.78266171 110.543284,4.05681106 110.543284,4.60660783 L110.543284,8.51061433 L114.041791,8.51061433 C114.302985,8.51061433 114.510448,8.58252236 114.665672,8.7263384 C114.820896,8.87015445 114.897015,9.07239577 114.897015,9.33456045 L114.897015,11.3779468 L110.543284,11.3779468 L110.543284,22.1252003 C110.543284,22.7708745 110.649254,23.2712345 110.864179,23.6292765 C111.079104,23.9873185 111.507463,24.1670886 112.149254,24.1670886 C112.553731,24.1670886 112.892537,24.1610963 113.167164,24.1491116 C113.440299,24.1371269 113.695522,24.1311346 113.934328,24.1311346 C114.577612,24.1311346 114.898507,24.406782 114.898507,24.9550807 L114.898507,26.6419231" id="Shape"></path>
                                <path d="M119.744776,5.6477761 C118.961194,5.6477761 118.395522,5.49796772 118.049254,5.20134711 C117.704478,4.90173034 117.531343,4.39387992 117.531343,3.67779584 C117.531343,2.98568111 117.702985,2.48382302 118.049254,2.17371966 C118.39403,1.8636163 118.959701,1.70781558 119.744776,1.70781558 C120.507463,1.70781558 121.065672,1.8636163 121.422388,2.17371966 C121.780597,2.4853211 121.956716,2.98568111 121.956716,3.67779584 C121.956716,4.395378 121.780597,4.90173034 121.422388,5.20134711 C121.065672,5.49796772 120.507463,5.6477761 119.744776,5.6477761 L119.744776,5.6477761 Z M121.531343,26.7497852 L118.78209,26.7497852 C118.210448,26.7497852 117.926866,26.4756358 117.926866,25.925839 L117.926866,8.5136105 L120.674627,8.5136105 C121.246269,8.5136105 121.531343,8.78925793 121.531343,9.33755661 L121.531343,26.7497852 L121.531343,26.7497852 Z" id="Shape"></path>
                                <path d="M132.641791,27.1797352 C129.950746,27.1797352 128.00597,26.4157125 126.80597,24.8876669 C125.602985,23.3581233 125.002985,20.9342237 125.002985,17.6144699 C125.002985,14.3186854 125.602985,11.9052723 126.80597,10.3772268 C128.00597,8.84918128 129.950746,8.08515852 132.641791,8.08515852 C135.329851,8.08515852 137.274627,8.84918128 138.477612,10.3772268 C139.679104,11.9052723 140.279104,14.3171873 140.279104,17.6144699 C140.279104,20.9357218 139.679104,23.3596214 138.477612,24.8876669 C137.276119,26.4157125 135.329851,27.1797352 132.641791,27.1797352 L132.641791,27.1797352 Z M136.640299,17.6129718 C136.640299,16.3246197 136.562687,15.2489955 136.407463,14.3890953 C136.252239,13.5306933 136.014925,12.8430728 135.692537,12.3292301 C135.371642,11.8153873 134.955224,11.4513529 134.444776,11.2371269 C133.931343,11.0214029 133.331343,10.9150389 132.641791,10.9150389 C131.950746,10.9150389 131.350746,11.0229009 130.838806,11.2371269 C130.326866,11.4513529 129.910448,11.8168854 129.589552,12.3292301 C129.268657,12.8415747 129.029851,13.5291952 128.876119,14.3890953 C128.720896,15.2489955 128.643284,16.3246197 128.643284,17.6129718 C128.643284,18.9282894 128.720896,20.0203925 128.876119,20.8907792 C129.029851,21.7641621 129.268657,22.4562769 129.589552,22.9701196 C129.910448,23.4839624 130.326866,23.8420044 130.838806,24.0457438 C131.350746,24.2479851 131.950746,24.3513529 132.641791,24.3513529 C133.331343,24.3513529 133.931343,24.2494832 134.444776,24.0457438 C134.955224,23.8420044 135.371642,23.4839624 135.692537,22.9701196 C136.014925,22.4562769 136.252239,21.7641621 136.407463,20.8907792 C136.562687,20.0203925 136.640299,18.9282894 136.640299,17.6129718 L136.640299,17.6129718 Z" id="Shape"></path>
                                <path d="M144.644776,26.7497852 C144.073134,26.7497852 143.78806,26.4756358 143.78806,25.925839 L143.78806,8.5136105 L145.965672,8.5136105 C146.226866,8.5136105 146.447761,8.57353385 146.625373,8.69338056 C146.804478,8.81322727 146.916418,9.05292068 146.965672,9.41096272 L147.108955,10.5195448 C148.583582,8.9210893 150.476119,8.11961445 152.785075,8.11961445 C154.735821,8.11961445 156.126866,8.68738822 156.961194,9.8214377 C157.79403,10.9569853 158.210448,12.4670538 158.210448,14.3531413 L158.210448,26.7497852 L155.461194,26.7497852 C155.198507,26.7497852 154.992537,26.6778771 154.837313,26.5340611 C154.68209,26.390245 154.604478,26.1895018 154.604478,25.924341 L154.604478,14.6377773 C154.604478,13.3958658 154.343284,12.5060039 153.820896,11.9696899 C153.295522,11.4333759 152.535821,11.1637208 151.535821,11.1637208 C150.561194,11.1637208 149.728358,11.3599698 149.037313,11.7554639 C148.347761,12.14946 147.8,12.5494484 147.395522,12.9554291 L147.395522,26.7497852 L144.644776,26.7497852" id="Shape"></path>
                            </g>
                        </g>
                    </g>
                </g>
            </g>
        </g>
    </g>
</svg>