<?xml version="1.0" encoding="UTF-8"?>
<svg width="301px" height="225px" viewBox="0 0 301 225" version="1.1" xmlns="http://www.w3.org/2000/svg" xmlns:xlink="http://www.w3.org/1999/xlink">
    <!-- Generator: Sketch 40.2 (33826) - http://www.bohemiancoding.com/sketch -->
    <title>corps_5m_hpe</title>
    <desc>Created with Sketch.</desc>
    <defs></defs>
    <g id="Page-1" stroke="none" stroke-width="1" fill="none" fill-rule="evenodd">
        <g id="Our-partners" transform="translate(-376.000000, -486.000000)">
            <g id="Content" transform="translate(376.000000, 150.000000)">
                <g id="Support-of-$5m+" transform="translate(0.000000, 289.000000)">
                    <g id="corps_5m_hpe" transform="translate(0.000000, 47.000000)">
                        <rect id="Rectangle-2" fill="#FFFFFF" x="0" y="0" width="300" height="225"></rect>
                        <g id="Layer_1" transform="translate(1.000000, 32.000000)">
                            <g id="Group" transform="translate(0.000000, -0.000000)">
                                <path d="M0,29.5408768 L102.486803,29.5408768 L102.486803,0 L0,0 L0,29.5408768 L0,29.5408768 Z M96.0433447,23.0769775 L6.3550271,23.0769775 L6.3550271,6.37518795 L96.0418458,6.37518795 L96.0433447,23.0769775 L96.0433447,23.0769775 L96.0433447,23.0769775 Z" id="Shape" fill="#03B388"></path>
                                <path d="M6.44495673,78.2990359 L0,78.2990359 L0,48.7581591 L6.44495673,48.7581591 L6.44495673,60.4319703 L17.9019914,60.4319703 L17.9019914,48.7581591 L24.3469482,48.7581591 L24.3469482,78.2990359 L17.9019914,78.2990359 L17.9019914,66.0869424 L6.44495673,66.0869424 L6.44495673,78.2990359 L6.44495673,78.2990359 Z M38.846602,78.8388219 C32.3117156,78.8388219 27.9261474,74.708482 27.9261474,67.9739379 C27.9261474,61.4183201 32.2232848,56.8399127 38.0417318,56.8399127 C44.3083281,56.8399127 47.4408768,61.0604676 47.4408768,67.3454406 L47.4408768,69.6805036 L34.0143832,69.6805036 C34.7308226,72.913205 37.3252924,73.8123471 39.8328302,73.8123471 C42.0705791,73.8123471 43.6818183,73.362776 45.6512772,72.1057814 L45.9195673,72.1057814 L45.9195673,76.9548336 C44.1284688,78.2103246 41.7108606,78.8388219 38.846602,78.8388219 L38.846602,78.8388219 Z M34.0128844,65.3697338 L41.620931,65.3697338 C41.4410717,63.2151007 40.5462719,61.6889649 38.1301626,61.6889649 C36.1607037,61.6874613 34.5509634,62.4948849 34.0128844,65.3697338 L34.0128844,65.3697338 Z M64.0883499,65.9080162 L60.7759419,78.2990359 L55.1373542,78.2990359 L48.6923975,57.46841 L48.6923975,57.1977653 L54.7806333,57.1977653 L58.2714018,69.5902886 L61.5823109,57.1977653 L66.5943889,57.1977653 L69.9067969,69.5902886 L73.3975653,57.1977653 L79.3044431,57.1977653 L79.3044431,57.46841 L72.8594864,78.2990359 L67.2208986,78.2990359 L64.0883499,65.9080162 L64.0883499,65.9080162 Z M89.866678,78.8388219 C84.7646704,78.8388219 82.7067807,76.7729001 82.7067807,72.0140629 L82.7067807,48.7581591 L88.8819486,48.7581591 L88.8819486,71.5659955 C88.8819486,73.0019163 89.4185287,73.5401987 90.673047,73.5401987 C91.1211963,73.5401987 91.7462072,73.3612724 92.1059257,73.2710575 L92.1958554,73.2710575 L92.1958554,78.3892509 C91.7462072,78.5681771 90.8514074,78.8388219 89.866678,78.8388219 L89.866678,78.8388219 Z M104.904411,78.8388219 C98.3710232,78.8388219 93.985455,74.708482 93.985455,67.9739379 C93.985455,61.4183201 98.2810936,56.8399127 104.099541,56.8399127 C110.364638,56.8399127 113.497187,61.0604676 113.497187,67.3454406 L113.497187,69.6805036 L100.070693,69.6805036 C100.787133,72.913205 103.381602,73.8123471 105.88914,73.8123471 C108.126889,73.8123471 109.738128,73.362776 111.706088,72.1057814 L111.975877,72.1057814 L111.975877,76.9548336 C110.184779,78.2103246 107.8571,78.8388219 104.904411,78.8388219 L104.904411,78.8388219 Z M100.070693,65.3697338 L107.67874,65.3697338 C107.500379,63.2151007 106.60558,61.6889649 104.187971,61.6889649 C102.220011,61.6874613 100.608772,62.4948849 100.070693,65.3697338 L100.070693,65.3697338 Z M139.007225,57.2879802 L143.661083,57.2879802 L143.661083,62.3159586 L139.007225,62.3159586 L139.007225,70.8457797 C139.007225,72.7312716 139.723664,73.5386951 141.601695,73.5386951 C142.138275,73.5386951 142.764784,73.4499838 143.481224,73.2695539 L143.661083,73.2695539 L143.661083,78.208821 C142.856213,78.4779622 141.601695,78.8358147 139.812095,78.8358147 C134.800017,78.8358147 132.830558,76.5007518 132.830558,71.2036322 L132.830558,62.4031664 L124.865791,62.4031664 L124.865791,70.934491 C124.865791,72.8199829 125.580731,73.6289101 127.46026,73.6289101 C127.996841,73.6289101 128.62335,73.5386951 129.33979,73.3597689 L129.51815,73.3597689 L129.51815,78.2990359 C128.71328,78.5681771 127.458762,78.9275332 125.669162,78.9275332 C120.657084,78.9275332 118.687625,76.5924703 118.687625,71.2953507 L118.687625,62.4948849 L115.465147,62.4948849 L115.465147,57.4669065 L118.687625,57.4669065 L118.687625,51.7187122 L124.864292,51.7187122 L124.864292,57.4669065 L132.829059,57.4669065 L132.829059,51.7187122 L139.005726,51.7187122 L139.005726,57.2879802 L139.007225,57.2879802 L139.007225,57.2879802 Z M175.884368,58.814116 C175.884368,65.2795189 171.58723,68.7798579 165.053843,68.7798579 L160.488415,68.7798579 L160.488415,78.3877473 L154.04196,78.3877473 L154.04196,48.8468705 L165.053843,48.8468705 C171.585732,48.7581591 175.884368,52.2584982 175.884368,58.814116 L175.884368,58.814116 Z M164.518762,63.3053156 C167.739741,63.3053156 169.352479,61.4183201 169.352479,58.8156196 C169.352479,56.0324892 167.829671,54.2357086 164.518762,54.2357086 L160.489914,54.2357086 L160.489914,63.3053156 L164.518762,63.3053156 L164.518762,63.3053156 Z M189.757512,76.2346178 C188.414563,77.8509685 186.356673,78.6583921 184.208854,78.6583921 C180.090077,78.6583921 176.779168,76.1444028 176.779168,71.7434181 C176.779168,67.6130782 180.090077,64.9186592 184.923794,64.9186592 C186.446603,64.9186592 187.967912,65.1893039 189.579152,65.6373714 L189.579152,65.2780153 C189.579152,63.0331673 188.326132,62.0453138 184.923794,62.0453138 C182.775975,62.0453138 180.808015,62.6738111 179.019914,63.6616646 L178.748627,63.6616646 L178.748627,58.6336861 C180.358367,57.6458327 183.135694,56.9286241 185.998453,56.9286241 C192.353481,56.9286241 195.755818,59.9808957 195.755818,65.2795189 L195.755818,78.4779622 L189.759011,78.4779622 L189.759011,76.2346178 L189.757512,76.2346178 Z M189.579152,71.7434181 L189.579152,69.9481412 C188.594422,69.4098588 187.431332,69.2294289 186.176814,69.2294289 C184.118924,69.2294289 182.955834,69.9481412 182.955834,71.6532032 C182.955834,73.3597689 184.208854,74.1671924 185.996955,74.1671924 C187.609693,74.168696 188.952642,73.2710575 189.579152,71.7434181 L189.579152,71.7434181 Z M198.888367,67.7935081 C198.888367,61.058964 203.632155,56.7496978 209.897252,56.7496978 C212.1365,56.7496978 214.19439,57.1977653 215.715699,58.3660485 L215.715699,63.7533831 L215.447409,63.7533831 C214.10446,62.6753147 212.49472,62.1370323 210.613692,62.1370323 C207.479644,62.1370323 205.151966,64.293169 205.151966,67.883723 C205.151966,71.4757805 207.479644,73.5401987 210.613692,73.5401987 C212.49472,73.5401987 214.016029,72.913205 215.447409,71.923848 L215.715699,71.923848 L215.715699,77.3111825 C214.19439,78.4779622 212.04657,78.9275332 209.897252,78.9275332 C203.632155,78.8388219 198.888367,74.6167635 198.888367,67.7935081 L198.888367,67.7935081 Z M225.832782,68.7813615 L225.832782,78.3005395 L219.654617,78.3005395 L219.654617,48.7581591 L225.832782,48.7581591 L225.832782,65.54866 L232.09788,57.1977653 L239.166349,57.1977653 L239.166349,57.46841 L231.648232,66.9860845 L239.166349,78.0298947 L239.166349,78.2990359 L232.09788,78.2990359 L225.832782,68.7813615 L225.832782,68.7813615 Z M253.310781,76.2346178 C251.967831,77.8509685 249.908443,78.6583921 247.760624,78.6583921 C243.644844,78.6583921 240.333935,76.1444028 240.333935,71.7434181 C240.333935,67.6130782 243.644844,64.9186592 248.478562,64.9186592 C250.00137,64.9186592 251.52268,65.1893039 253.130921,65.6373714 L253.130921,65.2780153 C253.130921,63.0331673 251.876403,62.0453138 248.478562,62.0453138 C246.329244,62.0453138 244.359785,62.6738111 242.570185,63.6616646 L242.301895,63.6616646 L242.301895,58.6336861 C243.913134,57.6458327 246.688962,56.9286241 249.551722,56.9286241 C255.906749,56.9286241 259.309087,59.9808957 259.309087,65.2795189 L259.309087,78.4779622 L253.312279,78.4779622 L253.312279,76.2346178 L253.310781,76.2346178 Z M253.130921,71.7434181 L253.130921,69.9481412 C252.144693,69.4098588 250.981603,69.2294289 249.727085,69.2294289 C247.669195,69.2294289 246.507604,69.9481412 246.507604,71.6532032 C246.507604,73.3597689 247.760624,74.1671924 249.550223,74.1671924 C251.249893,74.168696 252.592842,73.2710575 253.130921,71.7434181 L253.130921,71.7434181 Z M269.869823,60.6996079 C271.032913,58.3660485 272.645651,57.018839 274.97183,57.018839 C275.775202,57.018839 276.6715,57.1977653 277.02972,57.3781951 L277.02972,63.3053156 L276.759931,63.3053156 C276.041993,63.0346708 275.238622,62.8557446 273.984103,62.8557446 C272.017642,62.8557446 270.581766,64.0225242 270.045186,66.1771573 L270.045186,78.2990359 L263.871517,78.2990359 L263.871517,57.2879802 L269.868324,57.2879802 L269.868324,60.6996079 L269.869823,60.6996079 L269.869823,60.6996079 Z M293.677193,76.1444028 C292.334244,77.8509685 290.274856,78.748607 287.500527,78.748607 C282.130229,78.748607 278.730889,73.8093399 278.730889,67.7935081 C278.730889,61.7776762 282.130229,56.7496978 287.500527,56.7496978 C290.276354,56.7496978 292.245813,57.5571214 293.500332,59.1734721 L293.500332,48.7581591 L299.765429,48.7581591 L299.765429,78.2990359 L293.768622,78.2990359 L293.768622,76.1428993 L293.677193,76.1428993 L293.677193,76.1444028 Z M293.500332,71.2051358 L293.500332,64.3803768 C292.424174,62.854241 291.084222,62.2257437 289.561414,62.2257437 C286.785586,62.2257437 284.995986,64.1999469 284.995986,67.7920045 C284.995986,71.384062 286.877014,73.3597689 289.561414,73.3597689 C291.084222,73.3612724 292.425673,72.7327751 293.500332,71.2051358 L293.500332,71.2051358 Z" id="Shape" fill="#010101"></path>
                                <polygon id="Shape" fill="#010101" points="20.3181008 88.8060674 20.3181008 94.552758 6.3550271 94.552758 6.3550271 100.476871 19.0650813 100.476871 19.0650813 106.046139 6.3550271 106.046139 6.3550271 112.59875 20.3181008 112.59875 20.3181008 118.345441 0 118.345441 0 88.8060674"></polygon>
                                <path d="M106.51565,125.890415 L100.518843,125.890415 L100.518843,97.3343849 L106.51565,97.3343849 L106.51565,99.1311654 C107.500379,97.9628822 109.559768,96.8848138 111.796018,96.8848138 C118.061115,96.8848138 121.373523,101.912792 121.373523,108.017335 C121.373523,114.123382 118.062614,118.883723 111.796018,118.883723 C109.468339,118.883723 107.41045,117.805655 106.51565,116.638875 L106.51565,125.890415 L106.51565,125.890415 Z M106.51565,111.164333 C107.232089,112.690468 108.753399,113.679825 110.454568,113.679825 C113.675547,113.679825 115.734936,111.523689 115.734936,108.110558 C115.734936,104.608715 113.675547,102.003007 110.454568,102.003007 C108.663469,102.003007 107.232089,103.082579 106.51565,104.5185 L106.51565,111.164333 L106.51565,111.164333 Z" id="Shape" fill="#010101"></path>
                                <path d="M160.846635,105.507857 L158.518957,104.787641 C156.996148,104.33807 156.371137,103.980218 156.371137,102.992364 C156.371137,101.825584 157.712588,101.37451 158.965607,101.37451 C161.023497,101.37451 163.171316,102.183437 165.230705,103.890003 L165.500493,104.070433 L165.500493,98.3222383 L165.410564,98.2335269 C163.441105,96.9780359 161.203356,96.3495386 158.697317,96.3495386 C153.685239,96.3495386 150.372831,99.0424541 150.372831,103.082579 C150.372831,106.406999 152.25236,108.379699 156.371137,109.546478 L158.337598,110.086264 C159.860407,110.62605 160.576846,110.983903 160.576846,111.970253 C160.576846,113.407677 158.517458,113.588107 157.621159,113.588107 C155.293481,113.588107 152.430721,112.421327 150.551191,110.714762 L150.282901,110.444117 L150.282901,116.281022 L150.372831,116.372741 C152.074,117.718447 154.938259,118.528878 157.802517,118.528878 C163.082885,118.528878 166.575152,115.92317 166.575152,111.883045 C166.753513,108.64884 165.053843,106.674637 160.846635,105.507857" id="Shape" fill="#010101"></path>
                                <path d="M72.8594864,118.796515 C66.3260988,118.796515 61.9390318,114.666175 61.9390318,107.930128 C61.9390318,101.37451 66.2361692,96.7961025 72.0531174,96.7961025 C78.3197137,96.7961025 81.4522624,101.016657 81.4522624,107.303134 L81.4522624,109.636693 L68.0257688,109.636693 C68.7422082,112.867891 71.3381768,113.768537 73.8442158,113.768537 C76.0834636,113.768537 77.6932039,113.318966 79.6626628,112.061971 L79.9324517,112.061971 L79.9324517,116.911023 C78.229784,118.168018 75.8136747,118.796515 72.8594864,118.796515 M68.0257688,105.416138 L75.6353142,105.416138 C75.455455,103.260002 74.5606552,101.733866 72.1445458,101.733866 C70.2650166,101.646658 68.5638478,102.454082 68.0257688,105.416138" id="Shape" fill="#010101"></path>
                                <path d="M179.731857,118.796515 C173.199968,118.796515 168.8144,114.666175 168.8144,107.930128 C168.8144,101.37451 173.10854,96.7961025 178.928486,96.7961025 C185.193583,96.7961025 188.327631,101.016657 188.327631,107.303134 L188.327631,109.636693 L174.899638,109.636693 C175.617577,112.867891 178.213545,113.768537 180.719584,113.768537 C182.957333,113.768537 184.565575,113.318966 186.538031,112.061971 L186.806321,112.061971 L186.806321,116.911023 C185.103654,118.168018 182.687544,118.796515 179.731857,118.796515 M174.89814,105.416138 L182.506186,105.416138 C182.329325,103.260002 181.434525,101.733866 179.018415,101.733866 C177.138886,101.646658 175.437717,102.454082 174.89814,105.416138" id="Shape" fill="#010101"></path>
                                <path d="M60.1494322,102.273652 L55.4955739,102.273652 L55.4955739,110.803473 C55.4955739,112.690468 56.2120133,113.497892 58.0915425,113.497892 C58.6281226,113.497892 59.2546324,113.409181 59.9710717,113.228751 L60.150931,113.228751 L60.150931,118.168018 C59.344562,118.437159 58.0915425,118.796515 56.3019429,118.796515 C51.2898649,118.796515 49.3204061,116.461452 49.3204061,111.164333 L49.3204061,102.363867 L46.0979277,102.363867 L46.0979277,97.3343849 L49.3204061,97.3343849 L49.3204061,91.5876942 L55.4970727,91.5876942 L55.4970727,97.3343849 L60.150931,97.3343849 L60.150931,102.273652 L60.1494322,102.273652 Z" id="Shape" fill="#010101"></path>
                                <path d="M130.236088,100.746013 C131.399178,98.4124532 133.010417,97.0667473 135.338096,97.0667473 C136.142966,97.0667473 137.039265,97.2471771 137.397484,97.4245998 L137.397484,103.353224 L137.127696,103.353224 C136.412755,103.082579 135.606386,102.902149 134.353366,102.902149 C132.385406,102.902149 130.952528,104.070433 130.415948,106.223562 L130.415948,118.345441 L124.147852,118.345441 L124.147852,97.3343849 L130.14466,97.3343849 L130.14466,100.746013 L130.236088,100.746013 L130.236088,100.746013 Z" id="Shape" fill="#010101"></path>
                                <path d="M90.2248977,100.746013 C91.3879875,98.4124532 93.0007256,97.0667473 95.3269053,97.0667473 C96.1317755,97.0667473 97.0265753,97.2471771 97.3862938,97.4245998 L97.3862938,103.353224 L97.1180037,103.353224 C96.4015643,103.082579 95.5951953,102.902149 94.3421758,102.902149 C92.3742158,102.902149 90.9413371,104.070433 90.4047569,106.223562 L90.4047569,118.345441 L84.1396595,118.345441 L84.1396595,97.3343849 L90.1364669,97.3343849 L90.1364669,100.746013 L90.2248977,100.746013 L90.2248977,100.746013 Z" id="Shape" fill="#010101"></path>
                                <path d="M143.392793,94.7301807 C141.511765,94.7301807 139.812095,93.2942599 139.812095,91.318553 C139.812095,89.3443498 141.423334,87.9069253 143.392793,87.9069253 C145.272322,87.9069253 146.883561,89.3428462 146.883561,91.318553 C146.883561,93.2942599 145.272322,94.7301807 143.392793,94.7301807" id="Shape" fill="#010101"></path>
                                <polygon id="Shape" fill="#010101" points="146.435412 118.345441 140.260244 118.345441 140.260244 97.3343849 146.258551 97.3343849"></polygon>
                                <path d="M24.1670889,97.3343849 L30.2553248,97.3343849 L30.2553248,99.3100917 C31.4184146,97.9628822 33.4763043,96.8863174 35.9838421,96.8863174 C40.8175597,96.8863174 43.771748,100.030307 43.771748,104.87936 L43.771748,118.437159 L37.7749405,118.437159 L37.7749405,106.134851 C37.7749405,103.890003 36.4319914,102.363867 34.1058117,102.363867 C32.3147133,102.363867 30.7034741,103.440432 30.2568236,105.325924 L30.2568236,118.437159 L24.1685877,118.437159 L24.1685877,97.3343849 L24.1670889,97.3343849 Z" id="Shape" fill="#010101"></path>
                                <polygon id="Shape" fill="#010101" points="0 160.099915 0 130.467319 16.917262 130.467319 16.917262 133.88045 3.75905848 133.88045 3.75905848 143.847696 16.0224622 143.847696 16.0224622 147.169109 3.75905848 147.169109 3.75905848 160.099915"></polygon>
                                <path d="M29.2690965,160.459271 C23.4521483,160.459271 19.5132306,155.880863 19.5132306,149.325245 C19.5132306,142.771131 23.4521483,138.19122 29.2690965,138.19122 C35.0875435,138.19122 39.0249624,142.771131 39.0249624,149.325245 C39.114892,155.880863 35.0875435,160.459271 29.2690965,160.459271 M29.2690965,141.422418 C25.4201084,141.422418 23.0924298,144.65512 23.0924298,149.41546 C23.0924298,154.082579 25.4201084,157.405495 29.2690965,157.405495 C33.1180846,157.405495 35.4457632,154.174298 35.4457632,149.41546 C35.4457632,144.656623 33.1180846,141.422418 29.2690965,141.422418" id="Shape" fill="#010101"></path>
                                <path d="M60.2393618,160.099915 L56.5687341,160.099915 L56.5687341,157.405495 C55.4056443,159.113565 53.0764669,160.547982 50.3920675,160.547982 C45.5583499,160.547982 42.9623813,157.405495 42.9623813,152.738377 L42.9623813,138.729503 L46.633009,138.729503 L46.633009,152.198591 C46.633009,155.163655 48.0658877,157.228073 51.2868673,157.228073 C53.7929063,157.228073 55.8522948,155.521507 56.6571649,153.186444 L56.6571649,138.640791 L60.3262938,138.640791 L60.3262938,160.102922 L60.2393618,160.102922 L60.2393618,160.099915 Z" id="Shape" fill="#010101"></path>
                                <path d="M66.2361692,138.639288 L69.8168673,138.639288 L69.8168673,141.333707 C71.0698868,139.627141 73.3975653,138.19122 76.0834636,138.19122 C80.9171811,138.19122 83.6015805,141.333707 83.6015805,146.002329 L83.6015805,160.0097 L79.9324517,160.0097 L79.9324517,146.539108 C79.9324517,143.577051 78.4096433,141.512633 75.1886638,141.512633 C72.6826248,141.512633 70.5333066,143.217695 69.7284365,145.552758 L69.7284365,160.099915 L66.1477384,160.099915 L66.1477384,138.639288 L66.2361692,138.639288 L66.2361692,138.639288 Z" id="Shape" fill="#010101"></path>
                                <path d="M103.203242,157.587429 C102.128583,159.115068 99.8009043,160.549486 97.2064345,160.549486 C90.9413371,160.549486 87.6289291,155.521507 87.6289291,149.416964 C87.6289291,143.399629 91.0297679,138.281435 97.2064345,138.281435 C99.8923328,138.281435 102.130082,139.71886 103.203242,141.244995 L103.203242,129.751614 L106.872371,129.751614 L106.872371,160.101418 L103.203242,160.101418 L103.203242,157.587429 L103.203242,157.587429 Z M103.203242,145.014476 C102.128583,142.771131 99.9807636,141.514137 97.7430146,141.514137 C93.6242376,141.514137 91.2980579,144.835549 91.2980579,149.325245 C91.2980579,153.813438 93.7141673,157.136354 97.7430146,157.136354 C99.9807636,157.136354 102.128583,155.880863 103.203242,153.636015 L103.203242,145.014476 L103.203242,145.014476 Z" id="Shape" fill="#010101"></path>
                                <path d="M125.132582,145.823403 C125.132582,143.128984 123.163123,141.514137 120.030574,141.514137 C117.702896,141.514137 115.734936,142.232849 113.943837,143.398125 L113.943837,139.986497 C115.375217,138.99714 117.972685,138.19122 120.567154,138.19122 C125.579232,138.19122 128.62335,140.974351 128.62335,145.552758 L128.62335,160.099915 L125.132582,160.099915 L125.132582,158.483564 C124.327712,159.382706 122.089963,160.457767 119.583924,160.457767 C115.198356,160.457767 111.617658,157.855066 111.617658,153.634512 C111.617658,149.592883 115.198356,146.899968 119.762284,146.899968 C122.001532,146.899968 124.147852,147.797606 125.132582,148.606533 L125.132582,145.823403 L125.132582,145.823403 Z M125.132582,152.557947 C124.596002,150.9431 122.446684,149.863528 120.208935,149.863528 C117.614465,149.863528 115.106927,151.031811 115.106927,153.5458 C115.106927,156.150004 117.612966,157.319791 120.208935,157.319791 C122.446684,157.319791 124.594503,156.240219 125.132582,154.623869 L125.132582,152.557947 L125.132582,152.557947 Z" id="Shape" fill="#010101"></path>
                                <polygon id="Shape" fill="#010101" points="140.618464 160.099915 136.949335 160.099915 136.949335 141.783278 132.562268 141.783278 132.562268 138.639288 136.949335 138.639288 136.949335 133.073027 140.618464 133.073027 140.618464 138.639288 145.542111 138.639288 145.542111 141.783278 140.618464 141.783278"></polygon>
                                <path d="M151.807209,134.508948 C150.554189,134.508948 149.47953,133.430879 149.47953,132.173885 C149.47953,130.918394 150.554189,129.838822 151.807209,129.838822 C153.061727,129.838822 154.133388,130.828179 154.133388,132.173885 C154.133388,133.432383 153.148659,134.508948 151.807209,134.508948 L151.807209,134.508948 Z M153.686738,160.099915 L150.10604,160.099915 L150.10604,138.729503 L153.686738,138.729503 L153.686738,160.099915 L153.686738,160.099915 Z" id="Shape" fill="#010101"></path>
                                <path d="M168.186392,160.459271 C162.369444,160.459271 158.430526,155.880863 158.430526,149.325245 C158.430526,142.771131 162.369444,138.19122 168.186392,138.19122 C174.004839,138.19122 177.942258,142.771131 177.942258,149.325245 C178.032187,155.880863 174.004839,160.459271 168.186392,160.459271 M168.186392,141.422418 C164.337404,141.422418 162.011224,144.65512 162.011224,149.41546 C162.011224,154.082579 164.337404,157.405495 168.186392,157.405495 C172.03538,157.405495 174.363058,154.174298 174.363058,149.41546 C174.363058,144.656623 172.03538,141.422418 168.186392,141.422418" id="Shape" fill="#010101"></path>
                                <path d="M182.239395,138.639288 L185.820093,138.639288 L185.820093,141.333707 C187.073113,139.627141 189.400791,138.19122 192.086689,138.19122 C196.920407,138.19122 199.604806,141.333707 199.604806,146.002329 L199.604806,160.0097 L195.938675,160.0097 L195.938675,146.539108 C195.938675,143.577051 194.415867,141.512633 191.193388,141.512633 C188.687349,141.512633 186.53953,143.217695 185.731662,145.552758 L185.731662,160.099915 L182.149465,160.099915 L182.149465,138.639288 L182.239395,138.639288 L182.239395,138.639288 Z" id="Shape" fill="#010101"></path>
                            </g>
                        </g>
                    </g>
                </g>
            </g>
        </g>
    </g>
</svg>