<?xml version="1.0" encoding="UTF-8"?>
<svg width="300px" height="225px" viewBox="0 0 300 225" version="1.1" xmlns="http://www.w3.org/2000/svg" xmlns:xlink="http://www.w3.org/1999/xlink">
    <!-- Generator: Sketch 40.2 (33826) - http://www.bohemiancoding.com/sketch -->
    <title>5m-mastercard-foundation</title>
    <desc>Created with Sketch.</desc>
    <defs>
        <linearGradient x1="41.1549618%" y1="-54.3809524%" x2="59.6389313%" y2="114.295238%" id="linearGradient-1">
            <stop stop-color="#FFFCF7" offset="0%"></stop>
            <stop stop-color="#FFF2E0" offset="62.69%"></stop>
            <stop stop-color="#FFECD2" offset="100%"></stop>
        </linearGradient>
        <linearGradient x1="50.2110687%" y1="99.3555556%" x2="50.2110687%" y2="-0.223809524%" id="linearGradient-2">
            <stop stop-color="#FFFFFF" offset="0%"></stop>
            <stop stop-color="#FFFCF7" offset="15%"></stop>
            <stop stop-color="#FFF2E0" offset="42.3%"></stop>
            <stop stop-color="#FFE9CB" offset="78.02%"></stop>
            <stop stop-color="#FFE6C4" offset="100%"></stop>
        </linearGradient>
        <linearGradient x1="31.9082803%" y1="117.055%" x2="68.2286624%" y2="32.10875%" id="linearGradient-3">
            <stop stop-color="#FFF9F5" offset="0%"></stop>
            <stop stop-color="#FEE7DA" offset="44.25%"></stop>
            <stop stop-color="#FCCDB6" offset="100%"></stop>
        </linearGradient>
        <linearGradient x1="50.0681529%" y1="-1.19794988%" x2="50.0681529%" y2="99.5054568%" id="linearGradient-4">
            <stop stop-color="#F9B192" offset="0%"></stop>
            <stop stop-color="#F6906B" offset="59.5%"></stop>
            <stop stop-color="#F47E55" offset="100%"></stop>
        </linearGradient>
        <linearGradient x1="16.5673077%" y1="92.3053797%" x2="72.7793269%" y2="7.21107595%" id="linearGradient-5">
            <stop stop-color="#FEC779" offset="0%"></stop>
            <stop stop-color="#FAA860" offset="20.88%"></stop>
            <stop stop-color="#F47639" offset="58.7%"></stop>
            <stop stop-color="#F05227" offset="86.07%"></stop>
            <stop stop-color="#EF4123" offset="100%"></stop>
        </linearGradient>
        <linearGradient x1="0.0209090909%" y1="50.0048077%" x2="99.8172727%" y2="50.0048077%" id="linearGradient-6">
            <stop stop-color="#F69679" offset="0%"></stop>
            <stop stop-color="#F8A88D" offset="22.14%"></stop>
            <stop stop-color="#FDD8C8" offset="68.54%"></stop>
            <stop stop-color="#FEE5D9" offset="80%"></stop>
            <stop stop-color="#FEE5D9" offset="100%"></stop>
        </linearGradient>
        <linearGradient x1="92.6924242%" y1="94.1475177%" x2="23.825%" y2="5.58014184%" id="linearGradient-7">
            <stop stop-color="#FFF8F5" offset="0%"></stop>
            <stop stop-color="#FEE4D9" offset="15.87%"></stop>
            <stop stop-color="#FAB49B" offset="49.34%"></stop>
            <stop stop-color="#F26A4D" offset="97.36%"></stop>
            <stop stop-color="#F26649" offset="100%"></stop>
        </linearGradient>
        <linearGradient x1="0.510714286%" y1="50.8144444%" x2="100.405357%" y2="49.1855556%" id="linearGradient-8">
            <stop stop-color="#FCD3C1" offset="0%"></stop>
            <stop stop-color="#FCCFBD" offset="25.1%"></stop>
            <stop stop-color="#FBC5B0" offset="51.1%"></stop>
            <stop stop-color="#FAB59C" offset="77.42%"></stop>
            <stop stop-color="#F8A286" offset="100%"></stop>
        </linearGradient>
    </defs>
    <g id="Page-1" stroke="none" stroke-width="1" fill="none" fill-rule="evenodd">
        <g id="Our-partners" transform="translate(-376.000000, -751.000000)">
            <g id="Content" transform="translate(376.000000, 150.000000)">
                <g id="Support-of-$5m+" transform="translate(0.000000, 289.000000)">
                    <g id="5m-mastercard-foundation" transform="translate(0.000000, 312.000000)">
                        <rect id="Rectangle-2" fill="#FFFFFF" x="0" y="0" width="300" height="225"></rect>
                        <g id="Layer_1" transform="translate(1.000000, 14.000000)">
                            <g id="Group">
                                <g transform="translate(66.666667, 0.000000)" id="Shape">
                                    <path d="M165,56.9444444 C165,35.5555556 150,17.7777778 130,13.3333333 C142.5,23.6111111 150.555556,39.4444444 150.555556,56.9444444 C150.555556,74.4444444 142.5,90.2777778 130,100.555556 C150,96.1111111 165,78.3333333 165,56.9444444 L165,56.9444444 Z" fill="#FAA61A"></path>
                                    <path d="M111.388889,100.833333 C105.833333,103.055556 100,104.166667 93.8888889,104.166667 C84.1666667,104.166667 75.2777778,101.111111 67.7777778,96.1111111 C64.4444444,97.7777778 61.1111111,99.1666667 57.5,100.277778 C67.5,108.611111 80,113.611111 94.1666667,113.611111 C108.055556,113.611111 120.555556,108.611111 130.277778,100.555556 C127.222222,101.388889 123.888889,101.666667 120.555556,101.666667 C117.222222,101.666667 114.444444,101.388889 111.388889,100.833333 L111.388889,100.833333 Z" fill="url(#linearGradient-1)"></path>
                                    <path d="M93.8888889,9.72222222 C100,9.72222222 106.111111,10.8333333 111.388889,13.0555556 C114.166667,12.5 117.222222,12.2222222 120.277778,12.2222222 C123.611111,12.2222222 126.944444,12.5 130,13.3333333 C120.277778,5.27777778 107.5,0.277777778 93.8888889,0.277777778 C80,0.277777778 67.2222222,5.27777778 57.2222222,13.6111111 C60.8333333,14.4444444 64.4444444,15.8333333 67.5,17.7777778 C75.2777778,12.7777778 84.1666667,9.72222222 93.8888889,9.72222222 L93.8888889,9.72222222 Z" fill="url(#linearGradient-2)"></path>
                                    <path d="M150.555556,56.9444444 C150.555556,39.4444444 142.5,23.6111111 130,13.3333333 C126.944444,12.5 123.611111,12.2222222 120.277778,12.2222222 C117.222222,12.2222222 114.166667,12.5 111.388889,13.0555556 C128.888889,20 141.111111,36.9444444 141.111111,56.9444444 C141.111111,76.9444444 128.888889,93.8888889 111.388889,100.833333 C114.166667,101.388889 117.222222,101.666667 120.277778,101.666667 C123.611111,101.666667 126.944444,101.388889 130,100.555556 C142.777778,90.2777778 150.555556,74.4444444 150.555556,56.9444444 L150.555556,56.9444444 Z" fill="#FECF8D"></path>
                                    <path d="M83.3333333,81.9444444 C79.4444444,87.7777778 73.8888889,92.7777778 67.7777778,96.1111111 C75.2777778,101.111111 84.1666667,104.166667 93.8888889,104.166667 C100,104.166667 106.111111,103.055556 111.388889,100.833333 C99.7222222,98.3333333 89.7222222,91.6666667 83.3333333,81.9444444 L83.3333333,81.9444444 Z" fill="url(#linearGradient-3)"></path>
                                    <path d="M67.7777778,17.7777778 C74.1666667,21.1111111 79.4444444,26.1111111 83.3333333,31.9444444 C89.7222222,22.5 99.7222222,15.5555556 111.388889,13.3333333 C105.833333,11.1111111 100,10 93.8888889,10 C84.1666667,9.72222222 75.2777778,12.7777778 67.7777778,17.7777778 L67.7777778,17.7777778 Z" fill="url(#linearGradient-4)"></path>
                                    <path d="M83.3333333,31.9444444 C88.3333333,39.1666667 91.1111111,47.7777778 91.1111111,56.9444444 C91.1111111,66.3888889 88.3333333,75 83.3333333,81.9444444 C89.7222222,91.3888889 99.7222222,98.3333333 111.388889,100.555556 C128.888889,93.6111111 141.111111,76.6666667 141.111111,56.6666667 C141.111111,36.6666667 128.888889,19.7222222 111.388889,12.7777778 C99.7222222,15.5555556 89.7222222,22.2222222 83.3333333,31.9444444 L83.3333333,31.9444444 Z" fill="url(#linearGradient-5)"></path>
                                    <path d="M37.2222222,56.9444444 C37.2222222,39.4444444 45,23.8888889 57.5,13.6111111 C53.8888889,12.7777778 50.2777778,12.2222222 46.3888889,12.2222222 C21.6666667,12.2222222 1.66666667,32.2222222 1.66666667,56.9444444 C1.66666667,81.6666667 21.6666667,101.666667 46.3888889,101.666667 C50.2777778,101.666667 53.8888889,101.111111 57.5,100.277778 C45,90 37.2222222,74.4444444 37.2222222,56.9444444 L37.2222222,56.9444444 Z" fill="#ED1C24"></path>
                                    <path d="M46.6666667,56.9444444 C46.6666667,40.5555556 55,26.1111111 67.7777778,17.7777778 C64.4444444,16.1111111 61.1111111,14.7222222 57.5,13.6111111 C45.2777778,23.8888889 37.2222222,39.4444444 37.2222222,56.9444444 C37.2222222,74.4444444 45,90 57.5,100.277778 C61.1111111,99.4444444 64.7222222,98.0555556 67.7777778,96.1111111 C55,87.7777778 46.6666667,73.3333333 46.6666667,56.9444444 L46.6666667,56.9444444 Z" fill="url(#linearGradient-6)"></path>
                                    <path d="M83.3333333,81.9444444 C78.3333333,74.7222222 75.5555556,66.1111111 75.5555556,56.9444444 C75.5555556,47.5 78.3333333,38.8888889 83.3333333,31.9444444 C79.4444444,26.1111111 73.8888889,21.1111111 67.7777778,17.7777778 C55,26.1111111 46.6666667,40.5555556 46.6666667,56.9444444 C46.6666667,73.3333333 55,87.7777778 67.7777778,96.1111111 C73.8888889,92.7777778 79.4444444,88.0555556 83.3333333,81.9444444 L83.3333333,81.9444444 Z" fill="url(#linearGradient-7)"></path>
                                    <path d="M83.3333333,81.9444444 C88.3333333,74.7222222 91.1111111,66.1111111 91.1111111,56.9444444 C91.1111111,47.5 88.3333333,38.8888889 83.3333333,31.9444444 C78.3333333,39.1666667 75.5555556,47.7777778 75.5555556,56.9444444 C75.5555556,66.3888889 78.3333333,75 83.3333333,81.9444444 L83.3333333,81.9444444 Z" fill="url(#linearGradient-8)"></path>
                                    <path d="M131.388889,103.888889 L130.833333,103.888889 L130.833333,103.611111 L132.5,103.611111 L132.5,103.888889 L131.944444,103.888889 L131.944444,105.555556 L131.666667,105.555556 L131.666667,103.888889 L131.388889,103.888889 Z M132.777778,103.611111 L133.333333,103.611111 L133.888889,105 L134.444444,103.611111 L135,103.611111 L135,105.555556 L134.722222,105.555556 L134.722222,103.888889 L134.722222,103.888889 L134.166667,105.555556 L133.888889,105.555556 L133.333333,103.888889 L133.333333,103.888889 L133.333333,105.555556 L133.055556,105.555556 L133.055556,103.611111 L132.777778,103.611111 Z" fill="#FAA61A"></path>
                                </g>
                                <g transform="translate(0.000000, 122.222222)" id="Shape" fill="#455560">
                                    <path d="M16.1111111,8.33333333 L16.1111111,31.1111111 L10,31.1111111 L10,8.33333333 L1.38888889,8.33333333 L1.38888889,3.33333333 L25,3.33333333 L25,8.33333333 L16.1111111,8.33333333 L16.1111111,8.33333333 Z M40.5555556,31.1111111 L40.5555556,18.8888889 C40.5555556,16.3888889 40.2777778,13.8888889 36.9444444,13.8888889 C33.6111111,13.8888889 32.7777778,16.6666667 32.7777778,19.4444444 L32.7777778,31.1111111 L26.9444444,31.1111111 L26.9444444,1.11111111 L32.7777778,1.11111111 L32.7777778,13.6111111 C34.1666667,11.1111111 36.3888889,9.72222222 39.1666667,9.72222222 C44.1666667,9.72222222 46.1111111,12.7777778 46.1111111,17.5 L46.1111111,31.1111111 L40.5555556,31.1111111 L40.5555556,31.1111111 Z M55,22.2222222 C55,25.8333333 57.7777778,28.0555556 61.1111111,28.0555556 C63.0555556,28.0555556 65.5555556,27.5 67.5,26.6666667 L67.7777778,30.5555556 C65.5555556,31.3888889 62.5,31.6666667 60,31.6666667 C53.0555556,31.6666667 49.1666667,27.5 49.1666667,20.5555556 C49.1666667,14.4444444 53.3333333,9.72222222 59.4444444,9.72222222 C66.1111111,9.72222222 68.8888889,14.4444444 68.8888889,20.8333333 L68.8888889,22.2222222 L55,22.2222222 L55,22.2222222 Z M59.4444444,13.3333333 C56.1111111,13.3333333 55,16.6666667 55,19.1666667 L63.6111111,19.1666667 C63.6111111,16.6666667 62.5,13.3333333 59.4444444,13.3333333 L59.4444444,13.3333333 Z M109.444444,31.1111111 L109.444444,7.22222222 L101.388889,31.1111111 L96.1111111,31.1111111 L88.0555556,7.22222222 L88.0555556,31.1111111 L82.5,31.1111111 L82.5,3.33333333 L91.6666667,3.33333333 L98.8888889,24.4444444 L106.111111,3.33333333 L115.277778,3.33333333 L115.277778,31.1111111 L109.444444,31.1111111 L109.444444,31.1111111 Z M132.777778,31.1111111 L132.777778,27.7777778 C131.388889,30 128.888889,31.3888889 126.111111,31.3888889 C122.222222,31.3888889 119.166667,29.4444444 119.166667,25.2777778 C119.166667,19.7222222 124.444444,17.7777778 130.277778,17.7777778 L132.777778,17.7777778 L132.777778,16.9444444 C132.777778,13.8888889 130.833333,12.7777778 127.777778,12.7777778 C125.555556,12.7777778 123.333333,13.3333333 121.388889,14.4444444 L121.111111,10.5555556 C123.333333,9.72222222 126.111111,9.16666667 128.333333,9.16666667 C133.888889,9.16666667 138.055556,11.1111111 138.055556,17.2222222 L138.055556,25.5555556 C138.055556,27.7777778 138.055556,29.1666667 138.333333,30.5555556 L132.777778,30.5555556 L132.777778,31.1111111 Z M132.5,21.3888889 L131.666667,21.3888889 C128.888889,21.3888889 124.166667,21.6666667 124.166667,25.2777778 C124.166667,27.2222222 125.833333,28.0555556 127.5,28.0555556 C131.111111,28.0555556 132.222222,25.2777778 132.222222,22.2222222 L132.222222,21.3888889 L132.5,21.3888889 Z M148.888889,31.6666667 C146.388889,31.6666667 144.166667,31.3888889 141.944444,30.5555556 L142.222222,26.6666667 C144.166667,27.5 146.388889,28.0555556 148.333333,28.0555556 C150.277778,28.0555556 152.222222,27.5 152.222222,25.2777778 C152.222222,21.1111111 141.666667,22.7777778 141.666667,15.8333333 C141.666667,11.1111111 146.666667,9.72222222 150.555556,9.72222222 C152.5,9.72222222 154.722222,10 156.666667,10.5555556 L156.388889,14.1666667 C154.722222,13.6111111 152.777778,13.0555556 150.833333,13.0555556 C149.166667,13.0555556 146.944444,13.6111111 146.944444,15.5555556 C146.944444,18.8888889 157.5,17.5 157.5,24.7222222 C157.777778,30 153.055556,31.6666667 148.888889,31.6666667 L148.888889,31.6666667 Z M169.166667,31.6666667 C164.444444,31.6666667 163.333333,28.6111111 163.333333,24.1666667 L163.333333,13.8888889 L159.722222,13.8888889 L159.722222,10 L163.333333,10 L163.333333,5.83333333 L169.166667,3.88888889 L169.166667,10 L173.888889,10 L173.888889,13.8888889 L169.166667,13.8888889 L169.166667,24.1666667 C169.166667,25.8333333 169.722222,27.2222222 171.666667,27.2222222 C172.5,27.2222222 173.333333,26.9444444 173.888889,26.6666667 L174.166667,30.5555556 C172.5,31.3888889 170.833333,31.6666667 169.166667,31.6666667 L169.166667,31.6666667 Z M181.944444,22.2222222 C181.944444,25.8333333 184.722222,28.0555556 188.055556,28.0555556 C190,28.0555556 192.5,27.5 194.444444,26.6666667 L194.722222,30.5555556 C192.5,31.3888889 189.444444,31.6666667 186.944444,31.6666667 C180,31.6666667 176.111111,27.5 176.111111,20.5555556 C176.111111,14.4444444 180.277778,9.72222222 186.388889,9.72222222 C193.055556,9.72222222 195.833333,14.4444444 195.833333,20.8333333 L195.833333,22.2222222 L181.944444,22.2222222 L181.944444,22.2222222 Z M186.388889,13.3333333 C183.055556,13.3333333 181.944444,16.6666667 181.944444,19.1666667 L190.555556,19.1666667 C190.555556,16.6666667 189.722222,13.3333333 186.388889,13.3333333 L186.388889,13.3333333 Z M212.222222,15.2777778 C211.666667,15 211.111111,15 210.555556,15 C206.666667,15 205.277778,18.6111111 205.277778,21.9444444 L205.277778,31.3888889 L199.444444,31.3888889 L199.444444,15.2777778 C199.444444,13.6111111 199.444444,12.2222222 199.166667,10.5555556 L204.444444,10.5555556 L204.444444,14.7222222 C205.277778,12.5 207.5,10.2777778 210.277778,10.2777778 C210.833333,10.2777778 211.388889,10.2777778 211.944444,10.5555556 L212.222222,15.2777778 L212.222222,15.2777778 Z M230.277778,31.6666667 C221.388889,31.6666667 215,26.6666667 215,17.2222222 C215,8.61111111 221.666667,2.77777778 230.277778,2.77777778 C232.5,2.77777778 235.277778,3.05555556 237.222222,3.88888889 L236.944444,8.61111111 C235.277778,7.77777778 233.055556,7.5 231.111111,7.5 C225.277778,7.5 221.388889,11.6666667 221.388889,17.2222222 C221.388889,23.0555556 225,26.9444444 230.833333,26.9444444 C232.777778,26.9444444 235,26.6666667 236.666667,25.8333333 L236.944444,30.2777778 C235.277778,31.3888889 232.777778,31.6666667 230.277778,31.6666667 L230.277778,31.6666667 Z M253.611111,31.1111111 L253.611111,27.7777778 C252.222222,30 249.722222,31.3888889 246.944444,31.3888889 C243.055556,31.3888889 240,29.4444444 240,25.2777778 C240,19.7222222 245.277778,17.7777778 251.111111,17.7777778 L253.611111,17.7777778 L253.611111,16.9444444 C253.611111,13.8888889 251.666667,12.7777778 248.611111,12.7777778 C246.388889,12.7777778 244.166667,13.3333333 242.222222,14.4444444 L241.944444,10.5555556 C244.166667,9.72222222 246.944444,9.16666667 249.166667,9.16666667 C254.722222,9.16666667 258.888889,11.1111111 258.888889,17.2222222 L258.888889,25.5555556 C258.888889,27.7777778 258.888889,29.1666667 259.166667,30.5555556 L253.611111,30.5555556 L253.611111,31.1111111 Z M253.611111,21.3888889 L252.777778,21.3888889 C250,21.3888889 245.277778,21.6666667 245.277778,25.2777778 C245.277778,27.2222222 246.944444,28.0555556 248.611111,28.0555556 C252.222222,28.0555556 253.333333,25.2777778 253.333333,22.2222222 L253.333333,21.3888889 L253.611111,21.3888889 Z M276.111111,15.2777778 C275.555556,15 275,15 274.444444,15 C270.555556,15 269.166667,18.6111111 269.166667,21.9444444 L269.166667,31.3888889 L263.333333,31.3888889 L263.333333,15.2777778 C263.333333,13.6111111 263.333333,12.2222222 263.055556,10.5555556 L268.333333,10.5555556 L268.333333,14.7222222 C269.166667,12.5 271.388889,10.2777778 274.166667,10.2777778 C274.722222,10.2777778 275.277778,10.2777778 275.833333,10.5555556 L276.111111,15.2777778 L276.111111,15.2777778 Z M293.611111,31.1111111 L293.333333,27.7777778 C291.944444,30.2777778 289.722222,31.6666667 286.666667,31.6666667 C280.277778,31.6666667 277.777778,26.3888889 277.777778,20.5555556 C277.777778,15 280.277778,9.72222222 286.388889,9.72222222 C288.888889,9.72222222 291.666667,11.1111111 292.777778,13.6111111 L292.777778,1.11111111 L298.611111,1.11111111 L298.611111,25.2777778 C298.611111,27.7777778 298.611111,29.4444444 298.888889,31.1111111 L293.611111,31.1111111 L293.611111,31.1111111 Z M288.611111,13.8888889 C285,13.8888889 284.166667,17.7777778 284.166667,20.5555556 C284.166667,23.6111111 285,27.5 288.611111,27.5 C292.222222,27.5 293.055556,23.3333333 293.055556,20.5555556 C293.055556,17.7777778 292.222222,13.8888889 288.611111,13.8888889 L288.611111,13.8888889 Z"></path>
                                    <path d="M53.0555556,48.0555556 L53.0555556,55.5555556 L64.1666667,55.5555556 L64.1666667,59.7222222 L53.0555556,59.7222222 L53.0555556,71.3888889 L46.9444444,71.3888889 L46.9444444,43.6111111 L64.7222222,43.6111111 L64.7222222,47.7777778 L53.0555556,47.7777778 L53.0555556,48.0555556 Z M78.6111111,71.9444444 C71.6666667,71.9444444 67.7777778,67.7777778 67.7777778,60.8333333 C67.7777778,53.8888889 72.2222222,50 78.6111111,50 C85.2777778,50 89.4444444,53.8888889 89.4444444,60.8333333 C89.4444444,67.7777778 85.2777778,71.9444444 78.6111111,71.9444444 L78.6111111,71.9444444 Z M78.6111111,54.1666667 C75,54.1666667 73.8888889,57.7777778 73.8888889,61.1111111 C73.8888889,64.4444444 75,68.0555556 78.6111111,68.0555556 C82.2222222,68.0555556 83.3333333,64.4444444 83.3333333,61.1111111 C83.3333333,57.7777778 82.2222222,54.1666667 78.6111111,54.1666667 L78.6111111,54.1666667 Z M106.944444,71.3888889 L106.944444,67.7777778 C105.555556,70.2777778 103.055556,71.6666667 100.277778,71.6666667 C95.2777778,71.6666667 93.3333333,68.6111111 93.3333333,63.8888889 L93.3333333,50.2777778 L99.1666667,50.2777778 L99.1666667,62.5 C99.1666667,65 99.4444444,67.5 102.5,67.5 C105.833333,67.5 106.666667,64.4444444 106.666667,61.6666667 L106.666667,50.2777778 L112.5,50.2777778 L112.5,66.3888889 C112.5,68.0555556 112.5,69.4444444 112.777778,71.1111111 L106.944444,71.1111111 L106.944444,71.3888889 Z M130.277778,71.3888889 L130.277778,59.1666667 C130.277778,56.6666667 129.722222,54.1666667 126.666667,54.1666667 C123.333333,54.1666667 122.5,56.9444444 122.5,59.7222222 L122.5,71.3888889 L116.666667,71.3888889 L116.666667,55.2777778 C116.666667,53.6111111 116.666667,52.2222222 116.388889,50.5555556 L121.666667,50.5555556 L121.666667,54.1666667 C123.055556,51.6666667 125.555556,50.2777778 128.333333,50.2777778 C133.333333,50.2777778 135.277778,53.3333333 135.277778,58.0555556 L135.277778,71.6666667 L130.277778,71.6666667 L130.277778,71.3888889 Z M155.555556,71.3888889 L155.277778,68.0555556 C153.888889,70.5555556 151.388889,71.9444444 148.611111,71.9444444 C142.222222,71.9444444 139.722222,66.6666667 139.722222,60.8333333 C139.722222,55.2777778 142.222222,50 148.333333,50 C150.833333,50 153.611111,51.3888889 154.722222,53.8888889 L154.722222,41.3888889 L160.555556,41.3888889 L160.555556,65.5555556 C160.555556,68.0555556 160.555556,69.7222222 160.833333,71.3888889 L155.555556,71.3888889 L155.555556,71.3888889 Z M150.555556,54.1666667 C146.666667,54.1666667 146.111111,58.0555556 146.111111,60.8333333 C146.111111,63.8888889 146.944444,67.7777778 150.555556,67.7777778 C154.166667,67.7777778 155,63.6111111 155,60.8333333 C155,58.0555556 154.166667,54.1666667 150.555556,54.1666667 L150.555556,54.1666667 Z M178.333333,71.3888889 L178.333333,68.0555556 C176.944444,70.2777778 174.444444,71.6666667 171.666667,71.6666667 C167.777778,71.6666667 164.722222,69.7222222 164.722222,65.5555556 C164.722222,60 170,58.0555556 175.833333,58.0555556 L178.333333,58.0555556 L178.333333,57.2222222 C178.333333,54.4444444 176.388889,53.0555556 173.333333,53.0555556 C171.111111,53.0555556 168.888889,53.6111111 166.944444,54.7222222 L166.666667,50.8333333 C168.888889,50 171.666667,49.4444444 173.888889,49.4444444 C179.444444,49.4444444 183.611111,51.3888889 183.611111,57.5 L183.611111,65.8333333 C183.611111,68.0555556 183.611111,69.4444444 183.888889,70.8333333 L178.333333,70.8333333 L178.333333,71.3888889 Z M178.055556,61.6666667 L177.222222,61.6666667 C174.444444,61.6666667 169.722222,61.9444444 169.722222,65.5555556 C169.722222,67.5 171.388889,68.3333333 173.055556,68.3333333 C176.666667,68.3333333 177.777778,65.5555556 177.777778,62.5 L177.777778,61.6666667 L178.055556,61.6666667 Z M195.833333,71.9444444 C191.111111,71.9444444 190,68.8888889 190,64.4444444 L190,54.1666667 L186.111111,54.1666667 L186.111111,50.2777778 L189.722222,50.2777778 L189.722222,46.1111111 L195.555556,44.1666667 L195.555556,50.2777778 L200.277778,50.2777778 L200.277778,54.1666667 L195.555556,54.1666667 L195.555556,64.4444444 C195.555556,66.1111111 196.111111,67.5 198.055556,67.5 C198.888889,67.5 199.722222,67.2222222 200.277778,66.9444444 L200.555556,70.8333333 C198.888889,71.6666667 197.222222,71.9444444 195.833333,71.9444444 L195.833333,71.9444444 Z M204.444444,46.6666667 L204.444444,41.9444444 L210.277778,41.9444444 L210.277778,46.6666667 L204.444444,46.6666667 L204.444444,46.6666667 Z M204.444444,71.3888889 L204.444444,50.5555556 L210.277778,50.5555556 L210.277778,71.3888889 L204.444444,71.3888889 L204.444444,71.3888889 Z M225,71.9444444 C218.055556,71.9444444 214.166667,67.7777778 214.166667,60.8333333 C214.166667,53.8888889 218.611111,50 225,50 C231.666667,50 235.833333,53.8888889 235.833333,60.8333333 C235.833333,67.7777778 231.666667,71.9444444 225,71.9444444 L225,71.9444444 Z M225,54.1666667 C221.388889,54.1666667 220.277778,57.7777778 220.277778,61.1111111 C220.277778,64.4444444 221.388889,68.0555556 225,68.0555556 C228.611111,68.0555556 229.722222,64.4444444 229.722222,61.1111111 C229.722222,57.7777778 228.611111,54.1666667 225,54.1666667 L225,54.1666667 Z M253.055556,71.3888889 L253.055556,59.1666667 C253.055556,56.6666667 252.777778,54.1666667 249.444444,54.1666667 C246.111111,54.1666667 245.277778,56.9444444 245.277778,59.7222222 L245.277778,71.3888889 L239.444444,71.3888889 L239.444444,55.2777778 C239.444444,53.6111111 239.444444,52.2222222 239.166667,50.5555556 L244.444444,50.5555556 L244.444444,54.1666667 C245.833333,51.6666667 248.333333,50.2777778 251.111111,50.2777778 C256.111111,50.2777778 258.055556,53.3333333 258.055556,58.0555556 L258.055556,71.6666667 L253.055556,71.6666667 L253.055556,71.3888889 Z"></path>
                                </g>
                            </g>
                        </g>
                    </g>
                </g>
            </g>
        </g>
    </g>
</svg>