<svg xmlns="http://www.w3.org/2000/svg" width="125" height="88" viewBox="0 0 125 88">
  <defs>
    <linearGradient id="a" x1="12.652%" x2="92.092%" y1="65.745%" y2="-16.134%">
      <stop stop-color="#585858" offset="0%"/>
      <stop stop-color="#585858" offset="70.55%"/>
      <stop stop-color="#5C5C5C" offset="73.71%"/>
      <stop stop-color="#656565" offset="77.82%"/>
      <stop stop-color="#767676" offset="82.45%"/>
      <stop stop-color="#8D8D8D" offset="87.48%"/>
      <stop stop-color="#ACACAC" offset="92.82%"/>
      <stop stop-color="#D7D7D7" offset="98.34%"/>
      <stop stop-color="#E8E8E8" offset="100%"/>
    </linearGradient>
  </defs>
  <g fill="none" fill-rule="evenodd" transform="translate(0 22)">
    <g fill="#585858" transform="translate(66.25 5)">
      <path d="M16.816875 28.365C16.780625 28.38375 16.748125 28.4025 16.71375 28.423125 11.13375 31.488125 5.589375 34.4875.58125 37.12625 7.033125 34.214375 12.28625 31.65 17.2575 29.004375 17.098125 28.801875 16.953125 28.585625 16.816875 28.365M50.53.1975C52.03125 4.340625 44.761875 10.9425 34.3975 17.838125 34.48875 18.19625 34.564375 18.565625 34.613125 18.95 34.64125 18.933125 34.668125 18.916875 34.69375 18.9 47.4875 11.044375 54.431875 6.1125 50.53.1975"/>
    </g>
    <path fill="url(#a)" d="M82.2125,31.4475 C82.208125,31.4525 82.204375,31.455625 82.199375,31.45875 C77.040625,35.110625 70.93,38.94625 64.355,42.97 L64.09625,43.12375 C64.008125,43.18625 63.98625,43.306875 64.05,43.3975 C64.111875,43.485625 64.234375,43.50625 64.321875,43.44375 L64.543125,43.329375 C70.116875,40.419375 76.519375,36.965 82.965,33.4225 C82.999375,33.401875 83.031875,33.38375 83.068125,33.364375 C82.711875,32.78375 82.42,32.14875 82.2125,31.4475 L82.2125,31.4475 L82.2125,31.4475 Z M116.070625,4.04125 C107.94,-4.928125 55.621875,3.14 33.373125,7.999375 L32.85375,8.1125 C32.74625,8.130625 32.676875,8.23375 32.694375,8.34 C32.7125,8.445625 32.814375,8.5175 32.92375,8.499375 L33.435625,8.39875 C51.869375,5.1175 90.20125,0.566875 98.449375,8.74625 C100.968125,11.24125 100.365,14.45625 97.448125,18.24875 C99.021875,19.26 100.1425,20.84875 100.645625,22.83875 C112.04,15.259375 119.694375,8.03625 116.070625,4.04125 L116.070625,4.04125 L116.070625,4.04125 Z"/>
    <g fill="#333333" transform="translate(15 17.5)">
      <path d="M70.504375 11.5925C70.610625 14.74875 72.605 17.333125 75.210625 17.333125 80.2575 17.333125 82.4025 11.138125 82.255 6.99625 82.14875 3.8325 80.1 1.255 77.499375 1.255 73.159375 1.255625 70.355 7.423125 70.504375 11.5925L70.504375 11.5925 70.504375 11.5925zM67.838125 11.423125C67.65125 6.03875 71.87.5325 78 .5325 82.1.5325 84.780625 3.2625 84.930625 7.446875 85.1275 13.124375 81.186875 18.33875 74.76875 18.33875 70.67 18.33875 67.988125 15.6125 67.838125 11.423125L67.838125 11.423125 67.838125 11.423125zM9.785 10.000625C9.566875 10.08375 9.2825 10.16625 8.9325 10.239375 8.583125 10.3175 7.944375 10.43125 7.016875 10.576875 6.37625 10.678125 5.934375 10.81125 5.679375 10.9925 5.438125 11.17375 5.295625 11.38625 5.25625 11.64625 5.204375 11.925 5.295 12.14625 5.53625 12.32 5.78125 12.49125 6.1925 12.579375 6.7725 12.579375 7.206875 12.579375 7.6325 12.50875 8.045625 12.37625 8.461875 12.24 8.81375 12.054375 9.084375 11.82375 9.2825 11.653125 9.426875 11.433125 9.53125 11.173125 9.59375 11.00125 9.6825 10.6125 9.785 10.000625L9.785 10.000625 9.785 10.000625zM15.11375 6.688125C15.090625 7.183125 15.00375 7.615625 14.871875 8.3725L13.970625 13.431875C13.89375 13.880625 14.060625 14.234375 14.476875 14.47375L14.449375 14.6725 9.288125 14.664375 9.243125 13.37875C8.49125 13.83 7.584375 14.211875 6.7625 14.43875 5.946875 14.6475 5.285 14.740625 4.29 14.740625 2.621875 14.740625 1.669375 14.568125 1.00875 13.989375.339375 13.39375.018125 12.99875.04875 12.178125.0725 11.705625.31875 11.100625.6725 10.6775 1.03 10.24625 1.51625 9.965 2.04625 9.719375 2.578125 9.465 3.20375 9.283125 4.115625 9.1375 5.03 8.9875 6.300625 8.840625 8.00375 8.698125 8.898125 8.62375 9.443125 8.415625 9.69875 8.31625 10.054375 8.1775 10.1925 8.024375 10.245625 7.735 10.341875 7.215 10.175625 6.91875 9.485 6.780625 7.625625 6.415625 4.1425 7.0175 2.345 7.468125L3.32125 4.8325C5.690625 4.4875 7.910625 4.268125 10.248125 4.268125 13.96 4.268125 15.15 5.328125 15.11375 6.688125L15.11375 6.688125 15.11375 6.688125zM30.071875 14.673125L31.861875 4.56375 36.80375 4.56375 35.013125 14.673125 30.071875 14.673125 30.071875 14.673125 30.071875 14.673125zM32.136875 2.22375C32.285 1.3925 33.596875.718125 35.059375.718125 36.528125.718125 37.599375 1.3925 37.458125 2.22375 37.303125 3.055 35.99375 3.728125 34.52375 3.728125 33.05375 3.728125 31.9875 3.055 32.136875 2.22375L32.136875 2.22375 32.136875 2.22375z"/>
    </g>
    <g fill="#333333" transform="translate(0 17.5)">
      <path d="M69.353125 10.026875C69.131875 10.10125 68.844375 10.181875 68.495625 10.26375 68.148125 10.345625 67.51 10.4475 66.57625 10.600625 65.94 10.7025 65.49 10.835625 65.245625 11.01625 65.0075 11.19 64.868125 11.40625 64.818125 11.6675 64.76625 11.946875 64.8675 12.171875 65.098125 12.338125 65.3475 12.510625 65.761875 12.595 66.3425 12.595 66.771875 12.595 67.19375 12.53 67.609375 12.400625 68.030625 12.25875 68.38 12.0775 68.653125 11.846875 68.84375 11.676875 68.98875 11.45125 69.091875 11.189375 69.15625 11.021875 69.24375 10.63125 69.353125 10.026875L69.353125 10.026875 69.353125 10.026875zM74.68 6.7075C74.656875 7.204375 74.57125 7.6425 74.4325 8.39L73.53875 13.454375C73.460625 13.90125 73.62625 14.25375 74.041875 14.501875L74.011875 14.67625 68.8525 14.686875 68.811875 13.3975C68.05875 13.854375 67.146875 14.235 66.33125 14.458125 65.51125 14.673125 64.848125 14.761875 63.85 14.761875 62.183125 14.761875 61.236875 14.5925 60.575625 14.010625 59.9025 13.413125 59.5775 13.02 59.61375 12.201875 59.631875 11.726875 59.879375 11.119375 60.235625 10.701875 60.593125 10.265 61.07875 9.99 61.6125 9.74 62.145 9.49125 62.775 9.30375 63.67625 9.153125 64.594375 9.01 65.86875 8.858125 67.568125 8.715 68.456875 8.6425 69.0025 8.439375 69.25625 8.34375 69.615625 8.20375 69.756875 8.0475 69.810625 7.7575 69.903125 7.2475 69.74 6.9425 69.05375 6.804375 67.185625 6.435625 63.710625 7.040625 61.91375 7.4875L62.885 4.856875C65.263125 4.50875 67.4725 4.288125 69.811875 4.288125 73.525625 4.28625 74.709375 5.350625 74.68 6.7075L74.68 6.7075 74.68 6.7075zM14.373125 11.039375C12.76375 11.358125 11.86 11.480625 10.269375 11.480625 7.908125 11.480625 6.033125 10.30875 6.134375 8.16125 6.206875 6.730625 7.9025 3.70875 12.209375 3.70875 13.565 3.70875 14.625 3.948125 16.050625 4.760625L16.675625 1.25125C14.73875.518125 13.4525.408125 11.790625.426875 6.14625.4875.7225 3.055.05 8.2725-.633125 13.57625 5.84375 14.909375 8.71875 14.8975 10.38 14.893125 12.105625 14.824375 13.715625 14.658125L14.373125 11.039375"/>
    </g>
    <g fill="#333333" transform="translate(29.375 17.5)">
      <path d="M25.151875,4.505 L25.5075,2.4475 L30.675,1.324375 L30.125625,4.505 L32.6575,4.505 L32.175625,6.54125 L29.720625,6.535 L28.228125,14.665625 C28.228125,14.665625 23.25375,14.630625 23.235,14.665625 L24.720625,6.55625 L22.8425,6.55625 L23.223125,4.504375 L25.151875,4.505"/>
      <polyline points="50.321 14.666 45.288 14.673 47.819 .569 52.721 .708 50.321 14.666"/>
      <path d="M9.161875 6.935C8.514375 6.935 7.92875 7.129375 7.405625 7.5225 6.889375 7.915 6.56125 8.488125 6.429375 9.2525 6.273125 10.135 6.36375 10.765625 6.715 11.16 7.06625 11.548125 7.574375 11.74375 8.2425 11.74375 8.69125 11.74375 9.15625 11.66375 9.499375 11.49375 9.920625 11.271875 10.214375 11.035 10.466875 10.6625 10.73875 10.271875 10.918125 9.835 11.01125 9.32875 11.151875 8.53125 11.0325 7.931875 10.661875 7.53875 10.301875 7.1325 9.80625 6.935 9.161875 6.935L9.161875 6.935 9.161875 6.935zM.164375 18.163125L2.57 4.615 6.9075 4.615 6.5725 6.343125C6.949375 5.828125 7.551875 5.403125 8.380625 5.0575 9.21875 4.714375 10.160625 4.46125 11.18375 4.46125 12.316875 4.46125 13.014375 4.52125 13.86375 4.96125 14.70625 5.401875 15.2925 6.04375 15.614375 6.87875 15.9375 7.69875 16.00625 8.624375 15.83 9.63 15.536875 11.300625 14.72125 12.616875 13.38875 13.585 12.064375 14.553125 10.871875 14.805625 9.169375 14.813125 8.568125 14.813125 8.065 14.750625 7.643125 14.648125 7.235625 14.53875 6.908125 14.41 6.659375 14.251875 6.42375 14.0925 6.17125 13.871875 5.84625 13.516875L5.03875 18.16125.164375 18.16125.164375 18.163125.164375 18.163125zM89.873125 8.174375C89.84375 7.358125 89.43375 6.81 88.5925 6.81 86.566875 6.81 84.411875 10.78125 84.040625 12.3825 87.3625 12.3825 89.953125 10.403125 89.873125 8.174375L89.873125 8.174375 89.873125 8.174375zM90.305625 14.39625L90.69625 14.661875C89.70875 16.67625 87.6925 18.294375 85.329375 18.294375 83.395625 18.294375 81.81 17.0075 81.726875 14.58875 81.570625 10.2575 85.626875 6.2325 88.9525 6.2325 90.378125 6.2325 91.7 6.855625 91.76 8.39 91.88125 11.836875 87.043125 12.888125 83.856875 12.96125 83.753125 13.320625 83.71375 13.681875 83.73375 14.23375 83.78625 15.661875 84.650625 16.861875 86.4375 16.861875 87.981875 16.8625 89.52375 15.62125 90.305625 14.39625L90.305625 14.39625 90.305625 14.39625z"/>
      <path d="M70.481875 8.06C70.825 8.01625 71.37875 7.95375 71.614375 7.95375 71.98125 7.95375 72.320625 8.023125 72.3375 8.383125 72.345625 8.598125 71.96 10.13125 71.878125 10.48875L71.108125 13.88625C70.796875 15.27625 70.45875 16.73375 70.16 17.88375L72.139375 17.88375 73.251875 12.49875C76.64875 8.96125 77.955625 7.80875 78.758125 7.80875 79.119375 7.80875 79.36875 7.998125 79.383125 8.43125 79.40375 9.054375 79.019375 10.4675 78.88375 10.8725L77.7475 14.7975C77.49 15.680625 77.298125 16.476875 77.3175 17.044375 77.350625 17.90625 77.873125 18.290625 78.645 18.290625 80.091875 18.290625 81.1425 16.780625 82.06125 15.3L81.79375 14.814375C81.41875 15.41125 80.563125 16.711875 79.884375 16.711875 79.670625 16.711875 79.469375 16.5675 79.461875 16.208125 79.4425 15.749375 79.636875 15.065625 79.769375 14.6075L81.030625 10.006875C81.36875 8.74 81.53125 7.926875 81.5225 7.491875 81.490625 6.634375 80.98875 6.230625 80.2225 6.230625 78.92 6.230625 77.188125 7.1825 73.525625 11.39875L73.473125 11.39875 73.935 9.339375C74.183125 8.21625 74.429375 7.043125 74.6675 6.230625 73.40125 6.6875 71.585 7.198125 70.4625 7.415625L70.481875 8.06M92.065625 4.400625C92.065625 3.3925 92.88125 2.65 93.851875 2.65 94.808125 2.65 95.625 3.3925 95.625 4.400625 95.625 5.421875 94.808125 6.166875 93.851875 6.166875 92.879375 6.166875 92.065625 5.42125 92.065625 4.400625L92.065625 4.400625 92.065625 4.400625zM93.851875 5.87625C94.64375 5.87625 95.271875 5.255 95.271875 4.400625 95.271875 3.569375 94.643125 2.94125 93.851875 2.94125 93.04125 2.94125 92.418125 3.569375 92.418125 4.400625 92.418125 5.255 93.04125 5.87625 93.851875 5.87625L93.851875 5.87625 93.851875 5.87625zM93.47875 5.42125L93.165 5.42125 93.165 3.391875 93.94125 3.391875C94.420625 3.391875 94.658125 3.56875 94.658125 3.96625 94.658125 4.3325 94.4325 4.486875 94.13 4.526875L94.709375 5.420625 94.360625 5.420625 93.826875 4.54 93.47625 4.54 93.47625 5.42125 93.47875 5.42125 93.47875 5.42125zM93.84125 4.28375C94.10375 4.28375 94.333125 4.2625 94.333125 3.94875 94.333125 3.698125 94.111875 3.65 93.89375 3.65L93.47875 3.65 93.47875 4.28375 93.84125 4.28375 93.84125 4.28375 93.84125 4.28375z"/>
    </g>
  </g>
</svg>
