<svg xmlns="http://www.w3.org/2000/svg" width="125" height="88" viewBox="0 0 125 88">
  <g fill="none" fill-rule="evenodd" transform="translate(0 30)">
    <g fill="#010101" opacity=".54" transform="translate(83.75 7.5)">
      <path d="M.61625 11.38C.61625 10.413125 1.379375 9.649375 2.34625 9.649375 3.31375 9.649375 4.0775 10.413125 4.0775 11.38 4.0775 12.346875 3.31375 13.110625 2.34625 13.110625 1.379375 13.110625.61625 12.346875.61625 11.38M18.834375 6.72375C18.834375 10.515 16.16375 13.365 12.4225 13.365 8.68125 13.365 6.01 10.515 6.01 6.72375 6.01 2.9325 8.68125.0825 12.4225.0825 16.161875.0825 18.834375 2.9325 18.834375 6.72375M16.494375 6.72375C16.494375 3.87375 14.50875 2.22 12.4225 2.22 10.335625 2.22 8.350625 3.87375 8.350625 6.72375 8.350625 9.574375 10.335625 11.2275 12.4225 11.2275 14.50875 11.2275 16.494375 9.57375 16.494375 6.72375M20.71625 12.9575L20.71625.489375 22.955.489375 22.955 2.525 23.05625 2.525C23.565 1.1 25.371875.18375 26.669375.18375 27.43375.18375 27.941875.285625 28.42625.48875L27.535 2.676875C27.204375 2.549375 26.79625 2.49875 26.28875 2.49875 24.68625 2.49875 23.05625 3.846875 23.05625 6.136875L23.05625 12.95625 20.71625 12.95625 20.71625 12.9575 20.71625 12.9575zM29.24 15.221875L31.3775 14.330625C31.834375 15.65375 33.184375 16.7225 34.863125 16.7225 37.458125 16.7225 39.01125 15.0425 39.01125 12.4225L39.01125 11.22625 38.909375 11.22625C38.145625 12.37125 36.644375 13.36375 34.66 13.36375 31.47875 13.36375 28.73125 10.539375 28.73125 6.7225 28.73125 2.905625 31.47875.08125 34.66.08125 36.644375.08125 38.145625 1.07375 38.909375 2.21875L39.01125 2.21875 39.01125.489375 41.25.489375 41.25 12.32125C41.25 16.850625 38.145625 18.860625 34.863125 18.860625 31.580625 18.860625 29.87625 16.72375 29.24 15.221875M39.01125 6.72375C39.01125 3.87375 37.128125 2.22 35.04125 2.22 32.95375 2.22 31.070625 3.925625 31.070625 6.72375 31.070625 9.523125 32.95375 11.2275 35.04125 11.2275 37.128125 11.2275 39.01125 9.57375 39.01125 6.72375"/>
    </g>
    <path fill="#797979" d="M0,10.4325 C0,4.681875 4.834375,0 10.585625,0 C13.76625,0 16.030625,1.246875 17.735625,2.875 L15.725,4.885 C14.50375,3.74 12.85,2.849375 10.585,2.849375 C6.38625,2.849375 3.10375,6.23375 3.10375,10.431875 C3.10375,14.63 6.38625,18.014375 10.585,18.014375 C13.3075,18.014375 14.859375,16.920625 15.851875,15.9275 C16.66625,15.113125 17.200625,13.94375 17.40375,12.340625 L10.585625,12.340625 L10.585625,9.490625 L20.178125,9.490625 C20.28,9.999375 20.330625,10.61 20.330625,11.271875 C20.330625,13.40875 19.745625,16.055625 17.8625,17.938125 C16.030625,19.846875 13.689375,20.864375 10.585625,20.864375 C4.834375,20.865 0,16.183125 0,10.4325"/>
    <path fill="#757575" d="M28.083125,7.43 C24.36875,7.43 21.34,10.255 21.34,14.1475 C21.34,18.015 24.368125,20.865 28.083125,20.865 C31.798125,20.865 34.82625,18.015 34.82625,14.1475 C34.82625,10.254375 31.7975,7.43 28.083125,7.43 M28.083125,18.2175 C26.0475,18.2175 24.2925,16.538125 24.2925,14.14625 C24.2925,11.72875 26.048125,10.075 28.083125,10.075 C30.11875,10.075 31.874375,11.72875 31.874375,14.14625 C31.874375,16.539375 30.11875,18.2175 28.083125,18.2175"/>
    <path fill="#BCBCBC" d="M42.7925,7.43 C39.0775,7.43 36.049375,10.255 36.049375,14.1475 C36.049375,18.015 39.0775,20.865 42.7925,20.865 C46.506875,20.865 49.535625,18.015 49.535625,14.1475 C49.535625,10.254375 46.5075,7.43 42.7925,7.43 M42.7925,18.2175 C40.756875,18.2175 39.00125,16.538125 39.00125,14.14625 C39.00125,11.72875 40.756875,10.075 42.7925,10.075 C44.828125,10.075 46.58375,11.72875 46.58375,14.14625 C46.58375,16.539375 44.828125,18.2175 42.7925,18.2175"/>
    <path fill="#797979" d="M60.8475,7.836875 L60.8475,8.930625 L60.745625,8.930625 C60.08375,8.141875 58.811875,7.429375 57.20875,7.429375 C53.85,7.429375 50.77125,10.38125 50.77125,14.1725 C50.77125,17.938125 53.85,20.864375 57.20875,20.864375 C58.811875,20.864375 60.084375,20.151875 60.745625,19.3375 L60.8475,19.3375 L60.8475,20.305 C60.8475,22.875 59.47375,24.24875 57.26,24.24875 C55.453125,24.24875 54.33375,22.95125 53.875625,21.8575 L51.305625,22.925625 C52.043125,24.7075 54.0025,26.89625 57.259375,26.89625 C60.72,26.89625 63.64625,24.860625 63.64625,19.89875 L63.64625,7.836875 L60.8475,7.836875 L60.8475,7.836875 L60.8475,7.836875 Z M57.46375,18.2175 C55.428125,18.2175 53.723125,16.5125 53.723125,14.171875 C53.723125,11.805625 55.42875,10.075 57.46375,10.075 C59.47375,10.075 61.05125,11.805625 61.05125,14.171875 C61.051875,16.51375 59.47375,18.2175 57.46375,18.2175 L57.46375,18.2175 L57.46375,18.2175 Z"/>
    <rect width="2.952" height="19.745" x="65.683" y=".713" fill="#7C7C7C"/>
    <path fill="#757575" d="M76.725625,18.2175 C75.225,18.2175 74.155625,17.530625 73.46875,16.1825 L82.450625,12.4675 L82.14625,11.704375 C81.58625,10.203125 79.880625,7.429375 76.395625,7.429375 C72.935,7.429375 70.05875,10.151875 70.05875,14.146875 C70.05875,17.9125 72.91,20.864375 76.725625,20.864375 C79.805,20.864375 81.585625,18.98125 82.32375,17.886875 L80.034375,16.360625 C79.27,17.480625 78.226875,18.2175 76.725625,18.2175 M76.496875,10.025625 C77.6675,10.025625 78.66,10.610625 78.990625,11.450625 L72.98625,13.944375 C72.90875,11.348125 74.995,10.025625 76.496875,10.025625"/>
  </g>
</svg>
