<svg xmlns="http://www.w3.org/2000/svg" width="125" height="88" viewBox="0 0 125 88">
  <g fill="none" fill-rule="evenodd" transform="translate(0 19.083)">
    <path fill="#737373" d="M24.32375,48.82875 C24.0816667,48.82875 23.8404167,48.8241667 23.6004167,48.8175 L28.57125,35.1045833 L35.4125,35.1045833 C36.6133333,35.1045833 37.9308333,34.1779167 38.3416667,33.04625 L43.7345833,18.1775 C44.6170833,15.7429167 43.2275,13.7516667 40.6475,13.7516667 L31.1570833,13.7516667 L23.1941667,35.7154167 L23.1916667,35.7154167 L18.6775,48.1658333 C7.96708333,45.6095833 0,35.94625 0,24.4145833 C0,13.2154167 7.51375,3.77833333 17.7566667,0.90125 L13.0991667,13.7525 L13.0979167,13.7525 L5.35333333,35.105 L10.5083333,35.1058333 L17.0941667,16.9608333 L20.9683333,16.9608333 L14.3825,35.1058333 L19.5354167,35.1066667 L25.6725,18.1779167 C26.555,15.74375 25.16625,13.7525 22.5879167,13.7525 L18.2545833,13.7525 L23.2308333,0.02625 C23.5933333,0.01 23.9570833,0 24.32375,0 C37.7575,0 48.6470833,10.9308333 48.6470833,24.4145833 C48.6479167,37.8983333 37.7575,48.82875 24.32375,48.82875 L24.32375,48.82875 L24.32375,48.82875 Z M39.0408333,16.9475 L35.1679167,16.9475 L29.7433333,31.8854167 L33.6170833,31.8854167 L39.0408333,16.9475 L39.0408333,16.9475 L39.0408333,16.9475 Z"/>
    <g fill="#000000" transform="translate(58.458 18.519)">
      <path d="M5.68791667 1.6675L1.59833333 1.6675 1.59833333 4.90666667 4.87 4.90666667C5.09791667 4.90666667 5.2125 5.02125 5.2125 5.25L5.2125 6.20583333 1.59833333 6.20583333 1.59833333 10.7291667.392916667 10.7291667C.154583333 10.7291667.03625 10.615.03625 10.3858333L.03625.384166667 5.34583333.384166667C5.57333333.384166667 5.6875.498333333 5.6875.7275L5.6875 1.6675M9.48 10.9083333C8.35875 10.9083333 7.54875 10.59 7.04833333 9.95333333 6.54791667 9.31708333 6.29708333 8.30625 6.29708333 6.92291667 6.29708333 5.55 6.54791667 4.54416667 7.04833333 3.9075 7.54875 3.27083333 8.35875 2.9525 9.48 2.9525 10.6 2.9525 11.4104167 3.27083333 11.9108333 3.9075 12.4120833 4.54416667 12.6620833 5.54916667 12.6620833 6.92291667 12.6620833 8.30666667 12.4120833 9.31708333 11.9108333 9.95333333 11.41125 10.59 10.6 10.9083333 9.48 10.9083333L9.48 10.9083333 9.48 10.9083333zM11.1458333 6.92208333C11.1458333 6.385 11.1133333 5.93708333 11.05 5.57875 10.9845833 5.22125 10.8854167 4.93458333 10.7520833 4.72041667 10.6179167 4.50625 10.4441667 4.35458333 10.23125 4.26541667 10.0170833 4.17541667 9.7675 4.13125 9.48 4.13125 9.19208333 4.13125 8.94208333 4.17625 8.72916667 4.26541667 8.51541667 4.35541667 8.34208333 4.50708333 8.2075 4.72041667 8.07458333 4.93458333 7.975 5.22041667 7.91 5.57875 7.84583333 5.93708333 7.81416667 6.38541667 7.81416667 6.92208333 7.81416667 7.47 7.84625 7.925 7.91 8.2875 7.975 8.65166667 8.07458333 8.93958333 8.2075 9.15375 8.34208333 9.36833333 8.51541667 9.5175 8.72916667 9.60208333 8.94208333 9.68625 9.19166667 9.72958333 9.48 9.72958333 9.76708333 9.72958333 10.0170833 9.68666667 10.23125 9.60208333 10.4441667 9.5175 10.6179167 9.36791667 10.7520833 9.15375 10.8854167 8.93958333 10.9841667 8.65166667 11.05 8.2875 11.1133333 7.925 11.1458333 7.47041667 11.1458333 6.92208333L11.1458333 6.92208333 11.1458333 6.92208333zM19.73875 3.13083333C19.9766667 3.13083333 20.0954167 3.24583333 20.0954167 3.47416667L20.0954167 10.7295833 19.1879167 10.7295833C19.0783333 10.7295833 18.9879167 10.7045833 18.9133333 10.6545833 18.8391667 10.605 18.7920833 10.5058333 18.77125 10.35625L18.71125 9.89333333C18.0966667 10.56 17.3083333 10.8929167 16.34625 10.8929167 15.94 10.8929167 15.5929167 10.8308333 15.3054167 10.7070833 15.0183333 10.5820833 14.7845833 10.4079167 14.60625 10.1845833 14.4279167 9.96041667 14.29625 9.68666667 14.2120833 9.36375 14.1275 9.04 14.0854167 8.68458333 14.0854167 8.29625L14.0854167 3.13125 15.23125 3.13125C15.3408333 3.13125 15.4266667 3.16125 15.4908333 3.22125 15.5558333 3.28125 15.5879167 3.36541667 15.5879167 3.47458333L15.5879167 8.1775C15.5879167 8.695 15.6966667 9.06583333 15.915 9.29 16.1325 9.51291667 16.45 9.62583333 16.8666667 9.62583333 17.2729167 9.62583333 17.6195833 9.54416667 17.9075 9.37916667 18.1945833 9.215 18.4229167 9.04833333 18.5920833 8.87916667L18.5920833 3.13125 19.7379167 3.13125M22.1320833 10.7291667C21.8941667 10.7291667 21.7754167 10.615 21.7754167 10.3858333L21.7754167 3.13083333 22.6829167 3.13083333C22.7916667 3.13083333 22.8829167 3.15583333 22.9575 3.20583333 23.0320833 3.25583333 23.0783333 3.35583333 23.09875 3.505L23.1591667 3.96666667C23.7729167 3.30083333 24.5620833 2.96666667 25.5241667 2.96666667 26.3370833 2.96666667 26.9166667 3.20333333 27.2645833 3.67583333 27.6116667 4.14916667 27.785 4.77833333 27.785 5.56416667L27.785 10.7291667 26.6395833 10.7291667C26.53 10.7291667 26.44375 10.6991667 26.3795833 10.6391667 26.315 10.5791667 26.2829167 10.4954167 26.2829167 10.3854167L26.2829167 5.6825C26.2829167 5.165 26.1729167 4.79416667 25.9558333 4.57083333 25.7383333 4.3475 25.42125 4.235 25.0045833 4.235 24.5983333 4.235 24.2504167 4.31666667 23.9633333 4.48166667 23.6754167 4.64583333 23.4479167 4.8125 23.2791667 4.98166667L23.2791667 10.7291667 22.1320833 10.7291667M31.7929167 10.8633333C30.8995833 10.8633333 30.2533333 10.5325 29.8520833 9.87083333 29.4508333 9.20916667 29.2495833 8.25083333 29.2495833 6.99708333 29.2495833 5.56416667 29.495 4.53666667 29.9858333 3.915 30.4766667 3.29333333 31.2179167 2.98166667 32.2091667 2.98166667 32.6258333 2.98166667 32.9704167 3.02083333 33.2425 3.10083333 33.515 3.18083333 33.7216667 3.26 33.8591667 3.34L33.8591667.0108333333 35.005.0108333333C35.1145833.0108333333 35.20125.0408333333 35.2654167.100833333 35.33.160833333 35.3616667.245 35.3616667.354166667L35.3616667 10.7295833 34.455 10.7295833C34.3445833 10.7295833 34.25375 10.7045833 34.1795833 10.6545833 34.1054167 10.605 34.05875 10.5058333 34.0383333 10.35625L33.9783333 9.89333333C33.75 10.1425 33.46 10.3658333 33.1083333 10.565 32.7570833 10.7633333 32.31875 10.8633333 31.7929167 10.8633333L31.7929167 10.8633333 31.7929167 10.8633333zM33.8591667 4.39958333C33.67125 4.32041667 33.4708333 4.25541667 33.2575 4.20541667 33.0441667 4.15541667 32.80875 4.13041667 32.55125 4.13041667 32.2033333 4.13041667 31.91375 4.18041667 31.68125 4.27958333 31.4479167 4.37875 31.265 4.54125 31.1308333 4.76458333 30.9975 4.98875 30.9029167 5.2775 30.8483333 5.63125 30.79375 5.98458333 30.76625 6.41458333 30.76625 6.92208333 30.76625 7.86833333 30.8704167 8.555 31.0795833 8.98208333 31.2870833 9.41041667 31.67375 9.62416667 32.2383333 9.62416667 32.6354167 9.62416667 32.9654167 9.54708333 33.2279167 9.39208333 33.4908333 9.23833333 33.7016667 9.08125 33.8595833 8.9225L33.8595833 4.39958333 33.8591667 4.39958333 33.8591667 4.39958333zM38.955 10.8633333C38.1820833 10.8633333 37.6066667 10.6495833 37.2304167 10.2216667 36.85375 9.79375 36.665 9.20166667 36.665 8.44583333 36.665 7.9775 36.7366667 7.58958333 36.88125 7.28083333 37.025 6.9725 37.2283333 6.72583333 37.49125 6.54166667 37.7533333 6.35791667 38.0633333 6.22875 38.4204167 6.15375 38.7770833 6.07875 39.1633333 6.04125 39.5808333 6.04125L41.1116667 6.04125 41.1116667 5.53375C41.1116667 5.01625 40.9783333 4.6625 40.71 4.47375 40.4425 4.28458333 39.9870833 4.19 39.3416667 4.19 38.90625 4.19 38.5141667 4.2125 38.1666667 4.2575 37.8195833 4.30166667 37.59125 4.32416667 37.4825 4.32416667 37.3529167 4.32416667 37.2625 4.2925 37.2079167 4.2275 37.1529167 4.1625 37.12625 4.08083333 37.12625 3.98083333L37.12625 3.33875C37.4733333 3.22958333 37.8645833 3.14 38.3008333 3.06958333 38.7370833 3 39.1833333 2.96541667 39.6391667 2.96541667 40.2041667 2.96541667 40.6754167 3.02791667 41.0516667 3.15208333 41.4283333 3.27625 41.7308333 3.45291667 41.96 3.68208333 42.1870833 3.91125 42.34875 4.18958333 42.4425 4.51791667 42.53625 4.84666667 42.5841667 5.21 42.5841667 5.60833333L42.5841667 10.7291667 41.6775 10.7291667C41.5083333 10.7291667 41.4045833 10.6916667 41.3641667 10.61625 41.3245833 10.54125 41.295 10.4545833 41.275 10.3554167L41.215 9.90708333C40.9570833 10.15625 40.6470833 10.3775 40.2854167 10.5716667 39.92375 10.7658333 39.48 10.8633333 38.955 10.8633333L38.955 10.8633333 38.955 10.8633333zM39.5345833 7.10125C39.2375 7.10125 38.9891667 7.13291667 38.7916667 7.19833333 38.5929167 7.26333333 38.4370833 7.3525 38.3233333 7.46708333 38.2091667 7.58125 38.1291667 7.71833333 38.0854167 7.87708333 38.0416667 8.03583333 38.01875 8.21083333 38.01875 8.39958333 38.01875 8.85708333 38.1279167 9.19083333 38.3458333 9.39958333 38.5633333 9.60833333 38.89625 9.71291667 39.3420833 9.71291667 39.7391667 9.71291667 40.0808333 9.63583333 40.3683333 9.48166667 40.6554167 9.32708333 40.90375 9.15041667 41.1116667 8.95208333L41.1116667 7.10083333 39.5345833 7.10125 39.5345833 7.10125 39.5345833 7.10125zM47.87375 10.68375C47.64625 10.7441667 47.4304167 10.7879167 47.2270833 10.8179167 47.02375 10.8479167 46.8129167 10.8620833 46.5941667 10.8620833 45.88125 10.8620833 45.3629167 10.70375 45.0404167 10.3845833 44.7179167 10.0658333 44.5575 9.56333333 44.5575 8.87666667L44.5575 4.32416667 44.0366667 4.32416667C43.7991667 4.32416667 43.6804167 4.21 43.6804167 3.98083333L43.6804167 3.12958333 44.5875 3.12958333 44.6620833 1.15958333 45.7033333 1.15958333C45.94125 1.15958333 46.06 1.27375 46.06 1.50291667L46.06 3.12958333 47.5175 3.12958333C47.6266667 3.12958333 47.7129167 3.15958333 47.7779167 3.21958333 47.8420833 3.27958333 47.87375 3.36375 47.87375 3.47291667L47.87375 4.32416667 46.0595833 4.32416667 46.0595833 8.8025C46.0595833 9.07125 46.1033333 9.28 46.1929167 9.42916667 46.2825 9.57791667 46.4616667 9.65291667 46.7283333 9.65291667 46.8966667 9.65291667 47.0383333 9.65041667 47.1529167 9.64541667 47.26625 9.64041667 47.3729167 9.63791667 47.4725 9.63791667 47.7408333 9.63791667 47.8745833 9.7525 47.8745833 9.98083333L47.8745833 10.68375M49.8933333 1.93666667C49.5670833 1.93666667 49.3308333 1.87416667 49.1870833 1.75041667 49.0433333 1.62583333 48.97125 1.41416667 48.97125 1.11583333 48.97125.8275 49.0429167.618333333 49.1870833.489166667 49.3308333.36 49.56625.295 49.8933333.295 50.2116667.295 50.44375.36 50.5925.489166667 50.7416667.619166667 50.8154167.8275 50.8154167 1.11583333 50.8154167 1.415 50.7416667 1.62583333 50.5925 1.75041667 50.4441667 1.87416667 50.2116667 1.93666667 49.8933333 1.93666667L49.8933333 1.93666667 49.8933333 1.93666667zM50.6383333 10.7291667L49.4925 10.7291667C49.2545833 10.7291667 49.1366667 10.615 49.1366667 10.3858333L49.1366667 3.13083333 50.28125 3.13083333C50.5195833 3.13083333 50.6383333 3.24583333 50.6383333 3.47416667L50.6383333 10.7291667 50.6383333 10.7291667 50.6383333 10.7291667zM55.2675 10.9083333C54.14625 10.9083333 53.3358333 10.59 52.8358333 9.95333333 52.3345833 9.31625 52.0845833 8.30625 52.0845833 6.92291667 52.0845833 5.55 52.3345833 4.54416667 52.8358333 3.9075 53.3358333 3.27083333 54.14625 2.9525 55.2675 2.9525 56.3875 2.9525 57.1979167 3.27083333 57.6991667 3.9075 58.1995833 4.54416667 58.45 5.54916667 58.45 6.92291667 58.45 8.30666667 58.1995833 9.31708333 57.6991667 9.95333333 57.1983333 10.59 56.3875 10.9083333 55.2675 10.9083333L55.2675 10.9083333 55.2675 10.9083333zM56.93375 6.92208333C56.93375 6.385 56.90125 5.93708333 56.8366667 5.57875 56.7720833 5.22125 56.6729167 4.93458333 56.53875 4.72041667 56.405 4.50625 56.2316667 4.35458333 56.01875 4.26541667 55.805 4.17541667 55.555 4.13125 55.2675 4.13125 54.9795833 4.13125 54.7295833 4.17625 54.5158333 4.26541667 54.3025 4.35458333 54.1291667 4.50708333 53.9958333 4.72041667 53.8620833 4.93416667 53.7620833 5.22041667 53.6983333 5.57875 53.63375 5.93708333 53.60125 6.38541667 53.60125 6.92208333 53.60125 7.47 53.63375 7.925 53.6983333 8.2875 53.7620833 8.65166667 53.8620833 8.93958333 53.9958333 9.15375 54.1291667 9.36833333 54.3025 9.5175 54.5158333 9.60208333 54.7295833 9.68625 54.9791667 9.72958333 55.2675 9.72958333 55.5545833 9.72958333 55.805 9.68666667 56.01875 9.60208333 56.2316667 9.5175 56.405 9.36791667 56.53875 9.15375 56.6729167 8.93958333 56.7720833 8.65166667 56.8366667 8.2875 56.90125 7.925 56.93375 7.47041667 56.93375 6.92208333L56.93375 6.92208333 56.93375 6.92208333zM60.26875 10.7291667C60.0304167 10.7291667 59.9116667 10.615 59.9116667 10.3858333L59.9116667 3.13083333 60.8191667 3.13083333C60.9283333 3.13083333 61.02 3.15583333 61.0941667 3.20583333 61.1691667 3.25583333 61.2154167 3.35583333 61.2358333 3.505L61.2958333 3.96666667C61.9104167 3.30083333 62.69875 2.96666667 63.66125 2.96666667 64.47375 2.96666667 65.05375 3.20333333 65.40125 3.67583333 65.7483333 4.14916667 65.9216667 4.77833333 65.9216667 5.56416667L65.9216667 10.7291667 64.77625 10.7291667C64.6666667 10.7291667 64.5808333 10.6991667 64.51625 10.6391667 64.4516667 10.5791667 64.4191667 10.4954167 64.4191667 10.3854167L64.4191667 5.6825C64.4191667 5.165 64.3104167 4.79416667 64.0929167 4.57083333 63.8741667 4.3475 63.5575 4.235 63.1408333 4.235 62.7345833 4.235 62.3879167 4.31666667 62.1 4.48166667 61.8129167 4.64583333 61.5845833 4.8125 61.4154167 4.98166667L61.4154167 10.7291667 60.26875 10.7291667"/>
    </g>
  </g>
</svg>
