<svg xmlns="http://www.w3.org/2000/svg" width="125" height="88" viewBox="0 0 125 88">
  <defs>
    <linearGradient id="a" x1="41.263%" x2="59.763%" y1="-54.452%" y2="114.378%">
      <stop stop-color="#FCFCFC" offset="0%"/>
      <stop stop-color="#F4F4F4" offset="62.69%"/>
      <stop stop-color="#EFEFEF" offset="100%"/>
    </linearGradient>
    <linearGradient id="b" x1="50.008%" x2="50.008%" y1="99.291%" y2="-.299%">
      <stop stop-color="#FFFFFF" offset="0%"/>
      <stop stop-color="#FCFCFC" offset="15%"/>
      <stop stop-color="#F4F4F4" offset="42.3%"/>
      <stop stop-color="#ECECEC" offset="78.02%"/>
      <stop stop-color="#EAEAEA" offset="100%"/>
    </linearGradient>
    <linearGradient id="c" x1="31.82%" x2="68.1%" y1="117.194%" y2="32.343%">
      <stop stop-color="#FAFAFA" offset="0%"/>
      <stop stop-color="#ECECEC" offset="44.25%"/>
      <stop stop-color="#D9D9D9" offset="100%"/>
    </linearGradient>
    <linearGradient id="d" x1="50.076%" x2="50.076%" y1="-1.157%" y2="99.551%">
      <stop stop-color="#C3C3C3" offset="0%"/>
      <stop stop-color="#ABABAB" offset="59.5%"/>
      <stop stop-color="#9D9D9D" offset="100%"/>
    </linearGradient>
    <linearGradient id="e" x1="16.481%" x2="72.741%" y1="92.19%" y2="7.01%">
      <stop stop-color="#CFCFCF" offset="0%"/>
      <stop stop-color="#B9B9B9" offset="20.88%"/>
      <stop stop-color="#959595" offset="58.7%"/>
      <stop stop-color="#7D7D7D" offset="86.07%"/>
      <stop stop-color="#727272" offset="100%"/>
    </linearGradient>
    <linearGradient id="f" x1="-.14%" x2="99.659%" y1="50.003%" y2="50.003%">
      <stop stop-color="#B0B0B0" offset="0%"/>
      <stop stop-color="#BDBDBD" offset="22.14%"/>
      <stop stop-color="#E1E1E1" offset="68.54%"/>
      <stop stop-color="#EBEBEB" offset="80%"/>
      <stop stop-color="#EBEBEB" offset="100%"/>
    </linearGradient>
    <linearGradient id="g" x1="92.516%" x2="23.664%" y1="94.208%" y2="5.659%">
      <stop stop-color="#FAFAFA" offset="0%"/>
      <stop stop-color="#EBEBEB" offset="15.87%"/>
      <stop stop-color="#C6C6C6" offset="49.34%"/>
      <stop stop-color="#909090" offset="97.36%"/>
      <stop stop-color="#8D8D8D" offset="100%"/>
    </linearGradient>
    <linearGradient id="h" x1=".237%" x2="100.231%" y1="50.877%" y2="49.247%">
      <stop stop-color="#DDDDDD" offset="0%"/>
      <stop stop-color="#DBDBDB" offset="25.1%"/>
      <stop stop-color="#D3D3D3" offset="51.1%"/>
      <stop stop-color="#C7C7C7" offset="77.42%"/>
      <stop stop-color="#B9B9B9" offset="100%"/>
    </linearGradient>
  </defs>
  <g fill="none" fill-rule="evenodd" transform="translate(0 3)">
    <g transform="translate(27.778)">
      <path fill="#B0B0B0" d="M68.3329167,23.7266667 C68.3329167,14.8145833 62.0829167,7.40708333 53.7495833,5.55541667 C58.9579167,9.83791667 62.315,16.435 62.315,23.7266667 C62.315,31.0183333 58.9579167,37.6154167 53.7495833,41.8979167 C62.0829167,40.04625 68.3329167,32.63875 68.3329167,23.7266667 L68.3329167,23.7266667 L68.3329167,23.7266667 Z"/>
      <path fill="url(#a)" d="M45.9954167,42.0141667 C43.6804167,42.94 41.2495833,43.4025 38.70375,43.4025 C34.6529167,43.4025 30.9491667,42.1295833 27.8241667,40.04625 C26.4354167,40.7408333 25.04625,41.3191667 23.5416667,41.7820833 C27.7083333,45.2545833 32.9166667,47.3379167 38.8195833,47.3379167 C44.6066667,47.3379167 49.815,45.2545833 53.8654167,41.8979167 C52.5920833,42.245 51.2033333,42.3604167 49.8145833,42.3604167 C48.4258333,42.3608333 47.26875,42.2454167 45.9954167,42.0141667 L45.9954167,42.0141667 L45.9954167,42.0141667 Z"/>
      <path fill="url(#b)" d="M38.70375,4.05083333 C41.2495833,4.05083333 43.79625,4.51375 45.9954167,5.43958333 C47.1529167,5.20791667 48.4258333,5.0925 49.6991667,5.0925 C51.0879167,5.0925 52.4770833,5.20833333 53.75,5.55541667 C49.6991667,2.19875 44.375,0.115416667 38.7041667,0.115416667 C32.9170833,0.115416667 27.5929167,2.19875 23.42625,5.67083333 C24.9308333,6.01791667 26.4358333,6.59666667 27.70875,7.40708333 C30.9491667,5.32416667 34.6529167,4.05083333 38.70375,4.05083333 L38.70375,4.05083333 L38.70375,4.05083333 Z"/>
      <path fill="#D6D6D6" d="M62.315,23.7266667 C62.315,16.435 58.9579167,9.83791667 53.7495833,5.55541667 C52.4766667,5.20833333 51.0875,5.0925 49.69875,5.0925 C48.4254167,5.0925 47.1529167,5.20833333 45.995,5.43958333 C53.2866667,8.33291667 58.3791667,15.3933333 58.3791667,23.7266667 C58.3791667,32.06 53.2866667,39.12 45.995,42.0141667 C47.1525,42.2454167 48.4254167,42.3608333 49.69875,42.3608333 C51.0875,42.3608333 52.4766667,42.2454167 53.7495833,41.8983333 C59.0741667,37.6158333 62.315,31.0183333 62.315,23.7266667 L62.315,23.7266667 L62.315,23.7266667 Z"/>
      <path fill="url(#c)" d="M34.3054167,34.1433333 C32.685,36.57375 30.3704167,38.6570833 27.82375,40.04625 C30.94875,42.1295833 34.6529167,43.4025 38.7033333,43.4025 C41.2491667,43.4025 43.7958333,42.94 45.995,42.0141667 C41.1341667,40.9720833 36.9675,38.1945833 34.3054167,34.1433333 L34.3054167,34.1433333 L34.3054167,34.1433333 Z"/>
      <path fill="url(#d)" d="M27.8241667,7.4075 C30.48625,8.79625 32.6854167,10.8795833 34.3058333,13.3104167 C36.9679167,9.37541667 41.1345833,6.48166667 45.9958333,5.55583333 C43.6804167,4.62958333 41.2495833,4.16666667 38.70375,4.16666667 C34.6529167,4.05083333 30.9491667,5.32416667 27.8241667,7.4075 L27.8241667,7.4075 L27.8241667,7.4075 Z"/>
      <path fill="url(#e)" d="M34.3054167,13.31 C36.38875,16.3191667 37.5458333,19.9070833 37.5458333,23.7266667 C37.5458333,27.6616667 36.38875,31.25 34.3054167,34.1433333 C36.9675,38.0783333 41.1341667,40.9720833 45.9954167,41.8979167 C53.2870833,39.0045833 58.3795833,31.9441667 58.3795833,23.6108333 C58.3795833,15.2775 53.2870833,8.2175 45.9954167,5.32375 C41.1341667,6.48166667 36.9675,9.25916667 34.3054167,13.31 L34.3054167,13.31 L34.3054167,13.31 Z"/>
      <path fill="#5C5C5C" d="M15.0925,23.7266667 C15.0925,16.435 18.3333333,9.95333333 23.5416667,5.67125 C22.0370833,5.32416667 20.5325,5.0925 18.9120833,5.0925 C8.61125,5.0925 0.277916667,13.4258333 0.277916667,23.7266667 C0.277916667,34.0275 8.61125,42.3608333 18.9120833,42.3608333 C20.5325,42.3608333 22.0370833,42.1295833 23.5416667,41.7820833 C18.3333333,37.5 15.0925,31.0183333 15.0925,23.7266667 L15.0925,23.7266667 L15.0925,23.7266667 Z"/>
      <path fill="url(#f)" d="M19.0279167,23.7266667 C19.0279167,16.8979167 22.5,10.8795833 27.8241667,7.40708333 C26.4354167,6.7125 25.04625,6.13375 23.5416667,5.67083333 C18.4491667,9.95375 15.0925,16.435 15.0925,23.7266667 C15.0925,31.0183333 18.3333333,37.5 23.5416667,41.7820833 C25.04625,41.435 26.5508333,40.85625 27.8241667,40.04625 C22.5,36.5741667 19.0279167,30.5554167 19.0279167,23.7266667 L19.0279167,23.7266667 L19.0279167,23.7266667 Z"/>
      <path fill="url(#g)" d="M34.3054167,34.1433333 C32.2220833,31.1341667 31.0645833,27.54625 31.0645833,23.7266667 C31.0645833,19.7916667 32.2220833,16.2033333 34.3054167,13.31 C32.685,10.8795833 30.3704167,8.79625 27.82375,7.40708333 C22.5,10.8795833 19.0279167,16.8983333 19.0279167,23.7266667 C19.0279167,30.5554167 22.5,36.57375 27.8241667,40.04625 C30.3704167,38.6575 32.6854167,36.69 34.3054167,34.1433333 L34.3054167,34.1433333 L34.3054167,34.1433333 Z"/>
      <path fill="url(#h)" d="M34.3054167,34.1433333 C36.38875,31.1341667 37.5458333,27.54625 37.5458333,23.7266667 C37.5458333,19.7916667 36.38875,16.2033333 34.3054167,13.31 C32.2220833,16.3191667 31.0645833,19.9070833 31.0645833,23.7266667 C31.0645833,27.6620833 32.2220833,31.25 34.3054167,34.1433333 L34.3054167,34.1433333 L34.3054167,34.1433333 Z"/>
      <path fill="#B0B0B0" d="M54.32875,43.2870833 L54.0970833,43.2870833 L54.0970833,43.1716667 L54.79125,43.1716667 L54.79125,43.2870833 L54.56,43.2870833 L54.56,43.9816667 L54.4445833,43.9816667 L54.4445833,43.2870833 L54.32875,43.2870833 L54.32875,43.2870833 Z M54.9075,43.17125 L55.1391667,43.17125 L55.3708333,43.75 L55.6025,43.17125 L55.83375,43.17125 L55.83375,43.98125 L55.7183333,43.98125 L55.7183333,43.2866667 L55.7183333,43.2866667 L55.4870833,43.98125 L55.37125,43.98125 L55.1395833,43.2866667 L55.1395833,43.2866667 L55.1395833,43.98125 L55.0241667,43.98125 L55.0241667,43.17125 L54.9075,43.17125 L54.9075,43.17125 Z"/>
    </g>
    <g fill="#515151" transform="translate(0 51.343)">
      <path d="M6.29625 3.05541667L6.29625 12.5458333 3.75 12.5458333 3.75 3.05541667.162083333 3.05541667.162083333.972083333 10 .972083333 10 3.05541667 6.29625 3.05541667 6.29625 3.05541667 6.29625 3.05541667zM16.4816667 12.54625L16.4816667 7.45375C16.4816667 6.41208333 16.3658333 5.37041667 14.9770833 5.37041667 13.5883333 5.37041667 13.2408333 6.5275 13.2408333 7.685L13.2408333 12.54625 10.8104167 12.54625 10.8104167.04625 13.2408333.04625 13.2408333 5.25458333C13.8195833 4.21291667 14.7454167 3.63416667 15.9029167 3.63416667 17.98625 3.63416667 18.7966667 4.9075 18.7966667 6.875L18.7966667 12.5458333 16.4816667 12.5458333 16.4816667 12.54625 16.4816667 12.54625zM22.5 8.8425C22.5 10.3470833 23.6575 11.2729167 25.04625 11.2729167 25.85625 11.2729167 26.8979167 11.0416667 27.7083333 10.6941667L27.8241667 12.3145833C26.8983333 12.6620833 25.625 12.7775 24.5833333 12.7775 21.69 12.7775 20.0695833 11.0416667 20.0695833 8.14791667 20.0695833 5.60166667 21.8058333 3.63416667 24.3520833 3.63416667 27.13 3.63416667 28.2870833 5.60166667 28.2870833 8.26375L28.2870833 8.8425 22.5 8.8425 22.5 8.8425 22.5 8.8425zM24.3516667 5.13875C22.9629167 5.13875 22.5 6.5275 22.5 7.56916667L26.0879167 7.56916667C26.0879167 6.5275 25.625 5.13875 24.3516667 5.13875L24.3516667 5.13875 24.3516667 5.13875zM45.185 12.54625L45.185 2.5925 41.8283333 12.54625 39.6295833 12.54625 36.2733333 2.5925 36.2733333 12.54625 33.9583333 12.54625 33.9583333.972083333 37.7779167.972083333 40.7870833 9.76791667 43.7966667.972083333 47.61625.972083333 47.61625 12.5458333 45.185 12.5458333 45.185 12.54625 45.185 12.54625zM54.9075 12.54625L54.9075 11.1575C54.32875 12.08375 53.2870833 12.6620833 52.1295833 12.6620833 50.5091667 12.6620833 49.2358333 11.8516667 49.2358333 10.1158333 49.2358333 7.80083333 51.435 6.99083333 53.8654167 6.99083333L54.9070833 6.99083333 54.9070833 6.64333333C54.9070833 5.37041667 54.0970833 4.9075 52.82375 4.9075 51.8979167 4.9075 50.9720833 5.13916667 50.1616667 5.60166667L50.04625 3.98125C50.9720833 3.63416667 52.1295833 3.4025 53.0554167 3.4025 55.37 3.4025 57.10625 4.2125 57.10625 6.75916667L57.10625 10.23125C57.10625 11.1575 57.10625 11.7358333 57.2220833 12.3145833L54.9070833 12.3145833 54.9070833 12.54625 54.9075 12.54625zM54.7916667 8.49541667L54.4445833 8.49541667C53.2870833 8.49541667 51.3195833 8.61083333 51.3195833 10.1158333 51.3195833 10.9258333 52.0141667 11.2729167 52.7083333 11.2729167 54.2129167 11.2729167 54.6758333 10.1158333 54.6758333 8.8425L54.6758333 8.49541667 54.7916667 8.49541667 54.7916667 8.49541667zM61.6204167 12.7775C60.57875 12.7775 59.6529167 12.6620833 58.7270833 12.3145833L58.8429167 10.6941667C59.6529167 11.0416667 60.5791667 11.2729167 61.3891667 11.2729167 62.1991667 11.2729167 63.0095833 11.0416667 63.0095833 10.1158333 63.0095833 8.37958333 58.61125 9.07416667 58.61125 6.18083333 58.61125 4.21291667 60.6945833 3.63458333 62.315 3.63458333 63.125 3.63458333 64.05125 3.75041667 64.8608333 3.98166667L64.7454167 5.48625C64.05125 5.25458333 63.2408333 5.02333333 62.4308333 5.02333333 61.73625 5.02333333 60.81 5.255 60.81 6.065 60.81 7.45416667 65.2083333 6.87541667 65.2083333 9.88458333 65.32375 12.0833333 63.3566667 12.7775 61.6204167 12.7775L61.6204167 12.7775 61.6204167 12.7775zM70.0691667 12.7775C68.1016667 12.7775 67.6391667 11.5041667 67.6391667 9.6525L67.6391667 5.37041667 66.1345833 5.37041667 66.1345833 3.75 67.6391667 3.75 67.6391667 2.01375 70.0691667 1.20375 70.0691667 3.75 72.0370833 3.75 72.0370833 5.37041667 70.0691667 5.37041667 70.0691667 9.6525C70.0691667 10.3470833 70.30125 10.9258333 71.1108333 10.9258333 71.4583333 10.9258333 71.8058333 10.81 72.0370833 10.6941667L72.1525 12.3145833C71.4583333 12.6620833 70.7641667 12.7775 70.0691667 12.7775L70.0691667 12.7775 70.0691667 12.7775zM75.3933333 8.8425C75.3933333 10.3470833 76.5508333 11.2729167 77.9395833 11.2729167 78.7495833 11.2729167 79.79125 11.0416667 80.6016667 10.6941667L80.7175 12.3145833C79.79125 12.6620833 78.5183333 12.7775 77.4766667 12.7775 74.5833333 12.7775 72.9629167 11.0416667 72.9629167 8.14791667 72.9629167 5.60166667 74.69875 3.63416667 77.245 3.63416667 80.0229167 3.63416667 81.1804167 5.60166667 81.1804167 8.26375L81.1804167 8.8425 75.3933333 8.8425 75.3933333 8.8425 75.3933333 8.8425zM77.2454167 5.13875C75.8566667 5.13875 75.39375 6.5275 75.39375 7.56916667L78.9816667 7.56916667C78.9816667 6.5275 78.6345833 5.13875 77.2454167 5.13875L77.2454167 5.13875 77.2454167 5.13875zM88.0095833 5.94916667C87.7775 5.83333333 87.54625 5.83333333 87.315 5.83333333 85.6941667 5.83333333 85.1158333 7.3375 85.1158333 8.72625L85.1158333 12.6616667 82.6854167 12.6616667 82.6854167 5.94916667C82.6854167 5.25458333 82.6854167 4.67583333 82.5695833 3.98125L84.76875 3.98125 84.76875 5.7175C85.1158333 4.79166667 86.0420833 3.86583333 87.1991667 3.86583333 87.43125 3.86583333 87.6620833 3.86583333 87.89375 3.98125L88.0095833 5.94916667 88.0095833 5.94916667 88.0095833 5.94916667zM95.5320833 12.7775C91.8283333 12.7775 89.1666667 10.6941667 89.1666667 6.75916667 89.1666667 3.17125 91.9441667.740833333 95.5320833.740833333 96.4583333.740833333 97.6154167.85625 98.4258333 1.20375L98.31 3.17125C97.6154167 2.82416667 96.6895833 2.70875 95.8795833 2.70875 93.44875 2.70875 91.8283333 4.44458333 91.8283333 6.75958333 91.8283333 9.19 93.3329167 10.8104167 95.76375 10.8104167 96.5733333 10.8104167 97.4995833 10.695 98.19375 10.3479167L98.3095833 12.1995833C97.6154167 12.6620833 96.57375 12.7775 95.5320833 12.7775L95.5320833 12.7775 95.5320833 12.7775zM105.254583 12.54625L105.254583 11.1575C104.675833 12.08375 103.634167 12.6620833 102.476667 12.6620833 100.85625 12.6620833 99.5833333 11.8516667 99.5833333 10.1158333 99.5833333 7.80083333 101.782083 6.99083333 104.212917 6.99083333L105.254583 6.99083333 105.254583 6.64333333C105.254583 5.37041667 104.444167 4.9075 103.17125 4.9075 102.245 4.9075 101.319167 5.13916667 100.509167 5.60166667L100.393333 3.98125C101.319167 3.63416667 102.476667 3.4025 103.4025 3.4025 105.717917 3.4025 107.45375 4.2125 107.45375 6.75916667L107.45375 10.23125C107.45375 11.1575 107.45375 11.7358333 107.569167 12.3145833L105.254583 12.3145833 105.254583 12.54625 105.254583 12.54625zM105.254583 8.49541667L104.907083 8.49541667C103.75 8.49541667 101.782083 8.61083333 101.782083 10.1158333 101.782083 10.9258333 102.476667 11.2729167 103.17125 11.2729167 104.675833 11.2729167 105.139167 10.1158333 105.139167 8.8425L105.139167 8.49541667 105.254583 8.49541667 105.254583 8.49541667zM114.629583 5.94916667C114.398333 5.83333333 114.166667 5.83333333 113.935 5.83333333 112.314583 5.83333333 111.735833 7.3375 111.735833 8.72625L111.735833 12.6616667 109.305833 12.6616667 109.305833 5.94916667C109.305833 5.25458333 109.305833 4.67583333 109.19 3.98125L111.389167 3.98125 111.389167 5.7175C111.735833 4.79166667 112.662083 3.86583333 113.819167 3.86583333 114.05125 3.86583333 114.282083 3.86583333 114.514167 3.98125L114.629583 5.94916667 114.629583 5.94916667 114.629583 5.94916667zM121.92125 12.54625L121.805833 11.1575C121.226667 12.1991667 120.30125 12.7779167 119.0275 12.7779167 116.365417 12.7779167 115.32375 10.5791667 115.32375 8.14833333 115.32375 5.83375 116.365417 3.63458333 118.911667 3.63458333 119.953333 3.63458333 121.110417 4.21333333 121.57375 5.255L121.57375.0466666667 124.004583.0466666667 124.004583 10.11625C124.004583 11.1579167 124.004583 11.8520833 124.12 12.5466667L121.92125 12.5466667 121.92125 12.54625 121.92125 12.54625zM119.837917 5.37041667C118.333333 5.37041667 117.985833 6.99083333 117.985833 8.14791667 117.985833 9.42125 118.333333 11.0416667 119.837917 11.0416667 121.3425 11.0416667 121.689583 9.30541667 121.689583 8.14791667 121.69 6.99083333 121.342917 5.37041667 119.837917 5.37041667L119.837917 5.37041667 119.837917 5.37041667zM21.69 19.60625L21.69 22.73125 26.3195833 22.73125 26.3195833 24.4675 21.69 24.4675 21.69 29.32875 19.14375 29.32875 19.14375 17.7545833 26.55125 17.7545833 26.55125 19.4908333 21.69 19.4908333 21.69 19.60625 21.69 19.60625zM32.3379167 29.56C29.4441667 29.56 27.8241667 27.8241667 27.8241667 24.9308333 27.8241667 22.0375 29.6758333 20.4166667 32.3379167 20.4166667 35.1158333 20.4166667 36.8516667 22.0370833 36.8516667 24.9304167 36.8516667 27.82375 35.1158333 29.56 32.3379167 29.56L32.3379167 29.56 32.3379167 29.56zM32.3379167 22.1525C30.8333333 22.1525 30.37 23.6570833 30.37 25.0458333 30.37 26.4345833 30.8329167 27.9391667 32.3379167 27.9391667 33.8425 27.9391667 34.3054167 26.4345833 34.3054167 25.0458333 34.3054167 23.6570833 33.8425 22.1525 32.3379167 22.1525L32.3379167 22.1525 32.3379167 22.1525zM44.1433333 29.32875L44.1433333 27.8241667C43.5645833 28.8658333 42.5229167 29.4445833 41.3654167 29.4445833 39.2820833 29.4445833 38.4720833 28.17125 38.4720833 26.2041667L38.4720833 20.5325 40.9025 20.5325 40.9025 25.625C40.9025 26.6666667 41.0183333 27.7083333 42.29125 27.7083333 43.68 27.7083333 44.0275 26.4345833 44.0275 25.2775L44.0275 20.5325 46.4579167 20.5325 46.4579167 27.2454167C46.4579167 27.9395833 46.4579167 28.5183333 46.57375 29.2129167L44.1433333 29.2129167 44.1433333 29.32875 44.1433333 29.32875zM53.8658333 29.32875L53.8658333 24.2358333C53.8658333 23.1941667 53.6341667 22.1525 52.36125 22.1525 50.9725 22.1525 50.625 23.3095833 50.625 24.4675L50.625 29.32875 48.1945833 29.32875 48.1945833 22.6158333C48.1945833 21.92125 48.1945833 21.3425 48.07875 20.6479167L50.2779167 20.6479167 50.2779167 22.1525C50.8566667 21.1108333 51.8983333 20.5320833 53.0558333 20.5320833 55.1391667 20.5320833 55.9491667 21.8054167 55.9491667 23.7725L55.9491667 29.44375 53.8658333 29.44375 53.8658333 29.32875 53.8658333 29.32875zM64.3983333 29.32875L64.2825 27.9395833C63.70375 28.98125 62.6620833 29.56 61.505 29.56 58.8429167 29.56 57.80125 27.36125 57.80125 24.9308333 57.80125 22.6158333 58.8429167 20.4170833 61.3891667 20.4170833 62.4308333 20.4170833 63.5883333 20.9958333 64.05125 22.0375L64.05125 16.8291667 66.4816667 16.8291667 66.4816667 26.8983333C66.4816667 27.94 66.4816667 28.6345833 66.5975 29.3291667L64.3983333 29.3291667 64.3983333 29.32875 64.3983333 29.32875zM62.315 22.1525C60.6945833 22.1525 60.4633333 23.7729167 60.4633333 24.9304167 60.4633333 26.20375 60.8104167 27.82375 62.315 27.82375 63.8191667 27.82375 64.1666667 26.0875 64.1666667 24.9304167 64.1666667 23.7729167 63.8191667 22.1525 62.315 22.1525L62.315 22.1525 62.315 22.1525zM73.8891667 29.32875L73.8891667 27.9395833C73.31 28.8658333 72.2683333 29.4441667 71.1108333 29.4441667 69.4904167 29.4441667 68.2179167 28.6341667 68.2179167 26.8979167 68.2179167 24.5833333 70.4166667 23.7729167 72.8475 23.7729167L73.8891667 23.7729167 73.8891667 23.4258333C73.8891667 22.2683333 73.07875 21.6895833 71.8058333 21.6895833 70.8795833 21.6895833 69.95375 21.92125 69.1433333 22.3841667L69.0275 20.76375C69.95375 20.4166667 71.1108333 20.1845833 72.0370833 20.1845833 74.3520833 20.1845833 76.0883333 20.995 76.0883333 23.5416667L76.0883333 27.01375C76.0883333 27.9395833 76.0883333 28.5179167 76.20375 29.0970833L73.8891667 29.0970833 73.8891667 29.32875 73.8891667 29.32875zM73.7733333 25.2775L73.42625 25.2775C72.26875 25.2775 70.30125 25.3929167 70.30125 26.8979167 70.30125 27.7083333 70.9954167 28.0554167 71.69 28.0554167 73.1941667 28.0554167 73.6575 26.8979167 73.6575 25.625L73.6575 25.2775 73.7733333 25.2775 73.7733333 25.2775zM81.1808333 29.56C79.2129167 29.56 78.75 28.2870833 78.75 26.435L78.75 22.1525 77.1295833 22.1525 77.1295833 20.5320833 78.6341667 20.5320833 78.6341667 18.7958333 81.0645833 17.9858333 81.0645833 20.5320833 83.0320833 20.5320833 83.0320833 22.1525 81.0645833 22.1525 81.0645833 26.4345833C81.0645833 27.1291667 81.29625 27.7083333 82.10625 27.7083333 82.4533333 27.7083333 82.8008333 27.5925 83.0320833 27.47625L83.1479167 29.0970833C82.45375 29.4441667 81.7595833 29.56 81.1808333 29.56L81.1808333 29.56 81.1808333 29.56zM84.7683333 19.0275L84.7683333 17.0595833 87.19875 17.0595833 87.19875 19.0275 84.7683333 19.0275 84.7683333 19.0275 84.7683333 19.0275zM84.7683333 29.32875L84.7683333 20.6479167 87.19875 20.6479167 87.19875 29.32875 84.7683333 29.32875 84.7683333 29.32875 84.7683333 29.32875zM93.3333333 29.56C90.44 29.56 88.8191667 27.8241667 88.8191667 24.9308333 88.8191667 22.0375 90.67125 20.4166667 93.3333333 20.4166667 96.1108333 20.4166667 97.8475 22.0370833 97.8475 24.9304167 97.8475 27.82375 96.1108333 29.56 93.3333333 29.56L93.3333333 29.56 93.3333333 29.56zM93.3333333 22.1525C91.82875 22.1525 91.3654167 23.6570833 91.3654167 25.0458333 91.3654167 26.4345833 91.8283333 27.9391667 93.3333333 27.9391667 94.8383333 27.9391667 95.30125 26.4345833 95.30125 25.0458333 95.30125 23.6570833 94.8379167 22.1525 93.3333333 22.1525L93.3333333 22.1525 93.3333333 22.1525zM105.023333 29.32875L105.023333 24.2358333C105.023333 23.1941667 104.9075 22.1525 103.51875 22.1525 102.13 22.1525 101.7825 23.3095833 101.7825 24.4675L101.7825 29.32875 99.3520833 29.32875 99.3520833 22.6158333C99.3520833 21.92125 99.3520833 21.3425 99.23625 20.6479167L101.435417 20.6479167 101.435417 22.1525C102.014583 21.1108333 103.05625 20.5320833 104.213333 20.5320833 106.296667 20.5320833 107.106667 21.8054167 107.106667 23.7725L107.106667 29.44375 105.023333 29.44375 105.023333 29.32875 105.023333 29.32875z"/>
    </g>
  </g>
</svg>
