<svg xmlns="http://www.w3.org/2000/svg" width="125" height="88" viewBox="0 0 125 88">
  <g fill="#565656" fill-rule="evenodd" transform="translate(0 22)">
    <path d="M54.113125,13.938125 L45.3725,13.938125 C45.3725,15.6275 46.260625,16.54 47.975,16.54 C48.864375,16.54 49.501875,16.2425 49.96,15.466875 L53.9525,15.466875 C53.291875,18.226875 50.666875,19.483125 47.99875,19.483125 C44.118125,19.483125 41.22125,17.293125 41.22125,13.254375 C41.22125,9.35125 43.89,7.00125 47.701875,7.00125 C51.763125,7.00125 54.11375,9.511875 54.11375,13.50375 L54.113125,13.938125 L54.113125,13.938125 L54.113125,13.938125 Z M50.256875,11.543125 C50.05,10.42375 49.023125,9.694375 47.904375,9.694375 C46.695625,9.694375 45.69125,10.3325 45.44,11.543125 L50.256875,11.543125 L50.256875,11.543125 L50.256875,11.543125 Z"/>
    <polyline points="61.422 19.277 57.27 19.277 57.27 10.995 55.196 10.995 55.196 7.571 57.27 7.571 57.27 4.058 61.422 4.058 61.422 7.571 63.47 7.571 63.47 10.995 61.422 10.995 61.422 19.277"/>
    <path d="M88.786875 19.22625L84.631875 19.22625 84.631875 11.35 82.565 11.35 82.565 7.926875 84.631875 7.926875 84.631875 7.314375C84.631875 5.695 84.678125 4.509375 85.819375 3.208125 86.848125 1.996875 88.33125 1.33625 89.905 1.33625 90.543125 1.33625 91.113125 1.45125 91.68375 1.74625L91.68375 5.33C91.205 5.1225 90.770625 4.94 90.225 4.94 89.150625 4.94 88.786875 5.58 88.786875 6.9025L88.786875 7.92625 91.2675 7.92625 91.2675 11.349375 88.786875 11.349375 88.786875 19.22625M105.074375 13.946875L96.3325 13.946875C96.3325 15.634375 97.224375 16.546875 98.934375 16.546875 99.825625 16.546875 100.4625 16.25125 100.920625 15.47375L104.915625 15.47375C104.253125 18.234375 101.6275 19.49 98.95875 19.49 95.079375 19.49 92.183125 17.299375 92.183125 13.260625 92.183125 9.358125 94.85125 7.00875 98.66125 7.00875 102.7225 7.00875 105.075625 9.519375 105.075625 13.5125L105.074375 13.946875 105.074375 13.946875 105.074375 13.946875zM101.215625 11.55125C101.01 10.43125 99.98625 9.7025 98.865625 9.7025 97.655625 9.7025 96.65125 10.34125 96.401875 11.55125L101.215625 11.55125 101.215625 11.55125 101.215625 11.55125z"/>
    <polyline points="22.448 2.881 26.648 2.881 29.976 11.652 33.502 2.881 37.747 2.881 40.227 19.291 35.961 19.291 34.765 9.846 34.721 9.846 30.782 19.291 29.086 19.291 25.319 9.846 25.276 9.846 23.906 19.291 19.661 19.291 22.448 2.881"/>
    <polyline points="69.562 15.596 74.756 15.596 74.756 19.266 65.226 19.266 65.226 2.593 69.562 2.593 69.562 15.596"/>
    <rect width="4.152" height="12.506" x="76.301" y="6.771"/>
    <path d="M81.015625,2.593125 C81.015625,4.026875 79.855,5.1875 78.423125,5.1875 C76.99125,5.1875 75.8275,4.026875 75.8275,2.593125 C75.8275,1.16 76.99125,5.55111512e-16 78.423125,5.55111512e-16 C79.855,5.55111512e-16 81.015625,1.16 81.015625,2.593125"/>
    <polyline points="0 26.999 10.159 26.999 10.159 30.644 4.407 30.644 4.407 33.519 9.396 33.519 9.396 37.069 4.407 37.069 4.407 43.586 0 43.586 0 26.999"/>
    <path d="M17.42125 44.03875C13.67125 44.03875 10.85625 41.196875 10.85625 37.736875 10.85625 34.249375 13.695625 31.433125 17.42125 31.433125 21.145 31.433125 24.00875 34.249375 24.00875 37.736875 24.008125 41.2225 21.145 44.03875 17.42125 44.03875L17.42125 44.03875 17.42125 44.03875zM17.42125 34.895C15.893125 34.895 14.961875 35.995625 14.961875 37.7375 14.961875 39.478125 15.8925 40.553125 17.42125 40.553125 18.9475 40.553125 19.87875 39.478125 19.87875 37.7375 19.878125 35.995625 18.9475 34.895 17.42125 34.895L17.42125 34.895 17.42125 34.895zM37.740625 37.833125C37.740625 39.67125 37.695 41.1275 36.3325 42.48625 35.280625 43.539375 33.729375 44.03875 31.653125 44.03875 29.576875 44.03875 28.04875 43.53875 26.950625 42.48625 25.638125 41.223125 25.565625 39.74125 25.565625 37.833125L25.565625 31.81625 29.5275 31.81625 29.5275 38.09375C29.5275 39.9325 30.03 40.889375 31.60625 40.889375 33.181875 40.889375 33.6825 39.933125 33.6825 38.09375L33.6825 31.815625 37.74125 31.815625 37.740625 37.833125M104.850625 43.818125C101.1025 43.818125 98.285625 40.97875 98.285625 37.514375 98.285625 34.033125 101.128125 31.213125 104.850625 31.213125 108.574375 31.213125 111.440625 34.03375 111.440625 37.514375 111.440625 41.0025 108.574375 43.818125 104.850625 43.818125L104.850625 43.818125 104.850625 43.818125zM104.850625 34.675C103.324375 34.675 102.390625 35.77625 102.390625 37.514375 102.390625 39.26 103.3225 40.335 104.850625 40.335 106.380625 40.335 107.311875 39.26 107.311875 37.514375 107.310625 35.776875 106.380625 34.675 104.850625 34.675L104.850625 34.675 104.850625 34.675z"/>
    <polyline points="88.597 43.616 84.444 43.616 84.444 35.335 82.368 35.335 82.368 31.912 84.444 31.912 84.444 28.395 88.597 28.395 88.597 31.912 90.644 31.912 90.644 35.335 88.597 35.335 88.597 43.616"/>
    <rect width="4.154" height="12.506" x="92.332" y="31.111"/>
    <path d="M97.048125 26.93125C97.048125 28.363125 95.884375 29.52625 94.455 29.52625 93.021875 29.52625 91.859375 28.363125 91.859375 26.93125 91.859375 25.500625 93.021875 24.33875 94.455 24.33875 95.884375 24.338125 97.048125 25.50125 97.048125 26.93125M43.485625 33.51875L43.53 33.51875C44.47 32.13125 45.610625 31.65875 47.2025 31.65875 50.29625 31.65875 51.52625 33.609375 51.52625 36.431875L51.52625 43.5325 47.449375 43.5325 47.449375 37.930625C47.449375 36.831875 47.628125 34.906875 45.61 34.906875 43.95375 34.906875 43.485 36.14 43.485 37.574375L43.485 43.5325 39.40625 43.5325 39.40625 32.03875 43.485 32.03875 43.485625 33.51875M116.959375 33.51875L117.004375 33.51875C117.945 32.13125 119.08625 31.65875 120.67875 31.65875 123.76875 31.65875 125 33.609375 125 36.431875L125 43.5325 120.923125 43.5325 120.923125 37.930625C120.923125 36.831875 121.10125 34.906875 119.086875 34.906875 117.430625 34.906875 116.96 36.14 116.96 37.574375L116.96 43.5325 112.88375 43.5325 112.88375 32.03875 116.96 32.03875 116.959375 33.51875M62.011875 42.416875L61.973125 42.416875C61.27125 43.5375 59.886875 44.040625 58.57 44.040625 55.235 44.040625 52.8875 41.256875 52.8875 38.03 52.8875 34.8025 55.19125 32.03875 58.525625 32.03875 59.821875 32.03875 61.179375 32.520625 62.0125 33.51L62.0125 26.114375 66.009375 26.114375 66.009375 43.670625 62.0125 43.670625 62.0125 42.416875 62.011875 42.416875 62.011875 42.416875zM57.011875 38.050625C57.011875 39.47625 57.954375 40.5725 59.5775 40.5725 61.203125 40.5725 62.145 39.47625 62.145 38.050625 62.145 36.6675 61.2025 35.504375 59.5775 35.504375 57.954375 35.505625 57.011875 36.6675 57.011875 38.050625L57.011875 38.050625 57.011875 38.050625zM80.68875 43.670625L76.693125 43.670625 76.693125 42.4175 76.649375 42.4175C75.9475 43.538125 74.566875 44.04125 73.250625 44.04125 69.913125 44.04125 67.564375 41.2575 67.564375 38.03125 67.564375 34.80375 69.869375 32.039375 73.20375 32.039375 74.4975 32.039375 75.859375 32.52125 76.691875 33.510625L76.691875 32.4125 80.688125 32.4125 80.688125 43.670625 80.68875 43.670625 80.68875 43.670625zM71.68875 38.050625C71.68875 39.47625 72.63375 40.5725 74.25625 40.5725 75.88125 40.5725 76.824375 39.47625 76.824375 38.050625 76.824375 36.6675 75.88 35.504375 74.25625 35.504375 72.63375 35.505625 71.68875 36.6675 71.68875 38.050625L71.68875 38.050625 71.68875 38.050625z"/>
  </g>
</svg>
