<svg xmlns="http://www.w3.org/2000/svg" width="125" height="88" viewBox="0 0 125 88">
  <g fill="none" fill-rule="evenodd" transform="translate(0 22)">
    <path fill="#424242" d="M28.0870647,28.266791 L32.545398,28.266791 L32.545398,24.3669154 L37.3221393,24.3669154 C40.4850746,24.3669154 41.6237562,22.5037313 41.6237562,20.096393 C41.6237562,17.3022388 40.4539801,15.7201493 37.2904229,15.7201493 L28.0870647,15.7201493 L28.0870647,28.266791 L28.0870647,28.266791 L28.0870647,28.266791 L28.0870647,28.266791 Z M32.545398,18.6728856 L35.4241294,18.6728856 C36.5472637,18.6728856 36.9745025,19.0584577 36.9745025,20.0074627 C36.9745025,20.9216418 36.5472637,21.3078358 35.4241294,21.3078358 L32.545398,21.3078358 L32.545398,18.6728856 L32.545398,18.6728856 L32.545398,18.6728856 L32.545398,18.6728856 Z"/>
    <polygon fill="#424242" points="43.095 15.72 55.098 15.72 55.098 18.778 47.555 18.778 47.555 20.465 54.56 20.465 54.56 23.522 47.555 23.522 47.555 25.209 55.098 25.209 55.098 28.267 43.095 28.267"/>
    <path fill="#424242" d="M56.9645522 28.266791L61.4235075 28.266791 61.4235075 24.3669154 66.2002488 24.3669154C69.363806 24.3669154 70.5018657 22.5037313 70.5018657 20.096393 70.5018657 17.3022388 69.3308458 15.7201493 66.1679104 15.7201493L56.9645522 15.7201493 56.9645522 28.266791 56.9645522 28.266791 56.9645522 28.266791 56.9645522 28.266791zM61.4235075 18.6728856L64.3022388 18.6728856C65.4253731 18.6728856 65.8507463 19.0584577 65.8507463 20.0074627 65.8507463 20.9216418 65.4241294 21.3078358 64.3022388 21.3078358L61.4235075 21.3078358 61.4235075 18.6728856 61.4235075 18.6728856 61.4235075 18.6728856 61.4235075 18.6728856zM74.8202736 22.9421642C72.6374378 22.574005 71.7363184 21.1672886 71.7363184 19.4098259 71.7363184 16.1585821 74.5982587 15.2804726 78.2686567 15.2804726 83.2972637 15.2804726 85.3681592 16.7394279 85.5261194 19.3924129L80.340796 19.3924129C80.340796 18.8837065 80.0696517 18.5659204 79.6579602 18.3905473 79.2636816 18.1977612 78.7593284 18.1274876 78.2686567 18.1274876 76.9384328 18.1274876 76.4807214 18.4962687 76.4807214 19.02301 76.4807214 19.375 76.6231343 19.6038557 77.0652985 19.6728856L82.3942786 20.5522388C84.6399254 20.9216418 86.0323383 22.0814677 86.0323383 24.2077114 86.0323383 27.2649254 83.7866915 28.7052239 78.7723881 28.7052239 75.340796 28.7052239 71.5932836 28.1778607 71.5783582 24.4881841L76.954602 24.4881841C76.971393 24.909204 77.113806 25.1909204 77.4297264 25.3830846 77.761194 25.5590796 78.2512438 25.6486318 78.9477612 25.6486318 80.340796 25.6486318 80.7195274 25.2263682 80.7195274 24.6287313 80.7195274 24.2593284 80.5143035 23.8905473 79.9129353 23.7854478L74.8202736 22.9421642 74.8202736 22.9421642 74.8202736 22.9421642 74.8202736 22.9421642z"/>
    <polygon fill="#424242" points="87.488 15.72 91.948 15.72 91.948 28.267 87.488 28.267"/>
    <path fill="#424242" d="M108.473259 23.3818408C108.188433 25.034204 107.682836 26.3687811 106.575249 27.2823383 105.483831 28.1965174 103.776741 28.7052239 101.05597 28.7052239 98.35199 28.7052239 93.3383085 28.4956468 93.3383085 21.9937811 93.3383085 15.4925373 98.35199 15.2810945 101.05597 15.2810945 103.743781 15.2810945 107.886816 15.6679104 108.473259 20.6405473L103.443408 20.6405473C103.318408 19.744403 102.779851 18.4440299 101.05597 18.4440299 99.2363184 18.4440299 98.0833333 19.4458955 98.0833333 21.994403 98.0833333 24.5422886 99.2064677 25.5435323 100.836443 25.5435323 102.243159 25.5435323 103.079602 24.8936567 103.443408 23.3824627L108.473259 23.3824627 108.473259 23.3818408 108.473259 23.3818408 108.473259 23.3818408zM109.564677 21.9937811C109.564677 28.4956468 114.578358 28.7052239 117.28296 28.7052239 119.987562 28.7052239 125 28.4956468 125 21.9937811 125 15.4925373 119.98694 15.2810945 117.28296 15.2810945 114.57898 15.2810945 109.564677 15.4925373 109.564677 21.9937811L109.564677 21.9937811 109.564677 21.9937811 109.564677 21.9937811zM114.30908 21.9937811C114.30908 19.4452736 115.46393 18.443408 117.28296 18.443408 119.10199 18.443408 120.254975 19.4452736 120.254975 21.9937811 120.254975 24.5416667 119.10199 25.5429104 117.28296 25.5429104 115.46393 25.5429104 114.30908 24.5416667 114.30908 21.9937811L114.30908 21.9937811 114.30908 21.9937811 114.30908 21.9937811zM20.9235075 16.6106965C20.460199 17.1766169 19.8756219 17.7493781 19.1909204 18.2910448 17.9322139 11.0528607 12.6106965 4.72636816 8.85012438 2.87810945L8.7699005 2.93532338C12.5522388 6.03793532 17.0652985 12.0640547 18.8196517 18.5746269 17.9807214 19.193408 17.0093284 19.761194 15.9378109 20.2232587 12.3675373 16.1548507 9.0391791 8.30721393 7.96641791 3.32835821L7.85696517 3.3619403C7.8818408 8.19402985 11.3140547 16.4004975 15.5031095 20.403607 14.5727612 20.7705224 13.5733831 21.056592 12.5242537 21.2263682 8.50932836 19.6368159 5.65236318 14.5472637 5.65236318 9.33333333 5.65236318 5.92910448 6.6909204 3.82338308 6.89241294 3.39179104L6.80597015 3.35820896C6.56343284 3.72512438 5.04166667 5.82960199 5.04166667 9.50497512 5.04166667 15.3992537 7.95024876 19.9029851 11.8121891 21.3221393 10.4912935 21.4651741 9.10012438 21.4222637 7.67475124 21.1274876L7.64676617 21.2176617C8.0590796 21.369403 9.4608209 21.9577114 11.5982587 21.9577114 16.4340796 21.9577114 19.7033582 18.9552239 21.0186567 16.6728856L20.9235075 16.6106965 20.9235075 16.6106965 20.9235075 16.6106965 20.9235075 16.6106965zM21.3470149 15.8445274C21.6355721 9.82524876 16.4409204 3.04664179 9.36007463 2.20957711L9.37126866 2.12686567C16.3526119 2.12686567 21.7052239 8.585199 21.7052239 13.6822139 21.6971393 14.7419154 21.6144279 15.3998756 21.4645522 15.8762438L21.3470149 15.8445274 21.3470149 15.8445274 21.3470149 15.8445274 21.3470149 15.8445274z"/>
    <path fill="#727272" d="M12.5783582,1.69900498 C12.5783582,3.54912935 9.02300995,5.81156716 6.05161692,5.81156716 C4.73880597,5.81156716 4.02860697,5.29415423 4.02860697,4.44216418 C4.02860697,2.56467662 7.62437811,0.342039801 10.4123134,0.342039801 C12.2294776,0.342039801 12.5783582,1.26616915 12.5783582,1.69900498 L12.5783582,1.69900498 L12.5783582,1.69900498 L12.5783582,1.69900498 Z M11.1156716,0 C7.44900498,0 3.15049751,2.64365672 3.15049751,5.0590796 C3.15049751,5.99440299 4.00621891,6.78544776 5.77736318,6.78544776 C9.88868159,6.78544776 13.7083333,3.96144279 13.7083333,1.76679104 C13.7083333,0.611940299 12.5982587,0 11.1156716,0 L11.1156716,0 L11.1156716,0 L11.1156716,0 Z"/>
    <path fill="#979797" d="M1.6909204,6.17972637 C1.58830846,6.35758706 1.17599502,7.1641791 1.17599502,7.99191542 C1.17599502,9.52674129 2.72699005,10.9514925 5.58022388,10.9514925 C11.0696517,10.9514925 17.4110697,6.91355721 17.4110697,3.16604478 C17.4110697,1.48258706 15.8171642,0.56778607 14.7108209,0.378109453 L14.6902985,0.444029851 C15.0348259,0.553482587 16.2947761,1.13868159 16.2947761,2.63868159 C16.2947761,5.625 10.6958955,9.69340796 5.11753731,9.69340796 C2.98258706,9.69340796 1.63681592,8.63930348 1.63681592,7.1050995 C1.63681592,6.61940299 1.73818408,6.30037313 1.76492537,6.20895522 L1.6909204,6.17972637 L1.6909204,6.17972637 L1.6909204,6.17972637 L1.6909204,6.17972637 Z"/>
    <path fill="#666666" d="M19.6741294,3.44527363 C19.8246269,3.55970149 20.7282338,4.31218905 20.7282338,5.7369403 C20.7282338,10.5926617 13.1162935,15.3669154 6.38619403,15.3669154 C2.37251244,15.3669154 0.542910448,13.3874378 0.623756219,11.6293532 L0.696517413,11.6293532 C0.853855721,12.5404229 2.15733831,14.1741294 5.66853234,14.1741294 C12.4079602,14.1741294 19.9322139,9.23507463 19.9322139,4.90609453 C19.9322139,4.1641791 19.7294776,3.70087065 19.6156716,3.49626866 L19.6741294,3.44527363 L19.6741294,3.44527363 L19.6741294,3.44527363 L19.6741294,3.44527363 Z"/>
    <path fill="#5C5C5C" d="M22.2189055,7.97761194 C22.2506219,8.08146766 22.414801,8.5460199 22.414801,9.27425373 C22.414801,14.675995 14.7095771,19.2997512 8.00995025,19.2997512 C4.56156716,19.2997512 2.76119403,17.6256219 2.3818408,16.9471393 L2.44278607,16.9004975 C3.39676617,17.7356965 5.2761194,18.3675373 7.46952736,18.3675373 C13.3868159,18.3675373 22.2170398,13.8687811 22.1374378,7.99751244 L22.2189055,7.97761194 L22.2189055,7.97761194 L22.2189055,7.97761194 L22.2189055,7.97761194 Z"/>
    <g fill="#6E6E6E" transform="translate(26.741 34.826)">
      <path d="M.598880597 8.80472637L2.12562189 8.80472637 2.12562189 1.56902985.598880597 1.56902985.598880597.661691542 8.42475124.661691542 8.42475124 3.67412935 7.76430348 3.67412935C7.18656716 1.91355721 6.95273632 1.56902985 5.89365672 1.56902985L3.54166667 1.56902985 3.54166667 4.8289801 4.32587065 4.8289801C5.34328358 4.8289801 5.53606965 4.6641791 5.72885572 3.42599502L6.45771144 3.42599502 6.45771144 7.0858209 5.72885572 7.0858209C5.56343284 5.79228856 5.34328358 5.59950249 4.32587065 5.59950249L3.54166667 5.59950249 3.54166667 8.80410448 5.22014925 8.80410448 5.22014925 9.71206468.598258706 9.71206468.598880597 8.80472637.598880597 8.80472637.598880597 8.80472637zM9.71641791 5.18718905C9.71641791 2.49129353 11.7518657.441542289 14.1455224.441542289 16.6075871.441542289 18.5746269 2.40920398 18.5746269 5.18718905 18.5746269 7.89676617 16.5391791 9.93345771 14.1455224 9.93345771 11.6834577 9.93345771 9.71641791 7.95211443 9.71641791 5.18718905L9.71641791 5.18718905 9.71641791 5.18718905zM16.9241294 5.18718905C16.9241294 2.77985075 15.9477612 1.35012438 14.1455224 1.35012438 12.3432836 1.35012438 11.3669154 2.79415423 11.3669154 5.18718905 11.3669154 7.58084577 12.3432836 9.02487562 14.1455224 9.02487562 15.9477612 9.02487562 16.9241294 7.59390547 16.9241294 5.18718905L16.9241294 5.18718905 16.9241294 5.18718905zM21.0758706 6.97512438L21.0758706 1.56902985 19.7549751 1.56902985 19.7549751.661691542 23.8401741.661691542 23.8401741 1.56902985 22.4919154 1.56902985 22.4919154 6.52114428C22.4919154 8.26803483 23.3725124 8.94216418 25.0503731 8.94216418 25.7929104 8.94216418 26.2879353 8.69465174 26.6871891 8.29539801 27.1548507 7.82773632 27.2512438 7.22201493 27.2512438 6.1909204L27.2512438 1.56902985 25.8345771 1.56902985 25.8345771.660447761 29.5621891.660447761 29.5621891 1.56902985 28.2692786 1.56902985 28.2692786 6.9738806C28.2692786 8.52860697 26.9900498 9.93097015 24.6243781 9.93097015 22.3134328 9.93345771 21.0758706 8.70833333 21.0758706 6.97512438L21.0758706 6.97512438 21.0758706 6.97512438z"/>
      <polygon points="33.205 2.491 33.081 2.491 33.081 8.805 34.512 8.805 34.512 9.713 30.675 9.713 30.675 8.805 32.064 8.805 32.064 1.569 30.675 1.569 30.675 .662 33.673 .662 38.226 7.265 38.35 7.265 38.35 1.569 36.919 1.569 36.919 .662 40.757 .662 40.757 1.569 39.368 1.569 39.368 9.933 38.322 9.933"/>
      <path d="M41.8830846 8.80472637L43.409204 8.80472637 43.409204 1.56902985 41.8830846 1.56902985 41.8830846.661691542 45.7618159.661691542C49.1449005.661691542 50.8787313 2.44962687 50.8787313 5.04975124 50.8787313 7.55223881 49.35199 9.71268657 45.886194 9.71268657L41.8830846 9.71268657 41.8830846 8.80472637 41.8830846 8.80472637 41.8830846 8.80472637zM45.8998756 8.80472637C48.210199 8.80472637 49.2282338 7.80099502 49.2282338 5.04975124 49.2282338 2.64241294 48.1971393 1.56902985 45.7630597 1.56902985L44.8271144 1.56902985 44.8271144 8.80472637 45.8998756 8.80472637 45.8998756 8.80472637 45.8998756 8.80472637zM57.60199 6.53544776L54.3277363 6.53544776 53.5024876 8.80472637 54.6442786 8.80472637 54.6442786 9.71268657 51.4670398 9.71268657 51.4670398 8.80472637 52.443408 8.80472637 55.5932836.606965174 56.9819652.606965174 59.9390547 8.80472637 61.1915423 8.80472637 61.1915423 9.71268657 56.9552239 9.71268657 56.9552239 8.80472637 58.3855721 8.80472637 57.60199 6.53544776 57.60199 6.53544776 57.60199 6.53544776zM54.6318408 5.73818408L57.3271144 5.73818408 56.0472637 2.03855721 55.9925373 2.03855721 54.6318408 5.73818408 54.6318408 5.73818408 54.6318408 5.73818408zM62.9371891 8.80472637L64.5329602 8.80472637 64.5329602 1.43221393 63.9266169 1.43221393C62.7170398 1.43221393 62.4558458 1.83208955 61.7810945 3.88121891L61.1355721 3.88121891 61.1355721.661691542 69.3457711.661691542 69.3457711 3.88059701 68.6996269 3.88059701C68.0254975 1.83146766 67.7643035 1.43159204 66.5541045 1.43159204L65.9483831 1.43159204 65.9483831 8.80410448 67.5435323 8.80410448 67.5435323 9.71206468 62.9359453 9.71206468 62.9371891 8.80472637 62.9371891 8.80472637 62.9371891 8.80472637z"/>
      <polygon points="70.831 8.805 72.357 8.805 72.357 1.569 70.831 1.569 70.831 .662 75.301 .662 75.301 1.569 73.774 1.569 73.774 8.805 75.301 8.805 75.301 9.713 70.831 9.713"/>
      <path d="M76.7580846,5.18718905 C76.7580846,2.49129353 78.7941542,0.441542289 81.1871891,0.441542289 C83.6492537,0.441542289 85.6162935,2.40920398 85.6162935,5.18718905 C85.6162935,7.89676617 83.5814677,9.93345771 81.1871891,9.93345771 C78.7251244,9.93345771 76.7580846,7.95211443 76.7580846,5.18718905 L76.7580846,5.18718905 L76.7580846,5.18718905 Z M83.9664179,5.18718905 C83.9664179,2.77985075 82.9900498,1.35012438 81.1871891,1.35012438 C79.3843284,1.35012438 78.4085821,2.79415423 78.4085821,5.18718905 C78.4085821,7.58084577 79.3843284,9.02487562 81.1871891,9.02487562 C82.9900498,9.02487562 83.9664179,7.59390547 83.9664179,5.18718905 L83.9664179,5.18718905 L83.9664179,5.18718905 Z"/>
      <polygon points="89.534 2.491 89.411 2.491 89.411 8.805 90.841 8.805 90.841 9.713 87.004 9.713 87.004 8.805 88.392 8.805 88.392 1.569 87.004 1.569 87.004 .662 90.002 .662 94.555 7.265 94.678 7.265 94.678 1.569 93.247 1.569 93.247 .662 97.085 .662 97.085 1.569 95.697 1.569 95.697 9.933 94.65 9.933"/>
    </g>
  </g>
</svg>
